<?xml version="1.0" encoding="UTF-8" standalone="no"?>
<!DOCTYPE svg PUBLIC "-//W3C//DTD SVG 1.1//EN"
 "http://www.w3.org/Graphics/SVG/1.1/DTD/svg11.dtd">
<!-- Generated by graphviz version 8.0.5 (20230430.1635)
 -->
<!-- Pages: 1 -->
<svg width="333pt" height="780pt"
 viewBox="0.00 0.00 332.81 780.33" xmlns="http://www.w3.org/2000/svg" xmlns:xlink="http://www.w3.org/1999/xlink">
<g id="graph0" class="graph" transform="scale(1 1) rotate(0) translate(4 776.33)">
<polygon fill="white" stroke="none" points="-4,4 -4,-776.33 328.81,-776.33 328.81,4 -4,4"/>
<!-- ready
output 0.000 -->
<g id="node1" class="node">
<title>ready
output 0.000</title>
<polygon fill="yellow" stroke="black" points="211.18,-772.33 147.93,-772.33 147.93,-741.83 211.18,-741.83 211.18,-772.33"/>
<text text-anchor="middle" x="179.56" y="-759.78" font-family="Times New Roman,serif" font-size="9.00">ready</text>
<text text-anchor="middle" x="179.56" y="-748.53" font-family="Times New Roman,serif" font-size="9.00">output 0.000</text>
</g>
<!-- key 5665
bias &#45;0.063
h_scaling 0.748
output 0.495 -->
<g id="node4" class="node">
<title>key 5665
bias &#45;0.063
h_scaling 0.748
output 0.495</title>
<ellipse fill="white" stroke="black" cx="50.56" cy="-198.92" rx="50.56" ry="50.56"/>
<text text-anchor="middle" x="50.56" y="-212.87" font-family="Times New Roman,serif" font-size="9.00">key 5665</text>
<text text-anchor="middle" x="50.56" y="-201.62" font-family="Times New Roman,serif" font-size="9.00">bias &#45;0.063</text>
<text text-anchor="middle" x="50.56" y="-190.37" font-family="Times New Roman,serif" font-size="9.00">h_scaling 0.748</text>
<text text-anchor="middle" x="50.56" y="-179.12" font-family="Times New Roman,serif" font-size="9.00">output 0.495</text>
</g>
<!-- ready
output 0.000&#45;&gt;key 5665
bias &#45;0.063
h_scaling 0.748
output 0.495 -->
<g id="edge5" class="edge">
<title>ready
output 0.000&#45;&gt;key 5665
bias &#45;0.063
h_scaling 0.748
output 0.495</title>
<path fill="none" stroke="red" stroke-width="0.1" d="M147.5,-750.93C96.5,-740.7 2.56,-712.68 2.56,-645.02 2.56,-645.02 2.56,-645.02 2.56,-346.29 2.56,-314.46 12.94,-280.58 24.04,-253.44"/>
<polygon fill="red" stroke="red" stroke-width="0.1" points="27.15,-255.08 27.82,-244.51 20.7,-252.36 27.15,-255.08"/>
<text text-anchor="middle" x="12.68" y="-492.73" font-family="Times New Roman,serif" font-size="9.00">0.595</text>
</g>
<!-- key 38307
bias &#45;0.282
h_scaling 0.984
output 0.476 -->
<g id="node5" class="node">
<title>key 38307
bias &#45;0.282
h_scaling 0.984
output 0.476</title>
<ellipse fill="white" stroke="black" cx="179.56" cy="-644.02" rx="50.56" ry="50.56"/>
<text text-anchor="middle" x="179.56" y="-657.97" font-family="Times New Roman,serif" font-size="9.00">key 38307</text>
<text text-anchor="middle" x="179.56" y="-646.72" font-family="Times New Roman,serif" font-size="9.00">bias &#45;0.282</text>
<text text-anchor="middle" x="179.56" y="-635.47" font-family="Times New Roman,serif" font-size="9.00">h_scaling 0.984</text>
<text text-anchor="middle" x="179.56" y="-624.22" font-family="Times New Roman,serif" font-size="9.00">output 0.476</text>
</g>
<!-- ready
output 0.000&#45;&gt;key 38307
bias &#45;0.282
h_scaling 0.984
output 0.476 -->
<g id="edge7" class="edge">
<title>ready
output 0.000&#45;&gt;key 38307
bias &#45;0.282
h_scaling 0.984
output 0.476</title>
<path fill="none" stroke="red" stroke-width="0.1" d="M179.56,-741.56C179.56,-731.96 179.56,-718.66 179.56,-704.99"/>
<polygon fill="red" stroke="red" stroke-width="0.1" points="183.06,-705.03 179.56,-695.03 176.06,-705.03 183.06,-705.03"/>
<text text-anchor="middle" x="189.68" y="-715.28" font-family="Times New Roman,serif" font-size="9.00">0.527</text>
</g>
<!-- key 186159
bias &#45;0.886
h_scaling 0.554
output 0.017 -->
<g id="node7" class="node">
<title>key 186159
bias &#45;0.886
h_scaling 0.554
output 0.017</title>
<ellipse fill="white" stroke="black" cx="250.56" cy="-347.29" rx="50.56" ry="50.56"/>
<text text-anchor="middle" x="250.56" y="-361.24" font-family="Times New Roman,serif" font-size="9.00">key 186159</text>
<text text-anchor="middle" x="250.56" y="-349.99" font-family="Times New Roman,serif" font-size="9.00">bias &#45;0.886</text>
<text text-anchor="middle" x="250.56" y="-338.74" font-family="Times New Roman,serif" font-size="9.00">h_scaling 0.554</text>
<text text-anchor="middle" x="250.56" y="-327.49" font-family="Times New Roman,serif" font-size="9.00">output 0.017</text>
</g>
<!-- ready
output 0.000&#45;&gt;key 186159
bias &#45;0.886
h_scaling 0.554
output 0.017 -->
<g id="edge12" class="edge">
<title>ready
output 0.000&#45;&gt;key 186159
bias &#45;0.886
h_scaling 0.554
output 0.017</title>
<path fill="none" stroke="red" stroke-width="0.1" d="M211.38,-745.6C234.3,-736.19 263.56,-719.89 277.56,-694.58 328.32,-602.79 297.64,-475.87 272.75,-403.93"/>
<polygon fill="red" stroke="red" stroke-width="0.1" points="276.08,-402.84 269.44,-394.58 269.48,-405.18 276.08,-402.84"/>
<text text-anchor="middle" x="314.68" y="-566.92" font-family="Times New Roman,serif" font-size="9.00">1.156</text>
</g>
<!-- go
output 0.000 -->
<g id="node2" class="node">
<title>go
output 0.000</title>
<polygon fill="green" stroke="black" points="105.18,-659.27 41.93,-659.27 41.93,-628.77 105.18,-628.77 105.18,-659.27"/>
<text text-anchor="middle" x="73.56" y="-646.72" font-family="Times New Roman,serif" font-size="9.00">go</text>
<text text-anchor="middle" x="73.56" y="-635.47" font-family="Times New Roman,serif" font-size="9.00">output 0.000</text>
</g>
<!-- go
output 0.000&#45;&gt;key 5665
bias &#45;0.063
h_scaling 0.748
output 0.495 -->
<g id="edge2" class="edge">
<title>go
output 0.000&#45;&gt;key 5665
bias &#45;0.063
h_scaling 0.748
output 0.495</title>
<path fill="none" stroke="blue" stroke-width="0.1" d="M72.79,-628.28C69.83,-571.26 59.03,-363.17 53.65,-259.48"/>
<polygon fill="blue" stroke="blue" stroke-width="0.1" points="57.16,-259.59 53.15,-249.78 50.17,-259.95 57.16,-259.59"/>
<text text-anchor="middle" x="74.18" y="-418.55" font-family="Times New Roman,serif" font-size="9.00">&#45;0.646</text>
</g>
<!-- key 16367
bias &#45;0.020
h_scaling 0.577
output 0.261 -->
<g id="node6" class="node">
<title>key 16367
bias &#45;0.020
h_scaling 0.577
output 0.261</title>
<ellipse fill="white" stroke="black" cx="129.56" cy="-495.66" rx="50.56" ry="50.56"/>
<text text-anchor="middle" x="129.56" y="-509.61" font-family="Times New Roman,serif" font-size="9.00">key 16367</text>
<text text-anchor="middle" x="129.56" y="-498.36" font-family="Times New Roman,serif" font-size="9.00">bias &#45;0.020</text>
<text text-anchor="middle" x="129.56" y="-487.11" font-family="Times New Roman,serif" font-size="9.00">h_scaling 0.577</text>
<text text-anchor="middle" x="129.56" y="-475.86" font-family="Times New Roman,serif" font-size="9.00">output 0.261</text>
</g>
<!-- go
output 0.000&#45;&gt;key 16367
bias &#45;0.020
h_scaling 0.577
output 0.261 -->
<g id="edge6" class="edge">
<title>go
output 0.000&#45;&gt;key 16367
bias &#45;0.020
h_scaling 0.577
output 0.261</title>
<path fill="none" stroke="red" stroke-width="0.1" d="M79.13,-628.45C85.89,-610.78 97.69,-579.96 108.17,-552.56"/>
<polygon fill="red" stroke="red" stroke-width="0.1" points="111.36,-554.01 111.67,-543.42 104.82,-551.51 111.36,-554.01"/>
<text text-anchor="middle" x="112.68" y="-566.92" font-family="Times New Roman,serif" font-size="9.00">1.016</text>
</g>
<!-- output
bias &#45;0.449
h_scaling 0.908
output 0.204 -->
<g id="node3" class="node">
<title>output
bias &#45;0.449
h_scaling 0.908
output 0.204</title>
<ellipse fill="lightblue" stroke="black" cx="108.56" cy="-50.56" rx="50.56" ry="50.56"/>
<text text-anchor="middle" x="108.56" y="-64.51" font-family="Times New Roman,serif" font-size="9.00">output</text>
<text text-anchor="middle" x="108.56" y="-53.26" font-family="Times New Roman,serif" font-size="9.00">bias &#45;0.449</text>
<text text-anchor="middle" x="108.56" y="-42.01" font-family="Times New Roman,serif" font-size="9.00">h_scaling 0.908</text>
<text text-anchor="middle" x="108.56" y="-30.76" font-family="Times New Roman,serif" font-size="9.00">output 0.204</text>
</g>
<!-- key 5665
bias &#45;0.063
h_scaling 0.748
output 0.495&#45;&gt;output
bias &#45;0.449
h_scaling 0.908
output 0.204 -->
<g id="edge1" class="edge">
<title>key 5665
bias &#45;0.063
h_scaling 0.748
output 0.495&#45;&gt;output
bias &#45;0.449
h_scaling 0.908
output 0.204</title>
<path fill="none" stroke="red" stroke-width="0.1" d="M68.91,-151.61C74.52,-137.46 80.74,-121.76 86.56,-107.07"/>
<polygon fill="red" stroke="red" stroke-width="0.1" points="89.7,-108.66 90.13,-98.07 83.19,-106.08 89.7,-108.66"/>
<text text-anchor="middle" x="90.68" y="-121.82" font-family="Times New Roman,serif" font-size="9.00">0.999</text>
</g>
<!-- key 5665
bias &#45;0.063
h_scaling 0.748
output 0.495&#45;&gt;key 5665
bias &#45;0.063
h_scaling 0.748
output 0.495 -->
<g id="edge11" class="edge">
<title>key 5665
bias &#45;0.063
h_scaling 0.748
output 0.495&#45;&gt;key 5665
bias &#45;0.063
h_scaling 0.748
output 0.495</title>
<path fill="none" stroke="red" stroke-width="0.1" d="M99.55,-212.53C110.83,-211.36 119.12,-206.82 119.12,-198.92 119.12,-193.5 115.2,-189.66 109.09,-187.41"/>
<polygon fill="red" stroke="red" stroke-width="0.1" points="110.07,-184.04 99.55,-185.32 108.57,-190.88 110.07,-184.04"/>
<text text-anchor="middle" x="129.24" y="-196" font-family="Times New Roman,serif" font-size="9.00">0.741</text>
</g>
<!-- key 38307
bias &#45;0.282
h_scaling 0.984
output 0.476&#45;&gt;key 38307
bias &#45;0.282
h_scaling 0.984
output 0.476 -->
<g id="edge9" class="edge">
<title>key 38307
bias &#45;0.282
h_scaling 0.984
output 0.476&#45;&gt;key 38307
bias &#45;0.282
h_scaling 0.984
output 0.476</title>
<path fill="none" stroke="red" stroke-width="0.1" d="M228.55,-657.63C239.83,-656.45 248.12,-651.92 248.12,-644.02 248.12,-638.59 244.2,-634.75 238.09,-632.5"/>
<polygon fill="red" stroke="red" stroke-width="0.1" points="239.07,-629.14 228.55,-630.42 237.57,-635.97 239.07,-629.14"/>
<text text-anchor="middle" x="258.24" y="-641.1" font-family="Times New Roman,serif" font-size="9.00">0.680</text>
</g>
<!-- key 38307
bias &#45;0.282
h_scaling 0.984
output 0.476&#45;&gt;key 16367
bias &#45;0.020
h_scaling 0.577
output 0.261 -->
<g id="edge8" class="edge">
<title>key 38307
bias &#45;0.282
h_scaling 0.984
output 0.476&#45;&gt;key 16367
bias &#45;0.020
h_scaling 0.577
output 0.261</title>
<path fill="none" stroke="blue" stroke-width="0.1" d="M163.46,-595.91C158.8,-582.26 153.67,-567.23 148.83,-553.08"/>
<polygon fill="blue" stroke="blue" stroke-width="0.1" points="152.25,-552.27 145.71,-543.94 145.63,-554.53 152.25,-552.27"/>
<text text-anchor="middle" x="167.18" y="-566.92" font-family="Times New Roman,serif" font-size="9.00">&#45;0.780</text>
</g>
<!-- key 16367
bias &#45;0.020
h_scaling 0.577
output 0.261&#45;&gt;output
bias &#45;0.449
h_scaling 0.908
output 0.204 -->
<g id="edge10" class="edge">
<title>key 16367
bias &#45;0.020
h_scaling 0.577
output 0.261&#45;&gt;output
bias &#45;0.449
h_scaling 0.908
output 0.204</title>
<path fill="none" stroke="blue" stroke-width="0.1" d="M139.85,-445.66C152.33,-378.07 169.27,-252.75 148.56,-148.37 145.68,-133.88 140.61,-118.84 135.02,-105.06"/>
<polygon fill="blue" stroke="blue" stroke-width="0.1" points="138.39,-104.06 131.28,-96.21 131.94,-106.78 138.39,-104.06"/>
<text text-anchor="middle" x="169.18" y="-270.18" font-family="Times New Roman,serif" font-size="9.00">&#45;1.000</text>
</g>
<!-- key 16367
bias &#45;0.020
h_scaling 0.577
output 0.261&#45;&gt;key 5665
bias &#45;0.063
h_scaling 0.748
output 0.495 -->
<g id="edge3" class="edge">
<title>key 16367
bias &#45;0.020
h_scaling 0.577
output 0.261&#45;&gt;key 5665
bias &#45;0.063
h_scaling 0.748
output 0.495</title>
<path fill="none" stroke="blue" stroke-width="0.1" d="M116.6,-446.32C102.77,-394.71 80.85,-312.94 66.1,-257.9"/>
<polygon fill="blue" stroke="blue" stroke-width="0.1" points="69.49,-257.04 63.52,-248.29 62.73,-258.86 69.49,-257.04"/>
<text text-anchor="middle" x="114.18" y="-344.37" font-family="Times New Roman,serif" font-size="9.00">&#45;0.989</text>
</g>
<!-- key 16367
bias &#45;0.020
h_scaling 0.577
output 0.261&#45;&gt;key 16367
bias &#45;0.020
h_scaling 0.577
output 0.261 -->
<g id="edge4" class="edge">
<title>key 16367
bias &#45;0.020
h_scaling 0.577
output 0.261&#45;&gt;key 16367
bias &#45;0.020
h_scaling 0.577
output 0.261</title>
<path fill="none" stroke="red" stroke-width="0.1" d="M178.55,-509.26C189.83,-508.09 198.12,-503.55 198.12,-495.66 198.12,-490.23 194.2,-486.39 188.09,-484.14"/>
<polygon fill="red" stroke="red" stroke-width="0.1" points="189.07,-480.77 178.55,-482.05 187.57,-487.61 189.07,-480.77"/>
<text text-anchor="middle" x="208.24" y="-492.73" font-family="Times New Roman,serif" font-size="9.00">0.829</text>
</g>
<!-- key 16367
bias &#45;0.020
h_scaling 0.577
output 0.261&#45;&gt;key 186159
bias &#45;0.886
h_scaling 0.554
output 0.017 -->
<g id="edge15" class="edge">
<title>key 16367
bias &#45;0.020
h_scaling 0.577
output 0.261&#45;&gt;key 186159
bias &#45;0.886
h_scaling 0.554
output 0.017</title>
<path fill="none" stroke="red" stroke-width="0.1" d="M161.35,-456.2C177,-437.27 195.98,-414.31 212.4,-394.45"/>
<polygon fill="red" stroke="red" stroke-width="0.1" points="214.88,-396.94 218.56,-387 209.49,-392.48 214.88,-396.94"/>
<text text-anchor="middle" x="203.68" y="-418.55" font-family="Times New Roman,serif" font-size="9.00">0.315</text>
</g>
<!-- key 186159
bias &#45;0.886
h_scaling 0.554
output 0.017&#45;&gt;key 5665
bias &#45;0.063
h_scaling 0.748
output 0.495 -->
<g id="edge13" class="edge">
<title>key 186159
bias &#45;0.886
h_scaling 0.554
output 0.017&#45;&gt;key 5665
bias &#45;0.063
h_scaling 0.748
output 0.495</title>
<path fill="none" stroke="red" stroke-width="0.1" d="M225.65,-302.89C216.98,-290.34 206.41,-277.38 194.56,-267.48 169.23,-246.33 136.18,-230.21 108.12,-219.02"/>
<polygon fill="red" stroke="red" stroke-width="0.1" points="109.41,-215.77 98.82,-215.42 106.88,-222.3 109.41,-215.77"/>
<text text-anchor="middle" x="215.68" y="-270.18" font-family="Times New Roman,serif" font-size="9.00">0.582</text>
</g>
<!-- key 186159
bias &#45;0.886
h_scaling 0.554
output 0.017&#45;&gt;key 38307
bias &#45;0.282
h_scaling 0.984
output 0.476 -->
<g id="edge14" class="edge">
<title>key 186159
bias &#45;0.886
h_scaling 0.554
output 0.017&#45;&gt;key 38307
bias &#45;0.282
h_scaling 0.984
output 0.476</title>
<path fill="none" stroke="red" stroke-width="0.1" d="M249.5,-398.04C247.51,-438.64 242.1,-497.13 227.56,-546.22 223.06,-561.41 216.3,-577.12 209.27,-591.34"/>
<polygon fill="red" stroke="red" stroke-width="0.1" points="206.28,-589.49 204.87,-599.99 212.52,-592.66 206.28,-589.49"/>
<text text-anchor="middle" x="255.68" y="-492.73" font-family="Times New Roman,serif" font-size="9.00">0.232</text>
</g>
</g>
</svg>
