<?xml version="1.0" encoding="UTF-8" standalone="no"?>
<!DOCTYPE svg PUBLIC "-//W3C//DTD SVG 1.1//EN"
 "http://www.w3.org/Graphics/SVG/1.1/DTD/svg11.dtd">
<!-- Generated by graphviz version 2.43.0 (0)
 -->
<!-- Title: %3 Pages: 1 -->
<svg width="737pt" height="1230pt"
 viewBox="0.00 0.00 737.00 1229.95" xmlns="http://www.w3.org/2000/svg" xmlns:xlink="http://www.w3.org/1999/xlink">
<g id="graph0" class="graph" transform="scale(1 1) rotate(0) translate(4 1225.95)">
<title>%3</title>
<polygon fill="white" stroke="transparent" points="-4,4 -4,-1225.95 733,-1225.95 733,4 -4,4"/>
<!-- ready -->
<g id="node1" class="node">
<title>ready</title>
<polygon fill="yellow" stroke="black" points="189.5,-1221.95 146.5,-1221.95 146.5,-1203.95 189.5,-1203.95 189.5,-1221.95"/>
<text text-anchor="middle" x="168" y="-1210.75" font-family="Times,serif" font-size="9.00">ready</text>
</g>
<!-- key 15747
bias 0.000
h_scaling 0.114 -->
<g id="node5" class="node">
<title>key 15747
bias 0.000
h_scaling 0.114</title>
<ellipse fill="white" stroke="black" cx="565" cy="-1094.31" rx="63.78" ry="63.78"/>
<text text-anchor="middle" x="565" y="-1102.11" font-family="Times,serif" font-size="9.00">key 15747</text>
<text text-anchor="middle" x="565" y="-1092.11" font-family="Times,serif" font-size="9.00">bias 0.000</text>
<text text-anchor="middle" x="565" y="-1082.11" font-family="Times,serif" font-size="9.00">h_scaling 0.114</text>
</g>
<!-- ready&#45;&gt;key 15747
bias 0.000
h_scaling 0.114 -->
<g id="edge16" class="edge">
<title>ready&#45;&gt;key 15747
bias 0.000
h_scaling 0.114</title>
<path fill="none" stroke="red" stroke-width="0.55" d="M189.78,-1206.24C209.27,-1201.09 238.6,-1193.22 264,-1185.95 343.16,-1163.32 433.54,-1135.89 494.44,-1117.17"/>
<polygon fill="red" stroke="red" stroke-width="0.55" points="495.8,-1120.42 504.33,-1114.13 493.74,-1113.73 495.8,-1120.42"/>
<text text-anchor="middle" x="310" y="-1178.75" font-family="Times,serif" font-size="9.00">0.015</text>
</g>
<!-- key 154342
bias 0.000
h_scaling 0.465 -->
<g id="node6" class="node">
<title>key 154342
bias 0.000
h_scaling 0.465</title>
<ellipse fill="white" stroke="black" cx="101" cy="-574.48" rx="63.78" ry="63.78"/>
<text text-anchor="middle" x="101" y="-582.28" font-family="Times,serif" font-size="9.00">key 154342</text>
<text text-anchor="middle" x="101" y="-572.28" font-family="Times,serif" font-size="9.00">bias 0.000</text>
<text text-anchor="middle" x="101" y="-562.28" font-family="Times,serif" font-size="9.00">h_scaling 0.465</text>
</g>
<!-- ready&#45;&gt;key 154342
bias 0.000
h_scaling 0.465 -->
<g id="edge33" class="edge">
<title>ready&#45;&gt;key 154342
bias 0.000
h_scaling 0.465</title>
<path fill="none" stroke="blue" stroke-width="0.1" d="M146.24,-1204.06C109.23,-1189.08 38,-1152.78 38,-1095.31 38,-1095.31 38,-1095.31 38,-746.76 38,-709.7 51.15,-670.75 65.43,-639.38"/>
<polygon fill="blue" stroke="blue" stroke-width="0.1" points="68.61,-640.86 69.68,-630.32 62.27,-637.88 68.61,-640.86"/>
</g>
<!-- key 53386
bias 0.000
h_scaling 0.919 -->
<g id="node7" class="node">
<title>key 53386
bias 0.000
h_scaling 0.919</title>
<ellipse fill="white" stroke="black" cx="168" cy="-747.76" rx="63.78" ry="63.78"/>
<text text-anchor="middle" x="168" y="-755.56" font-family="Times,serif" font-size="9.00">key 53386</text>
<text text-anchor="middle" x="168" y="-745.56" font-family="Times,serif" font-size="9.00">bias 0.000</text>
<text text-anchor="middle" x="168" y="-735.56" font-family="Times,serif" font-size="9.00">h_scaling 0.919</text>
</g>
<!-- ready&#45;&gt;key 53386
bias 0.000
h_scaling 0.919 -->
<g id="edge9" class="edge">
<title>ready&#45;&gt;key 53386
bias 0.000
h_scaling 0.919</title>
<path fill="none" stroke="red" stroke-width="0.58" d="M168,-1203.91C168,-1159.19 168,-938.89 168,-821.97"/>
<polygon fill="red" stroke="red" stroke-width="0.58" points="171.5,-821.67 168,-811.67 164.5,-821.67 171.5,-821.67"/>
<text text-anchor="middle" x="182" y="-1005.48" font-family="Times,serif" font-size="9.00">0.016</text>
</g>
<!-- key 4504
bias 0.000
h_scaling 0.829 -->
<g id="node10" class="node">
<title>key 4504
bias 0.000
h_scaling 0.829</title>
<ellipse fill="white" stroke="black" cx="377" cy="-236.92" rx="63.78" ry="63.78"/>
<text text-anchor="middle" x="377" y="-244.72" font-family="Times,serif" font-size="9.00">key 4504</text>
<text text-anchor="middle" x="377" y="-234.72" font-family="Times,serif" font-size="9.00">bias 0.000</text>
<text text-anchor="middle" x="377" y="-224.72" font-family="Times,serif" font-size="9.00">h_scaling 0.829</text>
</g>
<!-- ready&#45;&gt;key 4504
bias 0.000
h_scaling 0.829 -->
<g id="edge17" class="edge">
<title>ready&#45;&gt;key 4504
bias 0.000
h_scaling 0.829</title>
<path fill="none" stroke="blue" stroke-width="0.1" d="M146.38,-1207.61C101.01,-1197.1 0,-1165.8 0,-1095.31 0,-1095.31 0,-1095.31 0,-491.84 0,-346.63 194.77,-278.98 304.32,-252.42"/>
<polygon fill="blue" stroke="blue" stroke-width="0.1" points="305.4,-255.76 314.32,-250.05 303.79,-248.95 305.4,-255.76"/>
</g>
<!-- key 1887
bias 0.000
h_scaling 0.321 -->
<g id="node12" class="node">
<title>key 1887
bias 0.000
h_scaling 0.321</title>
<ellipse fill="white" stroke="black" cx="317" cy="-410.2" rx="63.78" ry="63.78"/>
<text text-anchor="middle" x="317" y="-418" font-family="Times,serif" font-size="9.00">key 1887</text>
<text text-anchor="middle" x="317" y="-408" font-family="Times,serif" font-size="9.00">bias 0.000</text>
<text text-anchor="middle" x="317" y="-398" font-family="Times,serif" font-size="9.00">h_scaling 0.321</text>
</g>
<!-- ready&#45;&gt;key 1887
bias 0.000
h_scaling 0.321 -->
<g id="edge18" class="edge">
<title>ready&#45;&gt;key 1887
bias 0.000
h_scaling 0.321</title>
<path fill="none" stroke="blue" stroke-width="0.1" d="M173.39,-1203.61C176.35,-1198.66 179.85,-1192.16 182,-1185.95 268.1,-937.2 301.09,-623.69 312.12,-484.06"/>
<polygon fill="blue" stroke="blue" stroke-width="0.1" points="315.63,-484.15 312.91,-473.91 308.65,-483.6 315.63,-484.15"/>
</g>
<!-- go -->
<g id="node2" class="node">
<title>go</title>
<polygon fill="green" stroke="black" points="579,-1221.95 551,-1221.95 551,-1203.95 579,-1203.95 579,-1221.95"/>
<text text-anchor="middle" x="565" y="-1210.75" font-family="Times,serif" font-size="9.00">go</text>
</g>
<!-- go&#45;&gt;key 15747
bias 0.000
h_scaling 0.114 -->
<g id="edge5" class="edge">
<title>go&#45;&gt;key 15747
bias 0.000
h_scaling 0.114</title>
<path fill="none" stroke="blue" stroke-width="0.1" d="M565,-1203.94C565,-1195.91 565,-1182.69 565,-1168.19"/>
<polygon fill="blue" stroke="blue" stroke-width="0.1" points="568.5,-1167.99 565,-1157.99 561.5,-1167.99 568.5,-1167.99"/>
</g>
<!-- go&#45;&gt;key 4504
bias 0.000
h_scaling 0.829 -->
<g id="edge3" class="edge">
<title>go&#45;&gt;key 4504
bias 0.000
h_scaling 0.829</title>
<path fill="none" stroke="red" stroke-width="0.81" d="M579.02,-1207.16C612.81,-1194.62 696,-1157.44 696,-1095.31 696,-1095.31 696,-1095.31 696,-833.4 696,-611.76 749.03,-498.84 588,-346.56 554.5,-314.87 536.04,-321.59 495,-300.56 477.6,-291.64 458.86,-281.8 441.56,-272.62"/>
<polygon fill="red" stroke="red" stroke-width="0.81" points="443.12,-269.49 432.65,-267.88 439.84,-275.67 443.12,-269.49"/>
<text text-anchor="middle" x="715" y="-745.56" font-family="Times,serif" font-size="9.00">0.024</text>
</g>
<!-- key 214364
bias 0.000
h_scaling 0.000 -->
<g id="node11" class="node">
<title>key 214364
bias 0.000
h_scaling 0.000</title>
<ellipse fill="white" stroke="black" cx="408" cy="-747.76" rx="63.78" ry="63.78"/>
<text text-anchor="middle" x="408" y="-755.56" font-family="Times,serif" font-size="9.00">key 214364</text>
<text text-anchor="middle" x="408" y="-745.56" font-family="Times,serif" font-size="9.00">bias 0.000</text>
<text text-anchor="middle" x="408" y="-735.56" font-family="Times,serif" font-size="9.00">h_scaling 0.000</text>
</g>
<!-- go&#45;&gt;key 214364
bias 0.000
h_scaling 0.000 -->
<g id="edge27" class="edge">
<title>go&#45;&gt;key 214364
bias 0.000
h_scaling 0.000</title>
<path fill="none" stroke="blue" stroke-width="0.1" d="M550.95,-1210.86C522.9,-1208.37 461.47,-1201.26 448,-1185.95 442.05,-1179.2 423.1,-944.27 413.57,-821.65"/>
<polygon fill="blue" stroke="blue" stroke-width="0.1" points="417.05,-821.28 412.79,-811.58 410.08,-821.83 417.05,-821.28"/>
</g>
<!-- output
bias 0.000
h_scaling 0.017 -->
<g id="node3" class="node">
<title>output
bias 0.000
h_scaling 0.017</title>
<ellipse fill="lightblue" stroke="black" cx="342" cy="-921.04" rx="63.78" ry="63.78"/>
<text text-anchor="middle" x="342" y="-928.84" font-family="Times,serif" font-size="9.00">output</text>
<text text-anchor="middle" x="342" y="-918.84" font-family="Times,serif" font-size="9.00">bias 0.000</text>
<text text-anchor="middle" x="342" y="-908.84" font-family="Times,serif" font-size="9.00">h_scaling 0.017</text>
</g>
<!-- output
bias 0.000
h_scaling 0.017&#45;&gt;key 53386
bias 0.000
h_scaling 0.919 -->
<g id="edge19" class="edge">
<title>output
bias 0.000
h_scaling 0.017&#45;&gt;key 53386
bias 0.000
h_scaling 0.919</title>
<path fill="none" stroke="blue" stroke-width="0.1" d="M296.74,-875.48C273.38,-852.49 244.75,-824.31 220.43,-800.37"/>
<polygon fill="blue" stroke="blue" stroke-width="0.1" points="222.62,-797.61 213.04,-793.09 217.71,-802.6 222.62,-797.61"/>
</g>
<!-- output
bias 0.000
h_scaling 0.017&#45;&gt;key 214364
bias 0.000
h_scaling 0.000 -->
<g id="edge28" class="edge">
<title>output
bias 0.000
h_scaling 0.017&#45;&gt;key 214364
bias 0.000
h_scaling 0.000</title>
<path fill="none" stroke="red" stroke-width="0.22" d="M364.71,-861.09C370.19,-846.88 376.08,-831.58 381.71,-816.99"/>
<polygon fill="red" stroke="red" stroke-width="0.22" points="385.03,-818.11 385.36,-807.52 378.49,-815.59 385.03,-818.11"/>
<text text-anchor="middle" x="389" y="-832.2" font-family="Times,serif" font-size="9.00">0.004</text>
</g>
<!-- output
bias 0.000
h_scaling 0.017&#45;&gt;key 1887
bias 0.000
h_scaling 0.321 -->
<g id="edge7" class="edge">
<title>output
bias 0.000
h_scaling 0.017&#45;&gt;key 1887
bias 0.000
h_scaling 0.321</title>
<path fill="none" stroke="blue" stroke-width="0.1" d="M329.12,-858.57C327.84,-843.17 326.84,-826.68 326,-811.4 319.76,-697.25 314.11,-564.7 313.25,-484.44"/>
<polygon fill="blue" stroke="blue" stroke-width="0.1" points="316.75,-483.92 313.16,-473.95 309.75,-483.98 316.75,-483.92"/>
</g>
<!-- key 226466
bias 0.000
h_scaling 1.000 -->
<g id="node4" class="node">
<title>key 226466
bias 0.000
h_scaling 1.000</title>
<ellipse fill="white" stroke="black" cx="408" cy="-574.48" rx="63.78" ry="63.78"/>
<text text-anchor="middle" x="408" y="-582.28" font-family="Times,serif" font-size="9.00">key 226466</text>
<text text-anchor="middle" x="408" y="-572.28" font-family="Times,serif" font-size="9.00">bias 0.000</text>
<text text-anchor="middle" x="408" y="-562.28" font-family="Times,serif" font-size="9.00">h_scaling 1.000</text>
</g>
<!-- key 226466
bias 0.000
h_scaling 1.000&#45;&gt;key 226466
bias 0.000
h_scaling 1.000 -->
<g id="edge32" class="edge">
<title>key 226466
bias 0.000
h_scaling 1.000&#45;&gt;key 226466
bias 0.000
h_scaling 1.000</title>
<path fill="none" stroke="blue" stroke-width="0.1" d="M470.29,-589.01C481.66,-587.17 489.64,-582.32 489.64,-574.48 489.64,-569.2 486.04,-565.29 480.23,-562.73"/>
<polygon fill="blue" stroke="blue" stroke-width="0.1" points="480.87,-559.27 470.29,-559.95 478.98,-566.01 480.87,-559.27"/>
</g>
<!-- key 226466
bias 0.000
h_scaling 1.000&#45;&gt;key 1887
bias 0.000
h_scaling 0.321 -->
<g id="edge31" class="edge">
<title>key 226466
bias 0.000
h_scaling 1.000&#45;&gt;key 1887
bias 0.000
h_scaling 0.321</title>
<path fill="none" stroke="blue" stroke-width="0.1" d="M377.19,-518.54C369.33,-504.53 360.82,-489.35 352.74,-474.94"/>
<polygon fill="blue" stroke="blue" stroke-width="0.1" points="355.72,-473.09 347.78,-466.08 349.62,-476.52 355.72,-473.09"/>
</g>
<!-- key 15747
bias 0.000
h_scaling 0.114&#45;&gt;output
bias 0.000
h_scaling 0.017 -->
<g id="edge11" class="edge">
<title>key 15747
bias 0.000
h_scaling 0.114&#45;&gt;output
bias 0.000
h_scaling 0.017</title>
<path fill="none" stroke="red" stroke-width="0.27" d="M521.96,-1046.92C507.11,-1032.02 489.94,-1015.96 473,-1002.68 452.4,-986.53 428.38,-970.93 406.57,-957.82"/>
<polygon fill="red" stroke="red" stroke-width="0.27" points="408.08,-954.65 397.7,-952.55 404.51,-960.66 408.08,-954.65"/>
<text text-anchor="middle" x="497" y="-1005.48" font-family="Times,serif" font-size="9.00">0.006</text>
</g>
<!-- key 15747
bias 0.000
h_scaling 0.114&#45;&gt;key 154342
bias 0.000
h_scaling 0.465 -->
<g id="edge25" class="edge">
<title>key 15747
bias 0.000
h_scaling 0.114&#45;&gt;key 154342
bias 0.000
h_scaling 0.465</title>
<path fill="none" stroke="red" stroke-width="0.79" d="M502.53,-1080.37C391.44,-1053.36 164.63,-979.01 95,-811.4 73.36,-759.29 76.73,-694.98 84.48,-646.67"/>
<polygon fill="red" stroke="red" stroke-width="0.79" points="87.96,-647.06 86.19,-636.61 81.06,-645.89 87.96,-647.06"/>
<text text-anchor="middle" x="122" y="-832.2" font-family="Times,serif" font-size="9.00">0.023</text>
</g>
<!-- key 152907
bias 0.000
h_scaling 0.550 -->
<g id="node8" class="node">
<title>key 152907
bias 0.000
h_scaling 0.550</title>
<ellipse fill="white" stroke="black" cx="496" cy="-63.64" rx="63.78" ry="63.78"/>
<text text-anchor="middle" x="496" y="-71.44" font-family="Times,serif" font-size="9.00">key 152907</text>
<text text-anchor="middle" x="496" y="-61.44" font-family="Times,serif" font-size="9.00">bias 0.000</text>
<text text-anchor="middle" x="496" y="-51.44" font-family="Times,serif" font-size="9.00">h_scaling 0.550</text>
</g>
<!-- key 15747
bias 0.000
h_scaling 0.114&#45;&gt;key 152907
bias 0.000
h_scaling 0.550 -->
<g id="edge29" class="edge">
<title>key 15747
bias 0.000
h_scaling 0.114&#45;&gt;key 152907
bias 0.000
h_scaling 0.550</title>
<path fill="none" stroke="blue" stroke-width="0.1" d="M600.08,-1040.88C609.43,-1023.73 618.04,-1004.08 622,-984.68 658.06,-807.96 721.7,-334.58 641,-173.28 624.35,-139.99 592.11,-114.27 562.26,-96.23"/>
<polygon fill="blue" stroke="blue" stroke-width="0.1" points="563.9,-93.13 553.5,-91.11 560.37,-99.18 563.9,-93.13"/>
</g>
<!-- key 15747
bias 0.000
h_scaling 0.114&#45;&gt;key 4504
bias 0.000
h_scaling 0.829 -->
<g id="edge4" class="edge">
<title>key 15747
bias 0.000
h_scaling 0.114&#45;&gt;key 4504
bias 0.000
h_scaling 0.829</title>
<path fill="none" stroke="blue" stroke-width="0.1" d="M556.96,-1031.08C556,-998.58 556,-958.16 556,-922.04 556,-922.04 556,-922.04 556,-409.2 556,-359.37 526.03,-352.99 490,-318.56 474.54,-303.79 456.05,-290 438.52,-278.16"/>
<polygon fill="blue" stroke="blue" stroke-width="0.1" points="440.27,-275.13 430,-272.51 436.4,-280.96 440.27,-275.13"/>
</g>
<!-- key 154342
bias 0.000
h_scaling 0.465&#45;&gt;key 53386
bias 0.000
h_scaling 0.919 -->
<g id="edge26" class="edge">
<title>key 154342
bias 0.000
h_scaling 0.465&#45;&gt;key 53386
bias 0.000
h_scaling 0.919</title>
<path fill="none" stroke="blue" stroke-width="0.1" d="M129.33,-631.59C135.33,-645.98 141.55,-661.63 147.22,-676.63"/>
<polygon fill="blue" stroke="blue" stroke-width="0.1" points="144.08,-678.23 150.86,-686.37 150.64,-675.78 144.08,-678.23"/>
</g>
<!-- key 154342
bias 0.000
h_scaling 0.465&#45;&gt;key 1887
bias 0.000
h_scaling 0.321 -->
<g id="edge21" class="edge">
<title>key 154342
bias 0.000
h_scaling 0.465&#45;&gt;key 1887
bias 0.000
h_scaling 0.321</title>
<path fill="none" stroke="blue" stroke-width="0.1" d="M151.64,-535.43C183.48,-511.51 224.7,-480.54 258.01,-455.52"/>
<polygon fill="blue" stroke="blue" stroke-width="0.1" points="260.41,-458.09 266.3,-449.29 256.2,-452.5 260.41,-458.09"/>
</g>
<!-- key 53386
bias 0.000
h_scaling 0.919&#45;&gt;key 154342
bias 0.000
h_scaling 0.465 -->
<g id="edge24" class="edge">
<title>key 53386
bias 0.000
h_scaling 0.919&#45;&gt;key 154342
bias 0.000
h_scaling 0.465</title>
<path fill="none" stroke="blue" stroke-width="0.1" d="M139.68,-690.67C133.67,-676.27 127.45,-660.59 121.77,-645.57"/>
<polygon fill="blue" stroke="blue" stroke-width="0.1" points="124.9,-643.96 118.12,-635.82 118.35,-646.41 124.9,-643.96"/>
</g>
<!-- key 53386
bias 0.000
h_scaling 0.919&#45;&gt;key 4504
bias 0.000
h_scaling 0.829 -->
<g id="edge10" class="edge">
<title>key 53386
bias 0.000
h_scaling 0.919&#45;&gt;key 4504
bias 0.000
h_scaling 0.829</title>
<path fill="none" stroke="blue" stroke-width="0.1" d="M174.58,-684.45C185.76,-586.74 210.55,-402.78 244,-346.56 260.99,-318.01 288.39,-293.73 313.92,-275.41"/>
<polygon fill="blue" stroke="blue" stroke-width="0.1" points="315.93,-278.27 322.13,-269.67 311.92,-272.53 315.93,-278.27"/>
</g>
<!-- key 152907
bias 0.000
h_scaling 0.550&#45;&gt;key 154342
bias 0.000
h_scaling 0.465 -->
<g id="edge20" class="edge">
<title>key 152907
bias 0.000
h_scaling 0.550&#45;&gt;key 154342
bias 0.000
h_scaling 0.465</title>
<path fill="none" stroke="red" stroke-width="1.61" d="M437.06,-88.24C396.15,-106.8 342.32,-135.77 304,-173.28 207.94,-267.3 149.16,-416.37 121.03,-503.57"/>
<polygon fill="red" stroke="red" stroke-width="1.61" points="117.7,-502.52 118,-513.12 124.37,-504.65 117.7,-502.52"/>
<text text-anchor="middle" x="211" y="-321.36" font-family="Times,serif" font-size="9.00">0.050</text>
</g>
<!-- key 88047
bias 0.000
h_scaling 0.000 -->
<g id="node9" class="node">
<title>key 88047
bias 0.000
h_scaling 0.000</title>
<ellipse fill="white" stroke="black" cx="568" cy="-236.92" rx="63.78" ry="63.78"/>
<text text-anchor="middle" x="568" y="-244.72" font-family="Times,serif" font-size="9.00">key 88047</text>
<text text-anchor="middle" x="568" y="-234.72" font-family="Times,serif" font-size="9.00">bias 0.000</text>
<text text-anchor="middle" x="568" y="-224.72" font-family="Times,serif" font-size="9.00">h_scaling 0.000</text>
</g>
<!-- key 88047
bias 0.000
h_scaling 0.000&#45;&gt;key 15747
bias 0.000
h_scaling 0.114 -->
<g id="edge14" class="edge">
<title>key 88047
bias 0.000
h_scaling 0.000&#45;&gt;key 15747
bias 0.000
h_scaling 0.114</title>
<path fill="none" stroke="red" stroke-width="0.74" d="M590.77,-296.42C601.51,-329.09 612,-370.82 612,-409.2 612,-922.04 612,-922.04 612,-922.04 612,-956.95 602.8,-994.5 592.55,-1025.51"/>
<polygon fill="red" stroke="red" stroke-width="0.74" points="589.11,-1024.74 589.19,-1035.34 595.73,-1027 589.11,-1024.74"/>
<text text-anchor="middle" x="626" y="-658.92" font-family="Times,serif" font-size="9.00">0.021</text>
</g>
<!-- key 88047
bias 0.000
h_scaling 0.000&#45;&gt;key 152907
bias 0.000
h_scaling 0.550 -->
<g id="edge22" class="edge">
<title>key 88047
bias 0.000
h_scaling 0.000&#45;&gt;key 152907
bias 0.000
h_scaling 0.550</title>
<path fill="none" stroke="red" stroke-width="0.97" d="M543.62,-177.93C537.41,-163.14 530.67,-147.12 524.28,-131.91"/>
<polygon fill="red" stroke="red" stroke-width="0.97" points="527.45,-130.43 520.35,-122.57 521,-133.14 527.45,-130.43"/>
<text text-anchor="middle" x="546" y="-148.08" font-family="Times,serif" font-size="9.00">0.029</text>
</g>
<!-- key 4504
bias 0.000
h_scaling 0.829&#45;&gt;output
bias 0.000
h_scaling 0.017 -->
<g id="edge15" class="edge">
<title>key 4504
bias 0.000
h_scaling 0.829&#45;&gt;output
bias 0.000
h_scaling 0.017</title>
<path fill="none" stroke="blue" stroke-width="0.1" d="M409.28,-291.77C439.29,-345.21 481.86,-430.51 499,-510.84 510.8,-566.16 501.93,-581.62 499,-638.12 494.99,-715.44 518.49,-743.65 481,-811.4 464,-842.12 434.35,-867.11 406.79,-885.34"/>
<polygon fill="blue" stroke="blue" stroke-width="0.1" points="404.84,-882.44 398.32,-890.79 408.63,-888.33 404.84,-882.44"/>
</g>
<!-- key 4504
bias 0.000
h_scaling 0.829&#45;&gt;key 15747
bias 0.000
h_scaling 0.114 -->
<g id="edge12" class="edge">
<title>key 4504
bias 0.000
h_scaling 0.829&#45;&gt;key 15747
bias 0.000
h_scaling 0.114</title>
<path fill="none" stroke="blue" stroke-width="0.1" d="M434.37,-264.91C458.73,-279.11 486.34,-297.86 508,-318.56 544.03,-352.99 574,-359.37 574,-409.2 574,-922.04 574,-922.04 574,-922.04 574,-954.5 574,-990.42 573.3,-1020.94"/>
<polygon fill="blue" stroke="blue" stroke-width="0.1" points="569.8,-1020.99 573.04,-1031.08 576.8,-1021.17 569.8,-1020.99"/>
</g>
<!-- key 4504
bias 0.000
h_scaling 0.829&#45;&gt;key 152907
bias 0.000
h_scaling 0.550 -->
<g id="edge23" class="edge">
<title>key 4504
bias 0.000
h_scaling 0.829&#45;&gt;key 152907
bias 0.000
h_scaling 0.550</title>
<path fill="none" stroke="blue" stroke-width="0.1" d="M413.03,-184.06C426.02,-165.37 440.79,-144.11 454.23,-124.77"/>
<polygon fill="blue" stroke="blue" stroke-width="0.1" points="457.26,-126.53 460.1,-116.32 451.52,-122.53 457.26,-126.53"/>
</g>
<!-- key 4504
bias 0.000
h_scaling 0.829&#45;&gt;key 4504
bias 0.000
h_scaling 0.829 -->
<g id="edge8" class="edge">
<title>key 4504
bias 0.000
h_scaling 0.829&#45;&gt;key 4504
bias 0.000
h_scaling 0.829</title>
<path fill="none" stroke="red" stroke-width="1.43" d="M438.94,-252.22C450.5,-250.33 458.64,-245.23 458.64,-236.92 458.64,-231.2 454.79,-227.01 448.63,-224.33"/>
<polygon fill="red" stroke="red" stroke-width="1.43" points="449.52,-220.94 438.94,-221.62 447.63,-227.68 449.52,-220.94"/>
<text text-anchor="middle" x="472.64" y="-234.72" font-family="Times,serif" font-size="9.00">0.044</text>
</g>
<!-- key 4504
bias 0.000
h_scaling 0.829&#45;&gt;key 1887
bias 0.000
h_scaling 0.321 -->
<g id="edge2" class="edge">
<title>key 4504
bias 0.000
h_scaling 0.829&#45;&gt;key 1887
bias 0.000
h_scaling 0.321</title>
<path fill="none" stroke="red" stroke-width="0.72" d="M359.82,-298.64C356.71,-308.69 353.39,-318.96 350,-328.56 348.49,-332.85 346.88,-337.24 345.21,-341.66"/>
<polygon fill="red" stroke="red" stroke-width="0.72" points="341.81,-340.73 341.49,-351.32 348.35,-343.25 341.81,-340.73"/>
<text text-anchor="middle" x="367" y="-321.36" font-family="Times,serif" font-size="9.00">0.021</text>
</g>
<!-- key 214364
bias 0.000
h_scaling 0.000&#45;&gt;key 226466
bias 0.000
h_scaling 1.000 -->
<g id="edge30" class="edge">
<title>key 214364
bias 0.000
h_scaling 0.000&#45;&gt;key 226466
bias 0.000
h_scaling 1.000</title>
<path fill="none" stroke="red" stroke-width="0.25" d="M408,-683.95C408,-672.43 408,-660.32 408,-648.53"/>
<polygon fill="red" stroke="red" stroke-width="0.25" points="411.5,-648.28 408,-638.28 404.5,-648.28 411.5,-648.28"/>
<text text-anchor="middle" x="422" y="-658.92" font-family="Times,serif" font-size="9.00">0.005</text>
</g>
<!-- key 1887
bias 0.000
h_scaling 0.321&#45;&gt;output
bias 0.000
h_scaling 0.017 -->
<g id="edge1" class="edge">
<title>key 1887
bias 0.000
h_scaling 0.321&#45;&gt;output
bias 0.000
h_scaling 0.017</title>
<path fill="none" stroke="blue" stroke-width="0.1" d="M325.68,-473.26C331.57,-551.95 337.46,-691.78 344,-811.4 344.64,-823.04 345.37,-835.39 346,-847.42"/>
<polygon fill="blue" stroke="blue" stroke-width="0.1" points="342.5,-847.61 346.49,-857.43 349.5,-847.27 342.5,-847.61"/>
</g>
<!-- key 1887
bias 0.000
h_scaling 0.321&#45;&gt;key 88047
bias 0.000
h_scaling 0.000 -->
<g id="edge13" class="edge">
<title>key 1887
bias 0.000
h_scaling 0.321&#45;&gt;key 88047
bias 0.000
h_scaling 0.000</title>
<path fill="none" stroke="red" stroke-width="0.87" d="M372.6,-378.73C408.76,-358.13 456.37,-329.5 496,-300.56 501.8,-296.33 507.69,-291.73 513.49,-287.02"/>
<polygon fill="red" stroke="red" stroke-width="0.87" points="515.84,-289.62 521.31,-280.55 511.37,-284.23 515.84,-289.62"/>
<text text-anchor="middle" x="481" y="-321.36" font-family="Times,serif" font-size="9.00">0.026</text>
</g>
<!-- key 1887
bias 0.000
h_scaling 0.321&#45;&gt;key 4504
bias 0.000
h_scaling 0.829 -->
<g id="edge6" class="edge">
<title>key 1887
bias 0.000
h_scaling 0.321&#45;&gt;key 4504
bias 0.000
h_scaling 0.829</title>
<path fill="none" stroke="red" stroke-width="0.72" d="M312.66,-346.43C313.43,-336.93 315.07,-327.37 318,-318.56 320.86,-309.98 325,-301.55 329.78,-293.56"/>
<polygon fill="red" stroke="red" stroke-width="0.72" points="332.76,-295.39 335.19,-285.08 326.86,-291.63 332.76,-295.39"/>
<text text-anchor="middle" x="332" y="-321.36" font-family="Times,serif" font-size="9.00">0.021</text>
</g>
</g>
</svg>
