<?xml version="1.0" encoding="UTF-8" standalone="no"?>
<!DOCTYPE svg PUBLIC "-//W3C//DTD SVG 1.1//EN"
 "http://www.w3.org/Graphics/SVG/1.1/DTD/svg11.dtd">
<!-- Generated by graphviz version 2.43.0 (0)
 -->
<!-- Title: %3 Pages: 1 -->
<svg width="511pt" height="1066pt"
 viewBox="0.00 0.00 510.64 1065.68" xmlns="http://www.w3.org/2000/svg" xmlns:xlink="http://www.w3.org/1999/xlink">
<g id="graph0" class="graph" transform="scale(1 1) rotate(0) translate(4 1061.68)">
<title>%3</title>
<polygon fill="white" stroke="transparent" points="-4,4 -4,-1061.68 506.64,-1061.68 506.64,4 -4,4"/>
<!-- ready -->
<g id="node1" class="node">
<title>ready</title>
<polygon fill="yellow" stroke="black" points="94.5,-1057.68 51.5,-1057.68 51.5,-1039.68 94.5,-1039.68 94.5,-1057.68"/>
<text text-anchor="middle" x="73" y="-1046.48" font-family="Times,serif" font-size="9.00">ready</text>
</g>
<!-- key 22466
bias &#45;0.044
h_scaling 0.373 -->
<g id="node4" class="node">
<title>key 22466
bias &#45;0.044
h_scaling 0.373</title>
<ellipse fill="white" stroke="black" cx="333" cy="-930.04" rx="63.78" ry="63.78"/>
<text text-anchor="middle" x="333" y="-937.84" font-family="Times,serif" font-size="9.00">key 22466</text>
<text text-anchor="middle" x="333" y="-927.84" font-family="Times,serif" font-size="9.00">bias &#45;0.044</text>
<text text-anchor="middle" x="333" y="-917.84" font-family="Times,serif" font-size="9.00">h_scaling 0.373</text>
</g>
<!-- ready&#45;&gt;key 22466
bias &#45;0.044
h_scaling 0.373 -->
<g id="edge12" class="edge">
<title>ready&#45;&gt;key 22466
bias &#45;0.044
h_scaling 0.373</title>
<path fill="none" stroke="red" stroke-width="0.54" d="M94.59,-1040.9C123.63,-1031.54 176.61,-1013.53 220,-993.68 236.52,-986.12 253.9,-977.07 269.94,-968.23"/>
<polygon fill="red" stroke="red" stroke-width="0.54" points="271.67,-971.28 278.7,-963.36 268.26,-965.16 271.67,-971.28"/>
<text text-anchor="middle" x="190" y="-1014.48" font-family="Times,serif" font-size="9.00">0.147</text>
</g>
<!-- key 197380
bias &#45;0.750
h_scaling 0.679 -->
<g id="node5" class="node">
<title>key 197380
bias &#45;0.750
h_scaling 0.679</title>
<ellipse fill="white" stroke="black" cx="283" cy="-63.64" rx="63.78" ry="63.78"/>
<text text-anchor="middle" x="283" y="-71.44" font-family="Times,serif" font-size="9.00">key 197380</text>
<text text-anchor="middle" x="283" y="-61.44" font-family="Times,serif" font-size="9.00">bias &#45;0.750</text>
<text text-anchor="middle" x="283" y="-51.44" font-family="Times,serif" font-size="9.00">h_scaling 0.679</text>
</g>
<!-- ready&#45;&gt;key 197380
bias &#45;0.750
h_scaling 0.679 -->
<g id="edge16" class="edge">
<title>ready&#45;&gt;key 197380
bias &#45;0.750
h_scaling 0.679</title>
<path fill="none" stroke="red" stroke-width="3.08" d="M63.15,-1039.44C43.23,-1021.8 0,-978.1 0,-931.04 0,-931.04 0,-931.04 0,-235.92 0,-137.69 126.34,-94.26 210.19,-76.25"/>
<polygon fill="red" stroke="red" stroke-width="3.08" points="211.11,-79.64 220.19,-74.18 209.69,-72.78 211.11,-79.64"/>
<text text-anchor="middle" x="14" y="-581.28" font-family="Times,serif" font-size="9.00">0.994</text>
</g>
<!-- key 10232
bias &#45;0.543
h_scaling 0.833 -->
<g id="node7" class="node">
<title>key 10232
bias &#45;0.543
h_scaling 0.833</title>
<ellipse fill="white" stroke="black" cx="197" cy="-756.76" rx="63.78" ry="63.78"/>
<text text-anchor="middle" x="197" y="-764.56" font-family="Times,serif" font-size="9.00">key 10232</text>
<text text-anchor="middle" x="197" y="-754.56" font-family="Times,serif" font-size="9.00">bias &#45;0.543</text>
<text text-anchor="middle" x="197" y="-744.56" font-family="Times,serif" font-size="9.00">h_scaling 0.833</text>
</g>
<!-- ready&#45;&gt;key 10232
bias &#45;0.543
h_scaling 0.833 -->
<g id="edge3" class="edge">
<title>ready&#45;&gt;key 10232
bias &#45;0.543
h_scaling 0.833</title>
<path fill="none" stroke="red" stroke-width="1.15" d="M76.04,-1039.66C85.77,-1014.15 117.14,-932.65 146,-866.4 152.08,-852.45 158.83,-837.62 165.39,-823.55"/>
<polygon fill="red" stroke="red" stroke-width="1.15" points="168.59,-824.97 169.66,-814.43 162.25,-822 168.59,-824.97"/>
<text text-anchor="middle" x="160" y="-927.84" font-family="Times,serif" font-size="9.00">0.350</text>
</g>
<!-- key 5176
bias &#45;0.218
h_scaling 0.027 -->
<g id="node8" class="node">
<title>key 5176
bias &#45;0.218
h_scaling 0.027</title>
<ellipse fill="white" stroke="black" cx="179" cy="-583.48" rx="63.78" ry="63.78"/>
<text text-anchor="middle" x="179" y="-591.28" font-family="Times,serif" font-size="9.00">key 5176</text>
<text text-anchor="middle" x="179" y="-581.28" font-family="Times,serif" font-size="9.00">bias &#45;0.218</text>
<text text-anchor="middle" x="179" y="-571.28" font-family="Times,serif" font-size="9.00">h_scaling 0.027</text>
</g>
<!-- ready&#45;&gt;key 5176
bias &#45;0.218
h_scaling 0.027 -->
<g id="edge5" class="edge">
<title>ready&#45;&gt;key 5176
bias &#45;0.218
h_scaling 0.027</title>
<path fill="none" stroke="red" stroke-width="1.25" d="M70.96,-1039.56C61.38,-999.91 23.42,-823.1 73,-693.12 82.54,-668.12 101.18,-645.86 120.21,-628.11"/>
<polygon fill="red" stroke="red" stroke-width="1.25" points="122.7,-630.57 127.78,-621.28 118.01,-625.37 122.7,-630.57"/>
<text text-anchor="middle" x="63" y="-841.2" font-family="Times,serif" font-size="9.00">0.385</text>
</g>
<!-- go -->
<g id="node2" class="node">
<title>go</title>
<polygon fill="green" stroke="black" points="211,-939.04 183,-939.04 183,-921.04 211,-921.04 211,-939.04"/>
<text text-anchor="middle" x="197" y="-927.84" font-family="Times,serif" font-size="9.00">go</text>
</g>
<!-- go&#45;&gt;key 10232
bias &#45;0.543
h_scaling 0.833 -->
<g id="edge2" class="edge">
<title>go&#45;&gt;key 10232
bias &#45;0.543
h_scaling 0.833</title>
<path fill="none" stroke="blue" stroke-width="1.2" d="M197,-920.77C197,-904.35 197,-866.14 197,-830.84"/>
<polygon fill="blue" stroke="blue" stroke-width="1.2" points="200.5,-830.49 197,-820.49 193.5,-830.49 200.5,-830.49"/>
<text text-anchor="middle" x="212.5" y="-841.2" font-family="Times,serif" font-size="9.00">&#45;0.365</text>
</g>
<!-- go&#45;&gt;key 5176
bias &#45;0.218
h_scaling 0.027 -->
<g id="edge6" class="edge">
<title>go&#45;&gt;key 5176
bias &#45;0.218
h_scaling 0.027</title>
<path fill="none" stroke="blue" stroke-width="2.87" d="M192.62,-920.68C185.73,-908.03 171.44,-883.64 155,-866.4 131.32,-841.56 108.42,-851.05 93,-820.4 67.57,-769.87 74.41,-746.54 93,-693.12 100.17,-672.52 113.04,-652.88 126.69,-636.11"/>
<polygon fill="blue" stroke="blue" stroke-width="2.87" points="129.66,-638.02 133.43,-628.12 124.3,-633.51 129.66,-638.02"/>
<text text-anchor="middle" x="108.5" y="-754.56" font-family="Times,serif" font-size="9.00">&#45;0.924</text>
</g>
<!-- key 28927
bias 0.404
h_scaling 1.000 -->
<g id="node9" class="node">
<title>key 28927
bias 0.404
h_scaling 1.000</title>
<ellipse fill="white" stroke="black" cx="283" cy="-410.2" rx="63.78" ry="63.78"/>
<text text-anchor="middle" x="283" y="-418" font-family="Times,serif" font-size="9.00">key 28927</text>
<text text-anchor="middle" x="283" y="-408" font-family="Times,serif" font-size="9.00">bias 0.404</text>
<text text-anchor="middle" x="283" y="-398" font-family="Times,serif" font-size="9.00">h_scaling 1.000</text>
</g>
<!-- go&#45;&gt;key 28927
bias 0.404
h_scaling 1.000 -->
<g id="edge13" class="edge">
<title>go&#45;&gt;key 28927
bias 0.404
h_scaling 1.000</title>
<path fill="none" stroke="red" stroke-width="3.1" d="M203.66,-920.86C214.44,-908 236.86,-882.83 260,-866.4 274.91,-855.81 283.18,-860.37 297,-848.4 308.37,-838.55 311.58,-834.77 316,-820.4 334.75,-759.39 311.11,-583.46 295.22,-483.27"/>
<polygon fill="red" stroke="red" stroke-width="3.1" points="298.65,-482.55 293.61,-473.23 291.74,-483.65 298.65,-482.55"/>
<text text-anchor="middle" x="333" y="-667.92" font-family="Times,serif" font-size="9.00">1.000</text>
</g>
<!-- output
bias &#45;0.358
h_scaling 0.307 -->
<g id="node3" class="node">
<title>output
bias &#45;0.358
h_scaling 0.307</title>
<ellipse fill="lightblue" stroke="black" cx="283" cy="-236.92" rx="63.78" ry="63.78"/>
<text text-anchor="middle" x="283" y="-244.72" font-family="Times,serif" font-size="9.00">output</text>
<text text-anchor="middle" x="283" y="-234.72" font-family="Times,serif" font-size="9.00">bias &#45;0.358</text>
<text text-anchor="middle" x="283" y="-224.72" font-family="Times,serif" font-size="9.00">h_scaling 0.307</text>
</g>
<!-- output
bias &#45;0.358
h_scaling 0.307&#45;&gt;key 197380
bias &#45;0.750
h_scaling 0.679 -->
<g id="edge18" class="edge">
<title>output
bias &#45;0.358
h_scaling 0.307&#45;&gt;key 197380
bias &#45;0.750
h_scaling 0.679</title>
<path fill="none" stroke="blue" stroke-width="0.26" d="M283,-173.11C283,-161.59 283,-149.48 283,-137.69"/>
<polygon fill="blue" stroke="blue" stroke-width="0.26" points="286.5,-137.44 283,-127.44 279.5,-137.44 286.5,-137.44"/>
<text text-anchor="middle" x="298.5" y="-148.08" font-family="Times,serif" font-size="9.00">&#45;0.054</text>
</g>
<!-- key 153547
bias &#45;0.910
h_scaling 0.919 -->
<g id="node6" class="node">
<title>key 153547
bias &#45;0.910
h_scaling 0.919</title>
<ellipse fill="white" stroke="black" cx="439" cy="-63.64" rx="63.78" ry="63.78"/>
<text text-anchor="middle" x="439" y="-71.44" font-family="Times,serif" font-size="9.00">key 153547</text>
<text text-anchor="middle" x="439" y="-61.44" font-family="Times,serif" font-size="9.00">bias &#45;0.910</text>
<text text-anchor="middle" x="439" y="-51.44" font-family="Times,serif" font-size="9.00">h_scaling 0.919</text>
</g>
<!-- output
bias &#45;0.358
h_scaling 0.307&#45;&gt;key 153547
bias &#45;0.910
h_scaling 0.919 -->
<g id="edge14" class="edge">
<title>output
bias &#45;0.358
h_scaling 0.307&#45;&gt;key 153547
bias &#45;0.910
h_scaling 0.919</title>
<path fill="none" stroke="red" stroke-width="3.1" d="M325.63,-189.12C345.4,-167.4 369.03,-141.46 389.58,-118.9"/>
<polygon fill="red" stroke="red" stroke-width="3.1" points="392.28,-121.14 396.42,-111.39 387.1,-116.42 392.28,-121.14"/>
<text text-anchor="middle" x="375" y="-148.08" font-family="Times,serif" font-size="9.00">1.000</text>
</g>
<!-- key 22466
bias &#45;0.044
h_scaling 0.373&#45;&gt;key 10232
bias &#45;0.543
h_scaling 0.833 -->
<g id="edge8" class="edge">
<title>key 22466
bias &#45;0.044
h_scaling 0.373&#45;&gt;key 10232
bias &#45;0.543
h_scaling 0.833</title>
<path fill="none" stroke="red" stroke-width="1.13" d="M293.66,-879.49C277.66,-859.35 259.07,-835.93 242.49,-815.05"/>
<polygon fill="red" stroke="red" stroke-width="1.13" points="245.21,-812.84 236.25,-807.19 239.73,-817.19 245.21,-812.84"/>
<text text-anchor="middle" x="279" y="-841.2" font-family="Times,serif" font-size="9.00">0.343</text>
</g>
<!-- key 197380
bias &#45;0.750
h_scaling 0.679&#45;&gt;key 22466
bias &#45;0.044
h_scaling 0.373 -->
<g id="edge17" class="edge">
<title>key 197380
bias &#45;0.750
h_scaling 0.679&#45;&gt;key 22466
bias &#45;0.044
h_scaling 0.373</title>
<path fill="none" stroke="red" stroke-width="1.91" d="M324.69,-112C349.04,-144.54 375,-190.01 375,-235.92 375,-757.76 375,-757.76 375,-757.76 375,-792.15 366.91,-829.34 357.83,-860.25"/>
<polygon fill="red" stroke="red" stroke-width="1.91" points="354.41,-859.47 354.86,-870.06 361.11,-861.5 354.41,-859.47"/>
<text text-anchor="middle" x="389" y="-494.64" font-family="Times,serif" font-size="9.00">0.605</text>
</g>
<!-- key 153547
bias &#45;0.910
h_scaling 0.919&#45;&gt;key 22466
bias &#45;0.044
h_scaling 0.373 -->
<g id="edge15" class="edge">
<title>key 153547
bias &#45;0.910
h_scaling 0.919&#45;&gt;key 22466
bias &#45;0.044
h_scaling 0.373</title>
<path fill="none" stroke="blue" stroke-width="1.56" d="M445.49,-127.21C448.32,-159.61 451,-199.85 451,-235.92 451,-757.76 451,-757.76 451,-757.76 451,-805.56 419.44,-849.73 388.97,-881.23"/>
<polygon fill="blue" stroke="blue" stroke-width="1.56" points="386.25,-879.01 381.68,-888.56 391.21,-883.94 386.25,-879.01"/>
<text text-anchor="middle" x="466.5" y="-494.64" font-family="Times,serif" font-size="9.00">&#45;0.486</text>
</g>
<!-- key 10232
bias &#45;0.543
h_scaling 0.833&#45;&gt;key 10232
bias &#45;0.543
h_scaling 0.833 -->
<g id="edge7" class="edge">
<title>key 10232
bias &#45;0.543
h_scaling 0.833&#45;&gt;key 10232
bias &#45;0.543
h_scaling 0.833</title>
<path fill="none" stroke="red" stroke-width="2.42" d="M258.94,-772.05C270.5,-770.17 278.64,-765.07 278.64,-756.76 278.64,-751.04 274.79,-746.84 268.63,-744.17"/>
<polygon fill="red" stroke="red" stroke-width="2.42" points="269.52,-740.78 258.94,-741.46 267.63,-747.52 269.52,-740.78"/>
<text text-anchor="middle" x="292.64" y="-754.56" font-family="Times,serif" font-size="9.00">0.772</text>
</g>
<!-- key 10232
bias &#45;0.543
h_scaling 0.833&#45;&gt;key 5176
bias &#45;0.218
h_scaling 0.027 -->
<g id="edge4" class="edge">
<title>key 10232
bias &#45;0.543
h_scaling 0.833&#45;&gt;key 5176
bias &#45;0.218
h_scaling 0.027</title>
<path fill="none" stroke="red" stroke-width="2.69" d="M190.45,-693.44C189.21,-681.63 187.9,-669.18 186.63,-657.09"/>
<polygon fill="red" stroke="red" stroke-width="2.69" points="190.1,-656.62 185.57,-647.04 183.14,-657.35 190.1,-656.62"/>
<text text-anchor="middle" x="202" y="-667.92" font-family="Times,serif" font-size="9.00">0.864</text>
</g>
<!-- key 5176
bias &#45;0.218
h_scaling 0.027&#45;&gt;output
bias &#45;0.358
h_scaling 0.307 -->
<g id="edge1" class="edge">
<title>key 5176
bias &#45;0.218
h_scaling 0.027&#45;&gt;output
bias &#45;0.358
h_scaling 0.307</title>
<path fill="none" stroke="red" stroke-width="3.01" d="M167.97,-520.74C161.94,-471.71 159.66,-402.36 182,-346.56 191.38,-323.13 208.38,-301.72 225.79,-284.21"/>
<polygon fill="red" stroke="red" stroke-width="3.01" points="228.53,-286.43 233.26,-276.95 223.65,-281.41 228.53,-286.43"/>
<text text-anchor="middle" x="196" y="-408" font-family="Times,serif" font-size="9.00">0.970</text>
</g>
<!-- key 5176
bias &#45;0.218
h_scaling 0.027&#45;&gt;key 28927
bias 0.404
h_scaling 1.000 -->
<g id="edge10" class="edge">
<title>key 5176
bias &#45;0.218
h_scaling 0.027&#45;&gt;key 28927
bias 0.404
h_scaling 1.000</title>
<path fill="none" stroke="blue" stroke-width="3.1" d="M197.42,-522.03C201.58,-511.65 206.45,-501.2 212,-491.84 217.74,-482.16 224.72,-472.57 232.04,-463.55"/>
<polygon fill="blue" stroke="blue" stroke-width="3.1" points="234.79,-465.71 238.53,-455.79 229.42,-461.22 234.79,-465.71"/>
<text text-anchor="middle" x="227.5" y="-494.64" font-family="Times,serif" font-size="9.00">&#45;1.000</text>
</g>
<!-- key 28927
bias 0.404
h_scaling 1.000&#45;&gt;output
bias &#45;0.358
h_scaling 0.307 -->
<g id="edge11" class="edge">
<title>key 28927
bias 0.404
h_scaling 1.000&#45;&gt;output
bias &#45;0.358
h_scaling 0.307</title>
<path fill="none" stroke="blue" stroke-width="2.09" d="M283,-346.39C283,-334.87 283,-322.76 283,-310.97"/>
<polygon fill="blue" stroke="blue" stroke-width="2.09" points="286.5,-310.72 283,-300.72 279.5,-310.72 286.5,-310.72"/>
<text text-anchor="middle" x="298.5" y="-321.36" font-family="Times,serif" font-size="9.00">&#45;0.662</text>
</g>
<!-- key 28927
bias 0.404
h_scaling 1.000&#45;&gt;key 5176
bias &#45;0.218
h_scaling 0.027 -->
<g id="edge9" class="edge">
<title>key 28927
bias 0.404
h_scaling 1.000&#45;&gt;key 5176
bias &#45;0.218
h_scaling 0.027</title>
<path fill="none" stroke="blue" stroke-width="2.07" d="M262.63,-470.54C258.07,-481.26 252.83,-492.1 247,-501.84 241.65,-510.77 235.33,-519.71 228.73,-528.21"/>
<polygon fill="blue" stroke="blue" stroke-width="2.07" points="225.84,-526.22 222.33,-536.22 231.31,-530.59 225.84,-526.22"/>
<text text-anchor="middle" x="267.5" y="-494.64" font-family="Times,serif" font-size="9.00">&#45;0.657</text>
</g>
</g>
</svg>
