<?xml version="1.0" encoding="UTF-8" standalone="no"?>
<!DOCTYPE svg PUBLIC "-//W3C//DTD SVG 1.1//EN"
 "http://www.w3.org/Graphics/SVG/1.1/DTD/svg11.dtd">
<!-- Generated by graphviz version 2.43.0 (0)
 -->
<!-- Title: %3 Pages: 1 -->
<svg width="459pt" height="1057pt"
 viewBox="0.00 0.00 458.64 1056.68" xmlns="http://www.w3.org/2000/svg" xmlns:xlink="http://www.w3.org/1999/xlink">
<g id="graph0" class="graph" transform="scale(1 1) rotate(0) translate(4 1052.68)">
<title>%3</title>
<polygon fill="white" stroke="transparent" points="-4,4 -4,-1052.68 454.64,-1052.68 454.64,4 -4,4"/>
<!-- ready -->
<g id="node1" class="node">
<title>ready</title>
<polygon fill="yellow" stroke="black" points="122.5,-1048.68 79.5,-1048.68 79.5,-1030.68 122.5,-1030.68 122.5,-1048.68"/>
<text text-anchor="middle" x="101" y="-1037.48" font-family="Times,serif" font-size="9.00">ready</text>
</g>
<!-- key 22466
bias &#45;0.044
h_scaling 0.373 -->
<g id="node4" class="node">
<title>key 22466
bias &#45;0.044
h_scaling 0.373</title>
<ellipse fill="white" stroke="black" cx="312" cy="-921.04" rx="63.78" ry="63.78"/>
<text text-anchor="middle" x="312" y="-928.84" font-family="Times,serif" font-size="9.00">key 22466</text>
<text text-anchor="middle" x="312" y="-918.84" font-family="Times,serif" font-size="9.00">bias &#45;0.044</text>
<text text-anchor="middle" x="312" y="-908.84" font-family="Times,serif" font-size="9.00">h_scaling 0.373</text>
</g>
<!-- ready&#45;&gt;key 22466
bias &#45;0.044
h_scaling 0.373 -->
<g id="edge12" class="edge">
<title>ready&#45;&gt;key 22466
bias &#45;0.044
h_scaling 0.373</title>
<path fill="none" stroke="red" stroke-width="0.92" d="M122.51,-1033.91C139.69,-1029.64 164.11,-1022.53 184,-1012.68 208.56,-1000.51 233.59,-983.9 254.93,-968.23"/>
<polygon fill="red" stroke="red" stroke-width="0.92" points="257.29,-970.83 263.22,-962.04 253.11,-965.22 257.29,-970.83"/>
<text text-anchor="middle" x="214" y="-1005.48" font-family="Times,serif" font-size="9.00">0.027</text>
</g>
<!-- key 197380
bias &#45;0.750
h_scaling 0.679 -->
<g id="node5" class="node">
<title>key 197380
bias &#45;0.750
h_scaling 0.679</title>
<ellipse fill="white" stroke="black" cx="242" cy="-63.64" rx="63.78" ry="63.78"/>
<text text-anchor="middle" x="242" y="-71.44" font-family="Times,serif" font-size="9.00">key 197380</text>
<text text-anchor="middle" x="242" y="-61.44" font-family="Times,serif" font-size="9.00">bias &#45;0.750</text>
<text text-anchor="middle" x="242" y="-51.44" font-family="Times,serif" font-size="9.00">h_scaling 0.679</text>
</g>
<!-- ready&#45;&gt;key 197380
bias &#45;0.750
h_scaling 0.679 -->
<g id="edge16" class="edge">
<title>ready&#45;&gt;key 197380
bias &#45;0.750
h_scaling 0.679</title>
<path fill="none" stroke="red" stroke-width="4.84" d="M86.1,-1030.61C58,-1014.19 0,-974 0,-922.04 0,-922.04 0,-922.04 0,-235.92 0,-151.61 99.07,-105.07 170.43,-82.48"/>
<polygon fill="red" stroke="red" stroke-width="4.84" points="171.99,-86.44 180.31,-79.45 169.5,-78.33 171.99,-86.44"/>
<text text-anchor="middle" x="14" y="-572.28" font-family="Times,serif" font-size="9.00">0.158</text>
</g>
<!-- key 10232
bias &#45;0.543
h_scaling 0.833 -->
<g id="node7" class="node">
<title>key 10232
bias &#45;0.543
h_scaling 0.833</title>
<ellipse fill="white" stroke="black" cx="206" cy="-747.76" rx="63.78" ry="63.78"/>
<text text-anchor="middle" x="206" y="-755.56" font-family="Times,serif" font-size="9.00">key 10232</text>
<text text-anchor="middle" x="206" y="-745.56" font-family="Times,serif" font-size="9.00">bias &#45;0.543</text>
<text text-anchor="middle" x="206" y="-735.56" font-family="Times,serif" font-size="9.00">h_scaling 0.833</text>
</g>
<!-- ready&#45;&gt;key 10232
bias &#45;0.543
h_scaling 0.833 -->
<g id="edge3" class="edge">
<title>ready&#45;&gt;key 10232
bias &#45;0.543
h_scaling 0.833</title>
<path fill="none" stroke="red" stroke-width="1.05" d="M107.72,-1030.37C115.69,-1020.15 128.91,-1002.04 137,-984.68 161.66,-931.78 179.67,-868.06 191.09,-820.19"/>
<polygon fill="red" stroke="red" stroke-width="1.05" points="194.55,-820.76 193.43,-810.22 187.74,-819.16 194.55,-820.76"/>
<text text-anchor="middle" x="196" y="-918.84" font-family="Times,serif" font-size="9.00">0.032</text>
</g>
<!-- key 5176
bias &#45;0.218
h_scaling 0.027 -->
<g id="node8" class="node">
<title>key 5176
bias &#45;0.218
h_scaling 0.027</title>
<ellipse fill="white" stroke="black" cx="166" cy="-574.48" rx="63.78" ry="63.78"/>
<text text-anchor="middle" x="166" y="-582.28" font-family="Times,serif" font-size="9.00">key 5176</text>
<text text-anchor="middle" x="166" y="-572.28" font-family="Times,serif" font-size="9.00">bias &#45;0.218</text>
<text text-anchor="middle" x="166" y="-562.28" font-family="Times,serif" font-size="9.00">h_scaling 0.027</text>
</g>
<!-- ready&#45;&gt;key 5176
bias &#45;0.218
h_scaling 0.027 -->
<g id="edge5" class="edge">
<title>ready&#45;&gt;key 5176
bias &#45;0.218
h_scaling 0.027</title>
<path fill="none" stroke="red" stroke-width="1.09" d="M97.54,-1030.55C80.14,-988.47 5.75,-791.87 73,-656.12 80.46,-641.05 92.12,-627.63 104.69,-616.26"/>
<polygon fill="red" stroke="red" stroke-width="1.09" points="107.31,-618.63 112.61,-609.46 102.74,-613.32 107.31,-618.63"/>
<text text-anchor="middle" x="62" y="-832.2" font-family="Times,serif" font-size="9.00">0.033</text>
</g>
<!-- go -->
<g id="node2" class="node">
<title>go</title>
<polygon fill="green" stroke="black" points="128,-930.04 100,-930.04 100,-912.04 128,-912.04 128,-930.04"/>
<text text-anchor="middle" x="114" y="-918.84" font-family="Times,serif" font-size="9.00">go</text>
</g>
<!-- go&#45;&gt;key 10232
bias &#45;0.543
h_scaling 0.833 -->
<g id="edge2" class="edge">
<title>go&#45;&gt;key 10232
bias &#45;0.543
h_scaling 0.833</title>
<path fill="none" stroke="blue" stroke-width="0.1" d="M117.52,-911.89C124.54,-895.85 140.96,-859.14 157,-829.4 160.24,-823.39 163.72,-817.2 167.28,-811.05"/>
<polygon fill="blue" stroke="blue" stroke-width="0.1" points="170.49,-812.49 172.53,-802.1 164.46,-808.95 170.49,-812.49"/>
</g>
<!-- go&#45;&gt;key 5176
bias &#45;0.218
h_scaling 0.027 -->
<g id="edge6" class="edge">
<title>go&#45;&gt;key 5176
bias &#45;0.218
h_scaling 0.027</title>
<path fill="none" stroke="blue" stroke-width="0.1" d="M114.03,-911.8C114.26,-881.32 116.29,-772.12 133,-684.12 135.45,-671.23 138.85,-657.7 142.55,-644.74"/>
<polygon fill="blue" stroke="blue" stroke-width="0.1" points="145.96,-645.54 145.42,-634.96 139.25,-643.56 145.96,-645.54"/>
</g>
<!-- key 28927
bias 0.404
h_scaling 1.000 -->
<g id="node9" class="node">
<title>key 28927
bias 0.404
h_scaling 1.000</title>
<ellipse fill="white" stroke="black" cx="156" cy="-401.2" rx="63.78" ry="63.78"/>
<text text-anchor="middle" x="156" y="-409" font-family="Times,serif" font-size="9.00">key 28927</text>
<text text-anchor="middle" x="156" y="-399" font-family="Times,serif" font-size="9.00">bias 0.404</text>
<text text-anchor="middle" x="156" y="-389" font-family="Times,serif" font-size="9.00">h_scaling 1.000</text>
</g>
<!-- go&#45;&gt;key 28927
bias 0.404
h_scaling 1.000 -->
<g id="edge13" class="edge">
<title>go&#45;&gt;key 28927
bias 0.404
h_scaling 1.000</title>
<path fill="none" stroke="red" stroke-width="1.15" d="M111.71,-911.76C100.23,-868.79 50.97,-667.12 93,-510.84 97.5,-494.12 105.27,-477.32 113.85,-462.09"/>
<polygon fill="red" stroke="red" stroke-width="1.15" points="116.95,-463.72 118.97,-453.33 110.9,-460.19 116.95,-463.72"/>
<text text-anchor="middle" x="91" y="-658.92" font-family="Times,serif" font-size="9.00">0.035</text>
</g>
<!-- output
bias &#45;0.358
h_scaling 0.307 -->
<g id="node3" class="node">
<title>output
bias &#45;0.358
h_scaling 0.307</title>
<ellipse fill="lightblue" stroke="black" cx="247" cy="-236.92" rx="63.78" ry="63.78"/>
<text text-anchor="middle" x="247" y="-244.72" font-family="Times,serif" font-size="9.00">output</text>
<text text-anchor="middle" x="247" y="-234.72" font-family="Times,serif" font-size="9.00">bias &#45;0.358</text>
<text text-anchor="middle" x="247" y="-224.72" font-family="Times,serif" font-size="9.00">h_scaling 0.307</text>
</g>
<!-- output
bias &#45;0.358
h_scaling 0.307&#45;&gt;key 197380
bias &#45;0.750
h_scaling 0.679 -->
<g id="edge18" class="edge">
<title>output
bias &#45;0.358
h_scaling 0.307&#45;&gt;key 197380
bias &#45;0.750
h_scaling 0.679</title>
<path fill="none" stroke="blue" stroke-width="0.1" d="M245.17,-173.11C244.83,-161.59 244.48,-149.48 244.13,-137.69"/>
<polygon fill="blue" stroke="blue" stroke-width="0.1" points="247.62,-137.33 243.83,-127.44 240.63,-137.54 247.62,-137.33"/>
</g>
<!-- key 153547
bias &#45;0.910
h_scaling 0.919 -->
<g id="node6" class="node">
<title>key 153547
bias &#45;0.910
h_scaling 0.919</title>
<ellipse fill="white" stroke="black" cx="387" cy="-63.64" rx="63.78" ry="63.78"/>
<text text-anchor="middle" x="387" y="-71.44" font-family="Times,serif" font-size="9.00">key 153547</text>
<text text-anchor="middle" x="387" y="-61.44" font-family="Times,serif" font-size="9.00">bias &#45;0.910</text>
<text text-anchor="middle" x="387" y="-51.44" font-family="Times,serif" font-size="9.00">h_scaling 0.919</text>
</g>
<!-- output
bias &#45;0.358
h_scaling 0.307&#45;&gt;key 153547
bias &#45;0.910
h_scaling 0.919 -->
<g id="edge14" class="edge">
<title>output
bias &#45;0.358
h_scaling 0.307&#45;&gt;key 153547
bias &#45;0.910
h_scaling 0.919</title>
<path fill="none" stroke="red" stroke-width="1.27" d="M287.12,-186.84C303.81,-166.41 323.3,-142.58 340.6,-121.4"/>
<polygon fill="red" stroke="red" stroke-width="1.27" points="343.5,-123.39 347.12,-113.43 338.08,-118.96 343.5,-123.39"/>
<text text-anchor="middle" x="331" y="-148.08" font-family="Times,serif" font-size="9.00">0.039</text>
</g>
<!-- key 22466
bias &#45;0.044
h_scaling 0.373&#45;&gt;key 10232
bias &#45;0.543
h_scaling 0.833 -->
<g id="edge8" class="edge">
<title>key 22466
bias &#45;0.044
h_scaling 0.373&#45;&gt;key 10232
bias &#45;0.543
h_scaling 0.833</title>
<path fill="none" stroke="red" stroke-width="0.58" d="M278.75,-866.31C267.9,-848.78 255.76,-829.16 244.55,-811.04"/>
<polygon fill="red" stroke="red" stroke-width="0.58" points="247.37,-808.95 239.13,-802.29 241.42,-812.63 247.37,-808.95"/>
<text text-anchor="middle" x="273" y="-832.2" font-family="Times,serif" font-size="9.00">0.016</text>
</g>
<!-- key 197380
bias &#45;0.750
h_scaling 0.679&#45;&gt;key 22466
bias &#45;0.044
h_scaling 0.373 -->
<g id="edge17" class="edge">
<title>key 197380
bias &#45;0.750
h_scaling 0.679&#45;&gt;key 22466
bias &#45;0.044
h_scaling 0.373</title>
<path fill="none" stroke="red" stroke-width="0.83" d="M289.63,-105.86C308.83,-122.93 327.17,-139.98 330,-145.28 349.22,-181.22 344,-195.16 344,-235.92 344,-748.76 344,-748.76 344,-748.76 344,-782.33 337.99,-818.99 331.17,-849.74"/>
<polygon fill="red" stroke="red" stroke-width="0.83" points="327.75,-848.98 328.94,-859.51 334.58,-850.54 327.75,-848.98"/>
<text text-anchor="middle" x="358" y="-485.64" font-family="Times,serif" font-size="9.00">0.024</text>
</g>
<!-- key 153547
bias &#45;0.910
h_scaling 0.919&#45;&gt;key 22466
bias &#45;0.044
h_scaling 0.373 -->
<g id="edge15" class="edge">
<title>key 153547
bias &#45;0.910
h_scaling 0.919&#45;&gt;key 22466
bias &#45;0.044
h_scaling 0.373</title>
<path fill="none" stroke="blue" stroke-width="0.1" d="M387,-127.28C387,-159.71 387,-199.94 387,-235.92 387,-748.76 387,-748.76 387,-748.76 387,-787.61 370.61,-827.57 353.15,-859.11"/>
<polygon fill="blue" stroke="blue" stroke-width="0.1" points="349.88,-857.78 347.96,-868.2 355.96,-861.25 349.88,-857.78"/>
</g>
<!-- key 10232
bias &#45;0.543
h_scaling 0.833&#45;&gt;key 10232
bias &#45;0.543
h_scaling 0.833 -->
<g id="edge7" class="edge">
<title>key 10232
bias &#45;0.543
h_scaling 0.833&#45;&gt;key 10232
bias &#45;0.543
h_scaling 0.833</title>
<path fill="none" stroke="red" stroke-width="1.05" d="M267.94,-763.05C279.5,-761.17 287.64,-756.07 287.64,-747.76 287.64,-742.04 283.79,-737.84 277.63,-735.17"/>
<polygon fill="red" stroke="red" stroke-width="1.05" points="278.52,-731.78 267.94,-732.46 276.63,-738.52 278.52,-731.78"/>
<text text-anchor="middle" x="301.64" y="-745.56" font-family="Times,serif" font-size="9.00">0.032</text>
</g>
<!-- key 10232
bias &#45;0.543
h_scaling 0.833&#45;&gt;key 5176
bias &#45;0.218
h_scaling 0.027 -->
<g id="edge4" class="edge">
<title>key 10232
bias &#45;0.543
h_scaling 0.833&#45;&gt;key 5176
bias &#45;0.218
h_scaling 0.027</title>
<path fill="none" stroke="red" stroke-width="0.93" d="M191.67,-685.4C188.72,-672.78 185.6,-659.4 182.58,-646.47"/>
<polygon fill="red" stroke="red" stroke-width="0.93" points="185.98,-645.63 180.3,-636.69 179.16,-647.22 185.98,-645.63"/>
<text text-anchor="middle" x="200" y="-658.92" font-family="Times,serif" font-size="9.00">0.028</text>
</g>
<!-- key 5176
bias &#45;0.218
h_scaling 0.027&#45;&gt;output
bias &#45;0.358
h_scaling 0.307 -->
<g id="edge1" class="edge">
<title>key 5176
bias &#45;0.218
h_scaling 0.027&#45;&gt;output
bias &#45;0.358
h_scaling 0.307</title>
<path fill="none" stroke="red" stroke-width="0.9" d="M202.26,-521.8C212.68,-504.46 222.87,-484.51 229,-464.84 244.53,-415.03 248.83,-356.25 249.35,-310.99"/>
<polygon fill="red" stroke="red" stroke-width="0.9" points="252.85,-310.99 249.41,-300.97 245.85,-310.95 252.85,-310.99"/>
<text text-anchor="middle" x="263" y="-399" font-family="Times,serif" font-size="9.00">0.027</text>
</g>
<!-- key 5176
bias &#45;0.218
h_scaling 0.027&#45;&gt;key 28927
bias 0.404
h_scaling 1.000 -->
<g id="edge10" class="edge">
<title>key 5176
bias &#45;0.218
h_scaling 0.027&#45;&gt;key 28927
bias 0.404
h_scaling 1.000</title>
<path fill="none" stroke="blue" stroke-width="0.1" d="M155.88,-511.64C154.94,-499.74 154.15,-487.17 153.57,-474.96"/>
<polygon fill="blue" stroke="blue" stroke-width="0.1" points="157.06,-474.65 153.13,-464.81 150.06,-474.95 157.06,-474.65"/>
</g>
<!-- key 28927
bias 0.404
h_scaling 1.000&#45;&gt;output
bias &#45;0.358
h_scaling 0.307 -->
<g id="edge11" class="edge">
<title>key 28927
bias 0.404
h_scaling 1.000&#45;&gt;output
bias &#45;0.358
h_scaling 0.307</title>
<path fill="none" stroke="blue" stroke-width="0.1" d="M186.81,-345.26C194.67,-331.25 203.18,-316.07 211.26,-301.66"/>
<polygon fill="blue" stroke="blue" stroke-width="0.1" points="214.38,-303.24 216.22,-292.8 208.28,-299.81 214.38,-303.24"/>
</g>
<!-- key 28927
bias 0.404
h_scaling 1.000&#45;&gt;key 5176
bias &#45;0.218
h_scaling 0.027 -->
<g id="edge9" class="edge">
<title>key 28927
bias 0.404
h_scaling 1.000&#45;&gt;key 5176
bias &#45;0.218
h_scaling 0.027</title>
<path fill="none" stroke="blue" stroke-width="0.1" d="M166.13,-464.14C167.06,-475.97 167.85,-488.45 168.43,-500.58"/>
<polygon fill="blue" stroke="blue" stroke-width="0.1" points="164.93,-500.83 168.87,-510.67 171.93,-500.53 164.93,-500.83"/>
</g>
</g>
</svg>
