<?xml version="1.0" encoding="UTF-8" standalone="no"?>
<!DOCTYPE svg PUBLIC "-//W3C//DTD SVG 1.1//EN"
 "http://www.w3.org/Graphics/SVG/1.1/DTD/svg11.dtd">
<!-- Generated by graphviz version 2.43.0 (0)
 -->
<!-- Title: %3 Pages: 1 -->
<svg width="368pt" height="1048pt"
 viewBox="0.00 0.00 368.00 1047.68" xmlns="http://www.w3.org/2000/svg" xmlns:xlink="http://www.w3.org/1999/xlink">
<g id="graph0" class="graph" transform="scale(1 1) rotate(0) translate(4 1043.68)">
<title>%3</title>
<polygon fill="white" stroke="transparent" points="-4,4 -4,-1043.68 364,-1043.68 364,4 -4,4"/>
<!-- ready -->
<g id="node1" class="node">
<title>ready</title>
<polygon fill="yellow" stroke="black" points="105.5,-1039.68 62.5,-1039.68 62.5,-1021.68 105.5,-1021.68 105.5,-1039.68"/>
<text text-anchor="middle" x="84" y="-1028.48" font-family="Times,serif" font-size="9.00">ready</text>
</g>
<!-- key 268266
bias &#45;0.374
h_scaling 0.946 -->
<g id="node4" class="node">
<title>key 268266
bias &#45;0.374
h_scaling 0.946</title>
<ellipse fill="white" stroke="black" cx="176" cy="-921.04" rx="63.78" ry="63.78"/>
<text text-anchor="middle" x="176" y="-928.84" font-family="Times,serif" font-size="9.00">key 268266</text>
<text text-anchor="middle" x="176" y="-918.84" font-family="Times,serif" font-size="9.00">bias &#45;0.374</text>
<text text-anchor="middle" x="176" y="-908.84" font-family="Times,serif" font-size="9.00">h_scaling 0.946</text>
</g>
<!-- ready&#45;&gt;key 268266
bias &#45;0.374
h_scaling 0.946 -->
<g id="edge16" class="edge">
<title>ready&#45;&gt;key 268266
bias &#45;0.374
h_scaling 0.946</title>
<path fill="none" stroke="blue" stroke-width="0.1" d="M90.91,-1021.58C99.14,-1011.96 113.62,-995.02 128.33,-977.81"/>
<polygon fill="blue" stroke="blue" stroke-width="0.1" points="131.24,-979.79 135.08,-969.92 125.92,-975.24 131.24,-979.79"/>
</g>
<!-- key 8299
bias 0.370
h_scaling 0.212 -->
<g id="node5" class="node">
<title>key 8299
bias 0.370
h_scaling 0.212</title>
<ellipse fill="white" stroke="black" cx="130" cy="-583.48" rx="63.78" ry="63.78"/>
<text text-anchor="middle" x="130" y="-591.28" font-family="Times,serif" font-size="9.00">key 8299</text>
<text text-anchor="middle" x="130" y="-581.28" font-family="Times,serif" font-size="9.00">bias 0.370</text>
<text text-anchor="middle" x="130" y="-571.28" font-family="Times,serif" font-size="9.00">h_scaling 0.212</text>
</g>
<!-- ready&#45;&gt;key 8299
bias 0.370
h_scaling 0.212 -->
<g id="edge6" class="edge">
<title>ready&#45;&gt;key 8299
bias 0.370
h_scaling 0.212</title>
<path fill="none" stroke="red" stroke-width="0.41" d="M83.82,-1021.57C83.11,-983.38 81.49,-817.58 103,-684.12 104.56,-674.43 106.69,-664.33 109.07,-654.43"/>
<polygon fill="red" stroke="red" stroke-width="0.41" points="112.49,-655.18 111.53,-644.63 105.7,-653.48 112.49,-655.18"/>
<text text-anchor="middle" x="102" y="-832.2" font-family="Times,serif" font-size="9.00">0.010</text>
</g>
<!-- key 183
bias 0.671
h_scaling 0.713 -->
<g id="node7" class="node">
<title>key 183
bias 0.671
h_scaling 0.713</title>
<ellipse fill="white" stroke="black" cx="130" cy="-410.2" rx="63.78" ry="63.78"/>
<text text-anchor="middle" x="130" y="-418" font-family="Times,serif" font-size="9.00">key 183</text>
<text text-anchor="middle" x="130" y="-408" font-family="Times,serif" font-size="9.00">bias 0.671</text>
<text text-anchor="middle" x="130" y="-398" font-family="Times,serif" font-size="9.00">h_scaling 0.713</text>
</g>
<!-- ready&#45;&gt;key 183
bias 0.671
h_scaling 0.713 -->
<g id="edge1" class="edge">
<title>ready&#45;&gt;key 183
bias 0.671
h_scaling 0.713</title>
<path fill="none" stroke="blue" stroke-width="0.1" d="M71.24,-1021.64C47.74,-1005.73 0,-967.79 0,-922.04 0,-922.04 0,-922.04 0,-665.12 0,-590.44 45.1,-515.65 82.17,-466.78"/>
<polygon fill="blue" stroke="blue" stroke-width="0.1" points="85.17,-468.62 88.51,-458.56 79.63,-464.34 85.17,-468.62"/>
</g>
<!-- go -->
<g id="node2" class="node">
<title>go</title>
<polygon fill="green" stroke="black" points="278,-592.48 250,-592.48 250,-574.48 278,-574.48 278,-592.48"/>
<text text-anchor="middle" x="264" y="-581.28" font-family="Times,serif" font-size="9.00">go</text>
</g>
<!-- key 85363
bias &#45;0.764
h_scaling 0.526 -->
<g id="node6" class="node">
<title>key 85363
bias &#45;0.764
h_scaling 0.526</title>
<ellipse fill="white" stroke="black" cx="178" cy="-236.92" rx="63.78" ry="63.78"/>
<text text-anchor="middle" x="178" y="-244.72" font-family="Times,serif" font-size="9.00">key 85363</text>
<text text-anchor="middle" x="178" y="-234.72" font-family="Times,serif" font-size="9.00">bias &#45;0.764</text>
<text text-anchor="middle" x="178" y="-224.72" font-family="Times,serif" font-size="9.00">h_scaling 0.526</text>
</g>
<!-- go&#45;&gt;key 85363
bias &#45;0.764
h_scaling 0.526 -->
<g id="edge11" class="edge">
<title>go&#45;&gt;key 85363
bias &#45;0.764
h_scaling 0.526</title>
<path fill="none" stroke="red" stroke-width="0.45" d="M261.96,-574.3C253.12,-538.88 217.58,-396.51 195.67,-308.73"/>
<polygon fill="red" stroke="red" stroke-width="0.45" points="199.02,-307.69 193.2,-298.84 192.23,-309.39 199.02,-307.69"/>
<text text-anchor="middle" x="250" y="-408" font-family="Times,serif" font-size="9.00">0.012</text>
</g>
<!-- go&#45;&gt;key 183
bias 0.671
h_scaling 0.713 -->
<g id="edge3" class="edge">
<title>go&#45;&gt;key 183
bias 0.671
h_scaling 0.713</title>
<path fill="none" stroke="red" stroke-width="0.41" d="M261.99,-574.34C258.5,-561.55 250.29,-536.46 236,-519.84 226.36,-508.62 219.16,-511.55 208,-501.84 196.56,-491.89 185.31,-480.25 175.06,-468.68"/>
<polygon fill="red" stroke="red" stroke-width="0.41" points="177.68,-466.36 168.47,-461.11 172.39,-470.95 177.68,-466.36"/>
<text text-anchor="middle" x="222" y="-494.64" font-family="Times,serif" font-size="9.00">0.010</text>
</g>
<!-- key 52792
bias 0.710
h_scaling 0.384 -->
<g id="node8" class="node">
<title>key 52792
bias 0.710
h_scaling 0.384</title>
<ellipse fill="white" stroke="black" cx="271" cy="-63.64" rx="63.78" ry="63.78"/>
<text text-anchor="middle" x="271" y="-71.44" font-family="Times,serif" font-size="9.00">key 52792</text>
<text text-anchor="middle" x="271" y="-61.44" font-family="Times,serif" font-size="9.00">bias 0.710</text>
<text text-anchor="middle" x="271" y="-51.44" font-family="Times,serif" font-size="9.00">h_scaling 0.384</text>
</g>
<!-- go&#45;&gt;key 52792
bias 0.710
h_scaling 0.384 -->
<g id="edge13" class="edge">
<title>go&#45;&gt;key 52792
bias 0.710
h_scaling 0.384</title>
<path fill="none" stroke="blue" stroke-width="0.1" d="M264.38,-574.3C265.21,-556.21 267.17,-511.39 268,-473.84 270.6,-356.17 271.09,-219.43 271.11,-137.58"/>
<polygon fill="blue" stroke="blue" stroke-width="0.1" points="274.61,-137.39 271.11,-127.39 267.61,-137.39 274.61,-137.39"/>
</g>
<!-- output
bias 0.977
h_scaling 0.767 -->
<g id="node3" class="node">
<title>output
bias 0.977
h_scaling 0.767</title>
<ellipse fill="lightblue" stroke="black" cx="176" cy="-747.76" rx="63.78" ry="63.78"/>
<text text-anchor="middle" x="176" y="-755.56" font-family="Times,serif" font-size="9.00">output</text>
<text text-anchor="middle" x="176" y="-745.56" font-family="Times,serif" font-size="9.00">bias 0.977</text>
<text text-anchor="middle" x="176" y="-735.56" font-family="Times,serif" font-size="9.00">h_scaling 0.767</text>
</g>
<!-- output
bias 0.977
h_scaling 0.767&#45;&gt;key 8299
bias 0.370
h_scaling 0.212 -->
<g id="edge5" class="edge">
<title>output
bias 0.977
h_scaling 0.767&#45;&gt;key 8299
bias 0.370
h_scaling 0.212</title>
<path fill="none" stroke="blue" stroke-width="0.1" d="M158.87,-686.33C155.97,-676.09 152.93,-665.37 149.96,-654.9"/>
<polygon fill="blue" stroke="blue" stroke-width="0.1" points="153.24,-653.62 147.14,-644.95 146.5,-655.53 153.24,-653.62"/>
</g>
<!-- key 268266
bias &#45;0.374
h_scaling 0.946&#45;&gt;output
bias 0.977
h_scaling 0.767 -->
<g id="edge15" class="edge">
<title>key 268266
bias &#45;0.374
h_scaling 0.946&#45;&gt;output
bias 0.977
h_scaling 0.767</title>
<path fill="none" stroke="blue" stroke-width="0.1" d="M176,-857.23C176,-845.71 176,-833.6 176,-821.81"/>
<polygon fill="blue" stroke="blue" stroke-width="0.1" points="179.5,-821.55 176,-811.55 172.5,-821.55 179.5,-821.55"/>
</g>
<!-- key 268266
bias &#45;0.374
h_scaling 0.946&#45;&gt;key 268266
bias &#45;0.374
h_scaling 0.946 -->
<g id="edge17" class="edge">
<title>key 268266
bias &#45;0.374
h_scaling 0.946&#45;&gt;key 268266
bias &#45;0.374
h_scaling 0.946</title>
<path fill="none" stroke="red" stroke-width="0.18" d="M238.29,-935.57C249.66,-933.73 257.64,-928.88 257.64,-921.04 257.64,-915.76 254.04,-911.85 248.23,-909.29"/>
<polygon fill="red" stroke="red" stroke-width="0.18" points="248.87,-905.83 238.29,-906.51 246.98,-912.57 248.87,-905.83"/>
<text text-anchor="middle" x="271.64" y="-918.84" font-family="Times,serif" font-size="9.00">0.003</text>
</g>
<!-- key 8299
bias 0.370
h_scaling 0.212&#45;&gt;key 183
bias 0.671
h_scaling 0.713 -->
<g id="edge4" class="edge">
<title>key 8299
bias 0.370
h_scaling 0.212&#45;&gt;key 183
bias 0.671
h_scaling 0.713</title>
<path fill="none" stroke="blue" stroke-width="0.1" d="M123.48,-520.16C123.24,-508.35 123.19,-495.9 123.32,-483.81"/>
<polygon fill="blue" stroke="blue" stroke-width="0.1" points="126.82,-483.81 123.47,-473.76 119.82,-483.7 126.82,-483.81"/>
</g>
<!-- key 85363
bias &#45;0.764
h_scaling 0.526&#45;&gt;output
bias 0.977
h_scaling 0.767 -->
<g id="edge14" class="edge">
<title>key 85363
bias &#45;0.764
h_scaling 0.526&#45;&gt;output
bias 0.977
h_scaling 0.767</title>
<path fill="none" stroke="blue" stroke-width="0.1" d="M123.84,-270.9C98.48,-289.6 70.86,-315.49 57,-346.56 2.58,-468.55 0.48,-526.08 57,-647.12 68.83,-672.45 90.61,-693.61 112.34,-709.82"/>
<polygon fill="blue" stroke="blue" stroke-width="0.1" points="110.48,-712.8 120.65,-715.8 114.57,-707.12 110.48,-712.8"/>
</g>
<!-- key 85363
bias &#45;0.764
h_scaling 0.526&#45;&gt;key 52792
bias 0.710
h_scaling 0.384 -->
<g id="edge10" class="edge">
<title>key 85363
bias &#45;0.764
h_scaling 0.526&#45;&gt;key 52792
bias 0.710
h_scaling 0.384</title>
<path fill="none" stroke="red" stroke-width="0.42" d="M208.19,-180.31C217.06,-163.99 226.82,-146.01 235.96,-129.18"/>
<polygon fill="red" stroke="red" stroke-width="0.42" points="239.26,-130.43 240.96,-119.97 233.11,-127.09 239.26,-130.43"/>
<text text-anchor="middle" x="238" y="-148.08" font-family="Times,serif" font-size="9.00">0.011</text>
</g>
<!-- key 183
bias 0.671
h_scaling 0.713&#45;&gt;output
bias 0.977
h_scaling 0.767 -->
<g id="edge2" class="edge">
<title>key 183
bias 0.671
h_scaling 0.713&#45;&gt;output
bias 0.977
h_scaling 0.767</title>
<path fill="none" stroke="blue" stroke-width="0.1" d="M166.57,-462.69C183.76,-487.4 200.95,-513.1 203,-519.84 218.68,-571.28 210.18,-631.87 198.72,-677.49"/>
<polygon fill="blue" stroke="blue" stroke-width="0.1" points="195.3,-676.72 196.15,-687.28 202.07,-678.5 195.3,-676.72"/>
</g>
<!-- key 183
bias 0.671
h_scaling 0.713&#45;&gt;key 8299
bias 0.370
h_scaling 0.212 -->
<g id="edge7" class="edge">
<title>key 183
bias 0.671
h_scaling 0.713&#45;&gt;key 8299
bias 0.370
h_scaling 0.212</title>
<path fill="none" stroke="blue" stroke-width="0.1" d="M136.53,-473.76C136.76,-485.57 136.81,-498.02 136.68,-510.11"/>
<polygon fill="blue" stroke="blue" stroke-width="0.1" points="133.18,-510.1 136.52,-520.16 140.18,-510.21 133.18,-510.1"/>
</g>
<!-- key 183
bias 0.671
h_scaling 0.713&#45;&gt;key 85363
bias &#45;0.764
h_scaling 0.526 -->
<g id="edge12" class="edge">
<title>key 183
bias 0.671
h_scaling 0.713&#45;&gt;key 85363
bias &#45;0.764
h_scaling 0.526</title>
<path fill="none" stroke="red" stroke-width="0.48" d="M146.92,-348.81C150.62,-335.64 154.55,-321.58 158.34,-308.07"/>
<polygon fill="red" stroke="red" stroke-width="0.48" points="161.74,-308.91 161.07,-298.34 155,-307.02 161.74,-308.91"/>
<text text-anchor="middle" x="168" y="-321.36" font-family="Times,serif" font-size="9.00">0.013</text>
</g>
<!-- key 183
bias 0.671
h_scaling 0.713&#45;&gt;key 52792
bias 0.710
h_scaling 0.384 -->
<g id="edge8" class="edge">
<title>key 183
bias 0.671
h_scaling 0.713&#45;&gt;key 52792
bias 0.710
h_scaling 0.384</title>
<path fill="none" stroke="blue" stroke-width="0.1" d="M106.07,-350.8C89.53,-300.72 75.32,-228.17 105,-173.28 125.6,-135.18 166.02,-108.29 201.82,-90.8"/>
<polygon fill="blue" stroke="blue" stroke-width="0.1" points="203.74,-93.76 211.29,-86.33 200.75,-87.43 203.74,-93.76"/>
</g>
<!-- key 52792
bias 0.710
h_scaling 0.384&#45;&gt;output
bias 0.977
h_scaling 0.767 -->
<g id="edge9" class="edge">
<title>key 52792
bias 0.710
h_scaling 0.384&#45;&gt;output
bias 0.977
h_scaling 0.767</title>
<path fill="none" stroke="red" stroke-width="0.58" d="M301.32,-119.59C316.63,-152.36 332,-195.36 332,-235.92 332,-584.48 332,-584.48 332,-584.48 332,-640.17 283.66,-684.14 240.8,-712.19"/>
<polygon fill="red" stroke="red" stroke-width="0.58" points="238.88,-709.26 232.32,-717.58 242.64,-715.17 238.88,-709.26"/>
<text text-anchor="middle" x="346" y="-408" font-family="Times,serif" font-size="9.00">0.016</text>
</g>
</g>
</svg>
