<?xml version="1.0" encoding="UTF-8" standalone="no"?>
<!DOCTYPE svg PUBLIC "-//W3C//DTD SVG 1.1//EN"
 "http://www.w3.org/Graphics/SVG/1.1/DTD/svg11.dtd">
<!-- Generated by graphviz version 2.43.0 (0)
 -->
<!-- Title: %3 Pages: 1 -->
<svg width="402pt" height="1066pt"
 viewBox="0.00 0.00 402.00 1065.68" xmlns="http://www.w3.org/2000/svg" xmlns:xlink="http://www.w3.org/1999/xlink">
<g id="graph0" class="graph" transform="scale(1 1) rotate(0) translate(4 1061.68)">
<title>%3</title>
<polygon fill="white" stroke="transparent" points="-4,4 -4,-1061.68 398,-1061.68 398,4 -4,4"/>
<!-- ready -->
<g id="node1" class="node">
<title>ready</title>
<polygon fill="yellow" stroke="black" points="186.5,-1057.68 143.5,-1057.68 143.5,-1039.68 186.5,-1039.68 186.5,-1057.68"/>
<text text-anchor="middle" x="165" y="-1046.48" font-family="Times,serif" font-size="9.00">ready</text>
</g>
<!-- key 268266
bias &#45;0.374
h_scaling 0.946 -->
<g id="node4" class="node">
<title>key 268266
bias &#45;0.374
h_scaling 0.946</title>
<ellipse fill="white" stroke="black" cx="261" cy="-930.04" rx="63.78" ry="63.78"/>
<text text-anchor="middle" x="261" y="-937.84" font-family="Times,serif" font-size="9.00">key 268266</text>
<text text-anchor="middle" x="261" y="-927.84" font-family="Times,serif" font-size="9.00">bias &#45;0.374</text>
<text text-anchor="middle" x="261" y="-917.84" font-family="Times,serif" font-size="9.00">h_scaling 0.946</text>
</g>
<!-- ready&#45;&gt;key 268266
bias &#45;0.374
h_scaling 0.946 -->
<g id="edge16" class="edge">
<title>ready&#45;&gt;key 268266
bias &#45;0.374
h_scaling 0.946</title>
<path fill="none" stroke="blue" stroke-width="1.43" d="M171.6,-1039.66C180.65,-1028.66 197.72,-1007.92 214.54,-987.49"/>
<polygon fill="blue" stroke="blue" stroke-width="1.43" points="217.3,-989.64 220.96,-979.69 211.9,-985.19 217.3,-989.64"/>
<text text-anchor="middle" x="208.5" y="-1014.48" font-family="Times,serif" font-size="9.00">&#45;0.445</text>
</g>
<!-- key 8299
bias 0.370
h_scaling 0.212 -->
<g id="node5" class="node">
<title>key 8299
bias 0.370
h_scaling 0.212</title>
<ellipse fill="white" stroke="black" cx="165" cy="-583.48" rx="63.78" ry="63.78"/>
<text text-anchor="middle" x="165" y="-591.28" font-family="Times,serif" font-size="9.00">key 8299</text>
<text text-anchor="middle" x="165" y="-581.28" font-family="Times,serif" font-size="9.00">bias 0.370</text>
<text text-anchor="middle" x="165" y="-571.28" font-family="Times,serif" font-size="9.00">h_scaling 0.212</text>
</g>
<!-- ready&#45;&gt;key 8299
bias 0.370
h_scaling 0.212 -->
<g id="edge6" class="edge">
<title>ready&#45;&gt;key 8299
bias 0.370
h_scaling 0.212</title>
<path fill="none" stroke="red" stroke-width="0.54" d="M165,-1039.64C165,-994.91 165,-774.61 165,-657.69"/>
<polygon fill="red" stroke="red" stroke-width="0.54" points="168.5,-657.39 165,-647.39 161.5,-657.39 168.5,-657.39"/>
<text text-anchor="middle" x="179" y="-841.2" font-family="Times,serif" font-size="9.00">0.145</text>
</g>
<!-- key 183
bias 0.671
h_scaling 0.713 -->
<g id="node7" class="node">
<title>key 183
bias 0.671
h_scaling 0.713</title>
<ellipse fill="white" stroke="black" cx="207" cy="-410.2" rx="63.78" ry="63.78"/>
<text text-anchor="middle" x="207" y="-418" font-family="Times,serif" font-size="9.00">key 183</text>
<text text-anchor="middle" x="207" y="-408" font-family="Times,serif" font-size="9.00">bias 0.671</text>
<text text-anchor="middle" x="207" y="-398" font-family="Times,serif" font-size="9.00">h_scaling 0.713</text>
</g>
<!-- ready&#45;&gt;key 183
bias 0.671
h_scaling 0.713 -->
<g id="edge1" class="edge">
<title>ready&#45;&gt;key 183
bias 0.671
h_scaling 0.713</title>
<path fill="none" stroke="blue" stroke-width="0.72" d="M151.82,-1039.53C126.38,-1022.68 73,-981.33 73,-931.04 73,-931.04 73,-931.04 73,-669.12 73,-602.24 61.7,-579.46 92,-519.84 94.03,-515.83 124.02,-487.56 152.85,-460.86"/>
<polygon fill="blue" stroke="blue" stroke-width="0.72" points="155.57,-463.11 160.54,-453.76 150.82,-457.97 155.57,-463.11"/>
<text text-anchor="middle" x="88.5" y="-754.56" font-family="Times,serif" font-size="9.00">&#45;0.208</text>
</g>
<!-- go -->
<g id="node2" class="node">
<title>go</title>
<polygon fill="green" stroke="black" points="28,-592.48 0,-592.48 0,-574.48 28,-574.48 28,-592.48"/>
<text text-anchor="middle" x="14" y="-581.28" font-family="Times,serif" font-size="9.00">go</text>
</g>
<!-- key 85363
bias &#45;0.764
h_scaling 0.526 -->
<g id="node6" class="node">
<title>key 85363
bias &#45;0.764
h_scaling 0.526</title>
<ellipse fill="white" stroke="black" cx="207" cy="-236.92" rx="63.78" ry="63.78"/>
<text text-anchor="middle" x="207" y="-244.72" font-family="Times,serif" font-size="9.00">key 85363</text>
<text text-anchor="middle" x="207" y="-234.72" font-family="Times,serif" font-size="9.00">bias &#45;0.764</text>
<text text-anchor="middle" x="207" y="-224.72" font-family="Times,serif" font-size="9.00">h_scaling 0.526</text>
</g>
<!-- go&#45;&gt;key 85363
bias &#45;0.764
h_scaling 0.526 -->
<g id="edge11" class="edge">
<title>go&#45;&gt;key 85363
bias &#45;0.764
h_scaling 0.526</title>
<path fill="none" stroke="red" stroke-width="3.01" d="M15.64,-574.33C19,-558.27 27.22,-521.52 38,-491.84 62.33,-424.83 66.14,-405.66 106,-346.56 119.73,-326.2 137.25,-305.93 153.83,-288.51"/>
<polygon fill="red" stroke="red" stroke-width="3.01" points="156.44,-290.85 160.86,-281.22 151.4,-285.99 156.44,-290.85"/>
<text text-anchor="middle" x="120" y="-408" font-family="Times,serif" font-size="9.00">0.969</text>
</g>
<!-- go&#45;&gt;key 183
bias 0.671
h_scaling 0.713 -->
<g id="edge3" class="edge">
<title>go&#45;&gt;key 183
bias 0.671
h_scaling 0.713</title>
<path fill="none" stroke="red" stroke-width="2.06" d="M15.03,-574.45C17.6,-557.29 25.8,-516.63 48,-491.84 71.67,-465.4 106.02,-446.47 136.75,-433.62"/>
<polygon fill="red" stroke="red" stroke-width="2.06" points="138.19,-436.82 146.15,-429.83 135.57,-430.33 138.19,-436.82"/>
<text text-anchor="middle" x="62" y="-494.64" font-family="Times,serif" font-size="9.00">0.654</text>
</g>
<!-- key 52792
bias 0.710
h_scaling 0.384 -->
<g id="node8" class="node">
<title>key 52792
bias 0.710
h_scaling 0.384</title>
<ellipse fill="white" stroke="black" cx="282" cy="-63.64" rx="63.78" ry="63.78"/>
<text text-anchor="middle" x="282" y="-71.44" font-family="Times,serif" font-size="9.00">key 52792</text>
<text text-anchor="middle" x="282" y="-61.44" font-family="Times,serif" font-size="9.00">bias 0.710</text>
<text text-anchor="middle" x="282" y="-51.44" font-family="Times,serif" font-size="9.00">h_scaling 0.384</text>
</g>
<!-- go&#45;&gt;key 52792
bias 0.710
h_scaling 0.384 -->
<g id="edge13" class="edge">
<title>go&#45;&gt;key 52792
bias 0.710
h_scaling 0.384</title>
<path fill="none" stroke="blue" stroke-width="2.98" d="M13.83,-574.1C13.45,-543.1 14.16,-432.33 41,-346.56 67.1,-263.14 76.69,-239.27 134,-173.28 158.05,-145.58 190.39,-120.83 218.71,-101.97"/>
<polygon fill="blue" stroke="blue" stroke-width="2.98" points="220.9,-104.72 227.35,-96.31 217.07,-98.86 220.9,-104.72"/>
<text text-anchor="middle" x="65.5" y="-321.36" font-family="Times,serif" font-size="9.00">&#45;0.960</text>
</g>
<!-- output
bias 0.977
h_scaling 0.767 -->
<g id="node3" class="node">
<title>output
bias 0.977
h_scaling 0.767</title>
<ellipse fill="lightblue" stroke="black" cx="265" cy="-756.76" rx="63.78" ry="63.78"/>
<text text-anchor="middle" x="265" y="-764.56" font-family="Times,serif" font-size="9.00">output</text>
<text text-anchor="middle" x="265" y="-754.56" font-family="Times,serif" font-size="9.00">bias 0.977</text>
<text text-anchor="middle" x="265" y="-744.56" font-family="Times,serif" font-size="9.00">h_scaling 0.767</text>
</g>
<!-- output
bias 0.977
h_scaling 0.767&#45;&gt;key 8299
bias 0.370
h_scaling 0.212 -->
<g id="edge5" class="edge">
<title>output
bias 0.977
h_scaling 0.767&#45;&gt;key 8299
bias 0.370
h_scaling 0.212</title>
<path fill="none" stroke="blue" stroke-width="0.6" d="M233.08,-701.09C223.2,-684.17 212.23,-665.38 202.04,-647.91"/>
<polygon fill="blue" stroke="blue" stroke-width="0.6" points="204.85,-645.79 196.78,-638.92 198.8,-649.32 204.85,-645.79"/>
<text text-anchor="middle" x="230.5" y="-667.92" font-family="Times,serif" font-size="9.00">&#45;0.166</text>
</g>
<!-- key 268266
bias &#45;0.374
h_scaling 0.946&#45;&gt;output
bias 0.977
h_scaling 0.767 -->
<g id="edge15" class="edge">
<title>key 268266
bias &#45;0.374
h_scaling 0.946&#45;&gt;output
bias 0.977
h_scaling 0.767</title>
<path fill="none" stroke="blue" stroke-width="1.42" d="M262.47,-866.23C262.74,-854.71 263.02,-842.6 263.29,-830.81"/>
<polygon fill="blue" stroke="blue" stroke-width="1.42" points="266.8,-830.63 263.53,-820.55 259.8,-830.47 266.8,-830.63"/>
<text text-anchor="middle" x="278.5" y="-841.2" font-family="Times,serif" font-size="9.00">&#45;0.442</text>
</g>
<!-- key 268266
bias &#45;0.374
h_scaling 0.946&#45;&gt;key 268266
bias &#45;0.374
h_scaling 0.946 -->
<g id="edge17" class="edge">
<title>key 268266
bias &#45;0.374
h_scaling 0.946&#45;&gt;key 268266
bias &#45;0.374
h_scaling 0.946</title>
<path fill="none" stroke="red" stroke-width="0.12" d="M322.94,-945.33C334.5,-943.45 342.64,-938.35 342.64,-930.04 342.64,-924.32 338.79,-920.12 332.63,-917.45"/>
<polygon fill="red" stroke="red" stroke-width="0.12" points="333.52,-914.06 322.94,-914.74 331.63,-920.8 333.52,-914.06"/>
<text text-anchor="middle" x="356.64" y="-927.84" font-family="Times,serif" font-size="9.00">0.006</text>
</g>
<!-- key 8299
bias 0.370
h_scaling 0.212&#45;&gt;key 183
bias 0.671
h_scaling 0.713 -->
<g id="edge4" class="edge">
<title>key 8299
bias 0.370
h_scaling 0.212&#45;&gt;key 183
bias 0.671
h_scaling 0.713</title>
<path fill="none" stroke="blue" stroke-width="2.16" d="M156.37,-520.01C156.53,-510.47 157.57,-500.81 160,-491.84 161.76,-485.32 164.19,-478.79 167.03,-472.42"/>
<polygon fill="blue" stroke="blue" stroke-width="2.16" points="170.27,-473.76 171.45,-463.23 163.96,-470.73 170.27,-473.76"/>
<text text-anchor="middle" x="175.5" y="-494.64" font-family="Times,serif" font-size="9.00">&#45;0.688</text>
</g>
<!-- key 85363
bias &#45;0.764
h_scaling 0.526&#45;&gt;output
bias 0.977
h_scaling 0.767 -->
<g id="edge14" class="edge">
<title>key 85363
bias &#45;0.764
h_scaling 0.526&#45;&gt;output
bias 0.977
h_scaling 0.767</title>
<path fill="none" stroke="blue" stroke-width="2.38" d="M247.53,-286.35C260.21,-304.18 272.76,-325.26 280,-346.56 323,-473.12 306.66,-514.37 291,-647.12 289.53,-659.58 287.14,-672.68 284.39,-685.3"/>
<polygon fill="blue" stroke="blue" stroke-width="2.38" points="280.92,-684.78 282.12,-695.3 287.75,-686.33 280.92,-684.78"/>
<text text-anchor="middle" x="322.5" y="-494.64" font-family="Times,serif" font-size="9.00">&#45;0.760</text>
</g>
<!-- key 85363
bias &#45;0.764
h_scaling 0.526&#45;&gt;key 52792
bias 0.710
h_scaling 0.384 -->
<g id="edge10" class="edge">
<title>key 85363
bias &#45;0.764
h_scaling 0.526&#45;&gt;key 52792
bias 0.710
h_scaling 0.384</title>
<path fill="none" stroke="red" stroke-width="0.64" d="M232.18,-178.41C238.74,-163.44 245.86,-147.18 252.61,-131.76"/>
<polygon fill="red" stroke="red" stroke-width="0.64" points="255.95,-132.85 256.76,-122.29 249.54,-130.05 255.95,-132.85"/>
<text text-anchor="middle" x="258" y="-148.08" font-family="Times,serif" font-size="9.00">0.181</text>
</g>
<!-- key 183
bias 0.671
h_scaling 0.713&#45;&gt;output
bias 0.977
h_scaling 0.767 -->
<g id="edge2" class="edge">
<title>key 183
bias 0.671
h_scaling 0.713&#45;&gt;output
bias 0.977
h_scaling 0.767</title>
<path fill="none" stroke="blue" stroke-width="3.1" d="M225.99,-471.11C230.46,-486.84 234.83,-503.87 238,-519.84 248.77,-574.09 255.67,-636.27 259.79,-683.17"/>
<polygon fill="blue" stroke="blue" stroke-width="3.1" points="256.31,-683.57 260.66,-693.24 263.29,-682.97 256.31,-683.57"/>
<text text-anchor="middle" x="271.5" y="-581.28" font-family="Times,serif" font-size="9.00">&#45;1.000</text>
</g>
<!-- key 183
bias 0.671
h_scaling 0.713&#45;&gt;key 8299
bias 0.370
h_scaling 0.212 -->
<g id="edge7" class="edge">
<title>key 183
bias 0.671
h_scaling 0.713&#45;&gt;key 8299
bias 0.370
h_scaling 0.212</title>
<path fill="none" stroke="blue" stroke-width="0.93" d="M197.19,-473.36C195.35,-482.94 193.27,-492.69 191,-501.84 190.1,-505.48 189.11,-509.19 188.08,-512.93"/>
<polygon fill="blue" stroke="blue" stroke-width="0.93" points="184.63,-512.27 185.23,-522.85 191.36,-514.21 184.63,-512.27"/>
<text text-anchor="middle" x="208.5" y="-494.64" font-family="Times,serif" font-size="9.00">&#45;0.277</text>
</g>
<!-- key 183
bias 0.671
h_scaling 0.713&#45;&gt;key 85363
bias &#45;0.764
h_scaling 0.526 -->
<g id="edge12" class="edge">
<title>key 183
bias 0.671
h_scaling 0.713&#45;&gt;key 85363
bias &#45;0.764
h_scaling 0.526</title>
<path fill="none" stroke="red" stroke-width="2.31" d="M207,-346.39C207,-334.87 207,-322.76 207,-310.97"/>
<polygon fill="red" stroke="red" stroke-width="2.31" points="210.5,-310.72 207,-300.72 203.5,-310.72 210.5,-310.72"/>
<text text-anchor="middle" x="221" y="-321.36" font-family="Times,serif" font-size="9.00">0.737</text>
</g>
<!-- key 183
bias 0.671
h_scaling 0.713&#45;&gt;key 52792
bias 0.710
h_scaling 0.384 -->
<g id="edge8" class="edge">
<title>key 183
bias 0.671
h_scaling 0.713&#45;&gt;key 52792
bias 0.710
h_scaling 0.384</title>
<path fill="none" stroke="blue" stroke-width="2.2" d="M248,-361.25C260.8,-343.38 273.32,-322.16 280,-300.56 296.41,-247.52 296,-184.5 291.99,-136.95"/>
<polygon fill="blue" stroke="blue" stroke-width="2.2" points="295.45,-136.37 291.05,-126.74 288.48,-137.01 295.45,-136.37"/>
<text text-anchor="middle" x="309.5" y="-234.72" font-family="Times,serif" font-size="9.00">&#45;0.700</text>
</g>
<!-- key 52792
bias 0.710
h_scaling 0.384&#45;&gt;output
bias 0.977
h_scaling 0.767 -->
<g id="edge9" class="edge">
<title>key 52792
bias 0.710
h_scaling 0.384&#45;&gt;output
bias 0.977
h_scaling 0.767</title>
<path fill="none" stroke="red" stroke-width="3.1" d="M321.05,-114.02C342.99,-146.69 366,-191.54 366,-235.92 366,-584.48 366,-584.48 366,-584.48 366,-628.55 340.88,-671.27 315.69,-703.02"/>
<polygon fill="red" stroke="red" stroke-width="3.1" points="312.91,-700.89 309.3,-710.85 318.33,-705.31 312.91,-700.89"/>
<text text-anchor="middle" x="380" y="-408" font-family="Times,serif" font-size="9.00">1.000</text>
</g>
</g>
</svg>
