<?xml version="1.0" encoding="UTF-8" standalone="no"?>
<!DOCTYPE svg PUBLIC "-//W3C//DTD SVG 1.1//EN"
 "http://www.w3.org/Graphics/SVG/1.1/DTD/svg11.dtd">
<!-- Generated by graphviz version 2.43.0 (0)
 -->
<!-- Title: %3 Pages: 1 -->
<svg width="504pt" height="1002pt"
 viewBox="0.00 0.00 503.64 1001.68" xmlns="http://www.w3.org/2000/svg" xmlns:xlink="http://www.w3.org/1999/xlink">
<g id="graph0" class="graph" transform="scale(1 1) rotate(0) translate(4 997.68)">
<title>%3</title>
<polygon fill="white" stroke="transparent" points="-4,4 -4,-997.68 499.64,-997.68 499.64,4 -4,4"/>
<!-- ready
output 1.000 -->
<g id="node1" class="node">
<title>ready
output 1.000</title>
<polygon fill="yellow" stroke="black" points="199.5,-944.04 122.5,-944.04 122.5,-916.04 199.5,-916.04 199.5,-944.04"/>
<text text-anchor="middle" x="161" y="-932.84" font-family="Times,serif" font-size="9.00">ready</text>
<text text-anchor="middle" x="161" y="-922.84" font-family="Times,serif" font-size="9.00">output 1.000</text>
</g>
<!-- key 302317
bias &#45;0.420
h_scaling 0.002
output 0.001 -->
<g id="node7" class="node">
<title>key 302317
bias &#45;0.420
h_scaling 0.002
output 0.001</title>
<ellipse fill="white" stroke="black" cx="92" cy="-756.76" rx="63.78" ry="63.78"/>
<text text-anchor="middle" x="92" y="-769.56" font-family="Times,serif" font-size="9.00">key 302317</text>
<text text-anchor="middle" x="92" y="-759.56" font-family="Times,serif" font-size="9.00">bias &#45;0.420</text>
<text text-anchor="middle" x="92" y="-749.56" font-family="Times,serif" font-size="9.00">h_scaling 0.002</text>
<text text-anchor="middle" x="92" y="-739.56" font-family="Times,serif" font-size="9.00">output 0.001</text>
</g>
<!-- ready
output 1.000&#45;&gt;key 302317
bias &#45;0.420
h_scaling 0.002
output 0.001 -->
<g id="edge14" class="edge">
<title>ready
output 1.000&#45;&gt;key 302317
bias &#45;0.420
h_scaling 0.002
output 0.001</title>
<path fill="none" stroke="blue" stroke-width="2.91" d="M155.7,-915.88C147.91,-896.55 132.83,-859.11 119.3,-825.52"/>
<polygon fill="blue" stroke="blue" stroke-width="2.91" points="122.51,-824.13 115.53,-816.16 116.02,-826.75 122.51,-824.13"/>
<text text-anchor="middle" x="142.5" y="-841.2" font-family="Times,serif" font-size="9.00">&#45;0.938</text>
</g>
<!-- key 4733
bias &#45;0.539
h_scaling 0.036
output 0.451 -->
<g id="node10" class="node">
<title>key 4733
bias &#45;0.539
h_scaling 0.036
output 0.451</title>
<ellipse fill="white" stroke="black" cx="148" cy="-410.2" rx="63.78" ry="63.78"/>
<text text-anchor="middle" x="148" y="-423" font-family="Times,serif" font-size="9.00">key 4733</text>
<text text-anchor="middle" x="148" y="-413" font-family="Times,serif" font-size="9.00">bias &#45;0.539</text>
<text text-anchor="middle" x="148" y="-403" font-family="Times,serif" font-size="9.00">h_scaling 0.036</text>
<text text-anchor="middle" x="148" y="-393" font-family="Times,serif" font-size="9.00">output 0.451</text>
</g>
<!-- ready
output 1.000&#45;&gt;key 4733
bias &#45;0.539
h_scaling 0.036
output 0.451 -->
<g id="edge10" class="edge">
<title>ready
output 1.000&#45;&gt;key 4733
bias &#45;0.539
h_scaling 0.036
output 0.451</title>
<path fill="none" stroke="red" stroke-width="1.42" d="M161.96,-915.93C165.51,-865 177.09,-675.31 165,-519.84 164.07,-507.94 162.59,-495.38 160.87,-483.18"/>
<polygon fill="red" stroke="red" stroke-width="1.42" points="164.3,-482.43 159.38,-473.05 157.37,-483.45 164.3,-482.43"/>
<text text-anchor="middle" x="185" y="-667.92" font-family="Times,serif" font-size="9.00">0.470</text>
</g>
<!-- go
output 0.000 -->
<g id="node2" class="node">
<title>go
output 0.000</title>
<polygon fill="green" stroke="black" points="319.5,-770.76 242.5,-770.76 242.5,-742.76 319.5,-742.76 319.5,-770.76"/>
<text text-anchor="middle" x="281" y="-759.56" font-family="Times,serif" font-size="9.00">go</text>
<text text-anchor="middle" x="281" y="-749.56" font-family="Times,serif" font-size="9.00">output 0.000</text>
</g>
<!-- key 2949
bias 0.173
h_scaling 0.982
output 0.301 -->
<g id="node4" class="node">
<title>key 2949
bias 0.173
h_scaling 0.982
output 0.301</title>
<ellipse fill="white" stroke="black" cx="92" cy="-583.48" rx="63.78" ry="63.78"/>
<text text-anchor="middle" x="92" y="-596.28" font-family="Times,serif" font-size="9.00">key 2949</text>
<text text-anchor="middle" x="92" y="-586.28" font-family="Times,serif" font-size="9.00">bias 0.173</text>
<text text-anchor="middle" x="92" y="-576.28" font-family="Times,serif" font-size="9.00">h_scaling 0.982</text>
<text text-anchor="middle" x="92" y="-566.28" font-family="Times,serif" font-size="9.00">output 0.301</text>
</g>
<!-- go
output 0.000&#45;&gt;key 2949
bias 0.173
h_scaling 0.982
output 0.301 -->
<g id="edge5" class="edge">
<title>go
output 0.000&#45;&gt;key 2949
bias 0.173
h_scaling 0.982
output 0.301</title>
<path fill="none" stroke="blue" stroke-width="3.1" d="M273.19,-742.66C261.64,-723.99 238.58,-689.31 213,-665.12 195.82,-648.87 175.02,-633.72 155.55,-621.04"/>
<polygon fill="blue" stroke="blue" stroke-width="3.1" points="157.32,-618.02 147.01,-615.58 153.54,-623.91 157.32,-618.02"/>
<text text-anchor="middle" x="237.5" y="-667.92" font-family="Times,serif" font-size="9.00">&#45;1.000</text>
</g>
<!-- key 4497
bias 0.227
h_scaling 0.062
output 0.623 -->
<g id="node8" class="node">
<title>key 4497
bias 0.227
h_scaling 0.062
output 0.623</title>
<ellipse fill="white" stroke="black" cx="233" cy="-236.92" rx="63.78" ry="63.78"/>
<text text-anchor="middle" x="233" y="-249.72" font-family="Times,serif" font-size="9.00">key 4497</text>
<text text-anchor="middle" x="233" y="-239.72" font-family="Times,serif" font-size="9.00">bias 0.227</text>
<text text-anchor="middle" x="233" y="-229.72" font-family="Times,serif" font-size="9.00">h_scaling 0.062</text>
<text text-anchor="middle" x="233" y="-219.72" font-family="Times,serif" font-size="9.00">output 0.623</text>
</g>
<!-- go
output 0.000&#45;&gt;key 4497
bias 0.227
h_scaling 0.062
output 0.623 -->
<g id="edge4" class="edge">
<title>go
output 0.000&#45;&gt;key 4497
bias 0.227
h_scaling 0.062
output 0.623</title>
<path fill="none" stroke="red" stroke-width="1.23" d="M283.18,-742.43C291.18,-690.67 316.71,-498.35 281,-346.56 277.58,-332.04 272.27,-317.06 266.4,-303.03"/>
<polygon fill="red" stroke="red" stroke-width="1.23" points="269.45,-301.27 262.26,-293.49 263.03,-304.06 269.45,-301.27"/>
<text text-anchor="middle" x="314" y="-494.64" font-family="Times,serif" font-size="9.00">0.426</text>
</g>
<!-- go
output 0.000&#45;&gt;key 4733
bias &#45;0.539
h_scaling 0.036
output 0.451 -->
<g id="edge6" class="edge">
<title>go
output 0.000&#45;&gt;key 4733
bias &#45;0.539
h_scaling 0.036
output 0.451</title>
<path fill="none" stroke="blue" stroke-width="3.06" d="M278.22,-742.65C269.61,-703.34 241.31,-583.46 198,-491.84 194.95,-485.39 191.5,-478.81 187.88,-472.34"/>
<polygon fill="blue" stroke="blue" stroke-width="3.06" points="190.87,-470.51 182.84,-463.59 184.8,-474.01 190.87,-470.51"/>
<text text-anchor="middle" x="269.5" y="-581.28" font-family="Times,serif" font-size="9.00">&#45;0.988</text>
</g>
<!-- output
bias &#45;0.902
h_scaling 0.000
output 0.001 -->
<g id="node3" class="node">
<title>output
bias &#45;0.902
h_scaling 0.000
output 0.001</title>
<ellipse fill="lightblue" stroke="black" cx="82" cy="-63.64" rx="63.78" ry="63.78"/>
<text text-anchor="middle" x="82" y="-76.44" font-family="Times,serif" font-size="9.00">output</text>
<text text-anchor="middle" x="82" y="-66.44" font-family="Times,serif" font-size="9.00">bias &#45;0.902</text>
<text text-anchor="middle" x="82" y="-56.44" font-family="Times,serif" font-size="9.00">h_scaling 0.000</text>
<text text-anchor="middle" x="82" y="-46.44" font-family="Times,serif" font-size="9.00">output 0.001</text>
</g>
<!-- output
bias &#45;0.902
h_scaling 0.000
output 0.001&#45;&gt;key 302317
bias &#45;0.420
h_scaling 0.002
output 0.001 -->
<g id="edge12" class="edge">
<title>output
bias &#45;0.902
h_scaling 0.000
output 0.001&#45;&gt;key 302317
bias &#45;0.420
h_scaling 0.002
output 0.001</title>
<path fill="none" stroke="red" stroke-width="3.03" d="M43.64,-114.53C22.3,-147.22 0,-191.91 0,-235.92 0,-584.48 0,-584.48 0,-584.48 0,-626.62 21.88,-668.39 44.3,-700.13"/>
<polygon fill="red" stroke="red" stroke-width="3.03" points="41.6,-702.37 50.31,-708.4 47.26,-698.25 41.6,-702.37"/>
<text text-anchor="middle" x="14" y="-408" font-family="Times,serif" font-size="9.00">0.976</text>
</g>
<!-- key 2949
bias 0.173
h_scaling 0.982
output 0.301&#45;&gt;output
bias &#45;0.902
h_scaling 0.000
output 0.001 -->
<g id="edge11" class="edge">
<title>key 2949
bias 0.173
h_scaling 0.982
output 0.301&#45;&gt;output
bias &#45;0.902
h_scaling 0.000
output 0.001</title>
<path fill="none" stroke="red" stroke-width="2.16" d="M80.62,-520.63C78.29,-505.38 76.18,-489.06 75,-473.84 65.86,-356.31 71.51,-219.26 76.61,-137.35"/>
<polygon fill="red" stroke="red" stroke-width="2.16" points="80.12,-137.35 77.26,-127.14 73.13,-136.9 80.12,-137.35"/>
<text text-anchor="middle" x="85" y="-321.36" font-family="Times,serif" font-size="9.00">0.687</text>
</g>
<!-- key 2949
bias 0.173
h_scaling 0.982
output 0.301&#45;&gt;key 4733
bias &#45;0.539
h_scaling 0.036
output 0.451 -->
<g id="edge2" class="edge">
<title>key 2949
bias 0.173
h_scaling 0.982
output 0.301&#45;&gt;key 4733
bias &#45;0.539
h_scaling 0.036
output 0.451</title>
<path fill="none" stroke="red" stroke-width="3.1" d="M112,-523.06C114.37,-515.91 116.75,-508.71 119,-501.84 121.23,-495.04 123.53,-487.94 125.82,-480.85"/>
<polygon fill="red" stroke="red" stroke-width="3.1" points="129.19,-481.8 128.93,-471.2 122.53,-479.65 129.19,-481.8"/>
<text text-anchor="middle" x="137" y="-494.64" font-family="Times,serif" font-size="9.00">1.007</text>
</g>
<!-- key 417993
bias &#45;0.323
h_scaling 0.472
output 0.182 -->
<g id="node5" class="node">
<title>key 417993
bias &#45;0.323
h_scaling 0.472
output 0.182</title>
<ellipse fill="white" stroke="black" cx="432" cy="-583.48" rx="63.78" ry="63.78"/>
<text text-anchor="middle" x="432" y="-596.28" font-family="Times,serif" font-size="9.00">key 417993</text>
<text text-anchor="middle" x="432" y="-586.28" font-family="Times,serif" font-size="9.00">bias &#45;0.323</text>
<text text-anchor="middle" x="432" y="-576.28" font-family="Times,serif" font-size="9.00">h_scaling 0.472</text>
<text text-anchor="middle" x="432" y="-566.28" font-family="Times,serif" font-size="9.00">output 0.182</text>
</g>
<!-- key 420779
bias 0.949
h_scaling 0.014
output 0.000 -->
<g id="node6" class="node">
<title>key 420779
bias 0.949
h_scaling 0.014
output 0.000</title>
<ellipse fill="white" stroke="black" cx="432" cy="-930.04" rx="63.78" ry="63.78"/>
<text text-anchor="middle" x="432" y="-942.84" font-family="Times,serif" font-size="9.00">key 420779</text>
<text text-anchor="middle" x="432" y="-932.84" font-family="Times,serif" font-size="9.00">bias 0.949</text>
<text text-anchor="middle" x="432" y="-922.84" font-family="Times,serif" font-size="9.00">h_scaling 0.014</text>
<text text-anchor="middle" x="432" y="-912.84" font-family="Times,serif" font-size="9.00">output 0.000</text>
</g>
<!-- key 424442
bias 1.000
h_scaling 0.639
output 0.993 -->
<g id="node9" class="node">
<title>key 424442
bias 1.000
h_scaling 0.639
output 0.993</title>
<ellipse fill="white" stroke="black" cx="432" cy="-756.76" rx="63.78" ry="63.78"/>
<text text-anchor="middle" x="432" y="-769.56" font-family="Times,serif" font-size="9.00">key 424442</text>
<text text-anchor="middle" x="432" y="-759.56" font-family="Times,serif" font-size="9.00">bias 1.000</text>
<text text-anchor="middle" x="432" y="-749.56" font-family="Times,serif" font-size="9.00">h_scaling 0.639</text>
<text text-anchor="middle" x="432" y="-739.56" font-family="Times,serif" font-size="9.00">output 0.993</text>
</g>
<!-- key 420779
bias 0.949
h_scaling 0.014
output 0.000&#45;&gt;key 424442
bias 1.000
h_scaling 0.639
output 0.993 -->
<g id="edge15" class="edge">
<title>key 420779
bias 0.949
h_scaling 0.014
output 0.000&#45;&gt;key 424442
bias 1.000
h_scaling 0.639
output 0.993</title>
<path fill="none" stroke="blue" stroke-width="1.73" d="M432,-866.23C432,-854.71 432,-842.6 432,-830.81"/>
<polygon fill="blue" stroke="blue" stroke-width="1.73" points="435.5,-830.55 432,-820.55 428.5,-830.55 435.5,-830.55"/>
<text text-anchor="middle" x="447.5" y="-841.2" font-family="Times,serif" font-size="9.00">&#45;0.545</text>
</g>
<!-- key 302317
bias &#45;0.420
h_scaling 0.002
output 0.001&#45;&gt;key 2949
bias 0.173
h_scaling 0.982
output 0.301 -->
<g id="edge13" class="edge">
<title>key 302317
bias &#45;0.420
h_scaling 0.002
output 0.001&#45;&gt;key 2949
bias 0.173
h_scaling 0.982
output 0.301</title>
<path fill="none" stroke="blue" stroke-width="1.92" d="M92,-692.95C92,-681.43 92,-669.32 92,-657.53"/>
<polygon fill="blue" stroke="blue" stroke-width="1.92" points="95.5,-657.28 92,-647.28 88.5,-657.28 95.5,-657.28"/>
<text text-anchor="middle" x="107.5" y="-667.92" font-family="Times,serif" font-size="9.00">&#45;0.606</text>
</g>
<!-- key 4497
bias 0.227
h_scaling 0.062
output 0.623&#45;&gt;output
bias &#45;0.902
h_scaling 0.000
output 0.001 -->
<g id="edge8" class="edge">
<title>key 4497
bias 0.227
h_scaling 0.062
output 0.623&#45;&gt;output
bias &#45;0.902
h_scaling 0.000
output 0.001</title>
<path fill="none" stroke="blue" stroke-width="3" d="M191.34,-188.66C172.52,-167.32 150.16,-141.96 130.59,-119.75"/>
<polygon fill="blue" stroke="blue" stroke-width="3" points="133.03,-117.23 123.79,-112.04 127.77,-121.85 133.03,-117.23"/>
<text text-anchor="middle" x="173.5" y="-148.08" font-family="Times,serif" font-size="9.00">&#45;0.966</text>
</g>
<!-- key 4497
bias 0.227
h_scaling 0.062
output 0.623&#45;&gt;key 2949
bias 0.173
h_scaling 0.982
output 0.301 -->
<g id="edge1" class="edge">
<title>key 4497
bias 0.227
h_scaling 0.062
output 0.623&#45;&gt;key 2949
bias 0.173
h_scaling 0.982
output 0.301</title>
<path fill="none" stroke="blue" stroke-width="1.77" d="M242.86,-299.93C247.79,-349.59 247.9,-419.66 221,-473.84 206.55,-502.94 180.4,-527.22 155.39,-545.4"/>
<polygon fill="blue" stroke="blue" stroke-width="1.77" points="153.14,-542.7 146.98,-551.32 157.17,-548.43 153.14,-542.7"/>
<text text-anchor="middle" x="261.5" y="-408" font-family="Times,serif" font-size="9.00">&#45;0.557</text>
</g>
<!-- key 424442
bias 1.000
h_scaling 0.639
output 0.993&#45;&gt;key 417993
bias &#45;0.323
h_scaling 0.472
output 0.182 -->
<g id="edge16" class="edge">
<title>key 424442
bias 1.000
h_scaling 0.639
output 0.993&#45;&gt;key 417993
bias &#45;0.323
h_scaling 0.472
output 0.182</title>
<path fill="none" stroke="red" stroke-width="0.17" d="M432,-692.95C432,-681.43 432,-669.32 432,-657.53"/>
<polygon fill="red" stroke="red" stroke-width="0.17" points="435.5,-657.28 432,-647.28 428.5,-657.28 435.5,-657.28"/>
<text text-anchor="middle" x="446" y="-667.92" font-family="Times,serif" font-size="9.00">0.394</text>
</g>
<!-- key 4733
bias &#45;0.539
h_scaling 0.036
output 0.451&#45;&gt;output
bias &#45;0.902
h_scaling 0.000
output 0.001 -->
<g id="edge3" class="edge">
<title>key 4733
bias &#45;0.539
h_scaling 0.036
output 0.451&#45;&gt;output
bias &#45;0.902
h_scaling 0.000
output 0.001</title>
<path fill="none" stroke="red" stroke-width="3.1" d="M136.2,-347.6C124.86,-288.37 107.71,-198.88 95.76,-136.45"/>
<polygon fill="red" stroke="red" stroke-width="3.1" points="99.13,-135.45 93.81,-126.29 92.25,-136.77 99.13,-135.45"/>
<text text-anchor="middle" x="141" y="-234.72" font-family="Times,serif" font-size="9.00">1.000</text>
</g>
<!-- key 4733
bias &#45;0.539
h_scaling 0.036
output 0.451&#45;&gt;key 2949
bias 0.173
h_scaling 0.982
output 0.301 -->
<g id="edge9" class="edge">
<title>key 4733
bias &#45;0.539
h_scaling 0.036
output 0.451&#45;&gt;key 2949
bias 0.173
h_scaling 0.982
output 0.301</title>
<path fill="none" stroke="red" stroke-width="2.27" d="M104.99,-457.72C97.61,-468.23 91.02,-479.86 87,-491.84 85.07,-497.58 83.84,-503.64 83.13,-509.8"/>
<polygon fill="red" stroke="red" stroke-width="2.27" points="79.61,-509.99 82.4,-520.21 86.59,-510.47 79.61,-509.99"/>
<text text-anchor="middle" x="101" y="-494.64" font-family="Times,serif" font-size="9.00">0.837</text>
</g>
<!-- key 4733
bias &#45;0.539
h_scaling 0.036
output 0.451&#45;&gt;key 4497
bias 0.227
h_scaling 0.062
output 0.623 -->
<g id="edge7" class="edge">
<title>key 4733
bias &#45;0.539
h_scaling 0.036
output 0.451&#45;&gt;key 4497
bias 0.227
h_scaling 0.062
output 0.623</title>
<path fill="none" stroke="blue" stroke-width="2.62" d="M176.07,-352.64C183.87,-336.92 192.41,-319.72 200.44,-303.52"/>
<polygon fill="blue" stroke="blue" stroke-width="2.62" points="203.8,-304.64 205.11,-294.13 197.53,-301.53 203.8,-304.64"/>
<text text-anchor="middle" x="206.5" y="-321.36" font-family="Times,serif" font-size="9.00">&#45;0.841</text>
</g>
</g>
</svg>
