<?xml version="1.0" encoding="UTF-8" standalone="no"?>
<!DOCTYPE svg PUBLIC "-//W3C//DTD SVG 1.1//EN"
 "http://www.w3.org/Graphics/SVG/1.1/DTD/svg11.dtd">
<!-- Generated by graphviz version 2.43.0 (0)
 -->
<!-- Title: %3 Pages: 1 -->
<svg width="424pt" height="902pt"
 viewBox="0.00 0.00 424.00 902.40" xmlns="http://www.w3.org/2000/svg" xmlns:xlink="http://www.w3.org/1999/xlink">
<g id="graph0" class="graph" transform="scale(1 1) rotate(0) translate(4 898.4)">
<title>%3</title>
<polygon fill="white" stroke="transparent" points="-4,4 -4,-898.4 420,-898.4 420,4 -4,4"/>
<!-- ready
output 0.000 -->
<g id="node1" class="node">
<title>ready
output 0.000</title>
<polygon fill="yellow" stroke="black" points="109.5,-770.76 32.5,-770.76 32.5,-742.76 109.5,-742.76 109.5,-770.76"/>
<text text-anchor="middle" x="71" y="-759.56" font-family="Times,serif" font-size="9.00">ready</text>
<text text-anchor="middle" x="71" y="-749.56" font-family="Times,serif" font-size="9.00">output 0.000</text>
</g>
<!-- key 22770
bias &#45;0.986
h_scaling 0.801
output 0.489 -->
<g id="node4" class="node">
<title>key 22770
bias &#45;0.986
h_scaling 0.801
output 0.489</title>
<ellipse fill="white" stroke="black" cx="306" cy="-583.48" rx="63.78" ry="63.78"/>
<text text-anchor="middle" x="306" y="-596.28" font-family="Times,serif" font-size="9.00">key 22770</text>
<text text-anchor="middle" x="306" y="-586.28" font-family="Times,serif" font-size="9.00">bias &#45;0.986</text>
<text text-anchor="middle" x="306" y="-576.28" font-family="Times,serif" font-size="9.00">h_scaling 0.801</text>
<text text-anchor="middle" x="306" y="-566.28" font-family="Times,serif" font-size="9.00">output 0.489</text>
</g>
<!-- ready
output 0.000&#45;&gt;key 22770
bias &#45;0.986
h_scaling 0.801
output 0.489 -->
<g id="edge14" class="edge">
<title>ready
output 0.000&#45;&gt;key 22770
bias &#45;0.986
h_scaling 0.801
output 0.489</title>
<path fill="none" stroke="red" stroke-width="0.1" d="M80.1,-742.69C93.78,-723.75 121.24,-688.39 151,-665.12 159.05,-658.82 201.54,-636.83 240,-617.4"/>
<polygon fill="red" stroke="red" stroke-width="0.1" points="241.8,-620.41 249.15,-612.78 238.65,-614.16 241.8,-620.41"/>
<text text-anchor="middle" x="165" y="-667.92" font-family="Times,serif" font-size="9.00">0.629</text>
</g>
<!-- key 2489
bias &#45;0.978
h_scaling 0.684
output 0.471 -->
<g id="node6" class="node">
<title>key 2489
bias &#45;0.978
h_scaling 0.684
output 0.471</title>
<ellipse fill="white" stroke="black" cx="249" cy="-63.64" rx="63.78" ry="63.78"/>
<text text-anchor="middle" x="249" y="-76.44" font-family="Times,serif" font-size="9.00">key 2489</text>
<text text-anchor="middle" x="249" y="-66.44" font-family="Times,serif" font-size="9.00">bias &#45;0.978</text>
<text text-anchor="middle" x="249" y="-56.44" font-family="Times,serif" font-size="9.00">h_scaling 0.684</text>
<text text-anchor="middle" x="249" y="-46.44" font-family="Times,serif" font-size="9.00">output 0.471</text>
</g>
<!-- ready
output 0.000&#45;&gt;key 2489
bias &#45;0.978
h_scaling 0.684
output 0.471 -->
<g id="edge2" class="edge">
<title>ready
output 0.000&#45;&gt;key 2489
bias &#45;0.978
h_scaling 0.684
output 0.471</title>
<path fill="none" stroke="red" stroke-width="0.1" d="M67.73,-742.53C60.96,-713.9 46,-643.98 46,-584.48 46,-584.48 46,-584.48 46,-235.92 46,-164.14 121.06,-116.32 179.9,-89.86"/>
<polygon fill="red" stroke="red" stroke-width="0.1" points="181.43,-93.02 189.19,-85.8 178.63,-86.6 181.43,-93.02"/>
<text text-anchor="middle" x="60" y="-408" font-family="Times,serif" font-size="9.00">0.554</text>
</g>
<!-- key 14717
bias &#45;0.460
h_scaling 0.690
output 0.839 -->
<g id="node7" class="node">
<title>key 14717
bias &#45;0.460
h_scaling 0.690
output 0.839</title>
<ellipse fill="white" stroke="black" cx="140" cy="-236.92" rx="63.78" ry="63.78"/>
<text text-anchor="middle" x="140" y="-249.72" font-family="Times,serif" font-size="9.00">key 14717</text>
<text text-anchor="middle" x="140" y="-239.72" font-family="Times,serif" font-size="9.00">bias &#45;0.460</text>
<text text-anchor="middle" x="140" y="-229.72" font-family="Times,serif" font-size="9.00">h_scaling 0.690</text>
<text text-anchor="middle" x="140" y="-219.72" font-family="Times,serif" font-size="9.00">output 0.839</text>
</g>
<!-- ready
output 0.000&#45;&gt;key 14717
bias &#45;0.460
h_scaling 0.690
output 0.839 -->
<g id="edge3" class="edge">
<title>ready
output 0.000&#45;&gt;key 14717
bias &#45;0.460
h_scaling 0.690
output 0.839</title>
<path fill="none" stroke="red" stroke-width="0.1" d="M72.36,-742.56C76.36,-703.95 88.62,-587.88 101,-491.84 110.95,-414.67 113.79,-395.4 126,-318.56 126.45,-315.73 126.91,-312.85 127.39,-309.94"/>
<polygon fill="red" stroke="red" stroke-width="0.1" points="130.86,-310.4 129.04,-299.97 123.96,-309.26 130.86,-310.4"/>
<text text-anchor="middle" x="115" y="-494.64" font-family="Times,serif" font-size="9.00">0.620</text>
</g>
<!-- go
output 0.000 -->
<g id="node2" class="node">
<title>go
output 0.000</title>
<polygon fill="green" stroke="black" points="208.5,-894.4 131.5,-894.4 131.5,-866.4 208.5,-866.4 208.5,-894.4"/>
<text text-anchor="middle" x="170" y="-883.2" font-family="Times,serif" font-size="9.00">go</text>
<text text-anchor="middle" x="170" y="-873.2" font-family="Times,serif" font-size="9.00">output 0.000</text>
</g>
<!-- go
output 0.000&#45;&gt;key 22770
bias &#45;0.986
h_scaling 0.801
output 0.489 -->
<g id="edge11" class="edge">
<title>go
output 0.000&#45;&gt;key 22770
bias &#45;0.986
h_scaling 0.801
output 0.489</title>
<path fill="none" stroke="blue" stroke-width="0.1" d="M169.69,-865.93C169.49,-834.07 172.17,-752.31 202,-693.12 213.52,-670.27 231.46,-648.99 249.21,-631.43"/>
<polygon fill="blue" stroke="blue" stroke-width="0.1" points="252.01,-633.6 256.79,-624.14 247.16,-628.55 252.01,-633.6"/>
<text text-anchor="middle" x="217.5" y="-754.56" font-family="Times,serif" font-size="9.00">&#45;0.872</text>
</g>
<!-- key 221589
bias &#45;0.599
h_scaling 0.033
output 0.048 -->
<g id="node5" class="node">
<title>key 221589
bias &#45;0.599
h_scaling 0.033
output 0.048</title>
<ellipse fill="white" stroke="black" cx="306" cy="-756.76" rx="63.78" ry="63.78"/>
<text text-anchor="middle" x="306" y="-769.56" font-family="Times,serif" font-size="9.00">key 221589</text>
<text text-anchor="middle" x="306" y="-759.56" font-family="Times,serif" font-size="9.00">bias &#45;0.599</text>
<text text-anchor="middle" x="306" y="-749.56" font-family="Times,serif" font-size="9.00">h_scaling 0.033</text>
<text text-anchor="middle" x="306" y="-739.56" font-family="Times,serif" font-size="9.00">output 0.048</text>
</g>
<!-- go
output 0.000&#45;&gt;key 221589
bias &#45;0.599
h_scaling 0.033
output 0.048 -->
<g id="edge15" class="edge">
<title>go
output 0.000&#45;&gt;key 221589
bias &#45;0.599
h_scaling 0.033
output 0.048</title>
<path fill="none" stroke="red" stroke-width="0.1" d="M185.97,-866.27C192.54,-860.81 200.19,-854.36 207,-848.4 221.78,-835.45 237.56,-821.2 252.08,-807.91"/>
<polygon fill="red" stroke="red" stroke-width="0.1" points="254.54,-810.4 259.55,-801.06 249.81,-805.24 254.54,-810.4"/>
<text text-anchor="middle" x="232" y="-841.2" font-family="Times,serif" font-size="9.00">1.022</text>
</g>
<!-- go
output 0.000&#45;&gt;key 2489
bias &#45;0.978
h_scaling 0.684
output 0.471 -->
<g id="edge9" class="edge">
<title>go
output 0.000&#45;&gt;key 2489
bias &#45;0.978
h_scaling 0.684
output 0.471</title>
<path fill="none" stroke="blue" stroke-width="0.1" d="M131.34,-872.95C98.48,-865.57 52.11,-850.39 23,-820.4 2.34,-799.12 0,-787.41 0,-757.76 0,-757.76 0,-757.76 0,-235.92 0,-149.3 103.55,-103.17 177.1,-81.33"/>
<polygon fill="blue" stroke="blue" stroke-width="0.1" points="178.17,-84.66 186.81,-78.53 176.23,-77.93 178.17,-84.66"/>
<text text-anchor="middle" x="15.5" y="-494.64" font-family="Times,serif" font-size="9.00">&#45;0.814</text>
</g>
<!-- go
output 0.000&#45;&gt;key 14717
bias &#45;0.460
h_scaling 0.690
output 0.839 -->
<g id="edge5" class="edge">
<title>go
output 0.000&#45;&gt;key 14717
bias &#45;0.460
h_scaling 0.690
output 0.839</title>
<path fill="none" stroke="blue" stroke-width="0.1" d="M168.04,-866.15C167.29,-860.67 166.5,-854.24 166,-848.4 149.41,-654.74 143.25,-425.58 141.09,-310.93"/>
<polygon fill="blue" stroke="blue" stroke-width="0.1" points="144.59,-310.8 140.9,-300.87 137.59,-310.93 144.59,-310.8"/>
<text text-anchor="middle" x="168.5" y="-581.28" font-family="Times,serif" font-size="9.00">&#45;0.449</text>
</g>
<!-- output
bias &#45;1.000
h_scaling 0.658
output 0.125 -->
<g id="node3" class="node">
<title>output
bias &#45;1.000
h_scaling 0.658
output 0.125</title>
<ellipse fill="lightblue" stroke="black" cx="232" cy="-410.2" rx="63.78" ry="63.78"/>
<text text-anchor="middle" x="232" y="-423" font-family="Times,serif" font-size="9.00">output</text>
<text text-anchor="middle" x="232" y="-413" font-family="Times,serif" font-size="9.00">bias &#45;1.000</text>
<text text-anchor="middle" x="232" y="-403" font-family="Times,serif" font-size="9.00">h_scaling 0.658</text>
<text text-anchor="middle" x="232" y="-393" font-family="Times,serif" font-size="9.00">output 0.125</text>
</g>
<!-- output
bias &#45;1.000
h_scaling 0.658
output 0.125&#45;&gt;key 14717
bias &#45;0.460
h_scaling 0.690
output 0.839 -->
<g id="edge10" class="edge">
<title>output
bias &#45;1.000
h_scaling 0.658
output 0.125&#45;&gt;key 14717
bias &#45;0.460
h_scaling 0.690
output 0.839</title>
<path fill="none" stroke="blue" stroke-width="0.1" d="M202.13,-353.59C193.36,-337.27 183.7,-319.29 174.67,-302.46"/>
<polygon fill="blue" stroke="blue" stroke-width="0.1" points="177.54,-300.4 169.72,-293.25 171.37,-303.72 177.54,-300.4"/>
<text text-anchor="middle" x="201.5" y="-321.36" font-family="Times,serif" font-size="9.00">&#45;0.125</text>
</g>
<!-- key 22770
bias &#45;0.986
h_scaling 0.801
output 0.489&#45;&gt;output
bias &#45;1.000
h_scaling 0.658
output 0.125 -->
<g id="edge7" class="edge">
<title>key 22770
bias &#45;0.986
h_scaling 0.801
output 0.489&#45;&gt;output
bias &#45;1.000
h_scaling 0.658
output 0.125</title>
<path fill="none" stroke="red" stroke-width="0.1" d="M280.95,-524.49C274.52,-509.62 267.56,-493.51 260.96,-478.22"/>
<polygon fill="red" stroke="red" stroke-width="0.1" points="264.08,-476.63 256.9,-468.83 257.65,-479.4 264.08,-476.63"/>
<text text-anchor="middle" x="283" y="-494.64" font-family="Times,serif" font-size="9.00">1.104</text>
</g>
<!-- key 22770
bias &#45;0.986
h_scaling 0.801
output 0.489&#45;&gt;key 2489
bias &#45;0.978
h_scaling 0.684
output 0.471 -->
<g id="edge13" class="edge">
<title>key 22770
bias &#45;0.986
h_scaling 0.801
output 0.489&#45;&gt;key 2489
bias &#45;0.978
h_scaling 0.684
output 0.471</title>
<path fill="none" stroke="red" stroke-width="0.1" d="M345.6,-533.54C352.9,-523.38 360.07,-512.52 366,-501.84 405.81,-430.16 400.03,-399.51 387,-318.56 376.2,-251.42 371.93,-232.78 339,-173.28 328.3,-153.94 313.96,-134.74 299.88,-117.98"/>
<polygon fill="red" stroke="red" stroke-width="0.1" points="302.17,-115.27 293,-109.96 296.85,-119.83 302.17,-115.27"/>
<text text-anchor="middle" x="402" y="-321.36" font-family="Times,serif" font-size="9.00">1.002</text>
</g>
<!-- key 221589
bias &#45;0.599
h_scaling 0.033
output 0.048&#45;&gt;key 22770
bias &#45;0.986
h_scaling 0.801
output 0.489 -->
<g id="edge16" class="edge">
<title>key 221589
bias &#45;0.599
h_scaling 0.033
output 0.048&#45;&gt;key 22770
bias &#45;0.986
h_scaling 0.801
output 0.489</title>
<path fill="none" stroke="blue" stroke-width="0.1" d="M306,-692.95C306,-681.43 306,-669.32 306,-657.53"/>
<polygon fill="blue" stroke="blue" stroke-width="0.1" points="309.5,-657.28 306,-647.28 302.5,-657.28 309.5,-657.28"/>
<text text-anchor="middle" x="321.5" y="-667.92" font-family="Times,serif" font-size="9.00">&#45;0.146</text>
</g>
<!-- key 2489
bias &#45;0.978
h_scaling 0.684
output 0.471&#45;&gt;output
bias &#45;1.000
h_scaling 0.658
output 0.125 -->
<g id="edge1" class="edge">
<title>key 2489
bias &#45;0.978
h_scaling 0.684
output 0.471&#45;&gt;output
bias &#45;1.000
h_scaling 0.658
output 0.125</title>
<path fill="none" stroke="red" stroke-width="0.1" d="M257.19,-126.95C262.11,-174.64 266.17,-241.96 259,-300.56 257.46,-313.12 254.96,-326.31 252.09,-339.01"/>
<polygon fill="red" stroke="red" stroke-width="0.1" points="248.6,-338.53 249.71,-349.07 255.42,-340.14 248.6,-338.53"/>
<text text-anchor="middle" x="277" y="-234.72" font-family="Times,serif" font-size="9.00">0.981</text>
</g>
<!-- key 2489
bias &#45;0.978
h_scaling 0.684
output 0.471&#45;&gt;key 22770
bias &#45;0.986
h_scaling 0.801
output 0.489 -->
<g id="edge12" class="edge">
<title>key 2489
bias &#45;0.978
h_scaling 0.684
output 0.471&#45;&gt;key 22770
bias &#45;0.986
h_scaling 0.801
output 0.489</title>
<path fill="none" stroke="red" stroke-width="0.1" d="M278.21,-120.24C305.55,-175.77 344.32,-264.46 359,-346.56 368.95,-402.24 371.73,-418.72 359,-473.84 355.48,-489.1 349.5,-504.7 342.8,-519.14"/>
<polygon fill="red" stroke="red" stroke-width="0.1" points="339.5,-517.92 338.32,-528.45 345.81,-520.96 339.5,-517.92"/>
<text text-anchor="middle" x="369" y="-321.36" font-family="Times,serif" font-size="9.00">0.597</text>
</g>
<!-- key 14717
bias &#45;0.460
h_scaling 0.690
output 0.839&#45;&gt;key 22770
bias &#45;0.986
h_scaling 0.801
output 0.489 -->
<g id="edge6" class="edge">
<title>key 14717
bias &#45;0.460
h_scaling 0.690
output 0.839&#45;&gt;key 22770
bias &#45;0.986
h_scaling 0.801
output 0.489</title>
<path fill="none" stroke="red" stroke-width="0.1" d="M196,-267.22C238.93,-290.97 292.83,-324.09 305,-346.56 332.19,-396.76 330.07,-462.24 322.49,-511.48"/>
<polygon fill="red" stroke="red" stroke-width="0.1" points="319.03,-510.97 320.85,-521.41 325.93,-512.11 319.03,-510.97"/>
<text text-anchor="middle" x="341" y="-408" font-family="Times,serif" font-size="9.00">1.150</text>
</g>
<!-- key 14717
bias &#45;0.460
h_scaling 0.690
output 0.839&#45;&gt;key 2489
bias &#45;0.978
h_scaling 0.684
output 0.471 -->
<g id="edge4" class="edge">
<title>key 14717
bias &#45;0.460
h_scaling 0.690
output 0.839&#45;&gt;key 2489
bias &#45;0.978
h_scaling 0.684
output 0.471</title>
<path fill="none" stroke="red" stroke-width="0.1" d="M173.89,-182.66C185.17,-164.94 197.83,-145.05 209.49,-126.72"/>
<polygon fill="red" stroke="red" stroke-width="0.1" points="212.71,-128.18 215.13,-117.86 206.81,-124.42 212.71,-128.18"/>
<text text-anchor="middle" x="209" y="-148.08" font-family="Times,serif" font-size="9.00">0.849</text>
</g>
<!-- key 14717
bias &#45;0.460
h_scaling 0.690
output 0.839&#45;&gt;key 14717
bias &#45;0.460
h_scaling 0.690
output 0.839 -->
<g id="edge8" class="edge">
<title>key 14717
bias &#45;0.460
h_scaling 0.690
output 0.839&#45;&gt;key 14717
bias &#45;0.460
h_scaling 0.690
output 0.839</title>
<path fill="none" stroke="red" stroke-width="0.1" d="M201.94,-252.22C213.5,-250.33 221.64,-245.23 221.64,-236.92 221.64,-231.2 217.79,-227.01 211.63,-224.33"/>
<polygon fill="red" stroke="red" stroke-width="0.1" points="212.52,-220.94 201.94,-221.62 210.63,-227.68 212.52,-220.94"/>
<text text-anchor="middle" x="235.64" y="-234.72" font-family="Times,serif" font-size="9.00">1.016</text>
</g>
</g>
</svg>
