<?xml version="1.0" encoding="UTF-8" standalone="no"?>
<!DOCTYPE svg PUBLIC "-//W3C//DTD SVG 1.1//EN"
 "http://www.w3.org/Graphics/SVG/1.1/DTD/svg11.dtd">
<!-- Generated by graphviz version 8.0.5 (20230430.1635)
 -->
<!-- Pages: 1 -->
<svg width="439pt" height="769pt"
 viewBox="0.00 0.00 439.38 769.08" xmlns="http://www.w3.org/2000/svg" xmlns:xlink="http://www.w3.org/1999/xlink">
<g id="graph0" class="graph" transform="scale(1 1) rotate(0) translate(4 765.08)">
<polygon fill="white" stroke="none" points="-4,4 -4,-765.08 435.38,-765.08 435.38,4 -4,4"/>
<!-- ready -->
<g id="node1" class="node">
<title>ready</title>
<polygon fill="yellow" stroke="black" points="36.25,-761.08 0,-761.08 0,-741.83 36.25,-741.83 36.25,-761.08"/>
<text text-anchor="middle" x="18.12" y="-748.53" font-family="Times New Roman,serif" font-size="9.00">ready</text>
</g>
<!-- key 28276
bias &#45;0.600
h_scaling 0.246 -->
<g id="node5" class="node">
<title>key 28276
bias &#45;0.600
h_scaling 0.246</title>
<ellipse fill="white" stroke="black" cx="289.12" cy="-644.02" rx="50.56" ry="50.56"/>
<text text-anchor="middle" x="289.12" y="-652.35" font-family="Times New Roman,serif" font-size="9.00">key 28276</text>
<text text-anchor="middle" x="289.12" y="-641.1" font-family="Times New Roman,serif" font-size="9.00">bias &#45;0.600</text>
<text text-anchor="middle" x="289.12" y="-629.85" font-family="Times New Roman,serif" font-size="9.00">h_scaling 0.246</text>
</g>
<!-- ready&#45;&gt;key 28276
bias &#45;0.600
h_scaling 0.246 -->
<g id="edge5" class="edge">
<title>ready&#45;&gt;key 28276
bias &#45;0.600
h_scaling 0.246</title>
<path fill="none" stroke="red" stroke-width="2.44" d="M36.33,-743.37C75.32,-728.2 168.39,-692 230.06,-668"/>
<polygon fill="red" stroke="red" stroke-width="2.44" points="230.9,-671.26 238.95,-664.38 228.36,-664.74 230.9,-671.26"/>
<text text-anchor="middle" x="124.25" y="-715.28" font-family="Times New Roman,serif" font-size="9.00">0.779</text>
</g>
<!-- key 6357
bias &#45;0.153
h_scaling 0.373 -->
<g id="node6" class="node">
<title>key 6357
bias &#45;0.153
h_scaling 0.373</title>
<ellipse fill="white" stroke="black" cx="115.12" cy="-347.29" rx="50.56" ry="50.56"/>
<text text-anchor="middle" x="115.12" y="-355.62" font-family="Times New Roman,serif" font-size="9.00">key 6357</text>
<text text-anchor="middle" x="115.12" y="-344.37" font-family="Times New Roman,serif" font-size="9.00">bias &#45;0.153</text>
<text text-anchor="middle" x="115.12" y="-333.12" font-family="Times New Roman,serif" font-size="9.00">h_scaling 0.373</text>
</g>
<!-- ready&#45;&gt;key 6357
bias &#45;0.153
h_scaling 0.373 -->
<g id="edge15" class="edge">
<title>ready&#45;&gt;key 6357
bias &#45;0.153
h_scaling 0.373</title>
<path fill="none" stroke="red" stroke-width="1.75" d="M17.81,-741.51C16.72,-704.34 14.8,-558.78 46.12,-445.1 51.26,-426.48 61.86,-408.54 73.24,-393.26"/>
<polygon fill="red" stroke="red" stroke-width="1.75" points="75.99,-396.15 79.39,-386.12 70.47,-391.84 75.99,-396.15"/>
<text text-anchor="middle" x="35.25" y="-566.92" font-family="Times New Roman,serif" font-size="9.00">0.551</text>
</g>
<!-- go -->
<g id="node2" class="node">
<title>go</title>
<polygon fill="green" stroke="black" points="106.25,-653.65 82,-653.65 82,-634.4 106.25,-634.4 106.25,-653.65"/>
<text text-anchor="middle" x="94.12" y="-641.1" font-family="Times New Roman,serif" font-size="9.00">go</text>
</g>
<!-- go&#45;&gt;key 6357
bias &#45;0.153
h_scaling 0.373 -->
<g id="edge2" class="edge">
<title>go&#45;&gt;key 6357
bias &#45;0.153
h_scaling 0.373</title>
<path fill="none" stroke="blue" stroke-width="2.43" d="M89.36,-634.01C80.8,-617.28 63.16,-580.03 56.88,-546.22 48.67,-502.03 44.85,-488.4 56.88,-445.1 61.35,-428.98 69.31,-412.86 77.93,-398.53"/>
<polygon fill="blue" stroke="blue" stroke-width="2.43" points="81.23,-401.27 83.6,-390.95 75.31,-397.54 81.23,-401.27"/>
<text text-anchor="middle" x="68.75" y="-492.73" font-family="Times New Roman,serif" font-size="9.00">&#45;0.775</text>
</g>
<!-- key 27319
bias &#45;0.274
h_scaling 0.000 -->
<g id="node7" class="node">
<title>key 27319
bias &#45;0.274
h_scaling 0.000</title>
<ellipse fill="white" stroke="black" cx="140.12" cy="-495.66" rx="50.56" ry="50.56"/>
<text text-anchor="middle" x="140.12" y="-503.98" font-family="Times New Roman,serif" font-size="9.00">key 27319</text>
<text text-anchor="middle" x="140.12" y="-492.73" font-family="Times New Roman,serif" font-size="9.00">bias &#45;0.274</text>
<text text-anchor="middle" x="140.12" y="-481.48" font-family="Times New Roman,serif" font-size="9.00">h_scaling 0.000</text>
</g>
<!-- go&#45;&gt;key 27319
bias &#45;0.274
h_scaling 0.000 -->
<g id="edge3" class="edge">
<title>go&#45;&gt;key 27319
bias &#45;0.274
h_scaling 0.000</title>
<path fill="none" stroke="red" stroke-width="3.1" d="M96.86,-634.31C101.61,-619.2 111.75,-586.95 121.01,-557.46"/>
<polygon fill="red" stroke="red" stroke-width="3.1" points="124.53,-558.77 124.19,-548.18 117.85,-556.67 124.53,-558.77"/>
<text text-anchor="middle" x="129.25" y="-566.92" font-family="Times New Roman,serif" font-size="9.00">1.000</text>
</g>
<!-- output
bias &#45;0.483
h_scaling 0.077 -->
<g id="node3" class="node">
<title>output
bias &#45;0.483
h_scaling 0.077</title>
<ellipse fill="lightblue" stroke="black" cx="258.12" cy="-198.92" rx="50.56" ry="50.56"/>
<text text-anchor="middle" x="258.12" y="-207.25" font-family="Times New Roman,serif" font-size="9.00">output</text>
<text text-anchor="middle" x="258.12" y="-196" font-family="Times New Roman,serif" font-size="9.00">bias &#45;0.483</text>
<text text-anchor="middle" x="258.12" y="-184.75" font-family="Times New Roman,serif" font-size="9.00">h_scaling 0.077</text>
</g>
<!-- key 65476
bias &#45;0.315
h_scaling 0.692 -->
<g id="node4" class="node">
<title>key 65476
bias &#45;0.315
h_scaling 0.692</title>
<ellipse fill="white" stroke="black" cx="355.12" cy="-50.56" rx="50.56" ry="50.56"/>
<text text-anchor="middle" x="355.12" y="-58.88" font-family="Times New Roman,serif" font-size="9.00">key 65476</text>
<text text-anchor="middle" x="355.12" y="-47.63" font-family="Times New Roman,serif" font-size="9.00">bias &#45;0.315</text>
<text text-anchor="middle" x="355.12" y="-36.38" font-family="Times New Roman,serif" font-size="9.00">h_scaling 0.692</text>
</g>
<!-- output
bias &#45;0.483
h_scaling 0.077&#45;&gt;key 65476
bias &#45;0.315
h_scaling 0.692 -->
<g id="edge12" class="edge">
<title>output
bias &#45;0.483
h_scaling 0.077&#45;&gt;key 65476
bias &#45;0.315
h_scaling 0.692</title>
<path fill="none" stroke="blue" stroke-width="0.57" d="M285.66,-156.37C297.03,-139.22 310.3,-119.2 322.17,-101.28"/>
<polygon fill="blue" stroke="blue" stroke-width="0.57" points="324.91,-103.48 327.52,-93.21 319.08,-99.62 324.91,-103.48"/>
<text text-anchor="middle" x="321.75" y="-121.82" font-family="Times New Roman,serif" font-size="9.00">&#45;0.157</text>
</g>
<!-- key 65476
bias &#45;0.315
h_scaling 0.692&#45;&gt;key 28276
bias &#45;0.600
h_scaling 0.246 -->
<g id="edge11" class="edge">
<title>key 65476
bias &#45;0.315
h_scaling 0.692&#45;&gt;key 28276
bias &#45;0.600
h_scaling 0.246</title>
<path fill="none" stroke="red" stroke-width="2.17" d="M380.99,-94.44C395.67,-122.79 411.12,-161.33 411.12,-197.92 411.12,-496.66 411.12,-496.66 411.12,-496.66 411.12,-542.83 374.87,-582.16 341.88,-608.38"/>
<polygon fill="red" stroke="red" stroke-width="2.17" points="339.61,-606.24 333.79,-615.09 343.86,-611.8 339.61,-606.24"/>
<text text-anchor="middle" x="421.25" y="-344.37" font-family="Times New Roman,serif" font-size="9.00">0.691</text>
</g>
<!-- key 28276
bias &#45;0.600
h_scaling 0.246&#45;&gt;output
bias &#45;0.483
h_scaling 0.077 -->
<g id="edge14" class="edge">
<title>key 28276
bias &#45;0.600
h_scaling 0.246&#45;&gt;output
bias &#45;0.483
h_scaling 0.077</title>
<path fill="none" stroke="red" stroke-width="0.72" d="M295.25,-593.35C296.85,-578.24 298.34,-561.57 299.12,-546.22 301.42,-501.33 302.84,-489.89 299.12,-445.1 293.8,-380.99 280.78,-308.41 270.82,-258.97"/>
<polygon fill="red" stroke="red" stroke-width="0.72" points="274.11,-258.57 268.69,-249.47 267.25,-259.97 274.11,-258.57"/>
<text text-anchor="middle" x="308.25" y="-418.55" font-family="Times New Roman,serif" font-size="9.00">0.206</text>
</g>
<!-- key 28276
bias &#45;0.600
h_scaling 0.246&#45;&gt;key 65476
bias &#45;0.315
h_scaling 0.692 -->
<g id="edge10" class="edge">
<title>key 28276
bias &#45;0.600
h_scaling 0.246&#45;&gt;key 65476
bias &#45;0.315
h_scaling 0.692</title>
<path fill="none" stroke="red" stroke-width="2.9" d="M318.46,-602.61C336.08,-574.36 355.12,-534.98 355.12,-496.66 355.12,-496.66 355.12,-496.66 355.12,-197.92 355.12,-170.8 355.12,-140.85 355.12,-115.15"/>
<polygon fill="red" stroke="red" stroke-width="2.9" points="358.63,-115.35 355.12,-105.35 351.63,-115.35 358.63,-115.35"/>
<text text-anchor="middle" x="365.25" y="-344.37" font-family="Times New Roman,serif" font-size="9.00">0.934</text>
</g>
<!-- key 28276
bias &#45;0.600
h_scaling 0.246&#45;&gt;key 6357
bias &#45;0.153
h_scaling 0.373 -->
<g id="edge6" class="edge">
<title>key 28276
bias &#45;0.600
h_scaling 0.246&#45;&gt;key 6357
bias &#45;0.153
h_scaling 0.373</title>
<path fill="none" stroke="red" stroke-width="1.06" d="M285.25,-593.51C279.97,-551.17 267.5,-490.12 238.12,-445.1 220.47,-418.04 192.68,-395.23 167.98,-378.56"/>
<polygon fill="red" stroke="red" stroke-width="1.06" points="170.33,-375.26 160.05,-372.71 166.49,-381.12 170.33,-375.26"/>
<text text-anchor="middle" x="287.25" y="-492.73" font-family="Times New Roman,serif" font-size="9.00">0.321</text>
</g>
<!-- key 28276
bias &#45;0.600
h_scaling 0.246&#45;&gt;key 27319
bias &#45;0.274
h_scaling 0.000 -->
<g id="edge8" class="edge">
<title>key 28276
bias &#45;0.600
h_scaling 0.246&#45;&gt;key 27319
bias &#45;0.274
h_scaling 0.000</title>
<path fill="none" stroke="blue" stroke-width="2.27" d="M253.44,-607.96C232.95,-587.84 207.02,-562.37 185.14,-540.88"/>
<polygon fill="blue" stroke="blue" stroke-width="2.27" points="187.63,-538.45 178.04,-533.94 182.72,-543.44 187.63,-538.45"/>
<text text-anchor="middle" x="230.75" y="-566.92" font-family="Times New Roman,serif" font-size="9.00">&#45;0.724</text>
</g>
<!-- key 6357
bias &#45;0.153
h_scaling 0.373&#45;&gt;output
bias &#45;0.483
h_scaling 0.077 -->
<g id="edge1" class="edge">
<title>key 6357
bias &#45;0.153
h_scaling 0.373&#45;&gt;output
bias &#45;0.483
h_scaling 0.077</title>
<path fill="none" stroke="red" stroke-width="3.09" d="M150.11,-310.49C169.15,-290.99 192.92,-266.67 213.31,-245.8"/>
<polygon fill="red" stroke="red" stroke-width="3.09" points="215.52,-248.47 220.01,-238.87 210.52,-243.57 215.52,-248.47"/>
<text text-anchor="middle" x="201.25" y="-270.18" font-family="Times New Roman,serif" font-size="9.00">0.997</text>
</g>
<!-- key 6357
bias &#45;0.153
h_scaling 0.373&#45;&gt;key 6357
bias &#45;0.153
h_scaling 0.373 -->
<g id="edge9" class="edge">
<title>key 6357
bias &#45;0.153
h_scaling 0.373&#45;&gt;key 6357
bias &#45;0.153
h_scaling 0.373</title>
<path fill="none" stroke="red" stroke-width="2.84" d="M164.12,-360.89C175.4,-359.72 183.68,-355.19 183.68,-347.29 183.68,-343.1 181.34,-339.85 177.46,-337.55"/>
<polygon fill="red" stroke="red" stroke-width="2.84" points="178.7,-334.11 168.12,-334.69 176.75,-340.83 178.7,-334.11"/>
<text text-anchor="middle" x="193.81" y="-344.37" font-family="Times New Roman,serif" font-size="9.00">0.913</text>
</g>
<!-- key 27319
bias &#45;0.274
h_scaling 0.000&#45;&gt;output
bias &#45;0.483
h_scaling 0.077 -->
<g id="edge13" class="edge">
<title>key 27319
bias &#45;0.274
h_scaling 0.000&#45;&gt;output
bias &#45;0.483
h_scaling 0.077</title>
<path fill="none" stroke="blue" stroke-width="2.94" d="M174.01,-457.52C187.98,-440.43 203.19,-419.23 213.12,-397.85 232.98,-355.11 244.37,-303.01 250.72,-262.99"/>
<polygon fill="blue" stroke="blue" stroke-width="2.94" points="254.74,-263.79 252.76,-253.38 247.82,-262.75 254.74,-263.79"/>
<text text-anchor="middle" x="256.75" y="-344.37" font-family="Times New Roman,serif" font-size="9.00">&#45;0.948</text>
</g>
<!-- key 27319
bias &#45;0.274
h_scaling 0.000&#45;&gt;key 6357
bias &#45;0.153
h_scaling 0.373 -->
<g id="edge4" class="edge">
<title>key 27319
bias &#45;0.274
h_scaling 0.000&#45;&gt;key 6357
bias &#45;0.153
h_scaling 0.373</title>
<path fill="none" stroke="blue" stroke-width="3.03" d="M131.73,-445.51C129.86,-434.53 127.84,-422.74 125.88,-411.28"/>
<polygon fill="blue" stroke="blue" stroke-width="3.03" points="128.67,-410.82 123.54,-401.56 121.77,-412 128.67,-410.82"/>
<text text-anchor="middle" x="140.75" y="-418.55" font-family="Times New Roman,serif" font-size="9.00">&#45;0.975</text>
</g>
<!-- key 27319
bias &#45;0.274
h_scaling 0.000&#45;&gt;key 27319
bias &#45;0.274
h_scaling 0.000 -->
<g id="edge7" class="edge">
<title>key 27319
bias &#45;0.274
h_scaling 0.000&#45;&gt;key 27319
bias &#45;0.274
h_scaling 0.000</title>
<path fill="none" stroke="red" stroke-width="2.34" d="M189.12,-509.26C200.4,-508.09 208.68,-503.55 208.68,-495.66 208.68,-491.09 205.91,-487.65 201.4,-485.33"/>
<polygon fill="red" stroke="red" stroke-width="2.34" points="202.68,-481.25 192.12,-482.05 200.88,-488.02 202.68,-481.25"/>
<text text-anchor="middle" x="218.81" y="-492.73" font-family="Times New Roman,serif" font-size="9.00">0.746</text>
</g>
</g>
</svg>
