<?xml version="1.0" encoding="UTF-8" standalone="no"?>
<!DOCTYPE svg PUBLIC "-//W3C//DTD SVG 1.1//EN"
 "http://www.w3.org/Graphics/SVG/1.1/DTD/svg11.dtd">
<!-- Generated by graphviz version 2.43.0 (0)
 -->
<!-- Title: %3 Pages: 1 -->
<svg width="351pt" height="892pt"
 viewBox="0.00 0.00 350.64 892.40" xmlns="http://www.w3.org/2000/svg" xmlns:xlink="http://www.w3.org/1999/xlink">
<g id="graph0" class="graph" transform="scale(1 1) rotate(0) translate(4 888.4)">
<title>%3</title>
<polygon fill="white" stroke="transparent" points="-4,4 -4,-888.4 346.64,-888.4 346.64,4 -4,4"/>
<!-- ready -->
<g id="node1" class="node">
<title>ready</title>
<polygon fill="yellow" stroke="black" points="166.5,-884.4 123.5,-884.4 123.5,-866.4 166.5,-866.4 166.5,-884.4"/>
<text text-anchor="middle" x="145" y="-873.2" font-family="Times,serif" font-size="9.00">ready</text>
</g>
<!-- key 96967
bias &#45;0.636
h_scaling 0.013 -->
<g id="node4" class="node">
<title>key 96967
bias &#45;0.636
h_scaling 0.013</title>
<ellipse fill="white" stroke="black" cx="278" cy="-756.76" rx="63.78" ry="63.78"/>
<text text-anchor="middle" x="278" y="-764.56" font-family="Times,serif" font-size="9.00">key 96967</text>
<text text-anchor="middle" x="278" y="-754.56" font-family="Times,serif" font-size="9.00">bias &#45;0.636</text>
<text text-anchor="middle" x="278" y="-744.56" font-family="Times,serif" font-size="9.00">h_scaling 0.013</text>
</g>
<!-- ready&#45;&gt;key 96967
bias &#45;0.636
h_scaling 0.013 -->
<g id="edge13" class="edge">
<title>ready&#45;&gt;key 96967
bias &#45;0.636
h_scaling 0.013</title>
<path fill="none" stroke="red" stroke-width="4.04" d="M157.32,-866.39C164.68,-861.45 174.09,-854.85 182,-848.4 196.68,-836.41 211.9,-822.71 225.76,-809.66"/>
<polygon fill="red" stroke="red" stroke-width="4.04" points="228.5,-811.94 233.32,-802.48 223.63,-806.8 228.5,-811.94"/>
<text text-anchor="middle" x="206" y="-841.2" font-family="Times,serif" font-size="9.00">0.131</text>
</g>
<!-- key 46023
bias &#45;0.824
h_scaling 0.014 -->
<g id="node5" class="node">
<title>key 46023
bias &#45;0.824
h_scaling 0.014</title>
<ellipse fill="white" stroke="black" cx="82" cy="-63.64" rx="63.78" ry="63.78"/>
<text text-anchor="middle" x="82" y="-71.44" font-family="Times,serif" font-size="9.00">key 46023</text>
<text text-anchor="middle" x="82" y="-61.44" font-family="Times,serif" font-size="9.00">bias &#45;0.824</text>
<text text-anchor="middle" x="82" y="-51.44" font-family="Times,serif" font-size="9.00">h_scaling 0.014</text>
</g>
<!-- ready&#45;&gt;key 46023
bias &#45;0.824
h_scaling 0.014 -->
<g id="edge16" class="edge">
<title>ready&#45;&gt;key 46023
bias &#45;0.824
h_scaling 0.014</title>
<path fill="none" stroke="blue" stroke-width="0.1" d="M123.29,-868.11C82.84,-854.92 0,-820.27 0,-757.76 0,-757.76 0,-757.76 0,-235.92 0,-195.69 18.63,-154.89 38.13,-123.21"/>
<polygon fill="blue" stroke="blue" stroke-width="0.1" points="41.24,-124.85 43.64,-114.53 35.33,-121.1 41.24,-124.85"/>
</g>
<!-- key 58955
bias &#45;0.596
h_scaling 0.517 -->
<g id="node6" class="node">
<title>key 58955
bias &#45;0.596
h_scaling 0.517</title>
<ellipse fill="white" stroke="black" cx="233" cy="-583.48" rx="63.78" ry="63.78"/>
<text text-anchor="middle" x="233" y="-591.28" font-family="Times,serif" font-size="9.00">key 58955</text>
<text text-anchor="middle" x="233" y="-581.28" font-family="Times,serif" font-size="9.00">bias &#45;0.596</text>
<text text-anchor="middle" x="233" y="-571.28" font-family="Times,serif" font-size="9.00">h_scaling 0.517</text>
</g>
<!-- ready&#45;&gt;key 58955
bias &#45;0.596
h_scaling 0.517 -->
<g id="edge8" class="edge">
<title>ready&#45;&gt;key 58955
bias &#45;0.596
h_scaling 0.517</title>
<path fill="none" stroke="red" stroke-width="0.59" d="M145.56,-866.23C147.54,-840.28 155.24,-757.62 177,-693.12 182.14,-677.88 189.14,-662.15 196.46,-647.54"/>
<polygon fill="red" stroke="red" stroke-width="0.59" points="199.59,-649.11 201.04,-638.61 193.36,-645.91 199.59,-649.11"/>
<text text-anchor="middle" x="191" y="-754.56" font-family="Times,serif" font-size="9.00">0.016</text>
</g>
<!-- key 1777
bias &#45;0.482
h_scaling 0.889 -->
<g id="node7" class="node">
<title>key 1777
bias &#45;0.482
h_scaling 0.889</title>
<ellipse fill="white" stroke="black" cx="156" cy="-236.92" rx="63.78" ry="63.78"/>
<text text-anchor="middle" x="156" y="-244.72" font-family="Times,serif" font-size="9.00">key 1777</text>
<text text-anchor="middle" x="156" y="-234.72" font-family="Times,serif" font-size="9.00">bias &#45;0.482</text>
<text text-anchor="middle" x="156" y="-224.72" font-family="Times,serif" font-size="9.00">h_scaling 0.889</text>
</g>
<!-- ready&#45;&gt;key 1777
bias &#45;0.482
h_scaling 0.889 -->
<g id="edge4" class="edge">
<title>ready&#45;&gt;key 1777
bias &#45;0.482
h_scaling 0.889</title>
<path fill="none" stroke="blue" stroke-width="0.1" d="M142.27,-866.3C136.18,-847.49 122,-799.24 122,-757.76 122,-757.76 122,-757.76 122,-409.2 122,-375.55 128.39,-338.88 135.63,-308.14"/>
<polygon fill="blue" stroke="blue" stroke-width="0.1" points="139.04,-308.92 138,-298.38 132.24,-307.27 139.04,-308.92"/>
</g>
<!-- go -->
<g id="node2" class="node">
<title>go</title>
<polygon fill="green" stroke="black" points="77,-419.2 49,-419.2 49,-401.2 77,-401.2 77,-419.2"/>
<text text-anchor="middle" x="63" y="-408" font-family="Times,serif" font-size="9.00">go</text>
</g>
<!-- go&#45;&gt;key 46023
bias &#45;0.824
h_scaling 0.014 -->
<g id="edge11" class="edge">
<title>go&#45;&gt;key 46023
bias &#45;0.824
h_scaling 0.014</title>
<path fill="none" stroke="red" stroke-width="0.68" d="M61.81,-401.01C57.58,-370.68 44.15,-261.96 55,-173.28 56.54,-160.72 59.04,-147.53 61.91,-134.83"/>
<polygon fill="red" stroke="red" stroke-width="0.68" points="65.4,-135.31 64.29,-124.77 58.58,-133.7 65.4,-135.31"/>
<text text-anchor="middle" x="69" y="-234.72" font-family="Times,serif" font-size="9.00">0.019</text>
</g>
<!-- go&#45;&gt;key 1777
bias &#45;0.482
h_scaling 0.889 -->
<g id="edge3" class="edge">
<title>go&#45;&gt;key 1777
bias &#45;0.482
h_scaling 0.889</title>
<path fill="none" stroke="red" stroke-width="0.6" d="M63.02,-400.95C63.39,-384.41 65.84,-346.39 80,-318.56 85.64,-307.46 93.29,-296.83 101.57,-287.12"/>
<polygon fill="red" stroke="red" stroke-width="0.6" points="104.27,-289.35 108.31,-279.55 99.05,-284.69 104.27,-289.35"/>
<text text-anchor="middle" x="94" y="-321.36" font-family="Times,serif" font-size="9.00">0.017</text>
</g>
<!-- output
bias 0.472
h_scaling 0.728 -->
<g id="node3" class="node">
<title>output
bias 0.472
h_scaling 0.728</title>
<ellipse fill="lightblue" stroke="black" cx="252" cy="-410.2" rx="63.78" ry="63.78"/>
<text text-anchor="middle" x="252" y="-418" font-family="Times,serif" font-size="9.00">output</text>
<text text-anchor="middle" x="252" y="-408" font-family="Times,serif" font-size="9.00">bias 0.472</text>
<text text-anchor="middle" x="252" y="-398" font-family="Times,serif" font-size="9.00">h_scaling 0.728</text>
</g>
<!-- output
bias 0.472
h_scaling 0.728&#45;&gt;key 1777
bias &#45;0.482
h_scaling 0.889 -->
<g id="edge10" class="edge">
<title>output
bias 0.472
h_scaling 0.728&#45;&gt;key 1777
bias &#45;0.482
h_scaling 0.889</title>
<path fill="none" stroke="red" stroke-width="0.45" d="M215.13,-357.99C208.78,-348.39 202.48,-338.31 197,-328.56 192.87,-321.2 188.82,-313.34 184.97,-305.45"/>
<polygon fill="red" stroke="red" stroke-width="0.45" points="188.02,-303.72 180.55,-296.2 181.7,-306.73 188.02,-303.72"/>
<text text-anchor="middle" x="211" y="-321.36" font-family="Times,serif" font-size="9.00">0.012</text>
</g>
<!-- key 96967
bias &#45;0.636
h_scaling 0.013&#45;&gt;key 58955
bias &#45;0.596
h_scaling 0.517 -->
<g id="edge14" class="edge">
<title>key 96967
bias &#45;0.636
h_scaling 0.013&#45;&gt;key 58955
bias &#45;0.596
h_scaling 0.517</title>
<path fill="none" stroke="red" stroke-width="0.49" d="M262.01,-694.89C258.63,-682.02 255.03,-668.33 251.56,-655.13"/>
<polygon fill="red" stroke="red" stroke-width="0.49" points="254.87,-653.93 248.94,-645.15 248.1,-655.71 254.87,-653.93"/>
<text text-anchor="middle" x="269" y="-667.92" font-family="Times,serif" font-size="9.00">0.013</text>
</g>
<!-- key 46023
bias &#45;0.824
h_scaling 0.014&#45;&gt;output
bias 0.472
h_scaling 0.728 -->
<g id="edge6" class="edge">
<title>key 46023
bias &#45;0.824
h_scaling 0.014&#45;&gt;output
bias 0.472
h_scaling 0.728</title>
<path fill="none" stroke="blue" stroke-width="0.1" d="M143.52,-81.06C188.68,-96.69 246.86,-125.15 275,-173.28 304.6,-223.9 294.12,-291.27 279.01,-341.05"/>
<polygon fill="blue" stroke="blue" stroke-width="0.1" points="275.61,-340.17 275.93,-350.76 282.29,-342.28 275.61,-340.17"/>
</g>
<!-- key 46023
bias &#45;0.824
h_scaling 0.014&#45;&gt;key 46023
bias &#45;0.824
h_scaling 0.014 -->
<g id="edge7" class="edge">
<title>key 46023
bias &#45;0.824
h_scaling 0.014&#45;&gt;key 46023
bias &#45;0.824
h_scaling 0.014</title>
<path fill="none" stroke="red" stroke-width="1.35" d="M143.94,-78.94C155.5,-77.05 163.64,-71.95 163.64,-63.64 163.64,-57.92 159.79,-53.73 153.63,-51.05"/>
<polygon fill="red" stroke="red" stroke-width="1.35" points="154.52,-47.66 143.94,-48.34 152.63,-54.4 154.52,-47.66"/>
<text text-anchor="middle" x="177.64" y="-61.44" font-family="Times,serif" font-size="9.00">0.042</text>
</g>
<!-- key 58955
bias &#45;0.596
h_scaling 0.517&#45;&gt;output
bias 0.472
h_scaling 0.728 -->
<g id="edge12" class="edge">
<title>key 58955
bias &#45;0.596
h_scaling 0.517&#45;&gt;output
bias 0.472
h_scaling 0.728</title>
<path fill="none" stroke="red" stroke-width="0.78" d="M239.91,-520.16C241.23,-508.28 242.62,-495.75 243.97,-483.58"/>
<polygon fill="red" stroke="red" stroke-width="0.78" points="247.47,-483.8 245.09,-473.47 240.51,-483.03 247.47,-483.8"/>
<text text-anchor="middle" x="256" y="-494.64" font-family="Times,serif" font-size="9.00">0.023</text>
</g>
<!-- key 58955
bias &#45;0.596
h_scaling 0.517&#45;&gt;key 58955
bias &#45;0.596
h_scaling 0.517 -->
<g id="edge15" class="edge">
<title>key 58955
bias &#45;0.596
h_scaling 0.517&#45;&gt;key 58955
bias &#45;0.596
h_scaling 0.517</title>
<path fill="none" stroke="red" stroke-width="0.96" d="M294.94,-598.77C306.5,-596.89 314.64,-591.79 314.64,-583.48 314.64,-577.76 310.79,-573.56 304.63,-570.89"/>
<polygon fill="red" stroke="red" stroke-width="0.96" points="305.52,-567.5 294.94,-568.18 303.63,-574.24 305.52,-567.5"/>
<text text-anchor="middle" x="328.64" y="-581.28" font-family="Times,serif" font-size="9.00">0.029</text>
</g>
<!-- key 58955
bias &#45;0.596
h_scaling 0.517&#45;&gt;key 1777
bias &#45;0.482
h_scaling 0.889 -->
<g id="edge9" class="edge">
<title>key 58955
bias &#45;0.596
h_scaling 0.517&#45;&gt;key 1777
bias &#45;0.482
h_scaling 0.889</title>
<path fill="none" stroke="blue" stroke-width="0.1" d="M201.2,-528.22C192.63,-511.32 184.28,-492.26 179,-473.84 163.73,-420.58 158.16,-358.1 156.31,-310.82"/>
<polygon fill="blue" stroke="blue" stroke-width="0.1" points="159.8,-310.54 155.96,-300.67 152.81,-310.78 159.8,-310.54"/>
</g>
<!-- key 1777
bias &#45;0.482
h_scaling 0.889&#45;&gt;output
bias 0.472
h_scaling 0.728 -->
<g id="edge1" class="edge">
<title>key 1777
bias &#45;0.482
h_scaling 0.889&#45;&gt;output
bias 0.472
h_scaling 0.728</title>
<path fill="none" stroke="blue" stroke-width="0.1" d="M201.95,-280.98C212.06,-292.38 221.86,-305.24 229,-318.56 232.2,-324.52 234.96,-330.94 237.35,-337.51"/>
<polygon fill="blue" stroke="blue" stroke-width="0.1" points="234.1,-338.84 240.59,-347.22 240.74,-336.62 234.1,-338.84"/>
</g>
<!-- key 1777
bias &#45;0.482
h_scaling 0.889&#45;&gt;key 46023
bias &#45;0.824
h_scaling 0.014 -->
<g id="edge5" class="edge">
<title>key 1777
bias &#45;0.482
h_scaling 0.889&#45;&gt;key 46023
bias &#45;0.824
h_scaling 0.014</title>
<path fill="none" stroke="red" stroke-width="1.18" d="M130.95,-177.93C124.52,-163.06 117.56,-146.95 110.96,-131.67"/>
<polygon fill="red" stroke="red" stroke-width="1.18" points="114.08,-130.07 106.9,-122.28 107.65,-132.84 114.08,-130.07"/>
<text text-anchor="middle" x="133" y="-148.08" font-family="Times,serif" font-size="9.00">0.036</text>
</g>
<!-- key 1777
bias &#45;0.482
h_scaling 0.889&#45;&gt;key 1777
bias &#45;0.482
h_scaling 0.889 -->
<g id="edge2" class="edge">
<title>key 1777
bias &#45;0.482
h_scaling 0.889&#45;&gt;key 1777
bias &#45;0.482
h_scaling 0.889</title>
<path fill="none" stroke="red" stroke-width="1.02" d="M217.94,-252.22C229.5,-250.33 237.64,-245.23 237.64,-236.92 237.64,-231.2 233.79,-227.01 227.63,-224.33"/>
<polygon fill="red" stroke="red" stroke-width="1.02" points="228.52,-220.94 217.94,-221.62 226.63,-227.68 228.52,-220.94"/>
<text text-anchor="middle" x="251.64" y="-234.72" font-family="Times,serif" font-size="9.00">0.031</text>
</g>
</g>
</svg>
