<?xml version="1.0" encoding="UTF-8" standalone="no"?>
<!DOCTYPE svg PUBLIC "-//W3C//DTD SVG 1.1//EN"
 "http://www.w3.org/Graphics/SVG/1.1/DTD/svg11.dtd">
<!-- Generated by graphviz version 2.43.0 (0)
 -->
<!-- Title: %3 Pages: 1 -->
<svg width="673pt" height="1076pt"
 viewBox="0.00 0.00 672.64 1075.68" xmlns="http://www.w3.org/2000/svg" xmlns:xlink="http://www.w3.org/1999/xlink">
<g id="graph0" class="graph" transform="scale(1 1) rotate(0) translate(4 1071.68)">
<title>%3</title>
<polygon fill="white" stroke="transparent" points="-4,4 -4,-1071.68 668.64,-1071.68 668.64,4 -4,4"/>
<!-- ready
output 0.000 -->
<g id="node1" class="node">
<title>ready
output 0.000</title>
<polygon fill="yellow" stroke="black" points="134.5,-1067.68 57.5,-1067.68 57.5,-1039.68 134.5,-1039.68 134.5,-1067.68"/>
<text text-anchor="middle" x="96" y="-1056.48" font-family="Times,serif" font-size="9.00">ready</text>
<text text-anchor="middle" x="96" y="-1046.48" font-family="Times,serif" font-size="9.00">output 0.000</text>
</g>
<!-- key 64176
bias 0.000
h_scaling 0.909
output 0.725 -->
<g id="node7" class="node">
<title>key 64176
bias 0.000
h_scaling 0.909
output 0.725</title>
<ellipse fill="white" stroke="black" cx="350" cy="-756.76" rx="63.78" ry="63.78"/>
<text text-anchor="middle" x="350" y="-769.56" font-family="Times,serif" font-size="9.00">key 64176</text>
<text text-anchor="middle" x="350" y="-759.56" font-family="Times,serif" font-size="9.00">bias 0.000</text>
<text text-anchor="middle" x="350" y="-749.56" font-family="Times,serif" font-size="9.00">h_scaling 0.909</text>
<text text-anchor="middle" x="350" y="-739.56" font-family="Times,serif" font-size="9.00">output 0.725</text>
</g>
<!-- ready
output 0.000&#45;&gt;key 64176
bias 0.000
h_scaling 0.909
output 0.725 -->
<g id="edge23" class="edge">
<title>ready
output 0.000&#45;&gt;key 64176
bias 0.000
h_scaling 0.909
output 0.725</title>
<path fill="none" stroke="red" stroke-width="0.1" d="M114.71,-1039.48C130.1,-1028.19 152.05,-1011.06 169,-993.68 222.49,-938.82 274.79,-868.27 309.31,-818.67"/>
<polygon fill="red" stroke="red" stroke-width="0.1" points="312.3,-820.49 315.11,-810.28 306.55,-816.51 312.3,-820.49"/>
<text text-anchor="middle" x="287" y="-927.84" font-family="Times,serif" font-size="9.00">0.342</text>
</g>
<!-- key 11026
bias 0.000
h_scaling 0.677
output 0.500 -->
<g id="node8" class="node">
<title>key 11026
bias 0.000
h_scaling 0.677
output 0.500</title>
<ellipse fill="white" stroke="black" cx="96" cy="-930.04" rx="63.78" ry="63.78"/>
<text text-anchor="middle" x="96" y="-942.84" font-family="Times,serif" font-size="9.00">key 11026</text>
<text text-anchor="middle" x="96" y="-932.84" font-family="Times,serif" font-size="9.00">bias 0.000</text>
<text text-anchor="middle" x="96" y="-922.84" font-family="Times,serif" font-size="9.00">h_scaling 0.677</text>
<text text-anchor="middle" x="96" y="-912.84" font-family="Times,serif" font-size="9.00">output 0.500</text>
</g>
<!-- ready
output 0.000&#45;&gt;key 11026
bias 0.000
h_scaling 0.677
output 0.500 -->
<g id="edge6" class="edge">
<title>ready
output 0.000&#45;&gt;key 11026
bias 0.000
h_scaling 0.677
output 0.500</title>
<path fill="none" stroke="red" stroke-width="0.1" d="M96,-1039.66C96,-1030.58 96,-1017.67 96,-1003.91"/>
<polygon fill="red" stroke="red" stroke-width="0.1" points="99.5,-1003.77 96,-993.77 92.5,-1003.77 99.5,-1003.77"/>
<text text-anchor="middle" x="110" y="-1014.48" font-family="Times,serif" font-size="9.00">0.948</text>
</g>
<!-- key 2870
bias 0.000
h_scaling 0.527
output 0.965 -->
<g id="node9" class="node">
<title>key 2870
bias 0.000
h_scaling 0.527
output 0.965</title>
<ellipse fill="white" stroke="black" cx="302" cy="-63.64" rx="63.78" ry="63.78"/>
<text text-anchor="middle" x="302" y="-76.44" font-family="Times,serif" font-size="9.00">key 2870</text>
<text text-anchor="middle" x="302" y="-66.44" font-family="Times,serif" font-size="9.00">bias 0.000</text>
<text text-anchor="middle" x="302" y="-56.44" font-family="Times,serif" font-size="9.00">h_scaling 0.527</text>
<text text-anchor="middle" x="302" y="-46.44" font-family="Times,serif" font-size="9.00">output 0.965</text>
</g>
<!-- ready
output 0.000&#45;&gt;key 2870
bias 0.000
h_scaling 0.527
output 0.965 -->
<g id="edge11" class="edge">
<title>ready
output 0.000&#45;&gt;key 2870
bias 0.000
h_scaling 0.527
output 0.965</title>
<path fill="none" stroke="blue" stroke-width="0.1" d="M74.15,-1039.63C58.05,-1029.04 36.66,-1012.75 23,-993.68 5.73,-969.56 0,-960.69 0,-931.04 0,-931.04 0,-931.04 0,-235.92 0,-131.16 139.2,-89.7 228.59,-73.87"/>
<polygon fill="blue" stroke="blue" stroke-width="0.1" points="229.42,-77.28 238.69,-72.16 228.25,-70.38 229.42,-77.28"/>
<text text-anchor="middle" x="15.5" y="-581.28" font-family="Times,serif" font-size="9.00">&#45;0.423</text>
</g>
<!-- go
output 0.000 -->
<g id="node2" class="node">
<title>go
output 0.000</title>
<polygon fill="green" stroke="black" points="488.5,-944.04 411.5,-944.04 411.5,-916.04 488.5,-916.04 488.5,-944.04"/>
<text text-anchor="middle" x="450" y="-932.84" font-family="Times,serif" font-size="9.00">go</text>
<text text-anchor="middle" x="450" y="-922.84" font-family="Times,serif" font-size="9.00">output 0.000</text>
</g>
<!-- key 5283
bias 0.000
h_scaling 0.000
output 0.677 -->
<g id="node4" class="node">
<title>key 5283
bias 0.000
h_scaling 0.000
output 0.677</title>
<ellipse fill="white" stroke="black" cx="159" cy="-756.76" rx="63.78" ry="63.78"/>
<text text-anchor="middle" x="159" y="-769.56" font-family="Times,serif" font-size="9.00">key 5283</text>
<text text-anchor="middle" x="159" y="-759.56" font-family="Times,serif" font-size="9.00">bias 0.000</text>
<text text-anchor="middle" x="159" y="-749.56" font-family="Times,serif" font-size="9.00">h_scaling 0.000</text>
<text text-anchor="middle" x="159" y="-739.56" font-family="Times,serif" font-size="9.00">output 0.677</text>
</g>
<!-- go
output 0.000&#45;&gt;key 5283
bias 0.000
h_scaling 0.000
output 0.677 -->
<g id="edge2" class="edge">
<title>go
output 0.000&#45;&gt;key 5283
bias 0.000
h_scaling 0.000
output 0.677</title>
<path fill="none" stroke="red" stroke-width="0.1" d="M427.65,-915.88C384.24,-890.33 287.12,-833.17 222.33,-795.03"/>
<polygon fill="red" stroke="red" stroke-width="0.1" points="223.81,-791.84 213.41,-789.78 220.26,-797.87 223.81,-791.84"/>
<text text-anchor="middle" x="319" y="-841.2" font-family="Times,serif" font-size="9.00">0.522</text>
</g>
<!-- key 52004
bias 0.000
h_scaling 0.130
output 0.461 -->
<g id="node5" class="node">
<title>key 52004
bias 0.000
h_scaling 0.130
output 0.461</title>
<ellipse fill="white" stroke="black" cx="353" cy="-583.48" rx="63.78" ry="63.78"/>
<text text-anchor="middle" x="353" y="-596.28" font-family="Times,serif" font-size="9.00">key 52004</text>
<text text-anchor="middle" x="353" y="-586.28" font-family="Times,serif" font-size="9.00">bias 0.000</text>
<text text-anchor="middle" x="353" y="-576.28" font-family="Times,serif" font-size="9.00">h_scaling 0.130</text>
<text text-anchor="middle" x="353" y="-566.28" font-family="Times,serif" font-size="9.00">output 0.461</text>
</g>
<!-- go
output 0.000&#45;&gt;key 52004
bias 0.000
h_scaling 0.130
output 0.461 -->
<g id="edge24" class="edge">
<title>go
output 0.000&#45;&gt;key 52004
bias 0.000
h_scaling 0.130
output 0.461</title>
<path fill="none" stroke="blue" stroke-width="0.1" d="M450.55,-915.78C451.64,-879.14 451.85,-773.87 423,-693.12 416.79,-675.73 407.34,-658.31 397.38,-642.65"/>
<polygon fill="blue" stroke="blue" stroke-width="0.1" points="400.22,-640.6 391.81,-634.15 394.36,-644.44 400.22,-640.6"/>
<text text-anchor="middle" x="463.5" y="-754.56" font-family="Times,serif" font-size="9.00">&#45;0.529</text>
</g>
<!-- go
output 0.000&#45;&gt;key 2870
bias 0.000
h_scaling 0.527
output 0.965 -->
<g id="edge19" class="edge">
<title>go
output 0.000&#45;&gt;key 2870
bias 0.000
h_scaling 0.527
output 0.965</title>
<path fill="none" stroke="red" stroke-width="0.1" d="M457.96,-915.81C474.06,-887.74 509,-819.71 509,-757.76 509,-757.76 509,-757.76 509,-235.92 509,-162.97 431.75,-115.23 371.64,-89.12"/>
<polygon fill="red" stroke="red" stroke-width="0.1" points="372.72,-85.78 362.15,-85.12 370,-92.23 372.72,-85.78"/>
<text text-anchor="middle" x="523" y="-494.64" font-family="Times,serif" font-size="9.00">0.622</text>
</g>
<!-- output
bias 0.000
h_scaling 0.013
output 0.002 -->
<g id="node3" class="node">
<title>output
bias 0.000
h_scaling 0.013
output 0.002</title>
<ellipse fill="lightblue" stroke="black" cx="170" cy="-236.92" rx="63.78" ry="63.78"/>
<text text-anchor="middle" x="170" y="-249.72" font-family="Times,serif" font-size="9.00">output</text>
<text text-anchor="middle" x="170" y="-239.72" font-family="Times,serif" font-size="9.00">bias 0.000</text>
<text text-anchor="middle" x="170" y="-229.72" font-family="Times,serif" font-size="9.00">h_scaling 0.013</text>
<text text-anchor="middle" x="170" y="-219.72" font-family="Times,serif" font-size="9.00">output 0.002</text>
</g>
<!-- output
bias 0.000
h_scaling 0.013
output 0.002&#45;&gt;key 64176
bias 0.000
h_scaling 0.909
output 0.725 -->
<g id="edge10" class="edge">
<title>output
bias 0.000
h_scaling 0.013
output 0.002&#45;&gt;key 64176
bias 0.000
h_scaling 0.909
output 0.725</title>
<path fill="none" stroke="blue" stroke-width="0.1" d="M207.31,-288.74C218.53,-306.28 229.76,-326.56 237,-346.56 282.94,-473.44 232.81,-520.69 280,-647.12 286.45,-664.41 295.99,-681.81 305.96,-697.46"/>
<polygon fill="blue" stroke="blue" stroke-width="0.1" points="303.12,-699.51 311.52,-705.96 308.98,-695.67 303.12,-699.51"/>
<text text-anchor="middle" x="274.5" y="-494.64" font-family="Times,serif" font-size="9.00">&#45;0.312</text>
</g>
<!-- output
bias 0.000
h_scaling 0.013
output 0.002&#45;&gt;key 2870
bias 0.000
h_scaling 0.527
output 0.965 -->
<g id="edge18" class="edge">
<title>output
bias 0.000
h_scaling 0.013
output 0.002&#45;&gt;key 2870
bias 0.000
h_scaling 0.527
output 0.965</title>
<path fill="none" stroke="red" stroke-width="0.1" d="M170.5,-173.07C172.55,-163.28 175.85,-153.65 181,-145.28 193.91,-124.31 214.56,-107.61 235.16,-94.97"/>
<polygon fill="red" stroke="red" stroke-width="0.1" points="237.12,-97.88 243.97,-89.8 233.58,-91.84 237.12,-97.88"/>
<text text-anchor="middle" x="195" y="-148.08" font-family="Times,serif" font-size="9.00">0.669</text>
</g>
<!-- key 5283
bias 0.000
h_scaling 0.000
output 0.677&#45;&gt;output
bias 0.000
h_scaling 0.013
output 0.002 -->
<g id="edge5" class="edge">
<title>key 5283
bias 0.000
h_scaling 0.000
output 0.677&#45;&gt;output
bias 0.000
h_scaling 0.013
output 0.002</title>
<path fill="none" stroke="blue" stroke-width="0.1" d="M158.61,-693.09C158.43,-639.61 158.51,-560.67 160,-491.84 161.32,-430.77 164.14,-361.48 166.45,-310.73"/>
<polygon fill="blue" stroke="blue" stroke-width="0.1" points="169.95,-310.66 166.91,-300.51 162.96,-310.34 169.95,-310.66"/>
<text text-anchor="middle" x="175.5" y="-494.64" font-family="Times,serif" font-size="9.00">&#45;1.000</text>
</g>
<!-- key 5283
bias 0.000
h_scaling 0.000
output 0.677&#45;&gt;key 5283
bias 0.000
h_scaling 0.000
output 0.677 -->
<g id="edge7" class="edge">
<title>key 5283
bias 0.000
h_scaling 0.000
output 0.677&#45;&gt;key 5283
bias 0.000
h_scaling 0.000
output 0.677</title>
<path fill="none" stroke="red" stroke-width="0.1" d="M220.94,-772.05C232.5,-770.17 240.64,-765.07 240.64,-756.76 240.64,-751.04 236.79,-746.84 230.63,-744.17"/>
<polygon fill="red" stroke="red" stroke-width="0.1" points="231.52,-740.78 220.94,-741.46 229.63,-747.52 231.52,-740.78"/>
<text text-anchor="middle" x="254.64" y="-754.56" font-family="Times,serif" font-size="9.00">0.730</text>
</g>
<!-- key 5283
bias 0.000
h_scaling 0.000
output 0.677&#45;&gt;key 52004
bias 0.000
h_scaling 0.130
output 0.461 -->
<g id="edge14" class="edge">
<title>key 5283
bias 0.000
h_scaling 0.000
output 0.677&#45;&gt;key 52004
bias 0.000
h_scaling 0.130
output 0.461</title>
<path fill="none" stroke="blue" stroke-width="0.1" d="M206.46,-713.86C234.16,-689.4 269.23,-658.44 298.11,-632.94"/>
<polygon fill="blue" stroke="blue" stroke-width="0.1" points="300.52,-635.48 305.7,-626.24 295.88,-630.24 300.52,-635.48"/>
<text text-anchor="middle" x="271.5" y="-667.92" font-family="Times,serif" font-size="9.00">&#45;0.971</text>
</g>
<!-- key 5283
bias 0.000
h_scaling 0.000
output 0.677&#45;&gt;key 2870
bias 0.000
h_scaling 0.527
output 0.965 -->
<g id="edge3" class="edge">
<title>key 5283
bias 0.000
h_scaling 0.000
output 0.677&#45;&gt;key 2870
bias 0.000
h_scaling 0.527
output 0.965</title>
<path fill="none" stroke="red" stroke-width="0.1" d="M171.75,-694.12C198.23,-566.15 259.05,-272.24 287.2,-136.17"/>
<polygon fill="red" stroke="red" stroke-width="0.1" points="290.65,-136.76 289.25,-126.26 283.8,-135.34 290.65,-136.76"/>
<text text-anchor="middle" x="258" y="-408" font-family="Times,serif" font-size="9.00">1.055</text>
</g>
<!-- key 52004
bias 0.000
h_scaling 0.130
output 0.461&#45;&gt;key 52004
bias 0.000
h_scaling 0.130
output 0.461 -->
<g id="edge17" class="edge">
<title>key 52004
bias 0.000
h_scaling 0.130
output 0.461&#45;&gt;key 52004
bias 0.000
h_scaling 0.130
output 0.461</title>
<path fill="none" stroke="red" stroke-width="0.1" d="M414.94,-598.77C426.5,-596.89 434.64,-591.79 434.64,-583.48 434.64,-577.76 430.79,-573.56 424.63,-570.89"/>
<polygon fill="red" stroke="red" stroke-width="0.1" points="425.52,-567.5 414.94,-568.18 423.63,-574.24 425.52,-567.5"/>
<text text-anchor="middle" x="448.64" y="-581.28" font-family="Times,serif" font-size="9.00">0.447</text>
</g>
<!-- key 52004
bias 0.000
h_scaling 0.130
output 0.461&#45;&gt;key 64176
bias 0.000
h_scaling 0.909
output 0.725 -->
<g id="edge21" class="edge">
<title>key 52004
bias 0.000
h_scaling 0.130
output 0.461&#45;&gt;key 64176
bias 0.000
h_scaling 0.909
output 0.725</title>
<path fill="none" stroke="red" stroke-width="0.1" d="M351.9,-647.28C351.7,-658.79 351.49,-670.91 351.28,-682.7"/>
<polygon fill="red" stroke="red" stroke-width="0.1" points="347.78,-682.89 351.1,-692.95 354.77,-683.01 347.78,-682.89"/>
<text text-anchor="middle" x="366" y="-667.92" font-family="Times,serif" font-size="9.00">0.651</text>
</g>
<!-- key 107964
bias 0.000
h_scaling 1.000
output 0.200 -->
<g id="node10" class="node">
<title>key 107964
bias 0.000
h_scaling 1.000
output 0.200</title>
<ellipse fill="white" stroke="black" cx="353" cy="-410.2" rx="63.78" ry="63.78"/>
<text text-anchor="middle" x="353" y="-423" font-family="Times,serif" font-size="9.00">key 107964</text>
<text text-anchor="middle" x="353" y="-413" font-family="Times,serif" font-size="9.00">bias 0.000</text>
<text text-anchor="middle" x="353" y="-403" font-family="Times,serif" font-size="9.00">h_scaling 1.000</text>
<text text-anchor="middle" x="353" y="-393" font-family="Times,serif" font-size="9.00">output 0.200</text>
</g>
<!-- key 52004
bias 0.000
h_scaling 0.130
output 0.461&#45;&gt;key 107964
bias 0.000
h_scaling 1.000
output 0.200 -->
<g id="edge12" class="edge">
<title>key 52004
bias 0.000
h_scaling 0.130
output 0.461&#45;&gt;key 107964
bias 0.000
h_scaling 1.000
output 0.200</title>
<path fill="none" stroke="red" stroke-width="0.1" d="M353,-519.67C353,-508.15 353,-496.04 353,-484.25"/>
<polygon fill="red" stroke="red" stroke-width="0.1" points="356.5,-484 353,-474 349.5,-484 356.5,-484"/>
<text text-anchor="middle" x="367" y="-494.64" font-family="Times,serif" font-size="9.00">1.161</text>
</g>
<!-- key 309264
bias 0.000
h_scaling 0.877
output 0.000 -->
<g id="node6" class="node">
<title>key 309264
bias 0.000
h_scaling 0.877
output 0.000</title>
<ellipse fill="white" stroke="black" cx="601" cy="-236.92" rx="63.78" ry="63.78"/>
<text text-anchor="middle" x="601" y="-249.72" font-family="Times,serif" font-size="9.00">key 309264</text>
<text text-anchor="middle" x="601" y="-239.72" font-family="Times,serif" font-size="9.00">bias 0.000</text>
<text text-anchor="middle" x="601" y="-229.72" font-family="Times,serif" font-size="9.00">h_scaling 0.877</text>
<text text-anchor="middle" x="601" y="-219.72" font-family="Times,serif" font-size="9.00">output 0.000</text>
</g>
<!-- key 309264
bias 0.000
h_scaling 0.877
output 0.000&#45;&gt;key 2870
bias 0.000
h_scaling 0.527
output 0.965 -->
<g id="edge22" class="edge">
<title>key 309264
bias 0.000
h_scaling 0.877
output 0.000&#45;&gt;key 2870
bias 0.000
h_scaling 0.527
output 0.965</title>
<path fill="none" stroke="red" stroke-width="0.1" d="M564.53,-184.42C552.57,-170.26 538.37,-155.91 523,-145.28 477.93,-114.11 419.41,-93.47 373.91,-80.87"/>
<polygon fill="red" stroke="red" stroke-width="0.1" points="374.68,-77.46 364.11,-78.23 372.86,-84.21 374.68,-77.46"/>
<text text-anchor="middle" x="549" y="-148.08" font-family="Times,serif" font-size="9.00">0.308</text>
</g>
<!-- key 64176
bias 0.000
h_scaling 0.909
output 0.725&#45;&gt;key 52004
bias 0.000
h_scaling 0.130
output 0.461 -->
<g id="edge9" class="edge">
<title>key 64176
bias 0.000
h_scaling 0.909
output 0.725&#45;&gt;key 52004
bias 0.000
h_scaling 0.130
output 0.461</title>
<path fill="none" stroke="red" stroke-width="0.1" d="M312.58,-704.7C307.23,-692.08 304.55,-678.38 308,-665.12 309.59,-659.01 311.75,-652.87 314.28,-646.86"/>
<polygon fill="red" stroke="red" stroke-width="0.1" points="317.57,-648.09 318.52,-637.53 311.19,-645.19 317.57,-648.09"/>
<text text-anchor="middle" x="322" y="-667.92" font-family="Times,serif" font-size="9.00">0.800</text>
</g>
<!-- key 11026
bias 0.000
h_scaling 0.677
output 0.500&#45;&gt;output
bias 0.000
h_scaling 0.013
output 0.002 -->
<g id="edge8" class="edge">
<title>key 11026
bias 0.000
h_scaling 0.677
output 0.500&#45;&gt;output
bias 0.000
h_scaling 0.013
output 0.002</title>
<path fill="none" stroke="red" stroke-width="0.1" d="M80.57,-868.02C73.64,-835.51 67,-794.7 67,-757.76 67,-757.76 67,-757.76 67,-409.2 67,-364.74 92.81,-321.87 118.58,-290.14"/>
<polygon fill="red" stroke="red" stroke-width="0.1" points="121.39,-292.24 125.12,-282.32 116.02,-287.75 121.39,-292.24"/>
<text text-anchor="middle" x="81" y="-581.28" font-family="Times,serif" font-size="9.00">0.292</text>
</g>
<!-- key 11026
bias 0.000
h_scaling 0.677
output 0.500&#45;&gt;key 5283
bias 0.000
h_scaling 0.000
output 0.677 -->
<g id="edge4" class="edge">
<title>key 11026
bias 0.000
h_scaling 0.677
output 0.500&#45;&gt;key 5283
bias 0.000
h_scaling 0.000
output 0.677</title>
<path fill="none" stroke="blue" stroke-width="0.1" d="M117.68,-870.09C122.88,-855.96 128.47,-840.75 133.81,-826.23"/>
<polygon fill="blue" stroke="blue" stroke-width="0.1" points="137.11,-827.4 137.28,-816.81 130.54,-824.99 137.11,-827.4"/>
<text text-anchor="middle" x="143.5" y="-841.2" font-family="Times,serif" font-size="9.00">&#45;0.768</text>
</g>
<!-- key 2870
bias 0.000
h_scaling 0.527
output 0.965&#45;&gt;output
bias 0.000
h_scaling 0.013
output 0.002 -->
<g id="edge1" class="edge">
<title>key 2870
bias 0.000
h_scaling 0.527
output 0.965&#45;&gt;output
bias 0.000
h_scaling 0.013
output 0.002</title>
<path fill="none" stroke="blue" stroke-width="0.1" d="M254.17,-106.28C241.92,-118.2 229.3,-131.66 219,-145.28 213.09,-153.09 207.47,-161.7 202.28,-170.42"/>
<polygon fill="blue" stroke="blue" stroke-width="0.1" points="199.21,-168.74 197.24,-179.15 205.27,-172.24 199.21,-168.74"/>
<text text-anchor="middle" x="234.5" y="-148.08" font-family="Times,serif" font-size="9.00">&#45;0.999</text>
</g>
<!-- key 2870
bias 0.000
h_scaling 0.527
output 0.965&#45;&gt;key 2870
bias 0.000
h_scaling 0.527
output 0.965 -->
<g id="edge20" class="edge">
<title>key 2870
bias 0.000
h_scaling 0.527
output 0.965&#45;&gt;key 2870
bias 0.000
h_scaling 0.527
output 0.965</title>
<path fill="none" stroke="red" stroke-width="0.1" d="M363.94,-78.94C375.5,-77.05 383.64,-71.95 383.64,-63.64 383.64,-57.92 379.79,-53.73 373.63,-51.05"/>
<polygon fill="red" stroke="red" stroke-width="0.1" points="374.52,-47.66 363.94,-48.34 372.63,-54.4 374.52,-47.66"/>
<text text-anchor="middle" x="397.64" y="-61.44" font-family="Times,serif" font-size="9.00">0.395</text>
</g>
<!-- key 2870
bias 0.000
h_scaling 0.527
output 0.965&#45;&gt;key 107964
bias 0.000
h_scaling 1.000
output 0.200 -->
<g id="edge15" class="edge">
<title>key 2870
bias 0.000
h_scaling 0.527
output 0.965&#45;&gt;key 107964
bias 0.000
h_scaling 1.000
output 0.200</title>
<path fill="none" stroke="blue" stroke-width="0.1" d="M343.1,-112.55C355.91,-130.42 368.41,-151.65 375,-173.28 391.46,-227.28 383.95,-291.18 373.44,-338.85"/>
<polygon fill="blue" stroke="blue" stroke-width="0.1" points="369.99,-338.24 371.16,-348.77 376.81,-339.81 369.99,-338.24"/>
<text text-anchor="middle" x="400.5" y="-234.72" font-family="Times,serif" font-size="9.00">&#45;0.956</text>
</g>
<!-- key 107964
bias 0.000
h_scaling 1.000
output 0.200&#45;&gt;output
bias 0.000
h_scaling 0.013
output 0.002 -->
<g id="edge13" class="edge">
<title>key 107964
bias 0.000
h_scaling 1.000
output 0.200&#45;&gt;output
bias 0.000
h_scaling 0.013
output 0.002</title>
<path fill="none" stroke="red" stroke-width="0.1" d="M306.82,-365.98C281.46,-342.24 249.89,-312.7 223.47,-287.96"/>
<polygon fill="red" stroke="red" stroke-width="0.1" points="225.86,-285.4 216.16,-281.13 221.07,-290.51 225.86,-285.4"/>
<text text-anchor="middle" x="276" y="-321.36" font-family="Times,serif" font-size="9.00">0.901</text>
</g>
<!-- key 107964
bias 0.000
h_scaling 1.000
output 0.200&#45;&gt;key 2870
bias 0.000
h_scaling 0.527
output 0.965 -->
<g id="edge16" class="edge">
<title>key 107964
bias 0.000
h_scaling 1.000
output 0.200&#45;&gt;key 2870
bias 0.000
h_scaling 0.527
output 0.965</title>
<path fill="none" stroke="blue" stroke-width="0.1" d="M343.82,-347.2C335.08,-288.1 321.91,-199.14 312.69,-136.86"/>
<polygon fill="blue" stroke="blue" stroke-width="0.1" points="316.12,-136.1 311.19,-126.72 309.19,-137.12 316.12,-136.1"/>
<text text-anchor="middle" x="352.5" y="-234.72" font-family="Times,serif" font-size="9.00">&#45;0.881</text>
</g>
</g>
</svg>
