<?xml version="1.0" encoding="UTF-8" standalone="no"?>
<!DOCTYPE svg PUBLIC "-//W3C//DTD SVG 1.1//EN"
 "http://www.w3.org/Graphics/SVG/1.1/DTD/svg11.dtd">
<!-- Generated by graphviz version 2.43.0 (0)
 -->
<!-- Title: %3 Pages: 1 -->
<svg width="552pt" height="1559pt"
 viewBox="0.00 0.00 551.92 1558.51" xmlns="http://www.w3.org/2000/svg" xmlns:xlink="http://www.w3.org/1999/xlink">
<g id="graph0" class="graph" transform="scale(1 1) rotate(0) translate(4 1554.51)">
<title>%3</title>
<polygon fill="white" stroke="transparent" points="-4,4 -4,-1554.51 547.92,-1554.51 547.92,4 -4,4"/>
<!-- ready -->
<g id="node1" class="node">
<title>ready</title>
<polygon fill="yellow" stroke="black" points="179.5,-1550.51 136.5,-1550.51 136.5,-1532.51 179.5,-1532.51 179.5,-1550.51"/>
<text text-anchor="middle" x="158" y="-1539.31" font-family="Times,serif" font-size="9.00">ready</text>
</g>
<!-- key 6528
bias 1.000
h_scaling 0.881 -->
<g id="node4" class="node">
<title>key 6528
bias 1.000
h_scaling 0.881</title>
<ellipse fill="white" stroke="black" cx="370" cy="-1422.87" rx="63.78" ry="63.78"/>
<text text-anchor="middle" x="370" y="-1430.67" font-family="Times,serif" font-size="9.00">key 6528</text>
<text text-anchor="middle" x="370" y="-1420.67" font-family="Times,serif" font-size="9.00">bias 1.000</text>
<text text-anchor="middle" x="370" y="-1410.67" font-family="Times,serif" font-size="9.00">h_scaling 0.881</text>
</g>
<!-- ready&#45;&gt;key 6528
bias 1.000
h_scaling 0.881 -->
<g id="edge4" class="edge">
<title>ready&#45;&gt;key 6528
bias 1.000
h_scaling 0.881</title>
<path fill="none" stroke="blue" stroke-width="0.1" d="M172.57,-1532.5C199.55,-1517.65 258.78,-1485.06 305.37,-1459.43"/>
<polygon fill="blue" stroke="blue" stroke-width="0.1" points="307.13,-1462.46 314.21,-1454.57 303.76,-1456.32 307.13,-1462.46"/>
</g>
<!-- key 7195
bias 0.295
h_scaling 0.613 -->
<g id="node10" class="node">
<title>key 7195
bias 0.295
h_scaling 0.613</title>
<ellipse fill="white" stroke="black" cx="158" cy="-1085.31" rx="63.78" ry="63.78"/>
<text text-anchor="middle" x="158" y="-1093.11" font-family="Times,serif" font-size="9.00">key 7195</text>
<text text-anchor="middle" x="158" y="-1083.11" font-family="Times,serif" font-size="9.00">bias 0.295</text>
<text text-anchor="middle" x="158" y="-1073.11" font-family="Times,serif" font-size="9.00">h_scaling 0.613</text>
</g>
<!-- ready&#45;&gt;key 7195
bias 0.295
h_scaling 0.613 -->
<g id="edge12" class="edge">
<title>ready&#45;&gt;key 7195
bias 0.295
h_scaling 0.613</title>
<path fill="none" stroke="blue" stroke-width="0.1" d="M158,-1532.24C158,-1487.66 158,-1273.76 158,-1159.17"/>
<polygon fill="blue" stroke="blue" stroke-width="0.1" points="161.5,-1159.08 158,-1149.08 154.5,-1159.08 161.5,-1159.08"/>
</g>
<!-- key 7998
bias 0.949
h_scaling 1.000 -->
<g id="node12" class="node">
<title>key 7998
bias 0.949
h_scaling 1.000</title>
<ellipse fill="white" stroke="black" cx="213" cy="-227.92" rx="63.78" ry="63.78"/>
<text text-anchor="middle" x="213" y="-235.72" font-family="Times,serif" font-size="9.00">key 7998</text>
<text text-anchor="middle" x="213" y="-225.72" font-family="Times,serif" font-size="9.00">bias 0.949</text>
<text text-anchor="middle" x="213" y="-215.72" font-family="Times,serif" font-size="9.00">h_scaling 1.000</text>
</g>
<!-- ready&#45;&gt;key 7998
bias 0.949
h_scaling 1.000 -->
<g id="edge5" class="edge">
<title>ready&#45;&gt;key 7998
bias 0.949
h_scaling 1.000</title>
<path fill="none" stroke="red" stroke-width="0.65" d="M136.36,-1535.4C93.09,-1523.74 0,-1490.87 0,-1423.87 0,-1423.87 0,-1423.87 0,-400.2 0,-325.27 81.03,-277.62 143.13,-252.09"/>
<polygon fill="red" stroke="red" stroke-width="0.65" points="144.55,-255.3 152.53,-248.34 141.95,-248.8 144.55,-255.3"/>
<text text-anchor="middle" x="14" y="-909.84" font-family="Times,serif" font-size="9.00">0.018</text>
</g>
<!-- go -->
<g id="node2" class="node">
<title>go</title>
<polygon fill="green" stroke="black" points="514,-1550.51 486,-1550.51 486,-1532.51 514,-1532.51 514,-1550.51"/>
<text text-anchor="middle" x="500" y="-1539.31" font-family="Times,serif" font-size="9.00">go</text>
</g>
<!-- go&#45;&gt;key 6528
bias 1.000
h_scaling 0.881 -->
<g id="edge9" class="edge">
<title>go&#45;&gt;key 6528
bias 1.000
h_scaling 0.881</title>
<path fill="none" stroke="red" stroke-width="0.54" d="M485.81,-1532.89C477.38,-1528.09 466.69,-1521.5 458,-1514.51 444.57,-1503.71 431.09,-1491 418.86,-1478.57"/>
<polygon fill="red" stroke="red" stroke-width="0.54" points="421.29,-1476.05 411.82,-1471.31 416.26,-1480.92 421.29,-1476.05"/>
<text text-anchor="middle" x="472" y="-1507.31" font-family="Times,serif" font-size="9.00">0.015</text>
</g>
<!-- key 757
bias 0.729
h_scaling 0.933 -->
<g id="node8" class="node">
<title>key 757
bias 0.729
h_scaling 0.933</title>
<ellipse fill="white" stroke="black" cx="370" cy="-401.2" rx="63.78" ry="63.78"/>
<text text-anchor="middle" x="370" y="-409" font-family="Times,serif" font-size="9.00">key 757</text>
<text text-anchor="middle" x="370" y="-399" font-family="Times,serif" font-size="9.00">bias 0.729</text>
<text text-anchor="middle" x="370" y="-389" font-family="Times,serif" font-size="9.00">h_scaling 0.933</text>
</g>
<!-- go&#45;&gt;key 757
bias 0.729
h_scaling 0.933 -->
<g id="edge1" class="edge">
<title>go&#45;&gt;key 757
bias 0.729
h_scaling 0.933</title>
<path fill="none" stroke="red" stroke-width="0.58" d="M500,-1532.31C500,-1513.27 500,-1464.58 500,-1423.87 500,-1423.87 500,-1423.87 500,-1084.31 500,-893.71 508.89,-843.87 476,-656.12 464.48,-590.38 463.22,-572.63 438,-510.84 431.25,-494.31 422.05,-477.46 412.6,-462.13"/>
<polygon fill="red" stroke="red" stroke-width="0.58" points="415.32,-459.88 407.03,-453.29 409.4,-463.61 415.32,-459.88"/>
<text text-anchor="middle" x="514" y="-996.48" font-family="Times,serif" font-size="9.00">0.016</text>
</g>
<!-- go&#45;&gt;key 7998
bias 0.949
h_scaling 1.000 -->
<g id="edge10" class="edge">
<title>go&#45;&gt;key 7998
bias 0.949
h_scaling 1.000</title>
<path fill="none" stroke="blue" stroke-width="0.1" d="M505.27,-1532.41C516.75,-1513.95 543,-1467.04 543,-1423.87 543,-1423.87 543,-1423.87 543,-656.12 543,-493.12 557.73,-401.29 423,-309.56 395.73,-290.99 382.15,-302.42 351,-291.56 326.87,-283.14 301.19,-272.1 278.6,-261.63"/>
<polygon fill="blue" stroke="blue" stroke-width="0.1" points="280,-258.42 269.46,-257.34 277.03,-264.76 280,-258.42"/>
</g>
<!-- output
bias 1.000
h_scaling 0.047 -->
<g id="node3" class="node">
<title>output
bias 1.000
h_scaling 0.047</title>
<ellipse fill="lightblue" stroke="black" cx="370" cy="-1258.59" rx="63.78" ry="63.78"/>
<text text-anchor="middle" x="370" y="-1266.39" font-family="Times,serif" font-size="9.00">output</text>
<text text-anchor="middle" x="370" y="-1256.39" font-family="Times,serif" font-size="9.00">bias 1.000</text>
<text text-anchor="middle" x="370" y="-1246.39" font-family="Times,serif" font-size="9.00">h_scaling 0.047</text>
</g>
<!-- output
bias 1.000
h_scaling 0.047&#45;&gt;key 7195
bias 0.295
h_scaling 0.613 -->
<g id="edge15" class="edge">
<title>output
bias 1.000
h_scaling 0.047&#45;&gt;key 7195
bias 0.295
h_scaling 0.613</title>
<path fill="none" stroke="red" stroke-width="0.39" d="M320.83,-1217.87C289.37,-1192.45 248.43,-1159.37 215.47,-1132.74"/>
<polygon fill="red" stroke="red" stroke-width="0.39" points="217.25,-1129.68 207.27,-1126.12 212.85,-1135.13 217.25,-1129.68"/>
<text text-anchor="middle" x="278" y="-1169.75" font-family="Times,serif" font-size="9.00">0.010</text>
</g>
<!-- key 6528
bias 1.000
h_scaling 0.881&#45;&gt;output
bias 1.000
h_scaling 0.047 -->
<g id="edge3" class="edge">
<title>key 6528
bias 1.000
h_scaling 0.881&#45;&gt;output
bias 1.000
h_scaling 0.047</title>
<path fill="none" stroke="blue" stroke-width="0.1" d="M370,-1359.13C370,-1350.48 370,-1341.53 370,-1332.71"/>
<polygon fill="blue" stroke="blue" stroke-width="0.1" points="373.5,-1332.44 370,-1322.44 366.5,-1332.44 373.5,-1332.44"/>
</g>
<!-- key 17571
bias &#45;0.947
h_scaling 0.611 -->
<g id="node5" class="node">
<title>key 17571
bias &#45;0.947
h_scaling 0.611</title>
<ellipse fill="white" stroke="black" cx="424" cy="-227.92" rx="63.78" ry="63.78"/>
<text text-anchor="middle" x="424" y="-235.72" font-family="Times,serif" font-size="9.00">key 17571</text>
<text text-anchor="middle" x="424" y="-225.72" font-family="Times,serif" font-size="9.00">bias &#45;0.947</text>
<text text-anchor="middle" x="424" y="-215.72" font-family="Times,serif" font-size="9.00">h_scaling 0.611</text>
</g>
<!-- key 17571
bias &#45;0.947
h_scaling 0.611&#45;&gt;key 6528
bias 1.000
h_scaling 0.881 -->
<g id="edge14" class="edge">
<title>key 17571
bias &#45;0.947
h_scaling 0.611&#45;&gt;key 6528
bias 1.000
h_scaling 0.881</title>
<path fill="none" stroke="red" stroke-width="0.19" d="M443.89,-288.45C453.08,-321.06 462,-362.43 462,-400.2 462,-1259.59 462,-1259.59 462,-1259.59 462,-1299.11 441.1,-1337.83 419.22,-1367.53"/>
<polygon fill="red" stroke="red" stroke-width="0.19" points="416.3,-1365.58 413.04,-1375.66 421.87,-1369.82 416.3,-1365.58"/>
<text text-anchor="middle" x="476" y="-823.2" font-family="Times,serif" font-size="9.00">0.003</text>
</g>
<!-- key 263747
bias 0.656
h_scaling 0.862 -->
<g id="node6" class="node">
<title>key 263747
bias 0.656
h_scaling 0.862</title>
<ellipse fill="white" stroke="black" cx="186" cy="-738.76" rx="63.78" ry="63.78"/>
<text text-anchor="middle" x="186" y="-746.56" font-family="Times,serif" font-size="9.00">key 263747</text>
<text text-anchor="middle" x="186" y="-736.56" font-family="Times,serif" font-size="9.00">bias 0.656</text>
<text text-anchor="middle" x="186" y="-726.56" font-family="Times,serif" font-size="9.00">h_scaling 0.862</text>
</g>
<!-- key 11676
bias 0.351
h_scaling 0.261 -->
<g id="node9" class="node">
<title>key 11676
bias 0.351
h_scaling 0.261</title>
<ellipse fill="white" stroke="black" cx="332" cy="-574.48" rx="63.78" ry="63.78"/>
<text text-anchor="middle" x="332" y="-582.28" font-family="Times,serif" font-size="9.00">key 11676</text>
<text text-anchor="middle" x="332" y="-572.28" font-family="Times,serif" font-size="9.00">bias 0.351</text>
<text text-anchor="middle" x="332" y="-562.28" font-family="Times,serif" font-size="9.00">h_scaling 0.261</text>
</g>
<!-- key 263747
bias 0.656
h_scaling 0.862&#45;&gt;key 11676
bias 0.351
h_scaling 0.261 -->
<g id="edge21" class="edge">
<title>key 263747
bias 0.656
h_scaling 0.862&#45;&gt;key 11676
bias 0.351
h_scaling 0.261</title>
<path fill="none" stroke="blue" stroke-width="0.1" d="M228.23,-690.82C245.41,-671.73 265.36,-649.54 283.16,-629.76"/>
<polygon fill="blue" stroke="blue" stroke-width="0.1" points="285.78,-632.08 289.87,-622.31 280.58,-627.4 285.78,-632.08"/>
</g>
<!-- key 15337
bias 0.439
h_scaling 0.653 -->
<g id="node7" class="node">
<title>key 15337
bias 0.439
h_scaling 0.653</title>
<ellipse fill="white" stroke="black" cx="158" cy="-912.04" rx="63.78" ry="63.78"/>
<text text-anchor="middle" x="158" y="-919.84" font-family="Times,serif" font-size="9.00">key 15337</text>
<text text-anchor="middle" x="158" y="-909.84" font-family="Times,serif" font-size="9.00">bias 0.439</text>
<text text-anchor="middle" x="158" y="-899.84" font-family="Times,serif" font-size="9.00">h_scaling 0.653</text>
</g>
<!-- key 15337
bias 0.439
h_scaling 0.653&#45;&gt;key 263747
bias 0.656
h_scaling 0.862 -->
<g id="edge20" class="edge">
<title>key 15337
bias 0.439
h_scaling 0.653&#45;&gt;key 263747
bias 0.656
h_scaling 0.862</title>
<path fill="none" stroke="red" stroke-width="1" d="M168.11,-849.2C170.1,-837.03 172.2,-824.16 174.24,-811.68"/>
<polygon fill="red" stroke="red" stroke-width="1" points="177.7,-812.22 175.86,-801.79 170.79,-811.09 177.7,-812.22"/>
<text text-anchor="middle" x="186" y="-823.2" font-family="Times,serif" font-size="9.00">0.030</text>
</g>
<!-- key 62396
bias &#45;0.901
h_scaling 0.181 -->
<g id="node11" class="node">
<title>key 62396
bias &#45;0.901
h_scaling 0.181</title>
<ellipse fill="white" stroke="black" cx="106" cy="-63.64" rx="63.78" ry="63.78"/>
<text text-anchor="middle" x="106" y="-71.44" font-family="Times,serif" font-size="9.00">key 62396</text>
<text text-anchor="middle" x="106" y="-61.44" font-family="Times,serif" font-size="9.00">bias &#45;0.901</text>
<text text-anchor="middle" x="106" y="-51.44" font-family="Times,serif" font-size="9.00">h_scaling 0.181</text>
</g>
<!-- key 15337
bias 0.439
h_scaling 0.653&#45;&gt;key 62396
bias &#45;0.901
h_scaling 0.181 -->
<g id="edge17" class="edge">
<title>key 15337
bias 0.439
h_scaling 0.653&#45;&gt;key 62396
bias &#45;0.901
h_scaling 0.181</title>
<path fill="none" stroke="red" stroke-width="0.44" d="M126.37,-856.63C110.25,-823.88 94,-780.71 94,-739.76 94,-739.76 94,-739.76 94,-226.92 94,-197.48 95.99,-165.12 98.35,-137.1"/>
<polygon fill="red" stroke="red" stroke-width="0.44" points="101.85,-137.25 99.23,-126.98 94.87,-136.64 101.85,-137.25"/>
<text text-anchor="middle" x="108" y="-485.64" font-family="Times,serif" font-size="9.00">0.011</text>
</g>
<!-- key 757
bias 0.729
h_scaling 0.933&#45;&gt;output
bias 1.000
h_scaling 0.047 -->
<g id="edge2" class="edge">
<title>key 757
bias 0.729
h_scaling 0.933&#45;&gt;output
bias 1.000
h_scaling 0.047</title>
<path fill="none" stroke="blue" stroke-width="0.1" d="M397.32,-458.68C410.71,-491.42 424,-533.88 424,-573.48 424,-1086.31 424,-1086.31 424,-1086.31 424,-1122.2 413.09,-1160.44 401.07,-1191.66"/>
<polygon fill="blue" stroke="blue" stroke-width="0.1" points="397.75,-1190.53 397.32,-1201.11 404.26,-1193.11 397.75,-1190.53"/>
</g>
<!-- key 757
bias 0.729
h_scaling 0.933&#45;&gt;key 17571
bias &#45;0.947
h_scaling 0.611 -->
<g id="edge13" class="edge">
<title>key 757
bias 0.729
h_scaling 0.933&#45;&gt;key 17571
bias &#45;0.947
h_scaling 0.611</title>
<path fill="none" stroke="red" stroke-width="0.11" d="M388.89,-340.29C393.12,-326.86 397.65,-312.5 402,-298.71"/>
<polygon fill="red" stroke="red" stroke-width="0.11" points="405.46,-299.38 405.12,-288.79 398.78,-297.27 405.46,-299.38"/>
<text text-anchor="middle" x="411" y="-312.36" font-family="Times,serif" font-size="9.00">0.000</text>
</g>
<!-- key 757
bias 0.729
h_scaling 0.933&#45;&gt;key 7998
bias 0.949
h_scaling 1.000 -->
<g id="edge8" class="edge">
<title>key 757
bias 0.729
h_scaling 0.933&#45;&gt;key 7998
bias 0.949
h_scaling 1.000</title>
<path fill="none" stroke="red" stroke-width="0.61" d="M327.1,-353.4C307.11,-331.59 283.22,-305.53 262.48,-282.9"/>
<polygon fill="red" stroke="red" stroke-width="0.61" points="264.91,-280.37 255.58,-275.37 259.75,-285.1 264.91,-280.37"/>
<text text-anchor="middle" x="305" y="-312.36" font-family="Times,serif" font-size="9.00">0.017</text>
</g>
<!-- key 11676
bias 0.351
h_scaling 0.261&#45;&gt;output
bias 1.000
h_scaling 0.047 -->
<g id="edge16" class="edge">
<title>key 11676
bias 0.351
h_scaling 0.261&#45;&gt;output
bias 1.000
h_scaling 0.047</title>
<path fill="none" stroke="red" stroke-width="0.37" d="M344.35,-637.24C349.37,-667.42 354,-704.35 354,-737.76 354,-1086.31 354,-1086.31 354,-1086.31 354,-1118.92 356.91,-1154.86 360.25,-1185.36"/>
<polygon fill="red" stroke="red" stroke-width="0.37" points="356.79,-1185.94 361.39,-1195.49 363.75,-1185.16 356.79,-1185.94"/>
<text text-anchor="middle" x="368" y="-909.84" font-family="Times,serif" font-size="9.00">0.009</text>
</g>
<!-- key 11676
bias 0.351
h_scaling 0.261&#45;&gt;key 757
bias 0.729
h_scaling 0.933 -->
<g id="edge11" class="edge">
<title>key 11676
bias 0.351
h_scaling 0.261&#45;&gt;key 757
bias 0.729
h_scaling 0.933</title>
<path fill="none" stroke="blue" stroke-width="0.1" d="M345.61,-512.13C348.41,-499.5 351.38,-486.12 354.25,-473.19"/>
<polygon fill="blue" stroke="blue" stroke-width="0.1" points="357.67,-473.93 356.42,-463.41 350.84,-472.41 357.67,-473.93"/>
</g>
<!-- key 7195
bias 0.295
h_scaling 0.613&#45;&gt;key 15337
bias 0.439
h_scaling 0.653 -->
<g id="edge18" class="edge">
<title>key 7195
bias 0.295
h_scaling 0.613&#45;&gt;key 15337
bias 0.439
h_scaling 0.653</title>
<path fill="none" stroke="red" stroke-width="0.63" d="M158,-1021.51C158,-1009.99 158,-997.88 158,-986.09"/>
<polygon fill="red" stroke="red" stroke-width="0.63" points="161.5,-985.83 158,-975.83 154.5,-985.83 161.5,-985.83"/>
<text text-anchor="middle" x="172" y="-996.48" font-family="Times,serif" font-size="9.00">0.018</text>
</g>
<!-- key 7195
bias 0.295
h_scaling 0.613&#45;&gt;key 7998
bias 0.949
h_scaling 1.000 -->
<g id="edge7" class="edge">
<title>key 7195
bias 0.295
h_scaling 0.613&#45;&gt;key 7998
bias 0.949
h_scaling 1.000</title>
<path fill="none" stroke="blue" stroke-width="0.1" d="M113.26,-1039.48C85.86,-1007.17 56,-960.97 56,-913.04 56,-913.04 56,-913.04 56,-486.84 56,-405.48 113.7,-327.98 159.14,-279.55"/>
<polygon fill="blue" stroke="blue" stroke-width="0.1" points="161.95,-281.68 166.32,-272.03 156.88,-276.85 161.95,-281.68"/>
</g>
<!-- key 7998
bias 0.949
h_scaling 1.000&#45;&gt;key 6528
bias 1.000
h_scaling 0.881 -->
<g id="edge6" class="edge">
<title>key 7998
bias 0.949
h_scaling 1.000&#45;&gt;key 6528
bias 1.000
h_scaling 0.881</title>
<path fill="none" stroke="blue" stroke-width="0.1" d="M219.99,-291.28C236.77,-441.33 278,-811.14 278,-824.4 278,-1259.59 278,-1259.59 278,-1259.59 278,-1299.11 298.9,-1337.83 320.78,-1367.53"/>
<polygon fill="blue" stroke="blue" stroke-width="0.1" points="318.13,-1369.82 326.96,-1375.66 323.7,-1365.58 318.13,-1369.82"/>
</g>
<!-- key 7998
bias 0.949
h_scaling 1.000&#45;&gt;key 62396
bias &#45;0.901
h_scaling 0.181 -->
<g id="edge19" class="edge">
<title>key 7998
bias 0.949
h_scaling 1.000&#45;&gt;key 62396
bias &#45;0.901
h_scaling 0.181</title>
<path fill="none" stroke="blue" stroke-width="0.1" d="M178.26,-174.23C168.12,-158.85 156.94,-141.9 146.48,-126.03"/>
<polygon fill="blue" stroke="blue" stroke-width="0.1" points="149.18,-123.76 140.75,-117.34 143.33,-127.62 149.18,-123.76"/>
</g>
</g>
</svg>
