<?xml version="1.0" encoding="UTF-8" standalone="no"?>
<!DOCTYPE svg PUBLIC "-//W3C//DTD SVG 1.1//EN"
 "http://www.w3.org/Graphics/SVG/1.1/DTD/svg11.dtd">
<!-- Generated by graphviz version 2.43.0 (0)
 -->
<!-- Title: %3 Pages: 1 -->
<svg width="624pt" height="1412pt"
 viewBox="0.00 0.00 624.00 1412.23" xmlns="http://www.w3.org/2000/svg" xmlns:xlink="http://www.w3.org/1999/xlink">
<g id="graph0" class="graph" transform="scale(1 1) rotate(0) translate(4 1408.23)">
<title>%3</title>
<polygon fill="white" stroke="transparent" points="-4,4 -4,-1408.23 620,-1408.23 620,4 -4,4"/>
<!-- ready -->
<g id="node1" class="node">
<title>ready</title>
<polygon fill="yellow" stroke="black" points="550.5,-1404.23 507.5,-1404.23 507.5,-1386.23 550.5,-1386.23 550.5,-1404.23"/>
<text text-anchor="middle" x="529" y="-1393.03" font-family="Times,serif" font-size="9.00">ready</text>
</g>
<!-- key 137985
bias &#45;0.622
h_scaling 0.699 -->
<g id="node4" class="node">
<title>key 137985
bias &#45;0.622
h_scaling 0.699</title>
<ellipse fill="white" stroke="black" cx="215" cy="-1276.59" rx="63.78" ry="63.78"/>
<text text-anchor="middle" x="215" y="-1284.39" font-family="Times,serif" font-size="9.00">key 137985</text>
<text text-anchor="middle" x="215" y="-1274.39" font-family="Times,serif" font-size="9.00">bias &#45;0.622</text>
<text text-anchor="middle" x="215" y="-1264.39" font-family="Times,serif" font-size="9.00">h_scaling 0.699</text>
</g>
<!-- ready&#45;&gt;key 137985
bias &#45;0.622
h_scaling 0.699 -->
<g id="edge19" class="edge">
<title>ready&#45;&gt;key 137985
bias &#45;0.622
h_scaling 0.699</title>
<path fill="none" stroke="blue" stroke-width="1.74" d="M507.42,-1386.22C462.16,-1369.4 355.63,-1329.83 284.43,-1303.39"/>
<polygon fill="blue" stroke="blue" stroke-width="1.74" points="285.23,-1299.95 274.63,-1299.75 282.79,-1306.51 285.23,-1299.95"/>
<text text-anchor="middle" x="469.5" y="-1361.03" font-family="Times,serif" font-size="9.00">&#45;0.548</text>
</g>
<!-- key 146208
bias &#45;0.225
h_scaling 1.000 -->
<g id="node6" class="node">
<title>key 146208
bias &#45;0.225
h_scaling 1.000</title>
<ellipse fill="white" stroke="black" cx="430" cy="-756.76" rx="63.78" ry="63.78"/>
<text text-anchor="middle" x="430" y="-764.56" font-family="Times,serif" font-size="9.00">key 146208</text>
<text text-anchor="middle" x="430" y="-754.56" font-family="Times,serif" font-size="9.00">bias &#45;0.225</text>
<text text-anchor="middle" x="430" y="-744.56" font-family="Times,serif" font-size="9.00">h_scaling 1.000</text>
</g>
<!-- ready&#45;&gt;key 146208
bias &#45;0.225
h_scaling 1.000 -->
<g id="edge14" class="edge">
<title>ready&#45;&gt;key 146208
bias &#45;0.225
h_scaling 1.000</title>
<path fill="none" stroke="red" stroke-width="2.88" d="M529,-1386.03C529,-1366.99 529,-1318.3 529,-1277.59 529,-1277.59 529,-1277.59 529,-929.04 529,-885.34 504.55,-842.78 479.95,-811.01"/>
<polygon fill="red" stroke="red" stroke-width="2.88" points="482.68,-808.81 473.71,-803.17 477.2,-813.17 482.68,-808.81"/>
<text text-anchor="middle" x="543" y="-1101.11" font-family="Times,serif" font-size="9.00">0.927</text>
</g>
<!-- key 586
bias &#45;0.523
h_scaling 0.195 -->
<g id="node8" class="node">
<title>key 586
bias &#45;0.523
h_scaling 0.195</title>
<ellipse fill="white" stroke="black" cx="372" cy="-583.48" rx="63.78" ry="63.78"/>
<text text-anchor="middle" x="372" y="-591.28" font-family="Times,serif" font-size="9.00">key 586</text>
<text text-anchor="middle" x="372" y="-581.28" font-family="Times,serif" font-size="9.00">bias &#45;0.523</text>
<text text-anchor="middle" x="372" y="-571.28" font-family="Times,serif" font-size="9.00">h_scaling 0.195</text>
</g>
<!-- ready&#45;&gt;key 586
bias &#45;0.523
h_scaling 0.195 -->
<g id="edge10" class="edge">
<title>ready&#45;&gt;key 586
bias &#45;0.523
h_scaling 0.195</title>
<path fill="none" stroke="blue" stroke-width="0.91" d="M536.09,-1386.11C551.16,-1367.98 585,-1322.3 585,-1277.59 585,-1277.59 585,-1277.59 585,-755.76 585,-680.83 503.97,-633.17 441.87,-607.65"/>
<polygon fill="blue" stroke="blue" stroke-width="0.91" points="443.05,-604.35 432.47,-603.89 440.45,-610.85 443.05,-604.35"/>
<text text-anchor="middle" x="600.5" y="-1014.48" font-family="Times,serif" font-size="9.00">&#45;0.271</text>
</g>
<!-- go -->
<g id="node2" class="node">
<title>go</title>
<polygon fill="green" stroke="black" points="229,-1404.23 201,-1404.23 201,-1386.23 229,-1386.23 229,-1404.23"/>
<text text-anchor="middle" x="215" y="-1393.03" font-family="Times,serif" font-size="9.00">go</text>
</g>
<!-- go&#45;&gt;key 137985
bias &#45;0.622
h_scaling 0.699 -->
<g id="edge22" class="edge">
<title>go&#45;&gt;key 137985
bias &#45;0.622
h_scaling 0.699</title>
<path fill="none" stroke="red" stroke-width="2" d="M215,-1386.22C215,-1378.19 215,-1364.97 215,-1350.46"/>
<polygon fill="red" stroke="red" stroke-width="2" points="218.5,-1350.27 215,-1340.27 211.5,-1350.27 218.5,-1350.27"/>
<text text-anchor="middle" x="229" y="-1361.03" font-family="Times,serif" font-size="9.00">0.635</text>
</g>
<!-- key 10216
bias &#45;0.504
h_scaling 0.295 -->
<g id="node7" class="node">
<title>key 10216
bias &#45;0.504
h_scaling 0.295</title>
<ellipse fill="white" stroke="black" cx="202" cy="-63.64" rx="63.78" ry="63.78"/>
<text text-anchor="middle" x="202" y="-71.44" font-family="Times,serif" font-size="9.00">key 10216</text>
<text text-anchor="middle" x="202" y="-61.44" font-family="Times,serif" font-size="9.00">bias &#45;0.504</text>
<text text-anchor="middle" x="202" y="-51.44" font-family="Times,serif" font-size="9.00">h_scaling 0.295</text>
</g>
<!-- go&#45;&gt;key 10216
bias &#45;0.504
h_scaling 0.295 -->
<g id="edge5" class="edge">
<title>go&#45;&gt;key 10216
bias &#45;0.504
h_scaling 0.295</title>
<path fill="none" stroke="red" stroke-width="1.8" d="M200.89,-1393.3C153.06,-1389.3 0,-1369.32 0,-1277.59 0,-1277.59 0,-1277.59 0,-235.92 0,-164.45 74.47,-116.63 132.97,-90.08"/>
<polygon fill="red" stroke="red" stroke-width="1.8" points="134.48,-93.24 142.21,-86 131.65,-86.84 134.48,-93.24"/>
<text text-anchor="middle" x="14" y="-754.56" font-family="Times,serif" font-size="9.00">0.565</text>
</g>
<!-- go&#45;&gt;key 586
bias &#45;0.523
h_scaling 0.195 -->
<g id="edge1" class="edge">
<title>go&#45;&gt;key 586
bias &#45;0.523
h_scaling 0.195</title>
<path fill="none" stroke="red" stroke-width="2.91" d="M229.03,-1393.84C279.87,-1392.29 452.36,-1385.75 469,-1368.23 578.27,-1253.18 476.39,-1169.99 487,-1011.68 492.71,-926.56 499.44,-905.63 503,-820.4 505.36,-763.88 527.05,-744.32 503,-693.12 488.89,-663.07 461.93,-638.48 436.12,-620.33"/>
<polygon fill="red" stroke="red" stroke-width="2.91" points="438.04,-617.4 427.8,-614.67 434.1,-623.19 438.04,-617.4"/>
<text text-anchor="middle" x="501" y="-1014.48" font-family="Times,serif" font-size="9.00">0.936</text>
</g>
<!-- output
bias 0.994
h_scaling 0.133 -->
<g id="node3" class="node">
<title>output
bias 0.994
h_scaling 0.133</title>
<ellipse fill="lightblue" stroke="black" cx="215" cy="-1103.31" rx="63.78" ry="63.78"/>
<text text-anchor="middle" x="215" y="-1111.11" font-family="Times,serif" font-size="9.00">output</text>
<text text-anchor="middle" x="215" y="-1101.11" font-family="Times,serif" font-size="9.00">bias 0.994</text>
<text text-anchor="middle" x="215" y="-1091.11" font-family="Times,serif" font-size="9.00">h_scaling 0.133</text>
</g>
<!-- key 150829
bias &#45;0.843
h_scaling 0.138 -->
<g id="node9" class="node">
<title>key 150829
bias &#45;0.843
h_scaling 0.138</title>
<ellipse fill="white" stroke="black" cx="366" cy="-930.04" rx="63.78" ry="63.78"/>
<text text-anchor="middle" x="366" y="-937.84" font-family="Times,serif" font-size="9.00">key 150829</text>
<text text-anchor="middle" x="366" y="-927.84" font-family="Times,serif" font-size="9.00">bias &#45;0.843</text>
<text text-anchor="middle" x="366" y="-917.84" font-family="Times,serif" font-size="9.00">h_scaling 0.138</text>
</g>
<!-- output
bias 0.994
h_scaling 0.133&#45;&gt;key 150829
bias &#45;0.843
h_scaling 0.138 -->
<g id="edge16" class="edge">
<title>output
bias 0.994
h_scaling 0.133&#45;&gt;key 150829
bias &#45;0.843
h_scaling 0.138</title>
<path fill="none" stroke="red" stroke-width="2.98" d="M257.66,-1055.59C267.67,-1044.52 278.25,-1032.72 288,-1021.68 297.82,-1010.55 308.24,-998.56 318.16,-987.07"/>
<polygon fill="red" stroke="red" stroke-width="2.98" points="321.06,-989.07 324.93,-979.21 315.75,-984.5 321.06,-989.07"/>
<text text-anchor="middle" x="311" y="-1014.48" font-family="Times,serif" font-size="9.00">0.959</text>
</g>
<!-- key 137985
bias &#45;0.622
h_scaling 0.699&#45;&gt;output
bias 0.994
h_scaling 0.133 -->
<g id="edge11" class="edge">
<title>key 137985
bias &#45;0.622
h_scaling 0.699&#45;&gt;output
bias 0.994
h_scaling 0.133</title>
<path fill="none" stroke="blue" stroke-width="2.64" d="M215,-1212.79C215,-1201.27 215,-1189.15 215,-1177.37"/>
<polygon fill="blue" stroke="blue" stroke-width="2.64" points="218.5,-1177.11 215,-1167.11 211.5,-1177.11 218.5,-1177.11"/>
<text text-anchor="middle" x="230.5" y="-1187.75" font-family="Times,serif" font-size="9.00">&#45;0.848</text>
</g>
<!-- key 144450
bias &#45;0.619
h_scaling 0.331 -->
<g id="node5" class="node">
<title>key 144450
bias &#45;0.619
h_scaling 0.331</title>
<ellipse fill="white" stroke="black" cx="202" cy="-236.92" rx="63.78" ry="63.78"/>
<text text-anchor="middle" x="202" y="-244.72" font-family="Times,serif" font-size="9.00">key 144450</text>
<text text-anchor="middle" x="202" y="-234.72" font-family="Times,serif" font-size="9.00">bias &#45;0.619</text>
<text text-anchor="middle" x="202" y="-224.72" font-family="Times,serif" font-size="9.00">h_scaling 0.331</text>
</g>
<!-- key 144450
bias &#45;0.619
h_scaling 0.331&#45;&gt;output
bias 0.994
h_scaling 0.133 -->
<g id="edge21" class="edge">
<title>key 144450
bias &#45;0.619
h_scaling 0.331&#45;&gt;output
bias 0.994
h_scaling 0.133</title>
<path fill="none" stroke="red" stroke-width="0.12" d="M184.53,-298.41C176.62,-330.96 169,-371.95 169,-409.2 169,-931.04 169,-931.04 169,-931.04 169,-965.76 177.93,-1003.14 187.92,-1034.09"/>
<polygon fill="red" stroke="red" stroke-width="0.12" points="184.71,-1035.52 191.19,-1043.9 191.35,-1033.31 184.71,-1035.52"/>
<text text-anchor="middle" x="183" y="-667.92" font-family="Times,serif" font-size="9.00">0.007</text>
</g>
<!-- key 144450
bias &#45;0.619
h_scaling 0.331&#45;&gt;key 137985
bias &#45;0.622
h_scaling 0.699 -->
<g id="edge13" class="edge">
<title>key 144450
bias &#45;0.619
h_scaling 0.331&#45;&gt;key 137985
bias &#45;0.622
h_scaling 0.699</title>
<path fill="none" stroke="red" stroke-width="3.06" d="M149.43,-273.16C110.44,-303.94 64,-352.49 64,-409.2 64,-1104.31 64,-1104.31 64,-1104.31 64,-1160.8 110.79,-1207.48 152.27,-1237.76"/>
<polygon fill="red" stroke="red" stroke-width="3.06" points="150.31,-1240.65 160.49,-1243.59 154.36,-1234.95 150.31,-1240.65"/>
<text text-anchor="middle" x="78" y="-754.56" font-family="Times,serif" font-size="9.00">0.985</text>
</g>
<!-- key 144450
bias &#45;0.619
h_scaling 0.331&#45;&gt;key 10216
bias &#45;0.504
h_scaling 0.295 -->
<g id="edge18" class="edge">
<title>key 144450
bias &#45;0.619
h_scaling 0.331&#45;&gt;key 10216
bias &#45;0.504
h_scaling 0.295</title>
<path fill="none" stroke="blue" stroke-width="1.26" d="M202,-173.11C202,-161.59 202,-149.48 202,-137.69"/>
<polygon fill="blue" stroke="blue" stroke-width="1.26" points="205.5,-137.44 202,-127.44 198.5,-137.44 205.5,-137.44"/>
<text text-anchor="middle" x="217.5" y="-148.08" font-family="Times,serif" font-size="9.00">&#45;0.386</text>
</g>
<!-- key 146208
bias &#45;0.225
h_scaling 1.000&#45;&gt;key 586
bias &#45;0.523
h_scaling 0.195 -->
<g id="edge15" class="edge">
<title>key 146208
bias &#45;0.225
h_scaling 1.000&#45;&gt;key 586
bias &#45;0.523
h_scaling 0.195</title>
<path fill="none" stroke="blue" stroke-width="1.31" d="M409.88,-696.33C405.23,-682.59 400.24,-667.86 395.45,-653.74"/>
<polygon fill="blue" stroke="blue" stroke-width="1.31" points="398.71,-652.44 392.19,-644.09 392.08,-654.68 398.71,-652.44"/>
<text text-anchor="middle" x="416.5" y="-667.92" font-family="Times,serif" font-size="9.00">&#45;0.404</text>
</g>
<!-- key 10216
bias &#45;0.504
h_scaling 0.295&#45;&gt;output
bias 0.994
h_scaling 0.133 -->
<g id="edge3" class="edge">
<title>key 10216
bias &#45;0.504
h_scaling 0.295&#45;&gt;output
bias 0.994
h_scaling 0.133</title>
<path fill="none" stroke="blue" stroke-width="2.86" d="M160.31,-112C135.96,-144.54 110,-190.01 110,-235.92 110,-497.84 110,-497.84 110,-497.84 110,-719.56 104.89,-780.26 165,-993.68 169.13,-1008.35 175.01,-1023.54 181.28,-1037.75"/>
<polygon fill="blue" stroke="blue" stroke-width="2.86" points="178.13,-1039.27 185.45,-1046.93 184.5,-1036.37 178.13,-1039.27"/>
<text text-anchor="middle" x="126.5" y="-581.28" font-family="Times,serif" font-size="9.00">&#45;0.920</text>
</g>
<!-- key 10216
bias &#45;0.504
h_scaling 0.295&#45;&gt;key 586
bias &#45;0.523
h_scaling 0.195 -->
<g id="edge6" class="edge">
<title>key 10216
bias &#45;0.504
h_scaling 0.295&#45;&gt;key 586
bias &#45;0.523
h_scaling 0.195</title>
<path fill="none" stroke="red" stroke-width="1.24" d="M251.41,-103.85C272.76,-122.91 296.57,-147.3 313,-173.28 378.21,-276.42 382.83,-423.05 378.57,-509.91"/>
<polygon fill="red" stroke="red" stroke-width="1.24" points="375.08,-509.77 378.03,-519.94 382.07,-510.14 375.08,-509.77"/>
<text text-anchor="middle" x="383" y="-321.36" font-family="Times,serif" font-size="9.00">0.380</text>
</g>
<!-- key 586
bias &#45;0.523
h_scaling 0.195&#45;&gt;output
bias 0.994
h_scaling 0.133 -->
<g id="edge7" class="edge">
<title>key 586
bias &#45;0.523
h_scaling 0.195&#45;&gt;output
bias 0.994
h_scaling 0.133</title>
<path fill="none" stroke="blue" stroke-width="3.06" d="M341.12,-639.34C332.64,-656.19 324.1,-675.06 318,-693.12 278.79,-809.21 246.84,-948.3 229.41,-1030.76"/>
<polygon fill="blue" stroke="blue" stroke-width="3.06" points="225.94,-1030.27 227.31,-1040.78 232.79,-1031.71 225.94,-1030.27"/>
<text text-anchor="middle" x="290.5" y="-841.2" font-family="Times,serif" font-size="9.00">&#45;0.988</text>
</g>
<!-- key 586
bias &#45;0.523
h_scaling 0.195&#45;&gt;key 10216
bias &#45;0.504
h_scaling 0.295 -->
<g id="edge2" class="edge">
<title>key 586
bias &#45;0.523
h_scaling 0.195&#45;&gt;key 10216
bias &#45;0.504
h_scaling 0.295</title>
<path fill="none" stroke="red" stroke-width="2.94" d="M366.05,-519.89C356.22,-436.95 331.71,-287.77 275,-173.28 266.66,-156.44 256.09,-139.15 245.6,-123.45"/>
<polygon fill="red" stroke="red" stroke-width="2.94" points="248.31,-121.21 239.8,-114.9 242.52,-125.14 248.31,-121.21"/>
<text text-anchor="middle" x="345" y="-321.36" font-family="Times,serif" font-size="9.00">0.947</text>
</g>
<!-- key 586
bias &#45;0.523
h_scaling 0.195&#45;&gt;key 586
bias &#45;0.523
h_scaling 0.195 -->
<g id="edge4" class="edge">
<title>key 586
bias &#45;0.523
h_scaling 0.195&#45;&gt;key 586
bias &#45;0.523
h_scaling 0.195</title>
<path fill="none" stroke="red" stroke-width="2.45" d="M433.94,-598.77C445.5,-596.89 453.64,-591.79 453.64,-583.48 453.64,-577.76 449.79,-573.56 443.63,-570.89"/>
<polygon fill="red" stroke="red" stroke-width="2.45" points="444.52,-567.5 433.94,-568.18 442.63,-574.24 444.52,-567.5"/>
<text text-anchor="middle" x="467.64" y="-581.28" font-family="Times,serif" font-size="9.00">0.782</text>
</g>
<!-- key 88924
bias &#45;0.359
h_scaling 0.000 -->
<g id="node10" class="node">
<title>key 88924
bias &#45;0.359
h_scaling 0.000</title>
<ellipse fill="white" stroke="black" cx="261" cy="-410.2" rx="63.78" ry="63.78"/>
<text text-anchor="middle" x="261" y="-418" font-family="Times,serif" font-size="9.00">key 88924</text>
<text text-anchor="middle" x="261" y="-408" font-family="Times,serif" font-size="9.00">bias &#45;0.359</text>
<text text-anchor="middle" x="261" y="-398" font-family="Times,serif" font-size="9.00">h_scaling 0.000</text>
</g>
<!-- key 586
bias &#45;0.523
h_scaling 0.195&#45;&gt;key 88924
bias &#45;0.359
h_scaling 0.000 -->
<g id="edge8" class="edge">
<title>key 586
bias &#45;0.523
h_scaling 0.195&#45;&gt;key 88924
bias &#45;0.359
h_scaling 0.000</title>
<path fill="none" stroke="red" stroke-width="2.95" d="M332.79,-532.95C325.28,-522.84 317.69,-512.14 311,-501.84 305.64,-493.59 300.29,-484.72 295.18,-475.87"/>
<polygon fill="red" stroke="red" stroke-width="2.95" points="298.16,-474.02 290.17,-467.06 292.07,-477.48 298.16,-474.02"/>
<text text-anchor="middle" x="325" y="-494.64" font-family="Times,serif" font-size="9.00">0.951</text>
</g>
<!-- key 150829
bias &#45;0.843
h_scaling 0.138&#45;&gt;key 146208
bias &#45;0.225
h_scaling 1.000 -->
<g id="edge20" class="edge">
<title>key 150829
bias &#45;0.843
h_scaling 0.138&#45;&gt;key 146208
bias &#45;0.225
h_scaling 1.000</title>
<path fill="none" stroke="blue" stroke-width="1.62" d="M388.03,-870.09C393.33,-855.88 399.05,-840.58 404.5,-825.99"/>
<polygon fill="blue" stroke="blue" stroke-width="1.62" points="407.82,-827.11 408.04,-816.52 401.26,-824.66 407.82,-827.11"/>
<text text-anchor="middle" x="413.5" y="-841.2" font-family="Times,serif" font-size="9.00">&#45;0.506</text>
</g>
<!-- key 150829
bias &#45;0.843
h_scaling 0.138&#45;&gt;key 586
bias &#45;0.523
h_scaling 0.195 -->
<g id="edge17" class="edge">
<title>key 150829
bias &#45;0.843
h_scaling 0.138&#45;&gt;key 586
bias &#45;0.523
h_scaling 0.195</title>
<path fill="none" stroke="red" stroke-width="0.45" d="M342.23,-870.74C336.78,-854.69 331.77,-837.1 329,-820.4 319.76,-764.59 318.4,-748.68 329,-693.12 331.69,-679.03 336.17,-664.44 341.25,-650.7"/>
<polygon fill="red" stroke="red" stroke-width="0.45" points="344.52,-651.93 344.85,-641.34 337.99,-649.42 344.52,-651.93"/>
<text text-anchor="middle" x="343" y="-754.56" font-family="Times,serif" font-size="9.00">0.118</text>
</g>
<!-- key 88924
bias &#45;0.359
h_scaling 0.000&#45;&gt;output
bias 0.994
h_scaling 0.133 -->
<g id="edge9" class="edge">
<title>key 88924
bias &#45;0.359
h_scaling 0.000&#45;&gt;output
bias 0.994
h_scaling 0.133</title>
<path fill="none" stroke="blue" stroke-width="2.67" d="M237.19,-469.61C225.97,-502.25 215,-543.99 215,-582.48 215,-931.04 215,-931.04 215,-931.04 215,-963.36 215,-999.12 215,-1029.57"/>
<polygon fill="blue" stroke="blue" stroke-width="2.67" points="211.5,-1029.67 215,-1039.67 218.5,-1029.67 211.5,-1029.67"/>
<text text-anchor="middle" x="230.5" y="-754.56" font-family="Times,serif" font-size="9.00">&#45;0.857</text>
</g>
<!-- key 88924
bias &#45;0.359
h_scaling 0.000&#45;&gt;key 144450
bias &#45;0.619
h_scaling 0.331 -->
<g id="edge12" class="edge">
<title>key 88924
bias &#45;0.359
h_scaling 0.000&#45;&gt;key 144450
bias &#45;0.619
h_scaling 0.331</title>
<path fill="none" stroke="red" stroke-width="2.93" d="M240.53,-349.77C235.77,-335.96 230.66,-321.13 225.78,-306.94"/>
<polygon fill="red" stroke="red" stroke-width="2.93" points="229,-305.55 222.43,-297.24 222.38,-307.83 229,-305.55"/>
<text text-anchor="middle" x="246" y="-321.36" font-family="Times,serif" font-size="9.00">0.943</text>
</g>
</g>
</svg>
