<?xml version="1.0" encoding="UTF-8" standalone="no"?>
<!DOCTYPE svg PUBLIC "-//W3C//DTD SVG 1.1//EN"
 "http://www.w3.org/Graphics/SVG/1.1/DTD/svg11.dtd">
<!-- Generated by graphviz version 2.43.0 (0)
 -->
<!-- Title: %3 Pages: 1 -->
<svg width="557pt" height="1385pt"
 viewBox="0.00 0.00 557.00 1385.23" xmlns="http://www.w3.org/2000/svg" xmlns:xlink="http://www.w3.org/1999/xlink">
<g id="graph0" class="graph" transform="scale(1 1) rotate(0) translate(4 1381.23)">
<title>%3</title>
<polygon fill="white" stroke="transparent" points="-4,4 -4,-1381.23 553,-1381.23 553,4 -4,4"/>
<!-- ready -->
<g id="node1" class="node">
<title>ready</title>
<polygon fill="yellow" stroke="black" points="514.5,-1377.23 471.5,-1377.23 471.5,-1359.23 514.5,-1359.23 514.5,-1377.23"/>
<text text-anchor="middle" x="493" y="-1366.03" font-family="Times,serif" font-size="9.00">ready</text>
</g>
<!-- key 137985
bias &#45;0.622
h_scaling 0.699 -->
<g id="node4" class="node">
<title>key 137985
bias &#45;0.622
h_scaling 0.699</title>
<ellipse fill="white" stroke="black" cx="196" cy="-1249.59" rx="63.78" ry="63.78"/>
<text text-anchor="middle" x="196" y="-1257.39" font-family="Times,serif" font-size="9.00">key 137985</text>
<text text-anchor="middle" x="196" y="-1247.39" font-family="Times,serif" font-size="9.00">bias &#45;0.622</text>
<text text-anchor="middle" x="196" y="-1237.39" font-family="Times,serif" font-size="9.00">h_scaling 0.699</text>
</g>
<!-- ready&#45;&gt;key 137985
bias &#45;0.622
h_scaling 0.699 -->
<g id="edge19" class="edge">
<title>ready&#45;&gt;key 137985
bias &#45;0.622
h_scaling 0.699</title>
<path fill="none" stroke="blue" stroke-width="0.1" d="M472.59,-1359.22C430.43,-1342.66 332.07,-1304.03 264.76,-1277.6"/>
<polygon fill="blue" stroke="blue" stroke-width="0.1" points="265.66,-1274.19 255.07,-1273.79 263.1,-1280.71 265.66,-1274.19"/>
</g>
<!-- key 146208
bias &#45;0.225
h_scaling 1.000 -->
<g id="node6" class="node">
<title>key 146208
bias &#45;0.225
h_scaling 1.000</title>
<ellipse fill="white" stroke="black" cx="390" cy="-747.76" rx="63.78" ry="63.78"/>
<text text-anchor="middle" x="390" y="-755.56" font-family="Times,serif" font-size="9.00">key 146208</text>
<text text-anchor="middle" x="390" y="-745.56" font-family="Times,serif" font-size="9.00">bias &#45;0.225</text>
<text text-anchor="middle" x="390" y="-735.56" font-family="Times,serif" font-size="9.00">h_scaling 1.000</text>
</g>
<!-- ready&#45;&gt;key 146208
bias &#45;0.225
h_scaling 1.000 -->
<g id="edge14" class="edge">
<title>ready&#45;&gt;key 146208
bias &#45;0.225
h_scaling 1.000</title>
<path fill="none" stroke="red" stroke-width="0.65" d="M493,-1359.03C493,-1339.99 493,-1291.3 493,-1250.59 493,-1250.59 493,-1250.59 493,-911.04 493,-869.07 468.14,-829.17 442.85,-799.44"/>
<polygon fill="red" stroke="red" stroke-width="0.65" points="445.3,-796.93 436.08,-791.72 440.04,-801.54 445.3,-796.93"/>
<text text-anchor="middle" x="507" y="-1083.11" font-family="Times,serif" font-size="9.00">0.018</text>
</g>
<!-- key 586
bias &#45;0.523
h_scaling 0.195 -->
<g id="node8" class="node">
<title>key 586
bias &#45;0.523
h_scaling 0.195</title>
<ellipse fill="white" stroke="black" cx="354" cy="-574.48" rx="63.78" ry="63.78"/>
<text text-anchor="middle" x="354" y="-582.28" font-family="Times,serif" font-size="9.00">key 586</text>
<text text-anchor="middle" x="354" y="-572.28" font-family="Times,serif" font-size="9.00">bias &#45;0.523</text>
<text text-anchor="middle" x="354" y="-562.28" font-family="Times,serif" font-size="9.00">h_scaling 0.195</text>
</g>
<!-- ready&#45;&gt;key 586
bias &#45;0.523
h_scaling 0.195 -->
<g id="edge10" class="edge">
<title>ready&#45;&gt;key 586
bias &#45;0.523
h_scaling 0.195</title>
<path fill="none" stroke="blue" stroke-width="0.1" d="M500.09,-1359.11C515.16,-1340.98 549,-1295.3 549,-1250.59 549,-1250.59 549,-1250.59 549,-746.76 549,-677.5 478.71,-629.67 422.54,-602.5"/>
<polygon fill="blue" stroke="blue" stroke-width="0.1" points="423.84,-599.24 413.3,-598.15 420.86,-605.58 423.84,-599.24"/>
</g>
<!-- go -->
<g id="node2" class="node">
<title>go</title>
<polygon fill="green" stroke="black" points="210,-1377.23 182,-1377.23 182,-1359.23 210,-1359.23 210,-1377.23"/>
<text text-anchor="middle" x="196" y="-1366.03" font-family="Times,serif" font-size="9.00">go</text>
</g>
<!-- go&#45;&gt;key 137985
bias &#45;0.622
h_scaling 0.699 -->
<g id="edge22" class="edge">
<title>go&#45;&gt;key 137985
bias &#45;0.622
h_scaling 0.699</title>
<path fill="none" stroke="red" stroke-width="1.01" d="M196,-1359.22C196,-1351.19 196,-1337.97 196,-1323.46"/>
<polygon fill="red" stroke="red" stroke-width="1.01" points="199.5,-1323.27 196,-1313.27 192.5,-1323.27 199.5,-1323.27"/>
<text text-anchor="middle" x="210" y="-1334.03" font-family="Times,serif" font-size="9.00">0.030</text>
</g>
<!-- key 10216
bias &#45;0.504
h_scaling 0.295 -->
<g id="node7" class="node">
<title>key 10216
bias &#45;0.504
h_scaling 0.295</title>
<ellipse fill="white" stroke="black" cx="212" cy="-63.64" rx="63.78" ry="63.78"/>
<text text-anchor="middle" x="212" y="-71.44" font-family="Times,serif" font-size="9.00">key 10216</text>
<text text-anchor="middle" x="212" y="-61.44" font-family="Times,serif" font-size="9.00">bias &#45;0.504</text>
<text text-anchor="middle" x="212" y="-51.44" font-family="Times,serif" font-size="9.00">h_scaling 0.295</text>
</g>
<!-- go&#45;&gt;key 10216
bias &#45;0.504
h_scaling 0.295 -->
<g id="edge5" class="edge">
<title>go&#45;&gt;key 10216
bias &#45;0.504
h_scaling 0.295</title>
<path fill="none" stroke="red" stroke-width="0.87" d="M181.9,-1365.69C136.96,-1359.91 0,-1335.33 0,-1250.59 0,-1250.59 0,-1250.59 0,-226.92 0,-154.21 79.59,-109.68 141.24,-86.09"/>
<polygon fill="red" stroke="red" stroke-width="0.87" points="142.81,-89.24 150.97,-82.48 140.37,-82.68 142.81,-89.24"/>
<text text-anchor="middle" x="14" y="-745.56" font-family="Times,serif" font-size="9.00">0.026</text>
</g>
<!-- go&#45;&gt;key 586
bias &#45;0.523
h_scaling 0.195 -->
<g id="edge1" class="edge">
<title>go&#45;&gt;key 586
bias &#45;0.523
h_scaling 0.195</title>
<path fill="none" stroke="red" stroke-width="0.91" d="M210.26,-1359.94C226.52,-1350.97 252.94,-1334.29 269,-1313.23 413.98,-1123.07 419.15,-1046.47 463,-811.4 473.37,-755.79 484.69,-736.36 463,-684.12 452.51,-658.85 432.96,-636.41 413.29,-618.58"/>
<polygon fill="red" stroke="red" stroke-width="0.91" points="415.59,-615.94 405.77,-611.97 410.97,-621.2 415.59,-615.94"/>
<text text-anchor="middle" x="442" y="-996.48" font-family="Times,serif" font-size="9.00">0.027</text>
</g>
<!-- output
bias 0.994
h_scaling 0.133 -->
<g id="node3" class="node">
<title>output
bias 0.994
h_scaling 0.133</title>
<ellipse fill="lightblue" stroke="black" cx="196" cy="-1085.31" rx="63.78" ry="63.78"/>
<text text-anchor="middle" x="196" y="-1093.11" font-family="Times,serif" font-size="9.00">output</text>
<text text-anchor="middle" x="196" y="-1083.11" font-family="Times,serif" font-size="9.00">bias 0.994</text>
<text text-anchor="middle" x="196" y="-1073.11" font-family="Times,serif" font-size="9.00">h_scaling 0.133</text>
</g>
<!-- key 150829
bias &#45;0.843
h_scaling 0.138 -->
<g id="node9" class="node">
<title>key 150829
bias &#45;0.843
h_scaling 0.138</title>
<ellipse fill="white" stroke="black" cx="326" cy="-912.04" rx="63.78" ry="63.78"/>
<text text-anchor="middle" x="326" y="-919.84" font-family="Times,serif" font-size="9.00">key 150829</text>
<text text-anchor="middle" x="326" y="-909.84" font-family="Times,serif" font-size="9.00">bias &#45;0.843</text>
<text text-anchor="middle" x="326" y="-899.84" font-family="Times,serif" font-size="9.00">h_scaling 0.138</text>
</g>
<!-- output
bias 0.994
h_scaling 0.133&#45;&gt;key 150829
bias &#45;0.843
h_scaling 0.138 -->
<g id="edge16" class="edge">
<title>output
bias 0.994
h_scaling 0.133&#45;&gt;key 150829
bias &#45;0.843
h_scaling 0.138</title>
<path fill="none" stroke="red" stroke-width="0.73" d="M234.3,-1033.85C249.24,-1014.16 266.47,-991.47 281.92,-971.11"/>
<polygon fill="red" stroke="red" stroke-width="0.73" points="284.71,-973.22 287.97,-963.14 279.14,-968.99 284.71,-973.22"/>
<text text-anchor="middle" x="275" y="-996.48" font-family="Times,serif" font-size="9.00">0.021</text>
</g>
<!-- key 137985
bias &#45;0.622
h_scaling 0.699&#45;&gt;output
bias 0.994
h_scaling 0.133 -->
<g id="edge11" class="edge">
<title>key 137985
bias &#45;0.622
h_scaling 0.699&#45;&gt;output
bias 0.994
h_scaling 0.133</title>
<path fill="none" stroke="blue" stroke-width="0.1" d="M196,-1185.85C196,-1177.2 196,-1168.25 196,-1159.43"/>
<polygon fill="blue" stroke="blue" stroke-width="0.1" points="199.5,-1159.16 196,-1149.16 192.5,-1159.16 199.5,-1159.16"/>
</g>
<!-- key 144450
bias &#45;0.619
h_scaling 0.331 -->
<g id="node5" class="node">
<title>key 144450
bias &#45;0.619
h_scaling 0.331</title>
<ellipse fill="white" stroke="black" cx="212" cy="-227.92" rx="63.78" ry="63.78"/>
<text text-anchor="middle" x="212" y="-235.72" font-family="Times,serif" font-size="9.00">key 144450</text>
<text text-anchor="middle" x="212" y="-225.72" font-family="Times,serif" font-size="9.00">bias &#45;0.619</text>
<text text-anchor="middle" x="212" y="-215.72" font-family="Times,serif" font-size="9.00">h_scaling 0.331</text>
</g>
<!-- key 144450
bias &#45;0.619
h_scaling 0.331&#45;&gt;output
bias 0.994
h_scaling 0.133 -->
<g id="edge21" class="edge">
<title>key 144450
bias &#45;0.619
h_scaling 0.331&#45;&gt;output
bias 0.994
h_scaling 0.133</title>
<path fill="none" stroke="red" stroke-width="0.6" d="M184.68,-285.4C171.29,-318.14 158,-360.6 158,-400.2 158,-913.04 158,-913.04 158,-913.04 158,-947.12 165.26,-984.13 173.43,-1014.99"/>
<polygon fill="red" stroke="red" stroke-width="0.6" points="170.1,-1016.06 176.11,-1024.79 176.85,-1014.22 170.1,-1016.06"/>
<text text-anchor="middle" x="172" y="-658.92" font-family="Times,serif" font-size="9.00">0.017</text>
</g>
<!-- key 144450
bias &#45;0.619
h_scaling 0.331&#45;&gt;key 137985
bias &#45;0.622
h_scaling 0.699 -->
<g id="edge13" class="edge">
<title>key 144450
bias &#45;0.619
h_scaling 0.331&#45;&gt;key 137985
bias &#45;0.622
h_scaling 0.699</title>
<path fill="none" stroke="red" stroke-width="0.91" d="M157.73,-261.78C115.49,-291.93 64,-340.86 64,-400.2 64,-1086.31 64,-1086.31 64,-1086.31 64,-1135.44 100.85,-1177.96 135.62,-1207.14"/>
<polygon fill="red" stroke="red" stroke-width="0.91" points="133.49,-1209.92 143.45,-1213.53 137.91,-1204.49 133.49,-1209.92"/>
<text text-anchor="middle" x="78" y="-745.56" font-family="Times,serif" font-size="9.00">0.027</text>
</g>
<!-- key 144450
bias &#45;0.619
h_scaling 0.331&#45;&gt;key 10216
bias &#45;0.504
h_scaling 0.295 -->
<g id="edge18" class="edge">
<title>key 144450
bias &#45;0.619
h_scaling 0.331&#45;&gt;key 10216
bias &#45;0.504
h_scaling 0.295</title>
<path fill="none" stroke="blue" stroke-width="0.1" d="M212,-164.18C212,-155.52 212,-146.57 212,-137.75"/>
<polygon fill="blue" stroke="blue" stroke-width="0.1" points="215.5,-137.48 212,-127.48 208.5,-137.48 215.5,-137.48"/>
</g>
<!-- key 146208
bias &#45;0.225
h_scaling 1.000&#45;&gt;key 586
bias &#45;0.523
h_scaling 0.195 -->
<g id="edge15" class="edge">
<title>key 146208
bias &#45;0.225
h_scaling 1.000&#45;&gt;key 586
bias &#45;0.523
h_scaling 0.195</title>
<path fill="none" stroke="blue" stroke-width="0.1" d="M377.1,-685.4C374.49,-672.98 371.73,-659.82 369.05,-647.08"/>
<polygon fill="blue" stroke="blue" stroke-width="0.1" points="372.41,-646.04 366.93,-636.98 365.56,-647.48 372.41,-646.04"/>
</g>
<!-- key 10216
bias &#45;0.504
h_scaling 0.295&#45;&gt;output
bias 0.994
h_scaling 0.133 -->
<g id="edge3" class="edge">
<title>key 10216
bias &#45;0.504
h_scaling 0.295&#45;&gt;output
bias 0.994
h_scaling 0.133</title>
<path fill="none" stroke="blue" stroke-width="0.1" d="M168.96,-110.85C145.02,-141.41 120,-183.68 120,-226.92 120,-913.04 120,-913.04 120,-913.04 120,-952.29 136.88,-992.59 154.73,-1024.23"/>
<polygon fill="blue" stroke="blue" stroke-width="0.1" points="151.73,-1026.03 159.78,-1032.91 157.78,-1022.51 151.73,-1026.03"/>
</g>
<!-- key 10216
bias &#45;0.504
h_scaling 0.295&#45;&gt;key 586
bias &#45;0.523
h_scaling 0.195 -->
<g id="edge6" class="edge">
<title>key 10216
bias &#45;0.504
h_scaling 0.295&#45;&gt;key 586
bias &#45;0.523
h_scaling 0.195</title>
<path fill="none" stroke="red" stroke-width="2.17" d="M263.05,-101.93C283.26,-118.96 305.16,-140.61 320,-164.28 384.55,-267.27 378.2,-414.58 366.76,-501.5"/>
<polygon fill="red" stroke="red" stroke-width="2.17" points="363.27,-501.15 365.38,-511.53 370.21,-502.1 363.27,-501.15"/>
<text text-anchor="middle" x="384" y="-312.36" font-family="Times,serif" font-size="9.00">0.069</text>
</g>
<!-- key 586
bias &#45;0.523
h_scaling 0.195&#45;&gt;output
bias 0.994
h_scaling 0.133 -->
<g id="edge7" class="edge">
<title>key 586
bias &#45;0.523
h_scaling 0.195&#45;&gt;output
bias 0.994
h_scaling 0.133</title>
<path fill="none" stroke="blue" stroke-width="0.1" d="M311.89,-622.58C298.1,-640.61 284.22,-662.15 276,-684.12 264.64,-714.45 228.7,-905.62 209.08,-1012.39"/>
<polygon fill="blue" stroke="blue" stroke-width="0.1" points="205.6,-1011.99 207.23,-1022.46 212.48,-1013.25 205.6,-1011.99"/>
</g>
<!-- key 586
bias &#45;0.523
h_scaling 0.195&#45;&gt;key 10216
bias &#45;0.504
h_scaling 0.295 -->
<g id="edge2" class="edge">
<title>key 586
bias &#45;0.523
h_scaling 0.195&#45;&gt;key 10216
bias &#45;0.504
h_scaling 0.295</title>
<path fill="none" stroke="red" stroke-width="2.17" d="M353.22,-510.66C350.04,-427.79 336.81,-279.02 285,-164.28 278.2,-149.23 268.89,-134.21 259.19,-120.58"/>
<polygon fill="red" stroke="red" stroke-width="2.17" points="261.85,-118.28 253.12,-112.28 256.2,-122.41 261.85,-118.28"/>
<text text-anchor="middle" x="346" y="-312.36" font-family="Times,serif" font-size="9.00">0.069</text>
</g>
<!-- key 586
bias &#45;0.523
h_scaling 0.195&#45;&gt;key 586
bias &#45;0.523
h_scaling 0.195 -->
<g id="edge4" class="edge">
<title>key 586
bias &#45;0.523
h_scaling 0.195&#45;&gt;key 586
bias &#45;0.523
h_scaling 0.195</title>
<path fill="none" stroke="red" stroke-width="2.49" d="M415.94,-589.77C427.5,-587.89 435.64,-582.79 435.64,-574.48 435.64,-568.76 431.79,-564.56 425.63,-561.89"/>
<polygon fill="red" stroke="red" stroke-width="2.49" points="426.52,-558.5 415.94,-559.18 424.63,-565.24 426.52,-558.5"/>
<text text-anchor="middle" x="449.64" y="-572.28" font-family="Times,serif" font-size="9.00">0.080</text>
</g>
<!-- key 88924
bias &#45;0.359
h_scaling 0.000 -->
<g id="node10" class="node">
<title>key 88924
bias &#45;0.359
h_scaling 0.000</title>
<ellipse fill="white" stroke="black" cx="250" cy="-401.2" rx="63.78" ry="63.78"/>
<text text-anchor="middle" x="250" y="-409" font-family="Times,serif" font-size="9.00">key 88924</text>
<text text-anchor="middle" x="250" y="-399" font-family="Times,serif" font-size="9.00">bias &#45;0.359</text>
<text text-anchor="middle" x="250" y="-389" font-family="Times,serif" font-size="9.00">h_scaling 0.000</text>
</g>
<!-- key 586
bias &#45;0.523
h_scaling 0.195&#45;&gt;key 88924
bias &#45;0.359
h_scaling 0.000 -->
<g id="edge8" class="edge">
<title>key 586
bias &#45;0.523
h_scaling 0.195&#45;&gt;key 88924
bias &#45;0.359
h_scaling 0.000</title>
<path fill="none" stroke="red" stroke-width="1.81" d="M318.19,-521.41C311.98,-511.99 305.7,-502.19 300,-492.84 294.88,-484.43 289.67,-475.48 284.63,-466.59"/>
<polygon fill="red" stroke="red" stroke-width="1.81" points="287.61,-464.76 279.66,-457.75 281.51,-468.19 287.61,-464.76"/>
<text text-anchor="middle" x="314" y="-485.64" font-family="Times,serif" font-size="9.00">0.057</text>
</g>
<!-- key 150829
bias &#45;0.843
h_scaling 0.138&#45;&gt;key 146208
bias &#45;0.225
h_scaling 1.000 -->
<g id="edge20" class="edge">
<title>key 150829
bias &#45;0.843
h_scaling 0.138&#45;&gt;key 146208
bias &#45;0.225
h_scaling 1.000</title>
<path fill="none" stroke="blue" stroke-width="0.1" d="M349.11,-852.45C353.68,-840.84 358.52,-828.57 363.21,-816.69"/>
<polygon fill="blue" stroke="blue" stroke-width="0.1" points="366.52,-817.84 366.93,-807.26 360,-815.28 366.52,-817.84"/>
</g>
<!-- key 150829
bias &#45;0.843
h_scaling 0.138&#45;&gt;key 586
bias &#45;0.523
h_scaling 0.195 -->
<g id="edge17" class="edge">
<title>key 150829
bias &#45;0.843
h_scaling 0.138&#45;&gt;key 586
bias &#45;0.523
h_scaling 0.195</title>
<path fill="none" stroke="red" stroke-width="0.46" d="M300.71,-853.53C295.86,-839.97 291.51,-825.38 289,-811.4 279,-755.72 273.93,-738.64 289,-684.12 293.7,-667.12 301.84,-650.1 310.8,-634.74"/>
<polygon fill="red" stroke="red" stroke-width="0.46" points="313.96,-636.28 316.15,-625.91 307.98,-632.65 313.96,-636.28"/>
<text text-anchor="middle" x="303" y="-745.56" font-family="Times,serif" font-size="9.00">0.012</text>
</g>
<!-- key 88924
bias &#45;0.359
h_scaling 0.000&#45;&gt;output
bias 0.994
h_scaling 0.133 -->
<g id="edge9" class="edge">
<title>key 88924
bias &#45;0.359
h_scaling 0.000&#45;&gt;output
bias 0.994
h_scaling 0.133</title>
<path fill="none" stroke="blue" stroke-width="0.1" d="M244.61,-464.62C237.21,-550.89 223.61,-711.42 213,-848.4 208.76,-903.13 204.31,-965.04 201.03,-1011.7"/>
<polygon fill="blue" stroke="blue" stroke-width="0.1" points="197.53,-1011.49 200.33,-1021.71 204.52,-1011.98 197.53,-1011.49"/>
</g>
<!-- key 88924
bias &#45;0.359
h_scaling 0.000&#45;&gt;key 144450
bias &#45;0.619
h_scaling 0.331 -->
<g id="edge12" class="edge">
<title>key 88924
bias &#45;0.359
h_scaling 0.000&#45;&gt;key 144450
bias &#45;0.619
h_scaling 0.331</title>
<path fill="none" stroke="red" stroke-width="1.7" d="M236.39,-338.85C233.59,-326.22 230.62,-312.84 227.75,-299.91"/>
<polygon fill="red" stroke="red" stroke-width="1.7" points="231.16,-299.13 225.58,-290.13 224.33,-300.65 231.16,-299.13"/>
<text text-anchor="middle" x="245" y="-312.36" font-family="Times,serif" font-size="9.00">0.053</text>
</g>
</g>
</svg>
