<?xml version="1.0" encoding="UTF-8" standalone="no"?>
<!DOCTYPE svg PUBLIC "-//W3C//DTD SVG 1.1//EN"
 "http://www.w3.org/Graphics/SVG/1.1/DTD/svg11.dtd">
<!-- Generated by graphviz version 2.43.0 (0)
 -->
<!-- Title: %3 Pages: 1 -->
<svg width="411pt" height="719pt"
 viewBox="0.00 0.00 411.28 719.12" xmlns="http://www.w3.org/2000/svg" xmlns:xlink="http://www.w3.org/1999/xlink">
<g id="graph0" class="graph" transform="scale(1 1) rotate(0) translate(4 715.12)">
<title>%3</title>
<polygon fill="white" stroke="transparent" points="-4,4 -4,-715.12 407.28,-715.12 407.28,4 -4,4"/>
<!-- ready -->
<g id="node1" class="node">
<title>ready</title>
<polygon fill="yellow" stroke="black" points="239.14,-711.12 196.14,-711.12 196.14,-693.12 239.14,-693.12 239.14,-711.12"/>
<text text-anchor="middle" x="217.64" y="-699.92" font-family="Times,serif" font-size="9.00">ready</text>
</g>
<!-- key 1796
bias &#45;0.208
h_scaling 1.000 -->
<g id="node4" class="node">
<title>key 1796
bias &#45;0.208
h_scaling 1.000</title>
<ellipse fill="white" stroke="black" cx="201.64" cy="-410.2" rx="63.78" ry="63.78"/>
<text text-anchor="middle" x="201.64" y="-418" font-family="Times,serif" font-size="9.00">key 1796</text>
<text text-anchor="middle" x="201.64" y="-408" font-family="Times,serif" font-size="9.00">bias &#45;0.208</text>
<text text-anchor="middle" x="201.64" y="-398" font-family="Times,serif" font-size="9.00">h_scaling 1.000</text>
</g>
<!-- ready&#45;&gt;key 1796
bias &#45;0.208
h_scaling 1.000 -->
<g id="edge2" class="edge">
<title>ready&#45;&gt;key 1796
bias &#45;0.208
h_scaling 1.000</title>
<path fill="none" stroke="blue" stroke-width="0.1" d="M217.19,-693.06C215.55,-663.23 209.69,-557.03 205.65,-483.85"/>
<polygon fill="blue" stroke="blue" stroke-width="0.1" points="209.14,-483.55 205.09,-473.76 202.15,-483.94 209.14,-483.55"/>
</g>
<!-- key 8953
bias &#45;0.517
h_scaling 1.000 -->
<g id="node6" class="node">
<title>key 8953
bias &#45;0.517
h_scaling 1.000</title>
<ellipse fill="white" stroke="black" cx="293.64" cy="-583.48" rx="63.78" ry="63.78"/>
<text text-anchor="middle" x="293.64" y="-591.28" font-family="Times,serif" font-size="9.00">key 8953</text>
<text text-anchor="middle" x="293.64" y="-581.28" font-family="Times,serif" font-size="9.00">bias &#45;0.517</text>
<text text-anchor="middle" x="293.64" y="-571.28" font-family="Times,serif" font-size="9.00">h_scaling 1.000</text>
</g>
<!-- ready&#45;&gt;key 8953
bias &#45;0.517
h_scaling 1.000 -->
<g id="edge5" class="edge">
<title>ready&#45;&gt;key 8953
bias &#45;0.517
h_scaling 1.000</title>
<path fill="none" stroke="red" stroke-width="0.1" d="M222.86,-693.1C229.49,-682.92 241.56,-664.4 253.87,-645.51"/>
<polygon fill="red" stroke="red" stroke-width="0.1" points="256.81,-647.41 259.34,-637.12 250.95,-643.59 256.81,-647.41"/>
<text text-anchor="middle" x="254.64" y="-667.92" font-family="Times,serif" font-size="9.00">0.000</text>
</g>
<!-- go -->
<g id="node2" class="node">
<title>go</title>
<polygon fill="green" stroke="black" points="118.64,-592.48 90.64,-592.48 90.64,-574.48 118.64,-574.48 118.64,-592.48"/>
<text text-anchor="middle" x="104.64" y="-581.28" font-family="Times,serif" font-size="9.00">go</text>
</g>
<!-- go&#45;&gt;key 1796
bias &#45;0.208
h_scaling 1.000 -->
<g id="edge3" class="edge">
<title>go&#45;&gt;key 1796
bias &#45;0.208
h_scaling 1.000</title>
<path fill="none" stroke="red" stroke-width="0.1" d="M109.32,-574.22C119.44,-556.34 144.2,-512.63 165.52,-474.97"/>
<polygon fill="red" stroke="red" stroke-width="0.1" points="168.7,-476.47 170.58,-466.04 162.61,-473.02 168.7,-476.47"/>
<text text-anchor="middle" x="167.64" y="-494.64" font-family="Times,serif" font-size="9.00">0.000</text>
</g>
<!-- key 6492
bias &#45;0.643
h_scaling 1.000 -->
<g id="node8" class="node">
<title>key 6492
bias &#45;0.643
h_scaling 1.000</title>
<ellipse fill="white" stroke="black" cx="63.64" cy="-236.92" rx="63.78" ry="63.78"/>
<text text-anchor="middle" x="63.64" y="-244.72" font-family="Times,serif" font-size="9.00">key 6492</text>
<text text-anchor="middle" x="63.64" y="-234.72" font-family="Times,serif" font-size="9.00">bias &#45;0.643</text>
<text text-anchor="middle" x="63.64" y="-224.72" font-family="Times,serif" font-size="9.00">h_scaling 1.000</text>
</g>
<!-- go&#45;&gt;key 6492
bias &#45;0.643
h_scaling 1.000 -->
<g id="edge9" class="edge">
<title>go&#45;&gt;key 6492
bias &#45;0.643
h_scaling 1.000</title>
<path fill="none" stroke="red" stroke-width="0.1" d="M103.67,-574.3C99.48,-539.11 82.73,-398.37 72.27,-310.46"/>
<polygon fill="red" stroke="red" stroke-width="0.1" points="75.72,-309.8 71.06,-300.28 68.77,-310.62 75.72,-309.8"/>
<text text-anchor="middle" x="105.64" y="-408" font-family="Times,serif" font-size="9.00">0.000</text>
</g>
<!-- output
bias 0.623
h_scaling 1.000 -->
<g id="node3" class="node">
<title>output
bias 0.623
h_scaling 1.000</title>
<ellipse fill="lightblue" stroke="black" cx="118.64" cy="-63.64" rx="63.78" ry="63.78"/>
<text text-anchor="middle" x="118.64" y="-71.44" font-family="Times,serif" font-size="9.00">output</text>
<text text-anchor="middle" x="118.64" y="-61.44" font-family="Times,serif" font-size="9.00">bias 0.623</text>
<text text-anchor="middle" x="118.64" y="-51.44" font-family="Times,serif" font-size="9.00">h_scaling 1.000</text>
</g>
<!-- key 1796
bias &#45;0.208
h_scaling 1.000&#45;&gt;output
bias 0.623
h_scaling 1.000 -->
<g id="edge1" class="edge">
<title>key 1796
bias &#45;0.208
h_scaling 1.000&#45;&gt;output
bias 0.623
h_scaling 1.000</title>
<path fill="none" stroke="blue" stroke-width="0.1" d="M204.16,-346.39C204.31,-297.99 200.58,-229.99 182.64,-173.28 177.4,-156.7 169.25,-139.96 160.5,-124.74"/>
<polygon fill="blue" stroke="blue" stroke-width="0.1" points="163.41,-122.79 155.3,-115.97 157.39,-126.36 163.41,-122.79"/>
</g>
<!-- key 9529
bias &#45;0.580
h_scaling 1.000 -->
<g id="node7" class="node">
<title>key 9529
bias &#45;0.580
h_scaling 1.000</title>
<ellipse fill="white" stroke="black" cx="331.64" cy="-236.92" rx="63.78" ry="63.78"/>
<text text-anchor="middle" x="331.64" y="-244.72" font-family="Times,serif" font-size="9.00">key 9529</text>
<text text-anchor="middle" x="331.64" y="-234.72" font-family="Times,serif" font-size="9.00">bias &#45;0.580</text>
<text text-anchor="middle" x="331.64" y="-224.72" font-family="Times,serif" font-size="9.00">h_scaling 1.000</text>
</g>
<!-- key 1796
bias &#45;0.208
h_scaling 1.000&#45;&gt;key 9529
bias &#45;0.580
h_scaling 1.000 -->
<g id="edge14" class="edge">
<title>key 1796
bias &#45;0.208
h_scaling 1.000&#45;&gt;key 9529
bias &#45;0.580
h_scaling 1.000</title>
<path fill="none" stroke="red" stroke-width="0.1" d="M239.94,-358.74C254.88,-339.05 272.11,-316.36 287.56,-295.99"/>
<polygon fill="red" stroke="red" stroke-width="0.1" points="290.35,-298.1 293.61,-288.02 284.78,-293.87 290.35,-298.1"/>
<text text-anchor="middle" x="280.64" y="-321.36" font-family="Times,serif" font-size="9.00">0.000</text>
</g>
<!-- key 1796
bias &#45;0.208
h_scaling 1.000&#45;&gt;key 6492
bias &#45;0.643
h_scaling 1.000 -->
<g id="edge4" class="edge">
<title>key 1796
bias &#45;0.208
h_scaling 1.000&#45;&gt;key 6492
bias &#45;0.643
h_scaling 1.000</title>
<path fill="none" stroke="red" stroke-width="0.1" d="M165.51,-357.71C156.04,-344.74 145.67,-330.98 135.64,-318.56 128.53,-309.75 120.77,-300.61 113.06,-291.79"/>
<polygon fill="red" stroke="red" stroke-width="0.1" points="115.56,-289.33 106.32,-284.14 110.31,-293.96 115.56,-289.33"/>
<text text-anchor="middle" x="157.64" y="-321.36" font-family="Times,serif" font-size="9.00">0.000</text>
</g>
<!-- key 50826
bias &#45;0.609
h_scaling 1.000 -->
<g id="node5" class="node">
<title>key 50826
bias &#45;0.609
h_scaling 1.000</title>
<ellipse fill="white" stroke="black" cx="279.64" cy="-63.64" rx="63.78" ry="63.78"/>
<text text-anchor="middle" x="279.64" y="-71.44" font-family="Times,serif" font-size="9.00">key 50826</text>
<text text-anchor="middle" x="279.64" y="-61.44" font-family="Times,serif" font-size="9.00">bias &#45;0.609</text>
<text text-anchor="middle" x="279.64" y="-51.44" font-family="Times,serif" font-size="9.00">h_scaling 1.000</text>
</g>
<!-- key 50826
bias &#45;0.609
h_scaling 1.000&#45;&gt;key 1796
bias &#45;0.208
h_scaling 1.000 -->
<g id="edge13" class="edge">
<title>key 50826
bias &#45;0.609
h_scaling 1.000&#45;&gt;key 1796
bias &#45;0.208
h_scaling 1.000</title>
<path fill="none" stroke="blue" stroke-width="0.1" d="M265.78,-125.85C252.32,-185.33 231.88,-275.59 217.71,-338.19"/>
<polygon fill="blue" stroke="blue" stroke-width="0.1" points="214.29,-337.47 215.49,-347.99 221.12,-339.01 214.29,-337.47"/>
</g>
<!-- key 8953
bias &#45;0.517
h_scaling 1.000&#45;&gt;key 1796
bias &#45;0.208
h_scaling 1.000 -->
<g id="edge6" class="edge">
<title>key 8953
bias &#45;0.517
h_scaling 1.000&#45;&gt;key 1796
bias &#45;0.208
h_scaling 1.000</title>
<path fill="none" stroke="blue" stroke-width="0.1" d="M263.77,-526.87C255,-510.55 245.34,-492.56 236.31,-475.74"/>
<polygon fill="blue" stroke="blue" stroke-width="0.1" points="239.17,-473.68 231.36,-466.53 233.01,-476.99 239.17,-473.68"/>
</g>
<!-- key 8953
bias &#45;0.517
h_scaling 1.000&#45;&gt;key 8953
bias &#45;0.517
h_scaling 1.000 -->
<g id="edge8" class="edge">
<title>key 8953
bias &#45;0.517
h_scaling 1.000&#45;&gt;key 8953
bias &#45;0.517
h_scaling 1.000</title>
<path fill="none" stroke="red" stroke-width="0.1" d="M355.58,-598.77C367.14,-596.89 375.28,-591.79 375.28,-583.48 375.28,-577.76 371.43,-573.56 365.27,-570.89"/>
<polygon fill="red" stroke="red" stroke-width="0.1" points="366.16,-567.5 355.58,-568.18 364.27,-574.24 366.16,-567.5"/>
<text text-anchor="middle" x="389.28" y="-581.28" font-family="Times,serif" font-size="9.00">0.000</text>
</g>
<!-- key 8953
bias &#45;0.517
h_scaling 1.000&#45;&gt;key 9529
bias &#45;0.580
h_scaling 1.000 -->
<g id="edge7" class="edge">
<title>key 8953
bias &#45;0.517
h_scaling 1.000&#45;&gt;key 9529
bias &#45;0.580
h_scaling 1.000</title>
<path fill="none" stroke="red" stroke-width="0.1" d="M300.52,-520.08C307.02,-461.11 316.78,-372.66 323.63,-310.55"/>
<polygon fill="red" stroke="red" stroke-width="0.1" points="327.13,-310.76 324.75,-300.43 320.17,-309.99 327.13,-310.76"/>
<text text-anchor="middle" x="332.64" y="-408" font-family="Times,serif" font-size="9.00">0.000</text>
</g>
<!-- key 9529
bias &#45;0.580
h_scaling 1.000&#45;&gt;key 50826
bias &#45;0.609
h_scaling 1.000 -->
<g id="edge12" class="edge">
<title>key 9529
bias &#45;0.580
h_scaling 1.000&#45;&gt;key 50826
bias &#45;0.609
h_scaling 1.000</title>
<path fill="none" stroke="red" stroke-width="0.1" d="M313.31,-175.53C309.28,-162.28 304.99,-148.14 300.86,-134.55"/>
<polygon fill="red" stroke="red" stroke-width="0.1" points="304.15,-133.32 297.89,-124.77 297.45,-135.35 304.15,-133.32"/>
<text text-anchor="middle" x="319.64" y="-148.08" font-family="Times,serif" font-size="9.00">0.000</text>
</g>
<!-- key 6492
bias &#45;0.643
h_scaling 1.000&#45;&gt;output
bias 0.623
h_scaling 1.000 -->
<g id="edge15" class="edge">
<title>key 6492
bias &#45;0.643
h_scaling 1.000&#45;&gt;output
bias 0.623
h_scaling 1.000</title>
<path fill="none" stroke="blue" stroke-width="0.1" d="M82.88,-176.01C87.19,-162.58 91.8,-148.22 96.23,-134.43"/>
<polygon fill="blue" stroke="blue" stroke-width="0.1" points="99.69,-135.1 99.41,-124.51 93.02,-132.96 99.69,-135.1"/>
</g>
<!-- key 6492
bias &#45;0.643
h_scaling 1.000&#45;&gt;key 1796
bias &#45;0.208
h_scaling 1.000 -->
<g id="edge10" class="edge">
<title>key 6492
bias &#45;0.643
h_scaling 1.000&#45;&gt;key 1796
bias &#45;0.208
h_scaling 1.000</title>
<path fill="none" stroke="red" stroke-width="0.1" d="M85.01,-297.22C90.26,-308.16 96.47,-319.1 103.64,-328.56 114.27,-342.57 127.8,-355.69 141.39,-367.1"/>
<polygon fill="red" stroke="red" stroke-width="0.1" points="139.41,-370.01 149.37,-373.62 143.84,-364.59 139.41,-370.01"/>
<text text-anchor="middle" x="117.64" y="-321.36" font-family="Times,serif" font-size="9.00">0.000</text>
</g>
<!-- key 6492
bias &#45;0.643
h_scaling 1.000&#45;&gt;key 6492
bias &#45;0.643
h_scaling 1.000 -->
<g id="edge11" class="edge">
<title>key 6492
bias &#45;0.643
h_scaling 1.000&#45;&gt;key 6492
bias &#45;0.643
h_scaling 1.000</title>
<path fill="none" stroke="red" stroke-width="0.1" d="M125.58,-252.22C137.14,-250.33 145.28,-245.23 145.28,-236.92 145.28,-231.2 141.43,-227.01 135.27,-224.33"/>
<polygon fill="red" stroke="red" stroke-width="0.1" points="136.16,-220.94 125.58,-221.62 134.27,-227.68 136.16,-220.94"/>
<text text-anchor="middle" x="159.28" y="-234.72" font-family="Times,serif" font-size="9.00">0.000</text>
</g>
</g>
</svg>
