<?xml version="1.0" encoding="UTF-8" standalone="no"?>
<!DOCTYPE svg PUBLIC "-//W3C//DTD SVG 1.1//EN"
 "http://www.w3.org/Graphics/SVG/1.1/DTD/svg11.dtd">
<!-- Generated by graphviz version 2.43.0 (0)
 -->
<!-- Title: %3 Pages: 1 -->
<svg width="461pt" height="719pt"
 viewBox="0.00 0.00 461.28 719.12" xmlns="http://www.w3.org/2000/svg" xmlns:xlink="http://www.w3.org/1999/xlink">
<g id="graph0" class="graph" transform="scale(1 1) rotate(0) translate(4 715.12)">
<title>%3</title>
<polygon fill="white" stroke="transparent" points="-4,4 -4,-715.12 457.28,-715.12 457.28,4 -4,4"/>
<!-- ready -->
<g id="node1" class="node">
<title>ready</title>
<polygon fill="yellow" stroke="black" points="247.14,-711.12 204.14,-711.12 204.14,-693.12 247.14,-693.12 247.14,-711.12"/>
<text text-anchor="middle" x="225.64" y="-699.92" font-family="Times,serif" font-size="9.00">ready</text>
</g>
<!-- key 1796
bias &#45;0.208
h_scaling 1.000 -->
<g id="node4" class="node">
<title>key 1796
bias &#45;0.208
h_scaling 1.000</title>
<ellipse fill="white" stroke="black" cx="209.64" cy="-410.2" rx="63.78" ry="63.78"/>
<text text-anchor="middle" x="209.64" y="-418" font-family="Times,serif" font-size="9.00">key 1796</text>
<text text-anchor="middle" x="209.64" y="-408" font-family="Times,serif" font-size="9.00">bias &#45;0.208</text>
<text text-anchor="middle" x="209.64" y="-398" font-family="Times,serif" font-size="9.00">h_scaling 1.000</text>
</g>
<!-- ready&#45;&gt;key 1796
bias &#45;0.208
h_scaling 1.000 -->
<g id="edge2" class="edge">
<title>ready&#45;&gt;key 1796
bias &#45;0.208
h_scaling 1.000</title>
<path fill="none" stroke="blue" stroke-width="0.94" d="M224.37,-693.09C222.75,-682.56 220.01,-663.51 218.64,-647.12 214.07,-592.51 211.82,-530.6 210.71,-483.9"/>
<polygon fill="blue" stroke="blue" stroke-width="0.94" points="214.21,-483.8 210.48,-473.88 207.21,-483.95 214.21,-483.8"/>
<text text-anchor="middle" x="234.14" y="-581.28" font-family="Times,serif" font-size="9.00">&#45;0.282</text>
</g>
<!-- key 8953
bias &#45;0.517
h_scaling 1.000 -->
<g id="node6" class="node">
<title>key 8953
bias &#45;0.517
h_scaling 1.000</title>
<ellipse fill="white" stroke="black" cx="322.64" cy="-583.48" rx="63.78" ry="63.78"/>
<text text-anchor="middle" x="322.64" y="-591.28" font-family="Times,serif" font-size="9.00">key 8953</text>
<text text-anchor="middle" x="322.64" y="-581.28" font-family="Times,serif" font-size="9.00">bias &#45;0.517</text>
<text text-anchor="middle" x="322.64" y="-571.28" font-family="Times,serif" font-size="9.00">h_scaling 1.000</text>
</g>
<!-- ready&#45;&gt;key 8953
bias &#45;0.517
h_scaling 1.000 -->
<g id="edge5" class="edge">
<title>ready&#45;&gt;key 8953
bias &#45;0.517
h_scaling 1.000</title>
<path fill="none" stroke="red" stroke-width="2.81" d="M232.31,-693.1C241.49,-682.06 258.85,-661.19 275.91,-640.67"/>
<polygon fill="red" stroke="red" stroke-width="2.81" points="278.71,-642.77 282.41,-632.85 273.33,-638.3 278.71,-642.77"/>
<text text-anchor="middle" x="268.64" y="-667.92" font-family="Times,serif" font-size="9.00">0.903</text>
</g>
<!-- go -->
<g id="node2" class="node">
<title>go</title>
<polygon fill="green" stroke="black" points="135.64,-592.48 107.64,-592.48 107.64,-574.48 135.64,-574.48 135.64,-592.48"/>
<text text-anchor="middle" x="121.64" y="-581.28" font-family="Times,serif" font-size="9.00">go</text>
</g>
<!-- go&#45;&gt;key 1796
bias &#45;0.208
h_scaling 1.000 -->
<g id="edge3" class="edge">
<title>go&#45;&gt;key 1796
bias &#45;0.208
h_scaling 1.000</title>
<path fill="none" stroke="red" stroke-width="3.02" d="M125.67,-574.46C133.64,-558.64 151.99,-522.28 167.64,-491.84 170.28,-486.71 173.01,-481.41 175.77,-476.08"/>
<polygon fill="red" stroke="red" stroke-width="3.02" points="178.92,-477.61 180.42,-467.12 172.71,-474.39 178.92,-477.61"/>
<text text-anchor="middle" x="181.64" y="-494.64" font-family="Times,serif" font-size="9.00">0.974</text>
</g>
<!-- key 6492
bias &#45;0.643
h_scaling 1.000 -->
<g id="node8" class="node">
<title>key 6492
bias &#45;0.643
h_scaling 1.000</title>
<ellipse fill="white" stroke="black" cx="63.64" cy="-236.92" rx="63.78" ry="63.78"/>
<text text-anchor="middle" x="63.64" y="-244.72" font-family="Times,serif" font-size="9.00">key 6492</text>
<text text-anchor="middle" x="63.64" y="-234.72" font-family="Times,serif" font-size="9.00">bias &#45;0.643</text>
<text text-anchor="middle" x="63.64" y="-224.72" font-family="Times,serif" font-size="9.00">h_scaling 1.000</text>
</g>
<!-- go&#45;&gt;key 6492
bias &#45;0.643
h_scaling 1.000 -->
<g id="edge9" class="edge">
<title>go&#45;&gt;key 6492
bias &#45;0.643
h_scaling 1.000</title>
<path fill="none" stroke="red" stroke-width="3.04" d="M120.26,-574.3C114.32,-539.02 90.53,-397.69 75.74,-309.83"/>
<polygon fill="red" stroke="red" stroke-width="3.04" points="79.19,-309.2 74.08,-299.92 72.28,-310.36 79.19,-309.2"/>
<text text-anchor="middle" x="117.64" y="-408" font-family="Times,serif" font-size="9.00">0.979</text>
</g>
<!-- output
bias 0.623
h_scaling 1.000 -->
<g id="node3" class="node">
<title>output
bias 0.623
h_scaling 1.000</title>
<ellipse fill="lightblue" stroke="black" cx="159.64" cy="-63.64" rx="63.78" ry="63.78"/>
<text text-anchor="middle" x="159.64" y="-71.44" font-family="Times,serif" font-size="9.00">output</text>
<text text-anchor="middle" x="159.64" y="-61.44" font-family="Times,serif" font-size="9.00">bias 0.623</text>
<text text-anchor="middle" x="159.64" y="-51.44" font-family="Times,serif" font-size="9.00">h_scaling 1.000</text>
</g>
<!-- key 1796
bias &#45;0.208
h_scaling 1.000&#45;&gt;output
bias 0.623
h_scaling 1.000 -->
<g id="edge1" class="edge">
<title>key 1796
bias &#45;0.208
h_scaling 1.000&#45;&gt;output
bias 0.623
h_scaling 1.000</title>
<path fill="none" stroke="blue" stroke-width="3.05" d="M204.08,-346.39C199.47,-298.73 192.14,-231.67 182.64,-173.28 180.66,-161.12 178.24,-148.26 175.71,-135.8"/>
<polygon fill="blue" stroke="blue" stroke-width="3.05" points="179.12,-135.01 173.67,-125.93 172.27,-136.43 179.12,-135.01"/>
<text text-anchor="middle" x="215.14" y="-234.72" font-family="Times,serif" font-size="9.00">&#45;0.982</text>
</g>
<!-- key 9529
bias &#45;0.580
h_scaling 1.000 -->
<g id="node7" class="node">
<title>key 9529
bias &#45;0.580
h_scaling 1.000</title>
<ellipse fill="white" stroke="black" cx="389.64" cy="-236.92" rx="63.78" ry="63.78"/>
<text text-anchor="middle" x="389.64" y="-244.72" font-family="Times,serif" font-size="9.00">key 9529</text>
<text text-anchor="middle" x="389.64" y="-234.72" font-family="Times,serif" font-size="9.00">bias &#45;0.580</text>
<text text-anchor="middle" x="389.64" y="-224.72" font-family="Times,serif" font-size="9.00">h_scaling 1.000</text>
</g>
<!-- key 1796
bias &#45;0.208
h_scaling 1.000&#45;&gt;key 9529
bias &#45;0.580
h_scaling 1.000 -->
<g id="edge14" class="edge">
<title>key 1796
bias &#45;0.208
h_scaling 1.000&#45;&gt;key 9529
bias &#45;0.580
h_scaling 1.000</title>
<path fill="none" stroke="red" stroke-width="1.17" d="M255.53,-365.53C280.18,-342.08 310.69,-313.05 336.38,-288.6"/>
<polygon fill="red" stroke="red" stroke-width="1.17" points="339,-290.93 343.84,-281.5 334.18,-285.86 339,-290.93"/>
<text text-anchor="middle" x="313.64" y="-321.36" font-family="Times,serif" font-size="9.00">0.355</text>
</g>
<!-- key 1796
bias &#45;0.208
h_scaling 1.000&#45;&gt;key 6492
bias &#45;0.643
h_scaling 1.000 -->
<g id="edge4" class="edge">
<title>key 1796
bias &#45;0.208
h_scaling 1.000&#45;&gt;key 6492
bias &#45;0.643
h_scaling 1.000</title>
<path fill="none" stroke="red" stroke-width="1.67" d="M172.29,-358.07C162.29,-344.96 151.3,-331.04 140.64,-318.56 132.61,-309.15 123.79,-299.41 115.07,-290.09"/>
<polygon fill="red" stroke="red" stroke-width="1.67" points="117.53,-287.6 108.12,-282.73 112.44,-292.4 117.53,-287.6"/>
<text text-anchor="middle" x="162.64" y="-321.36" font-family="Times,serif" font-size="9.00">0.522</text>
</g>
<!-- key 50826
bias &#45;0.609
h_scaling 1.000 -->
<g id="node5" class="node">
<title>key 50826
bias &#45;0.609
h_scaling 1.000</title>
<ellipse fill="white" stroke="black" cx="304.64" cy="-63.64" rx="63.78" ry="63.78"/>
<text text-anchor="middle" x="304.64" y="-71.44" font-family="Times,serif" font-size="9.00">key 50826</text>
<text text-anchor="middle" x="304.64" y="-61.44" font-family="Times,serif" font-size="9.00">bias &#45;0.609</text>
<text text-anchor="middle" x="304.64" y="-51.44" font-family="Times,serif" font-size="9.00">h_scaling 1.000</text>
</g>
<!-- key 50826
bias &#45;0.609
h_scaling 1.000&#45;&gt;key 1796
bias &#45;0.208
h_scaling 1.000 -->
<g id="edge13" class="edge">
<title>key 50826
bias &#45;0.609
h_scaling 1.000&#45;&gt;key 1796
bias &#45;0.208
h_scaling 1.000</title>
<path fill="none" stroke="blue" stroke-width="0.86" d="M287.96,-125.13C271.54,-184.71 246.45,-275.68 229.12,-338.55"/>
<polygon fill="blue" stroke="blue" stroke-width="0.86" points="225.69,-337.82 226.41,-348.39 232.44,-339.68 225.69,-337.82"/>
<text text-anchor="middle" x="290.14" y="-234.72" font-family="Times,serif" font-size="9.00">&#45;0.255</text>
</g>
<!-- key 8953
bias &#45;0.517
h_scaling 1.000&#45;&gt;key 1796
bias &#45;0.208
h_scaling 1.000 -->
<g id="edge6" class="edge">
<title>key 8953
bias &#45;0.517
h_scaling 1.000&#45;&gt;key 1796
bias &#45;0.208
h_scaling 1.000</title>
<path fill="none" stroke="blue" stroke-width="1.45" d="M287.81,-529.69C275.84,-511.53 262.33,-491.06 249.95,-472.3"/>
<polygon fill="blue" stroke="blue" stroke-width="1.45" points="252.78,-470.23 244.35,-463.81 246.94,-474.09 252.78,-470.23"/>
<text text-anchor="middle" x="282.14" y="-494.64" font-family="Times,serif" font-size="9.00">&#45;0.450</text>
</g>
<!-- key 8953
bias &#45;0.517
h_scaling 1.000&#45;&gt;key 8953
bias &#45;0.517
h_scaling 1.000 -->
<g id="edge8" class="edge">
<title>key 8953
bias &#45;0.517
h_scaling 1.000&#45;&gt;key 8953
bias &#45;0.517
h_scaling 1.000</title>
<path fill="none" stroke="red" stroke-width="2.61" d="M384.58,-598.77C396.14,-596.89 404.28,-591.79 404.28,-583.48 404.28,-577.76 400.43,-573.56 394.27,-570.89"/>
<polygon fill="red" stroke="red" stroke-width="2.61" points="395.16,-567.5 384.58,-568.18 393.27,-574.24 395.16,-567.5"/>
<text text-anchor="middle" x="418.28" y="-581.28" font-family="Times,serif" font-size="9.00">0.837</text>
</g>
<!-- key 8953
bias &#45;0.517
h_scaling 1.000&#45;&gt;key 9529
bias &#45;0.580
h_scaling 1.000 -->
<g id="edge7" class="edge">
<title>key 8953
bias &#45;0.517
h_scaling 1.000&#45;&gt;key 9529
bias &#45;0.580
h_scaling 1.000</title>
<path fill="none" stroke="red" stroke-width="3.1" d="M334.62,-520.88C346.13,-461.65 363.54,-372.16 375.68,-309.73"/>
<polygon fill="red" stroke="red" stroke-width="3.1" points="379.18,-310.05 377.65,-299.57 372.31,-308.71 379.18,-310.05"/>
<text text-anchor="middle" x="381.64" y="-408" font-family="Times,serif" font-size="9.00">1.000</text>
</g>
<!-- key 9529
bias &#45;0.580
h_scaling 1.000&#45;&gt;key 50826
bias &#45;0.609
h_scaling 1.000 -->
<g id="edge12" class="edge">
<title>key 9529
bias &#45;0.580
h_scaling 1.000&#45;&gt;key 50826
bias &#45;0.609
h_scaling 1.000</title>
<path fill="none" stroke="red" stroke-width="3.03" d="M361.57,-179.36C353.77,-163.64 345.23,-146.44 337.2,-130.24"/>
<polygon fill="red" stroke="red" stroke-width="3.03" points="340.11,-128.25 332.53,-120.85 333.84,-131.36 340.11,-128.25"/>
<text text-anchor="middle" x="360.64" y="-148.08" font-family="Times,serif" font-size="9.00">0.975</text>
</g>
<!-- key 6492
bias &#45;0.643
h_scaling 1.000&#45;&gt;output
bias 0.623
h_scaling 1.000 -->
<g id="edge15" class="edge">
<title>key 6492
bias &#45;0.643
h_scaling 1.000&#45;&gt;output
bias 0.623
h_scaling 1.000</title>
<path fill="none" stroke="blue" stroke-width="3.09" d="M94.54,-180.78C103.88,-164.13 114.21,-145.7 123.83,-128.52"/>
<polygon fill="blue" stroke="blue" stroke-width="3.09" points="126.96,-130.11 128.79,-119.67 120.85,-126.68 126.96,-130.11"/>
<text text-anchor="middle" x="127.14" y="-148.08" font-family="Times,serif" font-size="9.00">&#45;0.995</text>
</g>
<!-- key 6492
bias &#45;0.643
h_scaling 1.000&#45;&gt;key 1796
bias &#45;0.208
h_scaling 1.000 -->
<g id="edge10" class="edge">
<title>key 6492
bias &#45;0.643
h_scaling 1.000&#45;&gt;key 1796
bias &#45;0.208
h_scaling 1.000</title>
<path fill="none" stroke="red" stroke-width="3.09" d="M87.9,-296.3C93.86,-307.56 100.81,-318.85 108.64,-328.56 120.17,-342.85 134.65,-356.25 149.02,-367.86"/>
<polygon fill="red" stroke="red" stroke-width="3.09" points="146.95,-370.68 156.97,-374.12 151.28,-365.18 146.95,-370.68"/>
<text text-anchor="middle" x="122.64" y="-321.36" font-family="Times,serif" font-size="9.00">0.998</text>
</g>
<!-- key 6492
bias &#45;0.643
h_scaling 1.000&#45;&gt;key 6492
bias &#45;0.643
h_scaling 1.000 -->
<g id="edge11" class="edge">
<title>key 6492
bias &#45;0.643
h_scaling 1.000&#45;&gt;key 6492
bias &#45;0.643
h_scaling 1.000</title>
<path fill="none" stroke="red" stroke-width="1.68" d="M125.58,-252.22C137.14,-250.33 145.28,-245.23 145.28,-236.92 145.28,-231.2 141.43,-227.01 135.27,-224.33"/>
<polygon fill="red" stroke="red" stroke-width="1.68" points="136.16,-220.94 125.58,-221.62 134.27,-227.68 136.16,-220.94"/>
<text text-anchor="middle" x="159.28" y="-234.72" font-family="Times,serif" font-size="9.00">0.527</text>
</g>
</g>
</svg>
