<?xml version="1.0" encoding="UTF-8" standalone="no"?>
<!DOCTYPE svg PUBLIC "-//W3C//DTD SVG 1.1//EN"
 "http://www.w3.org/Graphics/SVG/1.1/DTD/svg11.dtd">
<!-- Generated by graphviz version 8.0.5 (20230430.1635)
 -->
<!-- Pages: 1 -->
<svg width="169pt" height="301pt"
 viewBox="0.00 0.00 168.63 301.48" xmlns="http://www.w3.org/2000/svg" xmlns:xlink="http://www.w3.org/1999/xlink">
<g id="graph0" class="graph" transform="scale(1 1) rotate(0) translate(4 297.48)">
<polygon fill="white" stroke="none" points="-4,4 -4,-297.48 164.63,-297.48 164.63,4 -4,4"/>
<!-- ready -->
<g id="node1" class="node">
<title>ready</title>
<polygon fill="yellow" stroke="black" points="55.93,-293.48 19.68,-293.48 19.68,-274.23 55.93,-274.23 55.93,-293.48"/>
<text text-anchor="middle" x="37.8" y="-280.93" font-family="Times New Roman,serif" font-size="9.00">ready</text>
</g>
<!-- key output
bias &#45;0.557
h_scaling 1.000 -->
<g id="node3" class="node">
<title>key output
bias &#45;0.557
h_scaling 1.000</title>
<ellipse fill="lightblue" stroke="black" cx="69.8" cy="-50.56" rx="50.56" ry="50.56"/>
<text text-anchor="middle" x="69.8" y="-58.88" font-family="Times New Roman,serif" font-size="9.00">key output</text>
<text text-anchor="middle" x="69.8" y="-47.63" font-family="Times New Roman,serif" font-size="9.00">bias &#45;0.557</text>
<text text-anchor="middle" x="69.8" y="-36.38" font-family="Times New Roman,serif" font-size="9.00">h_scaling 1.000</text>
</g>
<!-- ready&#45;&gt;key output
bias &#45;0.557
h_scaling 1.000 -->
<g id="edge3" class="edge">
<title>ready&#45;&gt;key output
bias &#45;0.557
h_scaling 1.000</title>
<path fill="none" stroke="red" stroke-width="2.16" d="M30.13,-274.03C23.28,-265.52 13.75,-251.94 9.8,-238.23 -2.62,-195.04 -3.73,-179.97 9.8,-137.12 13.98,-123.87 21.03,-110.89 28.86,-99.21"/>
<polygon fill="red" stroke="red" stroke-width="2.16" points="32.26,-101.06 35.2,-90.88 26.55,-97 32.26,-101.06"/>
</g>
<!-- key 394
bias &#45;0.180
h_scaling 1.000 -->
<g id="node4" class="node">
<title>key 394
bias &#45;0.180
h_scaling 1.000</title>
<ellipse fill="white" stroke="black" cx="69.8" cy="-187.67" rx="50.56" ry="50.56"/>
<text text-anchor="middle" x="69.8" y="-196" font-family="Times New Roman,serif" font-size="9.00">key 394</text>
<text text-anchor="middle" x="69.8" y="-184.75" font-family="Times New Roman,serif" font-size="9.00">bias &#45;0.180</text>
<text text-anchor="middle" x="69.8" y="-173.5" font-family="Times New Roman,serif" font-size="9.00">h_scaling 1.000</text>
</g>
<!-- ready&#45;&gt;key 394
bias &#45;0.180
h_scaling 1.000 -->
<g id="edge4" class="edge">
<title>ready&#45;&gt;key 394
bias &#45;0.180
h_scaling 1.000</title>
<path fill="none" stroke="red" stroke-width="2.65" d="M40.87,-273.83C42.98,-267.62 45.99,-258.77 49.27,-249.1"/>
<polygon fill="red" stroke="red" stroke-width="2.65" points="52.79,-249.67 52.7,-239.08 46.17,-247.42 52.79,-249.67"/>
</g>
<!-- go -->
<g id="node2" class="node">
<title>go</title>
<polygon fill="green" stroke="black" points="112.93,-293.48 88.68,-293.48 88.68,-274.23 112.93,-274.23 112.93,-293.48"/>
<text text-anchor="middle" x="100.8" y="-280.93" font-family="Times New Roman,serif" font-size="9.00">go</text>
</g>
<!-- go&#45;&gt;key output
bias &#45;0.557
h_scaling 1.000 -->
<g id="edge2" class="edge">
<title>go&#45;&gt;key output
bias &#45;0.557
h_scaling 1.000</title>
<path fill="none" stroke="red" stroke-width="4.35" d="M113.11,-275.43C124.53,-267.74 140.79,-254.57 147.8,-238.23 165.54,-196.94 164.04,-179.02 147.8,-137.12 141.69,-121.35 131.18,-106.71 119.81,-94.15"/>
<polygon fill="red" stroke="red" stroke-width="4.35" points="122.47,-91.31 112.77,-86.79 117.01,-96.61 122.47,-91.31"/>
</g>
<!-- go&#45;&gt;key 394
bias &#45;0.180
h_scaling 1.000 -->
<g id="edge1" class="edge">
<title>go&#45;&gt;key 394
bias &#45;0.180
h_scaling 1.000</title>
<path fill="none" stroke="blue" stroke-width="3.96" d="M97.83,-273.83C95.85,-267.83 93.07,-259.36 90.01,-250.08"/>
<polygon fill="blue" stroke="blue" stroke-width="3.96" points="92.86,-249.48 86.41,-241.08 86.21,-251.67 92.86,-249.48"/>
</g>
<!-- key 394
bias &#45;0.180
h_scaling 1.000&#45;&gt;key output
bias &#45;0.557
h_scaling 1.000 -->
<g id="edge6" class="edge">
<title>key 394
bias &#45;0.180
h_scaling 1.000&#45;&gt;key output
bias &#45;0.557
h_scaling 1.000</title>
<path fill="none" stroke="red" stroke-width="1.22" d="M69.8,-136.75C69.8,-128.7 69.8,-120.29 69.8,-112.02"/>
<polygon fill="red" stroke="red" stroke-width="1.22" points="73.3,-112.28 69.8,-102.28 66.3,-112.28 73.3,-112.28"/>
</g>
<!-- key 394
bias &#45;0.180
h_scaling 1.000&#45;&gt;key 394
bias &#45;0.180
h_scaling 1.000 -->
<g id="edge5" class="edge">
<title>key 394
bias &#45;0.180
h_scaling 1.000&#45;&gt;key 394
bias &#45;0.180
h_scaling 1.000</title>
<path fill="none" stroke="red" stroke-width="2.22" d="M117.54,-205.46C129.46,-204.22 138.36,-198.29 138.36,-187.67 138.36,-181.21 135.05,-176.48 129.77,-173.49"/>
<polygon fill="red" stroke="red" stroke-width="2.22" points="131.12,-169.36 120.54,-169.89 129.15,-176.07 131.12,-169.36"/>
</g>
</g>
</svg>
