<?xml version="1.0" encoding="UTF-8" standalone="no"?>
<!DOCTYPE svg PUBLIC "-//W3C//DTD SVG 1.1//EN"
 "http://www.w3.org/Graphics/SVG/1.1/DTD/svg11.dtd">
<!-- Generated by graphviz version 2.43.0 (0)
 -->
<!-- Title: %3 Pages: 1 -->
<svg width="524pt" height="902pt"
 viewBox="0.00 0.00 524.14 902.40" xmlns="http://www.w3.org/2000/svg" xmlns:xlink="http://www.w3.org/1999/xlink">
<g id="graph0" class="graph" transform="scale(1 1) rotate(0) translate(4 898.4)">
<title>%3</title>
<polygon fill="white" stroke="transparent" points="-4,4 -4,-898.4 520.14,-898.4 520.14,4 -4,4"/>
<!-- ready
output 0.000 -->
<g id="node1" class="node">
<title>ready
output 0.000</title>
<polygon fill="yellow" stroke="black" points="203.14,-894.4 126.14,-894.4 126.14,-866.4 203.14,-866.4 203.14,-894.4"/>
<text text-anchor="middle" x="164.64" y="-883.2" font-family="Times,serif" font-size="9.00">ready</text>
<text text-anchor="middle" x="164.64" y="-873.2" font-family="Times,serif" font-size="9.00">output 0.000</text>
</g>
<!-- key 3655
bias &#45;0.409
h_scaling 0.325
output 0.683 -->
<g id="node4" class="node">
<title>key 3655
bias &#45;0.409
h_scaling 0.325
output 0.683</title>
<ellipse fill="white" stroke="black" cx="306.64" cy="-756.76" rx="63.78" ry="63.78"/>
<text text-anchor="middle" x="306.64" y="-769.56" font-family="Times,serif" font-size="9.00">key 3655</text>
<text text-anchor="middle" x="306.64" y="-759.56" font-family="Times,serif" font-size="9.00">bias &#45;0.409</text>
<text text-anchor="middle" x="306.64" y="-749.56" font-family="Times,serif" font-size="9.00">h_scaling 0.325</text>
<text text-anchor="middle" x="306.64" y="-739.56" font-family="Times,serif" font-size="9.00">output 0.683</text>
</g>
<!-- ready
output 0.000&#45;&gt;key 3655
bias &#45;0.409
h_scaling 0.325
output 0.683 -->
<g id="edge4" class="edge">
<title>ready
output 0.000&#45;&gt;key 3655
bias &#45;0.409
h_scaling 0.325
output 0.683</title>
<path fill="none" stroke="blue" stroke-width="0.1" d="M179.84,-866.38C196.76,-851.88 225.11,-827.6 250.72,-805.66"/>
<polygon fill="blue" stroke="blue" stroke-width="0.1" points="253.24,-808.11 258.56,-798.94 248.69,-802.79 253.24,-808.11"/>
<text text-anchor="middle" x="226.14" y="-841.2" font-family="Times,serif" font-size="9.00">&#45;0.204</text>
</g>
<!-- key 216592
bias &#45;0.367
h_scaling 0.960
output 0.277 -->
<g id="node6" class="node">
<title>key 216592
bias &#45;0.367
h_scaling 0.960
output 0.277</title>
<ellipse fill="white" stroke="black" cx="116.64" cy="-236.92" rx="63.78" ry="63.78"/>
<text text-anchor="middle" x="116.64" y="-249.72" font-family="Times,serif" font-size="9.00">key 216592</text>
<text text-anchor="middle" x="116.64" y="-239.72" font-family="Times,serif" font-size="9.00">bias &#45;0.367</text>
<text text-anchor="middle" x="116.64" y="-229.72" font-family="Times,serif" font-size="9.00">h_scaling 0.960</text>
<text text-anchor="middle" x="116.64" y="-219.72" font-family="Times,serif" font-size="9.00">output 0.277</text>
</g>
<!-- ready
output 0.000&#45;&gt;key 216592
bias &#45;0.367
h_scaling 0.960
output 0.277 -->
<g id="edge6" class="edge">
<title>ready
output 0.000&#45;&gt;key 216592
bias &#45;0.367
h_scaling 0.960
output 0.277</title>
<path fill="none" stroke="red" stroke-width="0.1" d="M155.61,-866.21C141.71,-844.58 116.64,-799.76 116.64,-757.76 116.64,-757.76 116.64,-757.76 116.64,-409.2 116.64,-376.87 116.64,-341.11 116.64,-310.67"/>
<polygon fill="red" stroke="red" stroke-width="0.1" points="120.14,-310.56 116.64,-300.56 113.14,-310.56 120.14,-310.56"/>
<text text-anchor="middle" x="130.64" y="-581.28" font-family="Times,serif" font-size="9.00">0.854</text>
</g>
<!-- key 213616
bias &#45;0.467
h_scaling 0.761
output 0.601 -->
<g id="node7" class="node">
<title>key 213616
bias &#45;0.467
h_scaling 0.761
output 0.601</title>
<ellipse fill="white" stroke="black" cx="290.64" cy="-63.64" rx="63.78" ry="63.78"/>
<text text-anchor="middle" x="290.64" y="-76.44" font-family="Times,serif" font-size="9.00">key 213616</text>
<text text-anchor="middle" x="290.64" y="-66.44" font-family="Times,serif" font-size="9.00">bias &#45;0.467</text>
<text text-anchor="middle" x="290.64" y="-56.44" font-family="Times,serif" font-size="9.00">h_scaling 0.761</text>
<text text-anchor="middle" x="290.64" y="-46.44" font-family="Times,serif" font-size="9.00">output 0.601</text>
</g>
<!-- ready
output 0.000&#45;&gt;key 213616
bias &#45;0.467
h_scaling 0.761
output 0.601 -->
<g id="edge16" class="edge">
<title>ready
output 0.000&#45;&gt;key 213616
bias &#45;0.467
h_scaling 0.761
output 0.601</title>
<path fill="none" stroke="red" stroke-width="0.1" d="M203.33,-875.41C267.9,-868.02 393.67,-850.14 425.64,-820.4 446.94,-800.58 444.64,-786.85 444.64,-757.76 444.64,-757.76 444.64,-757.76 444.64,-235.92 444.64,-178.75 396.61,-132.01 354.19,-101.89"/>
<polygon fill="red" stroke="red" stroke-width="0.1" points="356.02,-98.9 345.8,-96.09 352.04,-104.65 356.02,-98.9"/>
<text text-anchor="middle" x="458.64" y="-494.64" font-family="Times,serif" font-size="9.00">0.273</text>
</g>
<!-- key 219100
bias &#45;0.490
h_scaling 0.418
output 0.197 -->
<g id="node8" class="node">
<title>key 219100
bias &#45;0.490
h_scaling 0.418
output 0.197</title>
<ellipse fill="white" stroke="black" cx="63.64" cy="-63.64" rx="63.78" ry="63.78"/>
<text text-anchor="middle" x="63.64" y="-76.44" font-family="Times,serif" font-size="9.00">key 219100</text>
<text text-anchor="middle" x="63.64" y="-66.44" font-family="Times,serif" font-size="9.00">bias &#45;0.490</text>
<text text-anchor="middle" x="63.64" y="-56.44" font-family="Times,serif" font-size="9.00">h_scaling 0.418</text>
<text text-anchor="middle" x="63.64" y="-46.44" font-family="Times,serif" font-size="9.00">output 0.197</text>
</g>
<!-- ready
output 0.000&#45;&gt;key 219100
bias &#45;0.490
h_scaling 0.418
output 0.197 -->
<g id="edge8" class="edge">
<title>ready
output 0.000&#45;&gt;key 219100
bias &#45;0.490
h_scaling 0.418
output 0.197</title>
<path fill="none" stroke="red" stroke-width="0.1" d="M128.59,-866.28C87.11,-848.59 24.64,-812.82 24.64,-757.76 24.64,-757.76 24.64,-757.76 24.64,-235.92 24.64,-201.8 32.09,-164.78 40.48,-133.92"/>
<polygon fill="red" stroke="red" stroke-width="0.1" points="43.89,-134.7 43.23,-124.13 37.15,-132.81 43.89,-134.7"/>
<text text-anchor="middle" x="38.64" y="-494.64" font-family="Times,serif" font-size="9.00">0.781</text>
</g>
<!-- go
output 0.000 -->
<g id="node2" class="node">
<title>go
output 0.000</title>
<polygon fill="green" stroke="black" points="516.14,-894.4 439.14,-894.4 439.14,-866.4 516.14,-866.4 516.14,-894.4"/>
<text text-anchor="middle" x="477.64" y="-883.2" font-family="Times,serif" font-size="9.00">go</text>
<text text-anchor="middle" x="477.64" y="-873.2" font-family="Times,serif" font-size="9.00">output 0.000</text>
</g>
<!-- go
output 0.000&#45;&gt;key 3655
bias &#45;0.409
h_scaling 0.325
output 0.683 -->
<g id="edge2" class="edge">
<title>go
output 0.000&#45;&gt;key 3655
bias &#45;0.409
h_scaling 0.325
output 0.683</title>
<path fill="none" stroke="red" stroke-width="0.1" d="M459.34,-866.38C437.26,-850.67 399.02,-823.47 366.34,-800.22"/>
<polygon fill="red" stroke="red" stroke-width="0.1" points="368.34,-797.35 358.16,-794.41 364.28,-803.06 368.34,-797.35"/>
<text text-anchor="middle" x="446.64" y="-841.2" font-family="Times,serif" font-size="9.00">1.007</text>
</g>
<!-- output
bias 0.462
h_scaling 0.977
output 0.010 -->
<g id="node3" class="node">
<title>output
bias 0.462
h_scaling 0.977
output 0.010</title>
<ellipse fill="lightblue" stroke="black" cx="285.64" cy="-410.2" rx="63.78" ry="63.78"/>
<text text-anchor="middle" x="285.64" y="-423" font-family="Times,serif" font-size="9.00">output</text>
<text text-anchor="middle" x="285.64" y="-413" font-family="Times,serif" font-size="9.00">bias 0.462</text>
<text text-anchor="middle" x="285.64" y="-403" font-family="Times,serif" font-size="9.00">h_scaling 0.977</text>
<text text-anchor="middle" x="285.64" y="-393" font-family="Times,serif" font-size="9.00">output 0.010</text>
</g>
<!-- output
bias 0.462
h_scaling 0.977
output 0.010&#45;&gt;key 216592
bias &#45;0.367
h_scaling 0.960
output 0.277 -->
<g id="edge11" class="edge">
<title>output
bias 0.462
h_scaling 0.977
output 0.010&#45;&gt;key 216592
bias &#45;0.367
h_scaling 0.960
output 0.277</title>
<path fill="none" stroke="blue" stroke-width="0.1" d="M252.62,-355.75C243.63,-342.96 233.38,-329.77 222.64,-318.56 209.09,-304.41 192.89,-290.79 177.29,-278.91"/>
<polygon fill="blue" stroke="blue" stroke-width="0.1" points="179.31,-276.04 169.2,-272.86 175.11,-281.65 179.31,-276.04"/>
<text text-anchor="middle" x="247.14" y="-321.36" font-family="Times,serif" font-size="9.00">&#45;0.240</text>
</g>
<!-- key 3655
bias &#45;0.409
h_scaling 0.325
output 0.683&#45;&gt;output
bias 0.462
h_scaling 0.977
output 0.010 -->
<g id="edge1" class="edge">
<title>key 3655
bias &#45;0.409
h_scaling 0.325
output 0.683&#45;&gt;output
bias 0.462
h_scaling 0.977
output 0.010</title>
<path fill="none" stroke="blue" stroke-width="0.1" d="M306.46,-693.08C305.91,-645.49 304.27,-578.46 299.64,-519.84 298.71,-508.06 297.41,-495.61 295.96,-483.49"/>
<polygon fill="blue" stroke="blue" stroke-width="0.1" points="299.42,-482.92 294.73,-473.42 292.47,-483.77 299.42,-482.92"/>
<text text-anchor="middle" x="321.14" y="-581.28" font-family="Times,serif" font-size="9.00">&#45;1.000</text>
</g>
<!-- key 3655
bias &#45;0.409
h_scaling 0.325
output 0.683&#45;&gt;key 3655
bias &#45;0.409
h_scaling 0.325
output 0.683 -->
<g id="edge3" class="edge">
<title>key 3655
bias &#45;0.409
h_scaling 0.325
output 0.683&#45;&gt;key 3655
bias &#45;0.409
h_scaling 0.325
output 0.683</title>
<path fill="none" stroke="red" stroke-width="0.1" d="M368.58,-772.05C380.14,-770.17 388.28,-765.07 388.28,-756.76 388.28,-751.04 384.43,-746.84 378.27,-744.17"/>
<polygon fill="red" stroke="red" stroke-width="0.1" points="379.16,-740.78 368.58,-741.46 377.27,-747.52 379.16,-740.78"/>
<text text-anchor="middle" x="402.28" y="-754.56" font-family="Times,serif" font-size="9.00">1.075</text>
</g>
<!-- key 274635
bias &#45;0.475
h_scaling 0.969
output 0.780 -->
<g id="node5" class="node">
<title>key 274635
bias &#45;0.475
h_scaling 0.969
output 0.780</title>
<ellipse fill="white" stroke="black" cx="226.64" cy="-583.48" rx="63.78" ry="63.78"/>
<text text-anchor="middle" x="226.64" y="-596.28" font-family="Times,serif" font-size="9.00">key 274635</text>
<text text-anchor="middle" x="226.64" y="-586.28" font-family="Times,serif" font-size="9.00">bias &#45;0.475</text>
<text text-anchor="middle" x="226.64" y="-576.28" font-family="Times,serif" font-size="9.00">h_scaling 0.969</text>
<text text-anchor="middle" x="226.64" y="-566.28" font-family="Times,serif" font-size="9.00">output 0.780</text>
</g>
<!-- key 3655
bias &#45;0.409
h_scaling 0.325
output 0.683&#45;&gt;key 274635
bias &#45;0.475
h_scaling 0.969
output 0.780 -->
<g id="edge12" class="edge">
<title>key 3655
bias &#45;0.409
h_scaling 0.325
output 0.683&#45;&gt;key 274635
bias &#45;0.475
h_scaling 0.969
output 0.780</title>
<path fill="none" stroke="red" stroke-width="0.1" d="M280,-698.72C272.82,-683.35 264.99,-666.58 257.59,-650.75"/>
<polygon fill="red" stroke="red" stroke-width="0.1" points="260.7,-649.13 253.3,-641.55 254.36,-652.1 260.7,-649.13"/>
<text text-anchor="middle" x="280.64" y="-667.92" font-family="Times,serif" font-size="9.00">1.176</text>
</g>
<!-- key 274635
bias &#45;0.475
h_scaling 0.969
output 0.780&#45;&gt;output
bias 0.462
h_scaling 0.977
output 0.010 -->
<g id="edge13" class="edge">
<title>key 274635
bias &#45;0.475
h_scaling 0.969
output 0.780&#45;&gt;output
bias 0.462
h_scaling 0.977
output 0.010</title>
<path fill="none" stroke="blue" stroke-width="0.1" d="M247.11,-523.05C251.87,-509.24 256.98,-494.41 261.86,-480.22"/>
<polygon fill="blue" stroke="blue" stroke-width="0.1" points="265.26,-481.11 265.21,-470.52 258.64,-478.83 265.26,-481.11"/>
<text text-anchor="middle" x="272.14" y="-494.64" font-family="Times,serif" font-size="9.00">&#45;1.000</text>
</g>
<!-- key 274635
bias &#45;0.475
h_scaling 0.969
output 0.780&#45;&gt;key 213616
bias &#45;0.467
h_scaling 0.761
output 0.601 -->
<g id="edge14" class="edge">
<title>key 274635
bias &#45;0.475
h_scaling 0.969
output 0.780&#45;&gt;key 213616
bias &#45;0.467
h_scaling 0.761
output 0.601</title>
<path fill="none" stroke="red" stroke-width="0.1" d="M207.51,-522.71C192.93,-469.03 177.42,-388.18 190.64,-318.56 203.32,-251.73 233.23,-180 257.06,-129.88"/>
<polygon fill="red" stroke="red" stroke-width="0.1" points="260.25,-131.31 261.43,-120.78 253.94,-128.28 260.25,-131.31"/>
<text text-anchor="middle" x="204.64" y="-321.36" font-family="Times,serif" font-size="9.00">0.400</text>
</g>
<!-- key 216592
bias &#45;0.367
h_scaling 0.960
output 0.277&#45;&gt;key 213616
bias &#45;0.467
h_scaling 0.761
output 0.601 -->
<g id="edge7" class="edge">
<title>key 216592
bias &#45;0.367
h_scaling 0.960
output 0.277&#45;&gt;key 213616
bias &#45;0.467
h_scaling 0.761
output 0.601</title>
<path fill="none" stroke="red" stroke-width="0.1" d="M142.79,-178.39C149.58,-166.7 157.58,-155.02 166.64,-145.28 183.4,-127.26 204.98,-111.44 225.43,-98.68"/>
<polygon fill="red" stroke="red" stroke-width="0.1" points="227.38,-101.59 234.11,-93.41 223.74,-95.61 227.38,-101.59"/>
<text text-anchor="middle" x="180.64" y="-148.08" font-family="Times,serif" font-size="9.00">1.089</text>
</g>
<!-- key 216592
bias &#45;0.367
h_scaling 0.960
output 0.277&#45;&gt;key 219100
bias &#45;0.490
h_scaling 0.418
output 0.197 -->
<g id="edge10" class="edge">
<title>key 216592
bias &#45;0.367
h_scaling 0.960
output 0.277&#45;&gt;key 219100
bias &#45;0.490
h_scaling 0.418
output 0.197</title>
<path fill="none" stroke="red" stroke-width="0.1" d="M76.28,-187.66C69.84,-177.53 64.15,-166.5 60.64,-155.28 58.86,-149.6 57.67,-143.62 56.94,-137.56"/>
<polygon fill="red" stroke="red" stroke-width="0.1" points="60.41,-136.99 56.11,-127.31 53.43,-137.56 60.41,-136.99"/>
<text text-anchor="middle" x="74.64" y="-148.08" font-family="Times,serif" font-size="9.00">0.633</text>
</g>
<!-- key 213616
bias &#45;0.467
h_scaling 0.761
output 0.601&#45;&gt;output
bias 0.462
h_scaling 0.977
output 0.010 -->
<g id="edge15" class="edge">
<title>key 213616
bias &#45;0.467
h_scaling 0.761
output 0.601&#45;&gt;output
bias 0.462
h_scaling 0.977
output 0.010</title>
<path fill="none" stroke="red" stroke-width="0.1" d="M289.73,-127.3C288.88,-186.18 287.6,-274.29 286.7,-336.3"/>
<polygon fill="red" stroke="red" stroke-width="0.1" points="283.2,-336.35 286.55,-346.4 290.2,-336.45 283.2,-336.35"/>
<text text-anchor="middle" x="303.64" y="-234.72" font-family="Times,serif" font-size="9.00">0.376</text>
</g>
<!-- key 213616
bias &#45;0.467
h_scaling 0.761
output 0.601&#45;&gt;key 3655
bias &#45;0.409
h_scaling 0.325
output 0.683 -->
<g id="edge5" class="edge">
<title>key 213616
bias &#45;0.467
h_scaling 0.761
output 0.601&#45;&gt;key 3655
bias &#45;0.409
h_scaling 0.325
output 0.683</title>
<path fill="none" stroke="blue" stroke-width="0.1" d="M333.14,-111.06C358.43,-143.56 385.64,-189.33 385.64,-235.92 385.64,-584.48 385.64,-584.48 385.64,-584.48 385.64,-624.14 367.96,-664.61 349.32,-696.24"/>
<polygon fill="blue" stroke="blue" stroke-width="0.1" points="346.25,-694.56 344.06,-704.93 352.24,-698.19 346.25,-694.56"/>
<text text-anchor="middle" x="401.14" y="-408" font-family="Times,serif" font-size="9.00">&#45;0.271</text>
</g>
<!-- key 219100
bias &#45;0.490
h_scaling 0.418
output 0.197&#45;&gt;key 216592
bias &#45;0.367
h_scaling 0.960
output 0.277 -->
<g id="edge9" class="edge">
<title>key 219100
bias &#45;0.490
h_scaling 0.418
output 0.197&#45;&gt;key 216592
bias &#45;0.367
h_scaling 0.960
output 0.277</title>
<path fill="none" stroke="red" stroke-width="0.1" d="M85.45,-123.46C87.97,-130.77 90.43,-138.18 92.64,-145.28 94.62,-151.65 96.59,-158.3 98.49,-164.98"/>
<polygon fill="red" stroke="red" stroke-width="0.1" points="95.16,-166.08 101.22,-174.77 101.9,-164.19 95.16,-166.08"/>
<text text-anchor="middle" x="109.64" y="-148.08" font-family="Times,serif" font-size="9.00">0.977</text>
</g>
</g>
</svg>
