<?xml version="1.0" encoding="UTF-8" standalone="no"?>
<!DOCTYPE svg PUBLIC "-//W3C//DTD SVG 1.1//EN"
 "http://www.w3.org/Graphics/SVG/1.1/DTD/svg11.dtd">
<!-- Generated by graphviz version 2.43.0 (0)
 -->
<!-- Title: %3 Pages: 1 -->
<svg width="479pt" height="827pt"
 viewBox="0.00 0.00 478.64 827.40" xmlns="http://www.w3.org/2000/svg" xmlns:xlink="http://www.w3.org/1999/xlink">
<g id="graph0" class="graph" transform="scale(1 1) rotate(0) translate(4 823.4)">
<title>%3</title>
<polygon fill="white" stroke="transparent" points="-4,4 -4,-823.4 474.64,-823.4 474.64,4 -4,4"/>
<!-- ready -->
<g id="node1" class="node">
<title>ready</title>
<polygon fill="yellow" stroke="black" points="172.14,-819.4 129.14,-819.4 129.14,-801.4 172.14,-801.4 172.14,-819.4"/>
<text text-anchor="middle" x="150.64" y="-808.2" font-family="Times,serif" font-size="9.00">ready</text>
</g>
<!-- key 7463
bias &#45;0.301
h_scaling 1.000 -->
<g id="node4" class="node">
<title>key 7463
bias &#45;0.301
h_scaling 1.000</title>
<ellipse fill="white" stroke="black" cx="300.64" cy="-691.76" rx="63.78" ry="63.78"/>
<text text-anchor="middle" x="300.64" y="-699.56" font-family="Times,serif" font-size="9.00">key 7463</text>
<text text-anchor="middle" x="300.64" y="-689.56" font-family="Times,serif" font-size="9.00">bias &#45;0.301</text>
<text text-anchor="middle" x="300.64" y="-679.56" font-family="Times,serif" font-size="9.00">h_scaling 1.000</text>
</g>
<!-- ready&#45;&gt;key 7463
bias &#45;0.301
h_scaling 1.000 -->
<g id="edge10" class="edge">
<title>ready&#45;&gt;key 7463
bias &#45;0.301
h_scaling 1.000</title>
<path fill="none" stroke="blue" stroke-width="0.1" d="M160.95,-801.38C177.72,-788.34 212.1,-761.61 242.55,-737.93"/>
<polygon fill="blue" stroke="blue" stroke-width="0.1" points="244.86,-740.56 250.61,-731.66 240.56,-735.04 244.86,-740.56"/>
</g>
<!-- key 1967
bias 0.377
h_scaling 1.000 -->
<g id="node5" class="node">
<title>key 1967
bias 0.377
h_scaling 1.000</title>
<ellipse fill="white" stroke="black" cx="194.64" cy="-236.92" rx="63.78" ry="63.78"/>
<text text-anchor="middle" x="194.64" y="-244.72" font-family="Times,serif" font-size="9.00">key 1967</text>
<text text-anchor="middle" x="194.64" y="-234.72" font-family="Times,serif" font-size="9.00">bias 0.377</text>
<text text-anchor="middle" x="194.64" y="-224.72" font-family="Times,serif" font-size="9.00">h_scaling 1.000</text>
</g>
<!-- ready&#45;&gt;key 1967
bias 0.377
h_scaling 1.000 -->
<g id="edge12" class="edge">
<title>ready&#45;&gt;key 1967
bias 0.377
h_scaling 1.000</title>
<path fill="none" stroke="red" stroke-width="0.1" d="M150.31,-801.3C148.89,-764.5 143.91,-609.39 154.64,-482.84 160.89,-409.18 168.54,-391.48 180.64,-318.56 181.11,-315.73 181.59,-312.85 182.08,-309.94"/>
<polygon fill="red" stroke="red" stroke-width="0.1" points="185.55,-310.42 183.77,-299.98 178.65,-309.25 185.55,-310.42"/>
<text text-anchor="middle" x="168.64" y="-544.28" font-family="Times,serif" font-size="9.00">0.000</text>
</g>
<!-- key 118586
bias &#45;0.996
h_scaling 1.000 -->
<g id="node7" class="node">
<title>key 118586
bias &#45;0.996
h_scaling 1.000</title>
<ellipse fill="white" stroke="black" cx="63.64" cy="-546.48" rx="63.78" ry="63.78"/>
<text text-anchor="middle" x="63.64" y="-554.28" font-family="Times,serif" font-size="9.00">key 118586</text>
<text text-anchor="middle" x="63.64" y="-544.28" font-family="Times,serif" font-size="9.00">bias &#45;0.996</text>
<text text-anchor="middle" x="63.64" y="-534.28" font-family="Times,serif" font-size="9.00">h_scaling 1.000</text>
</g>
<!-- ready&#45;&gt;key 118586
bias &#45;0.996
h_scaling 1.000 -->
<g id="edge14" class="edge">
<title>ready&#45;&gt;key 118586
bias &#45;0.996
h_scaling 1.000</title>
<path fill="none" stroke="red" stroke-width="0.1" d="M130.46,-801.26C122.49,-797.06 113.99,-791.17 108.64,-783.4 75.81,-735.67 65.36,-670.26 62.67,-620.42"/>
<polygon fill="red" stroke="red" stroke-width="0.1" points="66.16,-620.19 62.22,-610.35 59.17,-620.5 66.16,-620.19"/>
<text text-anchor="middle" x="122.64" y="-776.2" font-family="Times,serif" font-size="9.00">0.000</text>
</g>
<!-- go -->
<g id="node2" class="node">
<title>go</title>
<polygon fill="green" stroke="black" points="314.64,-819.4 286.64,-819.4 286.64,-801.4 314.64,-801.4 314.64,-819.4"/>
<text text-anchor="middle" x="300.64" y="-808.2" font-family="Times,serif" font-size="9.00">go</text>
</g>
<!-- go&#45;&gt;key 7463
bias &#45;0.301
h_scaling 1.000 -->
<g id="edge4" class="edge">
<title>go&#45;&gt;key 7463
bias &#45;0.301
h_scaling 1.000</title>
<path fill="none" stroke="red" stroke-width="0.1" d="M300.64,-801.38C300.64,-793.35 300.64,-780.13 300.64,-765.63"/>
<polygon fill="red" stroke="red" stroke-width="0.1" points="304.14,-765.43 300.64,-755.43 297.14,-765.43 304.14,-765.43"/>
<text text-anchor="middle" x="314.64" y="-776.2" font-family="Times,serif" font-size="9.00">0.000</text>
</g>
<!-- go&#45;&gt;key 1967
bias 0.377
h_scaling 1.000 -->
<g id="edge16" class="edge">
<title>go&#45;&gt;key 1967
bias 0.377
h_scaling 1.000</title>
<path fill="none" stroke="blue" stroke-width="0.1" d="M286.41,-803.46C269.1,-795.4 240.61,-779.21 227.64,-755.4 187.01,-680.81 188.35,-435.03 191.86,-310.95"/>
<polygon fill="blue" stroke="blue" stroke-width="0.1" points="195.36,-310.88 192.16,-300.78 188.36,-310.67 195.36,-310.88"/>
</g>
<!-- key 1968
bias &#45;0.817
h_scaling 1.000 -->
<g id="node6" class="node">
<title>key 1968
bias &#45;0.817
h_scaling 1.000</title>
<ellipse fill="white" stroke="black" cx="324.64" cy="-401.2" rx="63.78" ry="63.78"/>
<text text-anchor="middle" x="324.64" y="-409" font-family="Times,serif" font-size="9.00">key 1968</text>
<text text-anchor="middle" x="324.64" y="-399" font-family="Times,serif" font-size="9.00">bias &#45;0.817</text>
<text text-anchor="middle" x="324.64" y="-389" font-family="Times,serif" font-size="9.00">h_scaling 1.000</text>
</g>
<!-- go&#45;&gt;key 1968
bias &#45;0.817
h_scaling 1.000 -->
<g id="edge2" class="edge">
<title>go&#45;&gt;key 1968
bias &#45;0.817
h_scaling 1.000</title>
<path fill="none" stroke="red" stroke-width="0.1" d="M314.81,-807.82C340.91,-804.08 396.05,-792.01 419.64,-755.4 478.8,-663.58 415.57,-535.7 367.71,-461.66"/>
<polygon fill="red" stroke="red" stroke-width="0.1" points="370.38,-459.34 361.96,-452.91 364.53,-463.18 370.38,-459.34"/>
<text text-anchor="middle" x="456.64" y="-689.56" font-family="Times,serif" font-size="9.00">0.000</text>
</g>
<!-- output
bias &#45;0.016
h_scaling 1.000 -->
<g id="node3" class="node">
<title>output
bias &#45;0.016
h_scaling 1.000</title>
<ellipse fill="lightblue" stroke="black" cx="332.64" cy="-63.64" rx="63.78" ry="63.78"/>
<text text-anchor="middle" x="332.64" y="-71.44" font-family="Times,serif" font-size="9.00">output</text>
<text text-anchor="middle" x="332.64" y="-61.44" font-family="Times,serif" font-size="9.00">bias &#45;0.016</text>
<text text-anchor="middle" x="332.64" y="-51.44" font-family="Times,serif" font-size="9.00">h_scaling 1.000</text>
</g>
<!-- key 7463
bias &#45;0.301
h_scaling 1.000&#45;&gt;output
bias &#45;0.016
h_scaling 1.000 -->
<g id="edge9" class="edge">
<title>key 7463
bias &#45;0.301
h_scaling 1.000&#45;&gt;output
bias &#45;0.016
h_scaling 1.000</title>
<path fill="none" stroke="blue" stroke-width="0.1" d="M342.2,-643.17C376.96,-599.98 423.93,-532.83 443.64,-464.84 478.24,-345.48 415.93,-205.43 371.53,-126.66"/>
<polygon fill="blue" stroke="blue" stroke-width="0.1" points="374.48,-124.78 366.48,-117.83 368.4,-128.25 374.48,-124.78"/>
</g>
<!-- key 7463
bias &#45;0.301
h_scaling 1.000&#45;&gt;key 7463
bias &#45;0.301
h_scaling 1.000 -->
<g id="edge6" class="edge">
<title>key 7463
bias &#45;0.301
h_scaling 1.000&#45;&gt;key 7463
bias &#45;0.301
h_scaling 1.000</title>
<path fill="none" stroke="red" stroke-width="0.1" d="M362.58,-707.05C374.14,-705.17 382.28,-700.07 382.28,-691.76 382.28,-686.04 378.43,-681.84 372.27,-679.17"/>
<polygon fill="red" stroke="red" stroke-width="0.1" points="373.16,-675.78 362.58,-676.46 371.27,-682.52 373.16,-675.78"/>
<text text-anchor="middle" x="396.28" y="-689.56" font-family="Times,serif" font-size="9.00">0.000</text>
</g>
<!-- key 7463
bias &#45;0.301
h_scaling 1.000&#45;&gt;key 1967
bias 0.377
h_scaling 1.000 -->
<g id="edge13" class="edge">
<title>key 7463
bias &#45;0.301
h_scaling 1.000&#45;&gt;key 1967
bias 0.377
h_scaling 1.000</title>
<path fill="none" stroke="blue" stroke-width="0.1" d="M286.34,-629.68C266.84,-546.35 231.95,-397.3 211.29,-309.03"/>
<polygon fill="blue" stroke="blue" stroke-width="0.1" points="214.65,-308.05 208.96,-299.11 207.83,-309.64 214.65,-308.05"/>
</g>
<!-- key 7463
bias &#45;0.301
h_scaling 1.000&#45;&gt;key 1968
bias &#45;0.817
h_scaling 1.000 -->
<g id="edge5" class="edge">
<title>key 7463
bias &#45;0.301
h_scaling 1.000&#45;&gt;key 1968
bias &#45;0.817
h_scaling 1.000</title>
<path fill="none" stroke="red" stroke-width="0.1" d="M305.85,-628.14C309.6,-583.05 314.67,-522.09 318.6,-474.85"/>
<polygon fill="red" stroke="red" stroke-width="0.1" points="322.1,-474.94 319.44,-464.69 315.13,-474.36 322.1,-474.94"/>
<text text-anchor="middle" x="330.64" y="-544.28" font-family="Times,serif" font-size="9.00">0.000</text>
</g>
<!-- key 1967
bias 0.377
h_scaling 1.000&#45;&gt;output
bias &#45;0.016
h_scaling 1.000 -->
<g id="edge1" class="edge">
<title>key 1967
bias 0.377
h_scaling 1.000&#45;&gt;output
bias &#45;0.016
h_scaling 1.000</title>
<path fill="none" stroke="red" stroke-width="0.1" d="M234.18,-186.84C250.57,-166.5 269.68,-142.78 286.69,-121.68"/>
<polygon fill="red" stroke="red" stroke-width="0.1" points="289.54,-123.71 293.09,-113.73 284.09,-119.32 289.54,-123.71"/>
<text text-anchor="middle" x="277.64" y="-148.08" font-family="Times,serif" font-size="9.00">0.000</text>
</g>
<!-- key 1967
bias 0.377
h_scaling 1.000&#45;&gt;key 1967
bias 0.377
h_scaling 1.000 -->
<g id="edge11" class="edge">
<title>key 1967
bias 0.377
h_scaling 1.000&#45;&gt;key 1967
bias 0.377
h_scaling 1.000</title>
<path fill="none" stroke="red" stroke-width="0.1" d="M256.93,-251.45C268.3,-249.61 276.28,-244.77 276.28,-236.92 276.28,-231.65 272.68,-227.73 266.87,-225.17"/>
<polygon fill="red" stroke="red" stroke-width="0.1" points="267.5,-221.71 256.93,-222.39 265.62,-228.45 267.5,-221.71"/>
<text text-anchor="middle" x="290.28" y="-234.72" font-family="Times,serif" font-size="9.00">0.000</text>
</g>
<!-- key 1968
bias &#45;0.817
h_scaling 1.000&#45;&gt;output
bias &#45;0.016
h_scaling 1.000 -->
<g id="edge3" class="edge">
<title>key 1968
bias &#45;0.817
h_scaling 1.000&#45;&gt;output
bias &#45;0.016
h_scaling 1.000</title>
<path fill="none" stroke="blue" stroke-width="0.1" d="M326.13,-337.48C327.49,-280.72 329.48,-197.13 330.9,-137.45"/>
<polygon fill="blue" stroke="blue" stroke-width="0.1" points="334.41,-137.42 331.14,-127.34 327.41,-137.25 334.41,-137.42"/>
</g>
<!-- key 1968
bias &#45;0.817
h_scaling 1.000&#45;&gt;key 1967
bias 0.377
h_scaling 1.000 -->
<g id="edge8" class="edge">
<title>key 1968
bias &#45;0.817
h_scaling 1.000&#45;&gt;key 1967
bias 0.377
h_scaling 1.000</title>
<path fill="none" stroke="blue" stroke-width="0.1" d="M285.28,-351.07C271.22,-333.51 255.25,-313.58 240.67,-295.38"/>
<polygon fill="blue" stroke="blue" stroke-width="0.1" points="243.07,-292.78 234.09,-287.16 237.61,-297.15 243.07,-292.78"/>
</g>
<!-- key 1968
bias &#45;0.817
h_scaling 1.000&#45;&gt;key 1968
bias &#45;0.817
h_scaling 1.000 -->
<g id="edge7" class="edge">
<title>key 1968
bias &#45;0.817
h_scaling 1.000&#45;&gt;key 1968
bias &#45;0.817
h_scaling 1.000</title>
<path fill="none" stroke="red" stroke-width="0.1" d="M386.93,-415.73C398.3,-413.89 406.28,-409.05 406.28,-401.2 406.28,-395.93 402.68,-392.01 396.87,-389.45"/>
<polygon fill="red" stroke="red" stroke-width="0.1" points="397.5,-385.99 386.93,-386.67 395.62,-392.73 397.5,-385.99"/>
<text text-anchor="middle" x="420.28" y="-399" font-family="Times,serif" font-size="9.00">0.000</text>
</g>
<!-- key 118586
bias &#45;0.996
h_scaling 1.000&#45;&gt;key 1967
bias 0.377
h_scaling 1.000 -->
<g id="edge15" class="edge">
<title>key 118586
bias &#45;0.996
h_scaling 1.000&#45;&gt;key 1967
bias 0.377
h_scaling 1.000</title>
<path fill="none" stroke="red" stroke-width="0.1" d="M69.01,-482.75C74.59,-440.02 85.89,-383.17 108.64,-337.56 117.16,-320.48 129.27,-303.93 141.73,-289.4"/>
<polygon fill="red" stroke="red" stroke-width="0.1" points="144.68,-291.35 148.67,-281.54 139.43,-286.72 144.68,-291.35"/>
<text text-anchor="middle" x="122.64" y="-399" font-family="Times,serif" font-size="9.00">0.000</text>
</g>
</g>
</svg>
