<?xml version="1.0" encoding="UTF-8" standalone="no"?>
<!DOCTYPE svg PUBLIC "-//W3C//DTD SVG 1.1//EN"
 "http://www.w3.org/Graphics/SVG/1.1/DTD/svg11.dtd">
<!-- Generated by graphviz version 2.43.0 (0)
 -->
<!-- Title: %3 Pages: 1 -->
<svg width="536pt" height="836pt"
 viewBox="0.00 0.00 535.64 836.40" xmlns="http://www.w3.org/2000/svg" xmlns:xlink="http://www.w3.org/1999/xlink">
<g id="graph0" class="graph" transform="scale(1 1) rotate(0) translate(4 832.4)">
<title>%3</title>
<polygon fill="white" stroke="transparent" points="-4,4 -4,-832.4 531.64,-832.4 531.64,4 -4,4"/>
<!-- ready -->
<g id="node1" class="node">
<title>ready</title>
<polygon fill="yellow" stroke="black" points="172.14,-828.4 129.14,-828.4 129.14,-810.4 172.14,-810.4 172.14,-828.4"/>
<text text-anchor="middle" x="150.64" y="-817.2" font-family="Times,serif" font-size="9.00">ready</text>
</g>
<!-- key 7463
bias &#45;0.301
h_scaling 1.000 -->
<g id="node4" class="node">
<title>key 7463
bias &#45;0.301
h_scaling 1.000</title>
<ellipse fill="white" stroke="black" cx="331.64" cy="-700.76" rx="63.78" ry="63.78"/>
<text text-anchor="middle" x="331.64" y="-708.56" font-family="Times,serif" font-size="9.00">key 7463</text>
<text text-anchor="middle" x="331.64" y="-698.56" font-family="Times,serif" font-size="9.00">bias &#45;0.301</text>
<text text-anchor="middle" x="331.64" y="-688.56" font-family="Times,serif" font-size="9.00">h_scaling 1.000</text>
</g>
<!-- ready&#45;&gt;key 7463
bias &#45;0.301
h_scaling 1.000 -->
<g id="edge10" class="edge">
<title>ready&#45;&gt;key 7463
bias &#45;0.301
h_scaling 1.000</title>
<path fill="none" stroke="blue" stroke-width="1.33" d="M163.08,-810.38C184.84,-796.36 231.15,-766.51 269.74,-741.65"/>
<polygon fill="blue" stroke="blue" stroke-width="1.33" points="271.84,-744.46 278.35,-736.1 268.05,-738.57 271.84,-744.46"/>
<text text-anchor="middle" x="220.14" y="-785.2" font-family="Times,serif" font-size="9.00">&#45;0.409</text>
</g>
<!-- key 1967
bias 0.377
h_scaling 1.000 -->
<g id="node5" class="node">
<title>key 1967
bias 0.377
h_scaling 1.000</title>
<ellipse fill="white" stroke="black" cx="222.64" cy="-236.92" rx="63.78" ry="63.78"/>
<text text-anchor="middle" x="222.64" y="-244.72" font-family="Times,serif" font-size="9.00">key 1967</text>
<text text-anchor="middle" x="222.64" y="-234.72" font-family="Times,serif" font-size="9.00">bias 0.377</text>
<text text-anchor="middle" x="222.64" y="-224.72" font-family="Times,serif" font-size="9.00">h_scaling 1.000</text>
</g>
<!-- ready&#45;&gt;key 1967
bias 0.377
h_scaling 1.000 -->
<g id="edge12" class="edge">
<title>ready&#45;&gt;key 1967
bias 0.377
h_scaling 1.000</title>
<path fill="none" stroke="red" stroke-width="0.83" d="M150.54,-810.28C150.18,-773.39 149.74,-617.97 165.64,-491.84 175.48,-413.8 183.72,-395.15 201.64,-318.56 202.42,-315.22 203.24,-311.8 204.08,-308.36"/>
<polygon fill="red" stroke="red" stroke-width="0.83" points="207.49,-309.15 206.49,-298.6 200.69,-307.47 207.49,-309.15"/>
<text text-anchor="middle" x="179.64" y="-553.28" font-family="Times,serif" font-size="9.00">0.242</text>
</g>
<!-- key 118586
bias &#45;0.996
h_scaling 1.000 -->
<g id="node7" class="node">
<title>key 118586
bias &#45;0.996
h_scaling 1.000</title>
<ellipse fill="white" stroke="black" cx="63.64" cy="-555.48" rx="63.78" ry="63.78"/>
<text text-anchor="middle" x="63.64" y="-563.28" font-family="Times,serif" font-size="9.00">key 118586</text>
<text text-anchor="middle" x="63.64" y="-553.28" font-family="Times,serif" font-size="9.00">bias &#45;0.996</text>
<text text-anchor="middle" x="63.64" y="-543.28" font-family="Times,serif" font-size="9.00">h_scaling 1.000</text>
</g>
<!-- ready&#45;&gt;key 118586
bias &#45;0.996
h_scaling 1.000 -->
<g id="edge14" class="edge">
<title>ready&#45;&gt;key 118586
bias &#45;0.996
h_scaling 1.000</title>
<path fill="none" stroke="red" stroke-width="3.1" d="M130.46,-810.26C122.49,-806.06 113.99,-800.17 108.64,-792.4 75.81,-744.67 65.36,-679.26 62.67,-629.42"/>
<polygon fill="red" stroke="red" stroke-width="3.1" points="66.16,-629.19 62.22,-619.35 59.17,-629.5 66.16,-629.19"/>
<text text-anchor="middle" x="122.64" y="-785.2" font-family="Times,serif" font-size="9.00">1.000</text>
</g>
<!-- go -->
<g id="node2" class="node">
<title>go</title>
<polygon fill="green" stroke="black" points="345.64,-828.4 317.64,-828.4 317.64,-810.4 345.64,-810.4 345.64,-828.4"/>
<text text-anchor="middle" x="331.64" y="-817.2" font-family="Times,serif" font-size="9.00">go</text>
</g>
<!-- go&#45;&gt;key 7463
bias &#45;0.301
h_scaling 1.000 -->
<g id="edge4" class="edge">
<title>go&#45;&gt;key 7463
bias &#45;0.301
h_scaling 1.000</title>
<path fill="none" stroke="red" stroke-width="0.29" d="M331.64,-810.38C331.64,-802.35 331.64,-789.13 331.64,-774.63"/>
<polygon fill="red" stroke="red" stroke-width="0.29" points="335.14,-774.43 331.64,-764.43 328.14,-774.43 335.14,-774.43"/>
<text text-anchor="middle" x="345.64" y="-785.2" font-family="Times,serif" font-size="9.00">0.063</text>
</g>
<!-- go&#45;&gt;key 1967
bias 0.377
h_scaling 1.000 -->
<g id="edge16" class="edge">
<title>go&#45;&gt;key 1967
bias 0.377
h_scaling 1.000</title>
<path fill="none" stroke="blue" stroke-width="0.83" d="M317.36,-812.17C300.29,-803.92 272.31,-787.63 258.64,-764.4 214.63,-689.62 216.04,-437.25 219.75,-311.05"/>
<polygon fill="blue" stroke="blue" stroke-width="0.83" points="223.26,-310.81 220.06,-300.71 216.26,-310.6 223.26,-310.81"/>
<text text-anchor="middle" x="240.14" y="-553.28" font-family="Times,serif" font-size="9.00">&#45;0.242</text>
</g>
<!-- key 1968
bias &#45;0.817
h_scaling 1.000 -->
<g id="node6" class="node">
<title>key 1968
bias &#45;0.817
h_scaling 1.000</title>
<ellipse fill="white" stroke="black" cx="374.64" cy="-410.2" rx="63.78" ry="63.78"/>
<text text-anchor="middle" x="374.64" y="-418" font-family="Times,serif" font-size="9.00">key 1968</text>
<text text-anchor="middle" x="374.64" y="-408" font-family="Times,serif" font-size="9.00">bias &#45;0.817</text>
<text text-anchor="middle" x="374.64" y="-398" font-family="Times,serif" font-size="9.00">h_scaling 1.000</text>
</g>
<!-- go&#45;&gt;key 1968
bias &#45;0.817
h_scaling 1.000 -->
<g id="edge2" class="edge">
<title>go&#45;&gt;key 1968
bias &#45;0.817
h_scaling 1.000</title>
<path fill="none" stroke="red" stroke-width="3" d="M345.81,-816.82C371.91,-813.08 427.05,-801.01 450.64,-764.4 508.59,-674.47 455.58,-547.58 413.74,-472.9"/>
<polygon fill="red" stroke="red" stroke-width="3" points="416.7,-471.02 408.71,-464.06 410.62,-474.48 416.7,-471.02"/>
<text text-anchor="middle" x="489.64" y="-698.56" font-family="Times,serif" font-size="9.00">0.966</text>
</g>
<!-- output
bias &#45;0.016
h_scaling 1.000 -->
<g id="node3" class="node">
<title>output
bias &#45;0.016
h_scaling 1.000</title>
<ellipse fill="lightblue" stroke="black" cx="374.64" cy="-63.64" rx="63.78" ry="63.78"/>
<text text-anchor="middle" x="374.64" y="-71.44" font-family="Times,serif" font-size="9.00">output</text>
<text text-anchor="middle" x="374.64" y="-61.44" font-family="Times,serif" font-size="9.00">bias &#45;0.016</text>
<text text-anchor="middle" x="374.64" y="-51.44" font-family="Times,serif" font-size="9.00">h_scaling 1.000</text>
</g>
<!-- key 7463
bias &#45;0.301
h_scaling 1.000&#45;&gt;output
bias &#45;0.016
h_scaling 1.000 -->
<g id="edge9" class="edge">
<title>key 7463
bias &#45;0.301
h_scaling 1.000&#45;&gt;output
bias &#45;0.016
h_scaling 1.000</title>
<path fill="none" stroke="blue" stroke-width="2.96" d="M377.02,-655.37C416.73,-613.03 471.43,-545.27 493.64,-473.84 531.87,-350.88 463.11,-205.98 415.17,-125.8"/>
<polygon fill="blue" stroke="blue" stroke-width="2.96" points="417.91,-123.56 409.73,-116.82 411.92,-127.19 417.91,-123.56"/>
<text text-anchor="middle" x="512.14" y="-321.36" font-family="Times,serif" font-size="9.00">&#45;0.953</text>
</g>
<!-- key 7463
bias &#45;0.301
h_scaling 1.000&#45;&gt;key 7463
bias &#45;0.301
h_scaling 1.000 -->
<g id="edge6" class="edge">
<title>key 7463
bias &#45;0.301
h_scaling 1.000&#45;&gt;key 7463
bias &#45;0.301
h_scaling 1.000</title>
<path fill="none" stroke="red" stroke-width="2.15" d="M393.58,-716.05C405.14,-714.17 413.28,-709.07 413.28,-700.76 413.28,-695.04 409.43,-690.84 403.27,-688.17"/>
<polygon fill="red" stroke="red" stroke-width="2.15" points="404.16,-684.78 393.58,-685.46 402.27,-691.52 404.16,-684.78"/>
<text text-anchor="middle" x="427.28" y="-698.56" font-family="Times,serif" font-size="9.00">0.684</text>
</g>
<!-- key 7463
bias &#45;0.301
h_scaling 1.000&#45;&gt;key 1967
bias 0.377
h_scaling 1.000 -->
<g id="edge13" class="edge">
<title>key 7463
bias &#45;0.301
h_scaling 1.000&#45;&gt;key 1967
bias 0.377
h_scaling 1.000</title>
<path fill="none" stroke="blue" stroke-width="2.41" d="M314.16,-639.13C301.35,-593.8 283.96,-530.18 270.64,-473.84 257.69,-419.08 245.09,-356.67 236.05,-309.8"/>
<polygon fill="blue" stroke="blue" stroke-width="2.41" points="239.44,-308.91 234.11,-299.75 232.56,-310.23 239.44,-308.91"/>
<text text-anchor="middle" x="286.14" y="-408" font-family="Times,serif" font-size="9.00">&#45;0.769</text>
</g>
<!-- key 7463
bias &#45;0.301
h_scaling 1.000&#45;&gt;key 1968
bias &#45;0.817
h_scaling 1.000 -->
<g id="edge5" class="edge">
<title>key 7463
bias &#45;0.301
h_scaling 1.000&#45;&gt;key 1968
bias &#45;0.817
h_scaling 1.000</title>
<path fill="none" stroke="red" stroke-width="1.53" d="M340.92,-637.5C347.67,-592.18 356.83,-530.69 363.9,-483.24"/>
<polygon fill="red" stroke="red" stroke-width="1.53" points="367.37,-483.75 365.38,-473.34 360.44,-482.72 367.37,-483.75"/>
<text text-anchor="middle" x="375.64" y="-553.28" font-family="Times,serif" font-size="9.00">0.478</text>
</g>
<!-- key 1967
bias 0.377
h_scaling 1.000&#45;&gt;output
bias &#45;0.016
h_scaling 1.000 -->
<g id="edge1" class="edge">
<title>key 1967
bias 0.377
h_scaling 1.000&#45;&gt;output
bias &#45;0.016
h_scaling 1.000</title>
<path fill="none" stroke="red" stroke-width="3.1" d="M264.58,-188.66C283.6,-167.23 306.21,-141.75 325.98,-119.47"/>
<polygon fill="red" stroke="red" stroke-width="3.1" points="328.82,-121.54 332.84,-111.74 323.58,-116.9 328.82,-121.54"/>
<text text-anchor="middle" x="312.64" y="-148.08" font-family="Times,serif" font-size="9.00">1.000</text>
</g>
<!-- key 1967
bias 0.377
h_scaling 1.000&#45;&gt;key 1967
bias 0.377
h_scaling 1.000 -->
<g id="edge11" class="edge">
<title>key 1967
bias 0.377
h_scaling 1.000&#45;&gt;key 1967
bias 0.377
h_scaling 1.000</title>
<path fill="none" stroke="red" stroke-width="2.19" d="M284.58,-252.22C296.14,-250.33 304.28,-245.23 304.28,-236.92 304.28,-231.2 300.43,-227.01 294.27,-224.33"/>
<polygon fill="red" stroke="red" stroke-width="2.19" points="295.16,-220.94 284.58,-221.62 293.27,-227.68 295.16,-220.94"/>
<text text-anchor="middle" x="318.28" y="-234.72" font-family="Times,serif" font-size="9.00">0.697</text>
</g>
<!-- key 1968
bias &#45;0.817
h_scaling 1.000&#45;&gt;output
bias &#45;0.016
h_scaling 1.000 -->
<g id="edge3" class="edge">
<title>key 1968
bias &#45;0.817
h_scaling 1.000&#45;&gt;output
bias &#45;0.016
h_scaling 1.000</title>
<path fill="none" stroke="blue" stroke-width="3.1" d="M374.64,-346.4C374.64,-287.47 374.64,-199.36 374.64,-137.39"/>
<polygon fill="blue" stroke="blue" stroke-width="3.1" points="378.14,-137.3 374.64,-127.3 371.14,-137.3 378.14,-137.3"/>
<text text-anchor="middle" x="390.14" y="-234.72" font-family="Times,serif" font-size="9.00">&#45;1.000</text>
</g>
<!-- key 1968
bias &#45;0.817
h_scaling 1.000&#45;&gt;key 1967
bias 0.377
h_scaling 1.000 -->
<g id="edge8" class="edge">
<title>key 1968
bias &#45;0.817
h_scaling 1.000&#45;&gt;key 1967
bias 0.377
h_scaling 1.000</title>
<path fill="none" stroke="blue" stroke-width="3.01" d="M332.7,-361.94C313.68,-340.51 291.07,-315.03 271.3,-292.75"/>
<polygon fill="blue" stroke="blue" stroke-width="3.01" points="273.7,-290.18 264.44,-285.02 268.46,-294.82 273.7,-290.18"/>
<text text-anchor="middle" x="314.14" y="-321.36" font-family="Times,serif" font-size="9.00">&#45;0.971</text>
</g>
<!-- key 1968
bias &#45;0.817
h_scaling 1.000&#45;&gt;key 1968
bias &#45;0.817
h_scaling 1.000 -->
<g id="edge7" class="edge">
<title>key 1968
bias &#45;0.817
h_scaling 1.000&#45;&gt;key 1968
bias &#45;0.817
h_scaling 1.000</title>
<path fill="none" stroke="red" stroke-width="2.8" d="M436.58,-425.5C448.14,-423.61 456.28,-418.51 456.28,-410.2 456.28,-404.48 452.43,-400.29 446.27,-397.61"/>
<polygon fill="red" stroke="red" stroke-width="2.8" points="447.16,-394.22 436.58,-394.9 445.27,-400.96 447.16,-394.22"/>
<text text-anchor="middle" x="470.28" y="-408" font-family="Times,serif" font-size="9.00">0.901</text>
</g>
<!-- key 118586
bias &#45;0.996
h_scaling 1.000&#45;&gt;key 1967
bias 0.377
h_scaling 1.000 -->
<g id="edge15" class="edge">
<title>key 118586
bias &#45;0.996
h_scaling 1.000&#45;&gt;key 1967
bias 0.377
h_scaling 1.000</title>
<path fill="none" stroke="red" stroke-width="0.83" d="M67.9,-491.66C72.99,-448.64 84.15,-391.47 108.64,-346.56 122.1,-321.87 143.15,-299.48 163.52,-281.53"/>
<polygon fill="red" stroke="red" stroke-width="0.83" points="165.96,-284.04 171.27,-274.87 161.4,-278.73 165.96,-284.04"/>
<text text-anchor="middle" x="122.64" y="-408" font-family="Times,serif" font-size="9.00">0.243</text>
</g>
</g>
</svg>
