<?xml version="1.0" encoding="UTF-8" standalone="no"?>
<!DOCTYPE svg PUBLIC "-//W3C//DTD SVG 1.1//EN"
 "http://www.w3.org/Graphics/SVG/1.1/DTD/svg11.dtd">
<!-- Generated by graphviz version 2.43.0 (0)
 -->
<!-- Title: %3 Pages: 1 -->
<svg width="589pt" height="1010pt"
 viewBox="0.00 0.00 588.64 1009.68" xmlns="http://www.w3.org/2000/svg" xmlns:xlink="http://www.w3.org/1999/xlink">
<g id="graph0" class="graph" transform="scale(1 1) rotate(0) translate(4 1005.68)">
<title>%3</title>
<polygon fill="white" stroke="transparent" points="-4,4 -4,-1005.68 584.64,-1005.68 584.64,4 -4,4"/>
<!-- ready -->
<g id="node1" class="node">
<title>ready</title>
<polygon fill="yellow" stroke="black" points="379.5,-1001.68 336.5,-1001.68 336.5,-983.68 379.5,-983.68 379.5,-1001.68"/>
<text text-anchor="middle" x="358" y="-990.48" font-family="Times,serif" font-size="9.00">ready</text>
</g>
<!-- key 1381
bias 0.288
h_scaling 1.000 -->
<g id="node5" class="node">
<title>key 1381
bias 0.288
h_scaling 1.000</title>
<ellipse fill="white" stroke="black" cx="280" cy="-874.04" rx="63.78" ry="63.78"/>
<text text-anchor="middle" x="280" y="-881.84" font-family="Times,serif" font-size="9.00">key 1381</text>
<text text-anchor="middle" x="280" y="-871.84" font-family="Times,serif" font-size="9.00">bias 0.288</text>
<text text-anchor="middle" x="280" y="-861.84" font-family="Times,serif" font-size="9.00">h_scaling 1.000</text>
</g>
<!-- ready&#45;&gt;key 1381
bias 0.288
h_scaling 1.000 -->
<g id="edge9" class="edge">
<title>ready&#45;&gt;key 1381
bias 0.288
h_scaling 1.000</title>
<path fill="none" stroke="red" stroke-width="0.36" d="M342.03,-983.48C334.57,-979.02 326.03,-972.93 320,-965.68 314.41,-958.95 309.46,-951.31 305.12,-943.4"/>
<polygon fill="red" stroke="red" stroke-width="0.36" points="308.17,-941.67 300.48,-934.38 301.95,-944.88 308.17,-941.67"/>
<text text-anchor="middle" x="334" y="-958.48" font-family="Times,serif" font-size="9.00">0.009</text>
</g>
<!-- key 10262
bias &#45;0.395
h_scaling 1.000 -->
<g id="node7" class="node">
<title>key 10262
bias &#45;0.395
h_scaling 1.000</title>
<ellipse fill="white" stroke="black" cx="216" cy="-236.92" rx="63.78" ry="63.78"/>
<text text-anchor="middle" x="216" y="-244.72" font-family="Times,serif" font-size="9.00">key 10262</text>
<text text-anchor="middle" x="216" y="-234.72" font-family="Times,serif" font-size="9.00">bias &#45;0.395</text>
<text text-anchor="middle" x="216" y="-224.72" font-family="Times,serif" font-size="9.00">h_scaling 1.000</text>
</g>
<!-- ready&#45;&gt;key 10262
bias &#45;0.395
h_scaling 1.000 -->
<g id="edge10" class="edge">
<title>ready&#45;&gt;key 10262
bias &#45;0.395
h_scaling 1.000</title>
<path fill="none" stroke="blue" stroke-width="0.1" d="M363.15,-983.55C374.37,-965.06 400,-918.08 400,-875.04 400,-875.04 400,-875.04 400,-409.2 400,-380.11 398.41,-369.87 381,-346.56 355.75,-312.76 316.67,-286.36 282.88,-268.05"/>
<polygon fill="blue" stroke="blue" stroke-width="0.1" points="284.44,-264.91 273.97,-263.33 281.17,-271.1 284.44,-264.91"/>
</g>
<!-- go -->
<g id="node2" class="node">
<title>go</title>
<polygon fill="green" stroke="black" points="452,-1001.68 424,-1001.68 424,-983.68 452,-983.68 452,-1001.68"/>
<text text-anchor="middle" x="438" y="-990.48" font-family="Times,serif" font-size="9.00">go</text>
</g>
<!-- go&#45;&gt;key 1381
bias 0.288
h_scaling 1.000 -->
<g id="edge3" class="edge">
<title>go&#45;&gt;key 1381
bias 0.288
h_scaling 1.000</title>
<path fill="none" stroke="blue" stroke-width="0.1" d="M427.14,-983.66C409.08,-970.33 371.63,-942.68 339.03,-918.61"/>
<polygon fill="blue" stroke="blue" stroke-width="0.1" points="340.99,-915.71 330.86,-912.58 336.83,-921.34 340.99,-915.71"/>
</g>
<!-- key 50861
bias &#45;0.044
h_scaling 1.000 -->
<g id="node6" class="node">
<title>key 50861
bias &#45;0.044
h_scaling 1.000</title>
<ellipse fill="white" stroke="black" cx="517" cy="-728.76" rx="63.78" ry="63.78"/>
<text text-anchor="middle" x="517" y="-736.56" font-family="Times,serif" font-size="9.00">key 50861</text>
<text text-anchor="middle" x="517" y="-726.56" font-family="Times,serif" font-size="9.00">bias &#45;0.044</text>
<text text-anchor="middle" x="517" y="-716.56" font-family="Times,serif" font-size="9.00">h_scaling 1.000</text>
</g>
<!-- go&#45;&gt;key 50861
bias &#45;0.044
h_scaling 1.000 -->
<g id="edge17" class="edge">
<title>go&#45;&gt;key 50861
bias &#45;0.044
h_scaling 1.000</title>
<path fill="none" stroke="red" stroke-width="0.51" d="M443.17,-983.24C446.06,-978.27 449.56,-971.77 452,-965.68 473.55,-911.93 490.58,-848.53 501.79,-801"/>
<polygon fill="red" stroke="red" stroke-width="0.51" points="505.24,-801.64 504.1,-791.11 498.42,-800.06 505.24,-801.64"/>
<text text-anchor="middle" x="469" y="-958.48" font-family="Times,serif" font-size="9.00">0.014</text>
</g>
<!-- key 5438
bias &#45;0.242
h_scaling 1.000 -->
<g id="node8" class="node">
<title>key 5438
bias &#45;0.242
h_scaling 1.000</title>
<ellipse fill="white" stroke="black" cx="308" cy="-410.2" rx="63.78" ry="63.78"/>
<text text-anchor="middle" x="308" y="-418" font-family="Times,serif" font-size="9.00">key 5438</text>
<text text-anchor="middle" x="308" y="-408" font-family="Times,serif" font-size="9.00">bias &#45;0.242</text>
<text text-anchor="middle" x="308" y="-398" font-family="Times,serif" font-size="9.00">h_scaling 1.000</text>
</g>
<!-- go&#45;&gt;key 5438
bias &#45;0.242
h_scaling 1.000 -->
<g id="edge4" class="edge">
<title>go&#45;&gt;key 5438
bias &#45;0.242
h_scaling 1.000</title>
<path fill="none" stroke="blue" stroke-width="0.1" d="M438.31,-983.46C439.53,-946.16 442.61,-789.2 414,-665.12 398.38,-597.37 382.94,-583.93 356,-519.84 350.29,-506.25 344.02,-491.77 337.96,-477.97"/>
<polygon fill="blue" stroke="blue" stroke-width="0.1" points="341.04,-476.28 333.8,-468.54 334.63,-479.1 341.04,-476.28"/>
</g>
<!-- output
bias &#45;0.887
h_scaling 1.000 -->
<g id="node3" class="node">
<title>output
bias &#45;0.887
h_scaling 1.000</title>
<ellipse fill="lightblue" stroke="black" cx="180" cy="-583.48" rx="63.78" ry="63.78"/>
<text text-anchor="middle" x="180" y="-591.28" font-family="Times,serif" font-size="9.00">output</text>
<text text-anchor="middle" x="180" y="-581.28" font-family="Times,serif" font-size="9.00">bias &#45;0.887</text>
<text text-anchor="middle" x="180" y="-571.28" font-family="Times,serif" font-size="9.00">h_scaling 1.000</text>
</g>
<!-- key 39681
bias &#45;0.562
h_scaling 1.000 -->
<g id="node4" class="node">
<title>key 39681
bias &#45;0.562
h_scaling 1.000</title>
<ellipse fill="white" stroke="black" cx="76" cy="-63.64" rx="63.78" ry="63.78"/>
<text text-anchor="middle" x="76" y="-71.44" font-family="Times,serif" font-size="9.00">key 39681</text>
<text text-anchor="middle" x="76" y="-61.44" font-family="Times,serif" font-size="9.00">bias &#45;0.562</text>
<text text-anchor="middle" x="76" y="-51.44" font-family="Times,serif" font-size="9.00">h_scaling 1.000</text>
</g>
<!-- output
bias &#45;0.887
h_scaling 1.000&#45;&gt;key 39681
bias &#45;0.562
h_scaling 1.000 -->
<g id="edge14" class="edge">
<title>output
bias &#45;0.887
h_scaling 1.000&#45;&gt;key 39681
bias &#45;0.562
h_scaling 1.000</title>
<path fill="none" stroke="red" stroke-width="0.29" d="M167.66,-521.04C148.32,-424.72 110.94,-238.63 90.4,-136.33"/>
<polygon fill="red" stroke="red" stroke-width="0.29" points="93.8,-135.51 88.4,-126.4 86.94,-136.89 93.8,-135.51"/>
<text text-anchor="middle" x="142" y="-321.36" font-family="Times,serif" font-size="9.00">0.006</text>
</g>
<!-- output
bias &#45;0.887
h_scaling 1.000&#45;&gt;key 10262
bias &#45;0.395
h_scaling 1.000 -->
<g id="edge8" class="edge">
<title>output
bias &#45;0.887
h_scaling 1.000&#45;&gt;key 10262
bias &#45;0.395
h_scaling 1.000</title>
<path fill="none" stroke="red" stroke-width="0.37" d="M171.4,-520.32C166.45,-472.42 163.14,-404.76 174,-346.56 176.6,-332.64 180.91,-318.21 185.82,-304.59"/>
<polygon fill="red" stroke="red" stroke-width="0.37" points="189.24,-305.43 189.47,-294.83 182.69,-302.97 189.24,-305.43"/>
<text text-anchor="middle" x="188" y="-408" font-family="Times,serif" font-size="9.00">0.009</text>
</g>
<!-- output
bias &#45;0.887
h_scaling 1.000&#45;&gt;key 5438
bias &#45;0.242
h_scaling 1.000 -->
<g id="edge11" class="edge">
<title>output
bias &#45;0.887
h_scaling 1.000&#45;&gt;key 5438
bias &#45;0.242
h_scaling 1.000</title>
<path fill="none" stroke="red" stroke-width="0.16" d="M198.44,-522.33C203.01,-511.7 208.5,-501.09 215,-491.84 220.83,-483.54 235.14,-470.3 250.82,-456.93"/>
<polygon fill="red" stroke="red" stroke-width="0.16" points="253.21,-459.49 258.6,-450.37 248.7,-454.14 253.21,-459.49"/>
<text text-anchor="middle" x="229" y="-494.64" font-family="Times,serif" font-size="9.00">0.002</text>
</g>
<!-- key 39681
bias &#45;0.562
h_scaling 1.000&#45;&gt;output
bias &#45;0.887
h_scaling 1.000 -->
<g id="edge21" class="edge">
<title>key 39681
bias &#45;0.562
h_scaling 1.000&#45;&gt;output
bias &#45;0.887
h_scaling 1.000</title>
<path fill="none" stroke="blue" stroke-width="0.1" d="M73.28,-127.47C72.05,-181.23 72.86,-260.47 84,-328.56 94.89,-395.14 103.59,-410.94 128,-473.84 133.56,-488.15 140.2,-503.19 146.85,-517.36"/>
<polygon fill="blue" stroke="blue" stroke-width="0.1" points="143.76,-519 151.22,-526.53 150.08,-516 143.76,-519"/>
</g>
<!-- key 39681
bias &#45;0.562
h_scaling 1.000&#45;&gt;key 39681
bias &#45;0.562
h_scaling 1.000 -->
<g id="edge20" class="edge">
<title>key 39681
bias &#45;0.562
h_scaling 1.000&#45;&gt;key 39681
bias &#45;0.562
h_scaling 1.000</title>
<path fill="none" stroke="red" stroke-width="0.46" d="M137.94,-78.94C149.5,-77.05 157.64,-71.95 157.64,-63.64 157.64,-57.92 153.79,-53.73 147.63,-51.05"/>
<polygon fill="red" stroke="red" stroke-width="0.46" points="148.52,-47.66 137.94,-48.34 146.63,-54.4 148.52,-47.66"/>
<text text-anchor="middle" x="171.64" y="-61.44" font-family="Times,serif" font-size="9.00">0.012</text>
</g>
<!-- key 39681
bias &#45;0.562
h_scaling 1.000&#45;&gt;key 1381
bias 0.288
h_scaling 1.000 -->
<g id="edge15" class="edge">
<title>key 39681
bias &#45;0.562
h_scaling 1.000&#45;&gt;key 1381
bias 0.288
h_scaling 1.000</title>
<path fill="none" stroke="blue" stroke-width="0.1" d="M39.78,-116.04C20.21,-148.78 0,-192.98 0,-235.92 0,-584.48 0,-584.48 0,-584.48 0,-689.02 34.48,-720.11 110,-792.4 137.81,-819.02 176.05,-838.22 209.22,-851.19"/>
<polygon fill="blue" stroke="blue" stroke-width="0.1" points="208.29,-854.58 218.88,-854.85 210.77,-848.04 208.29,-854.58"/>
</g>
<!-- key 1381
bias 0.288
h_scaling 1.000&#45;&gt;output
bias &#45;0.887
h_scaling 1.000 -->
<g id="edge12" class="edge">
<title>key 1381
bias 0.288
h_scaling 1.000&#45;&gt;output
bias &#45;0.887
h_scaling 1.000</title>
<path fill="none" stroke="red" stroke-width="0.2" d="M249.31,-817.78C245.22,-809.4 241.3,-800.76 238,-792.4 220.52,-748.12 206.1,-696.59 196.02,-655.91"/>
<polygon fill="red" stroke="red" stroke-width="0.2" points="199.39,-654.96 193.61,-646.08 192.59,-656.62 199.39,-654.96"/>
<text text-anchor="middle" x="252" y="-726.56" font-family="Times,serif" font-size="9.00">0.003</text>
</g>
<!-- key 1381
bias 0.288
h_scaling 1.000&#45;&gt;key 5438
bias &#45;0.242
h_scaling 1.000 -->
<g id="edge1" class="edge">
<title>key 1381
bias 0.288
h_scaling 1.000&#45;&gt;key 5438
bias &#45;0.242
h_scaling 1.000</title>
<path fill="none" stroke="red" stroke-width="0.36" d="M280.82,-810.09C282.12,-739.37 285.48,-621.2 294,-519.84 294.99,-508.07 296.32,-495.61 297.78,-483.5"/>
<polygon fill="red" stroke="red" stroke-width="0.36" points="301.27,-483.78 299.02,-473.43 294.32,-482.93 301.27,-483.78"/>
<text text-anchor="middle" x="308" y="-581.28" font-family="Times,serif" font-size="9.00">0.009</text>
</g>
<!-- key 50861
bias &#45;0.044
h_scaling 1.000&#45;&gt;key 10262
bias &#45;0.395
h_scaling 1.000 -->
<g id="edge18" class="edge">
<title>key 50861
bias &#45;0.044
h_scaling 1.000&#45;&gt;key 10262
bias &#45;0.395
h_scaling 1.000</title>
<path fill="none" stroke="red" stroke-width="0.48" d="M517.98,-665.1C516,-577.27 499.76,-417.27 414,-318.56 382.04,-281.78 330.8,-261.51 288.45,-250.5"/>
<polygon fill="red" stroke="red" stroke-width="0.48" points="289.27,-247.1 278.72,-248.09 287.59,-253.89 289.27,-247.1"/>
<text text-anchor="middle" x="512" y="-494.64" font-family="Times,serif" font-size="9.00">0.013</text>
</g>
<!-- key 10262
bias &#45;0.395
h_scaling 1.000&#45;&gt;output
bias &#45;0.887
h_scaling 1.000 -->
<g id="edge16" class="edge">
<title>key 10262
bias &#45;0.395
h_scaling 1.000&#45;&gt;output
bias &#45;0.887
h_scaling 1.000</title>
<path fill="none" stroke="blue" stroke-width="0.1" d="M214.67,-300.73C213.08,-348.39 209.61,-415.45 202,-473.84 200.41,-486.03 198.24,-498.91 195.89,-511.37"/>
<polygon fill="blue" stroke="blue" stroke-width="0.1" points="192.44,-510.77 193.96,-521.25 199.31,-512.11 192.44,-510.77"/>
</g>
<!-- key 10262
bias &#45;0.395
h_scaling 1.000&#45;&gt;key 39681
bias &#45;0.562
h_scaling 1.000 -->
<g id="edge19" class="edge">
<title>key 10262
bias &#45;0.395
h_scaling 1.000&#45;&gt;key 39681
bias &#45;0.562
h_scaling 1.000</title>
<path fill="none" stroke="red" stroke-width="0.5" d="M175.88,-186.84C159.19,-166.41 139.7,-142.58 122.4,-121.4"/>
<polygon fill="red" stroke="red" stroke-width="0.5" points="124.92,-118.96 115.88,-113.43 119.5,-123.39 124.92,-118.96"/>
<text text-anchor="middle" x="160" y="-148.08" font-family="Times,serif" font-size="9.00">0.013</text>
</g>
<!-- key 10262
bias &#45;0.395
h_scaling 1.000&#45;&gt;key 1381
bias 0.288
h_scaling 1.000 -->
<g id="edge5" class="edge">
<title>key 10262
bias &#45;0.395
h_scaling 1.000&#45;&gt;key 1381
bias 0.288
h_scaling 1.000</title>
<path fill="none" stroke="blue" stroke-width="0.1" d="M156.75,-261.08C132.08,-274.02 105.96,-292.83 92,-318.56 22.29,-447.04 64.31,-507.31 107,-647.12 129.05,-719.32 147.64,-733.61 195,-792.4 203.83,-803.36 214.1,-814.29 224.38,-824.4"/>
<polygon fill="blue" stroke="blue" stroke-width="0.1" points="222.23,-827.18 231.85,-831.6 227.09,-822.14 222.23,-827.18"/>
</g>
<!-- key 10262
bias &#45;0.395
h_scaling 1.000&#45;&gt;key 10262
bias &#45;0.395
h_scaling 1.000 -->
<g id="edge6" class="edge">
<title>key 10262
bias &#45;0.395
h_scaling 1.000&#45;&gt;key 10262
bias &#45;0.395
h_scaling 1.000</title>
<path fill="none" stroke="red" stroke-width="0.7" d="M277.94,-252.22C289.5,-250.33 297.64,-245.23 297.64,-236.92 297.64,-231.2 293.79,-227.01 287.63,-224.33"/>
<polygon fill="red" stroke="red" stroke-width="0.7" points="288.52,-220.94 277.94,-221.62 286.63,-227.68 288.52,-220.94"/>
<text text-anchor="middle" x="311.64" y="-234.72" font-family="Times,serif" font-size="9.00">0.020</text>
</g>
<!-- key 5438
bias &#45;0.242
h_scaling 1.000&#45;&gt;output
bias &#45;0.887
h_scaling 1.000 -->
<g id="edge2" class="edge">
<title>key 5438
bias &#45;0.242
h_scaling 1.000&#45;&gt;output
bias &#45;0.887
h_scaling 1.000</title>
<path fill="none" stroke="red" stroke-width="0.16" d="M273.72,-464.07C265.23,-476.62 255.98,-489.84 247,-501.84 240.88,-510.01 234.23,-518.47 227.57,-526.7"/>
<polygon fill="red" stroke="red" stroke-width="0.16" points="224.81,-524.54 221.2,-534.5 230.23,-528.97 224.81,-524.54"/>
<text text-anchor="middle" x="268" y="-494.64" font-family="Times,serif" font-size="9.00">0.002</text>
</g>
<!-- key 5438
bias &#45;0.242
h_scaling 1.000&#45;&gt;key 1381
bias 0.288
h_scaling 1.000 -->
<g id="edge7" class="edge">
<title>key 5438
bias &#45;0.242
h_scaling 1.000&#45;&gt;key 1381
bias 0.288
h_scaling 1.000</title>
<path fill="none" stroke="red" stroke-width="0.36" d="M317.41,-473.4C319.31,-488.56 321.03,-504.75 322,-519.84 329.79,-641.23 319.87,-672.92 297,-792.4 296.43,-795.39 295.83,-798.45 295.22,-801.53"/>
<polygon fill="red" stroke="red" stroke-width="0.36" points="291.77,-800.95 293.23,-811.44 298.63,-802.33 291.77,-800.95"/>
<text text-anchor="middle" x="338" y="-581.28" font-family="Times,serif" font-size="9.00">0.009</text>
</g>
<!-- key 5438
bias &#45;0.242
h_scaling 1.000&#45;&gt;key 10262
bias &#45;0.395
h_scaling 1.000 -->
<g id="edge13" class="edge">
<title>key 5438
bias &#45;0.242
h_scaling 1.000&#45;&gt;key 10262
bias &#45;0.395
h_scaling 1.000</title>
<path fill="none" stroke="blue" stroke-width="0.1" d="M278.13,-353.59C269.36,-337.27 259.7,-319.29 250.67,-302.46"/>
<polygon fill="blue" stroke="blue" stroke-width="0.1" points="253.54,-300.4 245.72,-293.25 247.37,-303.72 253.54,-300.4"/>
</g>
</g>
</svg>
