<?xml version="1.0" encoding="UTF-8" standalone="no"?>
<!DOCTYPE svg PUBLIC "-//W3C//DTD SVG 1.1//EN"
 "http://www.w3.org/Graphics/SVG/1.1/DTD/svg11.dtd">
<!-- Generated by graphviz version 8.0.5 (20230430.1635)
 -->
<!-- Pages: 1 -->
<svg width="559pt" height="713pt"
 viewBox="0.00 0.00 559.12 712.83" xmlns="http://www.w3.org/2000/svg" xmlns:xlink="http://www.w3.org/1999/xlink">
<g id="graph0" class="graph" transform="scale(1 1) rotate(0) translate(4 708.83)">
<polygon fill="white" stroke="none" points="-4,4 -4,-708.83 555.12,-708.83 555.12,4 -4,4"/>
<!-- ready -->
<g id="node1" class="node">
<title>ready</title>
<polygon fill="yellow" stroke="black" points="162.68,-704.83 126.43,-704.83 126.43,-685.58 162.68,-685.58 162.68,-704.83"/>
<text text-anchor="middle" x="144.56" y="-692.28" font-family="Times New Roman,serif" font-size="9.00">ready</text>
</g>
<!-- key 92453
bias &#45;0.226
h_scaling 0.640 -->
<g id="node5" class="node">
<title>key 92453
bias &#45;0.226
h_scaling 0.640</title>
<ellipse fill="white" stroke="black" cx="156.56" cy="-324.79" rx="50.56" ry="50.56"/>
<text text-anchor="middle" x="156.56" y="-333.12" font-family="Times New Roman,serif" font-size="9.00">key 92453</text>
<text text-anchor="middle" x="156.56" y="-321.87" font-family="Times New Roman,serif" font-size="9.00">bias &#45;0.226</text>
<text text-anchor="middle" x="156.56" y="-310.62" font-family="Times New Roman,serif" font-size="9.00">h_scaling 0.640</text>
</g>
<!-- ready&#45;&gt;key 92453
bias &#45;0.226
h_scaling 0.640 -->
<g id="edge8" class="edge">
<title>ready&#45;&gt;key 92453
bias &#45;0.226
h_scaling 0.640</title>
<path fill="none" stroke="blue" stroke-width="1.25" d="M139.24,-685.36C134.32,-676.62 127.36,-662.7 124.56,-649.58 102.42,-546.04 105.71,-515.54 124.56,-411.35 126.36,-401.39 129.25,-391.08 132.58,-381.21"/>
<polygon fill="blue" stroke="blue" stroke-width="1.25" points="136.12,-382.71 136.18,-372.11 129.52,-380.36 136.12,-382.71"/>
</g>
<!-- key 1542
bias &#45;0.681
h_scaling 0.131 -->
<g id="node6" class="node">
<title>key 1542
bias &#45;0.681
h_scaling 0.131</title>
<ellipse fill="white" stroke="black" cx="50.56" cy="-187.67" rx="50.56" ry="50.56"/>
<text text-anchor="middle" x="50.56" y="-196" font-family="Times New Roman,serif" font-size="9.00">key 1542</text>
<text text-anchor="middle" x="50.56" y="-184.75" font-family="Times New Roman,serif" font-size="9.00">bias &#45;0.681</text>
<text text-anchor="middle" x="50.56" y="-173.5" font-family="Times New Roman,serif" font-size="9.00">h_scaling 0.131</text>
</g>
<!-- ready&#45;&gt;key 1542
bias &#45;0.681
h_scaling 0.131 -->
<g id="edge9" class="edge">
<title>ready&#45;&gt;key 1542
bias &#45;0.681
h_scaling 0.131</title>
<path fill="none" stroke="blue" stroke-width="1.96" d="M135.58,-685.24C127.31,-676.63 115.06,-662.99 106.56,-649.58 70.75,-593.1 58.65,-577.84 44.56,-512.47 25.18,-422.57 33.01,-315.36 41.2,-249.67"/>
<polygon fill="blue" stroke="blue" stroke-width="1.96" points="44.91,-250.26 42.72,-239.9 37.97,-249.36 44.91,-250.26"/>
</g>
<!-- key 180791
bias &#45;0.190
h_scaling 0.342 -->
<g id="node9" class="node">
<title>key 180791
bias &#45;0.190
h_scaling 0.342</title>
<ellipse fill="white" stroke="black" cx="184.56" cy="-599.02" rx="50.56" ry="50.56"/>
<text text-anchor="middle" x="184.56" y="-607.35" font-family="Times New Roman,serif" font-size="9.00">key 180791</text>
<text text-anchor="middle" x="184.56" y="-596.1" font-family="Times New Roman,serif" font-size="9.00">bias &#45;0.190</text>
<text text-anchor="middle" x="184.56" y="-584.85" font-family="Times New Roman,serif" font-size="9.00">h_scaling 0.342</text>
</g>
<!-- ready&#45;&gt;key 180791
bias &#45;0.190
h_scaling 0.342 -->
<g id="edge15" class="edge">
<title>ready&#45;&gt;key 180791
bias &#45;0.190
h_scaling 0.342</title>
<path fill="none" stroke="red" stroke-width="2.25" d="M148.39,-685.18C151.27,-678.41 155.47,-668.52 160,-657.86"/>
<polygon fill="red" stroke="red" stroke-width="2.25" points="163.31,-659.66 163.99,-649.09 156.86,-656.92 163.31,-659.66"/>
</g>
<!-- key 168731
bias &#45;0.716
h_scaling 0.382 -->
<g id="node12" class="node">
<title>key 168731
bias &#45;0.716
h_scaling 0.382</title>
<ellipse fill="white" stroke="black" cx="184.56" cy="-461.91" rx="50.56" ry="50.56"/>
<text text-anchor="middle" x="184.56" y="-470.23" font-family="Times New Roman,serif" font-size="9.00">key 168731</text>
<text text-anchor="middle" x="184.56" y="-458.98" font-family="Times New Roman,serif" font-size="9.00">bias &#45;0.716</text>
<text text-anchor="middle" x="184.56" y="-447.73" font-family="Times New Roman,serif" font-size="9.00">h_scaling 0.382</text>
</g>
<!-- ready&#45;&gt;key 168731
bias &#45;0.716
h_scaling 0.382 -->
<g id="edge12" class="edge">
<title>ready&#45;&gt;key 168731
bias &#45;0.716
h_scaling 0.382</title>
<path fill="none" stroke="red" stroke-width="3.1" d="M162.82,-692.01C186.37,-688.1 226.45,-677.49 244.56,-649.58 269.02,-611.88 258.09,-591.32 244.56,-548.47 240.5,-535.62 233.76,-523.04 226.22,-511.64"/>
<polygon fill="red" stroke="red" stroke-width="3.1" points="228.79,-509.37 220.16,-503.23 223.07,-513.41 228.79,-509.37"/>
</g>
<!-- go -->
<g id="node2" class="node">
<title>go</title>
<polygon fill="green" stroke="black" points="77.68,-471.53 53.43,-471.53 53.43,-452.28 77.68,-452.28 77.68,-471.53"/>
<text text-anchor="middle" x="65.56" y="-458.98" font-family="Times New Roman,serif" font-size="9.00">go</text>
</g>
<!-- go&#45;&gt;key 92453
bias &#45;0.226
h_scaling 0.640 -->
<g id="edge4" class="edge">
<title>go&#45;&gt;key 92453
bias &#45;0.226
h_scaling 0.640</title>
<path fill="none" stroke="red" stroke-width="2.95" d="M69.73,-451.88C74.54,-441.76 82.9,-424.96 91.56,-411.35 99.22,-399.3 108.11,-386.81 116.81,-375.22"/>
<polygon fill="red" stroke="red" stroke-width="2.95" points="119.76,-377.49 123.05,-367.42 114.2,-373.25 119.76,-377.49"/>
</g>
<!-- go&#45;&gt;key 1542
bias &#45;0.681
h_scaling 0.131 -->
<g id="edge3" class="edge">
<title>go&#45;&gt;key 1542
bias &#45;0.681
h_scaling 0.131</title>
<path fill="none" stroke="red" stroke-width="3.1" d="M65.06,-451.85C63.37,-421.27 57.79,-320.01 54.07,-252.38"/>
<polygon fill="red" stroke="red" stroke-width="3.1" points="57.35,-252.29 53.3,-242.5 50.36,-252.67 57.35,-252.29"/>
</g>
<!-- output
bias 0.526
h_scaling 0.567 -->
<g id="node3" class="node">
<title>output
bias 0.526
h_scaling 0.567</title>
<ellipse fill="lightblue" stroke="black" cx="200.56" cy="-50.56" rx="50.56" ry="50.56"/>
<text text-anchor="middle" x="200.56" y="-58.88" font-family="Times New Roman,serif" font-size="9.00">output</text>
<text text-anchor="middle" x="200.56" y="-47.63" font-family="Times New Roman,serif" font-size="9.00">bias 0.526</text>
<text text-anchor="middle" x="200.56" y="-36.38" font-family="Times New Roman,serif" font-size="9.00">h_scaling 0.567</text>
</g>
<!-- output
bias 0.526
h_scaling 0.567&#45;&gt;key 92453
bias &#45;0.226
h_scaling 0.640 -->
<g id="edge6" class="edge">
<title>output
bias 0.526
h_scaling 0.567&#45;&gt;key 92453
bias &#45;0.226
h_scaling 0.640</title>
<path fill="none" stroke="red" stroke-width="0.39" d="M199.69,-101.27C197.77,-113.01 195.52,-125.49 193.56,-137.12 186.29,-180.28 178.98,-229.22 172.38,-266.15"/>
<polygon fill="red" stroke="red" stroke-width="0.39" points="168.98,-265.29 170.63,-275.76 175.86,-266.55 168.98,-265.29"/>
</g>
<!-- key 167043
bias &#45;0.860
h_scaling 0.433 -->
<g id="node4" class="node">
<title>key 167043
bias &#45;0.860
h_scaling 0.433</title>
<ellipse fill="white" stroke="black" cx="244.56" cy="-187.67" rx="50.56" ry="50.56"/>
<text text-anchor="middle" x="244.56" y="-196" font-family="Times New Roman,serif" font-size="9.00">key 167043</text>
<text text-anchor="middle" x="244.56" y="-184.75" font-family="Times New Roman,serif" font-size="9.00">bias &#45;0.860</text>
<text text-anchor="middle" x="244.56" y="-173.5" font-family="Times New Roman,serif" font-size="9.00">h_scaling 0.433</text>
</g>
<!-- key 167043
bias &#45;0.860
h_scaling 0.433&#45;&gt;output
bias 0.526
h_scaling 0.567 -->
<g id="edge11" class="edge">
<title>key 167043
bias &#45;0.860
h_scaling 0.433&#45;&gt;output
bias 0.526
h_scaling 0.567</title>
<path fill="none" stroke="blue" stroke-width="1.87" d="M229.05,-139.04C225.99,-129.64 222.74,-119.69 219.59,-109.99"/>
<polygon fill="blue" stroke="blue" stroke-width="1.87" points="222.36,-109.19 215.93,-100.76 215.7,-111.36 222.36,-109.19"/>
</g>
<!-- key 167043
bias &#45;0.860
h_scaling 0.433&#45;&gt;key 167043
bias &#45;0.860
h_scaling 0.433 -->
<g id="edge14" class="edge">
<title>key 167043
bias &#45;0.860
h_scaling 0.433&#45;&gt;key 167043
bias &#45;0.860
h_scaling 0.433</title>
<path fill="none" stroke="red" stroke-width="2.8" d="M288.41,-213.37C302.22,-212.98 313.12,-204.41 313.12,-187.67 313.12,-176.95 308.64,-169.58 301.8,-165.57"/>
<polygon fill="red" stroke="red" stroke-width="2.8" points="302.97,-162.19 292.41,-162.98 301.16,-168.95 302.97,-162.19"/>
</g>
<!-- key 92453
bias &#45;0.226
h_scaling 0.640&#45;&gt;output
bias 0.526
h_scaling 0.567 -->
<g id="edge21" class="edge">
<title>key 92453
bias &#45;0.226
h_scaling 0.640&#45;&gt;output
bias 0.526
h_scaling 0.567</title>
<path fill="none" stroke="blue" stroke-width="1.05" d="M156.13,-273.8C159.95,-236.16 167.77,-183.33 175.56,-137.12 177.11,-127.91 178.84,-118.17 180.71,-108.69"/>
<polygon fill="blue" stroke="blue" stroke-width="1.05" points="184.29,-109.63 182.86,-99.13 177.43,-108.23 184.29,-109.63"/>
</g>
<!-- key 92453
bias &#45;0.226
h_scaling 0.640&#45;&gt;key 167043
bias &#45;0.860
h_scaling 0.433 -->
<g id="edge10" class="edge">
<title>key 92453
bias &#45;0.226
h_scaling 0.640&#45;&gt;key 167043
bias &#45;0.860
h_scaling 0.433</title>
<path fill="none" stroke="red" stroke-width="3.1" d="M183.92,-281.78C192.11,-269.2 201.21,-255.23 209.82,-242.02"/>
<polygon fill="red" stroke="red" stroke-width="3.1" points="212.69,-243.95 215.21,-233.66 206.82,-240.13 212.69,-243.95"/>
</g>
<!-- key 92453
bias &#45;0.226
h_scaling 0.640&#45;&gt;key 92453
bias &#45;0.226
h_scaling 0.640 -->
<g id="edge7" class="edge">
<title>key 92453
bias &#45;0.226
h_scaling 0.640&#45;&gt;key 92453
bias &#45;0.226
h_scaling 0.640</title>
<path fill="none" stroke="red" stroke-width="2.07" d="M200.41,-350.49C214.22,-350.09 225.12,-341.53 225.12,-324.79 225.12,-313.54 220.2,-305.99 212.78,-302.12"/>
<polygon fill="red" stroke="red" stroke-width="2.07" points="213.95,-298.07 203.41,-299.1 212.29,-304.87 213.95,-298.07"/>
</g>
<!-- key 92453
bias &#45;0.226
h_scaling 0.640&#45;&gt;key 1542
bias &#45;0.681
h_scaling 0.131 -->
<g id="edge5" class="edge">
<title>key 92453
bias &#45;0.226
h_scaling 0.640&#45;&gt;key 1542
bias &#45;0.681
h_scaling 0.131</title>
<path fill="none" stroke="red" stroke-width="3.1" d="M125.61,-284.35C114.4,-270.06 101.59,-253.72 89.76,-238.64"/>
<polygon fill="red" stroke="red" stroke-width="3.1" points="92.28,-236.64 83.36,-230.93 86.78,-240.96 92.28,-236.64"/>
</g>
<!-- key 1542
bias &#45;0.681
h_scaling 0.131&#45;&gt;output
bias 0.526
h_scaling 0.567 -->
<g id="edge1" class="edge">
<title>key 1542
bias &#45;0.681
h_scaling 0.131&#45;&gt;output
bias 0.526
h_scaling 0.567</title>
<path fill="none" stroke="blue" stroke-width="3.1" d="M87.64,-153.27C107.3,-135.56 131.69,-113.59 152.77,-94.61"/>
<polygon fill="blue" stroke="blue" stroke-width="3.1" points="155.04,-97.57 160.13,-88.28 150.35,-92.37 155.04,-97.57"/>
</g>
<!-- key 1542
bias &#45;0.681
h_scaling 0.131&#45;&gt;key 1542
bias &#45;0.681
h_scaling 0.131 -->
<g id="edge2" class="edge">
<title>key 1542
bias &#45;0.681
h_scaling 0.131&#45;&gt;key 1542
bias &#45;0.681
h_scaling 0.131</title>
<path fill="none" stroke="red" stroke-width="2.69" d="M94.41,-213.37C108.22,-212.98 119.12,-204.41 119.12,-187.67 119.12,-176.95 114.64,-169.58 107.8,-165.57"/>
<polygon fill="red" stroke="red" stroke-width="2.69" points="107.97,-162.19 97.41,-162.98 106.16,-168.95 107.97,-162.19"/>
</g>
<!-- key 190088
bias 0.328
h_scaling 0.247 -->
<g id="node7" class="node">
<title>key 190088
bias 0.328
h_scaling 0.247</title>
<ellipse fill="white" stroke="black" cx="500.56" cy="-461.91" rx="50.56" ry="50.56"/>
<text text-anchor="middle" x="500.56" y="-470.23" font-family="Times New Roman,serif" font-size="9.00">key 190088</text>
<text text-anchor="middle" x="500.56" y="-458.98" font-family="Times New Roman,serif" font-size="9.00">bias 0.328</text>
<text text-anchor="middle" x="500.56" y="-447.73" font-family="Times New Roman,serif" font-size="9.00">h_scaling 0.247</text>
</g>
<!-- key 238477
bias &#45;0.719
h_scaling 0.523 -->
<g id="node8" class="node">
<title>key 238477
bias &#45;0.719
h_scaling 0.523</title>
<ellipse fill="white" stroke="black" cx="500.56" cy="-324.79" rx="50.56" ry="50.56"/>
<text text-anchor="middle" x="500.56" y="-333.12" font-family="Times New Roman,serif" font-size="9.00">key 238477</text>
<text text-anchor="middle" x="500.56" y="-321.87" font-family="Times New Roman,serif" font-size="9.00">bias &#45;0.719</text>
<text text-anchor="middle" x="500.56" y="-310.62" font-family="Times New Roman,serif" font-size="9.00">h_scaling 0.523</text>
</g>
<!-- key 190088
bias 0.328
h_scaling 0.247&#45;&gt;key 238477
bias &#45;0.719
h_scaling 0.523 -->
<g id="edge22" class="edge">
<title>key 190088
bias 0.328
h_scaling 0.247&#45;&gt;key 238477
bias &#45;0.719
h_scaling 0.523</title>
<path fill="none" stroke="red" stroke-width="3.1" d="M500.56,-410.98C500.56,-403.92 500.56,-396.59 500.56,-389.33"/>
<polygon fill="red" stroke="red" stroke-width="3.1" points="504.06,-389.51 500.56,-379.51 497.06,-389.51 504.06,-389.51"/>
</g>
<!-- key 197727
bias &#45;0.969
h_scaling 0.421 -->
<g id="node13" class="node">
<title>key 197727
bias &#45;0.969
h_scaling 0.421</title>
<ellipse fill="white" stroke="black" cx="500.56" cy="-187.67" rx="50.56" ry="50.56"/>
<text text-anchor="middle" x="500.56" y="-196" font-family="Times New Roman,serif" font-size="9.00">key 197727</text>
<text text-anchor="middle" x="500.56" y="-184.75" font-family="Times New Roman,serif" font-size="9.00">bias &#45;0.969</text>
<text text-anchor="middle" x="500.56" y="-173.5" font-family="Times New Roman,serif" font-size="9.00">h_scaling 0.421</text>
</g>
<!-- key 238477
bias &#45;0.719
h_scaling 0.523&#45;&gt;key 197727
bias &#45;0.969
h_scaling 0.421 -->
<g id="edge23" class="edge">
<title>key 238477
bias &#45;0.719
h_scaling 0.523&#45;&gt;key 197727
bias &#45;0.969
h_scaling 0.421</title>
<path fill="none" stroke="red" stroke-width="2.33" d="M500.56,-273.86C500.56,-266.54 500.56,-258.91 500.56,-251.37"/>
<polygon fill="red" stroke="red" stroke-width="2.33" points="504.06,-251.4 500.56,-241.4 497.06,-251.4 504.06,-251.4"/>
</g>
<!-- key 180791
bias &#45;0.190
h_scaling 0.342&#45;&gt;key 168731
bias &#45;0.716
h_scaling 0.382 -->
<g id="edge16" class="edge">
<title>key 180791
bias &#45;0.190
h_scaling 0.342&#45;&gt;key 168731
bias &#45;0.716
h_scaling 0.382</title>
<path fill="none" stroke="red" stroke-width="3.1" d="M178.03,-548.48C177.85,-541.23 177.78,-533.68 177.82,-526.2"/>
<polygon fill="red" stroke="red" stroke-width="3.1" points="181.38,-526.5 178.03,-516.45 174.38,-526.39 181.38,-526.5"/>
</g>
<!-- key 212888
bias 0.338
h_scaling 0.250 -->
<g id="node10" class="node">
<title>key 212888
bias 0.338
h_scaling 0.250</title>
<ellipse fill="white" stroke="black" cx="303.56" cy="-461.91" rx="50.56" ry="50.56"/>
<text text-anchor="middle" x="303.56" y="-470.23" font-family="Times New Roman,serif" font-size="9.00">key 212888</text>
<text text-anchor="middle" x="303.56" y="-458.98" font-family="Times New Roman,serif" font-size="9.00">bias 0.338</text>
<text text-anchor="middle" x="303.56" y="-447.73" font-family="Times New Roman,serif" font-size="9.00">h_scaling 0.250</text>
</g>
<!-- key 212888
bias 0.338
h_scaling 0.250&#45;&gt;key 92453
bias &#45;0.226
h_scaling 0.640 -->
<g id="edge19" class="edge">
<title>key 212888
bias 0.338
h_scaling 0.250&#45;&gt;key 92453
bias &#45;0.226
h_scaling 0.640</title>
<path fill="none" stroke="blue" stroke-width="1.48" d="M266.84,-427.16C247.27,-409.17 223.02,-386.88 202.24,-367.78"/>
<polygon fill="blue" stroke="blue" stroke-width="1.48" points="204.3,-365 194.57,-360.81 199.56,-370.15 204.3,-365"/>
</g>
<!-- key 234521
bias &#45;0.206
h_scaling 0.544 -->
<g id="node11" class="node">
<title>key 234521
bias &#45;0.206
h_scaling 0.544</title>
<ellipse fill="white" stroke="black" cx="381.56" cy="-187.67" rx="50.56" ry="50.56"/>
<text text-anchor="middle" x="381.56" y="-196" font-family="Times New Roman,serif" font-size="9.00">key 234521</text>
<text text-anchor="middle" x="381.56" y="-184.75" font-family="Times New Roman,serif" font-size="9.00">bias &#45;0.206</text>
<text text-anchor="middle" x="381.56" y="-173.5" font-family="Times New Roman,serif" font-size="9.00">h_scaling 0.544</text>
</g>
<!-- key 234521
bias &#45;0.206
h_scaling 0.544&#45;&gt;output
bias 0.526
h_scaling 0.567 -->
<g id="edge20" class="edge">
<title>key 234521
bias &#45;0.206
h_scaling 0.544&#45;&gt;output
bias 0.526
h_scaling 0.567</title>
<path fill="none" stroke="blue" stroke-width="3.04" d="M343.55,-153.93C336.65,-148.22 329.45,-142.41 322.56,-137.12 300.47,-120.15 275.39,-102.32 253.73,-87.36"/>
<polygon fill="blue" stroke="blue" stroke-width="3.04" points="255.65,-84.37 245.43,-81.59 251.69,-90.14 255.65,-84.37"/>
</g>
<!-- key 168731
bias &#45;0.716
h_scaling 0.382&#45;&gt;key 92453
bias &#45;0.226
h_scaling 0.640 -->
<g id="edge13" class="edge">
<title>key 168731
bias &#45;0.716
h_scaling 0.382&#45;&gt;key 92453
bias &#45;0.226
h_scaling 0.640</title>
<path fill="none" stroke="blue" stroke-width="1.85" d="M174.45,-412.13C172.7,-403.71 170.87,-394.87 169.07,-386.18"/>
<polygon fill="blue" stroke="blue" stroke-width="1.85" points="172.11,-385.58 166.65,-376.5 165.25,-387 172.11,-385.58"/>
</g>
<!-- key 168731
bias &#45;0.716
h_scaling 0.382&#45;&gt;key 180791
bias &#45;0.190
h_scaling 0.342 -->
<g id="edge17" class="edge">
<title>key 168731
bias &#45;0.716
h_scaling 0.382&#45;&gt;key 180791
bias &#45;0.190
h_scaling 0.342</title>
<path fill="none" stroke="red" stroke-width="1.3" d="M191.09,-512.45C191.29,-520.62 191.35,-529.16 191.27,-537.56"/>
<polygon fill="red" stroke="red" stroke-width="1.3" points="187.76,-537.42 191.09,-547.48 194.76,-537.54 187.76,-537.42"/>
</g>
<!-- key 197727
bias &#45;0.969
h_scaling 0.421&#45;&gt;output
bias 0.526
h_scaling 0.567 -->
<g id="edge18" class="edge">
<title>key 197727
bias &#45;0.969
h_scaling 0.421&#45;&gt;output
bias 0.526
h_scaling 0.567</title>
<path fill="none" stroke="red" stroke-width="0.28" d="M463.96,-152.55C456.85,-146.92 449.22,-141.5 441.56,-137.12 383.28,-103.76 309.74,-79.95 259.31,-66.05"/>
<polygon fill="red" stroke="red" stroke-width="0.28" points="260.43,-62.73 249.86,-63.49 258.6,-69.49 260.43,-62.73"/>
</g>
</g>
</svg>
