<?xml version="1.0" encoding="UTF-8" standalone="no"?>
<!DOCTYPE svg PUBLIC "-//W3C//DTD SVG 1.1//EN"
 "http://www.w3.org/Graphics/SVG/1.1/DTD/svg11.dtd">
<!-- Generated by graphviz version 8.0.5 (20230430.1635)
 -->
<!-- Pages: 1 -->
<svg width="294pt" height="759pt"
 viewBox="0.00 0.00 293.94 758.83" xmlns="http://www.w3.org/2000/svg" xmlns:xlink="http://www.w3.org/1999/xlink">
<g id="graph0" class="graph" transform="scale(1 1) rotate(0) translate(4 754.83)">
<polygon fill="white" stroke="none" points="-4,4 -4,-754.83 289.94,-754.83 289.94,4 -4,4"/>
<!-- ready -->
<g id="node1" class="node">
<title>ready</title>
<polygon fill="yellow" stroke="black" points="271.81,-750.83 235.56,-750.83 235.56,-731.58 271.81,-731.58 271.81,-750.83"/>
<text text-anchor="middle" x="253.69" y="-738.28" font-family="Times New Roman,serif" font-size="9.00">ready</text>
</g>
<!-- key 170467
bias &#45;0.552
h_scaling 0.303 -->
<g id="node4" class="node">
<title>key 170467
bias &#45;0.552
h_scaling 0.303</title>
<ellipse fill="white" stroke="black" cx="169.69" cy="-633.77" rx="50.56" ry="50.56"/>
<text text-anchor="middle" x="169.69" y="-642.1" font-family="Times New Roman,serif" font-size="9.00">key 170467</text>
<text text-anchor="middle" x="169.69" y="-630.85" font-family="Times New Roman,serif" font-size="9.00">bias &#45;0.552</text>
<text text-anchor="middle" x="169.69" y="-619.6" font-family="Times New Roman,serif" font-size="9.00">h_scaling 0.303</text>
</g>
<!-- ready&#45;&gt;key 170467
bias &#45;0.552
h_scaling 0.303 -->
<g id="edge4" class="edge">
<title>ready&#45;&gt;key 170467
bias &#45;0.552
h_scaling 0.303</title>
<path fill="none" stroke="red" stroke-width="0.39" d="M246.53,-731.22C237.63,-720.05 221.79,-700.17 206.79,-681.34"/>
<polygon fill="red" stroke="red" stroke-width="0.39" points="209.85,-679.57 200.88,-673.92 204.38,-683.93 209.85,-679.57"/>
<text text-anchor="middle" x="240.81" y="-705.03" font-family="Times New Roman,serif" font-size="9.00">0.010</text>
</g>
<!-- key 212468
bias &#45;0.996
h_scaling 0.787 -->
<g id="node7" class="node">
<title>key 212468
bias &#45;0.996
h_scaling 0.787</title>
<ellipse fill="white" stroke="black" cx="122.69" cy="-337.04" rx="50.56" ry="50.56"/>
<text text-anchor="middle" x="122.69" y="-345.37" font-family="Times New Roman,serif" font-size="9.00">key 212468</text>
<text text-anchor="middle" x="122.69" y="-334.12" font-family="Times New Roman,serif" font-size="9.00">bias &#45;0.996</text>
<text text-anchor="middle" x="122.69" y="-322.87" font-family="Times New Roman,serif" font-size="9.00">h_scaling 0.787</text>
</g>
<!-- ready&#45;&gt;key 212468
bias &#45;0.996
h_scaling 0.787 -->
<g id="edge10" class="edge">
<title>ready&#45;&gt;key 212468
bias &#45;0.996
h_scaling 0.787</title>
<path fill="none" stroke="red" stroke-width="0.7" d="M256.66,-731.24C260.12,-720.31 265.61,-701.2 267.69,-684.33 274.79,-626.78 280.26,-609.22 262.69,-553.97 244.91,-498.03 237.73,-484.02 205.69,-434.85 193.75,-416.53 178.67,-397.93 164.64,-382"/>
<polygon fill="red" stroke="red" stroke-width="0.7" points="166.7,-379.05 157.43,-373.93 161.48,-383.72 166.7,-379.05"/>
<text text-anchor="middle" x="275.81" y="-556.67" font-family="Times New Roman,serif" font-size="9.00">0.020</text>
</g>
<!-- go -->
<g id="node2" class="node">
<title>go</title>
<polygon fill="green" stroke="black" points="87.81,-750.83 63.56,-750.83 63.56,-731.58 87.81,-731.58 87.81,-750.83"/>
<text text-anchor="middle" x="75.69" y="-738.28" font-family="Times New Roman,serif" font-size="9.00">go</text>
</g>
<!-- go&#45;&gt;key 170467
bias &#45;0.552
h_scaling 0.303 -->
<g id="edge15" class="edge">
<title>go&#45;&gt;key 170467
bias &#45;0.552
h_scaling 0.303</title>
<path fill="none" stroke="red" stroke-width="0.81" d="M83.7,-731.22C93.88,-719.8 112.18,-699.27 129.29,-680.08"/>
<polygon fill="red" stroke="red" stroke-width="0.81" points="132.49,-681.76 136.53,-671.97 127.26,-677.1 132.49,-681.76"/>
<text text-anchor="middle" x="119.81" y="-705.03" font-family="Times New Roman,serif" font-size="9.00">0.024</text>
</g>
<!-- key 27204
bias &#45;0.481
h_scaling 0.520 -->
<g id="node5" class="node">
<title>key 27204
bias &#45;0.481
h_scaling 0.520</title>
<ellipse fill="white" stroke="black" cx="75.69" cy="-485.41" rx="50.56" ry="50.56"/>
<text text-anchor="middle" x="75.69" y="-493.73" font-family="Times New Roman,serif" font-size="9.00">key 27204</text>
<text text-anchor="middle" x="75.69" y="-482.48" font-family="Times New Roman,serif" font-size="9.00">bias &#45;0.481</text>
<text text-anchor="middle" x="75.69" y="-471.23" font-family="Times New Roman,serif" font-size="9.00">h_scaling 0.520</text>
</g>
<!-- go&#45;&gt;key 27204
bias &#45;0.481
h_scaling 0.520 -->
<g id="edge2" class="edge">
<title>go&#45;&gt;key 27204
bias &#45;0.481
h_scaling 0.520</title>
<path fill="none" stroke="blue" stroke-width="0.1" d="M75.69,-731.17C75.69,-702 75.69,-608.59 75.69,-545.97"/>
<polygon fill="blue" stroke="blue" stroke-width="0.1" points="79.19,-546.2 75.69,-536.2 72.19,-546.2 79.19,-546.2"/>
</g>
<!-- go&#45;&gt;key 212468
bias &#45;0.996
h_scaling 0.787 -->
<g id="edge16" class="edge">
<title>go&#45;&gt;key 212468
bias &#45;0.996
h_scaling 0.787</title>
<path fill="none" stroke="blue" stroke-width="0.1" d="M70.22,-731.28C47.89,-693.6 -32.96,-544.48 15.69,-434.85 27.36,-408.54 50.11,-386.35 71.64,-369.88"/>
<polygon fill="blue" stroke="blue" stroke-width="0.1" points="73.53,-372.83 79.49,-364.07 69.37,-367.2 73.53,-372.83"/>
</g>
<!-- output
bias &#45;0.971
h_scaling 0.058 -->
<g id="node3" class="node">
<title>output
bias &#45;0.971
h_scaling 0.058</title>
<ellipse fill="lightblue" stroke="black" cx="108.69" cy="-50.56" rx="50.56" ry="50.56"/>
<text text-anchor="middle" x="108.69" y="-58.88" font-family="Times New Roman,serif" font-size="9.00">output</text>
<text text-anchor="middle" x="108.69" y="-47.63" font-family="Times New Roman,serif" font-size="9.00">bias &#45;0.971</text>
<text text-anchor="middle" x="108.69" y="-36.38" font-family="Times New Roman,serif" font-size="9.00">h_scaling 0.058</text>
</g>
<!-- output
bias &#45;0.971
h_scaling 0.058&#45;&gt;key 170467
bias &#45;0.552
h_scaling 0.303 -->
<g id="edge7" class="edge">
<title>output
bias &#45;0.971
h_scaling 0.058&#45;&gt;key 170467
bias &#45;0.552
h_scaling 0.303</title>
<path fill="none" stroke="blue" stroke-width="0.1" d="M154.53,-72.58C195.36,-94.82 248.69,-134.11 248.69,-187.67 248.69,-486.41 248.69,-486.41 248.69,-486.41 248.69,-523.46 228.84,-560.15 209.04,-587.52"/>
<polygon fill="blue" stroke="blue" stroke-width="0.1" points="206.37,-585.24 203.19,-595.35 211.98,-589.43 206.37,-585.24"/>
</g>
<!-- key 170467
bias &#45;0.552
h_scaling 0.303&#45;&gt;key 170467
bias &#45;0.552
h_scaling 0.303 -->
<g id="edge6" class="edge">
<title>key 170467
bias &#45;0.552
h_scaling 0.303&#45;&gt;key 170467
bias &#45;0.552
h_scaling 0.303</title>
<path fill="none" stroke="red" stroke-width="0.78" d="M218.68,-647.38C229.96,-646.2 238.25,-641.67 238.25,-633.77 238.25,-628.59 234.68,-624.86 229.04,-622.57"/>
<polygon fill="red" stroke="red" stroke-width="0.78" points="230.21,-619.02 219.68,-620.17 228.63,-625.84 230.21,-619.02"/>
<text text-anchor="middle" x="248.37" y="-630.85" font-family="Times New Roman,serif" font-size="9.00">0.023</text>
</g>
<!-- key 170467
bias &#45;0.552
h_scaling 0.303&#45;&gt;key 27204
bias &#45;0.481
h_scaling 0.520 -->
<g id="edge5" class="edge">
<title>key 170467
bias &#45;0.552
h_scaling 0.303&#45;&gt;key 27204
bias &#45;0.481
h_scaling 0.520</title>
<path fill="none" stroke="red" stroke-width="0.41" d="M142.75,-590.83C131.88,-573.91 119.26,-554.24 107.91,-536.57"/>
<polygon fill="red" stroke="red" stroke-width="0.41" points="111.14,-535.13 102.79,-528.61 105.25,-538.91 111.14,-535.13"/>
<text text-anchor="middle" x="134.81" y="-556.67" font-family="Times New Roman,serif" font-size="9.00">0.010</text>
</g>
<!-- key 170467
bias &#45;0.552
h_scaling 0.303&#45;&gt;key 212468
bias &#45;0.996
h_scaling 0.787 -->
<g id="edge11" class="edge">
<title>key 170467
bias &#45;0.552
h_scaling 0.303&#45;&gt;key 212468
bias &#45;0.996
h_scaling 0.787</title>
<path fill="none" stroke="red" stroke-width="0.86" d="M177.69,-583.59C182.63,-543.06 185.94,-484.39 173.69,-434.85 169.84,-419.27 162.97,-403.42 155.5,-389.19"/>
<polygon fill="red" stroke="red" stroke-width="0.86" points="158.13,-387.71 150.26,-380.62 151.99,-391.07 158.13,-387.71"/>
<text text-anchor="middle" x="191.81" y="-482.48" font-family="Times New Roman,serif" font-size="9.00">0.025</text>
</g>
<!-- key 27204
bias &#45;0.481
h_scaling 0.520&#45;&gt;output
bias &#45;0.971
h_scaling 0.058 -->
<g id="edge1" class="edge">
<title>key 27204
bias &#45;0.481
h_scaling 0.520&#45;&gt;output
bias &#45;0.971
h_scaling 0.058</title>
<path fill="none" stroke="red" stroke-width="0.48" d="M67.8,-435.29C65.7,-420.05 63.73,-403.17 62.69,-387.6 55.27,-276.64 57.98,-246.76 81.69,-138.12 83.83,-128.33 86.57,-118.05 89.49,-108.14"/>
<polygon fill="red" stroke="red" stroke-width="0.48" points="92.77,-109.36 92.32,-98.78 86.07,-107.34 92.77,-109.36"/>
<text text-anchor="middle" x="71.81" y="-259.93" font-family="Times New Roman,serif" font-size="9.00">0.013</text>
</g>
<!-- key 27204
bias &#45;0.481
h_scaling 0.520&#45;&gt;key 27204
bias &#45;0.481
h_scaling 0.520 -->
<g id="edge3" class="edge">
<title>key 27204
bias &#45;0.481
h_scaling 0.520&#45;&gt;key 27204
bias &#45;0.481
h_scaling 0.520</title>
<path fill="none" stroke="red" stroke-width="1.38" d="M124.68,-499.01C135.96,-497.84 144.25,-493.3 144.25,-485.41 144.25,-480.6 141.17,-477.03 136.21,-474.72"/>
<polygon fill="red" stroke="red" stroke-width="1.38" points="137.23,-470.86 126.68,-471.8 135.52,-477.65 137.23,-470.86"/>
<text text-anchor="middle" x="154.37" y="-482.48" font-family="Times New Roman,serif" font-size="9.00">0.043</text>
</g>
<!-- key 27204
bias &#45;0.481
h_scaling 0.520&#45;&gt;key 212468
bias &#45;0.996
h_scaling 0.787 -->
<g id="edge8" class="edge">
<title>key 27204
bias &#45;0.481
h_scaling 0.520&#45;&gt;key 212468
bias &#45;0.996
h_scaling 0.787</title>
<path fill="none" stroke="red" stroke-width="0.66" d="M90.95,-436.89C95.24,-423.53 99.95,-408.86 104.4,-395.01"/>
<polygon fill="red" stroke="red" stroke-width="0.66" points="107.7,-396.16 107.43,-385.57 101.04,-394.02 107.7,-396.16"/>
<text text-anchor="middle" x="110.81" y="-408.3" font-family="Times New Roman,serif" font-size="9.00">0.019</text>
</g>
<!-- key 258290
bias 0.909
h_scaling 0.748 -->
<g id="node6" class="node">
<title>key 258290
bias 0.909
h_scaling 0.748</title>
<ellipse fill="white" stroke="black" cx="169.69" cy="-188.67" rx="50.56" ry="50.56"/>
<text text-anchor="middle" x="169.69" y="-197" font-family="Times New Roman,serif" font-size="9.00">key 258290</text>
<text text-anchor="middle" x="169.69" y="-185.75" font-family="Times New Roman,serif" font-size="9.00">bias 0.909</text>
<text text-anchor="middle" x="169.69" y="-174.5" font-family="Times New Roman,serif" font-size="9.00">h_scaling 0.748</text>
</g>
<!-- key 258290
bias 0.909
h_scaling 0.748&#45;&gt;output
bias &#45;0.971
h_scaling 0.058 -->
<g id="edge14" class="edge">
<title>key 258290
bias 0.909
h_scaling 0.748&#45;&gt;output
bias &#45;0.971
h_scaling 0.058</title>
<path fill="none" stroke="blue" stroke-width="0.1" d="M149.21,-141.97C144.02,-130.4 138.4,-117.86 133.05,-105.91"/>
<polygon fill="blue" stroke="blue" stroke-width="0.1" points="136.3,-104.6 129.01,-96.91 129.91,-107.47 136.3,-104.6"/>
</g>
<!-- key 212468
bias &#45;0.996
h_scaling 0.787&#45;&gt;output
bias &#45;0.971
h_scaling 0.058 -->
<g id="edge9" class="edge">
<title>key 212468
bias &#45;0.996
h_scaling 0.787&#45;&gt;output
bias &#45;0.971
h_scaling 0.058</title>
<path fill="none" stroke="red" stroke-width="0.5" d="M103.43,-290.07C97.74,-274.25 92.28,-256.23 89.44,-239.23 82.04,-194.91 84.53,-182.79 89.44,-138.12 90.46,-128.8 92.09,-119.03 93.97,-109.53"/>
<polygon fill="red" stroke="red" stroke-width="0.5" points="97.39,-110.28 96.01,-99.77 90.54,-108.84 97.39,-110.28"/>
<text text-anchor="middle" x="99.81" y="-185.75" font-family="Times New Roman,serif" font-size="9.00">0.013</text>
</g>
<!-- key 212468
bias &#45;0.996
h_scaling 0.787&#45;&gt;key 258290
bias 0.909
h_scaling 0.748 -->
<g id="edge13" class="edge">
<title>key 212468
bias &#45;0.996
h_scaling 0.787&#45;&gt;key 258290
bias 0.909
h_scaling 0.748</title>
<path fill="none" stroke="blue" stroke-width="0.1" d="M137.95,-288.52C142.24,-275.16 146.95,-260.49 151.4,-246.64"/>
<polygon fill="blue" stroke="blue" stroke-width="0.1" points="154.7,-247.8 154.43,-237.21 148.04,-245.66 154.7,-247.8"/>
</g>
<!-- key 212468
bias &#45;0.996
h_scaling 0.787&#45;&gt;key 212468
bias &#45;0.996
h_scaling 0.787 -->
<g id="edge12" class="edge">
<title>key 212468
bias &#45;0.996
h_scaling 0.787&#45;&gt;key 212468
bias &#45;0.996
h_scaling 0.787</title>
<path fill="none" stroke="red" stroke-width="0.69" d="M171.68,-350.64C182.96,-349.47 191.25,-344.94 191.25,-337.04 191.25,-331.86 187.68,-328.12 182.04,-325.84"/>
<polygon fill="red" stroke="red" stroke-width="0.69" points="183.21,-322.29 172.68,-323.44 181.63,-329.11 183.21,-322.29"/>
<text text-anchor="middle" x="201.37" y="-334.12" font-family="Times New Roman,serif" font-size="9.00">0.020</text>
</g>
</g>
</svg>
