<?xml version="1.0" encoding="UTF-8" standalone="no"?>
<!DOCTYPE svg PUBLIC "-//W3C//DTD SVG 1.1//EN"
 "http://www.w3.org/Graphics/SVG/1.1/DTD/svg11.dtd">
<!-- Generated by graphviz version 2.43.0 (0)
 -->
<!-- Title: %3 Pages: 1 -->
<svg width="428pt" height="892pt"
 viewBox="0.00 0.00 427.64 892.40" xmlns="http://www.w3.org/2000/svg" xmlns:xlink="http://www.w3.org/1999/xlink">
<g id="graph0" class="graph" transform="scale(1 1) rotate(0) translate(4 888.4)">
<title>%3</title>
<polygon fill="white" stroke="transparent" points="-4,4 -4,-888.4 423.64,-888.4 423.64,4 -4,4"/>
<!-- ready -->
<g id="node1" class="node">
<title>ready</title>
<polygon fill="yellow" stroke="black" points="142.14,-884.4 99.14,-884.4 99.14,-866.4 142.14,-866.4 142.14,-884.4"/>
<text text-anchor="middle" x="120.64" y="-873.2" font-family="Times,serif" font-size="9.00">ready</text>
</g>
<!-- key 3008
bias &#45;0.541
h_scaling 0.217 -->
<g id="node4" class="node">
<title>key 3008
bias &#45;0.541
h_scaling 0.217</title>
<ellipse fill="white" stroke="black" cx="258.64" cy="-756.76" rx="63.78" ry="63.78"/>
<text text-anchor="middle" x="258.64" y="-764.56" font-family="Times,serif" font-size="9.00">key 3008</text>
<text text-anchor="middle" x="258.64" y="-754.56" font-family="Times,serif" font-size="9.00">bias &#45;0.541</text>
<text text-anchor="middle" x="258.64" y="-744.56" font-family="Times,serif" font-size="9.00">h_scaling 0.217</text>
</g>
<!-- ready&#45;&gt;key 3008
bias &#45;0.541
h_scaling 0.217 -->
<g id="edge2" class="edge">
<title>ready&#45;&gt;key 3008
bias &#45;0.541
h_scaling 0.217</title>
<path fill="none" stroke="red" stroke-width="1.21" d="M130.12,-866.38C145.03,-853.78 175.07,-828.39 202.36,-805.33"/>
<polygon fill="red" stroke="red" stroke-width="1.21" points="204.96,-807.71 210.34,-798.58 200.45,-802.36 204.96,-807.71"/>
<text text-anchor="middle" x="174.64" y="-841.2" font-family="Times,serif" font-size="9.00">0.037</text>
</g>
<!-- key 26755
bias &#45;0.361
h_scaling 0.666 -->
<g id="node5" class="node">
<title>key 26755
bias &#45;0.361
h_scaling 0.666</title>
<ellipse fill="white" stroke="black" cx="63.64" cy="-236.92" rx="63.78" ry="63.78"/>
<text text-anchor="middle" x="63.64" y="-244.72" font-family="Times,serif" font-size="9.00">key 26755</text>
<text text-anchor="middle" x="63.64" y="-234.72" font-family="Times,serif" font-size="9.00">bias &#45;0.361</text>
<text text-anchor="middle" x="63.64" y="-224.72" font-family="Times,serif" font-size="9.00">h_scaling 0.666</text>
</g>
<!-- ready&#45;&gt;key 26755
bias &#45;0.361
h_scaling 0.666 -->
<g id="edge8" class="edge">
<title>ready&#45;&gt;key 26755
bias &#45;0.361
h_scaling 0.666</title>
<path fill="none" stroke="red" stroke-width="0.59" d="M105.59,-866.37C77.22,-850.02 18.64,-809.94 18.64,-757.76 18.64,-757.76 18.64,-757.76 18.64,-409.2 18.64,-374.52 27.38,-337.15 37.15,-306.19"/>
<polygon fill="red" stroke="red" stroke-width="0.59" points="40.58,-306.97 40.35,-296.38 33.92,-304.8 40.58,-306.97"/>
<text text-anchor="middle" x="32.64" y="-581.28" font-family="Times,serif" font-size="9.00">0.016</text>
</g>
<!-- key 18534
bias &#45;0.768
h_scaling 0.143 -->
<g id="node6" class="node">
<title>key 18534
bias &#45;0.768
h_scaling 0.143</title>
<ellipse fill="white" stroke="black" cx="259.64" cy="-63.64" rx="63.78" ry="63.78"/>
<text text-anchor="middle" x="259.64" y="-71.44" font-family="Times,serif" font-size="9.00">key 18534</text>
<text text-anchor="middle" x="259.64" y="-61.44" font-family="Times,serif" font-size="9.00">bias &#45;0.768</text>
<text text-anchor="middle" x="259.64" y="-51.44" font-family="Times,serif" font-size="9.00">h_scaling 0.143</text>
</g>
<!-- ready&#45;&gt;key 18534
bias &#45;0.768
h_scaling 0.143 -->
<g id="edge3" class="edge">
<title>ready&#45;&gt;key 18534
bias &#45;0.768
h_scaling 0.143</title>
<path fill="none" stroke="red" stroke-width="0.97" d="M142.21,-874.12C202.55,-872.08 368.64,-857.44 368.64,-757.76 368.64,-757.76 368.64,-757.76 368.64,-235.92 368.64,-190.27 340.74,-146.96 313.17,-115.32"/>
<polygon fill="red" stroke="red" stroke-width="0.97" points="315.46,-112.64 306.18,-107.53 310.25,-117.31 315.46,-112.64"/>
<text text-anchor="middle" x="382.64" y="-494.64" font-family="Times,serif" font-size="9.00">0.029</text>
</g>
<!-- key 130681
bias &#45;0.424
h_scaling 0.399 -->
<g id="node8" class="node">
<title>key 130681
bias &#45;0.424
h_scaling 0.399</title>
<ellipse fill="white" stroke="black" cx="110.64" cy="-410.2" rx="63.78" ry="63.78"/>
<text text-anchor="middle" x="110.64" y="-418" font-family="Times,serif" font-size="9.00">key 130681</text>
<text text-anchor="middle" x="110.64" y="-408" font-family="Times,serif" font-size="9.00">bias &#45;0.424</text>
<text text-anchor="middle" x="110.64" y="-398" font-family="Times,serif" font-size="9.00">h_scaling 0.399</text>
</g>
<!-- ready&#45;&gt;key 130681
bias &#45;0.424
h_scaling 0.399 -->
<g id="edge12" class="edge">
<title>ready&#45;&gt;key 130681
bias &#45;0.424
h_scaling 0.399</title>
<path fill="none" stroke="red" stroke-width="0.58" d="M119.07,-866.15C111.89,-827.26 82.87,-658.32 93.64,-519.84 94.56,-507.94 96.05,-495.38 97.77,-483.18"/>
<polygon fill="red" stroke="red" stroke-width="0.58" points="101.27,-483.45 99.26,-473.05 94.34,-482.43 101.27,-483.45"/>
<text text-anchor="middle" x="107.64" y="-667.92" font-family="Times,serif" font-size="9.00">0.016</text>
</g>
<!-- go -->
<g id="node2" class="node">
<title>go</title>
<polygon fill="green" stroke="black" points="419.64,-884.4 391.64,-884.4 391.64,-866.4 419.64,-866.4 419.64,-884.4"/>
<text text-anchor="middle" x="405.64" y="-873.2" font-family="Times,serif" font-size="9.00">go</text>
</g>
<!-- go&#45;&gt;key 3008
bias &#45;0.541
h_scaling 0.217 -->
<g id="edge9" class="edge">
<title>go&#45;&gt;key 3008
bias &#45;0.541
h_scaling 0.217</title>
<path fill="none" stroke="blue" stroke-width="0.1" d="M395.54,-866.38C379.16,-853.39 345.65,-826.8 315.89,-803.18"/>
<polygon fill="blue" stroke="blue" stroke-width="0.1" points="318.02,-800.41 308.02,-796.93 313.67,-805.89 318.02,-800.41"/>
</g>
<!-- go&#45;&gt;key 18534
bias &#45;0.768
h_scaling 0.143 -->
<g id="edge14" class="edge">
<title>go&#45;&gt;key 18534
bias &#45;0.768
h_scaling 0.143</title>
<path fill="none" stroke="blue" stroke-width="0.1" d="M407.18,-866.23C410.63,-847.26 418.64,-798.71 418.64,-757.76 418.64,-757.76 418.64,-757.76 418.64,-235.92 418.64,-177.22 367.86,-130.16 323.69,-100.34"/>
<polygon fill="blue" stroke="blue" stroke-width="0.1" points="325.53,-97.36 315.25,-94.79 321.68,-103.21 325.53,-97.36"/>
</g>
<!-- output
bias &#45;1.000
h_scaling 0.525 -->
<g id="node3" class="node">
<title>output
bias &#45;1.000
h_scaling 0.525</title>
<ellipse fill="lightblue" stroke="black" cx="166.64" cy="-583.48" rx="63.78" ry="63.78"/>
<text text-anchor="middle" x="166.64" y="-591.28" font-family="Times,serif" font-size="9.00">output</text>
<text text-anchor="middle" x="166.64" y="-581.28" font-family="Times,serif" font-size="9.00">bias &#45;1.000</text>
<text text-anchor="middle" x="166.64" y="-571.28" font-family="Times,serif" font-size="9.00">h_scaling 0.525</text>
</g>
<!-- output
bias &#45;1.000
h_scaling 0.525&#45;&gt;key 130681
bias &#45;0.424
h_scaling 0.399 -->
<g id="edge16" class="edge">
<title>output
bias &#45;1.000
h_scaling 0.525&#45;&gt;key 130681
bias &#45;0.424
h_scaling 0.399</title>
<path fill="none" stroke="blue" stroke-width="0.1" d="M147.05,-522.57C142.62,-509.01 137.88,-494.5 133.33,-480.59"/>
<polygon fill="blue" stroke="blue" stroke-width="0.1" points="136.65,-479.49 130.21,-471.07 130,-481.66 136.65,-479.49"/>
</g>
<!-- key 3008
bias &#45;0.541
h_scaling 0.217&#45;&gt;output
bias &#45;1.000
h_scaling 0.525 -->
<g id="edge1" class="edge">
<title>key 3008
bias &#45;0.541
h_scaling 0.217&#45;&gt;output
bias &#45;1.000
h_scaling 0.525</title>
<path fill="none" stroke="red" stroke-width="1.47" d="M228.77,-700.15C220,-683.83 210.34,-665.84 201.31,-649.02"/>
<polygon fill="red" stroke="red" stroke-width="1.47" points="204.17,-646.96 196.36,-639.81 198.01,-650.27 204.17,-646.96"/>
<text text-anchor="middle" x="226.64" y="-667.92" font-family="Times,serif" font-size="9.00">0.046</text>
</g>
<!-- key 3008
bias &#45;0.541
h_scaling 0.217&#45;&gt;key 18534
bias &#45;0.768
h_scaling 0.143 -->
<g id="edge5" class="edge">
<title>key 3008
bias &#45;0.541
h_scaling 0.217&#45;&gt;key 18534
bias &#45;0.768
h_scaling 0.143</title>
<path fill="none" stroke="red" stroke-width="0.84" d="M258.73,-692.9C258.92,-564.8 259.34,-274.15 259.53,-137.81"/>
<polygon fill="red" stroke="red" stroke-width="0.84" points="263.03,-137.48 259.55,-127.48 256.03,-137.47 263.03,-137.48"/>
<text text-anchor="middle" x="272.64" y="-408" font-family="Times,serif" font-size="9.00">0.025</text>
</g>
<!-- key 26755
bias &#45;0.361
h_scaling 0.666&#45;&gt;key 26755
bias &#45;0.361
h_scaling 0.666 -->
<g id="edge11" class="edge">
<title>key 26755
bias &#45;0.361
h_scaling 0.666&#45;&gt;key 26755
bias &#45;0.361
h_scaling 0.666</title>
<path fill="none" stroke="red" stroke-width="1.41" d="M125.58,-252.22C137.14,-250.33 145.28,-245.23 145.28,-236.92 145.28,-231.2 141.43,-227.01 135.27,-224.33"/>
<polygon fill="red" stroke="red" stroke-width="1.41" points="136.16,-220.94 125.58,-221.62 134.27,-227.68 136.16,-220.94"/>
<text text-anchor="middle" x="159.28" y="-234.72" font-family="Times,serif" font-size="9.00">0.044</text>
</g>
<!-- key 26755
bias &#45;0.361
h_scaling 0.666&#45;&gt;key 18534
bias &#45;0.768
h_scaling 0.143 -->
<g id="edge6" class="edge">
<title>key 26755
bias &#45;0.361
h_scaling 0.666&#45;&gt;key 18534
bias &#45;0.768
h_scaling 0.143</title>
<path fill="none" stroke="red" stroke-width="1.59" d="M109.43,-191.93C125.42,-176.89 143.62,-160.13 160.64,-145.28 173.9,-133.7 188.46,-121.55 202.24,-110.29"/>
<polygon fill="red" stroke="red" stroke-width="1.59" points="204.7,-112.8 210.25,-103.78 200.28,-107.37 204.7,-112.8"/>
<text text-anchor="middle" x="174.64" y="-148.08" font-family="Times,serif" font-size="9.00">0.050</text>
</g>
<!-- key 45681
bias &#45;0.975
h_scaling 1.000 -->
<g id="node7" class="node">
<title>key 45681
bias &#45;0.975
h_scaling 1.000</title>
<ellipse fill="white" stroke="black" cx="94.64" cy="-63.64" rx="63.78" ry="63.78"/>
<text text-anchor="middle" x="94.64" y="-71.44" font-family="Times,serif" font-size="9.00">key 45681</text>
<text text-anchor="middle" x="94.64" y="-61.44" font-family="Times,serif" font-size="9.00">bias &#45;0.975</text>
<text text-anchor="middle" x="94.64" y="-51.44" font-family="Times,serif" font-size="9.00">h_scaling 1.000</text>
</g>
<!-- key 26755
bias &#45;0.361
h_scaling 0.666&#45;&gt;key 45681
bias &#45;0.975
h_scaling 1.000 -->
<g id="edge18" class="edge">
<title>key 26755
bias &#45;0.361
h_scaling 0.666&#45;&gt;key 45681
bias &#45;0.975
h_scaling 1.000</title>
<path fill="none" stroke="blue" stroke-width="0.1" d="M85.46,-176.96C87.51,-169.74 89.32,-162.39 90.64,-155.28 91.71,-149.52 92.55,-143.53 93.21,-137.49"/>
<polygon fill="blue" stroke="blue" stroke-width="0.1" points="96.72,-137.59 94.16,-127.31 89.75,-136.94 96.72,-137.59"/>
</g>
<!-- key 26755
bias &#45;0.361
h_scaling 0.666&#45;&gt;key 130681
bias &#45;0.424
h_scaling 0.399 -->
<g id="edge15" class="edge">
<title>key 26755
bias &#45;0.361
h_scaling 0.666&#45;&gt;key 130681
bias &#45;0.424
h_scaling 0.399</title>
<path fill="none" stroke="red" stroke-width="1.34" d="M84.26,-297.15C86.53,-304.33 88.71,-311.59 90.64,-318.56 92.33,-324.67 93.98,-331.05 95.55,-337.47"/>
<polygon fill="red" stroke="red" stroke-width="1.34" points="92.23,-338.63 97.96,-347.55 99.04,-337.01 92.23,-338.63"/>
<text text-anchor="middle" x="106.64" y="-321.36" font-family="Times,serif" font-size="9.00">0.041</text>
</g>
<!-- key 18534
bias &#45;0.768
h_scaling 0.143&#45;&gt;output
bias &#45;1.000
h_scaling 0.525 -->
<g id="edge7" class="edge">
<title>key 18534
bias &#45;0.768
h_scaling 0.143&#45;&gt;output
bias &#45;1.000
h_scaling 0.525</title>
<path fill="none" stroke="red" stroke-width="1.18" d="M240.13,-124.27C238.13,-131.31 236.25,-138.43 234.64,-145.28 200.89,-289.15 205.89,-327.75 183.64,-473.84 181.84,-485.63 179.91,-498.14 178.02,-510.32"/>
<polygon fill="red" stroke="red" stroke-width="1.18" points="174.52,-510.02 176.44,-520.44 181.44,-511.1 174.52,-510.02"/>
<text text-anchor="middle" x="216.64" y="-321.36" font-family="Times,serif" font-size="9.00">0.036</text>
</g>
<!-- key 18534
bias &#45;0.768
h_scaling 0.143&#45;&gt;key 3008
bias &#45;0.541
h_scaling 0.217 -->
<g id="edge4" class="edge">
<title>key 18534
bias &#45;0.768
h_scaling 0.143&#45;&gt;key 3008
bias &#45;0.541
h_scaling 0.217</title>
<path fill="none" stroke="red" stroke-width="0.84" d="M286.61,-121.56C299.7,-154.26 312.64,-196.54 312.64,-235.92 312.64,-584.48 312.64,-584.48 312.64,-584.48 312.64,-620.36 301.72,-658.6 289.71,-689.82"/>
<polygon fill="red" stroke="red" stroke-width="0.84" points="286.39,-688.69 285.96,-699.28 292.9,-691.27 286.39,-688.69"/>
<text text-anchor="middle" x="326.64" y="-408" font-family="Times,serif" font-size="9.00">0.025</text>
</g>
<!-- key 18534
bias &#45;0.768
h_scaling 0.143&#45;&gt;key 18534
bias &#45;0.768
h_scaling 0.143 -->
<g id="edge17" class="edge">
<title>key 18534
bias &#45;0.768
h_scaling 0.143&#45;&gt;key 18534
bias &#45;0.768
h_scaling 0.143</title>
<path fill="none" stroke="red" stroke-width="2.79" d="M321.58,-78.94C333.14,-77.05 341.28,-71.95 341.28,-63.64 341.28,-57.92 337.43,-53.73 331.27,-51.05"/>
<polygon fill="red" stroke="red" stroke-width="2.79" points="332.16,-47.66 321.58,-48.34 330.27,-54.4 332.16,-47.66"/>
<text text-anchor="middle" x="355.28" y="-61.44" font-family="Times,serif" font-size="9.00">0.090</text>
</g>
<!-- key 45681
bias &#45;0.975
h_scaling 1.000&#45;&gt;key 26755
bias &#45;0.361
h_scaling 0.666 -->
<g id="edge10" class="edge">
<title>key 45681
bias &#45;0.975
h_scaling 1.000&#45;&gt;key 26755
bias &#45;0.361
h_scaling 0.666</title>
<path fill="none" stroke="red" stroke-width="0.47" d="M68.87,-121.99C66.3,-129.69 64.11,-137.59 62.64,-145.28 61.54,-151.02 60.78,-157.01 60.29,-163.04"/>
<polygon fill="red" stroke="red" stroke-width="0.47" points="56.78,-163.03 59.69,-173.22 63.77,-163.44 56.78,-163.03"/>
<text text-anchor="middle" x="76.64" y="-148.08" font-family="Times,serif" font-size="9.00">0.012</text>
</g>
<!-- key 130681
bias &#45;0.424
h_scaling 0.399&#45;&gt;key 26755
bias &#45;0.361
h_scaling 0.666 -->
<g id="edge13" class="edge">
<title>key 130681
bias &#45;0.424
h_scaling 0.399&#45;&gt;key 26755
bias &#45;0.361
h_scaling 0.666</title>
<path fill="none" stroke="red" stroke-width="1.34" d="M74.57,-357.68C69.65,-348.36 65.36,-338.46 62.64,-328.56 61.06,-322.82 59.97,-316.81 59.26,-310.71"/>
<polygon fill="red" stroke="red" stroke-width="1.34" points="62.72,-310.1 58.4,-300.43 55.75,-310.69 62.72,-310.1"/>
<text text-anchor="middle" x="76.64" y="-321.36" font-family="Times,serif" font-size="9.00">0.041</text>
</g>
</g>
</svg>
