<?xml version="1.0" encoding="UTF-8" standalone="no"?>
<!DOCTYPE svg PUBLIC "-//W3C//DTD SVG 1.1//EN"
 "http://www.w3.org/Graphics/SVG/1.1/DTD/svg11.dtd">
<!-- Generated by graphviz version 2.43.0 (0)
 -->
<!-- Title: %3 Pages: 1 -->
<svg width="741pt" height="2040pt"
 viewBox="0.00 0.00 741.00 2040.35" xmlns="http://www.w3.org/2000/svg" xmlns:xlink="http://www.w3.org/1999/xlink">
<g id="graph0" class="graph" transform="scale(1 1) rotate(0) translate(4 2036.35)">
<title>%3</title>
<polygon fill="white" stroke="transparent" points="-4,4 -4,-2036.35 737,-2036.35 737,4 -4,4"/>
<!-- ready -->
<g id="node1" class="node">
<title>ready</title>
<polygon fill="yellow" stroke="black" points="505.5,-2032.35 462.5,-2032.35 462.5,-2014.35 505.5,-2014.35 505.5,-2032.35"/>
<text text-anchor="middle" x="484" y="-2021.15" font-family="Times,serif" font-size="9.00">ready</text>
</g>
<!-- key 19410
bias 0.000
h_scaling 0.209 -->
<g id="node11" class="node">
<title>key 19410
bias 0.000
h_scaling 0.209</title>
<ellipse fill="white" stroke="black" cx="484" cy="-1904.71" rx="63.78" ry="63.78"/>
<text text-anchor="middle" x="484" y="-1912.51" font-family="Times,serif" font-size="9.00">key 19410</text>
<text text-anchor="middle" x="484" y="-1902.51" font-family="Times,serif" font-size="9.00">bias 0.000</text>
<text text-anchor="middle" x="484" y="-1892.51" font-family="Times,serif" font-size="9.00">h_scaling 0.209</text>
</g>
<!-- ready&#45;&gt;key 19410
bias 0.000
h_scaling 0.209 -->
<g id="edge20" class="edge">
<title>ready&#45;&gt;key 19410
bias 0.000
h_scaling 0.209</title>
<path fill="none" stroke="red" stroke-width="0.42" d="M484,-2014.33C484,-2006.3 484,-1993.08 484,-1978.58"/>
<polygon fill="red" stroke="red" stroke-width="0.42" points="487.5,-1978.38 484,-1968.38 480.5,-1978.38 487.5,-1978.38"/>
<text text-anchor="middle" x="498" y="-1989.15" font-family="Times,serif" font-size="9.00">0.011</text>
</g>
<!-- go -->
<g id="node2" class="node">
<title>go</title>
<polygon fill="green" stroke="black" points="557,-1740.43 529,-1740.43 529,-1722.43 557,-1722.43 557,-1740.43"/>
<text text-anchor="middle" x="543" y="-1729.23" font-family="Times,serif" font-size="9.00">go</text>
</g>
<!-- key 1253
bias 0.000
h_scaling 0.473 -->
<g id="node4" class="node">
<title>key 1253
bias 0.000
h_scaling 0.473</title>
<ellipse fill="white" stroke="black" cx="531" cy="-236.92" rx="63.78" ry="63.78"/>
<text text-anchor="middle" x="531" y="-244.72" font-family="Times,serif" font-size="9.00">key 1253</text>
<text text-anchor="middle" x="531" y="-234.72" font-family="Times,serif" font-size="9.00">bias 0.000</text>
<text text-anchor="middle" x="531" y="-224.72" font-family="Times,serif" font-size="9.00">h_scaling 0.473</text>
</g>
<!-- go&#45;&gt;key 1253
bias 0.000
h_scaling 0.473 -->
<g id="edge4" class="edge">
<title>go&#45;&gt;key 1253
bias 0.000
h_scaling 0.473</title>
<path fill="none" stroke="blue" stroke-width="0.1" d="M549.92,-1722.14C569.01,-1698.39 621,-1627.44 621,-1559.15 621,-1559.15 621,-1559.15 621,-400.2 621,-361.03 600.7,-322.47 579.39,-292.77"/>
<polygon fill="blue" stroke="blue" stroke-width="0.1" points="582.13,-290.59 573.36,-284.63 576.5,-294.75 582.13,-290.59"/>
</g>
<!-- key 1254
bias 0.000
h_scaling 0.297 -->
<g id="node6" class="node">
<title>key 1254
bias 0.000
h_scaling 0.297</title>
<ellipse fill="white" stroke="black" cx="440" cy="-1558.15" rx="63.78" ry="63.78"/>
<text text-anchor="middle" x="440" y="-1565.95" font-family="Times,serif" font-size="9.00">key 1254</text>
<text text-anchor="middle" x="440" y="-1555.95" font-family="Times,serif" font-size="9.00">bias 0.000</text>
<text text-anchor="middle" x="440" y="-1545.95" font-family="Times,serif" font-size="9.00">h_scaling 0.297</text>
</g>
<!-- go&#45;&gt;key 1254
bias 0.000
h_scaling 0.297 -->
<g id="edge2" class="edge">
<title>go&#45;&gt;key 1254
bias 0.000
h_scaling 0.297</title>
<path fill="none" stroke="red" stroke-width="0.6" d="M538.03,-1722.17C527.21,-1704.17 500.63,-1659.98 477.88,-1622.14"/>
<polygon fill="red" stroke="red" stroke-width="0.6" points="480.64,-1619.95 472.49,-1613.18 474.64,-1623.55 480.64,-1619.95"/>
<text text-anchor="middle" x="506" y="-1642.59" font-family="Times,serif" font-size="9.00">0.017</text>
</g>
<!-- key 17993
bias 0.000
h_scaling 0.593 -->
<g id="node7" class="node">
<title>key 17993
bias 0.000
h_scaling 0.593</title>
<ellipse fill="white" stroke="black" cx="430" cy="-401.2" rx="63.78" ry="63.78"/>
<text text-anchor="middle" x="430" y="-409" font-family="Times,serif" font-size="9.00">key 17993</text>
<text text-anchor="middle" x="430" y="-399" font-family="Times,serif" font-size="9.00">bias 0.000</text>
<text text-anchor="middle" x="430" y="-389" font-family="Times,serif" font-size="9.00">h_scaling 0.593</text>
</g>
<!-- go&#45;&gt;key 17993
bias 0.000
h_scaling 0.593 -->
<g id="edge7" class="edge">
<title>go&#45;&gt;key 17993
bias 0.000
h_scaling 0.593</title>
<path fill="none" stroke="red" stroke-width="0.83" d="M545.86,-1722.35C554.22,-1698.02 578,-1623.19 578,-1559.15 578,-1559.15 578,-1559.15 578,-573.48 578,-517.96 532.93,-471.56 492.54,-441.12"/>
<polygon fill="red" stroke="red" stroke-width="0.83" points="494.4,-438.15 484.27,-435.05 490.26,-443.79 494.4,-438.15"/>
<text text-anchor="middle" x="592" y="-1005.48" font-family="Times,serif" font-size="9.00">0.024</text>
</g>
<!-- key 19633
bias 0.000
h_scaling 0.749 -->
<g id="node10" class="node">
<title>key 19633
bias 0.000
h_scaling 0.749</title>
<ellipse fill="white" stroke="black" cx="238" cy="-1094.31" rx="63.78" ry="63.78"/>
<text text-anchor="middle" x="238" y="-1102.11" font-family="Times,serif" font-size="9.00">key 19633</text>
<text text-anchor="middle" x="238" y="-1092.11" font-family="Times,serif" font-size="9.00">bias 0.000</text>
<text text-anchor="middle" x="238" y="-1082.11" font-family="Times,serif" font-size="9.00">h_scaling 0.749</text>
</g>
<!-- go&#45;&gt;key 19633
bias 0.000
h_scaling 0.749 -->
<g id="edge10" class="edge">
<title>go&#45;&gt;key 19633
bias 0.000
h_scaling 0.749</title>
<path fill="none" stroke="red" stroke-width="0.6" d="M528.89,-1726.05C495.05,-1714.78 408.98,-1681.38 367,-1621.79 331.34,-1571.17 323.48,-1409.44 309,-1349.23 293.37,-1284.23 288.11,-1268.31 270,-1203.95 266.48,-1191.44 262.64,-1178.13 258.88,-1165.29"/>
<polygon fill="red" stroke="red" stroke-width="0.6" points="262.21,-1164.19 256.03,-1155.58 255.49,-1166.16 262.21,-1164.19"/>
<text text-anchor="middle" x="342" y="-1410.67" font-family="Times,serif" font-size="9.00">0.017</text>
</g>
<!-- output
bias 0.000
h_scaling 0.978 -->
<g id="node3" class="node">
<title>output
bias 0.000
h_scaling 0.978</title>
<ellipse fill="lightblue" stroke="black" cx="170" cy="-1731.43" rx="63.78" ry="63.78"/>
<text text-anchor="middle" x="170" y="-1739.23" font-family="Times,serif" font-size="9.00">output</text>
<text text-anchor="middle" x="170" y="-1729.23" font-family="Times,serif" font-size="9.00">bias 0.000</text>
<text text-anchor="middle" x="170" y="-1719.23" font-family="Times,serif" font-size="9.00">h_scaling 0.978</text>
</g>
<!-- output
bias 0.000
h_scaling 0.978&#45;&gt;key 1254
bias 0.000
h_scaling 0.297 -->
<g id="edge12" class="edge">
<title>output
bias 0.000
h_scaling 0.978&#45;&gt;key 1254
bias 0.000
h_scaling 0.297</title>
<path fill="none" stroke="blue" stroke-width="0.1" d="M221.62,-1694.11C265.76,-1665.17 329.32,-1624.84 376.55,-1595.82"/>
<polygon fill="blue" stroke="blue" stroke-width="0.1" points="378.47,-1598.75 385.16,-1590.54 374.81,-1592.78 378.47,-1598.75"/>
</g>
<!-- output
bias 0.000
h_scaling 0.978&#45;&gt;key 17993
bias 0.000
h_scaling 0.593 -->
<g id="edge18" class="edge">
<title>output
bias 0.000
h_scaling 0.978&#45;&gt;key 17993
bias 0.000
h_scaling 0.593</title>
<path fill="none" stroke="red" stroke-width="0.54" d="M150.11,-1670.9C140.92,-1638.29 132,-1596.92 132,-1559.15 132,-1559.15 132,-1559.15 132,-573.48 132,-470.05 268.6,-428.16 356.83,-411.89"/>
<polygon fill="red" stroke="red" stroke-width="0.54" points="357.57,-415.31 366.8,-410.12 356.34,-408.42 357.57,-415.31"/>
<text text-anchor="middle" x="146" y="-1005.48" font-family="Times,serif" font-size="9.00">0.015</text>
</g>
<!-- key 11209
bias 0.000
h_scaling 0.927 -->
<g id="node8" class="node">
<title>key 11209
bias 0.000
h_scaling 0.927</title>
<ellipse fill="white" stroke="black" cx="430" cy="-63.64" rx="63.78" ry="63.78"/>
<text text-anchor="middle" x="430" y="-71.44" font-family="Times,serif" font-size="9.00">key 11209</text>
<text text-anchor="middle" x="430" y="-61.44" font-family="Times,serif" font-size="9.00">bias 0.000</text>
<text text-anchor="middle" x="430" y="-51.44" font-family="Times,serif" font-size="9.00">h_scaling 0.927</text>
</g>
<!-- output
bias 0.000
h_scaling 0.978&#45;&gt;key 11209
bias 0.000
h_scaling 0.927 -->
<g id="edge16" class="edge">
<title>output
bias 0.000
h_scaling 0.978&#45;&gt;key 11209
bias 0.000
h_scaling 0.927</title>
<path fill="none" stroke="red" stroke-width="0.73" d="M112.92,-1702.64C63.53,-1674.13 0,-1624.72 0,-1559.15 0,-1559.15 0,-1559.15 0,-235.92 0,-182.19 30.55,-166.29 80,-145.28 171.4,-106.44 284.53,-84.72 356.99,-73.84"/>
<polygon fill="red" stroke="red" stroke-width="0.73" points="357.55,-77.3 366.93,-72.38 356.53,-70.37 357.55,-77.3"/>
<text text-anchor="middle" x="14" y="-832.2" font-family="Times,serif" font-size="9.00">0.021</text>
</g>
<!-- key 309719
bias 0.000
h_scaling 0.440 -->
<g id="node14" class="node">
<title>key 309719
bias 0.000
h_scaling 0.440</title>
<ellipse fill="white" stroke="black" cx="236" cy="-1412.87" rx="63.78" ry="63.78"/>
<text text-anchor="middle" x="236" y="-1420.67" font-family="Times,serif" font-size="9.00">key 309719</text>
<text text-anchor="middle" x="236" y="-1410.67" font-family="Times,serif" font-size="9.00">bias 0.000</text>
<text text-anchor="middle" x="236" y="-1400.67" font-family="Times,serif" font-size="9.00">h_scaling 0.440</text>
</g>
<!-- output
bias 0.000
h_scaling 0.978&#45;&gt;key 309719
bias 0.000
h_scaling 0.440 -->
<g id="edge33" class="edge">
<title>output
bias 0.000
h_scaling 0.978&#45;&gt;key 309719
bias 0.000
h_scaling 0.440</title>
<path fill="none" stroke="red" stroke-width="0.4" d="M182.8,-1669.02C193.76,-1616.46 209.55,-1540.76 221.07,-1485.46"/>
<polygon fill="red" stroke="red" stroke-width="0.4" points="224.56,-1485.89 223.18,-1475.38 217.71,-1484.46 224.56,-1485.89"/>
<text text-anchor="middle" x="202" y="-1642.59" font-family="Times,serif" font-size="9.00">0.010</text>
</g>
<!-- key 1253
bias 0.000
h_scaling 0.473&#45;&gt;key 1253
bias 0.000
h_scaling 0.473 -->
<g id="edge11" class="edge">
<title>key 1253
bias 0.000
h_scaling 0.473&#45;&gt;key 1253
bias 0.000
h_scaling 0.473</title>
<path fill="none" stroke="red" stroke-width="2.31" d="M593.29,-251.45C604.66,-249.61 612.64,-244.77 612.64,-236.92 612.64,-231.65 609.04,-227.73 603.23,-225.17"/>
<polygon fill="red" stroke="red" stroke-width="2.31" points="603.87,-221.71 593.29,-222.39 601.98,-228.45 603.87,-221.71"/>
<text text-anchor="middle" x="626.64" y="-234.72" font-family="Times,serif" font-size="9.00">0.074</text>
</g>
<!-- key 1253
bias 0.000
h_scaling 0.473&#45;&gt;key 1254
bias 0.000
h_scaling 0.297 -->
<g id="edge19" class="edge">
<title>key 1253
bias 0.000
h_scaling 0.473&#45;&gt;key 1254
bias 0.000
h_scaling 0.297</title>
<path fill="none" stroke="blue" stroke-width="0.1" d="M539.14,-300.34C540,-330.51 540,-367.24 540,-400.2 540,-1268.59 540,-1268.59 540,-1268.59 540,-1349.58 507,-1437.67 478.78,-1494.94"/>
<polygon fill="blue" stroke="blue" stroke-width="0.1" points="475.48,-1493.71 474.11,-1504.21 481.73,-1496.85 475.48,-1493.71"/>
</g>
<!-- key 1253
bias 0.000
h_scaling 0.473&#45;&gt;key 17993
bias 0.000
h_scaling 0.593 -->
<g id="edge14" class="edge">
<title>key 1253
bias 0.000
h_scaling 0.473&#45;&gt;key 17993
bias 0.000
h_scaling 0.593</title>
<path fill="none" stroke="blue" stroke-width="0.1" d="M502.55,-294C493.41,-309.28 483.11,-325.87 473.17,-341.3"/>
<polygon fill="blue" stroke="blue" stroke-width="0.1" points="470.21,-339.45 467.7,-349.74 476.08,-343.25 470.21,-339.45"/>
</g>
<!-- key 1253
bias 0.000
h_scaling 0.473&#45;&gt;key 11209
bias 0.000
h_scaling 0.927 -->
<g id="edge5" class="edge">
<title>key 1253
bias 0.000
h_scaling 0.473&#45;&gt;key 11209
bias 0.000
h_scaling 0.927</title>
<path fill="none" stroke="red" stroke-width="1.05" d="M499.04,-181.73C488.86,-164.46 477.51,-145.21 467,-127.39"/>
<polygon fill="red" stroke="red" stroke-width="1.05" points="470.02,-125.61 461.92,-118.77 463.99,-129.17 470.02,-125.61"/>
<text text-anchor="middle" x="495" y="-148.08" font-family="Times,serif" font-size="9.00">0.032</text>
</g>
<!-- key 145606
bias 0.000
h_scaling 0.920 -->
<g id="node5" class="node">
<title>key 145606
bias 0.000
h_scaling 0.920</title>
<ellipse fill="white" stroke="black" cx="430" cy="-747.76" rx="63.78" ry="63.78"/>
<text text-anchor="middle" x="430" y="-755.56" font-family="Times,serif" font-size="9.00">key 145606</text>
<text text-anchor="middle" x="430" y="-745.56" font-family="Times,serif" font-size="9.00">bias 0.000</text>
<text text-anchor="middle" x="430" y="-735.56" font-family="Times,serif" font-size="9.00">h_scaling 0.920</text>
</g>
<!-- key 162547
bias 0.000
h_scaling 0.634 -->
<g id="node12" class="node">
<title>key 162547
bias 0.000
h_scaling 0.634</title>
<ellipse fill="white" stroke="black" cx="430" cy="-574.48" rx="63.78" ry="63.78"/>
<text text-anchor="middle" x="430" y="-582.28" font-family="Times,serif" font-size="9.00">key 162547</text>
<text text-anchor="middle" x="430" y="-572.28" font-family="Times,serif" font-size="9.00">bias 0.000</text>
<text text-anchor="middle" x="430" y="-562.28" font-family="Times,serif" font-size="9.00">h_scaling 0.634</text>
</g>
<!-- key 145606
bias 0.000
h_scaling 0.920&#45;&gt;key 162547
bias 0.000
h_scaling 0.634 -->
<g id="edge27" class="edge">
<title>key 145606
bias 0.000
h_scaling 0.920&#45;&gt;key 162547
bias 0.000
h_scaling 0.634</title>
<path fill="none" stroke="red" stroke-width="1.43" d="M430,-683.95C430,-672.43 430,-660.32 430,-648.53"/>
<polygon fill="red" stroke="red" stroke-width="1.43" points="433.5,-648.28 430,-638.28 426.5,-648.28 433.5,-648.28"/>
<text text-anchor="middle" x="444" y="-658.92" font-family="Times,serif" font-size="9.00">0.044</text>
</g>
<!-- key 1254
bias 0.000
h_scaling 0.297&#45;&gt;output
bias 0.000
h_scaling 0.978 -->
<g id="edge3" class="edge">
<title>key 1254
bias 0.000
h_scaling 0.297&#45;&gt;output
bias 0.000
h_scaling 0.978</title>
<path fill="none" stroke="blue" stroke-width="0.1" d="M388.01,-1595.72C343.9,-1624.63 280.57,-1664.81 233.48,-1693.75"/>
<polygon fill="blue" stroke="blue" stroke-width="0.1" points="231.58,-1690.81 224.89,-1699.02 235.24,-1696.77 231.58,-1690.81"/>
</g>
<!-- key 1254
bias 0.000
h_scaling 0.297&#45;&gt;key 1253
bias 0.000
h_scaling 0.473 -->
<g id="edge17" class="edge">
<title>key 1254
bias 0.000
h_scaling 0.297&#45;&gt;key 1253
bias 0.000
h_scaling 0.473</title>
<path fill="none" stroke="blue" stroke-width="0.1" d="M463.14,-1498.61C487.56,-1441.48 522,-1351.33 522,-1268.59 522,-1268.59 522,-1268.59 522,-400.2 522,-370.84 522,-338.5 522.61,-310.46"/>
<polygon fill="blue" stroke="blue" stroke-width="0.1" points="526.11,-310.42 522.86,-300.34 519.11,-310.25 526.11,-310.42"/>
</g>
<!-- key 1254
bias 0.000
h_scaling 0.297&#45;&gt;key 1254
bias 0.000
h_scaling 0.297 -->
<g id="edge1" class="edge">
<title>key 1254
bias 0.000
h_scaling 0.297&#45;&gt;key 1254
bias 0.000
h_scaling 0.297</title>
<path fill="none" stroke="red" stroke-width="1.25" d="M501.94,-1573.45C513.5,-1571.57 521.64,-1566.47 521.64,-1558.15 521.64,-1552.44 517.79,-1548.24 511.63,-1545.56"/>
<polygon fill="red" stroke="red" stroke-width="1.25" points="512.52,-1542.18 501.94,-1542.86 510.63,-1548.92 512.52,-1542.18"/>
<text text-anchor="middle" x="535.64" y="-1555.95" font-family="Times,serif" font-size="9.00">0.038</text>
</g>
<!-- key 234414
bias 0.000
h_scaling 0.000 -->
<g id="node9" class="node">
<title>key 234414
bias 0.000
h_scaling 0.000</title>
<ellipse fill="white" stroke="black" cx="430" cy="-1267.59" rx="63.78" ry="63.78"/>
<text text-anchor="middle" x="430" y="-1275.39" font-family="Times,serif" font-size="9.00">key 234414</text>
<text text-anchor="middle" x="430" y="-1265.39" font-family="Times,serif" font-size="9.00">bias 0.000</text>
<text text-anchor="middle" x="430" y="-1255.39" font-family="Times,serif" font-size="9.00">h_scaling 0.000</text>
</g>
<!-- key 1254
bias 0.000
h_scaling 0.297&#45;&gt;key 234414
bias 0.000
h_scaling 0.000 -->
<g id="edge29" class="edge">
<title>key 1254
bias 0.000
h_scaling 0.297&#45;&gt;key 234414
bias 0.000
h_scaling 0.000</title>
<path fill="none" stroke="blue" stroke-width="0.1" d="M437.83,-1494.54C436.27,-1449.6 434.17,-1388.9 432.53,-1341.74"/>
<polygon fill="blue" stroke="blue" stroke-width="0.1" points="436.03,-1341.46 432.18,-1331.58 429.03,-1341.7 436.03,-1341.46"/>
</g>
<!-- key 17993
bias 0.000
h_scaling 0.593&#45;&gt;output
bias 0.000
h_scaling 0.978 -->
<g id="edge23" class="edge">
<title>key 17993
bias 0.000
h_scaling 0.593&#45;&gt;output
bias 0.000
h_scaling 0.978</title>
<path fill="none" stroke="blue" stroke-width="0.1" d="M366.41,-406.5C269,-416.94 94,-452.51 94,-573.48 94,-1559.15 94,-1559.15 94,-1559.15 94,-1598.4 110.88,-1638.7 128.73,-1670.34"/>
<polygon fill="blue" stroke="blue" stroke-width="0.1" points="125.73,-1672.14 133.78,-1679.03 131.78,-1668.63 125.73,-1672.14"/>
</g>
<!-- key 17993
bias 0.000
h_scaling 0.593&#45;&gt;key 1253
bias 0.000
h_scaling 0.473 -->
<g id="edge15" class="edge">
<title>key 17993
bias 0.000
h_scaling 0.593&#45;&gt;key 1253
bias 0.000
h_scaling 0.473</title>
<path fill="none" stroke="blue" stroke-width="0.1" d="M458.58,-343.9C467.69,-328.68 477.94,-312.17 487.82,-296.82"/>
<polygon fill="blue" stroke="blue" stroke-width="0.1" points="490.76,-298.72 493.26,-288.42 484.89,-294.91 490.76,-298.72"/>
</g>
<!-- key 17993
bias 0.000
h_scaling 0.593&#45;&gt;key 11209
bias 0.000
h_scaling 0.927 -->
<g id="edge8" class="edge">
<title>key 17993
bias 0.000
h_scaling 0.593&#45;&gt;key 11209
bias 0.000
h_scaling 0.927</title>
<path fill="none" stroke="blue" stroke-width="0.1" d="M430,-337.48C430,-280.72 430,-197.13 430,-137.45"/>
<polygon fill="blue" stroke="blue" stroke-width="0.1" points="433.5,-137.34 430,-127.34 426.5,-137.34 433.5,-137.34"/>
</g>
<!-- key 11209
bias 0.000
h_scaling 0.927&#45;&gt;output
bias 0.000
h_scaling 0.978 -->
<g id="edge6" class="edge">
<title>key 11209
bias 0.000
h_scaling 0.927&#45;&gt;output
bias 0.000
h_scaling 0.978</title>
<path fill="none" stroke="red" stroke-width="0.73" d="M366.14,-65.63C258.12,-71.05 51,-99.27 51,-235.92 51,-1559.15 51,-1559.15 51,-1559.15 51,-1607.26 83.05,-1651.56 113.88,-1683.05"/>
<polygon fill="red" stroke="red" stroke-width="0.73" points="111.69,-1685.81 121.25,-1690.37 116.62,-1680.85 111.69,-1685.81"/>
<text text-anchor="middle" x="65" y="-832.2" font-family="Times,serif" font-size="9.00">0.021</text>
</g>
<!-- key 234414
bias 0.000
h_scaling 0.000&#45;&gt;key 19633
bias 0.000
h_scaling 0.749 -->
<g id="edge31" class="edge">
<title>key 234414
bias 0.000
h_scaling 0.000&#45;&gt;key 19633
bias 0.000
h_scaling 0.749</title>
<path fill="none" stroke="red" stroke-width="1.5" d="M382.54,-1224.26C355.44,-1200.08 321.33,-1169.65 293.06,-1144.43"/>
<polygon fill="red" stroke="red" stroke-width="1.5" points="295.04,-1141.51 285.25,-1137.46 290.38,-1146.73 295.04,-1141.51"/>
<text text-anchor="middle" x="348" y="-1178.75" font-family="Times,serif" font-size="9.00">0.047</text>
</g>
<!-- key 117172
bias 0.000
h_scaling 0.634 -->
<g id="node13" class="node">
<title>key 117172
bias 0.000
h_scaling 0.634</title>
<ellipse fill="white" stroke="black" cx="384" cy="-1094.31" rx="63.78" ry="63.78"/>
<text text-anchor="middle" x="384" y="-1102.11" font-family="Times,serif" font-size="9.00">key 117172</text>
<text text-anchor="middle" x="384" y="-1092.11" font-family="Times,serif" font-size="9.00">bias 0.000</text>
<text text-anchor="middle" x="384" y="-1082.11" font-family="Times,serif" font-size="9.00">h_scaling 0.634</text>
</g>
<!-- key 234414
bias 0.000
h_scaling 0.000&#45;&gt;key 117172
bias 0.000
h_scaling 0.634 -->
<g id="edge30" class="edge">
<title>key 234414
bias 0.000
h_scaling 0.000&#45;&gt;key 117172
bias 0.000
h_scaling 0.634</title>
<path fill="none" stroke="red" stroke-width="0.89" d="M419.69,-1204.37C417.72,-1194.8 415.48,-1185.07 413,-1175.95 411.9,-1171.92 410.7,-1167.79 409.42,-1163.65"/>
<polygon fill="red" stroke="red" stroke-width="0.89" points="412.71,-1162.44 406.32,-1153.98 406.04,-1164.57 412.71,-1162.44"/>
<text text-anchor="middle" x="430" y="-1178.75" font-family="Times,serif" font-size="9.00">0.026</text>
</g>
<!-- key 19633
bias 0.000
h_scaling 0.749&#45;&gt;output
bias 0.000
h_scaling 0.978 -->
<g id="edge13" class="edge">
<title>key 19633
bias 0.000
h_scaling 0.749&#45;&gt;output
bias 0.000
h_scaling 0.978</title>
<path fill="none" stroke="blue" stroke-width="0.1" d="M217.7,-1154.73C201.43,-1205.65 179.9,-1281.31 171,-1349.23 157.03,-1455.84 160.39,-1580.65 164.71,-1657.64"/>
<polygon fill="blue" stroke="blue" stroke-width="0.1" points="161.22,-1657.93 165.29,-1667.71 168.21,-1657.52 161.22,-1657.93"/>
</g>
<!-- key 19410
bias 0.000
h_scaling 0.209&#45;&gt;output
bias 0.000
h_scaling 0.978 -->
<g id="edge26" class="edge">
<title>key 19410
bias 0.000
h_scaling 0.209&#45;&gt;output
bias 0.000
h_scaling 0.978</title>
<path fill="none" stroke="red" stroke-width="0.27" d="M422.44,-1887.71C377.57,-1874.42 316.4,-1852.87 268,-1823.07 251.19,-1812.72 234.73,-1799.23 220.23,-1785.83"/>
<polygon fill="red" stroke="red" stroke-width="0.27" points="222.51,-1783.17 212.84,-1778.85 217.7,-1788.26 222.51,-1783.17"/>
<text text-anchor="middle" x="282" y="-1815.87" font-family="Times,serif" font-size="9.00">0.006</text>
</g>
<!-- key 19410
bias 0.000
h_scaling 0.209&#45;&gt;key 1253
bias 0.000
h_scaling 0.473 -->
<g id="edge9" class="edge">
<title>key 19410
bias 0.000
h_scaling 0.209&#45;&gt;key 1253
bias 0.000
h_scaling 0.473</title>
<path fill="none" stroke="red" stroke-width="0.42" d="M541.79,-1876.89C592.76,-1848.79 659,-1799.39 659,-1732.43 659,-1732.43 659,-1732.43 659,-400.2 659,-352.36 624.29,-310.34 591.02,-281.05"/>
<polygon fill="red" stroke="red" stroke-width="0.42" points="592.94,-278.09 583.06,-274.25 588.39,-283.41 592.94,-278.09"/>
<text text-anchor="middle" x="673" y="-1005.48" font-family="Times,serif" font-size="9.00">0.011</text>
</g>
<!-- key 19410
bias 0.000
h_scaling 0.209&#45;&gt;key 11209
bias 0.000
h_scaling 0.927 -->
<g id="edge24" class="edge">
<title>key 19410
bias 0.000
h_scaling 0.209&#45;&gt;key 11209
bias 0.000
h_scaling 0.927</title>
<path fill="none" stroke="red" stroke-width="0.47" d="M544.97,-1885.61C610.39,-1861.97 705,-1813.74 705,-1732.43 705,-1732.43 705,-1732.43 705,-235.92 705,-140.58 584.44,-96.4 502.97,-77.44"/>
<polygon fill="red" stroke="red" stroke-width="0.47" points="503.27,-73.92 492.75,-75.14 501.74,-80.74 503.27,-73.92"/>
<text text-anchor="middle" x="719" y="-918.84" font-family="Times,serif" font-size="9.00">0.012</text>
</g>
<!-- key 19410
bias 0.000
h_scaling 0.209&#45;&gt;key 19410
bias 0.000
h_scaling 0.209 -->
<g id="edge22" class="edge">
<title>key 19410
bias 0.000
h_scaling 0.209&#45;&gt;key 19410
bias 0.000
h_scaling 0.209</title>
<path fill="none" stroke="red" stroke-width="0.57" d="M545.94,-1920.01C557.5,-1918.12 565.64,-1913.03 565.64,-1904.71 565.64,-1898.99 561.79,-1894.8 555.63,-1892.12"/>
<polygon fill="red" stroke="red" stroke-width="0.57" points="556.52,-1888.73 545.94,-1889.41 554.63,-1895.48 556.52,-1888.73"/>
<text text-anchor="middle" x="579.64" y="-1902.51" font-family="Times,serif" font-size="9.00">0.016</text>
</g>
<!-- key 162547
bias 0.000
h_scaling 0.634&#45;&gt;key 17993
bias 0.000
h_scaling 0.593 -->
<g id="edge25" class="edge">
<title>key 162547
bias 0.000
h_scaling 0.634&#45;&gt;key 17993
bias 0.000
h_scaling 0.593</title>
<path fill="none" stroke="red" stroke-width="1.27" d="M430,-510.67C430,-499.15 430,-487.04 430,-475.25"/>
<polygon fill="red" stroke="red" stroke-width="1.27" points="433.5,-475 430,-465 426.5,-475 433.5,-475"/>
<text text-anchor="middle" x="444" y="-485.64" font-family="Times,serif" font-size="9.00">0.039</text>
</g>
<!-- key 117172
bias 0.000
h_scaling 0.634&#45;&gt;key 145606
bias 0.000
h_scaling 0.920 -->
<g id="edge28" class="edge">
<title>key 117172
bias 0.000
h_scaling 0.634&#45;&gt;key 145606
bias 0.000
h_scaling 0.920</title>
<path fill="none" stroke="red" stroke-width="0.77" d="M350.76,-1039.97C341.89,-1022.94 333.52,-1003.59 329,-984.68 315.87,-929.65 308.31,-910.04 329,-857.4 338.23,-833.91 355.2,-812.48 372.62,-794.98"/>
<polygon fill="red" stroke="red" stroke-width="0.77" points="375.36,-797.2 380.1,-787.73 370.48,-792.18 375.36,-797.2"/>
<text text-anchor="middle" x="343" y="-918.84" font-family="Times,serif" font-size="9.00">0.022</text>
</g>
<!-- key 117172
bias 0.000
h_scaling 0.634&#45;&gt;key 234414
bias 0.000
h_scaling 0.000 -->
<g id="edge32" class="edge">
<title>key 117172
bias 0.000
h_scaling 0.634&#45;&gt;key 234414
bias 0.000
h_scaling 0.000</title>
<path fill="none" stroke="red" stroke-width="0.89" d="M376.95,-1157.84C377.3,-1167.37 378.5,-1177.01 381,-1185.95 382.87,-1192.63 385.46,-1199.31 388.48,-1205.79"/>
<polygon fill="red" stroke="red" stroke-width="0.89" points="385.57,-1207.79 393.19,-1215.15 391.82,-1204.64 385.57,-1207.79"/>
<text text-anchor="middle" x="395" y="-1178.75" font-family="Times,serif" font-size="9.00">0.026</text>
</g>
<!-- key 117172
bias 0.000
h_scaling 0.634&#45;&gt;key 19410
bias 0.000
h_scaling 0.209 -->
<g id="edge21" class="edge">
<title>key 117172
bias 0.000
h_scaling 0.634&#45;&gt;key 19410
bias 0.000
h_scaling 0.209</title>
<path fill="none" stroke="blue" stroke-width="0.1" d="M344.58,-1144.63C338.6,-1154.5 333.32,-1165.16 330,-1175.95 289.85,-1306.59 310.75,-1555 328,-1621.79 349.57,-1705.33 401.78,-1790.55 439.88,-1845.1"/>
<polygon fill="blue" stroke="blue" stroke-width="0.1" points="437.24,-1847.43 445.87,-1853.58 442.96,-1843.39 437.24,-1847.43"/>
</g>
<!-- key 369433
bias 0.000
h_scaling 1.000 -->
<g id="node15" class="node">
<title>key 369433
bias 0.000
h_scaling 1.000</title>
<ellipse fill="white" stroke="black" cx="430" cy="-921.04" rx="63.78" ry="63.78"/>
<text text-anchor="middle" x="430" y="-928.84" font-family="Times,serif" font-size="9.00">key 369433</text>
<text text-anchor="middle" x="430" y="-918.84" font-family="Times,serif" font-size="9.00">bias 0.000</text>
<text text-anchor="middle" x="430" y="-908.84" font-family="Times,serif" font-size="9.00">h_scaling 1.000</text>
</g>
<!-- key 117172
bias 0.000
h_scaling 0.634&#45;&gt;key 369433
bias 0.000
h_scaling 1.000 -->
<g id="edge35" class="edge">
<title>key 117172
bias 0.000
h_scaling 0.634&#45;&gt;key 369433
bias 0.000
h_scaling 1.000</title>
<path fill="none" stroke="blue" stroke-width="0.1" d="M400.35,-1032.45C403.8,-1019.57 407.48,-1005.88 411.03,-992.68"/>
<polygon fill="blue" stroke="blue" stroke-width="0.1" points="414.49,-993.27 413.71,-982.71 407.73,-991.46 414.49,-993.27"/>
</g>
<!-- key 309719
bias 0.000
h_scaling 0.440&#45;&gt;key 19633
bias 0.000
h_scaling 0.749 -->
<g id="edge34" class="edge">
<title>key 309719
bias 0.000
h_scaling 0.440&#45;&gt;key 19633
bias 0.000
h_scaling 0.749</title>
<path fill="none" stroke="red" stroke-width="0.66" d="M236.4,-1348.95C236.73,-1296.95 237.19,-1223.05 237.54,-1168.43"/>
<polygon fill="red" stroke="red" stroke-width="0.66" points="241.04,-1168.14 237.6,-1158.12 234.04,-1168.09 241.04,-1168.14"/>
<text text-anchor="middle" x="252" y="-1265.39" font-family="Times,serif" font-size="9.00">0.019</text>
</g>
<!-- key 369433
bias 0.000
h_scaling 1.000&#45;&gt;key 145606
bias 0.000
h_scaling 0.920 -->
<g id="edge36" class="edge">
<title>key 369433
bias 0.000
h_scaling 1.000&#45;&gt;key 145606
bias 0.000
h_scaling 0.920</title>
<path fill="none" stroke="red" stroke-width="0.25" d="M430,-857.23C430,-845.71 430,-833.6 430,-821.81"/>
<polygon fill="red" stroke="red" stroke-width="0.25" points="433.5,-821.55 430,-811.55 426.5,-821.55 433.5,-821.55"/>
<text text-anchor="middle" x="444" y="-832.2" font-family="Times,serif" font-size="9.00">0.005</text>
</g>
</g>
</svg>
