<?xml version="1.0" encoding="UTF-8" standalone="no"?>
<!DOCTYPE svg PUBLIC "-//W3C//DTD SVG 1.1//EN"
 "http://www.w3.org/Graphics/SVG/1.1/DTD/svg11.dtd">
<!-- Generated by graphviz version 2.43.0 (0)
 -->
<!-- Title: %3 Pages: 1 -->
<svg width="421pt" height="846pt"
 viewBox="0.00 0.00 420.64 846.40" xmlns="http://www.w3.org/2000/svg" xmlns:xlink="http://www.w3.org/1999/xlink">
<g id="graph0" class="graph" transform="scale(1 1) rotate(0) translate(4 842.4)">
<title>%3</title>
<polygon fill="white" stroke="transparent" points="-4,4 -4,-842.4 416.64,-842.4 416.64,4 -4,4"/>
<!-- ready
output 0.000 -->
<g id="node1" class="node">
<title>ready
output 0.000</title>
<polygon fill="yellow" stroke="black" points="189.14,-838.4 112.14,-838.4 112.14,-810.4 189.14,-810.4 189.14,-838.4"/>
<text text-anchor="middle" x="150.64" y="-827.2" font-family="Times,serif" font-size="9.00">ready</text>
<text text-anchor="middle" x="150.64" y="-817.2" font-family="Times,serif" font-size="9.00">output 0.000</text>
</g>
<!-- key 7339
bias &#45;0.762
h_scaling 0.000
output 0.328 -->
<g id="node4" class="node">
<title>key 7339
bias &#45;0.762
h_scaling 0.000
output 0.328</title>
<ellipse fill="white" stroke="black" cx="275.64" cy="-700.76" rx="63.78" ry="63.78"/>
<text text-anchor="middle" x="275.64" y="-713.56" font-family="Times,serif" font-size="9.00">key 7339</text>
<text text-anchor="middle" x="275.64" y="-703.56" font-family="Times,serif" font-size="9.00">bias &#45;0.762</text>
<text text-anchor="middle" x="275.64" y="-693.56" font-family="Times,serif" font-size="9.00">h_scaling 0.000</text>
<text text-anchor="middle" x="275.64" y="-683.56" font-family="Times,serif" font-size="9.00">output 0.328</text>
</g>
<!-- ready
output 0.000&#45;&gt;key 7339
bias &#45;0.762
h_scaling 0.000
output 0.328 -->
<g id="edge10" class="edge">
<title>ready
output 0.000&#45;&gt;key 7339
bias &#45;0.762
h_scaling 0.000
output 0.328</title>
<path fill="none" stroke="blue" stroke-width="0.1" d="M164.02,-810.38C178.22,-796.56 201.57,-773.84 223.24,-752.74"/>
<polygon fill="blue" stroke="blue" stroke-width="0.1" points="225.79,-755.15 230.52,-745.67 220.91,-750.13 225.79,-755.15"/>
<text text-anchor="middle" x="207.14" y="-785.2" font-family="Times,serif" font-size="9.00">&#45;0.219</text>
</g>
<!-- key 119115
bias &#45;1.000
h_scaling 0.783
output 0.007 -->
<g id="node5" class="node">
<title>key 119115
bias &#45;1.000
h_scaling 0.783
output 0.007</title>
<ellipse fill="white" stroke="black" cx="63.64" cy="-555.48" rx="63.78" ry="63.78"/>
<text text-anchor="middle" x="63.64" y="-568.28" font-family="Times,serif" font-size="9.00">key 119115</text>
<text text-anchor="middle" x="63.64" y="-558.28" font-family="Times,serif" font-size="9.00">bias &#45;1.000</text>
<text text-anchor="middle" x="63.64" y="-548.28" font-family="Times,serif" font-size="9.00">h_scaling 0.783</text>
<text text-anchor="middle" x="63.64" y="-538.28" font-family="Times,serif" font-size="9.00">output 0.007</text>
</g>
<!-- ready
output 0.000&#45;&gt;key 119115
bias &#45;1.000
h_scaling 0.783
output 0.007 -->
<g id="edge12" class="edge">
<title>ready
output 0.000&#45;&gt;key 119115
bias &#45;1.000
h_scaling 0.783
output 0.007</title>
<path fill="none" stroke="red" stroke-width="0.1" d="M126.48,-810.22C119.75,-805.44 113.08,-799.45 108.64,-792.4 77.95,-743.64 67.28,-678.78 63.96,-629.42"/>
<polygon fill="red" stroke="red" stroke-width="0.1" points="67.44,-628.91 63.36,-619.13 60.45,-629.32 67.44,-628.91"/>
<text text-anchor="middle" x="122.64" y="-785.2" font-family="Times,serif" font-size="9.00">1.188</text>
</g>
<!-- key 17581
bias &#45;0.410
h_scaling 0.286
output 0.162 -->
<g id="node7" class="node">
<title>key 17581
bias &#45;0.410
h_scaling 0.286
output 0.162</title>
<ellipse fill="white" stroke="black" cx="178.64" cy="-236.92" rx="63.78" ry="63.78"/>
<text text-anchor="middle" x="178.64" y="-249.72" font-family="Times,serif" font-size="9.00">key 17581</text>
<text text-anchor="middle" x="178.64" y="-239.72" font-family="Times,serif" font-size="9.00">bias &#45;0.410</text>
<text text-anchor="middle" x="178.64" y="-229.72" font-family="Times,serif" font-size="9.00">h_scaling 0.286</text>
<text text-anchor="middle" x="178.64" y="-219.72" font-family="Times,serif" font-size="9.00">output 0.162</text>
</g>
<!-- ready
output 0.000&#45;&gt;key 17581
bias &#45;0.410
h_scaling 0.286
output 0.162 -->
<g id="edge8" class="edge">
<title>ready
output 0.000&#45;&gt;key 17581
bias &#45;0.410
h_scaling 0.286
output 0.162</title>
<path fill="none" stroke="blue" stroke-width="0.1" d="M151.26,-810.35C154.39,-744.88 168.5,-449.84 175.15,-310.82"/>
<polygon fill="blue" stroke="blue" stroke-width="0.1" points="178.66,-310.84 175.64,-300.68 171.66,-310.5 178.66,-310.84"/>
<text text-anchor="middle" x="182.14" y="-553.28" font-family="Times,serif" font-size="9.00">&#45;0.342</text>
</g>
<!-- go
output 0.000 -->
<g id="node2" class="node">
<title>go
output 0.000</title>
<polygon fill="green" stroke="black" points="314.14,-838.4 237.14,-838.4 237.14,-810.4 314.14,-810.4 314.14,-838.4"/>
<text text-anchor="middle" x="275.64" y="-827.2" font-family="Times,serif" font-size="9.00">go</text>
<text text-anchor="middle" x="275.64" y="-817.2" font-family="Times,serif" font-size="9.00">output 0.000</text>
</g>
<!-- go
output 0.000&#45;&gt;key 7339
bias &#45;0.762
h_scaling 0.000
output 0.328 -->
<g id="edge2" class="edge">
<title>go
output 0.000&#45;&gt;key 7339
bias &#45;0.762
h_scaling 0.000
output 0.328</title>
<path fill="none" stroke="red" stroke-width="0.1" d="M275.64,-810.38C275.64,-801.3 275.64,-788.39 275.64,-774.63"/>
<polygon fill="red" stroke="red" stroke-width="0.1" points="279.14,-774.49 275.64,-764.49 272.14,-774.49 279.14,-774.49"/>
<text text-anchor="middle" x="289.64" y="-785.2" font-family="Times,serif" font-size="9.00">1.000</text>
</g>
<!-- output
bias &#45;0.106
h_scaling 0.911
output 0.058 -->
<g id="node3" class="node">
<title>output
bias &#45;0.106
h_scaling 0.911
output 0.058</title>
<ellipse fill="lightblue" stroke="black" cx="324.64" cy="-63.64" rx="63.78" ry="63.78"/>
<text text-anchor="middle" x="324.64" y="-76.44" font-family="Times,serif" font-size="9.00">output</text>
<text text-anchor="middle" x="324.64" y="-66.44" font-family="Times,serif" font-size="9.00">bias &#45;0.106</text>
<text text-anchor="middle" x="324.64" y="-56.44" font-family="Times,serif" font-size="9.00">h_scaling 0.911</text>
<text text-anchor="middle" x="324.64" y="-46.44" font-family="Times,serif" font-size="9.00">output 0.058</text>
</g>
<!-- key 7339
bias &#45;0.762
h_scaling 0.000
output 0.328&#45;&gt;output
bias &#45;0.106
h_scaling 0.911
output 0.058 -->
<g id="edge3" class="edge">
<title>key 7339
bias &#45;0.762
h_scaling 0.000
output 0.328&#45;&gt;output
bias &#45;0.106
h_scaling 0.911
output 0.058</title>
<path fill="none" stroke="blue" stroke-width="0.1" d="M314.27,-650.03C320.95,-640.12 327.42,-629.54 332.64,-619.12 363.02,-558.43 369.07,-540.87 379.64,-473.84 398.39,-354.94 368.88,-215.96 346.35,-134.4"/>
<polygon fill="blue" stroke="blue" stroke-width="0.1" points="349.71,-133.42 343.64,-124.74 342.97,-135.32 349.71,-133.42"/>
<text text-anchor="middle" x="397.14" y="-321.36" font-family="Times,serif" font-size="9.00">&#45;1.000</text>
</g>
<!-- key 7339
bias &#45;0.762
h_scaling 0.000
output 0.328&#45;&gt;key 7339
bias &#45;0.762
h_scaling 0.000
output 0.328 -->
<g id="edge5" class="edge">
<title>key 7339
bias &#45;0.762
h_scaling 0.000
output 0.328&#45;&gt;key 7339
bias &#45;0.762
h_scaling 0.000
output 0.328</title>
<path fill="none" stroke="red" stroke-width="0.1" d="M337.58,-716.05C349.14,-714.17 357.28,-709.07 357.28,-700.76 357.28,-695.04 353.43,-690.84 347.27,-688.17"/>
<polygon fill="red" stroke="red" stroke-width="0.1" points="348.16,-684.78 337.58,-685.46 346.27,-691.52 348.16,-684.78"/>
<text text-anchor="middle" x="371.28" y="-698.56" font-family="Times,serif" font-size="9.00">1.000</text>
</g>
<!-- key 3085
bias 0.453
h_scaling 0.593
output 0.342 -->
<g id="node6" class="node">
<title>key 3085
bias 0.453
h_scaling 0.593
output 0.342</title>
<ellipse fill="white" stroke="black" cx="306.64" cy="-410.2" rx="63.78" ry="63.78"/>
<text text-anchor="middle" x="306.64" y="-423" font-family="Times,serif" font-size="9.00">key 3085</text>
<text text-anchor="middle" x="306.64" y="-413" font-family="Times,serif" font-size="9.00">bias 0.453</text>
<text text-anchor="middle" x="306.64" y="-403" font-family="Times,serif" font-size="9.00">h_scaling 0.593</text>
<text text-anchor="middle" x="306.64" y="-393" font-family="Times,serif" font-size="9.00">output 0.342</text>
</g>
<!-- key 7339
bias &#45;0.762
h_scaling 0.000
output 0.328&#45;&gt;key 3085
bias 0.453
h_scaling 0.593
output 0.342 -->
<g id="edge4" class="edge">
<title>key 7339
bias &#45;0.762
h_scaling 0.000
output 0.328&#45;&gt;key 3085
bias 0.453
h_scaling 0.593
output 0.342</title>
<path fill="none" stroke="blue" stroke-width="0.1" d="M282.37,-637.14C287.21,-592.05 293.76,-531.09 298.83,-483.85"/>
<polygon fill="blue" stroke="blue" stroke-width="0.1" points="302.34,-484.01 299.93,-473.69 295.38,-483.26 302.34,-484.01"/>
<text text-anchor="middle" x="313.14" y="-553.28" font-family="Times,serif" font-size="9.00">&#45;1.000</text>
</g>
<!-- key 119115
bias &#45;1.000
h_scaling 0.783
output 0.007&#45;&gt;key 17581
bias &#45;0.410
h_scaling 0.286
output 0.162 -->
<g id="edge13" class="edge">
<title>key 119115
bias &#45;1.000
h_scaling 0.783
output 0.007&#45;&gt;key 17581
bias &#45;0.410
h_scaling 0.286
output 0.162</title>
<path fill="none" stroke="blue" stroke-width="0.1" d="M69.77,-492.11C75.46,-449.8 86.13,-393.29 105.64,-346.56 112.92,-329.13 123.16,-311.57 133.68,-295.8"/>
<polygon fill="blue" stroke="blue" stroke-width="0.1" points="136.78,-297.46 139.54,-287.23 131,-293.51 136.78,-297.46"/>
<text text-anchor="middle" x="121.14" y="-408" font-family="Times,serif" font-size="9.00">&#45;0.562</text>
</g>
<!-- key 3085
bias 0.453
h_scaling 0.593
output 0.342&#45;&gt;output
bias &#45;0.106
h_scaling 0.911
output 0.058 -->
<g id="edge1" class="edge">
<title>key 3085
bias 0.453
h_scaling 0.593
output 0.342&#45;&gt;output
bias &#45;0.106
h_scaling 0.911
output 0.058</title>
<path fill="none" stroke="red" stroke-width="0.1" d="M309.92,-346.4C313,-287.47 317.6,-199.36 320.84,-137.39"/>
<polygon fill="red" stroke="red" stroke-width="0.1" points="324.34,-137.46 321.37,-127.3 317.35,-137.1 324.34,-137.46"/>
<text text-anchor="middle" x="332.64" y="-234.72" font-family="Times,serif" font-size="9.00">1.105</text>
</g>
<!-- key 3085
bias 0.453
h_scaling 0.593
output 0.342&#45;&gt;key 17581
bias &#45;0.410
h_scaling 0.286
output 0.162 -->
<g id="edge6" class="edge">
<title>key 3085
bias 0.453
h_scaling 0.593
output 0.342&#45;&gt;key 17581
bias &#45;0.410
h_scaling 0.286
output 0.162</title>
<path fill="none" stroke="red" stroke-width="0.1" d="M268.93,-358.74C254.34,-339.22 237.56,-316.76 222.44,-296.53"/>
<polygon fill="red" stroke="red" stroke-width="0.1" points="225.09,-294.23 216.3,-288.32 219.49,-298.42 225.09,-294.23"/>
<text text-anchor="middle" x="256.64" y="-321.36" font-family="Times,serif" font-size="9.00">0.214</text>
</g>
<!-- key 17581
bias &#45;0.410
h_scaling 0.286
output 0.162&#45;&gt;output
bias &#45;0.106
h_scaling 0.911
output 0.058 -->
<g id="edge11" class="edge">
<title>key 17581
bias &#45;0.410
h_scaling 0.286
output 0.162&#45;&gt;output
bias &#45;0.106
h_scaling 0.911
output 0.058</title>
<path fill="none" stroke="blue" stroke-width="0.1" d="M219.7,-187.75C237.5,-166.87 258.46,-142.28 276.95,-120.59"/>
<polygon fill="blue" stroke="blue" stroke-width="0.1" points="279.81,-122.62 283.64,-112.74 274.49,-118.08 279.81,-122.62"/>
<text text-anchor="middle" x="267.14" y="-148.08" font-family="Times,serif" font-size="9.00">&#45;0.997</text>
</g>
<!-- key 17581
bias &#45;0.410
h_scaling 0.286
output 0.162&#45;&gt;key 7339
bias &#45;0.762
h_scaling 0.000
output 0.328 -->
<g id="edge7" class="edge">
<title>key 17581
bias &#45;0.410
h_scaling 0.286
output 0.162&#45;&gt;key 7339
bias &#45;0.762
h_scaling 0.000
output 0.328</title>
<path fill="none" stroke="red" stroke-width="0.1" d="M182.61,-300.52C186.41,-348.36 193.43,-415.74 205.64,-473.84 216.93,-527.56 235.52,-586.78 250.71,-631.11"/>
<polygon fill="red" stroke="red" stroke-width="0.1" points="247.42,-632.31 253.99,-640.62 254.03,-630.03 247.42,-632.31"/>
<text text-anchor="middle" x="219.64" y="-408" font-family="Times,serif" font-size="9.00">0.560</text>
</g>
<!-- key 17581
bias &#45;0.410
h_scaling 0.286
output 0.162&#45;&gt;key 17581
bias &#45;0.410
h_scaling 0.286
output 0.162 -->
<g id="edge9" class="edge">
<title>key 17581
bias &#45;0.410
h_scaling 0.286
output 0.162&#45;&gt;key 17581
bias &#45;0.410
h_scaling 0.286
output 0.162</title>
<path fill="none" stroke="red" stroke-width="0.1" d="M240.58,-252.22C252.14,-250.33 260.28,-245.23 260.28,-236.92 260.28,-231.2 256.43,-227.01 250.27,-224.33"/>
<polygon fill="red" stroke="red" stroke-width="0.1" points="251.16,-220.94 240.58,-221.62 249.27,-227.68 251.16,-220.94"/>
<text text-anchor="middle" x="274.28" y="-234.72" font-family="Times,serif" font-size="9.00">0.761</text>
</g>
</g>
</svg>
