<?xml version="1.0" encoding="UTF-8" standalone="no"?>
<!DOCTYPE svg PUBLIC "-//W3C//DTD SVG 1.1//EN"
 "http://www.w3.org/Graphics/SVG/1.1/DTD/svg11.dtd">
<!-- Generated by graphviz version 2.43.0 (0)
 -->
<!-- Title: %3 Pages: 1 -->
<svg width="534pt" height="729pt"
 viewBox="0.00 0.00 534.28 729.12" xmlns="http://www.w3.org/2000/svg" xmlns:xlink="http://www.w3.org/1999/xlink">
<g id="graph0" class="graph" transform="scale(1 1) rotate(0) translate(4 725.12)">
<title>%3</title>
<polygon fill="white" stroke="transparent" points="-4,4 -4,-725.12 530.28,-725.12 530.28,4 -4,4"/>
<!-- ready
output 1.000 -->
<g id="node1" class="node">
<title>ready
output 1.000</title>
<polygon fill="yellow" stroke="black" points="217.14,-721.12 140.14,-721.12 140.14,-693.12 217.14,-693.12 217.14,-721.12"/>
<text text-anchor="middle" x="178.64" y="-709.92" font-family="Times,serif" font-size="9.00">ready</text>
<text text-anchor="middle" x="178.64" y="-699.92" font-family="Times,serif" font-size="9.00">output 1.000</text>
</g>
<!-- key 7427
bias 0.570
h_scaling 0.505
output 0.723 -->
<g id="node5" class="node">
<title>key 7427
bias 0.570
h_scaling 0.505
output 0.723</title>
<ellipse fill="white" stroke="black" cx="319.64" cy="-583.48" rx="63.78" ry="63.78"/>
<text text-anchor="middle" x="319.64" y="-596.28" font-family="Times,serif" font-size="9.00">key 7427</text>
<text text-anchor="middle" x="319.64" y="-586.28" font-family="Times,serif" font-size="9.00">bias 0.570</text>
<text text-anchor="middle" x="319.64" y="-576.28" font-family="Times,serif" font-size="9.00">h_scaling 0.505</text>
<text text-anchor="middle" x="319.64" y="-566.28" font-family="Times,serif" font-size="9.00">output 0.723</text>
</g>
<!-- ready
output 1.000&#45;&gt;key 7427
bias 0.570
h_scaling 0.505
output 0.723 -->
<g id="edge6" class="edge">
<title>ready
output 1.000&#45;&gt;key 7427
bias 0.570
h_scaling 0.505
output 0.723</title>
<path fill="none" stroke="blue" stroke-width="0.1" d="M194.54,-692.91C201.1,-687.43 208.76,-681 215.64,-675.12 231.6,-661.48 248.82,-646.55 264.57,-632.82"/>
<polygon fill="blue" stroke="blue" stroke-width="0.1" points="266.94,-635.4 272.18,-626.19 262.34,-630.12 266.94,-635.4"/>
<text text-anchor="middle" x="243.14" y="-667.92" font-family="Times,serif" font-size="9.00">&#45;0.258</text>
</g>
<!-- key 115492
bias &#45;0.604
h_scaling 0.924
output 0.080 -->
<g id="node6" class="node">
<title>key 115492
bias &#45;0.604
h_scaling 0.924
output 0.080</title>
<ellipse fill="white" stroke="black" cx="109.64" cy="-236.92" rx="63.78" ry="63.78"/>
<text text-anchor="middle" x="109.64" y="-249.72" font-family="Times,serif" font-size="9.00">key 115492</text>
<text text-anchor="middle" x="109.64" y="-239.72" font-family="Times,serif" font-size="9.00">bias &#45;0.604</text>
<text text-anchor="middle" x="109.64" y="-229.72" font-family="Times,serif" font-size="9.00">h_scaling 0.924</text>
<text text-anchor="middle" x="109.64" y="-219.72" font-family="Times,serif" font-size="9.00">output 0.080</text>
</g>
<!-- ready
output 1.000&#45;&gt;key 115492
bias &#45;0.604
h_scaling 0.924
output 0.080 -->
<g id="edge13" class="edge">
<title>ready
output 1.000&#45;&gt;key 115492
bias &#45;0.604
h_scaling 0.924
output 0.080</title>
<path fill="none" stroke="blue" stroke-width="0.1" d="M177.22,-693.11C170.62,-632.73 142.97,-381.34 136.64,-346.56 134.39,-334.19 131.55,-321.13 128.57,-308.52"/>
<polygon fill="blue" stroke="blue" stroke-width="0.1" points="131.9,-307.43 126.15,-298.53 125.1,-309.07 131.9,-307.43"/>
<text text-anchor="middle" x="171.14" y="-494.64" font-family="Times,serif" font-size="9.00">&#45;0.042</text>
</g>
<!-- key 136643
bias &#45;0.378
h_scaling 0.334
output 0.956 -->
<g id="node7" class="node">
<title>key 136643
bias &#45;0.378
h_scaling 0.334
output 0.956</title>
<ellipse fill="white" stroke="black" cx="63.64" cy="-583.48" rx="63.78" ry="63.78"/>
<text text-anchor="middle" x="63.64" y="-596.28" font-family="Times,serif" font-size="9.00">key 136643</text>
<text text-anchor="middle" x="63.64" y="-586.28" font-family="Times,serif" font-size="9.00">bias &#45;0.378</text>
<text text-anchor="middle" x="63.64" y="-576.28" font-family="Times,serif" font-size="9.00">h_scaling 0.334</text>
<text text-anchor="middle" x="63.64" y="-566.28" font-family="Times,serif" font-size="9.00">output 0.956</text>
</g>
<!-- ready
output 1.000&#45;&gt;key 136643
bias &#45;0.378
h_scaling 0.334
output 0.956 -->
<g id="edge15" class="edge">
<title>ready
output 1.000&#45;&gt;key 136643
bias &#45;0.378
h_scaling 0.334
output 0.956</title>
<path fill="none" stroke="red" stroke-width="0.1" d="M141.07,-693.02C131.37,-688.41 121.46,-682.49 113.64,-675.12 106.21,-668.11 99.61,-659.75 93.84,-650.98"/>
<polygon fill="red" stroke="red" stroke-width="0.1" points="96.82,-649.13 88.57,-642.47 90.87,-652.81 96.82,-649.13"/>
<text text-anchor="middle" x="127.64" y="-667.92" font-family="Times,serif" font-size="9.00">1.228</text>
</g>
<!-- key 28842
bias &#45;0.607
h_scaling 0.516
output 0.871 -->
<g id="node8" class="node">
<title>key 28842
bias &#45;0.607
h_scaling 0.516
output 0.871</title>
<ellipse fill="white" stroke="black" cx="257.64" cy="-63.64" rx="63.78" ry="63.78"/>
<text text-anchor="middle" x="257.64" y="-76.44" font-family="Times,serif" font-size="9.00">key 28842</text>
<text text-anchor="middle" x="257.64" y="-66.44" font-family="Times,serif" font-size="9.00">bias &#45;0.607</text>
<text text-anchor="middle" x="257.64" y="-56.44" font-family="Times,serif" font-size="9.00">h_scaling 0.516</text>
<text text-anchor="middle" x="257.64" y="-46.44" font-family="Times,serif" font-size="9.00">output 0.871</text>
</g>
<!-- ready
output 1.000&#45;&gt;key 28842
bias &#45;0.607
h_scaling 0.516
output 0.871 -->
<g id="edge7" class="edge">
<title>ready
output 1.000&#45;&gt;key 28842
bias &#45;0.607
h_scaling 0.516
output 0.871</title>
<path fill="none" stroke="red" stroke-width="0.1" d="M182.86,-692.77C189.5,-670.55 201.64,-624.45 201.64,-584.48 201.64,-584.48 201.64,-584.48 201.64,-235.92 201.64,-199.91 212.96,-161.66 225.42,-130.46"/>
<polygon fill="red" stroke="red" stroke-width="0.1" points="228.74,-131.6 229.31,-121.02 222.27,-128.93 228.74,-131.6"/>
<text text-anchor="middle" x="215.64" y="-408" font-family="Times,serif" font-size="9.00">0.944</text>
</g>
<!-- go
output 0.000 -->
<g id="node2" class="node">
<title>go
output 0.000</title>
<polygon fill="green" stroke="black" points="445.14,-721.12 368.14,-721.12 368.14,-693.12 445.14,-693.12 445.14,-721.12"/>
<text text-anchor="middle" x="406.64" y="-709.92" font-family="Times,serif" font-size="9.00">go</text>
<text text-anchor="middle" x="406.64" y="-699.92" font-family="Times,serif" font-size="9.00">output 0.000</text>
</g>
<!-- key 3549
bias 0.581
h_scaling 0.631
output 0.268 -->
<g id="node4" class="node">
<title>key 3549
bias 0.581
h_scaling 0.631
output 0.268</title>
<ellipse fill="white" stroke="black" cx="416.64" cy="-410.2" rx="63.78" ry="63.78"/>
<text text-anchor="middle" x="416.64" y="-423" font-family="Times,serif" font-size="9.00">key 3549</text>
<text text-anchor="middle" x="416.64" y="-413" font-family="Times,serif" font-size="9.00">bias 0.581</text>
<text text-anchor="middle" x="416.64" y="-403" font-family="Times,serif" font-size="9.00">h_scaling 0.631</text>
<text text-anchor="middle" x="416.64" y="-393" font-family="Times,serif" font-size="9.00">output 0.268</text>
</g>
<!-- go
output 0.000&#45;&gt;key 3549
bias 0.581
h_scaling 0.631
output 0.268 -->
<g id="edge11" class="edge">
<title>go
output 0.000&#45;&gt;key 3549
bias 0.581
h_scaling 0.631
output 0.268</title>
<path fill="none" stroke="blue" stroke-width="0.1" d="M410.79,-692.98C412.32,-687.52 413.86,-681.07 414.64,-675.12 423.04,-610.88 422.77,-537.09 420.85,-483.9"/>
<polygon fill="blue" stroke="blue" stroke-width="0.1" points="424.34,-483.74 420.46,-473.88 417.35,-484.01 424.34,-483.74"/>
<text text-anchor="middle" x="437.14" y="-581.28" font-family="Times,serif" font-size="9.00">&#45;1.000</text>
</g>
<!-- go
output 0.000&#45;&gt;key 7427
bias 0.570
h_scaling 0.505
output 0.723 -->
<g id="edge2" class="edge">
<title>go
output 0.000&#45;&gt;key 7427
bias 0.570
h_scaling 0.505
output 0.723</title>
<path fill="none" stroke="red" stroke-width="0.1" d="M397.33,-693.1C388.78,-681.14 375.46,-662.52 362.25,-644.06"/>
<polygon fill="red" stroke="red" stroke-width="0.1" points="364.87,-641.7 356.21,-635.61 359.18,-645.78 364.87,-641.7"/>
<text text-anchor="middle" x="396.64" y="-667.92" font-family="Times,serif" font-size="9.00">1.133</text>
</g>
<!-- output
bias &#45;0.368
h_scaling 0.078
output 0.005 -->
<g id="node3" class="node">
<title>output
bias &#45;0.368
h_scaling 0.078
output 0.005</title>
<ellipse fill="lightblue" stroke="black" cx="349.64" cy="-236.92" rx="63.78" ry="63.78"/>
<text text-anchor="middle" x="349.64" y="-249.72" font-family="Times,serif" font-size="9.00">output</text>
<text text-anchor="middle" x="349.64" y="-239.72" font-family="Times,serif" font-size="9.00">bias &#45;0.368</text>
<text text-anchor="middle" x="349.64" y="-229.72" font-family="Times,serif" font-size="9.00">h_scaling 0.078</text>
<text text-anchor="middle" x="349.64" y="-219.72" font-family="Times,serif" font-size="9.00">output 0.005</text>
</g>
<!-- output
bias &#45;0.368
h_scaling 0.078
output 0.005&#45;&gt;key 28842
bias &#45;0.607
h_scaling 0.516
output 0.871 -->
<g id="edge16" class="edge">
<title>output
bias &#45;0.368
h_scaling 0.078
output 0.005&#45;&gt;key 28842
bias &#45;0.607
h_scaling 0.516
output 0.871</title>
<path fill="none" stroke="blue" stroke-width="0.1" d="M319.77,-180.31C311,-163.99 301.34,-146.01 292.31,-129.18"/>
<polygon fill="blue" stroke="blue" stroke-width="0.1" points="295.17,-127.12 287.36,-119.97 289.01,-130.44 295.17,-127.12"/>
<text text-anchor="middle" x="319.14" y="-148.08" font-family="Times,serif" font-size="9.00">&#45;0.388</text>
</g>
<!-- key 3549
bias 0.581
h_scaling 0.631
output 0.268&#45;&gt;output
bias &#45;0.368
h_scaling 0.078
output 0.005 -->
<g id="edge1" class="edge">
<title>key 3549
bias 0.581
h_scaling 0.631
output 0.268&#45;&gt;output
bias &#45;0.368
h_scaling 0.078
output 0.005</title>
<path fill="none" stroke="red" stroke-width="0.1" d="M393.77,-350.73C388.14,-336.34 382.07,-320.81 376.28,-306.01"/>
<polygon fill="red" stroke="red" stroke-width="0.1" points="379.42,-304.45 372.52,-296.41 372.9,-307 379.42,-304.45"/>
<text text-anchor="middle" x="396.64" y="-321.36" font-family="Times,serif" font-size="9.00">1.010</text>
</g>
<!-- key 3549
bias 0.581
h_scaling 0.631
output 0.268&#45;&gt;key 3549
bias 0.581
h_scaling 0.631
output 0.268 -->
<g id="edge12" class="edge">
<title>key 3549
bias 0.581
h_scaling 0.631
output 0.268&#45;&gt;key 3549
bias 0.581
h_scaling 0.631
output 0.268</title>
<path fill="none" stroke="red" stroke-width="0.1" d="M478.58,-425.5C490.14,-423.61 498.28,-418.51 498.28,-410.2 498.28,-404.48 494.43,-400.29 488.27,-397.61"/>
<polygon fill="red" stroke="red" stroke-width="0.1" points="489.16,-394.22 478.58,-394.9 487.27,-400.96 489.16,-394.22"/>
<text text-anchor="middle" x="512.28" y="-408" font-family="Times,serif" font-size="9.00">0.303</text>
</g>
<!-- key 3549
bias 0.581
h_scaling 0.631
output 0.268&#45;&gt;key 7427
bias 0.570
h_scaling 0.505
output 0.723 -->
<g id="edge5" class="edge">
<title>key 3549
bias 0.581
h_scaling 0.631
output 0.268&#45;&gt;key 7427
bias 0.570
h_scaling 0.505
output 0.723</title>
<path fill="none" stroke="blue" stroke-width="0.1" d="M387.71,-467.08C381.54,-478.64 374.97,-490.69 368.64,-501.84 365.27,-507.77 361.7,-513.91 358.08,-520.03"/>
<polygon fill="blue" stroke="blue" stroke-width="0.1" points="354.88,-518.57 352.77,-528.95 360.89,-522.15 354.88,-518.57"/>
<text text-anchor="middle" x="389.14" y="-494.64" font-family="Times,serif" font-size="9.00">&#45;0.671</text>
</g>
<!-- key 3549
bias 0.581
h_scaling 0.631
output 0.268&#45;&gt;key 28842
bias &#45;0.607
h_scaling 0.516
output 0.871 -->
<g id="edge9" class="edge">
<title>key 3549
bias 0.581
h_scaling 0.631
output 0.268&#45;&gt;key 28842
bias &#45;0.607
h_scaling 0.516
output 0.871</title>
<path fill="none" stroke="red" stroke-width="0.1" d="M433.92,-348.93C444.75,-298.84 451.75,-227.29 422.64,-173.28 402.25,-135.45 362.29,-108.62 326.81,-91.09"/>
<polygon fill="red" stroke="red" stroke-width="0.1" points="327.95,-87.76 317.42,-86.62 324.94,-94.08 327.95,-87.76"/>
<text text-anchor="middle" x="456.64" y="-234.72" font-family="Times,serif" font-size="9.00">0.469</text>
</g>
<!-- key 7427
bias 0.570
h_scaling 0.505
output 0.723&#45;&gt;output
bias &#45;0.368
h_scaling 0.078
output 0.005 -->
<g id="edge4" class="edge">
<title>key 7427
bias 0.570
h_scaling 0.505
output 0.723&#45;&gt;output
bias &#45;0.368
h_scaling 0.078
output 0.005</title>
<path fill="none" stroke="blue" stroke-width="0.1" d="M311.26,-519.95C306.42,-472.14 303,-404.77 312.64,-346.56 314.87,-333.11 318.54,-319.1 322.74,-305.78"/>
<polygon fill="blue" stroke="blue" stroke-width="0.1" points="326.08,-306.81 325.87,-296.22 319.43,-304.63 326.08,-306.81"/>
<text text-anchor="middle" x="328.14" y="-408" font-family="Times,serif" font-size="9.00">&#45;1.000</text>
</g>
<!-- key 7427
bias 0.570
h_scaling 0.505
output 0.723&#45;&gt;key 3549
bias 0.581
h_scaling 0.631
output 0.268 -->
<g id="edge3" class="edge">
<title>key 7427
bias 0.570
h_scaling 0.505
output 0.723&#45;&gt;key 3549
bias 0.581
h_scaling 0.631
output 0.268</title>
<path fill="none" stroke="blue" stroke-width="0.1" d="M327.11,-519.89C329.66,-510.17 333.07,-500.49 337.64,-491.84 343.76,-480.24 352.08,-469.19 361.04,-459.2"/>
<polygon fill="blue" stroke="blue" stroke-width="0.1" points="363.71,-461.47 367.98,-451.77 358.59,-456.69 363.71,-461.47"/>
<text text-anchor="middle" x="353.14" y="-494.64" font-family="Times,serif" font-size="9.00">&#45;1.000</text>
</g>
<!-- key 115492
bias &#45;0.604
h_scaling 0.924
output 0.080&#45;&gt;key 28842
bias &#45;0.607
h_scaling 0.516
output 0.871 -->
<g id="edge14" class="edge">
<title>key 115492
bias &#45;0.604
h_scaling 0.924
output 0.080&#45;&gt;key 28842
bias &#45;0.607
h_scaling 0.516
output 0.871</title>
<path fill="none" stroke="red" stroke-width="0.1" d="M136.64,-179.13C143.38,-167.4 151.14,-155.51 159.64,-145.28 170.82,-131.82 184.5,-118.95 198.04,-107.6"/>
<polygon fill="red" stroke="red" stroke-width="0.1" points="200.46,-110.14 205.98,-101.1 196.03,-104.73 200.46,-110.14"/>
<text text-anchor="middle" x="173.64" y="-148.08" font-family="Times,serif" font-size="9.00">1.051</text>
</g>
<!-- key 174205
bias &#45;0.443
h_scaling 0.731
output 0.168 -->
<g id="node9" class="node">
<title>key 174205
bias &#45;0.443
h_scaling 0.731
output 0.168</title>
<ellipse fill="white" stroke="black" cx="63.64" cy="-410.2" rx="63.78" ry="63.78"/>
<text text-anchor="middle" x="63.64" y="-423" font-family="Times,serif" font-size="9.00">key 174205</text>
<text text-anchor="middle" x="63.64" y="-413" font-family="Times,serif" font-size="9.00">bias &#45;0.443</text>
<text text-anchor="middle" x="63.64" y="-403" font-family="Times,serif" font-size="9.00">h_scaling 0.731</text>
<text text-anchor="middle" x="63.64" y="-393" font-family="Times,serif" font-size="9.00">output 0.168</text>
</g>
<!-- key 136643
bias &#45;0.378
h_scaling 0.334
output 0.956&#45;&gt;key 174205
bias &#45;0.443
h_scaling 0.731
output 0.168 -->
<g id="edge17" class="edge">
<title>key 136643
bias &#45;0.378
h_scaling 0.334
output 0.956&#45;&gt;key 174205
bias &#45;0.443
h_scaling 0.731
output 0.168</title>
<path fill="none" stroke="red" stroke-width="0.1" d="M63.64,-519.67C63.64,-508.15 63.64,-496.04 63.64,-484.25"/>
<polygon fill="red" stroke="red" stroke-width="0.1" points="67.14,-484 63.64,-474 60.14,-484 67.14,-484"/>
<text text-anchor="middle" x="77.64" y="-494.64" font-family="Times,serif" font-size="9.00">0.983</text>
</g>
<!-- key 28842
bias &#45;0.607
h_scaling 0.516
output 0.871&#45;&gt;key 7427
bias 0.570
h_scaling 0.505
output 0.723 -->
<g id="edge8" class="edge">
<title>key 28842
bias &#45;0.607
h_scaling 0.516
output 0.871&#45;&gt;key 7427
bias 0.570
h_scaling 0.505
output 0.723</title>
<path fill="none" stroke="blue" stroke-width="0.1" d="M261.63,-127.33C264.92,-174.92 270.1,-241.96 276.64,-300.56 286.66,-390.38 291.46,-412.58 305.64,-501.84 306.09,-504.67 306.55,-507.55 307.03,-510.46"/>
<polygon fill="blue" stroke="blue" stroke-width="0.1" points="303.6,-511.14 308.68,-520.43 310.5,-509.99 303.6,-511.14"/>
<text text-anchor="middle" x="296.14" y="-321.36" font-family="Times,serif" font-size="9.00">&#45;0.403</text>
</g>
<!-- key 28842
bias &#45;0.607
h_scaling 0.516
output 0.871&#45;&gt;key 28842
bias &#45;0.607
h_scaling 0.516
output 0.871 -->
<g id="edge10" class="edge">
<title>key 28842
bias &#45;0.607
h_scaling 0.516
output 0.871&#45;&gt;key 28842
bias &#45;0.607
h_scaling 0.516
output 0.871</title>
<path fill="none" stroke="red" stroke-width="0.1" d="M319.58,-78.94C331.14,-77.05 339.28,-71.95 339.28,-63.64 339.28,-57.92 335.43,-53.73 329.27,-51.05"/>
<polygon fill="red" stroke="red" stroke-width="0.1" points="330.16,-47.66 319.58,-48.34 328.27,-54.4 330.16,-47.66"/>
<text text-anchor="middle" x="353.28" y="-61.44" font-family="Times,serif" font-size="9.00">0.675</text>
</g>
<!-- key 174205
bias &#45;0.443
h_scaling 0.731
output 0.168&#45;&gt;key 115492
bias &#45;0.604
h_scaling 0.924
output 0.080 -->
<g id="edge18" class="edge">
<title>key 174205
bias &#45;0.443
h_scaling 0.731
output 0.168&#45;&gt;key 115492
bias &#45;0.604
h_scaling 0.924
output 0.080</title>
<path fill="none" stroke="red" stroke-width="0.1" d="M79.99,-348.33C83.44,-335.46 87.12,-321.77 90.67,-308.57"/>
<polygon fill="red" stroke="red" stroke-width="0.1" points="94.13,-309.16 93.34,-298.59 87.37,-307.34 94.13,-309.16"/>
<text text-anchor="middle" x="100.64" y="-321.36" font-family="Times,serif" font-size="9.00">1.026</text>
</g>
</g>
</svg>
