<?xml version="1.0" encoding="UTF-8" standalone="no"?>
<!DOCTYPE svg PUBLIC "-//W3C//DTD SVG 1.1//EN"
 "http://www.w3.org/Graphics/SVG/1.1/DTD/svg11.dtd">
<!-- Generated by graphviz version 2.43.0 (0)
 -->
<!-- Title: %3 Pages: 1 -->
<svg width="543pt" height="1066pt"
 viewBox="0.00 0.00 543.00 1065.68" xmlns="http://www.w3.org/2000/svg" xmlns:xlink="http://www.w3.org/1999/xlink">
<g id="graph0" class="graph" transform="scale(1 1) rotate(0) translate(4 1061.68)">
<title>%3</title>
<polygon fill="white" stroke="transparent" points="-4,4 -4,-1061.68 539,-1061.68 539,4 -4,4"/>
<!-- ready -->
<g id="node1" class="node">
<title>ready</title>
<polygon fill="yellow" stroke="black" points="400.5,-1057.68 357.5,-1057.68 357.5,-1039.68 400.5,-1039.68 400.5,-1057.68"/>
<text text-anchor="middle" x="379" y="-1046.48" font-family="Times,serif" font-size="9.00">ready</text>
</g>
<!-- key 36293
bias &#45;0.321
h_scaling 1.000 -->
<g id="node5" class="node">
<title>key 36293
bias &#45;0.321
h_scaling 1.000</title>
<ellipse fill="white" stroke="black" cx="264" cy="-930.04" rx="63.78" ry="63.78"/>
<text text-anchor="middle" x="264" y="-937.84" font-family="Times,serif" font-size="9.00">key 36293</text>
<text text-anchor="middle" x="264" y="-927.84" font-family="Times,serif" font-size="9.00">bias &#45;0.321</text>
<text text-anchor="middle" x="264" y="-917.84" font-family="Times,serif" font-size="9.00">h_scaling 1.000</text>
</g>
<!-- ready&#45;&gt;key 36293
bias &#45;0.321
h_scaling 1.000 -->
<g id="edge9" class="edge">
<title>ready&#45;&gt;key 36293
bias &#45;0.321
h_scaling 1.000</title>
<path fill="none" stroke="red" stroke-width="2.67" d="M357.4,-1043.02C343.7,-1039.18 326.3,-1032.54 314,-1021.68 306.24,-1014.82 299.45,-1006.47 293.57,-997.63"/>
<polygon fill="red" stroke="red" stroke-width="2.67" points="296.48,-995.67 288.21,-989.04 290.54,-999.38 296.48,-995.67"/>
<text text-anchor="middle" x="328" y="-1014.48" font-family="Times,serif" font-size="9.00">0.857</text>
</g>
<!-- key 3021
bias 0.443
h_scaling 1.000 -->
<g id="node6" class="node">
<title>key 3021
bias 0.443
h_scaling 1.000</title>
<ellipse fill="white" stroke="black" cx="250" cy="-410.2" rx="63.78" ry="63.78"/>
<text text-anchor="middle" x="250" y="-418" font-family="Times,serif" font-size="9.00">key 3021</text>
<text text-anchor="middle" x="250" y="-408" font-family="Times,serif" font-size="9.00">bias 0.443</text>
<text text-anchor="middle" x="250" y="-398" font-family="Times,serif" font-size="9.00">h_scaling 1.000</text>
</g>
<!-- ready&#45;&gt;key 3021
bias 0.443
h_scaling 1.000 -->
<g id="edge5" class="edge">
<title>ready&#45;&gt;key 3021
bias 0.443
h_scaling 1.000</title>
<path fill="none" stroke="red" stroke-width="0.64" d="M382.22,-1039.59C384.14,-1034.52 386.48,-1027.79 388,-1021.68 397.82,-982.11 402,-971.8 402,-931.04 402,-931.04 402,-931.04 402,-582.48 402,-567.08 346.37,-507.63 302.41,-463.05"/>
<polygon fill="red" stroke="red" stroke-width="0.64" points="304.72,-460.4 295.19,-455.76 299.74,-465.33 304.72,-460.4"/>
<text text-anchor="middle" x="416" y="-754.56" font-family="Times,serif" font-size="9.00">0.181</text>
</g>
<!-- key 3022
bias 0.461
h_scaling 1.000 -->
<g id="node7" class="node">
<title>key 3022
bias 0.461
h_scaling 1.000</title>
<ellipse fill="white" stroke="black" cx="350" cy="-236.92" rx="63.78" ry="63.78"/>
<text text-anchor="middle" x="350" y="-244.72" font-family="Times,serif" font-size="9.00">key 3022</text>
<text text-anchor="middle" x="350" y="-234.72" font-family="Times,serif" font-size="9.00">bias 0.461</text>
<text text-anchor="middle" x="350" y="-224.72" font-family="Times,serif" font-size="9.00">h_scaling 1.000</text>
</g>
<!-- ready&#45;&gt;key 3022
bias 0.461
h_scaling 1.000 -->
<g id="edge14" class="edge">
<title>ready&#45;&gt;key 3022
bias 0.461
h_scaling 1.000</title>
<path fill="none" stroke="blue" stroke-width="0.77" d="M399.64,-1039.66C435.14,-1024.36 504,-987.43 504,-931.04 504,-931.04 504,-931.04 504,-409.2 504,-352.03 455.97,-305.29 413.55,-275.17"/>
<polygon fill="blue" stroke="blue" stroke-width="0.77" points="415.38,-272.17 405.16,-269.37 411.4,-277.93 415.38,-272.17"/>
<text text-anchor="middle" x="519.5" y="-667.92" font-family="Times,serif" font-size="9.00">&#45;0.223</text>
</g>
<!-- key 7838
bias 0.440
h_scaling 1.000 -->
<g id="node8" class="node">
<title>key 7838
bias 0.440
h_scaling 1.000</title>
<ellipse fill="white" stroke="black" cx="196" cy="-583.48" rx="63.78" ry="63.78"/>
<text text-anchor="middle" x="196" y="-591.28" font-family="Times,serif" font-size="9.00">key 7838</text>
<text text-anchor="middle" x="196" y="-581.28" font-family="Times,serif" font-size="9.00">bias 0.440</text>
<text text-anchor="middle" x="196" y="-571.28" font-family="Times,serif" font-size="9.00">h_scaling 1.000</text>
</g>
<!-- ready&#45;&gt;key 7838
bias 0.440
h_scaling 1.000 -->
<g id="edge6" class="edge">
<title>ready&#45;&gt;key 7838
bias 0.440
h_scaling 1.000</title>
<path fill="none" stroke="blue" stroke-width="1.24" d="M378.29,-1039.39C374.12,-992.08 351.84,-755.97 317,-693.12 302.49,-666.95 279.26,-643.83 257.01,-625.71"/>
<polygon fill="blue" stroke="blue" stroke-width="1.24" points="258.89,-622.74 248.88,-619.27 254.54,-628.22 258.89,-622.74"/>
<text text-anchor="middle" x="370.5" y="-841.2" font-family="Times,serif" font-size="9.00">&#45;0.381</text>
</g>
<!-- go -->
<g id="node2" class="node">
<title>go</title>
<polygon fill="green" stroke="black" points="73,-1057.68 45,-1057.68 45,-1039.68 73,-1039.68 73,-1057.68"/>
<text text-anchor="middle" x="59" y="-1046.48" font-family="Times,serif" font-size="9.00">go</text>
</g>
<!-- go&#45;&gt;key 36293
bias &#45;0.321
h_scaling 1.000 -->
<g id="edge19" class="edge">
<title>go&#45;&gt;key 36293
bias &#45;0.321
h_scaling 1.000</title>
<path fill="none" stroke="blue" stroke-width="1.32" d="M73.09,-1039.66C98.87,-1024.99 155.1,-992.99 199.9,-967.51"/>
<polygon fill="blue" stroke="blue" stroke-width="1.32" points="201.73,-970.49 208.69,-962.5 198.27,-964.41 201.73,-970.49"/>
<text text-anchor="middle" x="135.5" y="-1014.48" font-family="Times,serif" font-size="9.00">&#45;0.407</text>
</g>
<!-- go&#45;&gt;key 3021
bias 0.443
h_scaling 1.000 -->
<g id="edge15" class="edge">
<title>go&#45;&gt;key 3021
bias 0.443
h_scaling 1.000</title>
<path fill="none" stroke="blue" stroke-width="3.03" d="M51.53,-1039.62C35.65,-1021.63 0,-976.2 0,-931.04 0,-931.04 0,-931.04 0,-582.48 0,-495.5 104.27,-449.43 178.13,-427.7"/>
<polygon fill="blue" stroke="blue" stroke-width="3.03" points="179.22,-431.03 187.88,-424.92 177.3,-424.3 179.22,-431.03"/>
<text text-anchor="middle" x="15.5" y="-754.56" font-family="Times,serif" font-size="9.00">&#45;0.977</text>
</g>
<!-- go&#45;&gt;key 7838
bias 0.440
h_scaling 1.000 -->
<g id="edge7" class="edge">
<title>go&#45;&gt;key 7838
bias 0.440
h_scaling 1.000</title>
<path fill="none" stroke="red" stroke-width="3.09" d="M57.33,-1039.67C49.42,-999.78 18.52,-819.43 78,-693.12 90.57,-666.42 112.96,-643.2 134.88,-625.17"/>
<polygon fill="red" stroke="red" stroke-width="3.09" points="137.28,-627.73 142.92,-618.76 132.92,-622.26 137.28,-627.73"/>
<text text-anchor="middle" x="58" y="-841.2" font-family="Times,serif" font-size="9.00">0.997</text>
</g>
<!-- output
bias &#45;0.094
h_scaling 1.000 -->
<g id="node3" class="node">
<title>output
bias &#45;0.094
h_scaling 1.000</title>
<ellipse fill="lightblue" stroke="black" cx="240" cy="-63.64" rx="63.78" ry="63.78"/>
<text text-anchor="middle" x="240" y="-71.44" font-family="Times,serif" font-size="9.00">output</text>
<text text-anchor="middle" x="240" y="-61.44" font-family="Times,serif" font-size="9.00">bias &#45;0.094</text>
<text text-anchor="middle" x="240" y="-51.44" font-family="Times,serif" font-size="9.00">h_scaling 1.000</text>
</g>
<!-- output
bias &#45;0.094
h_scaling 1.000&#45;&gt;key 36293
bias &#45;0.321
h_scaling 1.000 -->
<g id="edge16" class="edge">
<title>output
bias &#45;0.094
h_scaling 1.000&#45;&gt;key 36293
bias &#45;0.321
h_scaling 1.000</title>
<path fill="none" stroke="blue" stroke-width="0.8" d="M300.73,-83.21C365.23,-107.14 458,-155.54 458,-235.92 458,-757.76 458,-757.76 458,-757.76 458,-826.7 388.29,-874.54 332.44,-901.79"/>
<polygon fill="blue" stroke="blue" stroke-width="0.8" points="330.79,-898.7 323.26,-906.16 333.8,-905.03 330.79,-898.7"/>
<text text-anchor="middle" x="473.5" y="-494.64" font-family="Times,serif" font-size="9.00">&#45;0.233</text>
</g>
<!-- output
bias &#45;0.094
h_scaling 1.000&#45;&gt;key 7838
bias 0.440
h_scaling 1.000 -->
<g id="edge20" class="edge">
<title>output
bias &#45;0.094
h_scaling 1.000&#45;&gt;key 7838
bias 0.440
h_scaling 1.000</title>
<path fill="none" stroke="red" stroke-width="0.49" d="M222.45,-125.03C206.96,-181.68 185.56,-269.04 177,-346.56 170.79,-402.79 172.11,-417.48 177,-473.84 178.04,-485.83 179.72,-498.49 181.65,-510.77"/>
<polygon fill="red" stroke="red" stroke-width="0.49" points="178.25,-511.66 183.33,-520.96 185.16,-510.52 178.25,-511.66"/>
<text text-anchor="middle" x="195" y="-321.36" font-family="Times,serif" font-size="9.00">0.130</text>
</g>
<!-- key 53346
bias &#45;0.681
h_scaling 1.000 -->
<g id="node4" class="node">
<title>key 53346
bias &#45;0.681
h_scaling 1.000</title>
<ellipse fill="white" stroke="black" cx="151" cy="-756.76" rx="63.78" ry="63.78"/>
<text text-anchor="middle" x="151" y="-764.56" font-family="Times,serif" font-size="9.00">key 53346</text>
<text text-anchor="middle" x="151" y="-754.56" font-family="Times,serif" font-size="9.00">bias &#45;0.681</text>
<text text-anchor="middle" x="151" y="-744.56" font-family="Times,serif" font-size="9.00">h_scaling 1.000</text>
</g>
<!-- key 53346
bias &#45;0.681
h_scaling 1.000&#45;&gt;key 53346
bias &#45;0.681
h_scaling 1.000 -->
<g id="edge13" class="edge">
<title>key 53346
bias &#45;0.681
h_scaling 1.000&#45;&gt;key 53346
bias &#45;0.681
h_scaling 1.000</title>
<path fill="none" stroke="red" stroke-width="2.63" d="M212.94,-772.05C224.5,-770.17 232.64,-765.07 232.64,-756.76 232.64,-751.04 228.79,-746.84 222.63,-744.17"/>
<polygon fill="red" stroke="red" stroke-width="2.63" points="223.52,-740.78 212.94,-741.46 221.63,-747.52 223.52,-740.78"/>
<text text-anchor="middle" x="246.64" y="-754.56" font-family="Times,serif" font-size="9.00">0.844</text>
</g>
<!-- key 53346
bias &#45;0.681
h_scaling 1.000&#45;&gt;key 7838
bias 0.440
h_scaling 1.000 -->
<g id="edge12" class="edge">
<title>key 53346
bias &#45;0.681
h_scaling 1.000&#45;&gt;key 7838
bias 0.440
h_scaling 1.000</title>
<path fill="none" stroke="blue" stroke-width="1.95" d="M166.99,-694.89C170.37,-682.02 173.97,-668.33 177.44,-655.13"/>
<polygon fill="blue" stroke="blue" stroke-width="1.95" points="180.9,-655.71 180.06,-645.15 174.13,-653.93 180.9,-655.71"/>
<text text-anchor="middle" x="189.5" y="-667.92" font-family="Times,serif" font-size="9.00">&#45;0.615</text>
</g>
<!-- key 36293
bias &#45;0.321
h_scaling 1.000&#45;&gt;key 53346
bias &#45;0.681
h_scaling 1.000 -->
<g id="edge11" class="edge">
<title>key 36293
bias &#45;0.321
h_scaling 1.000&#45;&gt;key 53346
bias &#45;0.681
h_scaling 1.000</title>
<path fill="none" stroke="red" stroke-width="3.1" d="M229.17,-876.25C217.2,-858.09 203.69,-837.62 191.31,-818.85"/>
<polygon fill="red" stroke="red" stroke-width="3.1" points="194.14,-816.79 185.71,-810.37 188.3,-820.64 194.14,-816.79"/>
<text text-anchor="middle" x="222" y="-841.2" font-family="Times,serif" font-size="9.00">1.000</text>
</g>
<!-- key 36293
bias &#45;0.321
h_scaling 1.000&#45;&gt;key 7838
bias 0.440
h_scaling 1.000 -->
<g id="edge10" class="edge">
<title>key 36293
bias &#45;0.321
h_scaling 1.000&#45;&gt;key 7838
bias 0.440
h_scaling 1.000</title>
<path fill="none" stroke="blue" stroke-width="0.52" d="M276.13,-867.46C283.19,-818.98 287.62,-750.28 270,-693.12 264.28,-674.55 254.17,-656.31 243.24,-640.24"/>
<polygon fill="blue" stroke="blue" stroke-width="0.52" points="246.08,-638.2 237.46,-632.04 240.36,-642.23 246.08,-638.2"/>
<text text-anchor="middle" x="297.5" y="-754.56" font-family="Times,serif" font-size="9.00">&#45;0.139</text>
</g>
<!-- key 3021
bias 0.443
h_scaling 1.000&#45;&gt;output
bias &#45;0.094
h_scaling 1.000 -->
<g id="edge3" class="edge">
<title>key 3021
bias 0.443
h_scaling 1.000&#45;&gt;output
bias &#45;0.094
h_scaling 1.000</title>
<path fill="none" stroke="red" stroke-width="3.01" d="M248.18,-346.4C246.47,-287.47 243.91,-199.36 242.11,-137.39"/>
<polygon fill="red" stroke="red" stroke-width="3.01" points="245.61,-137.19 241.82,-127.3 238.61,-137.39 245.61,-137.19"/>
<text text-anchor="middle" x="261" y="-234.72" font-family="Times,serif" font-size="9.00">0.970</text>
</g>
<!-- key 3021
bias 0.443
h_scaling 1.000&#45;&gt;key 3022
bias 0.461
h_scaling 1.000 -->
<g id="edge4" class="edge">
<title>key 3021
bias 0.443
h_scaling 1.000&#45;&gt;key 3022
bias 0.461
h_scaling 1.000</title>
<path fill="none" stroke="blue" stroke-width="3.1" d="M281.92,-354.53C291.8,-337.61 302.77,-318.82 312.96,-301.35"/>
<polygon fill="blue" stroke="blue" stroke-width="3.1" points="316.2,-302.76 318.22,-292.36 310.15,-299.23 316.2,-302.76"/>
<text text-anchor="middle" x="315.5" y="-321.36" font-family="Times,serif" font-size="9.00">&#45;1.000</text>
</g>
<!-- key 3021
bias 0.443
h_scaling 1.000&#45;&gt;key 7838
bias 0.440
h_scaling 1.000 -->
<g id="edge8" class="edge">
<title>key 3021
bias 0.443
h_scaling 1.000&#45;&gt;key 7838
bias 0.440
h_scaling 1.000</title>
<path fill="none" stroke="blue" stroke-width="2.48" d="M236.36,-472.47C233.81,-482.35 230.99,-492.42 228,-501.84 226.65,-506.07 225.19,-510.4 223.66,-514.74"/>
<polygon fill="blue" stroke="blue" stroke-width="2.48" points="220.33,-513.65 220.22,-524.25 226.92,-516.04 220.33,-513.65"/>
<text text-anchor="middle" x="246.5" y="-494.64" font-family="Times,serif" font-size="9.00">&#45;0.792</text>
</g>
<!-- key 3022
bias 0.461
h_scaling 1.000&#45;&gt;output
bias &#45;0.094
h_scaling 1.000 -->
<g id="edge1" class="edge">
<title>key 3022
bias 0.461
h_scaling 1.000&#45;&gt;output
bias &#45;0.094
h_scaling 1.000</title>
<path fill="none" stroke="blue" stroke-width="3.1" d="M315.8,-182.66C304.31,-164.78 291.4,-144.68 279.54,-126.21"/>
<polygon fill="blue" stroke="blue" stroke-width="3.1" points="282.34,-124.09 273.99,-117.57 276.45,-127.87 282.34,-124.09"/>
<text text-anchor="middle" x="310.5" y="-148.08" font-family="Times,serif" font-size="9.00">&#45;1.000</text>
</g>
<!-- key 7838
bias 0.440
h_scaling 1.000&#45;&gt;output
bias &#45;0.094
h_scaling 1.000 -->
<g id="edge18" class="edge">
<title>key 7838
bias 0.440
h_scaling 1.000&#45;&gt;output
bias &#45;0.094
h_scaling 1.000</title>
<path fill="none" stroke="blue" stroke-width="3.1" d="M159.08,-531.03C153.43,-521.63 148.12,-511.67 144,-501.84 111.79,-425.04 95.8,-401.33 105,-318.56 113.72,-240.1 102.96,-212.71 144,-145.28 153.03,-130.44 165.77,-117.01 179.02,-105.56"/>
<polygon fill="blue" stroke="blue" stroke-width="3.1" points="181.4,-108.13 186.86,-99.05 176.93,-102.74 181.4,-108.13"/>
<text text-anchor="middle" x="120.5" y="-321.36" font-family="Times,serif" font-size="9.00">&#45;1.000</text>
</g>
<!-- key 7838
bias 0.440
h_scaling 1.000&#45;&gt;key 3021
bias 0.443
h_scaling 1.000 -->
<g id="edge2" class="edge">
<title>key 7838
bias 0.440
h_scaling 1.000&#45;&gt;key 3021
bias 0.443
h_scaling 1.000</title>
<path fill="none" stroke="blue" stroke-width="3.03" d="M192.05,-519.84C192.78,-510.32 194.29,-500.72 197,-491.84 199.27,-484.4 202.46,-477.01 206.16,-469.9"/>
<polygon fill="blue" stroke="blue" stroke-width="3.03" points="209.28,-471.49 211.09,-461.05 203.16,-468.08 209.28,-471.49"/>
<text text-anchor="middle" x="212.5" y="-494.64" font-family="Times,serif" font-size="9.00">&#45;0.976</text>
</g>
<!-- key 7838
bias 0.440
h_scaling 1.000&#45;&gt;key 3022
bias 0.461
h_scaling 1.000 -->
<g id="edge17" class="edge">
<title>key 7838
bias 0.440
h_scaling 1.000&#45;&gt;key 3022
bias 0.461
h_scaling 1.000</title>
<path fill="none" stroke="red" stroke-width="2.87" d="M250.31,-550.03C276.76,-531.23 306.39,-505.09 323,-473.84 349.6,-423.79 355.42,-359.47 355.1,-310.63"/>
<polygon fill="red" stroke="red" stroke-width="2.87" points="358.6,-310.4 354.95,-300.45 351.6,-310.5 358.6,-310.4"/>
<text text-anchor="middle" x="368" y="-408" font-family="Times,serif" font-size="9.00">0.925</text>
</g>
</g>
</svg>
