<?xml version="1.0" encoding="UTF-8" standalone="no"?>
<!DOCTYPE svg PUBLIC "-//W3C//DTD SVG 1.1//EN"
 "http://www.w3.org/Graphics/SVG/1.1/DTD/svg11.dtd">
<!-- Generated by graphviz version 2.43.0 (0)
 -->
<!-- Title: %3 Pages: 1 -->
<svg width="525pt" height="892pt"
 viewBox="0.00 0.00 524.64 892.40" xmlns="http://www.w3.org/2000/svg" xmlns:xlink="http://www.w3.org/1999/xlink">
<g id="graph0" class="graph" transform="scale(1 1) rotate(0) translate(4 888.4)">
<title>%3</title>
<polygon fill="white" stroke="transparent" points="-4,4 -4,-888.4 520.64,-888.4 520.64,4 -4,4"/>
<!-- ready -->
<g id="node1" class="node">
<title>ready</title>
<polygon fill="yellow" stroke="black" points="188.14,-884.4 145.14,-884.4 145.14,-866.4 188.14,-866.4 188.14,-884.4"/>
<text text-anchor="middle" x="166.64" y="-873.2" font-family="Times,serif" font-size="9.00">ready</text>
</g>
<!-- key 4962
bias &#45;0.541
h_scaling 1.000 -->
<g id="node4" class="node">
<title>key 4962
bias &#45;0.541
h_scaling 1.000</title>
<ellipse fill="white" stroke="black" cx="206.64" cy="-756.76" rx="63.78" ry="63.78"/>
<text text-anchor="middle" x="206.64" y="-764.56" font-family="Times,serif" font-size="9.00">key 4962</text>
<text text-anchor="middle" x="206.64" y="-754.56" font-family="Times,serif" font-size="9.00">bias &#45;0.541</text>
<text text-anchor="middle" x="206.64" y="-744.56" font-family="Times,serif" font-size="9.00">h_scaling 1.000</text>
</g>
<!-- ready&#45;&gt;key 4962
bias &#45;0.541
h_scaling 1.000 -->
<g id="edge9" class="edge">
<title>ready&#45;&gt;key 4962
bias &#45;0.541
h_scaling 1.000</title>
<path fill="none" stroke="blue" stroke-width="0.1" d="M169.39,-866.38C172.38,-857.64 177.49,-842.77 182.97,-826.78"/>
<polygon fill="blue" stroke="blue" stroke-width="0.1" points="186.29,-827.87 186.23,-817.28 179.67,-825.6 186.29,-827.87"/>
</g>
<!-- key 4491
bias &#45;0.463
h_scaling 1.000 -->
<g id="node6" class="node">
<title>key 4491
bias &#45;0.463
h_scaling 1.000</title>
<ellipse fill="white" stroke="black" cx="376.64" cy="-410.2" rx="63.78" ry="63.78"/>
<text text-anchor="middle" x="376.64" y="-418" font-family="Times,serif" font-size="9.00">key 4491</text>
<text text-anchor="middle" x="376.64" y="-408" font-family="Times,serif" font-size="9.00">bias &#45;0.463</text>
<text text-anchor="middle" x="376.64" y="-398" font-family="Times,serif" font-size="9.00">h_scaling 1.000</text>
</g>
<!-- ready&#45;&gt;key 4491
bias &#45;0.463
h_scaling 1.000 -->
<g id="edge7" class="edge">
<title>ready&#45;&gt;key 4491
bias &#45;0.463
h_scaling 1.000</title>
<path fill="none" stroke="blue" stroke-width="0.1" d="M188.22,-872.25C221.4,-867.92 285.33,-855.34 325.64,-820.4 390.91,-763.82 393.53,-731.12 413.64,-647.12 426.81,-592.1 422.88,-575.65 413.64,-519.84 411.41,-506.39 407.73,-492.38 403.54,-479.05"/>
<polygon fill="blue" stroke="blue" stroke-width="0.1" points="406.85,-477.91 400.41,-469.5 400.2,-480.09 406.85,-477.91"/>
</g>
<!-- key 143216
bias &#45;0.407
h_scaling 1.000 -->
<g id="node8" class="node">
<title>key 143216
bias &#45;0.407
h_scaling 1.000</title>
<ellipse fill="white" stroke="black" cx="145.64" cy="-410.2" rx="63.78" ry="63.78"/>
<text text-anchor="middle" x="145.64" y="-418" font-family="Times,serif" font-size="9.00">key 143216</text>
<text text-anchor="middle" x="145.64" y="-408" font-family="Times,serif" font-size="9.00">bias &#45;0.407</text>
<text text-anchor="middle" x="145.64" y="-398" font-family="Times,serif" font-size="9.00">h_scaling 1.000</text>
</g>
<!-- ready&#45;&gt;key 143216
bias &#45;0.407
h_scaling 1.000 -->
<g id="edge13" class="edge">
<title>ready&#45;&gt;key 143216
bias &#45;0.407
h_scaling 1.000</title>
<path fill="none" stroke="blue" stroke-width="0.1" d="M160.21,-866.12C152.65,-855.94 140.27,-837.86 133.64,-820.4 85.98,-694.85 81.84,-652.51 102.64,-519.84 104.87,-505.59 109.18,-490.88 114.24,-477.06"/>
<polygon fill="blue" stroke="blue" stroke-width="0.1" points="117.54,-478.24 117.85,-467.65 111,-475.73 117.54,-478.24"/>
</g>
<!-- key 211316
bias &#45;0.714
h_scaling 1.000 -->
<g id="node9" class="node">
<title>key 211316
bias &#45;0.714
h_scaling 1.000</title>
<ellipse fill="white" stroke="black" cx="63.64" cy="-63.64" rx="63.78" ry="63.78"/>
<text text-anchor="middle" x="63.64" y="-71.44" font-family="Times,serif" font-size="9.00">key 211316</text>
<text text-anchor="middle" x="63.64" y="-61.44" font-family="Times,serif" font-size="9.00">bias &#45;0.714</text>
<text text-anchor="middle" x="63.64" y="-51.44" font-family="Times,serif" font-size="9.00">h_scaling 1.000</text>
</g>
<!-- ready&#45;&gt;key 211316
bias &#45;0.714
h_scaling 1.000 -->
<g id="edge17" class="edge">
<title>ready&#45;&gt;key 211316
bias &#45;0.714
h_scaling 1.000</title>
<path fill="none" stroke="red" stroke-width="2.79" d="M145.04,-868.87C102.87,-856.64 13.64,-823.06 13.64,-757.76 13.64,-757.76 13.64,-757.76 13.64,-235.92 13.64,-200.55 23.59,-162.65 34.61,-131.52"/>
<polygon fill="red" stroke="red" stroke-width="2.79" points="37.91,-132.68 38.05,-122.09 31.34,-130.28 37.91,-132.68"/>
<text text-anchor="middle" x="27.64" y="-494.64" font-family="Times,serif" font-size="9.00">0.090</text>
</g>
<!-- go -->
<g id="node2" class="node">
<title>go</title>
<polygon fill="green" stroke="black" points="500.64,-884.4 472.64,-884.4 472.64,-866.4 500.64,-866.4 500.64,-884.4"/>
<text text-anchor="middle" x="486.64" y="-873.2" font-family="Times,serif" font-size="9.00">go</text>
</g>
<!-- go&#45;&gt;key 4962
bias &#45;0.541
h_scaling 1.000 -->
<g id="edge4" class="edge">
<title>go&#45;&gt;key 4962
bias &#45;0.541
h_scaling 1.000</title>
<path fill="none" stroke="red" stroke-width="0.6" d="M472.37,-868.45C436.52,-853.52 340.82,-813.65 274.63,-786.08"/>
<polygon fill="red" stroke="red" stroke-width="0.6" points="275.67,-782.72 265.09,-782.11 272.98,-789.18 275.67,-782.72"/>
<text text-anchor="middle" x="432.64" y="-841.2" font-family="Times,serif" font-size="9.00">0.017</text>
</g>
<!-- go&#45;&gt;key 4491
bias &#45;0.463
h_scaling 1.000 -->
<g id="edge5" class="edge">
<title>go&#45;&gt;key 4491
bias &#45;0.463
h_scaling 1.000</title>
<path fill="none" stroke="red" stroke-width="0.44" d="M487.54,-866.13C491.77,-824.14 507,-630.89 446.64,-491.84 442.19,-481.58 435.94,-471.68 429,-462.53"/>
<polygon fill="red" stroke="red" stroke-width="0.44" points="431.73,-460.33 422.75,-454.7 426.26,-464.7 431.73,-460.33"/>
<text text-anchor="middle" x="502.64" y="-667.92" font-family="Times,serif" font-size="9.00">0.011</text>
</g>
<!-- output
bias 0.605
h_scaling 1.000 -->
<g id="node3" class="node">
<title>output
bias 0.605
h_scaling 1.000</title>
<ellipse fill="lightblue" stroke="black" cx="276.64" cy="-583.48" rx="63.78" ry="63.78"/>
<text text-anchor="middle" x="276.64" y="-591.28" font-family="Times,serif" font-size="9.00">output</text>
<text text-anchor="middle" x="276.64" y="-581.28" font-family="Times,serif" font-size="9.00">bias 0.605</text>
<text text-anchor="middle" x="276.64" y="-571.28" font-family="Times,serif" font-size="9.00">h_scaling 1.000</text>
</g>
<!-- output
bias 0.605
h_scaling 1.000&#45;&gt;key 4491
bias &#45;0.463
h_scaling 1.000 -->
<g id="edge6" class="edge">
<title>output
bias 0.605
h_scaling 1.000&#45;&gt;key 4491
bias &#45;0.463
h_scaling 1.000</title>
<path fill="none" stroke="blue" stroke-width="0.1" d="M303.53,-525.44C313.17,-508.21 324.22,-489.22 334.79,-471.76"/>
<polygon fill="blue" stroke="blue" stroke-width="0.1" points="338.05,-473.15 340.27,-462.79 332.07,-469.51 338.05,-473.15"/>
</g>
<!-- output
bias 0.605
h_scaling 1.000&#45;&gt;key 143216
bias &#45;0.407
h_scaling 1.000 -->
<g id="edge11" class="edge">
<title>output
bias 0.605
h_scaling 1.000&#45;&gt;key 143216
bias &#45;0.407
h_scaling 1.000</title>
<path fill="none" stroke="red" stroke-width="0.62" d="M238.4,-532.48C223.26,-512.69 205.77,-489.81 190.07,-469.29"/>
<polygon fill="red" stroke="red" stroke-width="0.62" points="192.79,-467.08 183.93,-461.26 187.23,-471.33 192.79,-467.08"/>
<text text-anchor="middle" x="224.64" y="-494.64" font-family="Times,serif" font-size="9.00">0.017</text>
</g>
<!-- key 4962
bias &#45;0.541
h_scaling 1.000&#45;&gt;output
bias 0.605
h_scaling 1.000 -->
<g id="edge3" class="edge">
<title>key 4962
bias &#45;0.541
h_scaling 1.000&#45;&gt;output
bias 0.605
h_scaling 1.000</title>
<path fill="none" stroke="blue" stroke-width="0.1" d="M230.53,-697.29C236.45,-682.82 242.83,-667.2 248.91,-652.33"/>
<polygon fill="blue" stroke="blue" stroke-width="0.1" points="252.31,-653.26 252.85,-642.68 245.83,-650.61 252.31,-653.26"/>
</g>
<!-- key 4962
bias &#45;0.541
h_scaling 1.000&#45;&gt;key 4962
bias &#45;0.541
h_scaling 1.000 -->
<g id="edge8" class="edge">
<title>key 4962
bias &#45;0.541
h_scaling 1.000&#45;&gt;key 4962
bias &#45;0.541
h_scaling 1.000</title>
<path fill="none" stroke="red" stroke-width="1.68" d="M268.58,-772.05C280.14,-770.17 288.28,-765.07 288.28,-756.76 288.28,-751.04 284.43,-746.84 278.27,-744.17"/>
<polygon fill="red" stroke="red" stroke-width="1.68" points="279.16,-740.78 268.58,-741.46 277.27,-747.52 279.16,-740.78"/>
<text text-anchor="middle" x="302.28" y="-754.56" font-family="Times,serif" font-size="9.00">0.053</text>
</g>
<!-- key 4962
bias &#45;0.541
h_scaling 1.000&#45;&gt;key 4491
bias &#45;0.463
h_scaling 1.000 -->
<g id="edge2" class="edge">
<title>key 4962
bias &#45;0.541
h_scaling 1.000&#45;&gt;key 4491
bias &#45;0.463
h_scaling 1.000</title>
<path fill="none" stroke="red" stroke-width="1.36" d="M263.33,-727.45C294.15,-708.96 329.9,-681.8 349.64,-647.12 377.77,-597.7 383.43,-533.04 382.66,-483.91"/>
<polygon fill="red" stroke="red" stroke-width="1.36" points="386.15,-483.59 382.4,-473.68 379.15,-483.76 386.15,-483.59"/>
<text text-anchor="middle" x="395.64" y="-581.28" font-family="Times,serif" font-size="9.00">0.042</text>
</g>
<!-- key 4962
bias &#45;0.541
h_scaling 1.000&#45;&gt;key 143216
bias &#45;0.407
h_scaling 1.000 -->
<g id="edge14" class="edge">
<title>key 4962
bias &#45;0.541
h_scaling 1.000&#45;&gt;key 143216
bias &#45;0.407
h_scaling 1.000</title>
<path fill="none" stroke="red" stroke-width="1.1" d="M187.78,-695.82C183.32,-680.09 178.91,-663.06 175.64,-647.12 164.51,-592.86 156.81,-530.68 152,-483.78"/>
<polygon fill="red" stroke="red" stroke-width="1.1" points="155.47,-483.31 150.98,-473.71 148.5,-484.01 155.47,-483.31"/>
<text text-anchor="middle" x="189.64" y="-581.28" font-family="Times,serif" font-size="9.00">0.033</text>
</g>
<!-- key 170373
bias &#45;0.423
h_scaling 1.000 -->
<g id="node5" class="node">
<title>key 170373
bias &#45;0.423
h_scaling 1.000</title>
<ellipse fill="white" stroke="black" cx="143.64" cy="-236.92" rx="63.78" ry="63.78"/>
<text text-anchor="middle" x="143.64" y="-244.72" font-family="Times,serif" font-size="9.00">key 170373</text>
<text text-anchor="middle" x="143.64" y="-234.72" font-family="Times,serif" font-size="9.00">bias &#45;0.423</text>
<text text-anchor="middle" x="143.64" y="-224.72" font-family="Times,serif" font-size="9.00">h_scaling 1.000</text>
</g>
<!-- key 170373
bias &#45;0.423
h_scaling 1.000&#45;&gt;key 143216
bias &#45;0.407
h_scaling 1.000 -->
<g id="edge16" class="edge">
<title>key 170373
bias &#45;0.423
h_scaling 1.000&#45;&gt;key 143216
bias &#45;0.407
h_scaling 1.000</title>
<path fill="none" stroke="red" stroke-width="1.27" d="M114.77,-293.84C111.69,-305.18 110.39,-317.14 112.64,-328.56 113.52,-333.02 114.64,-337.55 115.95,-342.06"/>
<polygon fill="red" stroke="red" stroke-width="1.27" points="112.71,-343.42 119.06,-351.89 119.38,-341.3 112.71,-343.42"/>
<text text-anchor="middle" x="126.64" y="-321.36" font-family="Times,serif" font-size="9.00">0.039</text>
</g>
<!-- key 170373
bias &#45;0.423
h_scaling 1.000&#45;&gt;key 211316
bias &#45;0.714
h_scaling 1.000 -->
<g id="edge19" class="edge">
<title>key 170373
bias &#45;0.423
h_scaling 1.000&#45;&gt;key 211316
bias &#45;0.714
h_scaling 1.000</title>
<path fill="none" stroke="blue" stroke-width="0.1" d="M117,-178.89C109.82,-163.51 101.99,-146.75 94.59,-130.91"/>
<polygon fill="blue" stroke="blue" stroke-width="0.1" points="97.7,-129.3 90.3,-121.72 91.36,-132.26 97.7,-129.3"/>
</g>
<!-- key 4491
bias &#45;0.463
h_scaling 1.000&#45;&gt;output
bias 0.605
h_scaling 1.000 -->
<g id="edge1" class="edge">
<title>key 4491
bias &#45;0.463
h_scaling 1.000&#45;&gt;output
bias 0.605
h_scaling 1.000</title>
<path fill="none" stroke="blue" stroke-width="0.1" d="M349.74,-468.24C340.08,-485.53 328.98,-504.59 318.38,-522.09"/>
<polygon fill="blue" stroke="blue" stroke-width="0.1" points="315.11,-520.73 312.89,-531.09 321.08,-524.37 315.11,-520.73"/>
</g>
<!-- key 4491
bias &#45;0.463
h_scaling 1.000&#45;&gt;key 4491
bias &#45;0.463
h_scaling 1.000 -->
<g id="edge10" class="edge">
<title>key 4491
bias &#45;0.463
h_scaling 1.000&#45;&gt;key 4491
bias &#45;0.463
h_scaling 1.000</title>
<path fill="none" stroke="red" stroke-width="1.51" d="M438.58,-425.5C450.14,-423.61 458.28,-418.51 458.28,-410.2 458.28,-404.48 454.43,-400.29 448.27,-397.61"/>
<polygon fill="red" stroke="red" stroke-width="1.51" points="449.16,-394.22 438.58,-394.9 447.27,-400.96 449.16,-394.22"/>
<text text-anchor="middle" x="472.28" y="-408" font-family="Times,serif" font-size="9.00">0.047</text>
</g>
<!-- key 391820
bias &#45;0.241
h_scaling 1.000 -->
<g id="node7" class="node">
<title>key 391820
bias &#45;0.241
h_scaling 1.000</title>
<ellipse fill="white" stroke="black" cx="288.64" cy="-236.92" rx="63.78" ry="63.78"/>
<text text-anchor="middle" x="288.64" y="-244.72" font-family="Times,serif" font-size="9.00">key 391820</text>
<text text-anchor="middle" x="288.64" y="-234.72" font-family="Times,serif" font-size="9.00">bias &#45;0.241</text>
<text text-anchor="middle" x="288.64" y="-224.72" font-family="Times,serif" font-size="9.00">h_scaling 1.000</text>
</g>
<!-- key 391820
bias &#45;0.241
h_scaling 1.000&#45;&gt;key 211316
bias &#45;0.714
h_scaling 1.000 -->
<g id="edge21" class="edge">
<title>key 391820
bias &#45;0.241
h_scaling 1.000&#45;&gt;key 211316
bias &#45;0.714
h_scaling 1.000</title>
<path fill="none" stroke="red" stroke-width="0.3" d="M241.56,-193.8C233.37,-186.81 224.84,-179.73 216.64,-173.28 187.05,-149.99 152.99,-125.59 124.52,-105.82"/>
<polygon fill="red" stroke="red" stroke-width="0.3" points="126.48,-102.92 116.27,-100.11 122.5,-108.67 126.48,-102.92"/>
<text text-anchor="middle" x="205.64" y="-148.08" font-family="Times,serif" font-size="9.00">0.007</text>
</g>
<!-- key 143216
bias &#45;0.407
h_scaling 1.000&#45;&gt;key 4962
bias &#45;0.541
h_scaling 1.000 -->
<g id="edge12" class="edge">
<title>key 143216
bias &#45;0.407
h_scaling 1.000&#45;&gt;key 4962
bias &#45;0.541
h_scaling 1.000</title>
<path fill="none" stroke="red" stroke-width="1.1" d="M123.75,-470.07C109.04,-518.84 95.79,-589.27 116.64,-647.12 124.38,-668.6 138.42,-688.84 153.14,-705.9"/>
<polygon fill="red" stroke="red" stroke-width="1.1" points="150.66,-708.38 159.93,-713.5 155.88,-703.71 150.66,-708.38"/>
<text text-anchor="middle" x="130.64" y="-581.28" font-family="Times,serif" font-size="9.00">0.033</text>
</g>
<!-- key 143216
bias &#45;0.407
h_scaling 1.000&#45;&gt;key 170373
bias &#45;0.423
h_scaling 1.000 -->
<g id="edge15" class="edge">
<title>key 143216
bias &#45;0.407
h_scaling 1.000&#45;&gt;key 170373
bias &#45;0.423
h_scaling 1.000</title>
<path fill="none" stroke="red" stroke-width="1.27" d="M144.91,-346.39C144.77,-334.87 144.63,-322.76 144.49,-310.97"/>
<polygon fill="red" stroke="red" stroke-width="1.27" points="147.99,-310.68 144.37,-300.72 140.99,-310.76 147.99,-310.68"/>
<text text-anchor="middle" x="158.64" y="-321.36" font-family="Times,serif" font-size="9.00">0.039</text>
</g>
<!-- key 143216
bias &#45;0.407
h_scaling 1.000&#45;&gt;key 391820
bias &#45;0.241
h_scaling 1.000 -->
<g id="edge20" class="edge">
<title>key 143216
bias &#45;0.407
h_scaling 1.000&#45;&gt;key 391820
bias &#45;0.241
h_scaling 1.000</title>
<path fill="none" stroke="red" stroke-width="1.35" d="M186.24,-360.57C203.52,-339.87 223.78,-315.6 241.7,-294.14"/>
<polygon fill="red" stroke="red" stroke-width="1.35" points="244.47,-296.29 248.19,-286.37 239.09,-291.8 244.47,-296.29"/>
<text text-anchor="middle" x="230.64" y="-321.36" font-family="Times,serif" font-size="9.00">0.042</text>
</g>
<!-- key 211316
bias &#45;0.714
h_scaling 1.000&#45;&gt;key 143216
bias &#45;0.407
h_scaling 1.000 -->
<g id="edge18" class="edge">
<title>key 211316
bias &#45;0.714
h_scaling 1.000&#45;&gt;key 143216
bias &#45;0.407
h_scaling 1.000</title>
<path fill="none" stroke="blue" stroke-width="0.1" d="M56.04,-126.89C52.34,-175.44 52.06,-243.91 70.64,-300.56 76.75,-319.2 87.16,-337.51 98.31,-353.64"/>
<polygon fill="blue" stroke="blue" stroke-width="0.1" points="95.52,-355.77 104.19,-361.87 101.22,-351.7 95.52,-355.77"/>
</g>
</g>
</svg>
