<?xml version="1.0" encoding="UTF-8" standalone="no"?>
<!DOCTYPE svg PUBLIC "-//W3C//DTD SVG 1.1//EN"
 "http://www.w3.org/Graphics/SVG/1.1/DTD/svg11.dtd">
<!-- Generated by graphviz version 2.43.0 (0)
 -->
<!-- Title: %3 Pages: 1 -->
<svg width="511pt" height="892pt"
 viewBox="0.00 0.00 511.00 892.40" xmlns="http://www.w3.org/2000/svg" xmlns:xlink="http://www.w3.org/1999/xlink">
<g id="graph0" class="graph" transform="scale(1 1) rotate(0) translate(4 888.4)">
<title>%3</title>
<polygon fill="white" stroke="transparent" points="-4,4 -4,-888.4 507,-888.4 507,4 -4,4"/>
<!-- ready -->
<g id="node1" class="node">
<title>ready</title>
<polygon fill="yellow" stroke="black" points="78.5,-884.4 35.5,-884.4 35.5,-866.4 78.5,-866.4 78.5,-884.4"/>
<text text-anchor="middle" x="57" y="-873.2" font-family="Times,serif" font-size="9.00">ready</text>
</g>
<!-- key 4962
bias &#45;0.541
h_scaling 1.000 -->
<g id="node4" class="node">
<title>key 4962
bias &#45;0.541
h_scaling 1.000</title>
<ellipse fill="white" stroke="black" cx="222" cy="-756.76" rx="63.78" ry="63.78"/>
<text text-anchor="middle" x="222" y="-764.56" font-family="Times,serif" font-size="9.00">key 4962</text>
<text text-anchor="middle" x="222" y="-754.56" font-family="Times,serif" font-size="9.00">bias &#45;0.541</text>
<text text-anchor="middle" x="222" y="-744.56" font-family="Times,serif" font-size="9.00">h_scaling 1.000</text>
</g>
<!-- ready&#45;&gt;key 4962
bias &#45;0.541
h_scaling 1.000 -->
<g id="edge9" class="edge">
<title>ready&#45;&gt;key 4962
bias &#45;0.541
h_scaling 1.000</title>
<path fill="none" stroke="blue" stroke-width="1.22" d="M68.34,-866.38C87.55,-852.8 127.77,-824.37 162.24,-800"/>
<polygon fill="blue" stroke="blue" stroke-width="1.22" points="164.26,-802.86 170.41,-794.23 160.22,-797.14 164.26,-802.86"/>
<text text-anchor="middle" x="121.5" y="-841.2" font-family="Times,serif" font-size="9.00">&#45;0.372</text>
</g>
<!-- key 4491
bias &#45;0.463
h_scaling 1.000 -->
<g id="node6" class="node">
<title>key 4491
bias &#45;0.463
h_scaling 1.000</title>
<ellipse fill="white" stroke="black" cx="363" cy="-410.2" rx="63.78" ry="63.78"/>
<text text-anchor="middle" x="363" y="-418" font-family="Times,serif" font-size="9.00">key 4491</text>
<text text-anchor="middle" x="363" y="-408" font-family="Times,serif" font-size="9.00">bias &#45;0.463</text>
<text text-anchor="middle" x="363" y="-398" font-family="Times,serif" font-size="9.00">h_scaling 1.000</text>
</g>
<!-- ready&#45;&gt;key 4491
bias &#45;0.463
h_scaling 1.000 -->
<g id="edge7" class="edge">
<title>ready&#45;&gt;key 4491
bias &#45;0.463
h_scaling 1.000</title>
<path fill="none" stroke="blue" stroke-width="0.8" d="M78.64,-873.07C138.02,-869.03 301.68,-854.91 341,-820.4 443.18,-730.7 419.1,-654.15 398,-519.84 395.93,-506.66 392.53,-492.89 388.64,-479.77"/>
<polygon fill="blue" stroke="blue" stroke-width="0.8" points="391.87,-478.39 385.58,-469.87 385.19,-480.46 391.87,-478.39"/>
<text text-anchor="middle" x="431.5" y="-667.92" font-family="Times,serif" font-size="9.00">&#45;0.233</text>
</g>
<!-- key 143216
bias &#45;0.407
h_scaling 1.000 -->
<g id="node8" class="node">
<title>key 143216
bias &#45;0.407
h_scaling 1.000</title>
<ellipse fill="white" stroke="black" cx="148" cy="-410.2" rx="63.78" ry="63.78"/>
<text text-anchor="middle" x="148" y="-418" font-family="Times,serif" font-size="9.00">key 143216</text>
<text text-anchor="middle" x="148" y="-408" font-family="Times,serif" font-size="9.00">bias &#45;0.407</text>
<text text-anchor="middle" x="148" y="-398" font-family="Times,serif" font-size="9.00">h_scaling 1.000</text>
</g>
<!-- ready&#45;&gt;key 143216
bias &#45;0.407
h_scaling 1.000 -->
<g id="edge13" class="edge">
<title>ready&#45;&gt;key 143216
bias &#45;0.407
h_scaling 1.000</title>
<path fill="none" stroke="blue" stroke-width="1.53" d="M57.05,-866.25C57.45,-827.12 61.28,-654.88 97,-519.84 100.93,-504.97 106.84,-489.64 113.25,-475.35"/>
<polygon fill="blue" stroke="blue" stroke-width="1.53" points="116.5,-476.67 117.53,-466.13 110.15,-473.73 116.5,-476.67"/>
<text text-anchor="middle" x="86.5" y="-667.92" font-family="Times,serif" font-size="9.00">&#45;0.478</text>
</g>
<!-- key 211316
bias &#45;0.714
h_scaling 1.000 -->
<g id="node9" class="node">
<title>key 211316
bias &#45;0.714
h_scaling 1.000</title>
<ellipse fill="white" stroke="black" cx="167" cy="-63.64" rx="63.78" ry="63.78"/>
<text text-anchor="middle" x="167" y="-71.44" font-family="Times,serif" font-size="9.00">key 211316</text>
<text text-anchor="middle" x="167" y="-61.44" font-family="Times,serif" font-size="9.00">bias &#45;0.714</text>
<text text-anchor="middle" x="167" y="-51.44" font-family="Times,serif" font-size="9.00">h_scaling 1.000</text>
</g>
<!-- ready&#45;&gt;key 211316
bias &#45;0.714
h_scaling 1.000 -->
<g id="edge17" class="edge">
<title>ready&#45;&gt;key 211316
bias &#45;0.714
h_scaling 1.000</title>
<path fill="none" stroke="red" stroke-width="3.03" d="M49.78,-866.29C34.44,-848.21 0,-802.61 0,-757.76 0,-757.76 0,-757.76 0,-235.92 0,-206.83 2.19,-197.02 19,-173.28 40.46,-142.97 73.03,-117.75 102.17,-99.26"/>
<polygon fill="red" stroke="red" stroke-width="3.03" points="104.02,-102.23 110.68,-93.99 100.34,-96.28 104.02,-102.23"/>
<text text-anchor="middle" x="14" y="-494.64" font-family="Times,serif" font-size="9.00">0.978</text>
</g>
<!-- go -->
<g id="node2" class="node">
<title>go</title>
<polygon fill="green" stroke="black" points="487,-884.4 459,-884.4 459,-866.4 487,-866.4 487,-884.4"/>
<text text-anchor="middle" x="473" y="-873.2" font-family="Times,serif" font-size="9.00">go</text>
</g>
<!-- go&#45;&gt;key 4962
bias &#45;0.541
h_scaling 1.000 -->
<g id="edge4" class="edge">
<title>go&#45;&gt;key 4962
bias &#45;0.541
h_scaling 1.000</title>
<path fill="none" stroke="red" stroke-width="1.65" d="M458.79,-867.79C426.65,-852.86 346.66,-815.68 288.52,-788.67"/>
<polygon fill="red" stroke="red" stroke-width="1.65" points="289.93,-785.47 279.39,-784.43 286.98,-791.81 289.93,-785.47"/>
<text text-anchor="middle" x="426" y="-841.2" font-family="Times,serif" font-size="9.00">0.517</text>
</g>
<!-- go&#45;&gt;key 4491
bias &#45;0.463
h_scaling 1.000 -->
<g id="edge5" class="edge">
<title>go&#45;&gt;key 4491
bias &#45;0.463
h_scaling 1.000</title>
<path fill="none" stroke="red" stroke-width="3.03" d="M473.91,-866.39C478.31,-824.88 494.63,-630.69 433,-491.84 428.46,-481.62 422.18,-471.73 415.22,-462.6"/>
<polygon fill="red" stroke="red" stroke-width="3.03" points="417.94,-460.39 408.96,-454.77 412.47,-464.77 417.94,-460.39"/>
<text text-anchor="middle" x="489" y="-667.92" font-family="Times,serif" font-size="9.00">0.977</text>
</g>
<!-- output
bias 0.605
h_scaling 1.000 -->
<g id="node3" class="node">
<title>output
bias 0.605
h_scaling 1.000</title>
<ellipse fill="lightblue" stroke="black" cx="263" cy="-583.48" rx="63.78" ry="63.78"/>
<text text-anchor="middle" x="263" y="-591.28" font-family="Times,serif" font-size="9.00">output</text>
<text text-anchor="middle" x="263" y="-581.28" font-family="Times,serif" font-size="9.00">bias 0.605</text>
<text text-anchor="middle" x="263" y="-571.28" font-family="Times,serif" font-size="9.00">h_scaling 1.000</text>
</g>
<!-- output
bias 0.605
h_scaling 1.000&#45;&gt;key 4491
bias &#45;0.463
h_scaling 1.000 -->
<g id="edge6" class="edge">
<title>output
bias 0.605
h_scaling 1.000&#45;&gt;key 4491
bias &#45;0.463
h_scaling 1.000</title>
<path fill="none" stroke="blue" stroke-width="1.09" d="M267.91,-519.78C270.2,-510.08 273.44,-500.43 278,-491.84 284.89,-478.84 294.68,-466.76 305.16,-456.1"/>
<polygon fill="blue" stroke="blue" stroke-width="1.09" points="307.78,-458.44 312.51,-448.96 302.9,-453.42 307.78,-458.44"/>
<text text-anchor="middle" x="293.5" y="-494.64" font-family="Times,serif" font-size="9.00">&#45;0.329</text>
</g>
<!-- output
bias 0.605
h_scaling 1.000&#45;&gt;key 143216
bias &#45;0.407
h_scaling 1.000 -->
<g id="edge11" class="edge">
<title>output
bias 0.605
h_scaling 1.000&#45;&gt;key 143216
bias &#45;0.407
h_scaling 1.000</title>
<path fill="none" stroke="red" stroke-width="2.7" d="M227.87,-530.16C215.5,-511.73 201.49,-490.87 188.7,-471.82"/>
<polygon fill="red" stroke="red" stroke-width="2.7" points="191.59,-469.84 183.11,-463.49 185.78,-473.75 191.59,-469.84"/>
<text text-anchor="middle" x="219" y="-494.64" font-family="Times,serif" font-size="9.00">0.866</text>
</g>
<!-- key 4962
bias &#45;0.541
h_scaling 1.000&#45;&gt;output
bias 0.605
h_scaling 1.000 -->
<g id="edge3" class="edge">
<title>key 4962
bias &#45;0.541
h_scaling 1.000&#45;&gt;output
bias 0.605
h_scaling 1.000</title>
<path fill="none" stroke="blue" stroke-width="3.1" d="M236.69,-694.4C239.71,-681.78 242.91,-668.4 246.01,-655.47"/>
<polygon fill="blue" stroke="blue" stroke-width="3.1" points="249.42,-656.23 248.35,-645.69 242.62,-654.6 249.42,-656.23"/>
<text text-anchor="middle" x="257.5" y="-667.92" font-family="Times,serif" font-size="9.00">&#45;1.000</text>
</g>
<!-- key 4962
bias &#45;0.541
h_scaling 1.000&#45;&gt;key 4962
bias &#45;0.541
h_scaling 1.000 -->
<g id="edge8" class="edge">
<title>key 4962
bias &#45;0.541
h_scaling 1.000&#45;&gt;key 4962
bias &#45;0.541
h_scaling 1.000</title>
<path fill="none" stroke="red" stroke-width="2.67" d="M283.94,-772.05C295.5,-770.17 303.64,-765.07 303.64,-756.76 303.64,-751.04 299.79,-746.84 293.63,-744.17"/>
<polygon fill="red" stroke="red" stroke-width="2.67" points="294.52,-740.78 283.94,-741.46 292.63,-747.52 294.52,-740.78"/>
<text text-anchor="middle" x="317.64" y="-754.56" font-family="Times,serif" font-size="9.00">0.857</text>
</g>
<!-- key 4962
bias &#45;0.541
h_scaling 1.000&#45;&gt;key 4491
bias &#45;0.463
h_scaling 1.000 -->
<g id="edge2" class="edge">
<title>key 4962
bias &#45;0.541
h_scaling 1.000&#45;&gt;key 4491
bias &#45;0.463
h_scaling 1.000</title>
<path fill="none" stroke="red" stroke-width="3.1" d="M274.02,-719.54C296.93,-700.69 321.81,-675.63 336,-647.12 361.16,-596.55 367.12,-532.54 367.23,-483.95"/>
<polygon fill="red" stroke="red" stroke-width="3.1" points="370.73,-483.81 367.17,-473.83 363.73,-483.85 370.73,-483.81"/>
<text text-anchor="middle" x="380" y="-581.28" font-family="Times,serif" font-size="9.00">1.000</text>
</g>
<!-- key 4962
bias &#45;0.541
h_scaling 1.000&#45;&gt;key 143216
bias &#45;0.407
h_scaling 1.000 -->
<g id="edge14" class="edge">
<title>key 4962
bias &#45;0.541
h_scaling 1.000&#45;&gt;key 143216
bias &#45;0.407
h_scaling 1.000</title>
<path fill="none" stroke="red" stroke-width="1.03" d="M170.06,-719.6C147.72,-700.84 124,-675.85 112,-647.12 89.39,-593 102.79,-526.59 119.29,-478.04"/>
<polygon fill="red" stroke="red" stroke-width="1.03" points="122.61,-479.17 122.63,-468.57 116,-476.84 122.61,-479.17"/>
<text text-anchor="middle" x="126" y="-581.28" font-family="Times,serif" font-size="9.00">0.310</text>
</g>
<!-- key 170373
bias &#45;0.423
h_scaling 1.000 -->
<g id="node5" class="node">
<title>key 170373
bias &#45;0.423
h_scaling 1.000</title>
<ellipse fill="white" stroke="black" cx="92" cy="-236.92" rx="63.78" ry="63.78"/>
<text text-anchor="middle" x="92" y="-244.72" font-family="Times,serif" font-size="9.00">key 170373</text>
<text text-anchor="middle" x="92" y="-234.72" font-family="Times,serif" font-size="9.00">bias &#45;0.423</text>
<text text-anchor="middle" x="92" y="-224.72" font-family="Times,serif" font-size="9.00">h_scaling 1.000</text>
</g>
<!-- key 170373
bias &#45;0.423
h_scaling 1.000&#45;&gt;key 143216
bias &#45;0.407
h_scaling 1.000 -->
<g id="edge16" class="edge">
<title>key 170373
bias &#45;0.423
h_scaling 1.000&#45;&gt;key 143216
bias &#45;0.407
h_scaling 1.000</title>
<path fill="none" stroke="red" stroke-width="1.53" d="M87.07,-300.59C87.73,-310.11 89.23,-319.7 92,-328.56 94.53,-336.63 98.18,-344.59 102.42,-352.2"/>
<polygon fill="red" stroke="red" stroke-width="1.53" points="99.51,-354.15 107.64,-360.94 105.52,-350.56 99.51,-354.15"/>
<text text-anchor="middle" x="106" y="-321.36" font-family="Times,serif" font-size="9.00">0.475</text>
</g>
<!-- key 170373
bias &#45;0.423
h_scaling 1.000&#45;&gt;key 211316
bias &#45;0.714
h_scaling 1.000 -->
<g id="edge19" class="edge">
<title>key 170373
bias &#45;0.423
h_scaling 1.000&#45;&gt;key 211316
bias &#45;0.714
h_scaling 1.000</title>
<path fill="none" stroke="blue" stroke-width="0.18" d="M117.18,-178.41C123.74,-163.44 130.86,-147.18 137.61,-131.76"/>
<polygon fill="blue" stroke="blue" stroke-width="0.18" points="140.95,-132.85 141.76,-122.29 134.54,-130.05 140.95,-132.85"/>
<text text-anchor="middle" x="145.5" y="-148.08" font-family="Times,serif" font-size="9.00">&#45;0.026</text>
</g>
<!-- key 4491
bias &#45;0.463
h_scaling 1.000&#45;&gt;output
bias 0.605
h_scaling 1.000 -->
<g id="edge1" class="edge">
<title>key 4491
bias &#45;0.463
h_scaling 1.000&#45;&gt;output
bias 0.605
h_scaling 1.000</title>
<path fill="none" stroke="blue" stroke-width="3.1" d="M331.22,-465.64C321.34,-482.54 310.38,-501.33 300.17,-518.81"/>
<polygon fill="blue" stroke="blue" stroke-width="3.1" points="296.94,-517.41 294.92,-527.81 302.98,-520.94 296.94,-517.41"/>
<text text-anchor="middle" x="328.5" y="-494.64" font-family="Times,serif" font-size="9.00">&#45;1.000</text>
</g>
<!-- key 4491
bias &#45;0.463
h_scaling 1.000&#45;&gt;key 4491
bias &#45;0.463
h_scaling 1.000 -->
<g id="edge10" class="edge">
<title>key 4491
bias &#45;0.463
h_scaling 1.000&#45;&gt;key 4491
bias &#45;0.463
h_scaling 1.000</title>
<path fill="none" stroke="red" stroke-width="0.99" d="M424.94,-425.5C436.5,-423.61 444.64,-418.51 444.64,-410.2 444.64,-404.48 440.79,-400.29 434.63,-397.61"/>
<polygon fill="red" stroke="red" stroke-width="0.99" points="435.52,-394.22 424.94,-394.9 433.63,-400.96 435.52,-394.22"/>
<text text-anchor="middle" x="458.64" y="-408" font-family="Times,serif" font-size="9.00">0.298</text>
</g>
<!-- key 391820
bias &#45;0.241
h_scaling 1.000 -->
<g id="node7" class="node">
<title>key 391820
bias &#45;0.241
h_scaling 1.000</title>
<ellipse fill="white" stroke="black" cx="305" cy="-236.92" rx="63.78" ry="63.78"/>
<text text-anchor="middle" x="305" y="-244.72" font-family="Times,serif" font-size="9.00">key 391820</text>
<text text-anchor="middle" x="305" y="-234.72" font-family="Times,serif" font-size="9.00">bias &#45;0.241</text>
<text text-anchor="middle" x="305" y="-224.72" font-family="Times,serif" font-size="9.00">h_scaling 1.000</text>
</g>
<!-- key 391820
bias &#45;0.241
h_scaling 1.000&#45;&gt;key 211316
bias &#45;0.714
h_scaling 1.000 -->
<g id="edge21" class="edge">
<title>key 391820
bias &#45;0.241
h_scaling 1.000&#45;&gt;key 211316
bias &#45;0.714
h_scaling 1.000</title>
<path fill="none" stroke="red" stroke-width="0.72" d="M265.45,-186.84C249.07,-166.5 229.96,-142.78 212.95,-121.68"/>
<polygon fill="red" stroke="red" stroke-width="0.72" points="215.55,-119.32 206.55,-113.73 210.1,-123.71 215.55,-119.32"/>
<text text-anchor="middle" x="250" y="-148.08" font-family="Times,serif" font-size="9.00">0.207</text>
</g>
<!-- key 143216
bias &#45;0.407
h_scaling 1.000&#45;&gt;key 4962
bias &#45;0.541
h_scaling 1.000 -->
<g id="edge12" class="edge">
<title>key 143216
bias &#45;0.407
h_scaling 1.000&#45;&gt;key 4962
bias &#45;0.541
h_scaling 1.000</title>
<path fill="none" stroke="red" stroke-width="0.72" d="M144.27,-473.82C143.16,-522.11 145.48,-590.07 162,-647.12 166.64,-663.14 173.96,-679.41 181.92,-694.31"/>
<polygon fill="red" stroke="red" stroke-width="0.72" points="179.04,-696.34 186.94,-703.4 185.17,-692.95 179.04,-696.34"/>
<text text-anchor="middle" x="176" y="-581.28" font-family="Times,serif" font-size="9.00">0.207</text>
</g>
<!-- key 143216
bias &#45;0.407
h_scaling 1.000&#45;&gt;key 170373
bias &#45;0.423
h_scaling 1.000 -->
<g id="edge15" class="edge">
<title>key 143216
bias &#45;0.407
h_scaling 1.000&#45;&gt;key 170373
bias &#45;0.423
h_scaling 1.000</title>
<path fill="none" stroke="red" stroke-width="2.84" d="M132.85,-347.96C130.1,-338.07 127.11,-327.99 124,-318.56 122.61,-314.34 121.12,-310.02 119.56,-305.69"/>
<polygon fill="red" stroke="red" stroke-width="2.84" points="122.81,-304.38 116.07,-296.2 116.24,-306.79 122.81,-304.38"/>
<text text-anchor="middle" x="142" y="-321.36" font-family="Times,serif" font-size="9.00">0.915</text>
</g>
<!-- key 143216
bias &#45;0.407
h_scaling 1.000&#45;&gt;key 391820
bias &#45;0.241
h_scaling 1.000 -->
<g id="edge20" class="edge">
<title>key 143216
bias &#45;0.407
h_scaling 1.000&#45;&gt;key 391820
bias &#45;0.241
h_scaling 1.000</title>
<path fill="none" stroke="red" stroke-width="3.1" d="M190.9,-362.4C210.89,-340.59 234.78,-314.53 255.52,-291.9"/>
<polygon fill="red" stroke="red" stroke-width="3.1" points="258.25,-294.1 262.42,-284.37 253.09,-289.37 258.25,-294.1"/>
<text text-anchor="middle" x="240" y="-321.36" font-family="Times,serif" font-size="9.00">1.000</text>
</g>
<!-- key 211316
bias &#45;0.714
h_scaling 1.000&#45;&gt;key 143216
bias &#45;0.407
h_scaling 1.000 -->
<g id="edge18" class="edge">
<title>key 211316
bias &#45;0.714
h_scaling 1.000&#45;&gt;key 143216
bias &#45;0.407
h_scaling 1.000</title>
<path fill="none" stroke="blue" stroke-width="3.1" d="M168.96,-127.34C169.85,-174.94 169.81,-241.98 165,-300.56 164.02,-312.45 162.51,-325.01 160.78,-337.2"/>
<polygon fill="blue" stroke="blue" stroke-width="3.1" points="157.28,-336.93 159.29,-347.34 164.21,-337.96 157.28,-336.93"/>
<text text-anchor="middle" x="184.5" y="-234.72" font-family="Times,serif" font-size="9.00">&#45;1.000</text>
</g>
</g>
</svg>
