<?xml version="1.0" encoding="UTF-8" standalone="no"?>
<!DOCTYPE svg PUBLIC "-//W3C//DTD SVG 1.1//EN"
 "http://www.w3.org/Graphics/SVG/1.1/DTD/svg11.dtd">
<!-- Generated by graphviz version 2.43.0 (0)
 -->
<!-- Title: %3 Pages: 1 -->
<svg width="402pt" height="902pt"
 viewBox="0.00 0.00 401.50 902.40" xmlns="http://www.w3.org/2000/svg" xmlns:xlink="http://www.w3.org/1999/xlink">
<g id="graph0" class="graph" transform="scale(1 1) rotate(0) translate(4 898.4)">
<title>%3</title>
<polygon fill="white" stroke="transparent" points="-4,4 -4,-898.4 397.5,-898.4 397.5,4 -4,4"/>
<!-- ready
output 0.000 -->
<g id="node1" class="node">
<title>ready
output 0.000</title>
<polygon fill="yellow" stroke="black" points="77,-894.4 0,-894.4 0,-866.4 77,-866.4 77,-894.4"/>
<text text-anchor="middle" x="38.5" y="-883.2" font-family="Times,serif" font-size="9.00">ready</text>
<text text-anchor="middle" x="38.5" y="-873.2" font-family="Times,serif" font-size="9.00">output 0.000</text>
</g>
<!-- key 83074
bias &#45;0.526
h_scaling 1.000
output 0.050 -->
<g id="node4" class="node">
<title>key 83074
bias &#45;0.526
h_scaling 1.000
output 0.050</title>
<ellipse fill="white" stroke="black" cx="260.5" cy="-756.76" rx="63.78" ry="63.78"/>
<text text-anchor="middle" x="260.5" y="-769.56" font-family="Times,serif" font-size="9.00">key 83074</text>
<text text-anchor="middle" x="260.5" y="-759.56" font-family="Times,serif" font-size="9.00">bias &#45;0.526</text>
<text text-anchor="middle" x="260.5" y="-749.56" font-family="Times,serif" font-size="9.00">h_scaling 1.000</text>
<text text-anchor="middle" x="260.5" y="-739.56" font-family="Times,serif" font-size="9.00">output 0.050</text>
</g>
<!-- ready
output 0.000&#45;&gt;key 83074
bias &#45;0.526
h_scaling 1.000
output 0.050 -->
<g id="edge4" class="edge">
<title>ready
output 0.000&#45;&gt;key 83074
bias &#45;0.526
h_scaling 1.000
output 0.050</title>
<path fill="none" stroke="red" stroke-width="0.1" d="M68.59,-866.35C94.03,-855.02 131.23,-837.74 162.5,-820.4 174.65,-813.66 187.35,-806.02 199.42,-798.45"/>
<polygon fill="red" stroke="red" stroke-width="0.1" points="201.51,-801.27 208.08,-792.96 197.76,-795.35 201.51,-801.27"/>
<text text-anchor="middle" x="139.5" y="-841.2" font-family="Times,serif" font-size="9.00">0.908</text>
</g>
<!-- key 173642
bias &#45;0.033
h_scaling 1.000
output 0.917 -->
<g id="node5" class="node">
<title>key 173642
bias &#45;0.033
h_scaling 1.000
output 0.917</title>
<ellipse fill="white" stroke="black" cx="178.5" cy="-410.2" rx="63.78" ry="63.78"/>
<text text-anchor="middle" x="178.5" y="-423" font-family="Times,serif" font-size="9.00">key 173642</text>
<text text-anchor="middle" x="178.5" y="-413" font-family="Times,serif" font-size="9.00">bias &#45;0.033</text>
<text text-anchor="middle" x="178.5" y="-403" font-family="Times,serif" font-size="9.00">h_scaling 1.000</text>
<text text-anchor="middle" x="178.5" y="-393" font-family="Times,serif" font-size="9.00">output 0.917</text>
</g>
<!-- ready
output 0.000&#45;&gt;key 173642
bias &#45;0.033
h_scaling 1.000
output 0.917 -->
<g id="edge12" class="edge">
<title>ready
output 0.000&#45;&gt;key 173642
bias &#45;0.033
h_scaling 1.000
output 0.917</title>
<path fill="none" stroke="red" stroke-width="0.1" d="M34.52,-866.25C20.43,-816.99 -22.96,-640.05 41.5,-519.84 58.74,-487.68 80.81,-496.38 109.5,-473.84 114.51,-469.9 119.61,-465.7 124.66,-461.39"/>
<polygon fill="red" stroke="red" stroke-width="0.1" points="127.25,-463.78 132.52,-454.58 122.67,-458.48 127.25,-463.78"/>
<text text-anchor="middle" x="21.5" y="-667.92" font-family="Times,serif" font-size="9.00">0.142</text>
</g>
<!-- go
output 0.000 -->
<g id="node2" class="node">
<title>go
output 0.000</title>
<polygon fill="green" stroke="black" points="153,-770.76 76,-770.76 76,-742.76 153,-742.76 153,-770.76"/>
<text text-anchor="middle" x="114.5" y="-759.56" font-family="Times,serif" font-size="9.00">go</text>
<text text-anchor="middle" x="114.5" y="-749.56" font-family="Times,serif" font-size="9.00">output 0.000</text>
</g>
<!-- key 2735
bias &#45;0.474
h_scaling 1.000
output 0.094 -->
<g id="node6" class="node">
<title>key 2735
bias &#45;0.474
h_scaling 1.000
output 0.094</title>
<ellipse fill="white" stroke="black" cx="114.5" cy="-583.48" rx="63.78" ry="63.78"/>
<text text-anchor="middle" x="114.5" y="-596.28" font-family="Times,serif" font-size="9.00">key 2735</text>
<text text-anchor="middle" x="114.5" y="-586.28" font-family="Times,serif" font-size="9.00">bias &#45;0.474</text>
<text text-anchor="middle" x="114.5" y="-576.28" font-family="Times,serif" font-size="9.00">h_scaling 1.000</text>
<text text-anchor="middle" x="114.5" y="-566.28" font-family="Times,serif" font-size="9.00">output 0.094</text>
</g>
<!-- go
output 0.000&#45;&gt;key 2735
bias &#45;0.474
h_scaling 1.000
output 0.094 -->
<g id="edge2" class="edge">
<title>go
output 0.000&#45;&gt;key 2735
bias &#45;0.474
h_scaling 1.000
output 0.094</title>
<path fill="none" stroke="red" stroke-width="0.1" d="M114.5,-742.6C114.5,-724.29 114.5,-689.75 114.5,-657.61"/>
<polygon fill="red" stroke="red" stroke-width="0.1" points="118,-657.29 114.5,-647.29 111,-657.29 118,-657.29"/>
<text text-anchor="middle" x="128.5" y="-667.92" font-family="Times,serif" font-size="9.00">0.930</text>
</g>
<!-- output
bias &#45;0.854
h_scaling 1.000
output 0.624 -->
<g id="node3" class="node">
<title>output
bias &#45;0.854
h_scaling 1.000
output 0.624</title>
<ellipse fill="lightblue" stroke="black" cx="224.5" cy="-236.92" rx="63.78" ry="63.78"/>
<text text-anchor="middle" x="224.5" y="-249.72" font-family="Times,serif" font-size="9.00">output</text>
<text text-anchor="middle" x="224.5" y="-239.72" font-family="Times,serif" font-size="9.00">bias &#45;0.854</text>
<text text-anchor="middle" x="224.5" y="-229.72" font-family="Times,serif" font-size="9.00">h_scaling 1.000</text>
<text text-anchor="middle" x="224.5" y="-219.72" font-family="Times,serif" font-size="9.00">output 0.624</text>
</g>
<!-- key 389658
bias &#45;1.000
h_scaling 1.000
output 0.239 -->
<g id="node7" class="node">
<title>key 389658
bias &#45;1.000
h_scaling 1.000
output 0.239</title>
<ellipse fill="white" stroke="black" cx="316.5" cy="-63.64" rx="63.78" ry="63.78"/>
<text text-anchor="middle" x="316.5" y="-76.44" font-family="Times,serif" font-size="9.00">key 389658</text>
<text text-anchor="middle" x="316.5" y="-66.44" font-family="Times,serif" font-size="9.00">bias &#45;1.000</text>
<text text-anchor="middle" x="316.5" y="-56.44" font-family="Times,serif" font-size="9.00">h_scaling 1.000</text>
<text text-anchor="middle" x="316.5" y="-46.44" font-family="Times,serif" font-size="9.00">output 0.239</text>
</g>
<!-- output
bias &#45;0.854
h_scaling 1.000
output 0.624&#45;&gt;key 389658
bias &#45;1.000
h_scaling 1.000
output 0.239 -->
<g id="edge13" class="edge">
<title>output
bias &#45;0.854
h_scaling 1.000
output 0.624&#45;&gt;key 389658
bias &#45;1.000
h_scaling 1.000
output 0.239</title>
<path fill="none" stroke="red" stroke-width="0.1" d="M254.37,-180.31C263.14,-163.99 272.8,-146.01 281.83,-129.18"/>
<polygon fill="red" stroke="red" stroke-width="0.1" points="285.13,-130.44 286.78,-119.97 278.96,-127.12 285.13,-130.44"/>
<text text-anchor="middle" x="284.5" y="-148.08" font-family="Times,serif" font-size="9.00">0.967</text>
</g>
<!-- key 83074
bias &#45;0.526
h_scaling 1.000
output 0.050&#45;&gt;output
bias &#45;0.854
h_scaling 1.000
output 0.624 -->
<g id="edge6" class="edge">
<title>key 83074
bias &#45;0.526
h_scaling 1.000
output 0.050&#45;&gt;output
bias &#45;0.854
h_scaling 1.000
output 0.624</title>
<path fill="none" stroke="red" stroke-width="0.1" d="M279.8,-696.03C302.89,-615.02 334.1,-466.65 297.5,-346.56 291.94,-328.31 282.17,-310.35 271.56,-294.44"/>
<polygon fill="red" stroke="red" stroke-width="0.1" points="274.17,-292.06 265.6,-285.83 268.41,-296.05 274.17,-292.06"/>
<text text-anchor="middle" x="327.5" y="-494.64" font-family="Times,serif" font-size="9.00">0.500</text>
</g>
<!-- key 83074
bias &#45;0.526
h_scaling 1.000
output 0.050&#45;&gt;key 83074
bias &#45;0.526
h_scaling 1.000
output 0.050 -->
<g id="edge7" class="edge">
<title>key 83074
bias &#45;0.526
h_scaling 1.000
output 0.050&#45;&gt;key 83074
bias &#45;0.526
h_scaling 1.000
output 0.050</title>
<path fill="none" stroke="red" stroke-width="0.1" d="M322.44,-772.05C334,-770.17 342.14,-765.07 342.14,-756.76 342.14,-751.04 338.29,-746.84 332.13,-744.17"/>
<polygon fill="red" stroke="red" stroke-width="0.1" points="333.02,-740.78 322.44,-741.46 331.13,-747.52 333.02,-740.78"/>
<text text-anchor="middle" x="356.14" y="-754.56" font-family="Times,serif" font-size="9.00">0.868</text>
</g>
<!-- key 83074
bias &#45;0.526
h_scaling 1.000
output 0.050&#45;&gt;key 173642
bias &#45;0.033
h_scaling 1.000
output 0.917 -->
<g id="edge10" class="edge">
<title>key 83074
bias &#45;0.526
h_scaling 1.000
output 0.050&#45;&gt;key 173642
bias &#45;0.033
h_scaling 1.000
output 0.917</title>
<path fill="none" stroke="red" stroke-width="0.1" d="M259.33,-692.95C257.01,-644.71 250.61,-576.9 233.5,-519.84 228.94,-504.64 222.33,-489.01 215.26,-474.52"/>
<polygon fill="red" stroke="red" stroke-width="0.1" points="218.18,-472.53 210.56,-465.17 211.92,-475.68 218.18,-472.53"/>
<text text-anchor="middle" x="269.5" y="-581.28" font-family="Times,serif" font-size="9.00">0.351</text>
</g>
<!-- key 83074
bias &#45;0.526
h_scaling 1.000
output 0.050&#45;&gt;key 2735
bias &#45;0.474
h_scaling 1.000
output 0.094 -->
<g id="edge5" class="edge">
<title>key 83074
bias &#45;0.526
h_scaling 1.000
output 0.050&#45;&gt;key 2735
bias &#45;0.474
h_scaling 1.000
output 0.094</title>
<path fill="none" stroke="blue" stroke-width="0.1" d="M219.44,-707.59C201.64,-686.7 180.68,-662.12 162.19,-640.43"/>
<polygon fill="blue" stroke="blue" stroke-width="0.1" points="164.65,-637.92 155.5,-632.58 159.33,-642.46 164.65,-637.92"/>
<text text-anchor="middle" x="203" y="-667.92" font-family="Times,serif" font-size="9.00">&#45;0.293</text>
</g>
<!-- key 173642
bias &#45;0.033
h_scaling 1.000
output 0.917&#45;&gt;output
bias &#45;0.854
h_scaling 1.000
output 0.624 -->
<g id="edge8" class="edge">
<title>key 173642
bias &#45;0.033
h_scaling 1.000
output 0.917&#45;&gt;output
bias &#45;0.854
h_scaling 1.000
output 0.624</title>
<path fill="none" stroke="red" stroke-width="0.1" d="M194.85,-348.33C198.3,-335.46 201.98,-321.77 205.53,-308.57"/>
<polygon fill="red" stroke="red" stroke-width="0.1" points="208.99,-309.16 208.21,-298.59 202.23,-307.34 208.99,-309.16"/>
<text text-anchor="middle" x="215.5" y="-321.36" font-family="Times,serif" font-size="9.00">0.996</text>
</g>
<!-- key 173642
bias &#45;0.033
h_scaling 1.000
output 0.917&#45;&gt;key 173642
bias &#45;0.033
h_scaling 1.000
output 0.917 -->
<g id="edge11" class="edge">
<title>key 173642
bias &#45;0.033
h_scaling 1.000
output 0.917&#45;&gt;key 173642
bias &#45;0.033
h_scaling 1.000
output 0.917</title>
<path fill="none" stroke="red" stroke-width="0.1" d="M240.44,-425.5C252,-423.61 260.14,-418.51 260.14,-410.2 260.14,-404.48 256.29,-400.29 250.13,-397.61"/>
<polygon fill="red" stroke="red" stroke-width="0.1" points="251.02,-394.22 240.44,-394.9 249.13,-400.96 251.02,-394.22"/>
<text text-anchor="middle" x="274.14" y="-408" font-family="Times,serif" font-size="9.00">0.549</text>
</g>
<!-- key 2735
bias &#45;0.474
h_scaling 1.000
output 0.094&#45;&gt;output
bias &#45;0.854
h_scaling 1.000
output 0.624 -->
<g id="edge3" class="edge">
<title>key 2735
bias &#45;0.474
h_scaling 1.000
output 0.094&#45;&gt;output
bias &#45;0.854
h_scaling 1.000
output 0.624</title>
<path fill="none" stroke="blue" stroke-width="0.1" d="M86.25,-526.13C65.53,-476.38 45.6,-403.17 74.5,-346.56 92,-312.28 125.92,-286.31 157.09,-268.37"/>
<polygon fill="blue" stroke="blue" stroke-width="0.1" points="159.18,-271.21 166.22,-263.29 155.78,-265.09 159.18,-271.21"/>
<text text-anchor="middle" x="90" y="-408" font-family="Times,serif" font-size="9.00">&#45;1.000</text>
</g>
<!-- key 2735
bias &#45;0.474
h_scaling 1.000
output 0.094&#45;&gt;key 173642
bias &#45;0.033
h_scaling 1.000
output 0.917 -->
<g id="edge9" class="edge">
<title>key 2735
bias &#45;0.474
h_scaling 1.000
output 0.094&#45;&gt;key 173642
bias &#45;0.033
h_scaling 1.000
output 0.917</title>
<path fill="none" stroke="blue" stroke-width="0.1" d="M136.53,-523.53C141.83,-509.32 147.55,-494.03 153,-479.43"/>
<polygon fill="blue" stroke="blue" stroke-width="0.1" points="156.32,-480.55 156.54,-469.96 149.76,-478.1 156.32,-480.55"/>
<text text-anchor="middle" x="162" y="-494.64" font-family="Times,serif" font-size="9.00">&#45;0.958</text>
</g>
<!-- key 2735
bias &#45;0.474
h_scaling 1.000
output 0.094&#45;&gt;key 2735
bias &#45;0.474
h_scaling 1.000
output 0.094 -->
<g id="edge1" class="edge">
<title>key 2735
bias &#45;0.474
h_scaling 1.000
output 0.094&#45;&gt;key 2735
bias &#45;0.474
h_scaling 1.000
output 0.094</title>
<path fill="none" stroke="red" stroke-width="0.1" d="M176.44,-598.77C188,-596.89 196.14,-591.79 196.14,-583.48 196.14,-577.76 192.29,-573.56 186.13,-570.89"/>
<polygon fill="red" stroke="red" stroke-width="0.1" points="187.02,-567.5 176.44,-568.18 185.13,-574.24 187.02,-567.5"/>
<text text-anchor="middle" x="210.14" y="-581.28" font-family="Times,serif" font-size="9.00">0.986</text>
</g>
<!-- key 389658
bias &#45;1.000
h_scaling 1.000
output 0.239&#45;&gt;key 83074
bias &#45;0.526
h_scaling 1.000
output 0.050 -->
<g id="edge14" class="edge">
<title>key 389658
bias &#45;1.000
h_scaling 1.000
output 0.239&#45;&gt;key 83074
bias &#45;0.526
h_scaling 1.000
output 0.050</title>
<path fill="none" stroke="blue" stroke-width="0.1" d="M340.31,-123.06C351.53,-155.69 362.5,-197.43 362.5,-235.92 362.5,-584.48 362.5,-584.48 362.5,-584.48 362.5,-628.67 337.13,-671.38 311.69,-703.1"/>
<polygon fill="blue" stroke="blue" stroke-width="0.1" points="308.9,-700.98 305.24,-710.93 314.3,-705.44 308.9,-700.98"/>
<text text-anchor="middle" x="378" y="-408" font-family="Times,serif" font-size="9.00">&#45;0.531</text>
</g>
</g>
</svg>
