<?xml version="1.0" encoding="UTF-8" standalone="no"?>
<!DOCTYPE svg PUBLIC "-//W3C//DTD SVG 1.1//EN"
 "http://www.w3.org/Graphics/SVG/1.1/DTD/svg11.dtd">
<!-- Generated by graphviz version 2.43.0 (0)
 -->
<!-- Title: %3 Pages: 1 -->
<svg width="291pt" height="537pt"
 viewBox="0.00 0.00 291.28 536.84" xmlns="http://www.w3.org/2000/svg" xmlns:xlink="http://www.w3.org/1999/xlink">
<g id="graph0" class="graph" transform="scale(1 1) rotate(0) translate(4 532.84)">
<title>%3</title>
<polygon fill="white" stroke="transparent" points="-4,4 -4,-532.84 287.28,-532.84 287.28,4 -4,4"/>
<!-- ready -->
<g id="node1" class="node">
<title>ready</title>
<polygon fill="yellow" stroke="black" points="85.14,-528.84 42.14,-528.84 42.14,-510.84 85.14,-510.84 85.14,-528.84"/>
<text text-anchor="middle" x="63.64" y="-517.64" font-family="Times,serif" font-size="9.00">ready</text>
</g>
<!-- key 36786
bias &#45;0.478
h_scaling 0.774 -->
<g id="node4" class="node">
<title>key 36786
bias &#45;0.478
h_scaling 0.774</title>
<ellipse fill="white" stroke="black" cx="63.64" cy="-401.2" rx="63.78" ry="63.78"/>
<text text-anchor="middle" x="63.64" y="-409" font-family="Times,serif" font-size="9.00">key 36786</text>
<text text-anchor="middle" x="63.64" y="-399" font-family="Times,serif" font-size="9.00">bias &#45;0.478</text>
<text text-anchor="middle" x="63.64" y="-389" font-family="Times,serif" font-size="9.00">h_scaling 0.774</text>
</g>
<!-- ready&#45;&gt;key 36786
bias &#45;0.478
h_scaling 0.774 -->
<g id="edge5" class="edge">
<title>ready&#45;&gt;key 36786
bias &#45;0.478
h_scaling 0.774</title>
<path fill="none" stroke="red" stroke-width="0.42" d="M63.64,-510.82C63.64,-502.79 63.64,-489.57 63.64,-475.07"/>
<polygon fill="red" stroke="red" stroke-width="0.42" points="67.14,-474.87 63.64,-464.87 60.14,-474.87 67.14,-474.87"/>
<text text-anchor="middle" x="77.64" y="-485.64" font-family="Times,serif" font-size="9.00">0.011</text>
</g>
<!-- go -->
<g id="node2" class="node">
<title>go</title>
<polygon fill="green" stroke="black" points="219.64,-410.2 191.64,-410.2 191.64,-392.2 219.64,-392.2 219.64,-410.2"/>
<text text-anchor="middle" x="205.64" y="-399" font-family="Times,serif" font-size="9.00">go</text>
</g>
<!-- key 2255
bias &#45;0.427
h_scaling 0.318 -->
<g id="node5" class="node">
<title>key 2255
bias &#45;0.427
h_scaling 0.318</title>
<ellipse fill="white" stroke="black" cx="173.64" cy="-227.92" rx="63.78" ry="63.78"/>
<text text-anchor="middle" x="173.64" y="-235.72" font-family="Times,serif" font-size="9.00">key 2255</text>
<text text-anchor="middle" x="173.64" y="-225.72" font-family="Times,serif" font-size="9.00">bias &#45;0.427</text>
<text text-anchor="middle" x="173.64" y="-215.72" font-family="Times,serif" font-size="9.00">h_scaling 0.318</text>
</g>
<!-- go&#45;&gt;key 2255
bias &#45;0.427
h_scaling 0.318 -->
<g id="edge3" class="edge">
<title>go&#45;&gt;key 2255
bias &#45;0.427
h_scaling 0.318</title>
<path fill="none" stroke="red" stroke-width="0.71" d="M204.1,-391.94C200.99,-375.32 193.72,-336.4 187.06,-300.76"/>
<polygon fill="red" stroke="red" stroke-width="0.71" points="190.48,-300 185.2,-290.82 183.6,-301.29 190.48,-300"/>
<text text-anchor="middle" x="203.64" y="-312.36" font-family="Times,serif" font-size="9.00">0.020</text>
</g>
<!-- output
bias &#45;0.358
h_scaling 0.546 -->
<g id="node3" class="node">
<title>output
bias &#45;0.358
h_scaling 0.546</title>
<ellipse fill="lightblue" stroke="black" cx="75.64" cy="-63.64" rx="63.78" ry="63.78"/>
<text text-anchor="middle" x="75.64" y="-71.44" font-family="Times,serif" font-size="9.00">output</text>
<text text-anchor="middle" x="75.64" y="-61.44" font-family="Times,serif" font-size="9.00">bias &#45;0.358</text>
<text text-anchor="middle" x="75.64" y="-51.44" font-family="Times,serif" font-size="9.00">h_scaling 0.546</text>
</g>
<!-- output
bias &#45;0.358
h_scaling 0.546&#45;&gt;output
bias &#45;0.358
h_scaling 0.546 -->
<g id="edge2" class="edge">
<title>output
bias &#45;0.358
h_scaling 0.546&#45;&gt;output
bias &#45;0.358
h_scaling 0.546</title>
<path fill="none" stroke="red" stroke-width="0.78" d="M137.93,-78.17C149.3,-76.33 157.28,-71.49 157.28,-63.64 157.28,-58.37 153.68,-54.45 147.87,-51.89"/>
<polygon fill="red" stroke="red" stroke-width="0.78" points="148.5,-48.43 137.93,-49.11 146.62,-55.18 148.5,-48.43"/>
<text text-anchor="middle" x="171.28" y="-61.44" font-family="Times,serif" font-size="9.00">0.023</text>
</g>
<!-- key 36786
bias &#45;0.478
h_scaling 0.774&#45;&gt;output
bias &#45;0.358
h_scaling 0.546 -->
<g id="edge7" class="edge">
<title>key 36786
bias &#45;0.478
h_scaling 0.774&#45;&gt;output
bias &#45;0.358
h_scaling 0.546</title>
<path fill="none" stroke="red" stroke-width="0.27" d="M65.88,-337.48C67.91,-280.72 70.9,-197.13 73.04,-137.45"/>
<polygon fill="red" stroke="red" stroke-width="0.27" points="76.54,-137.46 73.4,-127.34 69.54,-137.21 76.54,-137.46"/>
<text text-anchor="middle" x="86.64" y="-225.72" font-family="Times,serif" font-size="9.00">0.006</text>
</g>
<!-- key 36786
bias &#45;0.478
h_scaling 0.774&#45;&gt;key 36786
bias &#45;0.478
h_scaling 0.774 -->
<g id="edge8" class="edge">
<title>key 36786
bias &#45;0.478
h_scaling 0.774&#45;&gt;key 36786
bias &#45;0.478
h_scaling 0.774</title>
<path fill="none" stroke="red" stroke-width="0.63" d="M125.58,-416.5C137.14,-414.61 145.28,-409.51 145.28,-401.2 145.28,-395.48 141.43,-391.29 135.27,-388.61"/>
<polygon fill="red" stroke="red" stroke-width="0.63" points="136.16,-385.22 125.58,-385.9 134.27,-391.96 136.16,-385.22"/>
<text text-anchor="middle" x="159.28" y="-399" font-family="Times,serif" font-size="9.00">0.018</text>
</g>
<!-- key 36786
bias &#45;0.478
h_scaling 0.774&#45;&gt;key 2255
bias &#45;0.427
h_scaling 0.318 -->
<g id="edge6" class="edge">
<title>key 36786
bias &#45;0.478
h_scaling 0.774&#45;&gt;key 2255
bias &#45;0.427
h_scaling 0.318</title>
<path fill="none" stroke="blue" stroke-width="0.1" d="M97.84,-346.94C109.33,-329.06 122.24,-308.96 134.1,-290.49"/>
<polygon fill="blue" stroke="blue" stroke-width="0.1" points="137.19,-292.15 139.65,-281.85 131.3,-288.37 137.19,-292.15"/>
</g>
<!-- key 2255
bias &#45;0.427
h_scaling 0.318&#45;&gt;output
bias &#45;0.358
h_scaling 0.546 -->
<g id="edge1" class="edge">
<title>key 2255
bias &#45;0.427
h_scaling 0.318&#45;&gt;output
bias &#45;0.358
h_scaling 0.546</title>
<path fill="none" stroke="blue" stroke-width="0.1" d="M141.01,-172.88C132.16,-158.24 122.52,-142.26 113.42,-127.19"/>
<polygon fill="blue" stroke="blue" stroke-width="0.1" points="116.3,-125.19 108.13,-118.44 110.3,-128.81 116.3,-125.19"/>
</g>
<!-- key 2255
bias &#45;0.427
h_scaling 0.318&#45;&gt;key 2255
bias &#45;0.427
h_scaling 0.318 -->
<g id="edge4" class="edge">
<title>key 2255
bias &#45;0.427
h_scaling 0.318&#45;&gt;key 2255
bias &#45;0.427
h_scaling 0.318</title>
<path fill="none" stroke="red" stroke-width="1.47" d="M235.93,-242.45C247.3,-240.61 255.28,-235.77 255.28,-227.92 255.28,-222.65 251.68,-218.73 245.87,-216.17"/>
<polygon fill="red" stroke="red" stroke-width="1.47" points="246.5,-212.71 235.93,-213.39 244.62,-219.45 246.5,-212.71"/>
<text text-anchor="middle" x="269.28" y="-225.72" font-family="Times,serif" font-size="9.00">0.046</text>
</g>
</g>
</svg>
