<?xml version="1.0" encoding="UTF-8" standalone="no"?>
<!DOCTYPE svg PUBLIC "-//W3C//DTD SVG 1.1//EN"
 "http://www.w3.org/Graphics/SVG/1.1/DTD/svg11.dtd">
<!-- Generated by graphviz version 2.43.0 (0)
 -->
<!-- Title: %3 Pages: 1 -->
<svg width="560pt" height="1174pt"
 viewBox="0.00 0.00 559.64 1173.95" xmlns="http://www.w3.org/2000/svg" xmlns:xlink="http://www.w3.org/1999/xlink">
<g id="graph0" class="graph" transform="scale(1 1) rotate(0) translate(4 1169.95)">
<title>%3</title>
<polygon fill="white" stroke="transparent" points="-4,4 -4,-1169.95 555.64,-1169.95 555.64,4 -4,4"/>
<!-- ready -->
<g id="node1" class="node">
<title>ready</title>
<polygon fill="yellow" stroke="black" points="420.14,-1165.95 377.14,-1165.95 377.14,-1147.95 420.14,-1147.95 420.14,-1165.95"/>
<text text-anchor="middle" x="398.64" y="-1154.75" font-family="Times,serif" font-size="9.00">ready</text>
</g>
<!-- key 84835
bias &#45;0.420
h_scaling 1.000 -->
<g id="node4" class="node">
<title>key 84835
bias &#45;0.420
h_scaling 1.000</title>
<ellipse fill="white" stroke="black" cx="182.64" cy="-1047.31" rx="63.78" ry="63.78"/>
<text text-anchor="middle" x="182.64" y="-1055.11" font-family="Times,serif" font-size="9.00">key 84835</text>
<text text-anchor="middle" x="182.64" y="-1045.11" font-family="Times,serif" font-size="9.00">bias &#45;0.420</text>
<text text-anchor="middle" x="182.64" y="-1035.11" font-family="Times,serif" font-size="9.00">h_scaling 1.000</text>
</g>
<!-- ready&#45;&gt;key 84835
bias &#45;0.420
h_scaling 1.000 -->
<g id="edge15" class="edge">
<title>ready&#45;&gt;key 84835
bias &#45;0.420
h_scaling 1.000</title>
<path fill="none" stroke="blue" stroke-width="0.1" d="M376.79,-1151.76C357.72,-1147.64 329.58,-1140.44 306.64,-1129.95 284.28,-1119.73 261.37,-1105.8 241.43,-1092.33"/>
<polygon fill="blue" stroke="blue" stroke-width="0.1" points="243.3,-1089.37 233.07,-1086.6 239.34,-1095.14 243.3,-1089.37"/>
</g>
<!-- key 133348
bias 0.247
h_scaling 1.000 -->
<g id="node5" class="node">
<title>key 133348
bias 0.247
h_scaling 1.000</title>
<ellipse fill="white" stroke="black" cx="456.64" cy="-63.64" rx="63.78" ry="63.78"/>
<text text-anchor="middle" x="456.64" y="-71.44" font-family="Times,serif" font-size="9.00">key 133348</text>
<text text-anchor="middle" x="456.64" y="-61.44" font-family="Times,serif" font-size="9.00">bias 0.247</text>
<text text-anchor="middle" x="456.64" y="-51.44" font-family="Times,serif" font-size="9.00">h_scaling 1.000</text>
</g>
<!-- ready&#45;&gt;key 133348
bias 0.247
h_scaling 1.000 -->
<g id="edge20" class="edge">
<title>ready&#45;&gt;key 133348
bias 0.247
h_scaling 1.000</title>
<path fill="none" stroke="red" stroke-width="0.37" d="M420.45,-1155.25C441.17,-1153.46 471.99,-1147.72 491.64,-1129.95 520.55,-1103.82 523.64,-1087.29 523.64,-1048.31 523.64,-1048.31 523.64,-1048.31 523.64,-235.92 523.64,-198.28 509.44,-159 494.11,-127.56"/>
<polygon fill="red" stroke="red" stroke-width="0.37" points="497.17,-125.85 489.55,-118.48 490.91,-128.99 497.17,-125.85"/>
<text text-anchor="middle" x="537.64" y="-698.56" font-family="Times,serif" font-size="9.00">0.009</text>
</g>
<!-- key 1883
bias 0.263
h_scaling 1.000 -->
<g id="node8" class="node">
<title>key 1883
bias 0.263
h_scaling 1.000</title>
<ellipse fill="white" stroke="black" cx="174.64" cy="-63.64" rx="63.78" ry="63.78"/>
<text text-anchor="middle" x="174.64" y="-71.44" font-family="Times,serif" font-size="9.00">key 1883</text>
<text text-anchor="middle" x="174.64" y="-61.44" font-family="Times,serif" font-size="9.00">bias 0.263</text>
<text text-anchor="middle" x="174.64" y="-51.44" font-family="Times,serif" font-size="9.00">h_scaling 1.000</text>
</g>
<!-- ready&#45;&gt;key 1883
bias 0.263
h_scaling 1.000 -->
<g id="edge5" class="edge">
<title>ready&#45;&gt;key 1883
bias 0.263
h_scaling 1.000</title>
<path fill="none" stroke="blue" stroke-width="0.1" d="M410.64,-1147.73C432.74,-1131.51 477.64,-1093.05 477.64,-1048.31 477.64,-1048.31 477.64,-1048.31 477.64,-235.92 477.64,-191.89 470.56,-174.52 437.64,-145.28 433.89,-141.95 321.71,-108.24 245.09,-85.47"/>
<polygon fill="blue" stroke="blue" stroke-width="0.1" points="246.05,-82.1 235.47,-82.61 244.06,-88.81 246.05,-82.1"/>
</g>
<!-- key 21726
bias &#45;0.560
h_scaling 1.000 -->
<g id="node9" class="node">
<title>key 21726
bias &#45;0.560
h_scaling 1.000</title>
<ellipse fill="white" stroke="black" cx="220.64" cy="-874.04" rx="63.78" ry="63.78"/>
<text text-anchor="middle" x="220.64" y="-881.84" font-family="Times,serif" font-size="9.00">key 21726</text>
<text text-anchor="middle" x="220.64" y="-871.84" font-family="Times,serif" font-size="9.00">bias &#45;0.560</text>
<text text-anchor="middle" x="220.64" y="-861.84" font-family="Times,serif" font-size="9.00">h_scaling 1.000</text>
</g>
<!-- ready&#45;&gt;key 21726
bias &#45;0.560
h_scaling 1.000 -->
<g id="edge8" class="edge">
<title>ready&#45;&gt;key 21726
bias &#45;0.560
h_scaling 1.000</title>
<path fill="none" stroke="blue" stroke-width="0.1" d="M393.99,-1147.62C375.34,-1114.24 306.81,-991.62 301.64,-983.68 290.66,-966.8 277.97,-949.06 265.94,-932.93"/>
<polygon fill="blue" stroke="blue" stroke-width="0.1" points="268.52,-930.55 259.72,-924.65 262.93,-934.75 268.52,-930.55"/>
</g>
<!-- go -->
<g id="node2" class="node">
<title>go</title>
<polygon fill="green" stroke="black" points="410.64,-1056.31 382.64,-1056.31 382.64,-1038.31 410.64,-1038.31 410.64,-1056.31"/>
<text text-anchor="middle" x="396.64" y="-1045.11" font-family="Times,serif" font-size="9.00">go</text>
</g>
<!-- key 9146
bias 0.402
h_scaling 1.000 -->
<g id="node7" class="node">
<title>key 9146
bias 0.402
h_scaling 1.000</title>
<ellipse fill="white" stroke="black" cx="342.64" cy="-236.92" rx="63.78" ry="63.78"/>
<text text-anchor="middle" x="342.64" y="-244.72" font-family="Times,serif" font-size="9.00">key 9146</text>
<text text-anchor="middle" x="342.64" y="-234.72" font-family="Times,serif" font-size="9.00">bias 0.402</text>
<text text-anchor="middle" x="342.64" y="-224.72" font-family="Times,serif" font-size="9.00">h_scaling 1.000</text>
</g>
<!-- go&#45;&gt;key 9146
bias 0.402
h_scaling 1.000 -->
<g id="edge10" class="edge">
<title>go&#45;&gt;key 9146
bias 0.402
h_scaling 1.000</title>
<path fill="none" stroke="blue" stroke-width="0.1" d="M396.64,-1038.11C396.64,-1013.45 396.64,-937.78 396.64,-875.04 396.64,-875.04 396.64,-875.04 396.64,-409.2 396.64,-373.31 385.72,-335.07 373.71,-303.85"/>
<polygon fill="blue" stroke="blue" stroke-width="0.1" points="376.9,-302.4 369.96,-294.4 370.39,-304.98 376.9,-302.4"/>
</g>
<!-- go&#45;&gt;key 1883
bias 0.263
h_scaling 1.000 -->
<g id="edge1" class="edge">
<title>go&#45;&gt;key 1883
bias 0.263
h_scaling 1.000</title>
<path fill="none" stroke="red" stroke-width="0.41" d="M399.75,-1038.26C408.82,-1013.99 434.64,-939.3 434.64,-875.04 434.64,-875.04 434.64,-875.04 434.64,-235.92 434.64,-195.16 447.01,-176.36 420.64,-145.28 414.69,-138.27 315.93,-107.3 245.38,-85.85"/>
<polygon fill="red" stroke="red" stroke-width="0.41" points="246.21,-82.44 235.62,-82.89 244.18,-89.14 246.21,-82.44"/>
<text text-anchor="middle" x="448.64" y="-553.28" font-family="Times,serif" font-size="9.00">0.010</text>
</g>
<!-- go&#45;&gt;key 21726
bias &#45;0.560
h_scaling 1.000 -->
<g id="edge6" class="edge">
<title>go&#45;&gt;key 21726
bias &#45;0.560
h_scaling 1.000</title>
<path fill="none" stroke="red" stroke-width="0.41" d="M392.01,-1038.15C382.28,-1021.43 358.39,-982.6 331.64,-955.68 316.92,-940.87 299.27,-926.74 282.42,-914.57"/>
<polygon fill="red" stroke="red" stroke-width="0.41" points="284.41,-911.69 274.22,-908.76 280.35,-917.4 284.41,-911.69"/>
<text text-anchor="middle" x="353.64" y="-958.48" font-family="Times,serif" font-size="9.00">0.010</text>
</g>
<!-- output
bias 0.687
h_scaling 1.000 -->
<g id="node3" class="node">
<title>output
bias 0.687
h_scaling 1.000</title>
<ellipse fill="lightblue" stroke="black" cx="63.64" cy="-555.48" rx="63.78" ry="63.78"/>
<text text-anchor="middle" x="63.64" y="-563.28" font-family="Times,serif" font-size="9.00">output</text>
<text text-anchor="middle" x="63.64" y="-553.28" font-family="Times,serif" font-size="9.00">bias 0.687</text>
<text text-anchor="middle" x="63.64" y="-543.28" font-family="Times,serif" font-size="9.00">h_scaling 1.000</text>
</g>
<!-- output
bias 0.687
h_scaling 1.000&#45;&gt;key 84835
bias &#45;0.420
h_scaling 1.000 -->
<g id="edge11" class="edge">
<title>output
bias 0.687
h_scaling 1.000&#45;&gt;key 84835
bias &#45;0.420
h_scaling 1.000</title>
<path fill="none" stroke="red" stroke-width="0.87" d="M64.06,-619.16C66.52,-696.63 77.27,-831.25 119.64,-937.68 125.98,-953.59 134.36,-969.97 142.93,-985.03"/>
<polygon fill="red" stroke="red" stroke-width="0.87" points="139.94,-986.85 147.99,-993.74 145.99,-983.33 139.94,-986.85"/>
<text text-anchor="middle" x="133.64" y="-871.84" font-family="Times,serif" font-size="9.00">0.026</text>
</g>
<!-- output
bias 0.687
h_scaling 1.000&#45;&gt;key 1883
bias 0.263
h_scaling 1.000 -->
<g id="edge4" class="edge">
<title>output
bias 0.687
h_scaling 1.000&#45;&gt;key 1883
bias 0.263
h_scaling 1.000</title>
<path fill="none" stroke="blue" stroke-width="0.1" d="M52.43,-492.67C45.15,-409.95 46,-260.33 95.64,-145.28 100.91,-133.07 108.72,-121.37 117.43,-110.86"/>
<polygon fill="blue" stroke="blue" stroke-width="0.1" points="120.3,-112.9 124.24,-103.06 115.03,-108.29 120.3,-112.9"/>
</g>
<!-- key 84835
bias &#45;0.420
h_scaling 1.000&#45;&gt;key 84835
bias &#45;0.420
h_scaling 1.000 -->
<g id="edge13" class="edge">
<title>key 84835
bias &#45;0.420
h_scaling 1.000&#45;&gt;key 84835
bias &#45;0.420
h_scaling 1.000</title>
<path fill="none" stroke="red" stroke-width="2.08" d="M244.93,-1061.85C256.3,-1060.01 264.28,-1055.16 264.28,-1047.31 264.28,-1042.04 260.68,-1038.13 254.87,-1035.57"/>
<polygon fill="red" stroke="red" stroke-width="2.08" points="255.5,-1032.11 244.93,-1032.78 253.62,-1038.85 255.5,-1032.11"/>
<text text-anchor="middle" x="278.28" y="-1045.11" font-family="Times,serif" font-size="9.00">0.066</text>
</g>
<!-- key 84835
bias &#45;0.420
h_scaling 1.000&#45;&gt;key 21726
bias &#45;0.560
h_scaling 1.000 -->
<g id="edge12" class="edge">
<title>key 84835
bias &#45;0.420
h_scaling 1.000&#45;&gt;key 21726
bias &#45;0.560
h_scaling 1.000</title>
<path fill="none" stroke="red" stroke-width="1.91" d="M196.25,-984.96C199.05,-972.34 202.02,-958.95 204.89,-946.02"/>
<polygon fill="red" stroke="red" stroke-width="1.91" points="208.31,-946.77 207.06,-936.25 201.48,-945.25 208.31,-946.77"/>
<text text-anchor="middle" x="215.64" y="-958.48" font-family="Times,serif" font-size="9.00">0.060</text>
</g>
<!-- key 132968
bias &#45;0.920
h_scaling 1.000 -->
<g id="node6" class="node">
<title>key 132968
bias &#45;0.920
h_scaling 1.000</title>
<ellipse fill="white" stroke="black" cx="249.64" cy="-700.76" rx="63.78" ry="63.78"/>
<text text-anchor="middle" x="249.64" y="-708.56" font-family="Times,serif" font-size="9.00">key 132968</text>
<text text-anchor="middle" x="249.64" y="-698.56" font-family="Times,serif" font-size="9.00">bias &#45;0.920</text>
<text text-anchor="middle" x="249.64" y="-688.56" font-family="Times,serif" font-size="9.00">h_scaling 1.000</text>
</g>
<!-- key 132968
bias &#45;0.920
h_scaling 1.000&#45;&gt;key 9146
bias 0.402
h_scaling 1.000 -->
<g id="edge17" class="edge">
<title>key 132968
bias &#45;0.920
h_scaling 1.000&#45;&gt;key 9146
bias 0.402
h_scaling 1.000</title>
<path fill="none" stroke="blue" stroke-width="0.1" d="M281.15,-645.37C285.62,-636.72 289.95,-627.77 293.64,-619.12 320.21,-556.82 328.87,-540.7 339.64,-473.84 348.38,-419.58 348.78,-357.4 347.19,-310.5"/>
<polygon fill="blue" stroke="blue" stroke-width="0.1" points="350.68,-310.3 346.8,-300.44 343.69,-310.56 350.68,-310.3"/>
</g>
<!-- key 132968
bias &#45;0.920
h_scaling 1.000&#45;&gt;key 1883
bias 0.263
h_scaling 1.000 -->
<g id="edge19" class="edge">
<title>key 132968
bias &#45;0.920
h_scaling 1.000&#45;&gt;key 1883
bias 0.263
h_scaling 1.000</title>
<path fill="none" stroke="red" stroke-width="1.2" d="M231.27,-639.51C218.35,-594.36 201.94,-530.82 193.64,-473.84 176.63,-357.08 173.69,-219.8 173.72,-137.63"/>
<polygon fill="red" stroke="red" stroke-width="1.2" points="177.22,-137.4 173.74,-127.4 170.22,-137.39 177.22,-137.4"/>
<text text-anchor="middle" x="193.64" y="-321.36" font-family="Times,serif" font-size="9.00">0.037</text>
</g>
<!-- key 365887
bias &#45;0.508
h_scaling 1.000 -->
<g id="node10" class="node">
<title>key 365887
bias &#45;0.508
h_scaling 1.000</title>
<ellipse fill="white" stroke="black" cx="266.64" cy="-410.2" rx="63.78" ry="63.78"/>
<text text-anchor="middle" x="266.64" y="-418" font-family="Times,serif" font-size="9.00">key 365887</text>
<text text-anchor="middle" x="266.64" y="-408" font-family="Times,serif" font-size="9.00">bias &#45;0.508</text>
<text text-anchor="middle" x="266.64" y="-398" font-family="Times,serif" font-size="9.00">h_scaling 1.000</text>
</g>
<!-- key 132968
bias &#45;0.920
h_scaling 1.000&#45;&gt;key 365887
bias &#45;0.508
h_scaling 1.000 -->
<g id="edge21" class="edge">
<title>key 132968
bias &#45;0.920
h_scaling 1.000&#45;&gt;key 365887
bias &#45;0.508
h_scaling 1.000</title>
<path fill="none" stroke="red" stroke-width="0.61" d="M253.33,-637.14C255.98,-592.21 259.55,-531.51 262.33,-484.34"/>
<polygon fill="red" stroke="red" stroke-width="0.61" points="265.83,-484.37 262.93,-474.19 258.85,-483.96 265.83,-484.37"/>
<text text-anchor="middle" x="275.64" y="-553.28" font-family="Times,serif" font-size="9.00">0.017</text>
</g>
<!-- key 9146
bias 0.402
h_scaling 1.000&#45;&gt;key 133348
bias 0.247
h_scaling 1.000 -->
<g id="edge18" class="edge">
<title>key 9146
bias 0.402
h_scaling 1.000&#45;&gt;key 133348
bias 0.247
h_scaling 1.000</title>
<path fill="none" stroke="red" stroke-width="0.72" d="M377.46,-183.6C389.73,-165.17 403.61,-144.31 416.29,-125.26"/>
<polygon fill="red" stroke="red" stroke-width="0.72" points="419.21,-127.2 421.83,-116.93 413.38,-123.32 419.21,-127.2"/>
<text text-anchor="middle" x="413.64" y="-148.08" font-family="Times,serif" font-size="9.00">0.021</text>
</g>
<!-- key 9146
bias 0.402
h_scaling 1.000&#45;&gt;key 1883
bias 0.263
h_scaling 1.000 -->
<g id="edge3" class="edge">
<title>key 9146
bias 0.402
h_scaling 1.000&#45;&gt;key 1883
bias 0.263
h_scaling 1.000</title>
<path fill="none" stroke="blue" stroke-width="0.1" d="M298.5,-190.92C276.21,-168.19 249.04,-140.5 225.84,-116.84"/>
<polygon fill="blue" stroke="blue" stroke-width="0.1" points="228.28,-114.33 218.78,-109.64 223.28,-119.23 228.28,-114.33"/>
</g>
<!-- key 1883
bias 0.263
h_scaling 1.000&#45;&gt;output
bias 0.687
h_scaling 1.000 -->
<g id="edge2" class="edge">
<title>key 1883
bias 0.263
h_scaling 1.000&#45;&gt;output
bias 0.687
h_scaling 1.000</title>
<path fill="none" stroke="blue" stroke-width="0.1" d="M133.74,-112.51C125.91,-122.59 118.63,-133.7 113.64,-145.28 66.14,-255.36 63.31,-397.09 64.45,-481.59"/>
<polygon fill="blue" stroke="blue" stroke-width="0.1" points="60.95,-481.66 64.61,-491.6 67.95,-481.55 60.95,-481.66"/>
</g>
<!-- key 21726
bias &#45;0.560
h_scaling 1.000&#45;&gt;output
bias 0.687
h_scaling 1.000 -->
<g id="edge14" class="edge">
<title>key 21726
bias &#45;0.560
h_scaling 1.000&#45;&gt;output
bias 0.687
h_scaling 1.000</title>
<path fill="none" stroke="blue" stroke-width="0.1" d="M168.52,-836.54C153.82,-824.02 139.02,-808.95 128.64,-792.4 111.47,-765 91.74,-686.8 78.56,-627.88"/>
<polygon fill="blue" stroke="blue" stroke-width="0.1" points="81.92,-626.87 76.34,-617.86 75.09,-628.38 81.92,-626.87"/>
</g>
<!-- key 21726
bias &#45;0.560
h_scaling 1.000&#45;&gt;key 132968
bias &#45;0.920
h_scaling 1.000 -->
<g id="edge16" class="edge">
<title>key 21726
bias &#45;0.560
h_scaling 1.000&#45;&gt;key 132968
bias &#45;0.920
h_scaling 1.000</title>
<path fill="none" stroke="red" stroke-width="0.95" d="M231.11,-811.2C233.17,-799.03 235.35,-786.16 237.46,-773.68"/>
<polygon fill="red" stroke="red" stroke-width="0.95" points="240.92,-774.23 239.14,-763.79 234.02,-773.06 240.92,-774.23"/>
<text text-anchor="middle" x="249.64" y="-785.2" font-family="Times,serif" font-size="9.00">0.028</text>
</g>
<!-- key 21726
bias &#45;0.560
h_scaling 1.000&#45;&gt;key 1883
bias 0.263
h_scaling 1.000 -->
<g id="edge7" class="edge">
<title>key 21726
bias &#45;0.560
h_scaling 1.000&#45;&gt;key 1883
bias 0.263
h_scaling 1.000</title>
<path fill="none" stroke="red" stroke-width="0.89" d="M193.94,-815.99C187.29,-799.65 180.86,-781.59 176.64,-764.4 121.85,-540.95 147.03,-265.18 163.84,-136.76"/>
<polygon fill="red" stroke="red" stroke-width="0.89" points="167.34,-137.03 165.19,-126.66 160.4,-136.11 167.34,-137.03"/>
<text text-anchor="middle" x="159.64" y="-408" font-family="Times,serif" font-size="9.00">0.026</text>
</g>
<!-- key 21726
bias &#45;0.560
h_scaling 1.000&#45;&gt;key 21726
bias &#45;0.560
h_scaling 1.000 -->
<g id="edge9" class="edge">
<title>key 21726
bias &#45;0.560
h_scaling 1.000&#45;&gt;key 21726
bias &#45;0.560
h_scaling 1.000</title>
<path fill="none" stroke="red" stroke-width="1.21" d="M282.58,-889.33C294.14,-887.45 302.28,-882.35 302.28,-874.04 302.28,-868.32 298.43,-864.12 292.27,-861.45"/>
<polygon fill="red" stroke="red" stroke-width="1.21" points="293.16,-858.06 282.58,-858.74 291.27,-864.8 293.16,-858.06"/>
<text text-anchor="middle" x="316.28" y="-871.84" font-family="Times,serif" font-size="9.00">0.037</text>
</g>
<!-- key 365887
bias &#45;0.508
h_scaling 1.000&#45;&gt;key 9146
bias 0.402
h_scaling 1.000 -->
<g id="edge22" class="edge">
<title>key 365887
bias &#45;0.508
h_scaling 1.000&#45;&gt;key 9146
bias 0.402
h_scaling 1.000</title>
<path fill="none" stroke="blue" stroke-width="0.1" d="M292.16,-351.69C298.84,-336.64 306.09,-320.28 312.97,-304.79"/>
<polygon fill="blue" stroke="blue" stroke-width="0.1" points="316.33,-305.84 317.19,-295.28 309.93,-303 316.33,-305.84"/>
</g>
</g>
</svg>
