<?xml version="1.0" encoding="UTF-8" standalone="no"?>
<!DOCTYPE svg PUBLIC "-//W3C//DTD SVG 1.1//EN"
 "http://www.w3.org/Graphics/SVG/1.1/DTD/svg11.dtd">
<!-- Generated by graphviz version 2.43.0 (0)
 -->
<!-- Title: %3 Pages: 1 -->
<svg width="564pt" height="1183pt"
 viewBox="0.00 0.00 564.39 1182.95" xmlns="http://www.w3.org/2000/svg" xmlns:xlink="http://www.w3.org/1999/xlink">
<g id="graph0" class="graph" transform="scale(1 1) rotate(0) translate(4 1178.95)">
<title>%3</title>
<polygon fill="white" stroke="transparent" points="-4,4 -4,-1178.95 560.39,-1178.95 560.39,4 -4,4"/>
<!-- ready -->
<g id="node1" class="node">
<title>ready</title>
<polygon fill="yellow" stroke="black" points="395.25,-1174.95 352.25,-1174.95 352.25,-1156.95 395.25,-1156.95 395.25,-1174.95"/>
<text text-anchor="middle" x="373.75" y="-1163.75" font-family="Times,serif" font-size="9.00">ready</text>
</g>
<!-- key 84835
bias &#45;0.420
h_scaling 1.000 -->
<g id="node4" class="node">
<title>key 84835
bias &#45;0.420
h_scaling 1.000</title>
<ellipse fill="white" stroke="black" cx="92.75" cy="-1047.31" rx="63.78" ry="63.78"/>
<text text-anchor="middle" x="92.75" y="-1055.11" font-family="Times,serif" font-size="9.00">key 84835</text>
<text text-anchor="middle" x="92.75" y="-1045.11" font-family="Times,serif" font-size="9.00">bias &#45;0.420</text>
<text text-anchor="middle" x="92.75" y="-1035.11" font-family="Times,serif" font-size="9.00">h_scaling 1.000</text>
</g>
<!-- ready&#45;&gt;key 84835
bias &#45;0.420
h_scaling 1.000 -->
<g id="edge15" class="edge">
<title>ready&#45;&gt;key 84835
bias &#45;0.420
h_scaling 1.000</title>
<path fill="none" stroke="blue" stroke-width="0.69" d="M352.11,-1158.96C320.65,-1149.98 260.7,-1131.83 211.75,-1110.95 193.55,-1103.19 174.36,-1093.71 156.84,-1084.49"/>
<polygon fill="blue" stroke="blue" stroke-width="0.69" points="158.31,-1081.31 147.83,-1079.7 155.02,-1087.49 158.31,-1081.31"/>
<text text-anchor="middle" x="301.25" y="-1131.75" font-family="Times,serif" font-size="9.00">&#45;0.195</text>
</g>
<!-- key 133348
bias 0.247
h_scaling 1.000 -->
<g id="node5" class="node">
<title>key 133348
bias 0.247
h_scaling 1.000</title>
<ellipse fill="white" stroke="black" cx="492.75" cy="-63.64" rx="63.78" ry="63.78"/>
<text text-anchor="middle" x="492.75" y="-71.44" font-family="Times,serif" font-size="9.00">key 133348</text>
<text text-anchor="middle" x="492.75" y="-61.44" font-family="Times,serif" font-size="9.00">bias 0.247</text>
<text text-anchor="middle" x="492.75" y="-51.44" font-family="Times,serif" font-size="9.00">h_scaling 1.000</text>
</g>
<!-- ready&#45;&gt;key 133348
bias 0.247
h_scaling 1.000 -->
<g id="edge20" class="edge">
<title>ready&#45;&gt;key 133348
bias 0.247
h_scaling 1.000</title>
<path fill="none" stroke="red" stroke-width="1.3" d="M395.49,-1159.48C437.94,-1147.33 527.75,-1113.88 527.75,-1048.31 527.75,-1048.31 527.75,-1048.31 527.75,-235.92 527.75,-202.1 521.12,-165.26 513.62,-134.45"/>
<polygon fill="red" stroke="red" stroke-width="1.3" points="517,-133.52 511.17,-124.67 510.21,-135.22 517,-133.52"/>
<text text-anchor="middle" x="541.75" y="-698.56" font-family="Times,serif" font-size="9.00">0.401</text>
</g>
<!-- key 1883
bias 0.263
h_scaling 1.000 -->
<g id="node8" class="node">
<title>key 1883
bias 0.263
h_scaling 1.000</title>
<ellipse fill="white" stroke="black" cx="136.75" cy="-63.64" rx="63.78" ry="63.78"/>
<text text-anchor="middle" x="136.75" y="-71.44" font-family="Times,serif" font-size="9.00">key 1883</text>
<text text-anchor="middle" x="136.75" y="-61.44" font-family="Times,serif" font-size="9.00">bias 0.263</text>
<text text-anchor="middle" x="136.75" y="-51.44" font-family="Times,serif" font-size="9.00">h_scaling 1.000</text>
</g>
<!-- ready&#45;&gt;key 1883
bias 0.263
h_scaling 1.000 -->
<g id="edge5" class="edge">
<title>ready&#45;&gt;key 1883
bias 0.263
h_scaling 1.000</title>
<path fill="none" stroke="blue" stroke-width="0.92" d="M351.86,-1164.58C282.62,-1162.94 69.91,-1154.41 19.75,-1110.95 -2.24,-1091.91 0.75,-1077.41 0.75,-1048.31 0.75,-1048.31 0.75,-1048.31 0.75,-235.92 0.75,-183.46 40.37,-137.73 76.84,-106.75"/>
<polygon fill="blue" stroke="blue" stroke-width="0.92" points="79.08,-109.44 84.56,-100.37 74.62,-104.04 79.08,-109.44"/>
<text text-anchor="middle" x="16.25" y="-698.56" font-family="Times,serif" font-size="9.00">&#45;0.273</text>
</g>
<!-- key 21726
bias &#45;0.560
h_scaling 1.000 -->
<g id="node9" class="node">
<title>key 21726
bias &#45;0.560
h_scaling 1.000</title>
<ellipse fill="white" stroke="black" cx="222.75" cy="-874.04" rx="63.78" ry="63.78"/>
<text text-anchor="middle" x="222.75" y="-881.84" font-family="Times,serif" font-size="9.00">key 21726</text>
<text text-anchor="middle" x="222.75" y="-871.84" font-family="Times,serif" font-size="9.00">bias &#45;0.560</text>
<text text-anchor="middle" x="222.75" y="-861.84" font-family="Times,serif" font-size="9.00">h_scaling 1.000</text>
</g>
<!-- ready&#45;&gt;key 21726
bias &#45;0.560
h_scaling 1.000 -->
<g id="edge8" class="edge">
<title>ready&#45;&gt;key 21726
bias &#45;0.560
h_scaling 1.000</title>
<path fill="none" stroke="blue" stroke-width="1.57" d="M369.55,-1156.9C353.47,-1126.03 294.78,-1013.34 256.66,-940.14"/>
<polygon fill="blue" stroke="blue" stroke-width="1.57" points="259.61,-938.23 251.88,-930.98 253.4,-941.46 259.61,-938.23"/>
<text text-anchor="middle" x="360.25" y="-1045.11" font-family="Times,serif" font-size="9.00">&#45;0.488</text>
</g>
<!-- go -->
<g id="node2" class="node">
<title>go</title>
<polygon fill="green" stroke="black" points="248.75,-1056.31 220.75,-1056.31 220.75,-1038.31 248.75,-1038.31 248.75,-1056.31"/>
<text text-anchor="middle" x="234.75" y="-1045.11" font-family="Times,serif" font-size="9.00">go</text>
</g>
<!-- key 9146
bias 0.402
h_scaling 1.000 -->
<g id="node7" class="node">
<title>key 9146
bias 0.402
h_scaling 1.000</title>
<ellipse fill="white" stroke="black" cx="430.75" cy="-236.92" rx="63.78" ry="63.78"/>
<text text-anchor="middle" x="430.75" y="-244.72" font-family="Times,serif" font-size="9.00">key 9146</text>
<text text-anchor="middle" x="430.75" y="-234.72" font-family="Times,serif" font-size="9.00">bias 0.402</text>
<text text-anchor="middle" x="430.75" y="-224.72" font-family="Times,serif" font-size="9.00">h_scaling 1.000</text>
</g>
<!-- go&#45;&gt;key 9146
bias 0.402
h_scaling 1.000 -->
<g id="edge10" class="edge">
<title>go&#45;&gt;key 9146
bias 0.402
h_scaling 1.000</title>
<path fill="none" stroke="blue" stroke-width="2.76" d="M239.08,-1037.92C245.9,-1025.2 260.11,-1000.74 276.75,-983.68 301.46,-958.34 321.63,-966.79 341.75,-937.68 361.88,-908.53 446.43,-560.74 456.75,-473.84 463.42,-417.66 463.38,-402.74 456.75,-346.56 455.28,-334.1 452.89,-320.99 450.14,-308.37"/>
<polygon fill="blue" stroke="blue" stroke-width="2.76" points="453.5,-307.35 447.87,-298.37 446.67,-308.9 453.5,-307.35"/>
<text text-anchor="middle" x="439.25" y="-698.56" font-family="Times,serif" font-size="9.00">&#45;0.886</text>
</g>
<!-- go&#45;&gt;key 1883
bias 0.263
h_scaling 1.000 -->
<g id="edge1" class="edge">
<title>go&#45;&gt;key 1883
bias 0.263
h_scaling 1.000</title>
<path fill="none" stroke="red" stroke-width="2.77" d="M233.34,-1038.29C230.81,-1025.64 224.51,-1000.75 211.75,-983.68 191.2,-956.2 169.24,-965.92 149.75,-937.68 116.36,-889.29 133,-865.94 113.75,-810.4 83.62,-723.49 52.65,-709.34 34.75,-619.12 -3.99,-423.85 15.91,-362.5 77.75,-173.28 82.88,-157.57 90.27,-141.48 98.08,-126.66"/>
<polygon fill="red" stroke="red" stroke-width="2.77" points="101.3,-128.07 102.99,-117.61 95.15,-124.73 101.3,-128.07"/>
<text text-anchor="middle" x="48.75" y="-553.28" font-family="Times,serif" font-size="9.00">0.891</text>
</g>
<!-- go&#45;&gt;key 21726
bias &#45;0.560
h_scaling 1.000 -->
<g id="edge6" class="edge">
<title>go&#45;&gt;key 21726
bias &#45;0.560
h_scaling 1.000</title>
<path fill="none" stroke="red" stroke-width="1.96" d="M234.17,-1038.05C233.02,-1021.63 230.34,-983.42 227.87,-948.12"/>
<polygon fill="red" stroke="red" stroke-width="1.96" points="231.33,-947.5 227.14,-937.77 224.35,-947.99 231.33,-947.5"/>
<text text-anchor="middle" x="242.75" y="-958.48" font-family="Times,serif" font-size="9.00">0.620</text>
</g>
<!-- output
bias 0.687
h_scaling 1.000 -->
<g id="node3" class="node">
<title>output
bias 0.687
h_scaling 1.000</title>
<ellipse fill="lightblue" stroke="black" cx="135.75" cy="-555.48" rx="63.78" ry="63.78"/>
<text text-anchor="middle" x="135.75" y="-563.28" font-family="Times,serif" font-size="9.00">output</text>
<text text-anchor="middle" x="135.75" y="-553.28" font-family="Times,serif" font-size="9.00">bias 0.687</text>
<text text-anchor="middle" x="135.75" y="-543.28" font-family="Times,serif" font-size="9.00">h_scaling 1.000</text>
</g>
<!-- output
bias 0.687
h_scaling 1.000&#45;&gt;key 84835
bias &#45;0.420
h_scaling 1.000 -->
<g id="edge11" class="edge">
<title>output
bias 0.687
h_scaling 1.000&#45;&gt;key 84835
bias &#45;0.420
h_scaling 1.000</title>
<path fill="none" stroke="red" stroke-width="0.64" d="M120.31,-617.3C108.17,-668.43 92.26,-743.66 85.75,-810.4 80.26,-866.7 83.93,-881.14 85.75,-937.68 86.12,-949.33 86.72,-961.69 87.42,-973.72"/>
<polygon fill="red" stroke="red" stroke-width="0.64" points="83.93,-973.96 88.02,-983.73 90.92,-973.54 83.93,-973.96"/>
<text text-anchor="middle" x="99.75" y="-871.84" font-family="Times,serif" font-size="9.00">0.179</text>
</g>
<!-- output
bias 0.687
h_scaling 1.000&#45;&gt;key 1883
bias 0.263
h_scaling 1.000 -->
<g id="edge4" class="edge">
<title>output
bias 0.687
h_scaling 1.000&#45;&gt;key 1883
bias 0.263
h_scaling 1.000</title>
<path fill="none" stroke="blue" stroke-width="3.1" d="M135.88,-491.44C136.06,-400.69 136.4,-233.62 136.6,-137.63"/>
<polygon fill="blue" stroke="blue" stroke-width="3.1" points="140.1,-137.44 136.62,-127.43 133.1,-137.43 140.1,-137.44"/>
<text text-anchor="middle" x="151.25" y="-321.36" font-family="Times,serif" font-size="9.00">&#45;1.000</text>
</g>
<!-- key 84835
bias &#45;0.420
h_scaling 1.000&#45;&gt;key 84835
bias &#45;0.420
h_scaling 1.000 -->
<g id="edge13" class="edge">
<title>key 84835
bias &#45;0.420
h_scaling 1.000&#45;&gt;key 84835
bias &#45;0.420
h_scaling 1.000</title>
<path fill="none" stroke="red" stroke-width="2.6" d="M154.69,-1062.61C166.25,-1060.73 174.39,-1055.63 174.39,-1047.31 174.39,-1041.6 170.54,-1037.4 164.38,-1034.73"/>
<polygon fill="red" stroke="red" stroke-width="2.6" points="165.26,-1031.34 154.69,-1032.02 163.38,-1038.08 165.26,-1031.34"/>
<text text-anchor="middle" x="188.39" y="-1045.11" font-family="Times,serif" font-size="9.00">0.834</text>
</g>
<!-- key 84835
bias &#45;0.420
h_scaling 1.000&#45;&gt;key 21726
bias &#45;0.560
h_scaling 1.000 -->
<g id="edge12" class="edge">
<title>key 84835
bias &#45;0.420
h_scaling 1.000&#45;&gt;key 21726
bias &#45;0.560
h_scaling 1.000</title>
<path fill="none" stroke="red" stroke-width="0.58" d="M131.05,-995.85C145.99,-976.16 163.21,-953.47 178.67,-933.11"/>
<polygon fill="red" stroke="red" stroke-width="0.58" points="181.46,-935.22 184.72,-925.14 175.89,-930.99 181.46,-935.22"/>
<text text-anchor="middle" x="171.75" y="-958.48" font-family="Times,serif" font-size="9.00">0.161</text>
</g>
<!-- key 132968
bias &#45;0.920
h_scaling 1.000 -->
<g id="node6" class="node">
<title>key 132968
bias &#45;0.920
h_scaling 1.000</title>
<ellipse fill="white" stroke="black" cx="313.75" cy="-700.76" rx="63.78" ry="63.78"/>
<text text-anchor="middle" x="313.75" y="-708.56" font-family="Times,serif" font-size="9.00">key 132968</text>
<text text-anchor="middle" x="313.75" y="-698.56" font-family="Times,serif" font-size="9.00">bias &#45;0.920</text>
<text text-anchor="middle" x="313.75" y="-688.56" font-family="Times,serif" font-size="9.00">h_scaling 1.000</text>
</g>
<!-- key 132968
bias &#45;0.920
h_scaling 1.000&#45;&gt;key 9146
bias 0.402
h_scaling 1.000 -->
<g id="edge17" class="edge">
<title>key 132968
bias &#45;0.920
h_scaling 1.000&#45;&gt;key 9146
bias 0.402
h_scaling 1.000</title>
<path fill="none" stroke="blue" stroke-width="0.54" d="M344.67,-644.86C348.98,-636.36 353.15,-627.59 356.75,-619.12 383.26,-556.65 389.37,-540.16 403.75,-473.84 415.46,-419.79 422.31,-357.6 426.18,-310.64"/>
<polygon fill="blue" stroke="blue" stroke-width="0.54" points="429.68,-310.81 426.99,-300.56 422.7,-310.25 429.68,-310.81"/>
<text text-anchor="middle" x="437.25" y="-408" font-family="Times,serif" font-size="9.00">&#45;0.147</text>
</g>
<!-- key 132968
bias &#45;0.920
h_scaling 1.000&#45;&gt;key 1883
bias 0.263
h_scaling 1.000 -->
<g id="edge19" class="edge">
<title>key 132968
bias &#45;0.920
h_scaling 1.000&#45;&gt;key 1883
bias 0.263
h_scaling 1.000</title>
<path fill="none" stroke="red" stroke-width="1.46" d="M297.67,-639.1C285.91,-593.74 269.94,-530.12 257.75,-473.84 226.31,-328.68 256.17,-281.39 196.75,-145.28 193.16,-137.06 188.59,-128.89 183.58,-121.08"/>
<polygon fill="red" stroke="red" stroke-width="1.46" points="186.48,-119.11 178,-112.76 180.67,-123.01 186.48,-119.11"/>
<text text-anchor="middle" x="252.75" y="-321.36" font-family="Times,serif" font-size="9.00">0.453</text>
</g>
<!-- key 365887
bias &#45;0.508
h_scaling 1.000 -->
<g id="node10" class="node">
<title>key 365887
bias &#45;0.508
h_scaling 1.000</title>
<ellipse fill="white" stroke="black" cx="330.75" cy="-410.2" rx="63.78" ry="63.78"/>
<text text-anchor="middle" x="330.75" y="-418" font-family="Times,serif" font-size="9.00">key 365887</text>
<text text-anchor="middle" x="330.75" y="-408" font-family="Times,serif" font-size="9.00">bias &#45;0.508</text>
<text text-anchor="middle" x="330.75" y="-398" font-family="Times,serif" font-size="9.00">h_scaling 1.000</text>
</g>
<!-- key 132968
bias &#45;0.920
h_scaling 1.000&#45;&gt;key 365887
bias &#45;0.508
h_scaling 1.000 -->
<g id="edge21" class="edge">
<title>key 132968
bias &#45;0.920
h_scaling 1.000&#45;&gt;key 365887
bias &#45;0.508
h_scaling 1.000</title>
<path fill="none" stroke="red" stroke-width="3.1" d="M317.44,-637.14C320.08,-592.21 323.66,-531.51 326.44,-484.34"/>
<polygon fill="red" stroke="red" stroke-width="3.1" points="329.94,-484.37 327.04,-474.19 322.95,-483.96 329.94,-484.37"/>
<text text-anchor="middle" x="338.75" y="-553.28" font-family="Times,serif" font-size="9.00">1.000</text>
</g>
<!-- key 9146
bias 0.402
h_scaling 1.000&#45;&gt;key 133348
bias 0.247
h_scaling 1.000 -->
<g id="edge18" class="edge">
<title>key 9146
bias 0.402
h_scaling 1.000&#45;&gt;key 133348
bias 0.247
h_scaling 1.000</title>
<path fill="none" stroke="red" stroke-width="1.5" d="M452.26,-176.49C457.29,-162.6 462.69,-147.68 467.85,-133.42"/>
<polygon fill="red" stroke="red" stroke-width="1.5" points="471.27,-134.26 471.38,-123.67 464.68,-131.88 471.27,-134.26"/>
<text text-anchor="middle" x="475.75" y="-148.08" font-family="Times,serif" font-size="9.00">0.467</text>
</g>
<!-- key 9146
bias 0.402
h_scaling 1.000&#45;&gt;key 1883
bias 0.263
h_scaling 1.000 -->
<g id="edge3" class="edge">
<title>key 9146
bias 0.402
h_scaling 1.000&#45;&gt;key 1883
bias 0.263
h_scaling 1.000</title>
<path fill="none" stroke="blue" stroke-width="2.06" d="M376.14,-204.1C326.38,-175.11 252.86,-132.28 200.44,-101.75"/>
<polygon fill="blue" stroke="blue" stroke-width="2.06" points="201.97,-98.58 191.56,-96.57 198.44,-104.63 201.97,-98.58"/>
<text text-anchor="middle" x="299.25" y="-148.08" font-family="Times,serif" font-size="9.00">&#45;0.653</text>
</g>
<!-- key 1883
bias 0.263
h_scaling 1.000&#45;&gt;output
bias 0.687
h_scaling 1.000 -->
<g id="edge2" class="edge">
<title>key 1883
bias 0.263
h_scaling 1.000&#45;&gt;output
bias 0.687
h_scaling 1.000</title>
<path fill="none" stroke="blue" stroke-width="3.1" d="M114.17,-123.41C96.32,-176.59 75.65,-257.28 83.75,-328.56 89.77,-381.54 103.48,-440.19 115.32,-484.45"/>
<polygon fill="blue" stroke="blue" stroke-width="3.1" points="111.97,-485.5 117.96,-494.23 118.73,-483.67 111.97,-485.5"/>
<text text-anchor="middle" x="99.25" y="-321.36" font-family="Times,serif" font-size="9.00">&#45;1.000</text>
</g>
<!-- key 21726
bias &#45;0.560
h_scaling 1.000&#45;&gt;output
bias 0.687
h_scaling 1.000 -->
<g id="edge14" class="edge">
<title>key 21726
bias &#45;0.560
h_scaling 1.000&#45;&gt;output
bias 0.687
h_scaling 1.000</title>
<path fill="none" stroke="blue" stroke-width="2.84" d="M184.98,-822.8C179.09,-813.1 173.67,-802.74 169.75,-792.4 149.9,-740.03 141.54,-677.11 138.06,-629.42"/>
<polygon fill="blue" stroke="blue" stroke-width="2.84" points="141.53,-628.92 137.37,-619.18 134.55,-629.39 141.53,-628.92"/>
<text text-anchor="middle" x="185.25" y="-785.2" font-family="Times,serif" font-size="9.00">&#45;0.913</text>
</g>
<!-- key 21726
bias &#45;0.560
h_scaling 1.000&#45;&gt;key 132968
bias &#45;0.920
h_scaling 1.000 -->
<g id="edge16" class="edge">
<title>key 21726
bias &#45;0.560
h_scaling 1.000&#45;&gt;key 132968
bias &#45;0.920
h_scaling 1.000</title>
<path fill="none" stroke="red" stroke-width="3.1" d="M252.29,-817.43C260.92,-801.19 270.42,-783.3 279.32,-766.55"/>
<polygon fill="red" stroke="red" stroke-width="3.1" points="282.59,-767.85 284.19,-757.38 276.41,-764.57 282.59,-767.85"/>
<text text-anchor="middle" x="281.75" y="-785.2" font-family="Times,serif" font-size="9.00">1.000</text>
</g>
<!-- key 21726
bias &#45;0.560
h_scaling 1.000&#45;&gt;key 1883
bias 0.263
h_scaling 1.000 -->
<g id="edge7" class="edge">
<title>key 21726
bias &#45;0.560
h_scaling 1.000&#45;&gt;key 1883
bias 0.263
h_scaling 1.000</title>
<path fill="none" stroke="red" stroke-width="2.92" d="M220.82,-810.17C218.11,-734.49 212.18,-603.62 200.75,-491.84 184.91,-336.96 173.47,-299.15 149.75,-145.28 149.31,-142.45 148.86,-139.57 148.41,-136.67"/>
<polygon fill="red" stroke="red" stroke-width="2.92" points="151.85,-136.04 146.84,-126.7 144.94,-137.12 151.85,-136.04"/>
<text text-anchor="middle" x="212.75" y="-408" font-family="Times,serif" font-size="9.00">0.940</text>
</g>
<!-- key 21726
bias &#45;0.560
h_scaling 1.000&#45;&gt;key 21726
bias &#45;0.560
h_scaling 1.000 -->
<g id="edge9" class="edge">
<title>key 21726
bias &#45;0.560
h_scaling 1.000&#45;&gt;key 21726
bias &#45;0.560
h_scaling 1.000</title>
<path fill="none" stroke="red" stroke-width="2.96" d="M284.69,-889.33C296.25,-887.45 304.39,-882.35 304.39,-874.04 304.39,-868.32 300.54,-864.12 294.38,-861.45"/>
<polygon fill="red" stroke="red" stroke-width="2.96" points="295.26,-858.06 284.69,-858.74 293.38,-864.8 295.26,-858.06"/>
<text text-anchor="middle" x="318.39" y="-871.84" font-family="Times,serif" font-size="9.00">0.952</text>
</g>
<!-- key 365887
bias &#45;0.508
h_scaling 1.000&#45;&gt;key 9146
bias 0.402
h_scaling 1.000 -->
<g id="edge22" class="edge">
<title>key 365887
bias &#45;0.508
h_scaling 1.000&#45;&gt;key 9146
bias 0.402
h_scaling 1.000</title>
<path fill="none" stroke="blue" stroke-width="0.54" d="M362.66,-354.53C372.54,-337.61 383.51,-318.82 393.71,-301.35"/>
<polygon fill="blue" stroke="blue" stroke-width="0.54" points="396.94,-302.76 398.96,-292.36 390.9,-299.23 396.94,-302.76"/>
<text text-anchor="middle" x="396.25" y="-321.36" font-family="Times,serif" font-size="9.00">&#45;0.147</text>
</g>
</g>
</svg>
