<?xml version="1.0" encoding="UTF-8" standalone="no"?>
<!DOCTYPE svg PUBLIC "-//W3C//DTD SVG 1.1//EN"
 "http://www.w3.org/Graphics/SVG/1.1/DTD/svg11.dtd">
<!-- Generated by graphviz version 2.43.0 (0)
 -->
<!-- Title: %3 Pages: 1 -->
<svg width="577pt" height="1066pt"
 viewBox="0.00 0.00 576.62 1065.68" xmlns="http://www.w3.org/2000/svg" xmlns:xlink="http://www.w3.org/1999/xlink">
<g id="graph0" class="graph" transform="scale(1 1) rotate(0) translate(4 1061.68)">
<title>%3</title>
<polygon fill="white" stroke="transparent" points="-4,4 -4,-1061.68 572.62,-1061.68 572.62,4 -4,4"/>
<!-- ready -->
<g id="node1" class="node">
<title>ready</title>
<polygon fill="yellow" stroke="black" points="273.12,-1057.68 230.12,-1057.68 230.12,-1039.68 273.12,-1039.68 273.12,-1057.68"/>
<text text-anchor="middle" x="251.62" y="-1046.48" font-family="Times,serif" font-size="9.00">ready</text>
</g>
<!-- key 835
bias &#45;0.339
h_scaling 0.020 -->
<g id="node4" class="node">
<title>key 835
bias &#45;0.339
h_scaling 0.020</title>
<ellipse fill="white" stroke="black" cx="188.62" cy="-756.76" rx="63.78" ry="63.78"/>
<text text-anchor="middle" x="188.62" y="-764.56" font-family="Times,serif" font-size="9.00">key 835</text>
<text text-anchor="middle" x="188.62" y="-754.56" font-family="Times,serif" font-size="9.00">bias &#45;0.339</text>
<text text-anchor="middle" x="188.62" y="-744.56" font-family="Times,serif" font-size="9.00">h_scaling 0.020</text>
</g>
<!-- ready&#45;&gt;key 835
bias &#45;0.339
h_scaling 0.020 -->
<g id="edge4" class="edge">
<title>ready&#45;&gt;key 835
bias &#45;0.339
h_scaling 0.020</title>
<path fill="none" stroke="blue" stroke-width="0.46" d="M249.87,-1039.62C243.35,-1009.62 220.04,-902.34 204.13,-829.13"/>
<polygon fill="blue" stroke="blue" stroke-width="0.46" points="207.48,-828.07 201.94,-819.04 200.64,-829.55 207.48,-828.07"/>
<text text-anchor="middle" x="255.12" y="-927.84" font-family="Times,serif" font-size="9.00">&#45;0.121</text>
</g>
<!-- key 32027
bias &#45;0.422
h_scaling 0.015 -->
<g id="node10" class="node">
<title>key 32027
bias &#45;0.422
h_scaling 0.015</title>
<ellipse fill="white" stroke="black" cx="445.62" cy="-930.04" rx="63.78" ry="63.78"/>
<text text-anchor="middle" x="445.62" y="-937.84" font-family="Times,serif" font-size="9.00">key 32027</text>
<text text-anchor="middle" x="445.62" y="-927.84" font-family="Times,serif" font-size="9.00">bias &#45;0.422</text>
<text text-anchor="middle" x="445.62" y="-917.84" font-family="Times,serif" font-size="9.00">h_scaling 0.015</text>
</g>
<!-- ready&#45;&gt;key 32027
bias &#45;0.422
h_scaling 0.015 -->
<g id="edge11" class="edge">
<title>ready&#45;&gt;key 32027
bias &#45;0.422
h_scaling 0.015</title>
<path fill="none" stroke="red" stroke-width="2.98" d="M264.95,-1039.66C288.85,-1025.29 340.39,-994.3 382.33,-969.09"/>
<polygon fill="red" stroke="red" stroke-width="2.98" points="384.36,-971.95 391.12,-963.8 380.75,-965.95 384.36,-971.95"/>
<text text-anchor="middle" x="322.62" y="-1014.48" font-family="Times,serif" font-size="9.00">0.961</text>
</g>
<!-- go -->
<g id="node2" class="node">
<title>go</title>
<polygon fill="green" stroke="black" points="35.62,-939.04 7.62,-939.04 7.62,-921.04 35.62,-921.04 35.62,-939.04"/>
<text text-anchor="middle" x="21.62" y="-927.84" font-family="Times,serif" font-size="9.00">go</text>
</g>
<!-- go&#45;&gt;key 835
bias &#45;0.339
h_scaling 0.020 -->
<g id="edge1" class="edge">
<title>go&#45;&gt;key 835
bias &#45;0.339
h_scaling 0.020</title>
<path fill="none" stroke="red" stroke-width="2.51" d="M29.67,-920.77C48.87,-901.08 98.62,-850.06 137.39,-810.3"/>
<polygon fill="red" stroke="red" stroke-width="2.51" points="140.02,-812.62 144.49,-803.01 135.01,-807.73 140.02,-812.62"/>
<text text-anchor="middle" x="118.62" y="-841.2" font-family="Times,serif" font-size="9.00">0.804</text>
</g>
<!-- key 5284
bias &#45;0.402
h_scaling 0.140 -->
<g id="node5" class="node">
<title>key 5284
bias &#45;0.402
h_scaling 0.140</title>
<ellipse fill="white" stroke="black" cx="121.62" cy="-583.48" rx="63.78" ry="63.78"/>
<text text-anchor="middle" x="121.62" y="-591.28" font-family="Times,serif" font-size="9.00">key 5284</text>
<text text-anchor="middle" x="121.62" y="-581.28" font-family="Times,serif" font-size="9.00">bias &#45;0.402</text>
<text text-anchor="middle" x="121.62" y="-571.28" font-family="Times,serif" font-size="9.00">h_scaling 0.140</text>
</g>
<!-- go&#45;&gt;key 5284
bias &#45;0.402
h_scaling 0.140 -->
<g id="edge6" class="edge">
<title>go&#45;&gt;key 5284
bias &#45;0.402
h_scaling 0.140</title>
<path fill="none" stroke="red" stroke-width="2.51" d="M23.81,-920.86C31.94,-890.59 61.28,-782.01 87.62,-693.12 91.36,-680.51 95.45,-667.11 99.46,-654.2"/>
<polygon fill="red" stroke="red" stroke-width="2.51" points="102.86,-655.02 102.5,-644.43 96.18,-652.94 102.86,-655.02"/>
<text text-anchor="middle" x="101.62" y="-754.56" font-family="Times,serif" font-size="9.00">0.802</text>
</g>
<!-- key 30934
bias &#45;0.247
h_scaling 0.387 -->
<g id="node9" class="node">
<title>key 30934
bias &#45;0.247
h_scaling 0.387</title>
<ellipse fill="white" stroke="black" cx="205.62" cy="-410.2" rx="63.78" ry="63.78"/>
<text text-anchor="middle" x="205.62" y="-418" font-family="Times,serif" font-size="9.00">key 30934</text>
<text text-anchor="middle" x="205.62" y="-408" font-family="Times,serif" font-size="9.00">bias &#45;0.247</text>
<text text-anchor="middle" x="205.62" y="-398" font-family="Times,serif" font-size="9.00">h_scaling 0.387</text>
</g>
<!-- go&#45;&gt;key 30934
bias &#45;0.247
h_scaling 0.387 -->
<g id="edge20" class="edge">
<title>go&#45;&gt;key 30934
bias &#45;0.247
h_scaling 0.387</title>
<path fill="none" stroke="red" stroke-width="0.23" d="M19.71,-920.78C9.87,-876.25 -31.6,-661.36 48.62,-519.84 68.57,-484.65 105.17,-458.32 138.02,-440.41"/>
<polygon fill="red" stroke="red" stroke-width="0.23" points="139.96,-443.34 147.17,-435.57 136.69,-437.15 139.96,-443.34"/>
<text text-anchor="middle" x="18.62" y="-667.92" font-family="Times,serif" font-size="9.00">0.045</text>
</g>
<!-- output
bias 0.899
h_scaling 0.413 -->
<g id="node3" class="node">
<title>output
bias 0.899
h_scaling 0.413</title>
<ellipse fill="lightblue" stroke="black" cx="267.62" cy="-63.64" rx="63.78" ry="63.78"/>
<text text-anchor="middle" x="267.62" y="-71.44" font-family="Times,serif" font-size="9.00">output</text>
<text text-anchor="middle" x="267.62" y="-61.44" font-family="Times,serif" font-size="9.00">bias 0.899</text>
<text text-anchor="middle" x="267.62" y="-51.44" font-family="Times,serif" font-size="9.00">h_scaling 0.413</text>
</g>
<!-- key 835
bias &#45;0.339
h_scaling 0.020&#45;&gt;output
bias 0.899
h_scaling 0.413 -->
<g id="edge18" class="edge">
<title>key 835
bias &#45;0.339
h_scaling 0.020&#45;&gt;output
bias 0.899
h_scaling 0.413</title>
<path fill="none" stroke="blue" stroke-width="2.43" d="M142.74,-712.24C135.19,-705.62 127.31,-699.04 119.62,-693.12 89.82,-670.18 68.63,-678.95 48.62,-647.12 13.02,-590.5 29.62,-564.72 29.62,-497.84 29.62,-497.84 29.62,-497.84 29.62,-235.92 29.62,-152.9 126.2,-106.15 196.31,-83.14"/>
<polygon fill="blue" stroke="blue" stroke-width="2.43" points="197.55,-86.42 206.02,-80.05 195.43,-79.75 197.55,-86.42"/>
<text text-anchor="middle" x="45.12" y="-408" font-family="Times,serif" font-size="9.00">&#45;0.778</text>
</g>
<!-- key 835
bias &#45;0.339
h_scaling 0.020&#45;&gt;key 5284
bias &#45;0.402
h_scaling 0.140 -->
<g id="edge3" class="edge">
<title>key 835
bias &#45;0.339
h_scaling 0.020&#45;&gt;key 5284
bias &#45;0.402
h_scaling 0.140</title>
<path fill="none" stroke="red" stroke-width="2.03" d="M143.14,-711.95C134.34,-700.85 126.38,-688.3 121.62,-675.12 119.57,-669.43 118.13,-663.4 117.17,-657.27"/>
<polygon fill="red" stroke="red" stroke-width="2.03" points="120.59,-656.43 115.98,-646.9 113.64,-657.23 120.59,-656.43"/>
<text text-anchor="middle" x="135.62" y="-667.92" font-family="Times,serif" font-size="9.00">0.642</text>
</g>
<!-- key 27947
bias &#45;0.646
h_scaling 1.000 -->
<g id="node7" class="node">
<title>key 27947
bias &#45;0.646
h_scaling 1.000</title>
<ellipse fill="white" stroke="black" cx="331.62" cy="-583.48" rx="63.78" ry="63.78"/>
<text text-anchor="middle" x="331.62" y="-591.28" font-family="Times,serif" font-size="9.00">key 27947</text>
<text text-anchor="middle" x="331.62" y="-581.28" font-family="Times,serif" font-size="9.00">bias &#45;0.646</text>
<text text-anchor="middle" x="331.62" y="-571.28" font-family="Times,serif" font-size="9.00">h_scaling 1.000</text>
</g>
<!-- key 835
bias &#45;0.339
h_scaling 0.020&#45;&gt;key 27947
bias &#45;0.646
h_scaling 1.000 -->
<g id="edge7" class="edge">
<title>key 835
bias &#45;0.339
h_scaling 0.020&#45;&gt;key 27947
bias &#45;0.646
h_scaling 1.000</title>
<path fill="none" stroke="red" stroke-width="3.1" d="M229.22,-707.13C246.5,-686.43 266.76,-662.16 284.68,-640.7"/>
<polygon fill="red" stroke="red" stroke-width="3.1" points="287.45,-642.85 291.17,-632.93 282.08,-638.36 287.45,-642.85"/>
<text text-anchor="middle" x="273.62" y="-667.92" font-family="Times,serif" font-size="9.00">1.000</text>
</g>
<!-- key 835
bias &#45;0.339
h_scaling 0.020&#45;&gt;key 30934
bias &#45;0.247
h_scaling 0.387 -->
<g id="edge9" class="edge">
<title>key 835
bias &#45;0.339
h_scaling 0.020&#45;&gt;key 30934
bias &#45;0.247
h_scaling 0.387</title>
<path fill="none" stroke="red" stroke-width="1.87" d="M192.17,-693.14C193,-678.07 193.86,-662.02 194.62,-647.12 197.41,-592.37 200.28,-530.46 202.4,-483.81"/>
<polygon fill="red" stroke="red" stroke-width="1.87" points="205.89,-483.94 202.85,-473.79 198.9,-483.62 205.89,-483.94"/>
<text text-anchor="middle" x="214.62" y="-581.28" font-family="Times,serif" font-size="9.00">0.589</text>
</g>
<!-- key 5284
bias &#45;0.402
h_scaling 0.140&#45;&gt;output
bias 0.899
h_scaling 0.413 -->
<g id="edge5" class="edge">
<title>key 5284
bias &#45;0.402
h_scaling 0.140&#45;&gt;output
bias 0.899
h_scaling 0.413</title>
<path fill="none" stroke="blue" stroke-width="2.26" d="M117.83,-519.9C116.52,-471.77 118.16,-404.01 132.62,-346.56 152.8,-266.38 196.77,-181.79 229.07,-126.43"/>
<polygon fill="blue" stroke="blue" stroke-width="2.26" points="232.1,-128.2 234.15,-117.8 226.06,-124.65 232.1,-128.2"/>
<text text-anchor="middle" x="154.12" y="-321.36" font-family="Times,serif" font-size="9.00">&#45;0.720</text>
</g>
<!-- key 5284
bias &#45;0.402
h_scaling 0.140&#45;&gt;key 835
bias &#45;0.339
h_scaling 0.020 -->
<g id="edge2" class="edge">
<title>key 5284
bias &#45;0.402
h_scaling 0.140&#45;&gt;key 835
bias &#45;0.339
h_scaling 0.020</title>
<path fill="none" stroke="red" stroke-width="3.07" d="M144.93,-643.03C147.87,-650.46 150.82,-657.96 153.62,-665.12 156.51,-672.49 159.51,-680.2 162.49,-687.88"/>
<polygon fill="red" stroke="red" stroke-width="3.07" points="159.23,-689.16 166.11,-697.22 165.76,-686.63 159.23,-689.16"/>
<text text-anchor="middle" x="170.62" y="-667.92" font-family="Times,serif" font-size="9.00">0.990</text>
</g>
<!-- key 54635
bias &#45;0.327
h_scaling 0.053 -->
<g id="node6" class="node">
<title>key 54635
bias &#45;0.327
h_scaling 0.053</title>
<ellipse fill="white" stroke="black" cx="389.62" cy="-236.92" rx="63.78" ry="63.78"/>
<text text-anchor="middle" x="389.62" y="-244.72" font-family="Times,serif" font-size="9.00">key 54635</text>
<text text-anchor="middle" x="389.62" y="-234.72" font-family="Times,serif" font-size="9.00">bias &#45;0.327</text>
<text text-anchor="middle" x="389.62" y="-224.72" font-family="Times,serif" font-size="9.00">h_scaling 0.053</text>
</g>
<!-- key 54635
bias &#45;0.327
h_scaling 0.053&#45;&gt;output
bias 0.899
h_scaling 0.413 -->
<g id="edge15" class="edge">
<title>key 54635
bias &#45;0.327
h_scaling 0.053&#45;&gt;output
bias 0.899
h_scaling 0.413</title>
<path fill="none" stroke="blue" stroke-width="2.87" d="M353.02,-184.53C339.5,-165.56 324.08,-143.91 310.1,-124.27"/>
<polygon fill="blue" stroke="blue" stroke-width="2.87" points="312.85,-122.11 304.2,-115.99 307.15,-126.17 312.85,-122.11"/>
<text text-anchor="middle" x="344.12" y="-148.08" font-family="Times,serif" font-size="9.00">&#45;0.924</text>
</g>
<!-- key 27947
bias &#45;0.646
h_scaling 1.000&#45;&gt;output
bias 0.899
h_scaling 0.413 -->
<g id="edge8" class="edge">
<title>key 27947
bias &#45;0.646
h_scaling 1.000&#45;&gt;output
bias 0.899
h_scaling 0.413</title>
<path fill="none" stroke="blue" stroke-width="3.1" d="M322.75,-520.18C320.67,-505.02 318.51,-488.86 316.62,-473.84 299.87,-340.45 299.37,-306.67 282.62,-173.28 281.15,-161.55 279.51,-149.11 277.86,-137.01"/>
<polygon fill="blue" stroke="blue" stroke-width="3.1" points="281.31,-136.37 276.49,-126.94 274.37,-137.32 281.31,-136.37"/>
<text text-anchor="middle" x="315.12" y="-321.36" font-family="Times,serif" font-size="9.00">&#45;1.000</text>
</g>
<!-- key 32499
bias &#45;0.561
h_scaling 0.697 -->
<g id="node8" class="node">
<title>key 32499
bias &#45;0.561
h_scaling 0.697</title>
<ellipse fill="white" stroke="black" cx="389.62" cy="-410.2" rx="63.78" ry="63.78"/>
<text text-anchor="middle" x="389.62" y="-418" font-family="Times,serif" font-size="9.00">key 32499</text>
<text text-anchor="middle" x="389.62" y="-408" font-family="Times,serif" font-size="9.00">bias &#45;0.561</text>
<text text-anchor="middle" x="389.62" y="-398" font-family="Times,serif" font-size="9.00">h_scaling 0.697</text>
</g>
<!-- key 27947
bias &#45;0.646
h_scaling 1.000&#45;&gt;key 32499
bias &#45;0.561
h_scaling 0.697 -->
<g id="edge13" class="edge">
<title>key 27947
bias &#45;0.646
h_scaling 1.000&#45;&gt;key 32499
bias &#45;0.561
h_scaling 0.697</title>
<path fill="none" stroke="red" stroke-width="2.96" d="M351.74,-523.05C356.4,-509.31 361.38,-494.58 366.17,-480.46"/>
<polygon fill="red" stroke="red" stroke-width="2.96" points="369.54,-481.4 369.43,-470.81 362.91,-479.16 369.54,-481.4"/>
<text text-anchor="middle" x="374.62" y="-494.64" font-family="Times,serif" font-size="9.00">0.953</text>
</g>
<!-- key 27947
bias &#45;0.646
h_scaling 1.000&#45;&gt;key 30934
bias &#45;0.247
h_scaling 0.387 -->
<g id="edge21" class="edge">
<title>key 27947
bias &#45;0.646
h_scaling 1.000&#45;&gt;key 30934
bias &#45;0.247
h_scaling 0.387</title>
<path fill="none" stroke="red" stroke-width="1.19" d="M286.1,-538.17C275.51,-526.81 264.69,-514.27 255.62,-501.84 249.82,-493.89 244.22,-485.19 238.99,-476.43"/>
<polygon fill="red" stroke="red" stroke-width="1.19" points="241.95,-474.56 233.89,-467.68 235.9,-478.08 241.95,-474.56"/>
<text text-anchor="middle" x="269.62" y="-494.64" font-family="Times,serif" font-size="9.00">0.363</text>
</g>
<!-- key 32499
bias &#45;0.561
h_scaling 0.697&#45;&gt;key 54635
bias &#45;0.327
h_scaling 0.053 -->
<g id="edge14" class="edge">
<title>key 32499
bias &#45;0.561
h_scaling 0.697&#45;&gt;key 54635
bias &#45;0.327
h_scaling 0.053</title>
<path fill="none" stroke="red" stroke-width="3.1" d="M389.62,-346.39C389.62,-334.87 389.62,-322.76 389.62,-310.97"/>
<polygon fill="red" stroke="red" stroke-width="3.1" points="393.12,-310.72 389.62,-300.72 386.12,-310.72 393.12,-310.72"/>
<text text-anchor="middle" x="403.62" y="-321.36" font-family="Times,serif" font-size="9.00">0.999</text>
</g>
<!-- key 30934
bias &#45;0.247
h_scaling 0.387&#45;&gt;output
bias 0.899
h_scaling 0.413 -->
<g id="edge10" class="edge">
<title>key 30934
bias &#45;0.247
h_scaling 0.387&#45;&gt;output
bias 0.899
h_scaling 0.413</title>
<path fill="none" stroke="blue" stroke-width="1.16" d="M216.78,-347.2C227.43,-288.01 243.47,-198.86 254.68,-136.57"/>
<polygon fill="blue" stroke="blue" stroke-width="1.16" points="258.18,-136.89 256.5,-126.43 251.29,-135.65 258.18,-136.89"/>
<text text-anchor="middle" x="263.12" y="-234.72" font-family="Times,serif" font-size="9.00">&#45;0.352</text>
</g>
<!-- key 32027
bias &#45;0.422
h_scaling 0.015&#45;&gt;output
bias 0.899
h_scaling 0.413 -->
<g id="edge19" class="edge">
<title>key 32027
bias &#45;0.422
h_scaling 0.015&#45;&gt;output
bias 0.899
h_scaling 0.413</title>
<path fill="none" stroke="red" stroke-width="1.25" d="M488.12,-882.61C513.41,-850.12 540.62,-804.34 540.62,-757.76 540.62,-757.76 540.62,-757.76 540.62,-235.92 540.62,-141.21 421.28,-96.87 340.41,-77.69"/>
<polygon fill="red" stroke="red" stroke-width="1.25" points="340.78,-74.18 330.25,-75.36 339.22,-81.01 340.78,-74.18"/>
<text text-anchor="middle" x="554.62" y="-494.64" font-family="Times,serif" font-size="9.00">0.383</text>
</g>
<!-- key 32027
bias &#45;0.422
h_scaling 0.015&#45;&gt;key 835
bias &#45;0.339
h_scaling 0.020 -->
<g id="edge12" class="edge">
<title>key 32027
bias &#45;0.422
h_scaling 0.015&#45;&gt;key 835
bias &#45;0.339
h_scaling 0.020</title>
<path fill="none" stroke="blue" stroke-width="1.46" d="M392.99,-893.96C351.41,-866.25 293.33,-827.54 249.7,-798.46"/>
<polygon fill="blue" stroke="blue" stroke-width="1.46" points="251.44,-795.42 241.18,-792.78 247.56,-801.24 251.44,-795.42"/>
<text text-anchor="middle" x="332.12" y="-841.2" font-family="Times,serif" font-size="9.00">&#45;0.453</text>
</g>
<!-- key 32027
bias &#45;0.422
h_scaling 0.015&#45;&gt;key 54635
bias &#45;0.327
h_scaling 0.053 -->
<g id="edge17" class="edge">
<title>key 32027
bias &#45;0.422
h_scaling 0.015&#45;&gt;key 54635
bias &#45;0.327
h_scaling 0.053</title>
<path fill="none" stroke="blue" stroke-width="0.25" d="M464.57,-869.04C473.24,-836.46 481.62,-795.28 481.62,-757.76 481.62,-757.76 481.62,-757.76 481.62,-409.2 481.62,-367.06 459.74,-325.28 437.32,-293.54"/>
<polygon fill="blue" stroke="blue" stroke-width="0.25" points="440.02,-291.31 431.31,-285.28 434.36,-295.43 440.02,-291.31"/>
<text text-anchor="middle" x="497.12" y="-581.28" font-family="Times,serif" font-size="9.00">&#45;0.051</text>
</g>
<!-- key 32027
bias &#45;0.422
h_scaling 0.015&#45;&gt;key 32027
bias &#45;0.422
h_scaling 0.015 -->
<g id="edge16" class="edge">
<title>key 32027
bias &#45;0.422
h_scaling 0.015&#45;&gt;key 32027
bias &#45;0.422
h_scaling 0.015</title>
<path fill="none" stroke="red" stroke-width="2.2" d="M507.56,-945.33C519.12,-943.45 527.26,-938.35 527.26,-930.04 527.26,-924.32 523.41,-920.12 517.25,-917.45"/>
<polygon fill="red" stroke="red" stroke-width="2.2" points="518.14,-914.06 507.56,-914.74 516.25,-920.8 518.14,-914.06"/>
<text text-anchor="middle" x="541.26" y="-927.84" font-family="Times,serif" font-size="9.00">0.700</text>
</g>
</g>
</svg>
