<?xml version="1.0" encoding="UTF-8" standalone="no"?>
<!DOCTYPE svg PUBLIC "-//W3C//DTD SVG 1.1//EN"
 "http://www.w3.org/Graphics/SVG/1.1/DTD/svg11.dtd">
<!-- Generated by graphviz version 2.43.0 (0)
 -->
<!-- Title: %3 Pages: 1 -->
<svg width="556pt" height="1057pt"
 viewBox="0.00 0.00 555.62 1056.68" xmlns="http://www.w3.org/2000/svg" xmlns:xlink="http://www.w3.org/1999/xlink">
<g id="graph0" class="graph" transform="scale(1 1) rotate(0) translate(4 1052.68)">
<title>%3</title>
<polygon fill="white" stroke="transparent" points="-4,4 -4,-1052.68 551.62,-1052.68 551.62,4 -4,4"/>
<!-- ready -->
<g id="node1" class="node">
<title>ready</title>
<polygon fill="yellow" stroke="black" points="282.12,-1048.68 239.12,-1048.68 239.12,-1030.68 282.12,-1030.68 282.12,-1048.68"/>
<text text-anchor="middle" x="260.62" y="-1037.48" font-family="Times,serif" font-size="9.00">ready</text>
</g>
<!-- key 835
bias &#45;0.339
h_scaling 0.020 -->
<g id="node4" class="node">
<title>key 835
bias &#45;0.339
h_scaling 0.020</title>
<ellipse fill="white" stroke="black" cx="197.62" cy="-747.76" rx="63.78" ry="63.78"/>
<text text-anchor="middle" x="197.62" y="-755.56" font-family="Times,serif" font-size="9.00">key 835</text>
<text text-anchor="middle" x="197.62" y="-745.56" font-family="Times,serif" font-size="9.00">bias &#45;0.339</text>
<text text-anchor="middle" x="197.62" y="-735.56" font-family="Times,serif" font-size="9.00">h_scaling 0.020</text>
</g>
<!-- ready&#45;&gt;key 835
bias &#45;0.339
h_scaling 0.020 -->
<g id="edge4" class="edge">
<title>ready&#45;&gt;key 835
bias &#45;0.339
h_scaling 0.020</title>
<path fill="none" stroke="blue" stroke-width="0.1" d="M258.87,-1030.62C252.35,-1000.62 229.04,-893.34 213.13,-820.13"/>
<polygon fill="blue" stroke="blue" stroke-width="0.1" points="216.48,-819.07 210.94,-810.04 209.64,-820.55 216.48,-819.07"/>
</g>
<!-- key 32027
bias &#45;0.422
h_scaling 0.015 -->
<g id="node10" class="node">
<title>key 32027
bias &#45;0.422
h_scaling 0.015</title>
<ellipse fill="white" stroke="black" cx="437.62" cy="-921.04" rx="63.78" ry="63.78"/>
<text text-anchor="middle" x="437.62" y="-928.84" font-family="Times,serif" font-size="9.00">key 32027</text>
<text text-anchor="middle" x="437.62" y="-918.84" font-family="Times,serif" font-size="9.00">bias &#45;0.422</text>
<text text-anchor="middle" x="437.62" y="-908.84" font-family="Times,serif" font-size="9.00">h_scaling 0.015</text>
</g>
<!-- ready&#45;&gt;key 32027
bias &#45;0.422
h_scaling 0.015 -->
<g id="edge11" class="edge">
<title>ready&#45;&gt;key 32027
bias &#45;0.422
h_scaling 0.015</title>
<path fill="none" stroke="red" stroke-width="0.52" d="M272.79,-1030.66C293.92,-1016.73 338.74,-987.2 376.32,-962.43"/>
<polygon fill="red" stroke="red" stroke-width="0.52" points="378.28,-965.33 384.7,-956.91 374.43,-959.49 378.28,-965.33"/>
<text text-anchor="middle" x="326.62" y="-1005.48" font-family="Times,serif" font-size="9.00">0.014</text>
</g>
<!-- go -->
<g id="node2" class="node">
<title>go</title>
<polygon fill="green" stroke="black" points="35.62,-930.04 7.62,-930.04 7.62,-912.04 35.62,-912.04 35.62,-930.04"/>
<text text-anchor="middle" x="21.62" y="-918.84" font-family="Times,serif" font-size="9.00">go</text>
</g>
<!-- go&#45;&gt;key 835
bias &#45;0.339
h_scaling 0.020 -->
<g id="edge1" class="edge">
<title>go&#45;&gt;key 835
bias &#45;0.339
h_scaling 0.020</title>
<path fill="none" stroke="red" stroke-width="0.81" d="M30.11,-911.77C50.58,-891.85 104,-839.87 145.06,-799.91"/>
<polygon fill="red" stroke="red" stroke-width="0.81" points="147.58,-802.33 152.31,-792.85 142.7,-797.32 147.58,-802.33"/>
<text text-anchor="middle" x="123.62" y="-832.2" font-family="Times,serif" font-size="9.00">0.024</text>
</g>
<!-- key 5284
bias &#45;0.402
h_scaling 0.140 -->
<g id="node5" class="node">
<title>key 5284
bias &#45;0.402
h_scaling 0.140</title>
<ellipse fill="white" stroke="black" cx="121.62" cy="-574.48" rx="63.78" ry="63.78"/>
<text text-anchor="middle" x="121.62" y="-582.28" font-family="Times,serif" font-size="9.00">key 5284</text>
<text text-anchor="middle" x="121.62" y="-572.28" font-family="Times,serif" font-size="9.00">bias &#45;0.402</text>
<text text-anchor="middle" x="121.62" y="-562.28" font-family="Times,serif" font-size="9.00">h_scaling 0.140</text>
</g>
<!-- go&#45;&gt;key 5284
bias &#45;0.402
h_scaling 0.140 -->
<g id="edge6" class="edge">
<title>go&#45;&gt;key 5284
bias &#45;0.402
h_scaling 0.140</title>
<path fill="none" stroke="red" stroke-width="0.66" d="M23.99,-911.86C34.31,-876.3 75.91,-732.98 101.36,-645.29"/>
<polygon fill="red" stroke="red" stroke-width="0.66" points="104.72,-646.26 104.15,-635.68 98,-644.3 104.72,-646.26"/>
<text text-anchor="middle" x="103.62" y="-745.56" font-family="Times,serif" font-size="9.00">0.019</text>
</g>
<!-- key 30934
bias &#45;0.247
h_scaling 0.387 -->
<g id="node9" class="node">
<title>key 30934
bias &#45;0.247
h_scaling 0.387</title>
<ellipse fill="white" stroke="black" cx="205.62" cy="-401.2" rx="63.78" ry="63.78"/>
<text text-anchor="middle" x="205.62" y="-409" font-family="Times,serif" font-size="9.00">key 30934</text>
<text text-anchor="middle" x="205.62" y="-399" font-family="Times,serif" font-size="9.00">bias &#45;0.247</text>
<text text-anchor="middle" x="205.62" y="-389" font-family="Times,serif" font-size="9.00">h_scaling 0.387</text>
</g>
<!-- go&#45;&gt;key 30934
bias &#45;0.247
h_scaling 0.387 -->
<g id="edge20" class="edge">
<title>go&#45;&gt;key 30934
bias &#45;0.247
h_scaling 0.387</title>
<path fill="none" stroke="red" stroke-width="0.44" d="M19.71,-911.78C9.87,-867.25 -31.6,-652.36 48.62,-510.84 68.57,-475.65 105.17,-449.32 138.02,-431.41"/>
<polygon fill="red" stroke="red" stroke-width="0.44" points="139.96,-434.34 147.17,-426.57 136.69,-428.15 139.96,-434.34"/>
<text text-anchor="middle" x="18.62" y="-658.92" font-family="Times,serif" font-size="9.00">0.011</text>
</g>
<!-- output
bias 0.899
h_scaling 0.413 -->
<g id="node3" class="node">
<title>output
bias 0.899
h_scaling 0.413</title>
<ellipse fill="lightblue" stroke="black" cx="264.62" cy="-63.64" rx="63.78" ry="63.78"/>
<text text-anchor="middle" x="264.62" y="-71.44" font-family="Times,serif" font-size="9.00">output</text>
<text text-anchor="middle" x="264.62" y="-61.44" font-family="Times,serif" font-size="9.00">bias 0.899</text>
<text text-anchor="middle" x="264.62" y="-51.44" font-family="Times,serif" font-size="9.00">h_scaling 0.413</text>
</g>
<!-- key 835
bias &#45;0.339
h_scaling 0.020&#45;&gt;output
bias 0.899
h_scaling 0.413 -->
<g id="edge18" class="edge">
<title>key 835
bias &#45;0.339
h_scaling 0.020&#45;&gt;output
bias 0.899
h_scaling 0.413</title>
<path fill="none" stroke="blue" stroke-width="0.1" d="M149.69,-705.72C140.54,-698.32 130.91,-690.83 121.62,-684.12 90.54,-661.65 69.24,-670.45 48.62,-638.12 12.67,-581.72 29.62,-555.72 29.62,-488.84 29.62,-488.84 29.62,-488.84 29.62,-226.92 29.62,-146.7 123.49,-103.06 192.57,-81.8"/>
<polygon fill="blue" stroke="blue" stroke-width="0.1" points="193.98,-85.04 202.57,-78.83 191.99,-78.33 193.98,-85.04"/>
</g>
<!-- key 835
bias &#45;0.339
h_scaling 0.020&#45;&gt;key 5284
bias &#45;0.402
h_scaling 0.140 -->
<g id="edge3" class="edge">
<title>key 835
bias &#45;0.339
h_scaling 0.020&#45;&gt;key 5284
bias &#45;0.402
h_scaling 0.140</title>
<path fill="none" stroke="red" stroke-width="1.7" d="M151.5,-703.84C142,-692.52 133.19,-679.66 127.62,-666.12 125.26,-660.37 123.48,-654.25 122.16,-648.01"/>
<polygon fill="red" stroke="red" stroke-width="1.7" points="125.6,-647.38 120.45,-638.13 118.71,-648.58 125.6,-647.38"/>
<text text-anchor="middle" x="141.62" y="-658.92" font-family="Times,serif" font-size="9.00">0.053</text>
</g>
<!-- key 27947
bias &#45;0.646
h_scaling 1.000 -->
<g id="node7" class="node">
<title>key 27947
bias &#45;0.646
h_scaling 1.000</title>
<ellipse fill="white" stroke="black" cx="331.62" cy="-574.48" rx="63.78" ry="63.78"/>
<text text-anchor="middle" x="331.62" y="-582.28" font-family="Times,serif" font-size="9.00">key 27947</text>
<text text-anchor="middle" x="331.62" y="-572.28" font-family="Times,serif" font-size="9.00">bias &#45;0.646</text>
<text text-anchor="middle" x="331.62" y="-562.28" font-family="Times,serif" font-size="9.00">h_scaling 1.000</text>
</g>
<!-- key 835
bias &#45;0.339
h_scaling 0.020&#45;&gt;key 27947
bias &#45;0.646
h_scaling 1.000 -->
<g id="edge7" class="edge">
<title>key 835
bias &#45;0.339
h_scaling 0.020&#45;&gt;key 27947
bias &#45;0.646
h_scaling 1.000</title>
<path fill="none" stroke="red" stroke-width="1.34" d="M236.38,-697.22C252,-677.24 270.14,-654.06 286.37,-633.32"/>
<polygon fill="red" stroke="red" stroke-width="1.34" points="289.31,-635.24 292.72,-625.2 283.8,-630.92 289.31,-635.24"/>
<text text-anchor="middle" x="278.62" y="-658.92" font-family="Times,serif" font-size="9.00">0.041</text>
</g>
<!-- key 835
bias &#45;0.339
h_scaling 0.020&#45;&gt;key 30934
bias &#45;0.247
h_scaling 0.387 -->
<g id="edge9" class="edge">
<title>key 835
bias &#45;0.339
h_scaling 0.020&#45;&gt;key 30934
bias &#45;0.247
h_scaling 0.387</title>
<path fill="none" stroke="red" stroke-width="1.22" d="M199.08,-683.96C200.45,-625.03 202.49,-536.92 203.93,-474.95"/>
<polygon fill="red" stroke="red" stroke-width="1.22" points="207.43,-474.93 204.17,-464.85 200.43,-474.77 207.43,-474.93"/>
<text text-anchor="middle" x="216.62" y="-572.28" font-family="Times,serif" font-size="9.00">0.037</text>
</g>
<!-- key 5284
bias &#45;0.402
h_scaling 0.140&#45;&gt;output
bias 0.899
h_scaling 0.413 -->
<g id="edge5" class="edge">
<title>key 5284
bias &#45;0.402
h_scaling 0.140&#45;&gt;output
bias 0.899
h_scaling 0.413</title>
<path fill="none" stroke="blue" stroke-width="0.1" d="M117.77,-510.88C116.42,-462.75 118.05,-394.99 132.62,-337.56 152.09,-260.84 194.23,-180.08 225.69,-126.5"/>
<polygon fill="blue" stroke="blue" stroke-width="0.1" points="228.76,-128.2 230.84,-117.81 222.74,-124.63 228.76,-128.2"/>
</g>
<!-- key 5284
bias &#45;0.402
h_scaling 0.140&#45;&gt;key 835
bias &#45;0.339
h_scaling 0.020 -->
<g id="edge2" class="edge">
<title>key 5284
bias &#45;0.402
h_scaling 0.140&#45;&gt;key 835
bias &#45;0.339
h_scaling 0.020</title>
<path fill="none" stroke="red" stroke-width="1.7" d="M147.07,-632.84C153.75,-647.88 161,-664.23 167.88,-679.73"/>
<polygon fill="red" stroke="red" stroke-width="1.7" points="164.85,-681.53 172.1,-689.25 171.25,-678.69 164.85,-681.53"/>
<text text-anchor="middle" x="173.62" y="-658.92" font-family="Times,serif" font-size="9.00">0.053</text>
</g>
<!-- key 54635
bias &#45;0.327
h_scaling 0.053 -->
<g id="node6" class="node">
<title>key 54635
bias &#45;0.327
h_scaling 0.053</title>
<ellipse fill="white" stroke="black" cx="389.62" cy="-227.92" rx="63.78" ry="63.78"/>
<text text-anchor="middle" x="389.62" y="-235.72" font-family="Times,serif" font-size="9.00">key 54635</text>
<text text-anchor="middle" x="389.62" y="-225.72" font-family="Times,serif" font-size="9.00">bias &#45;0.327</text>
<text text-anchor="middle" x="389.62" y="-215.72" font-family="Times,serif" font-size="9.00">h_scaling 0.053</text>
</g>
<!-- key 54635
bias &#45;0.327
h_scaling 0.053&#45;&gt;output
bias 0.899
h_scaling 0.413 -->
<g id="edge15" class="edge">
<title>key 54635
bias &#45;0.327
h_scaling 0.053&#45;&gt;output
bias 0.899
h_scaling 0.413</title>
<path fill="none" stroke="blue" stroke-width="0.1" d="M351.1,-176.91C337.85,-159.7 322.9,-140.3 309.21,-122.53"/>
<polygon fill="blue" stroke="blue" stroke-width="0.1" points="311.89,-120.27 303.02,-114.49 306.35,-124.55 311.89,-120.27"/>
</g>
<!-- key 27947
bias &#45;0.646
h_scaling 1.000&#45;&gt;output
bias 0.899
h_scaling 0.413 -->
<g id="edge8" class="edge">
<title>key 27947
bias &#45;0.646
h_scaling 1.000&#45;&gt;output
bias 0.899
h_scaling 0.413</title>
<path fill="none" stroke="blue" stroke-width="0.1" d="M322.93,-511.16C320.84,-496 318.63,-479.84 316.62,-464.84 301.27,-350.3 284.11,-217.22 273.85,-137.04"/>
<polygon fill="blue" stroke="blue" stroke-width="0.1" points="277.31,-136.52 272.57,-127.05 270.37,-137.41 277.31,-136.52"/>
</g>
<!-- key 32499
bias &#45;0.561
h_scaling 0.697 -->
<g id="node8" class="node">
<title>key 32499
bias &#45;0.561
h_scaling 0.697</title>
<ellipse fill="white" stroke="black" cx="389.62" cy="-401.2" rx="63.78" ry="63.78"/>
<text text-anchor="middle" x="389.62" y="-409" font-family="Times,serif" font-size="9.00">key 32499</text>
<text text-anchor="middle" x="389.62" y="-399" font-family="Times,serif" font-size="9.00">bias &#45;0.561</text>
<text text-anchor="middle" x="389.62" y="-389" font-family="Times,serif" font-size="9.00">h_scaling 0.697</text>
</g>
<!-- key 27947
bias &#45;0.646
h_scaling 1.000&#45;&gt;key 32499
bias &#45;0.561
h_scaling 0.697 -->
<g id="edge13" class="edge">
<title>key 27947
bias &#45;0.646
h_scaling 1.000&#45;&gt;key 32499
bias &#45;0.561
h_scaling 0.697</title>
<path fill="none" stroke="red" stroke-width="1.14" d="M351.74,-514.05C356.4,-500.31 361.38,-485.58 366.17,-471.46"/>
<polygon fill="red" stroke="red" stroke-width="1.14" points="369.54,-472.4 369.43,-461.81 362.91,-470.16 369.54,-472.4"/>
<text text-anchor="middle" x="374.62" y="-485.64" font-family="Times,serif" font-size="9.00">0.035</text>
</g>
<!-- key 27947
bias &#45;0.646
h_scaling 1.000&#45;&gt;key 30934
bias &#45;0.247
h_scaling 0.387 -->
<g id="edge21" class="edge">
<title>key 27947
bias &#45;0.646
h_scaling 1.000&#45;&gt;key 30934
bias &#45;0.247
h_scaling 0.387</title>
<path fill="none" stroke="red" stroke-width="1.28" d="M286.1,-529.17C275.51,-517.81 264.69,-505.27 255.62,-492.84 249.82,-484.89 244.22,-476.19 238.99,-467.43"/>
<polygon fill="red" stroke="red" stroke-width="1.28" points="241.95,-465.56 233.89,-458.68 235.9,-469.08 241.95,-465.56"/>
<text text-anchor="middle" x="269.62" y="-485.64" font-family="Times,serif" font-size="9.00">0.039</text>
</g>
<!-- key 32499
bias &#45;0.561
h_scaling 0.697&#45;&gt;key 54635
bias &#45;0.327
h_scaling 0.053 -->
<g id="edge14" class="edge">
<title>key 32499
bias &#45;0.561
h_scaling 0.697&#45;&gt;key 54635
bias &#45;0.327
h_scaling 0.053</title>
<path fill="none" stroke="red" stroke-width="1.13" d="M389.62,-337.39C389.62,-325.87 389.62,-313.76 389.62,-301.97"/>
<polygon fill="red" stroke="red" stroke-width="1.13" points="393.12,-301.72 389.62,-291.72 386.12,-301.72 393.12,-301.72"/>
<text text-anchor="middle" x="403.62" y="-312.36" font-family="Times,serif" font-size="9.00">0.034</text>
</g>
<!-- key 30934
bias &#45;0.247
h_scaling 0.387&#45;&gt;output
bias 0.899
h_scaling 0.413 -->
<g id="edge10" class="edge">
<title>key 30934
bias &#45;0.247
h_scaling 0.387&#45;&gt;output
bias 0.899
h_scaling 0.413</title>
<path fill="none" stroke="blue" stroke-width="0.1" d="M216.51,-338.26C226.54,-281.24 241.41,-196.67 251.96,-136.66"/>
<polygon fill="blue" stroke="blue" stroke-width="0.1" points="255.46,-136.95 253.74,-126.5 248.56,-135.74 255.46,-136.95"/>
</g>
<!-- key 32027
bias &#45;0.422
h_scaling 0.015&#45;&gt;output
bias 0.899
h_scaling 0.413 -->
<g id="edge19" class="edge">
<title>key 32027
bias &#45;0.422
h_scaling 0.015&#45;&gt;output
bias 0.899
h_scaling 0.413</title>
<path fill="none" stroke="red" stroke-width="0.64" d="M475.98,-870.15C497.32,-837.46 519.62,-792.77 519.62,-748.76 519.62,-748.76 519.62,-748.76 519.62,-226.92 519.62,-139.91 412.65,-97.54 337.28,-78.48"/>
<polygon fill="red" stroke="red" stroke-width="0.64" points="337.87,-75.02 327.33,-76.05 336.21,-81.82 337.87,-75.02"/>
<text text-anchor="middle" x="533.62" y="-485.64" font-family="Times,serif" font-size="9.00">0.018</text>
</g>
<!-- key 32027
bias &#45;0.422
h_scaling 0.015&#45;&gt;key 835
bias &#45;0.339
h_scaling 0.020 -->
<g id="edge12" class="edge">
<title>key 32027
bias &#45;0.422
h_scaling 0.015&#45;&gt;key 835
bias &#45;0.339
h_scaling 0.020</title>
<path fill="none" stroke="blue" stroke-width="0.1" d="M386.13,-883.29C348.33,-856.31 296.88,-819.6 257.28,-791.33"/>
<polygon fill="blue" stroke="blue" stroke-width="0.1" points="259.19,-788.4 249.02,-785.44 255.13,-794.1 259.19,-788.4"/>
</g>
<!-- key 32027
bias &#45;0.422
h_scaling 0.015&#45;&gt;key 54635
bias &#45;0.327
h_scaling 0.053 -->
<g id="edge17" class="edge">
<title>key 32027
bias &#45;0.422
h_scaling 0.015&#45;&gt;key 54635
bias &#45;0.327
h_scaling 0.053</title>
<path fill="none" stroke="blue" stroke-width="0.1" d="M460.39,-861.53C471.13,-828.87 481.62,-787.13 481.62,-748.76 481.62,-748.76 481.62,-748.76 481.62,-400.2 481.62,-358.06 459.74,-316.28 437.32,-284.54"/>
<polygon fill="blue" stroke="blue" stroke-width="0.1" points="440.02,-282.31 431.31,-276.28 434.36,-286.43 440.02,-282.31"/>
</g>
<!-- key 32027
bias &#45;0.422
h_scaling 0.015&#45;&gt;key 32027
bias &#45;0.422
h_scaling 0.015 -->
<g id="edge16" class="edge">
<title>key 32027
bias &#45;0.422
h_scaling 0.015&#45;&gt;key 32027
bias &#45;0.422
h_scaling 0.015</title>
<path fill="none" stroke="red" stroke-width="0.53" d="M499.56,-936.33C511.12,-934.45 519.26,-929.35 519.26,-921.04 519.26,-915.32 515.41,-911.12 509.25,-908.45"/>
<polygon fill="red" stroke="red" stroke-width="0.53" points="510.14,-905.06 499.56,-905.74 508.25,-911.8 510.14,-905.06"/>
<text text-anchor="middle" x="533.26" y="-918.84" font-family="Times,serif" font-size="9.00">0.014</text>
</g>
</g>
</svg>
