<?xml version="1.0" encoding="UTF-8" standalone="no"?>
<!DOCTYPE svg PUBLIC "-//W3C//DTD SVG 1.1//EN"
 "http://www.w3.org/Graphics/SVG/1.1/DTD/svg11.dtd">
<!-- Generated by graphviz version 2.43.0 (0)
 -->
<!-- Title: %3 Pages: 1 -->
<svg width="363pt" height="1278pt"
 viewBox="0.00 0.00 362.84 1278.23" xmlns="http://www.w3.org/2000/svg" xmlns:xlink="http://www.w3.org/1999/xlink">
<g id="graph0" class="graph" transform="scale(1 1) rotate(0) translate(4 1274.23)">
<title>%3</title>
<polygon fill="white" stroke="transparent" points="-4,4 -4,-1274.23 358.84,-1274.23 358.84,4 -4,4"/>
<!-- ready -->
<g id="node1" class="node">
<title>ready</title>
<polygon fill="yellow" stroke="black" points="82.7,-1215.59 39.7,-1215.59 39.7,-1197.59 82.7,-1197.59 82.7,-1215.59"/>
<text text-anchor="middle" x="61.2" y="-1204.39" font-family="Times,serif" font-size="9.00">ready</text>
</g>
<!-- key 12045
bias &#45;0.606
h_scaling 0.180 -->
<g id="node4" class="node">
<title>key 12045
bias &#45;0.606
h_scaling 0.180</title>
<ellipse fill="white" stroke="black" cx="184.2" cy="-1043.31" rx="63.78" ry="63.78"/>
<text text-anchor="middle" x="184.2" y="-1051.11" font-family="Times,serif" font-size="9.00">key 12045</text>
<text text-anchor="middle" x="184.2" y="-1041.11" font-family="Times,serif" font-size="9.00">bias &#45;0.606</text>
<text text-anchor="middle" x="184.2" y="-1031.11" font-family="Times,serif" font-size="9.00">h_scaling 0.180</text>
</g>
<!-- ready&#45;&gt;key 12045
bias &#45;0.606
h_scaling 0.180 -->
<g id="edge7" class="edge">
<title>ready&#45;&gt;key 12045
bias &#45;0.606
h_scaling 0.180</title>
<path fill="none" stroke="red" stroke-width="5.05" d="M67.47,-1197.37C80.76,-1179.95 112.78,-1137.97 139.92,-1102.38"/>
<polygon fill="red" stroke="red" stroke-width="5.05" points="143.44,-1105.06 145.99,-1094.43 136.41,-1099.7 143.44,-1105.06"/>
</g>
<!-- key 1555
bias 0.028
h_scaling 0.679 -->
<g id="node6" class="node">
<title>key 1555
bias 0.028
h_scaling 0.679</title>
<ellipse fill="white" stroke="black" cx="150.2" cy="-553.48" rx="63.78" ry="63.78"/>
<text text-anchor="middle" x="150.2" y="-561.28" font-family="Times,serif" font-size="9.00">key 1555</text>
<text text-anchor="middle" x="150.2" y="-551.28" font-family="Times,serif" font-size="9.00">bias 0.028</text>
<text text-anchor="middle" x="150.2" y="-541.28" font-family="Times,serif" font-size="9.00">h_scaling 0.679</text>
</g>
<!-- ready&#45;&gt;key 1555
bias 0.028
h_scaling 0.679 -->
<g id="edge1" class="edge">
<title>ready&#45;&gt;key 1555
bias 0.028
h_scaling 0.679</title>
<path fill="none" stroke="blue" stroke-width="2.02" d="M58.1,-1197.57C51.87,-1180.97 38.01,-1141.51 33.2,-1106.95 5.37,-906.96 -33.05,-835.21 54.2,-653.12 63.48,-633.76 78.06,-615.85 93.08,-600.75"/>
<polygon fill="blue" stroke="blue" stroke-width="2.02" points="95.74,-603.05 100.47,-593.57 90.86,-598.03 95.74,-603.05"/>
</g>
<!-- key 7157
bias &#45;0.686
h_scaling 0.425 -->
<g id="node7" class="node">
<title>key 7157
bias &#45;0.686
h_scaling 0.425</title>
<ellipse fill="white" stroke="black" cx="127.2" cy="-716.76" rx="63.78" ry="63.78"/>
<text text-anchor="middle" x="127.2" y="-724.56" font-family="Times,serif" font-size="9.00">key 7157</text>
<text text-anchor="middle" x="127.2" y="-714.56" font-family="Times,serif" font-size="9.00">bias &#45;0.686</text>
<text text-anchor="middle" x="127.2" y="-704.56" font-family="Times,serif" font-size="9.00">h_scaling 0.425</text>
</g>
<!-- ready&#45;&gt;key 7157
bias &#45;0.686
h_scaling 0.425 -->
<g id="edge15" class="edge">
<title>ready&#45;&gt;key 7157
bias &#45;0.686
h_scaling 0.425</title>
<path fill="none" stroke="red" stroke-width="2.16" d="M59.38,-1197.38C50.45,-1155.59 13.62,-962.85 59.2,-816.4 63.82,-801.57 71.52,-787 80.13,-773.81"/>
<polygon fill="red" stroke="red" stroke-width="2.16" points="83.15,-775.58 85.88,-765.34 77.37,-771.64 83.15,-775.58"/>
</g>
<!-- key 14266
bias &#45;0.473
h_scaling 0.333 -->
<g id="node9" class="node">
<title>key 14266
bias &#45;0.473
h_scaling 0.333</title>
<ellipse fill="white" stroke="black" cx="291.2" cy="-390.2" rx="63.78" ry="63.78"/>
<text text-anchor="middle" x="291.2" y="-398" font-family="Times,serif" font-size="9.00">key 14266</text>
<text text-anchor="middle" x="291.2" y="-388" font-family="Times,serif" font-size="9.00">bias &#45;0.473</text>
<text text-anchor="middle" x="291.2" y="-378" font-family="Times,serif" font-size="9.00">h_scaling 0.333</text>
</g>
<!-- ready&#45;&gt;key 14266
bias &#45;0.473
h_scaling 0.333 -->
<g id="edge19" class="edge">
<title>ready&#45;&gt;key 14266
bias &#45;0.473
h_scaling 0.333</title>
<path fill="none" stroke="blue" stroke-width="0.75" d="M65.45,-1197.17C72.79,-1183.5 89.23,-1156.63 111.2,-1142.95 174.56,-1103.53 219.66,-1156.79 275.2,-1106.95 354.06,-1036.21 351.2,-986.97 351.2,-881.04 351.2,-881.04 351.2,-881.04 351.2,-715.76 351.2,-615.13 360.82,-587.41 336.2,-489.84 333.39,-478.69 329.36,-467.24 324.84,-456.27"/>
<polygon fill="blue" stroke="blue" stroke-width="0.75" points="327.93,-454.59 320.78,-446.78 321.5,-457.35 327.93,-454.59"/>
</g>
<!-- go -->
<g id="node2" class="node">
<title>go</title>
<polygon fill="green" stroke="black" points="280.2,-889.04 252.2,-889.04 252.2,-871.04 280.2,-871.04 280.2,-889.04"/>
<text text-anchor="middle" x="266.2" y="-877.84" font-family="Times,serif" font-size="9.00">go</text>
</g>
<!-- go&#45;&gt;key 1555
bias 0.028
h_scaling 0.679 -->
<g id="edge4" class="edge">
<title>go&#45;&gt;key 1555
bias 0.028
h_scaling 0.679</title>
<path fill="none" stroke="red" stroke-width="5.1" d="M265.63,-870.89C263.27,-840.78 252.76,-733.41 218.2,-653.12 212.17,-639.09 204,-625 195.42,-612.03"/>
<polygon fill="red" stroke="red" stroke-width="5.1" points="199.06,-609.44 189.74,-603.68 191.68,-614.46 199.06,-609.44"/>
</g>
<!-- go&#45;&gt;key 7157
bias &#45;0.686
h_scaling 0.425 -->
<g id="edge13" class="edge">
<title>go&#45;&gt;key 7157
bias &#45;0.686
h_scaling 0.425</title>
<path fill="none" stroke="blue" stroke-width="2.34" d="M263.75,-870.74C259.76,-858.17 251.02,-833.88 238.2,-816.4 223.61,-796.47 204.39,-777.64 186.05,-761.88"/>
<polygon fill="blue" stroke="blue" stroke-width="2.34" points="188.16,-759.09 178.26,-755.32 183.65,-764.44 188.16,-759.09"/>
</g>
<!-- go&#45;&gt;key 14266
bias &#45;0.473
h_scaling 0.333 -->
<g id="edge18" class="edge">
<title>go&#45;&gt;key 14266
bias &#45;0.473
h_scaling 0.333</title>
<path fill="none" stroke="red" stroke-width="1.33" d="M266.62,-870.98C269.01,-824.28 281.2,-586.34 287.47,-464.03"/>
<polygon fill="red" stroke="red" stroke-width="1.33" points="290.97,-464.16 287.99,-453.99 283.98,-463.8 290.97,-464.16"/>
</g>
<!-- key output
bias 0.745
h_scaling 0.467 -->
<g id="node3" class="node">
<title>key output
bias 0.745
h_scaling 0.467</title>
<ellipse fill="lightblue" stroke="black" cx="232.2" cy="-63.64" rx="63.78" ry="63.78"/>
<text text-anchor="middle" x="232.2" y="-71.44" font-family="Times,serif" font-size="9.00">key output</text>
<text text-anchor="middle" x="232.2" y="-61.44" font-family="Times,serif" font-size="9.00">bias 0.745</text>
<text text-anchor="middle" x="232.2" y="-51.44" font-family="Times,serif" font-size="9.00">h_scaling 0.467</text>
</g>
<!-- key 12045
bias &#45;0.606
h_scaling 0.180&#45;&gt;key 12045
bias &#45;0.606
h_scaling 0.180 -->
<g id="edge12" class="edge">
<title>key 12045
bias &#45;0.606
h_scaling 0.180&#45;&gt;key 12045
bias &#45;0.606
h_scaling 0.180</title>
<path fill="none" stroke="red" stroke-width="1.56" d="M240.67,-1073.33C255.05,-1071.35 265.84,-1061.35 265.84,-1043.31 265.84,-1029.65 259.65,-1020.59 250.39,-1016.15"/>
<polygon fill="red" stroke="red" stroke-width="1.56" points="251.26,-1012.76 240.67,-1013.3 249.29,-1019.47 251.26,-1012.76"/>
</g>
<!-- key 12494
bias &#45;0.225
h_scaling 0.601 -->
<g id="node5" class="node">
<title>key 12494
bias &#45;0.225
h_scaling 0.601</title>
<ellipse fill="white" stroke="black" cx="132.2" cy="-880.04" rx="63.78" ry="63.78"/>
<text text-anchor="middle" x="132.2" y="-887.84" font-family="Times,serif" font-size="9.00">key 12494</text>
<text text-anchor="middle" x="132.2" y="-877.84" font-family="Times,serif" font-size="9.00">bias &#45;0.225</text>
<text text-anchor="middle" x="132.2" y="-867.84" font-family="Times,serif" font-size="9.00">h_scaling 0.601</text>
</g>
<!-- key 12045
bias &#45;0.606
h_scaling 0.180&#45;&gt;key 12494
bias &#45;0.225
h_scaling 0.601 -->
<g id="edge8" class="edge">
<title>key 12045
bias &#45;0.606
h_scaling 0.180&#45;&gt;key 12494
bias &#45;0.225
h_scaling 0.601</title>
<path fill="none" stroke="red" stroke-width="4.46" d="M164.84,-982.26C161.5,-971.91 158.01,-961.07 154.6,-950.49"/>
<polygon fill="red" stroke="red" stroke-width="4.46" points="158.28,-949.19 151.5,-940.87 150.85,-951.59 158.28,-949.19"/>
</g>
<!-- key 12045
bias &#45;0.606
h_scaling 0.180&#45;&gt;key 7157
bias &#45;0.686
h_scaling 0.425 -->
<g id="edge6" class="edge">
<title>key 12045
bias &#45;0.606
h_scaling 0.180&#45;&gt;key 7157
bias &#45;0.686
h_scaling 0.425</title>
<path fill="none" stroke="red" stroke-width="2.51" d="M203.2,-982.16C214.73,-935.66 223.96,-870.35 205.2,-816.4 199.45,-799.85 189.64,-783.98 178.88,-769.99"/>
<polygon fill="red" stroke="red" stroke-width="2.51" points="181.45,-767.6 172.46,-761.99 175.99,-771.98 181.45,-767.6"/>
</g>
<!-- key 12494
bias &#45;0.225
h_scaling 0.601&#45;&gt;key 7157
bias &#45;0.686
h_scaling 0.425 -->
<g id="edge9" class="edge">
<title>key 12494
bias &#45;0.225
h_scaling 0.601&#45;&gt;key 7157
bias &#45;0.686
h_scaling 0.425</title>
<path fill="none" stroke="red" stroke-width="5.1" d="M123.68,-816.68C123.26,-808.14 122.95,-799.32 122.74,-790.61"/>
<polygon fill="red" stroke="red" stroke-width="5.1" points="127.2,-790.39 122.55,-780.48 118.28,-790.56 127.2,-790.39"/>
</g>
<!-- key 1555
bias 0.028
h_scaling 0.679&#45;&gt;key output
bias 0.745
h_scaling 0.467 -->
<g id="edge2" class="edge">
<title>key 1555
bias 0.028
h_scaling 0.679&#45;&gt;key output
bias 0.745
h_scaling 0.467</title>
<path fill="none" stroke="blue" stroke-width="5.1" d="M140.39,-490.47C130.46,-411.94 121.41,-273.57 159.2,-163.28 164.52,-147.76 173.25,-132.65 182.85,-119.11"/>
<polygon fill="blue" stroke="blue" stroke-width="5.1" points="186.57,-121.58 188.92,-110.89 179.39,-116.28 186.57,-121.58"/>
</g>
<!-- key 1555
bias 0.028
h_scaling 0.679&#45;&gt;key 1555
bias 0.028
h_scaling 0.679 -->
<g id="edge5" class="edge">
<title>key 1555
bias 0.028
h_scaling 0.679&#45;&gt;key 1555
bias 0.028
h_scaling 0.679</title>
<path fill="none" stroke="red" stroke-width="4.15" d="M206.67,-583.49C221.05,-581.52 231.84,-571.51 231.84,-553.48 231.84,-539.81 225.65,-530.75 216.39,-526.31"/>
<polygon fill="red" stroke="red" stroke-width="4.15" points="217.29,-522.8 206.67,-523.47 215.25,-529.76 217.29,-522.8"/>
</g>
<!-- key 231705
bias &#45;0.974
h_scaling 0.942 -->
<g id="node8" class="node">
<title>key 231705
bias &#45;0.974
h_scaling 0.942</title>
<ellipse fill="white" stroke="black" cx="232.2" cy="-226.92" rx="63.78" ry="63.78"/>
<text text-anchor="middle" x="232.2" y="-234.72" font-family="Times,serif" font-size="9.00">key 231705</text>
<text text-anchor="middle" x="232.2" y="-224.72" font-family="Times,serif" font-size="9.00">bias &#45;0.974</text>
<text text-anchor="middle" x="232.2" y="-214.72" font-family="Times,serif" font-size="9.00">h_scaling 0.942</text>
</g>
<!-- key 1555
bias 0.028
h_scaling 0.679&#45;&gt;key 231705
bias &#45;0.974
h_scaling 0.942 -->
<g id="edge20" class="edge">
<title>key 1555
bias 0.028
h_scaling 0.679&#45;&gt;key 231705
bias &#45;0.974
h_scaling 0.942</title>
<path fill="none" stroke="red" stroke-width="5.1" d="M165.63,-491.43C179.49,-436.58 199.84,-356.03 214.39,-298.45"/>
<polygon fill="red" stroke="red" stroke-width="5.1" points="218.73,-299.48 216.85,-288.69 210.07,-297.29 218.73,-299.48"/>
</g>
<!-- key 1555
bias 0.028
h_scaling 0.679&#45;&gt;key 14266
bias &#45;0.473
h_scaling 0.333 -->
<g id="edge10" class="edge">
<title>key 1555
bias 0.028
h_scaling 0.679&#45;&gt;key 14266
bias &#45;0.473
h_scaling 0.333</title>
<path fill="none" stroke="red" stroke-width="5.1" d="M191.75,-504.96C207.81,-486.59 226.3,-465.43 242.95,-446.39"/>
<polygon fill="red" stroke="red" stroke-width="5.1" points="246.49,-449.12 249.72,-438.65 239.77,-443.25 246.49,-449.12"/>
</g>
<!-- key 7157
bias &#45;0.686
h_scaling 0.425&#45;&gt;key 12494
bias &#45;0.225
h_scaling 0.601 -->
<g id="edge14" class="edge">
<title>key 7157
bias &#45;0.686
h_scaling 0.425&#45;&gt;key 12494
bias &#45;0.225
h_scaling 0.601</title>
<path fill="none" stroke="red" stroke-width="0.7" d="M135.72,-779.87C136.14,-788.44 136.46,-797.3 136.66,-806.04"/>
<polygon fill="red" stroke="red" stroke-width="0.7" points="133.17,-806.29 136.86,-816.22 140.17,-806.15 133.17,-806.29"/>
</g>
<!-- key 7157
bias &#45;0.686
h_scaling 0.425&#45;&gt;key 1555
bias 0.028
h_scaling 0.679 -->
<g id="edge3" class="edge">
<title>key 7157
bias &#45;0.686
h_scaling 0.425&#45;&gt;key 1555
bias 0.028
h_scaling 0.679</title>
<path fill="none" stroke="blue" stroke-width="3.3" d="M136.1,-653.4C137.35,-644.64 138.64,-635.58 139.91,-626.66"/>
<polygon fill="blue" stroke="blue" stroke-width="3.3" points="143.39,-627.06 141.34,-616.67 136.46,-626.07 143.39,-627.06"/>
</g>
<!-- key 7157
bias &#45;0.686
h_scaling 0.425&#45;&gt;key 7157
bias &#45;0.686
h_scaling 0.425 -->
<g id="edge16" class="edge">
<title>key 7157
bias &#45;0.686
h_scaling 0.425&#45;&gt;key 7157
bias &#45;0.686
h_scaling 0.425</title>
<path fill="none" stroke="red" stroke-width="2.12" d="M183.67,-746.77C198.05,-744.8 208.84,-734.79 208.84,-716.76 208.84,-703.09 202.65,-694.03 193.39,-689.59"/>
<polygon fill="red" stroke="red" stroke-width="2.12" points="194.26,-686.2 183.67,-686.74 192.29,-692.92 194.26,-686.2"/>
</g>
<!-- key 231705
bias &#45;0.974
h_scaling 0.942&#45;&gt;key output
bias 0.745
h_scaling 0.467 -->
<g id="edge21" class="edge">
<title>key 231705
bias &#45;0.974
h_scaling 0.942&#45;&gt;key output
bias 0.745
h_scaling 0.467</title>
<path fill="none" stroke="blue" stroke-width="5.1" d="M232.2,-163.1C232.2,-154.65 232.2,-145.92 232.2,-137.31"/>
<polygon fill="blue" stroke="blue" stroke-width="5.1" points="236.67,-137.28 232.2,-127.28 227.74,-137.28 236.67,-137.28"/>
</g>
<!-- key 14266
bias &#45;0.473
h_scaling 0.333&#45;&gt;key output
bias 0.745
h_scaling 0.467 -->
<g id="edge17" class="edge">
<title>key 14266
bias &#45;0.473
h_scaling 0.333&#45;&gt;key output
bias 0.745
h_scaling 0.467</title>
<path fill="none" stroke="blue" stroke-width="5.1" d="M307.08,-328.17C316.28,-281.78 322.93,-217.02 305.2,-163.28 300.07,-147.7 291.41,-132.56 281.82,-119.02"/>
<polygon fill="blue" stroke="blue" stroke-width="5.1" points="285.28,-116.19 275.75,-110.8 278.1,-121.49 285.28,-116.19"/>
</g>
<!-- key 14266
bias &#45;0.473
h_scaling 0.333&#45;&gt;key 12045
bias &#45;0.606
h_scaling 0.180 -->
<g id="edge11" class="edge">
<title>key 14266
bias &#45;0.473
h_scaling 0.333&#45;&gt;key 12045
bias &#45;0.606
h_scaling 0.180</title>
<path fill="none" stroke="red" stroke-width="1.7" d="M306.29,-452.14C329.17,-557.62 362.67,-778.73 289.2,-943.68 279.5,-965.47 262.45,-984.72 244.87,-1000.29"/>
<polygon fill="red" stroke="red" stroke-width="1.7" points="242.12,-998.03 236.78,-1007.18 246.66,-1003.36 242.12,-998.03"/>
</g>
<!-- key 14266
bias &#45;0.473
h_scaling 0.333&#45;&gt;key 231705
bias &#45;0.974
h_scaling 0.942 -->
<g id="edge22" class="edge">
<title>key 14266
bias &#45;0.473
h_scaling 0.333&#45;&gt;key 231705
bias &#45;0.974
h_scaling 0.942</title>
<path fill="none" stroke="red" stroke-width="3.18" d="M269.57,-330.06C265.6,-319.21 261.43,-307.81 257.37,-296.7"/>
<polygon fill="red" stroke="red" stroke-width="3.18" points="260.56,-295.24 253.84,-287.05 253.98,-297.64 260.56,-295.24"/>
</g>
<!-- key 208541
bias &#45;0.635
h_scaling 0.364 -->
<g id="node10" class="node">
<title>key 208541
bias &#45;0.635
h_scaling 0.364</title>
<ellipse fill="white" stroke="black" cx="184.2" cy="-1206.59" rx="63.78" ry="63.78"/>
<text text-anchor="middle" x="184.2" y="-1214.39" font-family="Times,serif" font-size="9.00">key 208541</text>
<text text-anchor="middle" x="184.2" y="-1204.39" font-family="Times,serif" font-size="9.00">bias &#45;0.635</text>
<text text-anchor="middle" x="184.2" y="-1194.39" font-family="Times,serif" font-size="9.00">h_scaling 0.364</text>
</g>
<!-- key 208541
bias &#45;0.635
h_scaling 0.364&#45;&gt;key 12045
bias &#45;0.606
h_scaling 0.180 -->
<g id="edge23" class="edge">
<title>key 208541
bias &#45;0.635
h_scaling 0.364&#45;&gt;key 12045
bias &#45;0.606
h_scaling 0.180</title>
<path fill="none" stroke="red" stroke-width="4.7" d="M184.2,-1142.78C184.2,-1134.32 184.2,-1125.59 184.2,-1116.98"/>
<polygon fill="red" stroke="red" stroke-width="4.7" points="188.32,-1116.96 184.2,-1106.96 180.09,-1116.96 188.32,-1116.96"/>
</g>
</g>
</svg>
