<?xml version="1.0" encoding="UTF-8" standalone="no"?>
<!DOCTYPE svg PUBLIC "-//W3C//DTD SVG 1.1//EN"
 "http://www.w3.org/Graphics/SVG/1.1/DTD/svg11.dtd">
<!-- Generated by graphviz version 2.43.0 (0)
 -->
<!-- Title: %3 Pages: 1 -->
<svg width="557pt" height="902pt"
 viewBox="0.00 0.00 557.00 902.40" xmlns="http://www.w3.org/2000/svg" xmlns:xlink="http://www.w3.org/1999/xlink">
<g id="graph0" class="graph" transform="scale(1 1) rotate(0) translate(4 898.4)">
<title>%3</title>
<polygon fill="white" stroke="transparent" points="-4,4 -4,-898.4 553,-898.4 553,4 -4,4"/>
<!-- ready
output 1.000 -->
<g id="node1" class="node">
<title>ready
output 1.000</title>
<polygon fill="yellow" stroke="black" points="102.5,-894.4 25.5,-894.4 25.5,-866.4 102.5,-866.4 102.5,-894.4"/>
<text text-anchor="middle" x="64" y="-883.2" font-family="Times,serif" font-size="9.00">ready</text>
<text text-anchor="middle" x="64" y="-873.2" font-family="Times,serif" font-size="9.00">output 1.000</text>
</g>
<!-- key 832
bias &#45;0.640
h_scaling 1.000
output 0.893 -->
<g id="node4" class="node">
<title>key 832
bias &#45;0.640
h_scaling 1.000
output 0.893</title>
<ellipse fill="white" stroke="black" cx="312" cy="-756.76" rx="63.78" ry="63.78"/>
<text text-anchor="middle" x="312" y="-769.56" font-family="Times,serif" font-size="9.00">key 832</text>
<text text-anchor="middle" x="312" y="-759.56" font-family="Times,serif" font-size="9.00">bias &#45;0.640</text>
<text text-anchor="middle" x="312" y="-749.56" font-family="Times,serif" font-size="9.00">h_scaling 1.000</text>
<text text-anchor="middle" x="312" y="-739.56" font-family="Times,serif" font-size="9.00">output 0.893</text>
</g>
<!-- ready
output 1.000&#45;&gt;key 832
bias &#45;0.640
h_scaling 1.000
output 0.893 -->
<g id="edge13" class="edge">
<title>ready
output 1.000&#45;&gt;key 832
bias &#45;0.640
h_scaling 1.000
output 0.893</title>
<path fill="none" stroke="blue" stroke-width="0.1" d="M90.54,-866.38C127.24,-848.38 194.72,-815.28 245.58,-790.34"/>
<polygon fill="blue" stroke="blue" stroke-width="0.1" points="247.43,-793.32 254.87,-785.78 244.35,-787.04 247.43,-793.32"/>
<text text-anchor="middle" x="160.5" y="-841.2" font-family="Times,serif" font-size="9.00">&#45;0.268</text>
</g>
<!-- key 88368
bias &#45;0.292
h_scaling 1.000
output 0.193 -->
<g id="node5" class="node">
<title>key 88368
bias &#45;0.292
h_scaling 1.000
output 0.193</title>
<ellipse fill="white" stroke="black" cx="176" cy="-410.2" rx="63.78" ry="63.78"/>
<text text-anchor="middle" x="176" y="-423" font-family="Times,serif" font-size="9.00">key 88368</text>
<text text-anchor="middle" x="176" y="-413" font-family="Times,serif" font-size="9.00">bias &#45;0.292</text>
<text text-anchor="middle" x="176" y="-403" font-family="Times,serif" font-size="9.00">h_scaling 1.000</text>
<text text-anchor="middle" x="176" y="-393" font-family="Times,serif" font-size="9.00">output 0.193</text>
</g>
<!-- ready
output 1.000&#45;&gt;key 88368
bias &#45;0.292
h_scaling 1.000
output 0.193 -->
<g id="edge19" class="edge">
<title>ready
output 1.000&#45;&gt;key 88368
bias &#45;0.292
h_scaling 1.000
output 0.193</title>
<path fill="none" stroke="blue" stroke-width="0.1" d="M65.63,-866.12C71.68,-818.54 94.45,-652.27 133,-519.84 136.95,-506.28 141.92,-492.06 147.08,-478.55"/>
<polygon fill="blue" stroke="blue" stroke-width="0.1" points="150.49,-479.44 150.86,-468.85 143.97,-476.9 150.49,-479.44"/>
<text text-anchor="middle" x="114.5" y="-667.92" font-family="Times,serif" font-size="9.00">&#45;0.506</text>
</g>
<!-- key 12976
bias &#45;0.384
h_scaling 1.000
output 0.342 -->
<g id="node6" class="node">
<title>key 12976
bias &#45;0.384
h_scaling 1.000
output 0.342</title>
<ellipse fill="white" stroke="black" cx="314" cy="-236.92" rx="63.78" ry="63.78"/>
<text text-anchor="middle" x="314" y="-249.72" font-family="Times,serif" font-size="9.00">key 12976</text>
<text text-anchor="middle" x="314" y="-239.72" font-family="Times,serif" font-size="9.00">bias &#45;0.384</text>
<text text-anchor="middle" x="314" y="-229.72" font-family="Times,serif" font-size="9.00">h_scaling 1.000</text>
<text text-anchor="middle" x="314" y="-219.72" font-family="Times,serif" font-size="9.00">output 0.342</text>
</g>
<!-- ready
output 1.000&#45;&gt;key 12976
bias &#45;0.384
h_scaling 1.000
output 0.342 -->
<g id="edge11" class="edge">
<title>ready
output 1.000&#45;&gt;key 12976
bias &#45;0.384
h_scaling 1.000
output 0.342</title>
<path fill="none" stroke="blue" stroke-width="0.1" d="M60.78,-866.35C55.6,-844.18 46,-797.68 46,-757.76 46,-757.76 46,-757.76 46,-409.2 46,-316.13 162.16,-271.37 241.53,-251.65"/>
<polygon fill="blue" stroke="blue" stroke-width="0.1" points="242.6,-254.99 251.5,-249.25 240.96,-248.18 242.6,-254.99"/>
<text text-anchor="middle" x="61.5" y="-581.28" font-family="Times,serif" font-size="9.00">&#45;0.345</text>
</g>
<!-- key 831
bias &#45;0.998
h_scaling 1.000
output 0.567 -->
<g id="node7" class="node">
<title>key 831
bias &#45;0.998
h_scaling 1.000
output 0.567</title>
<ellipse fill="white" stroke="black" cx="400" cy="-63.64" rx="63.78" ry="63.78"/>
<text text-anchor="middle" x="400" y="-76.44" font-family="Times,serif" font-size="9.00">key 831</text>
<text text-anchor="middle" x="400" y="-66.44" font-family="Times,serif" font-size="9.00">bias &#45;0.998</text>
<text text-anchor="middle" x="400" y="-56.44" font-family="Times,serif" font-size="9.00">h_scaling 1.000</text>
<text text-anchor="middle" x="400" y="-46.44" font-family="Times,serif" font-size="9.00">output 0.567</text>
</g>
<!-- ready
output 1.000&#45;&gt;key 831
bias &#45;0.998
h_scaling 1.000
output 0.567 -->
<g id="edge14" class="edge">
<title>ready
output 1.000&#45;&gt;key 831
bias &#45;0.998
h_scaling 1.000
output 0.567</title>
<path fill="none" stroke="blue" stroke-width="0.1" d="M51.66,-866.36C33.06,-845.29 0,-801.66 0,-757.76 0,-757.76 0,-757.76 0,-235.92 0,-95.68 210.36,-68.76 325.98,-64.56"/>
<polygon fill="blue" stroke="blue" stroke-width="0.1" points="326.29,-68.05 336.18,-64.24 326.07,-61.06 326.29,-68.05"/>
<text text-anchor="middle" x="15.5" y="-494.64" font-family="Times,serif" font-size="9.00">&#45;0.117</text>
</g>
<!-- go
output 0.000 -->
<g id="node2" class="node">
<title>go
output 0.000</title>
<polygon fill="green" stroke="black" points="350.5,-894.4 273.5,-894.4 273.5,-866.4 350.5,-866.4 350.5,-894.4"/>
<text text-anchor="middle" x="312" y="-883.2" font-family="Times,serif" font-size="9.00">go</text>
<text text-anchor="middle" x="312" y="-873.2" font-family="Times,serif" font-size="9.00">output 0.000</text>
</g>
<!-- go
output 0.000&#45;&gt;key 832
bias &#45;0.640
h_scaling 1.000
output 0.893 -->
<g id="edge5" class="edge">
<title>go
output 0.000&#45;&gt;key 832
bias &#45;0.640
h_scaling 1.000
output 0.893</title>
<path fill="none" stroke="red" stroke-width="0.1" d="M312,-866.38C312,-857.3 312,-844.39 312,-830.63"/>
<polygon fill="red" stroke="red" stroke-width="0.1" points="315.5,-830.49 312,-820.49 308.5,-830.49 315.5,-830.49"/>
<text text-anchor="middle" x="326" y="-841.2" font-family="Times,serif" font-size="9.00">0.236</text>
</g>
<!-- go
output 0.000&#45;&gt;key 12976
bias &#45;0.384
h_scaling 1.000
output 0.342 -->
<g id="edge6" class="edge">
<title>go
output 0.000&#45;&gt;key 12976
bias &#45;0.384
h_scaling 1.000
output 0.342</title>
<path fill="none" stroke="red" stroke-width="0.1" d="M290.27,-866.27C274.24,-855.62 252.87,-839.32 239,-820.4 141.18,-686.94 133.76,-636.42 103,-473.84 92.48,-418.26 73.55,-394.85 103,-346.56 133.11,-297.19 193.61,-269.31 242.14,-254.18"/>
<polygon fill="red" stroke="red" stroke-width="0.1" points="243.41,-257.45 251.98,-251.23 241.4,-250.75 243.41,-257.45"/>
<text text-anchor="middle" x="156" y="-581.28" font-family="Times,serif" font-size="9.00">0.373</text>
</g>
<!-- go
output 0.000&#45;&gt;key 831
bias &#45;0.998
h_scaling 1.000
output 0.567 -->
<g id="edge2" class="edge">
<title>go
output 0.000&#45;&gt;key 831
bias &#45;0.998
h_scaling 1.000
output 0.567</title>
<path fill="none" stroke="red" stroke-width="0.1" d="M350.82,-874.52C411.26,-864.52 521,-835.63 521,-757.76 521,-757.76 521,-757.76 521,-235.92 521,-187.38 488.19,-142.95 456.74,-111.51"/>
<polygon fill="red" stroke="red" stroke-width="0.1" points="458.83,-108.66 449.22,-104.2 453.95,-113.68 458.83,-108.66"/>
<text text-anchor="middle" x="535" y="-494.64" font-family="Times,serif" font-size="9.00">0.964</text>
</g>
<!-- output
bias 0.874
h_scaling 1.000
output 0.001 -->
<g id="node3" class="node">
<title>output
bias 0.874
h_scaling 1.000
output 0.001</title>
<ellipse fill="lightblue" stroke="black" cx="366" cy="-583.48" rx="63.78" ry="63.78"/>
<text text-anchor="middle" x="366" y="-596.28" font-family="Times,serif" font-size="9.00">output</text>
<text text-anchor="middle" x="366" y="-586.28" font-family="Times,serif" font-size="9.00">bias 0.874</text>
<text text-anchor="middle" x="366" y="-576.28" font-family="Times,serif" font-size="9.00">h_scaling 1.000</text>
<text text-anchor="middle" x="366" y="-566.28" font-family="Times,serif" font-size="9.00">output 0.001</text>
</g>
<!-- output
bias 0.874
h_scaling 1.000
output 0.001&#45;&gt;key 832
bias &#45;0.640
h_scaling 1.000
output 0.893 -->
<g id="edge4" class="edge">
<title>output
bias 0.874
h_scaling 1.000
output 0.001&#45;&gt;key 832
bias &#45;0.640
h_scaling 1.000
output 0.893</title>
<path fill="none" stroke="blue" stroke-width="0.1" d="M352.36,-645.75C349.81,-655.63 346.99,-665.7 344,-675.12 342.65,-679.35 341.19,-683.68 339.66,-688.02"/>
<polygon fill="blue" stroke="blue" stroke-width="0.1" points="336.33,-686.93 336.22,-697.53 342.92,-689.32 336.33,-686.93"/>
<text text-anchor="middle" x="361.5" y="-667.92" font-family="Times,serif" font-size="9.00">&#45;0.560</text>
</g>
<!-- output
bias 0.874
h_scaling 1.000
output 0.001&#45;&gt;key 88368
bias &#45;0.292
h_scaling 1.000
output 0.193 -->
<g id="edge15" class="edge">
<title>output
bias 0.874
h_scaling 1.000
output 0.001&#45;&gt;key 88368
bias &#45;0.292
h_scaling 1.000
output 0.193</title>
<path fill="none" stroke="red" stroke-width="0.1" d="M332.98,-528.43C323.83,-515.65 313.28,-502.62 302,-491.84 283.93,-474.57 261.63,-458.89 240.85,-446.04"/>
<polygon fill="red" stroke="red" stroke-width="0.1" points="242.41,-442.9 232.05,-440.71 238.79,-448.88 242.41,-442.9"/>
<text text-anchor="middle" x="324" y="-494.64" font-family="Times,serif" font-size="9.00">0.287</text>
</g>
<!-- key 832
bias &#45;0.640
h_scaling 1.000
output 0.893&#45;&gt;output
bias 0.874
h_scaling 1.000
output 0.001 -->
<g id="edge3" class="edge">
<title>key 832
bias &#45;0.640
h_scaling 1.000
output 0.893&#45;&gt;output
bias 0.874
h_scaling 1.000
output 0.001</title>
<path fill="none" stroke="blue" stroke-width="0.1" d="M308.05,-693.12C308.78,-683.6 310.29,-674 313,-665.12 315.27,-657.68 318.46,-650.29 322.16,-643.18"/>
<polygon fill="blue" stroke="blue" stroke-width="0.1" points="325.28,-644.76 327.09,-634.32 319.16,-641.36 325.28,-644.76"/>
<text text-anchor="middle" x="328.5" y="-667.92" font-family="Times,serif" font-size="9.00">&#45;1.000</text>
</g>
<!-- key 88368
bias &#45;0.292
h_scaling 1.000
output 0.193&#45;&gt;key 88368
bias &#45;0.292
h_scaling 1.000
output 0.193 -->
<g id="edge18" class="edge">
<title>key 88368
bias &#45;0.292
h_scaling 1.000
output 0.193&#45;&gt;key 88368
bias &#45;0.292
h_scaling 1.000
output 0.193</title>
<path fill="none" stroke="red" stroke-width="0.1" d="M237.94,-425.5C249.5,-423.61 257.64,-418.51 257.64,-410.2 257.64,-404.48 253.79,-400.29 247.63,-397.61"/>
<polygon fill="red" stroke="red" stroke-width="0.1" points="248.52,-394.22 237.94,-394.9 246.63,-400.96 248.52,-394.22"/>
<text text-anchor="middle" x="271.64" y="-408" font-family="Times,serif" font-size="9.00">0.675</text>
</g>
<!-- key 88368
bias &#45;0.292
h_scaling 1.000
output 0.193&#45;&gt;key 12976
bias &#45;0.384
h_scaling 1.000
output 0.342 -->
<g id="edge16" class="edge">
<title>key 88368
bias &#45;0.292
h_scaling 1.000
output 0.193&#45;&gt;key 12976
bias &#45;0.384
h_scaling 1.000
output 0.342</title>
<path fill="none" stroke="red" stroke-width="0.1" d="M215.55,-360.12C231.93,-339.78 251.04,-316.06 268.05,-294.96"/>
<polygon fill="red" stroke="red" stroke-width="0.1" points="270.9,-296.99 274.45,-287.01 265.45,-292.6 270.9,-296.99"/>
<text text-anchor="middle" x="259" y="-321.36" font-family="Times,serif" font-size="9.00">0.595</text>
</g>
<!-- key 12976
bias &#45;0.384
h_scaling 1.000
output 0.342&#45;&gt;output
bias 0.874
h_scaling 1.000
output 0.001 -->
<g id="edge17" class="edge">
<title>key 12976
bias &#45;0.384
h_scaling 1.000
output 0.342&#45;&gt;output
bias 0.874
h_scaling 1.000
output 0.001</title>
<path fill="none" stroke="blue" stroke-width="0.1" d="M324.96,-299.96C326.01,-306.24 327.04,-312.52 328,-318.56 338.28,-383.31 348.82,-457.19 356.18,-510.28"/>
<polygon fill="blue" stroke="blue" stroke-width="0.1" points="352.72,-510.85 357.56,-520.28 359.66,-509.89 352.72,-510.85"/>
<text text-anchor="middle" x="365.5" y="-408" font-family="Times,serif" font-size="9.00">&#45;0.686</text>
</g>
<!-- key 12976
bias &#45;0.384
h_scaling 1.000
output 0.342&#45;&gt;key 832
bias &#45;0.640
h_scaling 1.000
output 0.893 -->
<g id="edge7" class="edge">
<title>key 12976
bias &#45;0.384
h_scaling 1.000
output 0.342&#45;&gt;key 832
bias &#45;0.640
h_scaling 1.000
output 0.893</title>
<path fill="none" stroke="red" stroke-width="0.1" d="M322.66,-300.17C326.56,-350.29 324.88,-420.87 295,-473.84 288.27,-485.76 276.24,-479.65 270,-491.84 267.97,-495.79 269.65,-497.41 270,-501.84 275.13,-567.01 282.26,-582.63 293,-647.12 294.98,-659 297.13,-671.59 299.25,-683.84"/>
<polygon fill="red" stroke="red" stroke-width="0.1" points="295.86,-684.77 301.03,-694.02 302.76,-683.57 295.86,-684.77"/>
<text text-anchor="middle" x="284" y="-494.64" font-family="Times,serif" font-size="9.00">0.932</text>
</g>
<!-- key 12976
bias &#45;0.384
h_scaling 1.000
output 0.342&#45;&gt;key 831
bias &#45;0.998
h_scaling 1.000
output 0.567 -->
<g id="edge8" class="edge">
<title>key 12976
bias &#45;0.384
h_scaling 1.000
output 0.342&#45;&gt;key 831
bias &#45;0.998
h_scaling 1.000
output 0.567</title>
<path fill="none" stroke="red" stroke-width="0.1" d="M314.78,-173.04C316.44,-163.46 319.04,-153.9 323,-145.28 328.29,-133.76 335.92,-122.86 344.33,-113.01"/>
<polygon fill="red" stroke="red" stroke-width="0.1" points="347.14,-115.12 351.22,-105.34 341.93,-110.44 347.14,-115.12"/>
<text text-anchor="middle" x="337" y="-148.08" font-family="Times,serif" font-size="9.00">0.644</text>
</g>
<!-- key 831
bias &#45;0.998
h_scaling 1.000
output 0.567&#45;&gt;output
bias 0.874
h_scaling 1.000
output 0.001 -->
<g id="edge1" class="edge">
<title>key 831
bias &#45;0.998
h_scaling 1.000
output 0.567&#45;&gt;output
bias 0.874
h_scaling 1.000
output 0.001</title>
<path fill="none" stroke="blue" stroke-width="0.1" d="M400.35,-127.57C400.19,-208.07 397.86,-351.71 385,-473.84 383.74,-485.81 381.95,-498.46 379.97,-510.73"/>
<polygon fill="blue" stroke="blue" stroke-width="0.1" points="376.46,-510.48 378.27,-520.92 383.37,-511.63 376.46,-510.48"/>
<text text-anchor="middle" x="410.5" y="-321.36" font-family="Times,serif" font-size="9.00">&#45;0.998</text>
</g>
<!-- key 831
bias &#45;0.998
h_scaling 1.000
output 0.567&#45;&gt;key 832
bias &#45;0.640
h_scaling 1.000
output 0.893 -->
<g id="edge10" class="edge">
<title>key 831
bias &#45;0.998
h_scaling 1.000
output 0.567&#45;&gt;key 832
bias &#45;0.640
h_scaling 1.000
output 0.893</title>
<path fill="none" stroke="red" stroke-width="0.1" d="M432.12,-118.98C448.5,-151.72 465,-194.89 465,-235.92 465,-584.48 465,-584.48 465,-584.48 465,-641.48 417.28,-688.24 375.14,-718.41"/>
<polygon fill="red" stroke="red" stroke-width="0.1" points="373.01,-715.63 366.8,-724.22 377.01,-721.37 373.01,-715.63"/>
<text text-anchor="middle" x="479" y="-408" font-family="Times,serif" font-size="9.00">0.900</text>
</g>
<!-- key 831
bias &#45;0.998
h_scaling 1.000
output 0.567&#45;&gt;key 12976
bias &#45;0.384
h_scaling 1.000
output 0.342 -->
<g id="edge12" class="edge">
<title>key 831
bias &#45;0.998
h_scaling 1.000
output 0.567&#45;&gt;key 12976
bias &#45;0.384
h_scaling 1.000
output 0.342</title>
<path fill="none" stroke="red" stroke-width="0.1" d="M371.78,-120.85C363.75,-136.83 354.95,-154.36 346.69,-170.82"/>
<polygon fill="red" stroke="red" stroke-width="0.1" points="343.52,-169.33 342.16,-179.84 349.77,-172.47 343.52,-169.33"/>
<text text-anchor="middle" x="371" y="-148.08" font-family="Times,serif" font-size="9.00">0.209</text>
</g>
<!-- key 831
bias &#45;0.998
h_scaling 1.000
output 0.567&#45;&gt;key 831
bias &#45;0.998
h_scaling 1.000
output 0.567 -->
<g id="edge9" class="edge">
<title>key 831
bias &#45;0.998
h_scaling 1.000
output 0.567&#45;&gt;key 831
bias &#45;0.998
h_scaling 1.000
output 0.567</title>
<path fill="none" stroke="red" stroke-width="0.1" d="M461.94,-78.94C473.5,-77.05 481.64,-71.95 481.64,-63.64 481.64,-57.92 477.79,-53.73 471.63,-51.05"/>
<polygon fill="red" stroke="red" stroke-width="0.1" points="472.52,-47.66 461.94,-48.34 470.63,-54.4 472.52,-47.66"/>
<text text-anchor="middle" x="495.64" y="-61.44" font-family="Times,serif" font-size="9.00">0.976</text>
</g>
</g>
</svg>
