<?xml version="1.0" encoding="UTF-8" standalone="no"?>
<!DOCTYPE svg PUBLIC "-//W3C//DTD SVG 1.1//EN"
 "http://www.w3.org/Graphics/SVG/1.1/DTD/svg11.dtd">
<!-- Generated by graphviz version 8.0.5 (20230430.1635)
 -->
<!-- Pages: 1 -->
<svg width="356pt" height="713pt"
 viewBox="0.00 0.00 356.44 712.83" xmlns="http://www.w3.org/2000/svg" xmlns:xlink="http://www.w3.org/1999/xlink">
<g id="graph0" class="graph" transform="scale(1 1) rotate(0) translate(4 708.83)">
<polygon fill="white" stroke="none" points="-4,4 -4,-708.83 352.44,-708.83 352.44,4 -4,4"/>
<!-- ready -->
<g id="node1" class="node">
<title>ready</title>
<polygon fill="yellow" stroke="black" points="220,-704.83 183.75,-704.83 183.75,-685.58 220,-685.58 220,-704.83"/>
<text text-anchor="middle" x="201.88" y="-692.28" font-family="Times New Roman,serif" font-size="9.00">ready</text>
</g>
<!-- key 14003
bias &#45;0.030
h_scaling 0.320 -->
<g id="node5" class="node">
<title>key 14003
bias &#45;0.030
h_scaling 0.320</title>
<ellipse fill="white" stroke="black" cx="153.88" cy="-324.79" rx="50.56" ry="50.56"/>
<text text-anchor="middle" x="153.88" y="-333.12" font-family="Times New Roman,serif" font-size="9.00">key 14003</text>
<text text-anchor="middle" x="153.88" y="-321.87" font-family="Times New Roman,serif" font-size="9.00">bias &#45;0.030</text>
<text text-anchor="middle" x="153.88" y="-310.62" font-family="Times New Roman,serif" font-size="9.00">h_scaling 0.320</text>
</g>
<!-- ready&#45;&gt;key 14003
bias &#45;0.030
h_scaling 0.320 -->
<g id="edge12" class="edge">
<title>ready&#45;&gt;key 14003
bias &#45;0.030
h_scaling 0.320</title>
<path fill="none" stroke="red" stroke-width="1.29" d="M196.81,-685.3C192.07,-676.52 185.25,-662.57 181.88,-649.58 158.63,-559.95 153.68,-452.17 153.12,-386.35"/>
<polygon fill="red" stroke="red" stroke-width="1.29" points="156.62,-386.74 153.07,-376.75 149.62,-386.77 156.62,-386.74"/>
</g>
<!-- key 24661
bias &#45;0.449
h_scaling 0.317 -->
<g id="node7" class="node">
<title>key 24661
bias &#45;0.449
h_scaling 0.317</title>
<ellipse fill="white" stroke="black" cx="241.88" cy="-599.02" rx="50.56" ry="50.56"/>
<text text-anchor="middle" x="241.88" y="-607.35" font-family="Times New Roman,serif" font-size="9.00">key 24661</text>
<text text-anchor="middle" x="241.88" y="-596.1" font-family="Times New Roman,serif" font-size="9.00">bias &#45;0.449</text>
<text text-anchor="middle" x="241.88" y="-584.85" font-family="Times New Roman,serif" font-size="9.00">h_scaling 0.317</text>
</g>
<!-- ready&#45;&gt;key 24661
bias &#45;0.449
h_scaling 0.317 -->
<g id="edge5" class="edge">
<title>ready&#45;&gt;key 24661
bias &#45;0.449
h_scaling 0.317</title>
<path fill="none" stroke="red" stroke-width="3.07" d="M205.71,-685.18C208.49,-678.63 212.52,-669.15 216.88,-658.88"/>
<polygon fill="red" stroke="red" stroke-width="3.07" points="220.63,-660.66 221.31,-650.09 214.18,-657.92 220.63,-660.66"/>
</g>
<!-- go -->
<g id="node2" class="node">
<title>go</title>
<polygon fill="green" stroke="black" points="57,-608.65 32.75,-608.65 32.75,-589.4 57,-589.4 57,-608.65"/>
<text text-anchor="middle" x="44.88" y="-596.1" font-family="Times New Roman,serif" font-size="9.00">go</text>
</g>
<!-- key 38915
bias &#45;0.873
h_scaling 0.519 -->
<g id="node4" class="node">
<title>key 38915
bias &#45;0.873
h_scaling 0.519</title>
<ellipse fill="white" stroke="black" cx="181.88" cy="-50.56" rx="50.56" ry="50.56"/>
<text text-anchor="middle" x="181.88" y="-58.88" font-family="Times New Roman,serif" font-size="9.00">key 38915</text>
<text text-anchor="middle" x="181.88" y="-47.63" font-family="Times New Roman,serif" font-size="9.00">bias &#45;0.873</text>
<text text-anchor="middle" x="181.88" y="-36.38" font-family="Times New Roman,serif" font-size="9.00">h_scaling 0.519</text>
</g>
<!-- go&#45;&gt;key 38915
bias &#45;0.873
h_scaling 0.519 -->
<g id="edge8" class="edge">
<title>go&#45;&gt;key 38915
bias &#45;0.873
h_scaling 0.519</title>
<path fill="none" stroke="red" stroke-width="1.65" d="M39.31,-588.96C30.37,-573.8 13.15,-542.04 6.88,-512.47 -2.45,-468.5 -1.99,-455.41 6.88,-411.35 32.95,-281.78 58.01,-252.83 121.88,-137.12 128.59,-124.96 136.65,-112.42 144.66,-100.81"/>
<polygon fill="red" stroke="red" stroke-width="1.65" points="147.45,-103.51 150.34,-93.31 141.73,-99.48 147.45,-103.51"/>
</g>
<!-- go&#45;&gt;key 14003
bias &#45;0.030
h_scaling 0.320 -->
<g id="edge17" class="edge">
<title>go&#45;&gt;key 14003
bias &#45;0.030
h_scaling 0.320</title>
<path fill="none" stroke="blue" stroke-width="0.83" d="M40.51,-589.17C27.34,-561.12 -9.08,-472.5 23.88,-411.35 39.41,-382.54 69.34,-361.84 96.58,-348.02"/>
<polygon fill="blue" stroke="blue" stroke-width="0.83" points="97.98,-350.75 105.46,-343.24 94.93,-344.45 97.98,-350.75"/>
</g>
<!-- key 218932
bias &#45;0.882
h_scaling 0.760 -->
<g id="node6" class="node">
<title>key 218932
bias &#45;0.882
h_scaling 0.760</title>
<ellipse fill="white" stroke="black" cx="83.88" cy="-461.91" rx="50.56" ry="50.56"/>
<text text-anchor="middle" x="83.88" y="-470.23" font-family="Times New Roman,serif" font-size="9.00">key 218932</text>
<text text-anchor="middle" x="83.88" y="-458.98" font-family="Times New Roman,serif" font-size="9.00">bias &#45;0.882</text>
<text text-anchor="middle" x="83.88" y="-447.73" font-family="Times New Roman,serif" font-size="9.00">h_scaling 0.760</text>
</g>
<!-- go&#45;&gt;key 218932
bias &#45;0.882
h_scaling 0.760 -->
<g id="edge19" class="edge">
<title>go&#45;&gt;key 218932
bias &#45;0.882
h_scaling 0.760</title>
<path fill="none" stroke="blue" stroke-width="0.51" d="M47.44,-589.16C51.48,-575.14 59.67,-546.76 67.27,-520.45"/>
<polygon fill="blue" stroke="blue" stroke-width="0.51" points="70.62,-521.46 70.03,-510.88 63.9,-519.51 70.62,-521.46"/>
</g>
<!-- key 2073
bias &#45;0.348
h_scaling 0.680 -->
<g id="node8" class="node">
<title>key 2073
bias &#45;0.348
h_scaling 0.680</title>
<ellipse fill="white" stroke="black" cx="279.88" cy="-461.91" rx="50.56" ry="50.56"/>
<text text-anchor="middle" x="279.88" y="-470.23" font-family="Times New Roman,serif" font-size="9.00">key 2073</text>
<text text-anchor="middle" x="279.88" y="-458.98" font-family="Times New Roman,serif" font-size="9.00">bias &#45;0.348</text>
<text text-anchor="middle" x="279.88" y="-447.73" font-family="Times New Roman,serif" font-size="9.00">h_scaling 0.680</text>
</g>
<!-- go&#45;&gt;key 2073
bias &#45;0.348
h_scaling 0.680 -->
<g id="edge2" class="edge">
<title>go&#45;&gt;key 2073
bias &#45;0.348
h_scaling 0.680</title>
<path fill="none" stroke="red" stroke-width="1.71" d="M57.18,-590.95C88.06,-573.2 170.3,-525.91 225.72,-494.04"/>
<polygon fill="red" stroke="red" stroke-width="1.71" points="227.16,-497.1 234.09,-489.09 223.67,-491.04 227.16,-497.1"/>
</g>
<!-- output
bias &#45;0.016
h_scaling 0.772 -->
<g id="node3" class="node">
<title>output
bias &#45;0.016
h_scaling 0.772</title>
<ellipse fill="lightblue" stroke="black" cx="181.88" cy="-187.67" rx="50.56" ry="50.56"/>
<text text-anchor="middle" x="181.88" y="-196" font-family="Times New Roman,serif" font-size="9.00">output</text>
<text text-anchor="middle" x="181.88" y="-184.75" font-family="Times New Roman,serif" font-size="9.00">bias &#45;0.016</text>
<text text-anchor="middle" x="181.88" y="-173.5" font-family="Times New Roman,serif" font-size="9.00">h_scaling 0.772</text>
</g>
<!-- output
bias &#45;0.016
h_scaling 0.772&#45;&gt;key 38915
bias &#45;0.873
h_scaling 0.519 -->
<g id="edge13" class="edge">
<title>output
bias &#45;0.016
h_scaling 0.772&#45;&gt;key 38915
bias &#45;0.873
h_scaling 0.519</title>
<path fill="none" stroke="red" stroke-width="2.47" d="M175.35,-137.13C175.16,-129.6 175.09,-121.75 175.15,-114"/>
<polygon fill="red" stroke="red" stroke-width="2.47" points="178.69,-114.15 175.35,-104.1 171.69,-114.04 178.69,-114.15"/>
</g>
<!-- key 38915
bias &#45;0.873
h_scaling 0.519&#45;&gt;output
bias &#45;0.016
h_scaling 0.772 -->
<g id="edge11" class="edge">
<title>key 38915
bias &#45;0.873
h_scaling 0.519&#45;&gt;output
bias &#45;0.016
h_scaling 0.772</title>
<path fill="none" stroke="blue" stroke-width="2.71" d="M188.41,-101.1C188.59,-108.35 188.66,-115.9 188.62,-123.38"/>
<polygon fill="blue" stroke="blue" stroke-width="2.71" points="185.06,-123.08 188.41,-133.13 192.06,-123.18 185.06,-123.08"/>
</g>
<!-- key 38915
bias &#45;0.873
h_scaling 0.519&#45;&gt;key 38915
bias &#45;0.873
h_scaling 0.519 -->
<g id="edge9" class="edge">
<title>key 38915
bias &#45;0.873
h_scaling 0.519&#45;&gt;key 38915
bias &#45;0.873
h_scaling 0.519</title>
<path fill="none" stroke="red" stroke-width="3.1" d="M225.73,-76.25C239.54,-75.86 250.44,-67.3 250.44,-50.56 250.44,-39.84 245.96,-32.47 239.12,-28.45"/>
<polygon fill="red" stroke="red" stroke-width="3.1" points="240.29,-25.07 229.73,-25.86 238.48,-31.83 240.29,-25.07"/>
</g>
<!-- key 14003
bias &#45;0.030
h_scaling 0.320&#45;&gt;output
bias &#45;0.016
h_scaling 0.772 -->
<g id="edge4" class="edge">
<title>key 14003
bias &#45;0.030
h_scaling 0.320&#45;&gt;output
bias &#45;0.016
h_scaling 0.772</title>
<path fill="none" stroke="red" stroke-width="3.1" d="M163.99,-275.01C165.61,-267.17 167.31,-258.95 168.99,-250.85"/>
<polygon fill="red" stroke="red" stroke-width="3.1" points="173.18,-251.89 171.78,-241.38 166.33,-250.46 173.18,-251.89"/>
</g>
<!-- key 14003
bias &#45;0.030
h_scaling 0.320&#45;&gt;key 14003
bias &#45;0.030
h_scaling 0.320 -->
<g id="edge16" class="edge">
<title>key 14003
bias &#45;0.030
h_scaling 0.320&#45;&gt;key 14003
bias &#45;0.030
h_scaling 0.320</title>
<path fill="none" stroke="red" stroke-width="1.98" d="M197.73,-350.49C211.54,-350.09 222.44,-341.53 222.44,-324.79 222.44,-313.54 217.52,-305.99 210.1,-302.12"/>
<polygon fill="red" stroke="red" stroke-width="1.98" points="210.27,-298.07 199.73,-299.1 208.61,-304.87 210.27,-298.07"/>
</g>
<!-- key 218932
bias &#45;0.882
h_scaling 0.760&#45;&gt;key 14003
bias &#45;0.030
h_scaling 0.320 -->
<g id="edge18" class="edge">
<title>key 218932
bias &#45;0.882
h_scaling 0.760&#45;&gt;key 14003
bias &#45;0.030
h_scaling 0.320</title>
<path fill="none" stroke="red" d="M106.8,-416.66C112.9,-404.88 119.56,-392.02 125.91,-379.78"/>
<polygon fill="red" stroke="red" points="129.41,-381.62 130.91,-371.13 123.2,-378.4 129.41,-381.62"/>
</g>
<!-- key 24661
bias &#45;0.449
h_scaling 0.317&#45;&gt;key 14003
bias &#45;0.030
h_scaling 0.320 -->
<g id="edge14" class="edge">
<title>key 24661
bias &#45;0.449
h_scaling 0.317&#45;&gt;key 14003
bias &#45;0.030
h_scaling 0.320</title>
<path fill="none" stroke="red" stroke-width="1.14" d="M226.55,-550.6C211.52,-504.1 188.57,-433.12 172.5,-383.4"/>
<polygon fill="red" stroke="red" stroke-width="1.14" points="175.58,-382.56 169.18,-374.12 168.92,-384.71 175.58,-382.56"/>
</g>
<!-- key 24661
bias &#45;0.449
h_scaling 0.317&#45;&gt;key 24661
bias &#45;0.449
h_scaling 0.317 -->
<g id="edge7" class="edge">
<title>key 24661
bias &#45;0.449
h_scaling 0.317&#45;&gt;key 24661
bias &#45;0.449
h_scaling 0.317</title>
<path fill="none" stroke="red" stroke-width="2.12" d="M289.62,-616.81C301.53,-615.57 310.44,-609.64 310.44,-599.02 310.44,-592.56 307.13,-587.83 301.85,-584.84"/>
<polygon fill="red" stroke="red" stroke-width="2.12" points="303.2,-580.7 292.62,-581.24 301.22,-587.42 303.2,-580.7"/>
</g>
<!-- key 24661
bias &#45;0.449
h_scaling 0.317&#45;&gt;key 2073
bias &#45;0.348
h_scaling 0.680 -->
<g id="edge6" class="edge">
<title>key 24661
bias &#45;0.449
h_scaling 0.317&#45;&gt;key 2073
bias &#45;0.348
h_scaling 0.680</title>
<path fill="none" stroke="blue" stroke-width="0.71" d="M255.38,-550.01C258.01,-540.65 260.8,-530.74 263.51,-521.1"/>
<polygon fill="blue" stroke="blue" stroke-width="0.71" points="267.08,-522.34 266.42,-511.77 260.34,-520.45 267.08,-522.34"/>
</g>
<!-- key 2073
bias &#45;0.348
h_scaling 0.680&#45;&gt;output
bias &#45;0.016
h_scaling 0.772 -->
<g id="edge1" class="edge">
<title>key 2073
bias &#45;0.348
h_scaling 0.680&#45;&gt;output
bias &#45;0.016
h_scaling 0.772</title>
<path fill="none" stroke="blue" stroke-width="3.1" d="M271.12,-411.76C263.37,-373.41 250.4,-319.26 231.88,-274.23 227.55,-263.71 222.12,-252.92 216.45,-242.7"/>
<polygon fill="blue" stroke="blue" stroke-width="3.1" points="219.49,-241.49 211.47,-234.57 213.43,-244.98 219.49,-241.49"/>
</g>
<!-- key 2073
bias &#45;0.348
h_scaling 0.680&#45;&gt;key 38915
bias &#45;0.873
h_scaling 0.519 -->
<g id="edge10" class="edge">
<title>key 2073
bias &#45;0.348
h_scaling 0.680&#45;&gt;key 38915
bias &#45;0.873
h_scaling 0.519</title>
<path fill="none" stroke="red" stroke-width="1.4" d="M281.77,-411.02C282.53,-345.75 277.97,-228.9 241.88,-137.12 236.74,-124.06 229.23,-111.08 221.25,-99.33"/>
<polygon fill="red" stroke="red" stroke-width="1.4" points="224.12,-96.9 215.48,-90.77 218.41,-100.95 224.12,-96.9"/>
</g>
<!-- key 2073
bias &#45;0.348
h_scaling 0.680&#45;&gt;key 14003
bias &#45;0.030
h_scaling 0.320 -->
<g id="edge15" class="edge">
<title>key 2073
bias &#45;0.348
h_scaling 0.680&#45;&gt;key 14003
bias &#45;0.030
h_scaling 0.320</title>
<path fill="none" stroke="blue" stroke-width="3.1" d="M245.78,-424.34C230.79,-408.27 213.02,-389.21 197.12,-372.16"/>
<polygon fill="blue" stroke="blue" stroke-width="3.1" points="200.38,-370.31 191,-365.38 195.26,-375.08 200.38,-370.31"/>
</g>
<!-- key 2073
bias &#45;0.348
h_scaling 0.680&#45;&gt;key 2073
bias &#45;0.348
h_scaling 0.680 -->
<g id="edge3" class="edge">
<title>key 2073
bias &#45;0.348
h_scaling 0.680&#45;&gt;key 2073
bias &#45;0.348
h_scaling 0.680</title>
<path fill="none" stroke="red" stroke-width="2.33" d="M323.73,-487.6C337.54,-487.21 348.44,-478.64 348.44,-461.91 348.44,-450.66 343.52,-443.1 336.1,-439.24"/>
<polygon fill="red" stroke="red" stroke-width="2.33" points="337.27,-435.19 326.73,-436.21 335.61,-441.99 337.27,-435.19"/>
</g>
</g>
</svg>
