<?xml version="1.0" encoding="UTF-8" standalone="no"?>
<!DOCTYPE svg PUBLIC "-//W3C//DTD SVG 1.1//EN"
 "http://www.w3.org/Graphics/SVG/1.1/DTD/svg11.dtd">
<!-- Generated by graphviz version 8.0.5 (20230430.1635)
 -->
<!-- Pages: 1 -->
<svg width="320pt" height="769pt"
 viewBox="0.00 0.00 319.81 769.08" xmlns="http://www.w3.org/2000/svg" xmlns:xlink="http://www.w3.org/1999/xlink">
<g id="graph0" class="graph" transform="scale(1 1) rotate(0) translate(4 765.08)">
<polygon fill="white" stroke="none" points="-4,4 -4,-765.08 315.81,-765.08 315.81,4 -4,4"/>
<!-- ready -->
<g id="node1" class="node">
<title>ready</title>
<polygon fill="yellow" stroke="black" points="176.68,-761.08 140.43,-761.08 140.43,-741.83 176.68,-741.83 176.68,-761.08"/>
<text text-anchor="middle" x="158.56" y="-748.53" font-family="Times New Roman,serif" font-size="9.00">ready</text>
</g>
<!-- key 5665
bias &#45;0.063
h_scaling 0.748 -->
<g id="node4" class="node">
<title>key 5665
bias &#45;0.063
h_scaling 0.748</title>
<ellipse fill="white" stroke="black" cx="50.56" cy="-198.92" rx="50.56" ry="50.56"/>
<text text-anchor="middle" x="50.56" y="-207.25" font-family="Times New Roman,serif" font-size="9.00">key 5665</text>
<text text-anchor="middle" x="50.56" y="-196" font-family="Times New Roman,serif" font-size="9.00">bias &#45;0.063</text>
<text text-anchor="middle" x="50.56" y="-184.75" font-family="Times New Roman,serif" font-size="9.00">h_scaling 0.748</text>
</g>
<!-- ready&#45;&gt;key 5665
bias &#45;0.063
h_scaling 0.748 -->
<g id="edge5" class="edge">
<title>ready&#45;&gt;key 5665
bias &#45;0.063
h_scaling 0.748</title>
<path fill="none" stroke="red" stroke-width="0.7" d="M140.05,-747.05C98.73,-738.25 2.56,-710.73 2.56,-645.02 2.56,-645.02 2.56,-645.02 2.56,-346.29 2.56,-314.87 12.67,-281.46 23.61,-254.51"/>
<polygon fill="red" stroke="red" stroke-width="0.7" points="27.16,-255.08 27.82,-244.51 20.71,-252.37 27.16,-255.08"/>
<text text-anchor="middle" x="12.68" y="-492.73" font-family="Times New Roman,serif" font-size="9.00">0.020</text>
</g>
<!-- key 38307
bias &#45;0.282
h_scaling 0.984 -->
<g id="node5" class="node">
<title>key 38307
bias &#45;0.282
h_scaling 0.984</title>
<ellipse fill="white" stroke="black" cx="158.56" cy="-644.02" rx="50.56" ry="50.56"/>
<text text-anchor="middle" x="158.56" y="-652.35" font-family="Times New Roman,serif" font-size="9.00">key 38307</text>
<text text-anchor="middle" x="158.56" y="-641.1" font-family="Times New Roman,serif" font-size="9.00">bias &#45;0.282</text>
<text text-anchor="middle" x="158.56" y="-629.85" font-family="Times New Roman,serif" font-size="9.00">h_scaling 0.984</text>
</g>
<!-- ready&#45;&gt;key 38307
bias &#45;0.282
h_scaling 0.984 -->
<g id="edge7" class="edge">
<title>ready&#45;&gt;key 38307
bias &#45;0.282
h_scaling 0.984</title>
<path fill="none" stroke="red" stroke-width="0.33" d="M158.56,-741.47C158.56,-732.85 158.56,-719.03 158.56,-704.52"/>
<polygon fill="red" stroke="red" stroke-width="0.33" points="162.06,-704.93 158.56,-694.93 155.06,-704.93 162.06,-704.93"/>
<text text-anchor="middle" x="168.68" y="-715.28" font-family="Times New Roman,serif" font-size="9.00">0.008</text>
</g>
<!-- key 186159
bias &#45;0.886
h_scaling 0.554 -->
<g id="node7" class="node">
<title>key 186159
bias &#45;0.886
h_scaling 0.554</title>
<ellipse fill="white" stroke="black" cx="250.56" cy="-347.29" rx="50.56" ry="50.56"/>
<text text-anchor="middle" x="250.56" y="-355.62" font-family="Times New Roman,serif" font-size="9.00">key 186159</text>
<text text-anchor="middle" x="250.56" y="-344.37" font-family="Times New Roman,serif" font-size="9.00">bias &#45;0.886</text>
<text text-anchor="middle" x="250.56" y="-333.12" font-family="Times New Roman,serif" font-size="9.00">h_scaling 0.554</text>
</g>
<!-- ready&#45;&gt;key 186159
bias &#45;0.886
h_scaling 0.554 -->
<g id="edge12" class="edge">
<title>ready&#45;&gt;key 186159
bias &#45;0.886
h_scaling 0.554</title>
<path fill="none" stroke="red" stroke-width="3.05" d="M176.93,-745.58C199.76,-738.48 237.99,-722.92 256.56,-694.58 313.02,-608.41 291.22,-482.47 270.62,-408.59"/>
<polygon fill="red" stroke="red" stroke-width="3.05" points="273.95,-408.05 267.81,-399.42 267.23,-410 273.95,-408.05"/>
<text text-anchor="middle" x="301.68" y="-566.92" font-family="Times New Roman,serif" font-size="9.00">0.098</text>
</g>
<!-- go -->
<g id="node2" class="node">
<title>go</title>
<polygon fill="green" stroke="black" points="75.68,-653.65 51.43,-653.65 51.43,-634.4 75.68,-634.4 75.68,-653.65"/>
<text text-anchor="middle" x="63.56" y="-641.1" font-family="Times New Roman,serif" font-size="9.00">go</text>
</g>
<!-- go&#45;&gt;key 5665
bias &#45;0.063
h_scaling 0.748 -->
<g id="edge2" class="edge">
<title>go&#45;&gt;key 5665
bias &#45;0.063
h_scaling 0.748</title>
<path fill="none" stroke="blue" stroke-width="0.1" d="M63.3,-634.17C61.93,-587.39 55.46,-367.03 52.3,-259.39"/>
<polygon fill="blue" stroke="blue" stroke-width="0.1" points="55.81,-259.54 52.02,-249.65 48.81,-259.75 55.81,-259.54"/>
</g>
<!-- key 16367
bias &#45;0.020
h_scaling 0.577 -->
<g id="node6" class="node">
<title>key 16367
bias &#45;0.020
h_scaling 0.577</title>
<ellipse fill="white" stroke="black" cx="129.56" cy="-495.66" rx="50.56" ry="50.56"/>
<text text-anchor="middle" x="129.56" y="-503.98" font-family="Times New Roman,serif" font-size="9.00">key 16367</text>
<text text-anchor="middle" x="129.56" y="-492.73" font-family="Times New Roman,serif" font-size="9.00">bias &#45;0.020</text>
<text text-anchor="middle" x="129.56" y="-481.48" font-family="Times New Roman,serif" font-size="9.00">h_scaling 0.577</text>
</g>
<!-- go&#45;&gt;key 16367
bias &#45;0.020
h_scaling 0.577 -->
<g id="edge6" class="edge">
<title>go&#45;&gt;key 16367
bias &#45;0.020
h_scaling 0.577</title>
<path fill="none" stroke="red" stroke-width="1.12" d="M67.49,-634.31C74.73,-618.26 90.69,-582.85 104.62,-551.96"/>
<polygon fill="red" stroke="red" stroke-width="1.12" points="108.14,-553.68 109.06,-543.13 101.75,-550.8 108.14,-553.68"/>
<text text-anchor="middle" x="107.68" y="-566.92" font-family="Times New Roman,serif" font-size="9.00">0.034</text>
</g>
<!-- output
bias &#45;0.449
h_scaling 0.908 -->
<g id="node3" class="node">
<title>output
bias &#45;0.449
h_scaling 0.908</title>
<ellipse fill="lightblue" stroke="black" cx="108.56" cy="-50.56" rx="50.56" ry="50.56"/>
<text text-anchor="middle" x="108.56" y="-58.88" font-family="Times New Roman,serif" font-size="9.00">output</text>
<text text-anchor="middle" x="108.56" y="-47.63" font-family="Times New Roman,serif" font-size="9.00">bias &#45;0.449</text>
<text text-anchor="middle" x="108.56" y="-36.38" font-family="Times New Roman,serif" font-size="9.00">h_scaling 0.908</text>
</g>
<!-- key 5665
bias &#45;0.063
h_scaling 0.748&#45;&gt;output
bias &#45;0.449
h_scaling 0.908 -->
<g id="edge1" class="edge">
<title>key 5665
bias &#45;0.063
h_scaling 0.748&#45;&gt;output
bias &#45;0.449
h_scaling 0.908</title>
<path fill="none" stroke="red" stroke-width="0.45" d="M68.91,-151.61C74.52,-137.46 80.74,-121.76 86.56,-107.07"/>
<polygon fill="red" stroke="red" stroke-width="0.45" points="89.7,-108.66 90.13,-98.07 83.19,-106.08 89.7,-108.66"/>
<text text-anchor="middle" x="90.68" y="-121.82" font-family="Times New Roman,serif" font-size="9.00">0.012</text>
</g>
<!-- key 5665
bias &#45;0.063
h_scaling 0.748&#45;&gt;key 5665
bias &#45;0.063
h_scaling 0.748 -->
<g id="edge11" class="edge">
<title>key 5665
bias &#45;0.063
h_scaling 0.748&#45;&gt;key 5665
bias &#45;0.063
h_scaling 0.748</title>
<path fill="none" stroke="red" stroke-width="0.52" d="M99.55,-212.53C110.83,-211.36 119.12,-206.82 119.12,-198.92 119.12,-193.5 115.2,-189.66 109.09,-187.41"/>
<polygon fill="red" stroke="red" stroke-width="0.52" points="110.07,-184.04 99.55,-185.32 108.57,-190.88 110.07,-184.04"/>
<text text-anchor="middle" x="129.24" y="-196" font-family="Times New Roman,serif" font-size="9.00">0.014</text>
</g>
<!-- key 38307
bias &#45;0.282
h_scaling 0.984&#45;&gt;key 38307
bias &#45;0.282
h_scaling 0.984 -->
<g id="edge9" class="edge">
<title>key 38307
bias &#45;0.282
h_scaling 0.984&#45;&gt;key 38307
bias &#45;0.282
h_scaling 0.984</title>
<path fill="none" stroke="red" stroke-width="0.46" d="M207.55,-657.63C218.83,-656.45 227.12,-651.92 227.12,-644.02 227.12,-638.59 223.2,-634.75 217.09,-632.5"/>
<polygon fill="red" stroke="red" stroke-width="0.46" points="218.07,-629.14 207.55,-630.42 216.57,-635.97 218.07,-629.14"/>
<text text-anchor="middle" x="237.24" y="-641.1" font-family="Times New Roman,serif" font-size="9.00">0.012</text>
</g>
<!-- key 38307
bias &#45;0.282
h_scaling 0.984&#45;&gt;key 16367
bias &#45;0.020
h_scaling 0.577 -->
<g id="edge8" class="edge">
<title>key 38307
bias &#45;0.282
h_scaling 0.984&#45;&gt;key 16367
bias &#45;0.020
h_scaling 0.577</title>
<path fill="none" stroke="blue" stroke-width="0.1" d="M148.9,-594.29C146.43,-581.83 143.75,-568.3 141.2,-555.4"/>
<polygon fill="blue" stroke="blue" stroke-width="0.1" points="144.65,-554.81 139.27,-545.68 137.78,-556.17 144.65,-554.81"/>
</g>
<!-- key 16367
bias &#45;0.020
h_scaling 0.577&#45;&gt;output
bias &#45;0.449
h_scaling 0.908 -->
<g id="edge10" class="edge">
<title>key 16367
bias &#45;0.020
h_scaling 0.577&#45;&gt;output
bias &#45;0.449
h_scaling 0.908</title>
<path fill="none" stroke="blue" stroke-width="0.1" d="M139.85,-445.66C152.33,-378.07 169.27,-252.75 148.56,-148.37 145.68,-133.88 140.61,-118.84 135.02,-105.06"/>
<polygon fill="blue" stroke="blue" stroke-width="0.1" points="138.39,-104.06 131.28,-96.21 131.94,-106.78 138.39,-104.06"/>
</g>
<!-- key 16367
bias &#45;0.020
h_scaling 0.577&#45;&gt;key 5665
bias &#45;0.063
h_scaling 0.748 -->
<g id="edge3" class="edge">
<title>key 16367
bias &#45;0.020
h_scaling 0.577&#45;&gt;key 5665
bias &#45;0.063
h_scaling 0.748</title>
<path fill="none" stroke="blue" stroke-width="0.1" d="M116.6,-446.32C102.77,-394.71 80.85,-312.94 66.1,-257.9"/>
<polygon fill="blue" stroke="blue" stroke-width="0.1" points="69.49,-257.04 63.52,-248.29 62.73,-258.86 69.49,-257.04"/>
</g>
<!-- key 16367
bias &#45;0.020
h_scaling 0.577&#45;&gt;key 16367
bias &#45;0.020
h_scaling 0.577 -->
<g id="edge4" class="edge">
<title>key 16367
bias &#45;0.020
h_scaling 0.577&#45;&gt;key 16367
bias &#45;0.020
h_scaling 0.577</title>
<path fill="none" stroke="red" stroke-width="2.87" d="M178.55,-509.26C189.83,-508.09 198.12,-503.55 198.12,-495.66 198.12,-491.46 195.78,-488.22 191.89,-485.92"/>
<polygon fill="red" stroke="red" stroke-width="2.87" points="193.13,-482.47 182.55,-483.05 191.18,-489.2 193.13,-482.47"/>
<text text-anchor="middle" x="208.24" y="-492.73" font-family="Times New Roman,serif" font-size="9.00">0.092</text>
</g>
<!-- key 16367
bias &#45;0.020
h_scaling 0.577&#45;&gt;key 186159
bias &#45;0.886
h_scaling 0.554 -->
<g id="edge15" class="edge">
<title>key 16367
bias &#45;0.020
h_scaling 0.577&#45;&gt;key 186159
bias &#45;0.886
h_scaling 0.554</title>
<path fill="none" stroke="red" stroke-width="0.98" d="M161.35,-456.2C176.79,-437.52 195.48,-414.92 211.75,-395.24"/>
<polygon fill="red" stroke="red" stroke-width="0.98" points="214.88,-397.94 218.56,-388 209.49,-393.48 214.88,-397.94"/>
<text text-anchor="middle" x="203.68" y="-418.55" font-family="Times New Roman,serif" font-size="9.00">0.029</text>
</g>
<!-- key 186159
bias &#45;0.886
h_scaling 0.554&#45;&gt;key 5665
bias &#45;0.063
h_scaling 0.748 -->
<g id="edge13" class="edge">
<title>key 186159
bias &#45;0.886
h_scaling 0.554&#45;&gt;key 5665
bias &#45;0.063
h_scaling 0.748</title>
<path fill="none" stroke="red" stroke-width="0.5" d="M210.09,-316.67C177.96,-293.16 132.95,-260.22 98.93,-235.32"/>
<polygon fill="red" stroke="red" stroke-width="0.5" points="101.11,-232.58 90.97,-229.5 96.97,-238.23 101.11,-232.58"/>
<text text-anchor="middle" x="165.68" y="-270.18" font-family="Times New Roman,serif" font-size="9.00">0.013</text>
</g>
<!-- key 186159
bias &#45;0.886
h_scaling 0.554&#45;&gt;key 38307
bias &#45;0.282
h_scaling 0.984 -->
<g id="edge14" class="edge">
<title>key 186159
bias &#45;0.886
h_scaling 0.554&#45;&gt;key 38307
bias &#45;0.282
h_scaling 0.984</title>
<path fill="none" stroke="red" stroke-width="0.27" d="M251.56,-398.32C250.8,-439.35 246.01,-498.27 227.56,-546.22 220.55,-564.42 209.31,-582.38 197.92,-597.79"/>
<polygon fill="red" stroke="red" stroke-width="0.27" points="195.24,-595.53 191.97,-605.61 200.81,-599.77 195.24,-595.53"/>
<text text-anchor="middle" x="258.68" y="-492.73" font-family="Times New Roman,serif" font-size="9.00">0.006</text>
</g>
</g>
</svg>
