<?xml version="1.0" encoding="UTF-8" standalone="no"?>
<!DOCTYPE svg PUBLIC "-//W3C//DTD SVG 1.1//EN"
 "http://www.w3.org/Graphics/SVG/1.1/DTD/svg11.dtd">
<!-- Generated by graphviz version 8.0.5 (20230430.1635)
 -->
<!-- Pages: 1 -->
<svg width="331pt" height="769pt"
 viewBox="0.00 0.00 330.81 769.08" xmlns="http://www.w3.org/2000/svg" xmlns:xlink="http://www.w3.org/1999/xlink">
<g id="graph0" class="graph" transform="scale(1 1) rotate(0) translate(4 765.08)">
<polygon fill="white" stroke="none" points="-4,4 -4,-765.08 326.81,-765.08 326.81,4 -4,4"/>
<!-- ready -->
<g id="node1" class="node">
<title>ready</title>
<polygon fill="yellow" stroke="black" points="193.68,-761.08 157.43,-761.08 157.43,-741.83 193.68,-741.83 193.68,-761.08"/>
<text text-anchor="middle" x="175.56" y="-748.53" font-family="Times New Roman,serif" font-size="9.00">ready</text>
</g>
<!-- key 5665
bias &#45;0.063
h_scaling 0.748 -->
<g id="node4" class="node">
<title>key 5665
bias &#45;0.063
h_scaling 0.748</title>
<ellipse fill="white" stroke="black" cx="50.56" cy="-198.92" rx="50.56" ry="50.56"/>
<text text-anchor="middle" x="50.56" y="-207.25" font-family="Times New Roman,serif" font-size="9.00">key 5665</text>
<text text-anchor="middle" x="50.56" y="-196" font-family="Times New Roman,serif" font-size="9.00">bias &#45;0.063</text>
<text text-anchor="middle" x="50.56" y="-184.75" font-family="Times New Roman,serif" font-size="9.00">h_scaling 0.748</text>
</g>
<!-- ready&#45;&gt;key 5665
bias &#45;0.063
h_scaling 0.748 -->
<g id="edge5" class="edge">
<title>ready&#45;&gt;key 5665
bias &#45;0.063
h_scaling 0.748</title>
<path fill="none" stroke="red" stroke-width="1.69" d="M157.04,-748.05C112.41,-741.12 2.56,-716.78 2.56,-645.02 2.56,-645.02 2.56,-645.02 2.56,-346.29 2.56,-315.15 12.49,-282.05 23.32,-255.22"/>
<polygon fill="red" stroke="red" stroke-width="1.69" points="27.17,-257.09 27.82,-246.51 20.72,-254.37 27.17,-257.09"/>
<text text-anchor="middle" x="12.68" y="-492.73" font-family="Times New Roman,serif" font-size="9.00">0.530</text>
</g>
<!-- key 38307
bias &#45;0.282
h_scaling 0.984 -->
<g id="node5" class="node">
<title>key 38307
bias &#45;0.282
h_scaling 0.984</title>
<ellipse fill="white" stroke="black" cx="175.56" cy="-644.02" rx="50.56" ry="50.56"/>
<text text-anchor="middle" x="175.56" y="-652.35" font-family="Times New Roman,serif" font-size="9.00">key 38307</text>
<text text-anchor="middle" x="175.56" y="-641.1" font-family="Times New Roman,serif" font-size="9.00">bias &#45;0.282</text>
<text text-anchor="middle" x="175.56" y="-629.85" font-family="Times New Roman,serif" font-size="9.00">h_scaling 0.984</text>
</g>
<!-- ready&#45;&gt;key 38307
bias &#45;0.282
h_scaling 0.984 -->
<g id="edge7" class="edge">
<title>ready&#45;&gt;key 38307
bias &#45;0.282
h_scaling 0.984</title>
<path fill="none" stroke="red" stroke-width="1.39" d="M175.56,-741.47C175.56,-733.26 175.56,-720.34 175.56,-706.59"/>
<polygon fill="red" stroke="red" stroke-width="1.39" points="179.06,-706.93 175.56,-696.93 172.06,-706.93 179.06,-706.93"/>
<text text-anchor="middle" x="185.68" y="-715.28" font-family="Times New Roman,serif" font-size="9.00">0.430</text>
</g>
<!-- key 186159
bias &#45;0.886
h_scaling 0.554 -->
<g id="node7" class="node">
<title>key 186159
bias &#45;0.886
h_scaling 0.554</title>
<ellipse fill="white" stroke="black" cx="250.56" cy="-347.29" rx="50.56" ry="50.56"/>
<text text-anchor="middle" x="250.56" y="-355.62" font-family="Times New Roman,serif" font-size="9.00">key 186159</text>
<text text-anchor="middle" x="250.56" y="-344.37" font-family="Times New Roman,serif" font-size="9.00">bias &#45;0.886</text>
<text text-anchor="middle" x="250.56" y="-333.12" font-family="Times New Roman,serif" font-size="9.00">h_scaling 0.554</text>
</g>
<!-- ready&#45;&gt;key 186159
bias &#45;0.886
h_scaling 0.554 -->
<g id="edge12" class="edge">
<title>ready&#45;&gt;key 186159
bias &#45;0.886
h_scaling 0.554</title>
<path fill="none" stroke="red" stroke-width="2.92" d="M194.01,-746C217.32,-739.27 256.44,-724.05 273.56,-694.58 325.42,-605.32 297.56,-480.42 273.46,-407.58"/>
<polygon fill="red" stroke="red" stroke-width="2.92" points="276.57,-406.93 270.02,-398.6 269.94,-409.19 276.57,-406.93"/>
<text text-anchor="middle" x="312.68" y="-566.92" font-family="Times New Roman,serif" font-size="9.00">0.940</text>
</g>
<!-- go -->
<g id="node2" class="node">
<title>go</title>
<polygon fill="green" stroke="black" points="82.68,-653.65 58.43,-653.65 58.43,-634.4 82.68,-634.4 82.68,-653.65"/>
<text text-anchor="middle" x="70.56" y="-641.1" font-family="Times New Roman,serif" font-size="9.00">go</text>
</g>
<!-- go&#45;&gt;key 5665
bias &#45;0.063
h_scaling 0.748 -->
<g id="edge2" class="edge">
<title>go&#45;&gt;key 5665
bias &#45;0.063
h_scaling 0.748</title>
<path fill="none" stroke="blue" stroke-width="2.04" d="M70.16,-634.17C68.07,-587.82 58.28,-371.01 53.38,-262.35"/>
<polygon fill="blue" stroke="blue" stroke-width="2.04" points="56.75,-262.48 52.8,-252.65 49.76,-262.8 56.75,-262.48"/>
<text text-anchor="middle" x="73.18" y="-418.55" font-family="Times New Roman,serif" font-size="9.00">&#45;0.646</text>
</g>
<!-- key 16367
bias &#45;0.020
h_scaling 0.577 -->
<g id="node6" class="node">
<title>key 16367
bias &#45;0.020
h_scaling 0.577</title>
<ellipse fill="white" stroke="black" cx="129.56" cy="-495.66" rx="50.56" ry="50.56"/>
<text text-anchor="middle" x="129.56" y="-503.98" font-family="Times New Roman,serif" font-size="9.00">key 16367</text>
<text text-anchor="middle" x="129.56" y="-492.73" font-family="Times New Roman,serif" font-size="9.00">bias &#45;0.020</text>
<text text-anchor="middle" x="129.56" y="-481.48" font-family="Times New Roman,serif" font-size="9.00">h_scaling 0.577</text>
</g>
<!-- go&#45;&gt;key 16367
bias &#45;0.020
h_scaling 0.577 -->
<g id="edge6" class="edge">
<title>go&#45;&gt;key 16367
bias &#45;0.020
h_scaling 0.577</title>
<path fill="none" stroke="red" stroke-width="3.03" d="M74.07,-634.31C80.25,-618.97 93.56,-585.97 105.59,-556.13"/>
<polygon fill="red" stroke="red" stroke-width="3.03" points="109.32,-557.73 109.82,-547.15 102.83,-555.12 109.32,-557.73"/>
<text text-anchor="middle" x="111.68" y="-566.92" font-family="Times New Roman,serif" font-size="9.00">0.978</text>
</g>
<!-- output
bias &#45;0.449
h_scaling 0.908 -->
<g id="node3" class="node">
<title>output
bias &#45;0.449
h_scaling 0.908</title>
<ellipse fill="lightblue" stroke="black" cx="108.56" cy="-50.56" rx="50.56" ry="50.56"/>
<text text-anchor="middle" x="108.56" y="-58.88" font-family="Times New Roman,serif" font-size="9.00">output</text>
<text text-anchor="middle" x="108.56" y="-47.63" font-family="Times New Roman,serif" font-size="9.00">bias &#45;0.449</text>
<text text-anchor="middle" x="108.56" y="-36.38" font-family="Times New Roman,serif" font-size="9.00">h_scaling 0.908</text>
</g>
<!-- key 5665
bias &#45;0.063
h_scaling 0.748&#45;&gt;output
bias &#45;0.449
h_scaling 0.908 -->
<g id="edge1" class="edge">
<title>key 5665
bias &#45;0.063
h_scaling 0.748&#45;&gt;output
bias &#45;0.449
h_scaling 0.908</title>
<path fill="none" stroke="red" stroke-width="3.05" d="M68.91,-151.61C74.04,-138.67 79.69,-124.42 85.07,-110.83"/>
<polygon fill="red" stroke="red" stroke-width="3.05" points="88.7,-112.66 89.13,-102.07 82.19,-110.08 88.7,-112.66"/>
<text text-anchor="middle" x="90.68" y="-121.82" font-family="Times New Roman,serif" font-size="9.00">0.982</text>
</g>
<!-- key 5665
bias &#45;0.063
h_scaling 0.748&#45;&gt;key 5665
bias &#45;0.063
h_scaling 0.748 -->
<g id="edge11" class="edge">
<title>key 5665
bias &#45;0.063
h_scaling 0.748&#45;&gt;key 5665
bias &#45;0.063
h_scaling 0.748</title>
<path fill="none" stroke="red" stroke-width="2.14" d="M99.55,-212.53C110.83,-211.36 119.12,-206.82 119.12,-198.92 119.12,-194.36 116.35,-190.92 111.83,-188.6"/>
<polygon fill="red" stroke="red" stroke-width="2.14" points="113.11,-184.52 102.55,-185.32 111.31,-191.28 113.11,-184.52"/>
<text text-anchor="middle" x="129.24" y="-196" font-family="Times New Roman,serif" font-size="9.00">0.680</text>
</g>
<!-- key 38307
bias &#45;0.282
h_scaling 0.984&#45;&gt;key 38307
bias &#45;0.282
h_scaling 0.984 -->
<g id="edge9" class="edge">
<title>key 38307
bias &#45;0.282
h_scaling 0.984&#45;&gt;key 38307
bias &#45;0.282
h_scaling 0.984</title>
<path fill="none" stroke="red" stroke-width="1.71" d="M224.55,-657.63C235.83,-656.45 244.12,-651.92 244.12,-644.02 244.12,-639.21 241.04,-635.65 236.08,-633.33"/>
<polygon fill="red" stroke="red" stroke-width="1.71" points="237.1,-629.48 226.55,-630.42 235.39,-636.26 237.1,-629.48"/>
<text text-anchor="middle" x="254.24" y="-641.1" font-family="Times New Roman,serif" font-size="9.00">0.535</text>
</g>
<!-- key 38307
bias &#45;0.282
h_scaling 0.984&#45;&gt;key 16367
bias &#45;0.020
h_scaling 0.577 -->
<g id="edge8" class="edge">
<title>key 38307
bias &#45;0.282
h_scaling 0.984&#45;&gt;key 16367
bias &#45;0.020
h_scaling 0.577</title>
<path fill="none" stroke="blue" stroke-width="2.44" d="M160.62,-595.5C156.73,-583.1 152.48,-569.58 148.41,-556.63"/>
<polygon fill="blue" stroke="blue" stroke-width="2.44" points="151.91,-555.93 145.58,-547.44 145.23,-558.03 151.91,-555.93"/>
<text text-anchor="middle" x="165.18" y="-566.92" font-family="Times New Roman,serif" font-size="9.00">&#45;0.780</text>
</g>
<!-- key 16367
bias &#45;0.020
h_scaling 0.577&#45;&gt;output
bias &#45;0.449
h_scaling 0.908 -->
<g id="edge10" class="edge">
<title>key 16367
bias &#45;0.020
h_scaling 0.577&#45;&gt;output
bias &#45;0.449
h_scaling 0.908</title>
<path fill="none" stroke="blue" stroke-width="3.1" d="M139.85,-445.66C152.33,-378.07 169.27,-252.75 148.56,-148.37 145.96,-135.26 141.55,-121.7 136.6,-109.03"/>
<polygon fill="blue" stroke="blue" stroke-width="3.1" points="139.34,-108.1 132.28,-100.21 132.88,-110.78 139.34,-108.1"/>
<text text-anchor="middle" x="169.18" y="-270.18" font-family="Times New Roman,serif" font-size="9.00">&#45;1.000</text>
</g>
<!-- key 16367
bias &#45;0.020
h_scaling 0.577&#45;&gt;key 5665
bias &#45;0.063
h_scaling 0.748 -->
<g id="edge3" class="edge">
<title>key 16367
bias &#45;0.020
h_scaling 0.577&#45;&gt;key 5665
bias &#45;0.063
h_scaling 0.748</title>
<path fill="none" stroke="blue" stroke-width="3.07" d="M116.6,-446.32C103.08,-395.88 81.84,-316.65 67.12,-261.7"/>
<polygon fill="blue" stroke="blue" stroke-width="3.07" points="70.49,-261.04 64.52,-252.29 63.73,-262.86 70.49,-261.04"/>
<text text-anchor="middle" x="114.18" y="-344.37" font-family="Times New Roman,serif" font-size="9.00">&#45;0.989</text>
</g>
<!-- key 16367
bias &#45;0.020
h_scaling 0.577&#45;&gt;key 16367
bias &#45;0.020
h_scaling 0.577 -->
<g id="edge4" class="edge">
<title>key 16367
bias &#45;0.020
h_scaling 0.577&#45;&gt;key 16367
bias &#45;0.020
h_scaling 0.577</title>
<path fill="none" stroke="red" stroke-width="2.47" d="M178.55,-509.26C189.83,-508.09 198.12,-503.55 198.12,-495.66 198.12,-491.09 195.35,-487.65 190.83,-485.33"/>
<polygon fill="red" stroke="red" stroke-width="2.47" points="192.11,-481.25 181.55,-482.05 190.31,-488.02 192.11,-481.25"/>
<text text-anchor="middle" x="208.24" y="-492.73" font-family="Times New Roman,serif" font-size="9.00">0.790</text>
</g>
<!-- key 16367
bias &#45;0.020
h_scaling 0.577&#45;&gt;key 186159
bias &#45;0.886
h_scaling 0.554 -->
<g id="edge15" class="edge">
<title>key 16367
bias &#45;0.020
h_scaling 0.577&#45;&gt;key 186159
bias &#45;0.886
h_scaling 0.554</title>
<path fill="none" stroke="red" stroke-width="0.99" d="M161.35,-456.2C176.79,-437.52 195.48,-414.92 211.75,-395.24"/>
<polygon fill="red" stroke="red" stroke-width="0.99" points="214.88,-397.94 218.56,-388 209.49,-393.48 214.88,-397.94"/>
<text text-anchor="middle" x="203.68" y="-418.55" font-family="Times New Roman,serif" font-size="9.00">0.296</text>
</g>
<!-- key 186159
bias &#45;0.886
h_scaling 0.554&#45;&gt;key 5665
bias &#45;0.063
h_scaling 0.748 -->
<g id="edge13" class="edge">
<title>key 186159
bias &#45;0.886
h_scaling 0.554&#45;&gt;key 5665
bias &#45;0.063
h_scaling 0.748</title>
<path fill="none" stroke="red" stroke-width="1.7" d="M225.65,-302.89C216.98,-290.34 206.41,-277.38 194.56,-267.48 169.78,-246.79 137.61,-230.91 109.96,-219.76"/>
<polygon fill="red" stroke="red" stroke-width="1.7" points="111.41,-215.79 100.82,-215.42 108.87,-222.31 111.41,-215.79"/>
<text text-anchor="middle" x="215.68" y="-270.18" font-family="Times New Roman,serif" font-size="9.00">0.534</text>
</g>
<!-- key 186159
bias &#45;0.886
h_scaling 0.554&#45;&gt;key 38307
bias &#45;0.282
h_scaling 0.984 -->
<g id="edge14" class="edge">
<title>key 186159
bias &#45;0.886
h_scaling 0.554&#45;&gt;key 38307
bias &#45;0.282
h_scaling 0.984</title>
<path fill="none" stroke="red" stroke-width="0.56" d="M249.92,-398.17C248.19,-438.85 242.9,-497.37 227.56,-546.22 222.59,-562.04 215,-578.28 207.14,-592.83"/>
<polygon fill="red" stroke="red" stroke-width="0.56" points="204.29,-590.74 202.5,-601.19 210.41,-594.14 204.29,-590.74"/>
<text text-anchor="middle" x="256.68" y="-492.73" font-family="Times New Roman,serif" font-size="9.00">0.155</text>
</g>
</g>
</svg>
