<?xml version="1.0" encoding="UTF-8" standalone="no"?>
<!DOCTYPE svg PUBLIC "-//W3C//DTD SVG 1.1//EN"
 "http://www.w3.org/Graphics/SVG/1.1/DTD/svg11.dtd">
<!-- Generated by graphviz version 2.43.0 (0)
 -->
<!-- Title: %3 Pages: 1 -->
<svg width="441pt" height="710pt"
 viewBox="0.00 0.00 440.64 710.12" xmlns="http://www.w3.org/2000/svg" xmlns:xlink="http://www.w3.org/1999/xlink">
<g id="graph0" class="graph" transform="scale(1 1) rotate(0) translate(4 706.12)">
<title>%3</title>
<polygon fill="white" stroke="transparent" points="-4,4 -4,-706.12 436.64,-706.12 436.64,4 -4,4"/>
<!-- ready -->
<g id="node1" class="node">
<title>ready</title>
<polygon fill="yellow" stroke="black" points="383.14,-702.12 340.14,-702.12 340.14,-684.12 383.14,-684.12 383.14,-702.12"/>
<text text-anchor="middle" x="361.64" y="-690.92" font-family="Times,serif" font-size="9.00">ready</text>
</g>
<!-- key 53857
bias &#45;0.547
h_scaling 0.809 -->
<g id="node4" class="node">
<title>key 53857
bias &#45;0.547
h_scaling 0.809</title>
<ellipse fill="white" stroke="black" cx="201.64" cy="-574.48" rx="63.78" ry="63.78"/>
<text text-anchor="middle" x="201.64" y="-582.28" font-family="Times,serif" font-size="9.00">key 53857</text>
<text text-anchor="middle" x="201.64" y="-572.28" font-family="Times,serif" font-size="9.00">bias &#45;0.547</text>
<text text-anchor="middle" x="201.64" y="-562.28" font-family="Times,serif" font-size="9.00">h_scaling 0.809</text>
</g>
<!-- ready&#45;&gt;key 53857
bias &#45;0.547
h_scaling 0.809 -->
<g id="edge10" class="edge">
<title>ready&#45;&gt;key 53857
bias &#45;0.547
h_scaling 0.809</title>
<path fill="none" stroke="red" stroke-width="0.44" d="M347.8,-684.03C339.5,-679.06 328.81,-672.45 319.64,-666.12 299.37,-652.11 277.83,-635.96 258.77,-621.21"/>
<polygon fill="red" stroke="red" stroke-width="0.44" points="260.81,-618.36 250.77,-614.98 256.51,-623.88 260.81,-618.36"/>
<text text-anchor="middle" x="333.64" y="-658.92" font-family="Times,serif" font-size="9.00">0.011</text>
</g>
<!-- key 369549
bias &#45;0.765
h_scaling 0.458 -->
<g id="node6" class="node">
<title>key 369549
bias &#45;0.765
h_scaling 0.458</title>
<ellipse fill="white" stroke="black" cx="347.64" cy="-227.92" rx="63.78" ry="63.78"/>
<text text-anchor="middle" x="347.64" y="-235.72" font-family="Times,serif" font-size="9.00">key 369549</text>
<text text-anchor="middle" x="347.64" y="-225.72" font-family="Times,serif" font-size="9.00">bias &#45;0.765</text>
<text text-anchor="middle" x="347.64" y="-215.72" font-family="Times,serif" font-size="9.00">h_scaling 0.458</text>
</g>
<!-- ready&#45;&gt;key 369549
bias &#45;0.765
h_scaling 0.458 -->
<g id="edge15" class="edge">
<title>ready&#45;&gt;key 369549
bias &#45;0.765
h_scaling 0.458</title>
<path fill="none" stroke="red" stroke-width="1.91" d="M368.61,-684.06C372.35,-679.21 376.6,-672.71 378.64,-666.12 421.72,-526.58 405.31,-481.83 382.64,-337.56 380.57,-324.38 377.17,-310.61 373.27,-297.49"/>
<polygon fill="red" stroke="red" stroke-width="1.91" points="376.51,-296.11 370.22,-287.59 369.83,-298.18 376.51,-296.11"/>
<text text-anchor="middle" x="418.64" y="-485.64" font-family="Times,serif" font-size="9.00">0.060</text>
</g>
<!-- key 2159
bias &#45;0.495
h_scaling 0.663 -->
<g id="node7" class="node">
<title>key 2159
bias &#45;0.495
h_scaling 0.663</title>
<ellipse fill="white" stroke="black" cx="201.64" cy="-401.2" rx="63.78" ry="63.78"/>
<text text-anchor="middle" x="201.64" y="-409" font-family="Times,serif" font-size="9.00">key 2159</text>
<text text-anchor="middle" x="201.64" y="-399" font-family="Times,serif" font-size="9.00">bias &#45;0.495</text>
<text text-anchor="middle" x="201.64" y="-389" font-family="Times,serif" font-size="9.00">h_scaling 0.663</text>
</g>
<!-- ready&#45;&gt;key 2159
bias &#45;0.495
h_scaling 0.663 -->
<g id="edge9" class="edge">
<title>ready&#45;&gt;key 2159
bias &#45;0.495
h_scaling 0.663</title>
<path fill="none" stroke="blue" stroke-width="0.1" d="M362.94,-683.85C366.75,-656.91 375.66,-569.96 342.64,-510.84 325.23,-479.66 294.81,-454.5 266.67,-436.27"/>
<polygon fill="blue" stroke="blue" stroke-width="0.1" points="268.36,-433.19 258.03,-430.83 264.63,-439.12 268.36,-433.19"/>
</g>
<!-- go -->
<g id="node2" class="node">
<title>go</title>
<polygon fill="green" stroke="black" points="215.64,-702.12 187.64,-702.12 187.64,-684.12 215.64,-684.12 215.64,-702.12"/>
<text text-anchor="middle" x="201.64" y="-690.92" font-family="Times,serif" font-size="9.00">go</text>
</g>
<!-- go&#45;&gt;key 53857
bias &#45;0.547
h_scaling 0.809 -->
<g id="edge13" class="edge">
<title>go&#45;&gt;key 53857
bias &#45;0.547
h_scaling 0.809</title>
<path fill="none" stroke="red" stroke-width="0.59" d="M201.64,-684.1C201.64,-676.07 201.64,-662.85 201.64,-648.35"/>
<polygon fill="red" stroke="red" stroke-width="0.59" points="205.14,-648.15 201.64,-638.15 198.14,-648.15 205.14,-648.15"/>
<text text-anchor="middle" x="215.64" y="-658.92" font-family="Times,serif" font-size="9.00">0.016</text>
</g>
<!-- key 13349
bias &#45;0.649
h_scaling 0.066 -->
<g id="node5" class="node">
<title>key 13349
bias &#45;0.649
h_scaling 0.066</title>
<ellipse fill="white" stroke="black" cx="63.64" cy="-227.92" rx="63.78" ry="63.78"/>
<text text-anchor="middle" x="63.64" y="-235.72" font-family="Times,serif" font-size="9.00">key 13349</text>
<text text-anchor="middle" x="63.64" y="-225.72" font-family="Times,serif" font-size="9.00">bias &#45;0.649</text>
<text text-anchor="middle" x="63.64" y="-215.72" font-family="Times,serif" font-size="9.00">h_scaling 0.066</text>
</g>
<!-- go&#45;&gt;key 13349
bias &#45;0.649
h_scaling 0.066 -->
<g id="edge8" class="edge">
<title>go&#45;&gt;key 13349
bias &#45;0.649
h_scaling 0.066</title>
<path fill="none" stroke="red" stroke-width="0.54" d="M188.34,-683.99C172.97,-674.23 147.39,-656.82 128.64,-638.12 71.68,-581.29 45.92,-569.22 20.64,-492.84 -4.99,-415.41 1.29,-386.03 29.64,-309.56 31.27,-305.16 33,-300.65 34.79,-296.12"/>
<polygon fill="red" stroke="red" stroke-width="0.54" points="38.04,-297.4 38.51,-286.82 31.54,-294.8 38.04,-297.4"/>
<text text-anchor="middle" x="34.64" y="-485.64" font-family="Times,serif" font-size="9.00">0.015</text>
</g>
<!-- go&#45;&gt;key 2159
bias &#45;0.495
h_scaling 0.663 -->
<g id="edge3" class="edge">
<title>go&#45;&gt;key 2159
bias &#45;0.495
h_scaling 0.663</title>
<path fill="none" stroke="red" stroke-width="0.59" d="M215.73,-692.79C236.28,-692.9 273.95,-689.64 291.64,-666.12 338.51,-603.79 290.76,-515.41 248.91,-458.44"/>
<polygon fill="red" stroke="red" stroke-width="0.59" points="251.59,-456.17 242.8,-450.27 245.99,-460.37 251.59,-456.17"/>
<text text-anchor="middle" x="324.64" y="-572.28" font-family="Times,serif" font-size="9.00">0.016</text>
</g>
<!-- output
bias 0.668
h_scaling 0.419 -->
<g id="node3" class="node">
<title>output
bias 0.668
h_scaling 0.419</title>
<ellipse fill="lightblue" stroke="black" cx="63.64" cy="-63.64" rx="63.78" ry="63.78"/>
<text text-anchor="middle" x="63.64" y="-71.44" font-family="Times,serif" font-size="9.00">output</text>
<text text-anchor="middle" x="63.64" y="-61.44" font-family="Times,serif" font-size="9.00">bias 0.668</text>
<text text-anchor="middle" x="63.64" y="-51.44" font-family="Times,serif" font-size="9.00">h_scaling 0.419</text>
</g>
<!-- output
bias 0.668
h_scaling 0.419&#45;&gt;key 13349
bias &#45;0.649
h_scaling 0.066 -->
<g id="edge6" class="edge">
<title>output
bias 0.668
h_scaling 0.419&#45;&gt;key 13349
bias &#45;0.649
h_scaling 0.066</title>
<path fill="none" stroke="blue" stroke-width="0.1" d="M70.23,-126.95C70.38,-135.81 70.43,-145 70.36,-154.05"/>
<polygon fill="blue" stroke="blue" stroke-width="0.1" points="66.86,-154.13 70.23,-164.18 73.86,-154.22 66.86,-154.13"/>
</g>
<!-- key 53857
bias &#45;0.547
h_scaling 0.809&#45;&gt;key 13349
bias &#45;0.649
h_scaling 0.066 -->
<g id="edge18" class="edge">
<title>key 53857
bias &#45;0.547
h_scaling 0.809&#45;&gt;key 13349
bias &#45;0.649
h_scaling 0.066</title>
<path fill="none" stroke="red" stroke-width="1.17" d="M153.16,-533.15C133.78,-514.39 113.13,-490.55 100.64,-464.84 87.01,-436.78 76.62,-360.21 70.37,-301.84"/>
<polygon fill="red" stroke="red" stroke-width="1.17" points="73.81,-301.12 69.29,-291.54 66.85,-301.85 73.81,-301.12"/>
<text text-anchor="middle" x="114.64" y="-399" font-family="Times,serif" font-size="9.00">0.036</text>
</g>
<!-- key 53857
bias &#45;0.547
h_scaling 0.809&#45;&gt;key 2159
bias &#45;0.495
h_scaling 0.663 -->
<g id="edge11" class="edge">
<title>key 53857
bias &#45;0.547
h_scaling 0.809&#45;&gt;key 2159
bias &#45;0.495
h_scaling 0.663</title>
<path fill="none" stroke="blue" stroke-width="0.1" d="M195.12,-511.16C194.88,-499.35 194.83,-486.9 194.96,-474.81"/>
<polygon fill="blue" stroke="blue" stroke-width="0.1" points="198.46,-474.81 195.11,-464.76 191.46,-474.7 198.46,-474.81"/>
</g>
<!-- key 13349
bias &#45;0.649
h_scaling 0.066&#45;&gt;output
bias 0.668
h_scaling 0.419 -->
<g id="edge5" class="edge">
<title>key 13349
bias &#45;0.649
h_scaling 0.066&#45;&gt;output
bias 0.668
h_scaling 0.419</title>
<path fill="none" stroke="blue" stroke-width="0.1" d="M57.05,-164.18C56.89,-155.3 56.85,-146.11 56.92,-137.07"/>
<polygon fill="blue" stroke="blue" stroke-width="0.1" points="60.43,-136.99 57.05,-126.95 53.43,-136.9 60.43,-136.99"/>
</g>
<!-- key 13349
bias &#45;0.649
h_scaling 0.066&#45;&gt;key 53857
bias &#45;0.547
h_scaling 0.809 -->
<g id="edge12" class="edge">
<title>key 13349
bias &#45;0.649
h_scaling 0.066&#45;&gt;key 53857
bias &#45;0.547
h_scaling 0.809</title>
<path fill="none" stroke="red" stroke-width="1.17" d="M41.65,-287.76C26.82,-337.46 14.44,-409.22 41.64,-464.84 60.06,-502.49 98.56,-529.26 133.18,-546.8"/>
<polygon fill="red" stroke="red" stroke-width="1.17" points="131.83,-550.04 142.35,-551.28 134.91,-543.75 131.83,-550.04"/>
<text text-anchor="middle" x="55.64" y="-399" font-family="Times,serif" font-size="9.00">0.036</text>
</g>
<!-- key 13349
bias &#45;0.649
h_scaling 0.066&#45;&gt;key 13349
bias &#45;0.649
h_scaling 0.066 -->
<g id="edge7" class="edge">
<title>key 13349
bias &#45;0.649
h_scaling 0.066&#45;&gt;key 13349
bias &#45;0.649
h_scaling 0.066</title>
<path fill="none" stroke="red" stroke-width="1.55" d="M125.93,-242.45C137.3,-240.61 145.28,-235.77 145.28,-227.92 145.28,-222.65 141.68,-218.73 135.87,-216.17"/>
<polygon fill="red" stroke="red" stroke-width="1.55" points="136.5,-212.71 125.93,-213.39 134.62,-219.45 136.5,-212.71"/>
<text text-anchor="middle" x="159.28" y="-225.72" font-family="Times,serif" font-size="9.00">0.048</text>
</g>
<!-- key 369549
bias &#45;0.765
h_scaling 0.458&#45;&gt;key 53857
bias &#45;0.547
h_scaling 0.809 -->
<g id="edge16" class="edge">
<title>key 369549
bias &#45;0.765
h_scaling 0.458&#45;&gt;key 53857
bias &#45;0.547
h_scaling 0.809</title>
<path fill="none" stroke="red" stroke-width="0.49" d="M352.12,-291.46C353.02,-341.1 348.22,-410.87 320.64,-464.84 312.88,-480.03 285.5,-505.4 258.96,-527.81"/>
<polygon fill="red" stroke="red" stroke-width="0.49" points="256.57,-525.25 251.15,-534.35 261.06,-530.61 256.57,-525.25"/>
<text text-anchor="middle" x="364.64" y="-399" font-family="Times,serif" font-size="9.00">0.013</text>
</g>
<!-- key 2159
bias &#45;0.495
h_scaling 0.663&#45;&gt;output
bias 0.668
h_scaling 0.419 -->
<g id="edge1" class="edge">
<title>key 2159
bias &#45;0.495
h_scaling 0.663&#45;&gt;output
bias 0.668
h_scaling 0.419</title>
<path fill="none" stroke="blue" stroke-width="0.1" d="M209.29,-338C212.54,-288.24 210.47,-218.12 182.64,-164.28 169.86,-139.55 148.02,-118.56 126.51,-102.31"/>
<polygon fill="blue" stroke="blue" stroke-width="0.1" points="128.44,-99.38 118.3,-96.31 124.31,-105.04 128.44,-99.38"/>
</g>
<!-- key 2159
bias &#45;0.495
h_scaling 0.663&#45;&gt;key 53857
bias &#45;0.547
h_scaling 0.809 -->
<g id="edge14" class="edge">
<title>key 2159
bias &#45;0.495
h_scaling 0.663&#45;&gt;key 53857
bias &#45;0.547
h_scaling 0.809</title>
<path fill="none" stroke="blue" stroke-width="0.1" d="M208.17,-464.76C208.4,-476.57 208.45,-489.02 208.32,-501.11"/>
<polygon fill="blue" stroke="blue" stroke-width="0.1" points="204.82,-501.1 208.16,-511.16 211.82,-501.21 204.82,-501.1"/>
</g>
<!-- key 2159
bias &#45;0.495
h_scaling 0.663&#45;&gt;key 13349
bias &#45;0.649
h_scaling 0.066 -->
<g id="edge4" class="edge">
<title>key 2159
bias &#45;0.495
h_scaling 0.663&#45;&gt;key 13349
bias &#45;0.649
h_scaling 0.066</title>
<path fill="none" stroke="red" stroke-width="0.97" d="M162.09,-351.12C145.71,-330.78 126.6,-307.06 109.59,-285.96"/>
<polygon fill="red" stroke="red" stroke-width="0.97" points="112.19,-283.6 103.19,-278.01 106.74,-287.99 112.19,-283.6"/>
<text text-anchor="middle" x="146.64" y="-312.36" font-family="Times,serif" font-size="9.00">0.029</text>
</g>
<!-- key 2159
bias &#45;0.495
h_scaling 0.663&#45;&gt;key 369549
bias &#45;0.765
h_scaling 0.458 -->
<g id="edge17" class="edge">
<title>key 2159
bias &#45;0.495
h_scaling 0.663&#45;&gt;key 369549
bias &#45;0.765
h_scaling 0.458</title>
<path fill="none" stroke="blue" stroke-width="0.1" d="M242.7,-352.03C260.5,-331.15 281.46,-306.56 299.95,-284.87"/>
<polygon fill="blue" stroke="blue" stroke-width="0.1" points="302.81,-286.9 306.64,-277.02 297.49,-282.36 302.81,-286.9"/>
</g>
<!-- key 2159
bias &#45;0.495
h_scaling 0.663&#45;&gt;key 2159
bias &#45;0.495
h_scaling 0.663 -->
<g id="edge2" class="edge">
<title>key 2159
bias &#45;0.495
h_scaling 0.663&#45;&gt;key 2159
bias &#45;0.495
h_scaling 0.663</title>
<path fill="none" stroke="red" stroke-width="1.09" d="M263.58,-416.5C275.14,-414.61 283.28,-409.51 283.28,-401.2 283.28,-395.48 279.43,-391.29 273.27,-388.61"/>
<polygon fill="red" stroke="red" stroke-width="1.09" points="274.16,-385.22 263.58,-385.9 272.27,-391.96 274.16,-385.22"/>
<text text-anchor="middle" x="297.28" y="-399" font-family="Times,serif" font-size="9.00">0.033</text>
</g>
</g>
</svg>
