<?xml version="1.0" encoding="UTF-8" standalone="no"?>
<!DOCTYPE svg PUBLIC "-//W3C//DTD SVG 1.1//EN"
 "http://www.w3.org/Graphics/SVG/1.1/DTD/svg11.dtd">
<!-- Generated by graphviz version 2.43.0 (0)
 -->
<!-- Title: %3 Pages: 1 -->
<svg width="455pt" height="719pt"
 viewBox="0.00 0.00 454.64 719.12" xmlns="http://www.w3.org/2000/svg" xmlns:xlink="http://www.w3.org/1999/xlink">
<g id="graph0" class="graph" transform="scale(1 1) rotate(0) translate(4 715.12)">
<title>%3</title>
<polygon fill="white" stroke="transparent" points="-4,4 -4,-715.12 450.64,-715.12 450.64,4 -4,4"/>
<!-- ready -->
<g id="node1" class="node">
<title>ready</title>
<polygon fill="yellow" stroke="black" points="73.14,-711.12 30.14,-711.12 30.14,-693.12 73.14,-693.12 73.14,-711.12"/>
<text text-anchor="middle" x="51.64" y="-699.92" font-family="Times,serif" font-size="9.00">ready</text>
</g>
<!-- key 53857
bias &#45;0.547
h_scaling 0.809 -->
<g id="node4" class="node">
<title>key 53857
bias &#45;0.547
h_scaling 0.809</title>
<ellipse fill="white" stroke="black" cx="227.64" cy="-583.48" rx="63.78" ry="63.78"/>
<text text-anchor="middle" x="227.64" y="-591.28" font-family="Times,serif" font-size="9.00">key 53857</text>
<text text-anchor="middle" x="227.64" y="-581.28" font-family="Times,serif" font-size="9.00">bias &#45;0.547</text>
<text text-anchor="middle" x="227.64" y="-571.28" font-family="Times,serif" font-size="9.00">h_scaling 0.809</text>
</g>
<!-- ready&#45;&gt;key 53857
bias &#45;0.547
h_scaling 0.809 -->
<g id="edge10" class="edge">
<title>ready&#45;&gt;key 53857
bias &#45;0.547
h_scaling 0.809</title>
<path fill="none" stroke="red" stroke-width="3.03" d="M63.74,-693.1C84.75,-679.18 129.32,-649.64 166.68,-624.88"/>
<polygon fill="red" stroke="red" stroke-width="3.03" points="168.62,-627.79 175.02,-619.35 164.75,-621.96 168.62,-627.79"/>
<text text-anchor="middle" x="118.64" y="-667.92" font-family="Times,serif" font-size="9.00">0.975</text>
</g>
<!-- key 369549
bias &#45;0.765
h_scaling 0.458 -->
<g id="node6" class="node">
<title>key 369549
bias &#45;0.765
h_scaling 0.458</title>
<ellipse fill="white" stroke="black" cx="63.64" cy="-236.92" rx="63.78" ry="63.78"/>
<text text-anchor="middle" x="63.64" y="-244.72" font-family="Times,serif" font-size="9.00">key 369549</text>
<text text-anchor="middle" x="63.64" y="-234.72" font-family="Times,serif" font-size="9.00">bias &#45;0.765</text>
<text text-anchor="middle" x="63.64" y="-224.72" font-family="Times,serif" font-size="9.00">h_scaling 0.458</text>
</g>
<!-- ready&#45;&gt;key 369549
bias &#45;0.765
h_scaling 0.458 -->
<g id="edge15" class="edge">
<title>ready&#45;&gt;key 369549
bias &#45;0.765
h_scaling 0.458</title>
<path fill="none" stroke="red" stroke-width="3.02" d="M51.02,-692.87C48.17,-653.98 36.7,-485.02 41.64,-346.56 42.08,-334.09 41.69,-330.88 43.64,-318.56 44.15,-315.35 44.72,-312.09 45.34,-308.8"/>
<polygon fill="red" stroke="red" stroke-width="3.02" points="48.8,-309.39 47.35,-298.89 41.93,-308 48.8,-309.39"/>
<text text-anchor="middle" x="55.64" y="-494.64" font-family="Times,serif" font-size="9.00">0.974</text>
</g>
<!-- key 2159
bias &#45;0.495
h_scaling 0.663 -->
<g id="node7" class="node">
<title>key 2159
bias &#45;0.495
h_scaling 0.663</title>
<ellipse fill="white" stroke="black" cx="173.64" cy="-410.2" rx="63.78" ry="63.78"/>
<text text-anchor="middle" x="173.64" y="-418" font-family="Times,serif" font-size="9.00">key 2159</text>
<text text-anchor="middle" x="173.64" y="-408" font-family="Times,serif" font-size="9.00">bias &#45;0.495</text>
<text text-anchor="middle" x="173.64" y="-398" font-family="Times,serif" font-size="9.00">h_scaling 0.663</text>
</g>
<!-- ready&#45;&gt;key 2159
bias &#45;0.495
h_scaling 0.663 -->
<g id="edge9" class="edge">
<title>ready&#45;&gt;key 2159
bias &#45;0.495
h_scaling 0.663</title>
<path fill="none" stroke="blue" stroke-width="0.64" d="M54.65,-693.1C64.25,-667.61 95.24,-586.14 123.64,-519.84 129.52,-506.11 136.04,-491.53 142.38,-477.65"/>
<polygon fill="blue" stroke="blue" stroke-width="0.64" points="145.74,-478.72 146.73,-468.17 139.37,-475.8 145.74,-478.72"/>
<text text-anchor="middle" x="139.14" y="-581.28" font-family="Times,serif" font-size="9.00">&#45;0.179</text>
</g>
<!-- go -->
<g id="node2" class="node">
<title>go</title>
<polygon fill="green" stroke="black" points="409.64,-711.12 381.64,-711.12 381.64,-693.12 409.64,-693.12 409.64,-711.12"/>
<text text-anchor="middle" x="395.64" y="-699.92" font-family="Times,serif" font-size="9.00">go</text>
</g>
<!-- go&#45;&gt;key 53857
bias &#45;0.547
h_scaling 0.809 -->
<g id="edge13" class="edge">
<title>go&#45;&gt;key 53857
bias &#45;0.547
h_scaling 0.809</title>
<path fill="none" stroke="red" stroke-width="1.44" d="M381.87,-692.92C373.6,-687.92 362.91,-681.31 353.64,-675.12 331.39,-660.25 307.43,-643.28 286.45,-628.07"/>
<polygon fill="red" stroke="red" stroke-width="1.44" points="288.41,-625.17 278.27,-622.11 284.29,-630.83 288.41,-625.17"/>
<text text-anchor="middle" x="367.64" y="-667.92" font-family="Times,serif" font-size="9.00">0.445</text>
</g>
<!-- key 13349
bias &#45;0.649
h_scaling 0.066 -->
<g id="node5" class="node">
<title>key 13349
bias &#45;0.649
h_scaling 0.066</title>
<ellipse fill="white" stroke="black" cx="319.64" cy="-236.92" rx="63.78" ry="63.78"/>
<text text-anchor="middle" x="319.64" y="-244.72" font-family="Times,serif" font-size="9.00">key 13349</text>
<text text-anchor="middle" x="319.64" y="-234.72" font-family="Times,serif" font-size="9.00">bias &#45;0.649</text>
<text text-anchor="middle" x="319.64" y="-224.72" font-family="Times,serif" font-size="9.00">h_scaling 0.066</text>
</g>
<!-- go&#45;&gt;key 13349
bias &#45;0.649
h_scaling 0.066 -->
<g id="edge8" class="edge">
<title>go&#45;&gt;key 13349
bias &#45;0.649
h_scaling 0.066</title>
<path fill="none" stroke="red" stroke-width="2.58" d="M397.68,-692.77C400.14,-682.21 404.14,-663.45 405.64,-647.12 417.87,-513.95 435.35,-472.94 391.64,-346.56 385.49,-328.79 375.75,-311.1 365.39,-295.32"/>
<polygon fill="red" stroke="red" stroke-width="2.58" points="368.1,-293.08 359.59,-286.77 362.3,-297.01 368.1,-293.08"/>
<text text-anchor="middle" x="432.64" y="-494.64" font-family="Times,serif" font-size="9.00">0.827</text>
</g>
<!-- go&#45;&gt;key 2159
bias &#45;0.495
h_scaling 0.663 -->
<g id="edge3" class="edge">
<title>go&#45;&gt;key 2159
bias &#45;0.495
h_scaling 0.663</title>
<path fill="none" stroke="red" stroke-width="2.21" d="M392.7,-692.83C382.83,-665.82 348.8,-578.68 300.64,-519.84 281.08,-495.94 255.82,-473.13 233,-454.64"/>
<polygon fill="red" stroke="red" stroke-width="2.21" points="235.04,-451.78 225.04,-448.28 230.67,-457.26 235.04,-451.78"/>
<text text-anchor="middle" x="387.64" y="-581.28" font-family="Times,serif" font-size="9.00">0.703</text>
</g>
<!-- output
bias 0.668
h_scaling 0.419 -->
<g id="node3" class="node">
<title>output
bias 0.668
h_scaling 0.419</title>
<ellipse fill="lightblue" stroke="black" cx="265.64" cy="-63.64" rx="63.78" ry="63.78"/>
<text text-anchor="middle" x="265.64" y="-71.44" font-family="Times,serif" font-size="9.00">output</text>
<text text-anchor="middle" x="265.64" y="-61.44" font-family="Times,serif" font-size="9.00">bias 0.668</text>
<text text-anchor="middle" x="265.64" y="-51.44" font-family="Times,serif" font-size="9.00">h_scaling 0.419</text>
</g>
<!-- output
bias 0.668
h_scaling 0.419&#45;&gt;key 13349
bias &#45;0.649
h_scaling 0.066 -->
<g id="edge6" class="edge">
<title>output
bias 0.668
h_scaling 0.419&#45;&gt;key 13349
bias &#45;0.649
h_scaling 0.066</title>
<path fill="none" stroke="blue" stroke-width="1.44" d="M258.03,-126.84C258.42,-136.51 259.78,-146.28 262.64,-155.28 265.21,-163.38 268.93,-171.37 273.25,-178.99"/>
<polygon fill="blue" stroke="blue" stroke-width="1.44" points="270.38,-181.01 278.56,-187.74 276.37,-177.38 270.38,-181.01"/>
<text text-anchor="middle" x="278.14" y="-148.08" font-family="Times,serif" font-size="9.00">&#45;0.448</text>
</g>
<!-- key 53857
bias &#45;0.547
h_scaling 0.809&#45;&gt;key 13349
bias &#45;0.649
h_scaling 0.066 -->
<g id="edge18" class="edge">
<title>key 53857
bias &#45;0.547
h_scaling 0.809&#45;&gt;key 13349
bias &#45;0.649
h_scaling 0.066</title>
<path fill="none" stroke="red" stroke-width="0.37" d="M264.31,-531.36C275.15,-513.89 285.91,-493.72 292.64,-473.84 310.5,-421.09 317.03,-358.32 319.22,-310.79"/>
<polygon fill="red" stroke="red" stroke-width="0.37" points="322.72,-310.72 319.63,-300.58 315.73,-310.43 322.72,-310.72"/>
<text text-anchor="middle" x="331.64" y="-408" font-family="Times,serif" font-size="9.00">0.090</text>
</g>
<!-- key 53857
bias &#45;0.547
h_scaling 0.809&#45;&gt;key 2159
bias &#45;0.495
h_scaling 0.663 -->
<g id="edge11" class="edge">
<title>key 53857
bias &#45;0.547
h_scaling 0.809&#45;&gt;key 2159
bias &#45;0.495
h_scaling 0.663</title>
<path fill="none" stroke="blue" stroke-width="0.53" d="M214,-521.21C211.45,-511.32 208.63,-501.25 205.64,-491.84 204.29,-487.61 202.83,-483.28 201.3,-478.94"/>
<polygon fill="blue" stroke="blue" stroke-width="0.53" points="204.56,-477.64 197.86,-469.43 197.97,-480.02 204.56,-477.64"/>
<text text-anchor="middle" x="224.14" y="-494.64" font-family="Times,serif" font-size="9.00">&#45;0.143</text>
</g>
<!-- key 13349
bias &#45;0.649
h_scaling 0.066&#45;&gt;output
bias 0.668
h_scaling 0.419 -->
<g id="edge5" class="edge">
<title>key 13349
bias &#45;0.649
h_scaling 0.066&#45;&gt;output
bias 0.668
h_scaling 0.419</title>
<path fill="none" stroke="blue" stroke-width="2.97" d="M306,-174.65C303.45,-164.77 300.63,-154.69 297.64,-145.28 296.29,-141.05 294.83,-136.72 293.3,-132.38"/>
<polygon fill="blue" stroke="blue" stroke-width="2.97" points="296.56,-131.08 289.86,-122.87 289.97,-133.46 296.56,-131.08"/>
<text text-anchor="middle" x="316.14" y="-148.08" font-family="Times,serif" font-size="9.00">&#45;0.957</text>
</g>
<!-- key 13349
bias &#45;0.649
h_scaling 0.066&#45;&gt;key 53857
bias &#45;0.547
h_scaling 0.809 -->
<g id="edge12" class="edge">
<title>key 13349
bias &#45;0.649
h_scaling 0.066&#45;&gt;key 53857
bias &#45;0.547
h_scaling 0.809</title>
<path fill="none" stroke="red" stroke-width="2.19" d="M341.12,-297.12C355.49,-345.46 368.88,-415.14 351.64,-473.84 342.58,-504.68 317.61,-529.37 292.42,-547.37"/>
<polygon fill="red" stroke="red" stroke-width="2.19" points="290.17,-544.67 283.9,-553.21 294.13,-550.44 290.17,-544.67"/>
<text text-anchor="middle" x="373.64" y="-408" font-family="Times,serif" font-size="9.00">0.696</text>
</g>
<!-- key 13349
bias &#45;0.649
h_scaling 0.066&#45;&gt;key 13349
bias &#45;0.649
h_scaling 0.066 -->
<g id="edge7" class="edge">
<title>key 13349
bias &#45;0.649
h_scaling 0.066&#45;&gt;key 13349
bias &#45;0.649
h_scaling 0.066</title>
<path fill="none" stroke="red" stroke-width="1.48" d="M381.58,-252.22C393.14,-250.33 401.28,-245.23 401.28,-236.92 401.28,-231.2 397.43,-227.01 391.27,-224.33"/>
<polygon fill="red" stroke="red" stroke-width="1.48" points="392.16,-220.94 381.58,-221.62 390.27,-227.68 392.16,-220.94"/>
<text text-anchor="middle" x="415.28" y="-234.72" font-family="Times,serif" font-size="9.00">0.459</text>
</g>
<!-- key 369549
bias &#45;0.765
h_scaling 0.458&#45;&gt;key 53857
bias &#45;0.547
h_scaling 0.809 -->
<g id="edge16" class="edge">
<title>key 369549
bias &#45;0.765
h_scaling 0.458&#45;&gt;key 53857
bias &#45;0.547
h_scaling 0.809</title>
<path fill="none" stroke="red" stroke-width="2.67" d="M50.18,-299.21C42.54,-349.91 40.09,-421.8 72.64,-473.84 95.62,-510.59 123.21,-494.86 158.64,-519.84 163.85,-523.51 169.08,-527.53 174.22,-531.71"/>
<polygon fill="red" stroke="red" stroke-width="2.67" points="172.27,-534.65 182.19,-538.38 176.77,-529.28 172.27,-534.65"/>
<text text-anchor="middle" x="86.64" y="-408" font-family="Times,serif" font-size="9.00">0.858</text>
</g>
<!-- key 2159
bias &#45;0.495
h_scaling 0.663&#45;&gt;output
bias 0.668
h_scaling 0.419 -->
<g id="edge1" class="edge">
<title>key 2159
bias &#45;0.495
h_scaling 0.663&#45;&gt;output
bias 0.668
h_scaling 0.419</title>
<path fill="none" stroke="blue" stroke-width="3.1" d="M180.37,-346.57C186.6,-298.41 197.66,-230.64 215.64,-173.28 220.17,-158.81 226.19,-143.76 232.47,-129.64"/>
<polygon fill="blue" stroke="blue" stroke-width="3.1" points="235.67,-131.06 236.62,-120.51 229.3,-128.16 235.67,-131.06"/>
<text text-anchor="middle" x="231.14" y="-234.72" font-family="Times,serif" font-size="9.00">&#45;1.000</text>
</g>
<!-- key 2159
bias &#45;0.495
h_scaling 0.663&#45;&gt;key 53857
bias &#45;0.547
h_scaling 0.809 -->
<g id="edge14" class="edge">
<title>key 2159
bias &#45;0.495
h_scaling 0.663&#45;&gt;key 53857
bias &#45;0.547
h_scaling 0.809</title>
<path fill="none" stroke="blue" stroke-width="0.36" d="M166.03,-473.4C166.42,-483.07 167.78,-492.83 170.64,-501.84 173.21,-509.94 176.93,-517.93 181.25,-525.55"/>
<polygon fill="blue" stroke="blue" stroke-width="0.36" points="178.38,-527.57 186.56,-534.3 184.37,-523.94 178.38,-527.57"/>
<text text-anchor="middle" x="186.14" y="-494.64" font-family="Times,serif" font-size="9.00">&#45;0.088</text>
</g>
<!-- key 2159
bias &#45;0.495
h_scaling 0.663&#45;&gt;key 13349
bias &#45;0.649
h_scaling 0.066 -->
<g id="edge4" class="edge">
<title>key 2159
bias &#45;0.495
h_scaling 0.663&#45;&gt;key 13349
bias &#45;0.649
h_scaling 0.066</title>
<path fill="none" stroke="red" stroke-width="2.97" d="M214.7,-361.03C232.5,-340.15 253.46,-315.56 271.95,-293.87"/>
<polygon fill="red" stroke="red" stroke-width="2.97" points="274.81,-295.9 278.64,-286.02 269.49,-291.36 274.81,-295.9"/>
<text text-anchor="middle" x="260.64" y="-321.36" font-family="Times,serif" font-size="9.00">0.957</text>
</g>
<!-- key 2159
bias &#45;0.495
h_scaling 0.663&#45;&gt;key 369549
bias &#45;0.765
h_scaling 0.458 -->
<g id="edge17" class="edge">
<title>key 2159
bias &#45;0.495
h_scaling 0.663&#45;&gt;key 369549
bias &#45;0.765
h_scaling 0.458</title>
<path fill="none" stroke="blue" stroke-width="2.12" d="M139.44,-355.94C127.95,-338.06 115.04,-317.96 103.18,-299.49"/>
<polygon fill="blue" stroke="blue" stroke-width="2.12" points="105.98,-297.37 97.63,-290.85 100.09,-301.15 105.98,-297.37"/>
<text text-anchor="middle" x="134.14" y="-321.36" font-family="Times,serif" font-size="9.00">&#45;0.673</text>
</g>
<!-- key 2159
bias &#45;0.495
h_scaling 0.663&#45;&gt;key 2159
bias &#45;0.495
h_scaling 0.663 -->
<g id="edge2" class="edge">
<title>key 2159
bias &#45;0.495
h_scaling 0.663&#45;&gt;key 2159
bias &#45;0.495
h_scaling 0.663</title>
<path fill="none" stroke="red" stroke-width="3.1" d="M235.58,-425.5C247.14,-423.61 255.28,-418.51 255.28,-410.2 255.28,-404.48 251.43,-400.29 245.27,-397.61"/>
<polygon fill="red" stroke="red" stroke-width="3.1" points="246.16,-394.22 235.58,-394.9 244.27,-400.96 246.16,-394.22"/>
<text text-anchor="middle" x="269.28" y="-408" font-family="Times,serif" font-size="9.00">1.000</text>
</g>
</g>
</svg>
