<?xml version="1.0" encoding="UTF-8" standalone="no"?>
<!DOCTYPE svg PUBLIC "-//W3C//DTD SVG 1.1//EN"
 "http://www.w3.org/Graphics/SVG/1.1/DTD/svg11.dtd">
<!-- Generated by graphviz version 2.43.0 (0)
 -->
<!-- Title: %3 Pages: 1 -->
<svg width="544pt" height="1057pt"
 viewBox="0.00 0.00 543.64 1056.68" xmlns="http://www.w3.org/2000/svg" xmlns:xlink="http://www.w3.org/1999/xlink">
<g id="graph0" class="graph" transform="scale(1 1) rotate(0) translate(4 1052.68)">
<title>%3</title>
<polygon fill="white" stroke="transparent" points="-4,4 -4,-1052.68 539.64,-1052.68 539.64,4 -4,4"/>
<!-- ready -->
<g id="node1" class="node">
<title>ready</title>
<polygon fill="yellow" stroke="black" points="154.14,-1048.68 111.14,-1048.68 111.14,-1030.68 154.14,-1030.68 154.14,-1048.68"/>
<text text-anchor="middle" x="132.64" y="-1037.48" font-family="Times,serif" font-size="9.00">ready</text>
</g>
<!-- key 3217
bias &#45;0.044
h_scaling 1.000 -->
<g id="node8" class="node">
<title>key 3217
bias &#45;0.044
h_scaling 1.000</title>
<ellipse fill="white" stroke="black" cx="201.64" cy="-747.76" rx="63.78" ry="63.78"/>
<text text-anchor="middle" x="201.64" y="-755.56" font-family="Times,serif" font-size="9.00">key 3217</text>
<text text-anchor="middle" x="201.64" y="-745.56" font-family="Times,serif" font-size="9.00">bias &#45;0.044</text>
<text text-anchor="middle" x="201.64" y="-735.56" font-family="Times,serif" font-size="9.00">h_scaling 1.000</text>
</g>
<!-- ready&#45;&gt;key 3217
bias &#45;0.044
h_scaling 1.000 -->
<g id="edge1" class="edge">
<title>ready&#45;&gt;key 3217
bias &#45;0.044
h_scaling 1.000</title>
<path fill="none" stroke="blue" stroke-width="0.1" d="M143.67,-1030.55C155.62,-1021.04 174.11,-1004.1 182.64,-984.68 205.19,-933.3 209.09,-869.62 207.82,-821.37"/>
<polygon fill="blue" stroke="blue" stroke-width="0.1" points="211.32,-821.19 207.48,-811.32 204.32,-821.43 211.32,-821.19"/>
</g>
<!-- key 12151
bias &#45;0.575
h_scaling 1.000 -->
<g id="node9" class="node">
<title>key 12151
bias &#45;0.575
h_scaling 1.000</title>
<ellipse fill="white" stroke="black" cx="63.64" cy="-921.04" rx="63.78" ry="63.78"/>
<text text-anchor="middle" x="63.64" y="-928.84" font-family="Times,serif" font-size="9.00">key 12151</text>
<text text-anchor="middle" x="63.64" y="-918.84" font-family="Times,serif" font-size="9.00">bias &#45;0.575</text>
<text text-anchor="middle" x="63.64" y="-908.84" font-family="Times,serif" font-size="9.00">h_scaling 1.000</text>
</g>
<!-- ready&#45;&gt;key 12151
bias &#45;0.575
h_scaling 1.000 -->
<g id="edge10" class="edge">
<title>ready&#45;&gt;key 12151
bias &#45;0.575
h_scaling 1.000</title>
<path fill="none" stroke="red" stroke-width="0.1" d="M127.9,-1030.66C122.09,-1020.84 111.69,-1003.26 100.92,-985.06"/>
<polygon fill="red" stroke="red" stroke-width="0.1" points="103.73,-982.93 95.63,-976.11 97.7,-986.49 103.73,-982.93"/>
<text text-anchor="middle" x="129.64" y="-1005.48" font-family="Times,serif" font-size="9.00">0.000</text>
</g>
<!-- go -->
<g id="node2" class="node">
<title>go</title>
<polygon fill="green" stroke="black" points="329.64,-930.04 301.64,-930.04 301.64,-912.04 329.64,-912.04 329.64,-930.04"/>
<text text-anchor="middle" x="315.64" y="-918.84" font-family="Times,serif" font-size="9.00">go</text>
</g>
<!-- key 4875
bias &#45;0.887
h_scaling 1.000 -->
<g id="node5" class="node">
<title>key 4875
bias &#45;0.887
h_scaling 1.000</title>
<ellipse fill="white" stroke="black" cx="318.64" cy="-227.92" rx="63.78" ry="63.78"/>
<text text-anchor="middle" x="318.64" y="-235.72" font-family="Times,serif" font-size="9.00">key 4875</text>
<text text-anchor="middle" x="318.64" y="-225.72" font-family="Times,serif" font-size="9.00">bias &#45;0.887</text>
<text text-anchor="middle" x="318.64" y="-215.72" font-family="Times,serif" font-size="9.00">h_scaling 1.000</text>
</g>
<!-- go&#45;&gt;key 4875
bias &#45;0.887
h_scaling 1.000 -->
<g id="edge6" class="edge">
<title>go&#45;&gt;key 4875
bias &#45;0.887
h_scaling 1.000</title>
<path fill="none" stroke="red" stroke-width="0.1" d="M318.66,-911.97C341.65,-850.01 486.84,-449.1 437.64,-337.56 425.52,-310.08 402.64,-286.55 380.16,-268.48"/>
<polygon fill="red" stroke="red" stroke-width="0.1" points="382.28,-265.7 372.24,-262.32 377.98,-271.22 382.28,-265.7"/>
<text text-anchor="middle" x="449.64" y="-572.28" font-family="Times,serif" font-size="9.00">0.000</text>
</g>
<!-- key 7056
bias &#45;0.786
h_scaling 1.000 -->
<g id="node7" class="node">
<title>key 7056
bias &#45;0.786
h_scaling 1.000</title>
<ellipse fill="white" stroke="black" cx="298.64" cy="-574.48" rx="63.78" ry="63.78"/>
<text text-anchor="middle" x="298.64" y="-582.28" font-family="Times,serif" font-size="9.00">key 7056</text>
<text text-anchor="middle" x="298.64" y="-572.28" font-family="Times,serif" font-size="9.00">bias &#45;0.786</text>
<text text-anchor="middle" x="298.64" y="-562.28" font-family="Times,serif" font-size="9.00">h_scaling 1.000</text>
</g>
<!-- go&#45;&gt;key 7056
bias &#45;0.786
h_scaling 1.000 -->
<g id="edge7" class="edge">
<title>go&#45;&gt;key 7056
bias &#45;0.786
h_scaling 1.000</title>
<path fill="none" stroke="red" stroke-width="0.1" d="M315.24,-911.86C313.5,-876.72 306.58,-736.32 302.24,-648.39"/>
<polygon fill="red" stroke="red" stroke-width="0.1" points="305.72,-648.02 301.73,-638.2 298.73,-648.36 305.72,-648.02"/>
<text text-anchor="middle" x="323.64" y="-745.56" font-family="Times,serif" font-size="9.00">0.000</text>
</g>
<!-- go&#45;&gt;key 3217
bias &#45;0.044
h_scaling 1.000 -->
<g id="edge3" class="edge">
<title>go&#45;&gt;key 3217
bias &#45;0.044
h_scaling 1.000</title>
<path fill="none" stroke="red" stroke-width="0.1" d="M310.14,-911.77C297.94,-893.45 267.68,-847.98 242.21,-809.71"/>
<polygon fill="red" stroke="red" stroke-width="0.1" points="244.97,-807.55 236.52,-801.16 239.15,-811.42 244.97,-807.55"/>
<text text-anchor="middle" x="272.64" y="-832.2" font-family="Times,serif" font-size="9.00">0.000</text>
</g>
<!-- output
bias 0.339
h_scaling 1.000 -->
<g id="node3" class="node">
<title>output
bias 0.339
h_scaling 1.000</title>
<ellipse fill="lightblue" stroke="black" cx="132.64" cy="-63.64" rx="63.78" ry="63.78"/>
<text text-anchor="middle" x="132.64" y="-71.44" font-family="Times,serif" font-size="9.00">output</text>
<text text-anchor="middle" x="132.64" y="-61.44" font-family="Times,serif" font-size="9.00">bias 0.339</text>
<text text-anchor="middle" x="132.64" y="-51.44" font-family="Times,serif" font-size="9.00">h_scaling 1.000</text>
</g>
<!-- output
bias 0.339
h_scaling 1.000&#45;&gt;key 3217
bias &#45;0.044
h_scaling 1.000 -->
<g id="edge15" class="edge">
<title>output
bias 0.339
h_scaling 1.000&#45;&gt;key 3217
bias &#45;0.044
h_scaling 1.000</title>
<path fill="none" stroke="red" stroke-width="0.1" d="M132.64,-127.45C132.64,-157.54 132.64,-194.1 132.64,-226.92 132.64,-575.48 132.64,-575.48 132.64,-575.48 132.64,-613.41 147.38,-652.87 163.23,-684.33"/>
<polygon fill="red" stroke="red" stroke-width="0.1" points="160.23,-686.15 167.95,-693.41 166.44,-682.92 160.23,-686.15"/>
<text text-anchor="middle" x="146.64" y="-399" font-family="Times,serif" font-size="9.00">0.000</text>
</g>
<!-- key 215175
bias &#45;0.147
h_scaling 1.000 -->
<g id="node4" class="node">
<title>key 215175
bias &#45;0.147
h_scaling 1.000</title>
<ellipse fill="white" stroke="black" cx="451.64" cy="-921.04" rx="63.78" ry="63.78"/>
<text text-anchor="middle" x="451.64" y="-928.84" font-family="Times,serif" font-size="9.00">key 215175</text>
<text text-anchor="middle" x="451.64" y="-918.84" font-family="Times,serif" font-size="9.00">bias &#45;0.147</text>
<text text-anchor="middle" x="451.64" y="-908.84" font-family="Times,serif" font-size="9.00">h_scaling 1.000</text>
</g>
<!-- key 215175
bias &#45;0.147
h_scaling 1.000&#45;&gt;key 4875
bias &#45;0.887
h_scaling 1.000 -->
<g id="edge19" class="edge">
<title>key 215175
bias &#45;0.147
h_scaling 1.000&#45;&gt;key 4875
bias &#45;0.887
h_scaling 1.000</title>
<path fill="none" stroke="red" stroke-width="0.1" d="M479.97,-863.66C493.86,-830.95 507.64,-788.49 507.64,-748.76 507.64,-748.76 507.64,-748.76 507.64,-400.2 507.64,-332.8 440.84,-285 386.66,-257.32"/>
<polygon fill="red" stroke="red" stroke-width="0.1" points="387.92,-254.04 377.4,-252.72 384.8,-260.3 387.92,-254.04"/>
<text text-anchor="middle" x="521.64" y="-572.28" font-family="Times,serif" font-size="9.00">0.000</text>
</g>
<!-- key 215175
bias &#45;0.147
h_scaling 1.000&#45;&gt;key 7056
bias &#45;0.786
h_scaling 1.000 -->
<g id="edge20" class="edge">
<title>key 215175
bias &#45;0.147
h_scaling 1.000&#45;&gt;key 7056
bias &#45;0.786
h_scaling 1.000</title>
<path fill="none" stroke="red" stroke-width="0.1" d="M431.53,-860.21C427.76,-849.87 423.72,-839.27 419.64,-829.4 392.68,-764.18 357.6,-691.69 332.16,-640.91"/>
<polygon fill="red" stroke="red" stroke-width="0.1" points="335.14,-639.05 327.53,-631.68 328.89,-642.19 335.14,-639.05"/>
<text text-anchor="middle" x="424.64" y="-745.56" font-family="Times,serif" font-size="9.00">0.000</text>
</g>
<!-- key 215175
bias &#45;0.147
h_scaling 1.000&#45;&gt;key 3217
bias &#45;0.044
h_scaling 1.000 -->
<g id="edge21" class="edge">
<title>key 215175
bias &#45;0.147
h_scaling 1.000&#45;&gt;key 3217
bias &#45;0.044
h_scaling 1.000</title>
<path fill="none" stroke="blue" stroke-width="0.1" d="M399.54,-884.34C359.51,-856.91 304.15,-818.99 262.16,-790.22"/>
<polygon fill="blue" stroke="blue" stroke-width="0.1" points="263.9,-787.17 253.68,-784.41 259.95,-792.95 263.9,-787.17"/>
</g>
<!-- key 4875
bias &#45;0.887
h_scaling 1.000&#45;&gt;output
bias 0.339
h_scaling 1.000 -->
<g id="edge4" class="edge">
<title>key 4875
bias &#45;0.887
h_scaling 1.000&#45;&gt;output
bias 0.339
h_scaling 1.000</title>
<path fill="none" stroke="blue" stroke-width="0.1" d="M276.2,-179.81C265,-168.14 252.67,-155.94 240.64,-145.28 225.72,-132.07 208.78,-118.72 192.81,-106.8"/>
<polygon fill="blue" stroke="blue" stroke-width="0.1" points="194.68,-103.83 184.56,-100.7 190.52,-109.46 194.68,-103.83"/>
</g>
<!-- key 4875
bias &#45;0.887
h_scaling 1.000&#45;&gt;key 4875
bias &#45;0.887
h_scaling 1.000 -->
<g id="edge5" class="edge">
<title>key 4875
bias &#45;0.887
h_scaling 1.000&#45;&gt;key 4875
bias &#45;0.887
h_scaling 1.000</title>
<path fill="none" stroke="red" stroke-width="0.1" d="M380.93,-242.45C392.3,-240.61 400.28,-235.77 400.28,-227.92 400.28,-222.65 396.68,-218.73 390.87,-216.17"/>
<polygon fill="red" stroke="red" stroke-width="0.1" points="391.5,-212.71 380.93,-213.39 389.62,-219.45 391.5,-212.71"/>
<text text-anchor="middle" x="414.28" y="-225.72" font-family="Times,serif" font-size="9.00">0.000</text>
</g>
<!-- key 36175
bias &#45;0.810
h_scaling 1.000 -->
<g id="node6" class="node">
<title>key 36175
bias &#45;0.810
h_scaling 1.000</title>
<ellipse fill="white" stroke="black" cx="318.64" cy="-401.2" rx="63.78" ry="63.78"/>
<text text-anchor="middle" x="318.64" y="-409" font-family="Times,serif" font-size="9.00">key 36175</text>
<text text-anchor="middle" x="318.64" y="-399" font-family="Times,serif" font-size="9.00">bias &#45;0.810</text>
<text text-anchor="middle" x="318.64" y="-389" font-family="Times,serif" font-size="9.00">h_scaling 1.000</text>
</g>
<!-- key 36175
bias &#45;0.810
h_scaling 1.000&#45;&gt;key 4875
bias &#45;0.887
h_scaling 1.000 -->
<g id="edge14" class="edge">
<title>key 36175
bias &#45;0.810
h_scaling 1.000&#45;&gt;key 4875
bias &#45;0.887
h_scaling 1.000</title>
<path fill="none" stroke="red" stroke-width="0.1" d="M318.64,-337.39C318.64,-325.87 318.64,-313.76 318.64,-301.97"/>
<polygon fill="red" stroke="red" stroke-width="0.1" points="322.14,-301.72 318.64,-291.72 315.14,-301.72 322.14,-301.72"/>
<text text-anchor="middle" x="332.64" y="-312.36" font-family="Times,serif" font-size="9.00">0.000</text>
</g>
<!-- key 36175
bias &#45;0.810
h_scaling 1.000&#45;&gt;key 36175
bias &#45;0.810
h_scaling 1.000 -->
<g id="edge17" class="edge">
<title>key 36175
bias &#45;0.810
h_scaling 1.000&#45;&gt;key 36175
bias &#45;0.810
h_scaling 1.000</title>
<path fill="none" stroke="red" stroke-width="0.1" d="M380.58,-416.5C392.14,-414.61 400.28,-409.51 400.28,-401.2 400.28,-395.48 396.43,-391.29 390.27,-388.61"/>
<polygon fill="red" stroke="red" stroke-width="0.1" points="391.16,-385.22 380.58,-385.9 389.27,-391.96 391.16,-385.22"/>
<text text-anchor="middle" x="414.28" y="-399" font-family="Times,serif" font-size="9.00">0.000</text>
</g>
<!-- key 7056
bias &#45;0.786
h_scaling 1.000&#45;&gt;output
bias 0.339
h_scaling 1.000 -->
<g id="edge22" class="edge">
<title>key 7056
bias &#45;0.786
h_scaling 1.000&#45;&gt;output
bias 0.339
h_scaling 1.000</title>
<path fill="none" stroke="blue" stroke-width="0.1" d="M269.18,-517.94C260.92,-501.15 252.37,-482.48 245.64,-464.84 202.81,-352.61 167.92,-217.21 148.74,-136.17"/>
<polygon fill="blue" stroke="blue" stroke-width="0.1" points="152.07,-135.01 146.37,-126.08 145.25,-136.61 152.07,-135.01"/>
</g>
<!-- key 7056
bias &#45;0.786
h_scaling 1.000&#45;&gt;key 36175
bias &#45;0.810
h_scaling 1.000 -->
<g id="edge13" class="edge">
<title>key 7056
bias &#45;0.786
h_scaling 1.000&#45;&gt;key 36175
bias &#45;0.810
h_scaling 1.000</title>
<path fill="none" stroke="red" stroke-width="0.1" d="M305.92,-511.16C307.3,-499.28 308.77,-486.75 310.19,-474.58"/>
<polygon fill="red" stroke="red" stroke-width="0.1" points="313.68,-474.81 311.37,-464.47 306.73,-474 313.68,-474.81"/>
<text text-anchor="middle" x="322.64" y="-485.64" font-family="Times,serif" font-size="9.00">0.000</text>
</g>
<!-- key 7056
bias &#45;0.786
h_scaling 1.000&#45;&gt;key 3217
bias &#45;0.044
h_scaling 1.000 -->
<g id="edge8" class="edge">
<title>key 7056
bias &#45;0.786
h_scaling 1.000&#45;&gt;key 3217
bias &#45;0.044
h_scaling 1.000</title>
<path fill="none" stroke="red" stroke-width="0.1" d="M269.71,-631.36C263.54,-642.92 256.97,-654.97 250.64,-666.12 247.27,-672.05 243.7,-678.19 240.08,-684.31"/>
<polygon fill="red" stroke="red" stroke-width="0.1" points="236.88,-682.85 234.77,-693.23 242.89,-686.43 236.88,-682.85"/>
<text text-anchor="middle" x="269.64" y="-658.92" font-family="Times,serif" font-size="9.00">0.000</text>
</g>
<!-- key 3217
bias &#45;0.044
h_scaling 1.000&#45;&gt;output
bias 0.339
h_scaling 1.000 -->
<g id="edge16" class="edge">
<title>key 3217
bias &#45;0.044
h_scaling 1.000&#45;&gt;output
bias 0.339
h_scaling 1.000</title>
<path fill="none" stroke="blue" stroke-width="0.1" d="M153.87,-705.7C122.27,-673.81 86.64,-626.52 86.64,-575.48 86.64,-575.48 86.64,-575.48 86.64,-226.92 86.64,-194.95 95,-160.74 104.6,-132.01"/>
<polygon fill="blue" stroke="blue" stroke-width="0.1" points="107.93,-133.09 107.89,-122.49 101.31,-130.8 107.93,-133.09"/>
</g>
<!-- key 3217
bias &#45;0.044
h_scaling 1.000&#45;&gt;key 4875
bias &#45;0.887
h_scaling 1.000 -->
<g id="edge2" class="edge">
<title>key 3217
bias &#45;0.044
h_scaling 1.000&#45;&gt;key 4875
bias &#45;0.887
h_scaling 1.000</title>
<path fill="none" stroke="red" stroke-width="0.1" d="M190.92,-684.88C183.47,-631.04 176.93,-551.15 189.64,-482.84 202.3,-414.81 213.7,-398.94 245.64,-337.56 254.27,-320.98 264.89,-303.83 275.33,-288.2"/>
<polygon fill="red" stroke="red" stroke-width="0.1" points="278.39,-289.93 281.1,-279.68 272.59,-286 278.39,-289.93"/>
<text text-anchor="middle" x="203.64" y="-485.64" font-family="Times,serif" font-size="9.00">0.000</text>
</g>
<!-- key 3217
bias &#45;0.044
h_scaling 1.000&#45;&gt;key 7056
bias &#45;0.786
h_scaling 1.000 -->
<g id="edge9" class="edge">
<title>key 3217
bias &#45;0.044
h_scaling 1.000&#45;&gt;key 7056
bias &#45;0.786
h_scaling 1.000</title>
<path fill="none" stroke="red" stroke-width="0.1" d="M208.3,-684.16C210.76,-674.44 214.1,-664.76 218.64,-656.12 224.85,-644.29 233.37,-633.08 242.55,-622.98"/>
<polygon fill="red" stroke="red" stroke-width="0.1" points="245.32,-625.14 249.67,-615.48 240.25,-620.32 245.32,-625.14"/>
<text text-anchor="middle" x="232.64" y="-658.92" font-family="Times,serif" font-size="9.00">0.000</text>
</g>
<!-- key 12151
bias &#45;0.575
h_scaling 1.000&#45;&gt;output
bias 0.339
h_scaling 1.000 -->
<g id="edge18" class="edge">
<title>key 12151
bias &#45;0.575
h_scaling 1.000&#45;&gt;output
bias 0.339
h_scaling 1.000</title>
<path fill="none" stroke="red" stroke-width="0.1" d="M52.88,-858C48.14,-825.56 43.64,-785.13 43.64,-748.76 43.64,-748.76 43.64,-748.76 43.64,-226.92 43.64,-188 63.56,-149.59 84.55,-119.91"/>
<polygon fill="red" stroke="red" stroke-width="0.1" points="87.42,-121.92 90.49,-111.78 81.76,-117.79 87.42,-121.92"/>
<text text-anchor="middle" x="57.64" y="-485.64" font-family="Times,serif" font-size="9.00">0.000</text>
</g>
<!-- key 12151
bias &#45;0.575
h_scaling 1.000&#45;&gt;key 3217
bias &#45;0.044
h_scaling 1.000 -->
<g id="edge11" class="edge">
<title>key 12151
bias &#45;0.575
h_scaling 1.000&#45;&gt;key 3217
bias &#45;0.044
h_scaling 1.000</title>
<path fill="none" stroke="blue" stroke-width="0.1" d="M103.18,-870.95C119.57,-850.62 138.68,-826.9 155.69,-805.79"/>
<polygon fill="blue" stroke="blue" stroke-width="0.1" points="158.54,-807.83 162.09,-797.85 153.09,-803.44 158.54,-807.83"/>
</g>
<!-- key 12151
bias &#45;0.575
h_scaling 1.000&#45;&gt;key 12151
bias &#45;0.575
h_scaling 1.000 -->
<g id="edge12" class="edge">
<title>key 12151
bias &#45;0.575
h_scaling 1.000&#45;&gt;key 12151
bias &#45;0.575
h_scaling 1.000</title>
<path fill="none" stroke="red" stroke-width="0.1" d="M125.58,-936.33C137.14,-934.45 145.28,-929.35 145.28,-921.04 145.28,-915.32 141.43,-911.12 135.27,-908.45"/>
<polygon fill="red" stroke="red" stroke-width="0.1" points="136.16,-905.06 125.58,-905.74 134.27,-911.8 136.16,-905.06"/>
<text text-anchor="middle" x="159.28" y="-918.84" font-family="Times,serif" font-size="9.00">0.000</text>
</g>
</g>
</svg>
