<?xml version="1.0" encoding="UTF-8" standalone="no"?>
<!DOCTYPE svg PUBLIC "-//W3C//DTD SVG 1.1//EN"
 "http://www.w3.org/Graphics/SVG/1.1/DTD/svg11.dtd">
<!-- Generated by graphviz version 2.43.0 (0)
 -->
<!-- Title: %3 Pages: 1 -->
<svg width="552pt" height="1066pt"
 viewBox="0.00 0.00 551.64 1065.68" xmlns="http://www.w3.org/2000/svg" xmlns:xlink="http://www.w3.org/1999/xlink">
<g id="graph0" class="graph" transform="scale(1 1) rotate(0) translate(4 1061.68)">
<title>%3</title>
<polygon fill="white" stroke="transparent" points="-4,4 -4,-1061.68 547.64,-1061.68 547.64,4 -4,4"/>
<!-- ready -->
<g id="node1" class="node">
<title>ready</title>
<polygon fill="yellow" stroke="black" points="158.14,-1057.68 115.14,-1057.68 115.14,-1039.68 158.14,-1039.68 158.14,-1057.68"/>
<text text-anchor="middle" x="136.64" y="-1046.48" font-family="Times,serif" font-size="9.00">ready</text>
</g>
<!-- key 3217
bias &#45;0.044
h_scaling 1.000 -->
<g id="node8" class="node">
<title>key 3217
bias &#45;0.044
h_scaling 1.000</title>
<ellipse fill="white" stroke="black" cx="209.64" cy="-756.76" rx="63.78" ry="63.78"/>
<text text-anchor="middle" x="209.64" y="-764.56" font-family="Times,serif" font-size="9.00">key 3217</text>
<text text-anchor="middle" x="209.64" y="-754.56" font-family="Times,serif" font-size="9.00">bias &#45;0.044</text>
<text text-anchor="middle" x="209.64" y="-744.56" font-family="Times,serif" font-size="9.00">h_scaling 1.000</text>
</g>
<!-- ready&#45;&gt;key 3217
bias &#45;0.044
h_scaling 1.000 -->
<g id="edge1" class="edge">
<title>ready&#45;&gt;key 3217
bias &#45;0.044
h_scaling 1.000</title>
<path fill="none" stroke="blue" stroke-width="0.68" d="M146.29,-1039.65C157.16,-1029.98 174.4,-1012.65 182.64,-993.68 205.03,-942.13 211.23,-878.6 212.13,-830.45"/>
<polygon fill="blue" stroke="blue" stroke-width="0.68" points="215.63,-830.46 212.25,-820.42 208.63,-830.38 215.63,-830.46"/>
<text text-anchor="middle" x="225.14" y="-927.84" font-family="Times,serif" font-size="9.00">&#45;0.194</text>
</g>
<!-- key 12151
bias &#45;0.575
h_scaling 1.000 -->
<g id="node9" class="node">
<title>key 12151
bias &#45;0.575
h_scaling 1.000</title>
<ellipse fill="white" stroke="black" cx="63.64" cy="-930.04" rx="63.78" ry="63.78"/>
<text text-anchor="middle" x="63.64" y="-937.84" font-family="Times,serif" font-size="9.00">key 12151</text>
<text text-anchor="middle" x="63.64" y="-927.84" font-family="Times,serif" font-size="9.00">bias &#45;0.575</text>
<text text-anchor="middle" x="63.64" y="-917.84" font-family="Times,serif" font-size="9.00">h_scaling 1.000</text>
</g>
<!-- ready&#45;&gt;key 12151
bias &#45;0.575
h_scaling 1.000 -->
<g id="edge10" class="edge">
<title>ready&#45;&gt;key 12151
bias &#45;0.575
h_scaling 1.000</title>
<path fill="none" stroke="red" stroke-width="3.1" d="M131.62,-1039.66C125.36,-1029.66 114.07,-1011.61 102.46,-993.06"/>
<polygon fill="red" stroke="red" stroke-width="3.1" points="105.39,-991.15 97.12,-984.53 99.46,-994.87 105.39,-991.15"/>
<text text-anchor="middle" x="132.64" y="-1014.48" font-family="Times,serif" font-size="9.00">1.000</text>
</g>
<!-- go -->
<g id="node2" class="node">
<title>go</title>
<polygon fill="green" stroke="black" points="336.64,-939.04 308.64,-939.04 308.64,-921.04 336.64,-921.04 336.64,-939.04"/>
<text text-anchor="middle" x="322.64" y="-927.84" font-family="Times,serif" font-size="9.00">go</text>
</g>
<!-- key 4875
bias &#45;0.887
h_scaling 1.000 -->
<g id="node5" class="node">
<title>key 4875
bias &#45;0.887
h_scaling 1.000</title>
<ellipse fill="white" stroke="black" cx="325.64" cy="-236.92" rx="63.78" ry="63.78"/>
<text text-anchor="middle" x="325.64" y="-244.72" font-family="Times,serif" font-size="9.00">key 4875</text>
<text text-anchor="middle" x="325.64" y="-234.72" font-family="Times,serif" font-size="9.00">bias &#45;0.887</text>
<text text-anchor="middle" x="325.64" y="-224.72" font-family="Times,serif" font-size="9.00">h_scaling 1.000</text>
</g>
<!-- go&#45;&gt;key 4875
bias &#45;0.887
h_scaling 1.000 -->
<g id="edge6" class="edge">
<title>go&#45;&gt;key 4875
bias &#45;0.887
h_scaling 1.000</title>
<path fill="none" stroke="red" stroke-width="2.63" d="M329.61,-920.7C340.92,-906.71 363.18,-877.18 374.64,-848.4 416.27,-743.78 490.08,-449.58 444.64,-346.56 432.52,-319.08 409.64,-295.55 387.16,-277.48"/>
<polygon fill="red" stroke="red" stroke-width="2.63" points="389.28,-274.7 379.24,-271.32 384.98,-280.22 389.28,-274.7"/>
<text text-anchor="middle" x="467.64" y="-581.28" font-family="Times,serif" font-size="9.00">0.844</text>
</g>
<!-- key 7056
bias &#45;0.786
h_scaling 1.000 -->
<g id="node7" class="node">
<title>key 7056
bias &#45;0.786
h_scaling 1.000</title>
<ellipse fill="white" stroke="black" cx="305.64" cy="-583.48" rx="63.78" ry="63.78"/>
<text text-anchor="middle" x="305.64" y="-591.28" font-family="Times,serif" font-size="9.00">key 7056</text>
<text text-anchor="middle" x="305.64" y="-581.28" font-family="Times,serif" font-size="9.00">bias &#45;0.786</text>
<text text-anchor="middle" x="305.64" y="-571.28" font-family="Times,serif" font-size="9.00">h_scaling 1.000</text>
</g>
<!-- go&#45;&gt;key 7056
bias &#45;0.786
h_scaling 1.000 -->
<g id="edge7" class="edge">
<title>go&#45;&gt;key 7056
bias &#45;0.786
h_scaling 1.000</title>
<path fill="none" stroke="red" stroke-width="3.1" d="M322.24,-920.86C320.5,-885.72 313.58,-745.32 309.24,-657.39"/>
<polygon fill="red" stroke="red" stroke-width="3.1" points="312.72,-657.02 308.73,-647.2 305.73,-657.36 312.72,-657.02"/>
<text text-anchor="middle" x="330.64" y="-754.56" font-family="Times,serif" font-size="9.00">1.000</text>
</g>
<!-- go&#45;&gt;key 3217
bias &#45;0.044
h_scaling 1.000 -->
<g id="edge3" class="edge">
<title>go&#45;&gt;key 3217
bias &#45;0.044
h_scaling 1.000</title>
<path fill="none" stroke="red" stroke-width="2.8" d="M317.19,-920.77C305.14,-902.51 275.3,-857.29 250.11,-819.1"/>
<polygon fill="red" stroke="red" stroke-width="2.8" points="252.91,-816.99 244.48,-810.57 247.07,-820.84 252.91,-816.99"/>
<text text-anchor="middle" x="279.64" y="-841.2" font-family="Times,serif" font-size="9.00">0.902</text>
</g>
<!-- output
bias 0.339
h_scaling 1.000 -->
<g id="node3" class="node">
<title>output
bias 0.339
h_scaling 1.000</title>
<ellipse fill="lightblue" stroke="black" cx="139.64" cy="-63.64" rx="63.78" ry="63.78"/>
<text text-anchor="middle" x="139.64" y="-71.44" font-family="Times,serif" font-size="9.00">output</text>
<text text-anchor="middle" x="139.64" y="-61.44" font-family="Times,serif" font-size="9.00">bias 0.339</text>
<text text-anchor="middle" x="139.64" y="-51.44" font-family="Times,serif" font-size="9.00">h_scaling 1.000</text>
</g>
<!-- output
bias 0.339
h_scaling 1.000&#45;&gt;key 3217
bias &#45;0.044
h_scaling 1.000 -->
<g id="edge15" class="edge">
<title>output
bias 0.339
h_scaling 1.000&#45;&gt;key 3217
bias &#45;0.044
h_scaling 1.000</title>
<path fill="none" stroke="red" stroke-width="0.81" d="M139.64,-127.28C139.64,-159.71 139.64,-199.94 139.64,-235.92 139.64,-584.48 139.64,-584.48 139.64,-584.48 139.64,-622.63 154.71,-662.25 170.86,-693.76"/>
<polygon fill="red" stroke="red" stroke-width="0.81" points="167.9,-695.64 175.66,-702.85 174.09,-692.37 167.9,-695.64"/>
<text text-anchor="middle" x="153.64" y="-408" font-family="Times,serif" font-size="9.00">0.238</text>
</g>
<!-- key 215175
bias &#45;0.147
h_scaling 1.000 -->
<g id="node4" class="node">
<title>key 215175
bias &#45;0.147
h_scaling 1.000</title>
<ellipse fill="white" stroke="black" cx="459.64" cy="-930.04" rx="63.78" ry="63.78"/>
<text text-anchor="middle" x="459.64" y="-937.84" font-family="Times,serif" font-size="9.00">key 215175</text>
<text text-anchor="middle" x="459.64" y="-927.84" font-family="Times,serif" font-size="9.00">bias &#45;0.147</text>
<text text-anchor="middle" x="459.64" y="-917.84" font-family="Times,serif" font-size="9.00">h_scaling 1.000</text>
</g>
<!-- key 215175
bias &#45;0.147
h_scaling 1.000&#45;&gt;key 4875
bias &#45;0.887
h_scaling 1.000 -->
<g id="edge19" class="edge">
<title>key 215175
bias &#45;0.147
h_scaling 1.000&#45;&gt;key 4875
bias &#45;0.887
h_scaling 1.000</title>
<path fill="none" stroke="red" stroke-width="0.32" d="M487.97,-872.66C501.86,-839.95 515.64,-797.49 515.64,-757.76 515.64,-757.76 515.64,-757.76 515.64,-409.2 515.64,-341.36 448,-293.5 393.43,-265.93"/>
<polygon fill="red" stroke="red" stroke-width="0.32" points="394.97,-262.78 384.46,-261.51 391.88,-269.06 394.97,-262.78"/>
<text text-anchor="middle" x="529.64" y="-581.28" font-family="Times,serif" font-size="9.00">0.074</text>
</g>
<!-- key 215175
bias &#45;0.147
h_scaling 1.000&#45;&gt;key 7056
bias &#45;0.786
h_scaling 1.000 -->
<g id="edge20" class="edge">
<title>key 215175
bias &#45;0.147
h_scaling 1.000&#45;&gt;key 7056
bias &#45;0.786
h_scaling 1.000</title>
<path fill="none" stroke="red" stroke-width="1.45" d="M439.55,-869.2C435.78,-858.86 431.74,-848.26 427.64,-838.4 400.53,-773.13 365.15,-700.64 339.48,-649.87"/>
<polygon fill="red" stroke="red" stroke-width="1.45" points="342.45,-647.99 334.8,-640.66 336.21,-651.16 342.45,-647.99"/>
<text text-anchor="middle" x="432.64" y="-754.56" font-family="Times,serif" font-size="9.00">0.451</text>
</g>
<!-- key 215175
bias &#45;0.147
h_scaling 1.000&#45;&gt;key 3217
bias &#45;0.044
h_scaling 1.000 -->
<g id="edge21" class="edge">
<title>key 215175
bias &#45;0.147
h_scaling 1.000&#45;&gt;key 3217
bias &#45;0.044
h_scaling 1.000</title>
<path fill="none" stroke="blue" stroke-width="0.9" d="M407.33,-893.36C376.3,-872.18 336.21,-844.79 300.64,-820.4 290.75,-813.62 280.27,-806.41 270.07,-799.4"/>
<polygon fill="blue" stroke="blue" stroke-width="0.9" points="271.81,-796.35 261.59,-793.56 267.85,-802.11 271.81,-796.35"/>
<text text-anchor="middle" x="355.14" y="-841.2" font-family="Times,serif" font-size="9.00">&#45;0.266</text>
</g>
<!-- key 4875
bias &#45;0.887
h_scaling 1.000&#45;&gt;output
bias 0.339
h_scaling 1.000 -->
<g id="edge4" class="edge">
<title>key 4875
bias &#45;0.887
h_scaling 1.000&#45;&gt;output
bias 0.339
h_scaling 1.000</title>
<path fill="none" stroke="blue" stroke-width="3.1" d="M286.61,-186.62C274.69,-172.68 261.15,-157.88 247.64,-145.28 233.07,-131.69 216.24,-118.21 200.27,-106.28"/>
<polygon fill="blue" stroke="blue" stroke-width="3.1" points="202.14,-103.31 192.02,-100.19 197.99,-108.95 202.14,-103.31"/>
<text text-anchor="middle" x="272.14" y="-148.08" font-family="Times,serif" font-size="9.00">&#45;1.000</text>
</g>
<!-- key 4875
bias &#45;0.887
h_scaling 1.000&#45;&gt;key 4875
bias &#45;0.887
h_scaling 1.000 -->
<g id="edge5" class="edge">
<title>key 4875
bias &#45;0.887
h_scaling 1.000&#45;&gt;key 4875
bias &#45;0.887
h_scaling 1.000</title>
<path fill="none" stroke="red" stroke-width="0.92" d="M387.58,-252.22C399.14,-250.33 407.28,-245.23 407.28,-236.92 407.28,-231.2 403.43,-227.01 397.27,-224.33"/>
<polygon fill="red" stroke="red" stroke-width="0.92" points="398.16,-220.94 387.58,-221.62 396.27,-227.68 398.16,-220.94"/>
<text text-anchor="middle" x="421.28" y="-234.72" font-family="Times,serif" font-size="9.00">0.274</text>
</g>
<!-- key 36175
bias &#45;0.810
h_scaling 1.000 -->
<g id="node6" class="node">
<title>key 36175
bias &#45;0.810
h_scaling 1.000</title>
<ellipse fill="white" stroke="black" cx="325.64" cy="-410.2" rx="63.78" ry="63.78"/>
<text text-anchor="middle" x="325.64" y="-418" font-family="Times,serif" font-size="9.00">key 36175</text>
<text text-anchor="middle" x="325.64" y="-408" font-family="Times,serif" font-size="9.00">bias &#45;0.810</text>
<text text-anchor="middle" x="325.64" y="-398" font-family="Times,serif" font-size="9.00">h_scaling 1.000</text>
</g>
<!-- key 36175
bias &#45;0.810
h_scaling 1.000&#45;&gt;key 4875
bias &#45;0.887
h_scaling 1.000 -->
<g id="edge14" class="edge">
<title>key 36175
bias &#45;0.810
h_scaling 1.000&#45;&gt;key 4875
bias &#45;0.887
h_scaling 1.000</title>
<path fill="none" stroke="red" stroke-width="3.1" d="M325.64,-346.39C325.64,-334.87 325.64,-322.76 325.64,-310.97"/>
<polygon fill="red" stroke="red" stroke-width="3.1" points="329.14,-310.72 325.64,-300.72 322.14,-310.72 329.14,-310.72"/>
<text text-anchor="middle" x="339.64" y="-321.36" font-family="Times,serif" font-size="9.00">1.000</text>
</g>
<!-- key 36175
bias &#45;0.810
h_scaling 1.000&#45;&gt;key 36175
bias &#45;0.810
h_scaling 1.000 -->
<g id="edge17" class="edge">
<title>key 36175
bias &#45;0.810
h_scaling 1.000&#45;&gt;key 36175
bias &#45;0.810
h_scaling 1.000</title>
<path fill="none" stroke="red" stroke-width="1.69" d="M387.58,-425.5C399.14,-423.61 407.28,-418.51 407.28,-410.2 407.28,-404.48 403.43,-400.29 397.27,-397.61"/>
<polygon fill="red" stroke="red" stroke-width="1.69" points="398.16,-394.22 387.58,-394.9 396.27,-400.96 398.16,-394.22"/>
<text text-anchor="middle" x="421.28" y="-408" font-family="Times,serif" font-size="9.00">0.531</text>
</g>
<!-- key 7056
bias &#45;0.786
h_scaling 1.000&#45;&gt;output
bias 0.339
h_scaling 1.000 -->
<g id="edge22" class="edge">
<title>key 7056
bias &#45;0.786
h_scaling 1.000&#45;&gt;output
bias 0.339
h_scaling 1.000</title>
<path fill="none" stroke="blue" stroke-width="1.36" d="M276.12,-526.96C267.86,-510.17 259.32,-491.5 252.64,-473.84 208.91,-358.25 173.99,-218.52 155.09,-135.87"/>
<polygon fill="blue" stroke="blue" stroke-width="1.36" points="158.5,-135.05 152.87,-126.08 151.67,-136.61 158.5,-135.05"/>
<text text-anchor="middle" x="219.14" y="-321.36" font-family="Times,serif" font-size="9.00">&#45;0.419</text>
</g>
<!-- key 7056
bias &#45;0.786
h_scaling 1.000&#45;&gt;key 36175
bias &#45;0.810
h_scaling 1.000 -->
<g id="edge13" class="edge">
<title>key 7056
bias &#45;0.786
h_scaling 1.000&#45;&gt;key 36175
bias &#45;0.810
h_scaling 1.000</title>
<path fill="none" stroke="red" stroke-width="2.89" d="M312.92,-520.16C314.3,-508.28 315.77,-495.75 317.19,-483.58"/>
<polygon fill="red" stroke="red" stroke-width="2.89" points="320.68,-483.81 318.37,-473.47 313.73,-483 320.68,-483.81"/>
<text text-anchor="middle" x="329.64" y="-494.64" font-family="Times,serif" font-size="9.00">0.930</text>
</g>
<!-- key 7056
bias &#45;0.786
h_scaling 1.000&#45;&gt;key 3217
bias &#45;0.044
h_scaling 1.000 -->
<g id="edge8" class="edge">
<title>key 7056
bias &#45;0.786
h_scaling 1.000&#45;&gt;key 3217
bias &#45;0.044
h_scaling 1.000</title>
<path fill="none" stroke="red" stroke-width="2.88" d="M276.63,-640.32C270.47,-651.88 263.92,-663.94 257.64,-675.12 254.37,-680.94 250.91,-686.96 247.42,-692.98"/>
<polygon fill="red" stroke="red" stroke-width="2.88" points="244.31,-691.35 242.29,-701.75 250.36,-694.89 244.31,-691.35"/>
<text text-anchor="middle" x="276.64" y="-667.92" font-family="Times,serif" font-size="9.00">0.928</text>
</g>
<!-- key 3217
bias &#45;0.044
h_scaling 1.000&#45;&gt;output
bias 0.339
h_scaling 1.000 -->
<g id="edge16" class="edge">
<title>key 3217
bias &#45;0.044
h_scaling 1.000&#45;&gt;output
bias 0.339
h_scaling 1.000</title>
<path fill="none" stroke="blue" stroke-width="3.1" d="M157.06,-720.12C118.43,-689.27 72.64,-640.83 72.64,-584.48 72.64,-584.48 72.64,-584.48 72.64,-235.92 72.64,-198.28 86.84,-159 102.17,-127.56"/>
<polygon fill="blue" stroke="blue" stroke-width="3.1" points="105.37,-128.99 106.73,-118.48 99.11,-125.85 105.37,-128.99"/>
<text text-anchor="middle" x="88.14" y="-408" font-family="Times,serif" font-size="9.00">&#45;1.000</text>
</g>
<!-- key 3217
bias &#45;0.044
h_scaling 1.000&#45;&gt;key 4875
bias &#45;0.887
h_scaling 1.000 -->
<g id="edge2" class="edge">
<title>key 3217
bias &#45;0.044
h_scaling 1.000&#45;&gt;key 4875
bias &#45;0.887
h_scaling 1.000</title>
<path fill="none" stroke="red" stroke-width="2.99" d="M202.52,-693.12C191.74,-587.77 176.09,-380.53 211.64,-318.56 222.94,-298.86 241.22,-282.79 259.88,-270.32"/>
<polygon fill="red" stroke="red" stroke-width="2.99" points="261.91,-273.17 268.45,-264.84 258.14,-267.27 261.91,-273.17"/>
<text text-anchor="middle" x="203.64" y="-494.64" font-family="Times,serif" font-size="9.00">0.962</text>
</g>
<!-- key 3217
bias &#45;0.044
h_scaling 1.000&#45;&gt;key 7056
bias &#45;0.786
h_scaling 1.000 -->
<g id="edge9" class="edge">
<title>key 3217
bias &#45;0.044
h_scaling 1.000&#45;&gt;key 7056
bias &#45;0.786
h_scaling 1.000</title>
<path fill="none" stroke="red" stroke-width="2.92" d="M215.54,-693.17C217.9,-683.45 221.16,-673.77 225.64,-665.12 231.78,-653.26 240.28,-642.03 249.45,-631.93"/>
<polygon fill="red" stroke="red" stroke-width="2.92" points="252.22,-634.09 256.56,-624.43 247.14,-629.27 252.22,-634.09"/>
<text text-anchor="middle" x="239.64" y="-667.92" font-family="Times,serif" font-size="9.00">0.941</text>
</g>
<!-- key 12151
bias &#45;0.575
h_scaling 1.000&#45;&gt;output
bias 0.339
h_scaling 1.000 -->
<g id="edge18" class="edge">
<title>key 12151
bias &#45;0.575
h_scaling 1.000&#45;&gt;output
bias 0.339
h_scaling 1.000</title>
<path fill="none" stroke="red" stroke-width="1.42" d="M44.16,-869.08C35.25,-836.51 26.64,-795.33 26.64,-757.76 26.64,-757.76 26.64,-757.76 26.64,-235.92 26.64,-189.25 56.23,-145.5 85.12,-113.89"/>
<polygon fill="red" stroke="red" stroke-width="1.42" points="87.75,-116.21 92.04,-106.53 82.65,-111.42 87.75,-116.21"/>
<text text-anchor="middle" x="40.64" y="-494.64" font-family="Times,serif" font-size="9.00">0.438</text>
</g>
<!-- key 12151
bias &#45;0.575
h_scaling 1.000&#45;&gt;key 3217
bias &#45;0.044
h_scaling 1.000 -->
<g id="edge11" class="edge">
<title>key 12151
bias &#45;0.575
h_scaling 1.000&#45;&gt;key 3217
bias &#45;0.044
h_scaling 1.000</title>
<path fill="none" stroke="blue" stroke-width="2.21" d="M104.7,-880.87C122.5,-859.98 143.46,-835.39 161.95,-813.71"/>
<polygon fill="blue" stroke="blue" stroke-width="2.21" points="164.81,-815.74 168.64,-805.86 159.49,-811.2 164.81,-815.74"/>
<text text-anchor="middle" x="152.14" y="-841.2" font-family="Times,serif" font-size="9.00">&#45;0.703</text>
</g>
<!-- key 12151
bias &#45;0.575
h_scaling 1.000&#45;&gt;key 12151
bias &#45;0.575
h_scaling 1.000 -->
<g id="edge12" class="edge">
<title>key 12151
bias &#45;0.575
h_scaling 1.000&#45;&gt;key 12151
bias &#45;0.575
h_scaling 1.000</title>
<path fill="none" stroke="red" stroke-width="2.81" d="M125.58,-945.33C137.14,-943.45 145.28,-938.35 145.28,-930.04 145.28,-924.32 141.43,-920.12 135.27,-917.45"/>
<polygon fill="red" stroke="red" stroke-width="2.81" points="136.16,-914.06 125.58,-914.74 134.27,-920.8 136.16,-914.06"/>
<text text-anchor="middle" x="159.28" y="-927.84" font-family="Times,serif" font-size="9.00">0.904</text>
</g>
</g>
</svg>
