<?xml version="1.0" encoding="UTF-8" standalone="no"?>
<!DOCTYPE svg PUBLIC "-//W3C//DTD SVG 1.1//EN"
 "http://www.w3.org/Graphics/SVG/1.1/DTD/svg11.dtd">
<!-- Generated by graphviz version 2.43.0 (0)
 -->
<!-- Title: %3 Pages: 1 -->
<svg width="291pt" height="556pt"
 viewBox="0.00 0.00 290.57 555.84" xmlns="http://www.w3.org/2000/svg" xmlns:xlink="http://www.w3.org/1999/xlink">
<g id="graph0" class="graph" transform="scale(1 1) rotate(0) translate(4 551.84)">
<title>%3</title>
<polygon fill="white" stroke="transparent" points="-4,4 -4,-551.84 286.57,-551.84 286.57,4 -4,4"/>
<!-- ready
output 1.000 -->
<g id="node1" class="node">
<title>ready
output 1.000</title>
<polygon fill="yellow" stroke="black" points="95.07,-547.84 18.07,-547.84 18.07,-519.84 95.07,-519.84 95.07,-547.84"/>
<text text-anchor="middle" x="56.57" y="-536.64" font-family="Times,serif" font-size="9.00">ready</text>
<text text-anchor="middle" x="56.57" y="-526.64" font-family="Times,serif" font-size="9.00">output 1.000</text>
</g>
<!-- key 3724
bias &#45;0.964
h_scaling 0.429
output 0.808 -->
<g id="node4" class="node">
<title>key 3724
bias &#45;0.964
h_scaling 0.429
output 0.808</title>
<ellipse fill="white" stroke="black" cx="108.57" cy="-410.2" rx="63.78" ry="63.78"/>
<text text-anchor="middle" x="108.57" y="-423" font-family="Times,serif" font-size="9.00">key 3724</text>
<text text-anchor="middle" x="108.57" y="-413" font-family="Times,serif" font-size="9.00">bias &#45;0.964</text>
<text text-anchor="middle" x="108.57" y="-403" font-family="Times,serif" font-size="9.00">h_scaling 0.429</text>
<text text-anchor="middle" x="108.57" y="-393" font-family="Times,serif" font-size="9.00">output 0.808</text>
</g>
<!-- ready
output 1.000&#45;&gt;key 3724
bias &#45;0.964
h_scaling 0.429
output 0.808 -->
<g id="edge10" class="edge">
<title>ready
output 1.000&#45;&gt;key 3724
bias &#45;0.964
h_scaling 0.429
output 0.808</title>
<path fill="none" stroke="blue" stroke-width="0.1" d="M62.13,-519.82C66.53,-509.52 73.05,-494.29 79.81,-478.46"/>
<polygon fill="blue" stroke="blue" stroke-width="0.1" points="83.1,-479.68 83.81,-469.11 76.66,-476.93 83.1,-479.68"/>
<text text-anchor="middle" x="89.07" y="-494.64" font-family="Times,serif" font-size="9.00">&#45;0.233</text>
</g>
<!-- key 9967
bias &#45;0.547
h_scaling 0.839
output 0.380 -->
<g id="node5" class="node">
<title>key 9967
bias &#45;0.547
h_scaling 0.839
output 0.380</title>
<ellipse fill="white" stroke="black" cx="150.57" cy="-63.64" rx="63.78" ry="63.78"/>
<text text-anchor="middle" x="150.57" y="-76.44" font-family="Times,serif" font-size="9.00">key 9967</text>
<text text-anchor="middle" x="150.57" y="-66.44" font-family="Times,serif" font-size="9.00">bias &#45;0.547</text>
<text text-anchor="middle" x="150.57" y="-56.44" font-family="Times,serif" font-size="9.00">h_scaling 0.839</text>
<text text-anchor="middle" x="150.57" y="-46.44" font-family="Times,serif" font-size="9.00">output 0.380</text>
</g>
<!-- ready
output 1.000&#45;&gt;key 9967
bias &#45;0.547
h_scaling 0.839
output 0.380 -->
<g id="edge8" class="edge">
<title>ready
output 1.000&#45;&gt;key 9967
bias &#45;0.547
h_scaling 0.839
output 0.380</title>
<path fill="none" stroke="blue" stroke-width="0.1" d="M50.82,-519.63C30.53,-470.87 -33.6,-297.4 23.57,-173.28 36.98,-144.16 62.48,-119.93 87.13,-101.8"/>
<polygon fill="blue" stroke="blue" stroke-width="0.1" points="89.32,-104.54 95.44,-95.89 85.26,-98.84 89.32,-104.54"/>
<text text-anchor="middle" x="18.07" y="-321.36" font-family="Times,serif" font-size="9.00">&#45;0.273</text>
</g>
<!-- go
output 0.000 -->
<g id="node2" class="node">
<title>go
output 0.000</title>
<polygon fill="green" stroke="black" points="197.07,-547.84 120.07,-547.84 120.07,-519.84 197.07,-519.84 197.07,-547.84"/>
<text text-anchor="middle" x="158.57" y="-536.64" font-family="Times,serif" font-size="9.00">go</text>
<text text-anchor="middle" x="158.57" y="-526.64" font-family="Times,serif" font-size="9.00">output 0.000</text>
</g>
<!-- go
output 0.000&#45;&gt;key 3724
bias &#45;0.964
h_scaling 0.429
output 0.808 -->
<g id="edge2" class="edge">
<title>go
output 0.000&#45;&gt;key 3724
bias &#45;0.964
h_scaling 0.429
output 0.808</title>
<path fill="none" stroke="red" stroke-width="0.1" d="M153.22,-519.82C149,-509.57 142.78,-494.44 136.31,-478.7"/>
<polygon fill="red" stroke="red" stroke-width="0.1" points="139.53,-477.31 132.49,-469.39 133.05,-479.97 139.53,-477.31"/>
<text text-anchor="middle" x="159.57" y="-494.64" font-family="Times,serif" font-size="9.00">1.076</text>
</g>
<!-- go
output 0.000&#45;&gt;key 9967
bias &#45;0.547
h_scaling 0.839
output 0.380 -->
<g id="edge3" class="edge">
<title>go
output 0.000&#45;&gt;key 9967
bias &#45;0.547
h_scaling 0.839
output 0.380</title>
<path fill="none" stroke="red" stroke-width="0.1" d="M182.54,-519.82C198.56,-509.65 218.33,-493.88 227.57,-473.84 283.55,-352.32 250.26,-301.05 210.57,-173.28 205.62,-157.35 198.17,-141.11 190.2,-126.22"/>
<polygon fill="red" stroke="red" stroke-width="0.1" points="193.08,-124.19 185.18,-117.13 186.95,-127.58 193.08,-124.19"/>
<text text-anchor="middle" x="268.57" y="-321.36" font-family="Times,serif" font-size="9.00">0.480</text>
</g>
<!-- output
bias 0.673
h_scaling 0.828
output 0.009 -->
<g id="node3" class="node">
<title>output
bias 0.673
h_scaling 0.828
output 0.009</title>
<ellipse fill="lightblue" stroke="black" cx="96.57" cy="-236.92" rx="63.78" ry="63.78"/>
<text text-anchor="middle" x="96.57" y="-249.72" font-family="Times,serif" font-size="9.00">output</text>
<text text-anchor="middle" x="96.57" y="-239.72" font-family="Times,serif" font-size="9.00">bias 0.673</text>
<text text-anchor="middle" x="96.57" y="-229.72" font-family="Times,serif" font-size="9.00">h_scaling 0.828</text>
<text text-anchor="middle" x="96.57" y="-219.72" font-family="Times,serif" font-size="9.00">output 0.009</text>
</g>
<!-- output
bias 0.673
h_scaling 0.828
output 0.009&#45;&gt;key 9967
bias &#45;0.547
h_scaling 0.839
output 0.380 -->
<g id="edge9" class="edge">
<title>output
bias 0.673
h_scaling 0.828
output 0.009&#45;&gt;key 9967
bias &#45;0.547
h_scaling 0.839
output 0.380</title>
<path fill="none" stroke="red" stroke-width="0.1" d="M120.78,-177.69C123.57,-170.2 126.24,-162.6 128.57,-155.28 130.58,-148.95 132.51,-142.33 134.33,-135.67"/>
<polygon fill="red" stroke="red" stroke-width="0.1" points="137.74,-136.47 136.93,-125.91 130.98,-134.67 137.74,-136.47"/>
<text text-anchor="middle" x="145.57" y="-148.08" font-family="Times,serif" font-size="9.00">0.237</text>
</g>
<!-- key 3724
bias &#45;0.964
h_scaling 0.429
output 0.808&#45;&gt;output
bias 0.673
h_scaling 0.828
output 0.009 -->
<g id="edge1" class="edge">
<title>key 3724
bias &#45;0.964
h_scaling 0.429
output 0.808&#45;&gt;output
bias 0.673
h_scaling 0.828
output 0.009</title>
<path fill="none" stroke="blue" stroke-width="0.1" d="M104.17,-346.39C103.35,-334.8 102.5,-322.6 101.67,-310.74"/>
<polygon fill="blue" stroke="blue" stroke-width="0.1" points="105.14,-310.16 100.95,-300.43 98.15,-310.65 105.14,-310.16"/>
<text text-anchor="middle" x="118.07" y="-321.36" font-family="Times,serif" font-size="9.00">&#45;0.983</text>
</g>
<!-- key 3724
bias &#45;0.964
h_scaling 0.429
output 0.808&#45;&gt;key 3724
bias &#45;0.964
h_scaling 0.429
output 0.808 -->
<g id="edge5" class="edge">
<title>key 3724
bias &#45;0.964
h_scaling 0.429
output 0.808&#45;&gt;key 3724
bias &#45;0.964
h_scaling 0.429
output 0.808</title>
<path fill="none" stroke="red" stroke-width="0.1" d="M170.51,-425.5C182.07,-423.61 190.21,-418.51 190.21,-410.2 190.21,-404.48 186.36,-400.29 180.2,-397.61"/>
<polygon fill="red" stroke="red" stroke-width="0.1" points="181.08,-394.22 170.51,-394.9 179.2,-400.96 181.08,-394.22"/>
<text text-anchor="middle" x="204.21" y="-408" font-family="Times,serif" font-size="9.00">0.999</text>
</g>
<!-- key 9967
bias &#45;0.547
h_scaling 0.839
output 0.380&#45;&gt;output
bias 0.673
h_scaling 0.828
output 0.009 -->
<g id="edge7" class="edge">
<title>key 9967
bias &#45;0.547
h_scaling 0.839
output 0.380&#45;&gt;output
bias 0.673
h_scaling 0.828
output 0.009</title>
<path fill="none" stroke="blue" stroke-width="0.1" d="M111.65,-114.49C105.88,-124.22 100.79,-134.7 97.57,-145.28 95.83,-150.97 94.58,-156.95 93.72,-163.02"/>
<polygon fill="blue" stroke="blue" stroke-width="0.1" points="90.21,-162.96 92.62,-173.28 97.17,-163.71 90.21,-162.96"/>
<text text-anchor="middle" x="113.07" y="-148.08" font-family="Times,serif" font-size="9.00">&#45;0.971</text>
</g>
<!-- key 9967
bias &#45;0.547
h_scaling 0.839
output 0.380&#45;&gt;key 3724
bias &#45;0.964
h_scaling 0.429
output 0.808 -->
<g id="edge4" class="edge">
<title>key 9967
bias &#45;0.547
h_scaling 0.839
output 0.380&#45;&gt;key 3724
bias &#45;0.964
h_scaling 0.429
output 0.808</title>
<path fill="none" stroke="red" stroke-width="0.1" d="M166.48,-125.73C176.43,-173.95 184.75,-242.52 169.57,-300.56 165.24,-317.09 157.78,-333.76 149.52,-348.92"/>
<polygon fill="red" stroke="red" stroke-width="0.1" points="146.46,-347.22 144.59,-357.65 152.56,-350.67 146.46,-347.22"/>
<text text-anchor="middle" x="192.57" y="-234.72" font-family="Times,serif" font-size="9.00">1.083</text>
</g>
<!-- key 9967
bias &#45;0.547
h_scaling 0.839
output 0.380&#45;&gt;key 9967
bias &#45;0.547
h_scaling 0.839
output 0.380 -->
<g id="edge6" class="edge">
<title>key 9967
bias &#45;0.547
h_scaling 0.839
output 0.380&#45;&gt;key 9967
bias &#45;0.547
h_scaling 0.839
output 0.380</title>
<path fill="none" stroke="red" stroke-width="0.1" d="M212.51,-78.94C224.07,-77.05 232.21,-71.95 232.21,-63.64 232.21,-57.92 228.36,-53.73 222.2,-51.05"/>
<polygon fill="red" stroke="red" stroke-width="0.1" points="223.08,-47.66 212.51,-48.34 221.2,-54.4 223.08,-47.66"/>
<text text-anchor="middle" x="246.21" y="-61.44" font-family="Times,serif" font-size="9.00">1.139</text>
</g>
</g>
</svg>
