<?xml version="1.0" encoding="UTF-8" standalone="no"?>
<!DOCTYPE svg PUBLIC "-//W3C//DTD SVG 1.1//EN"
 "http://www.w3.org/Graphics/SVG/1.1/DTD/svg11.dtd">
<!-- Generated by graphviz version 2.43.0 (0)
 -->
<!-- Title: %3 Pages: 1 -->
<svg width="645pt" height="902pt"
 viewBox="0.00 0.00 645.33 902.40" xmlns="http://www.w3.org/2000/svg" xmlns:xlink="http://www.w3.org/1999/xlink">
<g id="graph0" class="graph" transform="scale(1 1) rotate(0) translate(4 898.4)">
<title>%3</title>
<polygon fill="white" stroke="transparent" points="-4,4 -4,-898.4 641.33,-898.4 641.33,4 -4,4"/>
<!-- ready
output 0.000 -->
<g id="node1" class="node">
<title>ready
output 0.000</title>
<polygon fill="yellow" stroke="black" points="163.19,-894.4 86.19,-894.4 86.19,-866.4 163.19,-866.4 163.19,-894.4"/>
<text text-anchor="middle" x="124.69" y="-883.2" font-family="Times,serif" font-size="9.00">ready</text>
<text text-anchor="middle" x="124.69" y="-873.2" font-family="Times,serif" font-size="9.00">output 0.000</text>
</g>
<!-- key 7886
bias &#45;0.573
h_scaling 1.000
output 0.619 -->
<g id="node5" class="node">
<title>key 7886
bias &#45;0.573
h_scaling 1.000
output 0.619</title>
<ellipse fill="white" stroke="black" cx="234.69" cy="-756.76" rx="63.78" ry="63.78"/>
<text text-anchor="middle" x="234.69" y="-769.56" font-family="Times,serif" font-size="9.00">key 7886</text>
<text text-anchor="middle" x="234.69" y="-759.56" font-family="Times,serif" font-size="9.00">bias &#45;0.573</text>
<text text-anchor="middle" x="234.69" y="-749.56" font-family="Times,serif" font-size="9.00">h_scaling 1.000</text>
<text text-anchor="middle" x="234.69" y="-739.56" font-family="Times,serif" font-size="9.00">output 0.619</text>
</g>
<!-- ready
output 0.000&#45;&gt;key 7886
bias &#45;0.573
h_scaling 1.000
output 0.619 -->
<g id="edge9" class="edge">
<title>ready
output 0.000&#45;&gt;key 7886
bias &#45;0.573
h_scaling 1.000
output 0.619</title>
<path fill="none" stroke="red" stroke-width="0.1" d="M136.46,-866.38C148.3,-853.28 167.37,-832.19 185.57,-812.07"/>
<polygon fill="red" stroke="red" stroke-width="0.1" points="188.38,-814.19 192.49,-804.42 183.18,-809.49 188.38,-814.19"/>
<text text-anchor="middle" x="174.69" y="-841.2" font-family="Times,serif" font-size="9.00">0.875</text>
</g>
<!-- key 8920
bias &#45;0.557
h_scaling 1.000
output 0.390 -->
<g id="node8" class="node">
<title>key 8920
bias &#45;0.557
h_scaling 1.000
output 0.390</title>
<ellipse fill="white" stroke="black" cx="134.69" cy="-410.2" rx="63.78" ry="63.78"/>
<text text-anchor="middle" x="134.69" y="-423" font-family="Times,serif" font-size="9.00">key 8920</text>
<text text-anchor="middle" x="134.69" y="-413" font-family="Times,serif" font-size="9.00">bias &#45;0.557</text>
<text text-anchor="middle" x="134.69" y="-403" font-family="Times,serif" font-size="9.00">h_scaling 1.000</text>
<text text-anchor="middle" x="134.69" y="-393" font-family="Times,serif" font-size="9.00">output 0.390</text>
</g>
<!-- ready
output 0.000&#45;&gt;key 8920
bias &#45;0.557
h_scaling 1.000
output 0.390 -->
<g id="edge11" class="edge">
<title>ready
output 0.000&#45;&gt;key 8920
bias &#45;0.557
h_scaling 1.000
output 0.390</title>
<path fill="none" stroke="red" stroke-width="0.1" d="M118.11,-866.39C95.08,-819.04 21.5,-651.69 61.69,-519.84 67.25,-501.59 77.01,-483.63 87.63,-467.72"/>
<polygon fill="red" stroke="red" stroke-width="0.1" points="90.77,-469.33 93.59,-459.11 85.02,-465.34 90.77,-469.33"/>
<text text-anchor="middle" x="69.69" y="-667.92" font-family="Times,serif" font-size="9.00">0.978</text>
</g>
<!-- key 27899
bias &#45;0.384
h_scaling 1.000
output 0.438 -->
<g id="node10" class="node">
<title>key 27899
bias &#45;0.384
h_scaling 1.000
output 0.438</title>
<ellipse fill="white" stroke="black" cx="134.69" cy="-583.48" rx="63.78" ry="63.78"/>
<text text-anchor="middle" x="134.69" y="-596.28" font-family="Times,serif" font-size="9.00">key 27899</text>
<text text-anchor="middle" x="134.69" y="-586.28" font-family="Times,serif" font-size="9.00">bias &#45;0.384</text>
<text text-anchor="middle" x="134.69" y="-576.28" font-family="Times,serif" font-size="9.00">h_scaling 1.000</text>
<text text-anchor="middle" x="134.69" y="-566.28" font-family="Times,serif" font-size="9.00">output 0.438</text>
</g>
<!-- ready
output 0.000&#45;&gt;key 27899
bias &#45;0.384
h_scaling 1.000
output 0.438 -->
<g id="edge15" class="edge">
<title>ready
output 0.000&#45;&gt;key 27899
bias &#45;0.384
h_scaling 1.000
output 0.438</title>
<path fill="none" stroke="red" stroke-width="0.1" d="M125.13,-866.34C126.35,-830.48 129.81,-728.42 132.21,-657.5"/>
<polygon fill="red" stroke="red" stroke-width="0.1" points="135.72,-657.39 132.56,-647.27 128.72,-657.15 135.72,-657.39"/>
<text text-anchor="middle" x="145.69" y="-754.56" font-family="Times,serif" font-size="9.00">0.992</text>
</g>
<!-- go
output 0.000 -->
<g id="node2" class="node">
<title>go
output 0.000</title>
<polygon fill="green" stroke="black" points="445.19,-597.48 368.19,-597.48 368.19,-569.48 445.19,-569.48 445.19,-597.48"/>
<text text-anchor="middle" x="406.69" y="-586.28" font-family="Times,serif" font-size="9.00">go</text>
<text text-anchor="middle" x="406.69" y="-576.28" font-family="Times,serif" font-size="9.00">output 0.000</text>
</g>
<!-- key 4625
bias &#45;0.252
h_scaling 1.000
output 0.541 -->
<g id="node6" class="node">
<title>key 4625
bias &#45;0.252
h_scaling 1.000
output 0.541</title>
<ellipse fill="white" stroke="black" cx="279.69" cy="-410.2" rx="63.78" ry="63.78"/>
<text text-anchor="middle" x="279.69" y="-423" font-family="Times,serif" font-size="9.00">key 4625</text>
<text text-anchor="middle" x="279.69" y="-413" font-family="Times,serif" font-size="9.00">bias &#45;0.252</text>
<text text-anchor="middle" x="279.69" y="-403" font-family="Times,serif" font-size="9.00">h_scaling 1.000</text>
<text text-anchor="middle" x="279.69" y="-393" font-family="Times,serif" font-size="9.00">output 0.541</text>
</g>
<!-- go
output 0.000&#45;&gt;key 4625
bias &#45;0.252
h_scaling 1.000
output 0.541 -->
<g id="edge5" class="edge">
<title>go
output 0.000&#45;&gt;key 4625
bias &#45;0.252
h_scaling 1.000
output 0.541</title>
<path fill="none" stroke="red" stroke-width="0.1" d="M396.93,-569.32C381.34,-548.29 349.86,-505.84 323.44,-470.21"/>
<polygon fill="red" stroke="red" stroke-width="0.1" points="325.97,-467.74 317.2,-461.79 320.34,-471.91 325.97,-467.74"/>
<text text-anchor="middle" x="356.69" y="-494.64" font-family="Times,serif" font-size="9.00">0.974</text>
</g>
<!-- key 378
bias &#45;0.706
h_scaling 1.000
output 0.770 -->
<g id="node9" class="node">
<title>key 378
bias &#45;0.706
h_scaling 1.000
output 0.770</title>
<ellipse fill="white" stroke="black" cx="368.69" cy="-236.92" rx="63.78" ry="63.78"/>
<text text-anchor="middle" x="368.69" y="-249.72" font-family="Times,serif" font-size="9.00">key 378</text>
<text text-anchor="middle" x="368.69" y="-239.72" font-family="Times,serif" font-size="9.00">bias &#45;0.706</text>
<text text-anchor="middle" x="368.69" y="-229.72" font-family="Times,serif" font-size="9.00">h_scaling 1.000</text>
<text text-anchor="middle" x="368.69" y="-219.72" font-family="Times,serif" font-size="9.00">output 0.770</text>
</g>
<!-- go
output 0.000&#45;&gt;key 378
bias &#45;0.706
h_scaling 1.000
output 0.770 -->
<g id="edge1" class="edge">
<title>go
output 0.000&#45;&gt;key 378
bias &#45;0.706
h_scaling 1.000
output 0.770</title>
<path fill="none" stroke="red" stroke-width="0.1" d="M407.32,-569.33C408.81,-533.41 411.53,-430.62 398.69,-346.56 396.73,-333.77 393.78,-320.33 390.49,-307.44"/>
<polygon fill="red" stroke="red" stroke-width="0.1" points="393.85,-306.48 387.91,-297.71 387.09,-308.27 393.85,-306.48"/>
<text text-anchor="middle" x="421.69" y="-408" font-family="Times,serif" font-size="9.00">1.000</text>
</g>
<!-- output
bias &#45;0.196
h_scaling 1.000
output 0.695 -->
<g id="node3" class="node">
<title>output
bias &#45;0.196
h_scaling 1.000
output 0.695</title>
<ellipse fill="lightblue" stroke="black" cx="258.69" cy="-63.64" rx="63.78" ry="63.78"/>
<text text-anchor="middle" x="258.69" y="-76.44" font-family="Times,serif" font-size="9.00">output</text>
<text text-anchor="middle" x="258.69" y="-66.44" font-family="Times,serif" font-size="9.00">bias &#45;0.196</text>
<text text-anchor="middle" x="258.69" y="-56.44" font-family="Times,serif" font-size="9.00">h_scaling 1.000</text>
<text text-anchor="middle" x="258.69" y="-46.44" font-family="Times,serif" font-size="9.00">output 0.695</text>
</g>
<!-- output
bias &#45;0.196
h_scaling 1.000
output 0.695&#45;&gt;output
bias &#45;0.196
h_scaling 1.000
output 0.695 -->
<g id="edge3" class="edge">
<title>output
bias &#45;0.196
h_scaling 1.000
output 0.695&#45;&gt;output
bias &#45;0.196
h_scaling 1.000
output 0.695</title>
<path fill="none" stroke="red" stroke-width="0.1" d="M320.63,-78.94C332.19,-77.05 340.33,-71.95 340.33,-63.64 340.33,-57.92 336.48,-53.73 330.32,-51.05"/>
<polygon fill="red" stroke="red" stroke-width="0.1" points="331.2,-47.66 320.63,-48.34 329.32,-54.4 331.2,-47.66"/>
<text text-anchor="middle" x="354.33" y="-61.44" font-family="Times,serif" font-size="9.00">0.633</text>
</g>
<!-- output
bias &#45;0.196
h_scaling 1.000
output 0.695&#45;&gt;key 7886
bias &#45;0.573
h_scaling 1.000
output 0.619 -->
<g id="edge19" class="edge">
<title>output
bias &#45;0.196
h_scaling 1.000
output 0.695&#45;&gt;key 7886
bias &#45;0.573
h_scaling 1.000
output 0.619</title>
<path fill="none" stroke="red" stroke-width="0.1" d="M210.43,-105.55C155.36,-155.75 68.43,-246.59 33.69,-346.56 -10.36,-473.28 -19.9,-540.61 61.69,-647.12 91.93,-686.6 121.91,-666.14 163.69,-693.12 169.44,-696.83 175.2,-700.99 180.81,-705.36"/>
<polygon fill="red" stroke="red" stroke-width="0.1" points="178.93,-708.34 188.91,-711.88 183.32,-702.89 178.93,-708.34"/>
<text text-anchor="middle" x="47.69" y="-408" font-family="Times,serif" font-size="9.00">0.131</text>
</g>
<!-- output
bias &#45;0.196
h_scaling 1.000
output 0.695&#45;&gt;key 4625
bias &#45;0.252
h_scaling 1.000
output 0.541 -->
<g id="edge8" class="edge">
<title>output
bias &#45;0.196
h_scaling 1.000
output 0.695&#45;&gt;key 4625
bias &#45;0.252
h_scaling 1.000
output 0.541</title>
<path fill="none" stroke="red" stroke-width="0.1" d="M259.85,-127.29C261.03,-174.88 263.33,-241.9 267.69,-300.56 268.56,-312.31 269.71,-324.76 270.96,-336.87"/>
<polygon fill="red" stroke="red" stroke-width="0.1" points="267.5,-337.36 272.03,-346.94 274.46,-336.62 267.5,-337.36"/>
<text text-anchor="middle" x="281.69" y="-234.72" font-family="Times,serif" font-size="9.00">0.428</text>
</g>
<!-- output
bias &#45;0.196
h_scaling 1.000
output 0.695&#45;&gt;key 378
bias &#45;0.706
h_scaling 1.000
output 0.770 -->
<g id="edge18" class="edge">
<title>output
bias &#45;0.196
h_scaling 1.000
output 0.695&#45;&gt;key 378
bias &#45;0.706
h_scaling 1.000
output 0.770</title>
<path fill="none" stroke="red" stroke-width="0.1" d="M307.33,-104.69C319.58,-116.7 331.76,-130.61 340.69,-145.28 344.45,-151.47 347.75,-158.21 350.63,-165.13"/>
<polygon fill="red" stroke="red" stroke-width="0.1" points="347.44,-166.57 354.31,-174.64 353.97,-164.05 347.44,-166.57"/>
<text text-anchor="middle" x="358.69" y="-148.08" font-family="Times,serif" font-size="9.00">0.273</text>
</g>
<!-- key 112888
bias &#45;0.596
h_scaling 1.000
output 0.000 -->
<g id="node4" class="node">
<title>key 112888
bias &#45;0.596
h_scaling 1.000
output 0.000</title>
<ellipse fill="white" stroke="black" cx="573.69" cy="-583.48" rx="63.78" ry="63.78"/>
<text text-anchor="middle" x="573.69" y="-596.28" font-family="Times,serif" font-size="9.00">key 112888</text>
<text text-anchor="middle" x="573.69" y="-586.28" font-family="Times,serif" font-size="9.00">bias &#45;0.596</text>
<text text-anchor="middle" x="573.69" y="-576.28" font-family="Times,serif" font-size="9.00">h_scaling 1.000</text>
<text text-anchor="middle" x="573.69" y="-566.28" font-family="Times,serif" font-size="9.00">output 0.000</text>
</g>
<!-- key 87223
bias 0.713
h_scaling 1.000
output 0.973 -->
<g id="node7" class="node">
<title>key 87223
bias 0.713
h_scaling 1.000
output 0.973</title>
<ellipse fill="white" stroke="black" cx="573.69" cy="-410.2" rx="63.78" ry="63.78"/>
<text text-anchor="middle" x="573.69" y="-423" font-family="Times,serif" font-size="9.00">key 87223</text>
<text text-anchor="middle" x="573.69" y="-413" font-family="Times,serif" font-size="9.00">bias 0.713</text>
<text text-anchor="middle" x="573.69" y="-403" font-family="Times,serif" font-size="9.00">h_scaling 1.000</text>
<text text-anchor="middle" x="573.69" y="-393" font-family="Times,serif" font-size="9.00">output 0.973</text>
</g>
<!-- key 112888
bias &#45;0.596
h_scaling 1.000
output 0.000&#45;&gt;key 87223
bias 0.713
h_scaling 1.000
output 0.973 -->
<g id="edge23" class="edge">
<title>key 112888
bias &#45;0.596
h_scaling 1.000
output 0.000&#45;&gt;key 87223
bias 0.713
h_scaling 1.000
output 0.973</title>
<path fill="none" stroke="red" stroke-width="0.1" d="M573.69,-519.67C573.69,-508.15 573.69,-496.04 573.69,-484.25"/>
<polygon fill="red" stroke="red" stroke-width="0.1" points="577.19,-484 573.69,-474 570.19,-484 577.19,-484"/>
<text text-anchor="middle" x="587.69" y="-494.64" font-family="Times,serif" font-size="9.00">0.354</text>
</g>
<!-- key 7886
bias &#45;0.573
h_scaling 1.000
output 0.619&#45;&gt;key 4625
bias &#45;0.252
h_scaling 1.000
output 0.541 -->
<g id="edge13" class="edge">
<title>key 7886
bias &#45;0.573
h_scaling 1.000
output 0.619&#45;&gt;key 4625
bias &#45;0.252
h_scaling 1.000
output 0.541</title>
<path fill="none" stroke="blue" stroke-width="0.1" d="M254.89,-696.29C259.52,-680.48 263.9,-663.3 266.69,-647.12 276.02,-592.98 279.15,-530.92 280.01,-484.04"/>
<polygon fill="blue" stroke="blue" stroke-width="0.1" points="283.51,-484.03 280.16,-473.98 276.51,-483.92 283.51,-484.03"/>
<text text-anchor="middle" x="295.19" y="-581.28" font-family="Times,serif" font-size="9.00">&#45;0.664</text>
</g>
<!-- key 7886
bias &#45;0.573
h_scaling 1.000
output 0.619&#45;&gt;key 378
bias &#45;0.706
h_scaling 1.000
output 0.770 -->
<g id="edge10" class="edge">
<title>key 7886
bias &#45;0.573
h_scaling 1.000
output 0.619&#45;&gt;key 378
bias &#45;0.706
h_scaling 1.000
output 0.770</title>
<path fill="none" stroke="blue" stroke-width="0.1" d="M297.19,-743.76C349.36,-730.1 420.51,-702.11 454.69,-647.12 474.54,-615.18 441.93,-353.05 439.69,-346.56 433.6,-328.95 424.04,-311.38 413.89,-295.66"/>
<polygon fill="blue" stroke="blue" stroke-width="0.1" points="416.66,-293.51 408.2,-287.14 410.83,-297.4 416.66,-293.51"/>
<text text-anchor="middle" x="471.19" y="-494.64" font-family="Times,serif" font-size="9.00">&#45;0.223</text>
</g>
<!-- key 7886
bias &#45;0.573
h_scaling 1.000
output 0.619&#45;&gt;key 27899
bias &#45;0.384
h_scaling 1.000
output 0.438 -->
<g id="edge20" class="edge">
<title>key 7886
bias &#45;0.573
h_scaling 1.000
output 0.619&#45;&gt;key 27899
bias &#45;0.384
h_scaling 1.000
output 0.438</title>
<path fill="none" stroke="red" stroke-width="0.1" d="M202.77,-701.09C192.89,-684.17 181.92,-665.38 171.72,-647.91"/>
<polygon fill="red" stroke="red" stroke-width="0.1" points="174.54,-645.79 166.47,-638.92 168.49,-649.32 174.54,-645.79"/>
<text text-anchor="middle" x="198.69" y="-667.92" font-family="Times,serif" font-size="9.00">0.528</text>
</g>
<!-- key 4625
bias &#45;0.252
h_scaling 1.000
output 0.541&#45;&gt;key 4625
bias &#45;0.252
h_scaling 1.000
output 0.541 -->
<g id="edge7" class="edge">
<title>key 4625
bias &#45;0.252
h_scaling 1.000
output 0.541&#45;&gt;key 4625
bias &#45;0.252
h_scaling 1.000
output 0.541</title>
<path fill="none" stroke="red" stroke-width="0.1" d="M341.63,-425.5C353.19,-423.61 361.33,-418.51 361.33,-410.2 361.33,-404.48 357.48,-400.29 351.32,-397.61"/>
<polygon fill="red" stroke="red" stroke-width="0.1" points="352.2,-394.22 341.63,-394.9 350.32,-400.96 352.2,-394.22"/>
<text text-anchor="middle" x="375.33" y="-408" font-family="Times,serif" font-size="9.00">0.497</text>
</g>
<!-- key 4625
bias &#45;0.252
h_scaling 1.000
output 0.541&#45;&gt;key 378
bias &#45;0.706
h_scaling 1.000
output 0.770 -->
<g id="edge6" class="edge">
<title>key 4625
bias &#45;0.252
h_scaling 1.000
output 0.541&#45;&gt;key 378
bias &#45;0.706
h_scaling 1.000
output 0.770</title>
<path fill="none" stroke="red" stroke-width="0.1" d="M318.88,-359.46C325.69,-349.55 332.31,-338.98 337.69,-328.56 341.04,-322.06 344.16,-315.11 347.03,-308.07"/>
<polygon fill="red" stroke="red" stroke-width="0.1" points="350.41,-309.02 350.77,-298.44 343.88,-306.49 350.41,-309.02"/>
<text text-anchor="middle" x="355.69" y="-321.36" font-family="Times,serif" font-size="9.00">0.948</text>
</g>
<!-- key 87223
bias 0.713
h_scaling 1.000
output 0.973&#45;&gt;key 378
bias &#45;0.706
h_scaling 1.000
output 0.770 -->
<g id="edge22" class="edge">
<title>key 87223
bias 0.713
h_scaling 1.000
output 0.973&#45;&gt;key 378
bias &#45;0.706
h_scaling 1.000
output 0.770</title>
<path fill="none" stroke="red" stroke-width="0.1" d="M535.26,-359.24C523.35,-345.28 509.66,-330.64 495.69,-318.56 476.59,-302.04 453.8,-286.5 432.84,-273.55"/>
<polygon fill="red" stroke="red" stroke-width="0.1" points="434.65,-270.56 424.29,-268.35 431.01,-276.54 434.65,-270.56"/>
<text text-anchor="middle" x="518.69" y="-321.36" font-family="Times,serif" font-size="9.00">0.131</text>
</g>
<!-- key 8920
bias &#45;0.557
h_scaling 1.000
output 0.390&#45;&gt;output
bias &#45;0.196
h_scaling 1.000
output 0.695 -->
<g id="edge14" class="edge">
<title>key 8920
bias &#45;0.557
h_scaling 1.000
output 0.390&#45;&gt;output
bias &#45;0.196
h_scaling 1.000
output 0.695</title>
<path fill="none" stroke="red" stroke-width="0.1" d="M156,-349.97C177.67,-289.75 211.21,-196.56 234.02,-133.19"/>
<polygon fill="red" stroke="red" stroke-width="0.1" points="237.35,-134.27 237.44,-123.67 230.76,-131.9 237.35,-134.27"/>
<text text-anchor="middle" x="233.69" y="-234.72" font-family="Times,serif" font-size="9.00">0.456</text>
</g>
<!-- key 8920
bias &#45;0.557
h_scaling 1.000
output 0.390&#45;&gt;key 7886
bias &#45;0.573
h_scaling 1.000
output 0.619 -->
<g id="edge12" class="edge">
<title>key 8920
bias &#45;0.557
h_scaling 1.000
output 0.390&#45;&gt;key 7886
bias &#45;0.573
h_scaling 1.000
output 0.619</title>
<path fill="none" stroke="red" stroke-width="0.1" d="M174.61,-459.84C187.24,-477.7 199.91,-498.73 207.69,-519.84 226.96,-572.19 233.4,-635.11 235.19,-682.81"/>
<polygon fill="red" stroke="red" stroke-width="0.1" points="231.7,-683.16 235.52,-693.05 238.7,-682.94 231.7,-683.16"/>
<text text-anchor="middle" x="247.69" y="-581.28" font-family="Times,serif" font-size="9.00">1.000</text>
</g>
<!-- key 8920
bias &#45;0.557
h_scaling 1.000
output 0.390&#45;&gt;key 378
bias &#45;0.706
h_scaling 1.000
output 0.770 -->
<g id="edge21" class="edge">
<title>key 8920
bias &#45;0.557
h_scaling 1.000
output 0.390&#45;&gt;key 378
bias &#45;0.706
h_scaling 1.000
output 0.770</title>
<path fill="none" stroke="blue" stroke-width="0.1" d="M181.15,-366.25C189.41,-359.35 198.12,-352.53 206.69,-346.56 241.61,-322.23 255.29,-324.2 290.69,-300.56 297.85,-295.77 305.16,-290.49 312.3,-285.09"/>
<polygon fill="blue" stroke="blue" stroke-width="0.1" points="314.8,-287.58 320.58,-278.71 310.53,-282.04 314.8,-287.58"/>
<text text-anchor="middle" x="273.19" y="-321.36" font-family="Times,serif" font-size="9.00">&#45;0.052</text>
</g>
<!-- key 378
bias &#45;0.706
h_scaling 1.000
output 0.770&#45;&gt;output
bias &#45;0.196
h_scaling 1.000
output 0.695 -->
<g id="edge2" class="edge">
<title>key 378
bias &#45;0.706
h_scaling 1.000
output 0.770&#45;&gt;output
bias &#45;0.196
h_scaling 1.000
output 0.695</title>
<path fill="none" stroke="blue" stroke-width="0.1" d="M330.61,-185.81C323.44,-175.84 316.17,-165.34 309.69,-155.28 304.34,-146.97 298.94,-138.07 293.76,-129.21"/>
<polygon fill="blue" stroke="blue" stroke-width="0.1" points="296.7,-127.29 288.67,-120.38 290.64,-130.79 296.7,-127.29"/>
<text text-anchor="middle" x="325.19" y="-148.08" font-family="Times,serif" font-size="9.00">&#45;1.000</text>
</g>
<!-- key 378
bias &#45;0.706
h_scaling 1.000
output 0.770&#45;&gt;key 378
bias &#45;0.706
h_scaling 1.000
output 0.770 -->
<g id="edge4" class="edge">
<title>key 378
bias &#45;0.706
h_scaling 1.000
output 0.770&#45;&gt;key 378
bias &#45;0.706
h_scaling 1.000
output 0.770</title>
<path fill="none" stroke="red" stroke-width="0.1" d="M430.63,-252.22C442.19,-250.33 450.33,-245.23 450.33,-236.92 450.33,-231.2 446.48,-227.01 440.32,-224.33"/>
<polygon fill="red" stroke="red" stroke-width="0.1" points="441.2,-220.94 430.63,-221.62 439.32,-227.68 441.2,-220.94"/>
<text text-anchor="middle" x="464.33" y="-234.72" font-family="Times,serif" font-size="9.00">0.772</text>
</g>
<!-- key 27899
bias &#45;0.384
h_scaling 1.000
output 0.438&#45;&gt;key 4625
bias &#45;0.252
h_scaling 1.000
output 0.541 -->
<g id="edge17" class="edge">
<title>key 27899
bias &#45;0.384
h_scaling 1.000
output 0.438&#45;&gt;key 4625
bias &#45;0.252
h_scaling 1.000
output 0.541</title>
<path fill="none" stroke="red" stroke-width="0.1" d="M175.46,-534.31C193.14,-513.43 213.96,-488.84 232.32,-467.15"/>
<polygon fill="red" stroke="red" stroke-width="0.1" points="235.18,-469.19 238.97,-459.3 229.83,-464.67 235.18,-469.19"/>
<text text-anchor="middle" x="221.69" y="-494.64" font-family="Times,serif" font-size="9.00">0.255</text>
</g>
<!-- key 27899
bias &#45;0.384
h_scaling 1.000
output 0.438&#45;&gt;key 8920
bias &#45;0.557
h_scaling 1.000
output 0.390 -->
<g id="edge16" class="edge">
<title>key 27899
bias &#45;0.384
h_scaling 1.000
output 0.438&#45;&gt;key 8920
bias &#45;0.557
h_scaling 1.000
output 0.390</title>
<path fill="none" stroke="red" stroke-width="0.1" d="M134.69,-519.67C134.69,-508.15 134.69,-496.04 134.69,-484.25"/>
<polygon fill="red" stroke="red" stroke-width="0.1" points="138.19,-484 134.69,-474 131.19,-484 138.19,-484"/>
<text text-anchor="middle" x="148.69" y="-494.64" font-family="Times,serif" font-size="9.00">1.000</text>
</g>
</g>
</svg>
