<?xml version="1.0" encoding="UTF-8" standalone="no"?>
<!DOCTYPE svg PUBLIC "-//W3C//DTD SVG 1.1//EN"
 "http://www.w3.org/Graphics/SVG/1.1/DTD/svg11.dtd">
<!-- Generated by graphviz version 2.43.0 (0)
 -->
<!-- Title: %3 Pages: 1 -->
<svg width="663pt" height="842pt"
 viewBox="0.00 0.00 663.28 842.40" xmlns="http://www.w3.org/2000/svg" xmlns:xlink="http://www.w3.org/1999/xlink">
<g id="graph0" class="graph" transform="scale(1 1) rotate(0) translate(4 838.4)">
<title>%3</title>
<polygon fill="white" stroke="transparent" points="-4,4 -4,-838.4 659.28,-838.4 659.28,4 -4,4"/>
<!-- ready -->
<g id="node1" class="node">
<title>ready</title>
<polygon fill="yellow" stroke="black" points="189.14,-834.4 146.14,-834.4 146.14,-816.4 189.14,-816.4 189.14,-834.4"/>
<text text-anchor="middle" x="167.64" y="-823.2" font-family="Times,serif" font-size="9.00">ready</text>
</g>
<!-- key 92453
bias &#45;0.226
h_scaling 0.640 -->
<g id="node5" class="node">
<title>key 92453
bias &#45;0.226
h_scaling 0.640</title>
<ellipse fill="white" stroke="black" cx="182.64" cy="-390.2" rx="63.78" ry="63.78"/>
<text text-anchor="middle" x="182.64" y="-398" font-family="Times,serif" font-size="9.00">key 92453</text>
<text text-anchor="middle" x="182.64" y="-388" font-family="Times,serif" font-size="9.00">bias &#45;0.226</text>
<text text-anchor="middle" x="182.64" y="-378" font-family="Times,serif" font-size="9.00">h_scaling 0.640</text>
</g>
<!-- ready&#45;&gt;key 92453
bias &#45;0.226
h_scaling 0.640 -->
<g id="edge8" class="edge">
<title>ready&#45;&gt;key 92453
bias &#45;0.226
h_scaling 0.640</title>
<path fill="none" stroke="blue" stroke-width="2.01" d="M160.74,-816.3C154.11,-807.93 144.54,-794.2 140.64,-780.4 105.55,-656.12 114.82,-616.37 140.64,-489.84 142.88,-478.84 146.4,-467.54 150.47,-456.7"/>
<polygon fill="blue" stroke="blue" stroke-width="2.01" points="153.76,-457.9 154.17,-447.31 147.25,-455.34 153.76,-457.9"/>
</g>
<!-- key 1542
bias &#45;0.681
h_scaling 0.131 -->
<g id="node6" class="node">
<title>key 1542
bias &#45;0.681
h_scaling 0.131</title>
<ellipse fill="white" stroke="black" cx="63.64" cy="-226.92" rx="63.78" ry="63.78"/>
<text text-anchor="middle" x="63.64" y="-234.72" font-family="Times,serif" font-size="9.00">key 1542</text>
<text text-anchor="middle" x="63.64" y="-224.72" font-family="Times,serif" font-size="9.00">bias &#45;0.681</text>
<text text-anchor="middle" x="63.64" y="-214.72" font-family="Times,serif" font-size="9.00">h_scaling 0.131</text>
</g>
<!-- ready&#45;&gt;key 1542
bias &#45;0.681
h_scaling 0.131 -->
<g id="edge9" class="edge">
<title>ready&#45;&gt;key 1542
bias &#45;0.681
h_scaling 0.131</title>
<path fill="none" stroke="blue" stroke-width="3.2" d="M154.12,-816.2C142.22,-808.35 125.18,-795.5 114.64,-780.4 70.55,-717.26 69.72,-693.01 56.64,-617.12 37.83,-507.97 45.97,-379.06 54.27,-300.42"/>
<polygon fill="blue" stroke="blue" stroke-width="3.2" points="57.78,-300.46 55.38,-290.14 50.83,-299.71 57.78,-300.46"/>
</g>
<!-- key 180791
bias &#45;0.190
h_scaling 0.342 -->
<g id="node9" class="node">
<title>key 180791
bias &#45;0.190
h_scaling 0.342</title>
<ellipse fill="white" stroke="black" cx="213.64" cy="-716.76" rx="63.78" ry="63.78"/>
<text text-anchor="middle" x="213.64" y="-724.56" font-family="Times,serif" font-size="9.00">key 180791</text>
<text text-anchor="middle" x="213.64" y="-714.56" font-family="Times,serif" font-size="9.00">bias &#45;0.190</text>
<text text-anchor="middle" x="213.64" y="-704.56" font-family="Times,serif" font-size="9.00">h_scaling 0.342</text>
</g>
<!-- ready&#45;&gt;key 180791
bias &#45;0.190
h_scaling 0.342 -->
<g id="edge15" class="edge">
<title>ready&#45;&gt;key 180791
bias &#45;0.190
h_scaling 0.342</title>
<path fill="none" stroke="red" stroke-width="3.68" d="M171.1,-816.38C174.24,-809.09 179.21,-797.57 184.66,-784.93"/>
<polygon fill="red" stroke="red" stroke-width="3.68" points="187.95,-786.14 188.7,-775.57 181.53,-783.37 187.95,-786.14"/>
</g>
<!-- key 168731
bias &#45;0.716
h_scaling 0.382 -->
<g id="node12" class="node">
<title>key 168731
bias &#45;0.716
h_scaling 0.382</title>
<ellipse fill="white" stroke="black" cx="213.64" cy="-553.48" rx="63.78" ry="63.78"/>
<text text-anchor="middle" x="213.64" y="-561.28" font-family="Times,serif" font-size="9.00">key 168731</text>
<text text-anchor="middle" x="213.64" y="-551.28" font-family="Times,serif" font-size="9.00">bias &#45;0.716</text>
<text text-anchor="middle" x="213.64" y="-541.28" font-family="Times,serif" font-size="9.00">h_scaling 0.382</text>
</g>
<!-- ready&#45;&gt;key 168731
bias &#45;0.716
h_scaling 0.382 -->
<g id="edge12" class="edge">
<title>ready&#45;&gt;key 168731
bias &#45;0.716
h_scaling 0.382</title>
<path fill="none" stroke="red" stroke-width="5.1" d="M189.22,-823.47C217.09,-820.97 264.61,-812.03 286.64,-780.4 318.97,-733.98 304.36,-706.84 286.64,-653.12 281.5,-637.53 272.85,-622.4 263.26,-608.86"/>
<polygon fill="red" stroke="red" stroke-width="5.1" points="266.72,-606.03 257.19,-600.64 259.54,-611.33 266.72,-606.03"/>
</g>
<!-- go -->
<g id="node2" class="node">
<title>go</title>
<polygon fill="green" stroke="black" points="93.64,-562.48 65.64,-562.48 65.64,-544.48 93.64,-544.48 93.64,-562.48"/>
<text text-anchor="middle" x="79.64" y="-551.28" font-family="Times,serif" font-size="9.00">go</text>
</g>
<!-- go&#45;&gt;key 92453
bias &#45;0.226
h_scaling 0.640 -->
<g id="edge4" class="edge">
<title>go&#45;&gt;key 92453
bias &#45;0.226
h_scaling 0.640</title>
<path fill="none" stroke="red" stroke-width="4.85" d="M82.53,-544.48C87.09,-532.28 96.58,-508.49 107.64,-489.84 116.04,-475.66 126.13,-461.14 136.15,-447.74"/>
<polygon fill="red" stroke="red" stroke-width="4.85" points="139.69,-450.09 142.36,-439.56 132.94,-444.97 139.69,-450.09"/>
</g>
<!-- go&#45;&gt;key 1542
bias &#45;0.681
h_scaling 0.131 -->
<g id="edge3" class="edge">
<title>go&#45;&gt;key 1542
bias &#45;0.681
h_scaling 0.131</title>
<path fill="none" stroke="red" stroke-width="5.1" d="M79.24,-544.45C77.61,-511.38 71.31,-383.43 67.23,-300.68"/>
<polygon fill="red" stroke="red" stroke-width="5.1" points="71.68,-300.34 66.73,-290.57 62.76,-300.78 71.68,-300.34"/>
</g>
<!-- key output
bias 0.526
h_scaling 0.567 -->
<g id="node3" class="node">
<title>key output
bias 0.526
h_scaling 0.567</title>
<ellipse fill="lightblue" stroke="black" cx="232.64" cy="-63.64" rx="63.78" ry="63.78"/>
<text text-anchor="middle" x="232.64" y="-71.44" font-family="Times,serif" font-size="9.00">key output</text>
<text text-anchor="middle" x="232.64" y="-61.44" font-family="Times,serif" font-size="9.00">bias 0.526</text>
<text text-anchor="middle" x="232.64" y="-51.44" font-family="Times,serif" font-size="9.00">h_scaling 0.567</text>
</g>
<!-- key output
bias 0.526
h_scaling 0.567&#45;&gt;key 92453
bias &#45;0.226
h_scaling 0.640 -->
<g id="edge6" class="edge">
<title>key output
bias 0.526
h_scaling 0.567&#45;&gt;key 92453
bias &#45;0.226
h_scaling 0.640</title>
<path fill="none" stroke="red" stroke-width="0.58" d="M226.6,-127.08C224.18,-139.05 221.67,-151.52 219.64,-163.28 210.76,-214.58 203.6,-272.91 197.52,-317.45"/>
<polygon fill="red" stroke="red" stroke-width="0.58" points="194.02,-317.21 196.12,-327.6 200.96,-318.17 194.02,-317.21"/>
</g>
<!-- key 167043
bias &#45;0.860
h_scaling 0.433 -->
<g id="node4" class="node">
<title>key 167043
bias &#45;0.860
h_scaling 0.433</title>
<ellipse fill="white" stroke="black" cx="283.64" cy="-226.92" rx="63.78" ry="63.78"/>
<text text-anchor="middle" x="283.64" y="-234.72" font-family="Times,serif" font-size="9.00">key 167043</text>
<text text-anchor="middle" x="283.64" y="-224.72" font-family="Times,serif" font-size="9.00">bias &#45;0.860</text>
<text text-anchor="middle" x="283.64" y="-214.72" font-family="Times,serif" font-size="9.00">h_scaling 0.433</text>
</g>
<!-- key 167043
bias &#45;0.860
h_scaling 0.433&#45;&gt;key output
bias 0.526
h_scaling 0.567 -->
<g id="edge11" class="edge">
<title>key 167043
bias &#45;0.860
h_scaling 0.433&#45;&gt;key output
bias 0.526
h_scaling 0.567</title>
<path fill="none" stroke="blue" stroke-width="3.05" d="M264.65,-165.86C261.37,-155.51 257.95,-144.67 254.6,-134.09"/>
<polygon fill="blue" stroke="blue" stroke-width="3.05" points="257.91,-132.95 251.56,-124.48 251.24,-135.07 257.91,-132.95"/>
</g>
<!-- key 167043
bias &#45;0.860
h_scaling 0.433&#45;&gt;key 167043
bias &#45;0.860
h_scaling 0.433 -->
<g id="edge14" class="edge">
<title>key 167043
bias &#45;0.860
h_scaling 0.433&#45;&gt;key 167043
bias &#45;0.860
h_scaling 0.433</title>
<path fill="none" stroke="red" stroke-width="4.61" d="M340.11,-256.93C354.49,-254.96 365.28,-244.95 365.28,-226.92 365.28,-213.25 359.08,-204.2 349.82,-199.75"/>
<polygon fill="red" stroke="red" stroke-width="4.61" points="350.84,-195.85 340.11,-196.91 348.57,-203.59 350.84,-195.85"/>
</g>
<!-- key 92453
bias &#45;0.226
h_scaling 0.640&#45;&gt;key output
bias 0.526
h_scaling 0.567 -->
<g id="edge21" class="edge">
<title>key 92453
bias &#45;0.226
h_scaling 0.640&#45;&gt;key output
bias 0.526
h_scaling 0.567</title>
<path fill="none" stroke="blue" stroke-width="1.68" d="M181.3,-326.15C184.66,-280.7 192.17,-217.99 201.64,-163.28 203.33,-153.49 205.36,-143.2 207.57,-133.12"/>
<polygon fill="blue" stroke="blue" stroke-width="1.68" points="211.04,-133.66 209.85,-123.13 204.22,-132.1 211.04,-133.66"/>
</g>
<!-- key 92453
bias &#45;0.226
h_scaling 0.640&#45;&gt;key 167043
bias &#45;0.860
h_scaling 0.433 -->
<g id="edge10" class="edge">
<title>key 92453
bias &#45;0.226
h_scaling 0.640&#45;&gt;key 167043
bias &#45;0.860
h_scaling 0.433</title>
<path fill="none" stroke="red" stroke-width="5.1" d="M215.99,-335.94C225.16,-321.29 235.2,-305.28 244.66,-290.17"/>
<polygon fill="red" stroke="red" stroke-width="5.1" points="248.63,-292.24 250.15,-281.39 241.06,-287.5 248.63,-292.24"/>
</g>
<!-- key 92453
bias &#45;0.226
h_scaling 0.640&#45;&gt;key 92453
bias &#45;0.226
h_scaling 0.640 -->
<g id="edge7" class="edge">
<title>key 92453
bias &#45;0.226
h_scaling 0.640&#45;&gt;key 92453
bias &#45;0.226
h_scaling 0.640</title>
<path fill="none" stroke="red" stroke-width="3.38" d="M239.11,-420.21C253.49,-418.24 264.28,-408.23 264.28,-390.2 264.28,-376.53 258.08,-367.48 248.82,-363.03"/>
<polygon fill="red" stroke="red" stroke-width="3.38" points="249.69,-359.64 239.11,-360.19 247.72,-366.36 249.69,-359.64"/>
</g>
<!-- key 92453
bias &#45;0.226
h_scaling 0.640&#45;&gt;key 1542
bias &#45;0.681
h_scaling 0.131 -->
<g id="edge5" class="edge">
<title>key 92453
bias &#45;0.226
h_scaling 0.640&#45;&gt;key 1542
bias &#45;0.681
h_scaling 0.131</title>
<path fill="none" stroke="red" stroke-width="5.1" d="M145.31,-338.61C133.19,-322.18 119.63,-303.8 107.1,-286.82"/>
<polygon fill="red" stroke="red" stroke-width="5.1" points="110.57,-284 101.04,-278.6 103.38,-289.3 110.57,-284"/>
</g>
<!-- key 1542
bias &#45;0.681
h_scaling 0.131&#45;&gt;key output
bias 0.526
h_scaling 0.567 -->
<g id="edge1" class="edge">
<title>key 1542
bias &#45;0.681
h_scaling 0.131&#45;&gt;key output
bias 0.526
h_scaling 0.567</title>
<path fill="none" stroke="blue" stroke-width="5.1" d="M109.37,-182.27C130.98,-161.66 156.9,-136.92 179.39,-115.46"/>
<polygon fill="blue" stroke="blue" stroke-width="5.1" points="182.72,-118.45 186.87,-108.32 176.55,-111.99 182.72,-118.45"/>
</g>
<!-- key 1542
bias &#45;0.681
h_scaling 0.131&#45;&gt;key 1542
bias &#45;0.681
h_scaling 0.131 -->
<g id="edge2" class="edge">
<title>key 1542
bias &#45;0.681
h_scaling 0.131&#45;&gt;key 1542
bias &#45;0.681
h_scaling 0.131</title>
<path fill="none" stroke="red" stroke-width="4.42" d="M120.11,-256.93C134.49,-254.96 145.28,-244.95 145.28,-226.92 145.28,-213.25 139.08,-204.2 129.82,-199.75"/>
<polygon fill="red" stroke="red" stroke-width="4.42" points="130.79,-196.01 120.11,-196.91 128.62,-203.43 130.79,-196.01"/>
</g>
<!-- key 190088
bias 0.328
h_scaling 0.247 -->
<g id="node7" class="node">
<title>key 190088
bias 0.328
h_scaling 0.247</title>
<ellipse fill="white" stroke="black" cx="591.64" cy="-553.48" rx="63.78" ry="63.78"/>
<text text-anchor="middle" x="591.64" y="-561.28" font-family="Times,serif" font-size="9.00">key 190088</text>
<text text-anchor="middle" x="591.64" y="-551.28" font-family="Times,serif" font-size="9.00">bias 0.328</text>
<text text-anchor="middle" x="591.64" y="-541.28" font-family="Times,serif" font-size="9.00">h_scaling 0.247</text>
</g>
<!-- key 238477
bias &#45;0.719
h_scaling 0.523 -->
<g id="node8" class="node">
<title>key 238477
bias &#45;0.719
h_scaling 0.523</title>
<ellipse fill="white" stroke="black" cx="591.64" cy="-390.2" rx="63.78" ry="63.78"/>
<text text-anchor="middle" x="591.64" y="-398" font-family="Times,serif" font-size="9.00">key 238477</text>
<text text-anchor="middle" x="591.64" y="-388" font-family="Times,serif" font-size="9.00">bias &#45;0.719</text>
<text text-anchor="middle" x="591.64" y="-378" font-family="Times,serif" font-size="9.00">h_scaling 0.523</text>
</g>
<!-- key 190088
bias 0.328
h_scaling 0.247&#45;&gt;key 238477
bias &#45;0.719
h_scaling 0.523 -->
<g id="edge22" class="edge">
<title>key 190088
bias 0.328
h_scaling 0.247&#45;&gt;key 238477
bias &#45;0.719
h_scaling 0.523</title>
<path fill="none" stroke="red" stroke-width="5.1" d="M591.64,-489.66C591.64,-481.21 591.64,-472.48 591.64,-463.87"/>
<polygon fill="red" stroke="red" stroke-width="5.1" points="596.1,-463.84 591.64,-453.84 587.18,-463.84 596.1,-463.84"/>
</g>
<!-- key 197727
bias &#45;0.969
h_scaling 0.421 -->
<g id="node13" class="node">
<title>key 197727
bias &#45;0.969
h_scaling 0.421</title>
<ellipse fill="white" stroke="black" cx="591.64" cy="-226.92" rx="63.78" ry="63.78"/>
<text text-anchor="middle" x="591.64" y="-234.72" font-family="Times,serif" font-size="9.00">key 197727</text>
<text text-anchor="middle" x="591.64" y="-224.72" font-family="Times,serif" font-size="9.00">bias &#45;0.969</text>
<text text-anchor="middle" x="591.64" y="-214.72" font-family="Times,serif" font-size="9.00">h_scaling 0.421</text>
</g>
<!-- key 238477
bias &#45;0.719
h_scaling 0.523&#45;&gt;key 197727
bias &#45;0.969
h_scaling 0.421 -->
<g id="edge23" class="edge">
<title>key 238477
bias &#45;0.719
h_scaling 0.523&#45;&gt;key 197727
bias &#45;0.969
h_scaling 0.421</title>
<path fill="none" stroke="red" stroke-width="3.81" d="M591.64,-326.38C591.64,-317.93 591.64,-309.2 591.64,-300.59"/>
<polygon fill="red" stroke="red" stroke-width="3.81" points="595.14,-300.56 591.64,-290.56 588.14,-300.56 595.14,-300.56"/>
</g>
<!-- key 180791
bias &#45;0.190
h_scaling 0.342&#45;&gt;key 168731
bias &#45;0.716
h_scaling 0.382 -->
<g id="edge16" class="edge">
<title>key 180791
bias &#45;0.190
h_scaling 0.342&#45;&gt;key 168731
bias &#45;0.716
h_scaling 0.382</title>
<path fill="none" stroke="red" stroke-width="5.1" d="M207.05,-653.4C206.9,-644.8 206.85,-635.91 206.92,-627.14"/>
<polygon fill="red" stroke="red" stroke-width="5.1" points="211.38,-626.99 207.04,-616.93 202.46,-626.88 211.38,-626.99"/>
</g>
<!-- key 212888
bias 0.338
h_scaling 0.250 -->
<g id="node10" class="node">
<title>key 212888
bias 0.338
h_scaling 0.250</title>
<ellipse fill="white" stroke="black" cx="358.64" cy="-553.48" rx="63.78" ry="63.78"/>
<text text-anchor="middle" x="358.64" y="-561.28" font-family="Times,serif" font-size="9.00">key 212888</text>
<text text-anchor="middle" x="358.64" y="-551.28" font-family="Times,serif" font-size="9.00">bias 0.338</text>
<text text-anchor="middle" x="358.64" y="-541.28" font-family="Times,serif" font-size="9.00">h_scaling 0.250</text>
</g>
<!-- key 212888
bias 0.338
h_scaling 0.250&#45;&gt;key 92453
bias &#45;0.226
h_scaling 0.640 -->
<g id="edge19" class="edge">
<title>key 212888
bias 0.338
h_scaling 0.250&#45;&gt;key 92453
bias &#45;0.226
h_scaling 0.640</title>
<path fill="none" stroke="blue" stroke-width="2.4" d="M311.94,-509.68C288.87,-488.54 260.91,-462.92 236.9,-440.92"/>
<polygon fill="blue" stroke="blue" stroke-width="2.4" points="238.99,-438.09 229.25,-433.91 234.26,-443.25 238.99,-438.09"/>
</g>
<!-- key 234521
bias &#45;0.206
h_scaling 0.544 -->
<g id="node11" class="node">
<title>key 234521
bias &#45;0.206
h_scaling 0.544</title>
<ellipse fill="white" stroke="black" cx="446.64" cy="-226.92" rx="63.78" ry="63.78"/>
<text text-anchor="middle" x="446.64" y="-234.72" font-family="Times,serif" font-size="9.00">key 234521</text>
<text text-anchor="middle" x="446.64" y="-224.72" font-family="Times,serif" font-size="9.00">bias &#45;0.206</text>
<text text-anchor="middle" x="446.64" y="-214.72" font-family="Times,serif" font-size="9.00">h_scaling 0.544</text>
</g>
<!-- key 234521
bias &#45;0.206
h_scaling 0.544&#45;&gt;key output
bias 0.526
h_scaling 0.567 -->
<g id="edge20" class="edge">
<title>key 234521
bias &#45;0.206
h_scaling 0.544&#45;&gt;key output
bias 0.526
h_scaling 0.567</title>
<path fill="none" stroke="blue" stroke-width="4.99" d="M399.62,-183.73C391.42,-176.74 382.88,-169.69 374.64,-163.28 348.89,-143.23 319.41,-122.42 294,-105.12"/>
<polygon fill="blue" stroke="blue" stroke-width="4.99" points="296.28,-101.38 285.55,-99.39 291.37,-108.61 296.28,-101.38"/>
</g>
<!-- key 168731
bias &#45;0.716
h_scaling 0.382&#45;&gt;key 92453
bias &#45;0.226
h_scaling 0.640 -->
<g id="edge13" class="edge">
<title>key 168731
bias &#45;0.716
h_scaling 0.382&#45;&gt;key 92453
bias &#45;0.226
h_scaling 0.640</title>
<path fill="none" stroke="blue" stroke-width="3.02" d="M201.74,-490.58C200,-481.52 198.19,-472.11 196.42,-462.87"/>
<polygon fill="blue" stroke="blue" stroke-width="3.02" points="199.83,-462.09 194.5,-452.93 192.96,-463.41 199.83,-462.09"/>
</g>
<!-- key 168731
bias &#45;0.716
h_scaling 0.382&#45;&gt;key 180791
bias &#45;0.190
h_scaling 0.342 -->
<g id="edge17" class="edge">
<title>key 168731
bias &#45;0.716
h_scaling 0.382&#45;&gt;key 180791
bias &#45;0.190
h_scaling 0.342</title>
<path fill="none" stroke="red" stroke-width="2.1" d="M220.23,-616.93C220.38,-625.54 220.43,-634.43 220.36,-643.2"/>
<polygon fill="red" stroke="red" stroke-width="2.1" points="216.86,-643.36 220.23,-653.4 223.86,-643.45 216.86,-643.36"/>
</g>
<!-- key 197727
bias &#45;0.969
h_scaling 0.421&#45;&gt;key output
bias 0.526
h_scaling 0.567 -->
<g id="edge18" class="edge">
<title>key 197727
bias &#45;0.969
h_scaling 0.421&#45;&gt;key output
bias 0.526
h_scaling 0.567</title>
<path fill="none" stroke="red" stroke-width="0.4" d="M546.39,-182.01C537.92,-175.15 528.82,-168.58 519.64,-163.28 451.24,-123.79 364.53,-96.73 304.42,-81.08"/>
<polygon fill="red" stroke="red" stroke-width="0.4" points="305.19,-77.66 294.63,-78.57 303.45,-84.44 305.19,-77.66"/>
</g>
</g>
</svg>
