<?xml version="1.0" encoding="UTF-8" standalone="no"?>
<!DOCTYPE svg PUBLIC "-//W3C//DTD SVG 1.1//EN"
 "http://www.w3.org/Graphics/SVG/1.1/DTD/svg11.dtd">
<!-- Generated by graphviz version 2.43.0 (0)
 -->
<!-- Title: %3 Pages: 1 -->
<svg width="378pt" height="729pt"
 viewBox="0.00 0.00 377.81 729.12" xmlns="http://www.w3.org/2000/svg" xmlns:xlink="http://www.w3.org/1999/xlink">
<g id="graph0" class="graph" transform="scale(1 1) rotate(0) translate(4 725.12)">
<title>%3</title>
<polygon fill="white" stroke="transparent" points="-4,4 -4,-725.12 373.81,-725.12 373.81,4 -4,4"/>
<!-- ready
output 1.000 -->
<g id="node1" class="node">
<title>ready
output 1.000</title>
<polygon fill="yellow" stroke="black" points="352.67,-721.12 275.67,-721.12 275.67,-693.12 352.67,-693.12 352.67,-721.12"/>
<text text-anchor="middle" x="314.17" y="-709.92" font-family="Times,serif" font-size="9.00">ready</text>
<text text-anchor="middle" x="314.17" y="-699.92" font-family="Times,serif" font-size="9.00">output 1.000</text>
</g>
<!-- key 245476
bias &#45;0.505
h_scaling 0.228
output 0.965 -->
<g id="node5" class="node">
<title>key 245476
bias &#45;0.505
h_scaling 0.228
output 0.965</title>
<ellipse fill="white" stroke="black" cx="122.17" cy="-583.48" rx="63.78" ry="63.78"/>
<text text-anchor="middle" x="122.17" y="-596.28" font-family="Times,serif" font-size="9.00">key 245476</text>
<text text-anchor="middle" x="122.17" y="-586.28" font-family="Times,serif" font-size="9.00">bias &#45;0.505</text>
<text text-anchor="middle" x="122.17" y="-576.28" font-family="Times,serif" font-size="9.00">h_scaling 0.228</text>
<text text-anchor="middle" x="122.17" y="-566.28" font-family="Times,serif" font-size="9.00">output 0.965</text>
</g>
<!-- ready
output 1.000&#45;&gt;key 245476
bias &#45;0.505
h_scaling 0.228
output 0.965 -->
<g id="edge8" class="edge">
<title>ready
output 1.000&#45;&gt;key 245476
bias &#45;0.505
h_scaling 0.228
output 0.965</title>
<path fill="none" stroke="red" stroke-width="0.1" d="M293.62,-693.1C267.74,-676.7 222.09,-647.78 184.4,-623.9"/>
<polygon fill="red" stroke="red" stroke-width="0.1" points="185.82,-620.66 175.5,-618.26 182.07,-626.57 185.82,-620.66"/>
<text text-anchor="middle" x="276.17" y="-667.92" font-family="Times,serif" font-size="9.00">1.067</text>
</g>
<!-- key 238905
bias &#45;0.937
h_scaling 0.992
output 0.807 -->
<g id="node6" class="node">
<title>key 238905
bias &#45;0.937
h_scaling 0.992
output 0.807</title>
<ellipse fill="white" stroke="black" cx="260.17" cy="-236.92" rx="63.78" ry="63.78"/>
<text text-anchor="middle" x="260.17" y="-249.72" font-family="Times,serif" font-size="9.00">key 238905</text>
<text text-anchor="middle" x="260.17" y="-239.72" font-family="Times,serif" font-size="9.00">bias &#45;0.937</text>
<text text-anchor="middle" x="260.17" y="-229.72" font-family="Times,serif" font-size="9.00">h_scaling 0.992</text>
<text text-anchor="middle" x="260.17" y="-219.72" font-family="Times,serif" font-size="9.00">output 0.807</text>
</g>
<!-- ready
output 1.000&#45;&gt;key 238905
bias &#45;0.937
h_scaling 0.992
output 0.807 -->
<g id="edge7" class="edge">
<title>ready
output 1.000&#45;&gt;key 238905
bias &#45;0.937
h_scaling 0.992
output 0.807</title>
<path fill="none" stroke="red" stroke-width="0.1" d="M313.23,-693.02C309.62,-643.73 295.71,-464.78 274.17,-318.56 273.75,-315.72 273.31,-312.84 272.86,-309.92"/>
<polygon fill="red" stroke="red" stroke-width="0.1" points="276.3,-309.27 271.27,-299.94 269.39,-310.37 276.3,-309.27"/>
<text text-anchor="middle" x="310.17" y="-494.64" font-family="Times,serif" font-size="9.00">0.644</text>
</g>
<!-- go
output 0.000 -->
<g id="node2" class="node">
<title>go
output 0.000</title>
<polygon fill="green" stroke="black" points="160.67,-721.12 83.67,-721.12 83.67,-693.12 160.67,-693.12 160.67,-721.12"/>
<text text-anchor="middle" x="122.17" y="-709.92" font-family="Times,serif" font-size="9.00">go</text>
<text text-anchor="middle" x="122.17" y="-699.92" font-family="Times,serif" font-size="9.00">output 0.000</text>
</g>
<!-- key 488
bias &#45;0.463
h_scaling 0.826
output 0.632 -->
<g id="node4" class="node">
<title>key 488
bias &#45;0.463
h_scaling 0.826
output 0.632</title>
<ellipse fill="white" stroke="black" cx="102.17" cy="-410.2" rx="63.78" ry="63.78"/>
<text text-anchor="middle" x="102.17" y="-423" font-family="Times,serif" font-size="9.00">key 488</text>
<text text-anchor="middle" x="102.17" y="-413" font-family="Times,serif" font-size="9.00">bias &#45;0.463</text>
<text text-anchor="middle" x="102.17" y="-403" font-family="Times,serif" font-size="9.00">h_scaling 0.826</text>
<text text-anchor="middle" x="102.17" y="-393" font-family="Times,serif" font-size="9.00">output 0.632</text>
</g>
<!-- go
output 0.000&#45;&gt;key 488
bias &#45;0.463
h_scaling 0.826
output 0.632 -->
<g id="edge2" class="edge">
<title>go
output 0.000&#45;&gt;key 488
bias &#45;0.463
h_scaling 0.826
output 0.632</title>
<path fill="none" stroke="blue" stroke-width="0.1" d="M83.62,-695.17C60.21,-686.3 32.22,-671.24 18.17,-647.12 -10.3,-598.23 -0.11,-573.37 18.17,-519.84 25.09,-499.58 37.49,-480.16 50.68,-463.49"/>
<polygon fill="blue" stroke="blue" stroke-width="0.1" points="53.56,-465.49 57.19,-455.54 48.15,-461.06 53.56,-465.49"/>
<text text-anchor="middle" x="33.67" y="-581.28" font-family="Times,serif" font-size="9.00">&#45;0.934</text>
</g>
<!-- go
output 0.000&#45;&gt;key 245476
bias &#45;0.505
h_scaling 0.228
output 0.965 -->
<g id="edge13" class="edge">
<title>go
output 0.000&#45;&gt;key 245476
bias &#45;0.505
h_scaling 0.228
output 0.965</title>
<path fill="none" stroke="red" stroke-width="0.1" d="M122.17,-693.1C122.17,-684.02 122.17,-671.11 122.17,-657.35"/>
<polygon fill="red" stroke="red" stroke-width="0.1" points="125.67,-657.21 122.17,-647.21 118.67,-657.21 125.67,-657.21"/>
<text text-anchor="middle" x="136.17" y="-667.92" font-family="Times,serif" font-size="9.00">0.351</text>
</g>
<!-- go
output 0.000&#45;&gt;key 238905
bias &#45;0.937
h_scaling 0.992
output 0.807 -->
<g id="edge6" class="edge">
<title>go
output 0.000&#45;&gt;key 238905
bias &#45;0.937
h_scaling 0.992
output 0.807</title>
<path fill="none" stroke="blue" stroke-width="0.1" d="M160.72,-697.92C188.12,-689.9 223.14,-674.73 241.17,-647.12 259.03,-619.76 261.04,-420.83 260.75,-310.74"/>
<polygon fill="blue" stroke="blue" stroke-width="0.1" points="264.25,-310.69 260.72,-300.7 257.25,-310.71 264.25,-310.69"/>
<text text-anchor="middle" x="273.67" y="-494.64" font-family="Times,serif" font-size="9.00">&#45;0.792</text>
</g>
<!-- output
bias &#45;1.000
h_scaling 0.142
output 0.097 -->
<g id="node3" class="node">
<title>output
bias &#45;1.000
h_scaling 0.142
output 0.097</title>
<ellipse fill="lightblue" stroke="black" cx="147.17" cy="-63.64" rx="63.78" ry="63.78"/>
<text text-anchor="middle" x="147.17" y="-76.44" font-family="Times,serif" font-size="9.00">output</text>
<text text-anchor="middle" x="147.17" y="-66.44" font-family="Times,serif" font-size="9.00">bias &#45;1.000</text>
<text text-anchor="middle" x="147.17" y="-56.44" font-family="Times,serif" font-size="9.00">h_scaling 0.142</text>
<text text-anchor="middle" x="147.17" y="-46.44" font-family="Times,serif" font-size="9.00">output 0.097</text>
</g>
<!-- output
bias &#45;1.000
h_scaling 0.142
output 0.097&#45;&gt;key 488
bias &#45;0.463
h_scaling 0.826
output 0.632 -->
<g id="edge12" class="edge">
<title>output
bias &#45;1.000
h_scaling 0.142
output 0.097&#45;&gt;key 488
bias &#45;0.463
h_scaling 0.826
output 0.632</title>
<path fill="none" stroke="blue" stroke-width="0.1" d="M143.29,-127.47C139.88,-175.14 134.04,-242.2 125.17,-300.56 123.32,-312.74 120.96,-325.61 118.46,-338.07"/>
<polygon fill="blue" stroke="blue" stroke-width="0.1" points="115.01,-337.45 116.43,-347.95 121.87,-338.86 115.01,-337.45"/>
<text text-anchor="middle" x="155.67" y="-234.72" font-family="Times,serif" font-size="9.00">&#45;0.133</text>
</g>
<!-- key 488
bias &#45;0.463
h_scaling 0.826
output 0.632&#45;&gt;output
bias &#45;1.000
h_scaling 0.142
output 0.097 -->
<g id="edge1" class="edge">
<title>key 488
bias &#45;0.463
h_scaling 0.826
output 0.632&#45;&gt;output
bias &#45;1.000
h_scaling 0.142
output 0.097</title>
<path fill="none" stroke="red" stroke-width="0.1" d="M92.94,-346.83C87.73,-298.82 84.5,-231.11 97.17,-173.28 100.45,-158.31 106,-142.93 112.23,-128.64"/>
<polygon fill="red" stroke="red" stroke-width="0.1" points="115.47,-129.97 116.41,-119.41 109.09,-127.08 115.47,-129.97"/>
<text text-anchor="middle" x="111.17" y="-234.72" font-family="Times,serif" font-size="9.00">0.610</text>
</g>
<!-- key 488
bias &#45;0.463
h_scaling 0.826
output 0.632&#45;&gt;key 488
bias &#45;0.463
h_scaling 0.826
output 0.632 -->
<g id="edge3" class="edge">
<title>key 488
bias &#45;0.463
h_scaling 0.826
output 0.632&#45;&gt;key 488
bias &#45;0.463
h_scaling 0.826
output 0.632</title>
<path fill="none" stroke="red" stroke-width="0.1" d="M164.11,-425.5C175.67,-423.61 183.81,-418.51 183.81,-410.2 183.81,-404.48 179.96,-400.29 173.8,-397.61"/>
<polygon fill="red" stroke="red" stroke-width="0.1" points="174.68,-394.22 164.11,-394.9 172.8,-400.96 174.68,-394.22"/>
<text text-anchor="middle" x="197.81" y="-408" font-family="Times,serif" font-size="9.00">0.989</text>
</g>
<!-- key 488
bias &#45;0.463
h_scaling 0.826
output 0.632&#45;&gt;key 245476
bias &#45;0.505
h_scaling 0.228
output 0.965 -->
<g id="edge14" class="edge">
<title>key 488
bias &#45;0.463
h_scaling 0.826
output 0.632&#45;&gt;key 245476
bias &#45;0.505
h_scaling 0.228
output 0.965</title>
<path fill="none" stroke="red" stroke-width="0.1" d="M82.26,-470.75C80.91,-481.13 80.87,-491.81 83.17,-501.84 84.38,-507.14 86,-512.51 87.87,-517.81"/>
<polygon fill="red" stroke="red" stroke-width="0.1" points="84.66,-519.19 91.51,-527.27 91.19,-516.68 84.66,-519.19"/>
<text text-anchor="middle" x="97.17" y="-494.64" font-family="Times,serif" font-size="9.00">0.177</text>
</g>
<!-- key 488
bias &#45;0.463
h_scaling 0.826
output 0.632&#45;&gt;key 238905
bias &#45;0.937
h_scaling 0.992
output 0.807 -->
<g id="edge4" class="edge">
<title>key 488
bias &#45;0.463
h_scaling 0.826
output 0.632&#45;&gt;key 238905
bias &#45;0.937
h_scaling 0.992
output 0.807</title>
<path fill="none" stroke="red" stroke-width="0.1" d="M144.93,-362.85C165.12,-340.95 189.36,-314.68 210.38,-291.89"/>
<polygon fill="red" stroke="red" stroke-width="0.1" points="213.17,-294.03 217.38,-284.31 208.02,-289.28 213.17,-294.03"/>
<text text-anchor="middle" x="195.17" y="-321.36" font-family="Times,serif" font-size="9.00">1.161</text>
</g>
<!-- key 245476
bias &#45;0.505
h_scaling 0.228
output 0.965&#45;&gt;key 488
bias &#45;0.463
h_scaling 0.826
output 0.632 -->
<g id="edge9" class="edge">
<title>key 245476
bias &#45;0.505
h_scaling 0.228
output 0.965&#45;&gt;key 488
bias &#45;0.463
h_scaling 0.826
output 0.632</title>
<path fill="none" stroke="red" stroke-width="0.1" d="M117.98,-519.51C117.17,-510.22 116.23,-500.77 115.17,-491.84 114.83,-489 114.47,-486.11 114.08,-483.19"/>
<polygon fill="red" stroke="red" stroke-width="0.1" points="117.53,-482.63 112.69,-473.2 110.6,-483.59 117.53,-482.63"/>
<text text-anchor="middle" x="131.17" y="-494.64" font-family="Times,serif" font-size="9.00">0.417</text>
</g>
<!-- key 245476
bias &#45;0.505
h_scaling 0.228
output 0.965&#45;&gt;key 245476
bias &#45;0.505
h_scaling 0.228
output 0.965 -->
<g id="edge11" class="edge">
<title>key 245476
bias &#45;0.505
h_scaling 0.228
output 0.965&#45;&gt;key 245476
bias &#45;0.505
h_scaling 0.228
output 0.965</title>
<path fill="none" stroke="red" stroke-width="0.1" d="M184.11,-598.77C195.67,-596.89 203.81,-591.79 203.81,-583.48 203.81,-577.76 199.96,-573.56 193.8,-570.89"/>
<polygon fill="red" stroke="red" stroke-width="0.1" points="194.68,-567.5 184.11,-568.18 192.8,-574.24 194.68,-567.5"/>
<text text-anchor="middle" x="217.81" y="-581.28" font-family="Times,serif" font-size="9.00">0.580</text>
</g>
<!-- key 238905
bias &#45;0.937
h_scaling 0.992
output 0.807&#45;&gt;output
bias &#45;1.000
h_scaling 0.142
output 0.097 -->
<g id="edge5" class="edge">
<title>key 238905
bias &#45;0.937
h_scaling 0.992
output 0.807&#45;&gt;output
bias &#45;1.000
h_scaling 0.142
output 0.097</title>
<path fill="none" stroke="red" stroke-width="0.1" d="M225.34,-183.13C213.36,-164.98 199.85,-144.5 187.48,-125.74"/>
<polygon fill="red" stroke="red" stroke-width="0.1" points="190.31,-123.67 181.88,-117.25 184.46,-127.53 190.31,-123.67"/>
<text text-anchor="middle" x="217.17" y="-148.08" font-family="Times,serif" font-size="9.00">1.021</text>
</g>
<!-- key 238905
bias &#45;0.937
h_scaling 0.992
output 0.807&#45;&gt;key 238905
bias &#45;0.937
h_scaling 0.992
output 0.807 -->
<g id="edge10" class="edge">
<title>key 238905
bias &#45;0.937
h_scaling 0.992
output 0.807&#45;&gt;key 238905
bias &#45;0.937
h_scaling 0.992
output 0.807</title>
<path fill="none" stroke="red" stroke-width="0.1" d="M322.11,-252.22C333.67,-250.33 341.81,-245.23 341.81,-236.92 341.81,-231.2 337.96,-227.01 331.8,-224.33"/>
<polygon fill="red" stroke="red" stroke-width="0.1" points="332.68,-220.94 322.11,-221.62 330.8,-227.68 332.68,-220.94"/>
<text text-anchor="middle" x="355.81" y="-234.72" font-family="Times,serif" font-size="9.00">0.935</text>
</g>
</g>
</svg>
