<?xml version="1.0" encoding="UTF-8" standalone="no"?>
<!DOCTYPE svg PUBLIC "-//W3C//DTD SVG 1.1//EN"
 "http://www.w3.org/Graphics/SVG/1.1/DTD/svg11.dtd">
<!-- Generated by graphviz version 8.0.5 (20230430.1635)
 -->
<!-- Pages: 1 -->
<svg width="418pt" height="759pt"
 viewBox="0.00 0.00 418.38 758.83" xmlns="http://www.w3.org/2000/svg" xmlns:xlink="http://www.w3.org/1999/xlink">
<g id="graph0" class="graph" transform="scale(1 1) rotate(0) translate(4 754.83)">
<polygon fill="white" stroke="none" points="-4,4 -4,-754.83 414.38,-754.83 414.38,4 -4,4"/>
<!-- ready -->
<g id="node1" class="node">
<title>ready</title>
<polygon fill="yellow" stroke="black" points="36.25,-750.83 0,-750.83 0,-731.58 36.25,-731.58 36.25,-750.83"/>
<text text-anchor="middle" x="18.12" y="-738.28" font-family="Times New Roman,serif" font-size="9.00">ready</text>
</g>
<!-- key 28276
bias &#45;0.600
h_scaling 0.246 -->
<g id="node5" class="node">
<title>key 28276
bias &#45;0.600
h_scaling 0.246</title>
<ellipse fill="white" stroke="black" cx="268.12" cy="-633.77" rx="50.56" ry="50.56"/>
<text text-anchor="middle" x="268.12" y="-642.1" font-family="Times New Roman,serif" font-size="9.00">key 28276</text>
<text text-anchor="middle" x="268.12" y="-630.85" font-family="Times New Roman,serif" font-size="9.00">bias &#45;0.600</text>
<text text-anchor="middle" x="268.12" y="-619.6" font-family="Times New Roman,serif" font-size="9.00">h_scaling 0.246</text>
</g>
<!-- ready&#45;&gt;key 28276
bias &#45;0.600
h_scaling 0.246 -->
<g id="edge5" class="edge">
<title>ready&#45;&gt;key 28276
bias &#45;0.600
h_scaling 0.246</title>
<path fill="none" stroke="red" stroke-width="0.96" d="M36.51,-732.45C72.99,-717.07 155.87,-682.11 211.93,-658.47"/>
<polygon fill="red" stroke="red" stroke-width="0.96" points="212.87,-661.45 220.72,-654.34 210.15,-655 212.87,-661.45"/>
<text text-anchor="middle" x="116.25" y="-705.03" font-family="Times New Roman,serif" font-size="9.00">0.029</text>
</g>
<!-- key 6357
bias &#45;0.153
h_scaling 0.373 -->
<g id="node6" class="node">
<title>key 6357
bias &#45;0.153
h_scaling 0.373</title>
<ellipse fill="white" stroke="black" cx="102.12" cy="-337.04" rx="50.56" ry="50.56"/>
<text text-anchor="middle" x="102.12" y="-345.37" font-family="Times New Roman,serif" font-size="9.00">key 6357</text>
<text text-anchor="middle" x="102.12" y="-334.12" font-family="Times New Roman,serif" font-size="9.00">bias &#45;0.153</text>
<text text-anchor="middle" x="102.12" y="-322.87" font-family="Times New Roman,serif" font-size="9.00">h_scaling 0.373</text>
</g>
<!-- ready&#45;&gt;key 6357
bias &#45;0.153
h_scaling 0.373 -->
<g id="edge15" class="edge">
<title>ready&#45;&gt;key 6357
bias &#45;0.153
h_scaling 0.373</title>
<path fill="none" stroke="red" stroke-width="1.33" d="M18.19,-731.31C18.62,-694.36 22.13,-549.55 50.12,-434.85 53.87,-419.49 60.65,-403.93 68.09,-389.91"/>
<polygon fill="red" stroke="red" stroke-width="1.33" points="72.07,-390.95 73.87,-380.51 65.95,-387.55 72.07,-390.95"/>
<text text-anchor="middle" x="40.25" y="-556.67" font-family="Times New Roman,serif" font-size="9.00">0.041</text>
</g>
<!-- go -->
<g id="node2" class="node">
<title>go</title>
<polygon fill="green" stroke="black" points="90.25,-643.4 66,-643.4 66,-624.15 90.25,-624.15 90.25,-643.4"/>
<text text-anchor="middle" x="78.12" y="-630.85" font-family="Times New Roman,serif" font-size="9.00">go</text>
</g>
<!-- go&#45;&gt;key 6357
bias &#45;0.153
h_scaling 0.373 -->
<g id="edge2" class="edge">
<title>go&#45;&gt;key 6357
bias &#45;0.153
h_scaling 0.373</title>
<path fill="none" stroke="blue" stroke-width="0.1" d="M75.41,-623.98C67.15,-596.03 43.87,-506.78 59.12,-434.85 62.29,-419.94 67.91,-404.55 74.06,-390.54"/>
<polygon fill="blue" stroke="blue" stroke-width="0.1" points="77.19,-392.1 78.16,-381.55 70.83,-389.19 77.19,-392.1"/>
</g>
<!-- key 27319
bias &#45;0.274
h_scaling 0.000 -->
<g id="node7" class="node">
<title>key 27319
bias &#45;0.274
h_scaling 0.000</title>
<ellipse fill="white" stroke="black" cx="119.12" cy="-485.41" rx="50.56" ry="50.56"/>
<text text-anchor="middle" x="119.12" y="-493.73" font-family="Times New Roman,serif" font-size="9.00">key 27319</text>
<text text-anchor="middle" x="119.12" y="-482.48" font-family="Times New Roman,serif" font-size="9.00">bias &#45;0.274</text>
<text text-anchor="middle" x="119.12" y="-471.23" font-family="Times New Roman,serif" font-size="9.00">h_scaling 0.000</text>
</g>
<!-- go&#45;&gt;key 27319
bias &#45;0.274
h_scaling 0.000 -->
<g id="edge3" class="edge">
<title>go&#45;&gt;key 27319
bias &#45;0.274
h_scaling 0.000</title>
<path fill="none" stroke="red" stroke-width="1.08" d="M80.57,-624.06C84.9,-608.59 94.27,-575.13 102.69,-545.07"/>
<polygon fill="red" stroke="red" stroke-width="1.08" points="106.29,-546.19 105.62,-535.62 99.55,-544.31 106.29,-546.19"/>
<text text-anchor="middle" x="110.25" y="-556.67" font-family="Times New Roman,serif" font-size="9.00">0.033</text>
</g>
<!-- output
bias &#45;0.483
h_scaling 0.077 -->
<g id="node3" class="node">
<title>output
bias &#45;0.483
h_scaling 0.077</title>
<ellipse fill="lightblue" stroke="black" cx="237.12" cy="-188.67" rx="50.56" ry="50.56"/>
<text text-anchor="middle" x="237.12" y="-197" font-family="Times New Roman,serif" font-size="9.00">output</text>
<text text-anchor="middle" x="237.12" y="-185.75" font-family="Times New Roman,serif" font-size="9.00">bias &#45;0.483</text>
<text text-anchor="middle" x="237.12" y="-174.5" font-family="Times New Roman,serif" font-size="9.00">h_scaling 0.077</text>
</g>
<!-- key 65476
bias &#45;0.315
h_scaling 0.692 -->
<g id="node4" class="node">
<title>key 65476
bias &#45;0.315
h_scaling 0.692</title>
<ellipse fill="white" stroke="black" cx="334.12" cy="-50.56" rx="50.56" ry="50.56"/>
<text text-anchor="middle" x="334.12" y="-58.88" font-family="Times New Roman,serif" font-size="9.00">key 65476</text>
<text text-anchor="middle" x="334.12" y="-47.63" font-family="Times New Roman,serif" font-size="9.00">bias &#45;0.315</text>
<text text-anchor="middle" x="334.12" y="-36.38" font-family="Times New Roman,serif" font-size="9.00">h_scaling 0.692</text>
</g>
<!-- output
bias &#45;0.483
h_scaling 0.077&#45;&gt;key 65476
bias &#45;0.315
h_scaling 0.692 -->
<g id="edge12" class="edge">
<title>output
bias &#45;0.483
h_scaling 0.077&#45;&gt;key 65476
bias &#45;0.315
h_scaling 0.692</title>
<path fill="none" stroke="blue" stroke-width="0.1" d="M266.23,-146.84C276.68,-132.16 288.58,-115.47 299.46,-100.21"/>
<polygon fill="blue" stroke="blue" stroke-width="0.1" points="302.09,-102.54 305.04,-92.37 296.39,-98.48 302.09,-102.54"/>
</g>
<!-- key 65476
bias &#45;0.315
h_scaling 0.692&#45;&gt;key 28276
bias &#45;0.600
h_scaling 0.246 -->
<g id="edge11" class="edge">
<title>key 65476
bias &#45;0.315
h_scaling 0.692&#45;&gt;key 28276
bias &#45;0.600
h_scaling 0.246</title>
<path fill="none" stroke="red" stroke-width="0.17" d="M361.3,-93.58C375.57,-119.61 390.12,-154.33 390.12,-187.67 390.12,-486.41 390.12,-486.41 390.12,-486.41 390.12,-533.57 352.29,-573.6 318.75,-599.81"/>
<polygon fill="red" stroke="red" stroke-width="0.17" points="316.65,-597.01 310.79,-605.84 320.88,-602.59 316.65,-597.01"/>
<text text-anchor="middle" x="400.25" y="-334.12" font-family="Times New Roman,serif" font-size="9.00">0.002</text>
</g>
<!-- key 28276
bias &#45;0.600
h_scaling 0.246&#45;&gt;output
bias &#45;0.483
h_scaling 0.077 -->
<g id="edge14" class="edge">
<title>key 28276
bias &#45;0.600
h_scaling 0.246&#45;&gt;output
bias &#45;0.483
h_scaling 0.077</title>
<path fill="none" stroke="red" stroke-width="0.52" d="M274.25,-583.1C275.84,-567.99 277.33,-551.32 278.12,-535.97 280.44,-491.08 281.84,-479.64 278.12,-434.85 272.77,-370.34 259.61,-297.25 249.64,-247.79"/>
<polygon fill="red" stroke="red" stroke-width="0.52" points="253.11,-247.32 247.69,-238.22 246.25,-248.72 253.11,-247.32"/>
<text text-anchor="middle" x="287.25" y="-408.3" font-family="Times New Roman,serif" font-size="9.00">0.014</text>
</g>
<!-- key 28276
bias &#45;0.600
h_scaling 0.246&#45;&gt;key 65476
bias &#45;0.315
h_scaling 0.692 -->
<g id="edge10" class="edge">
<title>key 28276
bias &#45;0.600
h_scaling 0.246&#45;&gt;key 65476
bias &#45;0.315
h_scaling 0.692</title>
<path fill="none" stroke="red" stroke-width="0.17" d="M297.46,-592.36C315.08,-564.11 334.12,-524.73 334.12,-486.41 334.12,-486.41 334.12,-486.41 334.12,-187.67 334.12,-162.65 334.12,-135.05 334.12,-111.27"/>
<polygon fill="red" stroke="red" stroke-width="0.17" points="337.63,-111.34 334.12,-101.34 330.63,-111.34 337.63,-111.34"/>
<text text-anchor="middle" x="344.25" y="-334.12" font-family="Times New Roman,serif" font-size="9.00">0.002</text>
</g>
<!-- key 28276
bias &#45;0.600
h_scaling 0.246&#45;&gt;key 6357
bias &#45;0.153
h_scaling 0.373 -->
<g id="edge6" class="edge">
<title>key 28276
bias &#45;0.600
h_scaling 0.246&#45;&gt;key 6357
bias &#45;0.153
h_scaling 0.373</title>
<path fill="none" stroke="red" stroke-width="0.57" d="M263.83,-583.09C258.28,-540.91 245.66,-480.2 217.12,-434.85 200.96,-409.16 175.75,-386.84 153.05,-370.12"/>
<polygon fill="red" stroke="red" stroke-width="0.57" points="155.31,-367.43 145.15,-364.44 151.23,-373.12 155.31,-367.43"/>
<text text-anchor="middle" x="266.25" y="-482.48" font-family="Times New Roman,serif" font-size="9.00">0.016</text>
</g>
<!-- key 28276
bias &#45;0.600
h_scaling 0.246&#45;&gt;key 27319
bias &#45;0.274
h_scaling 0.000 -->
<g id="edge8" class="edge">
<title>key 28276
bias &#45;0.600
h_scaling 0.246&#45;&gt;key 27319
bias &#45;0.274
h_scaling 0.000</title>
<path fill="none" stroke="blue" stroke-width="0.1" d="M232.44,-597.71C211.3,-576.96 184.39,-550.52 162.1,-528.62"/>
<polygon fill="blue" stroke="blue" stroke-width="0.1" points="164.63,-526.2 155.04,-521.69 159.72,-531.19 164.63,-526.2"/>
</g>
<!-- key 6357
bias &#45;0.153
h_scaling 0.373&#45;&gt;output
bias &#45;0.483
h_scaling 0.077 -->
<g id="edge1" class="edge">
<title>key 6357
bias &#45;0.153
h_scaling 0.373&#45;&gt;output
bias &#45;0.483
h_scaling 0.077</title>
<path fill="none" stroke="red" stroke-width="0.56" d="M136.19,-299.11C154.5,-279.26 177.19,-254.65 196.42,-233.8"/>
<polygon fill="red" stroke="red" stroke-width="0.56" points="198.86,-236.32 203.07,-226.6 193.72,-231.57 198.86,-236.32"/>
<text text-anchor="middle" x="184.25" y="-259.93" font-family="Times New Roman,serif" font-size="9.00">0.015</text>
</g>
<!-- key 6357
bias &#45;0.153
h_scaling 0.373&#45;&gt;key 6357
bias &#45;0.153
h_scaling 0.373 -->
<g id="edge9" class="edge">
<title>key 6357
bias &#45;0.153
h_scaling 0.373&#45;&gt;key 6357
bias &#45;0.153
h_scaling 0.373</title>
<path fill="none" stroke="red" stroke-width="0.98" d="M151.12,-350.64C162.4,-349.47 170.68,-344.94 170.68,-337.04 170.68,-331.86 167.11,-328.12 161.47,-325.84"/>
<polygon fill="red" stroke="red" stroke-width="0.98" points="162.65,-322.29 152.12,-323.44 161.07,-329.11 162.65,-322.29"/>
<text text-anchor="middle" x="180.81" y="-334.12" font-family="Times New Roman,serif" font-size="9.00">0.029</text>
</g>
<!-- key 27319
bias &#45;0.274
h_scaling 0.000&#45;&gt;output
bias &#45;0.483
h_scaling 0.077 -->
<g id="edge13" class="edge">
<title>key 27319
bias &#45;0.274
h_scaling 0.000&#45;&gt;output
bias &#45;0.483
h_scaling 0.077</title>
<path fill="none" stroke="blue" stroke-width="0.1" d="M155.57,-449.84C171.63,-432.62 189.28,-410.59 200.12,-387.6 220.72,-343.93 229.86,-289.77 233.92,-249.15"/>
<polygon fill="blue" stroke="blue" stroke-width="0.1" points="237.38,-249.68 234.82,-239.4 230.41,-249.03 237.38,-249.68"/>
</g>
<!-- key 27319
bias &#45;0.274
h_scaling 0.000&#45;&gt;key 6357
bias &#45;0.153
h_scaling 0.373 -->
<g id="edge4" class="edge">
<title>key 27319
bias &#45;0.274
h_scaling 0.000&#45;&gt;key 6357
bias &#45;0.153
h_scaling 0.373</title>
<path fill="none" stroke="blue" stroke-width="0.1" d="M113.37,-434.85C111.97,-422.81 110.46,-409.82 109.02,-397.37"/>
<polygon fill="blue" stroke="blue" stroke-width="0.1" points="112.5,-397.07 107.87,-387.54 105.55,-397.88 112.5,-397.07"/>
</g>
<!-- key 27319
bias &#45;0.274
h_scaling 0.000&#45;&gt;key 27319
bias &#45;0.274
h_scaling 0.000 -->
<g id="edge7" class="edge">
<title>key 27319
bias &#45;0.274
h_scaling 0.000&#45;&gt;key 27319
bias &#45;0.274
h_scaling 0.000</title>
<path fill="none" stroke="red" stroke-width="2.36" d="M168.12,-499.01C179.4,-497.84 187.68,-493.3 187.68,-485.41 187.68,-480.84 184.91,-477.4 180.4,-475.08"/>
<polygon fill="red" stroke="red" stroke-width="2.36" points="181.68,-471 171.12,-471.8 179.88,-477.77 181.68,-471"/>
<text text-anchor="middle" x="197.81" y="-482.48" font-family="Times New Roman,serif" font-size="9.00">0.075</text>
</g>
</g>
</svg>
