<?xml version="1.0" encoding="UTF-8" standalone="no"?>
<!DOCTYPE svg PUBLIC "-//W3C//DTD SVG 1.1//EN"
 "http://www.w3.org/Graphics/SVG/1.1/DTD/svg11.dtd">
<!-- Generated by graphviz version 8.0.5 (20230430.1635)
 -->
<!-- Pages: 1 -->
<svg width="105pt" height="164pt"
 viewBox="0.00 0.00 105.25 163.60" xmlns="http://www.w3.org/2000/svg" xmlns:xlink="http://www.w3.org/1999/xlink">
<g id="graph0" class="graph" transform="scale(1 1) rotate(0) translate(4 159.6)">
<polygon fill="white" stroke="none" points="-4,4 -4,-159.6 101.25,-159.6 101.25,4 -4,4"/>
<!-- ready -->
<g id="node1" class="node">
<title>ready</title>
<polygon fill="yellow" stroke="black" points="36.25,-155.6 0,-155.6 0,-136.35 36.25,-136.35 36.25,-155.6"/>
<text text-anchor="middle" x="18.12" y="-143.05" font-family="Times New Roman,serif" font-size="9.00">ready</text>
</g>
<!-- o -->
<g id="node3" class="node">
<title>o</title>
<ellipse fill="lightblue" stroke="black" cx="41.12" cy="-14.5" rx="14.5" ry="14.5"/>
<text text-anchor="middle" x="41.12" y="-11.57" font-family="Times New Roman,serif" font-size="9.00">o</text>
</g>
<!-- ready&#45;&gt;o -->
<g id="edge2" class="edge">
<title>ready&#45;&gt;o</title>
<path fill="none" stroke="red" stroke-width="0.17" d="M15.96,-135.92C12.74,-120.92 7.74,-90.05 14.12,-64.99 16.82,-54.43 22.27,-43.7 27.58,-34.93"/>
<polygon fill="red" stroke="red" stroke-width="0.17" points="30.47,-36.91 32.94,-26.61 24.58,-33.13 30.47,-36.91"/>
</g>
<!-- 87 -->
<g id="node4" class="node">
<title>87</title>
<ellipse fill="white" stroke="black" cx="41.12" cy="-82.67" rx="17.68" ry="17.68"/>
<text text-anchor="middle" x="41.12" y="-79.74" font-family="Times New Roman,serif" font-size="9.00">87</text>
</g>
<!-- ready&#45;&gt;87 -->
<g id="edge4" class="edge">
<title>ready&#45;&gt;87</title>
<path fill="none" stroke="green" stroke-width="0.11" d="M21.52,-135.93C24.22,-128.73 28.13,-118.31 31.75,-108.66"/>
<polygon fill="green" stroke="green" stroke-width="0.11" points="34.98,-110.01 35.22,-99.42 28.43,-107.55 34.98,-110.01"/>
</g>
<!-- go -->
<g id="node2" class="node">
<title>go</title>
<polygon fill="green" stroke="black" points="97.25,-155.6 73,-155.6 73,-136.35 97.25,-136.35 97.25,-155.6"/>
<text text-anchor="middle" x="85.12" y="-143.05" font-family="Times New Roman,serif" font-size="9.00">go</text>
</g>
<!-- go&#45;&gt;o -->
<g id="edge1" class="edge">
<title>go&#45;&gt;o</title>
<path fill="none" stroke="green" stroke-width="0.17" d="M87.29,-136.19C90.59,-121.06 95.54,-89.34 86.12,-64.99 80.84,-51.32 69.82,-39.09 60.01,-30.21"/>
<polygon fill="green" stroke="green" stroke-width="0.17" points="62.42,-27.66 52.54,-23.84 57.88,-32.99 62.42,-27.66"/>
</g>
<!-- go&#45;&gt;87 -->
<g id="edge6" class="edge">
<title>go&#45;&gt;87</title>
<path fill="none" stroke="green" stroke-width="0.15" d="M78.63,-135.93C72.9,-127.94 64.3,-115.96 56.79,-105.49"/>
<polygon fill="green" stroke="green" stroke-width="0.15" points="59.74,-103.61 51.07,-97.52 54.06,-107.69 59.74,-103.61"/>
</g>
<!-- 87&#45;&gt;o -->
<g id="edge5" class="edge">
<title>87&#45;&gt;o</title>
<path fill="none" stroke="green" stroke-width="0.14" d="M41.12,-64.63C41.12,-56.79 41.12,-47.36 41.12,-38.87"/>
<polygon fill="green" stroke="green" stroke-width="0.14" points="44.63,-39.15 41.12,-29.15 37.63,-39.15 44.63,-39.15"/>
</g>
<!-- 87&#45;&gt;87 -->
<g id="edge3" class="edge">
<title>87&#45;&gt;87</title>
<path fill="none" stroke="red" stroke-width="0.1" d="M55.78,-93.26C66.31,-96.71 76.8,-93.18 76.8,-82.67 76.8,-75.44 71.85,-71.52 65.32,-70.89"/>
<polygon fill="red" stroke="red" stroke-width="0.1" points="65.27,-67.37 55.78,-72.08 66.14,-74.31 65.27,-67.37"/>
</g>
</g>
</svg>
