<?xml version="1.0" encoding="UTF-8" standalone="no"?>
<!DOCTYPE svg PUBLIC "-//W3C//DTD SVG 1.1//EN"
 "http://www.w3.org/Graphics/SVG/1.1/DTD/svg11.dtd">
<!-- Generated by graphviz version 8.0.5 (20230430.1635)
 -->
<!-- Pages: 1 -->
<svg width="464pt" height="780pt"
 viewBox="0.00 0.00 464.43 780.33" xmlns="http://www.w3.org/2000/svg" xmlns:xlink="http://www.w3.org/1999/xlink">
<g id="graph0" class="graph" transform="scale(1 1) rotate(0) translate(4 776.33)">
<polygon fill="white" stroke="none" points="-4,4 -4,-776.33 460.43,-776.33 460.43,4 -4,4"/>
<!-- ready
output 0.000 -->
<g id="node1" class="node">
<title>ready
output 0.000</title>
<polygon fill="yellow" stroke="black" points="63.25,-772.33 0,-772.33 0,-741.83 63.25,-741.83 63.25,-772.33"/>
<text text-anchor="middle" x="31.62" y="-759.78" font-family="Times New Roman,serif" font-size="9.00">ready</text>
<text text-anchor="middle" x="31.62" y="-748.53" font-family="Times New Roman,serif" font-size="9.00">output 0.000</text>
</g>
<!-- key 14003
bias &#45;0.030
h_scaling 0.320
output 0.264 -->
<g id="node5" class="node">
<title>key 14003
bias &#45;0.030
h_scaling 0.320
output 0.264</title>
<ellipse fill="white" stroke="black" cx="215.62" cy="-347.29" rx="50.56" ry="50.56"/>
<text text-anchor="middle" x="215.62" y="-361.24" font-family="Times New Roman,serif" font-size="9.00">key 14003</text>
<text text-anchor="middle" x="215.62" y="-349.99" font-family="Times New Roman,serif" font-size="9.00">bias &#45;0.030</text>
<text text-anchor="middle" x="215.62" y="-338.74" font-family="Times New Roman,serif" font-size="9.00">h_scaling 0.320</text>
<text text-anchor="middle" x="215.62" y="-327.49" font-family="Times New Roman,serif" font-size="9.00">output 0.264</text>
</g>
<!-- ready
output 0.000&#45;&gt;key 14003
bias &#45;0.030
h_scaling 0.320
output 0.264 -->
<g id="edge12" class="edge">
<title>ready
output 0.000&#45;&gt;key 14003
bias &#45;0.030
h_scaling 0.320
output 0.264</title>
<path fill="none" stroke="red" stroke-width="1.29" d="M27.49,-741.77C18.82,-709.4 1.01,-628.4 19.38,-564.22 41,-488.65 58.65,-470 115.62,-415.85 129.85,-402.33 147.05,-389.66 163.14,-379.03"/>
<polygon fill="red" stroke="red" stroke-width="1.29" points="164.45,-382.71 170.95,-374.34 160.65,-376.83 164.45,-382.71"/>
<text text-anchor="middle" x="29.75" y="-566.92" font-family="Times New Roman,serif" font-size="9.00">0.650</text>
</g>
<!-- key 24661
bias &#45;0.449
h_scaling 0.317
output 0.295 -->
<g id="node7" class="node">
<title>key 24661
bias &#45;0.449
h_scaling 0.317
output 0.295</title>
<ellipse fill="white" stroke="black" cx="278.62" cy="-644.02" rx="50.56" ry="50.56"/>
<text text-anchor="middle" x="278.62" y="-657.97" font-family="Times New Roman,serif" font-size="9.00">key 24661</text>
<text text-anchor="middle" x="278.62" y="-646.72" font-family="Times New Roman,serif" font-size="9.00">bias &#45;0.449</text>
<text text-anchor="middle" x="278.62" y="-635.47" font-family="Times New Roman,serif" font-size="9.00">h_scaling 0.317</text>
<text text-anchor="middle" x="278.62" y="-624.22" font-family="Times New Roman,serif" font-size="9.00">output 0.295</text>
</g>
<!-- ready
output 0.000&#45;&gt;key 24661
bias &#45;0.449
h_scaling 0.317
output 0.295 -->
<g id="edge5" class="edge">
<title>ready
output 0.000&#45;&gt;key 24661
bias &#45;0.449
h_scaling 0.317
output 0.295</title>
<path fill="none" stroke="red" stroke-width="3.07" d="M63.68,-742.22C92.11,-729.87 134.72,-711.23 171.62,-694.58 187.53,-687.41 204.7,-679.52 220.53,-672.18"/>
<polygon fill="red" stroke="red" stroke-width="3.07" points="221.3,-674.83 228.9,-667.45 218.35,-668.48 221.3,-674.83"/>
<text text-anchor="middle" x="139.75" y="-715.28" font-family="Times New Roman,serif" font-size="9.00">1.241</text>
</g>
<!-- go
output 0.000 -->
<g id="node2" class="node">
<title>go
output 0.000</title>
<polygon fill="green" stroke="black" points="162.25,-659.27 99,-659.27 99,-628.77 162.25,-628.77 162.25,-659.27"/>
<text text-anchor="middle" x="130.62" y="-646.72" font-family="Times New Roman,serif" font-size="9.00">go</text>
<text text-anchor="middle" x="130.62" y="-635.47" font-family="Times New Roman,serif" font-size="9.00">output 0.000</text>
</g>
<!-- key 38915
bias &#45;0.873
h_scaling 0.519
output 0.741 -->
<g id="node4" class="node">
<title>key 38915
bias &#45;0.873
h_scaling 0.519
output 0.741</title>
<ellipse fill="white" stroke="black" cx="293.62" cy="-50.56" rx="50.56" ry="50.56"/>
<text text-anchor="middle" x="293.62" y="-64.51" font-family="Times New Roman,serif" font-size="9.00">key 38915</text>
<text text-anchor="middle" x="293.62" y="-53.26" font-family="Times New Roman,serif" font-size="9.00">bias &#45;0.873</text>
<text text-anchor="middle" x="293.62" y="-42.01" font-family="Times New Roman,serif" font-size="9.00">h_scaling 0.519</text>
<text text-anchor="middle" x="293.62" y="-30.76" font-family="Times New Roman,serif" font-size="9.00">output 0.741</text>
</g>
<!-- go
output 0.000&#45;&gt;key 38915
bias &#45;0.873
h_scaling 0.519
output 0.741 -->
<g id="edge8" class="edge">
<title>go
output 0.000&#45;&gt;key 38915
bias &#45;0.873
h_scaling 0.519
output 0.741</title>
<path fill="none" stroke="red" stroke-width="1.65" d="M116.86,-628.56C94.71,-603.7 53.62,-550.35 53.62,-496.66 53.62,-496.66 53.62,-496.66 53.62,-197.92 53.62,-114.48 160.69,-77.21 231.8,-61.65"/>
<polygon fill="red" stroke="red" stroke-width="1.65" points="232.24,-64.72 241.31,-59.26 230.81,-57.87 232.24,-64.72"/>
<text text-anchor="middle" x="63.75" y="-344.37" font-family="Times New Roman,serif" font-size="9.00">0.928</text>
</g>
<!-- go
output 0.000&#45;&gt;key 14003
bias &#45;0.030
h_scaling 0.320
output 0.264 -->
<g id="edge17" class="edge">
<title>go
output 0.000&#45;&gt;key 14003
bias &#45;0.030
h_scaling 0.320
output 0.264</title>
<path fill="none" stroke="blue" stroke-width="0.83" d="M124.08,-628.34C109.96,-594.4 80.14,-508.61 108.38,-445.1 119.93,-419.11 142.28,-397.15 163.61,-380.75"/>
<polygon fill="blue" stroke="blue" stroke-width="0.83" points="165.38,-383.06 171.33,-374.3 161.21,-377.43 165.38,-383.06"/>
<text text-anchor="middle" x="120.25" y="-492.73" font-family="Times New Roman,serif" font-size="9.00">&#45;0.243</text>
</g>
<!-- key 218932
bias &#45;0.882
h_scaling 0.760
output 0.012 -->
<g id="node6" class="node">
<title>key 218932
bias &#45;0.882
h_scaling 0.760
output 0.012</title>
<ellipse fill="white" stroke="black" cx="191.62" cy="-495.66" rx="50.56" ry="50.56"/>
<text text-anchor="middle" x="191.62" y="-509.61" font-family="Times New Roman,serif" font-size="9.00">key 218932</text>
<text text-anchor="middle" x="191.62" y="-498.36" font-family="Times New Roman,serif" font-size="9.00">bias &#45;0.882</text>
<text text-anchor="middle" x="191.62" y="-487.11" font-family="Times New Roman,serif" font-size="9.00">h_scaling 0.760</text>
<text text-anchor="middle" x="191.62" y="-475.86" font-family="Times New Roman,serif" font-size="9.00">output 0.012</text>
</g>
<!-- go
output 0.000&#45;&gt;key 218932
bias &#45;0.882
h_scaling 0.760
output 0.012 -->
<g id="edge19" class="edge">
<title>go
output 0.000&#45;&gt;key 218932
bias &#45;0.882
h_scaling 0.760
output 0.012</title>
<path fill="none" stroke="blue" stroke-width="0.51" d="M136.7,-628.45C144.12,-610.65 157.1,-579.5 168.58,-551.95"/>
<polygon fill="blue" stroke="blue" stroke-width="0.51" points="171.79,-553.35 172.41,-542.77 165.33,-550.66 171.79,-553.35"/>
<text text-anchor="middle" x="175.25" y="-566.92" font-family="Times New Roman,serif" font-size="9.00">&#45;0.137</text>
</g>
<!-- key 2073
bias &#45;0.348
h_scaling 0.680
output 0.413 -->
<g id="node8" class="node">
<title>key 2073
bias &#45;0.348
h_scaling 0.680
output 0.413</title>
<ellipse fill="white" stroke="black" cx="367.62" cy="-495.66" rx="50.56" ry="50.56"/>
<text text-anchor="middle" x="367.62" y="-509.61" font-family="Times New Roman,serif" font-size="9.00">key 2073</text>
<text text-anchor="middle" x="367.62" y="-498.36" font-family="Times New Roman,serif" font-size="9.00">bias &#45;0.348</text>
<text text-anchor="middle" x="367.62" y="-487.11" font-family="Times New Roman,serif" font-size="9.00">h_scaling 0.680</text>
<text text-anchor="middle" x="367.62" y="-475.86" font-family="Times New Roman,serif" font-size="9.00">output 0.413</text>
</g>
<!-- go
output 0.000&#45;&gt;key 2073
bias &#45;0.348
h_scaling 0.680
output 0.413 -->
<g id="edge2" class="edge">
<title>go
output 0.000&#45;&gt;key 2073
bias &#45;0.348
h_scaling 0.680
output 0.413</title>
<path fill="none" stroke="red" stroke-width="1.71" d="M156.81,-628.27C174.31,-618.42 197.84,-605.16 218.62,-593.47 255.95,-572.46 266.84,-569.76 302.62,-546.22 307.96,-542.71 313.43,-538.9 318.82,-535.01"/>
<polygon fill="red" stroke="red" stroke-width="1.71" points="320.41,-537.71 326.39,-528.96 316.26,-532.07 320.41,-537.71"/>
<text text-anchor="middle" x="283.75" y="-566.92" font-family="Times New Roman,serif" font-size="9.00">1.076</text>
</g>
<!-- output
bias &#45;0.016
h_scaling 0.772
output 0.007 -->
<g id="node3" class="node">
<title>output
bias &#45;0.016
h_scaling 0.772
output 0.007</title>
<ellipse fill="lightblue" stroke="black" cx="294.62" cy="-198.92" rx="50.56" ry="50.56"/>
<text text-anchor="middle" x="294.62" y="-212.87" font-family="Times New Roman,serif" font-size="9.00">output</text>
<text text-anchor="middle" x="294.62" y="-201.62" font-family="Times New Roman,serif" font-size="9.00">bias &#45;0.016</text>
<text text-anchor="middle" x="294.62" y="-190.37" font-family="Times New Roman,serif" font-size="9.00">h_scaling 0.772</text>
<text text-anchor="middle" x="294.62" y="-179.12" font-family="Times New Roman,serif" font-size="9.00">output 0.007</text>
</g>
<!-- output
bias &#45;0.016
h_scaling 0.772
output 0.007&#45;&gt;key 38915
bias &#45;0.873
h_scaling 0.519
output 0.741 -->
<g id="edge13" class="edge">
<title>output
bias &#45;0.016
h_scaling 0.772
output 0.007&#45;&gt;key 38915
bias &#45;0.873
h_scaling 0.519
output 0.741</title>
<path fill="none" stroke="red" stroke-width="2.47" d="M275.65,-151.61C273.47,-144.6 271.59,-137.36 270.38,-130.37 269.2,-123.6 269.29,-116.59 270.2,-109.67"/>
<polygon fill="red" stroke="red" stroke-width="2.47" points="274.22,-110.47 272.77,-99.98 267.36,-109.09 274.22,-110.47"/>
<text text-anchor="middle" x="280.75" y="-121.82" font-family="Times New Roman,serif" font-size="9.00">0.857</text>
</g>
<!-- key 38915
bias &#45;0.873
h_scaling 0.519
output 0.741&#45;&gt;output
bias &#45;0.016
h_scaling 0.772
output 0.007 -->
<g id="edge11" class="edge">
<title>key 38915
bias &#45;0.873
h_scaling 0.519
output 0.741&#45;&gt;output
bias &#45;0.016
h_scaling 0.772
output 0.007</title>
<path fill="none" stroke="blue" stroke-width="2.71" d="M293.96,-101.29C294.04,-111.88 294.11,-123.2 294.19,-134.23"/>
<polygon fill="blue" stroke="blue" stroke-width="2.71" points="290.72,-133.99 294.28,-143.96 297.72,-133.94 290.72,-133.99"/>
<text text-anchor="middle" x="306.25" y="-121.82" font-family="Times New Roman,serif" font-size="9.00">&#45;0.871</text>
</g>
<!-- key 38915
bias &#45;0.873
h_scaling 0.519
output 0.741&#45;&gt;key 38915
bias &#45;0.873
h_scaling 0.519
output 0.741 -->
<g id="edge9" class="edge">
<title>key 38915
bias &#45;0.873
h_scaling 0.519
output 0.741&#45;&gt;key 38915
bias &#45;0.873
h_scaling 0.519
output 0.741</title>
<path fill="none" stroke="red" stroke-width="3.1" d="M342.62,-64.16C353.9,-62.99 362.18,-58.45 362.18,-50.56 362.18,-46.36 359.84,-43.12 355.96,-40.82"/>
<polygon fill="red" stroke="red" stroke-width="3.1" points="357.2,-37.38 346.62,-37.96 355.25,-44.1 357.2,-37.38"/>
<text text-anchor="middle" x="372.31" y="-47.63" font-family="Times New Roman,serif" font-size="9.00">1.147</text>
</g>
<!-- key 14003
bias &#45;0.030
h_scaling 0.320
output 0.264&#45;&gt;output
bias &#45;0.016
h_scaling 0.772
output 0.007 -->
<g id="edge4" class="edge">
<title>key 14003
bias &#45;0.030
h_scaling 0.320
output 0.264&#45;&gt;output
bias &#45;0.016
h_scaling 0.772
output 0.007</title>
<path fill="none" stroke="red" stroke-width="3.1" d="M239.33,-302.38C247.18,-287.82 256.03,-271.43 264.31,-256.08"/>
<polygon fill="red" stroke="red" stroke-width="3.1" points="267.13,-258.52 268.8,-248.06 260.97,-255.2 267.13,-258.52"/>
<text text-anchor="middle" x="267.75" y="-270.18" font-family="Times New Roman,serif" font-size="9.00">0.997</text>
</g>
<!-- key 14003
bias &#45;0.030
h_scaling 0.320
output 0.264&#45;&gt;key 14003
bias &#45;0.030
h_scaling 0.320
output 0.264 -->
<g id="edge16" class="edge">
<title>key 14003
bias &#45;0.030
h_scaling 0.320
output 0.264&#45;&gt;key 14003
bias &#45;0.030
h_scaling 0.320
output 0.264</title>
<path fill="none" stroke="red" stroke-width="1.98" d="M264.62,-360.89C275.9,-359.72 284.18,-355.19 284.18,-347.29 284.18,-342.73 281.41,-339.28 276.9,-336.97"/>
<polygon fill="red" stroke="red" stroke-width="1.98" points="277.18,-332.89 266.62,-333.69 275.38,-339.65 277.18,-332.89"/>
<text text-anchor="middle" x="294.31" y="-344.37" font-family="Times New Roman,serif" font-size="9.00">0.627</text>
</g>
<!-- key 218932
bias &#45;0.882
h_scaling 0.760
output 0.012&#45;&gt;key 14003
bias &#45;0.030
h_scaling 0.320
output 0.264 -->
<g id="edge18" class="edge">
<title>key 218932
bias &#45;0.882
h_scaling 0.760
output 0.012&#45;&gt;key 14003
bias &#45;0.030
h_scaling 0.320
output 0.264</title>
<path fill="none" stroke="red" d="M199.68,-445.51C201.64,-433.56 203.76,-420.66 205.79,-408.27"/>
<polygon fill="red" stroke="red" points="209.38,-408.99 207.55,-398.56 202.47,-407.86 209.38,-408.99"/>
<text text-anchor="middle" x="214.75" y="-418.55" font-family="Times New Roman,serif" font-size="9.00">0.301</text>
</g>
<!-- key 24661
bias &#45;0.449
h_scaling 0.317
output 0.295&#45;&gt;key 14003
bias &#45;0.030
h_scaling 0.320
output 0.264 -->
<g id="edge14" class="edge">
<title>key 24661
bias &#45;0.449
h_scaling 0.317
output 0.295&#45;&gt;key 14003
bias &#45;0.030
h_scaling 0.320
output 0.264</title>
<path fill="none" stroke="red" stroke-width="1.14" d="M274.89,-593.24C271.14,-552.86 264.07,-494.71 251.62,-445.1 248.29,-431.79 243.72,-417.78 238.97,-404.69"/>
<polygon fill="red" stroke="red" stroke-width="1.14" points="241.91,-403.56 235.14,-395.41 235.35,-406 241.91,-403.56"/>
<text text-anchor="middle" x="279.75" y="-492.73" font-family="Times New Roman,serif" font-size="9.00">0.376</text>
</g>
<!-- key 24661
bias &#45;0.449
h_scaling 0.317
output 0.295&#45;&gt;key 24661
bias &#45;0.449
h_scaling 0.317
output 0.295 -->
<g id="edge7" class="edge">
<title>key 24661
bias &#45;0.449
h_scaling 0.317
output 0.295&#45;&gt;key 24661
bias &#45;0.449
h_scaling 0.317
output 0.295</title>
<path fill="none" stroke="red" stroke-width="2.12" d="M327.62,-657.63C338.9,-656.45 347.18,-651.92 347.18,-644.02 347.18,-639.46 344.41,-636.02 339.9,-633.7"/>
<polygon fill="red" stroke="red" stroke-width="2.12" points="341.18,-629.62 330.62,-630.42 339.38,-636.38 341.18,-629.62"/>
<text text-anchor="middle" x="357.31" y="-641.1" font-family="Times New Roman,serif" font-size="9.00">0.702</text>
</g>
<!-- key 24661
bias &#45;0.449
h_scaling 0.317
output 0.295&#45;&gt;key 2073
bias &#45;0.348
h_scaling 0.680
output 0.413 -->
<g id="edge6" class="edge">
<title>key 24661
bias &#45;0.449
h_scaling 0.317
output 0.295&#45;&gt;key 2073
bias &#45;0.348
h_scaling 0.680
output 0.413</title>
<path fill="none" stroke="blue" stroke-width="0.71" d="M304.61,-600.29C314.43,-584.13 325.73,-565.56 336.01,-548.64"/>
<polygon fill="blue" stroke="blue" stroke-width="0.71" points="339.41,-549.8 341.61,-539.44 333.42,-546.16 339.41,-549.8"/>
<text text-anchor="middle" x="337.25" y="-566.92" font-family="Times New Roman,serif" font-size="9.00">&#45;0.205</text>
</g>
<!-- key 2073
bias &#45;0.348
h_scaling 0.680
output 0.413&#45;&gt;output
bias &#45;0.016
h_scaling 0.772
output 0.007 -->
<g id="edge1" class="edge">
<title>key 2073
bias &#45;0.348
h_scaling 0.680
output 0.413&#45;&gt;output
bias &#45;0.016
h_scaling 0.772
output 0.007</title>
<path fill="none" stroke="blue" stroke-width="3.1" d="M355.65,-446.32C343.16,-395.88 323.53,-316.65 309.93,-261.7"/>
<polygon fill="blue" stroke="blue" stroke-width="3.1" points="313.41,-261.16 307.6,-252.29 306.61,-262.84 313.41,-261.16"/>
<text text-anchor="middle" x="354.25" y="-344.37" font-family="Times New Roman,serif" font-size="9.00">&#45;1.000</text>
</g>
<!-- key 2073
bias &#45;0.348
h_scaling 0.680
output 0.413&#45;&gt;key 38915
bias &#45;0.873
h_scaling 0.519
output 0.741 -->
<g id="edge10" class="edge">
<title>key 2073
bias &#45;0.348
h_scaling 0.680
output 0.413&#45;&gt;key 38915
bias &#45;0.873
h_scaling 0.519
output 0.741</title>
<path fill="none" stroke="red" stroke-width="1.4" d="M374.54,-445.14C382.21,-376.41 389.33,-249.2 354.62,-148.37 348.95,-131.88 340,-115.33 330.68,-100.68"/>
<polygon fill="red" stroke="red" stroke-width="1.4" points="333.64,-98.29 325.21,-91.87 327.8,-102.15 333.64,-98.29"/>
<text text-anchor="middle" x="388.75" y="-270.18" font-family="Times New Roman,serif" font-size="9.00">0.446</text>
</g>
<!-- key 2073
bias &#45;0.348
h_scaling 0.680
output 0.413&#45;&gt;key 14003
bias &#45;0.030
h_scaling 0.320
output 0.264 -->
<g id="edge15" class="edge">
<title>key 2073
bias &#45;0.348
h_scaling 0.680
output 0.413&#45;&gt;key 14003
bias &#45;0.030
h_scaling 0.320
output 0.264</title>
<path fill="none" stroke="blue" stroke-width="3.1" d="M332.67,-458.57C319.34,-445.02 303.93,-429.58 289.62,-415.85 281.15,-407.71 271.99,-399.16 263.1,-390.98"/>
<polygon fill="blue" stroke="blue" stroke-width="3.1" points="265.59,-388.77 255.85,-384.6 260.87,-393.94 265.59,-388.77"/>
<text text-anchor="middle" x="312.25" y="-418.55" font-family="Times New Roman,serif" font-size="9.00">&#45;1.000</text>
</g>
<!-- key 2073
bias &#45;0.348
h_scaling 0.680
output 0.413&#45;&gt;key 2073
bias &#45;0.348
h_scaling 0.680
output 0.413 -->
<g id="edge3" class="edge">
<title>key 2073
bias &#45;0.348
h_scaling 0.680
output 0.413&#45;&gt;key 2073
bias &#45;0.348
h_scaling 0.680
output 0.413</title>
<path fill="none" stroke="red" stroke-width="2.33" d="M416.62,-509.26C427.9,-508.09 436.18,-503.55 436.18,-495.66 436.18,-491.09 433.41,-487.65 428.9,-485.33"/>
<polygon fill="red" stroke="red" stroke-width="2.33" points="430.18,-481.25 419.62,-482.05 428.38,-488.02 430.18,-481.25"/>
<text text-anchor="middle" x="446.31" y="-492.73" font-family="Times New Roman,serif" font-size="9.00">0.761</text>
</g>
</g>
</svg>
