<?xml version="1.0" encoding="UTF-8" standalone="no"?>
<!DOCTYPE svg PUBLIC "-//W3C//DTD SVG 1.1//EN"
 "http://www.w3.org/Graphics/SVG/1.1/DTD/svg11.dtd">
<!-- Generated by graphviz version 2.43.0 (0)
 -->
<!-- Title: %3 Pages: 1 -->
<svg width="430pt" height="892pt"
 viewBox="0.00 0.00 429.50 892.40" xmlns="http://www.w3.org/2000/svg" xmlns:xlink="http://www.w3.org/1999/xlink">
<g id="graph0" class="graph" transform="scale(1 1) rotate(0) translate(4 888.4)">
<title>%3</title>
<polygon fill="white" stroke="transparent" points="-4,4 -4,-888.4 425.5,-888.4 425.5,4 -4,4"/>
<!-- ready -->
<g id="node1" class="node">
<title>ready</title>
<polygon fill="yellow" stroke="black" points="43,-884.4 0,-884.4 0,-866.4 43,-866.4 43,-884.4"/>
<text text-anchor="middle" x="21.5" y="-873.2" font-family="Times,serif" font-size="9.00">ready</text>
</g>
<!-- key 26658
bias &#45;0.560
h_scaling 0.815 -->
<g id="node4" class="node">
<title>key 26658
bias &#45;0.560
h_scaling 0.815</title>
<ellipse fill="white" stroke="black" cx="143.5" cy="-756.76" rx="63.78" ry="63.78"/>
<text text-anchor="middle" x="143.5" y="-764.56" font-family="Times,serif" font-size="9.00">key 26658</text>
<text text-anchor="middle" x="143.5" y="-754.56" font-family="Times,serif" font-size="9.00">bias &#45;0.560</text>
<text text-anchor="middle" x="143.5" y="-744.56" font-family="Times,serif" font-size="9.00">h_scaling 0.815</text>
</g>
<!-- ready&#45;&gt;key 26658
bias &#45;0.560
h_scaling 0.815 -->
<g id="edge8" class="edge">
<title>ready&#45;&gt;key 26658
bias &#45;0.560
h_scaling 0.815</title>
<path fill="none" stroke="red" stroke-width="1.33" d="M29.89,-866.38C42.47,-854.35 67.23,-830.67 90.44,-808.48"/>
<polygon fill="red" stroke="red" stroke-width="1.33" points="93.1,-810.79 97.9,-801.35 88.26,-805.73 93.1,-810.79"/>
<text text-anchor="middle" x="72.5" y="-841.2" font-family="Times,serif" font-size="9.00">0.041</text>
</g>
<!-- key 12783
bias &#45;0.903
h_scaling 0.920 -->
<g id="node6" class="node">
<title>key 12783
bias &#45;0.903
h_scaling 0.920</title>
<ellipse fill="white" stroke="black" cx="187.5" cy="-63.64" rx="63.78" ry="63.78"/>
<text text-anchor="middle" x="187.5" y="-71.44" font-family="Times,serif" font-size="9.00">key 12783</text>
<text text-anchor="middle" x="187.5" y="-61.44" font-family="Times,serif" font-size="9.00">bias &#45;0.903</text>
<text text-anchor="middle" x="187.5" y="-51.44" font-family="Times,serif" font-size="9.00">h_scaling 0.920</text>
</g>
<!-- ready&#45;&gt;key 12783
bias &#45;0.903
h_scaling 0.920 -->
<g id="edge4" class="edge">
<title>ready&#45;&gt;key 12783
bias &#45;0.903
h_scaling 0.920</title>
<path fill="none" stroke="blue" stroke-width="0.1" d="M19.6,-866.25C15.36,-847.31 5.5,-798.84 5.5,-757.76 5.5,-757.76 5.5,-757.76 5.5,-235.92 5.5,-170.5 68.63,-122.72 120.53,-94.5"/>
<polygon fill="blue" stroke="blue" stroke-width="0.1" points="122.21,-97.58 129.41,-89.8 118.94,-91.39 122.21,-97.58"/>
</g>
<!-- go -->
<g id="node2" class="node">
<title>go</title>
<polygon fill="green" stroke="black" points="103.5,-592.48 75.5,-592.48 75.5,-574.48 103.5,-574.48 103.5,-592.48"/>
<text text-anchor="middle" x="89.5" y="-581.28" font-family="Times,serif" font-size="9.00">go</text>
</g>
<!-- key 1702
bias &#45;0.117
h_scaling 0.562 -->
<g id="node5" class="node">
<title>key 1702
bias &#45;0.117
h_scaling 0.562</title>
<ellipse fill="white" stroke="black" cx="187.5" cy="-236.92" rx="63.78" ry="63.78"/>
<text text-anchor="middle" x="187.5" y="-244.72" font-family="Times,serif" font-size="9.00">key 1702</text>
<text text-anchor="middle" x="187.5" y="-234.72" font-family="Times,serif" font-size="9.00">bias &#45;0.117</text>
<text text-anchor="middle" x="187.5" y="-224.72" font-family="Times,serif" font-size="9.00">h_scaling 0.562</text>
</g>
<!-- go&#45;&gt;key 1702
bias &#45;0.117
h_scaling 0.562 -->
<g id="edge3" class="edge">
<title>go&#45;&gt;key 1702
bias &#45;0.117
h_scaling 0.562</title>
<path fill="none" stroke="red" stroke-width="1.37" d="M88.32,-574.39C84.14,-543.53 71.95,-430.69 103.5,-346.56 110.98,-326.61 123.48,-307.34 136.57,-290.72"/>
<polygon fill="red" stroke="red" stroke-width="1.37" points="139.44,-292.75 143.03,-282.78 134.01,-288.33 139.44,-292.75"/>
<text text-anchor="middle" x="117.5" y="-408" font-family="Times,serif" font-size="9.00">0.042</text>
</g>
<!-- go&#45;&gt;key 12783
bias &#45;0.903
h_scaling 0.920 -->
<g id="edge7" class="edge">
<title>go&#45;&gt;key 12783
bias &#45;0.903
h_scaling 0.920</title>
<path fill="none" stroke="red" stroke-width="1.36" d="M88.01,-574.2C80.49,-530.41 49.7,-322.06 114.5,-173.28 122,-156.05 132.27,-138.62 142.74,-122.91"/>
<polygon fill="red" stroke="red" stroke-width="1.36" points="145.82,-124.61 148.56,-114.38 140.04,-120.67 145.82,-124.61"/>
<text text-anchor="middle" x="92.5" y="-321.36" font-family="Times,serif" font-size="9.00">0.042</text>
</g>
<!-- key 86706
bias &#45;0.672
h_scaling 0.584 -->
<g id="node8" class="node">
<title>key 86706
bias &#45;0.672
h_scaling 0.584</title>
<ellipse fill="white" stroke="black" cx="237.5" cy="-410.2" rx="63.78" ry="63.78"/>
<text text-anchor="middle" x="237.5" y="-418" font-family="Times,serif" font-size="9.00">key 86706</text>
<text text-anchor="middle" x="237.5" y="-408" font-family="Times,serif" font-size="9.00">bias &#45;0.672</text>
<text text-anchor="middle" x="237.5" y="-398" font-family="Times,serif" font-size="9.00">h_scaling 0.584</text>
</g>
<!-- go&#45;&gt;key 86706
bias &#45;0.672
h_scaling 0.584 -->
<g id="edge11" class="edge">
<title>go&#45;&gt;key 86706
bias &#45;0.672
h_scaling 0.584</title>
<path fill="none" stroke="blue" stroke-width="0.1" d="M96.64,-574.22C113.26,-554.98 155.7,-505.86 189.69,-466.53"/>
<polygon fill="blue" stroke="blue" stroke-width="0.1" points="192.47,-468.66 196.36,-458.81 187.18,-464.08 192.47,-468.66"/>
</g>
<!-- output
bias 0.397
h_scaling 0.712 -->
<g id="node3" class="node">
<title>output
bias 0.397
h_scaling 0.712</title>
<ellipse fill="lightblue" stroke="black" cx="332.5" cy="-583.48" rx="63.78" ry="63.78"/>
<text text-anchor="middle" x="332.5" y="-591.28" font-family="Times,serif" font-size="9.00">output</text>
<text text-anchor="middle" x="332.5" y="-581.28" font-family="Times,serif" font-size="9.00">bias 0.397</text>
<text text-anchor="middle" x="332.5" y="-571.28" font-family="Times,serif" font-size="9.00">h_scaling 0.712</text>
</g>
<!-- output
bias 0.397
h_scaling 0.712&#45;&gt;key 12783
bias &#45;0.903
h_scaling 0.920 -->
<g id="edge5" class="edge">
<title>output
bias 0.397
h_scaling 0.712&#45;&gt;key 12783
bias &#45;0.903
h_scaling 0.920</title>
<path fill="none" stroke="red" stroke-width="0.98" d="M359.72,-525.66C362.51,-517.81 364.9,-509.73 366.5,-501.84 395.51,-358.36 419.56,-298.35 343.5,-173.28 322.73,-139.13 286.7,-112.97 254.49,-94.89"/>
<polygon fill="red" stroke="red" stroke-width="0.98" points="255.98,-91.72 245.52,-90.01 252.63,-97.87 255.98,-91.72"/>
<text text-anchor="middle" x="407.5" y="-321.36" font-family="Times,serif" font-size="9.00">0.029</text>
</g>
<!-- output
bias 0.397
h_scaling 0.712&#45;&gt;key 86706
bias &#45;0.672
h_scaling 0.584 -->
<g id="edge12" class="edge">
<title>output
bias 0.397
h_scaling 0.712&#45;&gt;key 86706
bias &#45;0.672
h_scaling 0.584</title>
<path fill="none" stroke="red" stroke-width="0.41" d="M301.72,-527.41C296.95,-518.85 292.09,-510.11 287.5,-501.84 282.73,-493.23 277.71,-484.16 272.77,-475.22"/>
<polygon fill="red" stroke="red" stroke-width="0.41" points="275.76,-473.41 267.86,-466.34 269.63,-476.79 275.76,-473.41"/>
<text text-anchor="middle" x="301.5" y="-494.64" font-family="Times,serif" font-size="9.00">0.010</text>
</g>
<!-- key 26658
bias &#45;0.560
h_scaling 0.815&#45;&gt;output
bias 0.397
h_scaling 0.712 -->
<g id="edge15" class="edge">
<title>key 26658
bias &#45;0.560
h_scaling 0.815&#45;&gt;output
bias 0.397
h_scaling 0.712</title>
<path fill="none" stroke="red" stroke-width="0.72" d="M190.22,-713.42C216.8,-689.33 250.22,-659.04 277.99,-633.88"/>
<polygon fill="red" stroke="red" stroke-width="0.72" points="280.6,-636.23 285.66,-626.92 275.9,-631.04 280.6,-636.23"/>
<text text-anchor="middle" x="252.5" y="-667.92" font-family="Times,serif" font-size="9.00">0.021</text>
</g>
<!-- key 26658
bias &#45;0.560
h_scaling 0.815&#45;&gt;key 26658
bias &#45;0.560
h_scaling 0.815 -->
<g id="edge13" class="edge">
<title>key 26658
bias &#45;0.560
h_scaling 0.815&#45;&gt;key 26658
bias &#45;0.560
h_scaling 0.815</title>
<path fill="none" stroke="red" stroke-width="2.31" d="M205.44,-772.05C217,-770.17 225.14,-765.07 225.14,-756.76 225.14,-751.04 221.29,-746.84 215.13,-744.17"/>
<polygon fill="red" stroke="red" stroke-width="2.31" points="216.02,-740.78 205.44,-741.46 214.13,-747.52 216.02,-740.78"/>
<text text-anchor="middle" x="239.14" y="-754.56" font-family="Times,serif" font-size="9.00">0.074</text>
</g>
<!-- key 26658
bias &#45;0.560
h_scaling 0.815&#45;&gt;key 1702
bias &#45;0.117
h_scaling 0.562 -->
<g id="edge10" class="edge">
<title>key 26658
bias &#45;0.560
h_scaling 0.815&#45;&gt;key 1702
bias &#45;0.117
h_scaling 0.562</title>
<path fill="none" stroke="blue" stroke-width="0.1" d="M143.66,-693.09C144.57,-612.56 148.55,-468.58 164.5,-346.56 166.1,-334.34 168.33,-321.45 170.78,-308.99"/>
<polygon fill="blue" stroke="blue" stroke-width="0.1" points="174.23,-309.6 172.79,-299.1 167.37,-308.21 174.23,-309.6"/>
</g>
<!-- key 1702
bias &#45;0.117
h_scaling 0.562&#45;&gt;output
bias 0.397
h_scaling 0.712 -->
<g id="edge6" class="edge">
<title>key 1702
bias &#45;0.117
h_scaling 0.562&#45;&gt;output
bias 0.397
h_scaling 0.712</title>
<path fill="none" stroke="blue" stroke-width="0.1" d="M241.33,-271.28C266.78,-290.09 294.95,-315.95 310.5,-346.56 336.07,-396.89 340.55,-461.06 339.2,-509.76"/>
<polygon fill="blue" stroke="blue" stroke-width="0.1" points="335.7,-509.79 338.83,-519.91 342.69,-510.04 335.7,-509.79"/>
</g>
<!-- key 1702
bias &#45;0.117
h_scaling 0.562&#45;&gt;key 1702
bias &#45;0.117
h_scaling 0.562 -->
<g id="edge14" class="edge">
<title>key 1702
bias &#45;0.117
h_scaling 0.562&#45;&gt;key 1702
bias &#45;0.117
h_scaling 0.562</title>
<path fill="none" stroke="red" stroke-width="2.24" d="M249.44,-252.22C261,-250.33 269.14,-245.23 269.14,-236.92 269.14,-231.2 265.29,-227.01 259.13,-224.33"/>
<polygon fill="red" stroke="red" stroke-width="2.24" points="260.02,-220.94 249.44,-221.62 258.13,-227.68 260.02,-220.94"/>
<text text-anchor="middle" x="283.14" y="-234.72" font-family="Times,serif" font-size="9.00">0.071</text>
</g>
<!-- key 1702
bias &#45;0.117
h_scaling 0.562&#45;&gt;key 12783
bias &#45;0.903
h_scaling 0.920 -->
<g id="edge1" class="edge">
<title>key 1702
bias &#45;0.117
h_scaling 0.562&#45;&gt;key 12783
bias &#45;0.903
h_scaling 0.920</title>
<path fill="none" stroke="red" stroke-width="2.2" d="M187.5,-173.11C187.5,-161.59 187.5,-149.48 187.5,-137.69"/>
<polygon fill="red" stroke="red" stroke-width="2.2" points="191,-137.44 187.5,-127.44 184,-137.44 191,-137.44"/>
<text text-anchor="middle" x="201.5" y="-148.08" font-family="Times,serif" font-size="9.00">0.070</text>
</g>
<!-- key 12783
bias &#45;0.903
h_scaling 0.920&#45;&gt;output
bias 0.397
h_scaling 0.712 -->
<g id="edge2" class="edge">
<title>key 12783
bias &#45;0.903
h_scaling 0.920&#45;&gt;output
bias 0.397
h_scaling 0.712</title>
<path fill="none" stroke="blue" stroke-width="0.1" d="M239.92,-100.19C263.86,-119.13 290.4,-144.46 306.5,-173.28 376.28,-298.16 346.12,-348.93 352.5,-491.84 352.79,-498.28 352.5,-504.93 351.8,-511.55"/>
<polygon fill="blue" stroke="blue" stroke-width="0.1" points="348.27,-511.54 350.4,-521.92 355.21,-512.48 348.27,-511.54"/>
</g>
<!-- key 12783
bias &#45;0.903
h_scaling 0.920&#45;&gt;key 12783
bias &#45;0.903
h_scaling 0.920 -->
<g id="edge9" class="edge">
<title>key 12783
bias &#45;0.903
h_scaling 0.920&#45;&gt;key 12783
bias &#45;0.903
h_scaling 0.920</title>
<path fill="none" stroke="red" stroke-width="2.6" d="M249.44,-78.94C261,-77.05 269.14,-71.95 269.14,-63.64 269.14,-57.92 265.29,-53.73 259.13,-51.05"/>
<polygon fill="red" stroke="red" stroke-width="2.6" points="260.02,-47.66 249.44,-48.34 258.13,-54.4 260.02,-47.66"/>
<text text-anchor="middle" x="283.14" y="-61.44" font-family="Times,serif" font-size="9.00">0.083</text>
</g>
<!-- key 297776
bias &#45;0.603
h_scaling 0.499 -->
<g id="node7" class="node">
<title>key 297776
bias &#45;0.603
h_scaling 0.499</title>
<ellipse fill="white" stroke="black" cx="334.5" cy="-756.76" rx="63.78" ry="63.78"/>
<text text-anchor="middle" x="334.5" y="-764.56" font-family="Times,serif" font-size="9.00">key 297776</text>
<text text-anchor="middle" x="334.5" y="-754.56" font-family="Times,serif" font-size="9.00">bias &#45;0.603</text>
<text text-anchor="middle" x="334.5" y="-744.56" font-family="Times,serif" font-size="9.00">h_scaling 0.499</text>
</g>
<!-- key 297776
bias &#45;0.603
h_scaling 0.499&#45;&gt;output
bias 0.397
h_scaling 0.712 -->
<g id="edge16" class="edge">
<title>key 297776
bias &#45;0.603
h_scaling 0.499&#45;&gt;output
bias 0.397
h_scaling 0.712</title>
<path fill="none" stroke="blue" stroke-width="0.1" d="M333.77,-692.95C333.63,-681.43 333.49,-669.32 333.35,-657.53"/>
<polygon fill="blue" stroke="blue" stroke-width="0.1" points="336.85,-657.23 333.23,-647.28 329.85,-657.32 336.85,-657.23"/>
</g>
<!-- key 86706
bias &#45;0.672
h_scaling 0.584&#45;&gt;key 1702
bias &#45;0.117
h_scaling 0.562 -->
<g id="edge17" class="edge">
<title>key 86706
bias &#45;0.672
h_scaling 0.584&#45;&gt;key 1702
bias &#45;0.117
h_scaling 0.562</title>
<path fill="none" stroke="red" stroke-width="0.72" d="M219.87,-348.81C216.03,-335.64 211.92,-321.58 207.98,-308.07"/>
<polygon fill="red" stroke="red" stroke-width="0.72" points="211.3,-306.96 205.14,-298.34 204.58,-308.92 211.3,-306.96"/>
<text text-anchor="middle" x="226.5" y="-321.36" font-family="Times,serif" font-size="9.00">0.021</text>
</g>
</g>
</svg>
