<?xml version="1.0" encoding="UTF-8" standalone="no"?>
<!DOCTYPE svg PUBLIC "-//W3C//DTD SVG 1.1//EN"
 "http://www.w3.org/Graphics/SVG/1.1/DTD/svg11.dtd">
<!-- Generated by graphviz version 2.43.0 (0)
 -->
<!-- Title: %3 Pages: 1 -->
<svg width="457pt" height="892pt"
 viewBox="0.00 0.00 456.50 892.40" xmlns="http://www.w3.org/2000/svg" xmlns:xlink="http://www.w3.org/1999/xlink">
<g id="graph0" class="graph" transform="scale(1 1) rotate(0) translate(4 888.4)">
<title>%3</title>
<polygon fill="white" stroke="transparent" points="-4,4 -4,-888.4 452.5,-888.4 452.5,4 -4,4"/>
<!-- ready -->
<g id="node1" class="node">
<title>ready</title>
<polygon fill="yellow" stroke="black" points="43,-884.4 0,-884.4 0,-866.4 43,-866.4 43,-884.4"/>
<text text-anchor="middle" x="21.5" y="-873.2" font-family="Times,serif" font-size="9.00">ready</text>
</g>
<!-- key 26658
bias &#45;0.560
h_scaling 0.815 -->
<g id="node4" class="node">
<title>key 26658
bias &#45;0.560
h_scaling 0.815</title>
<ellipse fill="white" stroke="black" cx="161.5" cy="-756.76" rx="63.78" ry="63.78"/>
<text text-anchor="middle" x="161.5" y="-764.56" font-family="Times,serif" font-size="9.00">key 26658</text>
<text text-anchor="middle" x="161.5" y="-754.56" font-family="Times,serif" font-size="9.00">bias &#45;0.560</text>
<text text-anchor="middle" x="161.5" y="-744.56" font-family="Times,serif" font-size="9.00">h_scaling 0.815</text>
</g>
<!-- ready&#45;&gt;key 26658
bias &#45;0.560
h_scaling 0.815 -->
<g id="edge8" class="edge">
<title>ready&#45;&gt;key 26658
bias &#45;0.560
h_scaling 0.815</title>
<path fill="none" stroke="red" stroke-width="3" d="M31.12,-866.38C46.37,-853.68 77.21,-827.98 105.07,-804.77"/>
<polygon fill="red" stroke="red" stroke-width="3" points="107.39,-807.39 112.83,-798.3 102.91,-802.02 107.39,-807.39"/>
<text text-anchor="middle" x="77.5" y="-841.2" font-family="Times,serif" font-size="9.00">0.967</text>
</g>
<!-- key 12783
bias &#45;0.903
h_scaling 0.920 -->
<g id="node6" class="node">
<title>key 12783
bias &#45;0.903
h_scaling 0.920</title>
<ellipse fill="white" stroke="black" cx="188.5" cy="-63.64" rx="63.78" ry="63.78"/>
<text text-anchor="middle" x="188.5" y="-71.44" font-family="Times,serif" font-size="9.00">key 12783</text>
<text text-anchor="middle" x="188.5" y="-61.44" font-family="Times,serif" font-size="9.00">bias &#45;0.903</text>
<text text-anchor="middle" x="188.5" y="-51.44" font-family="Times,serif" font-size="9.00">h_scaling 0.920</text>
</g>
<!-- ready&#45;&gt;key 12783
bias &#45;0.903
h_scaling 0.920 -->
<g id="edge4" class="edge">
<title>ready&#45;&gt;key 12783
bias &#45;0.903
h_scaling 0.920</title>
<path fill="none" stroke="blue" stroke-width="1.09" d="M19.6,-866.25C15.36,-847.31 5.5,-798.84 5.5,-757.76 5.5,-757.76 5.5,-757.76 5.5,-235.92 5.5,-170.2 69.18,-122.42 121.41,-94.28"/>
<polygon fill="blue" stroke="blue" stroke-width="1.09" points="123.12,-97.33 130.35,-89.59 119.86,-91.13 123.12,-97.33"/>
<text text-anchor="middle" x="21" y="-494.64" font-family="Times,serif" font-size="9.00">&#45;0.329</text>
</g>
<!-- go -->
<g id="node2" class="node">
<title>go</title>
<polygon fill="green" stroke="black" points="90.5,-592.48 62.5,-592.48 62.5,-574.48 90.5,-574.48 90.5,-592.48"/>
<text text-anchor="middle" x="76.5" y="-581.28" font-family="Times,serif" font-size="9.00">go</text>
</g>
<!-- key 1702
bias &#45;0.117
h_scaling 0.562 -->
<g id="node5" class="node">
<title>key 1702
bias &#45;0.117
h_scaling 0.562</title>
<ellipse fill="white" stroke="black" cx="188.5" cy="-236.92" rx="63.78" ry="63.78"/>
<text text-anchor="middle" x="188.5" y="-244.72" font-family="Times,serif" font-size="9.00">key 1702</text>
<text text-anchor="middle" x="188.5" y="-234.72" font-family="Times,serif" font-size="9.00">bias &#45;0.117</text>
<text text-anchor="middle" x="188.5" y="-224.72" font-family="Times,serif" font-size="9.00">h_scaling 0.562</text>
</g>
<!-- go&#45;&gt;key 1702
bias &#45;0.117
h_scaling 0.562 -->
<g id="edge3" class="edge">
<title>go&#45;&gt;key 1702
bias &#45;0.117
h_scaling 0.562</title>
<path fill="none" stroke="red" stroke-width="3.07" d="M76.61,-574.41C77.27,-543.64 81.97,-431.06 115.5,-346.56 122.47,-329 132.6,-311.4 143.12,-295.62"/>
<polygon fill="red" stroke="red" stroke-width="3.07" points="146.22,-297.29 148.98,-287.06 140.44,-293.33 146.22,-297.29"/>
<text text-anchor="middle" x="129.5" y="-408" font-family="Times,serif" font-size="9.00">0.991</text>
</g>
<!-- go&#45;&gt;key 12783
bias &#45;0.903
h_scaling 0.920 -->
<g id="edge7" class="edge">
<title>go&#45;&gt;key 12783
bias &#45;0.903
h_scaling 0.920</title>
<path fill="none" stroke="red" stroke-width="3.1" d="M75.56,-574.26C70.94,-530.74 53.23,-323.6 115.5,-173.28 122.73,-155.83 132.96,-138.26 143.47,-122.49"/>
<polygon fill="red" stroke="red" stroke-width="3.1" points="146.58,-124.15 149.33,-113.92 140.8,-120.2 146.58,-124.15"/>
<text text-anchor="middle" x="92.5" y="-321.36" font-family="Times,serif" font-size="9.00">1.000</text>
</g>
<!-- key 86706
bias &#45;0.672
h_scaling 0.584 -->
<g id="node8" class="node">
<title>key 86706
bias &#45;0.672
h_scaling 0.584</title>
<ellipse fill="white" stroke="black" cx="249.5" cy="-410.2" rx="63.78" ry="63.78"/>
<text text-anchor="middle" x="249.5" y="-418" font-family="Times,serif" font-size="9.00">key 86706</text>
<text text-anchor="middle" x="249.5" y="-408" font-family="Times,serif" font-size="9.00">bias &#45;0.672</text>
<text text-anchor="middle" x="249.5" y="-398" font-family="Times,serif" font-size="9.00">h_scaling 0.584</text>
</g>
<!-- go&#45;&gt;key 86706
bias &#45;0.672
h_scaling 0.584 -->
<g id="edge11" class="edge">
<title>go&#45;&gt;key 86706
bias &#45;0.672
h_scaling 0.584</title>
<path fill="none" stroke="blue" stroke-width="1.28" d="M77.68,-574.28C80.51,-557.17 89.12,-517.12 110.5,-491.84 121.44,-478.9 153.31,-460.07 183.78,-443.87"/>
<polygon fill="blue" stroke="blue" stroke-width="1.28" points="185.52,-446.91 192.74,-439.15 182.26,-440.71 185.52,-446.91"/>
<text text-anchor="middle" x="126" y="-494.64" font-family="Times,serif" font-size="9.00">&#45;0.394</text>
</g>
<!-- output
bias 0.397
h_scaling 0.712 -->
<g id="node3" class="node">
<title>output
bias 0.397
h_scaling 0.712</title>
<ellipse fill="lightblue" stroke="black" cx="351.5" cy="-583.48" rx="63.78" ry="63.78"/>
<text text-anchor="middle" x="351.5" y="-591.28" font-family="Times,serif" font-size="9.00">output</text>
<text text-anchor="middle" x="351.5" y="-581.28" font-family="Times,serif" font-size="9.00">bias 0.397</text>
<text text-anchor="middle" x="351.5" y="-571.28" font-family="Times,serif" font-size="9.00">h_scaling 0.712</text>
</g>
<!-- output
bias 0.397
h_scaling 0.712&#45;&gt;key 12783
bias &#45;0.903
h_scaling 0.920 -->
<g id="edge5" class="edge">
<title>output
bias 0.397
h_scaling 0.712&#45;&gt;key 12783
bias &#45;0.903
h_scaling 0.920</title>
<path fill="none" stroke="red" stroke-width="0.73" d="M384,-528.5C388.79,-519.72 393.46,-510.62 397.5,-501.84 431.75,-427.29 435.93,-398.94 419.5,-318.56 405.44,-249.78 402.8,-226.91 357.5,-173.28 329.81,-140.5 289.72,-114.14 255.52,-95.6"/>
<polygon fill="red" stroke="red" stroke-width="0.73" points="256.99,-92.41 246.51,-90.82 253.71,-98.6 256.99,-92.41"/>
<text text-anchor="middle" x="434.5" y="-321.36" font-family="Times,serif" font-size="9.00">0.210</text>
</g>
<!-- output
bias 0.397
h_scaling 0.712&#45;&gt;key 86706
bias &#45;0.672
h_scaling 0.584 -->
<g id="edge12" class="edge">
<title>output
bias 0.397
h_scaling 0.712&#45;&gt;key 86706
bias &#45;0.672
h_scaling 0.584</title>
<path fill="none" stroke="red" stroke-width="2.69" d="M319.23,-528.28C308.94,-511.02 297.48,-491.77 286.87,-473.95"/>
<polygon fill="red" stroke="red" stroke-width="2.69" points="289.86,-472.13 281.74,-465.33 283.85,-475.72 289.86,-472.13"/>
<text text-anchor="middle" x="314.5" y="-494.64" font-family="Times,serif" font-size="9.00">0.863</text>
</g>
<!-- key 26658
bias &#45;0.560
h_scaling 0.815&#45;&gt;output
bias 0.397
h_scaling 0.712 -->
<g id="edge15" class="edge">
<title>key 26658
bias &#45;0.560
h_scaling 0.815&#45;&gt;output
bias 0.397
h_scaling 0.712</title>
<path fill="none" stroke="red" stroke-width="1.04" d="M208.47,-713.42C235.19,-689.33 268.78,-659.04 296.7,-633.88"/>
<polygon fill="red" stroke="red" stroke-width="1.04" points="299.33,-636.22 304.42,-626.92 294.64,-631.02 299.33,-636.22"/>
<text text-anchor="middle" x="270.5" y="-667.92" font-family="Times,serif" font-size="9.00">0.314</text>
</g>
<!-- key 26658
bias &#45;0.560
h_scaling 0.815&#45;&gt;key 26658
bias &#45;0.560
h_scaling 0.815 -->
<g id="edge13" class="edge">
<title>key 26658
bias &#45;0.560
h_scaling 0.815&#45;&gt;key 26658
bias &#45;0.560
h_scaling 0.815</title>
<path fill="none" stroke="red" stroke-width="2.96" d="M223.44,-772.05C235,-770.17 243.14,-765.07 243.14,-756.76 243.14,-751.04 239.29,-746.84 233.13,-744.17"/>
<polygon fill="red" stroke="red" stroke-width="2.96" points="234.02,-740.78 223.44,-741.46 232.13,-747.52 234.02,-740.78"/>
<text text-anchor="middle" x="257.14" y="-754.56" font-family="Times,serif" font-size="9.00">0.953</text>
</g>
<!-- key 26658
bias &#45;0.560
h_scaling 0.815&#45;&gt;key 1702
bias &#45;0.117
h_scaling 0.562 -->
<g id="edge10" class="edge">
<title>key 26658
bias &#45;0.560
h_scaling 0.815&#45;&gt;key 1702
bias &#45;0.117
h_scaling 0.562</title>
<path fill="none" stroke="blue" stroke-width="2.02" d="M162.37,-692.94C163.82,-612.55 167.5,-469.03 176.5,-346.56 177.36,-334.8 178.51,-322.36 179.76,-310.25"/>
<polygon fill="blue" stroke="blue" stroke-width="2.02" points="183.26,-310.49 180.83,-300.18 176.29,-309.75 183.26,-310.49"/>
<text text-anchor="middle" x="184" y="-494.64" font-family="Times,serif" font-size="9.00">&#45;0.640</text>
</g>
<!-- key 1702
bias &#45;0.117
h_scaling 0.562&#45;&gt;output
bias 0.397
h_scaling 0.712 -->
<g id="edge6" class="edge">
<title>key 1702
bias &#45;0.117
h_scaling 0.562&#45;&gt;output
bias 0.397
h_scaling 0.712</title>
<path fill="none" stroke="blue" stroke-width="3.07" d="M243.94,-268.65C272.24,-287.36 304.43,-313.94 322.5,-346.56 350.04,-396.27 356.34,-460.76 356.29,-509.75"/>
<polygon fill="blue" stroke="blue" stroke-width="3.07" points="352.78,-509.92 356.18,-519.96 359.78,-509.99 352.78,-509.92"/>
<text text-anchor="middle" x="370" y="-408" font-family="Times,serif" font-size="9.00">&#45;0.988</text>
</g>
<!-- key 1702
bias &#45;0.117
h_scaling 0.562&#45;&gt;key 1702
bias &#45;0.117
h_scaling 0.562 -->
<g id="edge14" class="edge">
<title>key 1702
bias &#45;0.117
h_scaling 0.562&#45;&gt;key 1702
bias &#45;0.117
h_scaling 0.562</title>
<path fill="none" stroke="red" stroke-width="2.74" d="M250.44,-252.22C262,-250.33 270.14,-245.23 270.14,-236.92 270.14,-231.2 266.29,-227.01 260.13,-224.33"/>
<polygon fill="red" stroke="red" stroke-width="2.74" points="261.02,-220.94 250.44,-221.62 259.13,-227.68 261.02,-220.94"/>
<text text-anchor="middle" x="284.14" y="-234.72" font-family="Times,serif" font-size="9.00">0.880</text>
</g>
<!-- key 1702
bias &#45;0.117
h_scaling 0.562&#45;&gt;key 12783
bias &#45;0.903
h_scaling 0.920 -->
<g id="edge1" class="edge">
<title>key 1702
bias &#45;0.117
h_scaling 0.562&#45;&gt;key 12783
bias &#45;0.903
h_scaling 0.920</title>
<path fill="none" stroke="red" stroke-width="1.73" d="M188.5,-173.11C188.5,-161.59 188.5,-149.48 188.5,-137.69"/>
<polygon fill="red" stroke="red" stroke-width="1.73" points="192,-137.44 188.5,-127.44 185,-137.44 192,-137.44"/>
<text text-anchor="middle" x="202.5" y="-148.08" font-family="Times,serif" font-size="9.00">0.543</text>
</g>
<!-- key 12783
bias &#45;0.903
h_scaling 0.920&#45;&gt;output
bias 0.397
h_scaling 0.712 -->
<g id="edge2" class="edge">
<title>key 12783
bias &#45;0.903
h_scaling 0.920&#45;&gt;output
bias 0.397
h_scaling 0.712</title>
<path fill="none" stroke="blue" stroke-width="3.1" d="M238.74,-102.91C261.75,-122.22 288.13,-147.07 307.5,-173.28 358.14,-241.8 370.82,-263.43 389.5,-346.56 401.9,-401.75 398.97,-418.07 389.5,-473.84 387.2,-487.39 383.39,-501.51 379.05,-514.9"/>
<polygon fill="blue" stroke="blue" stroke-width="3.1" points="375.69,-513.92 375.81,-524.51 382.32,-516.15 375.69,-513.92"/>
<text text-anchor="middle" x="400" y="-321.36" font-family="Times,serif" font-size="9.00">&#45;1.000</text>
</g>
<!-- key 12783
bias &#45;0.903
h_scaling 0.920&#45;&gt;key 12783
bias &#45;0.903
h_scaling 0.920 -->
<g id="edge9" class="edge">
<title>key 12783
bias &#45;0.903
h_scaling 0.920&#45;&gt;key 12783
bias &#45;0.903
h_scaling 0.920</title>
<path fill="none" stroke="red" stroke-width="3.04" d="M250.44,-78.94C262,-77.05 270.14,-71.95 270.14,-63.64 270.14,-57.92 266.29,-53.73 260.13,-51.05"/>
<polygon fill="red" stroke="red" stroke-width="3.04" points="261.02,-47.66 250.44,-48.34 259.13,-54.4 261.02,-47.66"/>
<text text-anchor="middle" x="284.14" y="-61.44" font-family="Times,serif" font-size="9.00">0.980</text>
</g>
<!-- key 297776
bias &#45;0.603
h_scaling 0.499 -->
<g id="node7" class="node">
<title>key 297776
bias &#45;0.603
h_scaling 0.499</title>
<ellipse fill="white" stroke="black" cx="352.5" cy="-756.76" rx="63.78" ry="63.78"/>
<text text-anchor="middle" x="352.5" y="-764.56" font-family="Times,serif" font-size="9.00">key 297776</text>
<text text-anchor="middle" x="352.5" y="-754.56" font-family="Times,serif" font-size="9.00">bias &#45;0.603</text>
<text text-anchor="middle" x="352.5" y="-744.56" font-family="Times,serif" font-size="9.00">h_scaling 0.499</text>
</g>
<!-- key 297776
bias &#45;0.603
h_scaling 0.499&#45;&gt;output
bias 0.397
h_scaling 0.712 -->
<g id="edge16" class="edge">
<title>key 297776
bias &#45;0.603
h_scaling 0.499&#45;&gt;output
bias 0.397
h_scaling 0.712</title>
<path fill="none" stroke="blue" stroke-width="1.13" d="M352.13,-692.95C352.07,-681.43 352,-669.32 351.93,-657.53"/>
<polygon fill="blue" stroke="blue" stroke-width="1.13" points="355.43,-657.25 351.87,-647.28 348.43,-657.3 355.43,-657.25"/>
<text text-anchor="middle" x="367" y="-667.92" font-family="Times,serif" font-size="9.00">&#45;0.345</text>
</g>
<!-- key 86706
bias &#45;0.672
h_scaling 0.584&#45;&gt;key 1702
bias &#45;0.117
h_scaling 0.562 -->
<g id="edge17" class="edge">
<title>key 86706
bias &#45;0.672
h_scaling 0.584&#45;&gt;key 1702
bias &#45;0.117
h_scaling 0.562</title>
<path fill="none" stroke="red" stroke-width="1" d="M228.34,-349.77C223.42,-335.96 218.14,-321.13 213.08,-306.94"/>
<polygon fill="red" stroke="red" stroke-width="1" points="216.28,-305.48 209.63,-297.24 209.68,-307.83 216.28,-305.48"/>
<text text-anchor="middle" x="233.5" y="-321.36" font-family="Times,serif" font-size="9.00">0.300</text>
</g>
</g>
</svg>
