<?xml version="1.0" encoding="UTF-8" standalone="no"?>
<!DOCTYPE svg PUBLIC "-//W3C//DTD SVG 1.1//EN"
 "http://www.w3.org/Graphics/SVG/1.1/DTD/svg11.dtd">
<!-- Generated by graphviz version 2.43.0 (0)
 -->
<!-- Title: %3 Pages: 1 -->
<svg width="317pt" height="1006pt"
 viewBox="0.00 0.00 316.97 1005.68" xmlns="http://www.w3.org/2000/svg" xmlns:xlink="http://www.w3.org/1999/xlink">
<g id="graph0" class="graph" transform="scale(1 1) rotate(0) translate(4 1001.68)">
<title>%3</title>
<polygon fill="white" stroke="transparent" points="-4,4 -4,-1001.68 312.97,-1001.68 312.97,4 -4,4"/>
<!-- ready -->
<g id="node1" class="node">
<title>ready</title>
<polygon fill="yellow" stroke="black" points="115.14,-997.68 72.14,-997.68 72.14,-979.68 115.14,-979.68 115.14,-997.68"/>
<text text-anchor="middle" x="93.64" y="-986.48" font-family="Times,serif" font-size="9.00">ready</text>
</g>
<!-- key 10062
bias &#45;0.300
h_scaling 0.279 -->
<g id="node4" class="node">
<title>key 10062
bias &#45;0.300
h_scaling 0.279</title>
<ellipse fill="white" stroke="black" cx="93.64" cy="-880.04" rx="63.78" ry="63.78"/>
<text text-anchor="middle" x="93.64" y="-887.84" font-family="Times,serif" font-size="9.00">key 10062</text>
<text text-anchor="middle" x="93.64" y="-877.84" font-family="Times,serif" font-size="9.00">bias &#45;0.300</text>
<text text-anchor="middle" x="93.64" y="-867.84" font-family="Times,serif" font-size="9.00">h_scaling 0.279</text>
</g>
<!-- ready&#45;&gt;key 10062
bias &#45;0.300
h_scaling 0.279 -->
<g id="edge12" class="edge">
<title>ready&#45;&gt;key 10062
bias &#45;0.300
h_scaling 0.279</title>
<path fill="none" stroke="blue" stroke-width="2.54" d="M93.64,-979.66C93.64,-973.49 93.64,-964.3 93.64,-953.95"/>
<polygon fill="blue" stroke="blue" stroke-width="2.54" points="97.14,-953.75 93.64,-943.75 90.14,-953.75 97.14,-953.75"/>
</g>
<!-- go -->
<g id="node2" class="node">
<title>go</title>
<polygon fill="green" stroke="black" points="189.64,-997.68 161.64,-997.68 161.64,-979.68 189.64,-979.68 189.64,-997.68"/>
<text text-anchor="middle" x="175.64" y="-986.48" font-family="Times,serif" font-size="9.00">go</text>
</g>
<!-- go&#45;&gt;key 10062
bias &#45;0.300
h_scaling 0.279 -->
<g id="edge8" class="edge">
<title>go&#45;&gt;key 10062
bias &#45;0.300
h_scaling 0.279</title>
<path fill="none" stroke="red" stroke-width="2.64" d="M169.48,-979.66C162.59,-970.71 150.8,-955.37 138.54,-939.43"/>
<polygon fill="red" stroke="red" stroke-width="2.64" points="140.98,-936.85 132.11,-931.06 135.43,-941.12 140.98,-936.85"/>
</g>
<!-- key 3922
bias 0.633
h_scaling 0.596 -->
<g id="node6" class="node">
<title>key 3922
bias 0.633
h_scaling 0.596</title>
<ellipse fill="white" stroke="black" cx="203.64" cy="-716.76" rx="63.78" ry="63.78"/>
<text text-anchor="middle" x="203.64" y="-724.56" font-family="Times,serif" font-size="9.00">key 3922</text>
<text text-anchor="middle" x="203.64" y="-714.56" font-family="Times,serif" font-size="9.00">bias 0.633</text>
<text text-anchor="middle" x="203.64" y="-704.56" font-family="Times,serif" font-size="9.00">h_scaling 0.596</text>
</g>
<!-- go&#45;&gt;key 3922
bias 0.633
h_scaling 0.596 -->
<g id="edge4" class="edge">
<title>go&#45;&gt;key 3922
bias 0.633
h_scaling 0.596</title>
<path fill="none" stroke="blue" stroke-width="5.1" d="M177.59,-979.62C179.64,-970.83 182.82,-956.33 184.64,-943.68 191.94,-892.89 196.73,-835.25 199.68,-790.91"/>
<polygon fill="blue" stroke="blue" stroke-width="5.1" points="204.14,-791.06 200.33,-780.79 195.23,-790.49 204.14,-791.06"/>
</g>
<!-- key output
bias 0.090
h_scaling 0.898 -->
<g id="node3" class="node">
<title>key output
bias 0.090
h_scaling 0.898</title>
<ellipse fill="lightblue" stroke="black" cx="109.64" cy="-226.92" rx="63.78" ry="63.78"/>
<text text-anchor="middle" x="109.64" y="-234.72" font-family="Times,serif" font-size="9.00">key output</text>
<text text-anchor="middle" x="109.64" y="-224.72" font-family="Times,serif" font-size="9.00">bias 0.090</text>
<text text-anchor="middle" x="109.64" y="-214.72" font-family="Times,serif" font-size="9.00">h_scaling 0.898</text>
</g>
<!-- key output
bias 0.090
h_scaling 0.898&#45;&gt;key 10062
bias &#45;0.300
h_scaling 0.279 -->
<g id="edge13" class="edge">
<title>key output
bias 0.090
h_scaling 0.898&#45;&gt;key 10062
bias &#45;0.300
h_scaling 0.279</title>
<path fill="none" stroke="red" stroke-width="0.9" d="M110.26,-290.87C106.11,-393.41 93.14,-602.88 97.64,-780.4 97.85,-788.77 98.17,-797.55 98.47,-806.26"/>
<polygon fill="red" stroke="red" stroke-width="0.9" points="94.98,-806.56 98.82,-816.44 101.97,-806.32 94.98,-806.56"/>
</g>
<!-- key 170321
bias &#45;0.658
h_scaling 0.468 -->
<g id="node7" class="node">
<title>key 170321
bias &#45;0.658
h_scaling 0.468</title>
<ellipse fill="white" stroke="black" cx="63.64" cy="-63.64" rx="63.78" ry="63.78"/>
<text text-anchor="middle" x="63.64" y="-71.44" font-family="Times,serif" font-size="9.00">key 170321</text>
<text text-anchor="middle" x="63.64" y="-61.44" font-family="Times,serif" font-size="9.00">bias &#45;0.658</text>
<text text-anchor="middle" x="63.64" y="-51.44" font-family="Times,serif" font-size="9.00">h_scaling 0.468</text>
</g>
<!-- key output
bias 0.090
h_scaling 0.898&#45;&gt;key 170321
bias &#45;0.658
h_scaling 0.468 -->
<g id="edge15" class="edge">
<title>key output
bias 0.090
h_scaling 0.898&#45;&gt;key 170321
bias &#45;0.658
h_scaling 0.468</title>
<path fill="none" stroke="red" stroke-width="2.75" d="M92.38,-165.41C89.52,-155.38 86.54,-144.91 83.62,-134.68"/>
<polygon fill="red" stroke="red" stroke-width="2.75" points="86.95,-133.61 80.84,-124.96 80.22,-135.53 86.95,-133.61"/>
</g>
<!-- key 10062
bias &#45;0.300
h_scaling 0.279&#45;&gt;key output
bias 0.090
h_scaling 0.898 -->
<g id="edge11" class="edge">
<title>key 10062
bias &#45;0.300
h_scaling 0.279&#45;&gt;key output
bias 0.090
h_scaling 0.898</title>
<path fill="none" stroke="blue" stroke-width="4.92" d="M81.22,-817.49C80.46,-805.21 79.94,-792.4 79.64,-780.4 75.28,-608.14 87.36,-405.79 98.07,-300.26"/>
<polygon fill="blue" stroke="blue" stroke-width="4.92" points="102.38,-300.44 99.14,-290.04 93.82,-299.54 102.38,-300.44"/>
</g>
<!-- key 10062
bias &#45;0.300
h_scaling 0.279&#45;&gt;key 10062
bias &#45;0.300
h_scaling 0.279 -->
<g id="edge10" class="edge">
<title>key 10062
bias &#45;0.300
h_scaling 0.279&#45;&gt;key 10062
bias &#45;0.300
h_scaling 0.279</title>
<path fill="none" stroke="red" stroke-width="2.23" d="M154.52,-899.45C166.64,-897.27 175.28,-890.79 175.28,-880.04 175.28,-872.47 171.01,-867.03 164.26,-863.7"/>
<polygon fill="red" stroke="red" stroke-width="2.23" points="165.11,-860.3 154.52,-860.62 163,-866.97 165.11,-860.3"/>
</g>
<!-- key 3921
bias 0.367
h_scaling 0.825 -->
<g id="node5" class="node">
<title>key 3921
bias 0.367
h_scaling 0.825</title>
<ellipse fill="white" stroke="black" cx="184.64" cy="-390.2" rx="63.78" ry="63.78"/>
<text text-anchor="middle" x="184.64" y="-398" font-family="Times,serif" font-size="9.00">key 3921</text>
<text text-anchor="middle" x="184.64" y="-388" font-family="Times,serif" font-size="9.00">bias 0.367</text>
<text text-anchor="middle" x="184.64" y="-378" font-family="Times,serif" font-size="9.00">h_scaling 0.825</text>
</g>
<!-- key 10062
bias &#45;0.300
h_scaling 0.279&#45;&gt;key 3921
bias 0.367
h_scaling 0.825 -->
<g id="edge16" class="edge">
<title>key 10062
bias &#45;0.300
h_scaling 0.279&#45;&gt;key 3921
bias 0.367
h_scaling 0.825</title>
<path fill="none" stroke="red" stroke-width="2.28" d="M91.91,-816.19C91.48,-737.97 96.48,-601.12 130.64,-489.84 134.43,-477.49 139.86,-464.94 145.84,-453.12"/>
<polygon fill="red" stroke="red" stroke-width="2.28" points="148.96,-454.71 150.5,-444.23 142.76,-451.46 148.96,-454.71"/>
</g>
<!-- key 10062
bias &#45;0.300
h_scaling 0.279&#45;&gt;key 3922
bias 0.633
h_scaling 0.596 -->
<g id="edge9" class="edge">
<title>key 10062
bias &#45;0.300
h_scaling 0.279&#45;&gt;key 3922
bias 0.633
h_scaling 0.596</title>
<path fill="none" stroke="blue" stroke-width="4.89" d="M124.75,-823.98C135.16,-808.13 146.96,-790.81 158.22,-774.84"/>
<polygon fill="blue" stroke="blue" stroke-width="4.89" points="161.75,-777.25 164.05,-766.62 154.78,-772.3 161.75,-777.25"/>
</g>
<!-- key 3921
bias 0.367
h_scaling 0.825&#45;&gt;key output
bias 0.090
h_scaling 0.898 -->
<g id="edge1" class="edge">
<title>key 3921
bias 0.367
h_scaling 0.825&#45;&gt;key output
bias 0.090
h_scaling 0.898</title>
<path fill="none" stroke="blue" stroke-width="4.99" d="M157.99,-331.88C152.35,-319.76 146.36,-306.87 140.58,-294.44"/>
<polygon fill="blue" stroke="blue" stroke-width="4.99" points="144.38,-292.28 136.21,-285.05 136.47,-295.96 144.38,-292.28"/>
</g>
<!-- key 3922
bias 0.633
h_scaling 0.596&#45;&gt;key output
bias 0.090
h_scaling 0.898 -->
<g id="edge3" class="edge">
<title>key 3922
bias 0.633
h_scaling 0.596&#45;&gt;key output
bias 0.090
h_scaling 0.898</title>
<path fill="none" stroke="red" stroke-width="3.72" d="M254.04,-676.88C271.27,-660.52 288.5,-639.96 297.64,-617.12 318.66,-564.6 304.42,-546 297.64,-489.84 288.69,-415.66 300.54,-387.73 257.64,-326.56 237.31,-297.58 205.51,-274.77 176.59,-258.42"/>
<polygon fill="red" stroke="red" stroke-width="3.72" points="178.17,-255.3 167.72,-253.55 174.81,-261.43 178.17,-255.3"/>
</g>
<!-- key 3922
bias 0.633
h_scaling 0.596&#45;&gt;key 10062
bias &#45;0.300
h_scaling 0.279 -->
<g id="edge14" class="edge">
<title>key 3922
bias 0.633
h_scaling 0.596&#45;&gt;key 10062
bias &#45;0.300
h_scaling 0.279</title>
<path fill="none" stroke="blue" stroke-width="0.89" d="M172.65,-772.63C162.29,-788.4 150.55,-805.65 139.33,-821.58"/>
<polygon fill="blue" stroke="blue" stroke-width="0.89" points="136.44,-819.59 133.51,-829.77 142.15,-823.64 136.44,-819.59"/>
</g>
<!-- key 3922
bias 0.633
h_scaling 0.596&#45;&gt;key 3921
bias 0.367
h_scaling 0.825 -->
<g id="edge2" class="edge">
<title>key 3922
bias 0.633
h_scaling 0.596&#45;&gt;key 3921
bias 0.367
h_scaling 0.825</title>
<path fill="none" stroke="blue" stroke-width="4.59" d="M247.19,-669.6C259.1,-654.1 270.43,-635.93 276.64,-617.12 294.36,-563.39 297.37,-542.47 276.64,-489.84 269.11,-470.73 255.94,-453.13 241.88,-438.26"/>
<polygon fill="blue" stroke="blue" stroke-width="4.59" points="244.35,-435.05 234.47,-430.74 238.63,-440.68 244.35,-435.05"/>
</g>
<!-- key 8057
bias 0.181
h_scaling 0.745 -->
<g id="node8" class="node">
<title>key 8057
bias 0.181
h_scaling 0.745</title>
<ellipse fill="white" stroke="black" cx="203.64" cy="-553.48" rx="63.78" ry="63.78"/>
<text text-anchor="middle" x="203.64" y="-561.28" font-family="Times,serif" font-size="9.00">key 8057</text>
<text text-anchor="middle" x="203.64" y="-551.28" font-family="Times,serif" font-size="9.00">bias 0.181</text>
<text text-anchor="middle" x="203.64" y="-541.28" font-family="Times,serif" font-size="9.00">h_scaling 0.745</text>
</g>
<!-- key 3922
bias 0.633
h_scaling 0.596&#45;&gt;key 8057
bias 0.181
h_scaling 0.745 -->
<g id="edge5" class="edge">
<title>key 3922
bias 0.633
h_scaling 0.596&#45;&gt;key 8057
bias 0.181
h_scaling 0.745</title>
<path fill="none" stroke="blue" stroke-width="3.31" d="M197.05,-653.4C196.9,-644.8 196.85,-635.91 196.92,-627.14"/>
<polygon fill="blue" stroke="blue" stroke-width="3.31" points="200.42,-626.97 197.04,-616.93 193.42,-626.89 200.42,-626.97"/>
</g>
<!-- key 170321
bias &#45;0.658
h_scaling 0.468&#45;&gt;key 10062
bias &#45;0.300
h_scaling 0.279 -->
<g id="edge17" class="edge">
<title>key 170321
bias &#45;0.658
h_scaling 0.468&#45;&gt;key 10062
bias &#45;0.300
h_scaling 0.279</title>
<path fill="none" stroke="blue" stroke-width="0.4" d="M45.31,-124.75C41.98,-137.38 38.87,-150.69 36.64,-163.28 19.04,-262.49 17.64,-288.44 17.64,-389.2 17.64,-554.48 17.64,-554.48 17.64,-554.48 17.64,-644.75 45.86,-745.52 67.91,-810.47"/>
<polygon fill="blue" stroke="blue" stroke-width="0.4" points="64.69,-811.87 71.25,-820.19 71.3,-809.59 64.69,-811.87"/>
</g>
<!-- key 8057
bias 0.181
h_scaling 0.745&#45;&gt;key 3921
bias 0.367
h_scaling 0.825 -->
<g id="edge7" class="edge">
<title>key 8057
bias 0.181
h_scaling 0.745&#45;&gt;key 3921
bias 0.367
h_scaling 0.825</title>
<path fill="none" stroke="red" stroke-width="4.51" d="M196.29,-490.12C195.28,-481.52 194.23,-472.63 193.2,-463.86"/>
<polygon fill="red" stroke="red" stroke-width="4.51" points="197.09,-463.12 192,-453.65 189.25,-464.05 197.09,-463.12"/>
</g>
<!-- key 8057
bias 0.181
h_scaling 0.745&#45;&gt;key 3922
bias 0.633
h_scaling 0.596 -->
<g id="edge6" class="edge">
<title>key 8057
bias 0.181
h_scaling 0.745&#45;&gt;key 3922
bias 0.633
h_scaling 0.596</title>
<path fill="none" stroke="blue" stroke-width="3.37" d="M210.23,-616.93C210.38,-625.54 210.43,-634.43 210.36,-643.2"/>
<polygon fill="blue" stroke="blue" stroke-width="3.37" points="206.86,-643.36 210.23,-653.4 213.86,-643.45 206.86,-643.36"/>
</g>
</g>
</svg>
