<?xml version="1.0" encoding="UTF-8" standalone="no"?>
<!DOCTYPE svg PUBLIC "-//W3C//DTD SVG 1.1//EN"
 "http://www.w3.org/Graphics/SVG/1.1/DTD/svg11.dtd">
<!-- Generated by graphviz version 8.0.5 (20230430.1635)
 -->
<!-- Pages: 1 -->
<svg width="273pt" height="632pt"
 viewBox="0.00 0.00 272.88 631.97" xmlns="http://www.w3.org/2000/svg" xmlns:xlink="http://www.w3.org/1999/xlink">
<g id="graph0" class="graph" transform="scale(1 1) rotate(0) translate(4 627.97)">
<polygon fill="white" stroke="none" points="-4,4 -4,-627.97 268.88,-627.97 268.88,4 -4,4"/>
<!-- ready
output 0.000 -->
<g id="node1" class="node">
<title>ready
output 0.000</title>
<polygon fill="yellow" stroke="black" points="97.25,-623.97 34,-623.97 34,-593.47 97.25,-593.47 97.25,-623.97"/>
<text text-anchor="middle" x="65.63" y="-611.42" font-family="Times New Roman,serif" font-size="9.00">ready</text>
<text text-anchor="middle" x="65.63" y="-600.17" font-family="Times New Roman,serif" font-size="9.00">output 0.000</text>
</g>
<!-- key 2931
bias &#45;0.649
h_scaling 0.295
output 0.166 -->
<g id="node4" class="node">
<title>key 2931
bias &#45;0.649
h_scaling 0.295
output 0.166</title>
<ellipse fill="white" stroke="black" cx="65.63" cy="-495.66" rx="50.56" ry="50.56"/>
<text text-anchor="middle" x="65.63" y="-509.61" font-family="Times New Roman,serif" font-size="9.00">key 2931</text>
<text text-anchor="middle" x="65.63" y="-498.36" font-family="Times New Roman,serif" font-size="9.00">bias &#45;0.649</text>
<text text-anchor="middle" x="65.63" y="-487.11" font-family="Times New Roman,serif" font-size="9.00">h_scaling 0.295</text>
<text text-anchor="middle" x="65.63" y="-475.86" font-family="Times New Roman,serif" font-size="9.00">output 0.166</text>
</g>
<!-- ready
output 0.000&#45;&gt;key 2931
bias &#45;0.649
h_scaling 0.295
output 0.166 -->
<g id="edge11" class="edge">
<title>ready
output 0.000&#45;&gt;key 2931
bias &#45;0.649
h_scaling 0.295
output 0.166</title>
<path fill="none" stroke="red" stroke-width="1.32" d="M65.63,-593.2C65.63,-583.78 65.63,-570.8 65.63,-557.42"/>
<polygon fill="red" stroke="red" stroke-width="1.32" points="69.13,-557.66 65.63,-547.66 62.13,-557.66 69.13,-557.66"/>
<text text-anchor="middle" x="75.75" y="-566.92" font-family="Times New Roman,serif" font-size="9.00">0.639</text>
</g>
<!-- go
output 0.000 -->
<g id="node2" class="node">
<title>go
output 0.000</title>
<polygon fill="green" stroke="black" points="240.25,-623.97 177,-623.97 177,-593.47 240.25,-593.47 240.25,-623.97"/>
<text text-anchor="middle" x="208.63" y="-611.42" font-family="Times New Roman,serif" font-size="9.00">go</text>
<text text-anchor="middle" x="208.63" y="-600.17" font-family="Times New Roman,serif" font-size="9.00">output 0.000</text>
</g>
<!-- go
output 0.000&#45;&gt;key 2931
bias &#45;0.649
h_scaling 0.295
output 0.166 -->
<g id="edge2" class="edge">
<title>go
output 0.000&#45;&gt;key 2931
bias &#45;0.649
h_scaling 0.295
output 0.166</title>
<path fill="none" stroke="blue" stroke-width="2.12" d="M189.64,-592.97C170.73,-578.28 140.89,-555.1 115.22,-535.17"/>
<polygon fill="blue" stroke="blue" stroke-width="2.12" points="117.29,-531.8 107.25,-528.43 113,-537.33 117.29,-531.8"/>
<text text-anchor="middle" x="177.25" y="-566.92" font-family="Times New Roman,serif" font-size="9.00">&#45;0.673</text>
</g>
<!-- key 17642
bias &#45;0.462
h_scaling 0.837
output 0.225 -->
<g id="node5" class="node">
<title>key 17642
bias &#45;0.462
h_scaling 0.837
output 0.225</title>
<ellipse fill="white" stroke="black" cx="98.63" cy="-50.56" rx="50.56" ry="50.56"/>
<text text-anchor="middle" x="98.63" y="-64.51" font-family="Times New Roman,serif" font-size="9.00">key 17642</text>
<text text-anchor="middle" x="98.63" y="-53.26" font-family="Times New Roman,serif" font-size="9.00">bias &#45;0.462</text>
<text text-anchor="middle" x="98.63" y="-42.01" font-family="Times New Roman,serif" font-size="9.00">h_scaling 0.837</text>
<text text-anchor="middle" x="98.63" y="-30.76" font-family="Times New Roman,serif" font-size="9.00">output 0.225</text>
</g>
<!-- go
output 0.000&#45;&gt;key 17642
bias &#45;0.462
h_scaling 0.837
output 0.225 -->
<g id="edge6" class="edge">
<title>go
output 0.000&#45;&gt;key 17642
bias &#45;0.462
h_scaling 0.837
output 0.225</title>
<path fill="none" stroke="blue" stroke-width="2.26" d="M215.95,-593.04C225.67,-572.17 241.63,-532.46 241.63,-496.66 241.63,-496.66 241.63,-496.66 241.63,-197.92 241.63,-145.97 194.96,-105.61 154.94,-80.55"/>
<polygon fill="blue" stroke="blue" stroke-width="2.26" points="156.25,-77.05 145.87,-74.89 152.64,-83.04 156.25,-77.05"/>
<text text-anchor="middle" x="253.25" y="-344.37" font-family="Times New Roman,serif" font-size="9.00">&#45;0.719</text>
</g>
<!-- output
bias &#45;1.000
h_scaling 0.165
output 0.004 -->
<g id="node3" class="node">
<title>output
bias &#45;1.000
h_scaling 0.165
output 0.004</title>
<ellipse fill="lightblue" stroke="black" cx="154.63" cy="-347.29" rx="50.56" ry="50.56"/>
<text text-anchor="middle" x="154.63" y="-361.24" font-family="Times New Roman,serif" font-size="9.00">output</text>
<text text-anchor="middle" x="154.63" y="-349.99" font-family="Times New Roman,serif" font-size="9.00">bias &#45;1.000</text>
<text text-anchor="middle" x="154.63" y="-338.74" font-family="Times New Roman,serif" font-size="9.00">h_scaling 0.165</text>
<text text-anchor="middle" x="154.63" y="-327.49" font-family="Times New Roman,serif" font-size="9.00">output 0.004</text>
</g>
<!-- key 67363
bias &#45;0.040
h_scaling 0.531
output 0.285 -->
<g id="node6" class="node">
<title>key 67363
bias &#45;0.040
h_scaling 0.531
output 0.285</title>
<ellipse fill="white" stroke="black" cx="98.63" cy="-198.92" rx="50.56" ry="50.56"/>
<text text-anchor="middle" x="98.63" y="-212.87" font-family="Times New Roman,serif" font-size="9.00">key 67363</text>
<text text-anchor="middle" x="98.63" y="-201.62" font-family="Times New Roman,serif" font-size="9.00">bias &#45;0.040</text>
<text text-anchor="middle" x="98.63" y="-190.37" font-family="Times New Roman,serif" font-size="9.00">h_scaling 0.531</text>
<text text-anchor="middle" x="98.63" y="-179.12" font-family="Times New Roman,serif" font-size="9.00">output 0.285</text>
</g>
<!-- output
bias &#45;1.000
h_scaling 0.165
output 0.004&#45;&gt;key 67363
bias &#45;0.040
h_scaling 0.531
output 0.285 -->
<g id="edge12" class="edge">
<title>output
bias &#45;1.000
h_scaling 0.165
output 0.004&#45;&gt;key 67363
bias &#45;0.040
h_scaling 0.531
output 0.285</title>
<path fill="none" stroke="blue" stroke-width="1.92" d="M136.89,-299.61C132.87,-289.04 128.61,-277.87 124.63,-267.48 123.37,-264.19 122.07,-260.8 120.76,-257.38"/>
<polygon fill="blue" stroke="blue" stroke-width="1.92" points="124.41,-256.51 117.55,-248.43 117.87,-259.02 124.41,-256.51"/>
<text text-anchor="middle" x="140.25" y="-270.18" font-family="Times New Roman,serif" font-size="9.00">&#45;0.608</text>
</g>
<!-- key 2931
bias &#45;0.649
h_scaling 0.295
output 0.166&#45;&gt;output
bias &#45;1.000
h_scaling 0.165
output 0.004 -->
<g id="edge1" class="edge">
<title>key 2931
bias &#45;0.649
h_scaling 0.295
output 0.166&#45;&gt;output
bias &#45;1.000
h_scaling 0.165
output 0.004</title>
<path fill="none" stroke="red" stroke-width="2.85" d="M91.61,-451.93C100.98,-436.52 111.69,-418.91 121.58,-402.64"/>
<polygon fill="red" stroke="red" stroke-width="2.85" points="124.41,-404.44 126.61,-394.07 118.43,-400.8 124.41,-404.44"/>
<text text-anchor="middle" x="122.75" y="-418.55" font-family="Times New Roman,serif" font-size="9.00">0.917</text>
</g>
<!-- key 2931
bias &#45;0.649
h_scaling 0.295
output 0.166&#45;&gt;key 2931
bias &#45;0.649
h_scaling 0.295
output 0.166 -->
<g id="edge3" class="edge">
<title>key 2931
bias &#45;0.649
h_scaling 0.295
output 0.166&#45;&gt;key 2931
bias &#45;0.649
h_scaling 0.295
output 0.166</title>
<path fill="none" stroke="red" stroke-width="1.07" d="M114.62,-509.26C125.9,-508.09 134.19,-503.55 134.19,-495.66 134.19,-490.47 130.62,-486.74 124.98,-484.45"/>
<polygon fill="red" stroke="red" stroke-width="1.07" points="126.15,-480.9 115.62,-482.05 124.57,-487.72 126.15,-480.9"/>
<text text-anchor="middle" x="144.31" y="-492.73" font-family="Times New Roman,serif" font-size="9.00">0.326</text>
</g>
<!-- key 2931
bias &#45;0.649
h_scaling 0.295
output 0.166&#45;&gt;key 17642
bias &#45;0.462
h_scaling 0.837
output 0.225 -->
<g id="edge5" class="edge">
<title>key 2931
bias &#45;0.649
h_scaling 0.295
output 0.166&#45;&gt;key 17642
bias &#45;0.462
h_scaling 0.837
output 0.225</title>
<path fill="none" stroke="red" stroke-width="3.1" d="M42.97,-450.35C22.34,-405.23 -4.14,-332.83 1.38,-267.48 5.89,-213.97 1.51,-198.15 21.63,-148.37 27.53,-133.77 32.09,-131.65 41.63,-119.12 46.45,-112.78 51.66,-106.23 56.9,-99.83"/>
<polygon fill="red" stroke="red" stroke-width="3.1" points="59.99,-102.17 63.69,-92.24 54.61,-97.7 59.99,-102.17"/>
<text text-anchor="middle" x="11.75" y="-270.18" font-family="Times New Roman,serif" font-size="9.00">1.005</text>
</g>
<!-- key 17642
bias &#45;0.462
h_scaling 0.837
output 0.225&#45;&gt;output
bias &#45;1.000
h_scaling 0.165
output 0.004 -->
<g id="edge7" class="edge">
<title>key 17642
bias &#45;0.462
h_scaling 0.837
output 0.225&#45;&gt;output
bias &#45;1.000
h_scaling 0.165
output 0.004</title>
<path fill="none" stroke="red" stroke-width="2.64" d="M129.74,-90.62C141.19,-107.39 152.78,-127.83 158.63,-148.37 171.15,-192.33 169.58,-244.03 165.18,-283.57"/>
<polygon fill="red" stroke="red" stroke-width="2.64" points="161.24,-283.92 163.49,-294.28 168.19,-284.78 161.24,-283.92"/>
<text text-anchor="middle" x="177.75" y="-196" font-family="Times New Roman,serif" font-size="9.00">0.856</text>
</g>
<!-- key 17642
bias &#45;0.462
h_scaling 0.837
output 0.225&#45;&gt;key 2931
bias &#45;0.649
h_scaling 0.295
output 0.166 -->
<g id="edge4" class="edge">
<title>key 17642
bias &#45;0.462
h_scaling 0.837
output 0.225&#45;&gt;key 2931
bias &#45;0.649
h_scaling 0.295
output 0.166</title>
<path fill="none" stroke="red" stroke-width="2.53" d="M67.52,-90.62C56.07,-107.39 44.48,-127.83 38.63,-148.37 10.92,-245.69 31.13,-364.21 48.36,-434.33"/>
<polygon fill="red" stroke="red" stroke-width="2.53" points="45.68,-435.01 51.52,-443.84 52.46,-433.29 45.68,-435.01"/>
<text text-anchor="middle" x="35.75" y="-270.18" font-family="Times New Roman,serif" font-size="9.00">0.823</text>
</g>
<!-- key 67363
bias &#45;0.040
h_scaling 0.531
output 0.285&#45;&gt;output
bias &#45;1.000
h_scaling 0.165
output 0.004 -->
<g id="edge10" class="edge">
<title>key 67363
bias &#45;0.040
h_scaling 0.531
output 0.285&#45;&gt;output
bias &#45;1.000
h_scaling 0.165
output 0.004</title>
<path fill="none" stroke="blue" stroke-width="3.1" d="M95.62,-249.61C96.33,-259.48 98.03,-269.61 101.38,-278.73 103.95,-285.74 107.54,-292.59 111.67,-299.08"/>
<polygon fill="blue" stroke="blue" stroke-width="3.1" points="108.95,-301.14 117.56,-307.31 114.67,-297.11 108.95,-301.14"/>
<text text-anchor="middle" x="112.25" y="-270.18" font-family="Times New Roman,serif" font-size="9.00">&#45;1.000</text>
</g>
<!-- key 67363
bias &#45;0.040
h_scaling 0.531
output 0.285&#45;&gt;key 2931
bias &#45;0.649
h_scaling 0.295
output 0.166 -->
<g id="edge8" class="edge">
<title>key 67363
bias &#45;0.040
h_scaling 0.531
output 0.285&#45;&gt;key 2931
bias &#45;0.649
h_scaling 0.295
output 0.166</title>
<path fill="none" stroke="red" stroke-width="1.08" d="M84.61,-247.8C80.62,-263.28 76.73,-280.62 74.38,-296.73 67.72,-342.37 65.64,-394.49 65.16,-433.79"/>
<polygon fill="red" stroke="red" stroke-width="1.08" points="61.66,-433.75 65.07,-443.78 68.66,-433.81 61.66,-433.75"/>
<text text-anchor="middle" x="84.75" y="-344.37" font-family="Times New Roman,serif" font-size="9.00">0.333</text>
</g>
<!-- key 67363
bias &#45;0.040
h_scaling 0.531
output 0.285&#45;&gt;key 17642
bias &#45;0.462
h_scaling 0.837
output 0.225 -->
<g id="edge9" class="edge">
<title>key 67363
bias &#45;0.040
h_scaling 0.531
output 0.285&#45;&gt;key 17642
bias &#45;0.462
h_scaling 0.837
output 0.225</title>
<path fill="none" stroke="red" stroke-width="1.11" d="M98.63,-147.96C98.63,-136.42 98.63,-124.02 98.63,-112.09"/>
<polygon fill="red" stroke="red" stroke-width="1.11" points="102.13,-112.29 98.63,-102.29 95.13,-112.29 102.13,-112.29"/>
<text text-anchor="middle" x="108.75" y="-121.82" font-family="Times New Roman,serif" font-size="9.00">0.357</text>
</g>
</g>
</svg>
