<?xml version="1.0" encoding="UTF-8" standalone="no"?>
<!DOCTYPE svg PUBLIC "-//W3C//DTD SVG 1.1//EN"
 "http://www.w3.org/Graphics/SVG/1.1/DTD/svg11.dtd">
<!-- Generated by graphviz version 2.43.0 (0)
 -->
<!-- Title: %3 Pages: 1 -->
<svg width="511pt" height="679pt"
 viewBox="0.00 0.00 510.58 679.12" xmlns="http://www.w3.org/2000/svg" xmlns:xlink="http://www.w3.org/1999/xlink">
<g id="graph0" class="graph" transform="scale(1 1) rotate(0) translate(4 675.12)">
<title>%3</title>
<polygon fill="white" stroke="transparent" points="-4,4 -4,-675.12 506.58,-675.12 506.58,4 -4,4"/>
<!-- ready -->
<g id="node1" class="node">
<title>ready</title>
<polygon fill="yellow" stroke="black" points="156.56,-671.12 113.56,-671.12 113.56,-653.12 156.56,-653.12 156.56,-671.12"/>
<text text-anchor="middle" x="135.06" y="-659.92" font-family="Times,serif" font-size="9.00">ready</text>
</g>
<!-- key 2544
bias &#45;0.668
h_scaling 0.117 -->
<g id="node5" class="node">
<title>key 2544
bias &#45;0.668
h_scaling 0.117</title>
<ellipse fill="white" stroke="black" cx="181.06" cy="-553.48" rx="63.78" ry="63.78"/>
<text text-anchor="middle" x="181.06" y="-561.28" font-family="Times,serif" font-size="9.00">key 2544</text>
<text text-anchor="middle" x="181.06" y="-551.28" font-family="Times,serif" font-size="9.00">bias &#45;0.668</text>
<text text-anchor="middle" x="181.06" y="-541.28" font-family="Times,serif" font-size="9.00">h_scaling 0.117</text>
</g>
<!-- ready&#45;&gt;key 2544
bias &#45;0.668
h_scaling 0.117 -->
<g id="edge13" class="edge">
<title>ready&#45;&gt;key 2544
bias &#45;0.668
h_scaling 0.117</title>
<path fill="none" stroke="red" stroke-width="0.74" d="M138.52,-653.1C141.66,-645.81 146.63,-634.29 152.09,-621.65"/>
<polygon fill="red" stroke="red" stroke-width="0.74" points="155.38,-622.86 156.12,-612.29 148.95,-620.09 155.38,-622.86"/>
</g>
<!-- key 15889
bias &#45;0.268
h_scaling 0.977 -->
<g id="node6" class="node">
<title>key 15889
bias &#45;0.268
h_scaling 0.977</title>
<ellipse fill="white" stroke="black" cx="344.06" cy="-553.48" rx="63.78" ry="63.78"/>
<text text-anchor="middle" x="344.06" y="-561.28" font-family="Times,serif" font-size="9.00">key 15889</text>
<text text-anchor="middle" x="344.06" y="-551.28" font-family="Times,serif" font-size="9.00">bias &#45;0.268</text>
<text text-anchor="middle" x="344.06" y="-541.28" font-family="Times,serif" font-size="9.00">h_scaling 0.977</text>
</g>
<!-- ready&#45;&gt;key 15889
bias &#45;0.268
h_scaling 0.977 -->
<g id="edge4" class="edge">
<title>ready&#45;&gt;key 15889
bias &#45;0.268
h_scaling 0.977</title>
<path fill="none" stroke="red" stroke-width="3.1" d="M156.57,-657.04C184.52,-651.12 234.2,-638.46 272.06,-617.12 278.41,-613.54 284.71,-609.34 290.78,-604.84"/>
<polygon fill="red" stroke="red" stroke-width="3.1" points="293.14,-607.43 298.9,-598.54 288.85,-601.9 293.14,-607.43"/>
</g>
<!-- key 405074
bias &#45;0.981
h_scaling 0.762 -->
<g id="node7" class="node">
<title>key 405074
bias &#45;0.981
h_scaling 0.762</title>
<ellipse fill="white" stroke="black" cx="89.06" cy="-390.2" rx="63.78" ry="63.78"/>
<text text-anchor="middle" x="89.06" y="-398" font-family="Times,serif" font-size="9.00">key 405074</text>
<text text-anchor="middle" x="89.06" y="-388" font-family="Times,serif" font-size="9.00">bias &#45;0.981</text>
<text text-anchor="middle" x="89.06" y="-378" font-family="Times,serif" font-size="9.00">h_scaling 0.762</text>
</g>
<!-- ready&#45;&gt;key 405074
bias &#45;0.981
h_scaling 0.762 -->
<g id="edge16" class="edge">
<title>ready&#45;&gt;key 405074
bias &#45;0.981
h_scaling 0.762</title>
<path fill="none" stroke="red" stroke-width="3.05" d="M128.41,-652.94C121.96,-644.52 112.53,-630.74 108.06,-617.12 91.89,-567.85 87.33,-509.46 86.72,-464.39"/>
<polygon fill="red" stroke="red" stroke-width="3.05" points="90.21,-464.08 86.64,-454.11 83.21,-464.13 90.21,-464.08"/>
</g>
<!-- key 10170
bias &#45;0.824
h_scaling 0.468 -->
<g id="node8" class="node">
<title>key 10170
bias &#45;0.824
h_scaling 0.468</title>
<ellipse fill="white" stroke="black" cx="227.06" cy="-63.64" rx="63.78" ry="63.78"/>
<text text-anchor="middle" x="227.06" y="-71.44" font-family="Times,serif" font-size="9.00">key 10170</text>
<text text-anchor="middle" x="227.06" y="-61.44" font-family="Times,serif" font-size="9.00">bias &#45;0.824</text>
<text text-anchor="middle" x="227.06" y="-51.44" font-family="Times,serif" font-size="9.00">h_scaling 0.468</text>
</g>
<!-- ready&#45;&gt;key 10170
bias &#45;0.824
h_scaling 0.468 -->
<g id="edge15" class="edge">
<title>ready&#45;&gt;key 10170
bias &#45;0.824
h_scaling 0.468</title>
<path fill="none" stroke="red" stroke-width="0.94" d="M122.69,-652.98C111.36,-645 94.76,-631.89 84.06,-617.12 6.27,-509.7 -19.64,-454.29 16.06,-326.56 38.91,-244.82 60.59,-228.36 115.06,-163.28 131,-144.24 150.69,-125.64 169.1,-109.81"/>
<polygon fill="red" stroke="red" stroke-width="0.94" points="171.53,-112.34 176.9,-103.2 167.01,-107 171.53,-112.34"/>
</g>
<!-- go -->
<g id="node2" class="node">
<title>go</title>
<polygon fill="green" stroke="black" points="468.06,-671.12 440.06,-671.12 440.06,-653.12 468.06,-653.12 468.06,-671.12"/>
<text text-anchor="middle" x="454.06" y="-659.92" font-family="Times,serif" font-size="9.00">go</text>
</g>
<!-- key 13932
bias &#45;0.579
h_scaling 0.929 -->
<g id="node4" class="node">
<title>key 13932
bias &#45;0.579
h_scaling 0.929</title>
<ellipse fill="white" stroke="black" cx="354.06" cy="-226.92" rx="63.78" ry="63.78"/>
<text text-anchor="middle" x="354.06" y="-234.72" font-family="Times,serif" font-size="9.00">key 13932</text>
<text text-anchor="middle" x="354.06" y="-224.72" font-family="Times,serif" font-size="9.00">bias &#45;0.579</text>
<text text-anchor="middle" x="354.06" y="-214.72" font-family="Times,serif" font-size="9.00">h_scaling 0.929</text>
</g>
<!-- go&#45;&gt;key 13932
bias &#45;0.579
h_scaling 0.929 -->
<g id="edge8" class="edge">
<title>go&#45;&gt;key 13932
bias &#45;0.579
h_scaling 0.929</title>
<path fill="none" stroke="blue" stroke-width="2.41" d="M453.7,-652.83C452.49,-627.92 447.93,-551.64 435.06,-489.84 421.14,-422.94 397.36,-348.7 379.15,-296.4"/>
<polygon fill="blue" stroke="blue" stroke-width="2.41" points="382.43,-295.17 375.82,-286.89 375.83,-297.49 382.43,-295.17"/>
</g>
<!-- go&#45;&gt;key 2544
bias &#45;0.668
h_scaling 0.117 -->
<g id="edge6" class="edge">
<title>go&#45;&gt;key 2544
bias &#45;0.668
h_scaling 0.117</title>
<path fill="none" stroke="blue" stroke-width="3.1" d="M439.71,-659.51C408.06,-655.56 330.38,-643.75 271.06,-617.12 260.21,-612.24 249.29,-606.02 238.98,-599.39"/>
<polygon fill="blue" stroke="blue" stroke-width="3.1" points="240.75,-596.36 230.49,-593.74 236.88,-602.19 240.75,-596.36"/>
</g>
<!-- go&#45;&gt;key 10170
bias &#45;0.824
h_scaling 0.468 -->
<g id="edge11" class="edge">
<title>go&#45;&gt;key 10170
bias &#45;0.824
h_scaling 0.468</title>
<path fill="none" stroke="blue" stroke-width="2.1" d="M456.9,-652.88C473.77,-602.19 556.62,-329.42 445.06,-163.28 412.39,-114.62 349.51,-89.63 299.65,-77.01"/>
<polygon fill="blue" stroke="blue" stroke-width="2.1" points="300.4,-73.59 289.86,-74.64 298.76,-80.39 300.4,-73.59"/>
</g>
<!-- output
bias &#45;0.942
h_scaling 0.500 -->
<g id="node3" class="node">
<title>output
bias &#45;0.942
h_scaling 0.500</title>
<ellipse fill="lightblue" stroke="black" cx="273.06" cy="-390.2" rx="63.78" ry="63.78"/>
<text text-anchor="middle" x="273.06" y="-398" font-family="Times,serif" font-size="9.00">output</text>
<text text-anchor="middle" x="273.06" y="-388" font-family="Times,serif" font-size="9.00">bias &#45;0.942</text>
<text text-anchor="middle" x="273.06" y="-378" font-family="Times,serif" font-size="9.00">h_scaling 0.500</text>
</g>
<!-- output
bias &#45;0.942
h_scaling 0.500&#45;&gt;key 13932
bias &#45;0.579
h_scaling 0.929 -->
<g id="edge12" class="edge">
<title>output
bias &#45;0.942
h_scaling 0.500&#45;&gt;key 13932
bias &#45;0.579
h_scaling 0.929</title>
<path fill="none" stroke="blue" stroke-width="1" d="M301.39,-332.79C307.84,-319.95 314.75,-306.2 321.36,-293.03"/>
<polygon fill="blue" stroke="blue" stroke-width="1" points="324.53,-294.53 325.89,-284.02 318.27,-291.39 324.53,-294.53"/>
</g>
<!-- key 13932
bias &#45;0.579
h_scaling 0.929&#45;&gt;key 13932
bias &#45;0.579
h_scaling 0.929 -->
<g id="edge9" class="edge">
<title>key 13932
bias &#45;0.579
h_scaling 0.929&#45;&gt;key 13932
bias &#45;0.579
h_scaling 0.929</title>
<path fill="none" stroke="red" stroke-width="1.68" d="M410.53,-256.93C424.91,-254.96 435.7,-244.95 435.7,-226.92 435.7,-213.25 429.5,-204.2 420.25,-199.75"/>
<polygon fill="red" stroke="red" stroke-width="1.68" points="421.11,-196.36 410.53,-196.91 419.14,-203.08 421.11,-196.36"/>
</g>
<!-- key 13932
bias &#45;0.579
h_scaling 0.929&#45;&gt;key 10170
bias &#45;0.824
h_scaling 0.468 -->
<g id="edge3" class="edge">
<title>key 13932
bias &#45;0.579
h_scaling 0.929&#45;&gt;key 10170
bias &#45;0.824
h_scaling 0.468</title>
<path fill="none" stroke="red" stroke-width="3.02" d="M314.92,-176.21C301.46,-159.12 286.28,-139.84 272.37,-122.17"/>
<polygon fill="red" stroke="red" stroke-width="3.02" points="275.01,-119.87 266.07,-114.18 269.51,-124.2 275.01,-119.87"/>
</g>
<!-- key 2544
bias &#45;0.668
h_scaling 0.117&#45;&gt;output
bias &#45;0.942
h_scaling 0.500 -->
<g id="edge1" class="edge">
<title>key 2544
bias &#45;0.668
h_scaling 0.117&#45;&gt;output
bias &#45;0.942
h_scaling 0.500</title>
<path fill="none" stroke="red" stroke-width="3" d="M212.21,-497.88C220.15,-483.95 228.76,-468.87 236.93,-454.54"/>
<polygon fill="red" stroke="red" stroke-width="3" points="240.03,-456.16 241.95,-445.74 233.95,-452.7 240.03,-456.16"/>
</g>
<!-- key 2544
bias &#45;0.668
h_scaling 0.117&#45;&gt;key 2544
bias &#45;0.668
h_scaling 0.117 -->
<g id="edge10" class="edge">
<title>key 2544
bias &#45;0.668
h_scaling 0.117&#45;&gt;key 2544
bias &#45;0.668
h_scaling 0.117</title>
<path fill="none" stroke="red" stroke-width="2.82" d="M241.95,-572.89C254.06,-570.71 262.7,-564.24 262.7,-553.48 262.7,-545.91 258.43,-540.47 251.68,-537.14"/>
<polygon fill="red" stroke="red" stroke-width="2.82" points="252.54,-533.74 241.95,-534.06 250.42,-540.42 252.54,-533.74"/>
</g>
<!-- key 15889
bias &#45;0.268
h_scaling 0.977&#45;&gt;key 13932
bias &#45;0.579
h_scaling 0.929 -->
<g id="edge5" class="edge">
<title>key 15889
bias &#45;0.268
h_scaling 0.977&#45;&gt;key 13932
bias &#45;0.579
h_scaling 0.929</title>
<path fill="none" stroke="red" stroke-width="2.7" d="M346,-489.51C347.67,-435.54 350.06,-357.76 351.81,-301.04"/>
<polygon fill="red" stroke="red" stroke-width="2.7" points="355.32,-300.81 352.13,-290.71 348.32,-300.59 355.32,-300.81"/>
</g>
<!-- key 15889
bias &#45;0.268
h_scaling 0.977&#45;&gt;key 15889
bias &#45;0.268
h_scaling 0.977 -->
<g id="edge7" class="edge">
<title>key 15889
bias &#45;0.268
h_scaling 0.977&#45;&gt;key 15889
bias &#45;0.268
h_scaling 0.977</title>
<path fill="none" stroke="red" stroke-width="1.47" d="M404.95,-572.89C417.06,-570.71 425.7,-564.24 425.7,-553.48 425.7,-545.91 421.43,-540.47 414.68,-537.14"/>
<polygon fill="red" stroke="red" stroke-width="1.47" points="415.54,-533.74 404.95,-534.06 413.42,-540.42 415.54,-533.74"/>
</g>
<!-- key 405074
bias &#45;0.981
h_scaling 0.762&#45;&gt;key 10170
bias &#45;0.824
h_scaling 0.468 -->
<g id="edge17" class="edge">
<title>key 405074
bias &#45;0.981
h_scaling 0.762&#45;&gt;key 10170
bias &#45;0.824
h_scaling 0.468</title>
<path fill="none" stroke="red" stroke-width="1.44" d="M106.05,-328.84C119.99,-282.53 141.55,-217.54 167.06,-163.28 172.9,-150.87 179.89,-138.05 187.02,-125.93"/>
<polygon fill="red" stroke="red" stroke-width="1.44" points="190.09,-127.62 192.22,-117.24 184.08,-124.02 190.09,-127.62"/>
</g>
<!-- key 10170
bias &#45;0.824
h_scaling 0.468&#45;&gt;output
bias &#45;0.942
h_scaling 0.500 -->
<g id="edge14" class="edge">
<title>key 10170
bias &#45;0.824
h_scaling 0.468&#45;&gt;output
bias &#45;0.942
h_scaling 0.500</title>
<path fill="none" stroke="red" stroke-width="2.12" d="M235.89,-126.9C243.58,-181.18 254.74,-259.94 262.83,-316.98"/>
<polygon fill="red" stroke="red" stroke-width="2.12" points="259.38,-317.59 264.25,-327 266.31,-316.61 259.38,-317.59"/>
</g>
<!-- key 10170
bias &#45;0.824
h_scaling 0.468&#45;&gt;key 2544
bias &#45;0.668
h_scaling 0.117 -->
<g id="edge2" class="edge">
<title>key 10170
bias &#45;0.824
h_scaling 0.468&#45;&gt;key 2544
bias &#45;0.668
h_scaling 0.117</title>
<path fill="none" stroke="red" stroke-width="3.03" d="M220.3,-127.05C214.62,-180.1 206.45,-258.29 200.06,-326.56 195.28,-377.64 190.44,-435.27 186.85,-479.54"/>
<polygon fill="red" stroke="red" stroke-width="3.03" points="183.35,-479.39 186.03,-489.64 190.32,-479.95 183.35,-479.39"/>
</g>
</g>
</svg>
