<?xml version="1.0" encoding="UTF-8" standalone="no"?>
<!DOCTYPE svg PUBLIC "-//W3C//DTD SVG 1.1//EN"
 "http://www.w3.org/Graphics/SVG/1.1/DTD/svg11.dtd">
<!-- Generated by graphviz version 2.43.0 (0)
 -->
<!-- Title: %3 Pages: 1 -->
<svg width="443pt" height="710pt"
 viewBox="0.00 0.00 442.64 710.12" xmlns="http://www.w3.org/2000/svg" xmlns:xlink="http://www.w3.org/1999/xlink">
<g id="graph0" class="graph" transform="scale(1 1) rotate(0) translate(4 706.12)">
<title>%3</title>
<polygon fill="white" stroke="transparent" points="-4,4 -4,-706.12 438.64,-706.12 438.64,4 -4,4"/>
<!-- ready -->
<g id="node1" class="node">
<title>ready</title>
<polygon fill="yellow" stroke="black" points="223.14,-702.12 180.14,-702.12 180.14,-684.12 223.14,-684.12 223.14,-702.12"/>
<text text-anchor="middle" x="201.64" y="-690.92" font-family="Times,serif" font-size="9.00">ready</text>
</g>
<!-- key 12834
bias &#45;0.249
h_scaling 0.004 -->
<g id="node4" class="node">
<title>key 12834
bias &#45;0.249
h_scaling 0.004</title>
<ellipse fill="white" stroke="black" cx="63.64" cy="-583.48" rx="63.78" ry="63.78"/>
<text text-anchor="middle" x="63.64" y="-591.28" font-family="Times,serif" font-size="9.00">key 12834</text>
<text text-anchor="middle" x="63.64" y="-581.28" font-family="Times,serif" font-size="9.00">bias &#45;0.249</text>
<text text-anchor="middle" x="63.64" y="-571.28" font-family="Times,serif" font-size="9.00">h_scaling 0.004</text>
</g>
<!-- ready&#45;&gt;key 12834
bias &#45;0.249
h_scaling 0.004 -->
<g id="edge9" class="edge">
<title>ready&#45;&gt;key 12834
bias &#45;0.249
h_scaling 0.004</title>
<path fill="none" stroke="blue" stroke-width="0.1" d="M191.27,-684.03C176.38,-672.42 147.86,-650.17 121.54,-629.64"/>
<polygon fill="blue" stroke="blue" stroke-width="0.1" points="123.5,-626.73 113.46,-623.34 119.2,-632.25 123.5,-626.73"/>
</g>
<!-- key 501
bias 0.091
h_scaling 0.515 -->
<g id="node6" class="node">
<title>key 501
bias 0.091
h_scaling 0.515</title>
<ellipse fill="white" stroke="black" cx="317.64" cy="-236.92" rx="63.78" ry="63.78"/>
<text text-anchor="middle" x="317.64" y="-244.72" font-family="Times,serif" font-size="9.00">key 501</text>
<text text-anchor="middle" x="317.64" y="-234.72" font-family="Times,serif" font-size="9.00">bias 0.091</text>
<text text-anchor="middle" x="317.64" y="-224.72" font-family="Times,serif" font-size="9.00">h_scaling 0.515</text>
</g>
<!-- ready&#45;&gt;key 501
bias 0.091
h_scaling 0.515 -->
<g id="edge12" class="edge">
<title>ready&#45;&gt;key 501
bias 0.091
h_scaling 0.515</title>
<path fill="none" stroke="red" stroke-width="1.56" d="M223.29,-690.7C253.31,-687.63 307.6,-677.89 340.64,-647.12 401.41,-590.5 394.79,-555.37 410.64,-473.84 423.88,-405.73 436.11,-374.18 394.64,-318.56 387.24,-308.64 378.74,-298.65 370.15,-289.24"/>
<polygon fill="red" stroke="red" stroke-width="1.56" points="372.63,-286.76 363.25,-281.83 367.5,-291.53 372.63,-286.76"/>
<text text-anchor="middle" x="420.64" y="-494.64" font-family="Times,serif" font-size="9.00">0.049</text>
</g>
<!-- key 12985
bias &#45;0.754
h_scaling 0.042 -->
<g id="node7" class="node">
<title>key 12985
bias &#45;0.754
h_scaling 0.042</title>
<ellipse fill="white" stroke="black" cx="126.64" cy="-410.2" rx="63.78" ry="63.78"/>
<text text-anchor="middle" x="126.64" y="-418" font-family="Times,serif" font-size="9.00">key 12985</text>
<text text-anchor="middle" x="126.64" y="-408" font-family="Times,serif" font-size="9.00">bias &#45;0.754</text>
<text text-anchor="middle" x="126.64" y="-398" font-family="Times,serif" font-size="9.00">h_scaling 0.042</text>
</g>
<!-- ready&#45;&gt;key 12985
bias &#45;0.754
h_scaling 0.042 -->
<g id="edge11" class="edge">
<title>ready&#45;&gt;key 12985
bias &#45;0.754
h_scaling 0.042</title>
<path fill="none" stroke="blue" stroke-width="0.1" d="M201.78,-684.01C202,-658.98 201.06,-580.91 182.64,-519.84 178,-504.44 171.2,-488.64 163.92,-474.03"/>
<polygon fill="blue" stroke="blue" stroke-width="0.1" points="167.02,-472.4 159.35,-465.1 160.79,-475.59 167.02,-472.4"/>
</g>
<!-- go -->
<g id="node2" class="node">
<title>go</title>
<polygon fill="green" stroke="black" points="331.64,-592.48 303.64,-592.48 303.64,-574.48 331.64,-574.48 331.64,-592.48"/>
<text text-anchor="middle" x="317.64" y="-581.28" font-family="Times,serif" font-size="9.00">go</text>
</g>
<!-- key 327429
bias &#45;0.620
h_scaling 0.930 -->
<g id="node5" class="node">
<title>key 327429
bias &#45;0.620
h_scaling 0.930</title>
<ellipse fill="white" stroke="black" cx="317.64" cy="-410.2" rx="63.78" ry="63.78"/>
<text text-anchor="middle" x="317.64" y="-418" font-family="Times,serif" font-size="9.00">key 327429</text>
<text text-anchor="middle" x="317.64" y="-408" font-family="Times,serif" font-size="9.00">bias &#45;0.620</text>
<text text-anchor="middle" x="317.64" y="-398" font-family="Times,serif" font-size="9.00">h_scaling 0.930</text>
</g>
<!-- go&#45;&gt;key 327429
bias &#45;0.620
h_scaling 0.930 -->
<g id="edge14" class="edge">
<title>go&#45;&gt;key 327429
bias &#45;0.620
h_scaling 0.930</title>
<path fill="none" stroke="red" stroke-width="3.64" d="M317.64,-574.22C317.64,-557.79 317.64,-519.58 317.64,-484.28"/>
<polygon fill="red" stroke="red" stroke-width="3.64" points="321.14,-483.94 317.64,-473.94 314.14,-483.94 321.14,-483.94"/>
<text text-anchor="middle" x="331.64" y="-494.64" font-family="Times,serif" font-size="9.00">0.118</text>
</g>
<!-- go&#45;&gt;key 501
bias 0.091
h_scaling 0.515 -->
<g id="edge2" class="edge">
<title>go&#45;&gt;key 501
bias 0.091
h_scaling 0.515</title>
<path fill="none" stroke="blue" stroke-width="0.1" d="M325.65,-574.39C341.76,-557.49 377.66,-516.44 390.64,-473.84 407.13,-419.73 407.13,-400.67 390.64,-346.56 385.08,-328.31 375.31,-310.35 364.7,-294.44"/>
<polygon fill="blue" stroke="blue" stroke-width="0.1" points="367.31,-292.06 358.74,-285.83 361.55,-296.05 367.31,-292.06"/>
</g>
<!-- go&#45;&gt;key 12985
bias &#45;0.754
h_scaling 0.042 -->
<g id="edge3" class="edge">
<title>go&#45;&gt;key 12985
bias &#45;0.754
h_scaling 0.042</title>
<path fill="none" stroke="red" stroke-width="0.74" d="M308.68,-574.45C286.3,-554.38 226.51,-500.75 181.51,-460.4"/>
<polygon fill="red" stroke="red" stroke-width="0.74" points="183.64,-457.61 173.86,-453.54 178.96,-462.82 183.64,-457.61"/>
<text text-anchor="middle" x="235.64" y="-494.64" font-family="Times,serif" font-size="9.00">0.021</text>
</g>
<!-- output
bias &#45;0.469
h_scaling 0.602 -->
<g id="node3" class="node">
<title>output
bias &#45;0.469
h_scaling 0.602</title>
<ellipse fill="lightblue" stroke="black" cx="158.64" cy="-63.64" rx="63.78" ry="63.78"/>
<text text-anchor="middle" x="158.64" y="-71.44" font-family="Times,serif" font-size="9.00">output</text>
<text text-anchor="middle" x="158.64" y="-61.44" font-family="Times,serif" font-size="9.00">bias &#45;0.469</text>
<text text-anchor="middle" x="158.64" y="-51.44" font-family="Times,serif" font-size="9.00">h_scaling 0.602</text>
</g>
<!-- output
bias &#45;0.469
h_scaling 0.602&#45;&gt;key 12834
bias &#45;0.249
h_scaling 0.004 -->
<g id="edge6" class="edge">
<title>output
bias &#45;0.469
h_scaling 0.602&#45;&gt;key 12834
bias &#45;0.249
h_scaling 0.004</title>
<path fill="none" stroke="red" stroke-width="0.57" d="M130.81,-120.98C104.96,-176.71 68.3,-265.22 53.64,-346.56 43.61,-402.23 51.04,-417.33 53.64,-473.84 54.18,-485.52 55.03,-497.88 56.03,-509.91"/>
<polygon fill="red" stroke="red" stroke-width="0.57" points="52.55,-510.26 56.89,-519.93 59.52,-509.66 52.55,-510.26"/>
<text text-anchor="middle" x="73.64" y="-321.36" font-family="Times,serif" font-size="9.00">0.016</text>
</g>
<!-- key 12834
bias &#45;0.249
h_scaling 0.004&#45;&gt;key 12834
bias &#45;0.249
h_scaling 0.004 -->
<g id="edge13" class="edge">
<title>key 12834
bias &#45;0.249
h_scaling 0.004&#45;&gt;key 12834
bias &#45;0.249
h_scaling 0.004</title>
<path fill="none" stroke="red" stroke-width="0.74" d="M125.93,-598.01C137.3,-596.17 145.28,-591.32 145.28,-583.48 145.28,-578.2 141.68,-574.29 135.87,-571.73"/>
<polygon fill="red" stroke="red" stroke-width="0.74" points="136.5,-568.27 125.93,-568.95 134.62,-575.01 136.5,-568.27"/>
<text text-anchor="middle" x="159.28" y="-581.28" font-family="Times,serif" font-size="9.00">0.021</text>
</g>
<!-- key 12834
bias &#45;0.249
h_scaling 0.004&#45;&gt;key 12985
bias &#45;0.754
h_scaling 0.042 -->
<g id="edge8" class="edge">
<title>key 12834
bias &#45;0.249
h_scaling 0.004&#45;&gt;key 12985
bias &#45;0.754
h_scaling 0.042</title>
<path fill="none" stroke="red" stroke-width="0.65" d="M85.32,-523.53C90.52,-509.4 96.11,-494.2 101.45,-479.68"/>
<polygon fill="red" stroke="red" stroke-width="0.65" points="104.75,-480.84 104.92,-470.25 98.18,-478.43 104.75,-480.84"/>
<text text-anchor="middle" x="108.64" y="-494.64" font-family="Times,serif" font-size="9.00">0.018</text>
</g>
<!-- key 327429
bias &#45;0.620
h_scaling 0.930&#45;&gt;output
bias &#45;0.469
h_scaling 0.602 -->
<g id="edge16" class="edge">
<title>key 327429
bias &#45;0.620
h_scaling 0.930&#45;&gt;output
bias &#45;0.469
h_scaling 0.602</title>
<path fill="none" stroke="blue" stroke-width="0.1" d="M280.08,-358.81C267.8,-340.98 254.74,-320.41 244.64,-300.56 217.36,-246.94 194.5,-182.58 179.23,-134.63"/>
<polygon fill="blue" stroke="blue" stroke-width="0.1" points="182.52,-133.45 176.18,-124.97 175.85,-135.56 182.52,-133.45"/>
</g>
<!-- key 327429
bias &#45;0.620
h_scaling 0.930&#45;&gt;key 501
bias 0.091
h_scaling 0.515 -->
<g id="edge15" class="edge">
<title>key 327429
bias &#45;0.620
h_scaling 0.930&#45;&gt;key 501
bias 0.091
h_scaling 0.515</title>
<path fill="none" stroke="blue" stroke-width="0.1" d="M317.64,-346.39C317.64,-334.87 317.64,-322.76 317.64,-310.97"/>
<polygon fill="blue" stroke="blue" stroke-width="0.1" points="321.14,-310.72 317.64,-300.72 314.14,-310.72 321.14,-310.72"/>
</g>
<!-- key 501
bias 0.091
h_scaling 0.515&#45;&gt;output
bias &#45;0.469
h_scaling 0.602 -->
<g id="edge1" class="edge">
<title>key 501
bias 0.091
h_scaling 0.515&#45;&gt;output
bias &#45;0.469
h_scaling 0.602</title>
<path fill="none" stroke="red" stroke-width="0.43" d="M274.61,-189.57C254.29,-167.67 229.9,-141.4 208.74,-118.61"/>
<polygon fill="red" stroke="red" stroke-width="0.43" points="211.07,-115.97 201.7,-111.03 205.94,-120.74 211.07,-115.97"/>
<text text-anchor="middle" x="251.64" y="-148.08" font-family="Times,serif" font-size="9.00">0.011</text>
</g>
<!-- key 501
bias 0.091
h_scaling 0.515&#45;&gt;key 501
bias 0.091
h_scaling 0.515 -->
<g id="edge10" class="edge">
<title>key 501
bias 0.091
h_scaling 0.515&#45;&gt;key 501
bias 0.091
h_scaling 0.515</title>
<path fill="none" stroke="red" stroke-width="0.93" d="M379.58,-252.22C391.14,-250.33 399.28,-245.23 399.28,-236.92 399.28,-231.2 395.43,-227.01 389.27,-224.33"/>
<polygon fill="red" stroke="red" stroke-width="0.93" points="390.16,-220.94 379.58,-221.62 388.27,-227.68 390.16,-220.94"/>
<text text-anchor="middle" x="413.28" y="-234.72" font-family="Times,serif" font-size="9.00">0.028</text>
</g>
<!-- key 12985
bias &#45;0.754
h_scaling 0.042&#45;&gt;output
bias &#45;0.469
h_scaling 0.602 -->
<g id="edge5" class="edge">
<title>key 12985
bias &#45;0.754
h_scaling 0.042&#45;&gt;output
bias &#45;0.469
h_scaling 0.602</title>
<path fill="none" stroke="blue" stroke-width="0.1" d="M132.43,-346.8C137.91,-287.83 146.13,-199.39 151.89,-137.27"/>
<polygon fill="blue" stroke="blue" stroke-width="0.1" points="155.39,-137.43 152.83,-127.15 148.42,-136.79 155.39,-137.43"/>
</g>
<!-- key 12985
bias &#45;0.754
h_scaling 0.042&#45;&gt;key 501
bias 0.091
h_scaling 0.515 -->
<g id="edge4" class="edge">
<title>key 12985
bias &#45;0.754
h_scaling 0.042&#45;&gt;key 501
bias 0.091
h_scaling 0.515</title>
<path fill="none" stroke="blue" stroke-width="0.1" d="M173.85,-366.86C200.81,-342.68 234.74,-312.26 262.87,-287.03"/>
<polygon fill="blue" stroke="blue" stroke-width="0.1" points="265.53,-289.35 270.64,-280.07 260.86,-284.14 265.53,-289.35"/>
</g>
<!-- key 12985
bias &#45;0.754
h_scaling 0.042&#45;&gt;key 12985
bias &#45;0.754
h_scaling 0.042 -->
<g id="edge7" class="edge">
<title>key 12985
bias &#45;0.754
h_scaling 0.042&#45;&gt;key 12985
bias &#45;0.754
h_scaling 0.042</title>
<path fill="none" stroke="red" stroke-width="1.42" d="M188.58,-425.5C200.14,-423.61 208.28,-418.51 208.28,-410.2 208.28,-404.48 204.43,-400.29 198.27,-397.61"/>
<polygon fill="red" stroke="red" stroke-width="1.42" points="199.16,-394.22 188.58,-394.9 197.27,-400.96 199.16,-394.22"/>
<text text-anchor="middle" x="222.28" y="-408" font-family="Times,serif" font-size="9.00">0.044</text>
</g>
</g>
</svg>
