<?xml version="1.0" encoding="UTF-8" standalone="no"?>
<!DOCTYPE svg PUBLIC "-//W3C//DTD SVG 1.1//EN"
 "http://www.w3.org/Graphics/SVG/1.1/DTD/svg11.dtd">
<!-- Generated by graphviz version 2.43.0 (0)
 -->
<!-- Title: %3 Pages: 1 -->
<svg width="460pt" height="719pt"
 viewBox="0.00 0.00 459.64 719.12" xmlns="http://www.w3.org/2000/svg" xmlns:xlink="http://www.w3.org/1999/xlink">
<g id="graph0" class="graph" transform="scale(1 1) rotate(0) translate(4 715.12)">
<title>%3</title>
<polygon fill="white" stroke="transparent" points="-4,4 -4,-715.12 455.64,-715.12 455.64,4 -4,4"/>
<!-- ready -->
<g id="node1" class="node">
<title>ready</title>
<polygon fill="yellow" stroke="black" points="231.14,-711.12 188.14,-711.12 188.14,-693.12 231.14,-693.12 231.14,-711.12"/>
<text text-anchor="middle" x="209.64" y="-699.92" font-family="Times,serif" font-size="9.00">ready</text>
</g>
<!-- key 12834
bias &#45;0.249
h_scaling 0.004 -->
<g id="node4" class="node">
<title>key 12834
bias &#45;0.249
h_scaling 0.004</title>
<ellipse fill="white" stroke="black" cx="63.64" cy="-583.48" rx="63.78" ry="63.78"/>
<text text-anchor="middle" x="63.64" y="-591.28" font-family="Times,serif" font-size="9.00">key 12834</text>
<text text-anchor="middle" x="63.64" y="-581.28" font-family="Times,serif" font-size="9.00">bias &#45;0.249</text>
<text text-anchor="middle" x="63.64" y="-571.28" font-family="Times,serif" font-size="9.00">h_scaling 0.004</text>
</g>
<!-- ready&#45;&gt;key 12834
bias &#45;0.249
h_scaling 0.004 -->
<g id="edge9" class="edge">
<title>ready&#45;&gt;key 12834
bias &#45;0.249
h_scaling 0.004</title>
<path fill="none" stroke="blue" stroke-width="2.46" d="M193.73,-692.98C184.89,-688.2 173.84,-681.79 164.64,-675.12 148.24,-663.22 131.46,-649.08 116.4,-635.56"/>
<polygon fill="blue" stroke="blue" stroke-width="2.46" points="118.45,-632.69 108.7,-628.56 113.74,-637.87 118.45,-632.69"/>
<text text-anchor="middle" x="180.14" y="-667.92" font-family="Times,serif" font-size="9.00">&#45;0.788</text>
</g>
<!-- key 501
bias 0.091
h_scaling 0.515 -->
<g id="node6" class="node">
<title>key 501
bias 0.091
h_scaling 0.515</title>
<ellipse fill="white" stroke="black" cx="308.64" cy="-236.92" rx="63.78" ry="63.78"/>
<text text-anchor="middle" x="308.64" y="-244.72" font-family="Times,serif" font-size="9.00">key 501</text>
<text text-anchor="middle" x="308.64" y="-234.72" font-family="Times,serif" font-size="9.00">bias 0.091</text>
<text text-anchor="middle" x="308.64" y="-224.72" font-family="Times,serif" font-size="9.00">h_scaling 0.515</text>
</g>
<!-- ready&#45;&gt;key 501
bias 0.091
h_scaling 0.515 -->
<g id="edge12" class="edge">
<title>ready&#45;&gt;key 501
bias 0.091
h_scaling 0.515</title>
<path fill="none" stroke="red" stroke-width="1.19" d="M231.37,-696.03C257.76,-688.92 302.35,-673.78 331.64,-647.12 396.9,-587.7 406.36,-559.24 428.64,-473.84 442.92,-419.1 451.58,-398.27 428.64,-346.56 416.41,-318.98 393.33,-295.43 370.66,-277.38"/>
<polygon fill="red" stroke="red" stroke-width="1.19" points="372.74,-274.56 362.68,-271.22 368.46,-280.1 372.74,-274.56"/>
<text text-anchor="middle" x="437.64" y="-494.64" font-family="Times,serif" font-size="9.00">0.363</text>
</g>
<!-- key 12985
bias &#45;0.754
h_scaling 0.042 -->
<g id="node7" class="node">
<title>key 12985
bias &#45;0.754
h_scaling 0.042</title>
<ellipse fill="white" stroke="black" cx="117.64" cy="-410.2" rx="63.78" ry="63.78"/>
<text text-anchor="middle" x="117.64" y="-418" font-family="Times,serif" font-size="9.00">key 12985</text>
<text text-anchor="middle" x="117.64" y="-408" font-family="Times,serif" font-size="9.00">bias &#45;0.754</text>
<text text-anchor="middle" x="117.64" y="-398" font-family="Times,serif" font-size="9.00">h_scaling 0.042</text>
</g>
<!-- ready&#45;&gt;key 12985
bias &#45;0.754
h_scaling 0.042 -->
<g id="edge11" class="edge">
<title>ready&#45;&gt;key 12985
bias &#45;0.754
h_scaling 0.042</title>
<path fill="none" stroke="blue" stroke-width="0.63" d="M209.54,-692.89C209,-666.77 205.47,-583.65 182.64,-519.84 176.76,-503.4 168.27,-486.71 159.36,-471.5"/>
<polygon fill="blue" stroke="blue" stroke-width="0.63" points="162.24,-469.49 154.09,-462.73 156.24,-473.1 162.24,-469.49"/>
<text text-anchor="middle" x="222.14" y="-581.28" font-family="Times,serif" font-size="9.00">&#45;0.176</text>
</g>
<!-- go -->
<g id="node2" class="node">
<title>go</title>
<polygon fill="green" stroke="black" points="322.64,-592.48 294.64,-592.48 294.64,-574.48 322.64,-574.48 322.64,-592.48"/>
<text text-anchor="middle" x="308.64" y="-581.28" font-family="Times,serif" font-size="9.00">go</text>
</g>
<!-- key 327429
bias &#45;0.620
h_scaling 0.930 -->
<g id="node5" class="node">
<title>key 327429
bias &#45;0.620
h_scaling 0.930</title>
<ellipse fill="white" stroke="black" cx="308.64" cy="-410.2" rx="63.78" ry="63.78"/>
<text text-anchor="middle" x="308.64" y="-418" font-family="Times,serif" font-size="9.00">key 327429</text>
<text text-anchor="middle" x="308.64" y="-408" font-family="Times,serif" font-size="9.00">bias &#45;0.620</text>
<text text-anchor="middle" x="308.64" y="-398" font-family="Times,serif" font-size="9.00">h_scaling 0.930</text>
</g>
<!-- go&#45;&gt;key 327429
bias &#45;0.620
h_scaling 0.930 -->
<g id="edge14" class="edge">
<title>go&#45;&gt;key 327429
bias &#45;0.620
h_scaling 0.930</title>
<path fill="none" stroke="red" stroke-width="3.1" d="M308.64,-574.22C308.64,-557.79 308.64,-519.58 308.64,-484.28"/>
<polygon fill="red" stroke="red" stroke-width="3.1" points="312.14,-483.94 308.64,-473.94 305.14,-483.94 312.14,-483.94"/>
<text text-anchor="middle" x="322.64" y="-494.64" font-family="Times,serif" font-size="9.00">1.000</text>
</g>
<!-- go&#45;&gt;key 501
bias 0.091
h_scaling 0.515 -->
<g id="edge2" class="edge">
<title>go&#45;&gt;key 501
bias 0.091
h_scaling 0.515</title>
<path fill="none" stroke="blue" stroke-width="3.06" d="M316.65,-574.39C332.76,-557.49 368.66,-516.44 381.64,-473.84 398.13,-419.73 398.13,-400.67 381.64,-346.56 376.08,-328.31 366.31,-310.35 355.7,-294.44"/>
<polygon fill="blue" stroke="blue" stroke-width="3.06" points="358.31,-292.06 349.74,-285.83 352.55,-296.05 358.31,-292.06"/>
<text text-anchor="middle" x="409.14" y="-408" font-family="Times,serif" font-size="9.00">&#45;0.985</text>
</g>
<!-- go&#45;&gt;key 12985
bias &#45;0.754
h_scaling 0.042 -->
<g id="edge3" class="edge">
<title>go&#45;&gt;key 12985
bias &#45;0.754
h_scaling 0.042</title>
<path fill="none" stroke="red" stroke-width="2.45" d="M301.78,-574.29C287.84,-557.86 254.88,-520.01 223.64,-491.84 209.16,-478.78 192.73,-465.58 177.19,-453.74"/>
<polygon fill="red" stroke="red" stroke-width="2.45" points="179.25,-450.91 169.16,-447.69 175.04,-456.5 179.25,-450.91"/>
<text text-anchor="middle" x="246.64" y="-494.64" font-family="Times,serif" font-size="9.00">0.783</text>
</g>
<!-- output
bias &#45;0.469
h_scaling 0.602 -->
<g id="node3" class="node">
<title>output
bias &#45;0.469
h_scaling 0.602</title>
<ellipse fill="lightblue" stroke="black" cx="153.64" cy="-63.64" rx="63.78" ry="63.78"/>
<text text-anchor="middle" x="153.64" y="-71.44" font-family="Times,serif" font-size="9.00">output</text>
<text text-anchor="middle" x="153.64" y="-61.44" font-family="Times,serif" font-size="9.00">bias &#45;0.469</text>
<text text-anchor="middle" x="153.64" y="-51.44" font-family="Times,serif" font-size="9.00">h_scaling 0.602</text>
</g>
<!-- output
bias &#45;0.469
h_scaling 0.602&#45;&gt;key 12834
bias &#45;0.249
h_scaling 0.004 -->
<g id="edge6" class="edge">
<title>output
bias &#45;0.469
h_scaling 0.602&#45;&gt;key 12834
bias &#45;0.249
h_scaling 0.004</title>
<path fill="none" stroke="red" stroke-width="1.28" d="M124.89,-120.59C98.04,-176.21 59.9,-264.8 44.64,-346.56 34.46,-401.13 40.31,-463.8 48.11,-510.82"/>
<polygon fill="red" stroke="red" stroke-width="1.28" points="44.71,-511.66 49.86,-520.91 51.6,-510.46 44.71,-511.66"/>
<text text-anchor="middle" x="64.64" y="-321.36" font-family="Times,serif" font-size="9.00">0.395</text>
</g>
<!-- key 12834
bias &#45;0.249
h_scaling 0.004&#45;&gt;key 12834
bias &#45;0.249
h_scaling 0.004 -->
<g id="edge13" class="edge">
<title>key 12834
bias &#45;0.249
h_scaling 0.004&#45;&gt;key 12834
bias &#45;0.249
h_scaling 0.004</title>
<path fill="none" stroke="red" stroke-width="1.81" d="M125.58,-598.77C137.14,-596.89 145.28,-591.79 145.28,-583.48 145.28,-577.76 141.43,-573.56 135.27,-570.89"/>
<polygon fill="red" stroke="red" stroke-width="1.81" points="136.16,-567.5 125.58,-568.18 134.27,-574.24 136.16,-567.5"/>
<text text-anchor="middle" x="159.28" y="-581.28" font-family="Times,serif" font-size="9.00">0.569</text>
</g>
<!-- key 12834
bias &#45;0.249
h_scaling 0.004&#45;&gt;key 12985
bias &#45;0.754
h_scaling 0.042 -->
<g id="edge8" class="edge">
<title>key 12834
bias &#45;0.249
h_scaling 0.004&#45;&gt;key 12985
bias &#45;0.754
h_scaling 0.042</title>
<path fill="none" stroke="red" stroke-width="1.01" d="M82.53,-522.57C86.76,-509.14 91.29,-494.78 95.64,-480.99"/>
<polygon fill="red" stroke="red" stroke-width="1.01" points="99.09,-481.66 98.76,-471.07 92.42,-479.55 99.09,-481.66"/>
<text text-anchor="middle" x="104.64" y="-494.64" font-family="Times,serif" font-size="9.00">0.302</text>
</g>
<!-- key 327429
bias &#45;0.620
h_scaling 0.930&#45;&gt;output
bias &#45;0.469
h_scaling 0.602 -->
<g id="edge16" class="edge">
<title>key 327429
bias &#45;0.620
h_scaling 0.930&#45;&gt;output
bias &#45;0.469
h_scaling 0.602</title>
<path fill="none" stroke="blue" stroke-width="1.63" d="M261.81,-366.75C253.59,-359.8 244.99,-352.82 236.64,-346.56 224.81,-337.68 217.02,-340.75 208.64,-328.56 197.78,-312.77 178.3,-209.14 165.68,-136.54"/>
<polygon fill="blue" stroke="blue" stroke-width="1.63" points="169.1,-135.77 163.94,-126.52 162.2,-136.97 169.1,-135.77"/>
<text text-anchor="middle" x="214.14" y="-234.72" font-family="Times,serif" font-size="9.00">&#45;0.511</text>
</g>
<!-- key 327429
bias &#45;0.620
h_scaling 0.930&#45;&gt;key 501
bias 0.091
h_scaling 0.515 -->
<g id="edge15" class="edge">
<title>key 327429
bias &#45;0.620
h_scaling 0.930&#45;&gt;key 501
bias 0.091
h_scaling 0.515</title>
<path fill="none" stroke="blue" stroke-width="2.92" d="M308.64,-346.39C308.64,-334.87 308.64,-322.76 308.64,-310.97"/>
<polygon fill="blue" stroke="blue" stroke-width="2.92" points="312.14,-310.72 308.64,-300.72 305.14,-310.72 312.14,-310.72"/>
<text text-anchor="middle" x="324.14" y="-321.36" font-family="Times,serif" font-size="9.00">&#45;0.941</text>
</g>
<!-- key 501
bias 0.091
h_scaling 0.515&#45;&gt;output
bias &#45;0.469
h_scaling 0.602 -->
<g id="edge1" class="edge">
<title>key 501
bias 0.091
h_scaling 0.515&#45;&gt;output
bias &#45;0.469
h_scaling 0.602</title>
<path fill="none" stroke="red" stroke-width="3.1" d="M266.29,-189.12C246.64,-167.4 223.16,-141.46 202.74,-118.9"/>
<polygon fill="red" stroke="red" stroke-width="3.1" points="205.25,-116.45 195.94,-111.39 200.06,-121.15 205.25,-116.45"/>
<text text-anchor="middle" x="244.64" y="-148.08" font-family="Times,serif" font-size="9.00">1.000</text>
</g>
<!-- key 501
bias 0.091
h_scaling 0.515&#45;&gt;key 501
bias 0.091
h_scaling 0.515 -->
<g id="edge10" class="edge">
<title>key 501
bias 0.091
h_scaling 0.515&#45;&gt;key 501
bias 0.091
h_scaling 0.515</title>
<path fill="none" stroke="red" stroke-width="2.65" d="M370.58,-252.22C382.14,-250.33 390.28,-245.23 390.28,-236.92 390.28,-231.2 386.43,-227.01 380.27,-224.33"/>
<polygon fill="red" stroke="red" stroke-width="2.65" points="381.16,-220.94 370.58,-221.62 379.27,-227.68 381.16,-220.94"/>
<text text-anchor="middle" x="404.28" y="-234.72" font-family="Times,serif" font-size="9.00">0.851</text>
</g>
<!-- key 12985
bias &#45;0.754
h_scaling 0.042&#45;&gt;output
bias &#45;0.469
h_scaling 0.602 -->
<g id="edge5" class="edge">
<title>key 12985
bias &#45;0.754
h_scaling 0.042&#45;&gt;output
bias &#45;0.469
h_scaling 0.602</title>
<path fill="none" stroke="blue" stroke-width="3.1" d="M122.88,-346.55C127,-298.97 133.13,-231.95 139.64,-173.28 140.94,-161.54 142.44,-149.1 143.95,-137"/>
<polygon fill="blue" stroke="blue" stroke-width="3.1" points="147.45,-137.29 145.23,-126.93 140.5,-136.41 147.45,-137.29"/>
<text text-anchor="middle" x="155.14" y="-234.72" font-family="Times,serif" font-size="9.00">&#45;1.000</text>
</g>
<!-- key 12985
bias &#45;0.754
h_scaling 0.042&#45;&gt;key 501
bias 0.091
h_scaling 0.515 -->
<g id="edge4" class="edge">
<title>key 12985
bias &#45;0.754
h_scaling 0.042&#45;&gt;key 501
bias 0.091
h_scaling 0.515</title>
<path fill="none" stroke="blue" stroke-width="2.62" d="M164.85,-366.86C191.81,-342.68 225.74,-312.26 253.87,-287.03"/>
<polygon fill="blue" stroke="blue" stroke-width="2.62" points="256.53,-289.35 261.64,-280.07 251.86,-284.14 256.53,-289.35"/>
<text text-anchor="middle" x="228.14" y="-321.36" font-family="Times,serif" font-size="9.00">&#45;0.840</text>
</g>
<!-- key 12985
bias &#45;0.754
h_scaling 0.042&#45;&gt;key 12985
bias &#45;0.754
h_scaling 0.042 -->
<g id="edge7" class="edge">
<title>key 12985
bias &#45;0.754
h_scaling 0.042&#45;&gt;key 12985
bias &#45;0.754
h_scaling 0.042</title>
<path fill="none" stroke="red" stroke-width="3.1" d="M179.58,-425.5C191.14,-423.61 199.28,-418.51 199.28,-410.2 199.28,-404.48 195.43,-400.29 189.27,-397.61"/>
<polygon fill="red" stroke="red" stroke-width="3.1" points="190.16,-394.22 179.58,-394.9 188.27,-400.96 190.16,-394.22"/>
<text text-anchor="middle" x="213.28" y="-408" font-family="Times,serif" font-size="9.00">1.000</text>
</g>
</g>
</svg>
