<?xml version="1.0" encoding="UTF-8" standalone="no"?>
<!DOCTYPE svg PUBLIC "-//W3C//DTD SVG 1.1//EN"
 "http://www.w3.org/Graphics/SVG/1.1/DTD/svg11.dtd">
<!-- Generated by graphviz version 2.43.0 (0)
 -->
<!-- Title: %3 Pages: 1 -->
<svg width="462pt" height="1057pt"
 viewBox="0.00 0.00 462.00 1056.68" xmlns="http://www.w3.org/2000/svg" xmlns:xlink="http://www.w3.org/1999/xlink">
<g id="graph0" class="graph" transform="scale(1 1) rotate(0) translate(4 1052.68)">
<title>%3</title>
<polygon fill="white" stroke="transparent" points="-4,4 -4,-1052.68 458,-1052.68 458,4 -4,4"/>
<!-- ready -->
<g id="node1" class="node">
<title>ready</title>
<polygon fill="yellow" stroke="black" points="59.5,-1048.68 16.5,-1048.68 16.5,-1030.68 59.5,-1030.68 59.5,-1048.68"/>
<text text-anchor="middle" x="38" y="-1037.48" font-family="Times,serif" font-size="9.00">ready</text>
</g>
<!-- key 5552
bias &#45;0.755
h_scaling 1.000 -->
<g id="node6" class="node">
<title>key 5552
bias &#45;0.755
h_scaling 1.000</title>
<ellipse fill="white" stroke="black" cx="209" cy="-921.04" rx="63.78" ry="63.78"/>
<text text-anchor="middle" x="209" y="-928.84" font-family="Times,serif" font-size="9.00">key 5552</text>
<text text-anchor="middle" x="209" y="-918.84" font-family="Times,serif" font-size="9.00">bias &#45;0.755</text>
<text text-anchor="middle" x="209" y="-908.84" font-family="Times,serif" font-size="9.00">h_scaling 1.000</text>
</g>
<!-- ready&#45;&gt;key 5552
bias &#45;0.755
h_scaling 1.000 -->
<g id="edge9" class="edge">
<title>ready&#45;&gt;key 5552
bias &#45;0.755
h_scaling 1.000</title>
<path fill="none" stroke="blue" stroke-width="0.1" d="M49.75,-1030.66C69.87,-1016.94 112.22,-988.05 148.19,-963.51"/>
<polygon fill="blue" stroke="blue" stroke-width="0.1" points="150.42,-966.23 156.71,-957.7 146.47,-960.45 150.42,-966.23"/>
</g>
<!-- key 25016
bias &#45;0.529
h_scaling 1.000 -->
<g id="node7" class="node">
<title>key 25016
bias &#45;0.529
h_scaling 1.000</title>
<ellipse fill="white" stroke="black" cx="192" cy="-410.2" rx="63.78" ry="63.78"/>
<text text-anchor="middle" x="192" y="-418" font-family="Times,serif" font-size="9.00">key 25016</text>
<text text-anchor="middle" x="192" y="-408" font-family="Times,serif" font-size="9.00">bias &#45;0.529</text>
<text text-anchor="middle" x="192" y="-398" font-family="Times,serif" font-size="9.00">h_scaling 1.000</text>
</g>
<!-- ready&#45;&gt;key 25016
bias &#45;0.529
h_scaling 1.000 -->
<g id="edge14" class="edge">
<title>ready&#45;&gt;key 25016
bias &#45;0.529
h_scaling 1.000</title>
<path fill="none" stroke="blue" stroke-width="0.1" d="M38,-1030.47C38,-1011.43 38,-962.74 38,-922.04 38,-922.04 38,-922.04 38,-582.48 38,-525.31 86.03,-478.57 128.45,-448.45"/>
<polygon fill="blue" stroke="blue" stroke-width="0.1" points="130.6,-451.21 136.84,-442.65 126.62,-445.45 130.6,-451.21"/>
</g>
<!-- key 959
bias &#45;0.671
h_scaling 1.000 -->
<g id="node8" class="node">
<title>key 959
bias &#45;0.671
h_scaling 1.000</title>
<ellipse fill="white" stroke="black" cx="218" cy="-236.92" rx="63.78" ry="63.78"/>
<text text-anchor="middle" x="218" y="-244.72" font-family="Times,serif" font-size="9.00">key 959</text>
<text text-anchor="middle" x="218" y="-234.72" font-family="Times,serif" font-size="9.00">bias &#45;0.671</text>
<text text-anchor="middle" x="218" y="-224.72" font-family="Times,serif" font-size="9.00">h_scaling 1.000</text>
</g>
<!-- ready&#45;&gt;key 959
bias &#45;0.671
h_scaling 1.000 -->
<g id="edge6" class="edge">
<title>ready&#45;&gt;key 959
bias &#45;0.671
h_scaling 1.000</title>
<path fill="none" stroke="blue" stroke-width="0.1" d="M33.34,-1030.49C23.19,-1011.86 0,-964.63 0,-922.04 0,-922.04 0,-922.04 0,-409.2 0,-332.74 83.93,-285.22 147.64,-260.17"/>
<polygon fill="blue" stroke="blue" stroke-width="0.1" points="149.18,-263.32 157.27,-256.48 146.68,-256.78 149.18,-263.32"/>
</g>
<!-- go -->
<g id="node2" class="node">
<title>go</title>
<polygon fill="green" stroke="black" points="356,-1048.68 328,-1048.68 328,-1030.68 356,-1030.68 356,-1048.68"/>
<text text-anchor="middle" x="342" y="-1037.48" font-family="Times,serif" font-size="9.00">go</text>
</g>
<!-- go&#45;&gt;key 5552
bias &#45;0.755
h_scaling 1.000 -->
<g id="edge12" class="edge">
<title>go&#45;&gt;key 5552
bias &#45;0.755
h_scaling 1.000</title>
<path fill="none" stroke="red" stroke-width="0.1" d="M332.86,-1030.66C318.65,-1018.2 290.18,-993.23 264.12,-970.38"/>
<polygon fill="red" stroke="red" stroke-width="0.1" points="266.32,-967.65 256.49,-963.68 261.7,-972.91 266.32,-967.65"/>
<text text-anchor="middle" x="323" y="-1005.48" font-family="Times,serif" font-size="9.00">0.000</text>
</g>
<!-- go&#45;&gt;key 959
bias &#45;0.671
h_scaling 1.000 -->
<g id="edge4" class="edge">
<title>go&#45;&gt;key 959
bias &#45;0.671
h_scaling 1.000</title>
<path fill="none" stroke="red" stroke-width="0.1" d="M353.68,-1030.52C376.76,-1013.33 426,-970.95 426,-922.04 426,-922.04 426,-922.04 426,-409.2 426,-335.93 348.15,-288.21 287.7,-262.19"/>
<polygon fill="red" stroke="red" stroke-width="0.1" points="288.74,-258.83 278.16,-258.2 286.04,-265.29 288.74,-258.83"/>
<text text-anchor="middle" x="440" y="-667.92" font-family="Times,serif" font-size="9.00">0.000</text>
</g>
<!-- output
bias 0.891
h_scaling 1.000 -->
<g id="node3" class="node">
<title>output
bias 0.891
h_scaling 1.000</title>
<ellipse fill="lightblue" stroke="black" cx="332" cy="-756.76" rx="63.78" ry="63.78"/>
<text text-anchor="middle" x="332" y="-764.56" font-family="Times,serif" font-size="9.00">output</text>
<text text-anchor="middle" x="332" y="-754.56" font-family="Times,serif" font-size="9.00">bias 0.891</text>
<text text-anchor="middle" x="332" y="-744.56" font-family="Times,serif" font-size="9.00">h_scaling 1.000</text>
</g>
<!-- key 75200
bias &#45;0.304
h_scaling 1.000 -->
<g id="node4" class="node">
<title>key 75200
bias &#45;0.304
h_scaling 1.000</title>
<ellipse fill="white" stroke="black" cx="194" cy="-583.48" rx="63.78" ry="63.78"/>
<text text-anchor="middle" x="194" y="-591.28" font-family="Times,serif" font-size="9.00">key 75200</text>
<text text-anchor="middle" x="194" y="-581.28" font-family="Times,serif" font-size="9.00">bias &#45;0.304</text>
<text text-anchor="middle" x="194" y="-571.28" font-family="Times,serif" font-size="9.00">h_scaling 1.000</text>
</g>
<!-- output
bias 0.891
h_scaling 1.000&#45;&gt;key 75200
bias &#45;0.304
h_scaling 1.000 -->
<g id="edge10" class="edge">
<title>output
bias 0.891
h_scaling 1.000&#45;&gt;key 75200
bias &#45;0.304
h_scaling 1.000</title>
<path fill="none" stroke="red" stroke-width="0.1" d="M292.45,-706.67C276.07,-686.34 256.96,-662.62 239.95,-641.51"/>
<polygon fill="red" stroke="red" stroke-width="0.1" points="242.55,-639.16 233.55,-633.57 237.1,-643.55 242.55,-639.16"/>
<text text-anchor="middle" x="277" y="-667.92" font-family="Times,serif" font-size="9.00">0.000</text>
</g>
<!-- key 128331
bias &#45;0.341
h_scaling 1.000 -->
<g id="node5" class="node">
<title>key 128331
bias &#45;0.341
h_scaling 1.000</title>
<ellipse fill="white" stroke="black" cx="379" cy="-63.64" rx="63.78" ry="63.78"/>
<text text-anchor="middle" x="379" y="-71.44" font-family="Times,serif" font-size="9.00">key 128331</text>
<text text-anchor="middle" x="379" y="-61.44" font-family="Times,serif" font-size="9.00">bias &#45;0.341</text>
<text text-anchor="middle" x="379" y="-51.44" font-family="Times,serif" font-size="9.00">h_scaling 1.000</text>
</g>
<!-- output
bias 0.891
h_scaling 1.000&#45;&gt;key 128331
bias &#45;0.341
h_scaling 1.000 -->
<g id="edge18" class="edge">
<title>output
bias 0.891
h_scaling 1.000&#45;&gt;key 128331
bias &#45;0.341
h_scaling 1.000</title>
<path fill="none" stroke="blue" stroke-width="0.1" d="M349,-695.42C359.24,-663.09 370,-622.25 370,-584.48 370,-584.48 370,-584.48 370,-235.92 370,-203.46 370,-167.54 370.7,-137.01"/>
<polygon fill="blue" stroke="blue" stroke-width="0.1" points="374.2,-136.97 370.96,-126.88 367.2,-136.78 374.2,-136.97"/>
</g>
<!-- key 75200
bias &#45;0.304
h_scaling 1.000&#45;&gt;key 75200
bias &#45;0.304
h_scaling 1.000 -->
<g id="edge15" class="edge">
<title>key 75200
bias &#45;0.304
h_scaling 1.000&#45;&gt;key 75200
bias &#45;0.304
h_scaling 1.000</title>
<path fill="none" stroke="red" stroke-width="0.1" d="M255.94,-598.77C267.5,-596.89 275.64,-591.79 275.64,-583.48 275.64,-577.76 271.79,-573.56 265.63,-570.89"/>
<polygon fill="red" stroke="red" stroke-width="0.1" points="266.52,-567.5 255.94,-568.18 264.63,-574.24 266.52,-567.5"/>
<text text-anchor="middle" x="289.64" y="-581.28" font-family="Times,serif" font-size="9.00">0.000</text>
</g>
<!-- key 75200
bias &#45;0.304
h_scaling 1.000&#45;&gt;key 25016
bias &#45;0.529
h_scaling 1.000 -->
<g id="edge11" class="edge">
<title>key 75200
bias &#45;0.304
h_scaling 1.000&#45;&gt;key 25016
bias &#45;0.529
h_scaling 1.000</title>
<path fill="none" stroke="red" stroke-width="0.1" d="M187.19,-520.01C186.7,-513.87 186.29,-507.74 186,-501.84 185.71,-495.99 185.63,-489.92 185.71,-483.83"/>
<polygon fill="red" stroke="red" stroke-width="0.1" points="189.21,-483.68 185.97,-473.59 182.21,-483.5 189.21,-483.68"/>
<text text-anchor="middle" x="200" y="-494.64" font-family="Times,serif" font-size="9.00">0.000</text>
</g>
<!-- key 128331
bias &#45;0.341
h_scaling 1.000&#45;&gt;output
bias 0.891
h_scaling 1.000 -->
<g id="edge17" class="edge">
<title>key 128331
bias &#45;0.341
h_scaling 1.000&#45;&gt;output
bias 0.891
h_scaling 1.000</title>
<path fill="none" stroke="blue" stroke-width="0.1" d="M387.04,-126.88C388,-159.37 388,-199.79 388,-235.92 388,-584.48 388,-584.48 388,-584.48 388,-620.67 378.12,-659.67 366.56,-691.3"/>
<polygon fill="blue" stroke="blue" stroke-width="0.1" points="363.2,-690.28 362.92,-700.87 369.74,-692.77 363.2,-690.28"/>
</g>
<!-- key 5552
bias &#45;0.755
h_scaling 1.000&#45;&gt;output
bias 0.891
h_scaling 1.000 -->
<g id="edge3" class="edge">
<title>key 5552
bias &#45;0.755
h_scaling 1.000&#45;&gt;output
bias 0.891
h_scaling 1.000</title>
<path fill="none" stroke="blue" stroke-width="0.1" d="M247.24,-869.58C260.03,-852.71 274.39,-833.76 287.61,-816.33"/>
<polygon fill="blue" stroke="blue" stroke-width="0.1" points="290.74,-817.99 293.99,-807.9 285.16,-813.76 290.74,-817.99"/>
</g>
<!-- key 5552
bias &#45;0.755
h_scaling 1.000&#45;&gt;key 5552
bias &#45;0.755
h_scaling 1.000 -->
<g id="edge5" class="edge">
<title>key 5552
bias &#45;0.755
h_scaling 1.000&#45;&gt;key 5552
bias &#45;0.755
h_scaling 1.000</title>
<path fill="none" stroke="red" stroke-width="0.1" d="M271.29,-935.57C282.66,-933.73 290.64,-928.88 290.64,-921.04 290.64,-915.76 287.04,-911.85 281.23,-909.29"/>
<polygon fill="red" stroke="red" stroke-width="0.1" points="281.87,-905.83 271.29,-906.51 279.98,-912.57 281.87,-905.83"/>
<text text-anchor="middle" x="304.64" y="-918.84" font-family="Times,serif" font-size="9.00">0.000</text>
</g>
<!-- key 25016
bias &#45;0.529
h_scaling 1.000&#45;&gt;key 75200
bias &#45;0.304
h_scaling 1.000 -->
<g id="edge13" class="edge">
<title>key 25016
bias &#45;0.529
h_scaling 1.000&#45;&gt;key 75200
bias &#45;0.304
h_scaling 1.000</title>
<path fill="none" stroke="red" stroke-width="0.1" d="M210.34,-471.61C211.84,-478.38 213.11,-485.22 214,-491.84 214.91,-498.6 214.97,-505.6 214.43,-512.58"/>
<polygon fill="red" stroke="red" stroke-width="0.1" points="210.93,-512.43 213.26,-522.76 217.88,-513.23 210.93,-512.43"/>
<text text-anchor="middle" x="228" y="-494.64" font-family="Times,serif" font-size="9.00">0.000</text>
</g>
<!-- key 25016
bias &#45;0.529
h_scaling 1.000&#45;&gt;key 959
bias &#45;0.671
h_scaling 1.000 -->
<g id="edge8" class="edge">
<title>key 25016
bias &#45;0.529
h_scaling 1.000&#45;&gt;key 959
bias &#45;0.671
h_scaling 1.000</title>
<path fill="none" stroke="red" stroke-width="0.1" d="M201.46,-346.88C203.28,-334.92 205.19,-322.31 207.05,-310.07"/>
<polygon fill="red" stroke="red" stroke-width="0.1" points="210.55,-310.32 208.59,-299.91 203.63,-309.27 210.55,-310.32"/>
<text text-anchor="middle" x="219" y="-321.36" font-family="Times,serif" font-size="9.00">0.000</text>
</g>
<!-- key 959
bias &#45;0.671
h_scaling 1.000&#45;&gt;output
bias 0.891
h_scaling 1.000 -->
<g id="edge1" class="edge">
<title>key 959
bias &#45;0.671
h_scaling 1.000&#45;&gt;output
bias 0.891
h_scaling 1.000</title>
<path fill="none" stroke="blue" stroke-width="0.1" d="M244.38,-294.84C251.55,-311.34 258.98,-329.5 265,-346.56 291.6,-421.92 299.06,-441.15 313,-519.84 322.58,-573.93 327.34,-635.87 329.69,-682.7"/>
<polygon fill="blue" stroke="blue" stroke-width="0.1" points="326.2,-682.94 330.18,-692.76 333.19,-682.6 326.2,-682.94"/>
</g>
<!-- key 959
bias &#45;0.671
h_scaling 1.000&#45;&gt;key 128331
bias &#45;0.341
h_scaling 1.000 -->
<g id="edge16" class="edge">
<title>key 959
bias &#45;0.671
h_scaling 1.000&#45;&gt;key 128331
bias &#45;0.341
h_scaling 1.000</title>
<path fill="none" stroke="red" stroke-width="0.1" d="M261.15,-190.02C281.99,-167.84 307.13,-141.1 328.82,-118.02"/>
<polygon fill="red" stroke="red" stroke-width="0.1" points="331.44,-120.35 335.74,-110.67 326.34,-115.56 331.44,-120.35"/>
<text text-anchor="middle" x="312" y="-148.08" font-family="Times,serif" font-size="9.00">0.000</text>
</g>
<!-- key 959
bias &#45;0.671
h_scaling 1.000&#45;&gt;key 5552
bias &#45;0.755
h_scaling 1.000 -->
<g id="edge2" class="edge">
<title>key 959
bias &#45;0.671
h_scaling 1.000&#45;&gt;key 5552
bias &#45;0.755
h_scaling 1.000</title>
<path fill="none" stroke="red" stroke-width="0.1" d="M166.19,-274.13C128.48,-305.13 84,-353.51 84,-409.2 84,-757.76 84,-757.76 84,-757.76 84,-805 117.66,-846.91 150.05,-876.3"/>
<polygon fill="red" stroke="red" stroke-width="0.1" points="147.98,-879.14 157.8,-883.13 152.61,-873.89 147.98,-879.14"/>
<text text-anchor="middle" x="98" y="-581.28" font-family="Times,serif" font-size="9.00">0.000</text>
</g>
<!-- key 959
bias &#45;0.671
h_scaling 1.000&#45;&gt;key 959
bias &#45;0.671
h_scaling 1.000 -->
<g id="edge7" class="edge">
<title>key 959
bias &#45;0.671
h_scaling 1.000&#45;&gt;key 959
bias &#45;0.671
h_scaling 1.000</title>
<path fill="none" stroke="red" stroke-width="0.1" d="M279.94,-252.22C291.5,-250.33 299.64,-245.23 299.64,-236.92 299.64,-231.2 295.79,-227.01 289.63,-224.33"/>
<polygon fill="red" stroke="red" stroke-width="0.1" points="290.52,-220.94 279.94,-221.62 288.63,-227.68 290.52,-220.94"/>
<text text-anchor="middle" x="313.64" y="-234.72" font-family="Times,serif" font-size="9.00">0.000</text>
</g>
</g>
</svg>
