<?xml version="1.0" encoding="UTF-8" standalone="no"?>
<!DOCTYPE svg PUBLIC "-//W3C//DTD SVG 1.1//EN"
 "http://www.w3.org/Graphics/SVG/1.1/DTD/svg11.dtd">
<!-- Generated by graphviz version 2.43.0 (0)
 -->
<!-- Title: %3 Pages: 1 -->
<svg width="522pt" height="902pt"
 viewBox="0.00 0.00 522.00 902.40" xmlns="http://www.w3.org/2000/svg" xmlns:xlink="http://www.w3.org/1999/xlink">
<g id="graph0" class="graph" transform="scale(1 1) rotate(0) translate(4 898.4)">
<title>%3</title>
<polygon fill="white" stroke="transparent" points="-4,4 -4,-898.4 518,-898.4 518,4 -4,4"/>
<!-- ready
output 0.000 -->
<g id="node1" class="node">
<title>ready
output 0.000</title>
<polygon fill="yellow" stroke="black" points="273.5,-894.4 196.5,-894.4 196.5,-866.4 273.5,-866.4 273.5,-894.4"/>
<text text-anchor="middle" x="235" y="-883.2" font-family="Times,serif" font-size="9.00">ready</text>
<text text-anchor="middle" x="235" y="-873.2" font-family="Times,serif" font-size="9.00">output 0.000</text>
</g>
<!-- key 801
bias 0.000
h_scaling 0.338
output 0.937 -->
<g id="node4" class="node">
<title>key 801
bias 0.000
h_scaling 0.338
output 0.937</title>
<ellipse fill="white" stroke="black" cx="235" cy="-756.76" rx="63.78" ry="63.78"/>
<text text-anchor="middle" x="235" y="-769.56" font-family="Times,serif" font-size="9.00">key 801</text>
<text text-anchor="middle" x="235" y="-759.56" font-family="Times,serif" font-size="9.00">bias 0.000</text>
<text text-anchor="middle" x="235" y="-749.56" font-family="Times,serif" font-size="9.00">h_scaling 0.338</text>
<text text-anchor="middle" x="235" y="-739.56" font-family="Times,serif" font-size="9.00">output 0.937</text>
</g>
<!-- ready
output 0.000&#45;&gt;key 801
bias 0.000
h_scaling 0.338
output 0.937 -->
<g id="edge18" class="edge">
<title>ready
output 0.000&#45;&gt;key 801
bias 0.000
h_scaling 0.338
output 0.937</title>
<path fill="none" stroke="blue" stroke-width="0.1" d="M235,-866.38C235,-857.3 235,-844.39 235,-830.63"/>
<polygon fill="blue" stroke="blue" stroke-width="0.1" points="238.5,-830.49 235,-820.49 231.5,-830.49 238.5,-830.49"/>
<text text-anchor="middle" x="250.5" y="-841.2" font-family="Times,serif" font-size="9.00">&#45;0.169</text>
</g>
<!-- key 6093
bias 0.000
h_scaling 0.047
output 0.306 -->
<g id="node6" class="node">
<title>key 6093
bias 0.000
h_scaling 0.047
output 0.306</title>
<ellipse fill="white" stroke="black" cx="375" cy="-63.64" rx="63.78" ry="63.78"/>
<text text-anchor="middle" x="375" y="-76.44" font-family="Times,serif" font-size="9.00">key 6093</text>
<text text-anchor="middle" x="375" y="-66.44" font-family="Times,serif" font-size="9.00">bias 0.000</text>
<text text-anchor="middle" x="375" y="-56.44" font-family="Times,serif" font-size="9.00">h_scaling 0.047</text>
<text text-anchor="middle" x="375" y="-46.44" font-family="Times,serif" font-size="9.00">output 0.306</text>
</g>
<!-- ready
output 0.000&#45;&gt;key 6093
bias 0.000
h_scaling 0.047
output 0.306 -->
<g id="edge13" class="edge">
<title>ready
output 0.000&#45;&gt;key 6093
bias 0.000
h_scaling 0.047
output 0.306</title>
<path fill="none" stroke="red" stroke-width="0.1" d="M273.67,-877.86C344.08,-872.78 486,-850.97 486,-757.76 486,-757.76 486,-757.76 486,-235.92 486,-189.66 457.14,-146.05 428.85,-114.41"/>
<polygon fill="red" stroke="red" stroke-width="0.1" points="431.42,-112.03 422.07,-107.03 426.26,-116.76 431.42,-112.03"/>
<text text-anchor="middle" x="500" y="-494.64" font-family="Times,serif" font-size="9.00">0.458</text>
</g>
<!-- key 5019
bias 0.000
h_scaling 0.436
output 0.272 -->
<g id="node7" class="node">
<title>key 5019
bias 0.000
h_scaling 0.436
output 0.272</title>
<ellipse fill="white" stroke="black" cx="176" cy="-410.2" rx="63.78" ry="63.78"/>
<text text-anchor="middle" x="176" y="-423" font-family="Times,serif" font-size="9.00">key 5019</text>
<text text-anchor="middle" x="176" y="-413" font-family="Times,serif" font-size="9.00">bias 0.000</text>
<text text-anchor="middle" x="176" y="-403" font-family="Times,serif" font-size="9.00">h_scaling 0.436</text>
<text text-anchor="middle" x="176" y="-393" font-family="Times,serif" font-size="9.00">output 0.272</text>
</g>
<!-- ready
output 0.000&#45;&gt;key 5019
bias 0.000
h_scaling 0.436
output 0.272 -->
<g id="edge8" class="edge">
<title>ready
output 0.000&#45;&gt;key 5019
bias 0.000
h_scaling 0.436
output 0.272</title>
<path fill="none" stroke="red" stroke-width="0.1" d="M209.92,-866.19C193.33,-856.02 172.73,-840.34 162,-820.4 92.6,-691.4 102.57,-634.45 136,-491.84 137.27,-486.42 138.96,-480.94 140.93,-475.54"/>
<polygon fill="red" stroke="red" stroke-width="0.1" points="144.32,-476.49 144.75,-465.9 137.81,-473.91 144.32,-476.49"/>
<text text-anchor="middle" x="125" y="-667.92" font-family="Times,serif" font-size="9.00">0.741</text>
</g>
<!-- go
output 1.000 -->
<g id="node2" class="node">
<title>go
output 1.000</title>
<polygon fill="green" stroke="black" points="84.5,-894.4 7.5,-894.4 7.5,-866.4 84.5,-866.4 84.5,-894.4"/>
<text text-anchor="middle" x="46" y="-883.2" font-family="Times,serif" font-size="9.00">go</text>
<text text-anchor="middle" x="46" y="-873.2" font-family="Times,serif" font-size="9.00">output 1.000</text>
</g>
<!-- go
output 1.000&#45;&gt;key 801
bias 0.000
h_scaling 0.338
output 0.937 -->
<g id="edge3" class="edge">
<title>go
output 1.000&#45;&gt;key 801
bias 0.000
h_scaling 0.338
output 0.937</title>
<path fill="none" stroke="red" stroke-width="0.1" d="M66.23,-866.38C91.53,-850.09 136.02,-821.46 172.97,-797.68"/>
<polygon fill="red" stroke="red" stroke-width="0.1" points="175.19,-800.42 181.7,-792.06 171.4,-794.53 175.19,-800.42"/>
<text text-anchor="middle" x="121" y="-841.2" font-family="Times,serif" font-size="9.00">0.935</text>
</g>
<!-- key 802
bias 0.000
h_scaling 0.213
output 0.632 -->
<g id="node5" class="node">
<title>key 802
bias 0.000
h_scaling 0.213
output 0.632</title>
<ellipse fill="white" stroke="black" cx="220" cy="-236.92" rx="63.78" ry="63.78"/>
<text text-anchor="middle" x="220" y="-249.72" font-family="Times,serif" font-size="9.00">key 802</text>
<text text-anchor="middle" x="220" y="-239.72" font-family="Times,serif" font-size="9.00">bias 0.000</text>
<text text-anchor="middle" x="220" y="-229.72" font-family="Times,serif" font-size="9.00">h_scaling 0.213</text>
<text text-anchor="middle" x="220" y="-219.72" font-family="Times,serif" font-size="9.00">output 0.632</text>
</g>
<!-- go
output 1.000&#45;&gt;key 802
bias 0.000
h_scaling 0.213
output 0.632 -->
<g id="edge1" class="edge">
<title>go
output 1.000&#45;&gt;key 802
bias 0.000
h_scaling 0.213
output 0.632</title>
<path fill="none" stroke="red" stroke-width="0.1" d="M46,-866.26C46,-843.95 46,-797.25 46,-757.76 46,-757.76 46,-757.76 46,-409.2 46,-346.22 104.61,-298.65 153.8,-269.82"/>
<polygon fill="red" stroke="red" stroke-width="0.1" points="155.59,-272.82 162.54,-264.83 152.12,-266.74 155.59,-272.82"/>
<text text-anchor="middle" x="60" y="-581.28" font-family="Times,serif" font-size="9.00">0.373</text>
</g>
<!-- go
output 1.000&#45;&gt;key 6093
bias 0.000
h_scaling 0.047
output 0.306 -->
<g id="edge12" class="edge">
<title>go
output 1.000&#45;&gt;key 6093
bias 0.000
h_scaling 0.047
output 0.306</title>
<path fill="none" stroke="blue" stroke-width="0.1" d="M37.35,-866.16C24.02,-844.45 0,-799.53 0,-757.76 0,-757.76 0,-757.76 0,-235.92 0,-104.87 191.82,-73.66 301.08,-66.52"/>
<polygon fill="blue" stroke="blue" stroke-width="0.1" points="301.61,-69.99 311.39,-65.9 301.19,-63 301.61,-69.99"/>
<text text-anchor="middle" x="15.5" y="-494.64" font-family="Times,serif" font-size="9.00">&#45;0.371</text>
</g>
<!-- output
bias 0.000
h_scaling 0.530
output 0.671 -->
<g id="node3" class="node">
<title>output
bias 0.000
h_scaling 0.530
output 0.671</title>
<ellipse fill="lightblue" stroke="black" cx="287" cy="-583.48" rx="63.78" ry="63.78"/>
<text text-anchor="middle" x="287" y="-596.28" font-family="Times,serif" font-size="9.00">output</text>
<text text-anchor="middle" x="287" y="-586.28" font-family="Times,serif" font-size="9.00">bias 0.000</text>
<text text-anchor="middle" x="287" y="-576.28" font-family="Times,serif" font-size="9.00">h_scaling 0.530</text>
<text text-anchor="middle" x="287" y="-566.28" font-family="Times,serif" font-size="9.00">output 0.671</text>
</g>
<!-- output
bias 0.000
h_scaling 0.530
output 0.671&#45;&gt;key 5019
bias 0.000
h_scaling 0.436
output 0.272 -->
<g id="edge17" class="edge">
<title>output
bias 0.000
h_scaling 0.530
output 0.671&#45;&gt;key 5019
bias 0.000
h_scaling 0.436
output 0.272</title>
<path fill="none" stroke="blue" stroke-width="0.1" d="M252.79,-529.69C241.08,-511.62 227.88,-491.25 215.77,-472.56"/>
<polygon fill="blue" stroke="blue" stroke-width="0.1" points="218.66,-470.59 210.29,-464.11 212.79,-474.4 218.66,-470.59"/>
<text text-anchor="middle" x="246.5" y="-494.64" font-family="Times,serif" font-size="9.00">&#45;0.718</text>
</g>
<!-- key 801
bias 0.000
h_scaling 0.338
output 0.937&#45;&gt;output
bias 0.000
h_scaling 0.530
output 0.671 -->
<g id="edge2" class="edge">
<title>key 801
bias 0.000
h_scaling 0.338
output 0.937&#45;&gt;output
bias 0.000
h_scaling 0.530
output 0.671</title>
<path fill="none" stroke="blue" stroke-width="0.1" d="M253.33,-695.37C257.36,-682.12 261.65,-667.98 265.78,-654.39"/>
<polygon fill="blue" stroke="blue" stroke-width="0.1" points="269.19,-655.19 268.74,-644.61 262.49,-653.16 269.19,-655.19"/>
<text text-anchor="middle" x="276.5" y="-667.92" font-family="Times,serif" font-size="9.00">&#45;1.000</text>
</g>
<!-- key 801
bias 0.000
h_scaling 0.338
output 0.937&#45;&gt;key 801
bias 0.000
h_scaling 0.338
output 0.937 -->
<g id="edge15" class="edge">
<title>key 801
bias 0.000
h_scaling 0.338
output 0.937&#45;&gt;key 801
bias 0.000
h_scaling 0.338
output 0.937</title>
<path fill="none" stroke="red" stroke-width="0.1" d="M296.94,-772.05C308.5,-770.17 316.64,-765.07 316.64,-756.76 316.64,-751.04 312.79,-746.84 306.63,-744.17"/>
<polygon fill="red" stroke="red" stroke-width="0.1" points="307.52,-740.78 296.94,-741.46 305.63,-747.52 307.52,-740.78"/>
<text text-anchor="middle" x="330.64" y="-754.56" font-family="Times,serif" font-size="9.00">0.486</text>
</g>
<!-- key 802
bias 0.000
h_scaling 0.213
output 0.632&#45;&gt;output
bias 0.000
h_scaling 0.530
output 0.671 -->
<g id="edge16" class="edge">
<title>key 802
bias 0.000
h_scaling 0.213
output 0.632&#45;&gt;output
bias 0.000
h_scaling 0.530
output 0.671</title>
<path fill="none" stroke="blue" stroke-width="0.1" d="M261.81,-285.13C275.12,-303.1 288.15,-324.57 295,-346.56 311.62,-399.89 308.27,-463.31 301.51,-510.96"/>
<polygon fill="blue" stroke="blue" stroke-width="0.1" points="298.05,-510.47 300.02,-520.88 304.97,-511.51 298.05,-510.47"/>
<text text-anchor="middle" x="322.5" y="-408" font-family="Times,serif" font-size="9.00">&#45;0.964</text>
</g>
<!-- key 802
bias 0.000
h_scaling 0.213
output 0.632&#45;&gt;key 801
bias 0.000
h_scaling 0.338
output 0.937 -->
<g id="edge4" class="edge">
<title>key 802
bias 0.000
h_scaling 0.213
output 0.632&#45;&gt;key 801
bias 0.000
h_scaling 0.338
output 0.937</title>
<path fill="none" stroke="red" stroke-width="0.1" d="M166.67,-271.98C142.39,-290.72 116.19,-316.32 103,-346.56 80.39,-398.41 90.71,-418.62 103,-473.84 120.82,-553.92 163.92,-638.15 196.05,-693.46"/>
<polygon fill="red" stroke="red" stroke-width="0.1" points="193.23,-695.57 201.31,-702.42 199.27,-692.03 193.23,-695.57"/>
<text text-anchor="middle" x="123" y="-494.64" font-family="Times,serif" font-size="9.00">1.063</text>
</g>
<!-- key 802
bias 0.000
h_scaling 0.213
output 0.632&#45;&gt;key 802
bias 0.000
h_scaling 0.213
output 0.632 -->
<g id="edge9" class="edge">
<title>key 802
bias 0.000
h_scaling 0.213
output 0.632&#45;&gt;key 802
bias 0.000
h_scaling 0.213
output 0.632</title>
<path fill="none" stroke="red" stroke-width="0.1" d="M281.94,-252.22C293.5,-250.33 301.64,-245.23 301.64,-236.92 301.64,-231.2 297.79,-227.01 291.63,-224.33"/>
<polygon fill="red" stroke="red" stroke-width="0.1" points="292.52,-220.94 281.94,-221.62 290.63,-227.68 292.52,-220.94"/>
<text text-anchor="middle" x="315.64" y="-234.72" font-family="Times,serif" font-size="9.00">0.640</text>
</g>
<!-- key 802
bias 0.000
h_scaling 0.213
output 0.632&#45;&gt;key 6093
bias 0.000
h_scaling 0.047
output 0.306 -->
<g id="edge6" class="edge">
<title>key 802
bias 0.000
h_scaling 0.213
output 0.632&#45;&gt;key 6093
bias 0.000
h_scaling 0.047
output 0.306</title>
<path fill="none" stroke="blue" stroke-width="0.1" d="M262.35,-189.12C282,-167.4 305.48,-141.46 325.9,-118.9"/>
<polygon fill="blue" stroke="blue" stroke-width="0.1" points="328.58,-121.15 332.7,-111.39 323.39,-116.45 328.58,-121.15"/>
<text text-anchor="middle" x="312.5" y="-148.08" font-family="Times,serif" font-size="9.00">&#45;0.444</text>
</g>
<!-- key 6093
bias 0.000
h_scaling 0.047
output 0.306&#45;&gt;output
bias 0.000
h_scaling 0.530
output 0.671 -->
<g id="edge10" class="edge">
<title>key 6093
bias 0.000
h_scaling 0.047
output 0.306&#45;&gt;output
bias 0.000
h_scaling 0.530
output 0.671</title>
<path fill="none" stroke="red" stroke-width="0.1" d="M377.37,-127.3C378.78,-208.75 375.57,-354.64 342,-473.84 337.7,-489.11 331.19,-504.77 324.14,-519.27"/>
<polygon fill="red" stroke="red" stroke-width="0.1" points="320.81,-518.11 319.45,-528.62 327.06,-521.25 320.81,-518.11"/>
<text text-anchor="middle" x="383" y="-321.36" font-family="Times,serif" font-size="9.00">1.022</text>
</g>
<!-- key 6093
bias 0.000
h_scaling 0.047
output 0.306&#45;&gt;key 801
bias 0.000
h_scaling 0.338
output 0.937 -->
<g id="edge11" class="edge">
<title>key 6093
bias 0.000
h_scaling 0.047
output 0.306&#45;&gt;key 801
bias 0.000
h_scaling 0.338
output 0.937</title>
<path fill="none" stroke="blue" stroke-width="0.1" d="M401.46,-121.61C414.3,-154.32 427,-196.61 427,-235.92 427,-584.48 427,-584.48 427,-584.48 427,-652.92 358.22,-700.79 302.99,-728.2"/>
<polygon fill="blue" stroke="blue" stroke-width="0.1" points="301.39,-725.08 293.91,-732.58 304.44,-731.39 301.39,-725.08"/>
<text text-anchor="middle" x="442.5" y="-408" font-family="Times,serif" font-size="9.00">&#45;0.997</text>
</g>
<!-- key 6093
bias 0.000
h_scaling 0.047
output 0.306&#45;&gt;key 802
bias 0.000
h_scaling 0.213
output 0.632 -->
<g id="edge7" class="edge">
<title>key 6093
bias 0.000
h_scaling 0.047
output 0.306&#45;&gt;key 802
bias 0.000
h_scaling 0.213
output 0.632</title>
<path fill="none" stroke="blue" stroke-width="0.1" d="M319.72,-95.76C299.65,-109.06 278,-125.99 262,-145.28 256.37,-152.07 251.32,-159.74 246.84,-167.67"/>
<polygon fill="blue" stroke="blue" stroke-width="0.1" points="243.64,-166.23 242.02,-176.7 249.81,-169.52 243.64,-166.23"/>
<text text-anchor="middle" x="277.5" y="-148.08" font-family="Times,serif" font-size="9.00">&#45;0.350</text>
</g>
<!-- key 6093
bias 0.000
h_scaling 0.047
output 0.306&#45;&gt;key 6093
bias 0.000
h_scaling 0.047
output 0.306 -->
<g id="edge14" class="edge">
<title>key 6093
bias 0.000
h_scaling 0.047
output 0.306&#45;&gt;key 6093
bias 0.000
h_scaling 0.047
output 0.306</title>
<path fill="none" stroke="red" stroke-width="0.1" d="M436.94,-78.94C448.5,-77.05 456.64,-71.95 456.64,-63.64 456.64,-57.92 452.79,-53.73 446.63,-51.05"/>
<polygon fill="red" stroke="red" stroke-width="0.1" points="447.52,-47.66 436.94,-48.34 445.63,-54.4 447.52,-47.66"/>
<text text-anchor="middle" x="470.64" y="-61.44" font-family="Times,serif" font-size="9.00">0.465</text>
</g>
<!-- key 5019
bias 0.000
h_scaling 0.436
output 0.272&#45;&gt;key 802
bias 0.000
h_scaling 0.213
output 0.632 -->
<g id="edge5" class="edge">
<title>key 5019
bias 0.000
h_scaling 0.436
output 0.272&#45;&gt;key 802
bias 0.000
h_scaling 0.213
output 0.632</title>
<path fill="none" stroke="blue" stroke-width="0.1" d="M191.64,-348.33C194.92,-335.53 198.42,-321.93 201.79,-308.8"/>
<polygon fill="blue" stroke="blue" stroke-width="0.1" points="205.24,-309.44 204.34,-298.88 198.46,-307.69 205.24,-309.44"/>
<text text-anchor="middle" x="213.5" y="-321.36" font-family="Times,serif" font-size="9.00">&#45;0.343</text>
</g>
<!-- key 5019
bias 0.000
h_scaling 0.436
output 0.272&#45;&gt;key 5019
bias 0.000
h_scaling 0.436
output 0.272 -->
<g id="edge19" class="edge">
<title>key 5019
bias 0.000
h_scaling 0.436
output 0.272&#45;&gt;key 5019
bias 0.000
h_scaling 0.436
output 0.272</title>
<path fill="none" stroke="red" stroke-width="0.1" d="M237.94,-425.5C249.5,-423.61 257.64,-418.51 257.64,-410.2 257.64,-404.48 253.79,-400.29 247.63,-397.61"/>
<polygon fill="red" stroke="red" stroke-width="0.1" points="248.52,-394.22 237.94,-394.9 246.63,-400.96 248.52,-394.22"/>
<text text-anchor="middle" x="271.64" y="-408" font-family="Times,serif" font-size="9.00">0.157</text>
</g>
</g>
</svg>
