<?xml version="1.0" encoding="UTF-8" standalone="no"?>
<!DOCTYPE svg PUBLIC "-//W3C//DTD SVG 1.1//EN"
 "http://www.w3.org/Graphics/SVG/1.1/DTD/svg11.dtd">
<!-- Generated by graphviz version 2.43.0 (0)
 -->
<!-- Title: %3 Pages: 1 -->
<svg width="745pt" height="1020pt"
 viewBox="0.00 0.00 745.00 1019.68" xmlns="http://www.w3.org/2000/svg" xmlns:xlink="http://www.w3.org/1999/xlink">
<g id="graph0" class="graph" transform="scale(1 1) rotate(0) translate(4 1015.68)">
<title>%3</title>
<polygon fill="white" stroke="transparent" points="-4,4 -4,-1015.68 741,-1015.68 741,4 -4,4"/>
<!-- ready
output 0.000 -->
<g id="node1" class="node">
<title>ready
output 0.000</title>
<polygon fill="yellow" stroke="black" points="143.5,-1011.68 66.5,-1011.68 66.5,-983.68 143.5,-983.68 143.5,-1011.68"/>
<text text-anchor="middle" x="105" y="-1000.48" font-family="Times,serif" font-size="9.00">ready</text>
<text text-anchor="middle" x="105" y="-990.48" font-family="Times,serif" font-size="9.00">output 0.000</text>
</g>
<!-- key 7976
bias 0.884
h_scaling 0.000
output 0.988 -->
<g id="node4" class="node">
<title>key 7976
bias 0.884
h_scaling 0.000
output 0.988</title>
<ellipse fill="white" stroke="black" cx="202" cy="-874.04" rx="63.78" ry="63.78"/>
<text text-anchor="middle" x="202" y="-886.84" font-family="Times,serif" font-size="9.00">key 7976</text>
<text text-anchor="middle" x="202" y="-876.84" font-family="Times,serif" font-size="9.00">bias 0.884</text>
<text text-anchor="middle" x="202" y="-866.84" font-family="Times,serif" font-size="9.00">h_scaling 0.000</text>
<text text-anchor="middle" x="202" y="-856.84" font-family="Times,serif" font-size="9.00">output 0.988</text>
</g>
<!-- ready
output 0.000&#45;&gt;key 7976
bias 0.884
h_scaling 0.000
output 0.988 -->
<g id="edge10" class="edge">
<title>ready
output 0.000&#45;&gt;key 7976
bias 0.884
h_scaling 0.000
output 0.988</title>
<path fill="none" stroke="red" stroke-width="0.1" d="M115.38,-983.66C125.35,-971.16 141.11,-951.39 156.48,-932.12"/>
<polygon fill="red" stroke="red" stroke-width="0.1" points="159.29,-934.21 162.79,-924.2 153.82,-929.84 159.29,-934.21"/>
<text text-anchor="middle" x="150" y="-958.48" font-family="Times,serif" font-size="9.00">0.921</text>
</g>
<!-- key 42770
bias &#45;0.691
h_scaling 0.618
output 0.200 -->
<g id="node6" class="node">
<title>key 42770
bias &#45;0.691
h_scaling 0.618
output 0.200</title>
<ellipse fill="white" stroke="black" cx="240" cy="-236.92" rx="63.78" ry="63.78"/>
<text text-anchor="middle" x="240" y="-249.72" font-family="Times,serif" font-size="9.00">key 42770</text>
<text text-anchor="middle" x="240" y="-239.72" font-family="Times,serif" font-size="9.00">bias &#45;0.691</text>
<text text-anchor="middle" x="240" y="-229.72" font-family="Times,serif" font-size="9.00">h_scaling 0.618</text>
<text text-anchor="middle" x="240" y="-219.72" font-family="Times,serif" font-size="9.00">output 0.200</text>
</g>
<!-- ready
output 0.000&#45;&gt;key 42770
bias &#45;0.691
h_scaling 0.618
output 0.200 -->
<g id="edge15" class="edge">
<title>ready
output 0.000&#45;&gt;key 42770
bias &#45;0.691
h_scaling 0.618
output 0.200</title>
<path fill="none" stroke="red" stroke-width="0.1" d="M105,-983.54C105,-961.23 105,-914.53 105,-875.04 105,-875.04 105,-875.04 105,-613.12 105,-479.24 102.47,-435.3 168,-318.56 173.61,-308.56 180.65,-298.74 188.11,-289.58"/>
<polygon fill="red" stroke="red" stroke-width="0.1" points="190.97,-291.62 194.75,-281.72 185.62,-287.1 190.97,-291.62"/>
<text text-anchor="middle" x="119" y="-698.56" font-family="Times,serif" font-size="9.00">0.633</text>
</g>
<!-- key 15226
bias 0.580
h_scaling 0.892
output 0.064 -->
<g id="node8" class="node">
<title>key 15226
bias 0.580
h_scaling 0.892
output 0.064</title>
<ellipse fill="white" stroke="black" cx="240" cy="-63.64" rx="63.78" ry="63.78"/>
<text text-anchor="middle" x="240" y="-76.44" font-family="Times,serif" font-size="9.00">key 15226</text>
<text text-anchor="middle" x="240" y="-66.44" font-family="Times,serif" font-size="9.00">bias 0.580</text>
<text text-anchor="middle" x="240" y="-56.44" font-family="Times,serif" font-size="9.00">h_scaling 0.892</text>
<text text-anchor="middle" x="240" y="-46.44" font-family="Times,serif" font-size="9.00">output 0.064</text>
</g>
<!-- ready
output 0.000&#45;&gt;key 15226
bias 0.580
h_scaling 0.892
output 0.064 -->
<g id="edge6" class="edge">
<title>ready
output 0.000&#45;&gt;key 15226
bias 0.580
h_scaling 0.892
output 0.064</title>
<path fill="none" stroke="red" stroke-width="0.1" d="M81.96,-983.67C51.05,-964.32 0,-924.83 0,-875.04 0,-875.04 0,-875.04 0,-235.92 0,-152.32 97.68,-105.68 168.41,-82.86"/>
<polygon fill="red" stroke="red" stroke-width="0.1" points="169.7,-86.12 178.19,-79.8 167.61,-79.44 169.7,-86.12"/>
<text text-anchor="middle" x="14" y="-611.92" font-family="Times,serif" font-size="9.00">1.100</text>
</g>
<!-- go
output 0.000 -->
<g id="node2" class="node">
<title>go
output 0.000</title>
<polygon fill="green" stroke="black" points="471.5,-1011.68 394.5,-1011.68 394.5,-983.68 471.5,-983.68 471.5,-1011.68"/>
<text text-anchor="middle" x="433" y="-1000.48" font-family="Times,serif" font-size="9.00">go</text>
<text text-anchor="middle" x="433" y="-990.48" font-family="Times,serif" font-size="9.00">output 0.000</text>
</g>
<!-- go
output 0.000&#45;&gt;key 7976
bias 0.884
h_scaling 0.000
output 0.988 -->
<g id="edge4" class="edge">
<title>go
output 0.000&#45;&gt;key 7976
bias 0.884
h_scaling 0.000
output 0.988</title>
<path fill="none" stroke="blue" stroke-width="0.1" d="M394.28,-984.2C379.81,-979.07 363.4,-972.68 349,-965.68 319.69,-951.41 288.77,-932.91 262.89,-916.35"/>
<polygon fill="blue" stroke="blue" stroke-width="0.1" points="264.61,-913.3 254.31,-910.82 260.82,-919.18 264.61,-913.3"/>
<text text-anchor="middle" x="364.5" y="-958.48" font-family="Times,serif" font-size="9.00">&#45;0.961</text>
</g>
<!-- key 5263
bias 0.990
h_scaling 0.401
output 0.757 -->
<g id="node5" class="node">
<title>key 5263
bias 0.990
h_scaling 0.401
output 0.757</title>
<ellipse fill="white" stroke="black" cx="504" cy="-700.76" rx="63.78" ry="63.78"/>
<text text-anchor="middle" x="504" y="-713.56" font-family="Times,serif" font-size="9.00">key 5263</text>
<text text-anchor="middle" x="504" y="-703.56" font-family="Times,serif" font-size="9.00">bias 0.990</text>
<text text-anchor="middle" x="504" y="-693.56" font-family="Times,serif" font-size="9.00">h_scaling 0.401</text>
<text text-anchor="middle" x="504" y="-683.56" font-family="Times,serif" font-size="9.00">output 0.757</text>
</g>
<!-- go
output 0.000&#45;&gt;key 5263
bias 0.990
h_scaling 0.401
output 0.757 -->
<g id="edge2" class="edge">
<title>go
output 0.000&#45;&gt;key 5263
bias 0.990
h_scaling 0.401
output 0.757</title>
<path fill="none" stroke="red" stroke-width="0.1" d="M436.14,-983.62C444.86,-947.42 469.81,-843.76 486.9,-772.77"/>
<polygon fill="red" stroke="red" stroke-width="0.1" points="490.32,-773.52 489.26,-762.98 483.52,-771.88 490.32,-773.52"/>
<text text-anchor="middle" x="490" y="-871.84" font-family="Times,serif" font-size="9.00">1.063</text>
</g>
<!-- go
output 0.000&#45;&gt;key 15226
bias 0.580
h_scaling 0.892
output 0.064 -->
<g id="edge11" class="edge">
<title>go
output 0.000&#45;&gt;key 15226
bias 0.580
h_scaling 0.892
output 0.064</title>
<path fill="none" stroke="blue" stroke-width="0.1" d="M471.54,-996.5C546.79,-993.92 706,-976.48 706,-875.04 706,-875.04 706,-875.04 706,-235.92 706,-153.17 443.88,-98.2 312.82,-75.89"/>
<polygon fill="blue" stroke="blue" stroke-width="0.1" points="313.29,-72.42 302.85,-74.21 312.13,-79.32 313.29,-72.42"/>
<text text-anchor="middle" x="721.5" y="-611.92" font-family="Times,serif" font-size="9.00">&#45;0.351</text>
</g>
<!-- key 124953
bias &#45;0.943
h_scaling 1.000
output 0.085 -->
<g id="node9" class="node">
<title>key 124953
bias &#45;0.943
h_scaling 1.000
output 0.085</title>
<ellipse fill="white" stroke="black" cx="385" cy="-236.92" rx="63.78" ry="63.78"/>
<text text-anchor="middle" x="385" y="-249.72" font-family="Times,serif" font-size="9.00">key 124953</text>
<text text-anchor="middle" x="385" y="-239.72" font-family="Times,serif" font-size="9.00">bias &#45;0.943</text>
<text text-anchor="middle" x="385" y="-229.72" font-family="Times,serif" font-size="9.00">h_scaling 1.000</text>
<text text-anchor="middle" x="385" y="-219.72" font-family="Times,serif" font-size="9.00">output 0.085</text>
</g>
<!-- go
output 0.000&#45;&gt;key 124953
bias &#45;0.943
h_scaling 1.000
output 0.085 -->
<g id="edge18" class="edge">
<title>go
output 0.000&#45;&gt;key 124953
bias &#45;0.943
h_scaling 1.000
output 0.085</title>
<path fill="none" stroke="red" stroke-width="0.1" d="M425.85,-983.62C414.59,-961.81 394,-916.28 394,-875.04 394,-875.04 394,-875.04 394,-526.48 394,-453.07 391.05,-369.21 388.53,-310.89"/>
<polygon fill="red" stroke="red" stroke-width="0.1" points="392.02,-310.5 388.08,-300.66 385.03,-310.81 392.02,-310.5"/>
<text text-anchor="middle" x="408" y="-698.56" font-family="Times,serif" font-size="9.00">0.829</text>
</g>
<!-- output
bias 0.905
h_scaling 0.722
output 0.001 -->
<g id="node3" class="node">
<title>output
bias 0.905
h_scaling 0.722
output 0.001</title>
<ellipse fill="lightblue" stroke="black" cx="264" cy="-527.48" rx="63.78" ry="63.78"/>
<text text-anchor="middle" x="264" y="-540.28" font-family="Times,serif" font-size="9.00">output</text>
<text text-anchor="middle" x="264" y="-530.28" font-family="Times,serif" font-size="9.00">bias 0.905</text>
<text text-anchor="middle" x="264" y="-520.28" font-family="Times,serif" font-size="9.00">h_scaling 0.722</text>
<text text-anchor="middle" x="264" y="-510.28" font-family="Times,serif" font-size="9.00">output 0.001</text>
</g>
<!-- output
bias 0.905
h_scaling 0.722
output 0.001&#45;&gt;key 7976
bias 0.884
h_scaling 0.000
output 0.988 -->
<g id="edge5" class="edge">
<title>output
bias 0.905
h_scaling 0.722
output 0.001&#45;&gt;key 7976
bias 0.884
h_scaling 0.000
output 0.988</title>
<path fill="none" stroke="blue" stroke-width="0.1" d="M252.88,-590.27C242.24,-649.39 226.2,-738.53 214.98,-800.88"/>
<polygon fill="blue" stroke="blue" stroke-width="0.1" points="211.48,-800.58 213.16,-811.04 218.37,-801.82 211.48,-800.58"/>
<text text-anchor="middle" x="259.5" y="-698.56" font-family="Times,serif" font-size="9.00">&#45;0.664</text>
</g>
<!-- output
bias 0.905
h_scaling 0.722
output 0.001&#45;&gt;key 42770
bias &#45;0.691
h_scaling 0.618
output 0.200 -->
<g id="edge20" class="edge">
<title>output
bias 0.905
h_scaling 0.722
output 0.001&#45;&gt;key 42770
bias &#45;0.691
h_scaling 0.618
output 0.200</title>
<path fill="none" stroke="blue" stroke-width="0.1" d="M244.97,-466.54C243.35,-459.62 241.96,-452.61 241,-445.84 234.66,-401.29 234.26,-350.83 235.51,-310.78"/>
<polygon fill="blue" stroke="blue" stroke-width="0.1" points="239.02,-310.68 235.88,-300.56 232.02,-310.43 239.02,-310.68"/>
<text text-anchor="middle" x="256.5" y="-380" font-family="Times,serif" font-size="9.00">&#45;0.059</text>
</g>
<!-- output
bias 0.905
h_scaling 0.722
output 0.001&#45;&gt;key 124953
bias &#45;0.943
h_scaling 1.000
output 0.085 -->
<g id="edge23" class="edge">
<title>output
bias 0.905
h_scaling 0.722
output 0.001&#45;&gt;key 124953
bias &#45;0.943
h_scaling 1.000
output 0.085</title>
<path fill="none" stroke="blue" stroke-width="0.1" d="M306.06,-479.4C313.69,-468.93 320.85,-457.46 326,-445.84 349.29,-393.28 332.05,-373.49 349,-318.56 350.49,-313.74 352.19,-308.82 354.02,-303.92"/>
<polygon fill="blue" stroke="blue" stroke-width="0.1" points="357.31,-305.12 357.69,-294.53 350.79,-302.57 357.31,-305.12"/>
<text text-anchor="middle" x="364.5" y="-380" font-family="Times,serif" font-size="9.00">&#45;0.579</text>
</g>
<!-- key 7976
bias 0.884
h_scaling 0.000
output 0.988&#45;&gt;key 5263
bias 0.990
h_scaling 0.401
output 0.757 -->
<g id="edge3" class="edge">
<title>key 7976
bias 0.884
h_scaling 0.000
output 0.988&#45;&gt;key 5263
bias 0.990
h_scaling 0.401
output 0.757</title>
<path fill="none" stroke="blue" stroke-width="0.1" d="M260.52,-848.99C306.87,-828.93 372.49,-798.25 426,-764.4 433.28,-759.79 440.66,-754.62 447.84,-749.27"/>
<polygon fill="blue" stroke="blue" stroke-width="0.1" points="450.32,-751.79 456.16,-742.94 446.08,-746.22 450.32,-751.79"/>
<text text-anchor="middle" x="406.5" y="-785.2" font-family="Times,serif" font-size="9.00">&#45;0.598</text>
</g>
<!-- key 7976
bias 0.884
h_scaling 0.000
output 0.988&#45;&gt;key 15226
bias 0.580
h_scaling 0.892
output 0.064 -->
<g id="edge19" class="edge">
<title>key 7976
bias 0.884
h_scaling 0.000
output 0.988&#45;&gt;key 15226
bias 0.580
h_scaling 0.892
output 0.064</title>
<path fill="none" stroke="blue" stroke-width="0.1" d="M188.72,-811.76C157.72,-664.04 86.04,-291.72 124,-173.28 133.08,-144.96 155.08,-121.22 177.5,-103.24"/>
<polygon fill="blue" stroke="blue" stroke-width="0.1" points="179.66,-106 185.44,-97.12 175.38,-100.46 179.66,-106"/>
<text text-anchor="middle" x="161.5" y="-525.28" font-family="Times,serif" font-size="9.00">&#45;0.209</text>
</g>
<!-- key 5263
bias 0.990
h_scaling 0.401
output 0.757&#45;&gt;output
bias 0.905
h_scaling 0.722
output 0.001 -->
<g id="edge1" class="edge">
<title>key 5263
bias 0.990
h_scaling 0.401
output 0.757&#45;&gt;output
bias 0.905
h_scaling 0.722
output 0.001</title>
<path fill="none" stroke="blue" stroke-width="0.1" d="M454.98,-659.34C445.48,-651.81 435.52,-644.11 426,-637.12 393.57,-613.29 356.35,-588.18 325.76,-568.1"/>
<polygon fill="blue" stroke="blue" stroke-width="0.1" points="327.6,-565.13 317.32,-562.58 323.77,-570.98 327.6,-565.13"/>
<text text-anchor="middle" x="415.5" y="-611.92" font-family="Times,serif" font-size="9.00">&#45;0.996</text>
</g>
<!-- key 348249
bias &#45;0.125
h_scaling 0.070
output 0.091 -->
<g id="node7" class="node">
<title>key 348249
bias &#45;0.125
h_scaling 0.070
output 0.091</title>
<ellipse fill="white" stroke="black" cx="627" cy="-382.2" rx="63.78" ry="63.78"/>
<text text-anchor="middle" x="627" y="-395" font-family="Times,serif" font-size="9.00">key 348249</text>
<text text-anchor="middle" x="627" y="-385" font-family="Times,serif" font-size="9.00">bias &#45;0.125</text>
<text text-anchor="middle" x="627" y="-375" font-family="Times,serif" font-size="9.00">h_scaling 0.070</text>
<text text-anchor="middle" x="627" y="-365" font-family="Times,serif" font-size="9.00">output 0.091</text>
</g>
<!-- key 5263
bias 0.990
h_scaling 0.401
output 0.757&#45;&gt;key 348249
bias &#45;0.125
h_scaling 0.070
output 0.091 -->
<g id="edge21" class="edge">
<title>key 5263
bias 0.990
h_scaling 0.401
output 0.757&#45;&gt;key 348249
bias &#45;0.125
h_scaling 0.070
output 0.091</title>
<path fill="none" stroke="blue" stroke-width="0.1" d="M530.85,-642.74C534.36,-634.85 537.84,-626.81 541,-619.12 563.79,-563.66 586.91,-499.7 603.43,-452.38"/>
<polygon fill="blue" stroke="blue" stroke-width="0.1" points="606.77,-453.44 606.75,-442.85 600.16,-451.14 606.77,-453.44"/>
<text text-anchor="middle" x="559.5" y="-611.92" font-family="Times,serif" font-size="9.00">&#45;0.539</text>
</g>
<!-- key 5263
bias 0.990
h_scaling 0.401
output 0.757&#45;&gt;key 15226
bias 0.580
h_scaling 0.892
output 0.064 -->
<g id="edge8" class="edge">
<title>key 5263
bias 0.990
h_scaling 0.401
output 0.757&#45;&gt;key 15226
bias 0.580
h_scaling 0.892
output 0.064</title>
<path fill="none" stroke="blue" stroke-width="0.1" d="M507.01,-637.03C511.85,-515.57 517.22,-253.17 478,-173.28 447.97,-112.09 371.36,-85.31 313.1,-73.62"/>
<polygon fill="blue" stroke="blue" stroke-width="0.1" points="313.67,-70.16 303.19,-71.74 312.36,-77.04 313.67,-70.16"/>
<text text-anchor="middle" x="525.5" y="-380" font-family="Times,serif" font-size="9.00">&#45;0.617</text>
</g>
<!-- key 42770
bias &#45;0.691
h_scaling 0.618
output 0.200&#45;&gt;output
bias 0.905
h_scaling 0.722
output 0.001 -->
<g id="edge16" class="edge">
<title>key 42770
bias &#45;0.691
h_scaling 0.618
output 0.200&#45;&gt;output
bias 0.905
h_scaling 0.722
output 0.001</title>
<path fill="none" stroke="blue" stroke-width="0.1" d="M200.99,-287.74C195.23,-297.47 190.17,-307.97 187,-318.56 170.78,-372.75 165.96,-393.33 187,-445.84 191.82,-457.87 199.38,-469.12 207.93,-479.17"/>
<polygon fill="blue" stroke="blue" stroke-width="0.1" points="205.34,-481.53 214.62,-486.63 210.54,-476.85 205.34,-481.53"/>
<text text-anchor="middle" x="202.5" y="-380" font-family="Times,serif" font-size="9.00">&#45;0.133</text>
</g>
<!-- key 42770
bias &#45;0.691
h_scaling 0.618
output 0.200&#45;&gt;key 15226
bias 0.580
h_scaling 0.892
output 0.064 -->
<g id="edge14" class="edge">
<title>key 42770
bias &#45;0.691
h_scaling 0.618
output 0.200&#45;&gt;key 15226
bias 0.580
h_scaling 0.892
output 0.064</title>
<path fill="none" stroke="red" stroke-width="0.1" d="M213.75,-178.45C211.21,-167.55 210.16,-156.16 212,-145.28 212.69,-141.17 213.57,-136.99 214.59,-132.8"/>
<polygon fill="red" stroke="red" stroke-width="0.1" points="217.99,-133.62 217.18,-123.06 211.23,-131.82 217.99,-133.62"/>
<text text-anchor="middle" x="226" y="-148.08" font-family="Times,serif" font-size="9.00">0.605</text>
</g>
<!-- key 348249
bias &#45;0.125
h_scaling 0.070
output 0.091&#45;&gt;key 15226
bias 0.580
h_scaling 0.892
output 0.064 -->
<g id="edge22" class="edge">
<title>key 348249
bias &#45;0.125
h_scaling 0.070
output 0.091&#45;&gt;key 15226
bias 0.580
h_scaling 0.892
output 0.064</title>
<path fill="none" stroke="blue" stroke-width="0.1" d="M620.24,-318.71C611.16,-265.3 590.03,-190.18 541,-145.28 478.86,-88.37 380.91,-70.86 313.73,-65.87"/>
<polygon fill="blue" stroke="blue" stroke-width="0.1" points="313.85,-62.37 303.64,-65.2 313.38,-69.36 313.85,-62.37"/>
<text text-anchor="middle" x="631.5" y="-234.72" font-family="Times,serif" font-size="9.00">&#45;0.640</text>
</g>
<!-- key 15226
bias 0.580
h_scaling 0.892
output 0.064&#45;&gt;output
bias 0.905
h_scaling 0.722
output 0.001 -->
<g id="edge9" class="edge">
<title>key 15226
bias 0.580
h_scaling 0.892
output 0.064&#45;&gt;output
bias 0.905
h_scaling 0.722
output 0.001</title>
<path fill="none" stroke="red" stroke-width="0.1" d="M190.1,-103.61C170.2,-122.29 149.55,-146.44 139,-173.28 118.31,-225.93 133.44,-244.26 139,-300.56 145.48,-366.08 134.45,-389.18 168,-445.84 170.94,-450.8 187.87,-465.45 206.72,-480.94"/>
<polygon fill="red" stroke="red" stroke-width="0.1" points="204.63,-483.75 214.59,-487.36 209.06,-478.33 204.63,-483.75"/>
<text text-anchor="middle" x="153" y="-234.72" font-family="Times,serif" font-size="9.00">0.615</text>
</g>
<!-- key 15226
bias 0.580
h_scaling 0.892
output 0.064&#45;&gt;key 7976
bias 0.884
h_scaling 0.000
output 0.988 -->
<g id="edge12" class="edge">
<title>key 15226
bias 0.580
h_scaling 0.892
output 0.064&#45;&gt;key 7976
bias 0.884
h_scaling 0.000
output 0.988</title>
<path fill="none" stroke="red" stroke-width="0.1" d="M178.38,-79.73C141.9,-91.71 97.56,-112.12 70,-145.28 43.37,-177.33 46,-194.25 46,-235.92 46,-701.76 46,-701.76 46,-701.76 46,-759.45 94.97,-806.26 138.04,-836.28"/>
<polygon fill="red" stroke="red" stroke-width="0.1" points="136.32,-839.34 146.56,-842.05 140.25,-833.54 136.32,-839.34"/>
<text text-anchor="middle" x="60" y="-525.28" font-family="Times,serif" font-size="9.00">0.403</text>
</g>
<!-- key 15226
bias 0.580
h_scaling 0.892
output 0.064&#45;&gt;key 5263
bias 0.990
h_scaling 0.401
output 0.757 -->
<g id="edge7" class="edge">
<title>key 15226
bias 0.580
h_scaling 0.892
output 0.064&#45;&gt;key 5263
bias 0.990
h_scaling 0.401
output 0.757</title>
<path fill="none" stroke="blue" stroke-width="0.1" d="M302.18,-77.58C353.29,-91.77 422.82,-119.99 458,-173.28 474.72,-198.6 471.33,-415.62 474,-445.84 479.42,-507.17 487.77,-576.57 494.29,-627.3"/>
<polygon fill="blue" stroke="blue" stroke-width="0.1" points="490.86,-628.04 495.61,-637.51 497.8,-627.15 490.86,-628.04"/>
<text text-anchor="middle" x="489.5" y="-380" font-family="Times,serif" font-size="9.00">&#45;0.226</text>
</g>
<!-- key 15226
bias 0.580
h_scaling 0.892
output 0.064&#45;&gt;key 42770
bias &#45;0.691
h_scaling 0.618
output 0.200 -->
<g id="edge13" class="edge">
<title>key 15226
bias 0.580
h_scaling 0.892
output 0.064&#45;&gt;key 42770
bias &#45;0.691
h_scaling 0.618
output 0.200</title>
<path fill="none" stroke="red" stroke-width="0.1" d="M243.9,-127.53C244.15,-136.83 244.22,-146.3 244,-155.28 243.94,-157.79 243.86,-160.35 243.78,-162.93"/>
<polygon fill="red" stroke="red" stroke-width="0.1" points="240.28,-162.86 243.42,-172.98 247.28,-163.11 240.28,-162.86"/>
<text text-anchor="middle" x="258" y="-148.08" font-family="Times,serif" font-size="9.00">1.101</text>
</g>
<!-- key 124953
bias &#45;0.943
h_scaling 1.000
output 0.085&#45;&gt;output
bias 0.905
h_scaling 0.722
output 0.001 -->
<g id="edge17" class="edge">
<title>key 124953
bias &#45;0.943
h_scaling 1.000
output 0.085&#45;&gt;output
bias 0.905
h_scaling 0.722
output 0.001</title>
<path fill="none" stroke="blue" stroke-width="0.1" d="M337.31,-279.44C316.53,-297.75 296.5,-315.78 295,-318.56 288.56,-330.51 279.14,-398.76 272.38,-453.86"/>
<polygon fill="blue" stroke="blue" stroke-width="0.1" points="268.88,-453.63 271.14,-463.98 275.83,-454.47 268.88,-453.63"/>
<text text-anchor="middle" x="310.5" y="-380" font-family="Times,serif" font-size="9.00">&#45;0.974</text>
</g>
</g>
</svg>
