<?xml version="1.0" encoding="UTF-8" standalone="no"?>
<!DOCTYPE svg PUBLIC "-//W3C//DTD SVG 1.1//EN"
 "http://www.w3.org/Graphics/SVG/1.1/DTD/svg11.dtd">
<!-- Generated by graphviz version 2.43.0 (0)
 -->
<!-- Title: %3 Pages: 1 -->
<svg width="549pt" height="1076pt"
 viewBox="0.00 0.00 548.64 1075.68" xmlns="http://www.w3.org/2000/svg" xmlns:xlink="http://www.w3.org/1999/xlink">
<g id="graph0" class="graph" transform="scale(1 1) rotate(0) translate(4 1071.68)">
<title>%3</title>
<polygon fill="white" stroke="transparent" points="-4,4 -4,-1071.68 544.64,-1071.68 544.64,4 -4,4"/>
<!-- ready
output 1.000 -->
<g id="node1" class="node">
<title>ready
output 1.000</title>
<polygon fill="yellow" stroke="black" points="175.14,-1067.68 98.14,-1067.68 98.14,-1039.68 175.14,-1039.68 175.14,-1067.68"/>
<text text-anchor="middle" x="136.64" y="-1056.48" font-family="Times,serif" font-size="9.00">ready</text>
<text text-anchor="middle" x="136.64" y="-1046.48" font-family="Times,serif" font-size="9.00">output 1.000</text>
</g>
<!-- key 3217
bias &#45;0.044
h_scaling 1.000
output 0.233 -->
<g id="node8" class="node">
<title>key 3217
bias &#45;0.044
h_scaling 1.000
output 0.233</title>
<ellipse fill="white" stroke="black" cx="209.64" cy="-756.76" rx="63.78" ry="63.78"/>
<text text-anchor="middle" x="209.64" y="-769.56" font-family="Times,serif" font-size="9.00">key 3217</text>
<text text-anchor="middle" x="209.64" y="-759.56" font-family="Times,serif" font-size="9.00">bias &#45;0.044</text>
<text text-anchor="middle" x="209.64" y="-749.56" font-family="Times,serif" font-size="9.00">h_scaling 1.000</text>
<text text-anchor="middle" x="209.64" y="-739.56" font-family="Times,serif" font-size="9.00">output 0.233</text>
</g>
<!-- ready
output 1.000&#45;&gt;key 3217
bias &#45;0.044
h_scaling 1.000
output 0.233 -->
<g id="edge1" class="edge">
<title>ready
output 1.000&#45;&gt;key 3217
bias &#45;0.044
h_scaling 1.000
output 0.233</title>
<path fill="none" stroke="blue" stroke-width="0.1" d="M150.41,-1039.53C161.13,-1028.41 175.37,-1011.47 182.64,-993.68 203.82,-941.86 210.13,-878.64 211.38,-830.69"/>
<polygon fill="blue" stroke="blue" stroke-width="0.1" points="214.89,-830.46 211.58,-820.39 207.89,-830.32 214.89,-830.46"/>
<text text-anchor="middle" x="224.14" y="-927.84" font-family="Times,serif" font-size="9.00">&#45;0.194</text>
</g>
<!-- key 12151
bias &#45;0.575
h_scaling 1.000
output 0.893 -->
<g id="node9" class="node">
<title>key 12151
bias &#45;0.575
h_scaling 1.000
output 0.893</title>
<ellipse fill="white" stroke="black" cx="63.64" cy="-930.04" rx="63.78" ry="63.78"/>
<text text-anchor="middle" x="63.64" y="-942.84" font-family="Times,serif" font-size="9.00">key 12151</text>
<text text-anchor="middle" x="63.64" y="-932.84" font-family="Times,serif" font-size="9.00">bias &#45;0.575</text>
<text text-anchor="middle" x="63.64" y="-922.84" font-family="Times,serif" font-size="9.00">h_scaling 1.000</text>
<text text-anchor="middle" x="63.64" y="-912.84" font-family="Times,serif" font-size="9.00">output 0.893</text>
</g>
<!-- ready
output 1.000&#45;&gt;key 12151
bias &#45;0.575
h_scaling 1.000
output 0.893 -->
<g id="edge10" class="edge">
<title>ready
output 1.000&#45;&gt;key 12151
bias &#45;0.575
h_scaling 1.000
output 0.893</title>
<path fill="none" stroke="red" stroke-width="0.1" d="M128.83,-1039.66C122.09,-1028.44 111.84,-1011.35 101.44,-994.03"/>
<polygon fill="red" stroke="red" stroke-width="0.1" points="104.16,-991.75 96.01,-984.98 98.16,-995.36 104.16,-991.75"/>
<text text-anchor="middle" x="130.64" y="-1014.48" font-family="Times,serif" font-size="9.00">1.000</text>
</g>
<!-- go
output 0.000 -->
<g id="node2" class="node">
<title>go
output 0.000</title>
<polygon fill="green" stroke="black" points="362.14,-944.04 285.14,-944.04 285.14,-916.04 362.14,-916.04 362.14,-944.04"/>
<text text-anchor="middle" x="323.64" y="-932.84" font-family="Times,serif" font-size="9.00">go</text>
<text text-anchor="middle" x="323.64" y="-922.84" font-family="Times,serif" font-size="9.00">output 0.000</text>
</g>
<!-- key 4875
bias &#45;0.887
h_scaling 1.000
output 0.012 -->
<g id="node5" class="node">
<title>key 4875
bias &#45;0.887
h_scaling 1.000
output 0.012</title>
<ellipse fill="white" stroke="black" cx="326.64" cy="-236.92" rx="63.78" ry="63.78"/>
<text text-anchor="middle" x="326.64" y="-249.72" font-family="Times,serif" font-size="9.00">key 4875</text>
<text text-anchor="middle" x="326.64" y="-239.72" font-family="Times,serif" font-size="9.00">bias &#45;0.887</text>
<text text-anchor="middle" x="326.64" y="-229.72" font-family="Times,serif" font-size="9.00">h_scaling 1.000</text>
<text text-anchor="middle" x="326.64" y="-219.72" font-family="Times,serif" font-size="9.00">output 0.012</text>
</g>
<!-- go
output 0.000&#45;&gt;key 4875
bias &#45;0.887
h_scaling 1.000
output 0.012 -->
<g id="edge6" class="edge">
<title>go
output 0.000&#45;&gt;key 4875
bias &#45;0.887
h_scaling 1.000
output 0.012</title>
<path fill="none" stroke="red" stroke-width="0.1" d="M335.31,-915.8C348.03,-900.61 368,-874.44 378.64,-848.4 410.61,-770.12 438.17,-558.06 445.64,-473.84 450.64,-417.49 468.47,-398.32 445.64,-346.56 433.52,-319.08 410.64,-295.55 388.16,-277.48"/>
<polygon fill="red" stroke="red" stroke-width="0.1" points="390.28,-274.7 380.24,-271.32 385.98,-280.22 390.28,-274.7"/>
<text text-anchor="middle" x="454.64" y="-581.28" font-family="Times,serif" font-size="9.00">0.844</text>
</g>
<!-- key 7056
bias &#45;0.786
h_scaling 1.000
output 0.019 -->
<g id="node7" class="node">
<title>key 7056
bias &#45;0.786
h_scaling 1.000
output 0.019</title>
<ellipse fill="white" stroke="black" cx="312.64" cy="-583.48" rx="63.78" ry="63.78"/>
<text text-anchor="middle" x="312.64" y="-596.28" font-family="Times,serif" font-size="9.00">key 7056</text>
<text text-anchor="middle" x="312.64" y="-586.28" font-family="Times,serif" font-size="9.00">bias &#45;0.786</text>
<text text-anchor="middle" x="312.64" y="-576.28" font-family="Times,serif" font-size="9.00">h_scaling 1.000</text>
<text text-anchor="middle" x="312.64" y="-566.28" font-family="Times,serif" font-size="9.00">output 0.019</text>
</g>
<!-- go
output 0.000&#45;&gt;key 7056
bias &#45;0.786
h_scaling 1.000
output 0.019 -->
<g id="edge7" class="edge">
<title>go
output 0.000&#45;&gt;key 7056
bias &#45;0.786
h_scaling 1.000
output 0.019</title>
<path fill="none" stroke="red" stroke-width="0.1" d="M323.22,-915.95C321.89,-874.13 317.65,-741.56 314.96,-657.29"/>
<polygon fill="red" stroke="red" stroke-width="0.1" points="318.46,-657.14 314.64,-647.26 311.46,-657.37 318.46,-657.14"/>
<text text-anchor="middle" x="333.64" y="-754.56" font-family="Times,serif" font-size="9.00">1.000</text>
</g>
<!-- go
output 0.000&#45;&gt;key 3217
bias &#45;0.044
h_scaling 1.000
output 0.233 -->
<g id="edge3" class="edge">
<title>go
output 0.000&#45;&gt;key 3217
bias &#45;0.044
h_scaling 1.000
output 0.233</title>
<path fill="none" stroke="red" stroke-width="0.1" d="M314.88,-915.88C301.13,-895.21 273.6,-853.85 250.15,-818.62"/>
<polygon fill="red" stroke="red" stroke-width="0.1" points="253.05,-816.66 244.6,-810.28 247.22,-820.54 253.05,-816.66"/>
<text text-anchor="middle" x="280.64" y="-841.2" font-family="Times,serif" font-size="9.00">0.902</text>
</g>
<!-- output
bias 0.339
h_scaling 1.000
output 0.845 -->
<g id="node3" class="node">
<title>output
bias 0.339
h_scaling 1.000
output 0.845</title>
<ellipse fill="lightblue" stroke="black" cx="140.64" cy="-63.64" rx="63.78" ry="63.78"/>
<text text-anchor="middle" x="140.64" y="-76.44" font-family="Times,serif" font-size="9.00">output</text>
<text text-anchor="middle" x="140.64" y="-66.44" font-family="Times,serif" font-size="9.00">bias 0.339</text>
<text text-anchor="middle" x="140.64" y="-56.44" font-family="Times,serif" font-size="9.00">h_scaling 1.000</text>
<text text-anchor="middle" x="140.64" y="-46.44" font-family="Times,serif" font-size="9.00">output 0.845</text>
</g>
<!-- output
bias 0.339
h_scaling 1.000
output 0.845&#45;&gt;key 3217
bias &#45;0.044
h_scaling 1.000
output 0.233 -->
<g id="edge15" class="edge">
<title>output
bias 0.339
h_scaling 1.000
output 0.845&#45;&gt;key 3217
bias &#45;0.044
h_scaling 1.000
output 0.233</title>
<path fill="none" stroke="red" stroke-width="0.1" d="M140.64,-127.28C140.64,-159.71 140.64,-199.94 140.64,-235.92 140.64,-584.48 140.64,-584.48 140.64,-584.48 140.64,-622.41 155.38,-661.87 171.23,-693.33"/>
<polygon fill="red" stroke="red" stroke-width="0.1" points="168.23,-695.15 175.95,-702.41 174.44,-691.92 168.23,-695.15"/>
<text text-anchor="middle" x="154.64" y="-408" font-family="Times,serif" font-size="9.00">0.238</text>
</g>
<!-- key 215175
bias &#45;0.147
h_scaling 1.000
output 0.000 -->
<g id="node4" class="node">
<title>key 215175
bias &#45;0.147
h_scaling 1.000
output 0.000</title>
<ellipse fill="white" stroke="black" cx="456.64" cy="-930.04" rx="63.78" ry="63.78"/>
<text text-anchor="middle" x="456.64" y="-942.84" font-family="Times,serif" font-size="9.00">key 215175</text>
<text text-anchor="middle" x="456.64" y="-932.84" font-family="Times,serif" font-size="9.00">bias &#45;0.147</text>
<text text-anchor="middle" x="456.64" y="-922.84" font-family="Times,serif" font-size="9.00">h_scaling 1.000</text>
<text text-anchor="middle" x="456.64" y="-912.84" font-family="Times,serif" font-size="9.00">output 0.000</text>
</g>
<!-- key 215175
bias &#45;0.147
h_scaling 1.000
output 0.000&#45;&gt;key 4875
bias &#45;0.887
h_scaling 1.000
output 0.012 -->
<g id="edge19" class="edge">
<title>key 215175
bias &#45;0.147
h_scaling 1.000
output 0.000&#45;&gt;key 4875
bias &#45;0.887
h_scaling 1.000
output 0.012</title>
<path fill="none" stroke="red" stroke-width="0.1" d="M484.97,-872.66C498.86,-839.95 512.64,-797.49 512.64,-757.76 512.64,-757.76 512.64,-757.76 512.64,-409.2 512.64,-342.7 447.51,-294.93 394.33,-267"/>
<polygon fill="red" stroke="red" stroke-width="0.1" points="395.73,-263.79 385.24,-262.35 392.55,-270.02 395.73,-263.79"/>
<text text-anchor="middle" x="526.64" y="-581.28" font-family="Times,serif" font-size="9.00">0.074</text>
</g>
<!-- key 215175
bias &#45;0.147
h_scaling 1.000
output 0.000&#45;&gt;key 7056
bias &#45;0.786
h_scaling 1.000
output 0.019 -->
<g id="edge20" class="edge">
<title>key 215175
bias &#45;0.147
h_scaling 1.000
output 0.000&#45;&gt;key 7056
bias &#45;0.786
h_scaling 1.000
output 0.019</title>
<path fill="none" stroke="red" stroke-width="0.1" d="M436.28,-869.31C432.54,-858.95 428.58,-848.32 424.64,-838.4 399.07,-773.88 366.82,-701.58 343.5,-650.68"/>
<polygon fill="red" stroke="red" stroke-width="0.1" points="346.6,-649.06 339.25,-641.43 340.24,-651.98 346.6,-649.06"/>
<text text-anchor="middle" x="430.64" y="-754.56" font-family="Times,serif" font-size="9.00">0.451</text>
</g>
<!-- key 215175
bias &#45;0.147
h_scaling 1.000
output 0.000&#45;&gt;key 3217
bias &#45;0.044
h_scaling 1.000
output 0.233 -->
<g id="edge21" class="edge">
<title>key 215175
bias &#45;0.147
h_scaling 1.000
output 0.000&#45;&gt;key 3217
bias &#45;0.044
h_scaling 1.000
output 0.233</title>
<path fill="none" stroke="blue" stroke-width="0.1" d="M406.17,-891.16C394.89,-882.88 382.92,-874.25 371.64,-866.4 341.09,-845.12 332.58,-841.09 301.64,-820.4 291.6,-813.68 280.98,-806.51 270.66,-799.51"/>
<polygon fill="blue" stroke="blue" stroke-width="0.1" points="272.32,-796.41 262.08,-793.68 268.39,-802.2 272.32,-796.41"/>
<text text-anchor="middle" x="359.14" y="-841.2" font-family="Times,serif" font-size="9.00">&#45;0.266</text>
</g>
<!-- key 4875
bias &#45;0.887
h_scaling 1.000
output 0.012&#45;&gt;output
bias 0.339
h_scaling 1.000
output 0.845 -->
<g id="edge4" class="edge">
<title>key 4875
bias &#45;0.887
h_scaling 1.000
output 0.012&#45;&gt;output
bias 0.339
h_scaling 1.000
output 0.845</title>
<path fill="none" stroke="blue" stroke-width="0.1" d="M287.61,-186.62C275.69,-172.68 262.15,-157.88 248.64,-145.28 234.07,-131.69 217.24,-118.21 201.27,-106.28"/>
<polygon fill="blue" stroke="blue" stroke-width="0.1" points="203.14,-103.31 193.02,-100.19 198.99,-108.95 203.14,-103.31"/>
<text text-anchor="middle" x="273.14" y="-148.08" font-family="Times,serif" font-size="9.00">&#45;1.000</text>
</g>
<!-- key 4875
bias &#45;0.887
h_scaling 1.000
output 0.012&#45;&gt;key 4875
bias &#45;0.887
h_scaling 1.000
output 0.012 -->
<g id="edge5" class="edge">
<title>key 4875
bias &#45;0.887
h_scaling 1.000
output 0.012&#45;&gt;key 4875
bias &#45;0.887
h_scaling 1.000
output 0.012</title>
<path fill="none" stroke="red" stroke-width="0.1" d="M388.58,-252.22C400.14,-250.33 408.28,-245.23 408.28,-236.92 408.28,-231.2 404.43,-227.01 398.27,-224.33"/>
<polygon fill="red" stroke="red" stroke-width="0.1" points="399.16,-220.94 388.58,-221.62 397.27,-227.68 399.16,-220.94"/>
<text text-anchor="middle" x="422.28" y="-234.72" font-family="Times,serif" font-size="9.00">0.274</text>
</g>
<!-- key 36175
bias &#45;0.810
h_scaling 1.000
output 0.017 -->
<g id="node6" class="node">
<title>key 36175
bias &#45;0.810
h_scaling 1.000
output 0.017</title>
<ellipse fill="white" stroke="black" cx="326.64" cy="-410.2" rx="63.78" ry="63.78"/>
<text text-anchor="middle" x="326.64" y="-423" font-family="Times,serif" font-size="9.00">key 36175</text>
<text text-anchor="middle" x="326.64" y="-413" font-family="Times,serif" font-size="9.00">bias &#45;0.810</text>
<text text-anchor="middle" x="326.64" y="-403" font-family="Times,serif" font-size="9.00">h_scaling 1.000</text>
<text text-anchor="middle" x="326.64" y="-393" font-family="Times,serif" font-size="9.00">output 0.017</text>
</g>
<!-- key 36175
bias &#45;0.810
h_scaling 1.000
output 0.017&#45;&gt;key 4875
bias &#45;0.887
h_scaling 1.000
output 0.012 -->
<g id="edge14" class="edge">
<title>key 36175
bias &#45;0.810
h_scaling 1.000
output 0.017&#45;&gt;key 4875
bias &#45;0.887
h_scaling 1.000
output 0.012</title>
<path fill="none" stroke="red" stroke-width="0.1" d="M326.64,-346.39C326.64,-334.87 326.64,-322.76 326.64,-310.97"/>
<polygon fill="red" stroke="red" stroke-width="0.1" points="330.14,-310.72 326.64,-300.72 323.14,-310.72 330.14,-310.72"/>
<text text-anchor="middle" x="340.64" y="-321.36" font-family="Times,serif" font-size="9.00">1.000</text>
</g>
<!-- key 36175
bias &#45;0.810
h_scaling 1.000
output 0.017&#45;&gt;key 36175
bias &#45;0.810
h_scaling 1.000
output 0.017 -->
<g id="edge17" class="edge">
<title>key 36175
bias &#45;0.810
h_scaling 1.000
output 0.017&#45;&gt;key 36175
bias &#45;0.810
h_scaling 1.000
output 0.017</title>
<path fill="none" stroke="red" stroke-width="0.1" d="M388.58,-425.5C400.14,-423.61 408.28,-418.51 408.28,-410.2 408.28,-404.48 404.43,-400.29 398.27,-397.61"/>
<polygon fill="red" stroke="red" stroke-width="0.1" points="399.16,-394.22 388.58,-394.9 397.27,-400.96 399.16,-394.22"/>
<text text-anchor="middle" x="422.28" y="-408" font-family="Times,serif" font-size="9.00">0.531</text>
</g>
<!-- key 7056
bias &#45;0.786
h_scaling 1.000
output 0.019&#45;&gt;output
bias 0.339
h_scaling 1.000
output 0.845 -->
<g id="edge22" class="edge">
<title>key 7056
bias &#45;0.786
h_scaling 1.000
output 0.019&#45;&gt;output
bias 0.339
h_scaling 1.000
output 0.845</title>
<path fill="none" stroke="blue" stroke-width="0.1" d="M280.27,-528.67C270.83,-511.54 261.07,-492.25 253.64,-473.84 207.4,-359.23 173.25,-219.2 155.2,-136.22"/>
<polygon fill="blue" stroke="blue" stroke-width="0.1" points="158.61,-135.43 153.08,-126.39 151.76,-136.9 158.61,-135.43"/>
<text text-anchor="middle" x="218.14" y="-321.36" font-family="Times,serif" font-size="9.00">&#45;0.419</text>
</g>
<!-- key 7056
bias &#45;0.786
h_scaling 1.000
output 0.019&#45;&gt;key 36175
bias &#45;0.810
h_scaling 1.000
output 0.017 -->
<g id="edge13" class="edge">
<title>key 7056
bias &#45;0.786
h_scaling 1.000
output 0.019&#45;&gt;key 36175
bias &#45;0.810
h_scaling 1.000
output 0.017</title>
<path fill="none" stroke="red" stroke-width="0.1" d="M317.77,-519.67C318.72,-508.08 319.72,-495.88 320.69,-484.02"/>
<polygon fill="red" stroke="red" stroke-width="0.1" points="324.2,-483.96 321.53,-473.71 317.23,-483.39 324.2,-483.96"/>
<text text-anchor="middle" x="333.64" y="-494.64" font-family="Times,serif" font-size="9.00">0.930</text>
</g>
<!-- key 7056
bias &#45;0.786
h_scaling 1.000
output 0.019&#45;&gt;key 3217
bias &#45;0.044
h_scaling 1.000
output 0.233 -->
<g id="edge8" class="edge">
<title>key 7056
bias &#45;0.786
h_scaling 1.000
output 0.019&#45;&gt;key 3217
bias &#45;0.044
h_scaling 1.000
output 0.233</title>
<path fill="none" stroke="red" stroke-width="0.1" d="M280.45,-638.68C273.29,-650.69 265.72,-663.35 258.64,-675.12 255.12,-680.96 251.45,-687.04 247.77,-693.12"/>
<polygon fill="red" stroke="red" stroke-width="0.1" points="244.58,-691.64 242.39,-702.01 250.56,-695.27 244.58,-691.64"/>
<text text-anchor="middle" x="277.64" y="-667.92" font-family="Times,serif" font-size="9.00">0.928</text>
</g>
<!-- key 3217
bias &#45;0.044
h_scaling 1.000
output 0.233&#45;&gt;output
bias 0.339
h_scaling 1.000
output 0.845 -->
<g id="edge16" class="edge">
<title>key 3217
bias &#45;0.044
h_scaling 1.000
output 0.233&#45;&gt;output
bias 0.339
h_scaling 1.000
output 0.845</title>
<path fill="none" stroke="blue" stroke-width="0.1" d="M157.45,-720.03C119.09,-689.14 73.64,-640.67 73.64,-584.48 73.64,-584.48 73.64,-584.48 73.64,-235.92 73.64,-198.28 87.84,-159 103.17,-127.56"/>
<polygon fill="blue" stroke="blue" stroke-width="0.1" points="106.37,-128.99 107.73,-118.48 100.11,-125.85 106.37,-128.99"/>
<text text-anchor="middle" x="89.14" y="-408" font-family="Times,serif" font-size="9.00">&#45;1.000</text>
</g>
<!-- key 3217
bias &#45;0.044
h_scaling 1.000
output 0.233&#45;&gt;key 4875
bias &#45;0.887
h_scaling 1.000
output 0.012 -->
<g id="edge2" class="edge">
<title>key 3217
bias &#45;0.044
h_scaling 1.000
output 0.233&#45;&gt;key 4875
bias &#45;0.887
h_scaling 1.000
output 0.012</title>
<path fill="none" stroke="red" stroke-width="0.1" d="M202.69,-693.12C192.2,-587.77 177.09,-380.53 212.64,-318.56 223.94,-298.86 242.22,-282.79 260.88,-270.32"/>
<polygon fill="red" stroke="red" stroke-width="0.1" points="262.91,-273.17 269.45,-264.84 259.14,-267.27 262.91,-273.17"/>
<text text-anchor="middle" x="203.64" y="-494.64" font-family="Times,serif" font-size="9.00">0.962</text>
</g>
<!-- key 3217
bias &#45;0.044
h_scaling 1.000
output 0.233&#45;&gt;key 7056
bias &#45;0.786
h_scaling 1.000
output 0.019 -->
<g id="edge9" class="edge">
<title>key 3217
bias &#45;0.044
h_scaling 1.000
output 0.233&#45;&gt;key 7056
bias &#45;0.786
h_scaling 1.000
output 0.019</title>
<path fill="none" stroke="red" stroke-width="0.1" d="M216.03,-693.01C218.52,-683.31 221.94,-673.68 226.64,-665.12 233.75,-652.14 243.71,-640.06 254.34,-629.4"/>
<polygon fill="red" stroke="red" stroke-width="0.1" points="256.99,-631.71 261.77,-622.26 252.14,-626.66 256.99,-631.71"/>
<text text-anchor="middle" x="240.64" y="-667.92" font-family="Times,serif" font-size="9.00">0.941</text>
</g>
<!-- key 12151
bias &#45;0.575
h_scaling 1.000
output 0.893&#45;&gt;output
bias 0.339
h_scaling 1.000
output 0.845 -->
<g id="edge18" class="edge">
<title>key 12151
bias &#45;0.575
h_scaling 1.000
output 0.893&#45;&gt;output
bias 0.339
h_scaling 1.000
output 0.845</title>
<path fill="none" stroke="red" stroke-width="0.1" d="M44.69,-869.04C36.02,-836.46 27.64,-795.28 27.64,-757.76 27.64,-757.76 27.64,-757.76 27.64,-235.92 27.64,-189.25 57.23,-145.5 86.12,-113.89"/>
<polygon fill="red" stroke="red" stroke-width="0.1" points="88.75,-116.21 93.04,-106.53 83.65,-111.42 88.75,-116.21"/>
<text text-anchor="middle" x="41.64" y="-494.64" font-family="Times,serif" font-size="9.00">0.438</text>
</g>
<!-- key 12151
bias &#45;0.575
h_scaling 1.000
output 0.893&#45;&gt;key 3217
bias &#45;0.044
h_scaling 1.000
output 0.233 -->
<g id="edge11" class="edge">
<title>key 12151
bias &#45;0.575
h_scaling 1.000
output 0.893&#45;&gt;key 3217
bias &#45;0.044
h_scaling 1.000
output 0.233</title>
<path fill="none" stroke="blue" stroke-width="0.1" d="M104.7,-880.87C122.5,-859.98 143.46,-835.39 161.95,-813.71"/>
<polygon fill="blue" stroke="blue" stroke-width="0.1" points="164.81,-815.74 168.64,-805.86 159.49,-811.2 164.81,-815.74"/>
<text text-anchor="middle" x="152.14" y="-841.2" font-family="Times,serif" font-size="9.00">&#45;0.703</text>
</g>
<!-- key 12151
bias &#45;0.575
h_scaling 1.000
output 0.893&#45;&gt;key 12151
bias &#45;0.575
h_scaling 1.000
output 0.893 -->
<g id="edge12" class="edge">
<title>key 12151
bias &#45;0.575
h_scaling 1.000
output 0.893&#45;&gt;key 12151
bias &#45;0.575
h_scaling 1.000
output 0.893</title>
<path fill="none" stroke="red" stroke-width="0.1" d="M125.58,-945.33C137.14,-943.45 145.28,-938.35 145.28,-930.04 145.28,-924.32 141.43,-920.12 135.27,-917.45"/>
<polygon fill="red" stroke="red" stroke-width="0.1" points="136.16,-914.06 125.58,-914.74 134.27,-920.8 136.16,-914.06"/>
<text text-anchor="middle" x="159.28" y="-927.84" font-family="Times,serif" font-size="9.00">0.904</text>
</g>
</g>
</svg>
