<?xml version="1.0" encoding="UTF-8" standalone="no"?>
<!DOCTYPE svg PUBLIC "-//W3C//DTD SVG 1.1//EN"
 "http://www.w3.org/Graphics/SVG/1.1/DTD/svg11.dtd">
<!-- Generated by graphviz version 2.43.0 (0)
 -->
<!-- Title: %3 Pages: 1 -->
<svg width="346pt" height="902pt"
 viewBox="0.00 0.00 346.45 902.40" xmlns="http://www.w3.org/2000/svg" xmlns:xlink="http://www.w3.org/1999/xlink">
<g id="graph0" class="graph" transform="scale(1 1) rotate(0) translate(4 898.4)">
<title>%3</title>
<polygon fill="white" stroke="transparent" points="-4,4 -4,-898.4 342.45,-898.4 342.45,4 -4,4"/>
<!-- ready
output 0.000 -->
<g id="node1" class="node">
<title>ready
output 0.000</title>
<polygon fill="yellow" stroke="black" points="337.95,-894.4 260.95,-894.4 260.95,-866.4 337.95,-866.4 337.95,-894.4"/>
<text text-anchor="middle" x="299.45" y="-883.2" font-family="Times,serif" font-size="9.00">ready</text>
<text text-anchor="middle" x="299.45" y="-873.2" font-family="Times,serif" font-size="9.00">output 0.000</text>
</g>
<!-- key 170467
bias &#45;0.552
h_scaling 0.303
output 0.736 -->
<g id="node4" class="node">
<title>key 170467
bias &#45;0.552
h_scaling 0.303
output 0.736</title>
<ellipse fill="white" stroke="black" cx="194.45" cy="-756.76" rx="63.78" ry="63.78"/>
<text text-anchor="middle" x="194.45" y="-769.56" font-family="Times,serif" font-size="9.00">key 170467</text>
<text text-anchor="middle" x="194.45" y="-759.56" font-family="Times,serif" font-size="9.00">bias &#45;0.552</text>
<text text-anchor="middle" x="194.45" y="-749.56" font-family="Times,serif" font-size="9.00">h_scaling 0.303</text>
<text text-anchor="middle" x="194.45" y="-739.56" font-family="Times,serif" font-size="9.00">output 0.736</text>
</g>
<!-- ready
output 0.000&#45;&gt;key 170467
bias &#45;0.552
h_scaling 0.303
output 0.736 -->
<g id="edge4" class="edge">
<title>ready
output 0.000&#45;&gt;key 170467
bias &#45;0.552
h_scaling 0.303
output 0.736</title>
<path fill="none" stroke="red" stroke-width="0.1" d="M288.21,-866.38C277.14,-853.56 259.46,-833.07 242.42,-813.33"/>
<polygon fill="red" stroke="red" stroke-width="0.1" points="244.87,-810.81 235.69,-805.53 239.57,-815.39 244.87,-810.81"/>
<text text-anchor="middle" x="284.45" y="-841.2" font-family="Times,serif" font-size="9.00">0.943</text>
</g>
<!-- key 212468
bias &#45;0.996
h_scaling 0.787
output 0.225 -->
<g id="node7" class="node">
<title>key 212468
bias &#45;0.996
h_scaling 0.787
output 0.225</title>
<ellipse fill="white" stroke="black" cx="143.45" cy="-410.2" rx="63.78" ry="63.78"/>
<text text-anchor="middle" x="143.45" y="-423" font-family="Times,serif" font-size="9.00">key 212468</text>
<text text-anchor="middle" x="143.45" y="-413" font-family="Times,serif" font-size="9.00">bias &#45;0.996</text>
<text text-anchor="middle" x="143.45" y="-403" font-family="Times,serif" font-size="9.00">h_scaling 0.787</text>
<text text-anchor="middle" x="143.45" y="-393" font-family="Times,serif" font-size="9.00">output 0.225</text>
</g>
<!-- ready
output 0.000&#45;&gt;key 212468
bias &#45;0.996
h_scaling 0.787
output 0.225 -->
<g id="edge10" class="edge">
<title>ready
output 0.000&#45;&gt;key 212468
bias &#45;0.996
h_scaling 0.787
output 0.225</title>
<path fill="none" stroke="red" stroke-width="0.1" d="M303.58,-865.96C307,-854.11 311.59,-836.29 313.45,-820.4 321.47,-751.82 327.02,-731.62 308.45,-665.12 289.83,-598.47 290.22,-577.82 252.45,-519.84 237.9,-497.51 218.13,-476.08 199.43,-458.25"/>
<polygon fill="red" stroke="red" stroke-width="0.1" points="201.75,-455.62 192.05,-451.34 196.96,-460.73 201.75,-455.62"/>
<text text-anchor="middle" x="324.45" y="-667.92" font-family="Times,serif" font-size="9.00">0.452</text>
</g>
<!-- go
output 0.000 -->
<g id="node2" class="node">
<title>go
output 0.000</title>
<polygon fill="green" stroke="black" points="119.95,-894.4 42.95,-894.4 42.95,-866.4 119.95,-866.4 119.95,-894.4"/>
<text text-anchor="middle" x="81.45" y="-883.2" font-family="Times,serif" font-size="9.00">go</text>
<text text-anchor="middle" x="81.45" y="-873.2" font-family="Times,serif" font-size="9.00">output 0.000</text>
</g>
<!-- go
output 0.000&#45;&gt;key 170467
bias &#45;0.552
h_scaling 0.303
output 0.736 -->
<g id="edge15" class="edge">
<title>go
output 0.000&#45;&gt;key 170467
bias &#45;0.552
h_scaling 0.303
output 0.736</title>
<path fill="none" stroke="red" stroke-width="0.1" d="M93.54,-866.38C105.86,-853.11 125.8,-831.66 144.71,-811.3"/>
<polygon fill="red" stroke="red" stroke-width="0.1" points="147.37,-813.58 151.61,-803.87 142.24,-808.81 147.37,-813.58"/>
<text text-anchor="middle" x="132.45" y="-841.2" font-family="Times,serif" font-size="9.00">0.295</text>
</g>
<!-- key 27204
bias &#45;0.481
h_scaling 0.520
output 0.447 -->
<g id="node5" class="node">
<title>key 27204
bias &#45;0.481
h_scaling 0.520
output 0.447</title>
<ellipse fill="white" stroke="black" cx="92.45" cy="-583.48" rx="63.78" ry="63.78"/>
<text text-anchor="middle" x="92.45" y="-596.28" font-family="Times,serif" font-size="9.00">key 27204</text>
<text text-anchor="middle" x="92.45" y="-586.28" font-family="Times,serif" font-size="9.00">bias &#45;0.481</text>
<text text-anchor="middle" x="92.45" y="-576.28" font-family="Times,serif" font-size="9.00">h_scaling 0.520</text>
<text text-anchor="middle" x="92.45" y="-566.28" font-family="Times,serif" font-size="9.00">output 0.447</text>
</g>
<!-- go
output 0.000&#45;&gt;key 27204
bias &#45;0.481
h_scaling 0.520
output 0.447 -->
<g id="edge2" class="edge">
<title>go
output 0.000&#45;&gt;key 27204
bias &#45;0.481
h_scaling 0.520
output 0.447</title>
<path fill="none" stroke="blue" stroke-width="0.1" d="M81.93,-866.34C83.27,-830.48 87.08,-728.42 89.72,-657.5"/>
<polygon fill="blue" stroke="blue" stroke-width="0.1" points="93.23,-657.4 90.1,-647.27 86.23,-657.13 93.23,-657.4"/>
<text text-anchor="middle" x="103.95" y="-754.56" font-family="Times,serif" font-size="9.00">&#45;0.992</text>
</g>
<!-- go
output 0.000&#45;&gt;key 212468
bias &#45;0.996
h_scaling 0.787
output 0.225 -->
<g id="edge16" class="edge">
<title>go
output 0.000&#45;&gt;key 212468
bias &#45;0.996
h_scaling 0.787
output 0.225</title>
<path fill="none" stroke="blue" stroke-width="0.1" d="M73.98,-866.29C47.48,-817.91 -37.58,-645.61 19.45,-519.84 32.34,-491.39 56.78,-467.45 80.57,-449.35"/>
<polygon fill="blue" stroke="blue" stroke-width="0.1" points="82.96,-451.94 88.94,-443.19 78.81,-446.3 82.96,-451.94"/>
<text text-anchor="middle" x="20.95" y="-667.92" font-family="Times,serif" font-size="9.00">&#45;0.576</text>
</g>
<!-- output
bias &#45;0.971
h_scaling 0.058
output 0.007 -->
<g id="node3" class="node">
<title>output
bias &#45;0.971
h_scaling 0.058
output 0.007</title>
<ellipse fill="lightblue" stroke="black" cx="128.45" cy="-63.64" rx="63.78" ry="63.78"/>
<text text-anchor="middle" x="128.45" y="-76.44" font-family="Times,serif" font-size="9.00">output</text>
<text text-anchor="middle" x="128.45" y="-66.44" font-family="Times,serif" font-size="9.00">bias &#45;0.971</text>
<text text-anchor="middle" x="128.45" y="-56.44" font-family="Times,serif" font-size="9.00">h_scaling 0.058</text>
<text text-anchor="middle" x="128.45" y="-46.44" font-family="Times,serif" font-size="9.00">output 0.007</text>
</g>
<!-- output
bias &#45;0.971
h_scaling 0.058
output 0.007&#45;&gt;key 170467
bias &#45;0.552
h_scaling 0.303
output 0.736 -->
<g id="edge7" class="edge">
<title>output
bias &#45;0.971
h_scaling 0.058
output 0.007&#45;&gt;key 170467
bias &#45;0.552
h_scaling 0.303
output 0.736</title>
<path fill="none" stroke="blue" stroke-width="0.1" d="M184.38,-94.07C215.28,-112.93 252.03,-140.09 275.45,-173.28 292.22,-197.05 294.45,-206.83 294.45,-235.92 294.45,-584.48 294.45,-584.48 294.45,-584.48 294.45,-628.28 269.75,-670.85 244.9,-702.59"/>
<polygon fill="blue" stroke="blue" stroke-width="0.1" points="242.14,-700.44 238.6,-710.42 247.6,-704.83 242.14,-700.44"/>
<text text-anchor="middle" x="309.95" y="-408" font-family="Times,serif" font-size="9.00">&#45;0.117</text>
</g>
<!-- key 170467
bias &#45;0.552
h_scaling 0.303
output 0.736&#45;&gt;key 170467
bias &#45;0.552
h_scaling 0.303
output 0.736 -->
<g id="edge6" class="edge">
<title>key 170467
bias &#45;0.552
h_scaling 0.303
output 0.736&#45;&gt;key 170467
bias &#45;0.552
h_scaling 0.303
output 0.736</title>
<path fill="none" stroke="red" stroke-width="0.1" d="M256.39,-772.05C267.95,-770.17 276.09,-765.07 276.09,-756.76 276.09,-751.04 272.24,-746.84 266.08,-744.17"/>
<polygon fill="red" stroke="red" stroke-width="0.1" points="266.96,-740.78 256.39,-741.46 265.08,-747.52 266.96,-740.78"/>
<text text-anchor="middle" x="290.09" y="-754.56" font-family="Times,serif" font-size="9.00">0.891</text>
</g>
<!-- key 170467
bias &#45;0.552
h_scaling 0.303
output 0.736&#45;&gt;key 27204
bias &#45;0.481
h_scaling 0.520
output 0.447 -->
<g id="edge5" class="edge">
<title>key 170467
bias &#45;0.552
h_scaling 0.303
output 0.736&#45;&gt;key 27204
bias &#45;0.481
h_scaling 0.520
output 0.447</title>
<path fill="none" stroke="red" stroke-width="0.1" d="M162.17,-701.56C151.89,-684.3 140.43,-665.05 129.82,-647.23"/>
<polygon fill="red" stroke="red" stroke-width="0.1" points="132.81,-645.41 124.68,-638.61 126.79,-649 132.81,-645.41"/>
<text text-anchor="middle" x="157.45" y="-667.92" font-family="Times,serif" font-size="9.00">0.303</text>
</g>
<!-- key 170467
bias &#45;0.552
h_scaling 0.303
output 0.736&#45;&gt;key 212468
bias &#45;0.996
h_scaling 0.787
output 0.225 -->
<g id="edge11" class="edge">
<title>key 170467
bias &#45;0.552
h_scaling 0.303
output 0.736&#45;&gt;key 212468
bias &#45;0.996
h_scaling 0.787
output 0.225</title>
<path fill="none" stroke="red" stroke-width="0.1" d="M210.23,-694.93C220.08,-646.56 228.05,-577.66 211.45,-519.84 206.39,-502.24 197.57,-484.74 187.91,-469.08"/>
<polygon fill="red" stroke="red" stroke-width="0.1" points="190.82,-467.13 182.48,-460.59 184.92,-470.9 190.82,-467.13"/>
<text text-anchor="middle" x="234.45" y="-581.28" font-family="Times,serif" font-size="9.00">0.548</text>
</g>
<!-- key 27204
bias &#45;0.481
h_scaling 0.520
output 0.447&#45;&gt;output
bias &#45;0.971
h_scaling 0.058
output 0.007 -->
<g id="edge1" class="edge">
<title>key 27204
bias &#45;0.481
h_scaling 0.520
output 0.447&#45;&gt;output
bias &#45;0.971
h_scaling 0.058
output 0.007</title>
<path fill="none" stroke="red" stroke-width="0.1" d="M77.84,-521.33C74.77,-505.92 72,-489.35 70.45,-473.84 57.09,-340.6 62.77,-304.08 91.45,-173.28 94.36,-159.97 98.36,-146.01 102.66,-132.71"/>
<polygon fill="red" stroke="red" stroke-width="0.1" points="106,-133.75 105.83,-123.16 99.36,-131.55 106,-133.75"/>
<text text-anchor="middle" x="80.45" y="-321.36" font-family="Times,serif" font-size="9.00">0.995</text>
</g>
<!-- key 27204
bias &#45;0.481
h_scaling 0.520
output 0.447&#45;&gt;key 27204
bias &#45;0.481
h_scaling 0.520
output 0.447 -->
<g id="edge3" class="edge">
<title>key 27204
bias &#45;0.481
h_scaling 0.520
output 0.447&#45;&gt;key 27204
bias &#45;0.481
h_scaling 0.520
output 0.447</title>
<path fill="none" stroke="red" stroke-width="0.1" d="M154.39,-598.77C165.95,-596.89 174.09,-591.79 174.09,-583.48 174.09,-577.76 170.24,-573.56 164.08,-570.89"/>
<polygon fill="red" stroke="red" stroke-width="0.1" points="164.96,-567.5 154.39,-568.18 163.08,-574.24 164.96,-567.5"/>
<text text-anchor="middle" x="188.09" y="-581.28" font-family="Times,serif" font-size="9.00">1.041</text>
</g>
<!-- key 27204
bias &#45;0.481
h_scaling 0.520
output 0.447&#45;&gt;key 212468
bias &#45;0.996
h_scaling 0.787
output 0.225 -->
<g id="edge8" class="edge">
<title>key 27204
bias &#45;0.481
h_scaling 0.520
output 0.447&#45;&gt;key 212468
bias &#45;0.996
h_scaling 0.787
output 0.225</title>
<path fill="none" stroke="red" stroke-width="0.1" d="M110.43,-522.09C114.37,-508.84 118.58,-494.7 122.63,-481.11"/>
<polygon fill="red" stroke="red" stroke-width="0.1" points="126.04,-481.91 125.54,-471.33 119.33,-479.91 126.04,-481.91"/>
<text text-anchor="middle" x="132.45" y="-494.64" font-family="Times,serif" font-size="9.00">1.089</text>
</g>
<!-- key 258290
bias 0.909
h_scaling 0.748
output 0.984 -->
<g id="node6" class="node">
<title>key 258290
bias 0.909
h_scaling 0.748
output 0.984</title>
<ellipse fill="white" stroke="black" cx="202.45" cy="-236.92" rx="63.78" ry="63.78"/>
<text text-anchor="middle" x="202.45" y="-249.72" font-family="Times,serif" font-size="9.00">key 258290</text>
<text text-anchor="middle" x="202.45" y="-239.72" font-family="Times,serif" font-size="9.00">bias 0.909</text>
<text text-anchor="middle" x="202.45" y="-229.72" font-family="Times,serif" font-size="9.00">h_scaling 0.748</text>
<text text-anchor="middle" x="202.45" y="-219.72" font-family="Times,serif" font-size="9.00">output 0.984</text>
</g>
<!-- key 258290
bias 0.909
h_scaling 0.748
output 0.984&#45;&gt;output
bias &#45;0.971
h_scaling 0.058
output 0.007 -->
<g id="edge14" class="edge">
<title>key 258290
bias 0.909
h_scaling 0.748
output 0.984&#45;&gt;output
bias &#45;0.971
h_scaling 0.058
output 0.007</title>
<path fill="none" stroke="blue" stroke-width="0.1" d="M177.39,-177.93C170.97,-163.06 164.01,-146.95 157.4,-131.67"/>
<polygon fill="blue" stroke="blue" stroke-width="0.1" points="160.53,-130.07 153.35,-122.28 154.1,-132.84 160.53,-130.07"/>
<text text-anchor="middle" x="180.95" y="-148.08" font-family="Times,serif" font-size="9.00">&#45;0.390</text>
</g>
<!-- key 212468
bias &#45;0.996
h_scaling 0.787
output 0.225&#45;&gt;output
bias &#45;0.971
h_scaling 0.058
output 0.007 -->
<g id="edge9" class="edge">
<title>key 212468
bias &#45;0.996
h_scaling 0.787
output 0.225&#45;&gt;output
bias &#45;0.971
h_scaling 0.058
output 0.007</title>
<path fill="none" stroke="red" stroke-width="0.1" d="M116.92,-352.28C110.56,-335.94 104.67,-317.85 101.45,-300.56 91.07,-244.95 94.57,-229.43 101.45,-173.28 102.98,-160.72 105.48,-147.53 108.36,-134.83"/>
<polygon fill="red" stroke="red" stroke-width="0.1" points="111.84,-135.31 110.74,-124.77 105.03,-133.7 111.84,-135.31"/>
<text text-anchor="middle" x="115.45" y="-234.72" font-family="Times,serif" font-size="9.00">1.005</text>
</g>
<!-- key 212468
bias &#45;0.996
h_scaling 0.787
output 0.225&#45;&gt;key 258290
bias 0.909
h_scaling 0.748
output 0.984 -->
<g id="edge13" class="edge">
<title>key 212468
bias &#45;0.996
h_scaling 0.787
output 0.225&#45;&gt;key 258290
bias 0.909
h_scaling 0.748
output 0.984</title>
<path fill="none" stroke="blue" stroke-width="0.1" d="M163.92,-349.77C168.68,-335.96 173.78,-321.13 178.67,-306.94"/>
<polygon fill="blue" stroke="blue" stroke-width="0.1" points="182.07,-307.83 182.01,-297.24 175.45,-305.55 182.07,-307.83"/>
<text text-anchor="middle" x="187.95" y="-321.36" font-family="Times,serif" font-size="9.00">&#45;0.676</text>
</g>
<!-- key 212468
bias &#45;0.996
h_scaling 0.787
output 0.225&#45;&gt;key 212468
bias &#45;0.996
h_scaling 0.787
output 0.225 -->
<g id="edge12" class="edge">
<title>key 212468
bias &#45;0.996
h_scaling 0.787
output 0.225&#45;&gt;key 212468
bias &#45;0.996
h_scaling 0.787
output 0.225</title>
<path fill="none" stroke="red" stroke-width="0.1" d="M205.39,-425.5C216.95,-423.61 225.09,-418.51 225.09,-410.2 225.09,-404.48 221.24,-400.29 215.08,-397.61"/>
<polygon fill="red" stroke="red" stroke-width="0.1" points="215.96,-394.22 205.39,-394.9 214.08,-400.96 215.96,-394.22"/>
<text text-anchor="middle" x="239.09" y="-408" font-family="Times,serif" font-size="9.00">0.551</text>
</g>
</g>
</svg>
