<?xml version="1.0" encoding="UTF-8" standalone="no"?>
<!DOCTYPE svg PUBLIC "-//W3C//DTD SVG 1.1//EN"
 "http://www.w3.org/Graphics/SVG/1.1/DTD/svg11.dtd">
<!-- Generated by graphviz version 2.43.0 (0)
 -->
<!-- Title: %3 Pages: 1 -->
<svg width="473pt" height="1332pt"
 viewBox="0.00 0.00 472.54 1332.23" xmlns="http://www.w3.org/2000/svg" xmlns:xlink="http://www.w3.org/1999/xlink">
<g id="graph0" class="graph" transform="scale(1 1) rotate(0) translate(4 1328.23)">
<title>%3</title>
<polygon fill="white" stroke="transparent" points="-4,4 -4,-1328.23 468.54,-1328.23 468.54,4 -4,4"/>
<!-- ready -->
<g id="node1" class="node">
<title>ready</title>
<polygon fill="yellow" stroke="black" points="330.14,-1324.23 287.14,-1324.23 287.14,-1306.23 330.14,-1306.23 330.14,-1324.23"/>
<text text-anchor="middle" x="308.64" y="-1313.03" font-family="Times,serif" font-size="9.00">ready</text>
</g>
<!-- key 5827
bias &#45;0.644
h_scaling 0.449 -->
<g id="node4" class="node">
<title>key 5827
bias &#45;0.644
h_scaling 0.449</title>
<ellipse fill="white" stroke="black" cx="272.64" cy="-1206.59" rx="63.78" ry="63.78"/>
<text text-anchor="middle" x="272.64" y="-1214.39" font-family="Times,serif" font-size="9.00">key 5827</text>
<text text-anchor="middle" x="272.64" y="-1204.39" font-family="Times,serif" font-size="9.00">bias &#45;0.644</text>
<text text-anchor="middle" x="272.64" y="-1194.39" font-family="Times,serif" font-size="9.00">h_scaling 0.449</text>
</g>
<!-- ready&#45;&gt;key 5827
bias &#45;0.644
h_scaling 0.449 -->
<g id="edge12" class="edge">
<title>ready&#45;&gt;key 5827
bias &#45;0.644
h_scaling 0.449</title>
<path fill="none" stroke="red" stroke-width="0.99" d="M305.93,-1306.22C303.61,-1299.34 300.02,-1288.69 296.03,-1276.88"/>
<polygon fill="red" stroke="red" stroke-width="0.99" points="299.28,-1275.58 292.77,-1267.22 292.65,-1277.82 299.28,-1275.58"/>
</g>
<!-- key 28900
bias 0.246
h_scaling 0.173 -->
<g id="node5" class="node">
<title>key 28900
bias 0.246
h_scaling 0.173</title>
<ellipse fill="white" stroke="black" cx="366.64" cy="-716.76" rx="63.78" ry="63.78"/>
<text text-anchor="middle" x="366.64" y="-724.56" font-family="Times,serif" font-size="9.00">key 28900</text>
<text text-anchor="middle" x="366.64" y="-714.56" font-family="Times,serif" font-size="9.00">bias 0.246</text>
<text text-anchor="middle" x="366.64" y="-704.56" font-family="Times,serif" font-size="9.00">h_scaling 0.173</text>
</g>
<!-- ready&#45;&gt;key 28900
bias 0.246
h_scaling 0.173 -->
<g id="edge11" class="edge">
<title>ready&#45;&gt;key 28900
bias 0.246
h_scaling 0.173</title>
<path fill="none" stroke="red" stroke-width="1.85" d="M322.69,-1306.17C335.07,-1298.4 352.76,-1285.6 363.64,-1270.23 449.73,-1148.6 431.01,-1092.44 439.64,-943.68 442.91,-887.2 457.36,-870.12 439.64,-816.4 434.5,-800.81 425.85,-785.68 416.26,-772.13"/>
<polygon fill="red" stroke="red" stroke-width="1.85" points="418.95,-769.88 410.19,-763.92 413.31,-774.04 418.95,-769.88"/>
</g>
<!-- go -->
<g id="node2" class="node">
<title>go</title>
<polygon fill="green" stroke="black" points="249.64,-1324.23 221.64,-1324.23 221.64,-1306.23 249.64,-1306.23 249.64,-1324.23"/>
<text text-anchor="middle" x="235.64" y="-1313.03" font-family="Times,serif" font-size="9.00">go</text>
</g>
<!-- go&#45;&gt;key 5827
bias &#45;0.644
h_scaling 0.449 -->
<g id="edge1" class="edge">
<title>go&#45;&gt;key 5827
bias &#45;0.644
h_scaling 0.449</title>
<path fill="none" stroke="blue" stroke-width="3.1" d="M238.42,-1306.22C240.82,-1299.3 244.54,-1288.57 248.67,-1276.69"/>
<polygon fill="blue" stroke="blue" stroke-width="3.1" points="252.07,-1277.56 252.04,-1266.96 245.46,-1275.26 252.07,-1277.56"/>
</g>
<!-- key 11408
bias &#45;0.552
h_scaling 0.645 -->
<g id="node10" class="node">
<title>key 11408
bias &#45;0.552
h_scaling 0.645</title>
<ellipse fill="white" stroke="black" cx="251.64" cy="-553.48" rx="63.78" ry="63.78"/>
<text text-anchor="middle" x="251.64" y="-561.28" font-family="Times,serif" font-size="9.00">key 11408</text>
<text text-anchor="middle" x="251.64" y="-551.28" font-family="Times,serif" font-size="9.00">bias &#45;0.552</text>
<text text-anchor="middle" x="251.64" y="-541.28" font-family="Times,serif" font-size="9.00">h_scaling 0.645</text>
</g>
<!-- go&#45;&gt;key 11408
bias &#45;0.552
h_scaling 0.645 -->
<g id="edge6" class="edge">
<title>go&#45;&gt;key 11408
bias &#45;0.552
h_scaling 0.645</title>
<path fill="none" stroke="blue" stroke-width="2.89" d="M226.43,-1306.18C217.83,-1298.06 205.49,-1284.69 199.64,-1270.23 161.81,-1176.84 180.64,-1145.08 180.64,-1044.31 180.64,-1044.31 180.64,-1044.31 180.64,-879.04 180.64,-789.2 206.92,-688.54 227.5,-623.48"/>
<polygon fill="blue" stroke="blue" stroke-width="2.89" points="230.9,-624.34 230.63,-613.74 224.24,-622.2 230.9,-624.34"/>
</g>
<!-- output
bias &#45;0.989
h_scaling 0.935 -->
<g id="node3" class="node">
<title>output
bias &#45;0.989
h_scaling 0.935</title>
<ellipse fill="lightblue" stroke="black" cx="347.64" cy="-1043.31" rx="63.78" ry="63.78"/>
<text text-anchor="middle" x="347.64" y="-1051.11" font-family="Times,serif" font-size="9.00">output</text>
<text text-anchor="middle" x="347.64" y="-1041.11" font-family="Times,serif" font-size="9.00">bias &#45;0.989</text>
<text text-anchor="middle" x="347.64" y="-1031.11" font-family="Times,serif" font-size="9.00">h_scaling 0.935</text>
</g>
<!-- key 118697
bias &#45;0.362
h_scaling 0.435 -->
<g id="node6" class="node">
<title>key 118697
bias &#45;0.362
h_scaling 0.435</title>
<ellipse fill="white" stroke="black" cx="366.64" cy="-880.04" rx="63.78" ry="63.78"/>
<text text-anchor="middle" x="366.64" y="-887.84" font-family="Times,serif" font-size="9.00">key 118697</text>
<text text-anchor="middle" x="366.64" y="-877.84" font-family="Times,serif" font-size="9.00">bias &#45;0.362</text>
<text text-anchor="middle" x="366.64" y="-867.84" font-family="Times,serif" font-size="9.00">h_scaling 0.435</text>
</g>
<!-- output
bias &#45;0.989
h_scaling 0.935&#45;&gt;key 118697
bias &#45;0.362
h_scaling 0.435 -->
<g id="edge9" class="edge">
<title>output
bias &#45;0.989
h_scaling 0.935&#45;&gt;key 118697
bias &#45;0.362
h_scaling 0.435</title>
<path fill="none" stroke="red" stroke-width="3.07" d="M354.99,-979.96C356,-971.36 357.05,-962.47 358.08,-953.7"/>
<polygon fill="red" stroke="red" stroke-width="3.07" points="361.59,-953.83 359.28,-943.49 354.64,-953.01 361.59,-953.83"/>
</g>
<!-- key 5827
bias &#45;0.644
h_scaling 0.449&#45;&gt;output
bias &#45;0.989
h_scaling 0.935 -->
<g id="edge2" class="edge">
<title>key 5827
bias &#45;0.644
h_scaling 0.449&#45;&gt;output
bias &#45;0.989
h_scaling 0.935</title>
<path fill="none" stroke="red" stroke-width="2.88" d="M299.29,-1148.28C304.93,-1136.16 310.92,-1123.27 316.7,-1110.84"/>
<polygon fill="red" stroke="red" stroke-width="2.88" points="320.03,-1111.99 321.07,-1101.45 313.68,-1109.04 320.03,-1111.99"/>
</g>
<!-- key 5827
bias &#45;0.644
h_scaling 0.449&#45;&gt;key 5827
bias &#45;0.644
h_scaling 0.449 -->
<g id="edge5" class="edge">
<title>key 5827
bias &#45;0.644
h_scaling 0.449&#45;&gt;key 5827
bias &#45;0.644
h_scaling 0.449</title>
<path fill="none" stroke="red" stroke-width="1.41" d="M333.52,-1226.01C345.64,-1223.82 354.28,-1217.35 354.28,-1206.59 354.28,-1199.03 350.01,-1193.59 343.26,-1190.26"/>
<polygon fill="red" stroke="red" stroke-width="1.41" points="344.11,-1186.86 333.52,-1187.18 342,-1193.53 344.11,-1186.86"/>
</g>
<!-- key 5827
bias &#45;0.644
h_scaling 0.449&#45;&gt;key 11408
bias &#45;0.552
h_scaling 0.645 -->
<g id="edge4" class="edge">
<title>key 5827
bias &#45;0.644
h_scaling 0.449&#45;&gt;key 11408
bias &#45;0.552
h_scaling 0.645</title>
<path fill="none" stroke="red" stroke-width="3.08" d="M262.3,-1143.67C254.04,-1060.92 244.98,-909.71 241.64,-780.4 240.18,-723.85 241.35,-709.68 241.64,-653.12 241.68,-644.53 241.75,-635.53 241.89,-626.59"/>
<polygon fill="red" stroke="red" stroke-width="3.08" points="245.39,-626.63 242.09,-616.57 238.39,-626.5 245.39,-626.63"/>
</g>
<!-- key 28900
bias 0.246
h_scaling 0.173&#45;&gt;key 11408
bias &#45;0.552
h_scaling 0.645 -->
<g id="edge8" class="edge">
<title>key 28900
bias 0.246
h_scaling 0.173&#45;&gt;key 11408
bias &#45;0.552
h_scaling 0.645</title>
<path fill="none" stroke="red" stroke-width="1.66" d="M329.94,-664.28C318.57,-648.35 305.96,-630.65 294.23,-614.21"/>
<polygon fill="red" stroke="red" stroke-width="1.66" points="296.85,-611.85 288.19,-605.74 291.15,-615.91 296.85,-611.85"/>
</g>
<!-- key 118697
bias &#45;0.362
h_scaling 0.435&#45;&gt;key 28900
bias 0.246
h_scaling 0.173 -->
<g id="edge10" class="edge">
<title>key 118697
bias &#45;0.362
h_scaling 0.435&#45;&gt;key 28900
bias 0.246
h_scaling 0.173</title>
<path fill="none" stroke="blue" stroke-width="2.93" d="M366.64,-816.22C366.64,-807.76 366.64,-799.03 366.64,-790.43"/>
<polygon fill="blue" stroke="blue" stroke-width="2.93" points="370.14,-790.4 366.64,-780.4 363.14,-790.4 370.14,-790.4"/>
</g>
<!-- key 424586
bias &#45;0.339
h_scaling 0.160 -->
<g id="node7" class="node">
<title>key 424586
bias &#45;0.339
h_scaling 0.160</title>
<ellipse fill="white" stroke="black" cx="106.64" cy="-553.48" rx="63.78" ry="63.78"/>
<text text-anchor="middle" x="106.64" y="-561.28" font-family="Times,serif" font-size="9.00">key 424586</text>
<text text-anchor="middle" x="106.64" y="-551.28" font-family="Times,serif" font-size="9.00">bias &#45;0.339</text>
<text text-anchor="middle" x="106.64" y="-541.28" font-family="Times,serif" font-size="9.00">h_scaling 0.160</text>
</g>
<!-- key 416236
bias 0.054
h_scaling 1.000 -->
<g id="node9" class="node">
<title>key 416236
bias 0.054
h_scaling 1.000</title>
<ellipse fill="white" stroke="black" cx="165.64" cy="-390.2" rx="63.78" ry="63.78"/>
<text text-anchor="middle" x="165.64" y="-398" font-family="Times,serif" font-size="9.00">key 416236</text>
<text text-anchor="middle" x="165.64" y="-388" font-family="Times,serif" font-size="9.00">bias 0.054</text>
<text text-anchor="middle" x="165.64" y="-378" font-family="Times,serif" font-size="9.00">h_scaling 1.000</text>
</g>
<!-- key 424586
bias &#45;0.339
h_scaling 0.160&#45;&gt;key 416236
bias 0.054
h_scaling 1.000 -->
<g id="edge19" class="edge">
<title>key 424586
bias &#45;0.339
h_scaling 0.160&#45;&gt;key 416236
bias 0.054
h_scaling 1.000</title>
<path fill="none" stroke="red" stroke-width="0.49" d="M128.27,-493.34C132.24,-482.49 136.42,-471.08 140.48,-459.98"/>
<polygon fill="red" stroke="red" stroke-width="0.49" points="143.86,-460.92 144.01,-450.33 137.29,-458.52 143.86,-460.92"/>
</g>
<!-- key 399851
bias 0.335
h_scaling 0.928 -->
<g id="node8" class="node">
<title>key 399851
bias 0.335
h_scaling 0.928</title>
<ellipse fill="white" stroke="black" cx="294.64" cy="-63.64" rx="63.78" ry="63.78"/>
<text text-anchor="middle" x="294.64" y="-71.44" font-family="Times,serif" font-size="9.00">key 399851</text>
<text text-anchor="middle" x="294.64" y="-61.44" font-family="Times,serif" font-size="9.00">bias 0.335</text>
<text text-anchor="middle" x="294.64" y="-51.44" font-family="Times,serif" font-size="9.00">h_scaling 0.928</text>
</g>
<!-- key 399851
bias 0.335
h_scaling 0.928&#45;&gt;output
bias &#45;0.989
h_scaling 0.935 -->
<g id="edge13" class="edge">
<title>key 399851
bias 0.335
h_scaling 0.928&#45;&gt;output
bias &#45;0.989
h_scaling 0.935</title>
<path fill="none" stroke="blue" stroke-width="1.24" d="M336.45,-111.99C385.04,-172.06 458.64,-280.93 458.64,-389.2 458.64,-717.76 458.64,-717.76 458.64,-717.76 458.64,-818.52 480.47,-851.56 439.64,-943.68 431.32,-962.45 417.9,-979.94 403.85,-994.82"/>
<polygon fill="blue" stroke="blue" stroke-width="1.24" points="400.97,-992.76 396.47,-1002.36 405.97,-997.66 400.97,-992.76"/>
</g>
<!-- key 417214
bias &#45;1.000
h_scaling 0.687 -->
<g id="node12" class="node">
<title>key 417214
bias &#45;1.000
h_scaling 0.687</title>
<ellipse fill="white" stroke="black" cx="248.64" cy="-226.92" rx="63.78" ry="63.78"/>
<text text-anchor="middle" x="248.64" y="-234.72" font-family="Times,serif" font-size="9.00">key 417214</text>
<text text-anchor="middle" x="248.64" y="-224.72" font-family="Times,serif" font-size="9.00">bias &#45;1.000</text>
<text text-anchor="middle" x="248.64" y="-214.72" font-family="Times,serif" font-size="9.00">h_scaling 0.687</text>
</g>
<!-- key 416236
bias 0.054
h_scaling 1.000&#45;&gt;key 417214
bias &#45;1.000
h_scaling 0.687 -->
<g id="edge14" class="edge">
<title>key 416236
bias 0.054
h_scaling 1.000&#45;&gt;key 417214
bias &#45;1.000
h_scaling 0.687</title>
<path fill="none" stroke="red" stroke-width="0.67" d="M194.44,-333.24C201.13,-320.23 208.32,-306.27 215.19,-292.91"/>
<polygon fill="red" stroke="red" stroke-width="0.67" points="218.43,-294.27 219.89,-283.77 212.21,-291.06 218.43,-294.27"/>
</g>
<!-- key 11408
bias &#45;0.552
h_scaling 0.645&#45;&gt;output
bias &#45;0.989
h_scaling 0.935 -->
<g id="edge7" class="edge">
<title>key 11408
bias &#45;0.552
h_scaling 0.645&#45;&gt;output
bias &#45;0.989
h_scaling 0.935</title>
<path fill="none" stroke="red" stroke-width="2.27" d="M250.94,-617.35C251.74,-695.59 258.73,-832.47 293.64,-943.68 297.51,-956 302.98,-968.53 308.97,-980.35"/>
<polygon fill="red" stroke="red" stroke-width="2.27" points="305.89,-982.01 313.64,-989.24 312.09,-978.76 305.89,-982.01"/>
</g>
<!-- key 11408
bias &#45;0.552
h_scaling 0.645&#45;&gt;key 5827
bias &#45;0.644
h_scaling 0.449 -->
<g id="edge3" class="edge">
<title>key 11408
bias &#45;0.552
h_scaling 0.645&#45;&gt;key 5827
bias &#45;0.644
h_scaling 0.449</title>
<path fill="none" stroke="red" stroke-width="2.99" d="M259.74,-616.83C259.8,-628.87 259.7,-641.39 259.64,-653.12 259.35,-709.68 258.18,-723.85 259.64,-780.4 262.84,-904.3 271.29,-1048.32 274.21,-1132.94"/>
<polygon fill="red" stroke="red" stroke-width="2.99" points="270.71,-1133.07 274.53,-1142.95 277.7,-1132.85 270.71,-1133.07"/>
</g>
<!-- key 11408
bias &#45;0.552
h_scaling 0.645&#45;&gt;key 416236
bias 0.054
h_scaling 1.000 -->
<g id="edge16" class="edge">
<title>key 11408
bias &#45;0.552
h_scaling 0.645&#45;&gt;key 416236
bias 0.054
h_scaling 1.000</title>
<path fill="none" stroke="red" stroke-width="0.27" d="M222.04,-496.97C214.95,-483.67 207.31,-469.35 200.02,-455.68"/>
<polygon fill="red" stroke="red" stroke-width="0.27" points="203.08,-453.98 195.29,-446.8 196.91,-457.27 203.08,-453.98"/>
</g>
<!-- key 376923
bias &#45;0.387
h_scaling 0.103 -->
<g id="node11" class="node">
<title>key 376923
bias &#45;0.387
h_scaling 0.103</title>
<ellipse fill="white" stroke="black" cx="63.64" cy="-716.76" rx="63.78" ry="63.78"/>
<text text-anchor="middle" x="63.64" y="-724.56" font-family="Times,serif" font-size="9.00">key 376923</text>
<text text-anchor="middle" x="63.64" y="-714.56" font-family="Times,serif" font-size="9.00">bias &#45;0.387</text>
<text text-anchor="middle" x="63.64" y="-704.56" font-family="Times,serif" font-size="9.00">h_scaling 0.103</text>
</g>
<!-- key 376923
bias &#45;0.387
h_scaling 0.103&#45;&gt;key 424586
bias &#45;0.339
h_scaling 0.160 -->
<g id="edge18" class="edge">
<title>key 376923
bias &#45;0.387
h_scaling 0.103&#45;&gt;key 424586
bias &#45;0.339
h_scaling 0.160</title>
<path fill="none" stroke="red" stroke-width="3.1" d="M79.9,-654.78C82.48,-645.08 85.18,-634.98 87.82,-625.08"/>
<polygon fill="red" stroke="red" stroke-width="3.1" points="91.24,-625.83 90.43,-615.27 84.47,-624.03 91.24,-625.83"/>
</g>
<!-- key 376923
bias &#45;0.387
h_scaling 0.103&#45;&gt;key 416236
bias 0.054
h_scaling 1.000 -->
<g id="edge17" class="edge">
<title>key 376923
bias &#45;0.387
h_scaling 0.103&#45;&gt;key 416236
bias 0.054
h_scaling 1.000</title>
<path fill="none" stroke="blue" stroke-width="0.34" d="M38.46,-657.97C21.72,-610.43 7.23,-542.54 33.64,-489.84 47.75,-461.69 74.12,-439.51 99.61,-423.37"/>
<polygon fill="blue" stroke="blue" stroke-width="0.34" points="101.48,-426.33 108.2,-418.13 97.84,-420.35 101.48,-426.33"/>
</g>
<!-- key 417214
bias &#45;1.000
h_scaling 0.687&#45;&gt;key 399851
bias 0.335
h_scaling 0.928 -->
<g id="edge15" class="edge">
<title>key 417214
bias &#45;1.000
h_scaling 0.687&#45;&gt;key 399851
bias 0.335
h_scaling 0.928</title>
<path fill="none" stroke="blue" stroke-width="0.13" d="M265.9,-165.41C268.76,-155.38 271.74,-144.91 274.66,-134.68"/>
<polygon fill="blue" stroke="blue" stroke-width="0.13" points="278.06,-135.53 277.44,-124.96 271.33,-133.61 278.06,-135.53"/>
</g>
</g>
</svg>
