<?xml version="1.0" encoding="UTF-8" standalone="no"?>
<!DOCTYPE svg PUBLIC "-//W3C//DTD SVG 1.1//EN"
 "http://www.w3.org/Graphics/SVG/1.1/DTD/svg11.dtd">
<!-- Generated by graphviz version 8.0.5 (20230430.1635)
 -->
<!-- Pages: 1 -->
<svg width="228pt" height="301pt"
 viewBox="0.00 0.00 228.12 301.48" xmlns="http://www.w3.org/2000/svg" xmlns:xlink="http://www.w3.org/1999/xlink">
<g id="graph0" class="graph" transform="scale(1 1) rotate(0) translate(4 297.48)">
<polygon fill="white" stroke="none" points="-4,4 -4,-297.48 224.12,-297.48 224.12,4 -4,4"/>
<!-- ready -->
<g id="node1" class="node">
<title>ready</title>
<polygon fill="yellow" stroke="black" points="86.68,-293.48 50.43,-293.48 50.43,-274.23 86.68,-274.23 86.68,-293.48"/>
<text text-anchor="middle" x="68.56" y="-280.93" font-family="Times New Roman,serif" font-size="9.00">ready</text>
</g>
<!-- key 237
bias &#45;0.662
h_scaling 1.000 -->
<g id="node4" class="node">
<title>key 237
bias &#45;0.662
h_scaling 1.000</title>
<ellipse fill="white" stroke="black" cx="50.56" cy="-187.67" rx="50.56" ry="50.56"/>
<text text-anchor="middle" x="50.56" y="-196" font-family="Times New Roman,serif" font-size="9.00">key 237</text>
<text text-anchor="middle" x="50.56" y="-184.75" font-family="Times New Roman,serif" font-size="9.00">bias &#45;0.662</text>
<text text-anchor="middle" x="50.56" y="-173.5" font-family="Times New Roman,serif" font-size="9.00">h_scaling 1.000</text>
</g>
<!-- ready&#45;&gt;key 237
bias &#45;0.662
h_scaling 1.000 -->
<g id="edge4" class="edge">
<title>ready&#45;&gt;key 237
bias &#45;0.662
h_scaling 1.000</title>
<path fill="none" stroke="red" stroke-width="0.19" d="M66.83,-273.83C65.57,-267.2 63.73,-257.57 61.73,-247.15"/>
<polygon fill="red" stroke="red" stroke-width="0.19" points="65.19,-246.58 59.87,-237.42 58.31,-247.9 65.19,-246.58"/>
</g>
<!-- key 238
bias 1.031
h_scaling 1.000 -->
<g id="node5" class="node">
<title>key 238
bias 1.031
h_scaling 1.000</title>
<ellipse fill="white" stroke="black" cx="169.56" cy="-187.67" rx="50.56" ry="50.56"/>
<text text-anchor="middle" x="169.56" y="-196" font-family="Times New Roman,serif" font-size="9.00">key 238</text>
<text text-anchor="middle" x="169.56" y="-184.75" font-family="Times New Roman,serif" font-size="9.00">bias 1.031</text>
<text text-anchor="middle" x="169.56" y="-173.5" font-family="Times New Roman,serif" font-size="9.00">h_scaling 1.000</text>
</g>
<!-- ready&#45;&gt;key 238
bias 1.031
h_scaling 1.000 -->
<g id="edge1" class="edge">
<title>ready&#45;&gt;key 238
bias 1.031
h_scaling 1.000</title>
<path fill="none" stroke="blue" stroke-width="4.7" d="M78.24,-273.83C88.43,-264.33 105.24,-248.65 121.68,-233.32"/>
<polygon fill="blue" stroke="blue" stroke-width="4.7" points="124.41,-236.67 128.92,-226.84 118.8,-230.65 124.41,-236.67"/>
</g>
<!-- go -->
<g id="node2" class="node">
<title>go</title>
<polygon fill="green" stroke="black" points="163.68,-293.48 139.43,-293.48 139.43,-274.23 163.68,-274.23 163.68,-293.48"/>
<text text-anchor="middle" x="151.56" y="-280.93" font-family="Times New Roman,serif" font-size="9.00">go</text>
</g>
<!-- go&#45;&gt;key 237
bias &#45;0.662
h_scaling 1.000 -->
<g id="edge7" class="edge">
<title>go&#45;&gt;key 237
bias &#45;0.662
h_scaling 1.000</title>
<path fill="none" stroke="red" stroke-width="4.77" d="M141.87,-273.83C131.68,-264.33 114.87,-248.65 98.43,-233.32"/>
<polygon fill="red" stroke="red" stroke-width="4.77" points="101.36,-230.61 91.2,-226.84 95.67,-236.71 101.36,-230.61"/>
</g>
<!-- go&#45;&gt;key 238
bias 1.031
h_scaling 1.000 -->
<g id="edge5" class="edge">
<title>go&#45;&gt;key 238
bias 1.031
h_scaling 1.000</title>
<path fill="none" stroke="blue" stroke-width="3.06" d="M153.28,-273.83C154.4,-268.01 155.95,-259.88 157.66,-250.94"/>
<polygon fill="blue" stroke="blue" stroke-width="3.06" points="161.8,-251.9 160.24,-241.42 154.93,-250.58 161.8,-251.9"/>
</g>
<!-- key output
bias &#45;0.349
h_scaling 1.000 -->
<g id="node3" class="node">
<title>key output
bias &#45;0.349
h_scaling 1.000</title>
<ellipse fill="lightblue" stroke="black" cx="109.56" cy="-50.56" rx="50.56" ry="50.56"/>
<text text-anchor="middle" x="109.56" y="-58.88" font-family="Times New Roman,serif" font-size="9.00">key output</text>
<text text-anchor="middle" x="109.56" y="-47.63" font-family="Times New Roman,serif" font-size="9.00">bias &#45;0.349</text>
<text text-anchor="middle" x="109.56" y="-36.38" font-family="Times New Roman,serif" font-size="9.00">h_scaling 1.000</text>
</g>
<!-- key output
bias &#45;0.349
h_scaling 1.000&#45;&gt;key output
bias &#45;0.349
h_scaling 1.000 -->
<g id="edge6" class="edge">
<title>key output
bias &#45;0.349
h_scaling 1.000&#45;&gt;key output
bias &#45;0.349
h_scaling 1.000</title>
<path fill="none" stroke="blue" stroke-width="3.34" d="M153.41,-76.25C167.22,-75.86 178.12,-67.3 178.12,-50.56 178.12,-40.36 174.07,-33.19 167.78,-29.06"/>
<polygon fill="blue" stroke="blue" stroke-width="3.34" points="167.99,-25.31 157.41,-25.86 166.02,-32.03 167.99,-25.31"/>
</g>
<!-- key 237
bias &#45;0.662
h_scaling 1.000&#45;&gt;key output
bias &#45;0.349
h_scaling 1.000 -->
<g id="edge2" class="edge">
<title>key 237
bias &#45;0.662
h_scaling 1.000&#45;&gt;key output
bias &#45;0.349
h_scaling 1.000</title>
<path fill="none" stroke="blue" stroke-width="1.56" d="M70.53,-140.93C75.15,-130.37 80.11,-119 84.89,-108.04"/>
<polygon fill="blue" stroke="blue" stroke-width="1.56" points="88.81,-109.82 89.6,-99.26 82.39,-107.02 88.81,-109.82"/>
</g>
<!-- key 238
bias 1.031
h_scaling 1.000&#45;&gt;key output
bias &#45;0.349
h_scaling 1.000 -->
<g id="edge3" class="edge">
<title>key 238
bias 1.031
h_scaling 1.000&#45;&gt;key output
bias &#45;0.349
h_scaling 1.000</title>
<path fill="none" stroke="red" stroke-width="0.33" d="M149.24,-140.93C144.31,-129.81 138.98,-117.82 133.88,-106.33"/>
<polygon fill="red" stroke="red" stroke-width="0.33" points="137.11,-104.97 129.85,-97.26 130.71,-107.82 137.11,-104.97"/>
</g>
</g>
</svg>
