<?xml version="1.0" encoding="UTF-8" standalone="no"?>
<!DOCTYPE svg PUBLIC "-//W3C//DTD SVG 1.1//EN"
 "http://www.w3.org/Graphics/SVG/1.1/DTD/svg11.dtd">
<!-- Generated by graphviz version 2.43.0 (0)
 -->
<!-- Title: %3 Pages: 1 -->
<svg width="297pt" height="1006pt"
 viewBox="0.00 0.00 296.94 1005.68" xmlns="http://www.w3.org/2000/svg" xmlns:xlink="http://www.w3.org/1999/xlink">
<g id="graph0" class="graph" transform="scale(1 1) rotate(0) translate(4 1001.68)">
<title>%3</title>
<polygon fill="white" stroke="transparent" points="-4,4 -4,-1001.68 292.94,-1001.68 292.94,4 -4,4"/>
<!-- ready -->
<g id="node1" class="node">
<title>ready</title>
<polygon fill="yellow" stroke="black" points="173.14,-997.68 130.14,-997.68 130.14,-979.68 173.14,-979.68 173.14,-997.68"/>
<text text-anchor="middle" x="151.64" y="-986.48" font-family="Times,serif" font-size="9.00">ready</text>
</g>
<!-- key 147271
bias &#45;0.704
h_scaling 0.515 -->
<g id="node5" class="node">
<title>key 147271
bias &#45;0.704
h_scaling 0.515</title>
<ellipse fill="white" stroke="black" cx="151.64" cy="-880.04" rx="63.78" ry="63.78"/>
<text text-anchor="middle" x="151.64" y="-887.84" font-family="Times,serif" font-size="9.00">key 147271</text>
<text text-anchor="middle" x="151.64" y="-877.84" font-family="Times,serif" font-size="9.00">bias &#45;0.704</text>
<text text-anchor="middle" x="151.64" y="-867.84" font-family="Times,serif" font-size="9.00">h_scaling 0.515</text>
</g>
<!-- ready&#45;&gt;key 147271
bias &#45;0.704
h_scaling 0.515 -->
<g id="edge14" class="edge">
<title>ready&#45;&gt;key 147271
bias &#45;0.704
h_scaling 0.515</title>
<path fill="none" stroke="red" stroke-width="5.1" d="M151.64,-979.66C151.64,-973.49 151.64,-964.3 151.64,-953.95"/>
<polygon fill="red" stroke="red" stroke-width="5.1" points="156.1,-953.75 151.64,-943.75 147.18,-953.75 156.1,-953.75"/>
</g>
<!-- key 28589
bias &#45;0.523
h_scaling 0.747 -->
<g id="node6" class="node">
<title>key 28589
bias &#45;0.523
h_scaling 0.747</title>
<ellipse fill="white" stroke="black" cx="63.64" cy="-716.76" rx="63.78" ry="63.78"/>
<text text-anchor="middle" x="63.64" y="-724.56" font-family="Times,serif" font-size="9.00">key 28589</text>
<text text-anchor="middle" x="63.64" y="-714.56" font-family="Times,serif" font-size="9.00">bias &#45;0.523</text>
<text text-anchor="middle" x="63.64" y="-704.56" font-family="Times,serif" font-size="9.00">h_scaling 0.747</text>
</g>
<!-- ready&#45;&gt;key 28589
bias &#45;0.523
h_scaling 0.747 -->
<g id="edge6" class="edge">
<title>ready&#45;&gt;key 28589
bias &#45;0.523
h_scaling 0.747</title>
<path fill="none" stroke="red" stroke-width="2.18" d="M130.06,-980.91C112.96,-974.32 90.11,-962.5 78.64,-943.68 50.81,-898.02 48.32,-837.1 52.1,-790.03"/>
<polygon fill="red" stroke="red" stroke-width="2.18" points="55.6,-790.18 53.03,-779.9 48.63,-789.54 55.6,-790.18"/>
</g>
<!-- key 3613
bias 0.179
h_scaling 0.461 -->
<g id="node8" class="node">
<title>key 3613
bias 0.179
h_scaling 0.461</title>
<ellipse fill="white" stroke="black" cx="181.64" cy="-390.2" rx="63.78" ry="63.78"/>
<text text-anchor="middle" x="181.64" y="-398" font-family="Times,serif" font-size="9.00">key 3613</text>
<text text-anchor="middle" x="181.64" y="-388" font-family="Times,serif" font-size="9.00">bias 0.179</text>
<text text-anchor="middle" x="181.64" y="-378" font-family="Times,serif" font-size="9.00">h_scaling 0.461</text>
</g>
<!-- ready&#45;&gt;key 3613
bias 0.179
h_scaling 0.461 -->
<g id="edge13" class="edge">
<title>ready&#45;&gt;key 3613
bias 0.179
h_scaling 0.461</title>
<path fill="none" stroke="red" stroke-width="2.07" d="M173.33,-983.98C195.11,-978.98 227.53,-967.76 242.64,-943.68 338.43,-790.96 261.94,-566.94 213.59,-457"/>
<polygon fill="red" stroke="red" stroke-width="2.07" points="216.71,-455.39 209.44,-447.68 210.32,-458.24 216.71,-455.39"/>
</g>
<!-- go -->
<g id="node2" class="node">
<title>go</title>
<polygon fill="green" stroke="black" points="191.64,-725.76 163.64,-725.76 163.64,-707.76 191.64,-707.76 191.64,-725.76"/>
<text text-anchor="middle" x="177.64" y="-714.56" font-family="Times,serif" font-size="9.00">go</text>
</g>
<!-- key 11028
bias &#45;0.133
h_scaling 0.353 -->
<g id="node7" class="node">
<title>key 11028
bias &#45;0.133
h_scaling 0.353</title>
<ellipse fill="white" stroke="black" cx="71.64" cy="-553.48" rx="63.78" ry="63.78"/>
<text text-anchor="middle" x="71.64" y="-561.28" font-family="Times,serif" font-size="9.00">key 11028</text>
<text text-anchor="middle" x="71.64" y="-551.28" font-family="Times,serif" font-size="9.00">bias &#45;0.133</text>
<text text-anchor="middle" x="71.64" y="-541.28" font-family="Times,serif" font-size="9.00">h_scaling 0.353</text>
</g>
<!-- go&#45;&gt;key 11028
bias &#45;0.133
h_scaling 0.353 -->
<g id="edge3" class="edge">
<title>go&#45;&gt;key 11028
bias &#45;0.133
h_scaling 0.353</title>
<path fill="none" stroke="red" stroke-width="3.14" d="M175.64,-707.65C172.38,-695.32 165.22,-671.35 154.64,-653.12 145.54,-637.44 133.89,-621.8 122.22,-607.76"/>
<polygon fill="red" stroke="red" stroke-width="3.14" points="124.88,-605.49 115.74,-600.13 119.54,-610.02 124.88,-605.49"/>
</g>
<!-- go&#45;&gt;key 3613
bias 0.179
h_scaling 0.461 -->
<g id="edge2" class="edge">
<title>go&#45;&gt;key 3613
bias 0.179
h_scaling 0.461</title>
<path fill="none" stroke="blue" stroke-width="5.1" d="M177.74,-707.73C178.15,-674.65 179.72,-546.71 180.74,-463.96"/>
<polygon fill="blue" stroke="blue" stroke-width="5.1" points="185.21,-463.9 180.87,-453.85 176.28,-463.79 185.21,-463.9"/>
</g>
<!-- key output
bias &#45;0.414
h_scaling 0.496 -->
<g id="node3" class="node">
<title>key output
bias &#45;0.414
h_scaling 0.496</title>
<ellipse fill="lightblue" stroke="black" cx="121.64" cy="-63.64" rx="63.78" ry="63.78"/>
<text text-anchor="middle" x="121.64" y="-71.44" font-family="Times,serif" font-size="9.00">key output</text>
<text text-anchor="middle" x="121.64" y="-61.44" font-family="Times,serif" font-size="9.00">bias &#45;0.414</text>
<text text-anchor="middle" x="121.64" y="-51.44" font-family="Times,serif" font-size="9.00">h_scaling 0.496</text>
</g>
<!-- key output
bias &#45;0.414
h_scaling 0.496&#45;&gt;key 11028
bias &#45;0.133
h_scaling 0.353 -->
<g id="edge10" class="edge">
<title>key output
bias &#45;0.414
h_scaling 0.496&#45;&gt;key 11028
bias &#45;0.133
h_scaling 0.353</title>
<path fill="none" stroke="red" stroke-width="1.98" d="M115.1,-127C112.73,-138.98 110.37,-151.47 108.64,-163.28 92.55,-272.97 85.59,-401.47 80.31,-479.9"/>
<polygon fill="red" stroke="red" stroke-width="1.98" points="76.8,-479.94 79.61,-490.16 83.78,-480.42 76.8,-479.94"/>
</g>
<!-- key 234150
bias &#45;0.962
h_scaling 0.453 -->
<g id="node4" class="node">
<title>key 234150
bias &#45;0.962
h_scaling 0.453</title>
<ellipse fill="white" stroke="black" cx="172.64" cy="-226.92" rx="63.78" ry="63.78"/>
<text text-anchor="middle" x="172.64" y="-234.72" font-family="Times,serif" font-size="9.00">key 234150</text>
<text text-anchor="middle" x="172.64" y="-224.72" font-family="Times,serif" font-size="9.00">bias &#45;0.962</text>
<text text-anchor="middle" x="172.64" y="-214.72" font-family="Times,serif" font-size="9.00">h_scaling 0.453</text>
</g>
<!-- key 234150
bias &#45;0.962
h_scaling 0.453&#45;&gt;key output
bias &#45;0.414
h_scaling 0.496 -->
<g id="edge19" class="edge">
<title>key 234150
bias &#45;0.962
h_scaling 0.453&#45;&gt;key output
bias &#45;0.414
h_scaling 0.496</title>
<path fill="none" stroke="red" stroke-width="5.1" d="M153.65,-165.86C150.37,-155.51 146.95,-144.67 143.6,-134.09"/>
<polygon fill="red" stroke="red" stroke-width="5.1" points="147.83,-132.66 140.56,-124.48 139.32,-135.36 147.83,-132.66"/>
</g>
<!-- key 147271
bias &#45;0.704
h_scaling 0.515&#45;&gt;key 147271
bias &#45;0.704
h_scaling 0.515 -->
<g id="edge16" class="edge">
<title>key 147271
bias &#45;0.704
h_scaling 0.515&#45;&gt;key 147271
bias &#45;0.704
h_scaling 0.515</title>
<path fill="none" stroke="red" stroke-width="4.95" d="M212.52,-899.45C224.64,-897.27 233.28,-890.79 233.28,-880.04 233.28,-872.47 229.01,-867.03 222.26,-863.7"/>
<polygon fill="red" stroke="red" stroke-width="4.95" points="223.36,-859.51 212.52,-860.62 220.75,-867.77 223.36,-859.51"/>
</g>
<!-- key 147271
bias &#45;0.704
h_scaling 0.515&#45;&gt;key 28589
bias &#45;0.523
h_scaling 0.747 -->
<g id="edge15" class="edge">
<title>key 147271
bias &#45;0.704
h_scaling 0.515&#45;&gt;key 28589
bias &#45;0.523
h_scaling 0.747</title>
<path fill="none" stroke="red" stroke-width="5.1" d="M121.36,-823.53C114.05,-810.15 106.19,-795.75 98.7,-782.01"/>
<polygon fill="red" stroke="red" stroke-width="5.1" points="102.54,-779.73 93.83,-773.09 94.7,-784 102.54,-779.73"/>
</g>
<!-- key 147271
bias &#45;0.704
h_scaling 0.515&#45;&gt;key 3613
bias 0.179
h_scaling 0.461 -->
<g id="edge17" class="edge">
<title>key 147271
bias &#45;0.704
h_scaling 0.515&#45;&gt;key 3613
bias 0.179
h_scaling 0.461</title>
<path fill="none" stroke="red" stroke-width="1.15" d="M183.94,-825.17C190.82,-811.08 197.08,-795.57 200.64,-780.4 226.12,-671.83 210.91,-541.7 196.84,-462.79"/>
<polygon fill="red" stroke="red" stroke-width="1.15" points="200.2,-461.69 194.96,-452.48 193.31,-462.95 200.2,-461.69"/>
</g>
<!-- key 28589
bias &#45;0.523
h_scaling 0.747&#45;&gt;key 28589
bias &#45;0.523
h_scaling 0.747 -->
<g id="edge11" class="edge">
<title>key 28589
bias &#45;0.523
h_scaling 0.747&#45;&gt;key 28589
bias &#45;0.523
h_scaling 0.747</title>
<path fill="none" stroke="red" stroke-width="3.11" d="M120.11,-746.77C134.49,-744.8 145.28,-734.79 145.28,-716.76 145.28,-703.09 139.08,-694.03 129.82,-689.59"/>
<polygon fill="red" stroke="red" stroke-width="3.11" points="130.69,-686.2 120.11,-686.74 128.72,-692.92 130.69,-686.2"/>
</g>
<!-- key 28589
bias &#45;0.523
h_scaling 0.747&#45;&gt;key 11028
bias &#45;0.133
h_scaling 0.353 -->
<g id="edge7" class="edge">
<title>key 28589
bias &#45;0.523
h_scaling 0.747&#45;&gt;key 11028
bias &#45;0.133
h_scaling 0.353</title>
<path fill="none" stroke="blue" stroke-width="0.96" d="M66.76,-652.94C67.17,-644.49 67.61,-635.75 68.03,-627.15"/>
<polygon fill="blue" stroke="blue" stroke-width="0.96" points="71.53,-627.28 68.53,-617.12 64.54,-626.94 71.53,-627.28"/>
</g>
<!-- key 11028
bias &#45;0.133
h_scaling 0.353&#45;&gt;key output
bias &#45;0.414
h_scaling 0.496 -->
<g id="edge12" class="edge">
<title>key 11028
bias &#45;0.133
h_scaling 0.353&#45;&gt;key output
bias &#45;0.414
h_scaling 0.496</title>
<path fill="none" stroke="blue" stroke-width="5.1" d="M66.97,-489.82C67,-412.65 73.85,-277.73 90.64,-163.28 92.08,-153.45 93.96,-143.14 96.11,-133.05"/>
<polygon fill="blue" stroke="blue" stroke-width="5.1" points="100.52,-133.79 98.35,-123.05 91.81,-131.84 100.52,-133.79"/>
</g>
<!-- key 11028
bias &#45;0.133
h_scaling 0.353&#45;&gt;key 11028
bias &#45;0.133
h_scaling 0.353 -->
<g id="edge5" class="edge">
<title>key 11028
bias &#45;0.133
h_scaling 0.353&#45;&gt;key 11028
bias &#45;0.133
h_scaling 0.353</title>
<path fill="none" stroke="red" stroke-width="2.71" d="M128.11,-583.49C142.49,-581.52 153.28,-571.51 153.28,-553.48 153.28,-539.81 147.08,-530.75 137.82,-526.31"/>
<polygon fill="red" stroke="red" stroke-width="2.71" points="138.69,-522.92 128.11,-523.47 136.72,-529.64 138.69,-522.92"/>
</g>
<!-- key 11028
bias &#45;0.133
h_scaling 0.353&#45;&gt;key 3613
bias 0.179
h_scaling 0.461 -->
<g id="edge4" class="edge">
<title>key 11028
bias &#45;0.133
h_scaling 0.353&#45;&gt;key 3613
bias 0.179
h_scaling 0.461</title>
<path fill="none" stroke="blue" stroke-width="5.1" d="M102.75,-497.43C113.16,-481.57 124.96,-464.25 136.22,-448.28"/>
<polygon fill="blue" stroke="blue" stroke-width="5.1" points="139.9,-450.8 142.05,-440.06 132.62,-445.64 139.9,-450.8"/>
</g>
<!-- key 3613
bias 0.179
h_scaling 0.461&#45;&gt;key output
bias &#45;0.414
h_scaling 0.496 -->
<g id="edge1" class="edge">
<title>key 3613
bias 0.179
h_scaling 0.461&#45;&gt;key output
bias &#45;0.414
h_scaling 0.496</title>
<path fill="none" stroke="red" stroke-width="5.1" d="M221.23,-340.28C231.18,-325.21 240.48,-307.98 245.64,-290.56 261.69,-236.32 270.21,-214.23 245.64,-163.28 232.97,-137.02 209.54,-115.6 186.43,-99.51"/>
<polygon fill="red" stroke="red" stroke-width="5.1" points="188.74,-95.68 177.95,-93.82 183.77,-103.1 188.74,-95.68"/>
</g>
<!-- key 3613
bias 0.179
h_scaling 0.461&#45;&gt;key 234150
bias &#45;0.962
h_scaling 0.453 -->
<g id="edge18" class="edge">
<title>key 3613
bias 0.179
h_scaling 0.461&#45;&gt;key 234150
bias &#45;0.962
h_scaling 0.453</title>
<path fill="none" stroke="red" stroke-width="5.1" d="M178.13,-326.38C177.66,-317.93 177.18,-309.2 176.69,-300.59"/>
<polygon fill="red" stroke="red" stroke-width="5.1" points="181.15,-300.3 176.14,-290.56 172.24,-300.8 181.15,-300.3"/>
</g>
<!-- key 3613
bias 0.179
h_scaling 0.461&#45;&gt;key 11028
bias &#45;0.133
h_scaling 0.353 -->
<g id="edge8" class="edge">
<title>key 3613
bias 0.179
h_scaling 0.461&#45;&gt;key 11028
bias &#45;0.133
h_scaling 0.353</title>
<path fill="none" stroke="blue" stroke-width="2.27" d="M150.65,-446.07C140.29,-461.85 128.55,-479.09 117.33,-495.02"/>
<polygon fill="blue" stroke="blue" stroke-width="2.27" points="114.44,-493.03 111.51,-503.21 120.15,-497.08 114.44,-493.03"/>
</g>
<!-- key 3613
bias 0.179
h_scaling 0.461&#45;&gt;key 3613
bias 0.179
h_scaling 0.461 -->
<g id="edge9" class="edge">
<title>key 3613
bias 0.179
h_scaling 0.461&#45;&gt;key 3613
bias 0.179
h_scaling 0.461</title>
<path fill="none" stroke="red" stroke-width="3.08" d="M238.11,-420.21C252.49,-418.24 263.28,-408.23 263.28,-390.2 263.28,-376.53 257.08,-367.48 247.82,-363.03"/>
<polygon fill="red" stroke="red" stroke-width="3.08" points="248.69,-359.64 238.11,-360.19 246.72,-366.36 248.69,-359.64"/>
</g>
</g>
</svg>
