<?xml version="1.0" encoding="UTF-8" standalone="no"?>
<!DOCTYPE svg PUBLIC "-//W3C//DTD SVG 1.1//EN"
 "http://www.w3.org/Graphics/SVG/1.1/DTD/svg11.dtd">
<!-- Generated by graphviz version 2.43.0 (0)
 -->
<!-- Title: %3 Pages: 1 -->
<svg width="434pt" height="1057pt"
 viewBox="0.00 0.00 433.99 1056.68" xmlns="http://www.w3.org/2000/svg" xmlns:xlink="http://www.w3.org/1999/xlink">
<g id="graph0" class="graph" transform="scale(1 1) rotate(0) translate(4 1052.68)">
<title>%3</title>
<polygon fill="white" stroke="transparent" points="-4,4 -4,-1052.68 429.99,-1052.68 429.99,4 -4,4"/>
<!-- ready -->
<g id="node1" class="node">
<title>ready</title>
<polygon fill="yellow" stroke="black" points="141.85,-1048.68 98.85,-1048.68 98.85,-1030.68 141.85,-1030.68 141.85,-1048.68"/>
<text text-anchor="middle" x="120.35" y="-1037.48" font-family="Times,serif" font-size="9.00">ready</text>
</g>
<!-- key 229409
bias &#45;0.318
h_scaling 1.000 -->
<g id="node4" class="node">
<title>key 229409
bias &#45;0.318
h_scaling 1.000</title>
<ellipse fill="white" stroke="black" cx="120.35" cy="-921.04" rx="63.78" ry="63.78"/>
<text text-anchor="middle" x="120.35" y="-928.84" font-family="Times,serif" font-size="9.00">key 229409</text>
<text text-anchor="middle" x="120.35" y="-918.84" font-family="Times,serif" font-size="9.00">bias &#45;0.318</text>
<text text-anchor="middle" x="120.35" y="-908.84" font-family="Times,serif" font-size="9.00">h_scaling 1.000</text>
</g>
<!-- ready&#45;&gt;key 229409
bias &#45;0.318
h_scaling 1.000 -->
<g id="edge11" class="edge">
<title>ready&#45;&gt;key 229409
bias &#45;0.318
h_scaling 1.000</title>
<path fill="none" stroke="red" stroke-width="0.1" d="M120.35,-1030.66C120.35,-1022.63 120.35,-1009.41 120.35,-994.91"/>
<polygon fill="red" stroke="red" stroke-width="0.1" points="123.85,-994.71 120.35,-984.71 116.85,-994.71 123.85,-994.71"/>
<text text-anchor="middle" x="134.35" y="-1005.48" font-family="Times,serif" font-size="9.00">0.000</text>
</g>
<!-- key 224544
bias &#45;0.723
h_scaling 1.000 -->
<g id="node5" class="node">
<title>key 224544
bias &#45;0.723
h_scaling 1.000</title>
<ellipse fill="white" stroke="black" cx="124.35" cy="-747.76" rx="63.78" ry="63.78"/>
<text text-anchor="middle" x="124.35" y="-755.56" font-family="Times,serif" font-size="9.00">key 224544</text>
<text text-anchor="middle" x="124.35" y="-745.56" font-family="Times,serif" font-size="9.00">bias &#45;0.723</text>
<text text-anchor="middle" x="124.35" y="-735.56" font-family="Times,serif" font-size="9.00">h_scaling 1.000</text>
</g>
<!-- ready&#45;&gt;key 224544
bias &#45;0.723
h_scaling 1.000 -->
<g id="edge5" class="edge">
<title>ready&#45;&gt;key 224544
bias &#45;0.723
h_scaling 1.000</title>
<path fill="none" stroke="red" stroke-width="0.1" d="M98.84,-1034.08C74.65,-1027.63 36.52,-1013.33 19.35,-984.68 -9.73,-936.15 -1.85,-909.84 19.35,-857.4 29.24,-832.92 47.58,-810.9 66.2,-793.19"/>
<polygon fill="red" stroke="red" stroke-width="0.1" points="68.63,-795.71 73.61,-786.36 63.89,-790.56 68.63,-795.71"/>
<text text-anchor="middle" x="33.35" y="-918.84" font-family="Times,serif" font-size="9.00">0.000</text>
</g>
<!-- key 3640
bias &#45;0.440
h_scaling 1.000 -->
<g id="node8" class="node">
<title>key 3640
bias &#45;0.440
h_scaling 1.000</title>
<ellipse fill="white" stroke="black" cx="316.35" cy="-574.48" rx="63.78" ry="63.78"/>
<text text-anchor="middle" x="316.35" y="-582.28" font-family="Times,serif" font-size="9.00">key 3640</text>
<text text-anchor="middle" x="316.35" y="-572.28" font-family="Times,serif" font-size="9.00">bias &#45;0.440</text>
<text text-anchor="middle" x="316.35" y="-562.28" font-family="Times,serif" font-size="9.00">h_scaling 1.000</text>
</g>
<!-- ready&#45;&gt;key 3640
bias &#45;0.440
h_scaling 1.000 -->
<g id="edge4" class="edge">
<title>ready&#45;&gt;key 3640
bias &#45;0.440
h_scaling 1.000</title>
<path fill="none" stroke="blue" stroke-width="0.1" d="M135.13,-1030.57C179.4,-1005.29 310.55,-922.88 354.35,-811.4 375.75,-756.92 362.02,-690.83 345.38,-642.47"/>
<polygon fill="blue" stroke="blue" stroke-width="0.1" points="348.67,-641.29 342.02,-633.05 342.08,-643.64 348.67,-641.29"/>
</g>
<!-- go -->
<g id="node2" class="node">
<title>go</title>
<polygon fill="green" stroke="black" points="280.35,-756.76 252.35,-756.76 252.35,-738.76 280.35,-738.76 280.35,-756.76"/>
<text text-anchor="middle" x="266.35" y="-745.56" font-family="Times,serif" font-size="9.00">go</text>
</g>
<!-- go&#45;&gt;key 3640
bias &#45;0.440
h_scaling 1.000 -->
<g id="edge2" class="edge">
<title>go&#45;&gt;key 3640
bias &#45;0.440
h_scaling 1.000</title>
<path fill="none" stroke="red" stroke-width="0.1" d="M266.02,-738.56C265.59,-722.42 265.76,-685.53 274.35,-656.12 275.99,-650.49 278.04,-644.79 280.35,-639.17"/>
<polygon fill="red" stroke="red" stroke-width="0.1" points="283.65,-640.37 284.44,-629.8 277.23,-637.56 283.65,-640.37"/>
<text text-anchor="middle" x="288.35" y="-658.92" font-family="Times,serif" font-size="9.00">0.000</text>
</g>
<!-- output
bias 0.409
h_scaling 1.000 -->
<g id="node3" class="node">
<title>output
bias 0.409
h_scaling 1.000</title>
<ellipse fill="lightblue" stroke="black" cx="111.35" cy="-63.64" rx="63.78" ry="63.78"/>
<text text-anchor="middle" x="111.35" y="-71.44" font-family="Times,serif" font-size="9.00">output</text>
<text text-anchor="middle" x="111.35" y="-61.44" font-family="Times,serif" font-size="9.00">bias 0.409</text>
<text text-anchor="middle" x="111.35" y="-51.44" font-family="Times,serif" font-size="9.00">h_scaling 1.000</text>
</g>
<!-- output
bias 0.409
h_scaling 1.000&#45;&gt;key 229409
bias &#45;0.318
h_scaling 1.000 -->
<g id="edge10" class="edge">
<title>output
bias 0.409
h_scaling 1.000&#45;&gt;key 229409
bias &#45;0.318
h_scaling 1.000</title>
<path fill="none" stroke="blue" stroke-width="0.1" d="M72.77,-114.27C52.72,-144.97 32.35,-186.18 32.35,-226.92 32.35,-748.76 32.35,-748.76 32.35,-748.76 32.35,-790.19 52.97,-831.64 74.25,-863.39"/>
<polygon fill="blue" stroke="blue" stroke-width="0.1" points="71.39,-865.42 79.95,-871.66 77.16,-861.44 71.39,-865.42"/>
</g>
<!-- key 229409
bias &#45;0.318
h_scaling 1.000&#45;&gt;key 224544
bias &#45;0.723
h_scaling 1.000 -->
<g id="edge9" class="edge">
<title>key 229409
bias &#45;0.318
h_scaling 1.000&#45;&gt;key 224544
bias &#45;0.723
h_scaling 1.000</title>
<path fill="none" stroke="red" stroke-width="0.1" d="M95.48,-861.94C93.23,-851.21 92.43,-840.03 94.35,-829.4 95.11,-825.18 96.07,-820.89 97.19,-816.61"/>
<polygon fill="red" stroke="red" stroke-width="0.1" points="100.65,-817.22 100.04,-806.65 93.92,-815.3 100.65,-817.22"/>
<text text-anchor="middle" x="108.35" y="-832.2" font-family="Times,serif" font-size="9.00">0.000</text>
</g>
<!-- key 224544
bias &#45;0.723
h_scaling 1.000&#45;&gt;output
bias 0.409
h_scaling 1.000 -->
<g id="edge13" class="edge">
<title>key 224544
bias &#45;0.723
h_scaling 1.000&#45;&gt;output
bias 0.409
h_scaling 1.000</title>
<path fill="none" stroke="red" stroke-width="0.1" d="M100.54,-688.34C89.32,-655.7 78.35,-613.96 78.35,-575.48 78.35,-575.48 78.35,-575.48 78.35,-226.92 78.35,-196.31 84.05,-163.1 90.72,-134.74"/>
<polygon fill="red" stroke="red" stroke-width="0.1" points="94.15,-135.47 93.11,-124.93 87.34,-133.82 94.15,-135.47"/>
<text text-anchor="middle" x="92.35" y="-399" font-family="Times,serif" font-size="9.00">0.000</text>
</g>
<!-- key 224544
bias &#45;0.723
h_scaling 1.000&#45;&gt;key 229409
bias &#45;0.318
h_scaling 1.000 -->
<g id="edge8" class="edge">
<title>key 224544
bias &#45;0.723
h_scaling 1.000&#45;&gt;key 229409
bias &#45;0.318
h_scaling 1.000</title>
<path fill="none" stroke="red" stroke-width="0.1" d="M126.7,-811.66C126.77,-820.96 126.68,-830.43 126.35,-839.4 126.25,-842.07 126.13,-844.78 126,-847.53"/>
<polygon fill="red" stroke="red" stroke-width="0.1" points="122.5,-847.37 125.46,-857.55 129.49,-847.75 122.5,-847.37"/>
<text text-anchor="middle" x="140.35" y="-832.2" font-family="Times,serif" font-size="9.00">0.000</text>
</g>
<!-- key 224544
bias &#45;0.723
h_scaling 1.000&#45;&gt;key 224544
bias &#45;0.723
h_scaling 1.000 -->
<g id="edge7" class="edge">
<title>key 224544
bias &#45;0.723
h_scaling 1.000&#45;&gt;key 224544
bias &#45;0.723
h_scaling 1.000</title>
<path fill="none" stroke="red" stroke-width="0.1" d="M186.29,-763.05C197.85,-761.17 205.99,-756.07 205.99,-747.76 205.99,-742.04 202.14,-737.84 195.98,-735.17"/>
<polygon fill="red" stroke="red" stroke-width="0.1" points="196.86,-731.78 186.29,-732.46 194.98,-738.52 196.86,-731.78"/>
<text text-anchor="middle" x="219.99" y="-745.56" font-family="Times,serif" font-size="9.00">0.000</text>
</g>
<!-- key 309669
bias &#45;0.449
h_scaling 1.000 -->
<g id="node6" class="node">
<title>key 309669
bias &#45;0.449
h_scaling 1.000</title>
<ellipse fill="white" stroke="black" cx="184.35" cy="-227.92" rx="63.78" ry="63.78"/>
<text text-anchor="middle" x="184.35" y="-235.72" font-family="Times,serif" font-size="9.00">key 309669</text>
<text text-anchor="middle" x="184.35" y="-225.72" font-family="Times,serif" font-size="9.00">bias &#45;0.449</text>
<text text-anchor="middle" x="184.35" y="-215.72" font-family="Times,serif" font-size="9.00">h_scaling 1.000</text>
</g>
<!-- key 224544
bias &#45;0.723
h_scaling 1.000&#45;&gt;key 309669
bias &#45;0.449
h_scaling 1.000 -->
<g id="edge16" class="edge">
<title>key 224544
bias &#45;0.723
h_scaling 1.000&#45;&gt;key 309669
bias &#45;0.449
h_scaling 1.000</title>
<path fill="none" stroke="blue" stroke-width="0.1" d="M124.78,-683.87C126.24,-603.11 131.97,-458.9 153.35,-337.56 155.6,-324.78 158.76,-311.36 162.2,-298.47"/>
<polygon fill="blue" stroke="blue" stroke-width="0.1" points="165.6,-299.31 164.88,-288.74 158.85,-297.45 165.6,-299.31"/>
</g>
<!-- key 224544
bias &#45;0.723
h_scaling 1.000&#45;&gt;key 3640
bias &#45;0.440
h_scaling 1.000 -->
<g id="edge6" class="edge">
<title>key 224544
bias &#45;0.723
h_scaling 1.000&#45;&gt;key 3640
bias &#45;0.440
h_scaling 1.000</title>
<path fill="none" stroke="blue" stroke-width="0.1" d="M171.81,-704.42C198.91,-680.24 233.02,-649.82 261.29,-624.59"/>
<polygon fill="blue" stroke="blue" stroke-width="0.1" points="263.97,-626.89 269.1,-617.63 259.31,-621.67 263.97,-626.89"/>
</g>
<!-- key 309669
bias &#45;0.449
h_scaling 1.000&#45;&gt;output
bias 0.409
h_scaling 1.000 -->
<g id="edge15" class="edge">
<title>key 309669
bias &#45;0.449
h_scaling 1.000&#45;&gt;output
bias 0.409
h_scaling 1.000</title>
<path fill="none" stroke="blue" stroke-width="0.1" d="M158.61,-169.71C153,-157.22 147.01,-143.91 141.25,-131.1"/>
<polygon fill="blue" stroke="blue" stroke-width="0.1" points="144.39,-129.57 137.1,-121.88 138.01,-132.44 144.39,-129.57"/>
</g>
<!-- key 385321
bias &#45;0.882
h_scaling 1.000 -->
<g id="node7" class="node">
<title>key 385321
bias &#45;0.882
h_scaling 1.000</title>
<ellipse fill="white" stroke="black" cx="226.35" cy="-401.2" rx="63.78" ry="63.78"/>
<text text-anchor="middle" x="226.35" y="-409" font-family="Times,serif" font-size="9.00">key 385321</text>
<text text-anchor="middle" x="226.35" y="-399" font-family="Times,serif" font-size="9.00">bias &#45;0.882</text>
<text text-anchor="middle" x="226.35" y="-389" font-family="Times,serif" font-size="9.00">h_scaling 1.000</text>
</g>
<!-- key 385321
bias &#45;0.882
h_scaling 1.000&#45;&gt;key 309669
bias &#45;0.449
h_scaling 1.000 -->
<g id="edge18" class="edge">
<title>key 385321
bias &#45;0.882
h_scaling 1.000&#45;&gt;key 309669
bias &#45;0.449
h_scaling 1.000</title>
<path fill="none" stroke="red" stroke-width="0.1" d="M211.42,-339.33C208.28,-326.53 204.95,-312.93 201.73,-299.8"/>
<polygon fill="red" stroke="red" stroke-width="0.1" points="205.08,-298.76 199.3,-289.88 198.28,-300.43 205.08,-298.76"/>
<text text-anchor="middle" x="219.35" y="-312.36" font-family="Times,serif" font-size="9.00">0.000</text>
</g>
<!-- key 3640
bias &#45;0.440
h_scaling 1.000&#45;&gt;output
bias 0.409
h_scaling 1.000 -->
<g id="edge1" class="edge">
<title>key 3640
bias &#45;0.440
h_scaling 1.000&#45;&gt;output
bias 0.409
h_scaling 1.000</title>
<path fill="none" stroke="blue" stroke-width="0.1" d="M341.83,-515.89C347.81,-499.7 353.31,-481.85 356.35,-464.84 366.27,-409.15 370.87,-392.23 356.35,-337.56 333.59,-251.83 317.51,-229.45 257.35,-164.28 234.06,-139.05 203.23,-116.84 175.91,-99.83"/>
<polygon fill="blue" stroke="blue" stroke-width="0.1" points="177.54,-96.72 167.18,-94.49 173.89,-102.69 177.54,-96.72"/>
</g>
<!-- key 3640
bias &#45;0.440
h_scaling 1.000&#45;&gt;key 229409
bias &#45;0.318
h_scaling 1.000 -->
<g id="edge12" class="edge">
<title>key 3640
bias &#45;0.440
h_scaling 1.000&#45;&gt;key 229409
bias &#45;0.318
h_scaling 1.000</title>
<path fill="none" stroke="red" stroke-width="0.1" d="M323.18,-637.85C325.6,-688.36 321.7,-759.42 289.35,-811.4 266.17,-848.64 224.98,-875.51 189.07,-893.21"/>
<polygon fill="red" stroke="red" stroke-width="0.1" points="187.1,-890.27 179.58,-897.73 190.12,-896.59 187.1,-890.27"/>
<text text-anchor="middle" x="336.35" y="-745.56" font-family="Times,serif" font-size="9.00">0.000</text>
</g>
<!-- key 3640
bias &#45;0.440
h_scaling 1.000&#45;&gt;key 309669
bias &#45;0.449
h_scaling 1.000 -->
<g id="edge14" class="edge">
<title>key 3640
bias &#45;0.440
h_scaling 1.000&#45;&gt;key 309669
bias &#45;0.449
h_scaling 1.000</title>
<path fill="none" stroke="red" stroke-width="0.1" d="M323.8,-511.25C326.98,-461.79 325.22,-392.1 299.35,-337.56 287.03,-311.59 265.57,-288.7 244.49,-270.71"/>
<polygon fill="red" stroke="red" stroke-width="0.1" points="246.7,-267.99 236.76,-264.3 242.23,-273.38 246.7,-267.99"/>
<text text-anchor="middle" x="338.35" y="-399" font-family="Times,serif" font-size="9.00">0.000</text>
</g>
<!-- key 3640
bias &#45;0.440
h_scaling 1.000&#45;&gt;key 385321
bias &#45;0.882
h_scaling 1.000 -->
<g id="edge17" class="edge">
<title>key 3640
bias &#45;0.440
h_scaling 1.000&#45;&gt;key 385321
bias &#45;0.882
h_scaling 1.000</title>
<path fill="none" stroke="red" stroke-width="0.1" d="M287.13,-517.87C278.6,-501.63 269.2,-483.75 260.4,-466.99"/>
<polygon fill="red" stroke="red" stroke-width="0.1" points="263.33,-465.05 255.58,-457.82 257.13,-468.3 263.33,-465.05"/>
<text text-anchor="middle" x="285.35" y="-485.64" font-family="Times,serif" font-size="9.00">0.000</text>
</g>
<!-- key 3640
bias &#45;0.440
h_scaling 1.000&#45;&gt;key 3640
bias &#45;0.440
h_scaling 1.000 -->
<g id="edge3" class="edge">
<title>key 3640
bias &#45;0.440
h_scaling 1.000&#45;&gt;key 3640
bias &#45;0.440
h_scaling 1.000</title>
<path fill="none" stroke="red" stroke-width="0.1" d="M378.29,-589.77C389.85,-587.89 397.99,-582.79 397.99,-574.48 397.99,-568.76 394.14,-564.56 387.98,-561.89"/>
<polygon fill="red" stroke="red" stroke-width="0.1" points="388.86,-558.5 378.29,-559.18 386.98,-565.24 388.86,-558.5"/>
<text text-anchor="middle" x="411.99" y="-572.28" font-family="Times,serif" font-size="9.00">0.000</text>
</g>
</g>
</svg>
