<?xml version="1.0" encoding="UTF-8" standalone="no"?>
<!DOCTYPE svg PUBLIC "-//W3C//DTD SVG 1.1//EN"
 "http://www.w3.org/Graphics/SVG/1.1/DTD/svg11.dtd">
<!-- Generated by graphviz version 2.43.0 (0)
 -->
<!-- Title: %3 Pages: 1 -->
<svg width="516pt" height="883pt"
 viewBox="0.00 0.00 515.64 883.40" xmlns="http://www.w3.org/2000/svg" xmlns:xlink="http://www.w3.org/1999/xlink">
<g id="graph0" class="graph" transform="scale(1 1) rotate(0) translate(4 879.4)">
<title>%3</title>
<polygon fill="white" stroke="transparent" points="-4,4 -4,-879.4 511.64,-879.4 511.64,4 -4,4"/>
<!-- ready -->
<g id="node1" class="node">
<title>ready</title>
<polygon fill="yellow" stroke="black" points="254.5,-875.4 211.5,-875.4 211.5,-857.4 254.5,-857.4 254.5,-875.4"/>
<text text-anchor="middle" x="233" y="-864.2" font-family="Times,serif" font-size="9.00">ready</text>
</g>
<!-- key 12486
bias 0.000
h_scaling 0.047 -->
<g id="node4" class="node">
<title>key 12486
bias 0.000
h_scaling 0.047</title>
<ellipse fill="white" stroke="black" cx="233" cy="-747.76" rx="63.78" ry="63.78"/>
<text text-anchor="middle" x="233" y="-755.56" font-family="Times,serif" font-size="9.00">key 12486</text>
<text text-anchor="middle" x="233" y="-745.56" font-family="Times,serif" font-size="9.00">bias 0.000</text>
<text text-anchor="middle" x="233" y="-735.56" font-family="Times,serif" font-size="9.00">h_scaling 0.047</text>
</g>
<!-- ready&#45;&gt;key 12486
bias 0.000
h_scaling 0.047 -->
<g id="edge12" class="edge">
<title>ready&#45;&gt;key 12486
bias 0.000
h_scaling 0.047</title>
<path fill="none" stroke="red" stroke-width="0.51" d="M233,-857.38C233,-849.35 233,-836.13 233,-821.63"/>
<polygon fill="red" stroke="red" stroke-width="0.51" points="236.5,-821.43 233,-811.43 229.5,-821.43 236.5,-821.43"/>
<text text-anchor="middle" x="247" y="-832.2" font-family="Times,serif" font-size="9.00">0.014</text>
</g>
<!-- key 3672
bias 0.000
h_scaling 0.845 -->
<g id="node7" class="node">
<title>key 3672
bias 0.000
h_scaling 0.845</title>
<ellipse fill="white" stroke="black" cx="238" cy="-227.92" rx="63.78" ry="63.78"/>
<text text-anchor="middle" x="238" y="-235.72" font-family="Times,serif" font-size="9.00">key 3672</text>
<text text-anchor="middle" x="238" y="-225.72" font-family="Times,serif" font-size="9.00">bias 0.000</text>
<text text-anchor="middle" x="238" y="-215.72" font-family="Times,serif" font-size="9.00">h_scaling 0.845</text>
</g>
<!-- ready&#45;&gt;key 3672
bias 0.000
h_scaling 0.845 -->
<g id="edge15" class="edge">
<title>ready&#45;&gt;key 3672
bias 0.000
h_scaling 0.845</title>
<path fill="none" stroke="red" stroke-width="0.69" d="M216.03,-857.39C199.16,-848.54 173.86,-832.66 160,-811.4 116.9,-745.26 129.72,-716.57 121,-638.12 104.82,-492.57 77.42,-438.96 146,-309.56 153.74,-294.95 165.28,-281.77 177.6,-270.5"/>
<polygon fill="red" stroke="red" stroke-width="0.69" points="180.11,-272.95 185.33,-263.73 175.5,-267.68 180.11,-272.95"/>
<text text-anchor="middle" x="135" y="-572.28" font-family="Times,serif" font-size="9.00">0.020</text>
</g>
<!-- key 93723
bias 0.000
h_scaling 1.000 -->
<g id="node8" class="node">
<title>key 93723
bias 0.000
h_scaling 1.000</title>
<ellipse fill="white" stroke="black" cx="444" cy="-401.2" rx="63.78" ry="63.78"/>
<text text-anchor="middle" x="444" y="-409" font-family="Times,serif" font-size="9.00">key 93723</text>
<text text-anchor="middle" x="444" y="-399" font-family="Times,serif" font-size="9.00">bias 0.000</text>
<text text-anchor="middle" x="444" y="-389" font-family="Times,serif" font-size="9.00">h_scaling 1.000</text>
</g>
<!-- ready&#45;&gt;key 93723
bias 0.000
h_scaling 1.000 -->
<g id="edge21" class="edge">
<title>ready&#45;&gt;key 93723
bias 0.000
h_scaling 1.000</title>
<path fill="none" stroke="red" stroke-width="1.04" d="M254.6,-861.65C281.59,-855.8 327.23,-841.84 352,-811.4 430.76,-714.59 445.3,-563.99 446.3,-475.02"/>
<polygon fill="red" stroke="red" stroke-width="1.04" points="449.8,-475.03 446.36,-465.01 442.8,-474.99 449.8,-475.03"/>
<text text-anchor="middle" x="437" y="-658.92" font-family="Times,serif" font-size="9.00">0.031</text>
</g>
<!-- go -->
<g id="node2" class="node">
<title>go</title>
<polygon fill="green" stroke="black" points="70,-756.76 42,-756.76 42,-738.76 70,-738.76 70,-756.76"/>
<text text-anchor="middle" x="56" y="-745.56" font-family="Times,serif" font-size="9.00">go</text>
</g>
<!-- key 7182
bias 0.000
h_scaling 0.370 -->
<g id="node5" class="node">
<title>key 7182
bias 0.000
h_scaling 0.370</title>
<ellipse fill="white" stroke="black" cx="222" cy="-574.48" rx="63.78" ry="63.78"/>
<text text-anchor="middle" x="222" y="-582.28" font-family="Times,serif" font-size="9.00">key 7182</text>
<text text-anchor="middle" x="222" y="-572.28" font-family="Times,serif" font-size="9.00">bias 0.000</text>
<text text-anchor="middle" x="222" y="-562.28" font-family="Times,serif" font-size="9.00">h_scaling 0.370</text>
</g>
<!-- go&#45;&gt;key 7182
bias 0.000
h_scaling 0.370 -->
<g id="edge4" class="edge">
<title>go&#45;&gt;key 7182
bias 0.000
h_scaling 0.370</title>
<path fill="none" stroke="red" stroke-width="0.67" d="M64.01,-738.5C83.09,-718.81 132.54,-667.79 171.08,-628.02"/>
<polygon fill="red" stroke="red" stroke-width="0.67" points="173.69,-630.35 178.14,-620.73 168.66,-625.48 173.69,-630.35"/>
<text text-anchor="middle" x="153" y="-658.92" font-family="Times,serif" font-size="9.00">0.019</text>
</g>
<!-- key 5463
bias 0.000
h_scaling 0.138 -->
<g id="node6" class="node">
<title>key 5463
bias 0.000
h_scaling 0.138</title>
<ellipse fill="white" stroke="black" cx="238" cy="-63.64" rx="63.78" ry="63.78"/>
<text text-anchor="middle" x="238" y="-71.44" font-family="Times,serif" font-size="9.00">key 5463</text>
<text text-anchor="middle" x="238" y="-61.44" font-family="Times,serif" font-size="9.00">bias 0.000</text>
<text text-anchor="middle" x="238" y="-51.44" font-family="Times,serif" font-size="9.00">h_scaling 0.138</text>
</g>
<!-- go&#45;&gt;key 5463
bias 0.000
h_scaling 0.138 -->
<g id="edge2" class="edge">
<title>go&#45;&gt;key 5463
bias 0.000
h_scaling 0.138</title>
<path fill="none" stroke="red" stroke-width="0.43" d="M51.23,-738.52C37.68,-714.34 0,-641.18 0,-575.48 0,-575.48 0,-575.48 0,-226.92 0,-145.6 96.02,-102.11 166.08,-81.21"/>
<polygon fill="red" stroke="red" stroke-width="0.43" points="167.14,-84.54 175.78,-78.41 165.2,-77.82 167.14,-84.54"/>
<text text-anchor="middle" x="14" y="-399" font-family="Times,serif" font-size="9.00">0.011</text>
</g>
<!-- go&#45;&gt;key 3672
bias 0.000
h_scaling 0.845 -->
<g id="edge1" class="edge">
<title>go&#45;&gt;key 3672
bias 0.000
h_scaling 0.845</title>
<path fill="none" stroke="blue" stroke-width="0.1" d="M54.27,-738.71C44.81,-692.41 3.07,-457.02 98,-309.56 114.43,-284.03 142,-265.67 168.34,-252.99"/>
<polygon fill="blue" stroke="blue" stroke-width="0.1" points="169.97,-256.09 177.59,-248.73 167.04,-249.73 169.97,-256.09"/>
</g>
<!-- output
bias 0.000
h_scaling 0.931 -->
<g id="node3" class="node">
<title>output
bias 0.000
h_scaling 0.931</title>
<ellipse fill="lightblue" stroke="black" cx="299" cy="-401.2" rx="63.78" ry="63.78"/>
<text text-anchor="middle" x="299" y="-409" font-family="Times,serif" font-size="9.00">output</text>
<text text-anchor="middle" x="299" y="-399" font-family="Times,serif" font-size="9.00">bias 0.000</text>
<text text-anchor="middle" x="299" y="-389" font-family="Times,serif" font-size="9.00">h_scaling 0.931</text>
</g>
<!-- output
bias 0.000
h_scaling 0.931&#45;&gt;key 12486
bias 0.000
h_scaling 0.047 -->
<g id="edge8" class="edge">
<title>output
bias 0.000
h_scaling 0.931&#45;&gt;key 12486
bias 0.000
h_scaling 0.047</title>
<path fill="none" stroke="blue" stroke-width="0.1" d="M306.54,-464.57C310.34,-512.88 311.21,-580.98 295,-638.12 290.32,-654.62 282.62,-671.28 274.22,-686.44"/>
<polygon fill="blue" stroke="blue" stroke-width="0.1" points="271.15,-684.76 269.2,-695.17 277.22,-688.24 271.15,-684.76"/>
</g>
<!-- output
bias 0.000
h_scaling 0.931&#45;&gt;key 3672
bias 0.000
h_scaling 0.845 -->
<g id="edge22" class="edge">
<title>output
bias 0.000
h_scaling 0.931&#45;&gt;key 3672
bias 0.000
h_scaling 0.845</title>
<path fill="none" stroke="blue" stroke-width="0.1" d="M273.03,-342.86C269.83,-335.09 266.73,-327.17 264,-319.56 261.7,-313.14 259.46,-306.41 257.32,-299.64"/>
<polygon fill="blue" stroke="blue" stroke-width="0.1" points="260.55,-298.25 254.26,-289.72 253.86,-300.31 260.55,-298.25"/>
</g>
<!-- key 12486
bias 0.000
h_scaling 0.047&#45;&gt;key 12486
bias 0.000
h_scaling 0.047 -->
<g id="edge11" class="edge">
<title>key 12486
bias 0.000
h_scaling 0.047&#45;&gt;key 12486
bias 0.000
h_scaling 0.047</title>
<path fill="none" stroke="red" stroke-width="0.7" d="M294.94,-763.05C306.5,-761.17 314.64,-756.07 314.64,-747.76 314.64,-742.04 310.79,-737.84 304.63,-735.17"/>
<polygon fill="red" stroke="red" stroke-width="0.7" points="305.52,-731.78 294.94,-732.46 303.63,-738.52 305.52,-731.78"/>
<text text-anchor="middle" x="328.64" y="-745.56" font-family="Times,serif" font-size="9.00">0.020</text>
</g>
<!-- key 12486
bias 0.000
h_scaling 0.047&#45;&gt;key 7182
bias 0.000
h_scaling 0.370 -->
<g id="edge9" class="edge">
<title>key 12486
bias 0.000
h_scaling 0.047&#45;&gt;key 7182
bias 0.000
h_scaling 0.370</title>
<path fill="none" stroke="blue" stroke-width="0.1" d="M222.52,-684.92C221.51,-673.02 220.64,-660.45 219.99,-648.24"/>
<polygon fill="blue" stroke="blue" stroke-width="0.1" points="223.48,-647.9 219.49,-638.09 216.49,-648.25 223.48,-647.9"/>
</g>
<!-- key 12486
bias 0.000
h_scaling 0.047&#45;&gt;key 93723
bias 0.000
h_scaling 1.000 -->
<g id="edge20" class="edge">
<title>key 12486
bias 0.000
h_scaling 0.047&#45;&gt;key 93723
bias 0.000
h_scaling 1.000</title>
<path fill="none" stroke="blue" stroke-width="0.1" d="M274.97,-699.33C283.65,-688.7 292.44,-677.26 300,-666.12 343.72,-601.72 385.36,-522.79 412.52,-468.12"/>
<polygon fill="blue" stroke="blue" stroke-width="0.1" points="415.79,-469.39 417.08,-458.88 409.52,-466.29 415.79,-469.39"/>
</g>
<!-- key 7182
bias 0.000
h_scaling 0.370&#45;&gt;output
bias 0.000
h_scaling 0.931 -->
<g id="edge13" class="edge">
<title>key 7182
bias 0.000
h_scaling 0.370&#45;&gt;output
bias 0.000
h_scaling 0.931</title>
<path fill="none" stroke="blue" stroke-width="0.1" d="M236.19,-512.13C239.27,-502.15 242.86,-492.07 247,-482.84 249.99,-476.15 253.5,-469.38 257.24,-462.75"/>
<polygon fill="blue" stroke="blue" stroke-width="0.1" points="260.44,-464.21 262.48,-453.82 254.4,-460.67 260.44,-464.21"/>
</g>
<!-- key 7182
bias 0.000
h_scaling 0.370&#45;&gt;key 12486
bias 0.000
h_scaling 0.047 -->
<g id="edge17" class="edge">
<title>key 7182
bias 0.000
h_scaling 0.370&#45;&gt;key 12486
bias 0.000
h_scaling 0.047</title>
<path fill="none" stroke="blue" stroke-width="0.1" d="M232.49,-637.42C233.49,-649.25 234.35,-661.73 235,-673.86"/>
<polygon fill="blue" stroke="blue" stroke-width="0.1" points="231.51,-674.14 235.5,-683.95 238.5,-673.79 231.51,-674.14"/>
</g>
<!-- key 7182
bias 0.000
h_scaling 0.370&#45;&gt;key 3672
bias 0.000
h_scaling 0.845 -->
<g id="edge5" class="edge">
<title>key 7182
bias 0.000
h_scaling 0.370&#45;&gt;key 3672
bias 0.000
h_scaling 0.845</title>
<path fill="none" stroke="blue" stroke-width="0.1" d="M214.08,-511.32C212.46,-463.72 213.26,-396.43 217,-337.56 217.78,-325.23 218.94,-312.15 220.39,-299.49"/>
<polygon fill="blue" stroke="blue" stroke-width="0.1" points="223.88,-299.8 221.61,-289.45 216.93,-298.96 223.88,-299.8"/>
</g>
<!-- key 7182
bias 0.000
h_scaling 0.370&#45;&gt;key 93723
bias 0.000
h_scaling 1.000 -->
<g id="edge18" class="edge">
<title>key 7182
bias 0.000
h_scaling 0.370&#45;&gt;key 93723
bias 0.000
h_scaling 1.000</title>
<path fill="none" stroke="red" stroke-width="0.98" d="M269.72,-531.89C289.53,-515.61 313.19,-497.38 336,-482.84 351.08,-473.22 357.13,-474.79 372,-464.84 377.96,-460.85 383.97,-456.41 389.83,-451.8"/>
<polygon fill="red" stroke="red" stroke-width="0.98" points="392.15,-454.43 397.73,-445.42 387.75,-448.99 392.15,-454.43"/>
<text text-anchor="middle" x="350" y="-485.64" font-family="Times,serif" font-size="9.00">0.029</text>
</g>
<!-- key 5463
bias 0.000
h_scaling 0.138&#45;&gt;output
bias 0.000
h_scaling 0.931 -->
<g id="edge3" class="edge">
<title>key 5463
bias 0.000
h_scaling 0.138&#45;&gt;output
bias 0.000
h_scaling 0.931</title>
<path fill="none" stroke="blue" stroke-width="0.1" d="M293.35,-95.6C317.66,-112.45 343.66,-135.71 357,-164.28 380.93,-215.54 370.73,-236.68 357,-291.56 353,-307.53 346.16,-323.73 338.55,-338.57"/>
<polygon fill="blue" stroke="blue" stroke-width="0.1" points="335.34,-337.14 333.73,-347.61 341.52,-340.43 335.34,-337.14"/>
</g>
<!-- key 5463
bias 0.000
h_scaling 0.138&#45;&gt;key 7182
bias 0.000
h_scaling 0.370 -->
<g id="edge10" class="edge">
<title>key 5463
bias 0.000
h_scaling 0.138&#45;&gt;key 7182
bias 0.000
h_scaling 0.370</title>
<path fill="none" stroke="red" stroke-width="0.75" d="M195.02,-110.57C182.9,-126.4 171.3,-145.02 165,-164.28 126.98,-280.51 164.89,-423.43 194.45,-505.93"/>
<polygon fill="red" stroke="red" stroke-width="0.75" points="191.2,-507.24 197.92,-515.44 197.78,-504.84 191.2,-507.24"/>
<text text-anchor="middle" x="164" y="-312.36" font-family="Times,serif" font-size="9.00">0.022</text>
</g>
<!-- key 3672
bias 0.000
h_scaling 0.845&#45;&gt;output
bias 0.000
h_scaling 0.931 -->
<g id="edge16" class="edge">
<title>key 3672
bias 0.000
h_scaling 0.845&#45;&gt;output
bias 0.000
h_scaling 0.931</title>
<path fill="none" stroke="red" stroke-width="0.56" d="M259.13,-288.24C264.05,-302.05 269.32,-316.87 274.38,-331.07"/>
<polygon fill="red" stroke="red" stroke-width="0.56" points="271.18,-332.53 277.84,-340.77 277.78,-330.18 271.18,-332.53"/>
<text text-anchor="middle" x="282" y="-312.36" font-family="Times,serif" font-size="9.00">0.015</text>
</g>
<!-- key 3672
bias 0.000
h_scaling 0.845&#45;&gt;key 7182
bias 0.000
h_scaling 0.370 -->
<g id="edge14" class="edge">
<title>key 3672
bias 0.000
h_scaling 0.845&#45;&gt;key 7182
bias 0.000
h_scaling 0.370</title>
<path fill="none" stroke="blue" stroke-width="0.1" d="M238.8,-291.74C237.44,-306.73 235.94,-322.69 235,-337.56 231.53,-392.21 230.59,-454.12 229.21,-500.81"/>
<polygon fill="blue" stroke="blue" stroke-width="0.1" points="225.71,-500.72 228.89,-510.83 232.7,-500.94 225.71,-500.72"/>
</g>
<!-- key 3672
bias 0.000
h_scaling 0.845&#45;&gt;key 5463
bias 0.000
h_scaling 0.138 -->
<g id="edge6" class="edge">
<title>key 3672
bias 0.000
h_scaling 0.845&#45;&gt;key 5463
bias 0.000
h_scaling 0.138</title>
<path fill="none" stroke="blue" stroke-width="0.1" d="M238,-164.18C238,-155.52 238,-146.57 238,-137.75"/>
<polygon fill="blue" stroke="blue" stroke-width="0.1" points="241.5,-137.48 238,-127.48 234.5,-137.48 241.5,-137.48"/>
</g>
<!-- key 3672
bias 0.000
h_scaling 0.845&#45;&gt;key 3672
bias 0.000
h_scaling 0.845 -->
<g id="edge7" class="edge">
<title>key 3672
bias 0.000
h_scaling 0.845&#45;&gt;key 3672
bias 0.000
h_scaling 0.845</title>
<path fill="none" stroke="red" stroke-width="0.76" d="M300.29,-242.45C311.66,-240.61 319.64,-235.77 319.64,-227.92 319.64,-222.65 316.04,-218.73 310.23,-216.17"/>
<polygon fill="red" stroke="red" stroke-width="0.76" points="310.87,-212.71 300.29,-213.39 308.98,-219.45 310.87,-212.71"/>
<text text-anchor="middle" x="333.64" y="-225.72" font-family="Times,serif" font-size="9.00">0.022</text>
</g>
<!-- key 93723
bias 0.000
h_scaling 1.000&#45;&gt;key 5463
bias 0.000
h_scaling 0.138 -->
<g id="edge19" class="edge">
<title>key 93723
bias 0.000
h_scaling 1.000&#45;&gt;key 5463
bias 0.000
h_scaling 0.138</title>
<path fill="none" stroke="red" stroke-width="0.79" d="M435.5,-337.92C426.69,-288.27 409.61,-218.34 378,-164.28 361.02,-135.23 331.82,-112.44 304.47,-96.03"/>
<polygon fill="red" stroke="red" stroke-width="0.79" points="306.08,-92.91 295.67,-90.92 302.57,-98.97 306.08,-92.91"/>
<text text-anchor="middle" x="439" y="-225.72" font-family="Times,serif" font-size="9.00">0.023</text>
</g>
</g>
</svg>
