<?xml version="1.0" encoding="UTF-8" standalone="no"?>
<!DOCTYPE svg PUBLIC "-//W3C//DTD SVG 1.1//EN"
 "http://www.w3.org/Graphics/SVG/1.1/DTD/svg11.dtd">
<!-- Generated by graphviz version 2.43.0 (0)
 -->
<!-- Title: %3 Pages: 1 -->
<svg width="612pt" height="892pt"
 viewBox="0.00 0.00 611.64 892.40" xmlns="http://www.w3.org/2000/svg" xmlns:xlink="http://www.w3.org/1999/xlink">
<g id="graph0" class="graph" transform="scale(1 1) rotate(0) translate(4 888.4)">
<title>%3</title>
<polygon fill="white" stroke="transparent" points="-4,4 -4,-888.4 607.64,-888.4 607.64,4 -4,4"/>
<!-- ready -->
<g id="node1" class="node">
<title>ready</title>
<polygon fill="yellow" stroke="black" points="179.14,-884.4 136.14,-884.4 136.14,-866.4 179.14,-866.4 179.14,-884.4"/>
<text text-anchor="middle" x="157.64" y="-873.2" font-family="Times,serif" font-size="9.00">ready</text>
</g>
<!-- key 12486
bias 0.000
h_scaling 0.047 -->
<g id="node4" class="node">
<title>key 12486
bias 0.000
h_scaling 0.047</title>
<ellipse fill="white" stroke="black" cx="157.64" cy="-756.76" rx="63.78" ry="63.78"/>
<text text-anchor="middle" x="157.64" y="-764.56" font-family="Times,serif" font-size="9.00">key 12486</text>
<text text-anchor="middle" x="157.64" y="-754.56" font-family="Times,serif" font-size="9.00">bias 0.000</text>
<text text-anchor="middle" x="157.64" y="-744.56" font-family="Times,serif" font-size="9.00">h_scaling 0.047</text>
</g>
<!-- ready&#45;&gt;key 12486
bias 0.000
h_scaling 0.047 -->
<g id="edge12" class="edge">
<title>ready&#45;&gt;key 12486
bias 0.000
h_scaling 0.047</title>
<path fill="none" stroke="red" stroke-width="1.37" d="M157.64,-866.38C157.64,-858.35 157.64,-845.13 157.64,-830.63"/>
<polygon fill="red" stroke="red" stroke-width="1.37" points="161.14,-830.43 157.64,-820.43 154.14,-830.43 161.14,-830.43"/>
<text text-anchor="middle" x="171.64" y="-841.2" font-family="Times,serif" font-size="9.00">0.424</text>
</g>
<!-- key 3672
bias 0.000
h_scaling 0.845 -->
<g id="node7" class="node">
<title>key 3672
bias 0.000
h_scaling 0.845</title>
<ellipse fill="white" stroke="black" cx="347.64" cy="-236.92" rx="63.78" ry="63.78"/>
<text text-anchor="middle" x="347.64" y="-244.72" font-family="Times,serif" font-size="9.00">key 3672</text>
<text text-anchor="middle" x="347.64" y="-234.72" font-family="Times,serif" font-size="9.00">bias 0.000</text>
<text text-anchor="middle" x="347.64" y="-224.72" font-family="Times,serif" font-size="9.00">h_scaling 0.845</text>
</g>
<!-- ready&#45;&gt;key 3672
bias 0.000
h_scaling 0.845 -->
<g id="edge15" class="edge">
<title>ready&#45;&gt;key 3672
bias 0.000
h_scaling 0.845</title>
<path fill="none" stroke="red" stroke-width="1.52" d="M179.23,-873.1C264.83,-867.39 575.64,-840.91 575.64,-757.76 575.64,-757.76 575.64,-757.76 575.64,-495.84 575.64,-428.64 590.71,-401.23 551.64,-346.56 519.73,-301.91 463.69,-273.96 418.41,-257.61"/>
<polygon fill="red" stroke="red" stroke-width="1.52" points="419.52,-254.29 408.92,-254.29 417.21,-260.9 419.52,-254.29"/>
<text text-anchor="middle" x="589.64" y="-581.28" font-family="Times,serif" font-size="9.00">0.475</text>
</g>
<!-- key 93723
bias 0.000
h_scaling 1.000 -->
<g id="node8" class="node">
<title>key 93723
bias 0.000
h_scaling 1.000</title>
<ellipse fill="white" stroke="black" cx="63.64" cy="-410.2" rx="63.78" ry="63.78"/>
<text text-anchor="middle" x="63.64" y="-418" font-family="Times,serif" font-size="9.00">key 93723</text>
<text text-anchor="middle" x="63.64" y="-408" font-family="Times,serif" font-size="9.00">bias 0.000</text>
<text text-anchor="middle" x="63.64" y="-398" font-family="Times,serif" font-size="9.00">h_scaling 1.000</text>
</g>
<!-- ready&#45;&gt;key 93723
bias 0.000
h_scaling 1.000 -->
<g id="edge21" class="edge">
<title>ready&#45;&gt;key 93723
bias 0.000
h_scaling 1.000</title>
<path fill="none" stroke="red" stroke-width="2.29" d="M139.6,-866.33C122.4,-857.61 97.31,-842.02 84.64,-820.4 23.32,-715.76 34.36,-568.99 48.58,-482.63"/>
<polygon fill="red" stroke="red" stroke-width="2.29" points="52.05,-483.1 50.28,-472.66 45.15,-481.93 52.05,-483.1"/>
<text text-anchor="middle" x="54.64" y="-667.92" font-family="Times,serif" font-size="9.00">0.729</text>
</g>
<!-- go -->
<g id="node2" class="node">
<title>go</title>
<polygon fill="green" stroke="black" points="487.64,-765.76 459.64,-765.76 459.64,-747.76 487.64,-747.76 487.64,-765.76"/>
<text text-anchor="middle" x="473.64" y="-754.56" font-family="Times,serif" font-size="9.00">go</text>
</g>
<!-- key 7182
bias 0.000
h_scaling 0.370 -->
<g id="node5" class="node">
<title>key 7182
bias 0.000
h_scaling 0.370</title>
<ellipse fill="white" stroke="black" cx="247.64" cy="-583.48" rx="63.78" ry="63.78"/>
<text text-anchor="middle" x="247.64" y="-591.28" font-family="Times,serif" font-size="9.00">key 7182</text>
<text text-anchor="middle" x="247.64" y="-581.28" font-family="Times,serif" font-size="9.00">bias 0.000</text>
<text text-anchor="middle" x="247.64" y="-571.28" font-family="Times,serif" font-size="9.00">h_scaling 0.370</text>
</g>
<!-- go&#45;&gt;key 7182
bias 0.000
h_scaling 0.370 -->
<g id="edge4" class="edge">
<title>go&#45;&gt;key 7182
bias 0.000
h_scaling 0.370</title>
<path fill="none" stroke="red" stroke-width="2.51" d="M463.04,-747.73C435.48,-726.84 359.98,-669.62 306.15,-628.82"/>
<polygon fill="red" stroke="red" stroke-width="2.51" points="308.13,-625.93 298.05,-622.68 303.9,-631.51 308.13,-625.93"/>
<text text-anchor="middle" x="374.64" y="-667.92" font-family="Times,serif" font-size="9.00">0.802</text>
</g>
<!-- key 5463
bias 0.000
h_scaling 0.138 -->
<g id="node6" class="node">
<title>key 5463
bias 0.000
h_scaling 0.138</title>
<ellipse fill="white" stroke="black" cx="217.64" cy="-63.64" rx="63.78" ry="63.78"/>
<text text-anchor="middle" x="217.64" y="-71.44" font-family="Times,serif" font-size="9.00">key 5463</text>
<text text-anchor="middle" x="217.64" y="-61.44" font-family="Times,serif" font-size="9.00">bias 0.000</text>
<text text-anchor="middle" x="217.64" y="-51.44" font-family="Times,serif" font-size="9.00">h_scaling 0.138</text>
</g>
<!-- go&#45;&gt;key 5463
bias 0.000
h_scaling 0.138 -->
<g id="edge2" class="edge">
<title>go&#45;&gt;key 5463
bias 0.000
h_scaling 0.138</title>
<path fill="none" stroke="red" stroke-width="2.67" d="M476.72,-747.47C496.96,-691.38 606.01,-363.91 466.64,-173.28 425.26,-116.68 347.98,-89.18 290.44,-76.07"/>
<polygon fill="red" stroke="red" stroke-width="2.67" points="291.18,-72.65 280.67,-73.94 289.69,-79.49 291.18,-72.65"/>
<text text-anchor="middle" x="549.64" y="-408" font-family="Times,serif" font-size="9.00">0.857</text>
</g>
<!-- go&#45;&gt;key 3672
bias 0.000
h_scaling 0.845 -->
<g id="edge1" class="edge">
<title>go&#45;&gt;key 3672
bias 0.000
h_scaling 0.845</title>
<path fill="none" stroke="blue" stroke-width="1.97" d="M474.2,-747.59C476.87,-704.37 485.83,-498.47 426.64,-346.56 419.32,-327.78 407.94,-309.29 396.07,-293.05"/>
<polygon fill="blue" stroke="blue" stroke-width="1.97" points="398.65,-290.65 389.84,-284.77 393.06,-294.86 398.65,-290.65"/>
<text text-anchor="middle" x="480.14" y="-494.64" font-family="Times,serif" font-size="9.00">&#45;0.622</text>
</g>
<!-- output
bias 0.000
h_scaling 0.931 -->
<g id="node3" class="node">
<title>output
bias 0.000
h_scaling 0.931</title>
<ellipse fill="lightblue" stroke="black" cx="247.64" cy="-410.2" rx="63.78" ry="63.78"/>
<text text-anchor="middle" x="247.64" y="-418" font-family="Times,serif" font-size="9.00">output</text>
<text text-anchor="middle" x="247.64" y="-408" font-family="Times,serif" font-size="9.00">bias 0.000</text>
<text text-anchor="middle" x="247.64" y="-398" font-family="Times,serif" font-size="9.00">h_scaling 0.931</text>
</g>
<!-- output
bias 0.000
h_scaling 0.931&#45;&gt;key 12486
bias 0.000
h_scaling 0.047 -->
<g id="edge8" class="edge">
<title>output
bias 0.000
h_scaling 0.931&#45;&gt;key 12486
bias 0.000
h_scaling 0.047</title>
<path fill="none" stroke="blue" stroke-width="2.28" d="M194.84,-446.18C179.01,-458.91 162.89,-474.49 151.64,-491.84 114.48,-549.16 122.62,-629.2 135.91,-686.07"/>
<polygon fill="blue" stroke="blue" stroke-width="2.28" points="132.58,-687.17 138.36,-696.05 139.38,-685.51 132.58,-687.17"/>
<text text-anchor="middle" x="152.14" y="-581.28" font-family="Times,serif" font-size="9.00">&#45;0.726</text>
</g>
<!-- output
bias 0.000
h_scaling 0.931&#45;&gt;key 3672
bias 0.000
h_scaling 0.845 -->
<g id="edge22" class="edge">
<title>output
bias 0.000
h_scaling 0.931&#45;&gt;key 3672
bias 0.000
h_scaling 0.845</title>
<path fill="none" stroke="blue" stroke-width="0.26" d="M279.56,-354.53C289.44,-337.61 300.41,-318.82 310.6,-301.35"/>
<polygon fill="blue" stroke="blue" stroke-width="0.26" points="313.84,-302.76 315.86,-292.36 307.79,-299.23 313.84,-302.76"/>
<text text-anchor="middle" x="313.14" y="-321.36" font-family="Times,serif" font-size="9.00">&#45;0.052</text>
</g>
<!-- key 12486
bias 0.000
h_scaling 0.047&#45;&gt;key 12486
bias 0.000
h_scaling 0.047 -->
<g id="edge11" class="edge">
<title>key 12486
bias 0.000
h_scaling 0.047&#45;&gt;key 12486
bias 0.000
h_scaling 0.047</title>
<path fill="none" stroke="red" stroke-width="0.99" d="M219.58,-772.05C231.14,-770.17 239.28,-765.07 239.28,-756.76 239.28,-751.04 235.43,-746.84 229.27,-744.17"/>
<polygon fill="red" stroke="red" stroke-width="0.99" points="230.16,-740.78 219.58,-741.46 228.27,-747.52 230.16,-740.78"/>
<text text-anchor="middle" x="253.28" y="-754.56" font-family="Times,serif" font-size="9.00">0.298</text>
</g>
<!-- key 12486
bias 0.000
h_scaling 0.047&#45;&gt;key 7182
bias 0.000
h_scaling 0.370 -->
<g id="edge9" class="edge">
<title>key 12486
bias 0.000
h_scaling 0.047&#45;&gt;key 7182
bias 0.000
h_scaling 0.370</title>
<path fill="none" stroke="blue" stroke-width="2.58" d="M193.13,-703.63C198.94,-694.31 204.67,-684.55 209.64,-675.12 213.43,-667.93 217.12,-660.27 220.63,-652.58"/>
<polygon fill="blue" stroke="blue" stroke-width="2.58" points="223.93,-653.76 224.8,-643.2 217.54,-650.92 223.93,-653.76"/>
<text text-anchor="middle" x="230.14" y="-667.92" font-family="Times,serif" font-size="9.00">&#45;0.825</text>
</g>
<!-- key 12486
bias 0.000
h_scaling 0.047&#45;&gt;key 93723
bias 0.000
h_scaling 1.000 -->
<g id="edge20" class="edge">
<title>key 12486
bias 0.000
h_scaling 0.047&#45;&gt;key 93723
bias 0.000
h_scaling 1.000</title>
<path fill="none" stroke="blue" stroke-width="1.75" d="M119.99,-705.05C108.76,-687.52 97.6,-667.22 90.64,-647.12 72.42,-594.49 65.91,-531.71 63.83,-484.15"/>
<polygon fill="blue" stroke="blue" stroke-width="1.75" points="67.32,-483.8 63.44,-473.94 60.32,-484.06 67.32,-483.8"/>
<text text-anchor="middle" x="106.14" y="-581.28" font-family="Times,serif" font-size="9.00">&#45;0.549</text>
</g>
<!-- key 7182
bias 0.000
h_scaling 0.370&#45;&gt;output
bias 0.000
h_scaling 0.931 -->
<g id="edge13" class="edge">
<title>key 7182
bias 0.000
h_scaling 0.370&#45;&gt;output
bias 0.000
h_scaling 0.931</title>
<path fill="none" stroke="blue" stroke-width="3.1" d="M247.64,-519.67C247.64,-508.15 247.64,-496.04 247.64,-484.25"/>
<polygon fill="blue" stroke="blue" stroke-width="3.1" points="251.14,-484 247.64,-474 244.14,-484 251.14,-484"/>
<text text-anchor="middle" x="263.14" y="-494.64" font-family="Times,serif" font-size="9.00">&#45;1.000</text>
</g>
<!-- key 7182
bias 0.000
h_scaling 0.370&#45;&gt;key 12486
bias 0.000
h_scaling 0.047 -->
<g id="edge17" class="edge">
<title>key 7182
bias 0.000
h_scaling 0.370&#45;&gt;key 12486
bias 0.000
h_scaling 0.047</title>
<path fill="none" stroke="blue" stroke-width="0.21" d="M201.09,-627.22C191,-638.63 181.35,-651.58 174.64,-665.12 171.79,-670.86 169.42,-677.02 167.44,-683.33"/>
<polygon fill="blue" stroke="blue" stroke-width="0.21" points="163.97,-682.76 164.65,-693.33 170.71,-684.64 163.97,-682.76"/>
<text text-anchor="middle" x="190.14" y="-667.92" font-family="Times,serif" font-size="9.00">&#45;0.035</text>
</g>
<!-- key 7182
bias 0.000
h_scaling 0.370&#45;&gt;key 3672
bias 0.000
h_scaling 0.845 -->
<g id="edge5" class="edge">
<title>key 7182
bias 0.000
h_scaling 0.370&#45;&gt;key 3672
bias 0.000
h_scaling 0.845</title>
<path fill="none" stroke="blue" stroke-width="2.88" d="M305.29,-555.98C336.18,-537.95 370.37,-510.65 382.64,-473.84 400.89,-419.08 388.89,-354.01 374.17,-306.09"/>
<polygon fill="blue" stroke="blue" stroke-width="2.88" points="377.47,-304.9 371.1,-296.43 370.79,-307.03 377.47,-304.9"/>
<text text-anchor="middle" x="407.14" y="-408" font-family="Times,serif" font-size="9.00">&#45;0.927</text>
</g>
<!-- key 7182
bias 0.000
h_scaling 0.370&#45;&gt;key 93723
bias 0.000
h_scaling 1.000 -->
<g id="edge18" class="edge">
<title>key 7182
bias 0.000
h_scaling 0.370&#45;&gt;key 93723
bias 0.000
h_scaling 1.000</title>
<path fill="none" stroke="red" stroke-width="1.32" d="M201.21,-539.26C175.62,-515.43 143.73,-485.75 117.1,-460.96"/>
<polygon fill="red" stroke="red" stroke-width="1.32" points="119.44,-458.36 109.74,-454.11 114.67,-463.48 119.44,-458.36"/>
<text text-anchor="middle" x="169.64" y="-494.64" font-family="Times,serif" font-size="9.00">0.405</text>
</g>
<!-- key 5463
bias 0.000
h_scaling 0.138&#45;&gt;output
bias 0.000
h_scaling 0.931 -->
<g id="edge3" class="edge">
<title>key 5463
bias 0.000
h_scaling 0.138&#45;&gt;output
bias 0.000
h_scaling 0.931</title>
<path fill="none" stroke="blue" stroke-width="3.06" d="M223.09,-127.3C228.22,-186.18 235.89,-274.29 241.29,-336.3"/>
<polygon fill="blue" stroke="blue" stroke-width="3.06" points="237.82,-336.74 242.17,-346.4 244.79,-336.14 237.82,-336.74"/>
<text text-anchor="middle" x="253.14" y="-234.72" font-family="Times,serif" font-size="9.00">&#45;0.987</text>
</g>
<!-- key 5463
bias 0.000
h_scaling 0.138&#45;&gt;key 7182
bias 0.000
h_scaling 0.370 -->
<g id="edge10" class="edge">
<title>key 5463
bias 0.000
h_scaling 0.138&#45;&gt;key 7182
bias 0.000
h_scaling 0.370</title>
<path fill="none" stroke="red" stroke-width="2.34" d="M196.55,-123.81C170.99,-204.82 135.85,-353.87 174.64,-473.84 177.68,-483.23 182.03,-483.72 187.64,-491.84 194.12,-501.2 200.87,-511.18 207.42,-520.98"/>
<polygon fill="red" stroke="red" stroke-width="2.34" points="204.64,-523.13 213.1,-529.51 210.47,-519.25 204.64,-523.13"/>
<text text-anchor="middle" x="172.64" y="-321.36" font-family="Times,serif" font-size="9.00">0.748</text>
</g>
<!-- key 3672
bias 0.000
h_scaling 0.845&#45;&gt;output
bias 0.000
h_scaling 0.931 -->
<g id="edge16" class="edge">
<title>key 3672
bias 0.000
h_scaling 0.845&#45;&gt;output
bias 0.000
h_scaling 0.931</title>
<path fill="none" stroke="red" stroke-width="2.04" d="M293.35,-270.69C277.02,-283.46 260.98,-299.62 251.64,-318.56 248.85,-324.21 246.84,-330.32 245.42,-336.59"/>
<polygon fill="red" stroke="red" stroke-width="2.04" points="241.96,-336.09 243.67,-346.55 248.85,-337.3 241.96,-336.09"/>
<text text-anchor="middle" x="265.64" y="-321.36" font-family="Times,serif" font-size="9.00">0.647</text>
</g>
<!-- key 3672
bias 0.000
h_scaling 0.845&#45;&gt;key 7182
bias 0.000
h_scaling 0.370 -->
<g id="edge14" class="edge">
<title>key 3672
bias 0.000
h_scaling 0.845&#45;&gt;key 7182
bias 0.000
h_scaling 0.370</title>
<path fill="none" stroke="blue" stroke-width="0.51" d="M348.47,-300.63C347.23,-349.27 341.33,-417.65 320.64,-473.84 314.08,-491.65 304.03,-509.4 293.46,-525.24"/>
<polygon fill="blue" stroke="blue" stroke-width="0.51" points="290.34,-523.61 287.56,-533.83 296.11,-527.57 290.34,-523.61"/>
<text text-anchor="middle" x="361.14" y="-408" font-family="Times,serif" font-size="9.00">&#45;0.135</text>
</g>
<!-- key 3672
bias 0.000
h_scaling 0.845&#45;&gt;key 5463
bias 0.000
h_scaling 0.138 -->
<g id="edge6" class="edge">
<title>key 3672
bias 0.000
h_scaling 0.845&#45;&gt;key 5463
bias 0.000
h_scaling 0.138</title>
<path fill="none" stroke="blue" stroke-width="2.69" d="M309.34,-185.46C294.4,-165.77 277.17,-143.08 261.72,-122.72"/>
<polygon fill="blue" stroke="blue" stroke-width="2.69" points="264.5,-120.59 255.67,-114.74 258.92,-124.82 264.5,-120.59"/>
<text text-anchor="middle" x="298.14" y="-148.08" font-family="Times,serif" font-size="9.00">&#45;0.865</text>
</g>
<!-- key 3672
bias 0.000
h_scaling 0.845&#45;&gt;key 3672
bias 0.000
h_scaling 0.845 -->
<g id="edge7" class="edge">
<title>key 3672
bias 0.000
h_scaling 0.845&#45;&gt;key 3672
bias 0.000
h_scaling 0.845</title>
<path fill="none" stroke="red" stroke-width="2.54" d="M409.58,-252.22C421.14,-250.33 429.28,-245.23 429.28,-236.92 429.28,-231.2 425.43,-227.01 419.27,-224.33"/>
<polygon fill="red" stroke="red" stroke-width="2.54" points="420.16,-220.94 409.58,-221.62 418.27,-227.68 420.16,-220.94"/>
<text text-anchor="middle" x="443.28" y="-234.72" font-family="Times,serif" font-size="9.00">0.812</text>
</g>
<!-- key 93723
bias 0.000
h_scaling 1.000&#45;&gt;key 5463
bias 0.000
h_scaling 0.138 -->
<g id="edge19" class="edge">
<title>key 93723
bias 0.000
h_scaling 1.000&#45;&gt;key 5463
bias 0.000
h_scaling 0.138</title>
<path fill="none" stroke="red" stroke-width="1.54" d="M67.5,-346.65C72.7,-297.17 84.93,-227.6 113.64,-173.28 125.54,-150.76 143.48,-129.62 161.12,-112.09"/>
<polygon fill="red" stroke="red" stroke-width="1.54" points="163.9,-114.27 168.64,-104.8 159.03,-109.25 163.9,-114.27"/>
<text text-anchor="middle" x="127.64" y="-234.72" font-family="Times,serif" font-size="9.00">0.479</text>
</g>
</g>
</svg>
