<?xml version="1.0" encoding="UTF-8" standalone="no"?>
<!DOCTYPE svg PUBLIC "-//W3C//DTD SVG 1.1//EN"
 "http://www.w3.org/Graphics/SVG/1.1/DTD/svg11.dtd">
<!-- Generated by graphviz version 8.0.5 (20230430.1635)
 -->
<!-- Pages: 1 -->
<svg width="430pt" height="632pt"
 viewBox="0.00 0.00 430.25 631.97" xmlns="http://www.w3.org/2000/svg" xmlns:xlink="http://www.w3.org/1999/xlink">
<g id="graph0" class="graph" transform="scale(1 1) rotate(0) translate(4 627.97)">
<polygon fill="white" stroke="none" points="-4,4 -4,-627.97 426.25,-627.97 426.25,4 -4,4"/>
<!-- ready
output 0.000 -->
<g id="node1" class="node">
<title>ready
output 0.000</title>
<polygon fill="yellow" stroke="black" points="79.62,-623.97 16.38,-623.97 16.38,-593.47 79.62,-593.47 79.62,-623.97"/>
<text text-anchor="middle" x="48" y="-611.42" font-family="Times New Roman,serif" font-size="9.00">ready</text>
<text text-anchor="middle" x="48" y="-600.17" font-family="Times New Roman,serif" font-size="9.00">output 0.000</text>
</g>
<!-- key 7184
bias &#45;0.116
h_scaling 0.962
output 0.143 -->
<g id="node4" class="node">
<title>key 7184
bias &#45;0.116
h_scaling 0.962
output 0.143</title>
<ellipse fill="white" stroke="black" cx="228" cy="-495.66" rx="50.56" ry="50.56"/>
<text text-anchor="middle" x="228" y="-509.61" font-family="Times New Roman,serif" font-size="9.00">key 7184</text>
<text text-anchor="middle" x="228" y="-498.36" font-family="Times New Roman,serif" font-size="9.00">bias &#45;0.116</text>
<text text-anchor="middle" x="228" y="-487.11" font-family="Times New Roman,serif" font-size="9.00">h_scaling 0.962</text>
<text text-anchor="middle" x="228" y="-475.86" font-family="Times New Roman,serif" font-size="9.00">output 0.143</text>
</g>
<!-- ready
output 0.000&#45;&gt;key 7184
bias &#45;0.116
h_scaling 0.962
output 0.143 -->
<g id="edge4" class="edge">
<title>ready
output 0.000&#45;&gt;key 7184
bias &#45;0.116
h_scaling 0.962
output 0.143</title>
<path fill="none" stroke="blue" stroke-width="0.1" d="M71.9,-592.97C98.64,-576.47 142.72,-549.27 177.24,-527.98"/>
<polygon fill="blue" stroke="blue" stroke-width="0.1" points="178.66,-531.21 185.34,-522.98 174.99,-525.25 178.66,-531.21"/>
<text text-anchor="middle" x="127.62" y="-566.92" font-family="Times New Roman,serif" font-size="9.00">&#45;0.238</text>
</g>
<!-- key 18515
bias &#45;0.440
h_scaling 0.396
output 0.393 -->
<g id="node5" class="node">
<title>key 18515
bias &#45;0.440
h_scaling 0.396
output 0.393</title>
<ellipse fill="white" stroke="black" cx="82" cy="-198.92" rx="50.56" ry="50.56"/>
<text text-anchor="middle" x="82" y="-212.87" font-family="Times New Roman,serif" font-size="9.00">key 18515</text>
<text text-anchor="middle" x="82" y="-201.62" font-family="Times New Roman,serif" font-size="9.00">bias &#45;0.440</text>
<text text-anchor="middle" x="82" y="-190.37" font-family="Times New Roman,serif" font-size="9.00">h_scaling 0.396</text>
<text text-anchor="middle" x="82" y="-179.12" font-family="Times New Roman,serif" font-size="9.00">output 0.393</text>
</g>
<!-- ready
output 0.000&#45;&gt;key 18515
bias &#45;0.440
h_scaling 0.396
output 0.393 -->
<g id="edge5" class="edge">
<title>ready
output 0.000&#45;&gt;key 18515
bias &#45;0.440
h_scaling 0.396
output 0.393</title>
<path fill="none" stroke="red" stroke-width="0.1" d="M47.57,-593.24C46.76,-561.22 45.52,-481.94 50.75,-415.85 54.98,-362.43 64.08,-302.1 71.37,-258.82"/>
<polygon fill="red" stroke="red" stroke-width="0.1" points="74.81,-259.48 73.04,-249.03 67.91,-258.3 74.81,-259.48"/>
<text text-anchor="middle" x="61.12" y="-418.55" font-family="Times New Roman,serif" font-size="9.00">0.343</text>
</g>
<!-- key 117952
bias 0.037
h_scaling 0.241
output 0.949 -->
<g id="node6" class="node">
<title>key 117952
bias 0.037
h_scaling 0.241
output 0.949</title>
<ellipse fill="white" stroke="black" cx="263" cy="-50.56" rx="50.56" ry="50.56"/>
<text text-anchor="middle" x="263" y="-64.51" font-family="Times New Roman,serif" font-size="9.00">key 117952</text>
<text text-anchor="middle" x="263" y="-53.26" font-family="Times New Roman,serif" font-size="9.00">bias 0.037</text>
<text text-anchor="middle" x="263" y="-42.01" font-family="Times New Roman,serif" font-size="9.00">h_scaling 0.241</text>
<text text-anchor="middle" x="263" y="-30.76" font-family="Times New Roman,serif" font-size="9.00">output 0.949</text>
</g>
<!-- ready
output 0.000&#45;&gt;key 117952
bias 0.037
h_scaling 0.241
output 0.949 -->
<g id="edge13" class="edge">
<title>ready
output 0.000&#45;&gt;key 117952
bias 0.037
h_scaling 0.241
output 0.949</title>
<path fill="none" stroke="red" stroke-width="0.1" d="M37.11,-593.14C22.95,-572.69 0,-533.84 0,-496.66 0,-496.66 0,-496.66 0,-197.92 0,-105.59 125.29,-70.99 202.92,-58.41"/>
<polygon fill="red" stroke="red" stroke-width="0.1" points="203.25,-61.9 212.6,-56.92 202.19,-54.98 203.25,-61.9"/>
<text text-anchor="middle" x="10.12" y="-344.37" font-family="Times New Roman,serif" font-size="9.00">0.383</text>
</g>
<!-- go
output 0.000 -->
<g id="node2" class="node">
<title>go
output 0.000</title>
<polygon fill="green" stroke="black" points="259.62,-623.97 196.38,-623.97 196.38,-593.47 259.62,-593.47 259.62,-623.97"/>
<text text-anchor="middle" x="228" y="-611.42" font-family="Times New Roman,serif" font-size="9.00">go</text>
<text text-anchor="middle" x="228" y="-600.17" font-family="Times New Roman,serif" font-size="9.00">output 0.000</text>
</g>
<!-- go
output 0.000&#45;&gt;key 7184
bias &#45;0.116
h_scaling 0.962
output 0.143 -->
<g id="edge2" class="edge">
<title>go
output 0.000&#45;&gt;key 7184
bias &#45;0.116
h_scaling 0.962
output 0.143</title>
<path fill="none" stroke="red" stroke-width="0.1" d="M228,-593.2C228,-583.59 228,-570.29 228,-556.63"/>
<polygon fill="red" stroke="red" stroke-width="0.1" points="231.5,-556.66 228,-546.66 224.5,-556.66 231.5,-556.66"/>
<text text-anchor="middle" x="238.12" y="-566.92" font-family="Times New Roman,serif" font-size="9.00">1.122</text>
</g>
<!-- go
output 0.000&#45;&gt;key 18515
bias &#45;0.440
h_scaling 0.396
output 0.393 -->
<g id="edge9" class="edge">
<title>go
output 0.000&#45;&gt;key 18515
bias &#45;0.440
h_scaling 0.396
output 0.393</title>
<path fill="none" stroke="blue" stroke-width="0.1" d="M210.34,-593.03C197.26,-581.41 179.75,-564.2 168,-546.22 110.08,-457.55 91.17,-332.88 84.99,-259.83"/>
<polygon fill="blue" stroke="blue" stroke-width="0.1" points="88.48,-259.56 84.2,-249.87 81.5,-260.11 88.48,-259.56"/>
<text text-anchor="middle" x="125.62" y="-418.55" font-family="Times New Roman,serif" font-size="9.00">&#45;0.214</text>
</g>
<!-- go
output 0.000&#45;&gt;key 117952
bias 0.037
h_scaling 0.241
output 0.949 -->
<g id="edge14" class="edge">
<title>go
output 0.000&#45;&gt;key 117952
bias 0.037
h_scaling 0.241
output 0.949</title>
<path fill="none" stroke="blue" stroke-width="0.1" d="M259.76,-602.03C309.21,-591.14 399,-562.32 399,-496.66 399,-496.66 399,-496.66 399,-197.92 399,-146.76 353.85,-105.96 315.58,-80.57"/>
<polygon fill="blue" stroke="blue" stroke-width="0.1" points="317.83,-77.86 307.53,-75.39 314.04,-83.75 317.83,-77.86"/>
<text text-anchor="middle" x="410.62" y="-344.37" font-family="Times New Roman,serif" font-size="9.00">&#45;0.992</text>
</g>
<!-- output
bias &#45;0.204
h_scaling 0.938
output 0.963 -->
<g id="node3" class="node">
<title>output
bias &#45;0.204
h_scaling 0.938
output 0.963</title>
<ellipse fill="lightblue" stroke="black" cx="228" cy="-347.29" rx="50.56" ry="50.56"/>
<text text-anchor="middle" x="228" y="-361.24" font-family="Times New Roman,serif" font-size="9.00">output</text>
<text text-anchor="middle" x="228" y="-349.99" font-family="Times New Roman,serif" font-size="9.00">bias &#45;0.204</text>
<text text-anchor="middle" x="228" y="-338.74" font-family="Times New Roman,serif" font-size="9.00">h_scaling 0.938</text>
<text text-anchor="middle" x="228" y="-327.49" font-family="Times New Roman,serif" font-size="9.00">output 0.963</text>
</g>
<!-- output
bias &#45;0.204
h_scaling 0.938
output 0.963&#45;&gt;key 18515
bias &#45;0.440
h_scaling 0.396
output 0.393 -->
<g id="edge8" class="edge">
<title>output
bias &#45;0.204
h_scaling 0.938
output 0.963&#45;&gt;key 18515
bias &#45;0.440
h_scaling 0.396
output 0.393</title>
<path fill="none" stroke="blue" stroke-width="0.1" d="M192.66,-310.86C172.1,-290.25 146.05,-264.13 124.39,-242.42"/>
<polygon fill="blue" stroke="blue" stroke-width="0.1" points="127.06,-240.14 117.52,-235.54 122.11,-245.09 127.06,-240.14"/>
<text text-anchor="middle" x="170.62" y="-270.18" font-family="Times New Roman,serif" font-size="9.00">&#45;0.106</text>
</g>
<!-- output
bias &#45;0.204
h_scaling 0.938
output 0.963&#45;&gt;key 117952
bias 0.037
h_scaling 0.241
output 0.949 -->
<g id="edge16" class="edge">
<title>output
bias &#45;0.204
h_scaling 0.938
output 0.963&#45;&gt;key 117952
bias 0.037
h_scaling 0.241
output 0.949</title>
<path fill="none" stroke="blue" stroke-width="0.1" d="M234.83,-297.07C236.89,-281.83 239.1,-264.97 241,-249.48 246.71,-202.98 252.54,-150.25 256.76,-110.91"/>
<polygon fill="blue" stroke="blue" stroke-width="0.1" points="260.21,-111.53 257.8,-101.21 253.25,-110.78 260.21,-111.53"/>
<text text-anchor="middle" x="263.62" y="-196" font-family="Times New Roman,serif" font-size="9.00">&#45;0.258</text>
</g>
<!-- key 7184
bias &#45;0.116
h_scaling 0.962
output 0.143&#45;&gt;output
bias &#45;0.204
h_scaling 0.938
output 0.963 -->
<g id="edge1" class="edge">
<title>key 7184
bias &#45;0.116
h_scaling 0.962
output 0.143&#45;&gt;output
bias &#45;0.204
h_scaling 0.938
output 0.963</title>
<path fill="none" stroke="blue" stroke-width="0.1" d="M228,-444.7C228,-432.8 228,-420 228,-407.73"/>
<polygon fill="blue" stroke="blue" stroke-width="0.1" points="231.5,-408.03 228,-398.03 224.5,-408.03 231.5,-408.03"/>
<text text-anchor="middle" x="239.62" y="-418.55" font-family="Times New Roman,serif" font-size="9.00">&#45;1.000</text>
</g>
<!-- key 7184
bias &#45;0.116
h_scaling 0.962
output 0.143&#45;&gt;key 7184
bias &#45;0.116
h_scaling 0.962
output 0.143 -->
<g id="edge3" class="edge">
<title>key 7184
bias &#45;0.116
h_scaling 0.962
output 0.143&#45;&gt;key 7184
bias &#45;0.116
h_scaling 0.962
output 0.143</title>
<path fill="none" stroke="red" stroke-width="0.1" d="M276.99,-509.26C288.27,-508.09 296.56,-503.55 296.56,-495.66 296.56,-490.23 292.64,-486.39 286.53,-484.14"/>
<polygon fill="red" stroke="red" stroke-width="0.1" points="287.51,-480.77 276.99,-482.05 286.01,-487.61 287.51,-480.77"/>
<text text-anchor="middle" x="306.68" y="-492.73" font-family="Times New Roman,serif" font-size="9.00">1.147</text>
</g>
<!-- key 7184
bias &#45;0.116
h_scaling 0.962
output 0.143&#45;&gt;key 117952
bias 0.037
h_scaling 0.241
output 0.949 -->
<g id="edge11" class="edge">
<title>key 7184
bias &#45;0.116
h_scaling 0.962
output 0.143&#45;&gt;key 117952
bias 0.037
h_scaling 0.241
output 0.949</title>
<path fill="none" stroke="blue" stroke-width="0.1" d="M273.4,-472.85C291.38,-461.76 310.28,-446.49 321,-427.1 354.12,-367.18 354.23,-182.35 328,-119.12 323.62,-108.55 316.74,-98.68 309.06,-89.94"/>
<polygon fill="blue" stroke="blue" stroke-width="0.1" points="311.85,-87.8 302.47,-82.87 306.73,-92.57 311.85,-87.8"/>
<text text-anchor="middle" x="357.62" y="-270.18" font-family="Times New Roman,serif" font-size="9.00">&#45;1.000</text>
</g>
<!-- key 18515
bias &#45;0.440
h_scaling 0.396
output 0.393&#45;&gt;key 7184
bias &#45;0.116
h_scaling 0.962
output 0.143 -->
<g id="edge6" class="edge">
<title>key 18515
bias &#45;0.440
h_scaling 0.396
output 0.393&#45;&gt;key 7184
bias &#45;0.116
h_scaling 0.962
output 0.143</title>
<path fill="none" stroke="blue" stroke-width="0.1" d="M97.58,-247.51C99.75,-254.21 101.94,-261.02 104,-267.48 122.45,-325.31 115.3,-344.77 144.75,-397.85 155.66,-417.51 171,-436.8 185.55,-452.91"/>
<polygon fill="blue" stroke="blue" stroke-width="0.1" points="182.8,-455.1 192.15,-460.09 187.95,-450.36 182.8,-455.1"/>
<text text-anchor="middle" x="155.62" y="-344.37" font-family="Times New Roman,serif" font-size="9.00">&#45;0.598</text>
</g>
<!-- key 18515
bias &#45;0.440
h_scaling 0.396
output 0.393&#45;&gt;key 18515
bias &#45;0.440
h_scaling 0.396
output 0.393 -->
<g id="edge7" class="edge">
<title>key 18515
bias &#45;0.440
h_scaling 0.396
output 0.393&#45;&gt;key 18515
bias &#45;0.440
h_scaling 0.396
output 0.393</title>
<path fill="none" stroke="red" stroke-width="0.1" d="M130.99,-212.53C142.27,-211.36 150.56,-206.82 150.56,-198.92 150.56,-193.5 146.64,-189.66 140.53,-187.41"/>
<polygon fill="red" stroke="red" stroke-width="0.1" points="141.51,-184.04 130.99,-185.32 140.01,-190.88 141.51,-184.04"/>
<text text-anchor="middle" x="160.68" y="-196" font-family="Times New Roman,serif" font-size="9.00">0.945</text>
</g>
<!-- key 18515
bias &#45;0.440
h_scaling 0.396
output 0.393&#45;&gt;key 117952
bias 0.037
h_scaling 0.241
output 0.949 -->
<g id="edge15" class="edge">
<title>key 18515
bias &#45;0.440
h_scaling 0.396
output 0.393&#45;&gt;key 117952
bias 0.037
h_scaling 0.241
output 0.949</title>
<path fill="none" stroke="red" stroke-width="0.1" d="M119.45,-164.33C135.62,-150.11 154.89,-133.53 172.75,-119.12 186.12,-108.33 200.93,-97 214.62,-86.76"/>
<polygon fill="red" stroke="red" stroke-width="0.1" points="216.6,-89.65 222.54,-80.88 212.43,-84.04 216.6,-89.65"/>
<text text-anchor="middle" x="182.12" y="-121.82" font-family="Times New Roman,serif" font-size="9.00">0.501</text>
</g>
<!-- key 117952
bias 0.037
h_scaling 0.241
output 0.949&#45;&gt;output
bias &#45;0.204
h_scaling 0.938
output 0.963 -->
<g id="edge10" class="edge">
<title>key 117952
bias 0.037
h_scaling 0.241
output 0.949&#45;&gt;output
bias &#45;0.204
h_scaling 0.938
output 0.963</title>
<path fill="none" stroke="red" stroke-width="0.1" d="M239.23,-95.59C231.76,-111.72 224.5,-130.42 220.75,-148.37 211.17,-194.29 213.86,-247.48 218.46,-287.15"/>
<polygon fill="red" stroke="red" stroke-width="0.1" points="214.97,-287.44 219.67,-296.93 221.92,-286.58 214.97,-287.44"/>
<text text-anchor="middle" x="230.12" y="-196" font-family="Times New Roman,serif" font-size="9.00">1.035</text>
</g>
<!-- key 117952
bias 0.037
h_scaling 0.241
output 0.949&#45;&gt;key 7184
bias &#45;0.116
h_scaling 0.962
output 0.143 -->
<g id="edge17" class="edge">
<title>key 117952
bias 0.037
h_scaling 0.241
output 0.949&#45;&gt;key 7184
bias &#45;0.116
h_scaling 0.962
output 0.143</title>
<path fill="none" stroke="blue" stroke-width="0.1" d="M276.73,-99.67C293.82,-167.55 317.38,-294.66 288,-397.85 283.07,-415.18 274.04,-432.44 264.46,-447.48"/>
<polygon fill="blue" stroke="blue" stroke-width="0.1" points="261.7,-445.32 259.11,-455.59 267.54,-449.18 261.7,-445.32"/>
<text text-anchor="middle" x="312.62" y="-270.18" font-family="Times New Roman,serif" font-size="9.00">&#45;0.026</text>
</g>
<!-- key 117952
bias 0.037
h_scaling 0.241
output 0.949&#45;&gt;key 117952
bias 0.037
h_scaling 0.241
output 0.949 -->
<g id="edge12" class="edge">
<title>key 117952
bias 0.037
h_scaling 0.241
output 0.949&#45;&gt;key 117952
bias 0.037
h_scaling 0.241
output 0.949</title>
<path fill="none" stroke="red" stroke-width="0.1" d="M311.99,-64.16C323.27,-62.99 331.56,-58.45 331.56,-50.56 331.56,-45.13 327.64,-41.29 321.53,-39.04"/>
<polygon fill="red" stroke="red" stroke-width="0.1" points="322.51,-35.67 311.99,-36.96 321.01,-42.51 322.51,-35.67"/>
<text text-anchor="middle" x="341.68" y="-47.63" font-family="Times New Roman,serif" font-size="9.00">0.713</text>
</g>
</g>
</svg>
