<?xml version="1.0" encoding="UTF-8" standalone="no"?>
<!DOCTYPE svg PUBLIC "-//W3C//DTD SVG 1.1//EN"
 "http://www.w3.org/Graphics/SVG/1.1/DTD/svg11.dtd">
<!-- Generated by graphviz version 2.43.0 (0)
 -->
<!-- Title: %3 Pages: 1 -->
<svg width="431pt" height="1076pt"
 viewBox="0.00 0.00 431.00 1075.68" xmlns="http://www.w3.org/2000/svg" xmlns:xlink="http://www.w3.org/1999/xlink">
<g id="graph0" class="graph" transform="scale(1 1) rotate(0) translate(4 1071.68)">
<title>%3</title>
<polygon fill="white" stroke="transparent" points="-4,4 -4,-1071.68 427,-1071.68 427,4 -4,4"/>
<!-- ready
output 1.000 -->
<g id="node1" class="node">
<title>ready
output 1.000</title>
<polygon fill="yellow" stroke="black" points="339.5,-1067.68 262.5,-1067.68 262.5,-1039.68 339.5,-1039.68 339.5,-1067.68"/>
<text text-anchor="middle" x="301" y="-1056.48" font-family="Times,serif" font-size="9.00">ready</text>
<text text-anchor="middle" x="301" y="-1046.48" font-family="Times,serif" font-size="9.00">output 1.000</text>
</g>
<!-- key 154634
bias &#45;0.707
h_scaling 0.429
output 0.948 -->
<g id="node4" class="node">
<title>key 154634
bias &#45;0.707
h_scaling 0.429
output 0.948</title>
<ellipse fill="white" stroke="black" cx="160" cy="-930.04" rx="63.78" ry="63.78"/>
<text text-anchor="middle" x="160" y="-942.84" font-family="Times,serif" font-size="9.00">key 154634</text>
<text text-anchor="middle" x="160" y="-932.84" font-family="Times,serif" font-size="9.00">bias &#45;0.707</text>
<text text-anchor="middle" x="160" y="-922.84" font-family="Times,serif" font-size="9.00">h_scaling 0.429</text>
<text text-anchor="middle" x="160" y="-912.84" font-family="Times,serif" font-size="9.00">output 0.948</text>
</g>
<!-- ready
output 1.000&#45;&gt;key 154634
bias &#45;0.707
h_scaling 0.429
output 0.948 -->
<g id="edge10" class="edge">
<title>ready
output 1.000&#45;&gt;key 154634
bias &#45;0.707
h_scaling 0.429
output 0.948</title>
<path fill="none" stroke="red" stroke-width="0.1" d="M285.91,-1039.66C269.11,-1025.16 240.96,-1000.88 215.53,-978.94"/>
<polygon fill="red" stroke="red" stroke-width="0.1" points="217.6,-976.1 207.74,-972.22 213.03,-981.4 217.6,-976.1"/>
<text text-anchor="middle" x="277" y="-1014.48" font-family="Times,serif" font-size="9.00">1.119</text>
</g>
<!-- key 13332
bias &#45;0.359
h_scaling 0.652
output 0.373 -->
<g id="node6" class="node">
<title>key 13332
bias &#45;0.359
h_scaling 0.652
output 0.373</title>
<ellipse fill="white" stroke="black" cx="98" cy="-63.64" rx="63.78" ry="63.78"/>
<text text-anchor="middle" x="98" y="-76.44" font-family="Times,serif" font-size="9.00">key 13332</text>
<text text-anchor="middle" x="98" y="-66.44" font-family="Times,serif" font-size="9.00">bias &#45;0.359</text>
<text text-anchor="middle" x="98" y="-56.44" font-family="Times,serif" font-size="9.00">h_scaling 0.652</text>
<text text-anchor="middle" x="98" y="-46.44" font-family="Times,serif" font-size="9.00">output 0.373</text>
</g>
<!-- ready
output 1.000&#45;&gt;key 13332
bias &#45;0.359
h_scaling 0.652
output 0.373 -->
<g id="edge16" class="edge">
<title>ready
output 1.000&#45;&gt;key 13332
bias &#45;0.359
h_scaling 0.652
output 0.373</title>
<path fill="none" stroke="blue" stroke-width="0.1" d="M320.3,-1039.43C347.01,-1019.36 392,-978.51 392,-931.04 392,-931.04 392,-931.04 392,-235.92 392,-133.82 257.99,-91.51 170.92,-74.8"/>
<polygon fill="blue" stroke="blue" stroke-width="0.1" points="171.54,-71.35 161.07,-72.98 170.27,-78.24 171.54,-71.35"/>
<text text-anchor="middle" x="407.5" y="-581.28" font-family="Times,serif" font-size="9.00">&#45;0.373</text>
</g>
<!-- go
output 0.000 -->
<g id="node2" class="node">
<title>go
output 0.000</title>
<polygon fill="green" stroke="black" points="317.5,-770.76 240.5,-770.76 240.5,-742.76 317.5,-742.76 317.5,-770.76"/>
<text text-anchor="middle" x="279" y="-759.56" font-family="Times,serif" font-size="9.00">go</text>
<text text-anchor="middle" x="279" y="-749.56" font-family="Times,serif" font-size="9.00">output 0.000</text>
</g>
<!-- key 2939
bias &#45;0.357
h_scaling 0.280
output 0.414 -->
<g id="node7" class="node">
<title>key 2939
bias &#45;0.357
h_scaling 0.280
output 0.414</title>
<ellipse fill="white" stroke="black" cx="273" cy="-410.2" rx="63.78" ry="63.78"/>
<text text-anchor="middle" x="273" y="-423" font-family="Times,serif" font-size="9.00">key 2939</text>
<text text-anchor="middle" x="273" y="-413" font-family="Times,serif" font-size="9.00">bias &#45;0.357</text>
<text text-anchor="middle" x="273" y="-403" font-family="Times,serif" font-size="9.00">h_scaling 0.280</text>
<text text-anchor="middle" x="273" y="-393" font-family="Times,serif" font-size="9.00">output 0.414</text>
</g>
<!-- go
output 0.000&#45;&gt;key 2939
bias &#45;0.357
h_scaling 0.280
output 0.414 -->
<g id="edge1" class="edge">
<title>go
output 0.000&#45;&gt;key 2939
bias &#45;0.357
h_scaling 0.280
output 0.414</title>
<path fill="none" stroke="red" stroke-width="0.1" d="M278.77,-742.67C278.04,-700.85 275.74,-568.28 274.27,-484.01"/>
<polygon fill="red" stroke="red" stroke-width="0.1" points="277.77,-483.92 274.09,-473.98 270.77,-484.04 277.77,-483.92"/>
<text text-anchor="middle" x="291" y="-581.28" font-family="Times,serif" font-size="9.00">0.883</text>
</g>
<!-- key 2940
bias &#45;0.579
h_scaling 0.200
output 0.346 -->
<g id="node8" class="node">
<title>key 2940
bias &#45;0.579
h_scaling 0.200
output 0.346</title>
<ellipse fill="white" stroke="black" cx="141" cy="-583.48" rx="63.78" ry="63.78"/>
<text text-anchor="middle" x="141" y="-596.28" font-family="Times,serif" font-size="9.00">key 2940</text>
<text text-anchor="middle" x="141" y="-586.28" font-family="Times,serif" font-size="9.00">bias &#45;0.579</text>
<text text-anchor="middle" x="141" y="-576.28" font-family="Times,serif" font-size="9.00">h_scaling 0.200</text>
<text text-anchor="middle" x="141" y="-566.28" font-family="Times,serif" font-size="9.00">output 0.346</text>
</g>
<!-- go
output 0.000&#45;&gt;key 2940
bias &#45;0.579
h_scaling 0.200
output 0.346 -->
<g id="edge7" class="edge">
<title>go
output 0.000&#45;&gt;key 2940
bias &#45;0.579
h_scaling 0.200
output 0.346</title>
<path fill="none" stroke="red" stroke-width="0.1" d="M269.48,-742.65C260.12,-729.86 245.35,-709.95 232,-693.12 218.27,-675.8 202.98,-657.27 188.9,-640.5"/>
<polygon fill="red" stroke="red" stroke-width="0.1" points="191.22,-637.82 182.1,-632.42 185.87,-642.33 191.22,-637.82"/>
<text text-anchor="middle" x="231" y="-667.92" font-family="Times,serif" font-size="9.00">1.049</text>
</g>
<!-- output
bias 0.954
h_scaling 0.043
output 0.017 -->
<g id="node3" class="node">
<title>output
bias 0.954
h_scaling 0.043
output 0.017</title>
<ellipse fill="lightblue" stroke="black" cx="152" cy="-236.92" rx="63.78" ry="63.78"/>
<text text-anchor="middle" x="152" y="-249.72" font-family="Times,serif" font-size="9.00">output</text>
<text text-anchor="middle" x="152" y="-239.72" font-family="Times,serif" font-size="9.00">bias 0.954</text>
<text text-anchor="middle" x="152" y="-229.72" font-family="Times,serif" font-size="9.00">h_scaling 0.043</text>
<text text-anchor="middle" x="152" y="-219.72" font-family="Times,serif" font-size="9.00">output 0.017</text>
</g>
<!-- output
bias 0.954
h_scaling 0.043
output 0.017&#45;&gt;key 13332
bias &#45;0.359
h_scaling 0.652
output 0.373 -->
<g id="edge4" class="edge">
<title>output
bias 0.954
h_scaling 0.043
output 0.017&#45;&gt;key 13332
bias &#45;0.359
h_scaling 0.652
output 0.373</title>
<path fill="none" stroke="blue" stroke-width="0.1" d="M138.36,-174.65C135.81,-164.77 132.99,-154.69 130,-145.28 128.65,-141.05 127.19,-136.72 125.66,-132.38"/>
<polygon fill="blue" stroke="blue" stroke-width="0.1" points="128.92,-131.08 122.22,-122.87 122.33,-133.46 128.92,-131.08"/>
<text text-anchor="middle" x="147.5" y="-148.08" font-family="Times,serif" font-size="9.00">&#45;0.961</text>
</g>
<!-- output
bias 0.954
h_scaling 0.043
output 0.017&#45;&gt;key 2940
bias &#45;0.579
h_scaling 0.200
output 0.346 -->
<g id="edge9" class="edge">
<title>output
bias 0.954
h_scaling 0.043
output 0.017&#45;&gt;key 2940
bias &#45;0.579
h_scaling 0.200
output 0.346</title>
<path fill="none" stroke="red" stroke-width="0.1" d="M150,-300.57C148.12,-359.46 145.31,-447.57 143.33,-509.58"/>
<polygon fill="red" stroke="red" stroke-width="0.1" points="139.83,-509.57 143,-519.68 146.82,-509.8 139.83,-509.57"/>
<text text-anchor="middle" x="162" y="-408" font-family="Times,serif" font-size="9.00">0.707</text>
</g>
<!-- key 154634
bias &#45;0.707
h_scaling 0.429
output 0.948&#45;&gt;key 154634
bias &#45;0.707
h_scaling 0.429
output 0.948 -->
<g id="edge20" class="edge">
<title>key 154634
bias &#45;0.707
h_scaling 0.429
output 0.948&#45;&gt;key 154634
bias &#45;0.707
h_scaling 0.429
output 0.948</title>
<path fill="none" stroke="red" stroke-width="0.1" d="M221.94,-945.33C233.5,-943.45 241.64,-938.35 241.64,-930.04 241.64,-924.32 237.79,-920.12 231.63,-917.45"/>
<polygon fill="red" stroke="red" stroke-width="0.1" points="232.52,-914.06 221.94,-914.74 230.63,-920.8 232.52,-914.06"/>
<text text-anchor="middle" x="255.64" y="-927.84" font-family="Times,serif" font-size="9.00">0.456</text>
</g>
<!-- key 240812
bias &#45;0.396
h_scaling 0.392
output 0.172 -->
<g id="node5" class="node">
<title>key 240812
bias &#45;0.396
h_scaling 0.392
output 0.172</title>
<ellipse fill="white" stroke="black" cx="159" cy="-756.76" rx="63.78" ry="63.78"/>
<text text-anchor="middle" x="159" y="-769.56" font-family="Times,serif" font-size="9.00">key 240812</text>
<text text-anchor="middle" x="159" y="-759.56" font-family="Times,serif" font-size="9.00">bias &#45;0.396</text>
<text text-anchor="middle" x="159" y="-749.56" font-family="Times,serif" font-size="9.00">h_scaling 0.392</text>
<text text-anchor="middle" x="159" y="-739.56" font-family="Times,serif" font-size="9.00">output 0.172</text>
</g>
<!-- key 154634
bias &#45;0.707
h_scaling 0.429
output 0.948&#45;&gt;key 240812
bias &#45;0.396
h_scaling 0.392
output 0.172 -->
<g id="edge13" class="edge">
<title>key 154634
bias &#45;0.707
h_scaling 0.429
output 0.948&#45;&gt;key 240812
bias &#45;0.396
h_scaling 0.392
output 0.172</title>
<path fill="none" stroke="red" stroke-width="0.1" d="M163.02,-866.14C163.2,-856.84 163.22,-847.37 163,-838.4 162.94,-835.88 162.86,-833.33 162.78,-830.74"/>
<polygon fill="red" stroke="red" stroke-width="0.1" points="166.28,-830.57 162.42,-820.7 159.28,-830.81 166.28,-830.57"/>
<text text-anchor="middle" x="177" y="-841.2" font-family="Times,serif" font-size="9.00">0.604</text>
</g>
<!-- key 154634
bias &#45;0.707
h_scaling 0.429
output 0.948&#45;&gt;key 13332
bias &#45;0.359
h_scaling 0.652
output 0.373 -->
<g id="edge15" class="edge">
<title>key 154634
bias &#45;0.707
h_scaling 0.429
output 0.948&#45;&gt;key 13332
bias &#45;0.359
h_scaling 0.652
output 0.373</title>
<path fill="none" stroke="blue" stroke-width="0.1" d="M104.04,-898.98C57.9,-869.68 0,-820.42 0,-757.76 0,-757.76 0,-757.76 0,-235.92 0,-192.68 23.82,-150.44 47.98,-118.73"/>
<polygon fill="blue" stroke="blue" stroke-width="0.1" points="51.03,-120.51 54.45,-110.48 45.52,-116.19 51.03,-120.51"/>
<text text-anchor="middle" x="15.5" y="-494.64" font-family="Times,serif" font-size="9.00">&#45;0.266</text>
</g>
<!-- key 154634
bias &#45;0.707
h_scaling 0.429
output 0.948&#45;&gt;key 2939
bias &#45;0.357
h_scaling 0.280
output 0.414 -->
<g id="edge19" class="edge">
<title>key 154634
bias &#45;0.707
h_scaling 0.429
output 0.948&#45;&gt;key 2939
bias &#45;0.357
h_scaling 0.280
output 0.414</title>
<path fill="none" stroke="blue" stroke-width="0.1" d="M219.64,-907.62C257.83,-890.44 304.32,-862.2 327,-820.4 358.9,-761.58 323.06,-585.25 309,-519.84 306.19,-506.76 302.36,-493.04 298.26,-479.93"/>
<polygon fill="blue" stroke="blue" stroke-width="0.1" points="301.47,-478.49 295.07,-470.04 294.81,-480.63 301.47,-478.49"/>
<text text-anchor="middle" x="350.5" y="-667.92" font-family="Times,serif" font-size="9.00">&#45;0.018</text>
</g>
<!-- key 154634
bias &#45;0.707
h_scaling 0.429
output 0.948&#45;&gt;key 2940
bias &#45;0.579
h_scaling 0.200
output 0.346 -->
<g id="edge11" class="edge">
<title>key 154634
bias &#45;0.707
h_scaling 0.429
output 0.948&#45;&gt;key 2940
bias &#45;0.579
h_scaling 0.200
output 0.346</title>
<path fill="none" stroke="blue" stroke-width="0.1" d="M109.27,-891.43C88.26,-872.69 66.21,-848.12 55,-820.4 33.8,-767.95 36.41,-746.54 55,-693.12 62.17,-672.52 75.04,-652.88 88.69,-636.11"/>
<polygon fill="blue" stroke="blue" stroke-width="0.1" points="91.66,-638.02 95.43,-628.12 86.3,-633.51 91.66,-638.02"/>
<text text-anchor="middle" x="70.5" y="-754.56" font-family="Times,serif" font-size="9.00">&#45;0.258</text>
</g>
<!-- key 240812
bias &#45;0.396
h_scaling 0.392
output 0.172&#45;&gt;key 154634
bias &#45;0.707
h_scaling 0.429
output 0.948 -->
<g id="edge18" class="edge">
<title>key 240812
bias &#45;0.396
h_scaling 0.392
output 0.172&#45;&gt;key 154634
bias &#45;0.707
h_scaling 0.429
output 0.948</title>
<path fill="none" stroke="red" stroke-width="0.1" d="M132.77,-814.76C130.15,-825.8 129.08,-837.36 131,-848.4 131.72,-852.52 132.63,-856.71 133.68,-860.9"/>
<polygon fill="red" stroke="red" stroke-width="0.1" points="130.34,-861.95 136.37,-870.66 137.09,-860.09 130.34,-861.95"/>
<text text-anchor="middle" x="145" y="-841.2" font-family="Times,serif" font-size="9.00">0.941</text>
</g>
<!-- key 240812
bias &#45;0.396
h_scaling 0.392
output 0.172&#45;&gt;key 2940
bias &#45;0.579
h_scaling 0.200
output 0.346 -->
<g id="edge14" class="edge">
<title>key 240812
bias &#45;0.396
h_scaling 0.392
output 0.172&#45;&gt;key 2940
bias &#45;0.579
h_scaling 0.200
output 0.346</title>
<path fill="none" stroke="blue" stroke-width="0.1" d="M152.45,-693.44C151.21,-681.63 149.9,-669.18 148.63,-657.09"/>
<polygon fill="blue" stroke="blue" stroke-width="0.1" points="152.1,-656.62 147.57,-647.04 145.14,-657.35 152.1,-656.62"/>
<text text-anchor="middle" x="165.5" y="-667.92" font-family="Times,serif" font-size="9.00">&#45;0.372</text>
</g>
<!-- key 13332
bias &#45;0.359
h_scaling 0.652
output 0.373&#45;&gt;output
bias 0.954
h_scaling 0.043
output 0.017 -->
<g id="edge3" class="edge">
<title>key 13332
bias &#45;0.359
h_scaling 0.652
output 0.373&#45;&gt;output
bias 0.954
h_scaling 0.043
output 0.017</title>
<path fill="none" stroke="blue" stroke-width="0.1" d="M94.05,-127.28C94.78,-136.8 96.29,-146.4 99,-155.28 101.27,-162.72 104.46,-170.1 108.16,-177.22"/>
<polygon fill="blue" stroke="blue" stroke-width="0.1" points="105.16,-179.04 113.09,-186.07 111.28,-175.63 105.16,-179.04"/>
<text text-anchor="middle" x="114.5" y="-148.08" font-family="Times,serif" font-size="9.00">&#45;0.974</text>
</g>
<!-- key 13332
bias &#45;0.359
h_scaling 0.652
output 0.373&#45;&gt;key 13332
bias &#45;0.359
h_scaling 0.652
output 0.373 -->
<g id="edge21" class="edge">
<title>key 13332
bias &#45;0.359
h_scaling 0.652
output 0.373&#45;&gt;key 13332
bias &#45;0.359
h_scaling 0.652
output 0.373</title>
<path fill="none" stroke="red" stroke-width="0.1" d="M159.94,-78.94C171.5,-77.05 179.64,-71.95 179.64,-63.64 179.64,-57.92 175.79,-53.73 169.63,-51.05"/>
<polygon fill="red" stroke="red" stroke-width="0.1" points="170.52,-47.66 159.94,-48.34 168.63,-54.4 170.52,-47.66"/>
<text text-anchor="middle" x="193.64" y="-61.44" font-family="Times,serif" font-size="9.00">0.682</text>
</g>
<!-- key 2939
bias &#45;0.357
h_scaling 0.280
output 0.414&#45;&gt;output
bias 0.954
h_scaling 0.043
output 0.017 -->
<g id="edge2" class="edge">
<title>key 2939
bias &#45;0.357
h_scaling 0.280
output 0.414&#45;&gt;output
bias 0.954
h_scaling 0.043
output 0.017</title>
<path fill="none" stroke="blue" stroke-width="0.1" d="M236.7,-357.81C223.3,-338.84 208,-317.19 194.13,-297.55"/>
<polygon fill="blue" stroke="blue" stroke-width="0.1" points="196.91,-295.42 188.28,-289.27 191.19,-299.46 196.91,-295.42"/>
<text text-anchor="middle" x="227.5" y="-321.36" font-family="Times,serif" font-size="9.00">&#45;1.000</text>
</g>
<!-- key 2939
bias &#45;0.357
h_scaling 0.280
output 0.414&#45;&gt;key 2940
bias &#45;0.579
h_scaling 0.200
output 0.346 -->
<g id="edge5" class="edge">
<title>key 2939
bias &#45;0.357
h_scaling 0.280
output 0.414&#45;&gt;key 2940
bias &#45;0.579
h_scaling 0.200
output 0.346</title>
<path fill="none" stroke="red" stroke-width="0.1" d="M246.22,-468.5C239.9,-479.96 232.72,-491.6 225,-501.84 216.57,-513.01 206.56,-524.03 196.44,-534.17"/>
<polygon fill="red" stroke="red" stroke-width="0.1" points="193.77,-531.89 189.08,-541.38 198.67,-536.89 193.77,-531.89"/>
<text text-anchor="middle" x="245" y="-494.64" font-family="Times,serif" font-size="9.00">0.923</text>
</g>
<!-- key 2940
bias &#45;0.579
h_scaling 0.200
output 0.346&#45;&gt;output
bias 0.954
h_scaling 0.043
output 0.017 -->
<g id="edge8" class="edge">
<title>key 2940
bias &#45;0.579
h_scaling 0.200
output 0.346&#45;&gt;output
bias 0.954
h_scaling 0.043
output 0.017</title>
<path fill="none" stroke="blue" stroke-width="0.1" d="M120.83,-523.07C116.36,-507.25 112.27,-490.06 110,-473.84 102.16,-417.81 99.62,-402.17 110,-346.56 112.6,-332.64 116.91,-318.21 121.82,-304.59"/>
<polygon fill="blue" stroke="blue" stroke-width="0.1" points="125.24,-305.43 125.47,-294.83 118.69,-302.97 125.24,-305.43"/>
<text text-anchor="middle" x="125.5" y="-408" font-family="Times,serif" font-size="9.00">&#45;0.792</text>
</g>
<!-- key 2940
bias &#45;0.579
h_scaling 0.200
output 0.346&#45;&gt;key 13332
bias &#45;0.359
h_scaling 0.652
output 0.373 -->
<g id="edge12" class="edge">
<title>key 2940
bias &#45;0.579
h_scaling 0.200
output 0.346&#45;&gt;key 13332
bias &#45;0.359
h_scaling 0.652
output 0.373</title>
<path fill="none" stroke="red" stroke-width="0.1" d="M115.38,-525.07C109.07,-508.8 102.98,-490.87 99,-473.84 68.51,-343.48 67.42,-306.65 79,-173.28 80.04,-161.28 81.72,-148.62 83.65,-136.35"/>
<polygon fill="red" stroke="red" stroke-width="0.1" points="87.16,-136.59 85.33,-126.16 80.25,-135.46 87.16,-136.59"/>
<text text-anchor="middle" x="88" y="-321.36" font-family="Times,serif" font-size="9.00">0.846</text>
</g>
<!-- key 2940
bias &#45;0.579
h_scaling 0.200
output 0.346&#45;&gt;key 2939
bias &#45;0.357
h_scaling 0.280
output 0.414 -->
<g id="edge6" class="edge">
<title>key 2940
bias &#45;0.579
h_scaling 0.200
output 0.346&#45;&gt;key 2939
bias &#45;0.357
h_scaling 0.280
output 0.414</title>
<path fill="none" stroke="red" stroke-width="0.1" d="M170.14,-526.37C177.09,-514.59 184.86,-502.52 193,-491.84 200.91,-481.46 210.07,-471.07 219.31,-461.35"/>
<polygon fill="red" stroke="red" stroke-width="0.1" points="221.92,-463.68 226.37,-454.07 216.89,-458.81 221.92,-463.68"/>
<text text-anchor="middle" x="207" y="-494.64" font-family="Times,serif" font-size="9.00">1.054</text>
</g>
<!-- key 2940
bias &#45;0.579
h_scaling 0.200
output 0.346&#45;&gt;key 2940
bias &#45;0.579
h_scaling 0.200
output 0.346 -->
<g id="edge17" class="edge">
<title>key 2940
bias &#45;0.579
h_scaling 0.200
output 0.346&#45;&gt;key 2940
bias &#45;0.579
h_scaling 0.200
output 0.346</title>
<path fill="none" stroke="blue" stroke-width="0.1" d="M202.94,-598.77C214.5,-596.89 222.64,-591.79 222.64,-583.48 222.64,-577.76 218.79,-573.56 212.63,-570.89"/>
<polygon fill="blue" stroke="blue" stroke-width="0.1" points="213.52,-567.5 202.94,-568.18 211.63,-574.24 213.52,-567.5"/>
<text text-anchor="middle" x="238.14" y="-581.28" font-family="Times,serif" font-size="9.00">&#45;0.041</text>
</g>
</g>
</svg>
