<?xml version="1.0" encoding="UTF-8" standalone="no"?>
<!DOCTYPE svg PUBLIC "-//W3C//DTD SVG 1.1//EN"
 "http://www.w3.org/Graphics/SVG/1.1/DTD/svg11.dtd">
<!-- Generated by graphviz version 2.43.0 (0)
 -->
<!-- Title: %3 Pages: 1 -->
<svg width="509pt" height="729pt"
 viewBox="0.00 0.00 509.00 729.12" xmlns="http://www.w3.org/2000/svg" xmlns:xlink="http://www.w3.org/1999/xlink">
<g id="graph0" class="graph" transform="scale(1 1) rotate(0) translate(4 725.12)">
<title>%3</title>
<polygon fill="white" stroke="transparent" points="-4,4 -4,-725.12 505,-725.12 505,4 -4,4"/>
<!-- ready
output 0.000 -->
<g id="node1" class="node">
<title>ready
output 0.000</title>
<polygon fill="yellow" stroke="black" points="137.5,-721.12 60.5,-721.12 60.5,-693.12 137.5,-693.12 137.5,-721.12"/>
<text text-anchor="middle" x="99" y="-709.92" font-family="Times,serif" font-size="9.00">ready</text>
<text text-anchor="middle" x="99" y="-699.92" font-family="Times,serif" font-size="9.00">output 0.000</text>
</g>
<!-- key 19081
bias &#45;0.447
h_scaling 1.000
output 0.565 -->
<g id="node4" class="node">
<title>key 19081
bias &#45;0.447
h_scaling 1.000
output 0.565</title>
<ellipse fill="white" stroke="black" cx="99" cy="-583.48" rx="63.78" ry="63.78"/>
<text text-anchor="middle" x="99" y="-596.28" font-family="Times,serif" font-size="9.00">key 19081</text>
<text text-anchor="middle" x="99" y="-586.28" font-family="Times,serif" font-size="9.00">bias &#45;0.447</text>
<text text-anchor="middle" x="99" y="-576.28" font-family="Times,serif" font-size="9.00">h_scaling 1.000</text>
<text text-anchor="middle" x="99" y="-566.28" font-family="Times,serif" font-size="9.00">output 0.565</text>
</g>
<!-- ready
output 0.000&#45;&gt;key 19081
bias &#45;0.447
h_scaling 1.000
output 0.565 -->
<g id="edge6" class="edge">
<title>ready
output 0.000&#45;&gt;key 19081
bias &#45;0.447
h_scaling 1.000
output 0.565</title>
<path fill="none" stroke="red" stroke-width="0.1" d="M99,-693.1C99,-684.02 99,-671.11 99,-657.35"/>
<polygon fill="red" stroke="red" stroke-width="0.1" points="102.5,-657.21 99,-647.21 95.5,-657.21 102.5,-657.21"/>
<text text-anchor="middle" x="113" y="-667.92" font-family="Times,serif" font-size="9.00">0.499</text>
</g>
<!-- key 18296
bias &#45;0.656
h_scaling 1.000
output 0.657 -->
<g id="node5" class="node">
<title>key 18296
bias &#45;0.656
h_scaling 1.000
output 0.657</title>
<ellipse fill="white" stroke="black" cx="174" cy="-63.64" rx="63.78" ry="63.78"/>
<text text-anchor="middle" x="174" y="-76.44" font-family="Times,serif" font-size="9.00">key 18296</text>
<text text-anchor="middle" x="174" y="-66.44" font-family="Times,serif" font-size="9.00">bias &#45;0.656</text>
<text text-anchor="middle" x="174" y="-56.44" font-family="Times,serif" font-size="9.00">h_scaling 1.000</text>
<text text-anchor="middle" x="174" y="-46.44" font-family="Times,serif" font-size="9.00">output 0.657</text>
</g>
<!-- ready
output 0.000&#45;&gt;key 18296
bias &#45;0.656
h_scaling 1.000
output 0.657 -->
<g id="edge13" class="edge">
<title>ready
output 0.000&#45;&gt;key 18296
bias &#45;0.656
h_scaling 1.000
output 0.657</title>
<path fill="none" stroke="red" stroke-width="0.1" d="M77.52,-692.95C48.4,-673.27 0,-633.22 0,-584.48 0,-584.48 0,-584.48 0,-235.92 0,-172.94 58.61,-125.37 107.8,-96.54"/>
<polygon fill="red" stroke="red" stroke-width="0.1" points="109.59,-99.54 116.54,-91.55 106.12,-93.46 109.59,-99.54"/>
<text text-anchor="middle" x="14" y="-408" font-family="Times,serif" font-size="9.00">0.456</text>
</g>
<!-- key 1562
bias 0.569
h_scaling 1.000
output 0.006 -->
<g id="node6" class="node">
<title>key 1562
bias 0.569
h_scaling 1.000
output 0.006</title>
<ellipse fill="white" stroke="black" cx="228" cy="-236.92" rx="63.78" ry="63.78"/>
<text text-anchor="middle" x="228" y="-249.72" font-family="Times,serif" font-size="9.00">key 1562</text>
<text text-anchor="middle" x="228" y="-239.72" font-family="Times,serif" font-size="9.00">bias 0.569</text>
<text text-anchor="middle" x="228" y="-229.72" font-family="Times,serif" font-size="9.00">h_scaling 1.000</text>
<text text-anchor="middle" x="228" y="-219.72" font-family="Times,serif" font-size="9.00">output 0.006</text>
</g>
<!-- ready
output 0.000&#45;&gt;key 1562
bias 0.569
h_scaling 1.000
output 0.006 -->
<g id="edge12" class="edge">
<title>ready
output 0.000&#45;&gt;key 1562
bias 0.569
h_scaling 1.000
output 0.006</title>
<path fill="none" stroke="blue" stroke-width="0.1" d="M137.63,-701.8C170.56,-697.24 214.22,-688.78 225,-675.12 268.15,-620.45 250.98,-419.48 237.79,-310.06"/>
<polygon fill="blue" stroke="blue" stroke-width="0.1" points="241.26,-309.59 236.57,-300.09 234.31,-310.44 241.26,-309.59"/>
<text text-anchor="middle" x="267.5" y="-494.64" font-family="Times,serif" font-size="9.00">&#45;0.207</text>
</g>
<!-- go
output 0.000 -->
<g id="node2" class="node">
<title>go
output 0.000</title>
<polygon fill="green" stroke="black" points="361.5,-721.12 284.5,-721.12 284.5,-693.12 361.5,-693.12 361.5,-721.12"/>
<text text-anchor="middle" x="323" y="-709.92" font-family="Times,serif" font-size="9.00">go</text>
<text text-anchor="middle" x="323" y="-699.92" font-family="Times,serif" font-size="9.00">output 0.000</text>
</g>
<!-- go
output 0.000&#45;&gt;key 19081
bias &#45;0.447
h_scaling 1.000
output 0.565 -->
<g id="edge10" class="edge">
<title>go
output 0.000&#45;&gt;key 19081
bias &#45;0.447
h_scaling 1.000
output 0.565</title>
<path fill="none" stroke="blue" stroke-width="0.1" d="M288.15,-693.01C275.33,-687.86 260.82,-681.62 248,-675.12 218.4,-660.11 186.83,-641.34 160.41,-624.77"/>
<polygon fill="blue" stroke="blue" stroke-width="0.1" points="161.98,-621.63 151.65,-619.25 158.24,-627.55 161.98,-621.63"/>
<text text-anchor="middle" x="263.5" y="-667.92" font-family="Times,serif" font-size="9.00">&#45;0.263</text>
</g>
<!-- go
output 0.000&#45;&gt;key 18296
bias &#45;0.656
h_scaling 1.000
output 0.657 -->
<g id="edge4" class="edge">
<title>go
output 0.000&#45;&gt;key 18296
bias &#45;0.656
h_scaling 1.000
output 0.657</title>
<path fill="none" stroke="blue" stroke-width="0.1" d="M361.62,-693.22C405.18,-675.95 470,-640.79 470,-584.48 470,-584.48 470,-584.48 470,-235.92 470,-133.16 334.7,-91.06 247.05,-74.56"/>
<polygon fill="blue" stroke="blue" stroke-width="0.1" points="247.6,-71.11 237.14,-72.77 246.35,-78 247.6,-71.11"/>
<text text-anchor="middle" x="485.5" y="-408" font-family="Times,serif" font-size="9.00">&#45;0.978</text>
</g>
<!-- go
output 0.000&#45;&gt;key 1562
bias 0.569
h_scaling 1.000
output 0.006 -->
<g id="edge1" class="edge">
<title>go
output 0.000&#45;&gt;key 1562
bias 0.569
h_scaling 1.000
output 0.006</title>
<path fill="none" stroke="red" stroke-width="0.1" d="M321.31,-692.93C314.84,-643.34 290.08,-463.46 254,-318.56 253.09,-314.92 252.11,-311.2 251.07,-307.47"/>
<polygon fill="red" stroke="red" stroke-width="0.1" points="254.35,-306.19 248.22,-297.55 247.62,-308.13 254.35,-306.19"/>
<text text-anchor="middle" x="305" y="-494.64" font-family="Times,serif" font-size="9.00">0.672</text>
</g>
<!-- key 148477
bias &#45;0.867
h_scaling 1.000
output 0.013 -->
<g id="node7" class="node">
<title>key 148477
bias &#45;0.867
h_scaling 1.000
output 0.013</title>
<ellipse fill="white" stroke="black" cx="370" cy="-410.2" rx="63.78" ry="63.78"/>
<text text-anchor="middle" x="370" y="-423" font-family="Times,serif" font-size="9.00">key 148477</text>
<text text-anchor="middle" x="370" y="-413" font-family="Times,serif" font-size="9.00">bias &#45;0.867</text>
<text text-anchor="middle" x="370" y="-403" font-family="Times,serif" font-size="9.00">h_scaling 1.000</text>
<text text-anchor="middle" x="370" y="-393" font-family="Times,serif" font-size="9.00">output 0.013</text>
</g>
<!-- go
output 0.000&#45;&gt;key 148477
bias &#45;0.867
h_scaling 1.000
output 0.013 -->
<g id="edge14" class="edge">
<title>go
output 0.000&#45;&gt;key 148477
bias &#45;0.867
h_scaling 1.000
output 0.013</title>
<path fill="none" stroke="red" stroke-width="0.1" d="M325.08,-693.06C330.81,-657.1 347.16,-554.54 358.46,-483.59"/>
<polygon fill="red" stroke="red" stroke-width="0.1" points="361.98,-483.79 360.09,-473.36 355.06,-482.69 361.98,-483.79"/>
<text text-anchor="middle" x="365" y="-581.28" font-family="Times,serif" font-size="9.00">1.255</text>
</g>
<!-- output
bias &#45;0.653
h_scaling 1.000
output 0.931 -->
<g id="node3" class="node">
<title>output
bias &#45;0.653
h_scaling 1.000
output 0.931</title>
<ellipse fill="lightblue" stroke="black" cx="148" cy="-410.2" rx="63.78" ry="63.78"/>
<text text-anchor="middle" x="148" y="-423" font-family="Times,serif" font-size="9.00">output</text>
<text text-anchor="middle" x="148" y="-413" font-family="Times,serif" font-size="9.00">bias &#45;0.653</text>
<text text-anchor="middle" x="148" y="-403" font-family="Times,serif" font-size="9.00">h_scaling 1.000</text>
<text text-anchor="middle" x="148" y="-393" font-family="Times,serif" font-size="9.00">output 0.931</text>
</g>
<!-- output
bias &#45;0.653
h_scaling 1.000
output 0.931&#45;&gt;key 19081
bias &#45;0.447
h_scaling 1.000
output 0.565 -->
<g id="edge11" class="edge">
<title>output
bias &#45;0.653
h_scaling 1.000
output 0.931&#45;&gt;key 19081
bias &#45;0.447
h_scaling 1.000
output 0.565</title>
<path fill="none" stroke="blue" stroke-width="0.1" d="M134.65,-472.86C132.27,-482.6 129.69,-492.53 127,-501.84 125.9,-505.65 124.72,-509.55 123.5,-513.48"/>
<polygon fill="blue" stroke="blue" stroke-width="0.1" points="120.08,-512.66 120.37,-523.26 126.75,-514.8 120.08,-512.66"/>
<text text-anchor="middle" x="145.5" y="-494.64" font-family="Times,serif" font-size="9.00">&#45;0.132</text>
</g>
<!-- output
bias &#45;0.653
h_scaling 1.000
output 0.931&#45;&gt;key 1562
bias 0.569
h_scaling 1.000
output 0.006 -->
<g id="edge9" class="edge">
<title>output
bias &#45;0.653
h_scaling 1.000
output 0.931&#45;&gt;key 1562
bias 0.569
h_scaling 1.000
output 0.006</title>
<path fill="none" stroke="blue" stroke-width="0.1" d="M174.64,-352.16C181.82,-336.79 189.65,-320.02 197.05,-304.19"/>
<polygon fill="blue" stroke="blue" stroke-width="0.1" points="200.28,-305.54 201.34,-295 193.94,-302.57 200.28,-305.54"/>
<text text-anchor="middle" x="203.5" y="-321.36" font-family="Times,serif" font-size="9.00">&#45;1.000</text>
</g>
<!-- key 19081
bias &#45;0.447
h_scaling 1.000
output 0.565&#45;&gt;output
bias &#45;0.653
h_scaling 1.000
output 0.931 -->
<g id="edge16" class="edge">
<title>key 19081
bias &#45;0.447
h_scaling 1.000
output 0.565&#45;&gt;output
bias &#45;0.653
h_scaling 1.000
output 0.931</title>
<path fill="none" stroke="red" stroke-width="0.1" d="M90.79,-520.36C91.07,-510.68 92.29,-500.89 95,-491.84 97.23,-484.39 100.39,-476.99 104.07,-469.87"/>
<polygon fill="red" stroke="red" stroke-width="0.1" points="107.2,-471.46 108.99,-461.02 101.08,-468.06 107.2,-471.46"/>
<text text-anchor="middle" x="109" y="-494.64" font-family="Times,serif" font-size="9.00">0.753</text>
</g>
<!-- key 19081
bias &#45;0.447
h_scaling 1.000
output 0.565&#45;&gt;key 19081
bias &#45;0.447
h_scaling 1.000
output 0.565 -->
<g id="edge8" class="edge">
<title>key 19081
bias &#45;0.447
h_scaling 1.000
output 0.565&#45;&gt;key 19081
bias &#45;0.447
h_scaling 1.000
output 0.565</title>
<path fill="none" stroke="red" stroke-width="0.1" d="M160.94,-598.77C172.5,-596.89 180.64,-591.79 180.64,-583.48 180.64,-577.76 176.79,-573.56 170.63,-570.89"/>
<polygon fill="red" stroke="red" stroke-width="0.1" points="171.52,-567.5 160.94,-568.18 169.63,-574.24 171.52,-567.5"/>
<text text-anchor="middle" x="194.64" y="-581.28" font-family="Times,serif" font-size="9.00">1.018</text>
</g>
<!-- key 19081
bias &#45;0.447
h_scaling 1.000
output 0.565&#45;&gt;key 18296
bias &#45;0.656
h_scaling 1.000
output 0.657 -->
<g id="edge7" class="edge">
<title>key 19081
bias &#45;0.447
h_scaling 1.000
output 0.565&#45;&gt;key 18296
bias &#45;0.656
h_scaling 1.000
output 0.657</title>
<path fill="none" stroke="red" stroke-width="0.1" d="M83.13,-521.67C79.76,-506.18 76.71,-489.49 75,-473.84 60.37,-339.75 76.36,-301.89 117,-173.28 121.89,-157.81 128.92,-141.92 136.38,-127.24"/>
<polygon fill="red" stroke="red" stroke-width="0.1" points="139.54,-128.75 141.06,-118.27 133.33,-125.51 139.54,-128.75"/>
<text text-anchor="middle" x="90" y="-321.36" font-family="Times,serif" font-size="9.00">1.069</text>
</g>
<!-- key 18296
bias &#45;0.656
h_scaling 1.000
output 0.657&#45;&gt;output
bias &#45;0.653
h_scaling 1.000
output 0.931 -->
<g id="edge5" class="edge">
<title>key 18296
bias &#45;0.656
h_scaling 1.000
output 0.657&#45;&gt;output
bias &#45;0.653
h_scaling 1.000
output 0.931</title>
<path fill="none" stroke="red" stroke-width="0.1" d="M144.7,-120.43C137.44,-136.99 130.69,-155.47 127,-173.28 115.7,-227.86 122.25,-290.79 130.92,-337.92"/>
<polygon fill="red" stroke="red" stroke-width="0.1" points="127.54,-338.86 132.86,-348.03 134.42,-337.55 127.54,-338.86"/>
<text text-anchor="middle" x="141" y="-234.72" font-family="Times,serif" font-size="9.00">1.048</text>
</g>
<!-- key 18296
bias &#45;0.656
h_scaling 1.000
output 0.657&#45;&gt;key 18296
bias &#45;0.656
h_scaling 1.000
output 0.657 -->
<g id="edge19" class="edge">
<title>key 18296
bias &#45;0.656
h_scaling 1.000
output 0.657&#45;&gt;key 18296
bias &#45;0.656
h_scaling 1.000
output 0.657</title>
<path fill="none" stroke="red" stroke-width="0.1" d="M235.94,-78.94C247.5,-77.05 255.64,-71.95 255.64,-63.64 255.64,-57.92 251.79,-53.73 245.63,-51.05"/>
<polygon fill="red" stroke="red" stroke-width="0.1" points="246.52,-47.66 235.94,-48.34 244.63,-54.4 246.52,-47.66"/>
<text text-anchor="middle" x="269.64" y="-61.44" font-family="Times,serif" font-size="9.00">0.292</text>
</g>
<!-- key 18296
bias &#45;0.656
h_scaling 1.000
output 0.657&#45;&gt;key 1562
bias 0.569
h_scaling 1.000
output 0.006 -->
<g id="edge3" class="edge">
<title>key 18296
bias &#45;0.656
h_scaling 1.000
output 0.657&#45;&gt;key 1562
bias 0.569
h_scaling 1.000
output 0.006</title>
<path fill="none" stroke="blue" stroke-width="0.1" d="M198.22,-122.87C201,-130.35 203.67,-137.96 206,-145.28 208.01,-151.6 209.94,-158.23 211.77,-164.89"/>
<polygon fill="blue" stroke="blue" stroke-width="0.1" points="208.41,-165.89 214.36,-174.65 215.18,-164.09 208.41,-165.89"/>
<text text-anchor="middle" x="223.5" y="-148.08" font-family="Times,serif" font-size="9.00">&#45;1.000</text>
</g>
<!-- key 1562
bias 0.569
h_scaling 1.000
output 0.006&#45;&gt;output
bias &#45;0.653
h_scaling 1.000
output 0.931 -->
<g id="edge2" class="edge">
<title>key 1562
bias 0.569
h_scaling 1.000
output 0.006&#45;&gt;output
bias &#45;0.653
h_scaling 1.000
output 0.931</title>
<path fill="none" stroke="blue" stroke-width="0.1" d="M175.51,-273.83C161.66,-286.23 148.5,-301.38 141,-318.56 138.43,-324.44 136.85,-330.75 136.02,-337.19"/>
<polygon fill="blue" stroke="blue" stroke-width="0.1" points="132.51,-337.16 135.29,-347.38 139.5,-337.66 132.51,-337.16"/>
<text text-anchor="middle" x="156.5" y="-321.36" font-family="Times,serif" font-size="9.00">&#45;1.000</text>
</g>
<!-- key 1562
bias 0.569
h_scaling 1.000
output 0.006&#45;&gt;key 18296
bias &#45;0.656
h_scaling 1.000
output 0.657 -->
<g id="edge18" class="edge">
<title>key 1562
bias 0.569
h_scaling 1.000
output 0.006&#45;&gt;key 18296
bias &#45;0.656
h_scaling 1.000
output 0.657</title>
<path fill="none" stroke="blue" stroke-width="0.1" d="M186.92,-187.74C180.37,-177.61 174.58,-166.55 171,-155.28 169.12,-149.37 167.89,-143.14 167.16,-136.81"/>
<polygon fill="blue" stroke="blue" stroke-width="0.1" points="170.65,-136.54 166.39,-126.84 163.67,-137.08 170.65,-136.54"/>
<text text-anchor="middle" x="186.5" y="-148.08" font-family="Times,serif" font-size="9.00">&#45;0.140</text>
</g>
<!-- key 148477
bias &#45;0.867
h_scaling 1.000
output 0.013&#45;&gt;key 18296
bias &#45;0.656
h_scaling 1.000
output 0.657 -->
<g id="edge17" class="edge">
<title>key 148477
bias &#45;0.867
h_scaling 1.000
output 0.013&#45;&gt;key 18296
bias &#45;0.656
h_scaling 1.000
output 0.657</title>
<path fill="none" stroke="blue" stroke-width="0.1" d="M361.83,-346.98C352.99,-296.88 335.29,-226.32 301,-173.28 284.02,-147.01 258.82,-123.61 235.34,-105.31"/>
<polygon fill="blue" stroke="blue" stroke-width="0.1" points="237.2,-102.32 227.12,-99.05 232.96,-107.89 237.2,-102.32"/>
<text text-anchor="middle" x="366.5" y="-234.72" font-family="Times,serif" font-size="9.00">&#45;0.640</text>
</g>
<!-- key 148477
bias &#45;0.867
h_scaling 1.000
output 0.013&#45;&gt;key 1562
bias 0.569
h_scaling 1.000
output 0.006 -->
<g id="edge15" class="edge">
<title>key 148477
bias &#45;0.867
h_scaling 1.000
output 0.013&#45;&gt;key 1562
bias 0.569
h_scaling 1.000
output 0.006</title>
<path fill="none" stroke="red" stroke-width="0.1" d="M329.69,-360.57C312.53,-339.87 292.4,-315.6 274.61,-294.14"/>
<polygon fill="red" stroke="red" stroke-width="0.1" points="277.24,-291.83 268.17,-286.37 271.85,-296.3 277.24,-291.83"/>
<text text-anchor="middle" x="313" y="-321.36" font-family="Times,serif" font-size="9.00">0.906</text>
</g>
</g>
</svg>
