<?xml version="1.0" encoding="UTF-8" standalone="no"?>
<!DOCTYPE svg PUBLIC "-//W3C//DTD SVG 1.1//EN"
 "http://www.w3.org/Graphics/SVG/1.1/DTD/svg11.dtd">
<!-- Generated by graphviz version 2.43.0 (0)
 -->
<!-- Title: %3 Pages: 1 -->
<svg width="552pt" height="729pt"
 viewBox="0.00 0.00 551.50 729.12" xmlns="http://www.w3.org/2000/svg" xmlns:xlink="http://www.w3.org/1999/xlink">
<g id="graph0" class="graph" transform="scale(1 1) rotate(0) translate(4 725.12)">
<title>%3</title>
<polygon fill="white" stroke="transparent" points="-4,4 -4,-725.12 547.5,-725.12 547.5,4 -4,4"/>
<!-- ready
output 0.000 -->
<g id="node1" class="node">
<title>ready
output 0.000</title>
<polygon fill="yellow" stroke="black" points="450,-721.12 373,-721.12 373,-693.12 450,-693.12 450,-721.12"/>
<text text-anchor="middle" x="411.5" y="-709.92" font-family="Times,serif" font-size="9.00">ready</text>
<text text-anchor="middle" x="411.5" y="-699.92" font-family="Times,serif" font-size="9.00">output 0.000</text>
</g>
<!-- key 14977
bias &#45;0.062
h_scaling 1.000
output 0.406 -->
<g id="node4" class="node">
<title>key 14977
bias &#45;0.062
h_scaling 1.000
output 0.406</title>
<ellipse fill="white" stroke="black" cx="122.5" cy="-583.48" rx="63.78" ry="63.78"/>
<text text-anchor="middle" x="122.5" y="-596.28" font-family="Times,serif" font-size="9.00">key 14977</text>
<text text-anchor="middle" x="122.5" y="-586.28" font-family="Times,serif" font-size="9.00">bias &#45;0.062</text>
<text text-anchor="middle" x="122.5" y="-576.28" font-family="Times,serif" font-size="9.00">h_scaling 1.000</text>
<text text-anchor="middle" x="122.5" y="-566.28" font-family="Times,serif" font-size="9.00">output 0.406</text>
</g>
<!-- ready
output 0.000&#45;&gt;key 14977
bias &#45;0.062
h_scaling 1.000
output 0.406 -->
<g id="edge4" class="edge">
<title>ready
output 0.000&#45;&gt;key 14977
bias &#45;0.062
h_scaling 1.000
output 0.406</title>
<path fill="none" stroke="blue" stroke-width="0.1" d="M372.82,-694.67C337.72,-683.83 284.85,-666.4 240.5,-647.12 222.57,-639.32 203.65,-629.87 186.34,-620.69"/>
<polygon fill="blue" stroke="blue" stroke-width="0.1" points="187.92,-617.56 177.45,-615.93 184.61,-623.74 187.92,-617.56"/>
<text text-anchor="middle" x="325" y="-667.92" font-family="Times,serif" font-size="9.00">&#45;0.284</text>
</g>
<!-- key 5347
bias 0.141
h_scaling 1.000
output 0.824 -->
<g id="node5" class="node">
<title>key 5347
bias 0.141
h_scaling 1.000
output 0.824</title>
<ellipse fill="white" stroke="black" cx="176.5" cy="-410.2" rx="63.78" ry="63.78"/>
<text text-anchor="middle" x="176.5" y="-423" font-family="Times,serif" font-size="9.00">key 5347</text>
<text text-anchor="middle" x="176.5" y="-413" font-family="Times,serif" font-size="9.00">bias 0.141</text>
<text text-anchor="middle" x="176.5" y="-403" font-family="Times,serif" font-size="9.00">h_scaling 1.000</text>
<text text-anchor="middle" x="176.5" y="-393" font-family="Times,serif" font-size="9.00">output 0.824</text>
</g>
<!-- ready
output 0.000&#45;&gt;key 5347
bias 0.141
h_scaling 1.000
output 0.824 -->
<g id="edge7" class="edge">
<title>ready
output 0.000&#45;&gt;key 5347
bias 0.141
h_scaling 1.000
output 0.824</title>
<path fill="none" stroke="red" stroke-width="0.1" d="M418.57,-692.83C435.01,-659.96 471.49,-573.57 432.5,-519.84 393.79,-466.49 352.03,-499.93 291.5,-473.84 274.41,-466.47 256.5,-457.41 240.03,-448.5"/>
<polygon fill="red" stroke="red" stroke-width="0.1" points="241.5,-445.31 231.04,-443.57 238.13,-451.45 241.5,-445.31"/>
<text text-anchor="middle" x="463.5" y="-581.28" font-family="Times,serif" font-size="9.00">0.570</text>
</g>
<!-- key 69998
bias &#45;0.319
h_scaling 1.000
output 0.173 -->
<g id="node6" class="node">
<title>key 69998
bias &#45;0.319
h_scaling 1.000
output 0.173</title>
<ellipse fill="white" stroke="black" cx="285.5" cy="-63.64" rx="63.78" ry="63.78"/>
<text text-anchor="middle" x="285.5" y="-76.44" font-family="Times,serif" font-size="9.00">key 69998</text>
<text text-anchor="middle" x="285.5" y="-66.44" font-family="Times,serif" font-size="9.00">bias &#45;0.319</text>
<text text-anchor="middle" x="285.5" y="-56.44" font-family="Times,serif" font-size="9.00">h_scaling 1.000</text>
<text text-anchor="middle" x="285.5" y="-46.44" font-family="Times,serif" font-size="9.00">output 0.173</text>
</g>
<!-- ready
output 0.000&#45;&gt;key 69998
bias &#45;0.319
h_scaling 1.000
output 0.173 -->
<g id="edge10" class="edge">
<title>ready
output 0.000&#45;&gt;key 69998
bias &#45;0.319
h_scaling 1.000
output 0.173</title>
<path fill="none" stroke="red" stroke-width="0.1" d="M434.32,-693.06C464.94,-673.64 515.5,-634.07 515.5,-584.48 515.5,-584.48 515.5,-584.48 515.5,-235.92 515.5,-155.61 424.17,-108.5 356.61,-84.64"/>
<polygon fill="red" stroke="red" stroke-width="0.1" points="357.43,-81.22 346.83,-81.29 355.16,-87.84 357.43,-81.22"/>
<text text-anchor="middle" x="529.5" y="-408" font-family="Times,serif" font-size="9.00">0.619</text>
</g>
<!-- key 277913
bias &#45;0.770
h_scaling 1.000
output 0.021 -->
<g id="node7" class="node">
<title>key 277913
bias &#45;0.770
h_scaling 1.000
output 0.021</title>
<ellipse fill="white" stroke="black" cx="313.5" cy="-583.48" rx="63.78" ry="63.78"/>
<text text-anchor="middle" x="313.5" y="-596.28" font-family="Times,serif" font-size="9.00">key 277913</text>
<text text-anchor="middle" x="313.5" y="-586.28" font-family="Times,serif" font-size="9.00">bias &#45;0.770</text>
<text text-anchor="middle" x="313.5" y="-576.28" font-family="Times,serif" font-size="9.00">h_scaling 1.000</text>
<text text-anchor="middle" x="313.5" y="-566.28" font-family="Times,serif" font-size="9.00">output 0.021</text>
</g>
<!-- ready
output 0.000&#45;&gt;key 277913
bias &#45;0.770
h_scaling 1.000
output 0.021 -->
<g id="edge15" class="edge">
<title>ready
output 0.000&#45;&gt;key 277913
bias &#45;0.770
h_scaling 1.000
output 0.021</title>
<path fill="none" stroke="blue" stroke-width="0.1" d="M401.01,-693.1C390.94,-680.6 375.02,-660.83 359.49,-641.56"/>
<polygon fill="blue" stroke="blue" stroke-width="0.1" points="362.11,-639.24 353.11,-633.65 356.66,-643.63 362.11,-639.24"/>
<text text-anchor="middle" x="400" y="-667.92" font-family="Times,serif" font-size="9.00">&#45;0.264</text>
</g>
<!-- go
output 0.000 -->
<g id="node2" class="node">
<title>go
output 0.000</title>
<polygon fill="green" stroke="black" points="77,-721.12 0,-721.12 0,-693.12 77,-693.12 77,-721.12"/>
<text text-anchor="middle" x="38.5" y="-709.92" font-family="Times,serif" font-size="9.00">go</text>
<text text-anchor="middle" x="38.5" y="-699.92" font-family="Times,serif" font-size="9.00">output 0.000</text>
</g>
<!-- go
output 0.000&#45;&gt;key 14977
bias &#45;0.062
h_scaling 1.000
output 0.406 -->
<g id="edge2" class="edge">
<title>go
output 0.000&#45;&gt;key 14977
bias &#45;0.062
h_scaling 1.000
output 0.406</title>
<path fill="none" stroke="red" stroke-width="0.1" d="M47.49,-693.1C55.67,-681.25 68.38,-662.85 81.02,-644.55"/>
<polygon fill="red" stroke="red" stroke-width="0.1" points="84,-646.39 86.8,-636.17 78.24,-642.41 84,-646.39"/>
<text text-anchor="middle" x="80.5" y="-667.92" font-family="Times,serif" font-size="9.00">0.921</text>
</g>
<!-- go
output 0.000&#45;&gt;key 5347
bias 0.141
h_scaling 1.000
output 0.824 -->
<g id="edge5" class="edge">
<title>go
output 0.000&#45;&gt;key 5347
bias 0.141
h_scaling 1.000
output 0.824</title>
<path fill="none" stroke="blue" stroke-width="0.1" d="M32.33,-692.98C18.35,-661.17 -12.24,-578.27 18.5,-519.84 37.63,-483.46 75.06,-456.9 108.69,-439.15"/>
<polygon fill="blue" stroke="blue" stroke-width="0.1" points="110.28,-442.27 117.6,-434.61 107.1,-436.04 110.28,-442.27"/>
<text text-anchor="middle" x="34" y="-581.28" font-family="Times,serif" font-size="9.00">&#45;0.760</text>
</g>
<!-- output
bias &#45;0.407
h_scaling 1.000
output 0.732 -->
<g id="node3" class="node">
<title>output
bias &#45;0.407
h_scaling 1.000
output 0.732</title>
<ellipse fill="lightblue" stroke="black" cx="285.5" cy="-236.92" rx="63.78" ry="63.78"/>
<text text-anchor="middle" x="285.5" y="-249.72" font-family="Times,serif" font-size="9.00">output</text>
<text text-anchor="middle" x="285.5" y="-239.72" font-family="Times,serif" font-size="9.00">bias &#45;0.407</text>
<text text-anchor="middle" x="285.5" y="-229.72" font-family="Times,serif" font-size="9.00">h_scaling 1.000</text>
<text text-anchor="middle" x="285.5" y="-219.72" font-family="Times,serif" font-size="9.00">output 0.732</text>
</g>
<!-- output
bias &#45;0.407
h_scaling 1.000
output 0.732&#45;&gt;key 69998
bias &#45;0.319
h_scaling 1.000
output 0.173 -->
<g id="edge14" class="edge">
<title>output
bias &#45;0.407
h_scaling 1.000
output 0.732&#45;&gt;key 69998
bias &#45;0.319
h_scaling 1.000
output 0.173</title>
<path fill="none" stroke="blue" stroke-width="0.1" d="M285.5,-173.11C285.5,-161.59 285.5,-149.48 285.5,-137.69"/>
<polygon fill="blue" stroke="blue" stroke-width="0.1" points="289,-137.44 285.5,-127.44 282,-137.44 289,-137.44"/>
<text text-anchor="middle" x="301" y="-148.08" font-family="Times,serif" font-size="9.00">&#45;0.144</text>
</g>
<!-- key 14977
bias &#45;0.062
h_scaling 1.000
output 0.406&#45;&gt;output
bias &#45;0.407
h_scaling 1.000
output 0.732 -->
<g id="edge8" class="edge">
<title>key 14977
bias &#45;0.062
h_scaling 1.000
output 0.406&#45;&gt;output
bias &#45;0.407
h_scaling 1.000
output 0.732</title>
<path fill="none" stroke="blue" stroke-width="0.1" d="M177.55,-551.5C225.63,-523.88 288.79,-485.98 295.5,-473.84 323.33,-423.49 317.65,-357.45 306.83,-308.05"/>
<polygon fill="blue" stroke="blue" stroke-width="0.1" points="310.19,-307.04 304.53,-298.09 303.37,-308.62 310.19,-307.04"/>
<text text-anchor="middle" x="331" y="-408" font-family="Times,serif" font-size="9.00">&#45;1.000</text>
</g>
<!-- key 14977
bias &#45;0.062
h_scaling 1.000
output 0.406&#45;&gt;key 14977
bias &#45;0.062
h_scaling 1.000
output 0.406 -->
<g id="edge6" class="edge">
<title>key 14977
bias &#45;0.062
h_scaling 1.000
output 0.406&#45;&gt;key 14977
bias &#45;0.062
h_scaling 1.000
output 0.406</title>
<path fill="none" stroke="red" stroke-width="0.1" d="M184.44,-598.77C196,-596.89 204.14,-591.79 204.14,-583.48 204.14,-577.76 200.29,-573.56 194.13,-570.89"/>
<polygon fill="red" stroke="red" stroke-width="0.1" points="195.02,-567.5 184.44,-568.18 193.13,-574.24 195.02,-567.5"/>
<text text-anchor="middle" x="218.14" y="-581.28" font-family="Times,serif" font-size="9.00">1.025</text>
</g>
<!-- key 14977
bias &#45;0.062
h_scaling 1.000
output 0.406&#45;&gt;key 5347
bias 0.141
h_scaling 1.000
output 0.824 -->
<g id="edge3" class="edge">
<title>key 14977
bias &#45;0.062
h_scaling 1.000
output 0.406&#45;&gt;key 5347
bias 0.141
h_scaling 1.000
output 0.824</title>
<path fill="none" stroke="blue" stroke-width="0.1" d="M146.72,-524.25C149.5,-516.76 152.17,-509.16 154.5,-501.84 156.51,-495.51 158.44,-488.89 160.27,-482.23"/>
<polygon fill="blue" stroke="blue" stroke-width="0.1" points="163.68,-483.03 162.86,-472.47 156.91,-481.23 163.68,-483.03"/>
<text text-anchor="middle" x="173" y="-494.64" font-family="Times,serif" font-size="9.00">&#45;0.998</text>
</g>
<!-- key 5347
bias 0.141
h_scaling 1.000
output 0.824&#45;&gt;output
bias &#45;0.407
h_scaling 1.000
output 0.732 -->
<g id="edge1" class="edge">
<title>key 5347
bias 0.141
h_scaling 1.000
output 0.824&#45;&gt;output
bias &#45;0.407
h_scaling 1.000
output 0.732</title>
<path fill="none" stroke="red" stroke-width="0.1" d="M210.39,-355.94C221.67,-338.22 234.33,-318.33 245.99,-300"/>
<polygon fill="red" stroke="red" stroke-width="0.1" points="249.21,-301.46 251.63,-291.14 243.31,-297.7 249.21,-301.46"/>
<text text-anchor="middle" x="245.5" y="-321.36" font-family="Times,serif" font-size="9.00">1.032</text>
</g>
<!-- key 5347
bias 0.141
h_scaling 1.000
output 0.824&#45;&gt;key 14977
bias &#45;0.062
h_scaling 1.000
output 0.406 -->
<g id="edge13" class="edge">
<title>key 5347
bias 0.141
h_scaling 1.000
output 0.824&#45;&gt;key 14977
bias &#45;0.062
h_scaling 1.000
output 0.406</title>
<path fill="none" stroke="blue" stroke-width="0.1" d="M135.42,-459.37C128.87,-469.51 123.08,-480.56 119.5,-491.84 117.62,-497.75 116.39,-503.98 115.66,-510.3"/>
<polygon fill="blue" stroke="blue" stroke-width="0.1" points="112.17,-510.03 114.89,-520.27 119.15,-510.57 112.17,-510.03"/>
<text text-anchor="middle" x="135" y="-494.64" font-family="Times,serif" font-size="9.00">&#45;0.150</text>
</g>
<!-- key 5347
bias 0.141
h_scaling 1.000
output 0.824&#45;&gt;key 5347
bias 0.141
h_scaling 1.000
output 0.824 -->
<g id="edge9" class="edge">
<title>key 5347
bias 0.141
h_scaling 1.000
output 0.824&#45;&gt;key 5347
bias 0.141
h_scaling 1.000
output 0.824</title>
<path fill="none" stroke="red" stroke-width="0.1" d="M238.44,-425.5C250,-423.61 258.14,-418.51 258.14,-410.2 258.14,-404.48 254.29,-400.29 248.13,-397.61"/>
<polygon fill="red" stroke="red" stroke-width="0.1" points="249.02,-394.22 238.44,-394.9 247.13,-400.96 249.02,-394.22"/>
<text text-anchor="middle" x="272.14" y="-408" font-family="Times,serif" font-size="9.00">0.597</text>
</g>
<!-- key 69998
bias &#45;0.319
h_scaling 1.000
output 0.173&#45;&gt;key 14977
bias &#45;0.062
h_scaling 1.000
output 0.406 -->
<g id="edge11" class="edge">
<title>key 69998
bias &#45;0.319
h_scaling 1.000
output 0.173&#45;&gt;key 14977
bias &#45;0.062
h_scaling 1.000
output 0.406</title>
<path fill="none" stroke="blue" stroke-width="0.1" d="M242.95,-111.17C198.04,-163.78 130.13,-254.2 103.5,-346.56 87.93,-400.56 94.42,-464.2 103.84,-511.76"/>
<polygon fill="blue" stroke="blue" stroke-width="0.1" points="100.44,-512.58 105.89,-521.66 107.29,-511.16 100.44,-512.58"/>
<text text-anchor="middle" x="128" y="-321.36" font-family="Times,serif" font-size="9.00">&#45;0.557</text>
</g>
<!-- key 69998
bias &#45;0.319
h_scaling 1.000
output 0.173&#45;&gt;key 69998
bias &#45;0.319
h_scaling 1.000
output 0.173 -->
<g id="edge12" class="edge">
<title>key 69998
bias &#45;0.319
h_scaling 1.000
output 0.173&#45;&gt;key 69998
bias &#45;0.319
h_scaling 1.000
output 0.173</title>
<path fill="none" stroke="red" stroke-width="0.1" d="M347.44,-78.94C359,-77.05 367.14,-71.95 367.14,-63.64 367.14,-57.92 363.29,-53.73 357.13,-51.05"/>
<polygon fill="red" stroke="red" stroke-width="0.1" points="358.02,-47.66 347.44,-48.34 356.13,-54.4 358.02,-47.66"/>
<text text-anchor="middle" x="381.14" y="-61.44" font-family="Times,serif" font-size="9.00">0.870</text>
</g>
<!-- key 277913
bias &#45;0.770
h_scaling 1.000
output 0.021&#45;&gt;key 277913
bias &#45;0.770
h_scaling 1.000
output 0.021 -->
<g id="edge16" class="edge">
<title>key 277913
bias &#45;0.770
h_scaling 1.000
output 0.021&#45;&gt;key 277913
bias &#45;0.770
h_scaling 1.000
output 0.021</title>
<path fill="none" stroke="red" stroke-width="0.1" d="M375.44,-598.77C387,-596.89 395.14,-591.79 395.14,-583.48 395.14,-577.76 391.29,-573.56 385.13,-570.89"/>
<polygon fill="red" stroke="red" stroke-width="0.1" points="386.02,-567.5 375.44,-568.18 384.13,-574.24 386.02,-567.5"/>
<text text-anchor="middle" x="409.14" y="-581.28" font-family="Times,serif" font-size="9.00">0.071</text>
</g>
</g>
</svg>
