<?xml version="1.0" encoding="UTF-8" standalone="no"?>
<!DOCTYPE svg PUBLIC "-//W3C//DTD SVG 1.1//EN"
 "http://www.w3.org/Graphics/SVG/1.1/DTD/svg11.dtd">
<!-- Generated by graphviz version 2.43.0 (0)
 -->
<!-- Title: %3 Pages: 1 -->
<svg width="543pt" height="1076pt"
 viewBox="0.00 0.00 543.00 1075.68" xmlns="http://www.w3.org/2000/svg" xmlns:xlink="http://www.w3.org/1999/xlink">
<g id="graph0" class="graph" transform="scale(1 1) rotate(0) translate(4 1071.68)">
<title>%3</title>
<polygon fill="white" stroke="transparent" points="-4,4 -4,-1071.68 539,-1071.68 539,4 -4,4"/>
<!-- ready
output 0.000 -->
<g id="node1" class="node">
<title>ready
output 0.000</title>
<polygon fill="yellow" stroke="black" points="84.5,-1067.68 7.5,-1067.68 7.5,-1039.68 84.5,-1039.68 84.5,-1067.68"/>
<text text-anchor="middle" x="46" y="-1056.48" font-family="Times,serif" font-size="9.00">ready</text>
<text text-anchor="middle" x="46" y="-1046.48" font-family="Times,serif" font-size="9.00">output 0.000</text>
</g>
<!-- key 5552
bias &#45;0.755
h_scaling 1.000
output 0.550 -->
<g id="node6" class="node">
<title>key 5552
bias &#45;0.755
h_scaling 1.000
output 0.550</title>
<ellipse fill="white" stroke="black" cx="212" cy="-930.04" rx="63.78" ry="63.78"/>
<text text-anchor="middle" x="212" y="-942.84" font-family="Times,serif" font-size="9.00">key 5552</text>
<text text-anchor="middle" x="212" y="-932.84" font-family="Times,serif" font-size="9.00">bias &#45;0.755</text>
<text text-anchor="middle" x="212" y="-922.84" font-family="Times,serif" font-size="9.00">h_scaling 1.000</text>
<text text-anchor="middle" x="212" y="-912.84" font-family="Times,serif" font-size="9.00">output 0.550</text>
</g>
<!-- ready
output 0.000&#45;&gt;key 5552
bias &#45;0.755
h_scaling 1.000
output 0.550 -->
<g id="edge9" class="edge">
<title>ready
output 0.000&#45;&gt;key 5552
bias &#45;0.755
h_scaling 1.000
output 0.550</title>
<path fill="none" stroke="blue" stroke-width="0.1" d="M63.76,-1039.66C84.88,-1024.19 121.21,-997.57 152.62,-974.55"/>
<polygon fill="blue" stroke="blue" stroke-width="0.1" points="154.91,-977.21 160.9,-968.48 150.77,-971.57 154.91,-977.21"/>
<text text-anchor="middle" x="115.5" y="-1014.48" font-family="Times,serif" font-size="9.00">&#45;0.458</text>
</g>
<!-- key 25016
bias &#45;0.529
h_scaling 1.000
output 0.590 -->
<g id="node7" class="node">
<title>key 25016
bias &#45;0.529
h_scaling 1.000
output 0.590</title>
<ellipse fill="white" stroke="black" cx="221" cy="-410.2" rx="63.78" ry="63.78"/>
<text text-anchor="middle" x="221" y="-423" font-family="Times,serif" font-size="9.00">key 25016</text>
<text text-anchor="middle" x="221" y="-413" font-family="Times,serif" font-size="9.00">bias &#45;0.529</text>
<text text-anchor="middle" x="221" y="-403" font-family="Times,serif" font-size="9.00">h_scaling 1.000</text>
<text text-anchor="middle" x="221" y="-393" font-family="Times,serif" font-size="9.00">output 0.590</text>
</g>
<!-- ready
output 0.000&#45;&gt;key 25016
bias &#45;0.529
h_scaling 1.000
output 0.590 -->
<g id="edge14" class="edge">
<title>ready
output 0.000&#45;&gt;key 25016
bias &#45;0.529
h_scaling 1.000
output 0.590</title>
<path fill="none" stroke="blue" stroke-width="0.1" d="M46,-1039.54C46,-1017.23 46,-970.53 46,-931.04 46,-931.04 46,-931.04 46,-582.48 46,-519.31 104.95,-471.77 154.42,-443"/>
<polygon fill="blue" stroke="blue" stroke-width="0.1" points="156.24,-445.99 163.21,-438.02 152.79,-439.9 156.24,-445.99"/>
<text text-anchor="middle" x="61.5" y="-754.56" font-family="Times,serif" font-size="9.00">&#45;0.576</text>
</g>
<!-- key 959
bias &#45;0.671
h_scaling 1.000
output 0.109 -->
<g id="node8" class="node">
<title>key 959
bias &#45;0.671
h_scaling 1.000
output 0.109</title>
<ellipse fill="white" stroke="black" cx="243" cy="-236.92" rx="63.78" ry="63.78"/>
<text text-anchor="middle" x="243" y="-249.72" font-family="Times,serif" font-size="9.00">key 959</text>
<text text-anchor="middle" x="243" y="-239.72" font-family="Times,serif" font-size="9.00">bias &#45;0.671</text>
<text text-anchor="middle" x="243" y="-229.72" font-family="Times,serif" font-size="9.00">h_scaling 1.000</text>
<text text-anchor="middle" x="243" y="-219.72" font-family="Times,serif" font-size="9.00">output 0.109</text>
</g>
<!-- ready
output 0.000&#45;&gt;key 959
bias &#45;0.671
h_scaling 1.000
output 0.109 -->
<g id="edge6" class="edge">
<title>ready
output 0.000&#45;&gt;key 959
bias &#45;0.671
h_scaling 1.000
output 0.109</title>
<path fill="none" stroke="blue" stroke-width="0.1" d="M37.35,-1039.43C24.02,-1017.73 0,-972.8 0,-931.04 0,-931.04 0,-931.04 0,-409.2 0,-324.66 99.48,-278.18 171.14,-255.67"/>
<polygon fill="blue" stroke="blue" stroke-width="0.1" points="172.51,-258.91 181.05,-252.65 170.47,-252.22 172.51,-258.91"/>
<text text-anchor="middle" x="15.5" y="-667.92" font-family="Times,serif" font-size="9.00">&#45;0.298</text>
</g>
<!-- go
output 0.000 -->
<g id="node2" class="node">
<title>go
output 0.000</title>
<polygon fill="green" stroke="black" points="449.5,-1067.68 372.5,-1067.68 372.5,-1039.68 449.5,-1039.68 449.5,-1067.68"/>
<text text-anchor="middle" x="411" y="-1056.48" font-family="Times,serif" font-size="9.00">go</text>
<text text-anchor="middle" x="411" y="-1046.48" font-family="Times,serif" font-size="9.00">output 0.000</text>
</g>
<!-- go
output 0.000&#45;&gt;key 5552
bias &#45;0.755
h_scaling 1.000
output 0.550 -->
<g id="edge12" class="edge">
<title>go
output 0.000&#45;&gt;key 5552
bias &#45;0.755
h_scaling 1.000
output 0.550</title>
<path fill="none" stroke="red" stroke-width="0.1" d="M389.7,-1039.66C362.48,-1023.02 314.17,-993.49 274.79,-969.41"/>
<polygon fill="red" stroke="red" stroke-width="0.1" points="276.37,-966.28 266.02,-964.05 272.72,-972.26 276.37,-966.28"/>
<text text-anchor="middle" x="371" y="-1014.48" font-family="Times,serif" font-size="9.00">0.986</text>
</g>
<!-- go
output 0.000&#45;&gt;key 959
bias &#45;0.671
h_scaling 1.000
output 0.109 -->
<g id="edge4" class="edge">
<title>go
output 0.000&#45;&gt;key 959
bias &#45;0.671
h_scaling 1.000
output 0.109</title>
<path fill="none" stroke="red" stroke-width="0.1" d="M431.83,-1039.35C460.06,-1019.47 507,-979.19 507,-931.04 507,-931.04 507,-931.04 507,-409.2 507,-317.51 393.55,-272.43 315.39,-252.25"/>
<polygon fill="red" stroke="red" stroke-width="0.1" points="316.11,-248.82 305.56,-249.79 314.42,-255.61 316.11,-248.82"/>
<text text-anchor="middle" x="521" y="-667.92" font-family="Times,serif" font-size="9.00">0.753</text>
</g>
<!-- output
bias 0.891
h_scaling 1.000
output 0.012 -->
<g id="node3" class="node">
<title>output
bias 0.891
h_scaling 1.000
output 0.012</title>
<ellipse fill="lightblue" stroke="black" cx="343" cy="-756.76" rx="63.78" ry="63.78"/>
<text text-anchor="middle" x="343" y="-769.56" font-family="Times,serif" font-size="9.00">output</text>
<text text-anchor="middle" x="343" y="-759.56" font-family="Times,serif" font-size="9.00">bias 0.891</text>
<text text-anchor="middle" x="343" y="-749.56" font-family="Times,serif" font-size="9.00">h_scaling 1.000</text>
<text text-anchor="middle" x="343" y="-739.56" font-family="Times,serif" font-size="9.00">output 0.012</text>
</g>
<!-- key 75200
bias &#45;0.304
h_scaling 1.000
output 0.401 -->
<g id="node4" class="node">
<title>key 75200
bias &#45;0.304
h_scaling 1.000
output 0.401</title>
<ellipse fill="white" stroke="black" cx="205" cy="-583.48" rx="63.78" ry="63.78"/>
<text text-anchor="middle" x="205" y="-596.28" font-family="Times,serif" font-size="9.00">key 75200</text>
<text text-anchor="middle" x="205" y="-586.28" font-family="Times,serif" font-size="9.00">bias &#45;0.304</text>
<text text-anchor="middle" x="205" y="-576.28" font-family="Times,serif" font-size="9.00">h_scaling 1.000</text>
<text text-anchor="middle" x="205" y="-566.28" font-family="Times,serif" font-size="9.00">output 0.401</text>
</g>
<!-- output
bias 0.891
h_scaling 1.000
output 0.012&#45;&gt;key 75200
bias &#45;0.304
h_scaling 1.000
output 0.401 -->
<g id="edge10" class="edge">
<title>output
bias 0.891
h_scaling 1.000
output 0.012&#45;&gt;key 75200
bias &#45;0.304
h_scaling 1.000
output 0.401</title>
<path fill="none" stroke="red" stroke-width="0.1" d="M303.45,-706.67C287.07,-686.34 267.96,-662.62 250.95,-641.51"/>
<polygon fill="red" stroke="red" stroke-width="0.1" points="253.55,-639.16 244.55,-633.57 248.1,-643.55 253.55,-639.16"/>
<text text-anchor="middle" x="288" y="-667.92" font-family="Times,serif" font-size="9.00">0.974</text>
</g>
<!-- key 128331
bias &#45;0.341
h_scaling 1.000
output 0.396 -->
<g id="node5" class="node">
<title>key 128331
bias &#45;0.341
h_scaling 1.000
output 0.396</title>
<ellipse fill="white" stroke="black" cx="381" cy="-63.64" rx="63.78" ry="63.78"/>
<text text-anchor="middle" x="381" y="-76.44" font-family="Times,serif" font-size="9.00">key 128331</text>
<text text-anchor="middle" x="381" y="-66.44" font-family="Times,serif" font-size="9.00">bias &#45;0.341</text>
<text text-anchor="middle" x="381" y="-56.44" font-family="Times,serif" font-size="9.00">h_scaling 1.000</text>
<text text-anchor="middle" x="381" y="-46.44" font-family="Times,serif" font-size="9.00">output 0.396</text>
</g>
<!-- output
bias 0.891
h_scaling 1.000
output 0.012&#45;&gt;key 128331
bias &#45;0.341
h_scaling 1.000
output 0.396 -->
<g id="edge18" class="edge">
<title>output
bias 0.891
h_scaling 1.000
output 0.012&#45;&gt;key 128331
bias &#45;0.341
h_scaling 1.000
output 0.396</title>
<path fill="none" stroke="blue" stroke-width="0.1" d="M362.89,-696.23C372.08,-663.61 381,-622.25 381,-584.48 381,-584.48 381,-584.48 381,-235.92 381,-203.59 381,-167.83 381,-137.39"/>
<polygon fill="blue" stroke="blue" stroke-width="0.1" points="384.5,-137.28 381,-127.28 377.5,-137.28 384.5,-137.28"/>
<text text-anchor="middle" x="396.5" y="-408" font-family="Times,serif" font-size="9.00">&#45;0.458</text>
</g>
<!-- key 75200
bias &#45;0.304
h_scaling 1.000
output 0.401&#45;&gt;key 75200
bias &#45;0.304
h_scaling 1.000
output 0.401 -->
<g id="edge15" class="edge">
<title>key 75200
bias &#45;0.304
h_scaling 1.000
output 0.401&#45;&gt;key 75200
bias &#45;0.304
h_scaling 1.000
output 0.401</title>
<path fill="none" stroke="red" stroke-width="0.1" d="M266.94,-598.77C278.5,-596.89 286.64,-591.79 286.64,-583.48 286.64,-577.76 282.79,-573.56 276.63,-570.89"/>
<polygon fill="red" stroke="red" stroke-width="0.1" points="277.52,-567.5 266.94,-568.18 275.63,-574.24 277.52,-567.5"/>
<text text-anchor="middle" x="300.64" y="-581.28" font-family="Times,serif" font-size="9.00">0.333</text>
</g>
<!-- key 75200
bias &#45;0.304
h_scaling 1.000
output 0.401&#45;&gt;key 25016
bias &#45;0.529
h_scaling 1.000
output 0.590 -->
<g id="edge11" class="edge">
<title>key 75200
bias &#45;0.304
h_scaling 1.000
output 0.401&#45;&gt;key 25016
bias &#45;0.529
h_scaling 1.000
output 0.590</title>
<path fill="none" stroke="red" stroke-width="0.1" d="M210.87,-519.67C211.95,-508.08 213.09,-495.88 214.2,-484.02"/>
<polygon fill="red" stroke="red" stroke-width="0.1" points="217.72,-483.99 215.16,-473.71 210.75,-483.34 217.72,-483.99"/>
<text text-anchor="middle" x="227" y="-494.64" font-family="Times,serif" font-size="9.00">1.000</text>
</g>
<!-- key 128331
bias &#45;0.341
h_scaling 1.000
output 0.396&#45;&gt;output
bias 0.891
h_scaling 1.000
output 0.012 -->
<g id="edge17" class="edge">
<title>key 128331
bias &#45;0.341
h_scaling 1.000
output 0.396&#45;&gt;output
bias 0.891
h_scaling 1.000
output 0.012</title>
<path fill="none" stroke="blue" stroke-width="0.1" d="M413.91,-118.48C430.86,-151.22 448,-194.57 448,-235.92 448,-584.48 448,-584.48 448,-584.48 448,-629.33 421.5,-672.34 395.13,-704.05"/>
<polygon fill="blue" stroke="blue" stroke-width="0.1" points="392.29,-701.98 388.44,-711.86 397.61,-706.54 392.29,-701.98"/>
<text text-anchor="middle" x="463.5" y="-408" font-family="Times,serif" font-size="9.00">&#45;0.974</text>
</g>
<!-- key 5552
bias &#45;0.755
h_scaling 1.000
output 0.550&#45;&gt;output
bias 0.891
h_scaling 1.000
output 0.012 -->
<g id="edge3" class="edge">
<title>key 5552
bias &#45;0.755
h_scaling 1.000
output 0.550&#45;&gt;output
bias 0.891
h_scaling 1.000
output 0.012</title>
<path fill="none" stroke="blue" stroke-width="0.1" d="M250.24,-879.03C265.38,-859.25 282.87,-836.37 298.57,-815.85"/>
<polygon fill="blue" stroke="blue" stroke-width="0.1" points="301.41,-817.89 304.71,-807.82 295.85,-813.64 301.41,-817.89"/>
<text text-anchor="middle" x="292.5" y="-841.2" font-family="Times,serif" font-size="9.00">&#45;0.994</text>
</g>
<!-- key 5552
bias &#45;0.755
h_scaling 1.000
output 0.550&#45;&gt;key 5552
bias &#45;0.755
h_scaling 1.000
output 0.550 -->
<g id="edge5" class="edge">
<title>key 5552
bias &#45;0.755
h_scaling 1.000
output 0.550&#45;&gt;key 5552
bias &#45;0.755
h_scaling 1.000
output 0.550</title>
<path fill="none" stroke="red" stroke-width="0.1" d="M273.94,-945.33C285.5,-943.45 293.64,-938.35 293.64,-930.04 293.64,-924.32 289.79,-920.12 283.63,-917.45"/>
<polygon fill="red" stroke="red" stroke-width="0.1" points="284.52,-914.06 273.94,-914.74 282.63,-920.8 284.52,-914.06"/>
<text text-anchor="middle" x="307.64" y="-927.84" font-family="Times,serif" font-size="9.00">0.772</text>
</g>
<!-- key 25016
bias &#45;0.529
h_scaling 1.000
output 0.590&#45;&gt;key 75200
bias &#45;0.304
h_scaling 1.000
output 0.401 -->
<g id="edge13" class="edge">
<title>key 25016
bias &#45;0.529
h_scaling 1.000
output 0.590&#45;&gt;key 75200
bias &#45;0.304
h_scaling 1.000
output 0.401</title>
<path fill="none" stroke="red" stroke-width="0.1" d="M189.75,-465.9C186.14,-474.36 183.03,-483.16 181,-491.84 179.31,-499.03 178.98,-506.52 179.57,-513.97"/>
<polygon fill="red" stroke="red" stroke-width="0.1" points="176.13,-514.64 180.91,-524.09 183.07,-513.72 176.13,-514.64"/>
<text text-anchor="middle" x="195" y="-494.64" font-family="Times,serif" font-size="9.00">0.271</text>
</g>
<!-- key 25016
bias &#45;0.529
h_scaling 1.000
output 0.590&#45;&gt;key 959
bias &#45;0.671
h_scaling 1.000
output 0.109 -->
<g id="edge8" class="edge">
<title>key 25016
bias &#45;0.529
h_scaling 1.000
output 0.590&#45;&gt;key 959
bias &#45;0.671
h_scaling 1.000
output 0.109</title>
<path fill="none" stroke="red" stroke-width="0.1" d="M229,-346.88C230.53,-335 232.14,-322.47 233.7,-310.3"/>
<polygon fill="red" stroke="red" stroke-width="0.1" points="237.2,-310.56 235,-300.19 230.26,-309.67 237.2,-310.56"/>
<text text-anchor="middle" x="246" y="-321.36" font-family="Times,serif" font-size="9.00">0.246</text>
</g>
<!-- key 959
bias &#45;0.671
h_scaling 1.000
output 0.109&#45;&gt;output
bias 0.891
h_scaling 1.000
output 0.012 -->
<g id="edge1" class="edge">
<title>key 959
bias &#45;0.671
h_scaling 1.000
output 0.109&#45;&gt;output
bias 0.891
h_scaling 1.000
output 0.012</title>
<path fill="none" stroke="blue" stroke-width="0.1" d="M272.55,-293.44C280.48,-310.14 288.4,-328.77 294,-346.56 329.86,-460.38 339.79,-599.59 342.36,-682.79"/>
<polygon fill="blue" stroke="blue" stroke-width="0.1" points="338.86,-683 342.64,-692.9 345.86,-682.8 338.86,-683"/>
<text text-anchor="middle" x="342.5" y="-494.64" font-family="Times,serif" font-size="9.00">&#45;1.000</text>
</g>
<!-- key 959
bias &#45;0.671
h_scaling 1.000
output 0.109&#45;&gt;key 128331
bias &#45;0.341
h_scaling 1.000
output 0.396 -->
<g id="edge16" class="edge">
<title>key 959
bias &#45;0.671
h_scaling 1.000
output 0.109&#45;&gt;key 128331
bias &#45;0.341
h_scaling 1.000
output 0.396</title>
<path fill="none" stroke="red" stroke-width="0.1" d="M282.55,-186.84C298.93,-166.5 318.04,-142.78 335.05,-121.68"/>
<polygon fill="red" stroke="red" stroke-width="0.1" points="337.9,-123.71 341.45,-113.73 332.45,-119.32 337.9,-123.71"/>
<text text-anchor="middle" x="326" y="-148.08" font-family="Times,serif" font-size="9.00">1.000</text>
</g>
<!-- key 959
bias &#45;0.671
h_scaling 1.000
output 0.109&#45;&gt;key 5552
bias &#45;0.755
h_scaling 1.000
output 0.550 -->
<g id="edge2" class="edge">
<title>key 959
bias &#45;0.671
h_scaling 1.000
output 0.109&#45;&gt;key 5552
bias &#45;0.755
h_scaling 1.000
output 0.550</title>
<path fill="none" stroke="red" stroke-width="0.1" d="M196.83,-281.1C179.28,-299.74 160.52,-322.71 148,-346.56 111.06,-416.9 113.85,-440.99 104,-519.84 96.98,-575.97 93.71,-591.49 104,-647.12 118.31,-724.5 152.99,-808.08 179.21,-863.98"/>
<polygon fill="red" stroke="red" stroke-width="0.1" points="176.07,-865.51 183.51,-873.05 182.39,-862.52 176.07,-865.51"/>
<text text-anchor="middle" x="118" y="-581.28" font-family="Times,serif" font-size="9.00">0.968</text>
</g>
<!-- key 959
bias &#45;0.671
h_scaling 1.000
output 0.109&#45;&gt;key 959
bias &#45;0.671
h_scaling 1.000
output 0.109 -->
<g id="edge7" class="edge">
<title>key 959
bias &#45;0.671
h_scaling 1.000
output 0.109&#45;&gt;key 959
bias &#45;0.671
h_scaling 1.000
output 0.109</title>
<path fill="none" stroke="red" stroke-width="0.1" d="M304.94,-252.22C316.5,-250.33 324.64,-245.23 324.64,-236.92 324.64,-231.2 320.79,-227.01 314.63,-224.33"/>
<polygon fill="red" stroke="red" stroke-width="0.1" points="315.52,-220.94 304.94,-221.62 313.63,-227.68 315.52,-220.94"/>
<text text-anchor="middle" x="338.64" y="-234.72" font-family="Times,serif" font-size="9.00">0.897</text>
</g>
</g>
</svg>
