<?xml version="1.0" encoding="UTF-8" standalone="no"?>
<!DOCTYPE svg PUBLIC "-//W3C//DTD SVG 1.1//EN"
 "http://www.w3.org/Graphics/SVG/1.1/DTD/svg11.dtd">
<!-- Generated by graphviz version 2.43.0 (0)
 -->
<!-- Title: %3 Pages: 1 -->
<svg width="564pt" height="1193pt"
 viewBox="0.00 0.00 564.35 1192.95" xmlns="http://www.w3.org/2000/svg" xmlns:xlink="http://www.w3.org/1999/xlink">
<g id="graph0" class="graph" transform="scale(1 1) rotate(0) translate(4 1188.95)">
<title>%3</title>
<polygon fill="white" stroke="transparent" points="-4,4 -4,-1188.95 560.35,-1188.95 560.35,4 -4,4"/>
<!-- ready
output 1.000 -->
<g id="node1" class="node">
<title>ready
output 1.000</title>
<polygon fill="yellow" stroke="black" points="412.21,-1184.95 335.21,-1184.95 335.21,-1156.95 412.21,-1156.95 412.21,-1184.95"/>
<text text-anchor="middle" x="373.71" y="-1173.75" font-family="Times,serif" font-size="9.00">ready</text>
<text text-anchor="middle" x="373.71" y="-1163.75" font-family="Times,serif" font-size="9.00">output 1.000</text>
</g>
<!-- key 84835
bias &#45;0.420
h_scaling 1.000
output 0.153 -->
<g id="node4" class="node">
<title>key 84835
bias &#45;0.420
h_scaling 1.000
output 0.153</title>
<ellipse fill="white" stroke="black" cx="92.71" cy="-1047.31" rx="63.78" ry="63.78"/>
<text text-anchor="middle" x="92.71" y="-1060.11" font-family="Times,serif" font-size="9.00">key 84835</text>
<text text-anchor="middle" x="92.71" y="-1050.11" font-family="Times,serif" font-size="9.00">bias &#45;0.420</text>
<text text-anchor="middle" x="92.71" y="-1040.11" font-family="Times,serif" font-size="9.00">h_scaling 1.000</text>
<text text-anchor="middle" x="92.71" y="-1030.11" font-family="Times,serif" font-size="9.00">output 0.153</text>
</g>
<!-- ready
output 1.000&#45;&gt;key 84835
bias &#45;0.420
h_scaling 1.000
output 0.153 -->
<g id="edge15" class="edge">
<title>ready
output 1.000&#45;&gt;key 84835
bias &#45;0.420
h_scaling 1.000
output 0.153</title>
<path fill="none" stroke="blue" stroke-width="0.1" d="M335.17,-1157.56C301.98,-1146.49 253.04,-1129.26 211.71,-1110.95 193.63,-1102.94 174.48,-1093.37 156.95,-1084.15"/>
<polygon fill="blue" stroke="blue" stroke-width="0.1" points="158.42,-1080.97 147.94,-1079.38 155.14,-1087.16 158.42,-1080.97"/>
<text text-anchor="middle" x="292.21" y="-1131.75" font-family="Times,serif" font-size="9.00">&#45;0.195</text>
</g>
<!-- key 133348
bias 0.247
h_scaling 1.000
output 0.995 -->
<g id="node5" class="node">
<title>key 133348
bias 0.247
h_scaling 1.000
output 0.995</title>
<ellipse fill="white" stroke="black" cx="492.71" cy="-63.64" rx="63.78" ry="63.78"/>
<text text-anchor="middle" x="492.71" y="-76.44" font-family="Times,serif" font-size="9.00">key 133348</text>
<text text-anchor="middle" x="492.71" y="-66.44" font-family="Times,serif" font-size="9.00">bias 0.247</text>
<text text-anchor="middle" x="492.71" y="-56.44" font-family="Times,serif" font-size="9.00">h_scaling 1.000</text>
<text text-anchor="middle" x="492.71" y="-46.44" font-family="Times,serif" font-size="9.00">output 0.995</text>
</g>
<!-- ready
output 1.000&#45;&gt;key 133348
bias 0.247
h_scaling 1.000
output 0.995 -->
<g id="edge20" class="edge">
<title>ready
output 1.000&#45;&gt;key 133348
bias 0.247
h_scaling 1.000
output 0.995</title>
<path fill="none" stroke="red" stroke-width="0.1" d="M412.58,-1158.19C458.2,-1141.68 527.71,-1106.92 527.71,-1048.31 527.71,-1048.31 527.71,-1048.31 527.71,-235.92 527.71,-202.1 521.08,-165.26 513.59,-134.45"/>
<polygon fill="red" stroke="red" stroke-width="0.1" points="516.97,-133.52 511.14,-124.67 510.18,-135.22 516.97,-133.52"/>
<text text-anchor="middle" x="541.71" y="-698.56" font-family="Times,serif" font-size="9.00">0.595</text>
</g>
<!-- key 1883
bias 0.263
h_scaling 1.000
output 0.627 -->
<g id="node8" class="node">
<title>key 1883
bias 0.263
h_scaling 1.000
output 0.627</title>
<ellipse fill="white" stroke="black" cx="136.71" cy="-63.64" rx="63.78" ry="63.78"/>
<text text-anchor="middle" x="136.71" y="-76.44" font-family="Times,serif" font-size="9.00">key 1883</text>
<text text-anchor="middle" x="136.71" y="-66.44" font-family="Times,serif" font-size="9.00">bias 0.263</text>
<text text-anchor="middle" x="136.71" y="-56.44" font-family="Times,serif" font-size="9.00">h_scaling 1.000</text>
<text text-anchor="middle" x="136.71" y="-46.44" font-family="Times,serif" font-size="9.00">output 0.627</text>
</g>
<!-- ready
output 1.000&#45;&gt;key 1883
bias 0.263
h_scaling 1.000
output 0.627 -->
<g id="edge5" class="edge">
<title>ready
output 1.000&#45;&gt;key 1883
bias 0.263
h_scaling 1.000
output 0.627</title>
<path fill="none" stroke="blue" stroke-width="0.1" d="M335.19,-1168.54C253.42,-1164.76 66.18,-1151.76 19.71,-1110.95 -2.14,-1091.76 0.71,-1077.41 0.71,-1048.31 0.71,-1048.31 0.71,-1048.31 0.71,-235.92 0.71,-183.46 40.33,-137.73 76.8,-106.75"/>
<polygon fill="blue" stroke="blue" stroke-width="0.1" points="79.05,-109.44 84.52,-100.37 74.59,-104.04 79.05,-109.44"/>
<text text-anchor="middle" x="16.21" y="-698.56" font-family="Times,serif" font-size="9.00">&#45;0.273</text>
</g>
<!-- key 21726
bias &#45;0.560
h_scaling 1.000
output 0.122 -->
<g id="node9" class="node">
<title>key 21726
bias &#45;0.560
h_scaling 1.000
output 0.122</title>
<ellipse fill="white" stroke="black" cx="218.71" cy="-874.04" rx="63.78" ry="63.78"/>
<text text-anchor="middle" x="218.71" y="-886.84" font-family="Times,serif" font-size="9.00">key 21726</text>
<text text-anchor="middle" x="218.71" y="-876.84" font-family="Times,serif" font-size="9.00">bias &#45;0.560</text>
<text text-anchor="middle" x="218.71" y="-866.84" font-family="Times,serif" font-size="9.00">h_scaling 1.000</text>
<text text-anchor="middle" x="218.71" y="-856.84" font-family="Times,serif" font-size="9.00">output 0.122</text>
</g>
<!-- ready
output 1.000&#45;&gt;key 21726
bias &#45;0.560
h_scaling 1.000
output 0.122 -->
<g id="edge8" class="edge">
<title>ready
output 1.000&#45;&gt;key 21726
bias &#45;0.560
h_scaling 1.000
output 0.122</title>
<path fill="none" stroke="blue" stroke-width="0.1" d="M370.58,-1156.66C362.81,-1125.17 340.79,-1044.16 306.71,-983.68 296.07,-964.77 282.13,-945.83 268.49,-929.18"/>
<polygon fill="blue" stroke="blue" stroke-width="0.1" points="270.93,-926.63 261.84,-921.19 265.55,-931.12 270.93,-926.63"/>
<text text-anchor="middle" x="373.21" y="-1045.11" font-family="Times,serif" font-size="9.00">&#45;0.488</text>
</g>
<!-- go
output 0.000 -->
<g id="node2" class="node">
<title>go
output 0.000</title>
<polygon fill="green" stroke="black" points="297.21,-1061.31 220.21,-1061.31 220.21,-1033.31 297.21,-1033.31 297.21,-1061.31"/>
<text text-anchor="middle" x="258.71" y="-1050.11" font-family="Times,serif" font-size="9.00">go</text>
<text text-anchor="middle" x="258.71" y="-1040.11" font-family="Times,serif" font-size="9.00">output 0.000</text>
</g>
<!-- key 9146
bias 0.402
h_scaling 1.000
output 0.848 -->
<g id="node7" class="node">
<title>key 9146
bias 0.402
h_scaling 1.000
output 0.848</title>
<ellipse fill="white" stroke="black" cx="430.71" cy="-236.92" rx="63.78" ry="63.78"/>
<text text-anchor="middle" x="430.71" y="-249.72" font-family="Times,serif" font-size="9.00">key 9146</text>
<text text-anchor="middle" x="430.71" y="-239.72" font-family="Times,serif" font-size="9.00">bias 0.402</text>
<text text-anchor="middle" x="430.71" y="-229.72" font-family="Times,serif" font-size="9.00">h_scaling 1.000</text>
<text text-anchor="middle" x="430.71" y="-219.72" font-family="Times,serif" font-size="9.00">output 0.848</text>
</g>
<!-- go
output 0.000&#45;&gt;key 9146
bias 0.402
h_scaling 1.000
output 0.848 -->
<g id="edge10" class="edge">
<title>go
output 0.000&#45;&gt;key 9146
bias 0.402
h_scaling 1.000
output 0.848</title>
<path fill="none" stroke="blue" stroke-width="0.1" d="M267.67,-1033.26C276.46,-1020.51 290.32,-1000.62 302.71,-983.68 317.88,-962.94 326.24,-960.66 337.71,-937.68 370.02,-872.96 453.99,-496.81 456.71,-473.84 463.39,-417.66 463.34,-402.74 456.71,-346.56 455.24,-334.1 452.86,-320.99 450.11,-308.37"/>
<polygon fill="blue" stroke="blue" stroke-width="0.1" points="453.47,-307.35 447.84,-298.37 446.64,-308.9 453.47,-307.35"/>
<text text-anchor="middle" x="435.21" y="-698.56" font-family="Times,serif" font-size="9.00">&#45;0.886</text>
</g>
<!-- go
output 0.000&#45;&gt;key 1883
bias 0.263
h_scaling 1.000
output 0.627 -->
<g id="edge1" class="edge">
<title>go
output 0.000&#45;&gt;key 1883
bias 0.263
h_scaling 1.000
output 0.627</title>
<path fill="none" stroke="red" stroke-width="0.1" d="M250.45,-1032.87C241.81,-1019.48 227.36,-998.79 211.71,-983.68 185.99,-958.84 166.56,-966.72 145.71,-937.68 111.37,-889.82 127.58,-866.2 108.71,-810.4 79.52,-724.04 51.44,-708.72 34.71,-619.12 -1.82,-423.43 15.88,-362.5 77.71,-173.28 82.85,-157.57 90.23,-141.48 98.05,-126.66"/>
<polygon fill="red" stroke="red" stroke-width="0.1" points="101.27,-128.07 102.96,-117.61 95.11,-124.73 101.27,-128.07"/>
<text text-anchor="middle" x="48.71" y="-553.28" font-family="Times,serif" font-size="9.00">1.063</text>
</g>
<!-- go
output 0.000&#45;&gt;key 21726
bias &#45;0.560
h_scaling 1.000
output 0.122 -->
<g id="edge6" class="edge">
<title>go
output 0.000&#45;&gt;key 21726
bias &#45;0.560
h_scaling 1.000
output 0.122</title>
<path fill="none" stroke="red" stroke-width="0.1" d="M255.64,-1033.16C251.28,-1014.49 242.98,-978.94 235.35,-946.26"/>
<polygon fill="red" stroke="red" stroke-width="0.1" points="238.69,-945.18 233.01,-936.24 231.87,-946.77 238.69,-945.18"/>
<text text-anchor="middle" x="252.71" y="-958.48" font-family="Times,serif" font-size="9.00">0.739</text>
</g>
<!-- output
bias 0.687
h_scaling 1.000
output 0.021 -->
<g id="node3" class="node">
<title>output
bias 0.687
h_scaling 1.000
output 0.021</title>
<ellipse fill="lightblue" stroke="black" cx="135.71" cy="-555.48" rx="63.78" ry="63.78"/>
<text text-anchor="middle" x="135.71" y="-568.28" font-family="Times,serif" font-size="9.00">output</text>
<text text-anchor="middle" x="135.71" y="-558.28" font-family="Times,serif" font-size="9.00">bias 0.687</text>
<text text-anchor="middle" x="135.71" y="-548.28" font-family="Times,serif" font-size="9.00">h_scaling 1.000</text>
<text text-anchor="middle" x="135.71" y="-538.28" font-family="Times,serif" font-size="9.00">output 0.021</text>
</g>
<!-- output
bias 0.687
h_scaling 1.000
output 0.021&#45;&gt;key 84835
bias &#45;0.420
h_scaling 1.000
output 0.153 -->
<g id="edge11" class="edge">
<title>output
bias 0.687
h_scaling 1.000
output 0.021&#45;&gt;key 84835
bias &#45;0.420
h_scaling 1.000
output 0.153</title>
<path fill="none" stroke="red" stroke-width="0.1" d="M118.81,-616.94C105.44,-668.01 87.89,-743.35 80.71,-810.4 74.69,-866.64 77.6,-881.19 80.71,-937.68 81.36,-949.44 82.4,-961.9 83.61,-974.01"/>
<polygon fill="red" stroke="red" stroke-width="0.1" points="80.14,-974.49 84.65,-984.08 87.1,-973.77 80.14,-974.49"/>
<text text-anchor="middle" x="94.71" y="-871.84" font-family="Times,serif" font-size="9.00">0.200</text>
</g>
<!-- output
bias 0.687
h_scaling 1.000
output 0.021&#45;&gt;key 1883
bias 0.263
h_scaling 1.000
output 0.627 -->
<g id="edge4" class="edge">
<title>output
bias 0.687
h_scaling 1.000
output 0.021&#45;&gt;key 1883
bias 0.263
h_scaling 1.000
output 0.627</title>
<path fill="none" stroke="blue" stroke-width="0.1" d="M135.84,-491.44C136.03,-400.69 136.37,-233.62 136.57,-137.63"/>
<polygon fill="blue" stroke="blue" stroke-width="0.1" points="140.07,-137.44 136.59,-127.43 133.07,-137.43 140.07,-137.44"/>
<text text-anchor="middle" x="151.21" y="-321.36" font-family="Times,serif" font-size="9.00">&#45;1.000</text>
</g>
<!-- key 84835
bias &#45;0.420
h_scaling 1.000
output 0.153&#45;&gt;key 84835
bias &#45;0.420
h_scaling 1.000
output 0.153 -->
<g id="edge13" class="edge">
<title>key 84835
bias &#45;0.420
h_scaling 1.000
output 0.153&#45;&gt;key 84835
bias &#45;0.420
h_scaling 1.000
output 0.153</title>
<path fill="none" stroke="red" stroke-width="0.1" d="M154.66,-1062.61C166.21,-1060.73 174.35,-1055.63 174.35,-1047.31 174.35,-1041.6 170.51,-1037.4 164.35,-1034.73"/>
<polygon fill="red" stroke="red" stroke-width="0.1" points="165.23,-1031.34 154.66,-1032.02 163.35,-1038.08 165.23,-1031.34"/>
<text text-anchor="middle" x="188.35" y="-1045.11" font-family="Times,serif" font-size="9.00">0.851</text>
</g>
<!-- key 84835
bias &#45;0.420
h_scaling 1.000
output 0.153&#45;&gt;key 21726
bias &#45;0.560
h_scaling 1.000
output 0.122 -->
<g id="edge12" class="edge">
<title>key 84835
bias &#45;0.420
h_scaling 1.000
output 0.153&#45;&gt;key 21726
bias &#45;0.560
h_scaling 1.000
output 0.122</title>
<path fill="none" stroke="red" stroke-width="0.1" d="M130.18,-995.39C144.4,-976.06 160.7,-953.9 175.41,-933.9"/>
<polygon fill="red" stroke="red" stroke-width="0.1" points="178.29,-935.89 181.4,-925.77 172.65,-931.75 178.29,-935.89"/>
<text text-anchor="middle" x="169.71" y="-958.48" font-family="Times,serif" font-size="9.00">0.212</text>
</g>
<!-- key 132968
bias &#45;0.920
h_scaling 1.000
output 0.191 -->
<g id="node6" class="node">
<title>key 132968
bias &#45;0.920
h_scaling 1.000
output 0.191</title>
<ellipse fill="white" stroke="black" cx="313.71" cy="-700.76" rx="63.78" ry="63.78"/>
<text text-anchor="middle" x="313.71" y="-713.56" font-family="Times,serif" font-size="9.00">key 132968</text>
<text text-anchor="middle" x="313.71" y="-703.56" font-family="Times,serif" font-size="9.00">bias &#45;0.920</text>
<text text-anchor="middle" x="313.71" y="-693.56" font-family="Times,serif" font-size="9.00">h_scaling 1.000</text>
<text text-anchor="middle" x="313.71" y="-683.56" font-family="Times,serif" font-size="9.00">output 0.191</text>
</g>
<!-- key 132968
bias &#45;0.920
h_scaling 1.000
output 0.191&#45;&gt;key 9146
bias 0.402
h_scaling 1.000
output 0.848 -->
<g id="edge17" class="edge">
<title>key 132968
bias &#45;0.920
h_scaling 1.000
output 0.191&#45;&gt;key 9146
bias 0.402
h_scaling 1.000
output 0.848</title>
<path fill="none" stroke="blue" stroke-width="0.1" d="M344.64,-644.86C348.95,-636.36 353.12,-627.59 356.71,-619.12 383.23,-556.65 389.34,-540.16 403.71,-473.84 415.43,-419.79 422.28,-357.6 426.15,-310.64"/>
<polygon fill="blue" stroke="blue" stroke-width="0.1" points="429.65,-310.81 426.95,-300.56 422.67,-310.25 429.65,-310.81"/>
<text text-anchor="middle" x="437.21" y="-408" font-family="Times,serif" font-size="9.00">&#45;0.147</text>
</g>
<!-- key 132968
bias &#45;0.920
h_scaling 1.000
output 0.191&#45;&gt;key 1883
bias 0.263
h_scaling 1.000
output 0.627 -->
<g id="edge19" class="edge">
<title>key 132968
bias &#45;0.920
h_scaling 1.000
output 0.191&#45;&gt;key 1883
bias 0.263
h_scaling 1.000
output 0.627</title>
<path fill="none" stroke="red" stroke-width="0.1" d="M297.64,-639.1C285.87,-593.74 269.9,-530.12 257.71,-473.84 226.28,-328.68 256.14,-281.39 196.71,-145.28 193.13,-137.06 188.56,-128.89 183.55,-121.08"/>
<polygon fill="red" stroke="red" stroke-width="0.1" points="186.45,-119.11 177.97,-112.76 180.64,-123.01 186.45,-119.11"/>
<text text-anchor="middle" x="252.71" y="-321.36" font-family="Times,serif" font-size="9.00">0.481</text>
</g>
<!-- key 365887
bias &#45;0.508
h_scaling 1.000
output 0.179 -->
<g id="node10" class="node">
<title>key 365887
bias &#45;0.508
h_scaling 1.000
output 0.179</title>
<ellipse fill="white" stroke="black" cx="330.71" cy="-410.2" rx="63.78" ry="63.78"/>
<text text-anchor="middle" x="330.71" y="-423" font-family="Times,serif" font-size="9.00">key 365887</text>
<text text-anchor="middle" x="330.71" y="-413" font-family="Times,serif" font-size="9.00">bias &#45;0.508</text>
<text text-anchor="middle" x="330.71" y="-403" font-family="Times,serif" font-size="9.00">h_scaling 1.000</text>
<text text-anchor="middle" x="330.71" y="-393" font-family="Times,serif" font-size="9.00">output 0.179</text>
</g>
<!-- key 132968
bias &#45;0.920
h_scaling 1.000
output 0.191&#45;&gt;key 365887
bias &#45;0.508
h_scaling 1.000
output 0.179 -->
<g id="edge21" class="edge">
<title>key 132968
bias &#45;0.920
h_scaling 1.000
output 0.191&#45;&gt;key 365887
bias &#45;0.508
h_scaling 1.000
output 0.179</title>
<path fill="none" stroke="red" stroke-width="0.1" d="M317.4,-637.14C320.05,-592.21 323.63,-531.51 326.41,-484.34"/>
<polygon fill="red" stroke="red" stroke-width="0.1" points="329.91,-484.37 327,-474.19 322.92,-483.96 329.91,-484.37"/>
<text text-anchor="middle" x="338.71" y="-553.28" font-family="Times,serif" font-size="9.00">1.002</text>
</g>
<!-- key 9146
bias 0.402
h_scaling 1.000
output 0.848&#45;&gt;key 133348
bias 0.247
h_scaling 1.000
output 0.995 -->
<g id="edge18" class="edge">
<title>key 9146
bias 0.402
h_scaling 1.000
output 0.848&#45;&gt;key 133348
bias 0.247
h_scaling 1.000
output 0.995</title>
<path fill="none" stroke="red" stroke-width="0.1" d="M452.23,-176.49C457.25,-162.6 462.65,-147.68 467.82,-133.42"/>
<polygon fill="red" stroke="red" stroke-width="0.1" points="471.23,-134.26 471.35,-123.67 464.65,-131.88 471.23,-134.26"/>
<text text-anchor="middle" x="475.71" y="-148.08" font-family="Times,serif" font-size="9.00">0.916</text>
</g>
<!-- key 9146
bias 0.402
h_scaling 1.000
output 0.848&#45;&gt;key 1883
bias 0.263
h_scaling 1.000
output 0.627 -->
<g id="edge3" class="edge">
<title>key 9146
bias 0.402
h_scaling 1.000
output 0.848&#45;&gt;key 1883
bias 0.263
h_scaling 1.000
output 0.627</title>
<path fill="none" stroke="blue" stroke-width="0.1" d="M376.1,-204.1C326.34,-175.11 252.83,-132.28 200.41,-101.75"/>
<polygon fill="blue" stroke="blue" stroke-width="0.1" points="201.93,-98.58 191.53,-96.57 198.41,-104.63 201.93,-98.58"/>
<text text-anchor="middle" x="299.21" y="-148.08" font-family="Times,serif" font-size="9.00">&#45;0.653</text>
</g>
<!-- key 1883
bias 0.263
h_scaling 1.000
output 0.627&#45;&gt;output
bias 0.687
h_scaling 1.000
output 0.021 -->
<g id="edge2" class="edge">
<title>key 1883
bias 0.263
h_scaling 1.000
output 0.627&#45;&gt;output
bias 0.687
h_scaling 1.000
output 0.021</title>
<path fill="none" stroke="blue" stroke-width="0.1" d="M114.13,-123.41C96.29,-176.59 75.62,-257.28 83.71,-328.56 89.73,-381.54 103.45,-440.19 115.28,-484.45"/>
<polygon fill="blue" stroke="blue" stroke-width="0.1" points="111.94,-485.5 117.93,-494.23 118.7,-483.67 111.94,-485.5"/>
<text text-anchor="middle" x="99.21" y="-321.36" font-family="Times,serif" font-size="9.00">&#45;1.000</text>
</g>
<!-- key 21726
bias &#45;0.560
h_scaling 1.000
output 0.122&#45;&gt;output
bias 0.687
h_scaling 1.000
output 0.021 -->
<g id="edge14" class="edge">
<title>key 21726
bias &#45;0.560
h_scaling 1.000
output 0.122&#45;&gt;output
bias 0.687
h_scaling 1.000
output 0.021</title>
<path fill="none" stroke="blue" stroke-width="0.1" d="M183.1,-821.21C177.94,-811.93 173.2,-802.11 169.71,-792.4 150.83,-739.78 142.41,-677 138.67,-629.44"/>
<polygon fill="blue" stroke="blue" stroke-width="0.1" points="142.14,-628.94 137.92,-619.22 135.16,-629.45 142.14,-628.94"/>
<text text-anchor="middle" x="185.21" y="-785.2" font-family="Times,serif" font-size="9.00">&#45;0.913</text>
</g>
<!-- key 21726
bias &#45;0.560
h_scaling 1.000
output 0.122&#45;&gt;key 132968
bias &#45;0.920
h_scaling 1.000
output 0.191 -->
<g id="edge16" class="edge">
<title>key 21726
bias &#45;0.560
h_scaling 1.000
output 0.122&#45;&gt;key 132968
bias &#45;0.920
h_scaling 1.000
output 0.191</title>
<path fill="none" stroke="red" stroke-width="0.1" d="M249.3,-817.9C258.53,-801.24 268.75,-782.82 278.28,-765.64"/>
<polygon fill="red" stroke="red" stroke-width="0.1" points="281.4,-767.23 283.19,-756.79 275.28,-763.84 281.4,-767.23"/>
<text text-anchor="middle" x="279.71" y="-785.2" font-family="Times,serif" font-size="9.00">1.020</text>
</g>
<!-- key 21726
bias &#45;0.560
h_scaling 1.000
output 0.122&#45;&gt;key 1883
bias 0.263
h_scaling 1.000
output 0.627 -->
<g id="edge7" class="edge">
<title>key 21726
bias &#45;0.560
h_scaling 1.000
output 0.122&#45;&gt;key 1883
bias 0.263
h_scaling 1.000
output 0.627</title>
<path fill="none" stroke="red" stroke-width="0.1" d="M217.65,-810.17C215.93,-734.49 211.55,-603.61 200.71,-491.84 185.69,-336.88 173.44,-299.15 149.71,-145.28 149.28,-142.45 148.83,-139.57 148.38,-136.67"/>
<polygon fill="red" stroke="red" stroke-width="0.1" points="151.82,-136.04 146.81,-126.7 144.91,-137.12 151.82,-136.04"/>
<text text-anchor="middle" x="212.71" y="-408" font-family="Times,serif" font-size="9.00">1.210</text>
</g>
<!-- key 21726
bias &#45;0.560
h_scaling 1.000
output 0.122&#45;&gt;key 21726
bias &#45;0.560
h_scaling 1.000
output 0.122 -->
<g id="edge9" class="edge">
<title>key 21726
bias &#45;0.560
h_scaling 1.000
output 0.122&#45;&gt;key 21726
bias &#45;0.560
h_scaling 1.000
output 0.122</title>
<path fill="none" stroke="red" stroke-width="0.1" d="M280.66,-889.33C292.21,-887.45 300.35,-882.35 300.35,-874.04 300.35,-868.32 296.51,-864.12 290.35,-861.45"/>
<polygon fill="red" stroke="red" stroke-width="0.1" points="291.23,-858.06 280.66,-858.74 289.35,-864.8 291.23,-858.06"/>
<text text-anchor="middle" x="314.35" y="-871.84" font-family="Times,serif" font-size="9.00">1.144</text>
</g>
<!-- key 365887
bias &#45;0.508
h_scaling 1.000
output 0.179&#45;&gt;key 9146
bias 0.402
h_scaling 1.000
output 0.848 -->
<g id="edge22" class="edge">
<title>key 365887
bias &#45;0.508
h_scaling 1.000
output 0.179&#45;&gt;key 9146
bias 0.402
h_scaling 1.000
output 0.848</title>
<path fill="none" stroke="blue" stroke-width="0.1" d="M362.63,-354.53C372.51,-337.61 383.48,-318.82 393.68,-301.35"/>
<polygon fill="blue" stroke="blue" stroke-width="0.1" points="396.91,-302.76 398.93,-292.36 390.87,-299.23 396.91,-302.76"/>
<text text-anchor="middle" x="396.21" y="-321.36" font-family="Times,serif" font-size="9.00">&#45;0.147</text>
</g>
</g>
</svg>
