<?xml version="1.0" encoding="UTF-8" standalone="no"?>
<!DOCTYPE svg PUBLIC "-//W3C//DTD SVG 1.1//EN"
 "http://www.w3.org/Graphics/SVG/1.1/DTD/svg11.dtd">
<!-- Generated by graphviz version 2.43.0 (0)
 -->
<!-- Title: %3 Pages: 1 -->
<svg width="532pt" height="701pt"
 viewBox="0.00 0.00 531.64 701.12" xmlns="http://www.w3.org/2000/svg" xmlns:xlink="http://www.w3.org/1999/xlink">
<g id="graph0" class="graph" transform="scale(1 1) rotate(0) translate(4 697.12)">
<title>%3</title>
<polygon fill="white" stroke="transparent" points="-4,4 -4,-697.12 527.64,-697.12 527.64,4 -4,4"/>
<!-- ready -->
<g id="node1" class="node">
<title>ready</title>
<polygon fill="yellow" stroke="black" points="288.14,-693.12 245.14,-693.12 245.14,-675.12 288.14,-675.12 288.14,-693.12"/>
<text text-anchor="middle" x="266.64" y="-681.92" font-family="Times,serif" font-size="9.00">ready</text>
</g>
<!-- key 14977
bias &#45;0.062
h_scaling 1.000 -->
<g id="node4" class="node">
<title>key 14977
bias &#45;0.062
h_scaling 1.000</title>
<ellipse fill="white" stroke="black" cx="63.64" cy="-565.48" rx="63.78" ry="63.78"/>
<text text-anchor="middle" x="63.64" y="-573.28" font-family="Times,serif" font-size="9.00">key 14977</text>
<text text-anchor="middle" x="63.64" y="-563.28" font-family="Times,serif" font-size="9.00">bias &#45;0.062</text>
<text text-anchor="middle" x="63.64" y="-553.28" font-family="Times,serif" font-size="9.00">h_scaling 1.000</text>
</g>
<!-- ready&#45;&gt;key 14977
bias &#45;0.062
h_scaling 1.000 -->
<g id="edge4" class="edge">
<title>ready&#45;&gt;key 14977
bias &#45;0.062
h_scaling 1.000</title>
<path fill="none" stroke="blue" stroke-width="0.1" d="M252.69,-675.1C227.16,-660.43 171.47,-628.44 127.12,-602.95"/>
<polygon fill="blue" stroke="blue" stroke-width="0.1" points="128.82,-599.89 118.41,-597.95 125.33,-605.96 128.82,-599.89"/>
</g>
<!-- key 5347
bias 0.141
h_scaling 1.000 -->
<g id="node5" class="node">
<title>key 5347
bias 0.141
h_scaling 1.000</title>
<ellipse fill="white" stroke="black" cx="193.64" cy="-401.2" rx="63.78" ry="63.78"/>
<text text-anchor="middle" x="193.64" y="-409" font-family="Times,serif" font-size="9.00">key 5347</text>
<text text-anchor="middle" x="193.64" y="-399" font-family="Times,serif" font-size="9.00">bias 0.141</text>
<text text-anchor="middle" x="193.64" y="-389" font-family="Times,serif" font-size="9.00">h_scaling 1.000</text>
</g>
<!-- ready&#45;&gt;key 5347
bias 0.141
h_scaling 1.000 -->
<g id="edge7" class="edge">
<title>ready&#45;&gt;key 5347
bias 0.141
h_scaling 1.000</title>
<path fill="none" stroke="red" stroke-width="0.92" d="M264.53,-675.01C256.92,-645.71 230.31,-543.3 211.95,-472.65"/>
<polygon fill="red" stroke="red" stroke-width="0.92" points="215.32,-471.7 209.41,-462.9 208.54,-473.46 215.32,-471.7"/>
<text text-anchor="middle" x="266.64" y="-563.28" font-family="Times,serif" font-size="9.00">0.027</text>
</g>
<!-- key 69998
bias &#45;0.319
h_scaling 1.000 -->
<g id="node6" class="node">
<title>key 69998
bias &#45;0.319
h_scaling 1.000</title>
<ellipse fill="white" stroke="black" cx="174.64" cy="-63.64" rx="63.78" ry="63.78"/>
<text text-anchor="middle" x="174.64" y="-71.44" font-family="Times,serif" font-size="9.00">key 69998</text>
<text text-anchor="middle" x="174.64" y="-61.44" font-family="Times,serif" font-size="9.00">bias &#45;0.319</text>
<text text-anchor="middle" x="174.64" y="-51.44" font-family="Times,serif" font-size="9.00">h_scaling 1.000</text>
</g>
<!-- ready&#45;&gt;key 69998
bias &#45;0.319
h_scaling 1.000 -->
<g id="edge10" class="edge">
<title>ready&#45;&gt;key 69998
bias &#45;0.319
h_scaling 1.000</title>
<path fill="none" stroke="red" stroke-width="0.38" d="M288.35,-684.04C330.5,-684.6 423.91,-679.64 476.64,-629.12 497.65,-608.99 495.64,-595.57 495.64,-566.48 495.64,-566.48 495.64,-566.48 495.64,-226.92 495.64,-116.81 343.36,-81.4 248.57,-70.02"/>
<polygon fill="red" stroke="red" stroke-width="0.38" points="248.77,-66.52 238.44,-68.87 247.98,-73.47 248.77,-66.52"/>
<text text-anchor="middle" x="509.64" y="-399" font-family="Times,serif" font-size="9.00">0.009</text>
</g>
<!-- key 277913
bias &#45;0.770
h_scaling 1.000 -->
<g id="node7" class="node">
<title>key 277913
bias &#45;0.770
h_scaling 1.000</title>
<ellipse fill="white" stroke="black" cx="357.64" cy="-565.48" rx="63.78" ry="63.78"/>
<text text-anchor="middle" x="357.64" y="-573.28" font-family="Times,serif" font-size="9.00">key 277913</text>
<text text-anchor="middle" x="357.64" y="-563.28" font-family="Times,serif" font-size="9.00">bias &#45;0.770</text>
<text text-anchor="middle" x="357.64" y="-553.28" font-family="Times,serif" font-size="9.00">h_scaling 1.000</text>
</g>
<!-- ready&#45;&gt;key 277913
bias &#45;0.770
h_scaling 1.000 -->
<g id="edge15" class="edge">
<title>ready&#45;&gt;key 277913
bias &#45;0.770
h_scaling 1.000</title>
<path fill="none" stroke="blue" stroke-width="0.1" d="M272.89,-675.1C281.3,-664.33 296.98,-644.22 312.6,-624.21"/>
<polygon fill="blue" stroke="blue" stroke-width="0.1" points="315.4,-626.3 318.79,-616.27 309.88,-622 315.4,-626.3"/>
</g>
<!-- go -->
<g id="node2" class="node">
<title>go</title>
<polygon fill="green" stroke="black" points="196.64,-693.12 168.64,-693.12 168.64,-675.12 196.64,-675.12 196.64,-693.12"/>
<text text-anchor="middle" x="182.64" y="-681.92" font-family="Times,serif" font-size="9.00">go</text>
</g>
<!-- go&#45;&gt;key 14977
bias &#45;0.062
h_scaling 1.000 -->
<g id="edge2" class="edge">
<title>go&#45;&gt;key 14977
bias &#45;0.062
h_scaling 1.000</title>
<path fill="none" stroke="red" stroke-width="0.75" d="M168.58,-680.28C154.39,-676.83 132.52,-669.83 117.64,-657.12 109.32,-650.01 101.95,-641.29 95.53,-632.09"/>
<polygon fill="red" stroke="red" stroke-width="0.75" points="98.32,-629.97 89.9,-623.54 92.47,-633.82 98.32,-629.97"/>
<text text-anchor="middle" x="131.64" y="-649.92" font-family="Times,serif" font-size="9.00">0.022</text>
</g>
<!-- go&#45;&gt;key 5347
bias 0.141
h_scaling 1.000 -->
<g id="edge5" class="edge">
<title>go&#45;&gt;key 5347
bias 0.141
h_scaling 1.000</title>
<path fill="none" stroke="blue" stroke-width="0.1" d="M182.96,-675.01C184.09,-646.07 188.02,-545.81 190.78,-475.27"/>
<polygon fill="blue" stroke="blue" stroke-width="0.1" points="194.28,-475.22 191.18,-465.09 187.29,-474.94 194.28,-475.22"/>
</g>
<!-- output
bias &#45;0.407
h_scaling 1.000 -->
<g id="node3" class="node">
<title>output
bias &#45;0.407
h_scaling 1.000</title>
<ellipse fill="lightblue" stroke="black" cx="174.64" cy="-227.92" rx="63.78" ry="63.78"/>
<text text-anchor="middle" x="174.64" y="-235.72" font-family="Times,serif" font-size="9.00">output</text>
<text text-anchor="middle" x="174.64" y="-225.72" font-family="Times,serif" font-size="9.00">bias &#45;0.407</text>
<text text-anchor="middle" x="174.64" y="-215.72" font-family="Times,serif" font-size="9.00">h_scaling 1.000</text>
</g>
<!-- output
bias &#45;0.407
h_scaling 1.000&#45;&gt;key 69998
bias &#45;0.319
h_scaling 1.000 -->
<g id="edge14" class="edge">
<title>output
bias &#45;0.407
h_scaling 1.000&#45;&gt;key 69998
bias &#45;0.319
h_scaling 1.000</title>
<path fill="none" stroke="blue" stroke-width="0.1" d="M174.64,-164.18C174.64,-155.52 174.64,-146.57 174.64,-137.75"/>
<polygon fill="blue" stroke="blue" stroke-width="0.1" points="178.14,-137.48 174.64,-127.48 171.14,-137.48 178.14,-137.48"/>
</g>
<!-- key 14977
bias &#45;0.062
h_scaling 1.000&#45;&gt;output
bias &#45;0.407
h_scaling 1.000 -->
<g id="edge8" class="edge">
<title>key 14977
bias &#45;0.062
h_scaling 1.000&#45;&gt;output
bias &#45;0.407
h_scaling 1.000</title>
<path fill="none" stroke="blue" stroke-width="0.1" d="M75.39,-502.72C85.09,-456.47 100.52,-392.05 120.64,-337.56 126.06,-322.89 132.87,-307.59 139.82,-293.27"/>
<polygon fill="blue" stroke="blue" stroke-width="0.1" points="143.1,-294.52 144.39,-284.01 136.83,-291.42 143.1,-294.52"/>
</g>
<!-- key 14977
bias &#45;0.062
h_scaling 1.000&#45;&gt;key 14977
bias &#45;0.062
h_scaling 1.000 -->
<g id="edge6" class="edge">
<title>key 14977
bias &#45;0.062
h_scaling 1.000&#45;&gt;key 14977
bias &#45;0.062
h_scaling 1.000</title>
<path fill="none" stroke="red" stroke-width="2.29" d="M125.93,-580.01C137.3,-578.17 145.28,-573.32 145.28,-565.48 145.28,-560.2 141.68,-556.29 135.87,-553.73"/>
<polygon fill="red" stroke="red" stroke-width="2.29" points="136.5,-550.27 125.93,-550.95 134.62,-557.01 136.5,-550.27"/>
<text text-anchor="middle" x="159.28" y="-563.28" font-family="Times,serif" font-size="9.00">0.073</text>
</g>
<!-- key 14977
bias &#45;0.062
h_scaling 1.000&#45;&gt;key 5347
bias 0.141
h_scaling 1.000 -->
<g id="edge3" class="edge">
<title>key 14977
bias &#45;0.062
h_scaling 1.000&#45;&gt;key 5347
bias 0.141
h_scaling 1.000</title>
<path fill="none" stroke="blue" stroke-width="0.1" d="M99.13,-512.24C112.91,-494.4 128.9,-474.42 143.79,-456.43"/>
<polygon fill="blue" stroke="blue" stroke-width="0.1" points="146.83,-458.24 150.54,-448.32 141.45,-453.77 146.83,-458.24"/>
</g>
<!-- key 5347
bias 0.141
h_scaling 1.000&#45;&gt;output
bias &#45;0.407
h_scaling 1.000 -->
<g id="edge1" class="edge">
<title>key 5347
bias 0.141
h_scaling 1.000&#45;&gt;output
bias &#45;0.407
h_scaling 1.000</title>
<path fill="none" stroke="red" stroke-width="0.6" d="M186.73,-337.88C185.41,-326 184.02,-313.47 182.67,-301.3"/>
<polygon fill="red" stroke="red" stroke-width="0.6" points="186.13,-300.75 181.55,-291.19 179.17,-301.52 186.13,-300.75"/>
<text text-anchor="middle" x="198.64" y="-312.36" font-family="Times,serif" font-size="9.00">0.017</text>
</g>
<!-- key 5347
bias 0.141
h_scaling 1.000&#45;&gt;key 14977
bias &#45;0.062
h_scaling 1.000 -->
<g id="edge13" class="edge">
<title>key 5347
bias 0.141
h_scaling 1.000&#45;&gt;key 14977
bias &#45;0.062
h_scaling 1.000</title>
<path fill="none" stroke="blue" stroke-width="0.1" d="M158.19,-454.39C144.39,-472.25 128.37,-492.27 113.46,-510.29"/>
<polygon fill="blue" stroke="blue" stroke-width="0.1" points="110.41,-508.48 106.7,-518.41 115.79,-512.96 110.41,-508.48"/>
</g>
<!-- key 5347
bias 0.141
h_scaling 1.000&#45;&gt;key 5347
bias 0.141
h_scaling 1.000 -->
<g id="edge9" class="edge">
<title>key 5347
bias 0.141
h_scaling 1.000&#45;&gt;key 5347
bias 0.141
h_scaling 1.000</title>
<path fill="none" stroke="red" stroke-width="0.82" d="M255.93,-415.73C267.3,-413.89 275.28,-409.05 275.28,-401.2 275.28,-395.93 271.68,-392.01 265.87,-389.45"/>
<polygon fill="red" stroke="red" stroke-width="0.82" points="266.5,-385.99 255.93,-386.67 264.62,-392.73 266.5,-385.99"/>
<text text-anchor="middle" x="289.28" y="-399" font-family="Times,serif" font-size="9.00">0.024</text>
</g>
<!-- key 69998
bias &#45;0.319
h_scaling 1.000&#45;&gt;key 14977
bias &#45;0.062
h_scaling 1.000 -->
<g id="edge11" class="edge">
<title>key 69998
bias &#45;0.319
h_scaling 1.000&#45;&gt;key 14977
bias &#45;0.062
h_scaling 1.000</title>
<path fill="none" stroke="blue" stroke-width="0.1" d="M132.65,-111.57C120.74,-127.32 109.01,-145.63 101.64,-164.28 58.91,-272.38 55.69,-409.22 58.66,-491.64"/>
<polygon fill="blue" stroke="blue" stroke-width="0.1" points="55.17,-491.81 59.07,-501.66 62.16,-491.53 55.17,-491.81"/>
</g>
<!-- key 69998
bias &#45;0.319
h_scaling 1.000&#45;&gt;key 69998
bias &#45;0.319
h_scaling 1.000 -->
<g id="edge12" class="edge">
<title>key 69998
bias &#45;0.319
h_scaling 1.000&#45;&gt;key 69998
bias &#45;0.319
h_scaling 1.000</title>
<path fill="none" stroke="red" stroke-width="0.65" d="M236.93,-78.17C248.3,-76.33 256.28,-71.49 256.28,-63.64 256.28,-58.37 252.68,-54.45 246.87,-51.89"/>
<polygon fill="red" stroke="red" stroke-width="0.65" points="247.5,-48.43 236.93,-49.11 245.62,-55.18 247.5,-48.43"/>
<text text-anchor="middle" x="270.28" y="-61.44" font-family="Times,serif" font-size="9.00">0.018</text>
</g>
<!-- key 277913
bias &#45;0.770
h_scaling 1.000&#45;&gt;key 277913
bias &#45;0.770
h_scaling 1.000 -->
<g id="edge16" class="edge">
<title>key 277913
bias &#45;0.770
h_scaling 1.000&#45;&gt;key 277913
bias &#45;0.770
h_scaling 1.000</title>
<path fill="none" stroke="red" stroke-width="0.1" d="M419.93,-580.01C431.3,-578.17 439.28,-573.32 439.28,-565.48 439.28,-560.2 435.68,-556.29 429.87,-553.73"/>
<polygon fill="red" stroke="red" stroke-width="0.1" points="430.5,-550.27 419.93,-550.95 428.62,-557.01 430.5,-550.27"/>
<text text-anchor="middle" x="453.28" y="-563.28" font-family="Times,serif" font-size="9.00">0.000</text>
</g>
</g>
</svg>
