<?xml version="1.0" encoding="UTF-8" standalone="no"?>
<!DOCTYPE svg PUBLIC "-//W3C//DTD SVG 1.1//EN"
 "http://www.w3.org/Graphics/SVG/1.1/DTD/svg11.dtd">
<!-- Generated by graphviz version 2.43.0 (0)
 -->
<!-- Title: %3 Pages: 1 -->
<svg width="551pt" height="719pt"
 viewBox="0.00 0.00 550.72 719.12" xmlns="http://www.w3.org/2000/svg" xmlns:xlink="http://www.w3.org/1999/xlink">
<g id="graph0" class="graph" transform="scale(1 1) rotate(0) translate(4 715.12)">
<title>%3</title>
<polygon fill="white" stroke="transparent" points="-4,4 -4,-715.12 546.72,-715.12 546.72,4 -4,4"/>
<!-- ready -->
<g id="node1" class="node">
<title>ready</title>
<polygon fill="yellow" stroke="black" points="432.22,-711.12 389.22,-711.12 389.22,-693.12 432.22,-693.12 432.22,-711.12"/>
<text text-anchor="middle" x="410.72" y="-699.92" font-family="Times,serif" font-size="9.00">ready</text>
</g>
<!-- key 14977
bias &#45;0.062
h_scaling 1.000 -->
<g id="node4" class="node">
<title>key 14977
bias &#45;0.062
h_scaling 1.000</title>
<ellipse fill="white" stroke="black" cx="121.72" cy="-583.48" rx="63.78" ry="63.78"/>
<text text-anchor="middle" x="121.72" y="-591.28" font-family="Times,serif" font-size="9.00">key 14977</text>
<text text-anchor="middle" x="121.72" y="-581.28" font-family="Times,serif" font-size="9.00">bias &#45;0.062</text>
<text text-anchor="middle" x="121.72" y="-571.28" font-family="Times,serif" font-size="9.00">h_scaling 1.000</text>
</g>
<!-- ready&#45;&gt;key 14977
bias &#45;0.062
h_scaling 1.000 -->
<g id="edge4" class="edge">
<title>ready&#45;&gt;key 14977
bias &#45;0.062
h_scaling 1.000</title>
<path fill="none" stroke="blue" stroke-width="0.95" d="M389.21,-695.68C356.36,-687.07 291.97,-669.02 239.72,-647.12 221.68,-639.56 202.73,-630.18 185.42,-621.01"/>
<polygon fill="blue" stroke="blue" stroke-width="0.95" points="187,-617.88 176.53,-616.24 183.69,-624.05 187,-617.88"/>
<text text-anchor="middle" x="328.22" y="-667.92" font-family="Times,serif" font-size="9.00">&#45;0.284</text>
</g>
<!-- key 5347
bias 0.141
h_scaling 1.000 -->
<g id="node5" class="node">
<title>key 5347
bias 0.141
h_scaling 1.000</title>
<ellipse fill="white" stroke="black" cx="175.72" cy="-410.2" rx="63.78" ry="63.78"/>
<text text-anchor="middle" x="175.72" y="-418" font-family="Times,serif" font-size="9.00">key 5347</text>
<text text-anchor="middle" x="175.72" y="-408" font-family="Times,serif" font-size="9.00">bias 0.141</text>
<text text-anchor="middle" x="175.72" y="-398" font-family="Times,serif" font-size="9.00">h_scaling 1.000</text>
</g>
<!-- ready&#45;&gt;key 5347
bias 0.141
h_scaling 1.000 -->
<g id="edge7" class="edge">
<title>ready&#45;&gt;key 5347
bias 0.141
h_scaling 1.000</title>
<path fill="none" stroke="red" stroke-width="1.43" d="M415.24,-692.9C429.72,-665.36 471.72,-574.97 431.72,-519.84 393,-466.49 351.25,-499.93 290.72,-473.84 273.63,-466.47 255.71,-457.41 239.25,-448.5"/>
<polygon fill="red" stroke="red" stroke-width="1.43" points="240.71,-445.31 230.26,-443.57 237.35,-451.45 240.71,-445.31"/>
<text text-anchor="middle" x="461.72" y="-581.28" font-family="Times,serif" font-size="9.00">0.442</text>
</g>
<!-- key 69998
bias &#45;0.319
h_scaling 1.000 -->
<g id="node6" class="node">
<title>key 69998
bias &#45;0.319
h_scaling 1.000</title>
<ellipse fill="white" stroke="black" cx="284.72" cy="-63.64" rx="63.78" ry="63.78"/>
<text text-anchor="middle" x="284.72" y="-71.44" font-family="Times,serif" font-size="9.00">key 69998</text>
<text text-anchor="middle" x="284.72" y="-61.44" font-family="Times,serif" font-size="9.00">bias &#45;0.319</text>
<text text-anchor="middle" x="284.72" y="-51.44" font-family="Times,serif" font-size="9.00">h_scaling 1.000</text>
</g>
<!-- ready&#45;&gt;key 69998
bias &#45;0.319
h_scaling 1.000 -->
<g id="edge10" class="edge">
<title>ready&#45;&gt;key 69998
bias &#45;0.319
h_scaling 1.000</title>
<path fill="none" stroke="red" stroke-width="1.58" d="M426.51,-692.92C455.61,-676.54 514.72,-636.84 514.72,-584.48 514.72,-584.48 514.72,-584.48 514.72,-235.92 514.72,-155.61 423.39,-108.5 355.83,-84.64"/>
<polygon fill="red" stroke="red" stroke-width="1.58" points="356.65,-81.22 346.05,-81.29 354.38,-87.84 356.65,-81.22"/>
<text text-anchor="middle" x="528.72" y="-408" font-family="Times,serif" font-size="9.00">0.493</text>
</g>
<!-- key 277913
bias &#45;0.770
h_scaling 1.000 -->
<g id="node7" class="node">
<title>key 277913
bias &#45;0.770
h_scaling 1.000</title>
<ellipse fill="white" stroke="black" cx="312.72" cy="-583.48" rx="63.78" ry="63.78"/>
<text text-anchor="middle" x="312.72" y="-591.28" font-family="Times,serif" font-size="9.00">key 277913</text>
<text text-anchor="middle" x="312.72" y="-581.28" font-family="Times,serif" font-size="9.00">bias &#45;0.770</text>
<text text-anchor="middle" x="312.72" y="-571.28" font-family="Times,serif" font-size="9.00">h_scaling 1.000</text>
</g>
<!-- ready&#45;&gt;key 277913
bias &#45;0.770
h_scaling 1.000 -->
<g id="edge15" class="edge">
<title>ready&#45;&gt;key 277913
bias &#45;0.770
h_scaling 1.000</title>
<path fill="none" stroke="blue" stroke-width="0.89" d="M403.98,-693.1C394.7,-682.06 377.17,-661.19 359.93,-640.67"/>
<polygon fill="blue" stroke="blue" stroke-width="0.89" points="362.47,-638.25 353.36,-632.85 357.11,-642.76 362.47,-638.25"/>
<text text-anchor="middle" x="402.22" y="-667.92" font-family="Times,serif" font-size="9.00">&#45;0.264</text>
</g>
<!-- go -->
<g id="node2" class="node">
<title>go</title>
<polygon fill="green" stroke="black" points="78.72,-711.12 50.72,-711.12 50.72,-693.12 78.72,-693.12 78.72,-711.12"/>
<text text-anchor="middle" x="64.72" y="-699.92" font-family="Times,serif" font-size="9.00">go</text>
</g>
<!-- go&#45;&gt;key 14977
bias &#45;0.062
h_scaling 1.000 -->
<g id="edge2" class="edge">
<title>go&#45;&gt;key 14977
bias &#45;0.062
h_scaling 1.000</title>
<path fill="none" stroke="red" stroke-width="2.48" d="M68.63,-693.1C73.2,-683.76 81.19,-667.41 89.61,-650.18"/>
<polygon fill="red" stroke="red" stroke-width="2.48" points="92.79,-651.65 94.03,-641.13 86.5,-648.58 92.79,-651.65"/>
<text text-anchor="middle" x="95.72" y="-667.92" font-family="Times,serif" font-size="9.00">0.792</text>
</g>
<!-- go&#45;&gt;key 5347
bias 0.141
h_scaling 1.000 -->
<g id="edge5" class="edge">
<title>go&#45;&gt;key 5347
bias 0.141
h_scaling 1.000</title>
<path fill="none" stroke="blue" stroke-width="2.38" d="M54.06,-692.95C42.56,-683.41 24.95,-666.44 17.72,-647.12 -2.11,-594.14 -8.62,-569.9 17.72,-519.84 36.85,-483.46 74.28,-456.9 107.91,-439.15"/>
<polygon fill="blue" stroke="blue" stroke-width="2.38" points="109.5,-442.27 116.81,-434.61 106.32,-436.04 109.5,-442.27"/>
<text text-anchor="middle" x="33.22" y="-581.28" font-family="Times,serif" font-size="9.00">&#45;0.760</text>
</g>
<!-- output
bias &#45;0.407
h_scaling 1.000 -->
<g id="node3" class="node">
<title>output
bias &#45;0.407
h_scaling 1.000</title>
<ellipse fill="lightblue" stroke="black" cx="284.72" cy="-236.92" rx="63.78" ry="63.78"/>
<text text-anchor="middle" x="284.72" y="-244.72" font-family="Times,serif" font-size="9.00">output</text>
<text text-anchor="middle" x="284.72" y="-234.72" font-family="Times,serif" font-size="9.00">bias &#45;0.407</text>
<text text-anchor="middle" x="284.72" y="-224.72" font-family="Times,serif" font-size="9.00">h_scaling 1.000</text>
</g>
<!-- output
bias &#45;0.407
h_scaling 1.000&#45;&gt;key 69998
bias &#45;0.319
h_scaling 1.000 -->
<g id="edge14" class="edge">
<title>output
bias &#45;0.407
h_scaling 1.000&#45;&gt;key 69998
bias &#45;0.319
h_scaling 1.000</title>
<path fill="none" stroke="blue" stroke-width="0.53" d="M284.72,-173.11C284.72,-161.59 284.72,-149.48 284.72,-137.69"/>
<polygon fill="blue" stroke="blue" stroke-width="0.53" points="288.22,-137.44 284.72,-127.44 281.22,-137.44 288.22,-137.44"/>
<text text-anchor="middle" x="300.22" y="-148.08" font-family="Times,serif" font-size="9.00">&#45;0.144</text>
</g>
<!-- key 14977
bias &#45;0.062
h_scaling 1.000&#45;&gt;output
bias &#45;0.407
h_scaling 1.000 -->
<g id="edge8" class="edge">
<title>key 14977
bias &#45;0.062
h_scaling 1.000&#45;&gt;output
bias &#45;0.407
h_scaling 1.000</title>
<path fill="none" stroke="blue" stroke-width="3.1" d="M176.76,-551.5C224.84,-523.88 288,-485.98 294.72,-473.84 322.55,-423.49 316.86,-357.45 306.04,-308.05"/>
<polygon fill="blue" stroke="blue" stroke-width="3.1" points="309.4,-307.04 303.74,-298.09 302.58,-308.62 309.4,-307.04"/>
<text text-anchor="middle" x="330.22" y="-408" font-family="Times,serif" font-size="9.00">&#45;1.000</text>
</g>
<!-- key 14977
bias &#45;0.062
h_scaling 1.000&#45;&gt;key 14977
bias &#45;0.062
h_scaling 1.000 -->
<g id="edge6" class="edge">
<title>key 14977
bias &#45;0.062
h_scaling 1.000&#45;&gt;key 14977
bias &#45;0.062
h_scaling 1.000</title>
<path fill="none" stroke="red" stroke-width="2.5" d="M183.66,-598.77C195.22,-596.89 203.36,-591.79 203.36,-583.48 203.36,-577.76 199.51,-573.56 193.35,-570.89"/>
<polygon fill="red" stroke="red" stroke-width="2.5" points="194.23,-567.5 183.66,-568.18 192.35,-574.24 194.23,-567.5"/>
<text text-anchor="middle" x="217.36" y="-581.28" font-family="Times,serif" font-size="9.00">0.801</text>
</g>
<!-- key 14977
bias &#45;0.062
h_scaling 1.000&#45;&gt;key 5347
bias 0.141
h_scaling 1.000 -->
<g id="edge3" class="edge">
<title>key 14977
bias &#45;0.062
h_scaling 1.000&#45;&gt;key 5347
bias 0.141
h_scaling 1.000</title>
<path fill="none" stroke="blue" stroke-width="3.09" d="M145.93,-524.25C148.72,-516.76 151.39,-509.16 153.72,-501.84 155.73,-495.51 157.66,-488.89 159.49,-482.23"/>
<polygon fill="blue" stroke="blue" stroke-width="3.09" points="162.89,-483.03 162.08,-472.47 156.13,-481.23 162.89,-483.03"/>
<text text-anchor="middle" x="172.22" y="-494.64" font-family="Times,serif" font-size="9.00">&#45;0.998</text>
</g>
<!-- key 5347
bias 0.141
h_scaling 1.000&#45;&gt;output
bias &#45;0.407
h_scaling 1.000 -->
<g id="edge1" class="edge">
<title>key 5347
bias 0.141
h_scaling 1.000&#45;&gt;output
bias &#45;0.407
h_scaling 1.000</title>
<path fill="none" stroke="red" stroke-width="3.1" d="M209.61,-355.94C220.89,-338.22 233.55,-318.33 245.21,-300"/>
<polygon fill="red" stroke="red" stroke-width="3.1" points="248.43,-301.46 250.85,-291.14 242.53,-297.7 248.43,-301.46"/>
<text text-anchor="middle" x="244.72" y="-321.36" font-family="Times,serif" font-size="9.00">1.000</text>
</g>
<!-- key 5347
bias 0.141
h_scaling 1.000&#45;&gt;key 14977
bias &#45;0.062
h_scaling 1.000 -->
<g id="edge13" class="edge">
<title>key 5347
bias 0.141
h_scaling 1.000&#45;&gt;key 14977
bias &#45;0.062
h_scaling 1.000</title>
<path fill="none" stroke="blue" stroke-width="0.55" d="M134.64,-459.37C128.09,-469.51 122.3,-480.56 118.72,-491.84 116.84,-497.75 115.61,-503.98 114.88,-510.3"/>
<polygon fill="blue" stroke="blue" stroke-width="0.55" points="111.39,-510.03 114.1,-520.27 118.36,-510.57 111.39,-510.03"/>
<text text-anchor="middle" x="134.22" y="-494.64" font-family="Times,serif" font-size="9.00">&#45;0.150</text>
</g>
<!-- key 5347
bias 0.141
h_scaling 1.000&#45;&gt;key 5347
bias 0.141
h_scaling 1.000 -->
<g id="edge9" class="edge">
<title>key 5347
bias 0.141
h_scaling 1.000&#45;&gt;key 5347
bias 0.141
h_scaling 1.000</title>
<path fill="none" stroke="red" stroke-width="1.62" d="M237.66,-425.5C249.22,-423.61 257.36,-418.51 257.36,-410.2 257.36,-404.48 253.51,-400.29 247.35,-397.61"/>
<polygon fill="red" stroke="red" stroke-width="1.62" points="248.23,-394.22 237.66,-394.9 246.35,-400.96 248.23,-394.22"/>
<text text-anchor="middle" x="271.36" y="-408" font-family="Times,serif" font-size="9.00">0.506</text>
</g>
<!-- key 69998
bias &#45;0.319
h_scaling 1.000&#45;&gt;key 14977
bias &#45;0.062
h_scaling 1.000 -->
<g id="edge11" class="edge">
<title>key 69998
bias &#45;0.319
h_scaling 1.000&#45;&gt;key 14977
bias &#45;0.062
h_scaling 1.000</title>
<path fill="none" stroke="blue" stroke-width="1.77" d="M242.17,-111.17C197.26,-163.78 129.35,-254.2 102.72,-346.56 87.15,-400.56 93.64,-464.2 103.06,-511.76"/>
<polygon fill="blue" stroke="blue" stroke-width="1.77" points="99.65,-512.58 105.11,-521.66 106.51,-511.16 99.65,-512.58"/>
<text text-anchor="middle" x="127.22" y="-321.36" font-family="Times,serif" font-size="9.00">&#45;0.557</text>
</g>
<!-- key 69998
bias &#45;0.319
h_scaling 1.000&#45;&gt;key 69998
bias &#45;0.319
h_scaling 1.000 -->
<g id="edge12" class="edge">
<title>key 69998
bias &#45;0.319
h_scaling 1.000&#45;&gt;key 69998
bias &#45;0.319
h_scaling 1.000</title>
<path fill="none" stroke="red" stroke-width="2.07" d="M346.66,-78.94C358.22,-77.05 366.36,-71.95 366.36,-63.64 366.36,-57.92 362.51,-53.73 356.35,-51.05"/>
<polygon fill="red" stroke="red" stroke-width="2.07" points="357.23,-47.66 346.66,-48.34 355.35,-54.4 357.23,-47.66"/>
<text text-anchor="middle" x="380.36" y="-61.44" font-family="Times,serif" font-size="9.00">0.657</text>
</g>
<!-- key 277913
bias &#45;0.770
h_scaling 1.000&#45;&gt;key 277913
bias &#45;0.770
h_scaling 1.000 -->
<g id="edge16" class="edge">
<title>key 277913
bias &#45;0.770
h_scaling 1.000&#45;&gt;key 277913
bias &#45;0.770
h_scaling 1.000</title>
<path fill="none" stroke="red" stroke-width="0.31" d="M374.66,-598.77C386.22,-596.89 394.36,-591.79 394.36,-583.48 394.36,-577.76 390.51,-573.56 384.35,-570.89"/>
<polygon fill="red" stroke="red" stroke-width="0.31" points="385.23,-567.5 374.66,-568.18 383.35,-574.24 385.23,-567.5"/>
<text text-anchor="middle" x="408.36" y="-581.28" font-family="Times,serif" font-size="9.00">0.071</text>
</g>
</g>
</svg>
