<?xml version="1.0" encoding="UTF-8" standalone="no"?>
<!DOCTYPE svg PUBLIC "-//W3C//DTD SVG 1.1//EN"
 "http://www.w3.org/Graphics/SVG/1.1/DTD/svg11.dtd">
<!-- Generated by graphviz version 2.43.0 (0)
 -->
<!-- Title: %3 Pages: 1 -->
<svg width="381pt" height="892pt"
 viewBox="0.00 0.00 380.64 892.40" xmlns="http://www.w3.org/2000/svg" xmlns:xlink="http://www.w3.org/1999/xlink">
<g id="graph0" class="graph" transform="scale(1 1) rotate(0) translate(4 888.4)">
<title>%3</title>
<polygon fill="white" stroke="transparent" points="-4,4 -4,-888.4 376.64,-888.4 376.64,4 -4,4"/>
<!-- ready -->
<g id="node1" class="node">
<title>ready</title>
<polygon fill="yellow" stroke="black" points="99.14,-884.4 56.14,-884.4 56.14,-866.4 99.14,-866.4 99.14,-884.4"/>
<text text-anchor="middle" x="77.64" y="-873.2" font-family="Times,serif" font-size="9.00">ready</text>
</g>
<!-- key 23464
bias &#45;0.461
h_scaling 1.000 -->
<g id="node4" class="node">
<title>key 23464
bias &#45;0.461
h_scaling 1.000</title>
<ellipse fill="white" stroke="black" cx="169.64" cy="-756.76" rx="63.78" ry="63.78"/>
<text text-anchor="middle" x="169.64" y="-764.56" font-family="Times,serif" font-size="9.00">key 23464</text>
<text text-anchor="middle" x="169.64" y="-754.56" font-family="Times,serif" font-size="9.00">bias &#45;0.461</text>
<text text-anchor="middle" x="169.64" y="-744.56" font-family="Times,serif" font-size="9.00">h_scaling 1.000</text>
</g>
<!-- ready&#45;&gt;key 23464
bias &#45;0.461
h_scaling 1.000 -->
<g id="edge8" class="edge">
<title>ready&#45;&gt;key 23464
bias &#45;0.461
h_scaling 1.000</title>
<path fill="none" stroke="red" stroke-width="0.1" d="M83.96,-866.38C92.49,-855.56 108.45,-835.33 124.3,-815.24"/>
<polygon fill="red" stroke="red" stroke-width="0.1" points="127.15,-817.28 130.59,-807.26 121.65,-812.95 127.15,-817.28"/>
<text text-anchor="middle" x="119.64" y="-841.2" font-family="Times,serif" font-size="9.00">0.000</text>
</g>
<!-- key 42765
bias &#45;0.260
h_scaling 1.000 -->
<g id="node5" class="node">
<title>key 42765
bias &#45;0.260
h_scaling 1.000</title>
<ellipse fill="white" stroke="black" cx="63.64" cy="-63.64" rx="63.78" ry="63.78"/>
<text text-anchor="middle" x="63.64" y="-71.44" font-family="Times,serif" font-size="9.00">key 42765</text>
<text text-anchor="middle" x="63.64" y="-61.44" font-family="Times,serif" font-size="9.00">bias &#45;0.260</text>
<text text-anchor="middle" x="63.64" y="-51.44" font-family="Times,serif" font-size="9.00">h_scaling 1.000</text>
</g>
<!-- ready&#45;&gt;key 42765
bias &#45;0.260
h_scaling 1.000 -->
<g id="edge15" class="edge">
<title>ready&#45;&gt;key 42765
bias &#45;0.260
h_scaling 1.000</title>
<path fill="none" stroke="blue" stroke-width="0.1" d="M55.94,-868.23C45.39,-864.2 33.35,-857.87 25.64,-848.4 -0.66,-816.07 1.64,-799.43 1.64,-757.76 1.64,-757.76 1.64,-757.76 1.64,-235.92 1.64,-199.09 14.47,-160.33 28.46,-129.01"/>
<polygon fill="blue" stroke="blue" stroke-width="0.1" points="31.81,-130.08 32.82,-119.54 25.46,-127.15 31.81,-130.08"/>
</g>
<!-- key 1621
bias &#45;0.904
h_scaling 1.000 -->
<g id="node6" class="node">
<title>key 1621
bias &#45;0.904
h_scaling 1.000</title>
<ellipse fill="white" stroke="black" cx="208.64" cy="-63.64" rx="63.78" ry="63.78"/>
<text text-anchor="middle" x="208.64" y="-71.44" font-family="Times,serif" font-size="9.00">key 1621</text>
<text text-anchor="middle" x="208.64" y="-61.44" font-family="Times,serif" font-size="9.00">bias &#45;0.904</text>
<text text-anchor="middle" x="208.64" y="-51.44" font-family="Times,serif" font-size="9.00">h_scaling 1.000</text>
</g>
<!-- ready&#45;&gt;key 1621
bias &#45;0.904
h_scaling 1.000 -->
<g id="edge16" class="edge">
<title>ready&#45;&gt;key 1621
bias &#45;0.904
h_scaling 1.000</title>
<path fill="none" stroke="blue" stroke-width="0.1" d="M72.98,-866.21C62.83,-847.58 39.64,-800.35 39.64,-757.76 39.64,-757.76 39.64,-757.76 39.64,-322.56 39.64,-255.56 23.75,-229.21 60.64,-173.28 82.38,-140.32 104.74,-150.54 136.64,-127.28 142.44,-123.05 148.33,-118.46 154.13,-113.75"/>
<polygon fill="blue" stroke="blue" stroke-width="0.1" points="156.48,-116.35 161.95,-107.28 152.02,-110.96 156.48,-116.35"/>
</g>
<!-- key 1622
bias 0.137
h_scaling 1.000 -->
<g id="node7" class="node">
<title>key 1622
bias 0.137
h_scaling 1.000</title>
<ellipse fill="white" stroke="black" cx="195.64" cy="-410.2" rx="63.78" ry="63.78"/>
<text text-anchor="middle" x="195.64" y="-418" font-family="Times,serif" font-size="9.00">key 1622</text>
<text text-anchor="middle" x="195.64" y="-408" font-family="Times,serif" font-size="9.00">bias 0.137</text>
<text text-anchor="middle" x="195.64" y="-398" font-family="Times,serif" font-size="9.00">h_scaling 1.000</text>
</g>
<!-- ready&#45;&gt;key 1622
bias 0.137
h_scaling 1.000 -->
<g id="edge6" class="edge">
<title>ready&#45;&gt;key 1622
bias 0.137
h_scaling 1.000</title>
<path fill="none" stroke="blue" stroke-width="0.1" d="M77.26,-866.32C75.67,-826.8 71.89,-650.56 122.64,-519.84 129.47,-502.23 139.56,-484.61 150.08,-468.83"/>
<polygon fill="blue" stroke="blue" stroke-width="0.1" points="153.18,-470.5 155.94,-460.27 147.4,-466.54 153.18,-470.5"/>
</g>
<!-- key 25849
bias &#45;0.387
h_scaling 1.000 -->
<g id="node8" class="node">
<title>key 25849
bias &#45;0.387
h_scaling 1.000</title>
<ellipse fill="white" stroke="black" cx="195.64" cy="-583.48" rx="63.78" ry="63.78"/>
<text text-anchor="middle" x="195.64" y="-591.28" font-family="Times,serif" font-size="9.00">key 25849</text>
<text text-anchor="middle" x="195.64" y="-581.28" font-family="Times,serif" font-size="9.00">bias &#45;0.387</text>
<text text-anchor="middle" x="195.64" y="-571.28" font-family="Times,serif" font-size="9.00">h_scaling 1.000</text>
</g>
<!-- ready&#45;&gt;key 25849
bias &#45;0.387
h_scaling 1.000 -->
<g id="edge14" class="edge">
<title>ready&#45;&gt;key 25849
bias &#45;0.387
h_scaling 1.000</title>
<path fill="none" stroke="red" stroke-width="0.1" d="M99.45,-872.15C148.55,-866.58 265.34,-850.41 288.64,-820.4 323.33,-775.71 308.25,-746.18 288.64,-693.12 280.54,-671.2 265.83,-650.72 250.47,-633.58"/>
<polygon fill="red" stroke="red" stroke-width="0.1" points="252.75,-630.9 243.38,-625.95 247.62,-635.66 252.75,-630.9"/>
<text text-anchor="middle" x="323.64" y="-754.56" font-family="Times,serif" font-size="9.00">0.000</text>
</g>
<!-- go -->
<g id="node2" class="node">
<title>go</title>
<polygon fill="green" stroke="black" points="335.64,-592.48 307.64,-592.48 307.64,-574.48 335.64,-574.48 335.64,-592.48"/>
<text text-anchor="middle" x="321.64" y="-581.28" font-family="Times,serif" font-size="9.00">go</text>
</g>
<!-- go&#45;&gt;key 1621
bias &#45;0.904
h_scaling 1.000 -->
<g id="edge3" class="edge">
<title>go&#45;&gt;key 1621
bias &#45;0.904
h_scaling 1.000</title>
<path fill="none" stroke="red" stroke-width="0.1" d="M323.57,-574.23C333.34,-530.6 374.65,-322.95 312.64,-173.28 302.71,-149.32 284.84,-127.6 266.67,-109.99"/>
<polygon fill="red" stroke="red" stroke-width="0.1" points="268.58,-106.99 258.89,-102.7 263.8,-112.09 268.58,-106.99"/>
<text text-anchor="middle" x="358.64" y="-321.36" font-family="Times,serif" font-size="9.00">0.000</text>
</g>
<!-- go&#45;&gt;key 1622
bias 0.137
h_scaling 1.000 -->
<g id="edge1" class="edge">
<title>go&#45;&gt;key 1622
bias 0.137
h_scaling 1.000</title>
<path fill="none" stroke="red" stroke-width="0.1" d="M315.56,-574.22C301.84,-555.56 267.43,-508.79 238.98,-470.11"/>
<polygon fill="red" stroke="red" stroke-width="0.1" points="241.75,-467.97 233,-461.99 236.11,-472.12 241.75,-467.97"/>
<text text-anchor="middle" x="272.64" y="-494.64" font-family="Times,serif" font-size="9.00">0.000</text>
</g>
<!-- output
bias 0.405
h_scaling 1.000 -->
<g id="node3" class="node">
<title>output
bias 0.405
h_scaling 1.000</title>
<ellipse fill="lightblue" stroke="black" cx="195.64" cy="-236.92" rx="63.78" ry="63.78"/>
<text text-anchor="middle" x="195.64" y="-244.72" font-family="Times,serif" font-size="9.00">output</text>
<text text-anchor="middle" x="195.64" y="-234.72" font-family="Times,serif" font-size="9.00">bias 0.405</text>
<text text-anchor="middle" x="195.64" y="-224.72" font-family="Times,serif" font-size="9.00">h_scaling 1.000</text>
</g>
<!-- output
bias 0.405
h_scaling 1.000&#45;&gt;key 42765
bias &#45;0.260
h_scaling 1.000 -->
<g id="edge12" class="edge">
<title>output
bias 0.405
h_scaling 1.000&#45;&gt;key 42765
bias &#45;0.260
h_scaling 1.000</title>
<path fill="none" stroke="red" stroke-width="0.1" d="M157.1,-185.92C141.86,-166.13 124.22,-143.25 108.41,-122.74"/>
<polygon fill="red" stroke="red" stroke-width="0.1" points="111.1,-120.49 102.22,-114.7 105.55,-124.76 111.1,-120.49"/>
<text text-anchor="middle" x="143.64" y="-148.08" font-family="Times,serif" font-size="9.00">0.000</text>
</g>
<!-- output
bias 0.405
h_scaling 1.000&#45;&gt;key 1621
bias &#45;0.904
h_scaling 1.000 -->
<g id="edge7" class="edge">
<title>output
bias 0.405
h_scaling 1.000&#45;&gt;key 1621
bias &#45;0.904
h_scaling 1.000</title>
<path fill="none" stroke="blue" stroke-width="0.1" d="M193.87,-173.11C194.55,-161.18 195.46,-148.61 196.52,-136.42"/>
<polygon fill="blue" stroke="blue" stroke-width="0.1" points="200.02,-136.57 197.45,-126.29 193.05,-135.93 200.02,-136.57"/>
</g>
<!-- key 23464
bias &#45;0.461
h_scaling 1.000&#45;&gt;key 23464
bias &#45;0.461
h_scaling 1.000 -->
<g id="edge11" class="edge">
<title>key 23464
bias &#45;0.461
h_scaling 1.000&#45;&gt;key 23464
bias &#45;0.461
h_scaling 1.000</title>
<path fill="none" stroke="red" stroke-width="0.1" d="M231.58,-772.05C243.14,-770.17 251.28,-765.07 251.28,-756.76 251.28,-751.04 247.43,-746.84 241.27,-744.17"/>
<polygon fill="red" stroke="red" stroke-width="0.1" points="242.16,-740.78 231.58,-741.46 240.27,-747.52 242.16,-740.78"/>
<text text-anchor="middle" x="265.28" y="-754.56" font-family="Times,serif" font-size="9.00">0.000</text>
</g>
<!-- key 23464
bias &#45;0.461
h_scaling 1.000&#45;&gt;key 25849
bias &#45;0.387
h_scaling 1.000 -->
<g id="edge9" class="edge">
<title>key 23464
bias &#45;0.461
h_scaling 1.000&#45;&gt;key 25849
bias &#45;0.387
h_scaling 1.000</title>
<path fill="none" stroke="red" stroke-width="0.1" d="M179.1,-693.44C180.91,-681.48 182.83,-668.87 184.69,-656.63"/>
<polygon fill="red" stroke="red" stroke-width="0.1" points="188.19,-656.88 186.23,-646.46 181.27,-655.83 188.19,-656.88"/>
<text text-anchor="middle" x="196.64" y="-667.92" font-family="Times,serif" font-size="9.00">0.000</text>
</g>
<!-- key 42765
bias &#45;0.260
h_scaling 1.000&#45;&gt;key 1622
bias 0.137
h_scaling 1.000 -->
<g id="edge13" class="edge">
<title>key 42765
bias &#45;0.260
h_scaling 1.000&#45;&gt;key 1622
bias 0.137
h_scaling 1.000</title>
<path fill="none" stroke="red" stroke-width="0.1" d="M61.66,-127.4C62.47,-176.69 68.92,-245.89 94.64,-300.56 105.29,-323.19 122.4,-344.29 139.53,-361.76"/>
<polygon fill="red" stroke="red" stroke-width="0.1" points="137.29,-364.46 146.85,-369.01 142.21,-359.49 137.29,-364.46"/>
<text text-anchor="middle" x="108.64" y="-234.72" font-family="Times,serif" font-size="9.00">0.000</text>
</g>
<!-- key 1621
bias &#45;0.904
h_scaling 1.000&#45;&gt;output
bias 0.405
h_scaling 1.000 -->
<g id="edge2" class="edge">
<title>key 1621
bias &#45;0.904
h_scaling 1.000&#45;&gt;output
bias 0.405
h_scaling 1.000</title>
<path fill="none" stroke="blue" stroke-width="0.1" d="M210.4,-127.54C209.73,-139.4 208.83,-151.9 207.77,-164.01"/>
<polygon fill="blue" stroke="blue" stroke-width="0.1" points="204.27,-163.81 206.85,-174.08 211.24,-164.44 204.27,-163.81"/>
</g>
<!-- key 1621
bias &#45;0.904
h_scaling 1.000&#45;&gt;key 1621
bias &#45;0.904
h_scaling 1.000 -->
<g id="edge5" class="edge">
<title>key 1621
bias &#45;0.904
h_scaling 1.000&#45;&gt;key 1621
bias &#45;0.904
h_scaling 1.000</title>
<path fill="none" stroke="red" stroke-width="0.1" d="M270.58,-78.94C282.14,-77.05 290.28,-71.95 290.28,-63.64 290.28,-57.92 286.43,-53.73 280.27,-51.05"/>
<polygon fill="red" stroke="red" stroke-width="0.1" points="281.16,-47.66 270.58,-48.34 279.27,-54.4 281.16,-47.66"/>
<text text-anchor="middle" x="304.28" y="-61.44" font-family="Times,serif" font-size="9.00">0.000</text>
</g>
<!-- key 1622
bias 0.137
h_scaling 1.000&#45;&gt;output
bias 0.405
h_scaling 1.000 -->
<g id="edge17" class="edge">
<title>key 1622
bias 0.137
h_scaling 1.000&#45;&gt;output
bias 0.405
h_scaling 1.000</title>
<path fill="none" stroke="blue" stroke-width="0.1" d="M195.64,-346.39C195.64,-334.87 195.64,-322.76 195.64,-310.97"/>
<polygon fill="blue" stroke="blue" stroke-width="0.1" points="199.14,-310.72 195.64,-300.72 192.14,-310.72 199.14,-310.72"/>
</g>
<!-- key 1622
bias 0.137
h_scaling 1.000&#45;&gt;key 1621
bias &#45;0.904
h_scaling 1.000 -->
<g id="edge4" class="edge">
<title>key 1622
bias 0.137
h_scaling 1.000&#45;&gt;key 1621
bias &#45;0.904
h_scaling 1.000</title>
<path fill="none" stroke="red" stroke-width="0.1" d="M236.74,-361.28C249.55,-343.41 262.05,-322.19 268.64,-300.56 285.13,-246.45 282.76,-228.06 268.64,-173.28 264.45,-157.04 257.26,-140.63 249.29,-125.66"/>
<polygon fill="red" stroke="red" stroke-width="0.1" points="252.14,-123.59 244.24,-116.53 246.02,-126.98 252.14,-123.59"/>
<text text-anchor="middle" x="294.64" y="-234.72" font-family="Times,serif" font-size="9.00">0.000</text>
</g>
<!-- key 25849
bias &#45;0.387
h_scaling 1.000&#45;&gt;key 1622
bias 0.137
h_scaling 1.000 -->
<g id="edge10" class="edge">
<title>key 25849
bias &#45;0.387
h_scaling 1.000&#45;&gt;key 1622
bias 0.137
h_scaling 1.000</title>
<path fill="none" stroke="blue" stroke-width="0.1" d="M195.64,-519.67C195.64,-508.15 195.64,-496.04 195.64,-484.25"/>
<polygon fill="blue" stroke="blue" stroke-width="0.1" points="199.14,-484 195.64,-474 192.14,-484 199.14,-484"/>
</g>
</g>
</svg>
