<?xml version="1.0" encoding="UTF-8" standalone="no"?>
<!DOCTYPE svg PUBLIC "-//W3C//DTD SVG 1.1//EN"
 "http://www.w3.org/Graphics/SVG/1.1/DTD/svg11.dtd">
<!-- Generated by graphviz version 2.43.0 (0)
 -->
<!-- Title: %3 Pages: 1 -->
<svg width="453pt" height="892pt"
 viewBox="0.00 0.00 452.53 892.40" xmlns="http://www.w3.org/2000/svg" xmlns:xlink="http://www.w3.org/1999/xlink">
<g id="graph0" class="graph" transform="scale(1 1) rotate(0) translate(4 888.4)">
<title>%3</title>
<polygon fill="white" stroke="transparent" points="-4,4 -4,-888.4 448.53,-888.4 448.53,4 -4,4"/>
<!-- ready -->
<g id="node1" class="node">
<title>ready</title>
<polygon fill="yellow" stroke="black" points="260.03,-884.4 217.03,-884.4 217.03,-866.4 260.03,-866.4 260.03,-884.4"/>
<text text-anchor="middle" x="238.53" y="-873.2" font-family="Times,serif" font-size="9.00">ready</text>
</g>
<!-- key 23464
bias &#45;0.461
h_scaling 1.000 -->
<g id="node4" class="node">
<title>key 23464
bias &#45;0.461
h_scaling 1.000</title>
<ellipse fill="white" stroke="black" cx="92.53" cy="-756.76" rx="63.78" ry="63.78"/>
<text text-anchor="middle" x="92.53" y="-764.56" font-family="Times,serif" font-size="9.00">key 23464</text>
<text text-anchor="middle" x="92.53" y="-754.56" font-family="Times,serif" font-size="9.00">bias &#45;0.461</text>
<text text-anchor="middle" x="92.53" y="-744.56" font-family="Times,serif" font-size="9.00">h_scaling 1.000</text>
</g>
<!-- ready&#45;&gt;key 23464
bias &#45;0.461
h_scaling 1.000 -->
<g id="edge8" class="edge">
<title>ready&#45;&gt;key 23464
bias &#45;0.461
h_scaling 1.000</title>
<path fill="none" stroke="red" stroke-width="3.01" d="M224.15,-866.28C215.86,-861.41 205.36,-854.91 196.53,-848.4 179.55,-835.87 161.94,-821.24 146.15,-807.42"/>
<polygon fill="red" stroke="red" stroke-width="3.01" points="148.37,-804.71 138.55,-800.72 143.74,-809.96 148.37,-804.71"/>
<text text-anchor="middle" x="210.53" y="-841.2" font-family="Times,serif" font-size="9.00">0.971</text>
</g>
<!-- key 42765
bias &#45;0.260
h_scaling 1.000 -->
<g id="node5" class="node">
<title>key 42765
bias &#45;0.260
h_scaling 1.000</title>
<ellipse fill="white" stroke="black" cx="104.53" cy="-63.64" rx="63.78" ry="63.78"/>
<text text-anchor="middle" x="104.53" y="-71.44" font-family="Times,serif" font-size="9.00">key 42765</text>
<text text-anchor="middle" x="104.53" y="-61.44" font-family="Times,serif" font-size="9.00">bias &#45;0.260</text>
<text text-anchor="middle" x="104.53" y="-51.44" font-family="Times,serif" font-size="9.00">h_scaling 1.000</text>
</g>
<!-- ready&#45;&gt;key 42765
bias &#45;0.260
h_scaling 1.000 -->
<g id="edge15" class="edge">
<title>ready&#45;&gt;key 42765
bias &#45;0.260
h_scaling 1.000</title>
<path fill="none" stroke="blue" stroke-width="0.97" d="M216.87,-871.79C167.39,-865.41 48.15,-847.55 19.53,-820.4 -1.58,-800.37 0.53,-786.85 0.53,-757.76 0.53,-757.76 0.53,-757.76 0.53,-235.92 0.53,-191.34 26.58,-148.48 52.61,-116.78"/>
<polygon fill="blue" stroke="blue" stroke-width="0.97" points="55.43,-118.86 59.21,-108.97 50.09,-114.35 55.43,-118.86"/>
<text text-anchor="middle" x="16.03" y="-494.64" font-family="Times,serif" font-size="9.00">&#45;0.289</text>
</g>
<!-- key 1621
bias &#45;0.904
h_scaling 1.000 -->
<g id="node6" class="node">
<title>key 1621
bias &#45;0.904
h_scaling 1.000</title>
<ellipse fill="white" stroke="black" cx="314.53" cy="-63.64" rx="63.78" ry="63.78"/>
<text text-anchor="middle" x="314.53" y="-71.44" font-family="Times,serif" font-size="9.00">key 1621</text>
<text text-anchor="middle" x="314.53" y="-61.44" font-family="Times,serif" font-size="9.00">bias &#45;0.904</text>
<text text-anchor="middle" x="314.53" y="-51.44" font-family="Times,serif" font-size="9.00">h_scaling 1.000</text>
</g>
<!-- ready&#45;&gt;key 1621
bias &#45;0.904
h_scaling 1.000 -->
<g id="edge16" class="edge">
<title>ready&#45;&gt;key 1621
bias &#45;0.904
h_scaling 1.000</title>
<path fill="none" stroke="blue" stroke-width="0.81" d="M260.34,-870.5C307.25,-860.74 413.53,-830.6 413.53,-757.76 413.53,-757.76 413.53,-757.76 413.53,-235.92 413.53,-192.22 389.08,-149.66 364.48,-117.89"/>
<polygon fill="blue" stroke="blue" stroke-width="0.81" points="367.21,-115.7 358.24,-110.05 361.73,-120.06 367.21,-115.7"/>
<text text-anchor="middle" x="429.03" y="-494.64" font-family="Times,serif" font-size="9.00">&#45;0.236</text>
</g>
<!-- key 1622
bias 0.137
h_scaling 1.000 -->
<g id="node7" class="node">
<title>key 1622
bias 0.137
h_scaling 1.000</title>
<ellipse fill="white" stroke="black" cx="254.53" cy="-410.2" rx="63.78" ry="63.78"/>
<text text-anchor="middle" x="254.53" y="-418" font-family="Times,serif" font-size="9.00">key 1622</text>
<text text-anchor="middle" x="254.53" y="-408" font-family="Times,serif" font-size="9.00">bias 0.137</text>
<text text-anchor="middle" x="254.53" y="-398" font-family="Times,serif" font-size="9.00">h_scaling 1.000</text>
</g>
<!-- ready&#45;&gt;key 1622
bias 0.137
h_scaling 1.000 -->
<g id="edge6" class="edge">
<title>ready&#45;&gt;key 1622
bias 0.137
h_scaling 1.000</title>
<path fill="none" stroke="blue" stroke-width="0.89" d="M243.62,-866.36C249.82,-856.13 259.99,-837.71 264.53,-820.4 298.38,-691.08 288.27,-652.9 275.53,-519.84 274.36,-507.62 272.46,-494.72 270.28,-482.26"/>
<polygon fill="blue" stroke="blue" stroke-width="0.89" points="273.71,-481.58 268.47,-472.38 266.83,-482.84 273.71,-481.58"/>
<text text-anchor="middle" x="302.03" y="-667.92" font-family="Times,serif" font-size="9.00">&#45;0.262</text>
</g>
<!-- key 25849
bias &#45;0.387
h_scaling 1.000 -->
<g id="node8" class="node">
<title>key 25849
bias &#45;0.387
h_scaling 1.000</title>
<ellipse fill="white" stroke="black" cx="202.53" cy="-583.48" rx="63.78" ry="63.78"/>
<text text-anchor="middle" x="202.53" y="-591.28" font-family="Times,serif" font-size="9.00">key 25849</text>
<text text-anchor="middle" x="202.53" y="-581.28" font-family="Times,serif" font-size="9.00">bias &#45;0.387</text>
<text text-anchor="middle" x="202.53" y="-571.28" font-family="Times,serif" font-size="9.00">h_scaling 1.000</text>
</g>
<!-- ready&#45;&gt;key 25849
bias &#45;0.387
h_scaling 1.000 -->
<g id="edge14" class="edge">
<title>ready&#45;&gt;key 25849
bias &#45;0.387
h_scaling 1.000</title>
<path fill="none" stroke="red" stroke-width="0.56" d="M237.53,-866.34C233.82,-836.47 220.6,-729.99 211.51,-656.81"/>
<polygon fill="red" stroke="red" stroke-width="0.56" points="214.96,-656.21 210.26,-646.72 208.01,-657.07 214.96,-656.21"/>
<text text-anchor="middle" x="246.53" y="-754.56" font-family="Times,serif" font-size="9.00">0.155</text>
</g>
<!-- go -->
<g id="node2" class="node">
<title>go</title>
<polygon fill="green" stroke="black" points="367.53,-592.48 339.53,-592.48 339.53,-574.48 367.53,-574.48 367.53,-592.48"/>
<text text-anchor="middle" x="353.53" y="-581.28" font-family="Times,serif" font-size="9.00">go</text>
</g>
<!-- go&#45;&gt;key 1621
bias &#45;0.904
h_scaling 1.000 -->
<g id="edge3" class="edge">
<title>go&#45;&gt;key 1621
bias &#45;0.904
h_scaling 1.000</title>
<path fill="none" stroke="red" stroke-width="3.1" d="M353.72,-574.36C354.61,-532.18 357.51,-333.78 337.53,-173.28 336,-161.05 333.81,-148.16 331.37,-135.69"/>
<polygon fill="red" stroke="red" stroke-width="3.1" points="334.78,-134.92 329.37,-125.81 327.92,-136.3 334.78,-134.92"/>
<text text-anchor="middle" x="363.53" y="-321.36" font-family="Times,serif" font-size="9.00">1.000</text>
</g>
<!-- go&#45;&gt;key 1622
bias 0.137
h_scaling 1.000 -->
<g id="edge1" class="edge">
<title>go&#45;&gt;key 1622
bias 0.137
h_scaling 1.000</title>
<path fill="none" stroke="red" stroke-width="3.04" d="M349.49,-574.36C341.49,-558.37 322.86,-521.72 305.53,-491.84 301.93,-485.63 298.09,-479.22 294.19,-472.84"/>
<polygon fill="red" stroke="red" stroke-width="3.04" points="297.08,-470.87 288.85,-464.2 291.13,-474.54 297.08,-470.87"/>
<text text-anchor="middle" x="324.53" y="-494.64" font-family="Times,serif" font-size="9.00">0.979</text>
</g>
<!-- output
bias 0.405
h_scaling 1.000 -->
<g id="node3" class="node">
<title>output
bias 0.405
h_scaling 1.000</title>
<ellipse fill="lightblue" stroke="black" cx="214.53" cy="-236.92" rx="63.78" ry="63.78"/>
<text text-anchor="middle" x="214.53" y="-244.72" font-family="Times,serif" font-size="9.00">output</text>
<text text-anchor="middle" x="214.53" y="-234.72" font-family="Times,serif" font-size="9.00">bias 0.405</text>
<text text-anchor="middle" x="214.53" y="-224.72" font-family="Times,serif" font-size="9.00">h_scaling 1.000</text>
</g>
<!-- output
bias 0.405
h_scaling 1.000&#45;&gt;key 42765
bias &#45;0.260
h_scaling 1.000 -->
<g id="edge12" class="edge">
<title>output
bias 0.405
h_scaling 1.000&#45;&gt;key 42765
bias &#45;0.260
h_scaling 1.000</title>
<path fill="none" stroke="red" stroke-width="3.05" d="M180.32,-182.66C168.84,-164.78 155.93,-144.68 144.07,-126.21"/>
<polygon fill="red" stroke="red" stroke-width="3.05" points="146.87,-124.09 138.52,-117.57 140.98,-127.87 146.87,-124.09"/>
<text text-anchor="middle" x="173.53" y="-148.08" font-family="Times,serif" font-size="9.00">0.984</text>
</g>
<!-- output
bias 0.405
h_scaling 1.000&#45;&gt;key 1621
bias &#45;0.904
h_scaling 1.000 -->
<g id="edge7" class="edge">
<title>output
bias 0.405
h_scaling 1.000&#45;&gt;key 1621
bias &#45;0.904
h_scaling 1.000</title>
<path fill="none" stroke="blue" stroke-width="1.57" d="M246.44,-181.25C256.32,-164.33 267.29,-145.54 277.49,-128.07"/>
<polygon fill="blue" stroke="blue" stroke-width="1.57" points="280.72,-129.48 282.74,-119.08 274.68,-125.95 280.72,-129.48"/>
<text text-anchor="middle" x="280.03" y="-148.08" font-family="Times,serif" font-size="9.00">&#45;0.491</text>
</g>
<!-- key 23464
bias &#45;0.461
h_scaling 1.000&#45;&gt;key 23464
bias &#45;0.461
h_scaling 1.000 -->
<g id="edge11" class="edge">
<title>key 23464
bias &#45;0.461
h_scaling 1.000&#45;&gt;key 23464
bias &#45;0.461
h_scaling 1.000</title>
<path fill="none" stroke="red" stroke-width="2.4" d="M154.47,-772.05C166.03,-770.17 174.17,-765.07 174.17,-756.76 174.17,-751.04 170.32,-746.84 164.16,-744.17"/>
<polygon fill="red" stroke="red" stroke-width="2.4" points="165.04,-740.78 154.47,-741.46 163.16,-747.52 165.04,-740.78"/>
<text text-anchor="middle" x="188.17" y="-754.56" font-family="Times,serif" font-size="9.00">0.767</text>
</g>
<!-- key 23464
bias &#45;0.461
h_scaling 1.000&#45;&gt;key 25849
bias &#45;0.387
h_scaling 1.000 -->
<g id="edge9" class="edge">
<title>key 23464
bias &#45;0.461
h_scaling 1.000&#45;&gt;key 25849
bias &#45;0.387
h_scaling 1.000</title>
<path fill="none" stroke="red" stroke-width="3.1" d="M126.73,-702.5C138.22,-684.61 151.12,-664.52 162.99,-646.04"/>
<polygon fill="red" stroke="red" stroke-width="3.1" points="166.08,-647.71 168.54,-637.4 160.19,-643.93 166.08,-647.71"/>
<text text-anchor="middle" x="161.53" y="-667.92" font-family="Times,serif" font-size="9.00">1.000</text>
</g>
<!-- key 42765
bias &#45;0.260
h_scaling 1.000&#45;&gt;key 1622
bias 0.137
h_scaling 1.000 -->
<g id="edge13" class="edge">
<title>key 42765
bias &#45;0.260
h_scaling 1.000&#45;&gt;key 1622
bias 0.137
h_scaling 1.000</title>
<path fill="none" stroke="red" stroke-width="1.24" d="M93.13,-126.39C87.05,-176.22 85.72,-246.65 113.53,-300.56 129.96,-332.42 160.45,-357.71 188.89,-375.85"/>
<polygon fill="red" stroke="red" stroke-width="1.24" points="187.28,-378.97 197.63,-381.24 190.96,-373.01 187.28,-378.97"/>
<text text-anchor="middle" x="127.53" y="-234.72" font-family="Times,serif" font-size="9.00">0.379</text>
</g>
<!-- key 1621
bias &#45;0.904
h_scaling 1.000&#45;&gt;output
bias 0.405
h_scaling 1.000 -->
<g id="edge2" class="edge">
<title>key 1621
bias &#45;0.904
h_scaling 1.000&#45;&gt;output
bias 0.405
h_scaling 1.000</title>
<path fill="none" stroke="blue" stroke-width="3.1" d="M259.5,-95.93C242.19,-108.8 225.1,-125.41 215.53,-145.28 212.79,-150.95 210.89,-157.07 209.62,-163.35"/>
<polygon fill="blue" stroke="blue" stroke-width="3.1" points="206.15,-162.91 208.13,-173.32 213.07,-163.95 206.15,-162.91"/>
<text text-anchor="middle" x="231.03" y="-148.08" font-family="Times,serif" font-size="9.00">&#45;1.000</text>
</g>
<!-- key 1621
bias &#45;0.904
h_scaling 1.000&#45;&gt;key 1621
bias &#45;0.904
h_scaling 1.000 -->
<g id="edge5" class="edge">
<title>key 1621
bias &#45;0.904
h_scaling 1.000&#45;&gt;key 1621
bias &#45;0.904
h_scaling 1.000</title>
<path fill="none" stroke="red" stroke-width="3.1" d="M376.47,-78.94C388.03,-77.05 396.17,-71.95 396.17,-63.64 396.17,-57.92 392.32,-53.73 386.16,-51.05"/>
<polygon fill="red" stroke="red" stroke-width="3.1" points="387.04,-47.66 376.47,-48.34 385.16,-54.4 387.04,-47.66"/>
<text text-anchor="middle" x="410.17" y="-61.44" font-family="Times,serif" font-size="9.00">1.000</text>
</g>
<!-- key 1622
bias 0.137
h_scaling 1.000&#45;&gt;output
bias 0.405
h_scaling 1.000 -->
<g id="edge17" class="edge">
<title>key 1622
bias 0.137
h_scaling 1.000&#45;&gt;output
bias 0.405
h_scaling 1.000</title>
<path fill="none" stroke="blue" stroke-width="1.36" d="M240.2,-347.85C237.25,-335.22 234.12,-321.84 231.11,-308.91"/>
<polygon fill="blue" stroke="blue" stroke-width="1.36" points="234.5,-308.07 228.82,-299.13 227.69,-309.66 234.5,-308.07"/>
<text text-anchor="middle" x="250.03" y="-321.36" font-family="Times,serif" font-size="9.00">&#45;0.420</text>
</g>
<!-- key 1622
bias 0.137
h_scaling 1.000&#45;&gt;key 1621
bias &#45;0.904
h_scaling 1.000 -->
<g id="edge4" class="edge">
<title>key 1622
bias 0.137
h_scaling 1.000&#45;&gt;key 1621
bias &#45;0.904
h_scaling 1.000</title>
<path fill="none" stroke="red" stroke-width="3.1" d="M274.73,-349.65C279.51,-333.84 284.19,-316.68 287.53,-300.56 298.75,-246.4 305.63,-184.22 309.63,-137.29"/>
<polygon fill="red" stroke="red" stroke-width="3.1" points="313.13,-137.47 310.46,-127.22 306.15,-136.9 313.13,-137.47"/>
<text text-anchor="middle" x="319.53" y="-234.72" font-family="Times,serif" font-size="9.00">1.000</text>
</g>
<!-- key 25849
bias &#45;0.387
h_scaling 1.000&#45;&gt;key 1622
bias 0.137
h_scaling 1.000 -->
<g id="edge10" class="edge">
<title>key 25849
bias &#45;0.387
h_scaling 1.000&#45;&gt;key 1622
bias 0.137
h_scaling 1.000</title>
<path fill="none" stroke="blue" stroke-width="1.81" d="M220.86,-522.09C224.88,-508.84 229.18,-494.7 233.3,-481.11"/>
<polygon fill="blue" stroke="blue" stroke-width="1.81" points="236.72,-481.91 236.27,-471.33 230.02,-479.88 236.72,-481.91"/>
<text text-anchor="middle" x="244.03" y="-494.64" font-family="Times,serif" font-size="9.00">&#45;0.569</text>
</g>
</g>
</svg>
