<?xml version="1.0" encoding="UTF-8" standalone="no"?>
<!DOCTYPE svg PUBLIC "-//W3C//DTD SVG 1.1//EN"
 "http://www.w3.org/Graphics/SVG/1.1/DTD/svg11.dtd">
<!-- Generated by graphviz version 2.43.0 (0)
 -->
<!-- Title: %3 Pages: 1 -->
<svg width="487pt" height="952pt"
 viewBox="0.00 0.00 487.28 951.68" xmlns="http://www.w3.org/2000/svg" xmlns:xlink="http://www.w3.org/1999/xlink">
<g id="graph0" class="graph" transform="scale(1 1) rotate(0) translate(4 947.68)">
<title>%3</title>
<polygon fill="white" stroke="transparent" points="-4,4 -4,-947.68 483.28,-947.68 483.28,4 -4,4"/>
<!-- ready -->
<g id="node1" class="node">
<title>ready</title>
<polygon fill="yellow" stroke="black" points="171.14,-889.04 128.14,-889.04 128.14,-871.04 171.14,-871.04 171.14,-889.04"/>
<text text-anchor="middle" x="149.64" y="-877.84" font-family="Times,serif" font-size="9.00">ready</text>
</g>
<!-- key 302317
bias &#45;0.420
h_scaling 0.002 -->
<g id="node7" class="node">
<title>key 302317
bias &#45;0.420
h_scaling 0.002</title>
<ellipse fill="white" stroke="black" cx="233.64" cy="-716.76" rx="63.78" ry="63.78"/>
<text text-anchor="middle" x="233.64" y="-724.56" font-family="Times,serif" font-size="9.00">key 302317</text>
<text text-anchor="middle" x="233.64" y="-714.56" font-family="Times,serif" font-size="9.00">bias &#45;0.420</text>
<text text-anchor="middle" x="233.64" y="-704.56" font-family="Times,serif" font-size="9.00">h_scaling 0.002</text>
</g>
<!-- ready&#45;&gt;key 302317
bias &#45;0.420
h_scaling 0.002 -->
<g id="edge14" class="edge">
<title>ready&#45;&gt;key 302317
bias &#45;0.420
h_scaling 0.002</title>
<path fill="none" stroke="blue" stroke-width="2.91" d="M153.92,-870.82C162.42,-854.49 182.14,-816.63 199.84,-782.65"/>
<polygon fill="blue" stroke="blue" stroke-width="2.91" points="203.01,-784.14 204.53,-773.65 196.8,-780.91 203.01,-784.14"/>
</g>
<!-- key 4733
bias &#45;0.539
h_scaling 0.036 -->
<g id="node10" class="node">
<title>key 4733
bias &#45;0.539
h_scaling 0.036</title>
<ellipse fill="white" stroke="black" cx="63.64" cy="-390.2" rx="63.78" ry="63.78"/>
<text text-anchor="middle" x="63.64" y="-398" font-family="Times,serif" font-size="9.00">key 4733</text>
<text text-anchor="middle" x="63.64" y="-388" font-family="Times,serif" font-size="9.00">bias &#45;0.539</text>
<text text-anchor="middle" x="63.64" y="-378" font-family="Times,serif" font-size="9.00">h_scaling 0.036</text>
</g>
<!-- ready&#45;&gt;key 4733
bias &#45;0.539
h_scaling 0.036 -->
<g id="edge10" class="edge">
<title>ready&#45;&gt;key 4733
bias &#45;0.539
h_scaling 0.036</title>
<path fill="none" stroke="red" stroke-width="1.42" d="M146.31,-870.99C139.52,-854.33 123.94,-814.77 114.64,-780.4 85.46,-672.59 72.74,-543.3 67.36,-464.22"/>
<polygon fill="red" stroke="red" stroke-width="1.42" points="70.83,-463.63 66.68,-453.88 63.85,-464.09 70.83,-463.63"/>
</g>
<!-- go -->
<g id="node2" class="node">
<title>go</title>
<polygon fill="green" stroke="black" points="151.64,-725.76 123.64,-725.76 123.64,-707.76 151.64,-707.76 151.64,-725.76"/>
<text text-anchor="middle" x="137.64" y="-714.56" font-family="Times,serif" font-size="9.00">go</text>
</g>
<!-- key 2949
bias 0.173
h_scaling 0.982 -->
<g id="node4" class="node">
<title>key 2949
bias 0.173
h_scaling 0.982</title>
<ellipse fill="white" stroke="black" cx="231.64" cy="-553.48" rx="63.78" ry="63.78"/>
<text text-anchor="middle" x="231.64" y="-561.28" font-family="Times,serif" font-size="9.00">key 2949</text>
<text text-anchor="middle" x="231.64" y="-551.28" font-family="Times,serif" font-size="9.00">bias 0.173</text>
<text text-anchor="middle" x="231.64" y="-541.28" font-family="Times,serif" font-size="9.00">h_scaling 0.982</text>
</g>
<!-- go&#45;&gt;key 2949
bias 0.173
h_scaling 0.982 -->
<g id="edge5" class="edge">
<title>go&#45;&gt;key 2949
bias 0.173
h_scaling 0.982</title>
<path fill="none" stroke="blue" stroke-width="3.1" d="M139.82,-707.75C143.3,-695.54 150.76,-671.74 160.64,-653.12 167.98,-639.28 177.04,-625.17 186.19,-612.12"/>
<polygon fill="blue" stroke="blue" stroke-width="3.1" points="189.24,-613.87 192.21,-603.7 183.55,-609.8 189.24,-613.87"/>
</g>
<!-- key 4497
bias 0.227
h_scaling 0.062 -->
<g id="node8" class="node">
<title>key 4497
bias 0.227
h_scaling 0.062</title>
<ellipse fill="white" stroke="black" cx="155.64" cy="-226.92" rx="63.78" ry="63.78"/>
<text text-anchor="middle" x="155.64" y="-234.72" font-family="Times,serif" font-size="9.00">key 4497</text>
<text text-anchor="middle" x="155.64" y="-224.72" font-family="Times,serif" font-size="9.00">bias 0.227</text>
<text text-anchor="middle" x="155.64" y="-214.72" font-family="Times,serif" font-size="9.00">h_scaling 0.062</text>
</g>
<!-- go&#45;&gt;key 4497
bias 0.227
h_scaling 0.062 -->
<g id="edge4" class="edge">
<title>go&#45;&gt;key 4497
bias 0.227
h_scaling 0.062</title>
<path fill="none" stroke="red" stroke-width="1.23" d="M137.94,-707.7C139.66,-661 148.44,-423.06 152.95,-300.75"/>
<polygon fill="red" stroke="red" stroke-width="1.23" points="156.45,-300.84 153.32,-290.71 149.46,-300.58 156.45,-300.84"/>
</g>
<!-- go&#45;&gt;key 4733
bias &#45;0.539
h_scaling 0.036 -->
<g id="edge6" class="edge">
<title>go&#45;&gt;key 4733
bias &#45;0.539
h_scaling 0.036</title>
<path fill="none" stroke="blue" stroke-width="3.06" d="M135.81,-707.73C128.22,-674.43 98.7,-544.99 79.85,-462.3"/>
<polygon fill="blue" stroke="blue" stroke-width="3.06" points="83.24,-461.43 77.61,-452.46 76.42,-462.99 83.24,-461.43"/>
</g>
<!-- output
bias &#45;0.902
h_scaling 0.000 -->
<g id="node3" class="node">
<title>output
bias &#45;0.902
h_scaling 0.000</title>
<ellipse fill="lightblue" stroke="black" cx="201.64" cy="-63.64" rx="63.78" ry="63.78"/>
<text text-anchor="middle" x="201.64" y="-71.44" font-family="Times,serif" font-size="9.00">output</text>
<text text-anchor="middle" x="201.64" y="-61.44" font-family="Times,serif" font-size="9.00">bias &#45;0.902</text>
<text text-anchor="middle" x="201.64" y="-51.44" font-family="Times,serif" font-size="9.00">h_scaling 0.000</text>
</g>
<!-- output
bias &#45;0.902
h_scaling 0.000&#45;&gt;key 302317
bias &#45;0.420
h_scaling 0.002 -->
<g id="edge12" class="edge">
<title>output
bias &#45;0.902
h_scaling 0.000&#45;&gt;key 302317
bias &#45;0.420
h_scaling 0.002</title>
<path fill="none" stroke="red" stroke-width="3.03" d="M231.35,-120.15C237.82,-133.95 244.08,-148.9 248.64,-163.28 293.17,-303.64 292.15,-343.11 304.64,-489.84 309.44,-546.2 322,-563.28 304.64,-617.12 299.71,-632.42 291.42,-647.35 282.21,-660.77"/>
<polygon fill="red" stroke="red" stroke-width="3.03" points="279.35,-658.75 276.39,-668.92 285.05,-662.83 279.35,-658.75"/>
</g>
<!-- key 2949
bias 0.173
h_scaling 0.982&#45;&gt;output
bias &#45;0.902
h_scaling 0.000 -->
<g id="edge11" class="edge">
<title>key 2949
bias 0.173
h_scaling 0.982&#45;&gt;output
bias &#45;0.902
h_scaling 0.000</title>
<path fill="none" stroke="red" stroke-width="2.16" d="M236.12,-489.77C240.5,-412.54 244.45,-277.57 228.64,-163.28 227.34,-153.88 225.41,-144.11 223.16,-134.53"/>
<polygon fill="red" stroke="red" stroke-width="2.16" points="226.51,-133.51 220.72,-124.64 219.72,-135.18 226.51,-133.51"/>
</g>
<!-- key 2949
bias 0.173
h_scaling 0.982&#45;&gt;key 4733
bias &#45;0.539
h_scaling 0.036 -->
<g id="edge2" class="edge">
<title>key 2949
bias 0.173
h_scaling 0.982&#45;&gt;key 4733
bias &#45;0.539
h_scaling 0.036</title>
<path fill="none" stroke="red" stroke-width="3.1" d="M183.29,-511.78C161.37,-491.57 135.51,-466.89 113.42,-445.14"/>
<polygon fill="red" stroke="red" stroke-width="3.1" points="115.65,-442.42 106.08,-437.88 110.73,-447.4 115.65,-442.42"/>
</g>
<!-- key 417993
bias &#45;0.323
h_scaling 0.472 -->
<g id="node5" class="node">
<title>key 417993
bias &#45;0.323
h_scaling 0.472</title>
<ellipse fill="white" stroke="black" cx="415.64" cy="-553.48" rx="63.78" ry="63.78"/>
<text text-anchor="middle" x="415.64" y="-561.28" font-family="Times,serif" font-size="9.00">key 417993</text>
<text text-anchor="middle" x="415.64" y="-551.28" font-family="Times,serif" font-size="9.00">bias &#45;0.323</text>
<text text-anchor="middle" x="415.64" y="-541.28" font-family="Times,serif" font-size="9.00">h_scaling 0.472</text>
</g>
<!-- key 420779
bias 0.949
h_scaling 0.014 -->
<g id="node6" class="node">
<title>key 420779
bias 0.949
h_scaling 0.014</title>
<ellipse fill="white" stroke="black" cx="415.64" cy="-880.04" rx="63.78" ry="63.78"/>
<text text-anchor="middle" x="415.64" y="-887.84" font-family="Times,serif" font-size="9.00">key 420779</text>
<text text-anchor="middle" x="415.64" y="-877.84" font-family="Times,serif" font-size="9.00">bias 0.949</text>
<text text-anchor="middle" x="415.64" y="-867.84" font-family="Times,serif" font-size="9.00">h_scaling 0.014</text>
</g>
<!-- key 424442
bias 1.000
h_scaling 0.639 -->
<g id="node9" class="node">
<title>key 424442
bias 1.000
h_scaling 0.639</title>
<ellipse fill="white" stroke="black" cx="415.64" cy="-716.76" rx="63.78" ry="63.78"/>
<text text-anchor="middle" x="415.64" y="-724.56" font-family="Times,serif" font-size="9.00">key 424442</text>
<text text-anchor="middle" x="415.64" y="-714.56" font-family="Times,serif" font-size="9.00">bias 1.000</text>
<text text-anchor="middle" x="415.64" y="-704.56" font-family="Times,serif" font-size="9.00">h_scaling 0.639</text>
</g>
<!-- key 420779
bias 0.949
h_scaling 0.014&#45;&gt;key 424442
bias 1.000
h_scaling 0.639 -->
<g id="edge15" class="edge">
<title>key 420779
bias 0.949
h_scaling 0.014&#45;&gt;key 424442
bias 1.000
h_scaling 0.639</title>
<path fill="none" stroke="blue" stroke-width="1.73" d="M415.64,-816.22C415.64,-807.76 415.64,-799.03 415.64,-790.43"/>
<polygon fill="blue" stroke="blue" stroke-width="1.73" points="419.14,-790.4 415.64,-780.4 412.14,-790.4 419.14,-790.4"/>
</g>
<!-- key 302317
bias &#45;0.420
h_scaling 0.002&#45;&gt;key 2949
bias 0.173
h_scaling 0.982 -->
<g id="edge13" class="edge">
<title>key 302317
bias &#45;0.420
h_scaling 0.002&#45;&gt;key 2949
bias 0.173
h_scaling 0.982</title>
<path fill="none" stroke="blue" stroke-width="1.92" d="M232.86,-652.94C232.76,-644.49 232.65,-635.75 232.54,-627.15"/>
<polygon fill="blue" stroke="blue" stroke-width="1.92" points="236.04,-627.08 232.42,-617.12 229.04,-627.17 236.04,-627.08"/>
</g>
<!-- key 4497
bias 0.227
h_scaling 0.062&#45;&gt;output
bias &#45;0.902
h_scaling 0.000 -->
<g id="edge8" class="edge">
<title>key 4497
bias 0.227
h_scaling 0.062&#45;&gt;output
bias &#45;0.902
h_scaling 0.000</title>
<path fill="none" stroke="blue" stroke-width="3" d="M172.9,-165.41C175.76,-155.38 178.74,-144.91 181.66,-134.68"/>
<polygon fill="blue" stroke="blue" stroke-width="3" points="185.06,-135.53 184.44,-124.96 178.33,-133.61 185.06,-135.53"/>
</g>
<!-- key 4497
bias 0.227
h_scaling 0.062&#45;&gt;key 2949
bias 0.173
h_scaling 0.982 -->
<g id="edge1" class="edge">
<title>key 4497
bias 0.227
h_scaling 0.062&#45;&gt;key 2949
bias 0.173
h_scaling 0.982</title>
<path fill="none" stroke="blue" stroke-width="1.77" d="M169.93,-288.97C182.76,-343.73 201.58,-424.11 215.06,-481.68"/>
<polygon fill="blue" stroke="blue" stroke-width="1.77" points="211.66,-482.49 217.34,-491.43 218.47,-480.9 211.66,-482.49"/>
</g>
<!-- key 424442
bias 1.000
h_scaling 0.639&#45;&gt;key 417993
bias &#45;0.323
h_scaling 0.472 -->
<g id="edge16" class="edge">
<title>key 424442
bias 1.000
h_scaling 0.639&#45;&gt;key 417993
bias &#45;0.323
h_scaling 0.472</title>
<path fill="none" stroke="red" stroke-width="0.17" d="M415.64,-652.94C415.64,-644.49 415.64,-635.75 415.64,-627.15"/>
<polygon fill="red" stroke="red" stroke-width="0.17" points="419.14,-627.12 415.64,-617.12 412.14,-627.12 419.14,-627.12"/>
</g>
<!-- key 4733
bias &#45;0.539
h_scaling 0.036&#45;&gt;output
bias &#45;0.902
h_scaling 0.000 -->
<g id="edge3" class="edge">
<title>key 4733
bias &#45;0.539
h_scaling 0.036&#45;&gt;output
bias &#45;0.902
h_scaling 0.000</title>
<path fill="none" stroke="red" stroke-width="3.1" d="M56.33,-326.65C53.65,-279.17 56.31,-213.69 82.64,-163.28 95.42,-138.81 117.14,-118.08 138.55,-102.04"/>
<polygon fill="red" stroke="red" stroke-width="3.1" points="140.68,-104.82 146.73,-96.12 136.57,-99.15 140.68,-104.82"/>
</g>
<!-- key 4733
bias &#45;0.539
h_scaling 0.036&#45;&gt;key 2949
bias 0.173
h_scaling 0.982 -->
<g id="edge9" class="edge">
<title>key 4733
bias &#45;0.539
h_scaling 0.036&#45;&gt;key 2949
bias 0.173
h_scaling 0.982</title>
<path fill="none" stroke="red" stroke-width="2.27" d="M112.09,-431.99C134,-452.19 159.84,-476.85 181.91,-498.58"/>
<polygon fill="red" stroke="red" stroke-width="2.27" points="179.66,-501.28 189.23,-505.83 184.58,-496.31 179.66,-501.28"/>
</g>
<!-- key 4733
bias &#45;0.539
h_scaling 0.036&#45;&gt;key 4497
bias 0.227
h_scaling 0.062 -->
<g id="edge7" class="edge">
<title>key 4733
bias &#45;0.539
h_scaling 0.036&#45;&gt;key 4497
bias 0.227
h_scaling 0.062</title>
<path fill="none" stroke="blue" stroke-width="2.62" d="M94.79,-334.6C102.73,-320.67 111.33,-305.59 119.5,-291.27"/>
<polygon fill="blue" stroke="blue" stroke-width="2.62" points="122.61,-292.88 124.52,-282.46 116.53,-289.42 122.61,-292.88"/>
</g>
</g>
</svg>
