<?xml version="1.0" encoding="UTF-8" standalone="no"?>
<!DOCTYPE svg PUBLIC "-//W3C//DTD SVG 1.1//EN"
 "http://www.w3.org/Graphics/SVG/1.1/DTD/svg11.dtd">
<!-- Generated by graphviz version 2.43.0 (0)
 -->
<!-- Title: %3 Pages: 1 -->
<svg width="532pt" height="1076pt"
 viewBox="0.00 0.00 531.96 1075.68" xmlns="http://www.w3.org/2000/svg" xmlns:xlink="http://www.w3.org/1999/xlink">
<g id="graph0" class="graph" transform="scale(1 1) rotate(0) translate(4 1071.68)">
<title>%3</title>
<polygon fill="white" stroke="transparent" points="-4,4 -4,-1071.68 527.96,-1071.68 527.96,4 -4,4"/>
<!-- ready
output 0.000 -->
<g id="node1" class="node">
<title>ready
output 0.000</title>
<polygon fill="yellow" stroke="black" points="329.46,-1067.68 252.46,-1067.68 252.46,-1039.68 329.46,-1039.68 329.46,-1067.68"/>
<text text-anchor="middle" x="290.96" y="-1056.48" font-family="Times,serif" font-size="9.00">ready</text>
<text text-anchor="middle" x="290.96" y="-1046.48" font-family="Times,serif" font-size="9.00">output 0.000</text>
</g>
<!-- key 79366
bias &#45;0.450
h_scaling 0.474
output 0.662 -->
<g id="node4" class="node">
<title>key 79366
bias &#45;0.450
h_scaling 0.474
output 0.662</title>
<ellipse fill="white" stroke="black" cx="400.96" cy="-930.04" rx="63.78" ry="63.78"/>
<text text-anchor="middle" x="400.96" y="-942.84" font-family="Times,serif" font-size="9.00">key 79366</text>
<text text-anchor="middle" x="400.96" y="-932.84" font-family="Times,serif" font-size="9.00">bias &#45;0.450</text>
<text text-anchor="middle" x="400.96" y="-922.84" font-family="Times,serif" font-size="9.00">h_scaling 0.474</text>
<text text-anchor="middle" x="400.96" y="-912.84" font-family="Times,serif" font-size="9.00">output 0.662</text>
</g>
<!-- ready
output 0.000&#45;&gt;key 79366
bias &#45;0.450
h_scaling 0.474
output 0.662 -->
<g id="edge10" class="edge">
<title>ready
output 0.000&#45;&gt;key 79366
bias &#45;0.450
h_scaling 0.474
output 0.662</title>
<path fill="none" stroke="red" stroke-width="0.1" d="M302.73,-1039.66C314.57,-1026.56 333.64,-1005.47 351.84,-985.35"/>
<polygon fill="red" stroke="red" stroke-width="0.1" points="354.65,-987.47 358.76,-977.7 349.46,-982.77 354.65,-987.47"/>
<text text-anchor="middle" x="339.96" y="-1014.48" font-family="Times,serif" font-size="9.00">1.089</text>
</g>
<!-- key 5867
bias 0.439
h_scaling 0.813
output 0.772 -->
<g id="node5" class="node">
<title>key 5867
bias 0.439
h_scaling 0.813
output 0.772</title>
<ellipse fill="white" stroke="black" cx="338.96" cy="-756.76" rx="63.78" ry="63.78"/>
<text text-anchor="middle" x="338.96" y="-769.56" font-family="Times,serif" font-size="9.00">key 5867</text>
<text text-anchor="middle" x="338.96" y="-759.56" font-family="Times,serif" font-size="9.00">bias 0.439</text>
<text text-anchor="middle" x="338.96" y="-749.56" font-family="Times,serif" font-size="9.00">h_scaling 0.813</text>
<text text-anchor="middle" x="338.96" y="-739.56" font-family="Times,serif" font-size="9.00">output 0.772</text>
</g>
<!-- ready
output 0.000&#45;&gt;key 5867
bias 0.439
h_scaling 0.813
output 0.772 -->
<g id="edge2" class="edge">
<title>ready
output 0.000&#45;&gt;key 5867
bias 0.439
h_scaling 0.813
output 0.772</title>
<path fill="none" stroke="red" stroke-width="0.1" d="M290.27,-1039.41C288.95,-1008.66 287.25,-930.22 299.96,-866.4 302.65,-852.87 306.71,-838.77 311.21,-825.38"/>
<polygon fill="red" stroke="red" stroke-width="0.1" points="314.57,-826.37 314.55,-815.77 307.96,-824.07 314.57,-826.37"/>
<text text-anchor="middle" x="313.96" y="-927.84" font-family="Times,serif" font-size="9.00">0.350</text>
</g>
<!-- key 1844
bias 0.166
h_scaling 0.951
output 0.734 -->
<g id="node7" class="node">
<title>key 1844
bias 0.166
h_scaling 0.951
output 0.734</title>
<ellipse fill="white" stroke="black" cx="177.96" cy="-583.48" rx="63.78" ry="63.78"/>
<text text-anchor="middle" x="177.96" y="-596.28" font-family="Times,serif" font-size="9.00">key 1844</text>
<text text-anchor="middle" x="177.96" y="-586.28" font-family="Times,serif" font-size="9.00">bias 0.166</text>
<text text-anchor="middle" x="177.96" y="-576.28" font-family="Times,serif" font-size="9.00">h_scaling 0.951</text>
<text text-anchor="middle" x="177.96" y="-566.28" font-family="Times,serif" font-size="9.00">output 0.734</text>
</g>
<!-- ready
output 0.000&#45;&gt;key 1844
bias 0.166
h_scaling 0.951
output 0.734 -->
<g id="edge17" class="edge">
<title>ready
output 0.000&#45;&gt;key 1844
bias 0.166
h_scaling 0.951
output 0.734</title>
<path fill="none" stroke="blue" stroke-width="0.1" d="M287.82,-1039.66C274.55,-984.68 222.5,-769.02 195.08,-655.4"/>
<polygon fill="blue" stroke="blue" stroke-width="0.1" points="198.41,-654.3 192.66,-645.4 191.61,-655.94 198.41,-654.3"/>
<text text-anchor="middle" x="257.46" y="-841.2" font-family="Times,serif" font-size="9.00">&#45;0.382</text>
</g>
<!-- go
output 0.000 -->
<g id="node2" class="node">
<title>go
output 0.000</title>
<polygon fill="green" stroke="black" points="124.46,-1067.68 47.46,-1067.68 47.46,-1039.68 124.46,-1039.68 124.46,-1067.68"/>
<text text-anchor="middle" x="85.96" y="-1056.48" font-family="Times,serif" font-size="9.00">go</text>
<text text-anchor="middle" x="85.96" y="-1046.48" font-family="Times,serif" font-size="9.00">output 0.000</text>
</g>
<!-- go
output 0.000&#45;&gt;key 5867
bias 0.439
h_scaling 0.813
output 0.772 -->
<g id="edge4" class="edge">
<title>go
output 0.000&#45;&gt;key 5867
bias 0.439
h_scaling 0.813
output 0.772</title>
<path fill="none" stroke="blue" stroke-width="0.1" d="M107.59,-1039.48C123.58,-1028.8 144.93,-1012.48 158.96,-993.68 203.6,-933.85 176.19,-896.57 222.96,-838.4 237.08,-820.82 256.02,-805.47 274.49,-793.02"/>
<polygon fill="blue" stroke="blue" stroke-width="0.1" points="276.48,-795.9 282.93,-787.5 272.65,-790.04 276.48,-795.9"/>
<text text-anchor="middle" x="220.46" y="-927.84" font-family="Times,serif" font-size="9.00">&#45;0.870</text>
</g>
<!-- go
output 0.000&#45;&gt;key 1844
bias 0.166
h_scaling 0.951
output 0.734 -->
<g id="edge1" class="edge">
<title>go
output 0.000&#45;&gt;key 1844
bias 0.166
h_scaling 0.951
output 0.734</title>
<path fill="none" stroke="red" stroke-width="0.1" d="M59.9,-1039.56C43.11,-1029.53 22.65,-1013.97 12.96,-993.68 -11.42,-942.63 5.96,-922.53 12.96,-866.4 24.38,-774.82 11.73,-741.2 63.96,-665.12 76.46,-646.91 94.5,-631.45 112.55,-619.09"/>
<polygon fill="red" stroke="red" stroke-width="0.1" points="114.96,-621.69 121.39,-613.27 111.11,-615.84 114.96,-621.69"/>
<text text-anchor="middle" x="29.96" y="-841.2" font-family="Times,serif" font-size="9.00">1.278</text>
</g>
<!-- key 62716
bias &#45;0.352
h_scaling 0.355
output 0.147 -->
<g id="node8" class="node">
<title>key 62716
bias &#45;0.352
h_scaling 0.355
output 0.147</title>
<ellipse fill="white" stroke="black" cx="85.96" cy="-930.04" rx="63.78" ry="63.78"/>
<text text-anchor="middle" x="85.96" y="-942.84" font-family="Times,serif" font-size="9.00">key 62716</text>
<text text-anchor="middle" x="85.96" y="-932.84" font-family="Times,serif" font-size="9.00">bias &#45;0.352</text>
<text text-anchor="middle" x="85.96" y="-922.84" font-family="Times,serif" font-size="9.00">h_scaling 0.355</text>
<text text-anchor="middle" x="85.96" y="-912.84" font-family="Times,serif" font-size="9.00">output 0.147</text>
</g>
<!-- go
output 0.000&#45;&gt;key 62716
bias &#45;0.352
h_scaling 0.355
output 0.147 -->
<g id="edge8" class="edge">
<title>go
output 0.000&#45;&gt;key 62716
bias &#45;0.352
h_scaling 0.355
output 0.147</title>
<path fill="none" stroke="red" stroke-width="0.1" d="M85.96,-1039.66C85.96,-1030.58 85.96,-1017.67 85.96,-1003.91"/>
<polygon fill="red" stroke="red" stroke-width="0.1" points="89.46,-1003.77 85.96,-993.77 82.46,-1003.77 89.46,-1003.77"/>
<text text-anchor="middle" x="99.96" y="-1014.48" font-family="Times,serif" font-size="9.00">1.030</text>
</g>
<!-- output
bias 0.541
h_scaling 0.048
output 0.038 -->
<g id="node3" class="node">
<title>output
bias 0.541
h_scaling 0.048
output 0.038</title>
<ellipse fill="lightblue" stroke="black" cx="177.96" cy="-410.2" rx="63.78" ry="63.78"/>
<text text-anchor="middle" x="177.96" y="-423" font-family="Times,serif" font-size="9.00">output</text>
<text text-anchor="middle" x="177.96" y="-413" font-family="Times,serif" font-size="9.00">bias 0.541</text>
<text text-anchor="middle" x="177.96" y="-403" font-family="Times,serif" font-size="9.00">h_scaling 0.048</text>
<text text-anchor="middle" x="177.96" y="-393" font-family="Times,serif" font-size="9.00">output 0.038</text>
</g>
<!-- key 17231
bias &#45;0.348
h_scaling 0.989
output 0.064 -->
<g id="node6" class="node">
<title>key 17231
bias &#45;0.348
h_scaling 0.989
output 0.064</title>
<ellipse fill="white" stroke="black" cx="284.96" cy="-236.92" rx="63.78" ry="63.78"/>
<text text-anchor="middle" x="284.96" y="-249.72" font-family="Times,serif" font-size="9.00">key 17231</text>
<text text-anchor="middle" x="284.96" y="-239.72" font-family="Times,serif" font-size="9.00">bias &#45;0.348</text>
<text text-anchor="middle" x="284.96" y="-229.72" font-family="Times,serif" font-size="9.00">h_scaling 0.989</text>
<text text-anchor="middle" x="284.96" y="-219.72" font-family="Times,serif" font-size="9.00">output 0.064</text>
</g>
<!-- output
bias 0.541
h_scaling 0.048
output 0.038&#45;&gt;key 17231
bias &#45;0.348
h_scaling 0.989
output 0.064 -->
<g id="edge7" class="edge">
<title>output
bias 0.541
h_scaling 0.048
output 0.038&#45;&gt;key 17231
bias &#45;0.348
h_scaling 0.989
output 0.064</title>
<path fill="none" stroke="blue" stroke-width="0.1" d="M211.23,-355.94C222.25,-338.31 234.61,-318.52 246.01,-300.26"/>
<polygon fill="blue" stroke="blue" stroke-width="0.1" points="249.2,-301.77 251.53,-291.44 243.26,-298.06 249.2,-301.77"/>
<text text-anchor="middle" x="247.46" y="-321.36" font-family="Times,serif" font-size="9.00">&#45;0.874</text>
</g>
<!-- key 79366
bias &#45;0.450
h_scaling 0.474
output 0.662&#45;&gt;key 79366
bias &#45;0.450
h_scaling 0.474
output 0.662 -->
<g id="edge15" class="edge">
<title>key 79366
bias &#45;0.450
h_scaling 0.474
output 0.662&#45;&gt;key 79366
bias &#45;0.450
h_scaling 0.474
output 0.662</title>
<path fill="none" stroke="red" stroke-width="0.1" d="M462.9,-945.33C474.46,-943.45 482.6,-938.35 482.6,-930.04 482.6,-924.32 478.75,-920.12 472.59,-917.45"/>
<polygon fill="red" stroke="red" stroke-width="0.1" points="473.47,-914.06 462.9,-914.74 471.59,-920.8 473.47,-914.06"/>
<text text-anchor="middle" x="496.6" y="-927.84" font-family="Times,serif" font-size="9.00">0.842</text>
</g>
<!-- key 79366
bias &#45;0.450
h_scaling 0.474
output 0.662&#45;&gt;key 5867
bias 0.439
h_scaling 0.813
output 0.772 -->
<g id="edge11" class="edge">
<title>key 79366
bias &#45;0.450
h_scaling 0.474
output 0.662&#45;&gt;key 5867
bias 0.439
h_scaling 0.813
output 0.772</title>
<path fill="none" stroke="red" stroke-width="0.1" d="M386.32,-867.62C383.5,-857.75 380.36,-847.73 376.96,-838.4 375.18,-833.52 373.22,-828.54 371.15,-823.57"/>
<polygon fill="red" stroke="red" stroke-width="0.1" points="374.22,-821.85 367.06,-814.04 367.79,-824.61 374.22,-821.85"/>
<text text-anchor="middle" x="393.96" y="-841.2" font-family="Times,serif" font-size="9.00">0.530</text>
</g>
<!-- key 5867
bias 0.439
h_scaling 0.813
output 0.772&#45;&gt;output
bias 0.541
h_scaling 0.048
output 0.038 -->
<g id="edge21" class="edge">
<title>key 5867
bias 0.439
h_scaling 0.813
output 0.772&#45;&gt;output
bias 0.541
h_scaling 0.048
output 0.038</title>
<path fill="none" stroke="red" stroke-width="0.1" d="M338.65,-693C335.94,-643.24 326.47,-573.4 296.96,-519.84 282.77,-494.09 260.18,-471.17 238.47,-453.1"/>
<polygon fill="red" stroke="red" stroke-width="0.1" points="240.5,-450.24 230.53,-446.67 236.1,-455.68 240.5,-450.24"/>
<text text-anchor="middle" x="347.96" y="-581.28" font-family="Times,serif" font-size="9.00">0.190</text>
</g>
<!-- key 5867
bias 0.439
h_scaling 0.813
output 0.772&#45;&gt;key 79366
bias &#45;0.450
h_scaling 0.474
output 0.662 -->
<g id="edge20" class="edge">
<title>key 5867
bias 0.439
h_scaling 0.813
output 0.772&#45;&gt;key 79366
bias &#45;0.450
h_scaling 0.474
output 0.662</title>
<path fill="none" stroke="blue" stroke-width="0.1" d="M336.17,-820.57C337.13,-830.07 338.93,-839.62 341.96,-848.4 344.91,-856.95 349.11,-865.36 353.92,-873.33"/>
<polygon fill="blue" stroke="blue" stroke-width="0.1" points="351.01,-875.28 359.35,-881.8 356.9,-871.5 351.01,-875.28"/>
<text text-anchor="middle" x="357.46" y="-841.2" font-family="Times,serif" font-size="9.00">&#45;0.037</text>
</g>
<!-- key 5867
bias 0.439
h_scaling 0.813
output 0.772&#45;&gt;key 17231
bias &#45;0.348
h_scaling 0.989
output 0.064 -->
<g id="edge22" class="edge">
<title>key 5867
bias 0.439
h_scaling 0.813
output 0.772&#45;&gt;key 17231
bias &#45;0.348
h_scaling 0.989
output 0.064</title>
<path fill="none" stroke="blue" stroke-width="0.1" d="M356.67,-695.62C360.51,-679.97 364.01,-663.03 365.96,-647.12 372.83,-590.97 373.85,-575.85 365.96,-519.84 355.45,-445.24 330.04,-362.71 310.46,-306.33"/>
<polygon fill="blue" stroke="blue" stroke-width="0.1" points="313.73,-305.09 307.12,-296.81 307.13,-307.41 313.73,-305.09"/>
<text text-anchor="middle" x="378.46" y="-494.64" font-family="Times,serif" font-size="9.00">&#45;0.186</text>
</g>
<!-- key 5867
bias 0.439
h_scaling 0.813
output 0.772&#45;&gt;key 1844
bias 0.166
h_scaling 0.951
output 0.734 -->
<g id="edge3" class="edge">
<title>key 5867
bias 0.439
h_scaling 0.813
output 0.772&#45;&gt;key 1844
bias 0.166
h_scaling 0.951
output 0.734</title>
<path fill="none" stroke="blue" stroke-width="0.1" d="M296.55,-708.95C283.6,-694.8 269.27,-679.26 255.96,-665.12 247.43,-656.05 238.29,-646.49 229.39,-637.24"/>
<polygon fill="blue" stroke="blue" stroke-width="0.1" points="231.78,-634.67 222.32,-629.9 226.74,-639.53 231.78,-634.67"/>
<text text-anchor="middle" x="281.46" y="-667.92" font-family="Times,serif" font-size="9.00">&#45;1.000</text>
</g>
<!-- key 21406
bias 0.537
h_scaling 0.799
output 0.383 -->
<g id="node9" class="node">
<title>key 21406
bias 0.537
h_scaling 0.799
output 0.383</title>
<ellipse fill="white" stroke="black" cx="389.96" cy="-63.64" rx="63.78" ry="63.78"/>
<text text-anchor="middle" x="389.96" y="-76.44" font-family="Times,serif" font-size="9.00">key 21406</text>
<text text-anchor="middle" x="389.96" y="-66.44" font-family="Times,serif" font-size="9.00">bias 0.537</text>
<text text-anchor="middle" x="389.96" y="-56.44" font-family="Times,serif" font-size="9.00">h_scaling 0.799</text>
<text text-anchor="middle" x="389.96" y="-46.44" font-family="Times,serif" font-size="9.00">output 0.383</text>
</g>
<!-- key 5867
bias 0.439
h_scaling 0.813
output 0.772&#45;&gt;key 21406
bias 0.537
h_scaling 0.799
output 0.383 -->
<g id="edge14" class="edge">
<title>key 5867
bias 0.439
h_scaling 0.813
output 0.772&#45;&gt;key 21406
bias 0.537
h_scaling 0.799
output 0.383</title>
<path fill="none" stroke="blue" stroke-width="0.1" d="M379.15,-706.95C401.94,-674.34 425.96,-629.34 425.96,-584.48 425.96,-584.48 425.96,-584.48 425.96,-235.92 425.96,-202.06 419.14,-165.22 411.43,-134.41"/>
<polygon fill="blue" stroke="blue" stroke-width="0.1" points="414.8,-133.44 408.91,-124.64 408.02,-135.19 414.8,-133.44"/>
<text text-anchor="middle" x="441.46" y="-408" font-family="Times,serif" font-size="9.00">&#45;0.938</text>
</g>
<!-- key 17231
bias &#45;0.348
h_scaling 0.989
output 0.064&#45;&gt;key 17231
bias &#45;0.348
h_scaling 0.989
output 0.064 -->
<g id="edge19" class="edge">
<title>key 17231
bias &#45;0.348
h_scaling 0.989
output 0.064&#45;&gt;key 17231
bias &#45;0.348
h_scaling 0.989
output 0.064</title>
<path fill="none" stroke="blue" stroke-width="0.1" d="M346.9,-252.22C358.46,-250.33 366.6,-245.23 366.6,-236.92 366.6,-231.2 362.75,-227.01 356.59,-224.33"/>
<polygon fill="blue" stroke="blue" stroke-width="0.1" points="357.47,-220.94 346.9,-221.62 355.59,-227.68 357.47,-220.94"/>
<text text-anchor="middle" x="382.1" y="-234.72" font-family="Times,serif" font-size="9.00">&#45;0.997</text>
</g>
<!-- key 17231
bias &#45;0.348
h_scaling 0.989
output 0.064&#45;&gt;key 21406
bias 0.537
h_scaling 0.799
output 0.383 -->
<g id="edge9" class="edge">
<title>key 17231
bias &#45;0.348
h_scaling 0.989
output 0.064&#45;&gt;key 21406
bias 0.537
h_scaling 0.799
output 0.383</title>
<path fill="none" stroke="blue" stroke-width="0.1" d="M317.89,-182.19C328.64,-164.66 340.67,-145.04 351.77,-126.93"/>
<polygon fill="blue" stroke="blue" stroke-width="0.1" points="354.9,-128.53 357.14,-118.17 348.93,-124.87 354.9,-128.53"/>
<text text-anchor="middle" x="352.46" y="-148.08" font-family="Times,serif" font-size="9.00">&#45;0.991</text>
</g>
<!-- key 1844
bias 0.166
h_scaling 0.951
output 0.734&#45;&gt;output
bias 0.541
h_scaling 0.048
output 0.038 -->
<g id="edge5" class="edge">
<title>key 1844
bias 0.166
h_scaling 0.951
output 0.734&#45;&gt;output
bias 0.541
h_scaling 0.048
output 0.038</title>
<path fill="none" stroke="blue" stroke-width="0.1" d="M177.96,-519.67C177.96,-508.15 177.96,-496.04 177.96,-484.25"/>
<polygon fill="blue" stroke="blue" stroke-width="0.1" points="181.46,-484 177.96,-474 174.46,-484 181.46,-484"/>
<text text-anchor="middle" x="193.46" y="-494.64" font-family="Times,serif" font-size="9.00">&#45;1.000</text>
</g>
<!-- key 1844
bias 0.166
h_scaling 0.951
output 0.734&#45;&gt;key 1844
bias 0.166
h_scaling 0.951
output 0.734 -->
<g id="edge12" class="edge">
<title>key 1844
bias 0.166
h_scaling 0.951
output 0.734&#45;&gt;key 1844
bias 0.166
h_scaling 0.951
output 0.734</title>
<path fill="none" stroke="red" stroke-width="0.1" d="M239.9,-598.77C251.46,-596.89 259.6,-591.79 259.6,-583.48 259.6,-577.76 255.75,-573.56 249.59,-570.89"/>
<polygon fill="red" stroke="red" stroke-width="0.1" points="250.47,-567.5 239.9,-568.18 248.59,-574.24 250.47,-567.5"/>
<text text-anchor="middle" x="273.6" y="-581.28" font-family="Times,serif" font-size="9.00">1.155</text>
</g>
<!-- key 62716
bias &#45;0.352
h_scaling 0.355
output 0.147&#45;&gt;output
bias 0.541
h_scaling 0.048
output 0.038 -->
<g id="edge16" class="edge">
<title>key 62716
bias &#45;0.352
h_scaling 0.355
output 0.147&#45;&gt;output
bias 0.541
h_scaling 0.048
output 0.038</title>
<path fill="none" stroke="blue" stroke-width="0.1" d="M78.64,-866.5C71.33,-784.57 66.09,-637.51 104.96,-519.84 110.94,-501.72 120.85,-483.81 131.47,-467.9"/>
<polygon fill="blue" stroke="blue" stroke-width="0.1" points="134.62,-469.51 137.42,-459.29 128.86,-465.53 134.62,-469.51"/>
<text text-anchor="middle" x="92.46" y="-667.92" font-family="Times,serif" font-size="9.00">&#45;0.181</text>
</g>
<!-- key 62716
bias &#45;0.352
h_scaling 0.355
output 0.147&#45;&gt;key 5867
bias 0.439
h_scaling 0.813
output 0.772 -->
<g id="edge13" class="edge">
<title>key 62716
bias &#45;0.352
h_scaling 0.355
output 0.147&#45;&gt;key 5867
bias 0.439
h_scaling 0.813
output 0.772</title>
<path fill="none" stroke="blue" stroke-width="0.1" d="M112.91,-872.02C120.66,-859.77 130.03,-847.71 140.96,-838.4 177.09,-807.58 226.57,-787.43 267.02,-774.97"/>
<polygon fill="blue" stroke="blue" stroke-width="0.1" points="268.25,-778.26 276.83,-772.05 266.25,-771.55 268.25,-778.26"/>
<text text-anchor="middle" x="156.46" y="-841.2" font-family="Times,serif" font-size="9.00">&#45;0.772</text>
</g>
<!-- key 21406
bias 0.537
h_scaling 0.799
output 0.383&#45;&gt;output
bias 0.541
h_scaling 0.048
output 0.038 -->
<g id="edge18" class="edge">
<title>key 21406
bias 0.537
h_scaling 0.799
output 0.383&#45;&gt;output
bias 0.541
h_scaling 0.048
output 0.038</title>
<path fill="none" stroke="blue" stroke-width="0.1" d="M327.69,-78.52C278.47,-93.11 212.91,-121.4 180.96,-173.28 150.81,-222.22 152.81,-288.4 160.78,-338.21"/>
<polygon fill="blue" stroke="blue" stroke-width="0.1" points="157.36,-338.99 162.5,-348.26 164.26,-337.81 157.36,-338.99"/>
<text text-anchor="middle" x="196.46" y="-234.72" font-family="Times,serif" font-size="9.00">&#45;0.813</text>
</g>
<!-- key 21406
bias 0.537
h_scaling 0.799
output 0.383&#45;&gt;key 5867
bias 0.439
h_scaling 0.813
output 0.772 -->
<g id="edge6" class="edge">
<title>key 21406
bias 0.537
h_scaling 0.799
output 0.383&#45;&gt;key 5867
bias 0.439
h_scaling 0.813
output 0.772</title>
<path fill="none" stroke="blue" stroke-width="0.1" d="M434.84,-109.04C462.59,-141.34 492.96,-187.69 492.96,-235.92 492.96,-584.48 492.96,-584.48 492.96,-584.48 492.96,-641.65 444.93,-688.38 402.51,-718.51"/>
<polygon fill="blue" stroke="blue" stroke-width="0.1" points="400.36,-715.74 394.12,-724.31 404.34,-721.5 400.36,-715.74"/>
<text text-anchor="middle" x="508.46" y="-408" font-family="Times,serif" font-size="9.00">&#45;0.729</text>
</g>
</g>
</svg>
