<?xml version="1.0" encoding="UTF-8" standalone="no"?>
<!DOCTYPE svg PUBLIC "-//W3C//DTD SVG 1.1//EN"
 "http://www.w3.org/Graphics/SVG/1.1/DTD/svg11.dtd">
<!-- Generated by graphviz version 2.43.0 (0)
 -->
<!-- Title: %3 Pages: 1 -->
<svg width="537pt" height="902pt"
 viewBox="0.00 0.00 537.00 902.40" xmlns="http://www.w3.org/2000/svg" xmlns:xlink="http://www.w3.org/1999/xlink">
<g id="graph0" class="graph" transform="scale(1 1) rotate(0) translate(4 898.4)">
<title>%3</title>
<polygon fill="white" stroke="transparent" points="-4,4 -4,-898.4 533,-898.4 533,4 -4,4"/>
<!-- ready
output 0.000 -->
<g id="node1" class="node">
<title>ready
output 0.000</title>
<polygon fill="yellow" stroke="black" points="130.5,-894.4 53.5,-894.4 53.5,-866.4 130.5,-866.4 130.5,-894.4"/>
<text text-anchor="middle" x="92" y="-883.2" font-family="Times,serif" font-size="9.00">ready</text>
<text text-anchor="middle" x="92" y="-873.2" font-family="Times,serif" font-size="9.00">output 0.000</text>
</g>
<!-- key 25067
bias 0.408
h_scaling 0.372
output 0.110 -->
<g id="node4" class="node">
<title>key 25067
bias 0.408
h_scaling 0.372
output 0.110</title>
<ellipse fill="white" stroke="black" cx="92" cy="-583.48" rx="63.78" ry="63.78"/>
<text text-anchor="middle" x="92" y="-596.28" font-family="Times,serif" font-size="9.00">key 25067</text>
<text text-anchor="middle" x="92" y="-586.28" font-family="Times,serif" font-size="9.00">bias 0.408</text>
<text text-anchor="middle" x="92" y="-576.28" font-family="Times,serif" font-size="9.00">h_scaling 0.372</text>
<text text-anchor="middle" x="92" y="-566.28" font-family="Times,serif" font-size="9.00">output 0.110</text>
</g>
<!-- ready
output 0.000&#45;&gt;key 25067
bias 0.408
h_scaling 0.372
output 0.110 -->
<g id="edge13" class="edge">
<title>ready
output 0.000&#45;&gt;key 25067
bias 0.408
h_scaling 0.372
output 0.110</title>
<path fill="none" stroke="red" stroke-width="0.1" d="M92,-866.34C92,-830.48 92,-728.42 92,-657.5"/>
<polygon fill="red" stroke="red" stroke-width="0.1" points="95.5,-657.27 92,-647.27 88.5,-657.27 95.5,-657.27"/>
<text text-anchor="middle" x="106" y="-754.56" font-family="Times,serif" font-size="9.00">0.484</text>
</g>
<!-- key 7694
bias 1.000
h_scaling 0.438
output 0.727 -->
<g id="node5" class="node">
<title>key 7694
bias 1.000
h_scaling 0.438
output 0.727</title>
<ellipse fill="white" stroke="black" cx="192" cy="-63.64" rx="63.78" ry="63.78"/>
<text text-anchor="middle" x="192" y="-76.44" font-family="Times,serif" font-size="9.00">key 7694</text>
<text text-anchor="middle" x="192" y="-66.44" font-family="Times,serif" font-size="9.00">bias 1.000</text>
<text text-anchor="middle" x="192" y="-56.44" font-family="Times,serif" font-size="9.00">h_scaling 0.438</text>
<text text-anchor="middle" x="192" y="-46.44" font-family="Times,serif" font-size="9.00">output 0.727</text>
</g>
<!-- ready
output 0.000&#45;&gt;key 7694
bias 1.000
h_scaling 0.438
output 0.727 -->
<g id="edge17" class="edge">
<title>ready
output 0.000&#45;&gt;key 7694
bias 1.000
h_scaling 0.438
output 0.727</title>
<path fill="none" stroke="blue" stroke-width="0.1" d="M72.49,-866.2C45.48,-846.19 0,-805.42 0,-757.76 0,-757.76 0,-757.76 0,-235.92 0,-167.48 68.78,-119.61 124.01,-92.2"/>
<polygon fill="blue" stroke="blue" stroke-width="0.1" points="125.61,-95.31 133.09,-87.81 122.56,-89.01 125.61,-95.31"/>
<text text-anchor="middle" x="15.5" y="-494.64" font-family="Times,serif" font-size="9.00">&#45;0.265</text>
</g>
<!-- key 2865
bias &#45;0.491
h_scaling 0.785
output 0.790 -->
<g id="node7" class="node">
<title>key 2865
bias &#45;0.491
h_scaling 0.785
output 0.790</title>
<ellipse fill="white" stroke="black" cx="418" cy="-756.76" rx="63.78" ry="63.78"/>
<text text-anchor="middle" x="418" y="-769.56" font-family="Times,serif" font-size="9.00">key 2865</text>
<text text-anchor="middle" x="418" y="-759.56" font-family="Times,serif" font-size="9.00">bias &#45;0.491</text>
<text text-anchor="middle" x="418" y="-749.56" font-family="Times,serif" font-size="9.00">h_scaling 0.785</text>
<text text-anchor="middle" x="418" y="-739.56" font-family="Times,serif" font-size="9.00">output 0.790</text>
</g>
<!-- ready
output 0.000&#45;&gt;key 2865
bias &#45;0.491
h_scaling 0.785
output 0.790 -->
<g id="edge1" class="edge">
<title>ready
output 0.000&#45;&gt;key 2865
bias &#45;0.491
h_scaling 0.785
output 0.790</title>
<path fill="none" stroke="red" stroke-width="0.1" d="M130.69,-868.4C168.41,-857.37 227.21,-839.33 277,-820.4 301.64,-811.02 328.18,-799.6 351.52,-789.08"/>
<polygon fill="red" stroke="red" stroke-width="0.1" points="352.97,-792.27 360.63,-784.95 350.07,-785.89 352.97,-792.27"/>
<text text-anchor="middle" x="236" y="-841.2" font-family="Times,serif" font-size="9.00">1.093</text>
</g>
<!-- go
output 0.000 -->
<g id="node2" class="node">
<title>go
output 0.000</title>
<polygon fill="green" stroke="black" points="268.5,-770.76 191.5,-770.76 191.5,-742.76 268.5,-742.76 268.5,-770.76"/>
<text text-anchor="middle" x="230" y="-759.56" font-family="Times,serif" font-size="9.00">go</text>
<text text-anchor="middle" x="230" y="-749.56" font-family="Times,serif" font-size="9.00">output 0.000</text>
</g>
<!-- go
output 0.000&#45;&gt;key 25067
bias 0.408
h_scaling 0.372
output 0.110 -->
<g id="edge16" class="edge">
<title>go
output 0.000&#45;&gt;key 25067
bias 0.408
h_scaling 0.372
output 0.110</title>
<path fill="none" stroke="blue" stroke-width="0.1" d="M219.4,-742.6C202.15,-721.19 167.01,-677.58 138,-641.57"/>
<polygon fill="blue" stroke="blue" stroke-width="0.1" points="140.53,-639.13 131.53,-633.54 135.08,-643.52 140.53,-639.13"/>
<text text-anchor="middle" x="176.5" y="-667.92" font-family="Times,serif" font-size="9.00">&#45;0.566</text>
</g>
<!-- go
output 0.000&#45;&gt;key 7694
bias 1.000
h_scaling 0.438
output 0.727 -->
<g id="edge4" class="edge">
<title>go
output 0.000&#45;&gt;key 7694
bias 1.000
h_scaling 0.438
output 0.727</title>
<path fill="none" stroke="red" stroke-width="0.1" d="M231.25,-742.72C234.57,-703.59 241.41,-584.17 212,-491.84 209.15,-482.9 203.64,-482.83 201,-473.84 183.14,-412.94 185.82,-237.82 189.07,-137.51"/>
<polygon fill="red" stroke="red" stroke-width="0.1" points="192.57,-137.56 189.41,-127.45 185.58,-137.33 192.57,-137.56"/>
<text text-anchor="middle" x="215" y="-408" font-family="Times,serif" font-size="9.00">0.945</text>
</g>
<!-- key 31733
bias &#45;0.363
h_scaling 0.245
output 0.734 -->
<g id="node8" class="node">
<title>key 31733
bias &#45;0.363
h_scaling 0.245
output 0.734</title>
<ellipse fill="white" stroke="black" cx="358" cy="-236.92" rx="63.78" ry="63.78"/>
<text text-anchor="middle" x="358" y="-249.72" font-family="Times,serif" font-size="9.00">key 31733</text>
<text text-anchor="middle" x="358" y="-239.72" font-family="Times,serif" font-size="9.00">bias &#45;0.363</text>
<text text-anchor="middle" x="358" y="-229.72" font-family="Times,serif" font-size="9.00">h_scaling 0.245</text>
<text text-anchor="middle" x="358" y="-219.72" font-family="Times,serif" font-size="9.00">output 0.734</text>
</g>
<!-- go
output 0.000&#45;&gt;key 31733
bias &#45;0.363
h_scaling 0.245
output 0.734 -->
<g id="edge8" class="edge">
<title>go
output 0.000&#45;&gt;key 31733
bias &#45;0.363
h_scaling 0.245
output 0.734</title>
<path fill="none" stroke="blue" stroke-width="0.1" d="M232.41,-742.61C241.87,-691.69 276.85,-509.39 296,-491.84 322.55,-467.51 352.54,-501.99 375,-473.84 412.29,-427.09 401.66,-357.2 385.56,-305.61"/>
<polygon fill="blue" stroke="blue" stroke-width="0.1" points="388.81,-304.3 382.39,-295.87 382.15,-306.47 388.81,-304.3"/>
<text text-anchor="middle" x="311.5" y="-494.64" font-family="Times,serif" font-size="9.00">&#45;0.643</text>
</g>
<!-- output
bias &#45;0.351
h_scaling 0.173
output 0.012 -->
<g id="node3" class="node">
<title>output
bias &#45;0.351
h_scaling 0.173
output 0.012</title>
<ellipse fill="lightblue" stroke="black" cx="302" cy="-410.2" rx="63.78" ry="63.78"/>
<text text-anchor="middle" x="302" y="-423" font-family="Times,serif" font-size="9.00">output</text>
<text text-anchor="middle" x="302" y="-413" font-family="Times,serif" font-size="9.00">bias &#45;0.351</text>
<text text-anchor="middle" x="302" y="-403" font-family="Times,serif" font-size="9.00">h_scaling 0.173</text>
<text text-anchor="middle" x="302" y="-393" font-family="Times,serif" font-size="9.00">output 0.012</text>
</g>
<!-- output
bias &#45;0.351
h_scaling 0.173
output 0.012&#45;&gt;key 31733
bias &#45;0.363
h_scaling 0.245
output 0.734 -->
<g id="edge12" class="edge">
<title>output
bias &#45;0.351
h_scaling 0.173
output 0.012&#45;&gt;key 31733
bias &#45;0.363
h_scaling 0.245
output 0.734</title>
<path fill="none" stroke="blue" stroke-width="0.1" d="M321.59,-349.29C326.02,-335.73 330.76,-321.22 335.31,-307.31"/>
<polygon fill="blue" stroke="blue" stroke-width="0.1" points="338.64,-308.38 338.42,-297.79 331.99,-306.21 338.64,-308.38"/>
<text text-anchor="middle" x="345.5" y="-321.36" font-family="Times,serif" font-size="9.00">&#45;0.253</text>
</g>
<!-- key 25067
bias 0.408
h_scaling 0.372
output 0.110&#45;&gt;output
bias &#45;0.351
h_scaling 0.173
output 0.012 -->
<g id="edge11" class="edge">
<title>key 25067
bias 0.408
h_scaling 0.372
output 0.110&#45;&gt;output
bias &#45;0.351
h_scaling 0.173
output 0.012</title>
<path fill="none" stroke="red" stroke-width="0.1" d="M140.97,-542.54C172.03,-517.2 212.34,-484.32 244.86,-457.8"/>
<polygon fill="red" stroke="red" stroke-width="0.1" points="247.41,-460.24 252.95,-451.2 242.99,-454.81 247.41,-460.24"/>
<text text-anchor="middle" x="211" y="-494.64" font-family="Times,serif" font-size="9.00">1.028</text>
</g>
<!-- key 25067
bias 0.408
h_scaling 0.372
output 0.110&#45;&gt;key 25067
bias 0.408
h_scaling 0.372
output 0.110 -->
<g id="edge15" class="edge">
<title>key 25067
bias 0.408
h_scaling 0.372
output 0.110&#45;&gt;key 25067
bias 0.408
h_scaling 0.372
output 0.110</title>
<path fill="none" stroke="red" stroke-width="0.1" d="M153.94,-598.77C165.5,-596.89 173.64,-591.79 173.64,-583.48 173.64,-577.76 169.79,-573.56 163.63,-570.89"/>
<polygon fill="red" stroke="red" stroke-width="0.1" points="164.52,-567.5 153.94,-568.18 162.63,-574.24 164.52,-567.5"/>
<text text-anchor="middle" x="187.64" y="-581.28" font-family="Times,serif" font-size="9.00">0.285</text>
</g>
<!-- key 25067
bias 0.408
h_scaling 0.372
output 0.110&#45;&gt;key 7694
bias 1.000
h_scaling 0.438
output 0.727 -->
<g id="edge5" class="edge">
<title>key 25067
bias 0.408
h_scaling 0.372
output 0.110&#45;&gt;key 7694
bias 1.000
h_scaling 0.438
output 0.727</title>
<path fill="none" stroke="blue" stroke-width="0.1" d="M85.14,-520.16C78.17,-432.24 75.3,-268.74 132,-145.28 135.74,-137.13 140.4,-129 145.46,-121.21"/>
<polygon fill="blue" stroke="blue" stroke-width="0.1" points="148.37,-123.15 151.08,-112.91 142.57,-119.23 148.37,-123.15"/>
<text text-anchor="middle" x="102.5" y="-321.36" font-family="Times,serif" font-size="9.00">&#45;0.709</text>
</g>
<!-- key 7694
bias 1.000
h_scaling 0.438
output 0.727&#45;&gt;output
bias &#45;0.351
h_scaling 0.173
output 0.012 -->
<g id="edge3" class="edge">
<title>key 7694
bias 1.000
h_scaling 0.438
output 0.727&#45;&gt;output
bias &#45;0.351
h_scaling 0.173
output 0.012</title>
<path fill="none" stroke="blue" stroke-width="0.1" d="M205.31,-126.05C216.41,-174.14 233.65,-242.4 254,-300.56 258.87,-314.47 264.76,-329.09 270.73,-342.93"/>
<polygon fill="blue" stroke="blue" stroke-width="0.1" points="267.64,-344.62 274.86,-352.37 274.06,-341.81 267.64,-344.62"/>
<text text-anchor="middle" x="269.5" y="-234.72" font-family="Times,serif" font-size="9.00">&#45;0.989</text>
</g>
<!-- key 7694
bias 1.000
h_scaling 0.438
output 0.727&#45;&gt;key 25067
bias 0.408
h_scaling 0.372
output 0.110 -->
<g id="edge10" class="edge">
<title>key 7694
bias 1.000
h_scaling 0.438
output 0.727&#45;&gt;key 25067
bias 0.408
h_scaling 0.372
output 0.110</title>
<path fill="none" stroke="blue" stroke-width="0.1" d="M180.09,-126.33C161.47,-222.75 125.56,-408.67 105.83,-510.86"/>
<polygon fill="blue" stroke="blue" stroke-width="0.1" points="102.37,-510.3 103.91,-520.78 109.25,-511.63 102.37,-510.3"/>
<text text-anchor="middle" x="157.5" y="-321.36" font-family="Times,serif" font-size="9.00">&#45;1.000</text>
</g>
<!-- key 194415
bias &#45;0.477
h_scaling 0.692
output 0.891 -->
<g id="node6" class="node">
<title>key 194415
bias &#45;0.477
h_scaling 0.692
output 0.891</title>
<ellipse fill="white" stroke="black" cx="360" cy="-583.48" rx="63.78" ry="63.78"/>
<text text-anchor="middle" x="360" y="-596.28" font-family="Times,serif" font-size="9.00">key 194415</text>
<text text-anchor="middle" x="360" y="-586.28" font-family="Times,serif" font-size="9.00">bias &#45;0.477</text>
<text text-anchor="middle" x="360" y="-576.28" font-family="Times,serif" font-size="9.00">h_scaling 0.692</text>
<text text-anchor="middle" x="360" y="-566.28" font-family="Times,serif" font-size="9.00">output 0.891</text>
</g>
<!-- key 194415
bias &#45;0.477
h_scaling 0.692
output 0.891&#45;&gt;output
bias &#45;0.351
h_scaling 0.173
output 0.012 -->
<g id="edge19" class="edge">
<title>key 194415
bias &#45;0.477
h_scaling 0.692
output 0.891&#45;&gt;output
bias &#45;0.351
h_scaling 0.173
output 0.012</title>
<path fill="none" stroke="red" stroke-width="0.1" d="M339.88,-523.05C335.23,-509.31 330.24,-494.58 325.45,-480.46"/>
<polygon fill="red" stroke="red" stroke-width="0.1" points="328.71,-479.16 322.19,-470.81 322.08,-481.4 328.71,-479.16"/>
<text text-anchor="middle" x="345" y="-494.64" font-family="Times,serif" font-size="9.00">0.173</text>
</g>
<!-- key 2865
bias &#45;0.491
h_scaling 0.785
output 0.790&#45;&gt;key 7694
bias 1.000
h_scaling 0.438
output 0.727 -->
<g id="edge2" class="edge">
<title>key 2865
bias &#45;0.491
h_scaling 0.785
output 0.790&#45;&gt;key 7694
bias 1.000
h_scaling 0.438
output 0.727</title>
<path fill="none" stroke="blue" stroke-width="0.1" d="M455.66,-705.36C476.41,-672.65 498,-628.13 498,-584.48 498,-584.48 498,-584.48 498,-235.92 498,-129.71 355.89,-88.71 265.36,-73.37"/>
<polygon fill="blue" stroke="blue" stroke-width="0.1" points="265.84,-69.91 255.4,-71.75 264.71,-76.81 265.84,-69.91"/>
<text text-anchor="middle" x="513.5" y="-408" font-family="Times,serif" font-size="9.00">&#45;0.279</text>
</g>
<!-- key 2865
bias &#45;0.491
h_scaling 0.785
output 0.790&#45;&gt;key 194415
bias &#45;0.477
h_scaling 0.692
output 0.891 -->
<g id="edge18" class="edge">
<title>key 2865
bias &#45;0.491
h_scaling 0.785
output 0.790&#45;&gt;key 194415
bias &#45;0.477
h_scaling 0.692
output 0.891</title>
<path fill="none" stroke="red" stroke-width="0.1" d="M397.88,-696.33C393.23,-682.59 388.24,-667.86 383.45,-653.74"/>
<polygon fill="red" stroke="red" stroke-width="0.1" points="386.71,-652.44 380.19,-644.09 380.08,-654.68 386.71,-652.44"/>
<text text-anchor="middle" x="403" y="-667.92" font-family="Times,serif" font-size="9.00">1.025</text>
</g>
<!-- key 2865
bias &#45;0.491
h_scaling 0.785
output 0.790&#45;&gt;key 2865
bias &#45;0.491
h_scaling 0.785
output 0.790 -->
<g id="edge14" class="edge">
<title>key 2865
bias &#45;0.491
h_scaling 0.785
output 0.790&#45;&gt;key 2865
bias &#45;0.491
h_scaling 0.785
output 0.790</title>
<path fill="none" stroke="red" stroke-width="0.1" d="M479.94,-772.05C491.5,-770.17 499.64,-765.07 499.64,-756.76 499.64,-751.04 495.79,-746.84 489.63,-744.17"/>
<polygon fill="red" stroke="red" stroke-width="0.1" points="490.52,-740.78 479.94,-741.46 488.63,-747.52 490.52,-740.78"/>
<text text-anchor="middle" x="513.64" y="-754.56" font-family="Times,serif" font-size="9.00">0.921</text>
</g>
<!-- key 2865
bias &#45;0.491
h_scaling 0.785
output 0.790&#45;&gt;key 31733
bias &#45;0.363
h_scaling 0.245
output 0.734 -->
<g id="edge6" class="edge">
<title>key 2865
bias &#45;0.491
h_scaling 0.785
output 0.790&#45;&gt;key 31733
bias &#45;0.363
h_scaling 0.245
output 0.734</title>
<path fill="none" stroke="red" stroke-width="0.1" d="M428.36,-693.85C440.28,-607.13 452.92,-445.82 408,-318.56 405.63,-311.83 402.62,-305.07 399.27,-298.48"/>
<polygon fill="red" stroke="red" stroke-width="0.1" points="402.33,-296.78 394.52,-289.62 396.16,-300.09 402.33,-296.78"/>
<text text-anchor="middle" x="453" y="-494.64" font-family="Times,serif" font-size="9.00">0.470</text>
</g>
<!-- key 31733
bias &#45;0.363
h_scaling 0.245
output 0.734&#45;&gt;key 7694
bias 1.000
h_scaling 0.438
output 0.727 -->
<g id="edge7" class="edge">
<title>key 31733
bias &#45;0.363
h_scaling 0.245
output 0.734&#45;&gt;key 7694
bias 1.000
h_scaling 0.438
output 0.727</title>
<path fill="none" stroke="blue" stroke-width="0.1" d="M313.95,-190.47C292.2,-168.02 265.82,-140.81 243.18,-117.45"/>
<polygon fill="blue" stroke="blue" stroke-width="0.1" points="245.44,-114.75 235.97,-110 240.41,-119.62 245.44,-114.75"/>
<text text-anchor="middle" x="290.5" y="-148.08" font-family="Times,serif" font-size="9.00">&#45;1.000</text>
</g>
<!-- key 31733
bias &#45;0.363
h_scaling 0.245
output 0.734&#45;&gt;key 31733
bias &#45;0.363
h_scaling 0.245
output 0.734 -->
<g id="edge9" class="edge">
<title>key 31733
bias &#45;0.363
h_scaling 0.245
output 0.734&#45;&gt;key 31733
bias &#45;0.363
h_scaling 0.245
output 0.734</title>
<path fill="none" stroke="red" stroke-width="0.1" d="M419.94,-252.22C431.5,-250.33 439.64,-245.23 439.64,-236.92 439.64,-231.2 435.79,-227.01 429.63,-224.33"/>
<polygon fill="red" stroke="red" stroke-width="0.1" points="430.52,-220.94 419.94,-221.62 428.63,-227.68 430.52,-220.94"/>
<text text-anchor="middle" x="453.64" y="-234.72" font-family="Times,serif" font-size="9.00">0.633</text>
</g>
</g>
</svg>
