<?xml version="1.0" encoding="UTF-8" standalone="no"?>
<!DOCTYPE svg PUBLIC "-//W3C//DTD SVG 1.1//EN"
 "http://www.w3.org/Graphics/SVG/1.1/DTD/svg11.dtd">
<!-- Generated by graphviz version 2.43.0 (0)
 -->
<!-- Title: %3 Pages: 1 -->
<svg width="436pt" height="1422pt"
 viewBox="0.00 0.00 436.07 1422.23" xmlns="http://www.w3.org/2000/svg" xmlns:xlink="http://www.w3.org/1999/xlink">
<g id="graph0" class="graph" transform="scale(1 1) rotate(0) translate(4 1418.23)">
<title>%3</title>
<polygon fill="white" stroke="transparent" points="-4,4 -4,-1418.23 432.07,-1418.23 432.07,4 -4,4"/>
<!-- ready
output 0.000 -->
<g id="node1" class="node">
<title>ready
output 0.000</title>
<polygon fill="yellow" stroke="black" points="82.57,-1414.23 5.57,-1414.23 5.57,-1386.23 82.57,-1386.23 82.57,-1414.23"/>
<text text-anchor="middle" x="44.07" y="-1403.03" font-family="Times,serif" font-size="9.00">ready</text>
<text text-anchor="middle" x="44.07" y="-1393.03" font-family="Times,serif" font-size="9.00">output 0.000</text>
</g>
<!-- key 36289
bias &#45;0.468
h_scaling 0.871
output 0.460 -->
<g id="node4" class="node">
<title>key 36289
bias &#45;0.468
h_scaling 0.871
output 0.460</title>
<ellipse fill="white" stroke="black" cx="143.07" cy="-1276.59" rx="63.78" ry="63.78"/>
<text text-anchor="middle" x="143.07" y="-1289.39" font-family="Times,serif" font-size="9.00">key 36289</text>
<text text-anchor="middle" x="143.07" y="-1279.39" font-family="Times,serif" font-size="9.00">bias &#45;0.468</text>
<text text-anchor="middle" x="143.07" y="-1269.39" font-family="Times,serif" font-size="9.00">h_scaling 0.871</text>
<text text-anchor="middle" x="143.07" y="-1259.39" font-family="Times,serif" font-size="9.00">output 0.460</text>
</g>
<!-- ready
output 0.000&#45;&gt;key 36289
bias &#45;0.468
h_scaling 0.871
output 0.460 -->
<g id="edge6" class="edge">
<title>ready
output 0.000&#45;&gt;key 36289
bias &#45;0.468
h_scaling 0.871
output 0.460</title>
<path fill="none" stroke="red" stroke-width="0.1" d="M54.66,-1386.22C64.88,-1373.67 81.06,-1353.78 96.81,-1334.43"/>
<polygon fill="red" stroke="red" stroke-width="0.1" points="99.68,-1336.45 103.28,-1326.48 94.25,-1332.03 99.68,-1336.45"/>
<text text-anchor="middle" x="90.07" y="-1361.03" font-family="Times,serif" font-size="9.00">0.510</text>
</g>
<!-- key 225474
bias &#45;0.683
h_scaling 0.362
output 0.731 -->
<g id="node5" class="node">
<title>key 225474
bias &#45;0.683
h_scaling 0.362
output 0.731</title>
<ellipse fill="white" stroke="black" cx="95.07" cy="-1103.31" rx="63.78" ry="63.78"/>
<text text-anchor="middle" x="95.07" y="-1116.11" font-family="Times,serif" font-size="9.00">key 225474</text>
<text text-anchor="middle" x="95.07" y="-1106.11" font-family="Times,serif" font-size="9.00">bias &#45;0.683</text>
<text text-anchor="middle" x="95.07" y="-1096.11" font-family="Times,serif" font-size="9.00">h_scaling 0.362</text>
<text text-anchor="middle" x="95.07" y="-1086.11" font-family="Times,serif" font-size="9.00">output 0.731</text>
</g>
<!-- ready
output 0.000&#45;&gt;key 225474
bias &#45;0.683
h_scaling 0.362
output 0.731 -->
<g id="edge15" class="edge">
<title>ready
output 0.000&#45;&gt;key 225474
bias &#45;0.683
h_scaling 0.362
output 0.731</title>
<path fill="none" stroke="red" stroke-width="0.1" d="M41.81,-1385.9C37.02,-1355.01 27.44,-1276.3 42.07,-1212.95 45.59,-1197.69 51.57,-1182.09 58.27,-1167.65"/>
<polygon fill="red" stroke="red" stroke-width="0.1" points="61.56,-1168.87 62.75,-1158.34 55.26,-1165.83 61.56,-1168.87"/>
<text text-anchor="middle" x="56.07" y="-1274.39" font-family="Times,serif" font-size="9.00">1.101</text>
</g>
<!-- key 4090
bias 0.360
h_scaling 0.496
output 0.922 -->
<g id="node9" class="node">
<title>key 4090
bias 0.360
h_scaling 0.496
output 0.922</title>
<ellipse fill="white" stroke="black" cx="283.07" cy="-583.48" rx="63.78" ry="63.78"/>
<text text-anchor="middle" x="283.07" y="-596.28" font-family="Times,serif" font-size="9.00">key 4090</text>
<text text-anchor="middle" x="283.07" y="-586.28" font-family="Times,serif" font-size="9.00">bias 0.360</text>
<text text-anchor="middle" x="283.07" y="-576.28" font-family="Times,serif" font-size="9.00">h_scaling 0.496</text>
<text text-anchor="middle" x="283.07" y="-566.28" font-family="Times,serif" font-size="9.00">output 0.922</text>
</g>
<!-- ready
output 0.000&#45;&gt;key 4090
bias 0.360
h_scaling 0.496
output 0.922 -->
<g id="edge3" class="edge">
<title>ready
output 0.000&#45;&gt;key 4090
bias 0.360
h_scaling 0.496
output 0.922</title>
<path fill="none" stroke="blue" stroke-width="0.1" d="M82.82,-1397.49C152.57,-1392.05 292.07,-1369.67 292.07,-1277.59 292.07,-1277.59 292.07,-1277.59 292.07,-755.76 292.07,-723.39 290.45,-687.62 288.58,-657.18"/>
<polygon fill="blue" stroke="blue" stroke-width="0.1" points="292.06,-656.83 287.94,-647.08 285.08,-657.28 292.06,-656.83"/>
<text text-anchor="middle" x="307.57" y="-1014.48" font-family="Times,serif" font-size="9.00">&#45;0.458</text>
</g>
<!-- key 181598
bias &#45;0.578
h_scaling 0.309
output 0.784 -->
<g id="node10" class="node">
<title>key 181598
bias &#45;0.578
h_scaling 0.309
output 0.784</title>
<ellipse fill="white" stroke="black" cx="95.07" cy="-930.04" rx="63.78" ry="63.78"/>
<text text-anchor="middle" x="95.07" y="-942.84" font-family="Times,serif" font-size="9.00">key 181598</text>
<text text-anchor="middle" x="95.07" y="-932.84" font-family="Times,serif" font-size="9.00">bias &#45;0.578</text>
<text text-anchor="middle" x="95.07" y="-922.84" font-family="Times,serif" font-size="9.00">h_scaling 0.309</text>
<text text-anchor="middle" x="95.07" y="-912.84" font-family="Times,serif" font-size="9.00">output 0.784</text>
</g>
<!-- ready
output 0.000&#45;&gt;key 181598
bias &#45;0.578
h_scaling 0.309
output 0.784 -->
<g id="edge13" class="edge">
<title>ready
output 0.000&#45;&gt;key 181598
bias &#45;0.578
h_scaling 0.309
output 0.784</title>
<path fill="none" stroke="red" stroke-width="0.1" d="M39.28,-1386.1C37.44,-1380.63 35.44,-1374.18 34.07,-1368.23 31.24,-1355.99 31.6,-1352.71 30.07,-1340.23 13.75,-1207.6 -19.95,-1166.52 22.07,-1039.68 28.07,-1021.57 37.98,-1003.65 48.6,-987.75"/>
<polygon fill="red" stroke="red" stroke-width="0.1" points="51.75,-989.35 54.55,-979.13 45.99,-985.37 51.75,-989.35"/>
<text text-anchor="middle" x="19.07" y="-1187.75" font-family="Times,serif" font-size="9.00">1.091</text>
</g>
<!-- go
output 0.000 -->
<g id="node2" class="node">
<title>go
output 0.000</title>
<polygon fill="green" stroke="black" points="386.57,-1414.23 309.57,-1414.23 309.57,-1386.23 386.57,-1386.23 386.57,-1414.23"/>
<text text-anchor="middle" x="348.07" y="-1403.03" font-family="Times,serif" font-size="9.00">go</text>
<text text-anchor="middle" x="348.07" y="-1393.03" font-family="Times,serif" font-size="9.00">output 0.000</text>
</g>
<!-- go
output 0.000&#45;&gt;key 36289
bias &#45;0.468
h_scaling 0.871
output 0.460 -->
<g id="edge8" class="edge">
<title>go
output 0.000&#45;&gt;key 36289
bias &#45;0.468
h_scaling 0.871
output 0.460</title>
<path fill="none" stroke="blue" stroke-width="0.1" d="M326.13,-1386.22C297.74,-1369.37 247.08,-1339.31 206.24,-1315.08"/>
<polygon fill="blue" stroke="blue" stroke-width="0.1" points="207.81,-1311.94 197.42,-1309.85 204.24,-1317.96 207.81,-1311.94"/>
<text text-anchor="middle" x="308.57" y="-1361.03" font-family="Times,serif" font-size="9.00">&#45;0.955</text>
</g>
<!-- go
output 0.000&#45;&gt;key 4090
bias 0.360
h_scaling 0.496
output 0.922 -->
<g id="edge2" class="edge">
<title>go
output 0.000&#45;&gt;key 4090
bias 0.360
h_scaling 0.496
output 0.922</title>
<path fill="none" stroke="red" stroke-width="0.1" d="M352.29,-1385.89C358.93,-1363.67 371.07,-1317.57 371.07,-1277.59 371.07,-1277.59 371.07,-1277.59 371.07,-755.76 371.07,-714.33 350.45,-672.87 329.17,-641.12"/>
<polygon fill="red" stroke="red" stroke-width="0.1" points="332.02,-639.09 323.46,-632.85 326.26,-643.07 332.02,-639.09"/>
<text text-anchor="middle" x="385.07" y="-1014.48" font-family="Times,serif" font-size="9.00">1.032</text>
</g>
<!-- output
bias &#45;0.032
h_scaling 0.076
output 0.024 -->
<g id="node3" class="node">
<title>output
bias &#45;0.032
h_scaling 0.076
output 0.024</title>
<ellipse fill="lightblue" stroke="black" cx="256.07" cy="-410.2" rx="63.78" ry="63.78"/>
<text text-anchor="middle" x="256.07" y="-423" font-family="Times,serif" font-size="9.00">output</text>
<text text-anchor="middle" x="256.07" y="-413" font-family="Times,serif" font-size="9.00">bias &#45;0.032</text>
<text text-anchor="middle" x="256.07" y="-403" font-family="Times,serif" font-size="9.00">h_scaling 0.076</text>
<text text-anchor="middle" x="256.07" y="-393" font-family="Times,serif" font-size="9.00">output 0.024</text>
</g>
<!-- key 113312
bias 0.335
h_scaling 0.787
output 0.272 -->
<g id="node6" class="node">
<title>key 113312
bias 0.335
h_scaling 0.787
output 0.272</title>
<ellipse fill="white" stroke="black" cx="201.07" cy="-63.64" rx="63.78" ry="63.78"/>
<text text-anchor="middle" x="201.07" y="-76.44" font-family="Times,serif" font-size="9.00">key 113312</text>
<text text-anchor="middle" x="201.07" y="-66.44" font-family="Times,serif" font-size="9.00">bias 0.335</text>
<text text-anchor="middle" x="201.07" y="-56.44" font-family="Times,serif" font-size="9.00">h_scaling 0.787</text>
<text text-anchor="middle" x="201.07" y="-46.44" font-family="Times,serif" font-size="9.00">output 0.272</text>
</g>
<!-- output
bias &#45;0.032
h_scaling 0.076
output 0.024&#45;&gt;key 113312
bias 0.335
h_scaling 0.787
output 0.272 -->
<g id="edge20" class="edge">
<title>output
bias &#45;0.032
h_scaling 0.076
output 0.024&#45;&gt;key 113312
bias 0.335
h_scaling 0.787
output 0.272</title>
<path fill="none" stroke="red" stroke-width="0.1" d="M206.16,-370.23C186.27,-351.55 165.62,-327.4 155.07,-300.56 133.39,-245.4 149.92,-178.82 168.94,-130.48"/>
<polygon fill="red" stroke="red" stroke-width="0.1" points="172.25,-131.65 172.77,-121.07 165.76,-129.01 172.25,-131.65"/>
<text text-anchor="middle" x="169.07" y="-234.72" font-family="Times,serif" font-size="9.00">0.326</text>
</g>
<!-- key 315464
bias &#45;0.489
h_scaling 0.917
output 0.090 -->
<g id="node7" class="node">
<title>key 315464
bias &#45;0.489
h_scaling 0.917
output 0.090</title>
<ellipse fill="white" stroke="black" cx="256.07" cy="-236.92" rx="63.78" ry="63.78"/>
<text text-anchor="middle" x="256.07" y="-249.72" font-family="Times,serif" font-size="9.00">key 315464</text>
<text text-anchor="middle" x="256.07" y="-239.72" font-family="Times,serif" font-size="9.00">bias &#45;0.489</text>
<text text-anchor="middle" x="256.07" y="-229.72" font-family="Times,serif" font-size="9.00">h_scaling 0.917</text>
<text text-anchor="middle" x="256.07" y="-219.72" font-family="Times,serif" font-size="9.00">output 0.090</text>
</g>
<!-- output
bias &#45;0.032
h_scaling 0.076
output 0.024&#45;&gt;key 315464
bias &#45;0.489
h_scaling 0.917
output 0.090 -->
<g id="edge22" class="edge">
<title>output
bias &#45;0.032
h_scaling 0.076
output 0.024&#45;&gt;key 315464
bias &#45;0.489
h_scaling 0.917
output 0.090</title>
<path fill="none" stroke="red" stroke-width="0.1" d="M256.07,-346.39C256.07,-334.87 256.07,-322.76 256.07,-310.97"/>
<polygon fill="red" stroke="red" stroke-width="0.1" points="259.57,-310.72 256.07,-300.72 252.57,-310.72 259.57,-310.72"/>
<text text-anchor="middle" x="270.07" y="-321.36" font-family="Times,serif" font-size="9.00">1.114</text>
</g>
<!-- output
bias &#45;0.032
h_scaling 0.076
output 0.024&#45;&gt;key 181598
bias &#45;0.578
h_scaling 0.309
output 0.784 -->
<g id="edge19" class="edge">
<title>output
bias &#45;0.032
h_scaling 0.076
output 0.024&#45;&gt;key 181598
bias &#45;0.578
h_scaling 0.309
output 0.784</title>
<path fill="none" stroke="blue" stroke-width="0.1" d="M208.14,-452.69C158.88,-498.8 85.27,-578.3 55.07,-665.12 32.62,-729.63 49.29,-807.35 67.46,-861.68"/>
<polygon fill="blue" stroke="blue" stroke-width="0.1" points="64.18,-862.89 70.75,-871.2 70.8,-860.61 64.18,-862.89"/>
<text text-anchor="middle" x="70.57" y="-667.92" font-family="Times,serif" font-size="9.00">&#45;0.133</text>
</g>
<!-- key 36289
bias &#45;0.468
h_scaling 0.871
output 0.460&#45;&gt;key 36289
bias &#45;0.468
h_scaling 0.871
output 0.460 -->
<g id="edge7" class="edge">
<title>key 36289
bias &#45;0.468
h_scaling 0.871
output 0.460&#45;&gt;key 36289
bias &#45;0.468
h_scaling 0.871
output 0.460</title>
<path fill="none" stroke="red" stroke-width="0.1" d="M205.01,-1291.89C216.57,-1290.01 224.71,-1284.91 224.71,-1276.59 224.71,-1270.88 220.86,-1266.68 214.7,-1264"/>
<polygon fill="red" stroke="red" stroke-width="0.1" points="215.58,-1260.62 205.01,-1261.3 213.7,-1267.36 215.58,-1260.62"/>
<text text-anchor="middle" x="238.71" y="-1274.39" font-family="Times,serif" font-size="9.00">1.182</text>
</g>
<!-- key 36289
bias &#45;0.468
h_scaling 0.871
output 0.460&#45;&gt;key 225474
bias &#45;0.683
h_scaling 0.362
output 0.731 -->
<g id="edge17" class="edge">
<title>key 36289
bias &#45;0.468
h_scaling 0.871
output 0.460&#45;&gt;key 225474
bias &#45;0.683
h_scaling 0.362
output 0.731</title>
<path fill="none" stroke="red" stroke-width="0.1" d="M126.15,-1215.21C122.45,-1202.03 118.52,-1187.98 114.73,-1174.46"/>
<polygon fill="red" stroke="red" stroke-width="0.1" points="118.07,-1173.42 112,-1164.73 111.33,-1175.31 118.07,-1173.42"/>
<text text-anchor="middle" x="133.07" y="-1187.75" font-family="Times,serif" font-size="9.00">0.125</text>
</g>
<!-- key 36289
bias &#45;0.468
h_scaling 0.871
output 0.460&#45;&gt;key 113312
bias 0.335
h_scaling 0.787
output 0.272 -->
<g id="edge12" class="edge">
<title>key 36289
bias &#45;0.468
h_scaling 0.871
output 0.460&#45;&gt;key 113312
bias 0.335
h_scaling 0.787
output 0.272</title>
<path fill="none" stroke="red" stroke-width="0.1" d="M96.38,-1233.06C88.93,-1226.32 81.3,-1219.43 74.07,-1212.95 51.09,-1192.36 36.5,-1194.23 22.07,-1166.95 -9.21,-1107.84 3.07,-1084.56 3.07,-1017.68 3.07,-1017.68 3.07,-1017.68 3.07,-235.92 3.07,-165.74 75.1,-117.91 132.27,-91"/>
<polygon fill="red" stroke="red" stroke-width="0.1" points="134.03,-94.04 141.66,-86.7 131.11,-87.68 134.03,-94.04"/>
<text text-anchor="middle" x="17.07" y="-667.92" font-family="Times,serif" font-size="9.00">0.470</text>
</g>
<!-- key 36289
bias &#45;0.468
h_scaling 0.871
output 0.460&#45;&gt;key 4090
bias 0.360
h_scaling 0.496
output 0.922 -->
<g id="edge5" class="edge">
<title>key 36289
bias &#45;0.468
h_scaling 0.871
output 0.460&#45;&gt;key 4090
bias 0.360
h_scaling 0.496
output 0.922</title>
<path fill="none" stroke="blue" stroke-width="0.1" d="M169.84,-1218.57C176.49,-1202.22 182.91,-1184.16 187.07,-1166.95 230.91,-985.58 260.95,-767.57 274.64,-656.78"/>
<polygon fill="blue" stroke="blue" stroke-width="0.1" points="278.13,-657.07 275.88,-646.72 271.18,-656.22 278.13,-657.07"/>
<text text-anchor="middle" x="259.57" y="-927.84" font-family="Times,serif" font-size="9.00">&#45;0.987</text>
</g>
<!-- key 225474
bias &#45;0.683
h_scaling 0.362
output 0.731&#45;&gt;key 181598
bias &#45;0.578
h_scaling 0.309
output 0.784 -->
<g id="edge16" class="edge">
<title>key 225474
bias &#45;0.683
h_scaling 0.362
output 0.731&#45;&gt;key 181598
bias &#45;0.578
h_scaling 0.309
output 0.784</title>
<path fill="none" stroke="red" stroke-width="0.1" d="M71.44,-1043.94C69.23,-1036.55 67.35,-1029 66.07,-1021.68 64.71,-1013.89 64.87,-1005.86 66.03,-997.93"/>
<polygon fill="red" stroke="red" stroke-width="0.1" points="69.49,-998.47 68,-987.98 62.63,-997.11 69.49,-998.47"/>
<text text-anchor="middle" x="80.07" y="-1014.48" font-family="Times,serif" font-size="9.00">1.048</text>
</g>
<!-- key 113312
bias 0.335
h_scaling 0.787
output 0.272&#45;&gt;output
bias &#45;0.032
h_scaling 0.076
output 0.024 -->
<g id="edge11" class="edge">
<title>key 113312
bias 0.335
h_scaling 0.787
output 0.272&#45;&gt;output
bias &#45;0.032
h_scaling 0.076
output 0.024</title>
<path fill="none" stroke="red" stroke-width="0.1" d="M256.29,-95.57C283.63,-114.18 313.95,-140.61 329.07,-173.28 352.83,-224.61 345.56,-246.45 329.07,-300.56 323.51,-318.81 313.74,-336.77 303.13,-352.67"/>
<polygon fill="red" stroke="red" stroke-width="0.1" points="299.98,-351.07 297.17,-361.28 305.74,-355.05 299.98,-351.07"/>
<text text-anchor="middle" x="358.07" y="-234.72" font-family="Times,serif" font-size="9.00">0.545</text>
</g>
<!-- key 315464
bias &#45;0.489
h_scaling 0.917
output 0.090&#45;&gt;key 113312
bias 0.335
h_scaling 0.787
output 0.272 -->
<g id="edge23" class="edge">
<title>key 315464
bias &#45;0.489
h_scaling 0.917
output 0.090&#45;&gt;key 113312
bias 0.335
h_scaling 0.787
output 0.272</title>
<path fill="none" stroke="red" stroke-width="0.1" d="M236.83,-176.01C232.52,-162.58 227.91,-148.22 223.48,-134.43"/>
<polygon fill="red" stroke="red" stroke-width="0.1" points="226.68,-132.96 220.29,-124.51 220.02,-135.1 226.68,-132.96"/>
<text text-anchor="middle" x="242.07" y="-148.08" font-family="Times,serif" font-size="9.00">0.436</text>
</g>
<!-- key 34590
bias &#45;0.835
h_scaling 0.000
output 0.309 -->
<g id="node8" class="node">
<title>key 34590
bias &#45;0.835
h_scaling 0.000
output 0.309</title>
<ellipse fill="white" stroke="black" cx="146.07" cy="-756.76" rx="63.78" ry="63.78"/>
<text text-anchor="middle" x="146.07" y="-769.56" font-family="Times,serif" font-size="9.00">key 34590</text>
<text text-anchor="middle" x="146.07" y="-759.56" font-family="Times,serif" font-size="9.00">bias &#45;0.835</text>
<text text-anchor="middle" x="146.07" y="-749.56" font-family="Times,serif" font-size="9.00">h_scaling 0.000</text>
<text text-anchor="middle" x="146.07" y="-739.56" font-family="Times,serif" font-size="9.00">output 0.309</text>
</g>
<!-- key 34590
bias &#45;0.835
h_scaling 0.000
output 0.309&#45;&gt;key 36289
bias &#45;0.468
h_scaling 0.871
output 0.460 -->
<g id="edge4" class="edge">
<title>key 34590
bias &#45;0.835
h_scaling 0.000
output 0.309&#45;&gt;key 36289
bias &#45;0.468
h_scaling 0.871
output 0.460</title>
<path fill="none" stroke="red" stroke-width="0.1" d="M160.68,-818.91C163.74,-834.32 166.51,-850.89 168.07,-866.4 181.39,-999.31 183.14,-1034.23 168.07,-1166.95 166.66,-1179.4 164.36,-1192.49 161.72,-1205.11"/>
<polygon fill="red" stroke="red" stroke-width="0.1" points="158.25,-1204.59 159.53,-1215.11 165.09,-1206.08 158.25,-1204.59"/>
<text text-anchor="middle" x="192.07" y="-1014.48" font-family="Times,serif" font-size="9.00">0.826</text>
</g>
<!-- key 34590
bias &#45;0.835
h_scaling 0.000
output 0.309&#45;&gt;key 113312
bias 0.335
h_scaling 0.787
output 0.272 -->
<g id="edge24" class="edge">
<title>key 34590
bias &#45;0.835
h_scaling 0.000
output 0.309&#45;&gt;key 113312
bias 0.335
h_scaling 0.787
output 0.272</title>
<path fill="none" stroke="blue" stroke-width="0.1" d="M122.26,-697.34C111.04,-664.7 100.07,-622.96 100.07,-584.48 100.07,-584.48 100.07,-584.48 100.07,-235.92 100.07,-191.84 125.19,-149.13 150.38,-117.38"/>
<polygon fill="blue" stroke="blue" stroke-width="0.1" points="153.16,-119.51 156.77,-109.55 147.73,-115.08 153.16,-119.51"/>
<text text-anchor="middle" x="115.57" y="-408" font-family="Times,serif" font-size="9.00">&#45;0.263</text>
</g>
<!-- key 34590
bias &#45;0.835
h_scaling 0.000
output 0.309&#45;&gt;key 4090
bias 0.360
h_scaling 0.496
output 0.922 -->
<g id="edge21" class="edge">
<title>key 34590
bias &#45;0.835
h_scaling 0.000
output 0.309&#45;&gt;key 4090
bias 0.360
h_scaling 0.496
output 0.922</title>
<path fill="none" stroke="blue" stroke-width="0.1" d="M171.89,-698.23C178.11,-686.79 185.25,-675.2 193.07,-665.12 202.56,-652.87 214.06,-640.99 225.62,-630.27"/>
<polygon fill="blue" stroke="blue" stroke-width="0.1" points="228.14,-632.7 233.21,-623.4 223.44,-627.51 228.14,-632.7"/>
<text text-anchor="middle" x="208.57" y="-667.92" font-family="Times,serif" font-size="9.00">&#45;0.654</text>
</g>
<!-- key 4090
bias 0.360
h_scaling 0.496
output 0.922&#45;&gt;output
bias &#45;0.032
h_scaling 0.076
output 0.024 -->
<g id="edge1" class="edge">
<title>key 4090
bias 0.360
h_scaling 0.496
output 0.922&#45;&gt;output
bias &#45;0.032
h_scaling 0.076
output 0.024</title>
<path fill="none" stroke="blue" stroke-width="0.1" d="M273.24,-520.16C271.36,-508.2 269.37,-495.59 267.44,-483.35"/>
<polygon fill="blue" stroke="blue" stroke-width="0.1" points="270.85,-482.52 265.84,-473.19 263.94,-483.61 270.85,-482.52"/>
<text text-anchor="middle" x="284.57" y="-494.64" font-family="Times,serif" font-size="9.00">&#45;0.994</text>
</g>
<!-- key 4090
bias 0.360
h_scaling 0.496
output 0.922&#45;&gt;key 113312
bias 0.335
h_scaling 0.787
output 0.272 -->
<g id="edge10" class="edge">
<title>key 4090
bias 0.360
h_scaling 0.496
output 0.922&#45;&gt;key 113312
bias 0.335
h_scaling 0.787
output 0.272</title>
<path fill="none" stroke="blue" stroke-width="0.1" d="M317.45,-529.72C365.71,-448.39 440.79,-289.63 376.07,-173.28 353.63,-132.95 309.34,-105.67 270.93,-88.53"/>
<polygon fill="blue" stroke="blue" stroke-width="0.1" points="271.88,-85.13 261.31,-84.39 269.11,-91.56 271.88,-85.13"/>
<text text-anchor="middle" x="412.57" y="-321.36" font-family="Times,serif" font-size="9.00">&#45;0.852</text>
</g>
<!-- key 4090
bias 0.360
h_scaling 0.496
output 0.922&#45;&gt;key 4090
bias 0.360
h_scaling 0.496
output 0.922 -->
<g id="edge9" class="edge">
<title>key 4090
bias 0.360
h_scaling 0.496
output 0.922&#45;&gt;key 4090
bias 0.360
h_scaling 0.496
output 0.922</title>
<path fill="none" stroke="red" stroke-width="0.1" d="M345.01,-598.77C356.57,-596.89 364.71,-591.79 364.71,-583.48 364.71,-577.76 360.86,-573.56 354.7,-570.89"/>
<polygon fill="red" stroke="red" stroke-width="0.1" points="355.58,-567.5 345.01,-568.18 353.7,-574.24 355.58,-567.5"/>
<text text-anchor="middle" x="378.71" y="-581.28" font-family="Times,serif" font-size="9.00">0.883</text>
</g>
<!-- key 181598
bias &#45;0.578
h_scaling 0.309
output 0.784&#45;&gt;key 225474
bias &#45;0.683
h_scaling 0.362
output 0.731 -->
<g id="edge18" class="edge">
<title>key 181598
bias &#45;0.578
h_scaling 0.309
output 0.784&#45;&gt;key 225474
bias &#45;0.683
h_scaling 0.362
output 0.731</title>
<path fill="none" stroke="red" stroke-width="0.1" d="M95.07,-993.83C95.07,-1005.35 95.07,-1017.47 95.07,-1029.26"/>
<polygon fill="red" stroke="red" stroke-width="0.1" points="91.57,-1029.51 95.07,-1039.51 98.57,-1029.51 91.57,-1029.51"/>
<text text-anchor="middle" x="109.07" y="-1014.48" font-family="Times,serif" font-size="9.00">1.031</text>
</g>
<!-- key 181598
bias &#45;0.578
h_scaling 0.309
output 0.784&#45;&gt;key 34590
bias &#45;0.835
h_scaling 0.000
output 0.309 -->
<g id="edge14" class="edge">
<title>key 181598
bias &#45;0.578
h_scaling 0.309
output 0.784&#45;&gt;key 34590
bias &#45;0.835
h_scaling 0.000
output 0.309</title>
<path fill="none" stroke="red" stroke-width="0.1" d="M113.05,-868.65C117,-855.4 121.21,-841.26 125.25,-827.67"/>
<polygon fill="red" stroke="red" stroke-width="0.1" points="128.66,-828.47 128.16,-817.89 121.96,-826.47 128.66,-828.47"/>
<text text-anchor="middle" x="134.07" y="-841.2" font-family="Times,serif" font-size="9.00">0.747</text>
</g>
</g>
</svg>
