<?xml version="1.0" encoding="UTF-8" standalone="no"?>
<!DOCTYPE svg PUBLIC "-//W3C//DTD SVG 1.1//EN"
 "http://www.w3.org/Graphics/SVG/1.1/DTD/svg11.dtd">
<!-- Generated by graphviz version 2.43.0 (0)
 -->
<!-- Title: %3 Pages: 1 -->
<svg width="356pt" height="729pt"
 viewBox="0.00 0.00 356.28 729.12" xmlns="http://www.w3.org/2000/svg" xmlns:xlink="http://www.w3.org/1999/xlink">
<g id="graph0" class="graph" transform="scale(1 1) rotate(0) translate(4 725.12)">
<title>%3</title>
<polygon fill="white" stroke="transparent" points="-4,4 -4,-725.12 352.28,-725.12 352.28,4 -4,4"/>
<!-- ready
output 0.000 -->
<g id="node1" class="node">
<title>ready
output 0.000</title>
<polygon fill="yellow" stroke="black" points="151.14,-721.12 74.14,-721.12 74.14,-693.12 151.14,-693.12 151.14,-721.12"/>
<text text-anchor="middle" x="112.64" y="-709.92" font-family="Times,serif" font-size="9.00">ready</text>
<text text-anchor="middle" x="112.64" y="-699.92" font-family="Times,serif" font-size="9.00">output 0.000</text>
</g>
<!-- key 6493
bias &#45;0.642
h_scaling 0.130
output 0.804 -->
<g id="node4" class="node">
<title>key 6493
bias &#45;0.642
h_scaling 0.130
output 0.804</title>
<ellipse fill="white" stroke="black" cx="176.64" cy="-583.48" rx="63.78" ry="63.78"/>
<text text-anchor="middle" x="176.64" y="-596.28" font-family="Times,serif" font-size="9.00">key 6493</text>
<text text-anchor="middle" x="176.64" y="-586.28" font-family="Times,serif" font-size="9.00">bias &#45;0.642</text>
<text text-anchor="middle" x="176.64" y="-576.28" font-family="Times,serif" font-size="9.00">h_scaling 0.130</text>
<text text-anchor="middle" x="176.64" y="-566.28" font-family="Times,serif" font-size="9.00">output 0.804</text>
</g>
<!-- ready
output 0.000&#45;&gt;key 6493
bias &#45;0.642
h_scaling 0.130
output 0.804 -->
<g id="edge12" class="edge">
<title>ready
output 0.000&#45;&gt;key 6493
bias &#45;0.642
h_scaling 0.130
output 0.804</title>
<path fill="none" stroke="blue" stroke-width="0.1" d="M119.49,-693.1C125.18,-682.29 133.72,-666.04 142.49,-649.38"/>
<polygon fill="blue" stroke="blue" stroke-width="0.1" points="145.81,-650.6 147.36,-640.12 139.61,-647.34 145.81,-650.6"/>
<text text-anchor="middle" x="148.14" y="-667.92" font-family="Times,serif" font-size="9.00">&#45;0.725</text>
</g>
<!-- key 8493
bias &#45;0.453
h_scaling 0.406
output 0.692 -->
<g id="node6" class="node">
<title>key 8493
bias &#45;0.453
h_scaling 0.406
output 0.692</title>
<ellipse fill="white" stroke="black" cx="63.64" cy="-236.92" rx="63.78" ry="63.78"/>
<text text-anchor="middle" x="63.64" y="-249.72" font-family="Times,serif" font-size="9.00">key 8493</text>
<text text-anchor="middle" x="63.64" y="-239.72" font-family="Times,serif" font-size="9.00">bias &#45;0.453</text>
<text text-anchor="middle" x="63.64" y="-229.72" font-family="Times,serif" font-size="9.00">h_scaling 0.406</text>
<text text-anchor="middle" x="63.64" y="-219.72" font-family="Times,serif" font-size="9.00">output 0.692</text>
</g>
<!-- ready
output 0.000&#45;&gt;key 8493
bias &#45;0.453
h_scaling 0.406
output 0.692 -->
<g id="edge6" class="edge">
<title>ready
output 0.000&#45;&gt;key 8493
bias &#45;0.453
h_scaling 0.406
output 0.692</title>
<path fill="none" stroke="red" stroke-width="0.1" d="M107.7,-692.96C95.84,-660.82 65.64,-575.56 50.64,-501.84 38.6,-442.67 43.86,-356.99 47.64,-318.56 47.94,-315.53 48.3,-312.45 48.7,-309.34"/>
<polygon fill="red" stroke="red" stroke-width="0.1" points="52.18,-309.77 50.16,-299.37 45.25,-308.76 52.18,-309.77"/>
<text text-anchor="middle" x="64.64" y="-494.64" font-family="Times,serif" font-size="9.00">0.818</text>
</g>
<!-- go
output 0.000 -->
<g id="node2" class="node">
<title>go
output 0.000</title>
<polygon fill="green" stroke="black" points="278.14,-721.12 201.14,-721.12 201.14,-693.12 278.14,-693.12 278.14,-721.12"/>
<text text-anchor="middle" x="239.64" y="-709.92" font-family="Times,serif" font-size="9.00">go</text>
<text text-anchor="middle" x="239.64" y="-699.92" font-family="Times,serif" font-size="9.00">output 0.000</text>
</g>
<!-- go
output 0.000&#45;&gt;key 6493
bias &#45;0.642
h_scaling 0.130
output 0.804 -->
<g id="edge10" class="edge">
<title>go
output 0.000&#45;&gt;key 6493
bias &#45;0.642
h_scaling 0.130
output 0.804</title>
<path fill="none" stroke="red" stroke-width="0.1" d="M232.9,-693.1C227.33,-682.34 218.96,-666.2 210.38,-649.62"/>
<polygon fill="red" stroke="red" stroke-width="0.1" points="213.31,-647.67 205.6,-640.4 207.1,-650.89 213.31,-647.67"/>
<text text-anchor="middle" x="236.64" y="-667.92" font-family="Times,serif" font-size="9.00">1.021</text>
</g>
<!-- key 100
bias &#45;0.383
h_scaling 0.636
output 0.286 -->
<g id="node5" class="node">
<title>key 100
bias &#45;0.383
h_scaling 0.636
output 0.286</title>
<ellipse fill="white" stroke="black" cx="238.64" cy="-63.64" rx="63.78" ry="63.78"/>
<text text-anchor="middle" x="238.64" y="-76.44" font-family="Times,serif" font-size="9.00">key 100</text>
<text text-anchor="middle" x="238.64" y="-66.44" font-family="Times,serif" font-size="9.00">bias &#45;0.383</text>
<text text-anchor="middle" x="238.64" y="-56.44" font-family="Times,serif" font-size="9.00">h_scaling 0.636</text>
<text text-anchor="middle" x="238.64" y="-46.44" font-family="Times,serif" font-size="9.00">output 0.286</text>
</g>
<!-- go
output 0.000&#45;&gt;key 100
bias &#45;0.383
h_scaling 0.636
output 0.286 -->
<g id="edge4" class="edge">
<title>go
output 0.000&#45;&gt;key 100
bias &#45;0.383
h_scaling 0.636
output 0.286</title>
<path fill="none" stroke="red" stroke-width="0.1" d="M255.77,-692.9C268.29,-681.85 285.2,-665.06 295.64,-647.12 310.27,-621.97 314.64,-613.57 314.64,-584.48 314.64,-584.48 314.64,-584.48 314.64,-235.92 314.64,-196.67 297.76,-156.37 279.91,-124.73"/>
<polygon fill="red" stroke="red" stroke-width="0.1" points="282.91,-122.93 274.86,-116.04 276.86,-126.45 282.91,-122.93"/>
<text text-anchor="middle" x="328.64" y="-408" font-family="Times,serif" font-size="9.00">1.106</text>
</g>
<!-- output
bias 0.561
h_scaling 0.332
output 0.015 -->
<g id="node3" class="node">
<title>output
bias 0.561
h_scaling 0.332
output 0.015</title>
<ellipse fill="lightblue" stroke="black" cx="176.64" cy="-410.2" rx="63.78" ry="63.78"/>
<text text-anchor="middle" x="176.64" y="-423" font-family="Times,serif" font-size="9.00">output</text>
<text text-anchor="middle" x="176.64" y="-413" font-family="Times,serif" font-size="9.00">bias 0.561</text>
<text text-anchor="middle" x="176.64" y="-403" font-family="Times,serif" font-size="9.00">h_scaling 0.332</text>
<text text-anchor="middle" x="176.64" y="-393" font-family="Times,serif" font-size="9.00">output 0.015</text>
</g>
<!-- output
bias 0.561
h_scaling 0.332
output 0.015&#45;&gt;key 8493
bias &#45;0.453
h_scaling 0.406
output 0.692 -->
<g id="edge9" class="edge">
<title>output
bias 0.561
h_scaling 0.332
output 0.015&#45;&gt;key 8493
bias &#45;0.453
h_scaling 0.406
output 0.692</title>
<path fill="none" stroke="blue" stroke-width="0.1" d="M141.81,-356.41C129.84,-338.26 116.33,-317.78 103.95,-299.02"/>
<polygon fill="blue" stroke="blue" stroke-width="0.1" points="106.78,-296.95 98.35,-290.53 100.94,-300.81 106.78,-296.95"/>
<text text-anchor="middle" x="135.14" y="-321.36" font-family="Times,serif" font-size="9.00">&#45;0.111</text>
</g>
<!-- key 6493
bias &#45;0.642
h_scaling 0.130
output 0.804&#45;&gt;output
bias 0.561
h_scaling 0.332
output 0.015 -->
<g id="edge3" class="edge">
<title>key 6493
bias &#45;0.642
h_scaling 0.130
output 0.804&#45;&gt;output
bias 0.561
h_scaling 0.332
output 0.015</title>
<path fill="none" stroke="blue" stroke-width="0.1" d="M176.64,-519.67C176.64,-508.15 176.64,-496.04 176.64,-484.25"/>
<polygon fill="blue" stroke="blue" stroke-width="0.1" points="180.14,-484 176.64,-474 173.14,-484 180.14,-484"/>
<text text-anchor="middle" x="192.14" y="-494.64" font-family="Times,serif" font-size="9.00">&#45;0.996</text>
</g>
<!-- key 6493
bias &#45;0.642
h_scaling 0.130
output 0.804&#45;&gt;key 6493
bias &#45;0.642
h_scaling 0.130
output 0.804 -->
<g id="edge8" class="edge">
<title>key 6493
bias &#45;0.642
h_scaling 0.130
output 0.804&#45;&gt;key 6493
bias &#45;0.642
h_scaling 0.130
output 0.804</title>
<path fill="none" stroke="red" stroke-width="0.1" d="M238.58,-598.77C250.14,-596.89 258.28,-591.79 258.28,-583.48 258.28,-577.76 254.43,-573.56 248.27,-570.89"/>
<polygon fill="red" stroke="red" stroke-width="0.1" points="249.16,-567.5 238.58,-568.18 247.27,-574.24 249.16,-567.5"/>
<text text-anchor="middle" x="272.28" y="-581.28" font-family="Times,serif" font-size="9.00">1.005</text>
</g>
<!-- key 100
bias &#45;0.383
h_scaling 0.636
output 0.286&#45;&gt;output
bias 0.561
h_scaling 0.332
output 0.015 -->
<g id="edge1" class="edge">
<title>key 100
bias &#45;0.383
h_scaling 0.636
output 0.286&#45;&gt;output
bias 0.561
h_scaling 0.332
output 0.015</title>
<path fill="none" stroke="blue" stroke-width="0.1" d="M227.52,-126.43C216.88,-185.55 200.84,-274.7 189.62,-337.05"/>
<polygon fill="blue" stroke="blue" stroke-width="0.1" points="186.12,-336.74 187.8,-347.2 193.01,-337.98 186.12,-336.74"/>
<text text-anchor="middle" x="234.14" y="-234.72" font-family="Times,serif" font-size="9.00">&#45;1.000</text>
</g>
<!-- key 100
bias &#45;0.383
h_scaling 0.636
output 0.286&#45;&gt;key 6493
bias &#45;0.642
h_scaling 0.130
output 0.804 -->
<g id="edge2" class="edge">
<title>key 100
bias &#45;0.383
h_scaling 0.636
output 0.286&#45;&gt;key 6493
bias &#45;0.642
h_scaling 0.130
output 0.804</title>
<path fill="none" stroke="red" stroke-width="0.1" d="M252.55,-126.01C268.31,-207.61 287.27,-355.3 249.64,-473.84 243.87,-492.02 234.03,-509.96 223.42,-525.86"/>
<polygon fill="red" stroke="red" stroke-width="0.1" points="220.27,-524.26 217.46,-534.48 226.03,-528.24 220.27,-524.26"/>
<text text-anchor="middle" x="284.64" y="-321.36" font-family="Times,serif" font-size="9.00">0.981</text>
</g>
<!-- key 100
bias &#45;0.383
h_scaling 0.636
output 0.286&#45;&gt;key 100
bias &#45;0.383
h_scaling 0.636
output 0.286 -->
<g id="edge5" class="edge">
<title>key 100
bias &#45;0.383
h_scaling 0.636
output 0.286&#45;&gt;key 100
bias &#45;0.383
h_scaling 0.636
output 0.286</title>
<path fill="none" stroke="red" stroke-width="0.1" d="M300.58,-78.94C312.14,-77.05 320.28,-71.95 320.28,-63.64 320.28,-57.92 316.43,-53.73 310.27,-51.05"/>
<polygon fill="red" stroke="red" stroke-width="0.1" points="311.16,-47.66 300.58,-48.34 309.27,-54.4 311.16,-47.66"/>
<text text-anchor="middle" x="334.28" y="-61.44" font-family="Times,serif" font-size="9.00">1.087</text>
</g>
<!-- key 8493
bias &#45;0.453
h_scaling 0.406
output 0.692&#45;&gt;key 6493
bias &#45;0.642
h_scaling 0.130
output 0.804 -->
<g id="edge13" class="edge">
<title>key 8493
bias &#45;0.453
h_scaling 0.406
output 0.692&#45;&gt;key 6493
bias &#45;0.642
h_scaling 0.130
output 0.804</title>
<path fill="none" stroke="blue" stroke-width="0.1" d="M54.33,-299.89C49.65,-349.04 49.17,-418.46 72.64,-473.84 82.71,-497.61 100.52,-519.22 118.58,-536.8"/>
<polygon fill="blue" stroke="blue" stroke-width="0.1" points="116.64,-539.78 126.32,-544.08 121.44,-534.68 116.64,-539.78"/>
<text text-anchor="middle" x="88.14" y="-408" font-family="Times,serif" font-size="9.00">&#45;0.519</text>
</g>
<!-- key 8493
bias &#45;0.453
h_scaling 0.406
output 0.692&#45;&gt;key 100
bias &#45;0.383
h_scaling 0.636
output 0.286 -->
<g id="edge7" class="edge">
<title>key 8493
bias &#45;0.453
h_scaling 0.406
output 0.692&#45;&gt;key 100
bias &#45;0.383
h_scaling 0.636
output 0.286</title>
<path fill="none" stroke="blue" stroke-width="0.1" d="M108.71,-191.81C132.4,-168.63 161.56,-140.08 186.25,-115.92"/>
<polygon fill="blue" stroke="blue" stroke-width="0.1" points="188.72,-118.39 193.42,-108.9 183.83,-113.39 188.72,-118.39"/>
<text text-anchor="middle" x="166.14" y="-148.08" font-family="Times,serif" font-size="9.00">&#45;0.352</text>
</g>
<!-- key 8493
bias &#45;0.453
h_scaling 0.406
output 0.692&#45;&gt;key 8493
bias &#45;0.453
h_scaling 0.406
output 0.692 -->
<g id="edge11" class="edge">
<title>key 8493
bias &#45;0.453
h_scaling 0.406
output 0.692&#45;&gt;key 8493
bias &#45;0.453
h_scaling 0.406
output 0.692</title>
<path fill="none" stroke="red" stroke-width="0.1" d="M125.58,-252.22C137.14,-250.33 145.28,-245.23 145.28,-236.92 145.28,-231.2 141.43,-227.01 135.27,-224.33"/>
<polygon fill="red" stroke="red" stroke-width="0.1" points="136.16,-220.94 125.58,-221.62 134.27,-227.68 136.16,-220.94"/>
<text text-anchor="middle" x="159.28" y="-234.72" font-family="Times,serif" font-size="9.00">0.853</text>
</g>
</g>
</svg>
