<?xml version="1.0" encoding="UTF-8" standalone="no"?>
<!DOCTYPE svg PUBLIC "-//W3C//DTD SVG 1.1//EN"
 "http://www.w3.org/Graphics/SVG/1.1/DTD/svg11.dtd">
<!-- Generated by graphviz version 8.0.5 (20230430.1635)
 -->
<!-- Pages: 1 -->
<svg width="383pt" height="711pt"
 viewBox="0.00 0.00 383.38 710.58" xmlns="http://www.w3.org/2000/svg" xmlns:xlink="http://www.w3.org/1999/xlink">
<g id="graph0" class="graph" transform="scale(1 1) rotate(0) translate(4 706.58)">
<polygon fill="white" stroke="none" points="-4,4 -4,-706.58 379.38,-706.58 379.38,4 -4,4"/>
<!-- ready -->
<g id="node1" class="node">
<title>ready</title>
<polygon fill="yellow" stroke="black" points="144.7,-702.58 108.45,-702.58 108.45,-683.33 144.7,-683.33 144.7,-702.58"/>
<text text-anchor="middle" x="126.57" y="-690.03" font-family="Times New Roman,serif" font-size="9.00">ready</text>
</g>
<!-- key 2923
bias 0.457
h_scaling 0.973 -->
<g id="node5" class="node">
<title>key 2923
bias 0.457
h_scaling 0.973</title>
<ellipse fill="white" stroke="black" cx="93.57" cy="-437.16" rx="50.56" ry="50.56"/>
<text text-anchor="middle" x="93.57" y="-445.48" font-family="Times New Roman,serif" font-size="9.00">key 2923</text>
<text text-anchor="middle" x="93.57" y="-434.23" font-family="Times New Roman,serif" font-size="9.00">bias 0.457</text>
<text text-anchor="middle" x="93.57" y="-422.98" font-family="Times New Roman,serif" font-size="9.00">h_scaling 0.973</text>
</g>
<!-- ready&#45;&gt;key 2923
bias 0.457
h_scaling 0.973 -->
<g id="edge15" class="edge">
<title>ready&#45;&gt;key 2923
bias 0.457
h_scaling 0.973</title>
<path fill="none" stroke="blue" stroke-width="0.1" d="M125.4,-682.92C121.6,-653.71 109.42,-560.07 101.28,-497.45"/>
<polygon fill="blue" stroke="blue" stroke-width="0.1" points="104.77,-497.15 100.01,-487.68 97.83,-498.05 104.77,-497.15"/>
</g>
<!-- key 131602
bias &#45;0.581
h_scaling 0.026 -->
<g id="node6" class="node">
<title>key 131602
bias &#45;0.581
h_scaling 0.026</title>
<ellipse fill="white" stroke="black" cx="200.57" cy="-585.52" rx="50.56" ry="50.56"/>
<text text-anchor="middle" x="200.57" y="-593.85" font-family="Times New Roman,serif" font-size="9.00">key 131602</text>
<text text-anchor="middle" x="200.57" y="-582.6" font-family="Times New Roman,serif" font-size="9.00">bias &#45;0.581</text>
<text text-anchor="middle" x="200.57" y="-571.35" font-family="Times New Roman,serif" font-size="9.00">h_scaling 0.026</text>
</g>
<!-- ready&#45;&gt;key 131602
bias &#45;0.581
h_scaling 0.026 -->
<g id="edge10" class="edge">
<title>ready&#45;&gt;key 131602
bias &#45;0.581
h_scaling 0.026</title>
<path fill="none" stroke="red" stroke-width="0.58" d="M132.88,-682.97C140.47,-672.16 153.78,-653.19 166.61,-634.92"/>
<polygon fill="red" stroke="red" stroke-width="0.58" points="169.17,-637.35 172.05,-627.15 163.45,-633.33 169.17,-637.35"/>
<text text-anchor="middle" x="162.7" y="-656.78" font-family="Times New Roman,serif" font-size="9.00">0.016</text>
</g>
<!-- go -->
<g id="node2" class="node">
<title>go</title>
<polygon fill="green" stroke="black" points="63.7,-595.15 39.45,-595.15 39.45,-575.9 63.7,-575.9 63.7,-595.15"/>
<text text-anchor="middle" x="51.57" y="-582.6" font-family="Times New Roman,serif" font-size="9.00">go</text>
</g>
<!-- key 42178
bias &#45;0.735
h_scaling 0.730 -->
<g id="node4" class="node">
<title>key 42178
bias &#45;0.735
h_scaling 0.730</title>
<ellipse fill="white" stroke="black" cx="154.57" cy="-50.56" rx="50.56" ry="50.56"/>
<text text-anchor="middle" x="154.57" y="-58.88" font-family="Times New Roman,serif" font-size="9.00">key 42178</text>
<text text-anchor="middle" x="154.57" y="-47.63" font-family="Times New Roman,serif" font-size="9.00">bias &#45;0.735</text>
<text text-anchor="middle" x="154.57" y="-36.38" font-family="Times New Roman,serif" font-size="9.00">h_scaling 0.730</text>
</g>
<!-- go&#45;&gt;key 42178
bias &#45;0.735
h_scaling 0.730 -->
<g id="edge6" class="edge">
<title>go&#45;&gt;key 42178
bias &#45;0.735
h_scaling 0.730</title>
<path fill="none" stroke="blue" stroke-width="0.1" d="M48.29,-575.6C31.48,-528.4 -41.28,-304.11 33.57,-148.37 47.77,-118.83 75.85,-95.48 101.39,-79.12"/>
<polygon fill="blue" stroke="blue" stroke-width="0.1" points="102.91,-82.3 109.57,-74.06 99.23,-76.34 102.91,-82.3"/>
</g>
<!-- go&#45;&gt;key 2923
bias 0.457
h_scaling 0.973 -->
<g id="edge2" class="edge">
<title>go&#45;&gt;key 2923
bias 0.457
h_scaling 0.973</title>
<path fill="none" stroke="red" stroke-width="0.64" d="M54.07,-575.81C58.59,-560.08 68.44,-525.76 77.17,-495.32"/>
<polygon fill="red" stroke="red" stroke-width="0.64" points="80.44,-496.6 79.84,-486.03 73.71,-494.67 80.44,-496.6"/>
<text text-anchor="middle" x="84.7" y="-508.42" font-family="Times New Roman,serif" font-size="9.00">0.018</text>
</g>
<!-- output
bias 0.227
h_scaling 0.438 -->
<g id="node3" class="node">
<title>output
bias 0.227
h_scaling 0.438</title>
<ellipse fill="lightblue" stroke="black" cx="93.57" cy="-198.92" rx="50.56" ry="50.56"/>
<text text-anchor="middle" x="93.57" y="-207.25" font-family="Times New Roman,serif" font-size="9.00">output</text>
<text text-anchor="middle" x="93.57" y="-196" font-family="Times New Roman,serif" font-size="9.00">bias 0.227</text>
<text text-anchor="middle" x="93.57" y="-184.75" font-family="Times New Roman,serif" font-size="9.00">h_scaling 0.438</text>
</g>
<!-- output
bias 0.227
h_scaling 0.438&#45;&gt;key 42178
bias &#45;0.735
h_scaling 0.730 -->
<g id="edge9" class="edge">
<title>output
bias 0.227
h_scaling 0.438&#45;&gt;key 42178
bias &#45;0.735
h_scaling 0.730</title>
<path fill="none" stroke="blue" stroke-width="0.1" d="M102.85,-148.8C105.45,-138.79 108.66,-128.46 112.57,-119.12 115.08,-113.12 118.08,-107.05 121.32,-101.14"/>
<polygon fill="blue" stroke="blue" stroke-width="0.1" points="124.27,-103.02 126.19,-92.6 118.19,-99.55 124.27,-103.02"/>
</g>
<!-- output
bias 0.227
h_scaling 0.438&#45;&gt;key 2923
bias 0.457
h_scaling 0.973 -->
<g id="edge3" class="edge">
<title>output
bias 0.227
h_scaling 0.438&#45;&gt;key 2923
bias 0.457
h_scaling 0.973</title>
<path fill="none" stroke="red" stroke-width="0.57" d="M93.57,-249.67C93.57,-286.63 93.57,-337.23 93.57,-376.4"/>
<polygon fill="red" stroke="red" stroke-width="0.57" points="90.07,-376.35 93.57,-386.35 97.07,-376.35 90.07,-376.35"/>
<text text-anchor="middle" x="103.7" y="-315.12" font-family="Times New Roman,serif" font-size="9.00">0.016</text>
</g>
<!-- key 42178
bias &#45;0.735
h_scaling 0.730&#45;&gt;output
bias 0.227
h_scaling 0.438 -->
<g id="edge16" class="edge">
<title>key 42178
bias &#45;0.735
h_scaling 0.730&#45;&gt;output
bias 0.227
h_scaling 0.438</title>
<path fill="none" stroke="red" stroke-width="0.53" d="M135.3,-97.81C129.33,-112.14 122.69,-128.06 116.49,-142.92"/>
<polygon fill="red" stroke="red" stroke-width="0.53" points="113.32,-141.44 112.71,-152.01 119.78,-144.13 113.32,-141.44"/>
<text text-anchor="middle" x="135.7" y="-121.82" font-family="Times New Roman,serif" font-size="9.00">0.014</text>
</g>
<!-- key 42178
bias &#45;0.735
h_scaling 0.730&#45;&gt;key 42178
bias &#45;0.735
h_scaling 0.730 -->
<g id="edge8" class="edge">
<title>key 42178
bias &#45;0.735
h_scaling 0.730&#45;&gt;key 42178
bias &#45;0.735
h_scaling 0.730</title>
<path fill="none" stroke="red" stroke-width="2.68" d="M203.56,-64.16C214.84,-62.99 223.13,-58.45 223.13,-50.56 223.13,-46.36 220.79,-43.12 216.91,-40.82"/>
<polygon fill="red" stroke="red" stroke-width="2.68" points="217.14,-37.38 206.56,-37.96 215.2,-44.1 217.14,-37.38"/>
<text text-anchor="middle" x="233.26" y="-47.63" font-family="Times New Roman,serif" font-size="9.00">0.086</text>
</g>
<!-- key 42178
bias &#45;0.735
h_scaling 0.730&#45;&gt;key 2923
bias 0.457
h_scaling 0.973 -->
<g id="edge5" class="edge">
<title>key 42178
bias &#45;0.735
h_scaling 0.730&#45;&gt;key 2923
bias 0.457
h_scaling 0.973</title>
<path fill="none" stroke="blue" stroke-width="0.1" d="M158.27,-101.48C160.3,-141.69 161.08,-199.53 153.57,-249.48 145.35,-304.17 134.83,-316.06 117.57,-368.6 116.33,-372.39 115.02,-376.29 113.68,-380.22"/>
<polygon fill="blue" stroke="blue" stroke-width="0.1" points="110.47,-378.78 110.52,-389.37 117.09,-381.06 110.47,-378.78"/>
</g>
<!-- key 2923
bias 0.457
h_scaling 0.973&#45;&gt;output
bias 0.227
h_scaling 0.438 -->
<g id="edge1" class="edge">
<title>key 2923
bias 0.457
h_scaling 0.973&#45;&gt;output
bias 0.227
h_scaling 0.438</title>
<path fill="none" stroke="blue" stroke-width="0.1" d="M78.43,-388.52C76.84,-381.89 75.47,-375.12 74.57,-368.6 68.43,-324.08 68.43,-312 74.57,-267.48 75.04,-264.12 75.62,-260.69 76.3,-257.25"/>
<polygon fill="blue" stroke="blue" stroke-width="0.1" points="79.7,-258.08 78.43,-247.56 72.87,-256.58 79.7,-258.08"/>
</g>
<!-- key 2923
bias 0.457
h_scaling 0.973&#45;&gt;key 2923
bias 0.457
h_scaling 0.973 -->
<g id="edge4" class="edge">
<title>key 2923
bias 0.457
h_scaling 0.973&#45;&gt;key 2923
bias 0.457
h_scaling 0.973</title>
<path fill="none" stroke="red" stroke-width="1.92" d="M142.56,-450.76C153.84,-449.59 162.13,-445.05 162.13,-437.16 162.13,-432.35 159.05,-428.78 154.1,-426.47"/>
<polygon fill="red" stroke="red" stroke-width="1.92" points="155.12,-422.61 144.56,-423.55 153.4,-429.4 155.12,-422.61"/>
<text text-anchor="middle" x="172.26" y="-434.23" font-family="Times New Roman,serif" font-size="9.00">0.061</text>
</g>
<!-- key 131602
bias &#45;0.581
h_scaling 0.026&#45;&gt;key 42178
bias &#45;0.735
h_scaling 0.730 -->
<g id="edge13" class="edge">
<title>key 131602
bias &#45;0.581
h_scaling 0.026&#45;&gt;key 42178
bias &#45;0.735
h_scaling 0.730</title>
<path fill="none" stroke="red" stroke-width="0.38" d="M201.01,-534.54C200.99,-448.89 197.6,-268.81 172.57,-119.12 172.02,-115.78 171.37,-112.38 170.65,-108.95"/>
<polygon fill="red" stroke="red" stroke-width="0.38" points="174.09,-108.28 168.49,-99.29 167.26,-109.81 174.09,-108.28"/>
<text text-anchor="middle" x="206.7" y="-315.12" font-family="Times New Roman,serif" font-size="9.00">0.009</text>
</g>
<!-- key 131602
bias &#45;0.581
h_scaling 0.026&#45;&gt;key 2923
bias 0.457
h_scaling 0.973 -->
<g id="edge11" class="edge">
<title>key 131602
bias &#45;0.581
h_scaling 0.026&#45;&gt;key 2923
bias 0.457
h_scaling 0.973</title>
<path fill="none" stroke="blue" stroke-width="0.1" d="M171.05,-544.14C158.01,-526.3 142.56,-505.17 128.91,-486.5"/>
<polygon fill="blue" stroke="blue" stroke-width="0.1" points="131.91,-484.67 123.18,-478.66 126.26,-488.8 131.91,-484.67"/>
</g>
<!-- key 131602
bias &#45;0.581
h_scaling 0.026&#45;&gt;key 131602
bias &#45;0.581
h_scaling 0.026 -->
<g id="edge12" class="edge">
<title>key 131602
bias &#45;0.581
h_scaling 0.026&#45;&gt;key 131602
bias &#45;0.581
h_scaling 0.026</title>
<path fill="none" stroke="red" stroke-width="0.79" d="M249.56,-599.13C260.84,-597.95 269.13,-593.42 269.13,-585.52 269.13,-580.34 265.56,-576.61 259.92,-574.32"/>
<polygon fill="red" stroke="red" stroke-width="0.79" points="261.1,-570.77 250.56,-571.92 259.52,-577.59 261.1,-570.77"/>
<text text-anchor="middle" x="279.26" y="-582.6" font-family="Times New Roman,serif" font-size="9.00">0.023</text>
</g>
<!-- key 69010
bias &#45;0.093
h_scaling 0.960 -->
<g id="node7" class="node">
<title>key 69010
bias &#45;0.093
h_scaling 0.960</title>
<ellipse fill="white" stroke="black" cx="286.57" cy="-318.04" rx="50.56" ry="50.56"/>
<text text-anchor="middle" x="286.57" y="-326.37" font-family="Times New Roman,serif" font-size="9.00">key 69010</text>
<text text-anchor="middle" x="286.57" y="-315.12" font-family="Times New Roman,serif" font-size="9.00">bias &#45;0.093</text>
<text text-anchor="middle" x="286.57" y="-303.87" font-family="Times New Roman,serif" font-size="9.00">h_scaling 0.960</text>
</g>
<!-- key 131602
bias &#45;0.581
h_scaling 0.026&#45;&gt;key 69010
bias &#45;0.093
h_scaling 0.960 -->
<g id="edge14" class="edge">
<title>key 131602
bias &#45;0.581
h_scaling 0.026&#45;&gt;key 69010
bias &#45;0.093
h_scaling 0.960</title>
<path fill="none" stroke="red" stroke-width="0.67" d="M217.46,-537.72C219.89,-530.78 222.32,-523.69 224.57,-516.97 240.2,-470.2 256.85,-416.83 268.96,-377.3"/>
<polygon fill="red" stroke="red" stroke-width="0.67" points="272.59,-377.38 272.17,-366.79 265.9,-375.33 272.59,-377.38"/>
<text text-anchor="middle" x="236.7" y="-508.42" font-family="Times New Roman,serif" font-size="9.00">0.019</text>
</g>
<!-- key 69010
bias &#45;0.093
h_scaling 0.960&#45;&gt;key 42178
bias &#45;0.735
h_scaling 0.730 -->
<g id="edge7" class="edge">
<title>key 69010
bias &#45;0.093
h_scaling 0.960&#45;&gt;key 42178
bias &#45;0.735
h_scaling 0.730</title>
<path fill="none" stroke="red" stroke-width="1.49" d="M278.26,-267.81C269.58,-225.92 253.15,-165.37 224.57,-119.12 218.45,-109.2 210.54,-99.72 202.25,-91.17"/>
<polygon fill="red" stroke="red" stroke-width="1.49" points="204.48,-88.46 194.89,-83.94 199.56,-93.45 204.48,-88.46"/>
<text text-anchor="middle" x="283.7" y="-196" font-family="Times New Roman,serif" font-size="9.00">0.046</text>
</g>
<!-- key 69010
bias &#45;0.093
h_scaling 0.960&#45;&gt;key 69010
bias &#45;0.093
h_scaling 0.960 -->
<g id="edge17" class="edge">
<title>key 69010
bias &#45;0.093
h_scaling 0.960&#45;&gt;key 69010
bias &#45;0.093
h_scaling 0.960</title>
<path fill="none" stroke="red" stroke-width="1.25" d="M332.39,-340.26C345.25,-339.29 355.13,-331.88 355.13,-318.04 355.13,-308.31 350.25,-301.76 342.88,-298.38"/>
<polygon fill="red" stroke="red" stroke-width="1.25" points="343.93,-294.8 333.39,-295.82 342.27,-301.59 343.93,-294.8"/>
<text text-anchor="middle" x="365.26" y="-315.12" font-family="Times New Roman,serif" font-size="9.00">0.038</text>
</g>
</g>
</svg>
