<?xml version="1.0" encoding="UTF-8" standalone="no"?>
<!DOCTYPE svg PUBLIC "-//W3C//DTD SVG 1.1//EN"
 "http://www.w3.org/Graphics/SVG/1.1/DTD/svg11.dtd">
<!-- Generated by graphviz version 8.0.5 (20230430.1635)
 -->
<!-- Pages: 1 -->
<svg width="406pt" height="711pt"
 viewBox="0.00 0.00 405.58 710.58" xmlns="http://www.w3.org/2000/svg" xmlns:xlink="http://www.w3.org/1999/xlink">
<g id="graph0" class="graph" transform="scale(1 1) rotate(0) translate(4 706.58)">
<polygon fill="white" stroke="none" points="-4,4 -4,-706.58 401.58,-706.58 401.58,4 -4,4"/>
<!-- ready -->
<g id="node1" class="node">
<title>ready</title>
<polygon fill="yellow" stroke="black" points="160.9,-702.58 124.65,-702.58 124.65,-683.33 160.9,-683.33 160.9,-702.58"/>
<text text-anchor="middle" x="142.77" y="-690.03" font-family="Times New Roman,serif" font-size="9.00">ready</text>
</g>
<!-- key 2923
bias 0.457
h_scaling 0.973 -->
<g id="node5" class="node">
<title>key 2923
bias 0.457
h_scaling 0.973</title>
<ellipse fill="white" stroke="black" cx="115.77" cy="-437.16" rx="50.56" ry="50.56"/>
<text text-anchor="middle" x="115.77" y="-445.48" font-family="Times New Roman,serif" font-size="9.00">key 2923</text>
<text text-anchor="middle" x="115.77" y="-434.23" font-family="Times New Roman,serif" font-size="9.00">bias 0.457</text>
<text text-anchor="middle" x="115.77" y="-422.98" font-family="Times New Roman,serif" font-size="9.00">h_scaling 0.973</text>
</g>
<!-- ready&#45;&gt;key 2923
bias 0.457
h_scaling 0.973 -->
<g id="edge15" class="edge">
<title>ready&#45;&gt;key 2923
bias 0.457
h_scaling 0.973</title>
<path fill="none" stroke="blue" stroke-width="1.18" d="M141.81,-682.92C138.72,-653.89 128.87,-561.23 122.2,-498.61"/>
<polygon fill="blue" stroke="blue" stroke-width="1.18" points="125.58,-498.26 121.04,-488.68 118.62,-499 125.58,-498.26"/>
<text text-anchor="middle" x="147.4" y="-582.6" font-family="Times New Roman,serif" font-size="9.00">&#45;0.361</text>
</g>
<!-- key 131602
bias &#45;0.581
h_scaling 0.026 -->
<g id="node6" class="node">
<title>key 131602
bias &#45;0.581
h_scaling 0.026</title>
<ellipse fill="white" stroke="black" cx="225.77" cy="-585.52" rx="50.56" ry="50.56"/>
<text text-anchor="middle" x="225.77" y="-593.85" font-family="Times New Roman,serif" font-size="9.00">key 131602</text>
<text text-anchor="middle" x="225.77" y="-582.6" font-family="Times New Roman,serif" font-size="9.00">bias &#45;0.581</text>
<text text-anchor="middle" x="225.77" y="-571.35" font-family="Times New Roman,serif" font-size="9.00">h_scaling 0.026</text>
</g>
<!-- ready&#45;&gt;key 131602
bias &#45;0.581
h_scaling 0.026 -->
<g id="edge10" class="edge">
<title>ready&#45;&gt;key 131602
bias &#45;0.581
h_scaling 0.026</title>
<path fill="none" stroke="red" stroke-width="3.1" d="M149.85,-682.97C158.1,-672.49 172.38,-654.35 186.35,-636.6"/>
<polygon fill="red" stroke="red" stroke-width="3.1" points="189.52,-638.7 192.95,-628.67 184.02,-634.37 189.52,-638.7"/>
<text text-anchor="middle" x="181.9" y="-656.78" font-family="Times New Roman,serif" font-size="9.00">1.000</text>
</g>
<!-- go -->
<g id="node2" class="node">
<title>go</title>
<polygon fill="green" stroke="black" points="64.9,-595.15 40.65,-595.15 40.65,-575.9 64.9,-575.9 64.9,-595.15"/>
<text text-anchor="middle" x="52.77" y="-582.6" font-family="Times New Roman,serif" font-size="9.00">go</text>
</g>
<!-- key 42178
bias &#45;0.735
h_scaling 0.730 -->
<g id="node4" class="node">
<title>key 42178
bias &#45;0.735
h_scaling 0.730</title>
<ellipse fill="white" stroke="black" cx="163.77" cy="-50.56" rx="50.56" ry="50.56"/>
<text text-anchor="middle" x="163.77" y="-58.88" font-family="Times New Roman,serif" font-size="9.00">key 42178</text>
<text text-anchor="middle" x="163.77" y="-47.63" font-family="Times New Roman,serif" font-size="9.00">bias &#45;0.735</text>
<text text-anchor="middle" x="163.77" y="-36.38" font-family="Times New Roman,serif" font-size="9.00">h_scaling 0.730</text>
</g>
<!-- go&#45;&gt;key 42178
bias &#45;0.735
h_scaling 0.730 -->
<g id="edge6" class="edge">
<title>go&#45;&gt;key 42178
bias &#45;0.735
h_scaling 0.730</title>
<path fill="none" stroke="blue" stroke-width="2.91" d="M49.4,-575.56C32.15,-528.14 -42.48,-302.93 34.77,-148.37 49.75,-118.39 78.92,-95.29 105.73,-79.18"/>
<polygon fill="blue" stroke="blue" stroke-width="2.91" points="107.88,-82.27 114.83,-74.27 104.41,-76.19 107.88,-82.27"/>
<text text-anchor="middle" x="15.4" y="-315.12" font-family="Times New Roman,serif" font-size="9.00">&#45;0.935</text>
</g>
<!-- go&#45;&gt;key 2923
bias 0.457
h_scaling 0.973 -->
<g id="edge2" class="edge">
<title>go&#45;&gt;key 2923
bias 0.457
h_scaling 0.973</title>
<path fill="none" stroke="red" stroke-width="2.96" d="M56.53,-575.81C63.2,-560.3 77.66,-526.71 90.62,-496.6"/>
<polygon fill="red" stroke="red" stroke-width="2.96" points="94.32,-498.54 95.06,-487.97 87.89,-495.77 94.32,-498.54"/>
<text text-anchor="middle" x="96.9" y="-508.42" font-family="Times New Roman,serif" font-size="9.00">0.952</text>
</g>
<!-- output
bias 0.227
h_scaling 0.438 -->
<g id="node3" class="node">
<title>output
bias 0.227
h_scaling 0.438</title>
<ellipse fill="lightblue" stroke="black" cx="94.77" cy="-198.92" rx="50.56" ry="50.56"/>
<text text-anchor="middle" x="94.77" y="-207.25" font-family="Times New Roman,serif" font-size="9.00">output</text>
<text text-anchor="middle" x="94.77" y="-196" font-family="Times New Roman,serif" font-size="9.00">bias 0.227</text>
<text text-anchor="middle" x="94.77" y="-184.75" font-family="Times New Roman,serif" font-size="9.00">h_scaling 0.438</text>
</g>
<!-- output
bias 0.227
h_scaling 0.438&#45;&gt;key 42178
bias &#45;0.735
h_scaling 0.730 -->
<g id="edge9" class="edge">
<title>output
bias 0.227
h_scaling 0.438&#45;&gt;key 42178
bias &#45;0.735
h_scaling 0.730</title>
<path fill="none" stroke="blue" stroke-width="2.68" d="M92.55,-147.92C93.55,-138.08 95.64,-128.04 99.52,-119.12 103.47,-110.03 109.21,-101.43 115.64,-93.6"/>
<polygon fill="blue" stroke="blue" stroke-width="2.68" points="118.69,-96.22 122.76,-86.43 113.48,-91.55 118.69,-96.22"/>
<text text-anchor="middle" x="110.4" y="-121.82" font-family="Times New Roman,serif" font-size="9.00">&#45;0.860</text>
</g>
<!-- output
bias 0.227
h_scaling 0.438&#45;&gt;key 2923
bias 0.457
h_scaling 0.973 -->
<g id="edge3" class="edge">
<title>output
bias 0.227
h_scaling 0.438&#45;&gt;key 2923
bias 0.457
h_scaling 0.973</title>
<path fill="none" stroke="red" stroke-width="1.65" d="M104.2,-248.9C105.18,-255.14 106.08,-261.45 106.77,-267.48 110.83,-302.74 113.06,-342.37 114.29,-374.35"/>
<polygon fill="red" stroke="red" stroke-width="1.65" points="110.86,-374.33 114.71,-384.2 117.85,-374.09 110.86,-374.33"/>
<text text-anchor="middle" x="123.9" y="-315.12" font-family="Times New Roman,serif" font-size="9.00">0.518</text>
</g>
<!-- key 42178
bias &#45;0.735
h_scaling 0.730&#45;&gt;output
bias 0.227
h_scaling 0.438 -->
<g id="edge16" class="edge">
<title>key 42178
bias &#45;0.735
h_scaling 0.730&#45;&gt;output
bias 0.227
h_scaling 0.438</title>
<path fill="none" stroke="red" stroke-width="0.71" d="M142.46,-96.77C135.57,-111.39 127.85,-127.75 120.67,-142.99"/>
<polygon fill="red" stroke="red" stroke-width="0.71" points="117.14,-142.28 116.04,-152.82 123.47,-145.26 117.14,-142.28"/>
<text text-anchor="middle" x="140.9" y="-121.82" font-family="Times New Roman,serif" font-size="9.00">0.204</text>
</g>
<!-- key 42178
bias &#45;0.735
h_scaling 0.730&#45;&gt;key 42178
bias &#45;0.735
h_scaling 0.730 -->
<g id="edge8" class="edge">
<title>key 42178
bias &#45;0.735
h_scaling 0.730&#45;&gt;key 42178
bias &#45;0.735
h_scaling 0.730</title>
<path fill="none" stroke="red" stroke-width="2.94" d="M212.77,-64.16C224.04,-62.99 232.33,-58.45 232.33,-50.56 232.33,-46.36 229.99,-43.12 226.11,-40.82"/>
<polygon fill="red" stroke="red" stroke-width="2.94" points="227.34,-37.38 216.77,-37.96 225.4,-44.1 227.34,-37.38"/>
<text text-anchor="middle" x="242.46" y="-47.63" font-family="Times New Roman,serif" font-size="9.00">0.946</text>
</g>
<!-- key 42178
bias &#45;0.735
h_scaling 0.730&#45;&gt;key 2923
bias 0.457
h_scaling 0.973 -->
<g id="edge5" class="edge">
<title>key 42178
bias &#45;0.735
h_scaling 0.730&#45;&gt;key 2923
bias 0.457
h_scaling 0.973</title>
<path fill="none" stroke="blue" stroke-width="3" d="M164.16,-101.4C163.63,-164.44 159.3,-275.94 137.77,-368.6 137.21,-371.02 136.6,-373.47 135.96,-375.94"/>
<polygon fill="blue" stroke="blue" stroke-width="3" points="132.56,-374.63 133.21,-385.2 139.3,-376.53 132.56,-374.63"/>
<text text-anchor="middle" x="174.4" y="-196" font-family="Times New Roman,serif" font-size="9.00">&#45;0.967</text>
</g>
<!-- key 2923
bias 0.457
h_scaling 0.973&#45;&gt;output
bias 0.227
h_scaling 0.438 -->
<g id="edge1" class="edge">
<title>key 2923
bias 0.457
h_scaling 0.973&#45;&gt;output
bias 0.227
h_scaling 0.438</title>
<path fill="none" stroke="blue" stroke-width="3.05" d="M91.5,-392.48C88.2,-384.73 85.33,-376.58 83.52,-368.6 75.7,-334.06 77.75,-294.62 82.11,-262.56"/>
<polygon fill="blue" stroke="blue" stroke-width="3.05" points="86.14,-263.26 84.16,-252.85 79.22,-262.22 86.14,-263.26"/>
<text text-anchor="middle" x="95.4" y="-315.12" font-family="Times New Roman,serif" font-size="9.00">&#45;0.983</text>
</g>
<!-- key 2923
bias 0.457
h_scaling 0.973&#45;&gt;key 2923
bias 0.457
h_scaling 0.973 -->
<g id="edge4" class="edge">
<title>key 2923
bias 0.457
h_scaling 0.973&#45;&gt;key 2923
bias 0.457
h_scaling 0.973</title>
<path fill="none" stroke="red" stroke-width="2.47" d="M164.77,-450.76C176.04,-449.59 184.33,-445.05 184.33,-437.16 184.33,-432.59 181.56,-429.15 177.05,-426.83"/>
<polygon fill="red" stroke="red" stroke-width="2.47" points="178.33,-422.75 167.77,-423.55 176.52,-429.52 178.33,-422.75"/>
<text text-anchor="middle" x="194.46" y="-434.23" font-family="Times New Roman,serif" font-size="9.00">0.791</text>
</g>
<!-- key 131602
bias &#45;0.581
h_scaling 0.026&#45;&gt;key 42178
bias &#45;0.735
h_scaling 0.730 -->
<g id="edge13" class="edge">
<title>key 131602
bias &#45;0.581
h_scaling 0.026&#45;&gt;key 42178
bias &#45;0.735
h_scaling 0.730</title>
<path fill="none" stroke="red" stroke-width="0.79" d="M224.86,-534.72C222.66,-453.28 215.16,-286.81 189.77,-148.37 187.47,-135.8 184.34,-122.47 181.06,-109.86"/>
<polygon fill="red" stroke="red" stroke-width="0.79" points="184.25,-109.22 178.29,-100.46 177.49,-111.03 184.25,-109.22"/>
<text text-anchor="middle" x="225.9" y="-315.12" font-family="Times New Roman,serif" font-size="9.00">0.231</text>
</g>
<!-- key 131602
bias &#45;0.581
h_scaling 0.026&#45;&gt;key 2923
bias 0.457
h_scaling 0.973 -->
<g id="edge11" class="edge">
<title>key 131602
bias &#45;0.581
h_scaling 0.026&#45;&gt;key 2923
bias 0.457
h_scaling 0.973</title>
<path fill="none" stroke="blue" stroke-width="2.13" d="M195.71,-544.53C182.68,-527.18 167.27,-506.68 153.48,-488.33"/>
<polygon fill="blue" stroke="blue" stroke-width="2.13" points="155.6,-486 146.79,-480.1 150,-490.2 155.6,-486"/>
<text text-anchor="middle" x="185.4" y="-508.42" font-family="Times New Roman,serif" font-size="9.00">&#45;0.677</text>
</g>
<!-- key 131602
bias &#45;0.581
h_scaling 0.026&#45;&gt;key 131602
bias &#45;0.581
h_scaling 0.026 -->
<g id="edge12" class="edge">
<title>key 131602
bias &#45;0.581
h_scaling 0.026&#45;&gt;key 131602
bias &#45;0.581
h_scaling 0.026</title>
<path fill="none" stroke="red" stroke-width="2.85" d="M274.77,-599.13C286.04,-597.95 294.33,-593.42 294.33,-585.52 294.33,-581.33 291.99,-578.08 288.11,-575.78"/>
<polygon fill="red" stroke="red" stroke-width="2.85" points="289.34,-572.34 278.77,-572.92 287.4,-579.06 289.34,-572.34"/>
<text text-anchor="middle" x="304.46" y="-582.6" font-family="Times New Roman,serif" font-size="9.00">0.916</text>
</g>
<!-- key 69010
bias &#45;0.093
h_scaling 0.960 -->
<g id="node7" class="node">
<title>key 69010
bias &#45;0.093
h_scaling 0.960</title>
<ellipse fill="white" stroke="black" cx="308.77" cy="-318.04" rx="50.56" ry="50.56"/>
<text text-anchor="middle" x="308.77" y="-326.37" font-family="Times New Roman,serif" font-size="9.00">key 69010</text>
<text text-anchor="middle" x="308.77" y="-315.12" font-family="Times New Roman,serif" font-size="9.00">bias &#45;0.093</text>
<text text-anchor="middle" x="308.77" y="-303.87" font-family="Times New Roman,serif" font-size="9.00">h_scaling 0.960</text>
</g>
<!-- key 131602
bias &#45;0.581
h_scaling 0.026&#45;&gt;key 69010
bias &#45;0.093
h_scaling 0.960 -->
<g id="edge14" class="edge">
<title>key 131602
bias &#45;0.581
h_scaling 0.026&#45;&gt;key 69010
bias &#45;0.093
h_scaling 0.960</title>
<path fill="none" stroke="red" stroke-width="3.08" d="M240.71,-536.75C254.46,-492.77 274.92,-427.32 289.82,-379.67"/>
<polygon fill="red" stroke="red" stroke-width="3.08" points="293.31,-381.02 292.96,-370.43 286.63,-378.93 293.31,-381.02"/>
<text text-anchor="middle" x="259.9" y="-508.42" font-family="Times New Roman,serif" font-size="9.00">0.993</text>
</g>
<!-- key 69010
bias &#45;0.093
h_scaling 0.960&#45;&gt;key 42178
bias &#45;0.735
h_scaling 0.730 -->
<g id="edge7" class="edge">
<title>key 69010
bias &#45;0.093
h_scaling 0.960&#45;&gt;key 42178
bias &#45;0.735
h_scaling 0.730</title>
<path fill="none" stroke="red" stroke-width="1.38" d="M301.51,-267.6C293.47,-225.3 277.38,-164.28 246.77,-119.12 238.38,-106.74 227.07,-95.46 215.49,-85.83"/>
<polygon fill="red" stroke="red" stroke-width="1.38" points="217.21,-82.93 207.2,-79.46 212.86,-88.41 217.21,-82.93"/>
<text text-anchor="middle" x="306.9" y="-196" font-family="Times New Roman,serif" font-size="9.00">0.428</text>
</g>
<!-- key 69010
bias &#45;0.093
h_scaling 0.960&#45;&gt;key 69010
bias &#45;0.093
h_scaling 0.960 -->
<g id="edge17" class="edge">
<title>key 69010
bias &#45;0.093
h_scaling 0.960&#45;&gt;key 69010
bias &#45;0.093
h_scaling 0.960</title>
<path fill="none" stroke="red" stroke-width="0.34" d="M354.59,-340.26C367.45,-339.29 377.33,-331.88 377.33,-318.04 377.33,-307.98 372.12,-301.32 364.33,-298.06"/>
<polygon fill="red" stroke="red" stroke-width="0.34" points="365.12,-294.65 354.59,-295.82 363.55,-301.47 365.12,-294.65"/>
<text text-anchor="middle" x="387.46" y="-315.12" font-family="Times New Roman,serif" font-size="9.00">0.081</text>
</g>
</g>
</svg>
