<?xml version="1.0" encoding="UTF-8" standalone="no"?>
<!DOCTYPE svg PUBLIC "-//W3C//DTD SVG 1.1//EN"
 "http://www.w3.org/Graphics/SVG/1.1/DTD/svg11.dtd">
<!-- Generated by graphviz version 2.43.0 (0)
 -->
<!-- Title: %3 Pages: 1 -->
<svg width="158pt" height="204pt"
 viewBox="0.00 0.00 158.47 204.07" xmlns="http://www.w3.org/2000/svg" xmlns:xlink="http://www.w3.org/1999/xlink">
<g id="graph0" class="graph" transform="scale(1 1) rotate(0) translate(4 200.07)">
<title>%3</title>
<polygon fill="white" stroke="transparent" points="-4,4 -4,-200.07 154.47,-200.07 154.47,4 -4,4"/>
<!-- ready -->
<g id="node1" class="node">
<title>ready</title>
<polygon fill="yellow" stroke="black" points="54.73,-196.07 11.73,-196.07 11.73,-178.07 54.73,-178.07 54.73,-196.07"/>
<text text-anchor="middle" x="33.23" y="-184.87" font-family="Times,serif" font-size="9.00">ready</text>
</g>
<!-- 25731 -->
<g id="node5" class="node">
<title>25731</title>
<ellipse fill="white" stroke="black" cx="33.23" cy="-108.83" rx="33.47" ry="33.47"/>
<text text-anchor="middle" x="33.23" y="-106.63" font-family="Times,serif" font-size="9.00">25731</text>
</g>
<!-- ready&#45;&gt;25731 -->
<g id="edge3" class="edge">
<title>ready&#45;&gt;25731</title>
<path fill="none" stroke="red" stroke-width="0.3" d="M33.23,-177.91C33.23,-171.58 33.23,-162.27 33.23,-152.56"/>
<polygon fill="red" stroke="red" stroke-width="0.3" points="36.73,-152.4 33.23,-142.4 29.73,-152.4 36.73,-152.4"/>
</g>
<!-- go -->
<g id="node2" class="node">
<title>go</title>
<polygon fill="green" stroke="black" points="131.23,-196.07 103.23,-196.07 103.23,-178.07 131.23,-178.07 131.23,-196.07"/>
<text text-anchor="middle" x="117.23" y="-184.87" font-family="Times,serif" font-size="9.00">go</text>
</g>
<!-- 25681 -->
<g id="node4" class="node">
<title>25681</title>
<ellipse fill="white" stroke="black" cx="117.23" cy="-108.83" rx="33.47" ry="33.47"/>
<text text-anchor="middle" x="117.23" y="-106.63" font-family="Times,serif" font-size="9.00">25681</text>
</g>
<!-- go&#45;&gt;25681 -->
<g id="edge1" class="edge">
<title>go&#45;&gt;25681</title>
<path fill="none" stroke="red" stroke-width="0.3" d="M117.23,-177.91C117.23,-171.58 117.23,-162.27 117.23,-152.56"/>
<polygon fill="red" stroke="red" stroke-width="0.3" points="120.73,-152.4 117.23,-142.4 113.73,-152.4 120.73,-152.4"/>
</g>
<!-- o1 -->
<g id="node3" class="node">
<title>o1</title>
<ellipse fill="lightblue" stroke="black" cx="75.23" cy="-19.8" rx="19.6" ry="19.6"/>
<text text-anchor="middle" x="75.23" y="-17.6" font-family="Times,serif" font-size="9.00">o1</text>
</g>
<!-- 25681&#45;&gt;o1 -->
<g id="edge2" class="edge">
<title>25681&#45;&gt;o1</title>
<path fill="none" stroke="blue" stroke-width="0.17" d="M103.01,-78.37C98.16,-68.31 92.76,-57.12 88.03,-47.31"/>
<polygon fill="blue" stroke="blue" stroke-width="0.17" points="91.06,-45.53 83.56,-38.05 84.75,-48.57 91.06,-45.53"/>
</g>
<!-- 25731&#45;&gt;o1 -->
<g id="edge4" class="edge">
<title>25731&#45;&gt;o1</title>
<path fill="none" stroke="red" stroke-width="0.19" d="M47.45,-78.37C52.31,-68.31 57.7,-57.12 62.44,-47.31"/>
<polygon fill="red" stroke="red" stroke-width="0.19" points="65.72,-48.57 66.91,-38.05 59.41,-45.53 65.72,-48.57"/>
</g>
</g>
</svg>
