<?xml version="1.0" encoding="UTF-8" standalone="no"?>
<!DOCTYPE svg PUBLIC "-//W3C//DTD SVG 1.1//EN"
 "http://www.w3.org/Graphics/SVG/1.1/DTD/svg11.dtd">
<!-- Generated by graphviz version 2.43.0 (0)
 -->
<!-- Title: %3 Pages: 1 -->
<svg width="131pt" height="187pt"
 viewBox="0.00 0.00 131.25 187.10" xmlns="http://www.w3.org/2000/svg" xmlns:xlink="http://www.w3.org/1999/xlink">
<g id="graph0" class="graph" transform="scale(1 1) rotate(0) translate(4 183.1)">
<title>%3</title>
<polygon fill="white" stroke="transparent" points="-4,4 -4,-183.1 127.25,-183.1 127.25,4 -4,4"/>
<!-- ready -->
<g id="node1" class="node">
<title>ready</title>
<polygon fill="yellow" stroke="black" points="43,-179.1 0,-179.1 0,-161.1 43,-161.1 43,-179.1"/>
<text text-anchor="middle" x="21.5" y="-167.9" font-family="Times,serif" font-size="9.00">ready</text>
</g>
<!-- 5 -->
<g id="node5" class="node">
<title>5</title>
<ellipse fill="white" stroke="black" cx="21.5" cy="-100.35" rx="16.03" ry="16.03"/>
<text text-anchor="middle" x="21.5" y="-98.15" font-family="Times,serif" font-size="9.00">5</text>
</g>
<!-- ready&#45;&gt;5 -->
<g id="edge2" class="edge">
<title>ready&#45;&gt;5</title>
<path fill="none" stroke="blue" stroke-width="0.18" d="M21.5,-161.06C21.5,-152.65 21.5,-139.03 21.5,-126.91"/>
<polygon fill="blue" stroke="blue" stroke-width="0.18" points="25,-126.82 21.5,-116.82 18,-126.82 25,-126.82"/>
</g>
<!-- go -->
<g id="node2" class="node">
<title>go</title>
<polygon fill="green" stroke="black" points="91.5,-179.1 63.5,-179.1 63.5,-161.1 91.5,-161.1 91.5,-179.1"/>
<text text-anchor="middle" x="77.5" y="-167.9" font-family="Times,serif" font-size="9.00">go</text>
</g>
<!-- 723 -->
<g id="node4" class="node">
<title>723</title>
<ellipse fill="white" stroke="black" cx="80.5" cy="-100.35" rx="25" ry="25"/>
<text text-anchor="middle" x="80.5" y="-98.15" font-family="Times,serif" font-size="9.00">723</text>
</g>
<!-- go&#45;&gt;723 -->
<g id="edge4" class="edge">
<title>go&#45;&gt;723</title>
<path fill="none" stroke="red" stroke-width="0.3" d="M77.86,-161.06C78.14,-154.62 78.56,-145.12 78.98,-135.59"/>
<polygon fill="red" stroke="red" stroke-width="0.3" points="82.49,-135.51 79.44,-125.37 75.5,-135.2 82.49,-135.51"/>
</g>
<!-- go&#45;&gt;5 -->
<g id="edge3" class="edge">
<title>go&#45;&gt;5</title>
<path fill="none" stroke="red" stroke-width="0.13" d="M70.86,-161.06C62.79,-151.3 48.92,-134.52 37.93,-121.22"/>
<polygon fill="red" stroke="red" stroke-width="0.13" points="40.6,-118.97 31.54,-113.49 35.21,-123.43 40.6,-118.97"/>
</g>
<!-- o1 -->
<g id="node3" class="node">
<title>o1</title>
<ellipse fill="lightblue" stroke="black" cx="50.5" cy="-19.8" rx="19.6" ry="19.6"/>
<text text-anchor="middle" x="50.5" y="-17.6" font-family="Times,serif" font-size="9.00">o1</text>
</g>
<!-- 723&#45;&gt;o1 -->
<g id="edge5" class="edge">
<title>723&#45;&gt;o1</title>
<path fill="none" stroke="blue" stroke-width="0.25" d="M71.98,-77.05C68.54,-68.03 64.53,-57.53 60.91,-48.06"/>
<polygon fill="blue" stroke="blue" stroke-width="0.25" points="64.16,-46.76 57.32,-38.67 57.62,-49.26 64.16,-46.76"/>
</g>
<!-- 723&#45;&gt;723 -->
<g id="edge6" class="edge">
<title>723&#45;&gt;723</title>
<path fill="none" stroke="red" stroke-width="0.1" d="M102.06,-112.65C113.2,-114.54 123.25,-110.44 123.25,-100.35 123.25,-93.56 118.71,-89.49 112.36,-88.12"/>
<polygon fill="red" stroke="red" stroke-width="0.1" points="112.08,-84.62 102.06,-88.04 112.03,-91.62 112.08,-84.62"/>
</g>
<!-- 5&#45;&gt;o1 -->
<g id="edge1" class="edge">
<title>5&#45;&gt;o1</title>
<path fill="none" stroke="blue" stroke-width="0.12" d="M26.82,-84.94C30.61,-74.67 35.83,-60.53 40.4,-48.15"/>
<polygon fill="blue" stroke="blue" stroke-width="0.12" points="43.71,-49.29 43.89,-38.7 37.14,-46.87 43.71,-49.29"/>
</g>
</g>
</svg>
