<?xml version="1.0" encoding="UTF-8" standalone="no"?>
<!DOCTYPE svg PUBLIC "-//W3C//DTD SVG 1.1//EN"
 "http://www.w3.org/Graphics/SVG/1.1/DTD/svg11.dtd">
<!-- Generated by graphviz version 2.43.0 (0)
 -->
<!-- Title: %3 Pages: 1 -->
<svg width="167pt" height="253pt"
 viewBox="0.00 0.00 167.03 252.53" xmlns="http://www.w3.org/2000/svg" xmlns:xlink="http://www.w3.org/1999/xlink">
<g id="graph0" class="graph" transform="scale(1 1) rotate(0) translate(4 248.53)">
<title>%3</title>
<polygon fill="white" stroke="transparent" points="-4,4 -4,-248.53 163.03,-248.53 163.03,4 -4,4"/>
<!-- ready -->
<g id="node1" class="node">
<title>ready</title>
<polygon fill="yellow" stroke="black" points="54.73,-233.74 11.73,-233.74 11.73,-215.74 54.73,-215.74 54.73,-233.74"/>
<text text-anchor="middle" x="33.23" y="-222.54" font-family="Times,serif" font-size="9.00">ready</text>
</g>
<!-- 25217 -->
<g id="node5" class="node">
<title>25217</title>
<ellipse fill="white" stroke="black" cx="33.23" cy="-135.7" rx="33.47" ry="33.47"/>
<text text-anchor="middle" x="33.23" y="-133.5" font-family="Times,serif" font-size="9.00">25217</text>
</g>
<!-- ready&#45;&gt;25217 -->
<g id="edge1" class="edge">
<title>ready&#45;&gt;25217</title>
<path fill="none" stroke="red" stroke-width="0.3" d="M33.23,-215.7C33.23,-207.24 33.23,-193.23 33.23,-179.34"/>
<polygon fill="red" stroke="red" stroke-width="0.3" points="36.73,-179.33 33.23,-169.33 29.73,-179.33 36.73,-179.33"/>
</g>
<!-- go -->
<g id="node2" class="node">
<title>go</title>
<polygon fill="green" stroke="black" points="101.23,-233.74 73.23,-233.74 73.23,-215.74 101.23,-215.74 101.23,-233.74"/>
<text text-anchor="middle" x="87.23" y="-222.54" font-family="Times,serif" font-size="9.00">go</text>
</g>
<!-- o1 -->
<g id="node3" class="node">
<title>o1</title>
<ellipse fill="lightblue" stroke="black" cx="139.23" cy="-224.74" rx="19.6" ry="19.6"/>
<text text-anchor="middle" x="139.23" y="-222.54" font-family="Times,serif" font-size="9.00">o1</text>
</g>
<!-- 24617 -->
<g id="node4" class="node">
<title>24617</title>
<ellipse fill="white" stroke="black" cx="33.23" cy="-33.23" rx="33.47" ry="33.47"/>
<text text-anchor="middle" x="33.23" y="-31.03" font-family="Times,serif" font-size="9.00">24617</text>
</g>
<!-- 25217&#45;&gt;24617 -->
<g id="edge2" class="edge">
<title>25217&#45;&gt;24617</title>
<path fill="none" stroke="red" stroke-width="0.3" d="M33.23,-102.36C33.23,-94.2 33.23,-85.32 33.23,-76.75"/>
<polygon fill="red" stroke="red" stroke-width="0.3" points="36.73,-76.52 33.23,-66.52 29.73,-76.52 36.73,-76.52"/>
</g>
</g>
</svg>
