<?xml version="1.0" encoding="UTF-8" standalone="no"?>
<!DOCTYPE svg PUBLIC "-//W3C//DTD SVG 1.1//EN"
 "http://www.w3.org/Graphics/SVG/1.1/DTD/svg11.dtd">
<!-- Generated by graphviz version 2.43.0 (0)
 -->
<!-- Title: %3 Pages: 1 -->
<svg width="201pt" height="307pt"
 viewBox="0.00 0.00 200.73 306.53" xmlns="http://www.w3.org/2000/svg" xmlns:xlink="http://www.w3.org/1999/xlink">
<g id="graph0" class="graph" transform="scale(1 1) rotate(0) translate(4 302.53)">
<title>%3</title>
<polygon fill="white" stroke="transparent" points="-4,4 -4,-302.53 196.73,-302.53 196.73,4 -4,4"/>
<!-- ready -->
<g id="node1" class="node">
<title>ready</title>
<polygon fill="yellow" stroke="black" points="43,-298.53 0,-298.53 0,-280.53 43,-280.53 43,-298.53"/>
<text text-anchor="middle" x="21.5" y="-287.33" font-family="Times,serif" font-size="9.00">ready</text>
</g>
<!-- go -->
<g id="node2" class="node">
<title>go</title>
<polygon fill="green" stroke="black" points="89.5,-298.53 61.5,-298.53 61.5,-280.53 89.5,-280.53 89.5,-298.53"/>
<text text-anchor="middle" x="75.5" y="-287.33" font-family="Times,serif" font-size="9.00">go</text>
</g>
<!-- 27504 -->
<g id="node5" class="node">
<title>27504</title>
<ellipse fill="white" stroke="black" cx="75.5" cy="-211.3" rx="33.47" ry="33.47"/>
<text text-anchor="middle" x="75.5" y="-209.1" font-family="Times,serif" font-size="9.00">27504</text>
</g>
<!-- go&#45;&gt;27504 -->
<g id="edge3" class="edge">
<title>go&#45;&gt;27504</title>
<path fill="none" stroke="red" stroke-width="0.3" d="M75.5,-280.38C75.5,-274.05 75.5,-264.74 75.5,-255.03"/>
<polygon fill="red" stroke="red" stroke-width="0.3" points="79,-254.87 75.5,-244.87 72,-254.87 79,-254.87"/>
</g>
<!-- o1 -->
<g id="node3" class="node">
<title>o1</title>
<ellipse fill="lightblue" stroke="black" cx="117.5" cy="-19.8" rx="19.6" ry="19.6"/>
<text text-anchor="middle" x="117.5" y="-17.6" font-family="Times,serif" font-size="9.00">o1</text>
</g>
<!-- 27337 -->
<g id="node4" class="node">
<title>27337</title>
<ellipse fill="white" stroke="black" cx="75.5" cy="-108.83" rx="33.47" ry="33.47"/>
<text text-anchor="middle" x="75.5" y="-106.63" font-family="Times,serif" font-size="9.00">27337</text>
</g>
<!-- 27337&#45;&gt;o1 -->
<g id="edge2" class="edge">
<title>27337&#45;&gt;o1</title>
<path fill="none" stroke="blue" stroke-width="0.16" d="M89.72,-78.37C94.57,-68.31 99.97,-57.12 104.71,-47.31"/>
<polygon fill="blue" stroke="blue" stroke-width="0.16" points="107.98,-48.57 109.18,-38.05 101.68,-45.53 107.98,-48.57"/>
</g>
<!-- 27504&#45;&gt;27337 -->
<g id="edge4" class="edge">
<title>27504&#45;&gt;27337</title>
<path fill="none" stroke="red" stroke-width="0.3" d="M75.5,-177.96C75.5,-169.8 75.5,-160.92 75.5,-152.35"/>
<polygon fill="red" stroke="red" stroke-width="0.3" points="79,-152.11 75.5,-142.11 72,-152.11 79,-152.11"/>
</g>
<!-- 26815 -->
<g id="node6" class="node">
<title>26815</title>
<ellipse fill="white" stroke="black" cx="159.5" cy="-108.83" rx="33.47" ry="33.47"/>
<text text-anchor="middle" x="159.5" y="-106.63" font-family="Times,serif" font-size="9.00">26815</text>
</g>
<!-- 26815&#45;&gt;o1 -->
<g id="edge1" class="edge">
<title>26815&#45;&gt;o1</title>
<path fill="none" stroke="blue" stroke-width="0.18" d="M145.28,-78.37C140.43,-68.31 135.03,-57.12 130.29,-47.31"/>
<polygon fill="blue" stroke="blue" stroke-width="0.18" points="133.32,-45.53 125.82,-38.05 127.02,-48.57 133.32,-45.53"/>
</g>
</g>
</svg>
