<?xml version="1.0" encoding="UTF-8" standalone="no"?>
<!DOCTYPE svg PUBLIC "-//W3C//DTD SVG 1.1//EN"
 "http://www.w3.org/Graphics/SVG/1.1/DTD/svg11.dtd">
<!-- Generated by graphviz version 2.43.0 (0)
 -->
<!-- Title: %3 Pages: 1 -->
<svg width="182pt" height="253pt"
 viewBox="0.00 0.00 181.50 252.53" xmlns="http://www.w3.org/2000/svg" xmlns:xlink="http://www.w3.org/1999/xlink">
<g id="graph0" class="graph" transform="scale(1 1) rotate(0) translate(4 248.53)">
<title>%3</title>
<polygon fill="white" stroke="transparent" points="-4,4 -4,-248.53 177.5,-248.53 177.5,4 -4,4"/>
<!-- ready -->
<g id="node1" class="node">
<title>ready</title>
<polygon fill="yellow" stroke="black" points="43,-220.3 0,-220.3 0,-202.3 43,-202.3 43,-220.3"/>
<text text-anchor="middle" x="21.5" y="-209.1" font-family="Times,serif" font-size="9.00">ready</text>
</g>
<!-- 25558 -->
<g id="node5" class="node">
<title>25558</title>
<ellipse fill="white" stroke="black" cx="57.5" cy="-108.83" rx="33.47" ry="33.47"/>
<text text-anchor="middle" x="57.5" y="-106.63" font-family="Times,serif" font-size="9.00">25558</text>
</g>
<!-- ready&#45;&gt;25558 -->
<g id="edge1" class="edge">
<title>ready&#45;&gt;25558</title>
<path fill="none" stroke="red" stroke-width="0.3" d="M24.45,-202.08C28.53,-190.69 36.18,-169.34 43.09,-150.05"/>
<polygon fill="red" stroke="red" stroke-width="0.3" points="46.43,-151.09 46.51,-140.5 39.84,-148.73 46.43,-151.09"/>
</g>
<!-- go -->
<g id="node2" class="node">
<title>go</title>
<polygon fill="green" stroke="black" points="173.5,-220.3 145.5,-220.3 145.5,-202.3 173.5,-202.3 173.5,-220.3"/>
<text text-anchor="middle" x="159.5" y="-209.1" font-family="Times,serif" font-size="9.00">go</text>
</g>
<!-- o1 -->
<g id="node3" class="node">
<title>o1</title>
<ellipse fill="lightblue" stroke="black" cx="57.5" cy="-19.8" rx="19.6" ry="19.6"/>
<text text-anchor="middle" x="57.5" y="-17.6" font-family="Times,serif" font-size="9.00">o1</text>
</g>
<!-- 25682 -->
<g id="node4" class="node">
<title>25682</title>
<ellipse fill="white" stroke="black" cx="94.5" cy="-211.3" rx="33.47" ry="33.47"/>
<text text-anchor="middle" x="94.5" y="-209.1" font-family="Times,serif" font-size="9.00">25682</text>
</g>
<!-- 25682&#45;&gt;25558 -->
<g id="edge3" class="edge">
<title>25682&#45;&gt;25558</title>
<path fill="none" stroke="red" stroke-width="0.12" d="M83.3,-179.88C79.78,-170.34 75.85,-159.67 72.14,-149.58"/>
<polygon fill="red" stroke="red" stroke-width="0.12" points="75.4,-148.32 68.66,-140.14 68.84,-150.74 75.4,-148.32"/>
</g>
<!-- 25558&#45;&gt;o1 -->
<g id="edge2" class="edge">
<title>25558&#45;&gt;o1</title>
<path fill="none" stroke="red" stroke-width="0.11" d="M57.5,-75.42C57.5,-67.09 57.5,-58.17 57.5,-50.01"/>
<polygon fill="red" stroke="red" stroke-width="0.11" points="61,-49.83 57.5,-39.83 54,-49.83 61,-49.83"/>
</g>
</g>
</svg>
