<?xml version="1.0" encoding="UTF-8" standalone="no"?>
<!DOCTYPE svg PUBLIC "-//W3C//DTD SVG 1.1//EN"
 "http://www.w3.org/Graphics/SVG/1.1/DTD/svg11.dtd">
<!-- Generated by graphviz version 2.43.0 (0)
 -->
<!-- Title: %3 Pages: 1 -->
<svg width="712pt" height="1020pt"
 viewBox="0.00 0.00 711.64 1019.68" xmlns="http://www.w3.org/2000/svg" xmlns:xlink="http://www.w3.org/1999/xlink">
<g id="graph0" class="graph" transform="scale(1 1) rotate(0) translate(4 1015.68)">
<title>%3</title>
<polygon fill="white" stroke="transparent" points="-4,4 -4,-1015.68 707.64,-1015.68 707.64,4 -4,4"/>
<!-- ready
output 0.000 -->
<g id="node1" class="node">
<title>ready
output 0.000</title>
<polygon fill="yellow" stroke="black" points="130.5,-1011.68 53.5,-1011.68 53.5,-983.68 130.5,-983.68 130.5,-1011.68"/>
<text text-anchor="middle" x="92" y="-1000.48" font-family="Times,serif" font-size="9.00">ready</text>
<text text-anchor="middle" x="92" y="-990.48" font-family="Times,serif" font-size="9.00">output 0.000</text>
</g>
<!-- key 330
bias &#45;0.248
h_scaling 1.000
output 0.528 -->
<g id="node6" class="node">
<title>key 330
bias &#45;0.248
h_scaling 1.000
output 0.528</title>
<ellipse fill="white" stroke="black" cx="241" cy="-874.04" rx="63.78" ry="63.78"/>
<text text-anchor="middle" x="241" y="-886.84" font-family="Times,serif" font-size="9.00">key 330</text>
<text text-anchor="middle" x="241" y="-876.84" font-family="Times,serif" font-size="9.00">bias &#45;0.248</text>
<text text-anchor="middle" x="241" y="-866.84" font-family="Times,serif" font-size="9.00">h_scaling 1.000</text>
<text text-anchor="middle" x="241" y="-856.84" font-family="Times,serif" font-size="9.00">output 0.528</text>
</g>
<!-- ready
output 0.000&#45;&gt;key 330
bias &#45;0.248
h_scaling 1.000
output 0.528 -->
<g id="edge3" class="edge">
<title>ready
output 0.000&#45;&gt;key 330
bias &#45;0.248
h_scaling 1.000
output 0.528</title>
<path fill="none" stroke="blue" stroke-width="0.1" d="M107.95,-983.66C126.05,-968.88 156.63,-943.92 183.9,-921.65"/>
<polygon fill="blue" stroke="blue" stroke-width="0.1" points="186.34,-924.18 191.87,-915.14 181.91,-918.76 186.34,-924.18"/>
<text text-anchor="middle" x="156.5" y="-958.48" font-family="Times,serif" font-size="9.00">&#45;0.147</text>
</g>
<!-- key 15737
bias &#45;0.161
h_scaling 1.000
output 0.103 -->
<g id="node9" class="node">
<title>key 15737
bias &#45;0.161
h_scaling 1.000
output 0.103</title>
<ellipse fill="white" stroke="black" cx="92" cy="-700.76" rx="63.78" ry="63.78"/>
<text text-anchor="middle" x="92" y="-713.56" font-family="Times,serif" font-size="9.00">key 15737</text>
<text text-anchor="middle" x="92" y="-703.56" font-family="Times,serif" font-size="9.00">bias &#45;0.161</text>
<text text-anchor="middle" x="92" y="-693.56" font-family="Times,serif" font-size="9.00">h_scaling 1.000</text>
<text text-anchor="middle" x="92" y="-683.56" font-family="Times,serif" font-size="9.00">output 0.103</text>
</g>
<!-- ready
output 0.000&#45;&gt;key 15737
bias &#45;0.161
h_scaling 1.000
output 0.103 -->
<g id="edge8" class="edge">
<title>ready
output 0.000&#45;&gt;key 15737
bias &#45;0.161
h_scaling 1.000
output 0.103</title>
<path fill="none" stroke="red" stroke-width="0.1" d="M92,-983.62C92,-947.76 92,-845.7 92,-774.78"/>
<polygon fill="red" stroke="red" stroke-width="0.1" points="95.5,-774.55 92,-764.55 88.5,-774.55 95.5,-774.55"/>
<text text-anchor="middle" x="106" y="-871.84" font-family="Times,serif" font-size="9.00">0.431</text>
</g>
<!-- key 6366
bias &#45;0.545
h_scaling 1.000
output 0.755 -->
<g id="node10" class="node">
<title>key 6366
bias &#45;0.545
h_scaling 1.000
output 0.755</title>
<ellipse fill="white" stroke="black" cx="163" cy="-63.64" rx="63.78" ry="63.78"/>
<text text-anchor="middle" x="163" y="-76.44" font-family="Times,serif" font-size="9.00">key 6366</text>
<text text-anchor="middle" x="163" y="-66.44" font-family="Times,serif" font-size="9.00">bias &#45;0.545</text>
<text text-anchor="middle" x="163" y="-56.44" font-family="Times,serif" font-size="9.00">h_scaling 1.000</text>
<text text-anchor="middle" x="163" y="-46.44" font-family="Times,serif" font-size="9.00">output 0.755</text>
</g>
<!-- ready
output 0.000&#45;&gt;key 6366
bias &#45;0.545
h_scaling 1.000
output 0.755 -->
<g id="edge4" class="edge">
<title>ready
output 0.000&#45;&gt;key 6366
bias &#45;0.545
h_scaling 1.000
output 0.755</title>
<path fill="none" stroke="red" stroke-width="0.1" d="M72.49,-983.48C45.48,-963.47 0,-922.7 0,-875.04 0,-875.04 0,-875.04 0,-235.92 0,-176.14 52.74,-128.95 98.22,-99.37"/>
<polygon fill="red" stroke="red" stroke-width="0.1" points="100.33,-102.18 106.9,-93.87 96.58,-96.26 100.33,-102.18"/>
<text text-anchor="middle" x="14" y="-553.28" font-family="Times,serif" font-size="9.00">0.498</text>
</g>
<!-- go
output 0.000 -->
<g id="node2" class="node">
<title>go
output 0.000</title>
<polygon fill="green" stroke="black" points="405.5,-1011.68 328.5,-1011.68 328.5,-983.68 405.5,-983.68 405.5,-1011.68"/>
<text text-anchor="middle" x="367" y="-1000.48" font-family="Times,serif" font-size="9.00">go</text>
<text text-anchor="middle" x="367" y="-990.48" font-family="Times,serif" font-size="9.00">output 0.000</text>
</g>
<!-- go
output 0.000&#45;&gt;key 330
bias &#45;0.248
h_scaling 1.000
output 0.528 -->
<g id="edge1" class="edge">
<title>go
output 0.000&#45;&gt;key 330
bias &#45;0.248
h_scaling 1.000
output 0.528</title>
<path fill="none" stroke="red" stroke-width="0.1" d="M353.52,-983.66C339.2,-969.84 315.67,-947.12 293.81,-926.02"/>
<polygon fill="red" stroke="red" stroke-width="0.1" points="296.11,-923.37 286.48,-918.95 291.25,-928.41 296.11,-923.37"/>
<text text-anchor="middle" x="348" y="-958.48" font-family="Times,serif" font-size="9.00">0.966</text>
</g>
<!-- key 13296
bias &#45;0.739
h_scaling 1.000
output 0.495 -->
<g id="node7" class="node">
<title>key 13296
bias &#45;0.739
h_scaling 1.000
output 0.495</title>
<ellipse fill="white" stroke="black" cx="405" cy="-700.76" rx="63.78" ry="63.78"/>
<text text-anchor="middle" x="405" y="-713.56" font-family="Times,serif" font-size="9.00">key 13296</text>
<text text-anchor="middle" x="405" y="-703.56" font-family="Times,serif" font-size="9.00">bias &#45;0.739</text>
<text text-anchor="middle" x="405" y="-693.56" font-family="Times,serif" font-size="9.00">h_scaling 1.000</text>
<text text-anchor="middle" x="405" y="-683.56" font-family="Times,serif" font-size="9.00">output 0.495</text>
</g>
<!-- go
output 0.000&#45;&gt;key 13296
bias &#45;0.739
h_scaling 1.000
output 0.495 -->
<g id="edge6" class="edge">
<title>go
output 0.000&#45;&gt;key 13296
bias &#45;0.739
h_scaling 1.000
output 0.495</title>
<path fill="none" stroke="red" stroke-width="0.1" d="M368.68,-983.62C373.32,-947.66 386.53,-845.09 395.67,-774.15"/>
<polygon fill="red" stroke="red" stroke-width="0.1" points="399.18,-774.29 396.99,-763.92 392.24,-773.39 399.18,-774.29"/>
<text text-anchor="middle" x="405" y="-871.84" font-family="Times,serif" font-size="9.00">0.987</text>
</g>
<!-- output
bias 0.127
h_scaling 1.000
output 0.000 -->
<g id="node3" class="node">
<title>output
bias 0.127
h_scaling 1.000
output 0.000</title>
<ellipse fill="lightblue" stroke="black" cx="268" cy="-236.92" rx="63.78" ry="63.78"/>
<text text-anchor="middle" x="268" y="-249.72" font-family="Times,serif" font-size="9.00">output</text>
<text text-anchor="middle" x="268" y="-239.72" font-family="Times,serif" font-size="9.00">bias 0.127</text>
<text text-anchor="middle" x="268" y="-229.72" font-family="Times,serif" font-size="9.00">h_scaling 1.000</text>
<text text-anchor="middle" x="268" y="-219.72" font-family="Times,serif" font-size="9.00">output 0.000</text>
</g>
<!-- output
bias 0.127
h_scaling 1.000
output 0.000&#45;&gt;key 6366
bias &#45;0.545
h_scaling 1.000
output 0.755 -->
<g id="edge10" class="edge">
<title>output
bias 0.127
h_scaling 1.000
output 0.000&#45;&gt;key 6366
bias &#45;0.545
h_scaling 1.000
output 0.755</title>
<path fill="none" stroke="blue" stroke-width="0.1" d="M251.98,-175.33C248.12,-164.96 243.49,-154.55 238,-145.28 231.84,-134.87 224.14,-124.68 216.04,-115.23"/>
<polygon fill="blue" stroke="blue" stroke-width="0.1" points="218.42,-112.64 209.17,-107.49 213.19,-117.29 218.42,-112.64"/>
<text text-anchor="middle" x="258.5" y="-148.08" font-family="Times,serif" font-size="9.00">&#45;0.356</text>
</g>
<!-- key 353634
bias &#45;0.769
h_scaling 1.000
output 0.445 -->
<g id="node4" class="node">
<title>key 353634
bias &#45;0.769
h_scaling 1.000
output 0.445</title>
<ellipse fill="white" stroke="black" cx="322" cy="-555.48" rx="63.78" ry="63.78"/>
<text text-anchor="middle" x="322" y="-568.28" font-family="Times,serif" font-size="9.00">key 353634</text>
<text text-anchor="middle" x="322" y="-558.28" font-family="Times,serif" font-size="9.00">bias &#45;0.769</text>
<text text-anchor="middle" x="322" y="-548.28" font-family="Times,serif" font-size="9.00">h_scaling 1.000</text>
<text text-anchor="middle" x="322" y="-538.28" font-family="Times,serif" font-size="9.00">output 0.445</text>
</g>
<!-- key 353634
bias &#45;0.769
h_scaling 1.000
output 0.445&#45;&gt;output
bias 0.127
h_scaling 1.000
output 0.000 -->
<g id="edge20" class="edge">
<title>key 353634
bias &#45;0.769
h_scaling 1.000
output 0.445&#45;&gt;output
bias 0.127
h_scaling 1.000
output 0.000</title>
<path fill="none" stroke="blue" stroke-width="0.1" d="M287.83,-501.34C283.45,-492.45 279.6,-483.1 277,-473.84 262.07,-420.62 260.37,-358 262.11,-310.66"/>
<polygon fill="blue" stroke="blue" stroke-width="0.1" points="265.61,-310.63 262.54,-300.49 258.62,-310.33 265.61,-310.63"/>
<text text-anchor="middle" x="292.5" y="-408" font-family="Times,serif" font-size="9.00">&#45;1.000</text>
</g>
<!-- key 344070
bias &#45;0.948
h_scaling 1.000
output 0.733 -->
<g id="node5" class="node">
<title>key 344070
bias &#45;0.948
h_scaling 1.000
output 0.733</title>
<ellipse fill="white" stroke="black" cx="381" cy="-410.2" rx="63.78" ry="63.78"/>
<text text-anchor="middle" x="381" y="-423" font-family="Times,serif" font-size="9.00">key 344070</text>
<text text-anchor="middle" x="381" y="-413" font-family="Times,serif" font-size="9.00">bias &#45;0.948</text>
<text text-anchor="middle" x="381" y="-403" font-family="Times,serif" font-size="9.00">h_scaling 1.000</text>
<text text-anchor="middle" x="381" y="-393" font-family="Times,serif" font-size="9.00">output 0.733</text>
</g>
<!-- key 344070
bias &#45;0.948
h_scaling 1.000
output 0.733&#45;&gt;output
bias 0.127
h_scaling 1.000
output 0.000 -->
<g id="edge17" class="edge">
<title>key 344070
bias &#45;0.948
h_scaling 1.000
output 0.733&#45;&gt;output
bias 0.127
h_scaling 1.000
output 0.000</title>
<path fill="none" stroke="blue" stroke-width="0.1" d="M346.17,-356.41C334.2,-338.26 320.69,-317.78 308.31,-299.02"/>
<polygon fill="blue" stroke="blue" stroke-width="0.1" points="311.14,-296.95 302.71,-290.53 305.3,-300.81 311.14,-296.95"/>
<text text-anchor="middle" x="340.5" y="-321.36" font-family="Times,serif" font-size="9.00">&#45;0.981</text>
</g>
<!-- key 344070
bias &#45;0.948
h_scaling 1.000
output 0.733&#45;&gt;key 344070
bias &#45;0.948
h_scaling 1.000
output 0.733 -->
<g id="edge18" class="edge">
<title>key 344070
bias &#45;0.948
h_scaling 1.000
output 0.733&#45;&gt;key 344070
bias &#45;0.948
h_scaling 1.000
output 0.733</title>
<path fill="none" stroke="red" stroke-width="0.1" d="M442.94,-425.5C454.5,-423.61 462.64,-418.51 462.64,-410.2 462.64,-404.48 458.79,-400.29 452.63,-397.61"/>
<polygon fill="red" stroke="red" stroke-width="0.1" points="453.52,-394.22 442.94,-394.9 451.63,-400.96 453.52,-394.22"/>
<text text-anchor="middle" x="476.64" y="-408" font-family="Times,serif" font-size="9.00">0.699</text>
</g>
<!-- key 330
bias &#45;0.248
h_scaling 1.000
output 0.528&#45;&gt;output
bias 0.127
h_scaling 1.000
output 0.000 -->
<g id="edge2" class="edge">
<title>key 330
bias &#45;0.248
h_scaling 1.000
output 0.528&#45;&gt;output
bias 0.127
h_scaling 1.000
output 0.000</title>
<path fill="none" stroke="blue" stroke-width="0.1" d="M231.25,-810.86C220.79,-735.31 207.06,-604.02 218,-491.84 224.1,-429.27 238.47,-359.24 250.25,-308.6"/>
<polygon fill="blue" stroke="blue" stroke-width="0.1" points="253.68,-309.27 252.56,-298.74 246.87,-307.67 253.68,-309.27"/>
<text text-anchor="middle" x="233.5" y="-553.28" font-family="Times,serif" font-size="9.00">&#45;0.976</text>
</g>
<!-- key 330
bias &#45;0.248
h_scaling 1.000
output 0.528&#45;&gt;key 353634
bias &#45;0.769
h_scaling 1.000
output 0.445 -->
<g id="edge19" class="edge">
<title>key 330
bias &#45;0.248
h_scaling 1.000
output 0.528&#45;&gt;key 353634
bias &#45;0.769
h_scaling 1.000
output 0.445</title>
<path fill="none" stroke="red" stroke-width="0.1" d="M256.62,-812C270.15,-759.12 289.73,-682.6 303.93,-627.09"/>
<polygon fill="red" stroke="red" stroke-width="0.1" points="307.34,-627.88 306.43,-617.33 300.56,-626.15 307.34,-627.88"/>
<text text-anchor="middle" x="278" y="-785.2" font-family="Times,serif" font-size="9.00">0.987</text>
</g>
<!-- key 330
bias &#45;0.248
h_scaling 1.000
output 0.528&#45;&gt;key 13296
bias &#45;0.739
h_scaling 1.000
output 0.495 -->
<g id="edge11" class="edge">
<title>key 330
bias &#45;0.248
h_scaling 1.000
output 0.528&#45;&gt;key 13296
bias &#45;0.739
h_scaling 1.000
output 0.495</title>
<path fill="none" stroke="red" stroke-width="0.1" d="M292.1,-835.67C308.22,-822.8 325.57,-807.74 340,-792.4 348.48,-783.38 356.78,-773.22 364.45,-763.04"/>
<polygon fill="red" stroke="red" stroke-width="0.1" points="367.34,-765.02 370.47,-754.9 361.71,-760.86 367.34,-765.02"/>
<text text-anchor="middle" x="363" y="-785.2" font-family="Times,serif" font-size="9.00">0.999</text>
</g>
<!-- key 330
bias &#45;0.248
h_scaling 1.000
output 0.528&#45;&gt;key 15737
bias &#45;0.161
h_scaling 1.000
output 0.103 -->
<g id="edge15" class="edge">
<title>key 330
bias &#45;0.248
h_scaling 1.000
output 0.528&#45;&gt;key 15737
bias &#45;0.161
h_scaling 1.000
output 0.103</title>
<path fill="none" stroke="blue" stroke-width="0.1" d="M188.23,-838.1C171.15,-825.11 153.01,-809.37 139,-792.4 132.97,-785.09 127.41,-776.89 122.39,-768.48"/>
<polygon fill="blue" stroke="blue" stroke-width="0.1" points="125.35,-766.61 117.35,-759.67 119.27,-770.08 125.35,-766.61"/>
<text text-anchor="middle" x="154.5" y="-785.2" font-family="Times,serif" font-size="9.00">&#45;0.368</text>
</g>
<!-- key 13296
bias &#45;0.739
h_scaling 1.000
output 0.495&#45;&gt;output
bias 0.127
h_scaling 1.000
output 0.000 -->
<g id="edge12" class="edge">
<title>key 13296
bias &#45;0.739
h_scaling 1.000
output 0.495&#45;&gt;output
bias 0.127
h_scaling 1.000
output 0.000</title>
<path fill="none" stroke="blue" stroke-width="0.1" d="M442.37,-648.85C490.44,-576.56 560.91,-442.34 500,-346.56 465.23,-291.88 394.9,-264.26 340.75,-250.6"/>
<polygon fill="blue" stroke="blue" stroke-width="0.1" points="341.38,-247.15 330.83,-248.2 339.73,-253.95 341.38,-247.15"/>
<text text-anchor="middle" x="539.5" y="-408" font-family="Times,serif" font-size="9.00">&#45;0.902</text>
</g>
<!-- key 13296
bias &#45;0.739
h_scaling 1.000
output 0.495&#45;&gt;key 344070
bias &#45;0.948
h_scaling 1.000
output 0.733 -->
<g id="edge16" class="edge">
<title>key 13296
bias &#45;0.739
h_scaling 1.000
output 0.495&#45;&gt;key 344070
bias &#45;0.948
h_scaling 1.000
output 0.733</title>
<path fill="none" stroke="red" stroke-width="0.1" d="M399.79,-637.14C396.04,-592.05 390.97,-531.09 387.04,-483.85"/>
<polygon fill="red" stroke="red" stroke-width="0.1" points="390.51,-483.36 386.2,-473.69 383.54,-483.94 390.51,-483.36"/>
<text text-anchor="middle" x="412" y="-553.28" font-family="Times,serif" font-size="9.00">0.985</text>
</g>
<!-- key 13296
bias &#45;0.739
h_scaling 1.000
output 0.495&#45;&gt;key 330
bias &#45;0.248
h_scaling 1.000
output 0.528 -->
<g id="edge7" class="edge">
<title>key 13296
bias &#45;0.739
h_scaling 1.000
output 0.495&#45;&gt;key 330
bias &#45;0.248
h_scaling 1.000
output 0.528</title>
<path fill="none" stroke="red" stroke-width="0.1" d="M355.6,-741.51C341.03,-754.04 325.4,-768.31 312,-782.4 302.58,-792.3 293.12,-803.38 284.32,-814.31"/>
<polygon fill="red" stroke="red" stroke-width="0.1" points="281.52,-812.21 278.04,-822.22 287,-816.56 281.52,-812.21"/>
<text text-anchor="middle" x="326" y="-785.2" font-family="Times,serif" font-size="9.00">1.000</text>
</g>
<!-- key 379250
bias &#45;0.478
h_scaling 1.000
output 0.000 -->
<g id="node8" class="node">
<title>key 379250
bias &#45;0.478
h_scaling 1.000
output 0.000</title>
<ellipse fill="white" stroke="black" cx="640" cy="-410.2" rx="63.78" ry="63.78"/>
<text text-anchor="middle" x="640" y="-423" font-family="Times,serif" font-size="9.00">key 379250</text>
<text text-anchor="middle" x="640" y="-413" font-family="Times,serif" font-size="9.00">bias &#45;0.478</text>
<text text-anchor="middle" x="640" y="-403" font-family="Times,serif" font-size="9.00">h_scaling 1.000</text>
<text text-anchor="middle" x="640" y="-393" font-family="Times,serif" font-size="9.00">output 0.000</text>
</g>
<!-- key 379250
bias &#45;0.478
h_scaling 1.000
output 0.000&#45;&gt;output
bias 0.127
h_scaling 1.000
output 0.000 -->
<g id="edge21" class="edge">
<title>key 379250
bias &#45;0.478
h_scaling 1.000
output 0.000&#45;&gt;output
bias 0.127
h_scaling 1.000
output 0.000</title>
<path fill="none" stroke="blue" stroke-width="0.1" d="M597.61,-362.48C581.22,-346.69 561.49,-330.14 541,-318.56 478.08,-283.01 397.98,-261.76 340.84,-250.08"/>
<polygon fill="blue" stroke="blue" stroke-width="0.1" points="341.3,-246.6 330.81,-248.07 339.93,-253.46 341.3,-246.6"/>
<text text-anchor="middle" x="572.5" y="-321.36" font-family="Times,serif" font-size="9.00">&#45;0.995</text>
</g>
<!-- key 15737
bias &#45;0.161
h_scaling 1.000
output 0.103&#45;&gt;key 6366
bias &#45;0.545
h_scaling 1.000
output 0.755 -->
<g id="edge9" class="edge">
<title>key 15737
bias &#45;0.161
h_scaling 1.000
output 0.103&#45;&gt;key 6366
bias &#45;0.545
h_scaling 1.000
output 0.755</title>
<path fill="none" stroke="red" stroke-width="0.1" d="M95.16,-636.87C99.33,-561.17 107.75,-430.27 121,-318.56 130.19,-241.09 136.11,-222.22 149,-145.28 149.47,-142.45 149.96,-139.57 150.45,-136.67"/>
<polygon fill="red" stroke="red" stroke-width="0.1" points="153.92,-137.15 152.15,-126.7 147.02,-135.97 153.92,-137.15"/>
<text text-anchor="middle" x="135" y="-321.36" font-family="Times,serif" font-size="9.00">0.730</text>
</g>
<!-- key 6366
bias &#45;0.545
h_scaling 1.000
output 0.755&#45;&gt;output
bias 0.127
h_scaling 1.000
output 0.000 -->
<g id="edge14" class="edge">
<title>key 6366
bias &#45;0.545
h_scaling 1.000
output 0.755&#45;&gt;output
bias 0.127
h_scaling 1.000
output 0.000</title>
<path fill="none" stroke="red" stroke-width="0.1" d="M188.03,-122.19C193.54,-133.39 199.64,-144.88 206,-155.28 210.81,-163.13 216.23,-171.13 221.81,-178.89"/>
<polygon fill="red" stroke="red" stroke-width="0.1" points="219.17,-181.21 227.92,-187.2 224.82,-177.07 219.17,-181.21"/>
<text text-anchor="middle" x="220" y="-148.08" font-family="Times,serif" font-size="9.00">0.982</text>
</g>
<!-- key 6366
bias &#45;0.545
h_scaling 1.000
output 0.755&#45;&gt;key 330
bias &#45;0.248
h_scaling 1.000
output 0.528 -->
<g id="edge5" class="edge">
<title>key 6366
bias &#45;0.545
h_scaling 1.000
output 0.755&#45;&gt;key 330
bias &#45;0.248
h_scaling 1.000
output 0.528</title>
<path fill="none" stroke="blue" stroke-width="0.1" d="M162.99,-127.43C163.95,-250.58 170.91,-532.05 212,-764.4 214.21,-776.91 217.18,-790.08 220.36,-802.77"/>
<polygon fill="blue" stroke="blue" stroke-width="0.1" points="217.07,-804.02 222.96,-812.83 223.85,-802.27 217.07,-804.02"/>
<text text-anchor="middle" x="193.5" y="-408" font-family="Times,serif" font-size="9.00">&#45;0.620</text>
</g>
<!-- key 6366
bias &#45;0.545
h_scaling 1.000
output 0.755&#45;&gt;key 6366
bias &#45;0.545
h_scaling 1.000
output 0.755 -->
<g id="edge13" class="edge">
<title>key 6366
bias &#45;0.545
h_scaling 1.000
output 0.755&#45;&gt;key 6366
bias &#45;0.545
h_scaling 1.000
output 0.755</title>
<path fill="none" stroke="red" stroke-width="0.1" d="M224.94,-78.94C236.5,-77.05 244.64,-71.95 244.64,-63.64 244.64,-57.92 240.79,-53.73 234.63,-51.05"/>
<polygon fill="red" stroke="red" stroke-width="0.1" points="235.52,-47.66 224.94,-48.34 233.63,-54.4 235.52,-47.66"/>
<text text-anchor="middle" x="258.64" y="-61.44" font-family="Times,serif" font-size="9.00">0.727</text>
</g>
</g>
</svg>
