<?xml version="1.0" encoding="UTF-8" standalone="no"?>
<!DOCTYPE svg PUBLIC "-//W3C//DTD SVG 1.1//EN"
 "http://www.w3.org/Graphics/SVG/1.1/DTD/svg11.dtd">
<!-- Generated by graphviz version 2.43.0 (0)
 -->
<!-- Title: %3 Pages: 1 -->
<svg width="332pt" height="729pt"
 viewBox="0.00 0.00 332.14 729.12" xmlns="http://www.w3.org/2000/svg" xmlns:xlink="http://www.w3.org/1999/xlink">
<g id="graph0" class="graph" transform="scale(1 1) rotate(0) translate(4 725.12)">
<title>%3</title>
<polygon fill="white" stroke="transparent" points="-4,4 -4,-725.12 328.14,-725.12 328.14,4 -4,4"/>
<!-- ready
output 0.000 -->
<g id="node1" class="node">
<title>ready
output 0.000</title>
<polygon fill="yellow" stroke="black" points="77,-721.12 0,-721.12 0,-693.12 77,-693.12 77,-721.12"/>
<text text-anchor="middle" x="38.5" y="-709.92" font-family="Times,serif" font-size="9.00">ready</text>
<text text-anchor="middle" x="38.5" y="-699.92" font-family="Times,serif" font-size="9.00">output 0.000</text>
</g>
<!-- key 46267
bias 1.000
h_scaling 0.992
output 0.228 -->
<g id="node4" class="node">
<title>key 46267
bias 1.000
h_scaling 0.992
output 0.228</title>
<ellipse fill="white" stroke="black" cx="209.5" cy="-583.48" rx="63.78" ry="63.78"/>
<text text-anchor="middle" x="209.5" y="-596.28" font-family="Times,serif" font-size="9.00">key 46267</text>
<text text-anchor="middle" x="209.5" y="-586.28" font-family="Times,serif" font-size="9.00">bias 1.000</text>
<text text-anchor="middle" x="209.5" y="-576.28" font-family="Times,serif" font-size="9.00">h_scaling 0.992</text>
<text text-anchor="middle" x="209.5" y="-566.28" font-family="Times,serif" font-size="9.00">output 0.228</text>
</g>
<!-- ready
output 0.000&#45;&gt;key 46267
bias 1.000
h_scaling 0.992
output 0.228 -->
<g id="edge10" class="edge">
<title>ready
output 0.000&#45;&gt;key 46267
bias 1.000
h_scaling 0.992
output 0.228</title>
<path fill="none" stroke="red" stroke-width="0.1" d="M63.27,-692.98C83.78,-681.72 113.35,-664.6 137.5,-647.12 143.31,-642.91 149.22,-638.33 155.02,-633.63"/>
<polygon fill="red" stroke="red" stroke-width="0.1" points="157.37,-636.23 162.85,-627.16 152.91,-630.83 157.37,-636.23"/>
<text text-anchor="middle" x="122.5" y="-667.92" font-family="Times,serif" font-size="9.00">0.566</text>
</g>
<!-- key 2014
bias 0.605
h_scaling 1.000
output 0.127 -->
<g id="node5" class="node">
<title>key 2014
bias 0.605
h_scaling 1.000
output 0.127</title>
<ellipse fill="white" stroke="black" cx="164.5" cy="-236.92" rx="63.78" ry="63.78"/>
<text text-anchor="middle" x="164.5" y="-249.72" font-family="Times,serif" font-size="9.00">key 2014</text>
<text text-anchor="middle" x="164.5" y="-239.72" font-family="Times,serif" font-size="9.00">bias 0.605</text>
<text text-anchor="middle" x="164.5" y="-229.72" font-family="Times,serif" font-size="9.00">h_scaling 1.000</text>
<text text-anchor="middle" x="164.5" y="-219.72" font-family="Times,serif" font-size="9.00">output 0.127</text>
</g>
<!-- ready
output 0.000&#45;&gt;key 2014
bias 0.605
h_scaling 1.000
output 0.127 -->
<g id="edge9" class="edge">
<title>ready
output 0.000&#45;&gt;key 2014
bias 0.605
h_scaling 1.000
output 0.127</title>
<path fill="none" stroke="blue" stroke-width="0.1" d="M37.57,-692.93C35.66,-662.32 32.22,-584.18 41.5,-519.84 52.9,-440.74 55.66,-418.95 89.5,-346.56 97.61,-329.21 108.41,-311.62 119.28,-295.79"/>
<polygon fill="blue" stroke="blue" stroke-width="0.1" points="122.44,-297.39 125.31,-287.19 116.71,-293.37 122.44,-297.39"/>
<text text-anchor="middle" x="61" y="-494.64" font-family="Times,serif" font-size="9.00">&#45;0.428</text>
</g>
<!-- go
output 0.000 -->
<g id="node2" class="node">
<title>go
output 0.000</title>
<polygon fill="green" stroke="black" points="128,-597.48 51,-597.48 51,-569.48 128,-569.48 128,-597.48"/>
<text text-anchor="middle" x="89.5" y="-586.28" font-family="Times,serif" font-size="9.00">go</text>
<text text-anchor="middle" x="89.5" y="-576.28" font-family="Times,serif" font-size="9.00">output 0.000</text>
</g>
<!-- go
output 0.000&#45;&gt;key 2014
bias 0.605
h_scaling 1.000
output 0.127 -->
<g id="edge6" class="edge">
<title>go
output 0.000&#45;&gt;key 2014
bias 0.605
h_scaling 1.000
output 0.127</title>
<path fill="none" stroke="red" stroke-width="0.1" d="M89.52,-569.43C89.86,-533.31 92.91,-429.24 115.5,-346.56 119.44,-332.13 125.07,-317.18 131.11,-303.16"/>
<polygon fill="red" stroke="red" stroke-width="0.1" points="134.49,-304.18 135.35,-293.62 128.09,-301.34 134.49,-304.18"/>
<text text-anchor="middle" x="129.5" y="-408" font-family="Times,serif" font-size="9.00">1.180</text>
</g>
<!-- key 9839
bias 0.648
h_scaling 0.466
output 0.869 -->
<g id="node6" class="node">
<title>key 9839
bias 0.648
h_scaling 0.466
output 0.869</title>
<ellipse fill="white" stroke="black" cx="260.5" cy="-410.2" rx="63.78" ry="63.78"/>
<text text-anchor="middle" x="260.5" y="-423" font-family="Times,serif" font-size="9.00">key 9839</text>
<text text-anchor="middle" x="260.5" y="-413" font-family="Times,serif" font-size="9.00">bias 0.648</text>
<text text-anchor="middle" x="260.5" y="-403" font-family="Times,serif" font-size="9.00">h_scaling 0.466</text>
<text text-anchor="middle" x="260.5" y="-393" font-family="Times,serif" font-size="9.00">output 0.869</text>
</g>
<!-- go
output 0.000&#45;&gt;key 9839
bias 0.648
h_scaling 0.466
output 0.869 -->
<g id="edge2" class="edge">
<title>go
output 0.000&#45;&gt;key 9839
bias 0.648
h_scaling 0.466
output 0.869</title>
<path fill="none" stroke="blue" stroke-width="0.1" d="M98.13,-569.39C107.05,-556.27 121.71,-535.79 136.5,-519.84 156.86,-497.87 181.3,-475.71 203.07,-457.18"/>
<polygon fill="blue" stroke="blue" stroke-width="0.1" points="205.58,-459.65 210.96,-450.53 201.06,-454.3 205.58,-459.65"/>
<text text-anchor="middle" x="177" y="-494.64" font-family="Times,serif" font-size="9.00">&#45;0.995</text>
</g>
<!-- output
bias 0.527
h_scaling 0.284
output 0.913 -->
<g id="node3" class="node">
<title>output
bias 0.527
h_scaling 0.284
output 0.913</title>
<ellipse fill="lightblue" stroke="black" cx="230.5" cy="-63.64" rx="63.78" ry="63.78"/>
<text text-anchor="middle" x="230.5" y="-76.44" font-family="Times,serif" font-size="9.00">output</text>
<text text-anchor="middle" x="230.5" y="-66.44" font-family="Times,serif" font-size="9.00">bias 0.527</text>
<text text-anchor="middle" x="230.5" y="-56.44" font-family="Times,serif" font-size="9.00">h_scaling 0.284</text>
<text text-anchor="middle" x="230.5" y="-46.44" font-family="Times,serif" font-size="9.00">output 0.913</text>
</g>
<!-- key 46267
bias 1.000
h_scaling 0.992
output 0.228&#45;&gt;key 9839
bias 0.648
h_scaling 0.466
output 0.869 -->
<g id="edge8" class="edge">
<title>key 46267
bias 1.000
h_scaling 0.992
output 0.228&#45;&gt;key 9839
bias 0.648
h_scaling 0.466
output 0.869</title>
<path fill="none" stroke="red" stroke-width="0.1" d="M202.11,-519.85C202.5,-510.33 203.8,-500.73 206.5,-491.84 208.81,-484.24 212.1,-476.71 215.92,-469.48"/>
<polygon fill="red" stroke="red" stroke-width="0.1" points="219.13,-470.92 221.03,-460.5 213.04,-467.46 219.13,-470.92"/>
<text text-anchor="middle" x="220.5" y="-494.64" font-family="Times,serif" font-size="9.00">0.393</text>
</g>
<!-- key 2014
bias 0.605
h_scaling 1.000
output 0.127&#45;&gt;output
bias 0.527
h_scaling 0.284
output 0.913 -->
<g id="edge1" class="edge">
<title>key 2014
bias 0.605
h_scaling 1.000
output 0.127&#45;&gt;output
bias 0.527
h_scaling 0.284
output 0.913</title>
<path fill="none" stroke="blue" stroke-width="0.1" d="M187.21,-176.97C192.69,-162.77 198.58,-147.47 204.21,-132.87"/>
<polygon fill="blue" stroke="blue" stroke-width="0.1" points="207.53,-133.99 207.86,-123.4 200.99,-131.48 207.53,-133.99"/>
<text text-anchor="middle" x="213" y="-148.08" font-family="Times,serif" font-size="9.00">&#45;1.000</text>
</g>
<!-- key 2014
bias 0.605
h_scaling 1.000
output 0.127&#45;&gt;key 46267
bias 1.000
h_scaling 0.992
output 0.228 -->
<g id="edge11" class="edge">
<title>key 2014
bias 0.605
h_scaling 1.000
output 0.127&#45;&gt;key 46267
bias 1.000
h_scaling 0.992
output 0.228</title>
<path fill="none" stroke="blue" stroke-width="0.1" d="M153.75,-299.86C147.47,-347.94 143.13,-415.94 156.5,-473.84 160.02,-489.1 166,-504.7 172.7,-519.14"/>
<polygon fill="blue" stroke="blue" stroke-width="0.1" points="169.69,-520.96 177.18,-528.45 176,-517.92 169.69,-520.96"/>
<text text-anchor="middle" x="172" y="-408" font-family="Times,serif" font-size="9.00">&#45;0.482</text>
</g>
<!-- key 2014
bias 0.605
h_scaling 1.000
output 0.127&#45;&gt;key 9839
bias 0.648
h_scaling 0.466
output 0.869 -->
<g id="edge3" class="edge">
<title>key 2014
bias 0.605
h_scaling 1.000
output 0.127&#45;&gt;key 9839
bias 0.648
h_scaling 0.466
output 0.869</title>
<path fill="none" stroke="blue" stroke-width="0.1" d="M197.15,-291.92C202.36,-300.78 207.63,-309.89 212.5,-318.56 217.16,-326.85 221.97,-335.64 226.66,-344.34"/>
<polygon fill="blue" stroke="blue" stroke-width="0.1" points="223.68,-346.2 231.49,-353.36 229.85,-342.89 223.68,-346.2"/>
<text text-anchor="middle" x="233" y="-321.36" font-family="Times,serif" font-size="9.00">&#45;0.695</text>
</g>
<!-- key 9839
bias 0.648
h_scaling 0.466
output 0.869&#45;&gt;output
bias 0.527
h_scaling 0.284
output 0.913 -->
<g id="edge5" class="edge">
<title>key 9839
bias 0.648
h_scaling 0.466
output 0.869&#45;&gt;output
bias 0.527
h_scaling 0.284
output 0.913</title>
<path fill="none" stroke="red" stroke-width="0.1" d="M255.03,-346.4C249.9,-287.47 242.23,-199.36 236.83,-137.39"/>
<polygon fill="red" stroke="red" stroke-width="0.1" points="240.31,-136.95 235.96,-127.3 233.34,-137.56 240.31,-136.95"/>
<text text-anchor="middle" x="264.5" y="-234.72" font-family="Times,serif" font-size="9.00">0.812</text>
</g>
<!-- key 9839
bias 0.648
h_scaling 0.466
output 0.869&#45;&gt;key 46267
bias 1.000
h_scaling 0.992
output 0.228 -->
<g id="edge7" class="edge">
<title>key 9839
bias 0.648
h_scaling 0.466
output 0.869&#45;&gt;key 46267
bias 1.000
h_scaling 0.992
output 0.228</title>
<path fill="none" stroke="blue" stroke-width="0.1" d="M246.6,-472.38C244.08,-482.28 241.34,-492.38 238.5,-501.84 237.3,-505.85 236.01,-509.95 234.67,-514.07"/>
<polygon fill="blue" stroke="blue" stroke-width="0.1" points="231.3,-513.11 231.46,-523.7 237.94,-515.32 231.3,-513.11"/>
<text text-anchor="middle" x="256" y="-494.64" font-family="Times,serif" font-size="9.00">&#45;0.690</text>
</g>
<!-- key 9839
bias 0.648
h_scaling 0.466
output 0.869&#45;&gt;key 2014
bias 0.605
h_scaling 1.000
output 0.127 -->
<g id="edge4" class="edge">
<title>key 9839
bias 0.648
h_scaling 0.466
output 0.869&#45;&gt;key 2014
bias 0.605
h_scaling 1.000
output 0.127</title>
<path fill="none" stroke="blue" stroke-width="0.1" d="M210.12,-370.53C197.56,-358.44 185.43,-344.13 177.5,-328.56 174.61,-322.89 172.31,-316.77 170.48,-310.5"/>
<polygon fill="blue" stroke="blue" stroke-width="0.1" points="173.81,-309.38 167.98,-300.53 167.02,-311.08 173.81,-309.38"/>
<text text-anchor="middle" x="193" y="-321.36" font-family="Times,serif" font-size="9.00">&#45;0.824</text>
</g>
</g>
</svg>
