<?xml version="1.0" encoding="UTF-8" standalone="no"?>
<!DOCTYPE svg PUBLIC "-//W3C//DTD SVG 1.1//EN"
 "http://www.w3.org/Graphics/SVG/1.1/DTD/svg11.dtd">
<!-- Generated by graphviz version 2.43.0 (0)
 -->
<!-- Title: %3 Pages: 1 -->
<svg width="296pt" height="842pt"
 viewBox="0.00 0.00 295.75 842.40" xmlns="http://www.w3.org/2000/svg" xmlns:xlink="http://www.w3.org/1999/xlink">
<g id="graph0" class="graph" transform="scale(1 1) rotate(0) translate(4 838.4)">
<title>%3</title>
<polygon fill="white" stroke="transparent" points="-4,4 -4,-838.4 291.75,-838.4 291.75,4 -4,4"/>
<!-- ready -->
<g id="node1" class="node">
<title>ready</title>
<polygon fill="yellow" stroke="black" points="70.61,-834.4 27.61,-834.4 27.61,-816.4 70.61,-816.4 70.61,-834.4"/>
<text text-anchor="middle" x="49.11" y="-823.2" font-family="Times,serif" font-size="9.00">ready</text>
</g>
<!-- key 425668
bias &#45;0.301
h_scaling 0.228 -->
<g id="node4" class="node">
<title>key 425668
bias &#45;0.301
h_scaling 0.228</title>
<ellipse fill="white" stroke="black" cx="95.11" cy="-716.76" rx="63.78" ry="63.78"/>
<text text-anchor="middle" x="95.11" y="-724.56" font-family="Times,serif" font-size="9.00">key 425668</text>
<text text-anchor="middle" x="95.11" y="-714.56" font-family="Times,serif" font-size="9.00">bias &#45;0.301</text>
<text text-anchor="middle" x="95.11" y="-704.56" font-family="Times,serif" font-size="9.00">h_scaling 0.228</text>
</g>
<!-- ready&#45;&gt;key 425668
bias &#45;0.301
h_scaling 0.228 -->
<g id="edge13" class="edge">
<title>ready&#45;&gt;key 425668
bias &#45;0.301
h_scaling 0.228</title>
<path fill="none" stroke="red" stroke-width="3.1" d="M52.56,-816.38C55.71,-809.09 60.68,-797.57 66.13,-784.93"/>
<polygon fill="red" stroke="red" stroke-width="3.1" points="69.42,-786.14 70.17,-775.57 62.99,-783.37 69.42,-786.14"/>
</g>
<!-- key 2480
bias &#45;0.869
h_scaling 0.572 -->
<g id="node7" class="node">
<title>key 2480
bias &#45;0.869
h_scaling 0.572</title>
<ellipse fill="white" stroke="black" cx="87.11" cy="-63.64" rx="63.78" ry="63.78"/>
<text text-anchor="middle" x="87.11" y="-71.44" font-family="Times,serif" font-size="9.00">key 2480</text>
<text text-anchor="middle" x="87.11" y="-61.44" font-family="Times,serif" font-size="9.00">bias &#45;0.869</text>
<text text-anchor="middle" x="87.11" y="-51.44" font-family="Times,serif" font-size="9.00">h_scaling 0.572</text>
</g>
<!-- ready&#45;&gt;key 2480
bias &#45;0.869
h_scaling 0.572 -->
<g id="edge10" class="edge">
<title>ready&#45;&gt;key 2480
bias &#45;0.869
h_scaling 0.572</title>
<path fill="none" stroke="red" stroke-width="0.99" d="M42.45,-816.22C36.01,-807.8 26.58,-794.02 22.11,-780.4 -9.32,-684.66 3.11,-655.24 3.11,-554.48 3.11,-554.48 3.11,-554.48 3.11,-389.2 3.11,-298.13 34.49,-197.14 58.89,-132.37"/>
<polygon fill="red" stroke="red" stroke-width="0.99" points="62.29,-133.28 62.58,-122.69 55.75,-130.79 62.29,-133.28"/>
</g>
<!-- go -->
<g id="node2" class="node">
<title>go</title>
<polygon fill="green" stroke="black" points="77.11,-399.2 49.11,-399.2 49.11,-381.2 77.11,-381.2 77.11,-399.2"/>
<text text-anchor="middle" x="63.11" y="-388" font-family="Times,serif" font-size="9.00">go</text>
</g>
<!-- key 4299
bias &#45;0.410
h_scaling 0.772 -->
<g id="node5" class="node">
<title>key 4299
bias &#45;0.410
h_scaling 0.772</title>
<ellipse fill="white" stroke="black" cx="133.11" cy="-226.92" rx="63.78" ry="63.78"/>
<text text-anchor="middle" x="133.11" y="-234.72" font-family="Times,serif" font-size="9.00">key 4299</text>
<text text-anchor="middle" x="133.11" y="-224.72" font-family="Times,serif" font-size="9.00">bias &#45;0.410</text>
<text text-anchor="middle" x="133.11" y="-214.72" font-family="Times,serif" font-size="9.00">h_scaling 0.772</text>
</g>
<!-- go&#45;&gt;key 4299
bias &#45;0.410
h_scaling 0.772 -->
<g id="edge5" class="edge">
<title>go&#45;&gt;key 4299
bias &#45;0.410
h_scaling 0.772</title>
<path fill="none" stroke="blue" stroke-width="3.03" d="M66.67,-380.98C73.6,-365.02 89.46,-328.47 103.95,-295.09"/>
<polygon fill="blue" stroke="blue" stroke-width="3.03" points="107.22,-296.34 107.99,-285.77 100.8,-293.55 107.22,-296.34"/>
</g>
<!-- go&#45;&gt;key 2480
bias &#45;0.869
h_scaling 0.572 -->
<g id="edge4" class="edge">
<title>go&#45;&gt;key 2480
bias &#45;0.869
h_scaling 0.572</title>
<path fill="none" stroke="blue" stroke-width="3.04" d="M62.13,-380.94C58.81,-351.31 48.77,-247.64 60.11,-163.28 61.38,-153.81 63.31,-143.96 65.56,-134.32"/>
<polygon fill="blue" stroke="blue" stroke-width="3.04" points="69.02,-134.91 68.02,-124.36 62.23,-133.23 69.02,-134.91"/>
</g>
<!-- output
bias &#45;0.973
h_scaling 0.187 -->
<g id="node3" class="node">
<title>output
bias &#45;0.973
h_scaling 0.187</title>
<ellipse fill="lightblue" stroke="black" cx="224.11" cy="-390.2" rx="63.78" ry="63.78"/>
<text text-anchor="middle" x="224.11" y="-398" font-family="Times,serif" font-size="9.00">output</text>
<text text-anchor="middle" x="224.11" y="-388" font-family="Times,serif" font-size="9.00">bias &#45;0.973</text>
<text text-anchor="middle" x="224.11" y="-378" font-family="Times,serif" font-size="9.00">h_scaling 0.187</text>
</g>
<!-- output
bias &#45;0.973
h_scaling 0.187&#45;&gt;key 4299
bias &#45;0.410
h_scaling 0.772 -->
<g id="edge7" class="edge">
<title>output
bias &#45;0.973
h_scaling 0.187&#45;&gt;key 4299
bias &#45;0.410
h_scaling 0.772</title>
<path fill="none" stroke="blue" stroke-width="0.96" d="M188.46,-337.28C180.32,-323.55 171.75,-308.55 163.84,-294.18"/>
<polygon fill="blue" stroke="blue" stroke-width="0.96" points="166.87,-292.42 159,-285.33 160.73,-295.78 166.87,-292.42"/>
</g>
<!-- key 176591
bias &#45;0.629
h_scaling 0.085 -->
<g id="node6" class="node">
<title>key 176591
bias &#45;0.629
h_scaling 0.085</title>
<ellipse fill="white" stroke="black" cx="123.11" cy="-553.48" rx="63.78" ry="63.78"/>
<text text-anchor="middle" x="123.11" y="-561.28" font-family="Times,serif" font-size="9.00">key 176591</text>
<text text-anchor="middle" x="123.11" y="-551.28" font-family="Times,serif" font-size="9.00">bias &#45;0.629</text>
<text text-anchor="middle" x="123.11" y="-541.28" font-family="Times,serif" font-size="9.00">h_scaling 0.085</text>
</g>
<!-- key 425668
bias &#45;0.301
h_scaling 0.228&#45;&gt;key 176591
bias &#45;0.629
h_scaling 0.085 -->
<g id="edge14" class="edge">
<title>key 425668
bias &#45;0.301
h_scaling 0.228&#45;&gt;key 176591
bias &#45;0.629
h_scaling 0.085</title>
<path fill="none" stroke="red" stroke-width="3.07" d="M105.85,-653.86C107.41,-644.86 109.03,-635.53 110.63,-626.35"/>
<polygon fill="red" stroke="red" stroke-width="3.07" points="114.08,-626.92 112.34,-616.47 107.18,-625.73 114.08,-626.92"/>
</g>
<!-- key 4299
bias &#45;0.410
h_scaling 0.772&#45;&gt;output
bias &#45;0.973
h_scaling 0.187 -->
<g id="edge8" class="edge">
<title>key 4299
bias &#45;0.410
h_scaling 0.772&#45;&gt;output
bias &#45;0.973
h_scaling 0.187</title>
<path fill="none" stroke="red" stroke-width="1.63" d="M168.82,-279.94C176.96,-293.67 185.52,-308.67 193.43,-323.04"/>
<polygon fill="red" stroke="red" stroke-width="1.63" points="190.39,-324.78 198.26,-331.88 196.54,-321.43 190.39,-324.78"/>
</g>
<!-- key 4299
bias &#45;0.410
h_scaling 0.772&#45;&gt;key 4299
bias &#45;0.410
h_scaling 0.772 -->
<g id="edge2" class="edge">
<title>key 4299
bias &#45;0.410
h_scaling 0.772&#45;&gt;key 4299
bias &#45;0.410
h_scaling 0.772</title>
<path fill="none" stroke="red" stroke-width="3.04" d="M189.58,-256.93C203.95,-254.96 214.75,-244.95 214.75,-226.92 214.75,-213.25 208.55,-204.2 199.29,-199.75"/>
<polygon fill="red" stroke="red" stroke-width="3.04" points="200.16,-196.36 189.58,-196.91 198.19,-203.08 200.16,-196.36"/>
</g>
<!-- key 4299
bias &#45;0.410
h_scaling 0.772&#45;&gt;key 176591
bias &#45;0.629
h_scaling 0.085 -->
<g id="edge12" class="edge">
<title>key 4299
bias &#45;0.410
h_scaling 0.772&#45;&gt;key 176591
bias &#45;0.629
h_scaling 0.085</title>
<path fill="none" stroke="red" stroke-width="0.39" d="M136.64,-290.58C136.59,-344.74 134.27,-423.03 131.08,-479.9"/>
<polygon fill="red" stroke="red" stroke-width="0.39" points="127.58,-479.71 130.49,-489.9 134.57,-480.12 127.58,-479.71"/>
</g>
<!-- key 4299
bias &#45;0.410
h_scaling 0.772&#45;&gt;key 2480
bias &#45;0.869
h_scaling 0.572 -->
<g id="edge1" class="edge">
<title>key 4299
bias &#45;0.410
h_scaling 0.772&#45;&gt;key 2480
bias &#45;0.869
h_scaling 0.572</title>
<path fill="none" stroke="red" stroke-width="2.72" d="M115.85,-165.41C112.99,-155.38 110,-144.91 107.08,-134.68"/>
<polygon fill="red" stroke="red" stroke-width="2.72" points="110.42,-133.61 104.31,-124.96 103.69,-135.53 110.42,-133.61"/>
</g>
<!-- key 176591
bias &#45;0.629
h_scaling 0.085&#45;&gt;output
bias &#45;0.973
h_scaling 0.187 -->
<g id="edge11" class="edge">
<title>key 176591
bias &#45;0.629
h_scaling 0.085&#45;&gt;output
bias &#45;0.973
h_scaling 0.187</title>
<path fill="none" stroke="blue" stroke-width="0.32" d="M156.46,-499.22C165.63,-484.57 175.66,-468.55 185.12,-453.45"/>
<polygon fill="blue" stroke="blue" stroke-width="0.32" points="188.28,-455.01 190.62,-444.67 182.34,-451.29 188.28,-455.01"/>
</g>
<!-- key 176591
bias &#45;0.629
h_scaling 0.085&#45;&gt;key 4299
bias &#45;0.410
h_scaling 0.772 -->
<g id="edge9" class="edge">
<title>key 176591
bias &#45;0.629
h_scaling 0.085&#45;&gt;key 4299
bias &#45;0.410
h_scaling 0.772</title>
<path fill="none" stroke="red" stroke-width="1.63" d="M119.58,-489.9C119.62,-435.68 121.95,-357.22 125.15,-300.31"/>
<polygon fill="red" stroke="red" stroke-width="1.63" points="128.64,-300.49 125.73,-290.3 121.65,-300.08 128.64,-300.49"/>
</g>
<!-- key 2480
bias &#45;0.869
h_scaling 0.572&#45;&gt;output
bias &#45;0.973
h_scaling 0.187 -->
<g id="edge3" class="edge">
<title>key 2480
bias &#45;0.869
h_scaling 0.572&#45;&gt;output
bias &#45;0.973
h_scaling 0.187</title>
<path fill="none" stroke="red" stroke-width="3.05" d="M145.25,-90.27C174.61,-106.59 207.47,-130.8 224.11,-163.28 248.43,-210.76 246.9,-271.57 240.13,-318.13"/>
<polygon fill="red" stroke="red" stroke-width="3.05" points="236.66,-317.72 238.57,-328.14 243.57,-318.8 236.66,-317.72"/>
</g>
<!-- key 2480
bias &#45;0.869
h_scaling 0.572&#45;&gt;key 2480
bias &#45;0.869
h_scaling 0.572 -->
<g id="edge6" class="edge">
<title>key 2480
bias &#45;0.869
h_scaling 0.572&#45;&gt;key 2480
bias &#45;0.869
h_scaling 0.572</title>
<path fill="none" stroke="red" stroke-width="3.1" d="M143.58,-93.65C157.95,-91.68 168.75,-81.67 168.75,-63.64 168.75,-49.97 162.55,-40.92 153.29,-36.47"/>
<polygon fill="red" stroke="red" stroke-width="3.1" points="154.16,-33.08 143.58,-33.63 152.19,-39.8 154.16,-33.08"/>
</g>
</g>
</svg>
