<?xml version="1.0" encoding="UTF-8" standalone="no"?>
<!DOCTYPE svg PUBLIC "-//W3C//DTD SVG 1.1//EN"
 "http://www.w3.org/Graphics/SVG/1.1/DTD/svg11.dtd">
<!-- Generated by graphviz version 2.43.0 (0)
 -->
<!-- Title: %3 Pages: 1 -->
<svg width="424pt" height="1057pt"
 viewBox="0.00 0.00 423.64 1056.68" xmlns="http://www.w3.org/2000/svg" xmlns:xlink="http://www.w3.org/1999/xlink">
<g id="graph0" class="graph" transform="scale(1 1) rotate(0) translate(4 1052.68)">
<title>%3</title>
<polygon fill="white" stroke="transparent" points="-4,4 -4,-1052.68 419.64,-1052.68 419.64,4 -4,4"/>
<!-- ready -->
<g id="node1" class="node">
<title>ready</title>
<polygon fill="yellow" stroke="black" points="232.14,-1048.68 189.14,-1048.68 189.14,-1030.68 232.14,-1030.68 232.14,-1048.68"/>
<text text-anchor="middle" x="210.64" y="-1037.48" font-family="Times,serif" font-size="9.00">ready</text>
</g>
<!-- key 7649
bias 0.380
h_scaling 0.475 -->
<g id="node4" class="node">
<title>key 7649
bias 0.380
h_scaling 0.475</title>
<ellipse fill="white" stroke="black" cx="63.64" cy="-921.04" rx="63.78" ry="63.78"/>
<text text-anchor="middle" x="63.64" y="-928.84" font-family="Times,serif" font-size="9.00">key 7649</text>
<text text-anchor="middle" x="63.64" y="-918.84" font-family="Times,serif" font-size="9.00">bias 0.380</text>
<text text-anchor="middle" x="63.64" y="-908.84" font-family="Times,serif" font-size="9.00">h_scaling 0.475</text>
</g>
<!-- ready&#45;&gt;key 7649
bias 0.380
h_scaling 0.475 -->
<g id="edge14" class="edge">
<title>ready&#45;&gt;key 7649
bias 0.380
h_scaling 0.475</title>
<path fill="none" stroke="red" stroke-width="0.42" d="M188.82,-1037.67C167.6,-1035.66 135.47,-1029.77 113.64,-1012.68 105.38,-1006.21 98.29,-997.98 92.27,-989.13"/>
<polygon fill="red" stroke="red" stroke-width="0.42" points="95.11,-987.08 86.81,-980.5 89.19,-990.82 95.11,-987.08"/>
<text text-anchor="middle" x="127.64" y="-1005.48" font-family="Times,serif" font-size="9.00">0.011</text>
</g>
<!-- key 13348
bias 0.756
h_scaling 0.488 -->
<g id="node6" class="node">
<title>key 13348
bias 0.756
h_scaling 0.488</title>
<ellipse fill="white" stroke="black" cx="285.64" cy="-410.2" rx="63.78" ry="63.78"/>
<text text-anchor="middle" x="285.64" y="-418" font-family="Times,serif" font-size="9.00">key 13348</text>
<text text-anchor="middle" x="285.64" y="-408" font-family="Times,serif" font-size="9.00">bias 0.756</text>
<text text-anchor="middle" x="285.64" y="-398" font-family="Times,serif" font-size="9.00">h_scaling 0.488</text>
</g>
<!-- ready&#45;&gt;key 13348
bias 0.756
h_scaling 0.488 -->
<g id="edge15" class="edge">
<title>ready&#45;&gt;key 13348
bias 0.756
h_scaling 0.488</title>
<path fill="none" stroke="blue" stroke-width="0.1" d="M232.19,-1036.58C284.82,-1030.16 415.64,-1005.77 415.64,-922.04 415.64,-922.04 415.64,-922.04 415.64,-573.48 415.64,-524.81 379.59,-482.4 345.46,-453.15"/>
<polygon fill="blue" stroke="blue" stroke-width="0.1" points="347.69,-450.46 337.77,-446.75 343.21,-455.83 347.69,-450.46"/>
</g>
<!-- key 5126
bias &#45;0.407
h_scaling 0.680 -->
<g id="node7" class="node">
<title>key 5126
bias &#45;0.407
h_scaling 0.680</title>
<ellipse fill="white" stroke="black" cx="155.64" cy="-574.48" rx="63.78" ry="63.78"/>
<text text-anchor="middle" x="155.64" y="-582.28" font-family="Times,serif" font-size="9.00">key 5126</text>
<text text-anchor="middle" x="155.64" y="-572.28" font-family="Times,serif" font-size="9.00">bias &#45;0.407</text>
<text text-anchor="middle" x="155.64" y="-562.28" font-family="Times,serif" font-size="9.00">h_scaling 0.680</text>
</g>
<!-- ready&#45;&gt;key 5126
bias &#45;0.407
h_scaling 0.680 -->
<g id="edge12" class="edge">
<title>ready&#45;&gt;key 5126
bias &#45;0.407
h_scaling 0.680</title>
<path fill="none" stroke="blue" stroke-width="0.1" d="M207.95,-1030.34C204.64,-1019.81 199.03,-1001.06 195.64,-984.68 171.56,-868.43 161.88,-730.52 158.06,-648.16"/>
<polygon fill="blue" stroke="blue" stroke-width="0.1" points="161.56,-647.98 157.61,-638.14 154.56,-648.29 161.56,-647.98"/>
</g>
<!-- key 894
bias 0.999
h_scaling 0.428 -->
<g id="node9" class="node">
<title>key 894
bias 0.999
h_scaling 0.428</title>
<ellipse fill="white" stroke="black" cx="299.64" cy="-747.76" rx="63.78" ry="63.78"/>
<text text-anchor="middle" x="299.64" y="-755.56" font-family="Times,serif" font-size="9.00">key 894</text>
<text text-anchor="middle" x="299.64" y="-745.56" font-family="Times,serif" font-size="9.00">bias 0.999</text>
<text text-anchor="middle" x="299.64" y="-735.56" font-family="Times,serif" font-size="9.00">h_scaling 0.428</text>
</g>
<!-- ready&#45;&gt;key 894
bias 0.999
h_scaling 0.428 -->
<g id="edge4" class="edge">
<title>ready&#45;&gt;key 894
bias 0.999
h_scaling 0.428</title>
<path fill="none" stroke="blue" stroke-width="0.1" d="M216.23,-1030.62C223.11,-1020.38 234.72,-1001.93 241.64,-984.68 262.99,-931.4 278.03,-868.11 287.43,-820.5"/>
<polygon fill="blue" stroke="blue" stroke-width="0.1" points="290.89,-821.07 289.36,-810.59 284.02,-819.74 290.89,-821.07"/>
</g>
<!-- go -->
<g id="node2" class="node">
<title>go</title>
<polygon fill="green" stroke="black" points="232.64,-930.04 204.64,-930.04 204.64,-912.04 232.64,-912.04 232.64,-930.04"/>
<text text-anchor="middle" x="218.64" y="-918.84" font-family="Times,serif" font-size="9.00">go</text>
</g>
<!-- go&#45;&gt;key 5126
bias &#45;0.407
h_scaling 0.680 -->
<g id="edge5" class="edge">
<title>go&#45;&gt;key 5126
bias &#45;0.407
h_scaling 0.680</title>
<path fill="none" stroke="red" stroke-width="0.38" d="M217.13,-911.86C213.79,-893.76 205.52,-848.94 198.64,-811.4 188.58,-756.46 177.25,-694.31 168.75,-647.6"/>
<polygon fill="red" stroke="red" stroke-width="0.38" points="172.16,-646.78 166.93,-637.57 165.27,-648.04 172.16,-646.78"/>
<text text-anchor="middle" x="212.64" y="-745.56" font-family="Times,serif" font-size="9.00">0.009</text>
</g>
<!-- go&#45;&gt;key 894
bias 0.999
h_scaling 0.428 -->
<g id="edge1" class="edge">
<title>go&#45;&gt;key 894
bias 0.999
h_scaling 0.428</title>
<path fill="none" stroke="red" stroke-width="0.74" d="M220.65,-911.78C224.75,-895.53 234.89,-858.47 248.64,-829.4 251.71,-822.91 255.2,-816.31 258.88,-809.82"/>
<polygon fill="red" stroke="red" stroke-width="0.74" points="261.97,-811.46 263.99,-801.06 255.93,-807.93 261.97,-811.46"/>
<text text-anchor="middle" x="262.64" y="-832.2" font-family="Times,serif" font-size="9.00">0.021</text>
</g>
<!-- output
bias 1.000
h_scaling 0.035 -->
<g id="node3" class="node">
<title>output
bias 1.000
h_scaling 0.035</title>
<ellipse fill="lightblue" stroke="black" cx="174.64" cy="-63.64" rx="63.78" ry="63.78"/>
<text text-anchor="middle" x="174.64" y="-71.44" font-family="Times,serif" font-size="9.00">output</text>
<text text-anchor="middle" x="174.64" y="-61.44" font-family="Times,serif" font-size="9.00">bias 1.000</text>
<text text-anchor="middle" x="174.64" y="-51.44" font-family="Times,serif" font-size="9.00">h_scaling 0.035</text>
</g>
<!-- output
bias 1.000
h_scaling 0.035&#45;&gt;key 7649
bias 0.380
h_scaling 0.475 -->
<g id="edge13" class="edge">
<title>output
bias 1.000
h_scaling 0.035&#45;&gt;key 7649
bias 0.380
h_scaling 0.475</title>
<path fill="none" stroke="blue" stroke-width="0.1" d="M127.57,-107.03C97.31,-139.07 63.64,-185.96 63.64,-235.92 63.64,-748.76 63.64,-748.76 63.64,-748.76 63.64,-781.08 63.64,-816.84 63.64,-847.29"/>
<polygon fill="blue" stroke="blue" stroke-width="0.1" points="60.14,-847.4 63.64,-857.4 67.14,-847.4 60.14,-847.4"/>
</g>
<!-- key 7649
bias 0.380
h_scaling 0.475&#45;&gt;key 894
bias 0.999
h_scaling 0.428 -->
<g id="edge6" class="edge">
<title>key 7649
bias 0.380
h_scaling 0.475&#45;&gt;key 894
bias 0.999
h_scaling 0.428</title>
<path fill="none" stroke="blue" stroke-width="0.1" d="M116.63,-885.03C147.64,-864.2 187.32,-836.92 221.64,-811.4 228.45,-806.33 235.5,-800.92 242.46,-795.47"/>
<polygon fill="blue" stroke="blue" stroke-width="0.1" points="244.87,-798.02 250.56,-789.08 240.54,-792.53 244.87,-798.02"/>
</g>
<!-- key 11683
bias 0.900
h_scaling 0.718 -->
<g id="node5" class="node">
<title>key 11683
bias 0.900
h_scaling 0.718</title>
<ellipse fill="white" stroke="black" cx="348.64" cy="-63.64" rx="63.78" ry="63.78"/>
<text text-anchor="middle" x="348.64" y="-71.44" font-family="Times,serif" font-size="9.00">key 11683</text>
<text text-anchor="middle" x="348.64" y="-61.44" font-family="Times,serif" font-size="9.00">bias 0.900</text>
<text text-anchor="middle" x="348.64" y="-51.44" font-family="Times,serif" font-size="9.00">h_scaling 0.718</text>
</g>
<!-- key 11683
bias 0.900
h_scaling 0.718&#45;&gt;key 894
bias 0.999
h_scaling 0.428 -->
<g id="edge7" class="edge">
<title>key 11683
bias 0.900
h_scaling 0.718&#45;&gt;key 894
bias 0.999
h_scaling 0.428</title>
<path fill="none" stroke="blue" stroke-width="0.1" d="M364.07,-125.65C371,-158.17 377.64,-198.97 377.64,-235.92 377.64,-575.48 377.64,-575.48 377.64,-575.48 377.64,-615.05 360.18,-655.52 341.78,-687.17"/>
<polygon fill="blue" stroke="blue" stroke-width="0.1" points="338.72,-685.48 336.58,-695.86 344.72,-689.08 338.72,-685.48"/>
</g>
<!-- key 76683
bias &#45;0.413
h_scaling 0.014 -->
<g id="node8" class="node">
<title>key 76683
bias &#45;0.413
h_scaling 0.014</title>
<ellipse fill="white" stroke="black" cx="285.64" cy="-236.92" rx="63.78" ry="63.78"/>
<text text-anchor="middle" x="285.64" y="-244.72" font-family="Times,serif" font-size="9.00">key 76683</text>
<text text-anchor="middle" x="285.64" y="-234.72" font-family="Times,serif" font-size="9.00">bias &#45;0.413</text>
<text text-anchor="middle" x="285.64" y="-224.72" font-family="Times,serif" font-size="9.00">h_scaling 0.014</text>
</g>
<!-- key 13348
bias 0.756
h_scaling 0.488&#45;&gt;key 76683
bias &#45;0.413
h_scaling 0.014 -->
<g id="edge10" class="edge">
<title>key 13348
bias 0.756
h_scaling 0.488&#45;&gt;key 76683
bias &#45;0.413
h_scaling 0.014</title>
<path fill="none" stroke="red" stroke-width="1.15" d="M285.64,-346.39C285.64,-334.87 285.64,-322.76 285.64,-310.97"/>
<polygon fill="red" stroke="red" stroke-width="1.15" points="289.14,-310.72 285.64,-300.72 282.14,-310.72 289.14,-310.72"/>
<text text-anchor="middle" x="299.64" y="-321.36" font-family="Times,serif" font-size="9.00">0.035</text>
</g>
<!-- key 5126
bias &#45;0.407
h_scaling 0.680&#45;&gt;output
bias 1.000
h_scaling 0.035 -->
<g id="edge3" class="edge">
<title>key 5126
bias &#45;0.407
h_scaling 0.680&#45;&gt;output
bias 1.000
h_scaling 0.035</title>
<path fill="none" stroke="blue" stroke-width="0.1" d="M157.98,-510.83C161.51,-416.32 168.18,-237.71 171.92,-137.51"/>
<polygon fill="blue" stroke="blue" stroke-width="0.1" points="175.42,-137.6 172.29,-127.47 168.42,-137.33 175.42,-137.6"/>
</g>
<!-- key 5126
bias &#45;0.407
h_scaling 0.680&#45;&gt;key 7649
bias 0.380
h_scaling 0.475 -->
<g id="edge18" class="edge">
<title>key 5126
bias &#45;0.407
h_scaling 0.680&#45;&gt;key 7649
bias 0.380
h_scaling 0.475</title>
<path fill="none" stroke="blue" stroke-width="0.1" d="M135.88,-635.23C133.71,-642.25 131.58,-649.33 129.64,-656.12 111.1,-720.96 92.71,-795.58 80.07,-848.9"/>
<polygon fill="blue" stroke="blue" stroke-width="0.1" points="76.59,-848.39 77.7,-858.93 83.4,-850 76.59,-848.39"/>
</g>
<!-- key 5126
bias &#45;0.407
h_scaling 0.680&#45;&gt;key 13348
bias 0.756
h_scaling 0.488 -->
<g id="edge8" class="edge">
<title>key 5126
bias &#45;0.407
h_scaling 0.680&#45;&gt;key 13348
bias 0.756
h_scaling 0.488</title>
<path fill="none" stroke="blue" stroke-width="0.1" d="M195,-524.35C209.06,-506.79 225.03,-486.86 239.61,-468.66"/>
<polygon fill="blue" stroke="blue" stroke-width="0.1" points="242.67,-470.43 246.19,-460.44 237.21,-466.06 242.67,-470.43"/>
</g>
<!-- key 5126
bias &#45;0.407
h_scaling 0.680&#45;&gt;key 5126
bias &#45;0.407
h_scaling 0.680 -->
<g id="edge17" class="edge">
<title>key 5126
bias &#45;0.407
h_scaling 0.680&#45;&gt;key 5126
bias &#45;0.407
h_scaling 0.680</title>
<path fill="none" stroke="blue" stroke-width="0.1" d="M217.93,-589.01C229.3,-587.17 237.28,-582.32 237.28,-574.48 237.28,-569.2 233.68,-565.29 227.87,-562.73"/>
<polygon fill="blue" stroke="blue" stroke-width="0.1" points="228.5,-559.27 217.93,-559.95 226.62,-566.01 228.5,-559.27"/>
</g>
<!-- key 76683
bias &#45;0.413
h_scaling 0.014&#45;&gt;output
bias 1.000
h_scaling 0.035 -->
<g id="edge16" class="edge">
<title>key 76683
bias &#45;0.413
h_scaling 0.014&#45;&gt;output
bias 1.000
h_scaling 0.035</title>
<path fill="none" stroke="red" stroke-width="0.55" d="M251.43,-183.13C239.72,-165.06 226.52,-144.69 214.41,-126"/>
<polygon fill="red" stroke="red" stroke-width="0.55" points="217.3,-124.04 208.93,-117.55 211.43,-127.84 217.3,-124.04"/>
<text text-anchor="middle" x="243.64" y="-148.08" font-family="Times,serif" font-size="9.00">0.015</text>
</g>
<!-- key 76683
bias &#45;0.413
h_scaling 0.014&#45;&gt;key 11683
bias 0.900
h_scaling 0.718 -->
<g id="edge11" class="edge">
<title>key 76683
bias &#45;0.413
h_scaling 0.014&#45;&gt;key 11683
bias 0.900
h_scaling 0.718</title>
<path fill="none" stroke="blue" stroke-width="0.1" d="M307.32,-176.97C312.52,-162.84 318.11,-147.64 323.45,-133.12"/>
<polygon fill="blue" stroke="blue" stroke-width="0.1" points="326.75,-134.29 326.92,-123.69 320.18,-131.87 326.75,-134.29"/>
</g>
<!-- key 894
bias 0.999
h_scaling 0.428&#45;&gt;output
bias 1.000
h_scaling 0.035 -->
<g id="edge9" class="edge">
<title>key 894
bias 0.999
h_scaling 0.428&#45;&gt;output
bias 1.000
h_scaling 0.035</title>
<path fill="none" stroke="blue" stroke-width="0.1" d="M294.49,-684.1C288.39,-634.71 275.15,-565.33 246.64,-510.84 236.29,-491.05 221.7,-494.25 212.64,-473.84 205.93,-458.73 189.01,-250.87 180.18,-137.38"/>
<polygon fill="blue" stroke="blue" stroke-width="0.1" points="183.67,-137.07 179.41,-127.37 176.69,-137.61 183.67,-137.07"/>
</g>
<!-- key 894
bias 0.999
h_scaling 0.428&#45;&gt;key 5126
bias &#45;0.407
h_scaling 0.680 -->
<g id="edge2" class="edge">
<title>key 894
bias 0.999
h_scaling 0.428&#45;&gt;key 5126
bias &#45;0.407
h_scaling 0.680</title>
<path fill="none" stroke="red" stroke-width="0.89" d="M255.32,-701.51C244.69,-690.18 233.55,-677.89 223.64,-666.12 215.26,-656.16 206.67,-645.3 198.54,-634.67"/>
<polygon fill="red" stroke="red" stroke-width="0.89" points="201.25,-632.45 192.42,-626.6 195.68,-636.68 201.25,-632.45"/>
<text text-anchor="middle" x="237.64" y="-658.92" font-family="Times,serif" font-size="9.00">0.026</text>
</g>
</g>
</svg>
