<?xml version="1.0" encoding="UTF-8" standalone="no"?>
<!DOCTYPE svg PUBLIC "-//W3C//DTD SVG 1.1//EN"
 "http://www.w3.org/Graphics/SVG/1.1/DTD/svg11.dtd">
<!-- Generated by graphviz version 2.43.0 (0)
 -->
<!-- Title: %3 Pages: 1 -->
<svg width="487pt" height="1066pt"
 viewBox="0.00 0.00 486.64 1065.68" xmlns="http://www.w3.org/2000/svg" xmlns:xlink="http://www.w3.org/1999/xlink">
<g id="graph0" class="graph" transform="scale(1 1) rotate(0) translate(4 1061.68)">
<title>%3</title>
<polygon fill="white" stroke="transparent" points="-4,4 -4,-1061.68 482.64,-1061.68 482.64,4 -4,4"/>
<!-- ready -->
<g id="node1" class="node">
<title>ready</title>
<polygon fill="yellow" stroke="black" points="238.14,-1057.68 195.14,-1057.68 195.14,-1039.68 238.14,-1039.68 238.14,-1057.68"/>
<text text-anchor="middle" x="216.64" y="-1046.48" font-family="Times,serif" font-size="9.00">ready</text>
</g>
<!-- key 7649
bias 0.380
h_scaling 0.475 -->
<g id="node4" class="node">
<title>key 7649
bias 0.380
h_scaling 0.475</title>
<ellipse fill="white" stroke="black" cx="63.64" cy="-930.04" rx="63.78" ry="63.78"/>
<text text-anchor="middle" x="63.64" y="-937.84" font-family="Times,serif" font-size="9.00">key 7649</text>
<text text-anchor="middle" x="63.64" y="-927.84" font-family="Times,serif" font-size="9.00">bias 0.380</text>
<text text-anchor="middle" x="63.64" y="-917.84" font-family="Times,serif" font-size="9.00">h_scaling 0.475</text>
</g>
<!-- ready&#45;&gt;key 7649
bias 0.380
h_scaling 0.475 -->
<g id="edge14" class="edge">
<title>ready&#45;&gt;key 7649
bias 0.380
h_scaling 0.475</title>
<path fill="none" stroke="red" stroke-width="2.83" d="M194.75,-1047.11C172.26,-1045.49 137.3,-1039.92 113.64,-1021.68 105.34,-1015.27 98.22,-1007.08 92.18,-998.24"/>
<polygon fill="red" stroke="red" stroke-width="2.83" points="95.02,-996.19 86.72,-989.61 89.11,-999.93 95.02,-996.19"/>
<text text-anchor="middle" x="127.64" y="-1014.48" font-family="Times,serif" font-size="9.00">0.909</text>
</g>
<!-- key 13348
bias 0.756
h_scaling 0.488 -->
<g id="node6" class="node">
<title>key 13348
bias 0.756
h_scaling 0.488</title>
<ellipse fill="white" stroke="black" cx="309.64" cy="-410.2" rx="63.78" ry="63.78"/>
<text text-anchor="middle" x="309.64" y="-418" font-family="Times,serif" font-size="9.00">key 13348</text>
<text text-anchor="middle" x="309.64" y="-408" font-family="Times,serif" font-size="9.00">bias 0.756</text>
<text text-anchor="middle" x="309.64" y="-398" font-family="Times,serif" font-size="9.00">h_scaling 0.488</text>
</g>
<!-- ready&#45;&gt;key 13348
bias 0.756
h_scaling 0.488 -->
<g id="edge15" class="edge">
<title>ready&#45;&gt;key 13348
bias 0.756
h_scaling 0.488</title>
<path fill="none" stroke="blue" stroke-width="1.71" d="M238.37,-1046.74C295.88,-1042.99 447.64,-1024.26 447.64,-931.04 447.64,-931.04 447.64,-931.04 447.64,-582.48 447.64,-554.26 401.64,-501.53 362.76,-462"/>
<polygon fill="blue" stroke="blue" stroke-width="1.71" points="365.12,-459.41 355.59,-454.78 360.15,-464.35 365.12,-459.41"/>
<text text-anchor="middle" x="463.14" y="-754.56" font-family="Times,serif" font-size="9.00">&#45;0.536</text>
</g>
<!-- key 5126
bias &#45;0.407
h_scaling 0.680 -->
<g id="node7" class="node">
<title>key 5126
bias &#45;0.407
h_scaling 0.680</title>
<ellipse fill="white" stroke="black" cx="150.64" cy="-583.48" rx="63.78" ry="63.78"/>
<text text-anchor="middle" x="150.64" y="-591.28" font-family="Times,serif" font-size="9.00">key 5126</text>
<text text-anchor="middle" x="150.64" y="-581.28" font-family="Times,serif" font-size="9.00">bias &#45;0.407</text>
<text text-anchor="middle" x="150.64" y="-571.28" font-family="Times,serif" font-size="9.00">h_scaling 0.680</text>
</g>
<!-- ready&#45;&gt;key 5126
bias &#45;0.407
h_scaling 0.680 -->
<g id="edge12" class="edge">
<title>ready&#45;&gt;key 5126
bias &#45;0.407
h_scaling 0.680</title>
<path fill="none" stroke="blue" stroke-width="0.64" d="M214.64,-1039.64C212.02,-1029.1 207.35,-1010.04 203.64,-993.68 189.02,-929.29 182.29,-913.71 172.64,-848.4 163.14,-784.09 157.42,-710.31 154.21,-657.14"/>
<polygon fill="blue" stroke="blue" stroke-width="0.64" points="157.7,-656.9 153.62,-647.12 150.71,-657.31 157.7,-656.9"/>
<text text-anchor="middle" x="188.14" y="-841.2" font-family="Times,serif" font-size="9.00">&#45;0.181</text>
</g>
<!-- key 894
bias 0.999
h_scaling 0.428 -->
<g id="node9" class="node">
<title>key 894
bias 0.999
h_scaling 0.428</title>
<ellipse fill="white" stroke="black" cx="311.64" cy="-756.76" rx="63.78" ry="63.78"/>
<text text-anchor="middle" x="311.64" y="-764.56" font-family="Times,serif" font-size="9.00">key 894</text>
<text text-anchor="middle" x="311.64" y="-754.56" font-family="Times,serif" font-size="9.00">bias 0.999</text>
<text text-anchor="middle" x="311.64" y="-744.56" font-family="Times,serif" font-size="9.00">h_scaling 0.428</text>
</g>
<!-- ready&#45;&gt;key 894
bias 0.999
h_scaling 0.428 -->
<g id="edge4" class="edge">
<title>ready&#45;&gt;key 894
bias 0.999
h_scaling 0.428</title>
<path fill="none" stroke="blue" stroke-width="1.28" d="M222.56,-1039.66C229.85,-1029.45 242.19,-1011.04 249.64,-993.68 272.41,-940.63 288.5,-877.19 298.58,-829.46"/>
<polygon fill="blue" stroke="blue" stroke-width="1.28" points="302.04,-830.03 300.64,-819.53 295.19,-828.61 302.04,-830.03"/>
<text text-anchor="middle" x="305.14" y="-927.84" font-family="Times,serif" font-size="9.00">&#45;0.392</text>
</g>
<!-- go -->
<g id="node2" class="node">
<title>go</title>
<polygon fill="green" stroke="black" points="240.64,-939.04 212.64,-939.04 212.64,-921.04 240.64,-921.04 240.64,-939.04"/>
<text text-anchor="middle" x="226.64" y="-927.84" font-family="Times,serif" font-size="9.00">go</text>
</g>
<!-- go&#45;&gt;key 5126
bias &#45;0.407
h_scaling 0.680 -->
<g id="edge5" class="edge">
<title>go&#45;&gt;key 5126
bias &#45;0.407
h_scaling 0.680</title>
<path fill="none" stroke="red" stroke-width="3.08" d="M224.92,-920.81C218.12,-888.32 192.35,-765.71 169.64,-665.12 168.93,-661.96 168.19,-658.74 167.45,-655.48"/>
<polygon fill="red" stroke="red" stroke-width="3.08" points="170.84,-654.61 165.18,-645.65 164.02,-656.18 170.84,-654.61"/>
<text text-anchor="middle" x="216.64" y="-754.56" font-family="Times,serif" font-size="9.00">0.993</text>
</g>
<!-- go&#45;&gt;key 894
bias 0.999
h_scaling 0.428 -->
<g id="edge1" class="edge">
<title>go&#45;&gt;key 894
bias 0.999
h_scaling 0.428</title>
<path fill="none" stroke="red" stroke-width="3" d="M229.1,-920.8C234.08,-904.59 246.12,-867.59 260.64,-838.4 263.83,-831.97 267.41,-825.41 271.14,-818.95"/>
<polygon fill="red" stroke="red" stroke-width="3" points="274.23,-820.6 276.31,-810.22 268.2,-817.04 274.23,-820.6"/>
<text text-anchor="middle" x="274.64" y="-841.2" font-family="Times,serif" font-size="9.00">0.967</text>
</g>
<!-- output
bias 1.000
h_scaling 0.035 -->
<g id="node3" class="node">
<title>output
bias 1.000
h_scaling 0.035</title>
<ellipse fill="lightblue" stroke="black" cx="180.64" cy="-63.64" rx="63.78" ry="63.78"/>
<text text-anchor="middle" x="180.64" y="-71.44" font-family="Times,serif" font-size="9.00">output</text>
<text text-anchor="middle" x="180.64" y="-61.44" font-family="Times,serif" font-size="9.00">bias 1.000</text>
<text text-anchor="middle" x="180.64" y="-51.44" font-family="Times,serif" font-size="9.00">h_scaling 0.035</text>
</g>
<!-- output
bias 1.000
h_scaling 0.035&#45;&gt;key 7649
bias 0.380
h_scaling 0.475 -->
<g id="edge13" class="edge">
<title>output
bias 1.000
h_scaling 0.035&#45;&gt;key 7649
bias 0.380
h_scaling 0.475</title>
<path fill="none" stroke="blue" stroke-width="0.27" d="M124.93,-95.16C79.45,-124.61 22.64,-173.82 22.64,-235.92 22.64,-757.76 22.64,-757.76 22.64,-757.76 22.64,-792.11 30.54,-829.29 39.4,-860.21"/>
<polygon fill="blue" stroke="blue" stroke-width="0.27" points="36.1,-861.42 42.3,-870.02 42.82,-859.44 36.1,-861.42"/>
<text text-anchor="middle" x="38.14" y="-494.64" font-family="Times,serif" font-size="9.00">&#45;0.057</text>
</g>
<!-- key 7649
bias 0.380
h_scaling 0.475&#45;&gt;key 894
bias 0.999
h_scaling 0.428 -->
<g id="edge6" class="edge">
<title>key 7649
bias 0.380
h_scaling 0.475&#45;&gt;key 894
bias 0.999
h_scaling 0.428</title>
<path fill="none" stroke="blue" stroke-width="1.9" d="M79.45,-868.38C85.04,-856.89 92.55,-846.07 102.64,-838.4 149.41,-802.81 179.66,-843.64 233.64,-820.4 241.67,-816.94 249.55,-812.42 257.04,-807.4"/>
<polygon fill="blue" stroke="blue" stroke-width="1.9" points="259.5,-809.94 265.63,-801.29 255.45,-804.23 259.5,-809.94"/>
<text text-anchor="middle" x="118.14" y="-841.2" font-family="Times,serif" font-size="9.00">&#45;0.600</text>
</g>
<!-- key 11683
bias 0.900
h_scaling 0.718 -->
<g id="node5" class="node">
<title>key 11683
bias 0.900
h_scaling 0.718</title>
<ellipse fill="white" stroke="black" cx="340.64" cy="-63.64" rx="63.78" ry="63.78"/>
<text text-anchor="middle" x="340.64" y="-71.44" font-family="Times,serif" font-size="9.00">key 11683</text>
<text text-anchor="middle" x="340.64" y="-61.44" font-family="Times,serif" font-size="9.00">bias 0.900</text>
<text text-anchor="middle" x="340.64" y="-51.44" font-family="Times,serif" font-size="9.00">h_scaling 0.718</text>
</g>
<!-- key 11683
bias 0.900
h_scaling 0.718&#45;&gt;key 894
bias 0.999
h_scaling 0.428 -->
<g id="edge7" class="edge">
<title>key 11683
bias 0.900
h_scaling 0.718&#45;&gt;key 894
bias 0.999
h_scaling 0.428</title>
<path fill="none" stroke="blue" stroke-width="0.53" d="M374.33,-117.98C391.85,-150.73 409.64,-194.24 409.64,-235.92 409.64,-584.48 409.64,-584.48 409.64,-584.48 409.64,-627.72 385.82,-669.96 361.66,-701.67"/>
<polygon fill="blue" stroke="blue" stroke-width="0.53" points="358.61,-699.89 355.19,-709.91 364.12,-704.21 358.61,-699.89"/>
<text text-anchor="middle" x="425.14" y="-408" font-family="Times,serif" font-size="9.00">&#45;0.143</text>
</g>
<!-- key 76683
bias &#45;0.413
h_scaling 0.014 -->
<g id="node8" class="node">
<title>key 76683
bias &#45;0.413
h_scaling 0.014</title>
<ellipse fill="white" stroke="black" cx="309.64" cy="-236.92" rx="63.78" ry="63.78"/>
<text text-anchor="middle" x="309.64" y="-244.72" font-family="Times,serif" font-size="9.00">key 76683</text>
<text text-anchor="middle" x="309.64" y="-234.72" font-family="Times,serif" font-size="9.00">bias &#45;0.413</text>
<text text-anchor="middle" x="309.64" y="-224.72" font-family="Times,serif" font-size="9.00">h_scaling 0.014</text>
</g>
<!-- key 13348
bias 0.756
h_scaling 0.488&#45;&gt;key 76683
bias &#45;0.413
h_scaling 0.014 -->
<g id="edge10" class="edge">
<title>key 13348
bias 0.756
h_scaling 0.488&#45;&gt;key 76683
bias &#45;0.413
h_scaling 0.014</title>
<path fill="none" stroke="red" stroke-width="3.07" d="M309.64,-346.39C309.64,-334.87 309.64,-322.76 309.64,-310.97"/>
<polygon fill="red" stroke="red" stroke-width="3.07" points="313.14,-310.72 309.64,-300.72 306.14,-310.72 313.14,-310.72"/>
<text text-anchor="middle" x="323.64" y="-321.36" font-family="Times,serif" font-size="9.00">0.991</text>
</g>
<!-- key 5126
bias &#45;0.407
h_scaling 0.680&#45;&gt;output
bias 1.000
h_scaling 0.035 -->
<g id="edge3" class="edge">
<title>key 5126
bias &#45;0.407
h_scaling 0.680&#45;&gt;output
bias 1.000
h_scaling 0.035</title>
<path fill="none" stroke="blue" stroke-width="2.78" d="M148.94,-519.76C147.96,-466.25 147.6,-387.28 151.64,-318.56 155.25,-257.13 163.46,-187.73 170.23,-137.03"/>
<polygon fill="blue" stroke="blue" stroke-width="2.78" points="173.74,-137.2 171.6,-126.82 166.8,-136.27 173.74,-137.2"/>
<text text-anchor="middle" x="167.14" y="-321.36" font-family="Times,serif" font-size="9.00">&#45;0.894</text>
</g>
<!-- key 5126
bias &#45;0.407
h_scaling 0.680&#45;&gt;key 7649
bias 0.380
h_scaling 0.475 -->
<g id="edge18" class="edge">
<title>key 5126
bias &#45;0.407
h_scaling 0.680&#45;&gt;key 7649
bias 0.380
h_scaling 0.475</title>
<path fill="none" stroke="blue" stroke-width="0.25" d="M127.25,-642.85C121.31,-658.97 115.3,-676.58 110.64,-693.12 95.39,-747.23 83.18,-809.67 75.03,-856.72"/>
<polygon fill="blue" stroke="blue" stroke-width="0.25" points="71.54,-856.37 73.3,-866.81 78.44,-857.55 71.54,-856.37"/>
<text text-anchor="middle" x="126.14" y="-754.56" font-family="Times,serif" font-size="9.00">&#45;0.049</text>
</g>
<!-- key 5126
bias &#45;0.407
h_scaling 0.680&#45;&gt;key 13348
bias 0.756
h_scaling 0.488 -->
<g id="edge8" class="edge">
<title>key 5126
bias &#45;0.407
h_scaling 0.680&#45;&gt;key 13348
bias 0.756
h_scaling 0.488</title>
<path fill="none" stroke="blue" stroke-width="1.81" d="M193.67,-536.13C213.99,-514.23 238.38,-487.96 259.54,-465.17"/>
<polygon fill="blue" stroke="blue" stroke-width="1.81" points="262.34,-467.3 266.58,-457.59 257.21,-462.53 262.34,-467.3"/>
<text text-anchor="middle" x="245.14" y="-494.64" font-family="Times,serif" font-size="9.00">&#45;0.571</text>
</g>
<!-- key 5126
bias &#45;0.407
h_scaling 0.680&#45;&gt;key 5126
bias &#45;0.407
h_scaling 0.680 -->
<g id="edge17" class="edge">
<title>key 5126
bias &#45;0.407
h_scaling 0.680&#45;&gt;key 5126
bias &#45;0.407
h_scaling 0.680</title>
<path fill="none" stroke="blue" stroke-width="1.08" d="M212.58,-598.77C224.14,-596.89 232.28,-591.79 232.28,-583.48 232.28,-577.76 228.43,-573.56 222.27,-570.89"/>
<polygon fill="blue" stroke="blue" stroke-width="1.08" points="223.16,-567.5 212.58,-568.18 221.27,-574.24 223.16,-567.5"/>
<text text-anchor="middle" x="247.78" y="-581.28" font-family="Times,serif" font-size="9.00">&#45;0.327</text>
</g>
<!-- key 76683
bias &#45;0.413
h_scaling 0.014&#45;&gt;output
bias 1.000
h_scaling 0.035 -->
<g id="edge16" class="edge">
<title>key 76683
bias &#45;0.413
h_scaling 0.014&#45;&gt;output
bias 1.000
h_scaling 0.035</title>
<path fill="none" stroke="red" stroke-width="1.82" d="M271.63,-185.46C256.94,-165.94 240.02,-143.48 224.79,-123.26"/>
<polygon fill="red" stroke="red" stroke-width="1.82" points="227.41,-120.92 218.6,-115.04 221.82,-125.13 227.41,-120.92"/>
<text text-anchor="middle" x="258.64" y="-148.08" font-family="Times,serif" font-size="9.00">0.575</text>
</g>
<!-- key 76683
bias &#45;0.413
h_scaling 0.014&#45;&gt;key 11683
bias 0.900
h_scaling 0.718 -->
<g id="edge11" class="edge">
<title>key 76683
bias &#45;0.413
h_scaling 0.014&#45;&gt;key 11683
bias 0.900
h_scaling 0.718</title>
<path fill="none" stroke="blue" stroke-width="2.28" d="M320.83,-174.08C323.05,-161.83 325.39,-148.88 327.66,-136.34"/>
<polygon fill="blue" stroke="blue" stroke-width="2.28" points="331.13,-136.85 329.46,-126.38 324.24,-135.6 331.13,-136.85"/>
<text text-anchor="middle" x="340.14" y="-148.08" font-family="Times,serif" font-size="9.00">&#45;0.727</text>
</g>
<!-- key 894
bias 0.999
h_scaling 0.428&#45;&gt;output
bias 1.000
h_scaling 0.035 -->
<g id="edge9" class="edge">
<title>key 894
bias 0.999
h_scaling 0.428&#45;&gt;output
bias 1.000
h_scaling 0.035</title>
<path fill="none" stroke="blue" stroke-width="3.1" d="M304.38,-693.03C298.09,-645.12 287.63,-577.71 272.64,-519.84 269.33,-507.05 272.16,-501.01 262.64,-491.84 243.51,-473.4 221.99,-494.78 205.64,-473.84 195.47,-460.82 186.91,-251.49 182.96,-137.42"/>
<polygon fill="blue" stroke="blue" stroke-width="3.1" points="186.46,-137.23 182.62,-127.36 179.46,-137.47 186.46,-137.23"/>
<text text-anchor="middle" x="221.14" y="-408" font-family="Times,serif" font-size="9.00">&#45;1.000</text>
</g>
<!-- key 894
bias 0.999
h_scaling 0.428&#45;&gt;key 5126
bias &#45;0.407
h_scaling 0.680 -->
<g id="edge2" class="edge">
<title>key 894
bias 0.999
h_scaling 0.428&#45;&gt;key 5126
bias &#45;0.407
h_scaling 0.680</title>
<path fill="none" stroke="red" stroke-width="3.1" d="M268.49,-709.86C247.65,-687.68 222.51,-660.94 200.82,-637.86"/>
<polygon fill="red" stroke="red" stroke-width="3.1" points="203.3,-635.39 193.9,-630.5 198.2,-640.19 203.3,-635.39"/>
<text text-anchor="middle" x="244.64" y="-667.92" font-family="Times,serif" font-size="9.00">1.000</text>
</g>
</g>
</svg>
