<?xml version="1.0" encoding="UTF-8" standalone="no"?>
<!DOCTYPE svg PUBLIC "-//W3C//DTD SVG 1.1//EN"
 "http://www.w3.org/Graphics/SVG/1.1/DTD/svg11.dtd">
<!-- Generated by graphviz version 2.43.0 (0)
 -->
<!-- Title: %3 Pages: 1 -->
<svg width="516pt" height="1057pt"
 viewBox="0.00 0.00 516.00 1056.68" xmlns="http://www.w3.org/2000/svg" xmlns:xlink="http://www.w3.org/1999/xlink">
<g id="graph0" class="graph" transform="scale(1 1) rotate(0) translate(4 1052.68)">
<title>%3</title>
<polygon fill="white" stroke="transparent" points="-4,4 -4,-1052.68 512,-1052.68 512,4 -4,4"/>
<!-- ready -->
<g id="node1" class="node">
<title>ready</title>
<polygon fill="yellow" stroke="black" points="110.5,-1048.68 67.5,-1048.68 67.5,-1030.68 110.5,-1030.68 110.5,-1048.68"/>
<text text-anchor="middle" x="89" y="-1037.48" font-family="Times,serif" font-size="9.00">ready</text>
</g>
<!-- key 32744
bias &#45;0.625
h_scaling 0.546 -->
<g id="node5" class="node">
<title>key 32744
bias &#45;0.625
h_scaling 0.546</title>
<ellipse fill="white" stroke="black" cx="135" cy="-921.04" rx="63.78" ry="63.78"/>
<text text-anchor="middle" x="135" y="-928.84" font-family="Times,serif" font-size="9.00">key 32744</text>
<text text-anchor="middle" x="135" y="-918.84" font-family="Times,serif" font-size="9.00">bias &#45;0.625</text>
<text text-anchor="middle" x="135" y="-908.84" font-family="Times,serif" font-size="9.00">h_scaling 0.546</text>
</g>
<!-- ready&#45;&gt;key 32744
bias &#45;0.625
h_scaling 0.546 -->
<g id="edge13" class="edge">
<title>ready&#45;&gt;key 32744
bias &#45;0.625
h_scaling 0.546</title>
<path fill="none" stroke="red" stroke-width="0.83" d="M92.16,-1030.66C95.67,-1021.75 101.71,-1006.46 108.15,-990.11"/>
<polygon fill="red" stroke="red" stroke-width="0.83" points="111.57,-990.99 111.98,-980.41 105.05,-988.43 111.57,-990.99"/>
<text text-anchor="middle" x="117" y="-1005.48" font-family="Times,serif" font-size="9.00">0.024</text>
</g>
<!-- key 14379
bias &#45;0.337
h_scaling 0.640 -->
<g id="node6" class="node">
<title>key 14379
bias &#45;0.337
h_scaling 0.640</title>
<ellipse fill="white" stroke="black" cx="148" cy="-227.92" rx="63.78" ry="63.78"/>
<text text-anchor="middle" x="148" y="-235.72" font-family="Times,serif" font-size="9.00">key 14379</text>
<text text-anchor="middle" x="148" y="-225.72" font-family="Times,serif" font-size="9.00">bias &#45;0.337</text>
<text text-anchor="middle" x="148" y="-215.72" font-family="Times,serif" font-size="9.00">h_scaling 0.640</text>
</g>
<!-- ready&#45;&gt;key 14379
bias &#45;0.337
h_scaling 0.640 -->
<g id="edge12" class="edge">
<title>ready&#45;&gt;key 14379
bias &#45;0.337
h_scaling 0.640</title>
<path fill="none" stroke="blue" stroke-width="0.1" d="M83.36,-1030.62C71.08,-1012.27 43,-965.57 43,-922.04 43,-922.04 43,-922.04 43,-400.2 43,-355.34 69.5,-312.33 95.87,-280.63"/>
<polygon fill="blue" stroke="blue" stroke-width="0.1" points="98.71,-282.69 102.56,-272.82 93.39,-278.14 98.71,-282.69"/>
</g>
<!-- go -->
<g id="node2" class="node">
<title>go</title>
<polygon fill="green" stroke="black" points="334,-1048.68 306,-1048.68 306,-1030.68 334,-1030.68 334,-1048.68"/>
<text text-anchor="middle" x="320" y="-1037.48" font-family="Times,serif" font-size="9.00">go</text>
</g>
<!-- key 6304
bias 0.077
h_scaling 0.020 -->
<g id="node4" class="node">
<title>key 6304
bias 0.077
h_scaling 0.020</title>
<ellipse fill="white" stroke="black" cx="360" cy="-574.48" rx="63.78" ry="63.78"/>
<text text-anchor="middle" x="360" y="-582.28" font-family="Times,serif" font-size="9.00">key 6304</text>
<text text-anchor="middle" x="360" y="-572.28" font-family="Times,serif" font-size="9.00">bias 0.077</text>
<text text-anchor="middle" x="360" y="-562.28" font-family="Times,serif" font-size="9.00">h_scaling 0.020</text>
</g>
<!-- go&#45;&gt;key 6304
bias 0.077
h_scaling 0.020 -->
<g id="edge3" class="edge">
<title>go&#45;&gt;key 6304
bias 0.077
h_scaling 0.020</title>
<path fill="none" stroke="blue" stroke-width="0.1" d="M321.29,-1030.45C325.88,-1000.9 341.52,-897.39 349,-811.4 353.75,-756.79 356.54,-694.87 358.12,-648.18"/>
<polygon fill="blue" stroke="blue" stroke-width="0.1" points="361.62,-648.26 358.45,-638.15 354.62,-648.03 361.62,-648.26"/>
</g>
<!-- go&#45;&gt;key 32744
bias &#45;0.625
h_scaling 0.546 -->
<g id="edge20" class="edge">
<title>go&#45;&gt;key 32744
bias &#45;0.625
h_scaling 0.546</title>
<path fill="none" stroke="red" stroke-width="0.81" d="M305.94,-1036.67C287.68,-1033.61 255.3,-1026.6 231,-1012.68 214.39,-1003.15 198.4,-990.2 184.39,-977.06"/>
<polygon fill="red" stroke="red" stroke-width="0.81" points="186.45,-974.18 176.82,-969.76 181.59,-979.22 186.45,-974.18"/>
<text text-anchor="middle" x="245" y="-1005.48" font-family="Times,serif" font-size="9.00">0.024</text>
</g>
<!-- go&#45;&gt;key 14379
bias &#45;0.337
h_scaling 0.640 -->
<g id="edge6" class="edge">
<title>go&#45;&gt;key 14379
bias &#45;0.337
h_scaling 0.640</title>
<path fill="none" stroke="red" stroke-width="0.8" d="M319.29,-1030.65C316.45,-1002.94 303.48,-910.18 254,-857.4 240.39,-842.88 226.57,-853.96 213,-839.4 182.51,-806.67 184,-792.07 184,-662.12 184,-662.12 184,-662.12 184,-400.2 184,-366.34 177.18,-329.5 169.47,-298.69"/>
<polygon fill="red" stroke="red" stroke-width="0.8" points="172.84,-297.72 166.95,-288.91 166.06,-299.47 172.84,-297.72"/>
<text text-anchor="middle" x="198" y="-658.92" font-family="Times,serif" font-size="9.00">0.023</text>
</g>
<!-- key 3694
bias &#45;0.496
h_scaling 0.059 -->
<g id="node7" class="node">
<title>key 3694
bias &#45;0.496
h_scaling 0.059</title>
<ellipse fill="white" stroke="black" cx="355" cy="-63.64" rx="63.78" ry="63.78"/>
<text text-anchor="middle" x="355" y="-71.44" font-family="Times,serif" font-size="9.00">key 3694</text>
<text text-anchor="middle" x="355" y="-61.44" font-family="Times,serif" font-size="9.00">bias &#45;0.496</text>
<text text-anchor="middle" x="355" y="-51.44" font-family="Times,serif" font-size="9.00">h_scaling 0.059</text>
</g>
<!-- go&#45;&gt;key 3694
bias &#45;0.496
h_scaling 0.059 -->
<g id="edge4" class="edge">
<title>go&#45;&gt;key 3694
bias &#45;0.496
h_scaling 0.059</title>
<path fill="none" stroke="blue" stroke-width="0.1" d="M334.13,-1036.83C377.85,-1030.27 508,-1003.85 508,-922.04 508,-922.04 508,-922.04 508,-226.92 508,-172.22 461.41,-128.47 419.65,-100.25"/>
<polygon fill="blue" stroke="blue" stroke-width="0.1" points="421.38,-97.2 411.1,-94.64 417.54,-103.05 421.38,-97.2"/>
</g>
<!-- output
bias &#45;1.000
h_scaling 0.384 -->
<g id="node3" class="node">
<title>output
bias &#45;1.000
h_scaling 0.384</title>
<ellipse fill="lightblue" stroke="black" cx="276" cy="-747.76" rx="63.78" ry="63.78"/>
<text text-anchor="middle" x="276" y="-755.56" font-family="Times,serif" font-size="9.00">output</text>
<text text-anchor="middle" x="276" y="-745.56" font-family="Times,serif" font-size="9.00">bias &#45;1.000</text>
<text text-anchor="middle" x="276" y="-735.56" font-family="Times,serif" font-size="9.00">h_scaling 0.384</text>
</g>
<!-- output
bias &#45;1.000
h_scaling 0.384&#45;&gt;key 6304
bias 0.077
h_scaling 0.020 -->
<g id="edge19" class="edge">
<title>output
bias &#45;1.000
h_scaling 0.384&#45;&gt;key 6304
bias 0.077
h_scaling 0.020</title>
<path fill="none" stroke="blue" stroke-width="0.1" d="M309.48,-693.19C314.59,-684.28 319.61,-675.03 324,-666.12 327.51,-658.99 330.94,-651.43 334.21,-643.84"/>
<polygon fill="blue" stroke="blue" stroke-width="0.1" points="337.45,-645.16 338.1,-634.58 331,-642.44 337.45,-645.16"/>
</g>
<!-- key 44570
bias &#45;0.258
h_scaling 1.000 -->
<g id="node8" class="node">
<title>key 44570
bias &#45;0.258
h_scaling 1.000</title>
<ellipse fill="white" stroke="black" cx="276" cy="-401.2" rx="63.78" ry="63.78"/>
<text text-anchor="middle" x="276" y="-409" font-family="Times,serif" font-size="9.00">key 44570</text>
<text text-anchor="middle" x="276" y="-399" font-family="Times,serif" font-size="9.00">bias &#45;0.258</text>
<text text-anchor="middle" x="276" y="-389" font-family="Times,serif" font-size="9.00">h_scaling 1.000</text>
</g>
<!-- output
bias &#45;1.000
h_scaling 0.384&#45;&gt;key 44570
bias &#45;0.258
h_scaling 1.000 -->
<g id="edge23" class="edge">
<title>output
bias &#45;1.000
h_scaling 0.384&#45;&gt;key 44570
bias &#45;0.258
h_scaling 1.000</title>
<path fill="none" stroke="red" stroke-width="0.49" d="M264.62,-684.9C262.29,-669.66 260.18,-653.34 259,-638.12 254.61,-581.72 254.61,-567.24 259,-510.84 259.93,-498.94 261.41,-486.38 263.13,-474.18"/>
<polygon fill="red" stroke="red" stroke-width="0.49" points="266.63,-474.45 264.62,-464.05 259.7,-473.43 266.63,-474.45"/>
<text text-anchor="middle" x="273" y="-572.28" font-family="Times,serif" font-size="9.00">0.013</text>
</g>
<!-- key 6304
bias 0.077
h_scaling 0.020&#45;&gt;output
bias &#45;1.000
h_scaling 0.384 -->
<g id="edge10" class="edge">
<title>key 6304
bias 0.077
h_scaling 0.020&#45;&gt;output
bias &#45;1.000
h_scaling 0.384</title>
<path fill="none" stroke="red" stroke-width="0.41" d="M317.24,-622.12C309.22,-632.71 301.6,-644.33 296,-656.12 293.16,-662.08 290.72,-668.46 288.62,-674.96"/>
<polygon fill="red" stroke="red" stroke-width="0.41" points="285.27,-673.97 285.78,-684.55 291.98,-675.96 285.27,-673.97"/>
<text text-anchor="middle" x="310" y="-658.92" font-family="Times,serif" font-size="9.00">0.010</text>
</g>
<!-- key 6304
bias 0.077
h_scaling 0.020&#45;&gt;key 3694
bias &#45;0.496
h_scaling 0.059 -->
<g id="edge2" class="edge">
<title>key 6304
bias 0.077
h_scaling 0.020&#45;&gt;key 3694
bias &#45;0.496
h_scaling 0.059</title>
<path fill="none" stroke="red" stroke-width="0.64" d="M378.26,-513.06C379.77,-506.29 381.08,-499.45 382,-492.84 399.42,-368.25 382.11,-221.69 368.3,-136.37"/>
<polygon fill="red" stroke="red" stroke-width="0.64" points="371.72,-135.57 366.64,-126.27 364.81,-136.71 371.72,-135.57"/>
<text text-anchor="middle" x="401" y="-312.36" font-family="Times,serif" font-size="9.00">0.018</text>
</g>
<!-- key 6304
bias 0.077
h_scaling 0.020&#45;&gt;key 44570
bias &#45;0.258
h_scaling 1.000 -->
<g id="edge16" class="edge">
<title>key 6304
bias 0.077
h_scaling 0.020&#45;&gt;key 44570
bias &#45;0.258
h_scaling 1.000</title>
<path fill="none" stroke="red" stroke-width="0.39" d="M332.26,-516.92C324.59,-501.28 316.2,-484.17 308.3,-468.05"/>
<polygon fill="red" stroke="red" stroke-width="0.39" points="311.25,-466.13 303.71,-458.7 304.97,-469.22 311.25,-466.13"/>
<text text-anchor="middle" x="332" y="-485.64" font-family="Times,serif" font-size="9.00">0.010</text>
</g>
<!-- key 32744
bias &#45;0.625
h_scaling 0.546&#45;&gt;output
bias &#45;1.000
h_scaling 0.384 -->
<g id="edge18" class="edge">
<title>key 32744
bias &#45;0.625
h_scaling 0.546&#45;&gt;output
bias &#45;1.000
h_scaling 0.384</title>
<path fill="none" stroke="red" stroke-width="0.66" d="M175.03,-871.41C192,-850.8 211.88,-826.65 229.49,-805.25"/>
<polygon fill="red" stroke="red" stroke-width="0.66" points="232.22,-807.45 235.87,-797.5 226.81,-803 232.22,-807.45"/>
<text text-anchor="middle" x="220" y="-832.2" font-family="Times,serif" font-size="9.00">0.019</text>
</g>
<!-- key 32744
bias &#45;0.625
h_scaling 0.546&#45;&gt;key 32744
bias &#45;0.625
h_scaling 0.546 -->
<g id="edge15" class="edge">
<title>key 32744
bias &#45;0.625
h_scaling 0.546&#45;&gt;key 32744
bias &#45;0.625
h_scaling 0.546</title>
<path fill="none" stroke="red" stroke-width="1.4" d="M196.94,-936.33C208.5,-934.45 216.64,-929.35 216.64,-921.04 216.64,-915.32 212.79,-911.12 206.63,-908.45"/>
<polygon fill="red" stroke="red" stroke-width="1.4" points="207.52,-905.06 196.94,-905.74 205.63,-911.8 207.52,-905.06"/>
<text text-anchor="middle" x="230.64" y="-918.84" font-family="Times,serif" font-size="9.00">0.043</text>
</g>
<!-- key 32744
bias &#45;0.625
h_scaling 0.546&#45;&gt;key 14379
bias &#45;0.337
h_scaling 0.640 -->
<g id="edge14" class="edge">
<title>key 32744
bias &#45;0.625
h_scaling 0.546&#45;&gt;key 14379
bias &#45;0.337
h_scaling 0.640</title>
<path fill="none" stroke="blue" stroke-width="0.1" d="M120.63,-858.96C114.18,-826.44 108,-785.63 108,-748.76 108,-748.76 108,-748.76 108,-400.2 108,-366.03 115.64,-329.01 124.24,-298.16"/>
<polygon fill="blue" stroke="blue" stroke-width="0.1" points="127.66,-298.95 127.06,-288.37 120.93,-297.01 127.66,-298.95"/>
</g>
<!-- key 32744
bias &#45;0.625
h_scaling 0.546&#45;&gt;key 3694
bias &#45;0.496
h_scaling 0.059 -->
<g id="edge22" class="edge">
<title>key 32744
bias &#45;0.625
h_scaling 0.546&#45;&gt;key 3694
bias &#45;0.496
h_scaling 0.059</title>
<path fill="none" stroke="red" stroke-width="0.54" d="M82.81,-883.91C44.82,-852.96 0,-804.6 0,-748.76 0,-748.76 0,-748.76 0,-226.92 0,-104.44 176.94,-74.02 280.98,-66.71"/>
<polygon fill="red" stroke="red" stroke-width="0.54" points="281.37,-70.2 291.12,-66.06 280.92,-63.21 281.37,-70.2"/>
<text text-anchor="middle" x="14" y="-485.64" font-family="Times,serif" font-size="9.00">0.015</text>
</g>
<!-- key 14379
bias &#45;0.337
h_scaling 0.640&#45;&gt;key 6304
bias 0.077
h_scaling 0.020 -->
<g id="edge7" class="edge">
<title>key 14379
bias &#45;0.337
h_scaling 0.640&#45;&gt;key 6304
bias 0.077
h_scaling 0.020</title>
<path fill="none" stroke="blue" stroke-width="0.1" d="M148.64,-291.63C152.21,-343.02 164.5,-415.13 203,-464.84 230.03,-499.73 254.81,-485.58 291,-510.84 296.22,-514.48 301.47,-518.49 306.62,-522.66"/>
<polygon fill="blue" stroke="blue" stroke-width="0.1" points="304.67,-525.6 314.59,-529.32 309.16,-520.22 304.67,-525.6"/>
</g>
<!-- key 14379
bias &#45;0.337
h_scaling 0.640&#45;&gt;key 14379
bias &#45;0.337
h_scaling 0.640 -->
<g id="edge9" class="edge">
<title>key 14379
bias &#45;0.337
h_scaling 0.640&#45;&gt;key 14379
bias &#45;0.337
h_scaling 0.640</title>
<path fill="none" stroke="red" stroke-width="0.89" d="M210.29,-242.45C221.66,-240.61 229.64,-235.77 229.64,-227.92 229.64,-222.65 226.04,-218.73 220.23,-216.17"/>
<polygon fill="red" stroke="red" stroke-width="0.89" points="220.87,-212.71 210.29,-213.39 218.98,-219.45 220.87,-212.71"/>
<text text-anchor="middle" x="243.64" y="-225.72" font-family="Times,serif" font-size="9.00">0.026</text>
</g>
<!-- key 14379
bias &#45;0.337
h_scaling 0.640&#45;&gt;key 3694
bias &#45;0.496
h_scaling 0.059 -->
<g id="edge11" class="edge">
<title>key 14379
bias &#45;0.337
h_scaling 0.640&#45;&gt;key 3694
bias &#45;0.496
h_scaling 0.059</title>
<path fill="none" stroke="blue" stroke-width="0.1" d="M197.85,-187.84C227.72,-164.43 265.83,-134.55 297.04,-110.08"/>
<polygon fill="blue" stroke="blue" stroke-width="0.1" points="299.52,-112.58 305.23,-103.66 295.2,-107.07 299.52,-112.58"/>
</g>
<!-- key 3694
bias &#45;0.496
h_scaling 0.059&#45;&gt;output
bias &#45;1.000
h_scaling 0.384 -->
<g id="edge1" class="edge">
<title>key 3694
bias &#45;0.496
h_scaling 0.059&#45;&gt;output
bias &#45;1.000
h_scaling 0.384</title>
<path fill="none" stroke="red" stroke-width="0.5" d="M399.53,-109.43C425.03,-139.9 452,-182.61 452,-226.92 452,-575.48 452,-575.48 452,-575.48 452,-604.57 450.14,-614.61 433,-638.12 409.62,-670.19 373.76,-696.03 342.21,-714.44"/>
<polygon fill="red" stroke="red" stroke-width="0.5" points="340.4,-711.45 333.44,-719.44 343.86,-717.53 340.4,-711.45"/>
<text text-anchor="middle" x="466" y="-399" font-family="Times,serif" font-size="9.00">0.013</text>
</g>
<!-- key 3694
bias &#45;0.496
h_scaling 0.059&#45;&gt;key 6304
bias 0.077
h_scaling 0.020 -->
<g id="edge8" class="edge">
<title>key 3694
bias &#45;0.496
h_scaling 0.059&#45;&gt;key 6304
bias 0.077
h_scaling 0.020</title>
<path fill="none" stroke="red" stroke-width="0.64" d="M354.66,-127.5C354.46,-179.09 354.36,-254.06 355,-319.56 355.6,-380.5 357.01,-449.66 358.18,-500.4"/>
<polygon fill="red" stroke="red" stroke-width="0.64" points="354.69,-500.7 358.42,-510.61 361.68,-500.53 354.69,-500.7"/>
<text text-anchor="middle" x="369" y="-312.36" font-family="Times,serif" font-size="9.00">0.018</text>
</g>
<!-- key 3694
bias &#45;0.496
h_scaling 0.059&#45;&gt;key 3694
bias &#45;0.496
h_scaling 0.059 -->
<g id="edge5" class="edge">
<title>key 3694
bias &#45;0.496
h_scaling 0.059&#45;&gt;key 3694
bias &#45;0.496
h_scaling 0.059</title>
<path fill="none" stroke="red" stroke-width="1.08" d="M417.29,-78.17C428.66,-76.33 436.64,-71.49 436.64,-63.64 436.64,-58.37 433.04,-54.45 427.23,-51.89"/>
<polygon fill="red" stroke="red" stroke-width="1.08" points="427.87,-48.43 417.29,-49.11 425.98,-55.18 427.87,-48.43"/>
<text text-anchor="middle" x="450.64" y="-61.44" font-family="Times,serif" font-size="9.00">0.033</text>
</g>
<!-- key 44570
bias &#45;0.258
h_scaling 1.000&#45;&gt;key 14379
bias &#45;0.337
h_scaling 0.640 -->
<g id="edge17" class="edge">
<title>key 44570
bias &#45;0.258
h_scaling 1.000&#45;&gt;key 14379
bias &#45;0.337
h_scaling 0.640</title>
<path fill="none" stroke="red" stroke-width="0.52" d="M238.29,-349.74C223.7,-330.22 206.92,-307.76 191.8,-287.53"/>
<polygon fill="red" stroke="red" stroke-width="0.52" points="194.45,-285.23 185.66,-279.32 188.85,-289.42 194.45,-285.23"/>
<text text-anchor="middle" x="226" y="-312.36" font-family="Times,serif" font-size="9.00">0.014</text>
</g>
<!-- key 44570
bias &#45;0.258
h_scaling 1.000&#45;&gt;key 3694
bias &#45;0.496
h_scaling 0.059 -->
<g id="edge21" class="edge">
<title>key 44570
bias &#45;0.258
h_scaling 1.000&#45;&gt;key 3694
bias &#45;0.496
h_scaling 0.059</title>
<path fill="none" stroke="red" stroke-width="0.35" d="M281.61,-337.71C286.93,-289.64 296.6,-221.9 313,-164.28 316.12,-153.32 320.12,-141.95 324.41,-130.99"/>
<polygon fill="red" stroke="red" stroke-width="0.35" points="327.75,-132.06 328.24,-121.48 321.26,-129.44 327.75,-132.06"/>
<text text-anchor="middle" x="327" y="-225.72" font-family="Times,serif" font-size="9.00">0.008</text>
</g>
</g>
</svg>
