<?xml version="1.0" encoding="UTF-8" standalone="no"?>
<!DOCTYPE svg PUBLIC "-//W3C//DTD SVG 1.1//EN"
 "http://www.w3.org/Graphics/SVG/1.1/DTD/svg11.dtd">
<!-- Generated by graphviz version 2.43.0 (0)
 -->
<!-- Title: %3 Pages: 1 -->
<svg width="580pt" height="1066pt"
 viewBox="0.00 0.00 580.00 1065.68" xmlns="http://www.w3.org/2000/svg" xmlns:xlink="http://www.w3.org/1999/xlink">
<g id="graph0" class="graph" transform="scale(1 1) rotate(0) translate(4 1061.68)">
<title>%3</title>
<polygon fill="white" stroke="transparent" points="-4,4 -4,-1061.68 576,-1061.68 576,4 -4,4"/>
<!-- ready -->
<g id="node1" class="node">
<title>ready</title>
<polygon fill="yellow" stroke="black" points="87.5,-1057.68 44.5,-1057.68 44.5,-1039.68 87.5,-1039.68 87.5,-1057.68"/>
<text text-anchor="middle" x="66" y="-1046.48" font-family="Times,serif" font-size="9.00">ready</text>
</g>
<!-- key 32744
bias &#45;0.625
h_scaling 0.546 -->
<g id="node5" class="node">
<title>key 32744
bias &#45;0.625
h_scaling 0.546</title>
<ellipse fill="white" stroke="black" cx="135" cy="-930.04" rx="63.78" ry="63.78"/>
<text text-anchor="middle" x="135" y="-937.84" font-family="Times,serif" font-size="9.00">key 32744</text>
<text text-anchor="middle" x="135" y="-927.84" font-family="Times,serif" font-size="9.00">bias &#45;0.625</text>
<text text-anchor="middle" x="135" y="-917.84" font-family="Times,serif" font-size="9.00">h_scaling 0.546</text>
</g>
<!-- ready&#45;&gt;key 32744
bias &#45;0.625
h_scaling 0.546 -->
<g id="edge13" class="edge">
<title>ready&#45;&gt;key 32744
bias &#45;0.625
h_scaling 0.546</title>
<path fill="none" stroke="red" stroke-width="3.09" d="M70.74,-1039.66C76.55,-1029.84 86.95,-1012.26 97.72,-994.06"/>
<polygon fill="red" stroke="red" stroke-width="3.09" points="100.93,-995.49 103.01,-985.11 94.91,-991.93 100.93,-995.49"/>
<text text-anchor="middle" x="101" y="-1014.48" font-family="Times,serif" font-size="9.00">0.998</text>
</g>
<!-- key 14379
bias &#45;0.337
h_scaling 0.640 -->
<g id="node6" class="node">
<title>key 14379
bias &#45;0.337
h_scaling 0.640</title>
<ellipse fill="white" stroke="black" cx="165" cy="-236.92" rx="63.78" ry="63.78"/>
<text text-anchor="middle" x="165" y="-244.72" font-family="Times,serif" font-size="9.00">key 14379</text>
<text text-anchor="middle" x="165" y="-234.72" font-family="Times,serif" font-size="9.00">bias &#45;0.337</text>
<text text-anchor="middle" x="165" y="-224.72" font-family="Times,serif" font-size="9.00">h_scaling 0.640</text>
</g>
<!-- ready&#45;&gt;key 14379
bias &#45;0.337
h_scaling 0.640 -->
<g id="edge12" class="edge">
<title>ready&#45;&gt;key 14379
bias &#45;0.337
h_scaling 0.640</title>
<path fill="none" stroke="blue" stroke-width="0.84" d="M63.27,-1039.58C57.18,-1020.77 43,-972.52 43,-931.04 43,-931.04 43,-931.04 43,-409.2 43,-360.53 76.08,-316.1 107.8,-284.69"/>
<polygon fill="blue" stroke="blue" stroke-width="0.84" points="110.6,-286.85 115.38,-277.4 105.75,-281.81 110.6,-286.85"/>
<text text-anchor="middle" x="58.5" y="-667.92" font-family="Times,serif" font-size="9.00">&#45;0.248</text>
</g>
<!-- go -->
<g id="node2" class="node">
<title>go</title>
<polygon fill="green" stroke="black" points="356,-1057.68 328,-1057.68 328,-1039.68 356,-1039.68 356,-1057.68"/>
<text text-anchor="middle" x="342" y="-1046.48" font-family="Times,serif" font-size="9.00">go</text>
</g>
<!-- key 6304
bias 0.077
h_scaling 0.020 -->
<g id="node4" class="node">
<title>key 6304
bias 0.077
h_scaling 0.020</title>
<ellipse fill="white" stroke="black" cx="392" cy="-583.48" rx="63.78" ry="63.78"/>
<text text-anchor="middle" x="392" y="-591.28" font-family="Times,serif" font-size="9.00">key 6304</text>
<text text-anchor="middle" x="392" y="-581.28" font-family="Times,serif" font-size="9.00">bias 0.077</text>
<text text-anchor="middle" x="392" y="-571.28" font-family="Times,serif" font-size="9.00">h_scaling 0.020</text>
</g>
<!-- go&#45;&gt;key 6304
bias 0.077
h_scaling 0.020 -->
<g id="edge3" class="edge">
<title>go&#45;&gt;key 6304
bias 0.077
h_scaling 0.020</title>
<path fill="none" stroke="blue" stroke-width="2.8" d="M344.22,-1039.5C352.07,-1010.16 378.56,-907.24 388,-820.4 393.92,-765.95 394.75,-704.03 394.19,-657.29"/>
<polygon fill="blue" stroke="blue" stroke-width="2.8" points="397.69,-657.21 394.04,-647.26 390.69,-657.31 397.69,-657.21"/>
<text text-anchor="middle" x="400.5" y="-841.2" font-family="Times,serif" font-size="9.00">&#45;0.899</text>
</g>
<!-- go&#45;&gt;key 32744
bias &#45;0.625
h_scaling 0.546 -->
<g id="edge20" class="edge">
<title>go&#45;&gt;key 32744
bias &#45;0.625
h_scaling 0.546</title>
<path fill="none" stroke="red" stroke-width="0.8" d="M327.85,-1046.72C305.91,-1044.74 262.9,-1038.83 231,-1021.68 213.81,-1012.43 197.43,-999.31 183.23,-985.91"/>
<polygon fill="red" stroke="red" stroke-width="0.8" points="185.62,-983.35 176.01,-978.9 180.74,-988.37 185.62,-983.35"/>
<text text-anchor="middle" x="245" y="-1014.48" font-family="Times,serif" font-size="9.00">0.233</text>
</g>
<!-- go&#45;&gt;key 14379
bias &#45;0.337
h_scaling 0.640 -->
<g id="edge6" class="edge">
<title>go&#45;&gt;key 14379
bias &#45;0.337
h_scaling 0.640</title>
<path fill="none" stroke="red" stroke-width="2.95" d="M337.83,-1039.47C324.24,-1012.55 280.41,-924.29 251,-848.4 170.04,-639.48 249.55,-565.73 203,-346.56 200.16,-333.19 196.13,-319.21 191.74,-305.9"/>
<polygon fill="red" stroke="red" stroke-width="2.95" points="195.02,-304.69 188.49,-296.34 188.39,-306.94 195.02,-304.69"/>
<text text-anchor="middle" x="227" y="-667.92" font-family="Times,serif" font-size="9.00">0.950</text>
</g>
<!-- key 3694
bias &#45;0.496
h_scaling 0.059 -->
<g id="node7" class="node">
<title>key 3694
bias &#45;0.496
h_scaling 0.059</title>
<ellipse fill="white" stroke="black" cx="388" cy="-63.64" rx="63.78" ry="63.78"/>
<text text-anchor="middle" x="388" y="-71.44" font-family="Times,serif" font-size="9.00">key 3694</text>
<text text-anchor="middle" x="388" y="-61.44" font-family="Times,serif" font-size="9.00">bias &#45;0.496</text>
<text text-anchor="middle" x="388" y="-51.44" font-family="Times,serif" font-size="9.00">h_scaling 0.059</text>
</g>
<!-- go&#45;&gt;key 3694
bias &#45;0.496
h_scaling 0.059 -->
<g id="edge4" class="edge">
<title>go&#45;&gt;key 3694
bias &#45;0.496
h_scaling 0.059</title>
<path fill="none" stroke="blue" stroke-width="2.9" d="M356.31,-1046.21C401.94,-1040.66 541,-1016.73 541,-931.04 541,-931.04 541,-931.04 541,-235.92 541,-178.91 493.28,-132.16 451.14,-101.99"/>
<polygon fill="blue" stroke="blue" stroke-width="2.9" points="453.01,-99.02 442.8,-96.17 449.01,-104.76 453.01,-99.02"/>
<text text-anchor="middle" x="556.5" y="-581.28" font-family="Times,serif" font-size="9.00">&#45;0.932</text>
</g>
<!-- output
bias &#45;1.000
h_scaling 0.384 -->
<g id="node3" class="node">
<title>output
bias &#45;1.000
h_scaling 0.384</title>
<ellipse fill="lightblue" stroke="black" cx="315" cy="-756.76" rx="63.78" ry="63.78"/>
<text text-anchor="middle" x="315" y="-764.56" font-family="Times,serif" font-size="9.00">output</text>
<text text-anchor="middle" x="315" y="-754.56" font-family="Times,serif" font-size="9.00">bias &#45;1.000</text>
<text text-anchor="middle" x="315" y="-744.56" font-family="Times,serif" font-size="9.00">h_scaling 0.384</text>
</g>
<!-- output
bias &#45;1.000
h_scaling 0.384&#45;&gt;key 6304
bias 0.077
h_scaling 0.020 -->
<g id="edge19" class="edge">
<title>output
bias &#45;1.000
h_scaling 0.384&#45;&gt;key 6304
bias 0.077
h_scaling 0.020</title>
<path fill="none" stroke="blue" stroke-width="1.74" d="M340.85,-698.25C347.62,-683.2 354.97,-666.84 361.94,-651.35"/>
<polygon fill="blue" stroke="blue" stroke-width="1.74" points="365.31,-652.39 366.21,-641.84 358.92,-649.52 365.31,-652.39"/>
<text text-anchor="middle" x="368.5" y="-667.92" font-family="Times,serif" font-size="9.00">&#45;0.546</text>
</g>
<!-- key 44570
bias &#45;0.258
h_scaling 1.000 -->
<g id="node8" class="node">
<title>key 44570
bias &#45;0.258
h_scaling 1.000</title>
<ellipse fill="white" stroke="black" cx="309" cy="-410.2" rx="63.78" ry="63.78"/>
<text text-anchor="middle" x="309" y="-418" font-family="Times,serif" font-size="9.00">key 44570</text>
<text text-anchor="middle" x="309" y="-408" font-family="Times,serif" font-size="9.00">bias &#45;0.258</text>
<text text-anchor="middle" x="309" y="-398" font-family="Times,serif" font-size="9.00">h_scaling 1.000</text>
</g>
<!-- output
bias &#45;1.000
h_scaling 0.384&#45;&gt;key 44570
bias &#45;0.258
h_scaling 1.000 -->
<g id="edge23" class="edge">
<title>output
bias &#45;1.000
h_scaling 0.384&#45;&gt;key 44570
bias &#45;0.258
h_scaling 1.000</title>
<path fill="none" stroke="red" stroke-width="0.59" d="M299.13,-694.95C295.76,-679.46 292.71,-662.77 291,-647.12 284.86,-590.88 286.36,-576.22 291,-519.84 291.99,-507.85 293.57,-495.2 295.41,-482.93"/>
<polygon fill="red" stroke="red" stroke-width="0.59" points="298.92,-483.16 297,-472.74 292,-482.08 298.92,-483.16"/>
<text text-anchor="middle" x="305" y="-581.28" font-family="Times,serif" font-size="9.00">0.163</text>
</g>
<!-- key 6304
bias 0.077
h_scaling 0.020&#45;&gt;output
bias &#45;1.000
h_scaling 0.384 -->
<g id="edge10" class="edge">
<title>key 6304
bias 0.077
h_scaling 0.020&#45;&gt;output
bias &#45;1.000
h_scaling 0.384</title>
<path fill="none" stroke="red" stroke-width="1.65" d="M342.97,-624.9C332.06,-636.63 321.97,-650.31 316,-665.12 313.74,-670.73 312.13,-676.7 311.04,-682.79"/>
<polygon fill="red" stroke="red" stroke-width="1.65" points="307.51,-682.74 309.65,-693.12 314.45,-683.67 307.51,-682.74"/>
<text text-anchor="middle" x="330" y="-667.92" font-family="Times,serif" font-size="9.00">0.515</text>
</g>
<!-- key 6304
bias 0.077
h_scaling 0.020&#45;&gt;key 3694
bias &#45;0.496
h_scaling 0.059 -->
<g id="edge2" class="edge">
<title>key 6304
bias 0.077
h_scaling 0.020&#45;&gt;key 3694
bias &#45;0.496
h_scaling 0.059</title>
<path fill="none" stroke="red" stroke-width="3.06" d="M410.99,-522.53C412.61,-515.61 414.01,-508.61 415,-501.84 433.62,-374.08 415.66,-223.48 401.46,-136.54"/>
<polygon fill="red" stroke="red" stroke-width="3.06" points="404.89,-135.8 399.79,-126.51 397.98,-136.95 404.89,-135.8"/>
<text text-anchor="middle" x="435" y="-321.36" font-family="Times,serif" font-size="9.00">0.985</text>
</g>
<!-- key 6304
bias 0.077
h_scaling 0.020&#45;&gt;key 44570
bias &#45;0.258
h_scaling 1.000 -->
<g id="edge16" class="edge">
<title>key 6304
bias 0.077
h_scaling 0.020&#45;&gt;key 44570
bias &#45;0.258
h_scaling 1.000</title>
<path fill="none" stroke="red" stroke-width="2.59" d="M364.59,-525.92C357.01,-510.28 348.72,-493.17 340.91,-477.05"/>
<polygon fill="red" stroke="red" stroke-width="2.59" points="343.89,-475.17 336.38,-467.7 337.59,-478.22 343.89,-475.17"/>
<text text-anchor="middle" x="364" y="-494.64" font-family="Times,serif" font-size="9.00">0.829</text>
</g>
<!-- key 32744
bias &#45;0.625
h_scaling 0.546&#45;&gt;output
bias &#45;1.000
h_scaling 0.384 -->
<g id="edge18" class="edge">
<title>key 32744
bias &#45;0.625
h_scaling 0.546&#45;&gt;output
bias &#45;1.000
h_scaling 0.384</title>
<path fill="none" stroke="red" stroke-width="1.21" d="M180.89,-885.37C205.54,-861.92 236.05,-832.88 261.74,-808.44"/>
<polygon fill="red" stroke="red" stroke-width="1.21" points="264.36,-810.77 269.2,-801.34 259.54,-805.7 264.36,-810.77"/>
<text text-anchor="middle" x="239" y="-841.2" font-family="Times,serif" font-size="9.00">0.371</text>
</g>
<!-- key 32744
bias &#45;0.625
h_scaling 0.546&#45;&gt;key 32744
bias &#45;0.625
h_scaling 0.546 -->
<g id="edge15" class="edge">
<title>key 32744
bias &#45;0.625
h_scaling 0.546&#45;&gt;key 32744
bias &#45;0.625
h_scaling 0.546</title>
<path fill="none" stroke="red" stroke-width="2.93" d="M196.94,-945.33C208.5,-943.45 216.64,-938.35 216.64,-930.04 216.64,-924.32 212.79,-920.12 206.63,-917.45"/>
<polygon fill="red" stroke="red" stroke-width="2.93" points="207.52,-914.06 196.94,-914.74 205.63,-920.8 207.52,-914.06"/>
<text text-anchor="middle" x="230.64" y="-927.84" font-family="Times,serif" font-size="9.00">0.943</text>
</g>
<!-- key 32744
bias &#45;0.625
h_scaling 0.546&#45;&gt;key 14379
bias &#45;0.337
h_scaling 0.640 -->
<g id="edge14" class="edge">
<title>key 32744
bias &#45;0.625
h_scaling 0.546&#45;&gt;key 14379
bias &#45;0.337
h_scaling 0.640</title>
<path fill="none" stroke="blue" stroke-width="1.44" d="M122.69,-867.47C117.22,-834.98 112,-794.36 112,-757.76 112,-757.76 112,-757.76 112,-409.2 112,-373.51 122.63,-335.44 134.37,-304.28"/>
<polygon fill="blue" stroke="blue" stroke-width="1.44" points="137.67,-305.42 138.03,-294.84 131.15,-302.89 137.67,-305.42"/>
<text text-anchor="middle" x="127.5" y="-581.28" font-family="Times,serif" font-size="9.00">&#45;0.447</text>
</g>
<!-- key 32744
bias &#45;0.625
h_scaling 0.546&#45;&gt;key 3694
bias &#45;0.496
h_scaling 0.059 -->
<g id="edge22" class="edge">
<title>key 32744
bias &#45;0.625
h_scaling 0.546&#45;&gt;key 3694
bias &#45;0.496
h_scaling 0.059</title>
<path fill="none" stroke="red" stroke-width="0.65" d="M82.81,-892.91C44.82,-861.96 0,-813.6 0,-757.76 0,-757.76 0,-757.76 0,-235.92 0,-100.07 201.51,-71.07 314.09,-65.47"/>
<polygon fill="red" stroke="red" stroke-width="0.65" points="314.53,-68.95 324.36,-65.01 314.22,-61.96 314.53,-68.95"/>
<text text-anchor="middle" x="14" y="-494.64" font-family="Times,serif" font-size="9.00">0.183</text>
</g>
<!-- key 14379
bias &#45;0.337
h_scaling 0.640&#45;&gt;key 6304
bias 0.077
h_scaling 0.020 -->
<g id="edge7" class="edge">
<title>key 14379
bias &#45;0.337
h_scaling 0.640&#45;&gt;key 6304
bias 0.077
h_scaling 0.020</title>
<path fill="none" stroke="blue" stroke-width="2.57" d="M159.66,-300.4C158.63,-352.35 165.52,-425.36 205,-473.84 240.55,-517.48 275.14,-490.2 323,-519.84 328.64,-523.33 334.24,-527.31 339.67,-531.53"/>
<polygon fill="blue" stroke="blue" stroke-width="2.57" points="337.52,-534.29 347.49,-537.86 341.92,-528.85 337.52,-534.29"/>
<text text-anchor="middle" x="220.5" y="-408" font-family="Times,serif" font-size="9.00">&#45;0.824</text>
</g>
<!-- key 14379
bias &#45;0.337
h_scaling 0.640&#45;&gt;key 14379
bias &#45;0.337
h_scaling 0.640 -->
<g id="edge9" class="edge">
<title>key 14379
bias &#45;0.337
h_scaling 0.640&#45;&gt;key 14379
bias &#45;0.337
h_scaling 0.640</title>
<path fill="none" stroke="red" stroke-width="2.3" d="M226.94,-252.22C238.5,-250.33 246.64,-245.23 246.64,-236.92 246.64,-231.2 242.79,-227.01 236.63,-224.33"/>
<polygon fill="red" stroke="red" stroke-width="2.3" points="237.52,-220.94 226.94,-221.62 235.63,-227.68 237.52,-220.94"/>
<text text-anchor="middle" x="260.64" y="-234.72" font-family="Times,serif" font-size="9.00">0.735</text>
</g>
<!-- key 14379
bias &#45;0.337
h_scaling 0.640&#45;&gt;key 3694
bias &#45;0.496
h_scaling 0.059 -->
<g id="edge11" class="edge">
<title>key 14379
bias &#45;0.337
h_scaling 0.640&#45;&gt;key 3694
bias &#45;0.496
h_scaling 0.059</title>
<path fill="none" stroke="blue" stroke-width="2.86" d="M214.31,-196.6C234.57,-180.56 258.32,-161.91 280,-145.28 295.81,-133.15 313.05,-120.17 329.02,-108.24"/>
<polygon fill="blue" stroke="blue" stroke-width="2.86" points="331.32,-110.89 337.25,-102.11 327.14,-105.28 331.32,-110.89"/>
<text text-anchor="middle" x="295.5" y="-148.08" font-family="Times,serif" font-size="9.00">&#45;0.920</text>
</g>
<!-- key 3694
bias &#45;0.496
h_scaling 0.059&#45;&gt;output
bias &#45;1.000
h_scaling 0.384 -->
<g id="edge1" class="edge">
<title>key 3694
bias &#45;0.496
h_scaling 0.059&#45;&gt;output
bias &#45;1.000
h_scaling 0.384</title>
<path fill="none" stroke="red" stroke-width="2.9" d="M431.11,-110.56C457.02,-143.01 485,-188.93 485,-235.92 485,-584.48 485,-584.48 485,-584.48 485,-646.2 428.69,-693.61 380.89,-722.74"/>
<polygon fill="red" stroke="red" stroke-width="2.9" points="378.9,-719.85 372.08,-727.96 382.47,-725.87 378.9,-719.85"/>
<text text-anchor="middle" x="499" y="-408" font-family="Times,serif" font-size="9.00">0.932</text>
</g>
<!-- key 3694
bias &#45;0.496
h_scaling 0.059&#45;&gt;key 6304
bias 0.077
h_scaling 0.020 -->
<g id="edge8" class="edge">
<title>key 3694
bias &#45;0.496
h_scaling 0.059&#45;&gt;key 6304
bias 0.077
h_scaling 0.020</title>
<path fill="none" stroke="red" stroke-width="2.43" d="M388.1,-127.3C388.21,-180.77 388.46,-259.72 389,-328.56 389.48,-389.5 390.31,-458.66 390.98,-509.39"/>
<polygon fill="red" stroke="red" stroke-width="2.43" points="387.48,-509.66 391.12,-519.61 394.48,-509.56 387.48,-509.66"/>
<text text-anchor="middle" x="403" y="-321.36" font-family="Times,serif" font-size="9.00">0.776</text>
</g>
<!-- key 3694
bias &#45;0.496
h_scaling 0.059&#45;&gt;key 3694
bias &#45;0.496
h_scaling 0.059 -->
<g id="edge5" class="edge">
<title>key 3694
bias &#45;0.496
h_scaling 0.059&#45;&gt;key 3694
bias &#45;0.496
h_scaling 0.059</title>
<path fill="none" stroke="red" stroke-width="0.71" d="M449.94,-78.94C461.5,-77.05 469.64,-71.95 469.64,-63.64 469.64,-57.92 465.79,-53.73 459.63,-51.05"/>
<polygon fill="red" stroke="red" stroke-width="0.71" points="460.52,-47.66 449.94,-48.34 458.63,-54.4 460.52,-47.66"/>
<text text-anchor="middle" x="483.64" y="-61.44" font-family="Times,serif" font-size="9.00">0.204</text>
</g>
<!-- key 44570
bias &#45;0.258
h_scaling 1.000&#45;&gt;key 14379
bias &#45;0.337
h_scaling 0.640 -->
<g id="edge17" class="edge">
<title>key 44570
bias &#45;0.258
h_scaling 1.000&#45;&gt;key 14379
bias &#45;0.337
h_scaling 0.640</title>
<path fill="none" stroke="red" stroke-width="0.9" d="M268.5,-361.03C251.02,-340.23 230.45,-315.76 212.27,-294.14"/>
<polygon fill="red" stroke="red" stroke-width="0.9" points="214.8,-291.72 205.69,-286.32 209.45,-296.22 214.8,-291.72"/>
<text text-anchor="middle" x="251" y="-321.36" font-family="Times,serif" font-size="9.00">0.266</text>
</g>
<!-- key 44570
bias &#45;0.258
h_scaling 1.000&#45;&gt;key 3694
bias &#45;0.496
h_scaling 0.059 -->
<g id="edge21" class="edge">
<title>key 44570
bias &#45;0.258
h_scaling 1.000&#45;&gt;key 3694
bias &#45;0.496
h_scaling 0.059</title>
<path fill="none" stroke="red" stroke-width="1.05" d="M315.1,-346.85C320.68,-298.85 330.47,-231.14 346,-173.28 349.65,-159.69 354.42,-145.45 359.43,-131.93"/>
<polygon fill="red" stroke="red" stroke-width="1.05" points="362.83,-132.82 363.11,-122.23 356.29,-130.34 362.83,-132.82"/>
<text text-anchor="middle" x="360" y="-234.72" font-family="Times,serif" font-size="9.00">0.316</text>
</g>
</g>
</svg>
