<?xml version="1.0" encoding="UTF-8" standalone="no"?>
<!DOCTYPE svg PUBLIC "-//W3C//DTD SVG 1.1//EN"
 "http://www.w3.org/Graphics/SVG/1.1/DTD/svg11.dtd">
<!-- Generated by graphviz version 2.43.0 (0)
 -->
<!-- Title: %3 Pages: 1 -->
<svg width="464pt" height="883pt"
 viewBox="0.00 0.00 464.00 883.40" xmlns="http://www.w3.org/2000/svg" xmlns:xlink="http://www.w3.org/1999/xlink">
<g id="graph0" class="graph" transform="scale(1 1) rotate(0) translate(4 879.4)">
<title>%3</title>
<polygon fill="white" stroke="transparent" points="-4,4 -4,-879.4 460,-879.4 460,4 -4,4"/>
<!-- ready -->
<g id="node1" class="node">
<title>ready</title>
<polygon fill="yellow" stroke="black" points="273.5,-875.4 230.5,-875.4 230.5,-857.4 273.5,-857.4 273.5,-875.4"/>
<text text-anchor="middle" x="252" y="-864.2" font-family="Times,serif" font-size="9.00">ready</text>
</g>
<!-- key 801
bias 0.000
h_scaling 0.338 -->
<g id="node4" class="node">
<title>key 801
bias 0.000
h_scaling 0.338</title>
<ellipse fill="white" stroke="black" cx="252" cy="-747.76" rx="63.78" ry="63.78"/>
<text text-anchor="middle" x="252" y="-755.56" font-family="Times,serif" font-size="9.00">key 801</text>
<text text-anchor="middle" x="252" y="-745.56" font-family="Times,serif" font-size="9.00">bias 0.000</text>
<text text-anchor="middle" x="252" y="-735.56" font-family="Times,serif" font-size="9.00">h_scaling 0.338</text>
</g>
<!-- ready&#45;&gt;key 801
bias 0.000
h_scaling 0.338 -->
<g id="edge18" class="edge">
<title>ready&#45;&gt;key 801
bias 0.000
h_scaling 0.338</title>
<path fill="none" stroke="blue" stroke-width="0.1" d="M252,-857.38C252,-849.35 252,-836.13 252,-821.63"/>
<polygon fill="blue" stroke="blue" stroke-width="0.1" points="255.5,-821.43 252,-811.43 248.5,-821.43 255.5,-821.43"/>
</g>
<!-- key 6093
bias 0.000
h_scaling 0.047 -->
<g id="node6" class="node">
<title>key 6093
bias 0.000
h_scaling 0.047</title>
<ellipse fill="white" stroke="black" cx="316" cy="-63.64" rx="63.78" ry="63.78"/>
<text text-anchor="middle" x="316" y="-71.44" font-family="Times,serif" font-size="9.00">key 6093</text>
<text text-anchor="middle" x="316" y="-61.44" font-family="Times,serif" font-size="9.00">bias 0.000</text>
<text text-anchor="middle" x="316" y="-51.44" font-family="Times,serif" font-size="9.00">h_scaling 0.047</text>
</g>
<!-- ready&#45;&gt;key 6093
bias 0.000
h_scaling 0.047 -->
<g id="edge13" class="edge">
<title>ready&#45;&gt;key 6093
bias 0.000
h_scaling 0.047</title>
<path fill="none" stroke="red" stroke-width="0.47" d="M273.58,-861.62C320.58,-852.02 428,-822.07 428,-748.76 428,-748.76 428,-748.76 428,-226.92 428,-182.9 399.74,-142.15 371.61,-112.5"/>
<polygon fill="red" stroke="red" stroke-width="0.47" points="373.97,-109.91 364.47,-105.21 368.96,-114.8 373.97,-109.91"/>
<text text-anchor="middle" x="442" y="-485.64" font-family="Times,serif" font-size="9.00">0.012</text>
</g>
<!-- key 5019
bias 0.000
h_scaling 0.436 -->
<g id="node7" class="node">
<title>key 5019
bias 0.000
h_scaling 0.436</title>
<ellipse fill="white" stroke="black" cx="176" cy="-401.2" rx="63.78" ry="63.78"/>
<text text-anchor="middle" x="176" y="-409" font-family="Times,serif" font-size="9.00">key 5019</text>
<text text-anchor="middle" x="176" y="-399" font-family="Times,serif" font-size="9.00">bias 0.000</text>
<text text-anchor="middle" x="176" y="-389" font-family="Times,serif" font-size="9.00">h_scaling 0.436</text>
</g>
<!-- ready&#45;&gt;key 5019
bias 0.000
h_scaling 0.436 -->
<g id="edge8" class="edge">
<title>ready&#45;&gt;key 5019
bias 0.000
h_scaling 0.436</title>
<path fill="none" stroke="red" stroke-width="0.41" d="M234.04,-857.28C216.91,-848.53 191.86,-832.91 179,-811.4 172.11,-799.87 136.79,-505.29 136,-492.84 135.72,-488.4 134.99,-487.16 136,-482.84 137.27,-477.42 138.96,-471.94 140.93,-466.54"/>
<polygon fill="red" stroke="red" stroke-width="0.41" points="144.32,-467.49 144.75,-456.9 137.81,-464.91 144.32,-467.49"/>
<text text-anchor="middle" x="170" y="-658.92" font-family="Times,serif" font-size="9.00">0.010</text>
</g>
<!-- go -->
<g id="node2" class="node">
<title>go</title>
<polygon fill="green" stroke="black" points="60,-875.4 32,-875.4 32,-857.4 60,-857.4 60,-875.4"/>
<text text-anchor="middle" x="46" y="-864.2" font-family="Times,serif" font-size="9.00">go</text>
</g>
<!-- go&#45;&gt;key 801
bias 0.000
h_scaling 0.338 -->
<g id="edge3" class="edge">
<title>go&#45;&gt;key 801
bias 0.000
h_scaling 0.338</title>
<path fill="none" stroke="red" stroke-width="0.66" d="M60.16,-857.38C86.15,-842.66 142.94,-810.5 188.03,-784.98"/>
<polygon fill="red" stroke="red" stroke-width="0.66" points="189.9,-787.94 196.88,-779.97 186.45,-781.85 189.9,-787.94"/>
<text text-anchor="middle" x="120" y="-832.2" font-family="Times,serif" font-size="9.00">0.019</text>
</g>
<!-- key 802
bias 0.000
h_scaling 0.213 -->
<g id="node5" class="node">
<title>key 802
bias 0.000
h_scaling 0.213</title>
<ellipse fill="white" stroke="black" cx="200" cy="-227.92" rx="63.78" ry="63.78"/>
<text text-anchor="middle" x="200" y="-235.72" font-family="Times,serif" font-size="9.00">key 802</text>
<text text-anchor="middle" x="200" y="-225.72" font-family="Times,serif" font-size="9.00">bias 0.000</text>
<text text-anchor="middle" x="200" y="-215.72" font-family="Times,serif" font-size="9.00">h_scaling 0.213</text>
</g>
<!-- go&#45;&gt;key 802
bias 0.000
h_scaling 0.213 -->
<g id="edge1" class="edge">
<title>go&#45;&gt;key 802
bias 0.000
h_scaling 0.213</title>
<path fill="none" stroke="red" stroke-width="0.7" d="M46,-857.19C46,-838.15 46,-789.46 46,-748.76 46,-748.76 46,-748.76 46,-400.2 46,-343.03 94.03,-296.29 136.45,-266.17"/>
<polygon fill="red" stroke="red" stroke-width="0.7" points="138.6,-268.93 144.84,-260.37 134.62,-263.17 138.6,-268.93"/>
<text text-anchor="middle" x="60" y="-572.28" font-family="Times,serif" font-size="9.00">0.020</text>
</g>
<!-- go&#45;&gt;key 6093
bias 0.000
h_scaling 0.047 -->
<g id="edge12" class="edge">
<title>go&#45;&gt;key 6093
bias 0.000
h_scaling 0.047</title>
<path fill="none" stroke="blue" stroke-width="0.1" d="M40.36,-857.34C28.08,-838.99 0,-792.29 0,-748.76 0,-748.76 0,-748.76 0,-226.92 0,-118.47 149.09,-82.44 242.46,-70.51"/>
<polygon fill="blue" stroke="blue" stroke-width="0.1" points="242.93,-73.98 252.43,-69.3 242.08,-67.03 242.93,-73.98"/>
</g>
<!-- output
bias 0.000
h_scaling 0.530 -->
<g id="node3" class="node">
<title>output
bias 0.000
h_scaling 0.530</title>
<ellipse fill="lightblue" stroke="black" cx="294" cy="-574.48" rx="63.78" ry="63.78"/>
<text text-anchor="middle" x="294" y="-582.28" font-family="Times,serif" font-size="9.00">output</text>
<text text-anchor="middle" x="294" y="-572.28" font-family="Times,serif" font-size="9.00">bias 0.000</text>
<text text-anchor="middle" x="294" y="-562.28" font-family="Times,serif" font-size="9.00">h_scaling 0.530</text>
</g>
<!-- output
bias 0.000
h_scaling 0.530&#45;&gt;key 5019
bias 0.000
h_scaling 0.436 -->
<g id="edge17" class="edge">
<title>output
bias 0.000
h_scaling 0.530&#45;&gt;key 5019
bias 0.000
h_scaling 0.436</title>
<path fill="none" stroke="blue" stroke-width="0.1" d="M258.28,-521.62C245.45,-503.01 230.88,-481.86 217.61,-462.59"/>
<polygon fill="blue" stroke="blue" stroke-width="0.1" points="220.36,-460.42 211.81,-454.17 214.6,-464.39 220.36,-460.42"/>
</g>
<!-- key 801
bias 0.000
h_scaling 0.338&#45;&gt;output
bias 0.000
h_scaling 0.530 -->
<g id="edge2" class="edge">
<title>key 801
bias 0.000
h_scaling 0.338&#45;&gt;output
bias 0.000
h_scaling 0.530</title>
<path fill="none" stroke="blue" stroke-width="0.1" d="M266.93,-685.89C270.06,-673.09 273.4,-659.49 276.62,-646.36"/>
<polygon fill="blue" stroke="blue" stroke-width="0.1" points="280.07,-646.98 279.05,-636.44 273.27,-645.32 280.07,-646.98"/>
</g>
<!-- key 801
bias 0.000
h_scaling 0.338&#45;&gt;key 801
bias 0.000
h_scaling 0.338 -->
<g id="edge15" class="edge">
<title>key 801
bias 0.000
h_scaling 0.338&#45;&gt;key 801
bias 0.000
h_scaling 0.338</title>
<path fill="none" stroke="red" stroke-width="2.28" d="M313.94,-763.05C325.5,-761.17 333.64,-756.07 333.64,-747.76 333.64,-742.04 329.79,-737.84 323.63,-735.17"/>
<polygon fill="red" stroke="red" stroke-width="2.28" points="324.52,-731.78 313.94,-732.46 322.63,-738.52 324.52,-731.78"/>
<text text-anchor="middle" x="347.64" y="-745.56" font-family="Times,serif" font-size="9.00">0.073</text>
</g>
<!-- key 802
bias 0.000
h_scaling 0.213&#45;&gt;output
bias 0.000
h_scaling 0.530 -->
<g id="edge16" class="edge">
<title>key 802
bias 0.000
h_scaling 0.213&#45;&gt;output
bias 0.000
h_scaling 0.530</title>
<path fill="none" stroke="blue" stroke-width="0.1" d="M248.25,-269.7C266.58,-288.29 285.35,-311.87 295,-337.56 314.7,-390 313.06,-453.75 307.27,-501.75"/>
<polygon fill="blue" stroke="blue" stroke-width="0.1" points="303.78,-501.38 305.97,-511.74 310.73,-502.28 303.78,-501.38"/>
</g>
<!-- key 802
bias 0.000
h_scaling 0.213&#45;&gt;key 801
bias 0.000
h_scaling 0.338 -->
<g id="edge4" class="edge">
<title>key 802
bias 0.000
h_scaling 0.213&#45;&gt;key 801
bias 0.000
h_scaling 0.338</title>
<path fill="none" stroke="red" stroke-width="1.7" d="M151.27,-269.01C132.39,-287.64 112.96,-311.45 103,-337.56 82.84,-390.41 89.38,-409.93 103,-464.84 123.46,-547.34 172.97,-632.28 209.33,-687.07"/>
<polygon fill="red" stroke="red" stroke-width="1.7" points="206.57,-689.24 215.05,-695.6 212.39,-685.34 206.57,-689.24"/>
<text text-anchor="middle" x="124" y="-485.64" font-family="Times,serif" font-size="9.00">0.053</text>
</g>
<!-- key 802
bias 0.000
h_scaling 0.213&#45;&gt;key 802
bias 0.000
h_scaling 0.213 -->
<g id="edge9" class="edge">
<title>key 802
bias 0.000
h_scaling 0.213&#45;&gt;key 802
bias 0.000
h_scaling 0.213</title>
<path fill="none" stroke="red" stroke-width="1.29" d="M262.29,-242.45C273.66,-240.61 281.64,-235.77 281.64,-227.92 281.64,-222.65 278.04,-218.73 272.23,-216.17"/>
<polygon fill="red" stroke="red" stroke-width="1.29" points="272.87,-212.71 262.29,-213.39 270.98,-219.45 272.87,-212.71"/>
<text text-anchor="middle" x="295.64" y="-225.72" font-family="Times,serif" font-size="9.00">0.040</text>
</g>
<!-- key 802
bias 0.000
h_scaling 0.213&#45;&gt;key 6093
bias 0.000
h_scaling 0.047 -->
<g id="edge6" class="edge">
<title>key 802
bias 0.000
h_scaling 0.213&#45;&gt;key 6093
bias 0.000
h_scaling 0.047</title>
<path fill="none" stroke="blue" stroke-width="0.1" d="M232.22,-172.88C243.73,-156.16 256.9,-137.71 269.36,-120.85"/>
<polygon fill="blue" stroke="blue" stroke-width="0.1" points="272.25,-122.83 275.41,-112.71 266.64,-118.65 272.25,-122.83"/>
</g>
<!-- key 6093
bias 0.000
h_scaling 0.047&#45;&gt;output
bias 0.000
h_scaling 0.530 -->
<g id="edge10" class="edge">
<title>key 6093
bias 0.000
h_scaling 0.047&#45;&gt;output
bias 0.000
h_scaling 0.530</title>
<path fill="none" stroke="red" stroke-width="0.37" d="M318.09,-127.35C318.44,-139.6 318.76,-152.34 319,-164.28 321.8,-305.84 321.33,-341.25 322,-482.84 322.02,-487.28 322.74,-488.46 322,-492.84 321.31,-496.95 320.43,-501.13 319.41,-505.31"/>
<polygon fill="red" stroke="red" stroke-width="0.37" points="316.01,-504.49 316.82,-515.06 322.77,-506.29 316.01,-504.49"/>
<text text-anchor="middle" x="335" y="-312.36" font-family="Times,serif" font-size="9.00">0.009</text>
</g>
<!-- key 6093
bias 0.000
h_scaling 0.047&#45;&gt;key 801
bias 0.000
h_scaling 0.338 -->
<g id="edge11" class="edge">
<title>key 6093
bias 0.000
h_scaling 0.047&#45;&gt;key 801
bias 0.000
h_scaling 0.338</title>
<path fill="none" stroke="blue" stroke-width="0.1" d="M352.78,-115.69C371.36,-146.4 390,-187.13 390,-226.92 390,-575.48 390,-575.48 390,-575.48 390,-628.42 349.53,-674.25 312.42,-705.15"/>
<polygon fill="blue" stroke="blue" stroke-width="0.1" points="310.13,-702.5 304.57,-711.51 314.54,-707.94 310.13,-702.5"/>
</g>
<!-- key 6093
bias 0.000
h_scaling 0.047&#45;&gt;key 802
bias 0.000
h_scaling 0.213 -->
<g id="edge7" class="edge">
<title>key 6093
bias 0.000
h_scaling 0.047&#45;&gt;key 802
bias 0.000
h_scaling 0.213</title>
<path fill="none" stroke="blue" stroke-width="0.1" d="M283.78,-118.67C272.31,-135.34 259.18,-153.73 246.75,-170.55"/>
<polygon fill="blue" stroke="blue" stroke-width="0.1" points="243.88,-168.56 240.72,-178.67 249.5,-172.73 243.88,-168.56"/>
</g>
<!-- key 6093
bias 0.000
h_scaling 0.047&#45;&gt;key 6093
bias 0.000
h_scaling 0.047 -->
<g id="edge14" class="edge">
<title>key 6093
bias 0.000
h_scaling 0.047&#45;&gt;key 6093
bias 0.000
h_scaling 0.047</title>
<path fill="none" stroke="red" stroke-width="0.82" d="M378.29,-78.17C389.66,-76.33 397.64,-71.49 397.64,-63.64 397.64,-58.37 394.04,-54.45 388.23,-51.89"/>
<polygon fill="red" stroke="red" stroke-width="0.82" points="388.87,-48.43 378.29,-49.11 386.98,-55.18 388.87,-48.43"/>
<text text-anchor="middle" x="411.64" y="-61.44" font-family="Times,serif" font-size="9.00">0.024</text>
</g>
<!-- key 5019
bias 0.000
h_scaling 0.436&#45;&gt;key 802
bias 0.000
h_scaling 0.213 -->
<g id="edge5" class="edge">
<title>key 5019
bias 0.000
h_scaling 0.436&#45;&gt;key 802
bias 0.000
h_scaling 0.213</title>
<path fill="none" stroke="blue" stroke-width="0.1" d="M184.73,-337.88C186.4,-326 188.15,-313.47 189.86,-301.3"/>
<polygon fill="blue" stroke="blue" stroke-width="0.1" points="193.35,-301.58 191.27,-291.19 186.42,-300.61 193.35,-301.58"/>
</g>
<!-- key 5019
bias 0.000
h_scaling 0.436&#45;&gt;key 5019
bias 0.000
h_scaling 0.436 -->
<g id="edge19" class="edge">
<title>key 5019
bias 0.000
h_scaling 0.436&#45;&gt;key 5019
bias 0.000
h_scaling 0.436</title>
<path fill="none" stroke="red" stroke-width="0.56" d="M237.94,-416.5C249.5,-414.61 257.64,-409.51 257.64,-401.2 257.64,-395.48 253.79,-391.29 247.63,-388.61"/>
<polygon fill="red" stroke="red" stroke-width="0.56" points="248.52,-385.22 237.94,-385.9 246.63,-391.96 248.52,-385.22"/>
<text text-anchor="middle" x="271.64" y="-399" font-family="Times,serif" font-size="9.00">0.015</text>
</g>
</g>
</svg>
