<?xml version="1.0" encoding="UTF-8" standalone="no"?>
<!DOCTYPE svg PUBLIC "-//W3C//DTD SVG 1.1//EN"
 "http://www.w3.org/Graphics/SVG/1.1/DTD/svg11.dtd">
<!-- Generated by graphviz version 2.43.0 (0)
 -->
<!-- Title: %3 Pages: 1 -->
<svg width="467pt" height="902pt"
 viewBox="0.00 0.00 466.64 902.40" xmlns="http://www.w3.org/2000/svg" xmlns:xlink="http://www.w3.org/1999/xlink">
<g id="graph0" class="graph" transform="scale(1 1) rotate(0) translate(4 898.4)">
<title>%3</title>
<polygon fill="white" stroke="transparent" points="-4,4 -4,-898.4 462.64,-898.4 462.64,4 -4,4"/>
<!-- ready
output 0.000 -->
<g id="node1" class="node">
<title>ready
output 0.000</title>
<polygon fill="yellow" stroke="black" points="274.5,-894.4 197.5,-894.4 197.5,-866.4 274.5,-866.4 274.5,-894.4"/>
<text text-anchor="middle" x="236" y="-883.2" font-family="Times,serif" font-size="9.00">ready</text>
<text text-anchor="middle" x="236" y="-873.2" font-family="Times,serif" font-size="9.00">output 0.000</text>
</g>
<!-- key 169025
bias &#45;0.402
h_scaling 1.000
output 0.221 -->
<g id="node4" class="node">
<title>key 169025
bias &#45;0.402
h_scaling 1.000
output 0.221</title>
<ellipse fill="white" stroke="black" cx="236" cy="-756.76" rx="63.78" ry="63.78"/>
<text text-anchor="middle" x="236" y="-769.56" font-family="Times,serif" font-size="9.00">key 169025</text>
<text text-anchor="middle" x="236" y="-759.56" font-family="Times,serif" font-size="9.00">bias &#45;0.402</text>
<text text-anchor="middle" x="236" y="-749.56" font-family="Times,serif" font-size="9.00">h_scaling 1.000</text>
<text text-anchor="middle" x="236" y="-739.56" font-family="Times,serif" font-size="9.00">output 0.221</text>
</g>
<!-- ready
output 0.000&#45;&gt;key 169025
bias &#45;0.402
h_scaling 1.000
output 0.221 -->
<g id="edge11" class="edge">
<title>ready
output 0.000&#45;&gt;key 169025
bias &#45;0.402
h_scaling 1.000
output 0.221</title>
<path fill="none" stroke="red" stroke-width="0.1" d="M236,-866.38C236,-857.3 236,-844.39 236,-830.63"/>
<polygon fill="red" stroke="red" stroke-width="0.1" points="239.5,-830.49 236,-820.49 232.5,-830.49 239.5,-830.49"/>
<text text-anchor="middle" x="250" y="-841.2" font-family="Times,serif" font-size="9.00">0.986</text>
</g>
<!-- go
output 0.000 -->
<g id="node2" class="node">
<title>go
output 0.000</title>
<polygon fill="green" stroke="black" points="161.5,-424.2 84.5,-424.2 84.5,-396.2 161.5,-396.2 161.5,-424.2"/>
<text text-anchor="middle" x="123" y="-413" font-family="Times,serif" font-size="9.00">go</text>
<text text-anchor="middle" x="123" y="-403" font-family="Times,serif" font-size="9.00">output 0.000</text>
</g>
<!-- key 2851
bias &#45;0.434
h_scaling 1.000
output 0.273 -->
<g id="node5" class="node">
<title>key 2851
bias &#45;0.434
h_scaling 1.000
output 0.273</title>
<ellipse fill="white" stroke="black" cx="217" cy="-236.92" rx="63.78" ry="63.78"/>
<text text-anchor="middle" x="217" y="-249.72" font-family="Times,serif" font-size="9.00">key 2851</text>
<text text-anchor="middle" x="217" y="-239.72" font-family="Times,serif" font-size="9.00">bias &#45;0.434</text>
<text text-anchor="middle" x="217" y="-229.72" font-family="Times,serif" font-size="9.00">h_scaling 1.000</text>
<text text-anchor="middle" x="217" y="-219.72" font-family="Times,serif" font-size="9.00">output 0.273</text>
</g>
<!-- go
output 0.000&#45;&gt;key 2851
bias &#45;0.434
h_scaling 1.000
output 0.273 -->
<g id="edge2" class="edge">
<title>go
output 0.000&#45;&gt;key 2851
bias &#45;0.434
h_scaling 1.000
output 0.273</title>
<path fill="none" stroke="red" stroke-width="0.1" d="M124.8,-395.92C127.68,-377.64 134.44,-344.07 148,-318.56 153.1,-308.97 159.51,-299.52 166.35,-290.65"/>
<polygon fill="red" stroke="red" stroke-width="0.1" points="169.21,-292.68 172.74,-282.68 163.75,-288.3 169.21,-292.68"/>
<text text-anchor="middle" x="162" y="-321.36" font-family="Times,serif" font-size="9.00">0.608</text>
</g>
<!-- key 31048
bias &#45;0.003
h_scaling 1.000
output 0.972 -->
<g id="node7" class="node">
<title>key 31048
bias &#45;0.003
h_scaling 1.000
output 0.972</title>
<ellipse fill="white" stroke="black" cx="104" cy="-63.64" rx="63.78" ry="63.78"/>
<text text-anchor="middle" x="104" y="-76.44" font-family="Times,serif" font-size="9.00">key 31048</text>
<text text-anchor="middle" x="104" y="-66.44" font-family="Times,serif" font-size="9.00">bias &#45;0.003</text>
<text text-anchor="middle" x="104" y="-56.44" font-family="Times,serif" font-size="9.00">h_scaling 1.000</text>
<text text-anchor="middle" x="104" y="-46.44" font-family="Times,serif" font-size="9.00">output 0.972</text>
</g>
<!-- go
output 0.000&#45;&gt;key 31048
bias &#45;0.003
h_scaling 1.000
output 0.972 -->
<g id="edge7" class="edge">
<title>go
output 0.000&#45;&gt;key 31048
bias &#45;0.003
h_scaling 1.000
output 0.972</title>
<path fill="none" stroke="blue" stroke-width="0.1" d="M121.57,-396.17C119.39,-375.8 115.25,-335.15 113,-300.56 109.44,-245.88 107.15,-183.97 105.76,-137.29"/>
<polygon fill="blue" stroke="blue" stroke-width="0.1" points="109.26,-137.17 105.47,-127.27 102.27,-137.37 109.26,-137.17"/>
<text text-anchor="middle" x="128.5" y="-234.72" font-family="Times,serif" font-size="9.00">&#45;0.917</text>
</g>
<!-- output
bias &#45;0.386
h_scaling 1.000
output 0.115 -->
<g id="node3" class="node">
<title>output
bias &#45;0.386
h_scaling 1.000
output 0.115</title>
<ellipse fill="lightblue" stroke="black" cx="282" cy="-583.48" rx="63.78" ry="63.78"/>
<text text-anchor="middle" x="282" y="-596.28" font-family="Times,serif" font-size="9.00">output</text>
<text text-anchor="middle" x="282" y="-586.28" font-family="Times,serif" font-size="9.00">bias &#45;0.386</text>
<text text-anchor="middle" x="282" y="-576.28" font-family="Times,serif" font-size="9.00">h_scaling 1.000</text>
<text text-anchor="middle" x="282" y="-566.28" font-family="Times,serif" font-size="9.00">output 0.115</text>
</g>
<!-- key 134275
bias &#45;0.481
h_scaling 1.000
output 0.788 -->
<g id="node6" class="node">
<title>key 134275
bias &#45;0.481
h_scaling 1.000
output 0.788</title>
<ellipse fill="white" stroke="black" cx="349" cy="-410.2" rx="63.78" ry="63.78"/>
<text text-anchor="middle" x="349" y="-423" font-family="Times,serif" font-size="9.00">key 134275</text>
<text text-anchor="middle" x="349" y="-413" font-family="Times,serif" font-size="9.00">bias &#45;0.481</text>
<text text-anchor="middle" x="349" y="-403" font-family="Times,serif" font-size="9.00">h_scaling 1.000</text>
<text text-anchor="middle" x="349" y="-393" font-family="Times,serif" font-size="9.00">output 0.788</text>
</g>
<!-- output
bias &#45;0.386
h_scaling 1.000
output 0.115&#45;&gt;key 134275
bias &#45;0.481
h_scaling 1.000
output 0.788 -->
<g id="edge8" class="edge">
<title>output
bias &#45;0.386
h_scaling 1.000
output 0.115&#45;&gt;key 134275
bias &#45;0.481
h_scaling 1.000
output 0.788</title>
<path fill="none" stroke="red" stroke-width="0.1" d="M306.86,-524.48C310,-516.89 313.11,-509.19 316,-501.84 318.8,-494.71 321.65,-487.24 324.44,-479.78"/>
<polygon fill="red" stroke="red" stroke-width="0.1" points="327.74,-480.95 327.94,-470.35 321.18,-478.51 327.74,-480.95"/>
<text text-anchor="middle" x="333" y="-494.64" font-family="Times,serif" font-size="9.00">0.901</text>
</g>
<!-- key 169025
bias &#45;0.402
h_scaling 1.000
output 0.221&#45;&gt;output
bias &#45;0.386
h_scaling 1.000
output 0.115 -->
<g id="edge16" class="edge">
<title>key 169025
bias &#45;0.402
h_scaling 1.000
output 0.221&#45;&gt;output
bias &#45;0.386
h_scaling 1.000
output 0.115</title>
<path fill="none" stroke="red" stroke-width="0.1" d="M252.35,-694.89C255.8,-682.02 259.48,-668.33 263.03,-655.13"/>
<polygon fill="red" stroke="red" stroke-width="0.1" points="266.49,-655.72 265.71,-645.15 259.73,-653.9 266.49,-655.72"/>
<text text-anchor="middle" x="273" y="-667.92" font-family="Times,serif" font-size="9.00">0.475</text>
</g>
<!-- key 169025
bias &#45;0.402
h_scaling 1.000
output 0.221&#45;&gt;key 169025
bias &#45;0.402
h_scaling 1.000
output 0.221 -->
<g id="edge14" class="edge">
<title>key 169025
bias &#45;0.402
h_scaling 1.000
output 0.221&#45;&gt;key 169025
bias &#45;0.402
h_scaling 1.000
output 0.221</title>
<path fill="none" stroke="red" stroke-width="0.1" d="M297.94,-772.05C309.5,-770.17 317.64,-765.07 317.64,-756.76 317.64,-751.04 313.79,-746.84 307.63,-744.17"/>
<polygon fill="red" stroke="red" stroke-width="0.1" points="308.52,-740.78 297.94,-741.46 306.63,-747.52 308.52,-740.78"/>
<text text-anchor="middle" x="331.64" y="-754.56" font-family="Times,serif" font-size="9.00">0.621</text>
</g>
<!-- key 169025
bias &#45;0.402
h_scaling 1.000
output 0.221&#45;&gt;key 2851
bias &#45;0.434
h_scaling 1.000
output 0.273 -->
<g id="edge12" class="edge">
<title>key 169025
bias &#45;0.402
h_scaling 1.000
output 0.221&#45;&gt;key 2851
bias &#45;0.434
h_scaling 1.000
output 0.273</title>
<path fill="none" stroke="blue" stroke-width="0.1" d="M218.29,-695.62C214.44,-679.97 210.95,-663.03 209,-647.12 194.64,-529.82 202.32,-392.22 209.46,-310.21"/>
<polygon fill="blue" stroke="blue" stroke-width="0.1" points="212.94,-310.51 210.34,-300.24 205.97,-309.89 212.94,-310.51"/>
<text text-anchor="middle" x="216.5" y="-494.64" font-family="Times,serif" font-size="9.00">&#45;0.246</text>
</g>
<!-- key 169025
bias &#45;0.402
h_scaling 1.000
output 0.221&#45;&gt;key 134275
bias &#45;0.481
h_scaling 1.000
output 0.788 -->
<g id="edge19" class="edge">
<title>key 169025
bias &#45;0.402
h_scaling 1.000
output 0.221&#45;&gt;key 134275
bias &#45;0.481
h_scaling 1.000
output 0.788</title>
<path fill="none" stroke="blue" stroke-width="0.1" d="M289.6,-722.36C314.46,-703.62 341.45,-677.83 355,-647.12 377.85,-595.32 374.28,-530.71 366.16,-482.21"/>
<polygon fill="blue" stroke="blue" stroke-width="0.1" points="369.57,-481.35 364.37,-472.11 362.67,-482.57 369.57,-481.35"/>
<text text-anchor="middle" x="387.5" y="-581.28" font-family="Times,serif" font-size="9.00">&#45;0.172</text>
</g>
<!-- key 169025
bias &#45;0.402
h_scaling 1.000
output 0.221&#45;&gt;key 31048
bias &#45;0.003
h_scaling 1.000
output 0.972 -->
<g id="edge17" class="edge">
<title>key 169025
bias &#45;0.402
h_scaling 1.000
output 0.221&#45;&gt;key 31048
bias &#45;0.003
h_scaling 1.000
output 0.972</title>
<path fill="none" stroke="red" stroke-width="0.1" d="M174.3,-739.99C104.38,-717.97 0,-670.67 0,-584.48 0,-584.48 0,-584.48 0,-235.92 0,-191.34 26.06,-148.48 52.09,-116.78"/>
<polygon fill="red" stroke="red" stroke-width="0.1" points="54.91,-118.86 58.69,-108.97 49.56,-114.35 54.91,-118.86"/>
<text text-anchor="middle" x="14" y="-408" font-family="Times,serif" font-size="9.00">0.197</text>
</g>
<!-- key 2851
bias &#45;0.434
h_scaling 1.000
output 0.273&#45;&gt;output
bias &#45;0.386
h_scaling 1.000
output 0.115 -->
<g id="edge3" class="edge">
<title>key 2851
bias &#45;0.434
h_scaling 1.000
output 0.273&#45;&gt;output
bias &#45;0.386
h_scaling 1.000
output 0.115</title>
<path fill="none" stroke="blue" stroke-width="0.1" d="M220.84,-300.62C224.64,-348.51 231.85,-415.92 245,-473.84 248.02,-487.13 252.06,-501.07 256.37,-514.37"/>
<polygon fill="blue" stroke="blue" stroke-width="0.1" points="253.07,-515.54 259.55,-523.92 259.71,-513.33 253.07,-515.54"/>
<text text-anchor="middle" x="260.5" y="-408" font-family="Times,serif" font-size="9.00">&#45;1.000</text>
</g>
<!-- key 2851
bias &#45;0.434
h_scaling 1.000
output 0.273&#45;&gt;key 2851
bias &#45;0.434
h_scaling 1.000
output 0.273 -->
<g id="edge1" class="edge">
<title>key 2851
bias &#45;0.434
h_scaling 1.000
output 0.273&#45;&gt;key 2851
bias &#45;0.434
h_scaling 1.000
output 0.273</title>
<path fill="none" stroke="red" stroke-width="0.1" d="M278.94,-252.22C290.5,-250.33 298.64,-245.23 298.64,-236.92 298.64,-231.2 294.79,-227.01 288.63,-224.33"/>
<polygon fill="red" stroke="red" stroke-width="0.1" points="289.52,-220.94 278.94,-221.62 287.63,-227.68 289.52,-220.94"/>
<text text-anchor="middle" x="312.64" y="-234.72" font-family="Times,serif" font-size="9.00">0.825</text>
</g>
<!-- key 2851
bias &#45;0.434
h_scaling 1.000
output 0.273&#45;&gt;key 134275
bias &#45;0.481
h_scaling 1.000
output 0.788 -->
<g id="edge10" class="edge">
<title>key 2851
bias &#45;0.434
h_scaling 1.000
output 0.273&#45;&gt;key 134275
bias &#45;0.481
h_scaling 1.000
output 0.788</title>
<path fill="none" stroke="red" stroke-width="0.1" d="M263.9,-280.24C275.72,-292.05 287.91,-305.29 298,-318.56 304.07,-326.54 309.9,-335.31 315.31,-344.17"/>
<polygon fill="red" stroke="red" stroke-width="0.1" points="312.46,-346.22 320.58,-353.03 318.48,-342.64 312.46,-346.22"/>
<text text-anchor="middle" x="318" y="-321.36" font-family="Times,serif" font-size="9.00">0.471</text>
</g>
<!-- key 2851
bias &#45;0.434
h_scaling 1.000
output 0.273&#45;&gt;key 31048
bias &#45;0.003
h_scaling 1.000
output 0.972 -->
<g id="edge4" class="edge">
<title>key 2851
bias &#45;0.434
h_scaling 1.000
output 0.273&#45;&gt;key 31048
bias &#45;0.003
h_scaling 1.000
output 0.972</title>
<path fill="none" stroke="blue" stroke-width="0.1" d="M182.17,-183.13C170.2,-164.98 156.69,-144.5 144.31,-125.74"/>
<polygon fill="blue" stroke="blue" stroke-width="0.1" points="147.14,-123.67 138.71,-117.25 141.3,-127.53 147.14,-123.67"/>
<text text-anchor="middle" x="176.5" y="-148.08" font-family="Times,serif" font-size="9.00">&#45;0.644</text>
</g>
<!-- key 134275
bias &#45;0.481
h_scaling 1.000
output 0.788&#45;&gt;output
bias &#45;0.386
h_scaling 1.000
output 0.115 -->
<g id="edge18" class="edge">
<title>key 134275
bias &#45;0.481
h_scaling 1.000
output 0.788&#45;&gt;output
bias &#45;0.386
h_scaling 1.000
output 0.115</title>
<path fill="none" stroke="blue" stroke-width="0.1" d="M303.2,-454.48C294.13,-465.69 285.9,-478.42 281,-491.84 278.92,-497.52 277.49,-503.54 276.56,-509.66"/>
<polygon fill="blue" stroke="blue" stroke-width="0.1" points="273.04,-509.72 275.44,-520.04 280,-510.47 273.04,-509.72"/>
<text text-anchor="middle" x="296.5" y="-494.64" font-family="Times,serif" font-size="9.00">&#45;1.000</text>
</g>
<!-- key 134275
bias &#45;0.481
h_scaling 1.000
output 0.788&#45;&gt;key 2851
bias &#45;0.434
h_scaling 1.000
output 0.273 -->
<g id="edge9" class="edge">
<title>key 134275
bias &#45;0.481
h_scaling 1.000
output 0.788&#45;&gt;key 2851
bias &#45;0.434
h_scaling 1.000
output 0.273</title>
<path fill="none" stroke="red" stroke-width="0.1" d="M302.64,-365.78C291.36,-354.2 279.75,-341.33 270,-328.56 263.71,-320.32 257.6,-311.28 251.91,-302.19"/>
<polygon fill="red" stroke="red" stroke-width="0.1" points="254.78,-300.18 246.58,-293.48 248.81,-303.84 254.78,-300.18"/>
<text text-anchor="middle" x="284" y="-321.36" font-family="Times,serif" font-size="9.00">0.147</text>
</g>
<!-- key 134275
bias &#45;0.481
h_scaling 1.000
output 0.788&#45;&gt;key 134275
bias &#45;0.481
h_scaling 1.000
output 0.788 -->
<g id="edge13" class="edge">
<title>key 134275
bias &#45;0.481
h_scaling 1.000
output 0.788&#45;&gt;key 134275
bias &#45;0.481
h_scaling 1.000
output 0.788</title>
<path fill="none" stroke="red" stroke-width="0.1" d="M410.94,-425.5C422.5,-423.61 430.64,-418.51 430.64,-410.2 430.64,-404.48 426.79,-400.29 420.63,-397.61"/>
<polygon fill="red" stroke="red" stroke-width="0.1" points="421.52,-394.22 410.94,-394.9 419.63,-400.96 421.52,-394.22"/>
<text text-anchor="middle" x="444.64" y="-408" font-family="Times,serif" font-size="9.00">0.319</text>
</g>
<!-- key 134275
bias &#45;0.481
h_scaling 1.000
output 0.788&#45;&gt;key 31048
bias &#45;0.003
h_scaling 1.000
output 0.972 -->
<g id="edge15" class="edge">
<title>key 134275
bias &#45;0.481
h_scaling 1.000
output 0.788&#45;&gt;key 31048
bias &#45;0.003
h_scaling 1.000
output 0.972</title>
<path fill="none" stroke="blue" stroke-width="0.1" d="M361.83,-347.83C368.97,-296.74 370.49,-224.36 336,-173.28 299.86,-119.76 230.07,-92 176.44,-78"/>
<polygon fill="blue" stroke="blue" stroke-width="0.1" points="177.17,-74.57 166.62,-75.54 175.47,-81.36 177.17,-74.57"/>
<text text-anchor="middle" x="380.5" y="-234.72" font-family="Times,serif" font-size="9.00">&#45;0.099</text>
</g>
<!-- key 31048
bias &#45;0.003
h_scaling 1.000
output 0.972&#45;&gt;output
bias &#45;0.386
h_scaling 1.000
output 0.115 -->
<g id="edge5" class="edge">
<title>key 31048
bias &#45;0.003
h_scaling 1.000
output 0.972&#45;&gt;output
bias &#45;0.386
h_scaling 1.000
output 0.115</title>
<path fill="none" stroke="red" stroke-width="0.1" d="M80.19,-122.76C49.84,-206.84 8.77,-364.28 75,-473.84 104.27,-522.25 163.04,-550.15 210.5,-565.53"/>
<polygon fill="red" stroke="red" stroke-width="0.1" points="209.55,-568.9 220.14,-568.53 211.63,-562.21 209.55,-568.9"/>
<text text-anchor="middle" x="54" y="-321.36" font-family="Times,serif" font-size="9.00">0.995</text>
</g>
<!-- key 31048
bias &#45;0.003
h_scaling 1.000
output 0.972&#45;&gt;key 31048
bias &#45;0.003
h_scaling 1.000
output 0.972 -->
<g id="edge6" class="edge">
<title>key 31048
bias &#45;0.003
h_scaling 1.000
output 0.972&#45;&gt;key 31048
bias &#45;0.003
h_scaling 1.000
output 0.972</title>
<path fill="none" stroke="red" stroke-width="0.1" d="M165.94,-78.94C177.5,-77.05 185.64,-71.95 185.64,-63.64 185.64,-57.92 181.79,-53.73 175.63,-51.05"/>
<polygon fill="red" stroke="red" stroke-width="0.1" points="176.52,-47.66 165.94,-48.34 174.63,-54.4 176.52,-47.66"/>
<text text-anchor="middle" x="199.64" y="-61.44" font-family="Times,serif" font-size="9.00">0.899</text>
</g>
</g>
</svg>
