<?xml version="1.0" encoding="UTF-8" standalone="no"?>
<!DOCTYPE svg PUBLIC "-//W3C//DTD SVG 1.1//EN"
 "http://www.w3.org/Graphics/SVG/1.1/DTD/svg11.dtd">
<!-- Generated by graphviz version 2.43.0 (0)
 -->
<!-- Title: %3 Pages: 1 -->
<svg width="263pt" height="546pt"
 viewBox="0.00 0.00 263.15 545.84" xmlns="http://www.w3.org/2000/svg" xmlns:xlink="http://www.w3.org/1999/xlink">
<g id="graph0" class="graph" transform="scale(1 1) rotate(0) translate(4 541.84)">
<title>%3</title>
<polygon fill="white" stroke="transparent" points="-4,4 -4,-541.84 259.15,-541.84 259.15,4 -4,4"/>
<!-- ready -->
<g id="node1" class="node">
<title>ready</title>
<polygon fill="yellow" stroke="black" points="97.99,-537.84 54.99,-537.84 54.99,-519.84 97.99,-519.84 97.99,-537.84"/>
<text text-anchor="middle" x="76.49" y="-526.64" font-family="Times,serif" font-size="9.00">ready</text>
</g>
<!-- key 75324
bias &#45;0.443
h_scaling 0.003 -->
<g id="node4" class="node">
<title>key 75324
bias &#45;0.443
h_scaling 0.003</title>
<ellipse fill="white" stroke="black" cx="117.49" cy="-410.2" rx="63.78" ry="63.78"/>
<text text-anchor="middle" x="117.49" y="-418" font-family="Times,serif" font-size="9.00">key 75324</text>
<text text-anchor="middle" x="117.49" y="-408" font-family="Times,serif" font-size="9.00">bias &#45;0.443</text>
<text text-anchor="middle" x="117.49" y="-398" font-family="Times,serif" font-size="9.00">h_scaling 0.003</text>
</g>
<!-- ready&#45;&gt;key 75324
bias &#45;0.443
h_scaling 0.003 -->
<g id="edge5" class="edge">
<title>ready&#45;&gt;key 75324
bias &#45;0.443
h_scaling 0.003</title>
<path fill="none" stroke="red" stroke-width="0.62" d="M79.31,-519.82C82.4,-511.04 87.66,-496.06 93.31,-479.99"/>
<polygon fill="red" stroke="red" stroke-width="0.62" points="96.66,-481.03 96.67,-470.43 90.06,-478.7 96.66,-481.03"/>
<text text-anchor="middle" x="103.49" y="-494.64" font-family="Times,serif" font-size="9.00">0.017</text>
</g>
<!-- key 6191
bias &#45;1.000
h_scaling 0.906 -->
<g id="node5" class="node">
<title>key 6191
bias &#45;1.000
h_scaling 0.906</title>
<ellipse fill="white" stroke="black" cx="116.49" cy="-236.92" rx="63.78" ry="63.78"/>
<text text-anchor="middle" x="116.49" y="-244.72" font-family="Times,serif" font-size="9.00">key 6191</text>
<text text-anchor="middle" x="116.49" y="-234.72" font-family="Times,serif" font-size="9.00">bias &#45;1.000</text>
<text text-anchor="middle" x="116.49" y="-224.72" font-family="Times,serif" font-size="9.00">h_scaling 0.906</text>
</g>
<!-- ready&#45;&gt;key 6191
bias &#45;1.000
h_scaling 0.906 -->
<g id="edge2" class="edge">
<title>ready&#45;&gt;key 6191
bias &#45;1.000
h_scaling 0.906</title>
<path fill="none" stroke="red" stroke-width="1.94" d="M61.9,-519.73C47.3,-510.69 25.73,-494.58 16.49,-473.84 -6.52,-422.16 -4.07,-399.26 16.49,-346.56 25.59,-323.26 42.27,-301.94 59.44,-284.48"/>
<polygon fill="red" stroke="red" stroke-width="1.94" points="62.13,-286.74 66.81,-277.23 57.23,-281.75 62.13,-286.74"/>
<text text-anchor="middle" x="30.49" y="-408" font-family="Times,serif" font-size="9.00">0.061</text>
</g>
<!-- go -->
<g id="node2" class="node">
<title>go</title>
<polygon fill="green" stroke="black" points="172.49,-537.84 144.49,-537.84 144.49,-519.84 172.49,-519.84 172.49,-537.84"/>
<text text-anchor="middle" x="158.49" y="-526.64" font-family="Times,serif" font-size="9.00">go</text>
</g>
<!-- go&#45;&gt;key 75324
bias &#45;0.443
h_scaling 0.003 -->
<g id="edge8" class="edge">
<title>go&#45;&gt;key 75324
bias &#45;0.443
h_scaling 0.003</title>
<path fill="none" stroke="blue" stroke-width="0.1" d="M155.68,-519.82C152.59,-511.04 147.33,-496.06 141.67,-479.99"/>
<polygon fill="blue" stroke="blue" stroke-width="0.1" points="144.93,-478.7 138.32,-470.43 138.33,-481.03 144.93,-478.7"/>
</g>
<!-- go&#45;&gt;key 6191
bias &#45;1.000
h_scaling 0.906 -->
<g id="edge3" class="edge">
<title>go&#45;&gt;key 6191
bias &#45;1.000
h_scaling 0.906</title>
<path fill="none" stroke="blue" stroke-width="0.1" d="M172.64,-522.84C191.22,-515.41 223.04,-499.51 236.49,-473.84 262.75,-423.73 259.43,-398.27 236.49,-346.56 224.26,-318.98 201.19,-295.43 178.52,-277.38"/>
<polygon fill="blue" stroke="blue" stroke-width="0.1" points="180.59,-274.56 170.53,-271.22 176.32,-280.1 180.59,-274.56"/>
</g>
<!-- output
bias &#45;0.715
h_scaling 0.258 -->
<g id="node3" class="node">
<title>output
bias &#45;0.715
h_scaling 0.258</title>
<ellipse fill="lightblue" stroke="black" cx="116.49" cy="-63.64" rx="63.78" ry="63.78"/>
<text text-anchor="middle" x="116.49" y="-71.44" font-family="Times,serif" font-size="9.00">output</text>
<text text-anchor="middle" x="116.49" y="-61.44" font-family="Times,serif" font-size="9.00">bias &#45;0.715</text>
<text text-anchor="middle" x="116.49" y="-51.44" font-family="Times,serif" font-size="9.00">h_scaling 0.258</text>
</g>
<!-- key 75324
bias &#45;0.443
h_scaling 0.003&#45;&gt;key 75324
bias &#45;0.443
h_scaling 0.003 -->
<g id="edge7" class="edge">
<title>key 75324
bias &#45;0.443
h_scaling 0.003&#45;&gt;key 75324
bias &#45;0.443
h_scaling 0.003</title>
<path fill="none" stroke="red" stroke-width="1.82" d="M179.44,-425.5C190.99,-423.61 199.13,-418.51 199.13,-410.2 199.13,-404.48 195.29,-400.29 189.13,-397.61"/>
<polygon fill="red" stroke="red" stroke-width="1.82" points="190.01,-394.22 179.44,-394.9 188.13,-400.96 190.01,-394.22"/>
<text text-anchor="middle" x="213.13" y="-408" font-family="Times,serif" font-size="9.00">0.057</text>
</g>
<!-- key 75324
bias &#45;0.443
h_scaling 0.003&#45;&gt;key 6191
bias &#45;1.000
h_scaling 0.906 -->
<g id="edge6" class="edge">
<title>key 75324
bias &#45;0.443
h_scaling 0.003&#45;&gt;key 6191
bias &#45;1.000
h_scaling 0.906</title>
<path fill="none" stroke="red" stroke-width="1.14" d="M99.99,-348.76C98.56,-341.99 97.34,-335.16 96.49,-328.56 95.63,-321.79 95.59,-314.79 96.14,-307.8"/>
<polygon fill="red" stroke="red" stroke-width="1.14" points="99.65,-307.96 97.33,-297.62 92.7,-307.15 99.65,-307.96"/>
<text text-anchor="middle" x="110.49" y="-321.36" font-family="Times,serif" font-size="9.00">0.035</text>
</g>
<!-- key 6191
bias &#45;1.000
h_scaling 0.906&#45;&gt;output
bias &#45;0.715
h_scaling 0.258 -->
<g id="edge1" class="edge">
<title>key 6191
bias &#45;1.000
h_scaling 0.906&#45;&gt;output
bias &#45;0.715
h_scaling 0.258</title>
<path fill="none" stroke="red" stroke-width="0.63" d="M116.49,-173.11C116.49,-161.59 116.49,-149.48 116.49,-137.69"/>
<polygon fill="red" stroke="red" stroke-width="0.63" points="119.99,-137.44 116.49,-127.44 112.99,-137.44 119.99,-137.44"/>
<text text-anchor="middle" x="130.49" y="-148.08" font-family="Times,serif" font-size="9.00">0.018</text>
</g>
<!-- key 6191
bias &#45;1.000
h_scaling 0.906&#45;&gt;key 75324
bias &#45;0.443
h_scaling 0.003 -->
<g id="edge9" class="edge">
<title>key 6191
bias &#45;1.000
h_scaling 0.906&#45;&gt;key 75324
bias &#45;0.443
h_scaling 0.003</title>
<path fill="none" stroke="blue" stroke-width="0.1" d="M123.31,-300.39C123.79,-306.52 124.2,-312.66 124.49,-318.56 124.78,-324.42 124.84,-330.48 124.73,-336.57"/>
<polygon fill="blue" stroke="blue" stroke-width="0.1" points="121.22,-336.71 124.39,-346.82 128.22,-336.94 121.22,-336.71"/>
</g>
<!-- key 6191
bias &#45;1.000
h_scaling 0.906&#45;&gt;key 6191
bias &#45;1.000
h_scaling 0.906 -->
<g id="edge4" class="edge">
<title>key 6191
bias &#45;1.000
h_scaling 0.906&#45;&gt;key 6191
bias &#45;1.000
h_scaling 0.906</title>
<path fill="none" stroke="red" stroke-width="1.25" d="M178.44,-252.22C189.99,-250.33 198.13,-245.23 198.13,-236.92 198.13,-231.2 194.29,-227.01 188.13,-224.33"/>
<polygon fill="red" stroke="red" stroke-width="1.25" points="189.01,-220.94 178.44,-221.62 187.13,-227.68 189.01,-220.94"/>
<text text-anchor="middle" x="212.13" y="-234.72" font-family="Times,serif" font-size="9.00">0.038</text>
</g>
</g>
</svg>
