<?xml version="1.0" encoding="UTF-8" standalone="no"?>
<!DOCTYPE svg PUBLIC "-//W3C//DTD SVG 1.1//EN"
 "http://www.w3.org/Graphics/SVG/1.1/DTD/svg11.dtd">
<!-- Generated by graphviz version 2.43.0 (0)
 -->
<!-- Title: %3 Pages: 1 -->
<svg width="403pt" height="1403pt"
 viewBox="0.00 0.00 403.18 1403.23" xmlns="http://www.w3.org/2000/svg" xmlns:xlink="http://www.w3.org/1999/xlink">
<g id="graph0" class="graph" transform="scale(1 1) rotate(0) translate(4 1399.23)">
<title>%3</title>
<polygon fill="white" stroke="transparent" points="-4,4 -4,-1399.23 399.18,-1399.23 399.18,4 -4,4"/>
<!-- ready -->
<g id="node1" class="node">
<title>ready</title>
<polygon fill="yellow" stroke="black" points="72.01,-1395.23 29.01,-1395.23 29.01,-1377.23 72.01,-1377.23 72.01,-1395.23"/>
<text text-anchor="middle" x="50.51" y="-1384.03" font-family="Times,serif" font-size="9.00">ready</text>
</g>
<!-- key 36289
bias &#45;0.468
h_scaling 0.871 -->
<g id="node4" class="node">
<title>key 36289
bias &#45;0.468
h_scaling 0.871</title>
<ellipse fill="white" stroke="black" cx="137.51" cy="-1267.59" rx="63.78" ry="63.78"/>
<text text-anchor="middle" x="137.51" y="-1275.39" font-family="Times,serif" font-size="9.00">key 36289</text>
<text text-anchor="middle" x="137.51" y="-1265.39" font-family="Times,serif" font-size="9.00">bias &#45;0.468</text>
<text text-anchor="middle" x="137.51" y="-1255.39" font-family="Times,serif" font-size="9.00">h_scaling 0.871</text>
</g>
<!-- ready&#45;&gt;key 36289
bias &#45;0.468
h_scaling 0.871 -->
<g id="edge6" class="edge">
<title>ready&#45;&gt;key 36289
bias &#45;0.468
h_scaling 0.871</title>
<path fill="none" stroke="red" stroke-width="1.03" d="M56.49,-1377.22C64.38,-1366.63 79.01,-1347.02 93.68,-1327.35"/>
<polygon fill="red" stroke="red" stroke-width="1.03" points="96.56,-1329.35 99.73,-1319.24 90.95,-1325.16 96.56,-1329.35"/>
<text text-anchor="middle" x="89.51" y="-1352.03" font-family="Times,serif" font-size="9.00">0.031</text>
</g>
<!-- key 225474
bias &#45;0.683
h_scaling 0.362 -->
<g id="node5" class="node">
<title>key 225474
bias &#45;0.683
h_scaling 0.362</title>
<ellipse fill="white" stroke="black" cx="106.51" cy="-1094.31" rx="63.78" ry="63.78"/>
<text text-anchor="middle" x="106.51" y="-1102.11" font-family="Times,serif" font-size="9.00">key 225474</text>
<text text-anchor="middle" x="106.51" y="-1092.11" font-family="Times,serif" font-size="9.00">bias &#45;0.683</text>
<text text-anchor="middle" x="106.51" y="-1082.11" font-family="Times,serif" font-size="9.00">h_scaling 0.362</text>
</g>
<!-- ready&#45;&gt;key 225474
bias &#45;0.683
h_scaling 0.362 -->
<g id="edge15" class="edge">
<title>ready&#45;&gt;key 225474
bias &#45;0.683
h_scaling 0.362</title>
<path fill="none" stroke="red" stroke-width="0.7" d="M47.85,-1377.07C39.82,-1351.12 17.53,-1268.46 36.51,-1203.95 41.77,-1186.07 50.99,-1168.34 61.05,-1152.56"/>
<polygon fill="red" stroke="red" stroke-width="0.7" points="64.11,-1154.28 66.71,-1144.01 58.27,-1150.42 64.11,-1154.28"/>
<text text-anchor="middle" x="50.51" y="-1265.39" font-family="Times,serif" font-size="9.00">0.020</text>
</g>
<!-- key 4090
bias 0.360
h_scaling 0.496 -->
<g id="node9" class="node">
<title>key 4090
bias 0.360
h_scaling 0.496</title>
<ellipse fill="white" stroke="black" cx="265.51" cy="-574.48" rx="63.78" ry="63.78"/>
<text text-anchor="middle" x="265.51" y="-582.28" font-family="Times,serif" font-size="9.00">key 4090</text>
<text text-anchor="middle" x="265.51" y="-572.28" font-family="Times,serif" font-size="9.00">bias 0.360</text>
<text text-anchor="middle" x="265.51" y="-562.28" font-family="Times,serif" font-size="9.00">h_scaling 0.496</text>
</g>
<!-- ready&#45;&gt;key 4090
bias 0.360
h_scaling 0.496 -->
<g id="edge3" class="edge">
<title>ready&#45;&gt;key 4090
bias 0.360
h_scaling 0.496</title>
<path fill="none" stroke="blue" stroke-width="0.1" d="M72.2,-1385.75C113.43,-1385.55 203.7,-1379.22 256.51,-1331.23 278.45,-1311.29 279.51,-1298.25 279.51,-1268.59 279.51,-1268.59 279.51,-1268.59 279.51,-746.76 279.51,-714.32 276.98,-678.55 274.08,-648.12"/>
<polygon fill="blue" stroke="blue" stroke-width="0.1" points="277.55,-647.63 273.08,-638.02 270.58,-648.31 277.55,-647.63"/>
</g>
<!-- key 181598
bias &#45;0.578
h_scaling 0.309 -->
<g id="node10" class="node">
<title>key 181598
bias &#45;0.578
h_scaling 0.309</title>
<ellipse fill="white" stroke="black" cx="106.51" cy="-921.04" rx="63.78" ry="63.78"/>
<text text-anchor="middle" x="106.51" y="-928.84" font-family="Times,serif" font-size="9.00">key 181598</text>
<text text-anchor="middle" x="106.51" y="-918.84" font-family="Times,serif" font-size="9.00">bias &#45;0.578</text>
<text text-anchor="middle" x="106.51" y="-908.84" font-family="Times,serif" font-size="9.00">h_scaling 0.309</text>
</g>
<!-- ready&#45;&gt;key 181598
bias &#45;0.578
h_scaling 0.309 -->
<g id="edge13" class="edge">
<title>ready&#45;&gt;key 181598
bias &#45;0.578
h_scaling 0.309</title>
<path fill="none" stroke="red" stroke-width="0.66" d="M45.11,-1376.77C42.06,-1371.79 38.31,-1365.29 35.51,-1359.23 29.96,-1347.24 28.43,-1344.12 25.51,-1331.23 -4.04,-1200.91 -15.35,-1155.05 33.51,-1030.68 40.41,-1013.1 50.53,-995.48 61.04,-979.71"/>
<polygon fill="red" stroke="red" stroke-width="0.66" points="64.14,-981.37 66.91,-971.15 58.37,-977.42 64.14,-981.37"/>
<text text-anchor="middle" x="14.51" y="-1178.75" font-family="Times,serif" font-size="9.00">0.019</text>
</g>
<!-- go -->
<g id="node2" class="node">
<title>go</title>
<polygon fill="green" stroke="black" points="330.51,-1395.23 302.51,-1395.23 302.51,-1377.23 330.51,-1377.23 330.51,-1395.23"/>
<text text-anchor="middle" x="316.51" y="-1384.03" font-family="Times,serif" font-size="9.00">go</text>
</g>
<!-- go&#45;&gt;key 36289
bias &#45;0.468
h_scaling 0.871 -->
<g id="edge8" class="edge">
<title>go&#45;&gt;key 36289
bias &#45;0.468
h_scaling 0.871</title>
<path fill="none" stroke="blue" stroke-width="0.1" d="M304.2,-1377.22C282.76,-1363.24 237.19,-1333.55 199.11,-1308.74"/>
<polygon fill="blue" stroke="blue" stroke-width="0.1" points="200.9,-1305.73 190.61,-1303.2 197.08,-1311.59 200.9,-1305.73"/>
</g>
<!-- go&#45;&gt;key 4090
bias 0.360
h_scaling 0.496 -->
<g id="edge2" class="edge">
<title>go&#45;&gt;key 4090
bias 0.360
h_scaling 0.496</title>
<path fill="none" stroke="red" stroke-width="0.58" d="M318.05,-1377.07C321.49,-1358.1 329.51,-1309.55 329.51,-1268.59 329.51,-1268.59 329.51,-1268.59 329.51,-746.76 329.51,-709.49 316.04,-670.37 301.47,-638.95"/>
<polygon fill="red" stroke="red" stroke-width="0.58" points="304.6,-637.39 297.13,-629.88 298.29,-640.41 304.6,-637.39"/>
<text text-anchor="middle" x="343.51" y="-1005.48" font-family="Times,serif" font-size="9.00">0.016</text>
</g>
<!-- output
bias &#45;0.032
h_scaling 0.076 -->
<g id="node3" class="node">
<title>output
bias &#45;0.032
h_scaling 0.076</title>
<ellipse fill="lightblue" stroke="black" cx="251.51" cy="-410.2" rx="63.78" ry="63.78"/>
<text text-anchor="middle" x="251.51" y="-418" font-family="Times,serif" font-size="9.00">output</text>
<text text-anchor="middle" x="251.51" y="-408" font-family="Times,serif" font-size="9.00">bias &#45;0.032</text>
<text text-anchor="middle" x="251.51" y="-398" font-family="Times,serif" font-size="9.00">h_scaling 0.076</text>
</g>
<!-- key 113312
bias 0.335
h_scaling 0.787 -->
<g id="node6" class="node">
<title>key 113312
bias 0.335
h_scaling 0.787</title>
<ellipse fill="white" stroke="black" cx="196.51" cy="-63.64" rx="63.78" ry="63.78"/>
<text text-anchor="middle" x="196.51" y="-71.44" font-family="Times,serif" font-size="9.00">key 113312</text>
<text text-anchor="middle" x="196.51" y="-61.44" font-family="Times,serif" font-size="9.00">bias 0.335</text>
<text text-anchor="middle" x="196.51" y="-51.44" font-family="Times,serif" font-size="9.00">h_scaling 0.787</text>
</g>
<!-- output
bias &#45;0.032
h_scaling 0.076&#45;&gt;key 113312
bias 0.335
h_scaling 0.787 -->
<g id="edge20" class="edge">
<title>output
bias &#45;0.032
h_scaling 0.076&#45;&gt;key 113312
bias 0.335
h_scaling 0.787</title>
<path fill="none" stroke="red" stroke-width="0.93" d="M201.6,-370.23C181.71,-351.55 161.06,-327.4 150.51,-300.56 128.83,-245.4 145.36,-178.82 164.38,-130.48"/>
<polygon fill="red" stroke="red" stroke-width="0.93" points="167.69,-131.65 168.21,-121.07 161.2,-129.01 167.69,-131.65"/>
<text text-anchor="middle" x="164.51" y="-234.72" font-family="Times,serif" font-size="9.00">0.028</text>
</g>
<!-- key 315464
bias &#45;0.489
h_scaling 0.917 -->
<g id="node7" class="node">
<title>key 315464
bias &#45;0.489
h_scaling 0.917</title>
<ellipse fill="white" stroke="black" cx="251.51" cy="-236.92" rx="63.78" ry="63.78"/>
<text text-anchor="middle" x="251.51" y="-244.72" font-family="Times,serif" font-size="9.00">key 315464</text>
<text text-anchor="middle" x="251.51" y="-234.72" font-family="Times,serif" font-size="9.00">bias &#45;0.489</text>
<text text-anchor="middle" x="251.51" y="-224.72" font-family="Times,serif" font-size="9.00">h_scaling 0.917</text>
</g>
<!-- output
bias &#45;0.032
h_scaling 0.076&#45;&gt;key 315464
bias &#45;0.489
h_scaling 0.917 -->
<g id="edge22" class="edge">
<title>output
bias &#45;0.032
h_scaling 0.076&#45;&gt;key 315464
bias &#45;0.489
h_scaling 0.917</title>
<path fill="none" stroke="red" stroke-width="0.96" d="M251.51,-346.39C251.51,-334.87 251.51,-322.76 251.51,-310.97"/>
<polygon fill="red" stroke="red" stroke-width="0.96" points="255.01,-310.72 251.51,-300.72 248.01,-310.72 255.01,-310.72"/>
<text text-anchor="middle" x="265.51" y="-321.36" font-family="Times,serif" font-size="9.00">0.029</text>
</g>
<!-- output
bias &#45;0.032
h_scaling 0.076&#45;&gt;key 181598
bias &#45;0.578
h_scaling 0.309 -->
<g id="edge19" class="edge">
<title>output
bias &#45;0.032
h_scaling 0.076&#45;&gt;key 181598
bias &#45;0.578
h_scaling 0.309</title>
<path fill="none" stroke="blue" stroke-width="0.1" d="M209.57,-458.16C170.17,-504.95 112.73,-580.53 81.51,-656.12 55.69,-718.62 67.74,-796.31 82.7,-851.17"/>
<polygon fill="blue" stroke="blue" stroke-width="0.1" points="79.33,-852.12 85.42,-860.8 86.07,-850.22 79.33,-852.12"/>
</g>
<!-- key 36289
bias &#45;0.468
h_scaling 0.871&#45;&gt;key 36289
bias &#45;0.468
h_scaling 0.871 -->
<g id="edge7" class="edge">
<title>key 36289
bias &#45;0.468
h_scaling 0.871&#45;&gt;key 36289
bias &#45;0.468
h_scaling 0.871</title>
<path fill="none" stroke="red" stroke-width="2.45" d="M199.45,-1282.89C211.01,-1281.01 219.15,-1275.91 219.15,-1267.59 219.15,-1261.88 215.3,-1257.68 209.14,-1255"/>
<polygon fill="red" stroke="red" stroke-width="2.45" points="210.02,-1251.62 199.45,-1252.3 208.14,-1258.36 210.02,-1251.62"/>
<text text-anchor="middle" x="233.15" y="-1265.39" font-family="Times,serif" font-size="9.00">0.078</text>
</g>
<!-- key 36289
bias &#45;0.468
h_scaling 0.871&#45;&gt;key 225474
bias &#45;0.683
h_scaling 0.362 -->
<g id="edge17" class="edge">
<title>key 36289
bias &#45;0.468
h_scaling 0.871&#45;&gt;key 225474
bias &#45;0.683
h_scaling 0.362</title>
<path fill="none" stroke="red" stroke-width="1.25" d="M126.31,-1204.76C124.1,-1192.51 121.75,-1179.56 119.48,-1167.01"/>
<polygon fill="red" stroke="red" stroke-width="1.25" points="122.91,-1166.28 117.68,-1157.06 116.02,-1167.52 122.91,-1166.28"/>
<text text-anchor="middle" x="135.51" y="-1178.75" font-family="Times,serif" font-size="9.00">0.038</text>
</g>
<!-- key 36289
bias &#45;0.468
h_scaling 0.871&#45;&gt;key 113312
bias 0.335
h_scaling 0.787 -->
<g id="edge12" class="edge">
<title>key 36289
bias &#45;0.468
h_scaling 0.871&#45;&gt;key 113312
bias 0.335
h_scaling 0.787</title>
<path fill="none" stroke="red" stroke-width="1.28" d="M91.19,-1223.86C66.9,-1200.41 40.73,-1173.1 33.51,-1157.95 4.71,-1097.59 14.51,-1075.56 14.51,-1008.68 14.51,-1008.68 14.51,-1008.68 14.51,-235.92 14.51,-170.5 77.64,-122.72 129.54,-94.5"/>
<polygon fill="red" stroke="red" stroke-width="1.28" points="131.22,-97.58 138.42,-89.8 127.94,-91.39 131.22,-97.58"/>
<text text-anchor="middle" x="28.51" y="-658.92" font-family="Times,serif" font-size="9.00">0.039</text>
</g>
<!-- key 36289
bias &#45;0.468
h_scaling 0.871&#45;&gt;key 4090
bias 0.360
h_scaling 0.496 -->
<g id="edge5" class="edge">
<title>key 36289
bias &#45;0.468
h_scaling 0.871&#45;&gt;key 4090
bias 0.360
h_scaling 0.496</title>
<path fill="none" stroke="blue" stroke-width="0.1" d="M182.82,-1222.27C210.85,-1190.01 241.51,-1143.67 241.51,-1095.31 241.51,-1095.31 241.51,-1095.31 241.51,-746.76 241.51,-713.84 245.91,-677.72 250.94,-647.16"/>
<polygon fill="blue" stroke="blue" stroke-width="0.1" points="254.44,-647.47 252.66,-637.02 247.54,-646.29 254.44,-647.47"/>
</g>
<!-- key 225474
bias &#45;0.683
h_scaling 0.362&#45;&gt;key 181598
bias &#45;0.578
h_scaling 0.309 -->
<g id="edge16" class="edge">
<title>key 225474
bias &#45;0.683
h_scaling 0.362&#45;&gt;key 181598
bias &#45;0.578
h_scaling 0.309</title>
<path fill="none" stroke="red" stroke-width="0.89" d="M82.88,-1034.94C80.67,-1027.55 78.78,-1020 77.51,-1012.68 76.15,-1004.89 76.31,-996.86 77.47,-988.93"/>
<polygon fill="red" stroke="red" stroke-width="0.89" points="80.93,-989.47 79.44,-978.98 74.07,-988.11 80.93,-989.47"/>
<text text-anchor="middle" x="91.51" y="-1005.48" font-family="Times,serif" font-size="9.00">0.026</text>
</g>
<!-- key 113312
bias 0.335
h_scaling 0.787&#45;&gt;output
bias &#45;0.032
h_scaling 0.076 -->
<g id="edge11" class="edge">
<title>key 113312
bias 0.335
h_scaling 0.787&#45;&gt;output
bias &#45;0.032
h_scaling 0.076</title>
<path fill="none" stroke="red" stroke-width="0.93" d="M251.73,-95.57C279.06,-114.18 309.39,-140.61 324.51,-173.28 348.27,-224.61 341,-246.45 324.51,-300.56 318.95,-318.81 309.18,-336.77 298.57,-352.67"/>
<polygon fill="red" stroke="red" stroke-width="0.93" points="295.42,-351.07 292.61,-361.28 301.18,-355.05 295.42,-351.07"/>
<text text-anchor="middle" x="353.51" y="-234.72" font-family="Times,serif" font-size="9.00">0.028</text>
</g>
<!-- key 315464
bias &#45;0.489
h_scaling 0.917&#45;&gt;key 113312
bias 0.335
h_scaling 0.787 -->
<g id="edge23" class="edge">
<title>key 315464
bias &#45;0.489
h_scaling 0.917&#45;&gt;key 113312
bias 0.335
h_scaling 0.787</title>
<path fill="none" stroke="red" stroke-width="0.87" d="M232.27,-176.01C227.96,-162.58 223.35,-148.22 218.92,-134.43"/>
<polygon fill="red" stroke="red" stroke-width="0.87" points="222.12,-132.96 215.73,-124.51 215.46,-135.1 222.12,-132.96"/>
<text text-anchor="middle" x="237.51" y="-148.08" font-family="Times,serif" font-size="9.00">0.026</text>
</g>
<!-- key 34590
bias &#45;0.835
h_scaling 0.000 -->
<g id="node8" class="node">
<title>key 34590
bias &#45;0.835
h_scaling 0.000</title>
<ellipse fill="white" stroke="black" cx="149.51" cy="-747.76" rx="63.78" ry="63.78"/>
<text text-anchor="middle" x="149.51" y="-755.56" font-family="Times,serif" font-size="9.00">key 34590</text>
<text text-anchor="middle" x="149.51" y="-745.56" font-family="Times,serif" font-size="9.00">bias &#45;0.835</text>
<text text-anchor="middle" x="149.51" y="-735.56" font-family="Times,serif" font-size="9.00">h_scaling 0.000</text>
</g>
<!-- key 34590
bias &#45;0.835
h_scaling 0.000&#45;&gt;key 36289
bias &#45;0.468
h_scaling 0.871 -->
<g id="edge4" class="edge">
<title>key 34590
bias &#45;0.835
h_scaling 0.000&#45;&gt;key 36289
bias &#45;0.468
h_scaling 0.871</title>
<path fill="none" stroke="red" stroke-width="1.14" d="M169.1,-808.49C173.41,-824.22 177.33,-841.3 179.51,-857.4 197.45,-989.77 204.01,-1026.64 179.51,-1157.95 176.91,-1171.87 172.59,-1186.3 167.69,-1199.92"/>
<polygon fill="red" stroke="red" stroke-width="1.14" points="164.27,-1199.09 164.03,-1209.68 170.82,-1201.54 164.27,-1199.09"/>
<text text-anchor="middle" x="208.51" y="-1005.48" font-family="Times,serif" font-size="9.00">0.035</text>
</g>
<!-- key 34590
bias &#45;0.835
h_scaling 0.000&#45;&gt;key 113312
bias 0.335
h_scaling 0.787 -->
<g id="edge24" class="edge">
<title>key 34590
bias &#45;0.835
h_scaling 0.000&#45;&gt;key 113312
bias 0.335
h_scaling 0.787</title>
<path fill="none" stroke="blue" stroke-width="0.1" d="M122.19,-690.28C108.8,-657.54 95.51,-615.07 95.51,-575.48 95.51,-575.48 95.51,-575.48 95.51,-235.92 95.51,-191.84 120.63,-149.13 145.82,-117.38"/>
<polygon fill="blue" stroke="blue" stroke-width="0.1" points="148.6,-119.51 152.21,-109.55 143.17,-115.08 148.6,-119.51"/>
</g>
<!-- key 34590
bias &#45;0.835
h_scaling 0.000&#45;&gt;key 4090
bias 0.360
h_scaling 0.496 -->
<g id="edge21" class="edge">
<title>key 34590
bias &#45;0.835
h_scaling 0.000&#45;&gt;key 4090
bias 0.360
h_scaling 0.496</title>
<path fill="none" stroke="blue" stroke-width="0.1" d="M184.94,-694.44C197.42,-676.01 211.55,-655.15 224.45,-636.1"/>
<polygon fill="blue" stroke="blue" stroke-width="0.1" points="227.38,-638.01 230.09,-627.77 221.58,-634.09 227.38,-638.01"/>
</g>
<!-- key 4090
bias 0.360
h_scaling 0.496&#45;&gt;output
bias &#45;0.032
h_scaling 0.076 -->
<g id="edge1" class="edge">
<title>key 4090
bias 0.360
h_scaling 0.496&#45;&gt;output
bias &#45;0.032
h_scaling 0.076</title>
<path fill="none" stroke="blue" stroke-width="0.1" d="M260.09,-510.74C259.33,-501.92 258.55,-492.8 257.77,-483.83"/>
<polygon fill="blue" stroke="blue" stroke-width="0.1" points="261.25,-483.43 256.91,-473.77 254.28,-484.04 261.25,-483.43"/>
</g>
<!-- key 4090
bias 0.360
h_scaling 0.496&#45;&gt;key 113312
bias 0.335
h_scaling 0.787 -->
<g id="edge10" class="edge">
<title>key 4090
bias 0.360
h_scaling 0.496&#45;&gt;key 113312
bias 0.335
h_scaling 0.787</title>
<path fill="none" stroke="blue" stroke-width="0.1" d="M302.26,-522.13C354.03,-442.91 435.36,-288.07 371.51,-173.28 349.07,-132.95 304.78,-105.67 266.37,-88.53"/>
<polygon fill="blue" stroke="blue" stroke-width="0.1" points="267.32,-85.13 256.75,-84.39 264.55,-91.56 267.32,-85.13"/>
</g>
<!-- key 4090
bias 0.360
h_scaling 0.496&#45;&gt;key 4090
bias 0.360
h_scaling 0.496 -->
<g id="edge9" class="edge">
<title>key 4090
bias 0.360
h_scaling 0.496&#45;&gt;key 4090
bias 0.360
h_scaling 0.496</title>
<path fill="none" stroke="red" stroke-width="0.89" d="M327.8,-589.01C339.17,-587.17 347.15,-582.32 347.15,-574.48 347.15,-569.2 343.55,-565.29 337.73,-562.73"/>
<polygon fill="red" stroke="red" stroke-width="0.89" points="338.37,-559.27 327.8,-559.95 336.48,-566.01 338.37,-559.27"/>
<text text-anchor="middle" x="361.15" y="-572.28" font-family="Times,serif" font-size="9.00">0.026</text>
</g>
<!-- key 181598
bias &#45;0.578
h_scaling 0.309&#45;&gt;key 225474
bias &#45;0.683
h_scaling 0.362 -->
<g id="edge18" class="edge">
<title>key 181598
bias &#45;0.578
h_scaling 0.309&#45;&gt;key 225474
bias &#45;0.683
h_scaling 0.362</title>
<path fill="none" stroke="red" stroke-width="0.89" d="M106.51,-984.83C106.51,-996.35 106.51,-1008.47 106.51,-1020.26"/>
<polygon fill="red" stroke="red" stroke-width="0.89" points="103.01,-1020.51 106.51,-1030.51 110.01,-1020.51 103.01,-1020.51"/>
<text text-anchor="middle" x="120.51" y="-1005.48" font-family="Times,serif" font-size="9.00">0.026</text>
</g>
<!-- key 181598
bias &#45;0.578
h_scaling 0.309&#45;&gt;key 34590
bias &#45;0.835
h_scaling 0.000 -->
<g id="edge14" class="edge">
<title>key 181598
bias &#45;0.578
h_scaling 0.309&#45;&gt;key 34590
bias &#45;0.835
h_scaling 0.000</title>
<path fill="none" stroke="red" stroke-width="0.31" d="M121.79,-859.17C125,-846.37 128.42,-832.77 131.71,-819.64"/>
<polygon fill="red" stroke="red" stroke-width="0.31" points="135.16,-820.27 134.2,-809.72 128.37,-818.56 135.16,-820.27"/>
<text text-anchor="middle" x="141.51" y="-832.2" font-family="Times,serif" font-size="9.00">0.007</text>
</g>
</g>
</svg>
