<?xml version="1.0" encoding="UTF-8" standalone="no"?>
<!DOCTYPE svg PUBLIC "-//W3C//DTD SVG 1.1//EN"
 "http://www.w3.org/Graphics/SVG/1.1/DTD/svg11.dtd">
<!-- Generated by graphviz version 2.43.0 (0)
 -->
<!-- Title: %3 Pages: 1 -->
<svg width="366pt" height="729pt"
 viewBox="0.00 0.00 366.14 729.12" xmlns="http://www.w3.org/2000/svg" xmlns:xlink="http://www.w3.org/1999/xlink">
<g id="graph0" class="graph" transform="scale(1 1) rotate(0) translate(4 725.12)">
<title>%3</title>
<polygon fill="white" stroke="transparent" points="-4,4 -4,-725.12 362.14,-725.12 362.14,4 -4,4"/>
<!-- ready
output 0.000 -->
<g id="node1" class="node">
<title>ready
output 0.000</title>
<polygon fill="yellow" stroke="black" points="212.14,-721.12 135.14,-721.12 135.14,-693.12 212.14,-693.12 212.14,-721.12"/>
<text text-anchor="middle" x="173.64" y="-709.92" font-family="Times,serif" font-size="9.00">ready</text>
<text text-anchor="middle" x="173.64" y="-699.92" font-family="Times,serif" font-size="9.00">output 0.000</text>
</g>
<!-- key 3170
bias &#45;0.487
h_scaling 0.090
output 0.130 -->
<g id="node4" class="node">
<title>key 3170
bias &#45;0.487
h_scaling 0.090
output 0.130</title>
<ellipse fill="white" stroke="black" cx="209.64" cy="-236.92" rx="63.78" ry="63.78"/>
<text text-anchor="middle" x="209.64" y="-249.72" font-family="Times,serif" font-size="9.00">key 3170</text>
<text text-anchor="middle" x="209.64" y="-239.72" font-family="Times,serif" font-size="9.00">bias &#45;0.487</text>
<text text-anchor="middle" x="209.64" y="-229.72" font-family="Times,serif" font-size="9.00">h_scaling 0.090</text>
<text text-anchor="middle" x="209.64" y="-219.72" font-family="Times,serif" font-size="9.00">output 0.130</text>
</g>
<!-- ready
output 0.000&#45;&gt;key 3170
bias &#45;0.487
h_scaling 0.090
output 0.130 -->
<g id="edge5" class="edge">
<title>ready
output 0.000&#45;&gt;key 3170
bias &#45;0.487
h_scaling 0.090
output 0.130</title>
<path fill="none" stroke="blue" stroke-width="0.1" d="M199.69,-693C216.49,-682.97 236.95,-667.41 246.64,-647.12 299.4,-536.64 264.78,-390.36 236.24,-305.95"/>
<polygon fill="blue" stroke="blue" stroke-width="0.1" points="239.54,-304.79 232.97,-296.48 232.92,-307.07 239.54,-304.79"/>
<text text-anchor="middle" x="289.14" y="-494.64" font-family="Times,serif" font-size="9.00">&#45;0.082</text>
</g>
<!-- key 233491
bias &#45;0.224
h_scaling 0.020
output 0.246 -->
<g id="node5" class="node">
<title>key 233491
bias &#45;0.224
h_scaling 0.020
output 0.246</title>
<ellipse fill="white" stroke="black" cx="173.64" cy="-583.48" rx="63.78" ry="63.78"/>
<text text-anchor="middle" x="173.64" y="-596.28" font-family="Times,serif" font-size="9.00">key 233491</text>
<text text-anchor="middle" x="173.64" y="-586.28" font-family="Times,serif" font-size="9.00">bias &#45;0.224</text>
<text text-anchor="middle" x="173.64" y="-576.28" font-family="Times,serif" font-size="9.00">h_scaling 0.020</text>
<text text-anchor="middle" x="173.64" y="-566.28" font-family="Times,serif" font-size="9.00">output 0.246</text>
</g>
<!-- ready
output 0.000&#45;&gt;key 233491
bias &#45;0.224
h_scaling 0.020
output 0.246 -->
<g id="edge11" class="edge">
<title>ready
output 0.000&#45;&gt;key 233491
bias &#45;0.224
h_scaling 0.020
output 0.246</title>
<path fill="none" stroke="red" stroke-width="0.1" d="M173.64,-693.1C173.64,-684.02 173.64,-671.11 173.64,-657.35"/>
<polygon fill="red" stroke="red" stroke-width="0.1" points="177.14,-657.21 173.64,-647.21 170.14,-657.21 177.14,-657.21"/>
<text text-anchor="middle" x="187.64" y="-667.92" font-family="Times,serif" font-size="9.00">0.864</text>
</g>
<!-- key 231458
bias &#45;0.670
h_scaling 0.368
output 0.543 -->
<g id="node6" class="node">
<title>key 231458
bias &#45;0.670
h_scaling 0.368
output 0.543</title>
<ellipse fill="white" stroke="black" cx="63.64" cy="-410.2" rx="63.78" ry="63.78"/>
<text text-anchor="middle" x="63.64" y="-423" font-family="Times,serif" font-size="9.00">key 231458</text>
<text text-anchor="middle" x="63.64" y="-413" font-family="Times,serif" font-size="9.00">bias &#45;0.670</text>
<text text-anchor="middle" x="63.64" y="-403" font-family="Times,serif" font-size="9.00">h_scaling 0.368</text>
<text text-anchor="middle" x="63.64" y="-393" font-family="Times,serif" font-size="9.00">output 0.543</text>
</g>
<!-- ready
output 0.000&#45;&gt;key 231458
bias &#45;0.670
h_scaling 0.368
output 0.543 -->
<g id="edge6" class="edge">
<title>ready
output 0.000&#45;&gt;key 231458
bias &#45;0.670
h_scaling 0.368
output 0.543</title>
<path fill="none" stroke="red" stroke-width="0.1" d="M134.95,-694.08C112.65,-684.96 86.37,-670.02 72.64,-647.12 43.21,-598.03 43.21,-532.31 49.28,-482.7"/>
<polygon fill="red" stroke="red" stroke-width="0.1" points="52.77,-483.06 50.62,-472.68 45.83,-482.13 52.77,-483.06"/>
<text text-anchor="middle" x="86.64" y="-581.28" font-family="Times,serif" font-size="9.00">1.060</text>
</g>
<!-- go
output 0.000 -->
<g id="node2" class="node">
<title>go
output 0.000</title>
<polygon fill="green" stroke="black" points="358.14,-721.12 281.14,-721.12 281.14,-693.12 358.14,-693.12 358.14,-721.12"/>
<text text-anchor="middle" x="319.64" y="-709.92" font-family="Times,serif" font-size="9.00">go</text>
<text text-anchor="middle" x="319.64" y="-699.92" font-family="Times,serif" font-size="9.00">output 0.000</text>
</g>
<!-- go
output 0.000&#45;&gt;key 3170
bias &#45;0.487
h_scaling 0.090
output 0.130 -->
<g id="edge3" class="edge">
<title>go
output 0.000&#45;&gt;key 3170
bias &#45;0.487
h_scaling 0.090
output 0.130</title>
<path fill="none" stroke="red" stroke-width="0.1" d="M320.36,-693.11C322.54,-645.04 326.09,-473.69 274.64,-346.56 268.09,-330.38 259.35,-313.78 250.41,-298.59"/>
<polygon fill="red" stroke="red" stroke-width="0.1" points="253.29,-296.58 245.14,-289.81 247.29,-300.19 253.29,-296.58"/>
<text text-anchor="middle" x="325.64" y="-494.64" font-family="Times,serif" font-size="9.00">1.014</text>
</g>
<!-- go
output 0.000&#45;&gt;key 233491
bias &#45;0.224
h_scaling 0.020
output 0.246 -->
<g id="edge14" class="edge">
<title>go
output 0.000&#45;&gt;key 233491
bias &#45;0.224
h_scaling 0.020
output 0.246</title>
<path fill="none" stroke="red" stroke-width="0.1" d="M304.02,-693.1C286.34,-678.37 256.54,-653.55 229.89,-631.34"/>
<polygon fill="red" stroke="red" stroke-width="0.1" points="232.03,-628.57 222.1,-624.85 227.55,-633.94 232.03,-628.57"/>
<text text-anchor="middle" x="293.64" y="-667.92" font-family="Times,serif" font-size="9.00">0.398</text>
</g>
<!-- output
bias &#45;0.267
h_scaling 0.908
output 0.956 -->
<g id="node3" class="node">
<title>output
bias &#45;0.267
h_scaling 0.908
output 0.956</title>
<ellipse fill="lightblue" stroke="black" cx="158.64" cy="-63.64" rx="63.78" ry="63.78"/>
<text text-anchor="middle" x="158.64" y="-76.44" font-family="Times,serif" font-size="9.00">output</text>
<text text-anchor="middle" x="158.64" y="-66.44" font-family="Times,serif" font-size="9.00">bias &#45;0.267</text>
<text text-anchor="middle" x="158.64" y="-56.44" font-family="Times,serif" font-size="9.00">h_scaling 0.908</text>
<text text-anchor="middle" x="158.64" y="-46.44" font-family="Times,serif" font-size="9.00">output 0.956</text>
</g>
<!-- output
bias &#45;0.267
h_scaling 0.908
output 0.956&#45;&gt;output
bias &#45;0.267
h_scaling 0.908
output 0.956 -->
<g id="edge1" class="edge">
<title>output
bias &#45;0.267
h_scaling 0.908
output 0.956&#45;&gt;output
bias &#45;0.267
h_scaling 0.908
output 0.956</title>
<path fill="none" stroke="red" stroke-width="0.1" d="M220.58,-78.94C232.14,-77.05 240.28,-71.95 240.28,-63.64 240.28,-57.92 236.43,-53.73 230.27,-51.05"/>
<polygon fill="red" stroke="red" stroke-width="0.1" points="231.16,-47.66 220.58,-48.34 229.27,-54.4 231.16,-47.66"/>
<text text-anchor="middle" x="254.28" y="-61.44" font-family="Times,serif" font-size="9.00">0.888</text>
</g>
<!-- output
bias &#45;0.267
h_scaling 0.908
output 0.956&#45;&gt;key 3170
bias &#45;0.487
h_scaling 0.090
output 0.130 -->
<g id="edge13" class="edge">
<title>output
bias &#45;0.267
h_scaling 0.908
output 0.956&#45;&gt;key 3170
bias &#45;0.487
h_scaling 0.090
output 0.130</title>
<path fill="none" stroke="red" stroke-width="0.1" d="M151.25,-127.27C151.64,-136.79 152.94,-146.39 155.64,-155.28 157.95,-162.87 161.23,-170.4 165.06,-177.64"/>
<polygon fill="red" stroke="red" stroke-width="0.1" points="162.18,-179.65 170.17,-186.62 168.27,-176.2 162.18,-179.65"/>
<text text-anchor="middle" x="169.64" y="-148.08" font-family="Times,serif" font-size="9.00">0.271</text>
</g>
<!-- key 3170
bias &#45;0.487
h_scaling 0.090
output 0.130&#45;&gt;output
bias &#45;0.267
h_scaling 0.908
output 0.956 -->
<g id="edge2" class="edge">
<title>key 3170
bias &#45;0.487
h_scaling 0.090
output 0.130&#45;&gt;output
bias &#45;0.267
h_scaling 0.908
output 0.956</title>
<path fill="none" stroke="blue" stroke-width="0.1" d="M195.74,-174.73C193.22,-164.84 190.48,-154.74 187.64,-145.28 186.44,-141.27 185.15,-137.17 183.81,-133.05"/>
<polygon fill="blue" stroke="blue" stroke-width="0.1" points="187.08,-131.79 180.6,-123.41 180.44,-134.01 187.08,-131.79"/>
<text text-anchor="middle" x="206.14" y="-148.08" font-family="Times,serif" font-size="9.00">&#45;1.000</text>
</g>
<!-- key 3170
bias &#45;0.487
h_scaling 0.090
output 0.130&#45;&gt;key 3170
bias &#45;0.487
h_scaling 0.090
output 0.130 -->
<g id="edge4" class="edge">
<title>key 3170
bias &#45;0.487
h_scaling 0.090
output 0.130&#45;&gt;key 3170
bias &#45;0.487
h_scaling 0.090
output 0.130</title>
<path fill="none" stroke="red" stroke-width="0.1" d="M271.58,-252.22C283.14,-250.33 291.28,-245.23 291.28,-236.92 291.28,-231.2 287.43,-227.01 281.27,-224.33"/>
<polygon fill="red" stroke="red" stroke-width="0.1" points="282.16,-220.94 271.58,-221.62 280.27,-227.68 282.16,-220.94"/>
<text text-anchor="middle" x="305.28" y="-234.72" font-family="Times,serif" font-size="9.00">1.023</text>
</g>
<!-- key 233491
bias &#45;0.224
h_scaling 0.020
output 0.246&#45;&gt;key 3170
bias &#45;0.487
h_scaling 0.090
output 0.130 -->
<g id="edge8" class="edge">
<title>key 233491
bias &#45;0.224
h_scaling 0.020
output 0.246&#45;&gt;key 3170
bias &#45;0.487
h_scaling 0.090
output 0.130</title>
<path fill="none" stroke="red" stroke-width="0.1" d="M180.16,-520.08C186.32,-461.11 195.56,-372.66 202.05,-310.55"/>
<polygon fill="red" stroke="red" stroke-width="0.1" points="205.55,-310.74 203.11,-300.43 198.59,-310.01 205.55,-310.74"/>
<text text-anchor="middle" x="212.64" y="-408" font-family="Times,serif" font-size="9.00">0.107</text>
</g>
<!-- key 233491
bias &#45;0.224
h_scaling 0.020
output 0.246&#45;&gt;key 231458
bias &#45;0.670
h_scaling 0.368
output 0.543 -->
<g id="edge12" class="edge">
<title>key 233491
bias &#45;0.224
h_scaling 0.020
output 0.246&#45;&gt;key 231458
bias &#45;0.670
h_scaling 0.368
output 0.543</title>
<path fill="none" stroke="red" stroke-width="0.1" d="M139.44,-529.22C127.95,-511.33 115.04,-491.24 103.18,-472.76"/>
<polygon fill="red" stroke="red" stroke-width="0.1" points="105.98,-470.65 97.63,-464.13 100.09,-474.43 105.98,-470.65"/>
<text text-anchor="middle" x="132.64" y="-494.64" font-family="Times,serif" font-size="9.00">0.208</text>
</g>
<!-- key 231458
bias &#45;0.670
h_scaling 0.368
output 0.543&#45;&gt;output
bias &#45;0.267
h_scaling 0.908
output 0.956 -->
<g id="edge9" class="edge">
<title>key 231458
bias &#45;0.670
h_scaling 0.368
output 0.543&#45;&gt;output
bias &#45;0.267
h_scaling 0.908
output 0.956</title>
<path fill="none" stroke="red" stroke-width="0.1" d="M71.36,-346.58C78.3,-298.43 90.26,-230.66 108.64,-173.28 113.26,-158.84 119.32,-143.8 125.61,-129.68"/>
<polygon fill="red" stroke="red" stroke-width="0.1" points="128.81,-131.1 129.76,-120.55 122.43,-128.2 128.81,-131.1"/>
<text text-anchor="middle" x="122.64" y="-234.72" font-family="Times,serif" font-size="9.00">0.475</text>
</g>
<!-- key 231458
bias &#45;0.670
h_scaling 0.368
output 0.543&#45;&gt;key 3170
bias &#45;0.487
h_scaling 0.090
output 0.130 -->
<g id="edge7" class="edge">
<title>key 231458
bias &#45;0.670
h_scaling 0.368
output 0.543&#45;&gt;key 3170
bias &#45;0.487
h_scaling 0.090
output 0.130</title>
<path fill="none" stroke="blue" stroke-width="0.1" d="M104.7,-361.03C122.5,-340.15 143.46,-315.56 161.95,-293.87"/>
<polygon fill="blue" stroke="blue" stroke-width="0.1" points="164.81,-295.9 168.64,-286.02 159.49,-291.36 164.81,-295.9"/>
<text text-anchor="middle" x="152.14" y="-321.36" font-family="Times,serif" font-size="9.00">&#45;0.327</text>
</g>
<!-- key 231458
bias &#45;0.670
h_scaling 0.368
output 0.543&#45;&gt;key 231458
bias &#45;0.670
h_scaling 0.368
output 0.543 -->
<g id="edge10" class="edge">
<title>key 231458
bias &#45;0.670
h_scaling 0.368
output 0.543&#45;&gt;key 231458
bias &#45;0.670
h_scaling 0.368
output 0.543</title>
<path fill="none" stroke="red" stroke-width="0.1" d="M125.58,-425.5C137.14,-423.61 145.28,-418.51 145.28,-410.2 145.28,-404.48 141.43,-400.29 135.27,-397.61"/>
<polygon fill="red" stroke="red" stroke-width="0.1" points="136.16,-394.22 125.58,-394.9 134.27,-400.96 136.16,-394.22"/>
<text text-anchor="middle" x="159.28" y="-408" font-family="Times,serif" font-size="9.00">1.088</text>
</g>
</g>
</svg>
