<?xml version="1.0" encoding="UTF-8" standalone="no"?>
<!DOCTYPE svg PUBLIC "-//W3C//DTD SVG 1.1//EN"
 "http://www.w3.org/Graphics/SVG/1.1/DTD/svg11.dtd">
<!-- Generated by graphviz version 2.43.0 (0)
 -->
<!-- Title: %3 Pages: 1 -->
<svg width="958pt" height="1249pt"
 viewBox="0.00 0.00 958.00 1248.95" xmlns="http://www.w3.org/2000/svg" xmlns:xlink="http://www.w3.org/1999/xlink">
<g id="graph0" class="graph" transform="scale(1 1) rotate(0) translate(4 1244.95)">
<title>%3</title>
<polygon fill="white" stroke="transparent" points="-4,4 -4,-1244.95 954,-1244.95 954,4 -4,4"/>
<!-- ready
output 0.000 -->
<g id="node1" class="node">
<title>ready
output 0.000</title>
<polygon fill="yellow" stroke="black" points="162.5,-1240.95 85.5,-1240.95 85.5,-1212.95 162.5,-1212.95 162.5,-1240.95"/>
<text text-anchor="middle" x="124" y="-1229.75" font-family="Times,serif" font-size="9.00">ready</text>
<text text-anchor="middle" x="124" y="-1219.75" font-family="Times,serif" font-size="9.00">output 0.000</text>
</g>
<!-- key 34030
bias 0.000
h_scaling 0.076
output 0.501 -->
<g id="node7" class="node">
<title>key 34030
bias 0.000
h_scaling 0.076
output 0.501</title>
<ellipse fill="white" stroke="black" cx="391" cy="-1103.31" rx="63.78" ry="63.78"/>
<text text-anchor="middle" x="391" y="-1116.11" font-family="Times,serif" font-size="9.00">key 34030</text>
<text text-anchor="middle" x="391" y="-1106.11" font-family="Times,serif" font-size="9.00">bias 0.000</text>
<text text-anchor="middle" x="391" y="-1096.11" font-family="Times,serif" font-size="9.00">h_scaling 0.076</text>
<text text-anchor="middle" x="391" y="-1086.11" font-family="Times,serif" font-size="9.00">output 0.501</text>
</g>
<!-- ready
output 0.000&#45;&gt;key 34030
bias 0.000
h_scaling 0.076
output 0.501 -->
<g id="edge13" class="edge">
<title>ready
output 0.000&#45;&gt;key 34030
bias 0.000
h_scaling 0.076
output 0.501</title>
<path fill="none" stroke="blue" stroke-width="0.1" d="M152.57,-1212.94C193.21,-1194.43 268.87,-1159.96 324.09,-1134.8"/>
<polygon fill="blue" stroke="blue" stroke-width="0.1" points="325.81,-1137.86 333.46,-1130.53 322.91,-1131.49 325.81,-1137.86"/>
<text text-anchor="middle" x="226.5" y="-1187.75" font-family="Times,serif" font-size="9.00">&#45;0.965</text>
</g>
<!-- key 39441
bias 0.000
h_scaling 1.000
output 0.493 -->
<g id="node8" class="node">
<title>key 39441
bias 0.000
h_scaling 1.000
output 0.493</title>
<ellipse fill="white" stroke="black" cx="319" cy="-583.48" rx="63.78" ry="63.78"/>
<text text-anchor="middle" x="319" y="-596.28" font-family="Times,serif" font-size="9.00">key 39441</text>
<text text-anchor="middle" x="319" y="-586.28" font-family="Times,serif" font-size="9.00">bias 0.000</text>
<text text-anchor="middle" x="319" y="-576.28" font-family="Times,serif" font-size="9.00">h_scaling 1.000</text>
<text text-anchor="middle" x="319" y="-566.28" font-family="Times,serif" font-size="9.00">output 0.493</text>
</g>
<!-- ready
output 0.000&#45;&gt;key 39441
bias 0.000
h_scaling 1.000
output 0.493 -->
<g id="edge24" class="edge">
<title>ready
output 0.000&#45;&gt;key 39441
bias 0.000
h_scaling 1.000
output 0.493</title>
<path fill="none" stroke="red" stroke-width="0.1" d="M126.6,-1212.75C132.72,-1182.1 148.91,-1103.89 167,-1039.68 206.08,-900.92 261.77,-741.81 293.76,-653.22"/>
<polygon fill="red" stroke="red" stroke-width="0.1" points="297.14,-654.16 297.26,-643.56 290.56,-651.78 297.14,-654.16"/>
<text text-anchor="middle" x="234" y="-927.84" font-family="Times,serif" font-size="9.00">0.736</text>
</g>
<!-- key 4696
bias 0.000
h_scaling 0.637
output 0.613 -->
<g id="node11" class="node">
<title>key 4696
bias 0.000
h_scaling 0.637
output 0.613</title>
<ellipse fill="white" stroke="black" cx="457" cy="-930.04" rx="63.78" ry="63.78"/>
<text text-anchor="middle" x="457" y="-942.84" font-family="Times,serif" font-size="9.00">key 4696</text>
<text text-anchor="middle" x="457" y="-932.84" font-family="Times,serif" font-size="9.00">bias 0.000</text>
<text text-anchor="middle" x="457" y="-922.84" font-family="Times,serif" font-size="9.00">h_scaling 0.637</text>
<text text-anchor="middle" x="457" y="-912.84" font-family="Times,serif" font-size="9.00">output 0.613</text>
</g>
<!-- ready
output 0.000&#45;&gt;key 4696
bias 0.000
h_scaling 0.637
output 0.613 -->
<g id="edge28" class="edge">
<title>ready
output 0.000&#45;&gt;key 4696
bias 0.000
h_scaling 0.637
output 0.613</title>
<path fill="none" stroke="blue" stroke-width="0.1" d="M133.56,-1212.62C157.12,-1180.36 220.86,-1096.56 287,-1039.68 319.42,-1011.79 359.58,-985.79 392.73,-966.23"/>
<polygon fill="blue" stroke="blue" stroke-width="0.1" points="394.57,-969.21 401.44,-961.14 391.04,-963.16 394.57,-969.21"/>
<text text-anchor="middle" x="302.5" y="-1101.11" font-family="Times,serif" font-size="9.00">&#45;0.247</text>
</g>
<!-- key 1208
bias 0.000
h_scaling 0.477
output 0.196 -->
<g id="node13" class="node">
<title>key 1208
bias 0.000
h_scaling 0.477
output 0.196</title>
<ellipse fill="white" stroke="black" cx="184" cy="-63.64" rx="63.78" ry="63.78"/>
<text text-anchor="middle" x="184" y="-76.44" font-family="Times,serif" font-size="9.00">key 1208</text>
<text text-anchor="middle" x="184" y="-66.44" font-family="Times,serif" font-size="9.00">bias 0.000</text>
<text text-anchor="middle" x="184" y="-56.44" font-family="Times,serif" font-size="9.00">h_scaling 0.477</text>
<text text-anchor="middle" x="184" y="-46.44" font-family="Times,serif" font-size="9.00">output 0.196</text>
</g>
<!-- ready
output 0.000&#45;&gt;key 1208
bias 0.000
h_scaling 0.477
output 0.196 -->
<g id="edge2" class="edge">
<title>ready
output 0.000&#45;&gt;key 1208
bias 0.000
h_scaling 0.477
output 0.196</title>
<path fill="none" stroke="blue" stroke-width="0.1" d="M94.3,-1212.82C57.61,-1194.34 0,-1156.94 0,-1104.31 0,-1104.31 0,-1104.31 0,-235.92 0,-206.83 1.59,-196.59 19,-173.28 44.25,-139.48 83.33,-113.08 117.12,-94.77"/>
<polygon fill="blue" stroke="blue" stroke-width="0.1" points="118.83,-97.82 126.03,-90.05 115.56,-91.63 118.83,-97.82"/>
<text text-anchor="middle" x="15.5" y="-667.92" font-family="Times,serif" font-size="9.00">&#45;0.307</text>
</g>
<!-- go
output 0.000 -->
<g id="node2" class="node">
<title>go
output 0.000</title>
<polygon fill="green" stroke="black" points="403.5,-770.76 326.5,-770.76 326.5,-742.76 403.5,-742.76 403.5,-770.76"/>
<text text-anchor="middle" x="365" y="-759.56" font-family="Times,serif" font-size="9.00">go</text>
<text text-anchor="middle" x="365" y="-749.56" font-family="Times,serif" font-size="9.00">output 0.000</text>
</g>
<!-- key 59430
bias 0.000
h_scaling 0.867
output 0.826 -->
<g id="node4" class="node">
<title>key 59430
bias 0.000
h_scaling 0.867
output 0.826</title>
<ellipse fill="white" stroke="black" cx="577" cy="-236.92" rx="63.78" ry="63.78"/>
<text text-anchor="middle" x="577" y="-249.72" font-family="Times,serif" font-size="9.00">key 59430</text>
<text text-anchor="middle" x="577" y="-239.72" font-family="Times,serif" font-size="9.00">bias 0.000</text>
<text text-anchor="middle" x="577" y="-229.72" font-family="Times,serif" font-size="9.00">h_scaling 0.867</text>
<text text-anchor="middle" x="577" y="-219.72" font-family="Times,serif" font-size="9.00">output 0.826</text>
</g>
<!-- go
output 0.000&#45;&gt;key 59430
bias 0.000
h_scaling 0.867
output 0.826 -->
<g id="edge29" class="edge">
<title>go
output 0.000&#45;&gt;key 59430
bias 0.000
h_scaling 0.867
output 0.826</title>
<path fill="none" stroke="blue" stroke-width="0.1" d="M394,-742.58C419.76,-729.32 456.3,-706.34 476,-675.12 520.22,-605.06 471.42,-565.15 510,-491.84 515.27,-481.83 522.62,-483.79 528,-473.84 543.03,-446 557.4,-368.71 566.65,-310.11"/>
<polygon fill="blue" stroke="blue" stroke-width="0.1" points="570.12,-310.56 568.2,-300.14 563.21,-309.48 570.12,-310.56"/>
<text text-anchor="middle" x="525.5" y="-494.64" font-family="Times,serif" font-size="9.00">&#45;0.414</text>
</g>
<!-- key 121960
bias 0.000
h_scaling 0.784
output 0.970 -->
<g id="node5" class="node">
<title>key 121960
bias 0.000
h_scaling 0.784
output 0.970</title>
<ellipse fill="white" stroke="black" cx="702" cy="-63.64" rx="63.78" ry="63.78"/>
<text text-anchor="middle" x="702" y="-76.44" font-family="Times,serif" font-size="9.00">key 121960</text>
<text text-anchor="middle" x="702" y="-66.44" font-family="Times,serif" font-size="9.00">bias 0.000</text>
<text text-anchor="middle" x="702" y="-56.44" font-family="Times,serif" font-size="9.00">h_scaling 0.784</text>
<text text-anchor="middle" x="702" y="-46.44" font-family="Times,serif" font-size="9.00">output 0.970</text>
</g>
<!-- go
output 0.000&#45;&gt;key 121960
bias 0.000
h_scaling 0.784
output 0.970 -->
<g id="edge27" class="edge">
<title>go
output 0.000&#45;&gt;key 121960
bias 0.000
h_scaling 0.784
output 0.970</title>
<path fill="none" stroke="blue" stroke-width="0.1" d="M369.39,-742.57C375.87,-722.32 387.7,-682.23 392,-647.12 398.87,-590.97 395.02,-576.33 392,-519.84 391.33,-507.34 396.25,-502.04 389,-491.84 378.18,-476.6 360.99,-489.63 351,-473.84 320.75,-426.04 330.98,-399.47 351,-346.56 399.5,-218.36 546.25,-133.51 633.89,-92.78"/>
<polygon fill="blue" stroke="blue" stroke-width="0.1" points="635.6,-95.85 643.23,-88.5 632.68,-89.48 635.6,-95.85"/>
<text text-anchor="middle" x="366.5" y="-408" font-family="Times,serif" font-size="9.00">&#45;0.774</text>
</g>
<!-- go
output 0.000&#45;&gt;key 39441
bias 0.000
h_scaling 1.000
output 0.493 -->
<g id="edge16" class="edge">
<title>go
output 0.000&#45;&gt;key 39441
bias 0.000
h_scaling 1.000
output 0.493</title>
<path fill="none" stroke="blue" stroke-width="0.1" d="M361.47,-742.6C356.43,-723.86 346.83,-688.11 338.03,-655.33"/>
<polygon fill="blue" stroke="blue" stroke-width="0.1" points="341.3,-654.03 335.33,-645.28 334.54,-655.84 341.3,-654.03"/>
<text text-anchor="middle" x="357.5" y="-667.92" font-family="Times,serif" font-size="9.00">&#45;0.131</text>
</g>
<!-- go
output 0.000&#45;&gt;key 1208
bias 0.000
h_scaling 0.477
output 0.196 -->
<g id="edge4" class="edge">
<title>go
output 0.000&#45;&gt;key 1208
bias 0.000
h_scaling 0.477
output 0.196</title>
<path fill="none" stroke="red" stroke-width="0.1" d="M342.4,-742.56C314.36,-724.81 267.62,-690.41 246,-647.12 195.95,-546.89 212.93,-256.31 198,-145.28 197.62,-142.44 197.21,-139.55 196.78,-136.63"/>
<polygon fill="red" stroke="red" stroke-width="0.1" points="200.23,-136 195.26,-126.64 193.31,-137.06 200.23,-136"/>
<text text-anchor="middle" x="227" y="-408" font-family="Times,serif" font-size="9.00">0.817</text>
</g>
<!-- output
bias 0.000
h_scaling 0.534
output 0.104 -->
<g id="node3" class="node">
<title>output
bias 0.000
h_scaling 0.534
output 0.104</title>
<ellipse fill="lightblue" stroke="black" cx="633" cy="-756.76" rx="63.78" ry="63.78"/>
<text text-anchor="middle" x="633" y="-769.56" font-family="Times,serif" font-size="9.00">output</text>
<text text-anchor="middle" x="633" y="-759.56" font-family="Times,serif" font-size="9.00">bias 0.000</text>
<text text-anchor="middle" x="633" y="-749.56" font-family="Times,serif" font-size="9.00">h_scaling 0.534</text>
<text text-anchor="middle" x="633" y="-739.56" font-family="Times,serif" font-size="9.00">output 0.104</text>
</g>
<!-- output
bias 0.000
h_scaling 0.534
output 0.104&#45;&gt;key 59430
bias 0.000
h_scaling 0.867
output 0.826 -->
<g id="edge15" class="edge">
<title>output
bias 0.000
h_scaling 0.534
output 0.104&#45;&gt;key 59430
bias 0.000
h_scaling 0.867
output 0.826</title>
<path fill="none" stroke="blue" stroke-width="0.1" d="M631.83,-693.03C629.4,-607.71 621.93,-450.57 599,-318.56 598.41,-315.17 597.74,-311.71 597.01,-308.23"/>
<polygon fill="blue" stroke="blue" stroke-width="0.1" points="600.41,-307.4 594.82,-298.41 593.58,-308.93 600.41,-307.4"/>
<text text-anchor="middle" x="637.5" y="-494.64" font-family="Times,serif" font-size="9.00">&#45;0.664</text>
</g>
<!-- key 202158
bias 0.000
h_scaling 0.270
output 0.889 -->
<g id="node6" class="node">
<title>key 202158
bias 0.000
h_scaling 0.270
output 0.889</title>
<ellipse fill="white" stroke="black" cx="725" cy="-583.48" rx="63.78" ry="63.78"/>
<text text-anchor="middle" x="725" y="-596.28" font-family="Times,serif" font-size="9.00">key 202158</text>
<text text-anchor="middle" x="725" y="-586.28" font-family="Times,serif" font-size="9.00">bias 0.000</text>
<text text-anchor="middle" x="725" y="-576.28" font-family="Times,serif" font-size="9.00">h_scaling 0.270</text>
<text text-anchor="middle" x="725" y="-566.28" font-family="Times,serif" font-size="9.00">output 0.889</text>
</g>
<!-- output
bias 0.000
h_scaling 0.534
output 0.104&#45;&gt;key 202158
bias 0.000
h_scaling 0.270
output 0.889 -->
<g id="edge32" class="edge">
<title>output
bias 0.000
h_scaling 0.534
output 0.104&#45;&gt;key 202158
bias 0.000
h_scaling 0.270
output 0.889</title>
<path fill="none" stroke="red" stroke-width="0.1" d="M652.74,-696.25C656.97,-685.66 661.77,-674.9 667,-665.12 670.98,-657.68 675.55,-650.15 680.34,-642.83"/>
<polygon fill="red" stroke="red" stroke-width="0.1" points="683.37,-644.59 686.05,-634.34 677.57,-640.68 683.37,-644.59"/>
<text text-anchor="middle" x="681" y="-667.92" font-family="Times,serif" font-size="9.00">0.220</text>
</g>
<!-- output
bias 0.000
h_scaling 0.534
output 0.104&#45;&gt;key 34030
bias 0.000
h_scaling 0.076
output 0.501 -->
<g id="edge30" class="edge">
<title>output
bias 0.000
h_scaling 0.534
output 0.104&#45;&gt;key 34030
bias 0.000
h_scaling 0.076
output 0.501</title>
<path fill="none" stroke="red" stroke-width="0.1" d="M645.19,-819.48C645.57,-829.21 645.04,-839.12 643,-848.4 627.76,-917.85 623.73,-940.97 576,-993.68 543.96,-1029.05 497.64,-1056.23 459.37,-1074.56"/>
<polygon fill="red" stroke="red" stroke-width="0.1" points="457.4,-1071.62 449.83,-1079.03 460.37,-1077.96 457.4,-1071.62"/>
<text text-anchor="middle" x="653" y="-927.84" font-family="Times,serif" font-size="9.00">0.119</text>
</g>
<!-- output
bias 0.000
h_scaling 0.534
output 0.104&#45;&gt;key 39441
bias 0.000
h_scaling 1.000
output 0.493 -->
<g id="edge11" class="edge">
<title>output
bias 0.000
h_scaling 0.534
output 0.104&#45;&gt;key 39441
bias 0.000
h_scaling 1.000
output 0.493</title>
<path fill="none" stroke="blue" stroke-width="0.1" d="M577.22,-725.33C522.94,-695.72 440.51,-650.76 383.45,-619.63"/>
<polygon fill="blue" stroke="blue" stroke-width="0.1" points="384.97,-616.48 374.52,-614.76 381.62,-622.62 384.97,-616.48"/>
<text text-anchor="middle" x="491.5" y="-667.92" font-family="Times,serif" font-size="9.00">&#45;0.946</text>
</g>
<!-- output
bias 0.000
h_scaling 0.534
output 0.104&#45;&gt;key 4696
bias 0.000
h_scaling 0.637
output 0.613 -->
<g id="edge5" class="edge">
<title>output
bias 0.000
h_scaling 0.534
output 0.104&#45;&gt;key 4696
bias 0.000
h_scaling 0.637
output 0.613</title>
<path fill="none" stroke="blue" stroke-width="0.1" d="M590.4,-804.1C576.77,-818.53 561.47,-834.34 547,-848.4 536.02,-859.07 523.98,-870.22 512.38,-880.69"/>
<polygon fill="blue" stroke="blue" stroke-width="0.1" points="509.93,-878.18 504.84,-887.47 514.61,-883.39 509.93,-878.18"/>
<text text-anchor="middle" x="572.5" y="-841.2" font-family="Times,serif" font-size="9.00">&#45;0.298</text>
</g>
<!-- key 59430
bias 0.000
h_scaling 0.867
output 0.826&#45;&gt;key 121960
bias 0.000
h_scaling 0.784
output 0.970 -->
<g id="edge25" class="edge">
<title>key 59430
bias 0.000
h_scaling 0.867
output 0.826&#45;&gt;key 121960
bias 0.000
h_scaling 0.784
output 0.970</title>
<path fill="none" stroke="blue" stroke-width="0.1" d="M614.17,-184.99C628.21,-165.75 644.3,-143.7 658.85,-123.77"/>
<polygon fill="blue" stroke="blue" stroke-width="0.1" points="661.69,-125.81 664.76,-115.66 656.04,-121.68 661.69,-125.81"/>
<text text-anchor="middle" x="655.5" y="-148.08" font-family="Times,serif" font-size="9.00">&#45;0.266</text>
</g>
<!-- key 59430
bias 0.000
h_scaling 0.867
output 0.826&#45;&gt;key 4696
bias 0.000
h_scaling 0.637
output 0.613 -->
<g id="edge14" class="edge">
<title>key 59430
bias 0.000
h_scaling 0.867
output 0.826&#45;&gt;key 4696
bias 0.000
h_scaling 0.637
output 0.613</title>
<path fill="none" stroke="blue" stroke-width="0.1" d="M572.97,-300.83C572.33,-310.13 571.67,-319.59 571,-328.56 566.19,-393.17 568.77,-409.79 559,-473.84 553.26,-511.47 500.93,-739.37 473.54,-857.75"/>
<polygon fill="blue" stroke="blue" stroke-width="0.1" points="470.06,-857.28 471.21,-867.81 476.88,-858.86 470.06,-857.28"/>
<text text-anchor="middle" x="565.5" y="-581.28" font-family="Times,serif" font-size="9.00">&#45;0.573</text>
</g>
<!-- key 121960
bias 0.000
h_scaling 0.784
output 0.970&#45;&gt;output
bias 0.000
h_scaling 0.534
output 0.104 -->
<g id="edge21" class="edge">
<title>key 121960
bias 0.000
h_scaling 0.784
output 0.970&#45;&gt;output
bias 0.000
h_scaling 0.534
output 0.104</title>
<path fill="none" stroke="red" stroke-width="0.1" d="M757.86,-94.33C804.36,-123.53 863,-172.87 863,-235.92 863,-584.48 863,-584.48 863,-584.48 863,-613.57 862.63,-624.77 844,-647.12 807.79,-690.55 749.77,-718.64 703.72,-735.35"/>
<polygon fill="red" stroke="red" stroke-width="0.1" points="702.36,-732.12 694.09,-738.74 704.68,-738.72 702.36,-732.12"/>
<text text-anchor="middle" x="877" y="-408" font-family="Times,serif" font-size="9.00">0.631</text>
</g>
<!-- key 121960
bias 0.000
h_scaling 0.784
output 0.970&#45;&gt;key 4696
bias 0.000
h_scaling 0.637
output 0.613 -->
<g id="edge20" class="edge">
<title>key 121960
bias 0.000
h_scaling 0.784
output 0.970&#45;&gt;key 4696
bias 0.000
h_scaling 0.637
output 0.613</title>
<path fill="none" stroke="blue" stroke-width="0.1" d="M762.74,-83.4C826.93,-107.45 919,-155.89 919,-235.92 919,-757.76 919,-757.76 919,-757.76 919,-919.36 722.46,-807.43 572,-866.4 554.59,-873.22 536.49,-882.13 519.95,-891.07"/>
<polygon fill="blue" stroke="blue" stroke-width="0.1" points="518,-888.15 510.93,-896.04 521.38,-894.28 518,-888.15"/>
<text text-anchor="middle" x="934.5" y="-494.64" font-family="Times,serif" font-size="9.00">&#45;0.311</text>
</g>
<!-- key 202158
bias 0.000
h_scaling 0.270
output 0.889&#45;&gt;output
bias 0.000
h_scaling 0.534
output 0.104 -->
<g id="edge26" class="edge">
<title>key 202158
bias 0.000
h_scaling 0.270
output 0.889&#45;&gt;output
bias 0.000
h_scaling 0.534
output 0.104</title>
<path fill="none" stroke="red" stroke-width="0.1" d="M711.11,-645.77C707.79,-655.85 703.79,-665.98 699,-675.12 694.34,-684.01 688.6,-692.84 682.46,-701.21"/>
<polygon fill="red" stroke="red" stroke-width="0.1" points="679.49,-699.34 676.22,-709.42 685.06,-703.58 679.49,-699.34"/>
<text text-anchor="middle" x="717" y="-667.92" font-family="Times,serif" font-size="9.00">0.273</text>
</g>
<!-- key 202158
bias 0.000
h_scaling 0.270
output 0.889&#45;&gt;key 202158
bias 0.000
h_scaling 0.270
output 0.889 -->
<g id="edge33" class="edge">
<title>key 202158
bias 0.000
h_scaling 0.270
output 0.889&#45;&gt;key 202158
bias 0.000
h_scaling 0.270
output 0.889</title>
<path fill="none" stroke="red" stroke-width="0.1" d="M786.94,-598.77C798.5,-596.89 806.64,-591.79 806.64,-583.48 806.64,-577.76 802.79,-573.56 796.63,-570.89"/>
<polygon fill="red" stroke="red" stroke-width="0.1" points="797.52,-567.5 786.94,-568.18 795.63,-574.24 797.52,-567.5"/>
<text text-anchor="middle" x="820.64" y="-581.28" font-family="Times,serif" font-size="9.00">0.599</text>
</g>
<!-- key 34030
bias 0.000
h_scaling 0.076
output 0.501&#45;&gt;key 4696
bias 0.000
h_scaling 0.637
output 0.613 -->
<g id="edge17" class="edge">
<title>key 34030
bias 0.000
h_scaling 0.076
output 0.501&#45;&gt;key 4696
bias 0.000
h_scaling 0.637
output 0.613</title>
<path fill="none" stroke="blue" stroke-width="0.1" d="M413.71,-1043.37C419.19,-1029.16 425.08,-1013.86 430.71,-999.27"/>
<polygon fill="blue" stroke="blue" stroke-width="0.1" points="434.03,-1000.39 434.36,-989.8 427.49,-997.87 434.03,-1000.39"/>
<text text-anchor="middle" x="439.5" y="-1014.48" font-family="Times,serif" font-size="9.00">&#45;0.291</text>
</g>
<!-- key 13721
bias 0.000
h_scaling 0.078
output 0.972 -->
<g id="node12" class="node">
<title>key 13721
bias 0.000
h_scaling 0.078
output 0.972</title>
<ellipse fill="white" stroke="black" cx="92" cy="-410.2" rx="63.78" ry="63.78"/>
<text text-anchor="middle" x="92" y="-423" font-family="Times,serif" font-size="9.00">key 13721</text>
<text text-anchor="middle" x="92" y="-413" font-family="Times,serif" font-size="9.00">bias 0.000</text>
<text text-anchor="middle" x="92" y="-403" font-family="Times,serif" font-size="9.00">h_scaling 0.078</text>
<text text-anchor="middle" x="92" y="-393" font-family="Times,serif" font-size="9.00">output 0.972</text>
</g>
<!-- key 34030
bias 0.000
h_scaling 0.076
output 0.501&#45;&gt;key 13721
bias 0.000
h_scaling 0.078
output 0.972 -->
<g id="edge6" class="edge">
<title>key 34030
bias 0.000
h_scaling 0.076
output 0.501&#45;&gt;key 13721
bias 0.000
h_scaling 0.078
output 0.972</title>
<path fill="none" stroke="blue" stroke-width="0.1" d="M345.8,-1058.14C268.74,-982.61 119.56,-835.3 113,-820.4 64.65,-710.61 70.89,-567.89 80.78,-483.27"/>
<polygon fill="blue" stroke="blue" stroke-width="0.1" points="84.26,-483.59 82,-473.24 77.31,-482.75 84.26,-483.59"/>
<text text-anchor="middle" x="128.5" y="-754.56" font-family="Times,serif" font-size="9.00">&#45;1.000</text>
</g>
<!-- key 39441
bias 0.000
h_scaling 1.000
output 0.493&#45;&gt;key 121960
bias 0.000
h_scaling 0.784
output 0.970 -->
<g id="edge19" class="edge">
<title>key 39441
bias 0.000
h_scaling 1.000
output 0.493&#45;&gt;key 121960
bias 0.000
h_scaling 0.784
output 0.970</title>
<path fill="none" stroke="red" stroke-width="0.1" d="M298.15,-522.99C269.46,-429.11 231.57,-246.87 328,-145.28 368.41,-102.7 531.29,-80.48 628.28,-70.8"/>
<polygon fill="red" stroke="red" stroke-width="0.1" points="628.7,-74.27 638.32,-69.82 628.02,-67.31 628.7,-74.27"/>
<text text-anchor="middle" x="281" y="-321.36" font-family="Times,serif" font-size="9.00">1.088</text>
</g>
<!-- key 111766
bias 0.000
h_scaling 0.713
output 0.590 -->
<g id="node10" class="node">
<title>key 111766
bias 0.000
h_scaling 0.713
output 0.590</title>
<ellipse fill="white" stroke="black" cx="455" cy="-410.2" rx="63.78" ry="63.78"/>
<text text-anchor="middle" x="455" y="-423" font-family="Times,serif" font-size="9.00">key 111766</text>
<text text-anchor="middle" x="455" y="-413" font-family="Times,serif" font-size="9.00">bias 0.000</text>
<text text-anchor="middle" x="455" y="-403" font-family="Times,serif" font-size="9.00">h_scaling 0.713</text>
<text text-anchor="middle" x="455" y="-393" font-family="Times,serif" font-size="9.00">output 0.590</text>
</g>
<!-- key 39441
bias 0.000
h_scaling 1.000
output 0.493&#45;&gt;key 111766
bias 0.000
h_scaling 0.713
output 0.590 -->
<g id="edge31" class="edge">
<title>key 39441
bias 0.000
h_scaling 1.000
output 0.493&#45;&gt;key 111766
bias 0.000
h_scaling 0.713
output 0.590</title>
<path fill="none" stroke="red" stroke-width="0.1" d="M358.34,-532.94C374.34,-512.79 392.93,-489.37 409.51,-468.49"/>
<polygon fill="red" stroke="red" stroke-width="0.1" points="412.27,-470.64 415.75,-460.63 406.79,-466.28 412.27,-470.64"/>
<text text-anchor="middle" x="401" y="-494.64" font-family="Times,serif" font-size="9.00">0.144</text>
</g>
<!-- key 39441
bias 0.000
h_scaling 1.000
output 0.493&#45;&gt;key 13721
bias 0.000
h_scaling 0.078
output 0.972 -->
<g id="edge10" class="edge">
<title>key 39441
bias 0.000
h_scaling 1.000
output 0.493&#45;&gt;key 13721
bias 0.000
h_scaling 0.078
output 0.972</title>
<path fill="none" stroke="red" stroke-width="0.1" d="M272.78,-539.25C255.44,-523.73 235.26,-506.45 216,-491.84 196.67,-477.17 174.71,-462.34 154.7,-449.47"/>
<polygon fill="red" stroke="red" stroke-width="0.1" points="156.57,-446.51 146.26,-444.08 152.81,-452.41 156.57,-446.51"/>
<text text-anchor="middle" x="242" y="-494.64" font-family="Times,serif" font-size="9.00">0.610</text>
</g>
<!-- key 147988
bias 0.000
h_scaling 0.873
output 0.655 -->
<g id="node9" class="node">
<title>key 147988
bias 0.000
h_scaling 0.873
output 0.655</title>
<ellipse fill="white" stroke="black" cx="92" cy="-236.92" rx="63.78" ry="63.78"/>
<text text-anchor="middle" x="92" y="-249.72" font-family="Times,serif" font-size="9.00">key 147988</text>
<text text-anchor="middle" x="92" y="-239.72" font-family="Times,serif" font-size="9.00">bias 0.000</text>
<text text-anchor="middle" x="92" y="-229.72" font-family="Times,serif" font-size="9.00">h_scaling 0.873</text>
<text text-anchor="middle" x="92" y="-219.72" font-family="Times,serif" font-size="9.00">output 0.655</text>
</g>
<!-- key 147988
bias 0.000
h_scaling 0.873
output 0.655&#45;&gt;key 1208
bias 0.000
h_scaling 0.477
output 0.196 -->
<g id="edge23" class="edge">
<title>key 147988
bias 0.000
h_scaling 0.873
output 0.655&#45;&gt;key 1208
bias 0.000
h_scaling 0.477
output 0.196</title>
<path fill="none" stroke="blue" stroke-width="0.1" d="M120.82,-179.69C126.77,-168.27 133.04,-156.36 139,-145.28 141.94,-139.81 145.02,-134.16 148.13,-128.49"/>
<polygon fill="blue" stroke="blue" stroke-width="0.1" points="151.27,-130.05 153.03,-119.61 145.14,-126.67 151.27,-130.05"/>
<text text-anchor="middle" x="154.5" y="-148.08" font-family="Times,serif" font-size="9.00">&#45;0.892</text>
</g>
<!-- key 111766
bias 0.000
h_scaling 0.713
output 0.590&#45;&gt;key 59430
bias 0.000
h_scaling 0.867
output 0.826 -->
<g id="edge18" class="edge">
<title>key 111766
bias 0.000
h_scaling 0.713
output 0.590&#45;&gt;key 59430
bias 0.000
h_scaling 0.867
output 0.826</title>
<path fill="none" stroke="red" stroke-width="0.1" d="M483.49,-352.88C490.09,-341.23 497.41,-329.26 505,-318.56 511.55,-309.32 519.01,-299.96 526.58,-291.04"/>
<polygon fill="red" stroke="red" stroke-width="0.1" points="529.36,-293.19 533.25,-283.34 524.06,-288.61 529.36,-293.19"/>
<text text-anchor="middle" x="519" y="-321.36" font-family="Times,serif" font-size="9.00">0.715</text>
</g>
<!-- key 4696
bias 0.000
h_scaling 0.637
output 0.613&#45;&gt;output
bias 0.000
h_scaling 0.534
output 0.104 -->
<g id="edge3" class="edge">
<title>key 4696
bias 0.000
h_scaling 0.637
output 0.613&#45;&gt;output
bias 0.000
h_scaling 0.534
output 0.104</title>
<path fill="none" stroke="blue" stroke-width="0.1" d="M516.63,-907.37C545.55,-894.22 578.76,-874.81 601,-848.4 606.06,-842.38 610.35,-835.51 613.97,-828.31"/>
<polygon fill="blue" stroke="blue" stroke-width="0.1" points="617.23,-829.59 618.2,-819.04 610.86,-826.67 617.23,-829.59"/>
<text text-anchor="middle" x="623.5" y="-841.2" font-family="Times,serif" font-size="9.00">&#45;1.000</text>
</g>
<!-- key 4696
bias 0.000
h_scaling 0.637
output 0.613&#45;&gt;key 4696
bias 0.000
h_scaling 0.637
output 0.613 -->
<g id="edge12" class="edge">
<title>key 4696
bias 0.000
h_scaling 0.637
output 0.613&#45;&gt;key 4696
bias 0.000
h_scaling 0.637
output 0.613</title>
<path fill="none" stroke="red" stroke-width="0.1" d="M518.94,-945.33C530.5,-943.45 538.64,-938.35 538.64,-930.04 538.64,-924.32 534.79,-920.12 528.63,-917.45"/>
<polygon fill="red" stroke="red" stroke-width="0.1" points="529.52,-914.06 518.94,-914.74 527.63,-920.8 529.52,-914.06"/>
<text text-anchor="middle" x="552.64" y="-927.84" font-family="Times,serif" font-size="9.00">0.900</text>
</g>
<!-- key 4696
bias 0.000
h_scaling 0.637
output 0.613&#45;&gt;key 13721
bias 0.000
h_scaling 0.078
output 0.972 -->
<g id="edge7" class="edge">
<title>key 4696
bias 0.000
h_scaling 0.637
output 0.613&#45;&gt;key 13721
bias 0.000
h_scaling 0.078
output 0.972</title>
<path fill="none" stroke="red" stroke-width="0.1" d="M393.73,-922.86C339.57,-914.47 262.67,-894.72 213,-848.4 152.14,-791.63 165.64,-754.91 142,-675.12 136.6,-656.89 117.79,-554.78 104.85,-483.06"/>
<polygon fill="red" stroke="red" stroke-width="0.1" points="108.28,-482.38 103.06,-473.16 101.39,-483.62 108.28,-482.38"/>
<text text-anchor="middle" x="156" y="-667.92" font-family="Times,serif" font-size="9.00">0.201</text>
</g>
<!-- key 13721
bias 0.000
h_scaling 0.078
output 0.972&#45;&gt;key 147988
bias 0.000
h_scaling 0.873
output 0.655 -->
<g id="edge22" class="edge">
<title>key 13721
bias 0.000
h_scaling 0.078
output 0.972&#45;&gt;key 147988
bias 0.000
h_scaling 0.873
output 0.655</title>
<path fill="none" stroke="red" stroke-width="0.1" d="M92,-346.39C92,-334.87 92,-322.76 92,-310.97"/>
<polygon fill="red" stroke="red" stroke-width="0.1" points="95.5,-310.72 92,-300.72 88.5,-310.72 95.5,-310.72"/>
<text text-anchor="middle" x="106" y="-321.36" font-family="Times,serif" font-size="9.00">0.365</text>
</g>
<!-- key 1208
bias 0.000
h_scaling 0.477
output 0.196&#45;&gt;output
bias 0.000
h_scaling 0.534
output 0.104 -->
<g id="edge1" class="edge">
<title>key 1208
bias 0.000
h_scaling 0.477
output 0.196&#45;&gt;output
bias 0.000
h_scaling 0.534
output 0.104</title>
<path fill="none" stroke="blue" stroke-width="0.1" d="M247.52,-69.9C363.09,-80.94 600.42,-110.81 650,-173.28 741.24,-288.23 612.38,-355.15 617,-501.84 618.92,-562.97 623.45,-632.25 627.2,-682.99"/>
<polygon fill="blue" stroke="blue" stroke-width="0.1" points="623.72,-683.49 627.96,-693.2 630.7,-682.97 623.72,-683.49"/>
<text text-anchor="middle" x="672.5" y="-408" font-family="Times,serif" font-size="9.00">&#45;0.997</text>
</g>
<!-- key 1208
bias 0.000
h_scaling 0.477
output 0.196&#45;&gt;key 4696
bias 0.000
h_scaling 0.637
output 0.613 -->
<g id="edge9" class="edge">
<title>key 1208
bias 0.000
h_scaling 0.477
output 0.196&#45;&gt;key 4696
bias 0.000
h_scaling 0.637
output 0.613</title>
<path fill="none" stroke="red" stroke-width="0.1" d="M184,-127.28C184,-159.71 184,-199.94 184,-235.92 184,-584.48 184,-584.48 184,-584.48 184,-719.42 314.22,-832.32 394.79,-889.26"/>
<polygon fill="red" stroke="red" stroke-width="0.1" points="393.19,-892.41 403.39,-895.26 397.19,-886.66 393.19,-892.41"/>
<text text-anchor="middle" x="198" y="-494.64" font-family="Times,serif" font-size="9.00">1.128</text>
</g>
<!-- key 1208
bias 0.000
h_scaling 0.477
output 0.196&#45;&gt;key 1208
bias 0.000
h_scaling 0.477
output 0.196 -->
<g id="edge8" class="edge">
<title>key 1208
bias 0.000
h_scaling 0.477
output 0.196&#45;&gt;key 1208
bias 0.000
h_scaling 0.477
output 0.196</title>
<path fill="none" stroke="red" stroke-width="0.1" d="M245.94,-78.94C257.5,-77.05 265.64,-71.95 265.64,-63.64 265.64,-57.92 261.79,-53.73 255.63,-51.05"/>
<polygon fill="red" stroke="red" stroke-width="0.1" points="256.52,-47.66 245.94,-48.34 254.63,-54.4 256.52,-47.66"/>
<text text-anchor="middle" x="279.64" y="-61.44" font-family="Times,serif" font-size="9.00">1.063</text>
</g>
</g>
</svg>
