<?xml version="1.0" encoding="UTF-8" standalone="no"?>
<!DOCTYPE svg PUBLIC "-//W3C//DTD SVG 1.1//EN"
 "http://www.w3.org/Graphics/SVG/1.1/DTD/svg11.dtd">
<!-- Generated by graphviz version 2.43.0 (0)
 -->
<!-- Title: %3 Pages: 1 -->
<svg width="480pt" height="1221pt"
 viewBox="0.00 0.00 480.00 1220.95" xmlns="http://www.w3.org/2000/svg" xmlns:xlink="http://www.w3.org/1999/xlink">
<g id="graph0" class="graph" transform="scale(1 1) rotate(0) translate(4 1216.95)">
<title>%3</title>
<polygon fill="white" stroke="transparent" points="-4,4 -4,-1216.95 476,-1216.95 476,4 -4,4"/>
<!-- ready -->
<g id="node1" class="node">
<title>ready</title>
<polygon fill="yellow" stroke="black" points="77.5,-1212.95 34.5,-1212.95 34.5,-1194.95 77.5,-1194.95 77.5,-1212.95"/>
<text text-anchor="middle" x="56" y="-1201.75" font-family="Times,serif" font-size="9.00">ready</text>
</g>
<!-- key 1857
bias 1.000
h_scaling 0.173 -->
<g id="node4" class="node">
<title>key 1857
bias 1.000
h_scaling 0.173</title>
<ellipse fill="white" stroke="black" cx="209" cy="-1085.31" rx="63.78" ry="63.78"/>
<text text-anchor="middle" x="209" y="-1093.11" font-family="Times,serif" font-size="9.00">key 1857</text>
<text text-anchor="middle" x="209" y="-1083.11" font-family="Times,serif" font-size="9.00">bias 1.000</text>
<text text-anchor="middle" x="209" y="-1073.11" font-family="Times,serif" font-size="9.00">h_scaling 0.173</text>
</g>
<!-- ready&#45;&gt;key 1857
bias 1.000
h_scaling 0.173 -->
<g id="edge5" class="edge">
<title>ready&#45;&gt;key 1857
bias 1.000
h_scaling 0.173</title>
<path fill="none" stroke="blue" stroke-width="0.1" d="M66.52,-1194.94C83.75,-1181.8 119.2,-1154.78 150.43,-1130.97"/>
<polygon fill="blue" stroke="blue" stroke-width="0.1" points="152.85,-1133.52 158.68,-1124.68 148.61,-1127.96 152.85,-1133.52"/>
</g>
<!-- key 12907
bias 0.725
h_scaling 0.692 -->
<g id="node8" class="node">
<title>key 12907
bias 0.725
h_scaling 0.692</title>
<ellipse fill="white" stroke="black" cx="158" cy="-574.48" rx="63.78" ry="63.78"/>
<text text-anchor="middle" x="158" y="-582.28" font-family="Times,serif" font-size="9.00">key 12907</text>
<text text-anchor="middle" x="158" y="-572.28" font-family="Times,serif" font-size="9.00">bias 0.725</text>
<text text-anchor="middle" x="158" y="-562.28" font-family="Times,serif" font-size="9.00">h_scaling 0.692</text>
</g>
<!-- ready&#45;&gt;key 12907
bias 0.725
h_scaling 0.692 -->
<g id="edge9" class="edge">
<title>ready&#45;&gt;key 12907
bias 0.725
h_scaling 0.692</title>
<path fill="none" stroke="red" stroke-width="0.93" d="M48.91,-1194.83C33.84,-1176.7 0,-1131.02 0,-1086.31 0,-1086.31 0,-1086.31 0,-737.76 0,-681.54 49.28,-637.5 92.79,-609.57"/>
<polygon fill="red" stroke="red" stroke-width="0.93" points="94.77,-612.46 101.4,-604.2 91.07,-606.52 94.77,-612.46"/>
<text text-anchor="middle" x="14" y="-909.84" font-family="Times,serif" font-size="9.00">0.028</text>
</g>
<!-- key 16337
bias 0.455
h_scaling 0.069 -->
<g id="node9" class="node">
<title>key 16337
bias 0.455
h_scaling 0.069</title>
<ellipse fill="white" stroke="black" cx="158" cy="-738.76" rx="63.78" ry="63.78"/>
<text text-anchor="middle" x="158" y="-746.56" font-family="Times,serif" font-size="9.00">key 16337</text>
<text text-anchor="middle" x="158" y="-736.56" font-family="Times,serif" font-size="9.00">bias 0.455</text>
<text text-anchor="middle" x="158" y="-726.56" font-family="Times,serif" font-size="9.00">h_scaling 0.069</text>
</g>
<!-- ready&#45;&gt;key 16337
bias 0.455
h_scaling 0.069 -->
<g id="edge11" class="edge">
<title>ready&#45;&gt;key 16337
bias 0.455
h_scaling 0.069</title>
<path fill="none" stroke="blue" stroke-width="0.1" d="M56.39,-1194.89C57.86,-1166.83 63.83,-1071 80,-993.68 93.37,-929.75 115.81,-858.84 133.21,-808.24"/>
<polygon fill="blue" stroke="blue" stroke-width="0.1" points="136.54,-809.31 136.5,-798.72 129.92,-807.02 136.54,-809.31"/>
</g>
<!-- go -->
<g id="node2" class="node">
<title>go</title>
<polygon fill="green" stroke="black" points="402,-1212.95 374,-1212.95 374,-1194.95 402,-1194.95 402,-1212.95"/>
<text text-anchor="middle" x="388" y="-1201.75" font-family="Times,serif" font-size="9.00">go</text>
</g>
<!-- go&#45;&gt;key 1857
bias 1.000
h_scaling 0.173 -->
<g id="edge4" class="edge">
<title>go&#45;&gt;key 1857
bias 1.000
h_scaling 0.173</title>
<path fill="none" stroke="red" stroke-width="0.63" d="M373.72,-1200.96C355.56,-1197.94 323.7,-1191.01 300,-1176.95 284.3,-1167.64 269.34,-1155.02 256.25,-1142.16"/>
<polygon fill="red" stroke="red" stroke-width="0.63" points="258.7,-1139.66 249.18,-1135.01 253.72,-1144.58 258.7,-1139.66"/>
<text text-anchor="middle" x="314" y="-1169.75" font-family="Times,serif" font-size="9.00">0.018</text>
</g>
<!-- key 1858
bias &#45;0.987
h_scaling 0.769 -->
<g id="node5" class="node">
<title>key 1858
bias &#45;0.987
h_scaling 0.769</title>
<ellipse fill="white" stroke="black" cx="342" cy="-738.76" rx="63.78" ry="63.78"/>
<text text-anchor="middle" x="342" y="-746.56" font-family="Times,serif" font-size="9.00">key 1858</text>
<text text-anchor="middle" x="342" y="-736.56" font-family="Times,serif" font-size="9.00">bias &#45;0.987</text>
<text text-anchor="middle" x="342" y="-726.56" font-family="Times,serif" font-size="9.00">h_scaling 0.769</text>
</g>
<!-- go&#45;&gt;key 1858
bias &#45;0.987
h_scaling 0.769 -->
<g id="edge2" class="edge">
<title>go&#45;&gt;key 1858
bias &#45;0.987
h_scaling 0.769</title>
<path fill="none" stroke="red" stroke-width="1.11" d="M387.2,-1194.91C382.75,-1150.14 360.82,-929.31 349.23,-812.51"/>
<polygon fill="red" stroke="red" stroke-width="1.11" points="352.67,-811.83 348.2,-802.23 345.71,-812.52 352.67,-811.83"/>
<text text-anchor="middle" x="382" y="-996.48" font-family="Times,serif" font-size="9.00">0.034</text>
</g>
<!-- key 9315
bias 0.703
h_scaling 0.980 -->
<g id="node6" class="node">
<title>key 9315
bias 0.703
h_scaling 0.980</title>
<ellipse fill="white" stroke="black" cx="294" cy="-236.92" rx="63.78" ry="63.78"/>
<text text-anchor="middle" x="294" y="-244.72" font-family="Times,serif" font-size="9.00">key 9315</text>
<text text-anchor="middle" x="294" y="-234.72" font-family="Times,serif" font-size="9.00">bias 0.703</text>
<text text-anchor="middle" x="294" y="-224.72" font-family="Times,serif" font-size="9.00">h_scaling 0.980</text>
</g>
<!-- go&#45;&gt;key 9315
bias 0.703
h_scaling 0.980 -->
<g id="edge14" class="edge">
<title>go&#45;&gt;key 9315
bias 0.703
h_scaling 0.980</title>
<path fill="none" stroke="blue" stroke-width="0.1" d="M399.68,-1194.8C422.76,-1177.61 472,-1135.23 472,-1086.31 472,-1086.31 472,-1086.31 472,-409.2 472,-345.07 411.28,-297.43 360.76,-268.88"/>
<polygon fill="blue" stroke="blue" stroke-width="0.1" points="362.24,-265.7 351.79,-263.95 358.87,-271.83 362.24,-265.7"/>
</g>
<!-- key 23782
bias &#45;0.363
h_scaling 0.794 -->
<g id="node7" class="node">
<title>key 23782
bias &#45;0.363
h_scaling 0.794</title>
<ellipse fill="white" stroke="black" cx="350" cy="-410.2" rx="63.78" ry="63.78"/>
<text text-anchor="middle" x="350" y="-418" font-family="Times,serif" font-size="9.00">key 23782</text>
<text text-anchor="middle" x="350" y="-408" font-family="Times,serif" font-size="9.00">bias &#45;0.363</text>
<text text-anchor="middle" x="350" y="-398" font-family="Times,serif" font-size="9.00">h_scaling 0.794</text>
</g>
<!-- go&#45;&gt;key 23782
bias &#45;0.363
h_scaling 0.794 -->
<g id="edge18" class="edge">
<title>go&#45;&gt;key 23782
bias &#45;0.363
h_scaling 0.794</title>
<path fill="none" stroke="blue" stroke-width="0.1" d="M393.64,-1194.9C405.92,-1176.55 434,-1129.85 434,-1086.31 434,-1086.31 434,-1086.31 434,-573.48 434,-535.65 415.78,-497.86 396.31,-468.27"/>
<polygon fill="blue" stroke="blue" stroke-width="0.1" points="399.04,-466.06 390.52,-459.76 393.25,-470 399.04,-466.06"/>
</g>
<!-- output
bias 1.000
h_scaling 0.156 -->
<g id="node3" class="node">
<title>output
bias 1.000
h_scaling 0.156</title>
<ellipse fill="lightblue" stroke="black" cx="250" cy="-912.04" rx="63.78" ry="63.78"/>
<text text-anchor="middle" x="250" y="-919.84" font-family="Times,serif" font-size="9.00">output</text>
<text text-anchor="middle" x="250" y="-909.84" font-family="Times,serif" font-size="9.00">bias 1.000</text>
<text text-anchor="middle" x="250" y="-899.84" font-family="Times,serif" font-size="9.00">h_scaling 0.156</text>
</g>
<!-- output
bias 1.000
h_scaling 0.156&#45;&gt;key 1858
bias &#45;0.987
h_scaling 0.769 -->
<g id="edge7" class="edge">
<title>output
bias 1.000
h_scaling 0.156&#45;&gt;key 1858
bias &#45;0.987
h_scaling 0.769</title>
<path fill="none" stroke="blue" stroke-width="0.1" d="M274.72,-853.05C283.21,-836.51 292.89,-818.42 302.24,-801.66"/>
<polygon fill="blue" stroke="blue" stroke-width="0.1" points="305.54,-802.93 307.38,-792.5 299.43,-799.5 305.54,-802.93"/>
</g>
<!-- output
bias 1.000
h_scaling 0.156&#45;&gt;key 16337
bias 0.455
h_scaling 0.069 -->
<g id="edge15" class="edge">
<title>output
bias 1.000
h_scaling 0.156&#45;&gt;key 16337
bias 0.455
h_scaling 0.069</title>
<path fill="none" stroke="red" stroke-width="0.25" d="M220.13,-855.43C211.36,-839.11 201.7,-821.12 192.67,-804.3"/>
<polygon fill="red" stroke="red" stroke-width="0.25" points="195.54,-802.24 187.72,-795.09 189.37,-805.55 195.54,-802.24"/>
<text text-anchor="middle" x="218" y="-823.2" font-family="Times,serif" font-size="9.00">0.005</text>
</g>
<!-- key 1857
bias 1.000
h_scaling 0.173&#45;&gt;output
bias 1.000
h_scaling 0.156 -->
<g id="edge1" class="edge">
<title>key 1857
bias 1.000
h_scaling 0.173&#45;&gt;output
bias 1.000
h_scaling 0.156</title>
<path fill="none" stroke="blue" stroke-width="0.1" d="M223.69,-1022.96C226.71,-1010.34 229.91,-996.95 233.01,-984.02"/>
<polygon fill="blue" stroke="blue" stroke-width="0.1" points="236.42,-984.79 235.35,-974.25 229.62,-983.16 236.42,-984.79"/>
</g>
<!-- key 1858
bias &#45;0.987
h_scaling 0.769&#45;&gt;output
bias 1.000
h_scaling 0.156 -->
<g id="edge3" class="edge">
<title>key 1858
bias &#45;0.987
h_scaling 0.769&#45;&gt;output
bias 1.000
h_scaling 0.156</title>
<path fill="none" stroke="blue" stroke-width="0.1" d="M317.28,-797.74C308.8,-814.27 299.13,-832.34 289.79,-849.09"/>
<polygon fill="blue" stroke="blue" stroke-width="0.1" points="286.49,-847.82 284.64,-858.25 292.59,-851.25 286.49,-847.82"/>
</g>
<!-- key 9315
bias 0.703
h_scaling 0.980&#45;&gt;output
bias 1.000
h_scaling 0.156 -->
<g id="edge16" class="edge">
<title>key 9315
bias 0.703
h_scaling 0.980&#45;&gt;output
bias 1.000
h_scaling 0.156</title>
<path fill="none" stroke="red" stroke-width="0.15" d="M283.14,-299.82C280.79,-315.06 278.55,-331.36 277,-346.56 259.09,-522.43 253.01,-730.38 250.99,-838.11"/>
<polygon fill="red" stroke="red" stroke-width="0.15" points="247.49,-838.16 250.8,-848.22 254.49,-838.29 247.49,-838.16"/>
<text text-anchor="middle" x="277" y="-572.28" font-family="Times,serif" font-size="9.00">0.002</text>
</g>
<!-- key 5336
bias &#45;0.132
h_scaling 0.901 -->
<g id="node10" class="node">
<title>key 5336
bias &#45;0.132
h_scaling 0.901</title>
<ellipse fill="white" stroke="black" cx="158" cy="-63.64" rx="63.78" ry="63.78"/>
<text text-anchor="middle" x="158" y="-71.44" font-family="Times,serif" font-size="9.00">key 5336</text>
<text text-anchor="middle" x="158" y="-61.44" font-family="Times,serif" font-size="9.00">bias &#45;0.132</text>
<text text-anchor="middle" x="158" y="-51.44" font-family="Times,serif" font-size="9.00">h_scaling 0.901</text>
</g>
<!-- key 9315
bias 0.703
h_scaling 0.980&#45;&gt;key 5336
bias &#45;0.132
h_scaling 0.901 -->
<g id="edge8" class="edge">
<title>key 9315
bias 0.703
h_scaling 0.980&#45;&gt;key 5336
bias &#45;0.132
h_scaling 0.901</title>
<path fill="none" stroke="red" stroke-width="0.55" d="M254.66,-186.38C238.66,-166.23 220.07,-142.82 203.49,-121.94"/>
<polygon fill="red" stroke="red" stroke-width="0.55" points="206.21,-119.72 197.25,-114.07 200.73,-124.08 206.21,-119.72"/>
<text text-anchor="middle" x="240" y="-148.08" font-family="Times,serif" font-size="9.00">0.015</text>
</g>
<!-- key 23782
bias &#45;0.363
h_scaling 0.794&#45;&gt;key 9315
bias 0.703
h_scaling 0.980 -->
<g id="edge13" class="edge">
<title>key 23782
bias &#45;0.363
h_scaling 0.794&#45;&gt;key 9315
bias 0.703
h_scaling 0.980</title>
<path fill="none" stroke="blue" stroke-width="0.1" d="M330.41,-349.29C325.98,-335.73 321.24,-321.22 316.69,-307.31"/>
<polygon fill="blue" stroke="blue" stroke-width="0.1" points="320.01,-306.21 313.58,-297.79 313.36,-308.38 320.01,-306.21"/>
</g>
<!-- key 12907
bias 0.725
h_scaling 0.692&#45;&gt;key 23782
bias &#45;0.363
h_scaling 0.794 -->
<g id="edge17" class="edge">
<title>key 12907
bias 0.725
h_scaling 0.692&#45;&gt;key 23782
bias &#45;0.363
h_scaling 0.794</title>
<path fill="none" stroke="blue" stroke-width="0.1" d="M206.45,-532.53C233.05,-510.04 266.18,-482.05 293.9,-458.61"/>
<polygon fill="blue" stroke="blue" stroke-width="0.1" points="296.19,-461.26 301.57,-452.13 291.67,-455.92 296.19,-461.26"/>
</g>
<!-- key 12907
bias 0.725
h_scaling 0.692&#45;&gt;key 5336
bias &#45;0.132
h_scaling 0.901 -->
<g id="edge10" class="edge">
<title>key 12907
bias 0.725
h_scaling 0.692&#45;&gt;key 5336
bias &#45;0.132
h_scaling 0.901</title>
<path fill="none" stroke="red" stroke-width="0.54" d="M158,-510.83C158,-416.32 158,-237.71 158,-137.51"/>
<polygon fill="red" stroke="red" stroke-width="0.54" points="161.5,-137.47 158,-127.47 154.5,-137.47 161.5,-137.47"/>
<text text-anchor="middle" x="172" y="-321.36" font-family="Times,serif" font-size="9.00">0.015</text>
</g>
<!-- key 16337
bias 0.455
h_scaling 0.069&#45;&gt;key 12907
bias 0.725
h_scaling 0.692 -->
<g id="edge12" class="edge">
<title>key 16337
bias 0.455
h_scaling 0.069&#45;&gt;key 12907
bias 0.725
h_scaling 0.692</title>
<path fill="none" stroke="blue" stroke-width="0.1" d="M158,-675.02C158,-666.36 158,-657.41 158,-648.59"/>
<polygon fill="blue" stroke="blue" stroke-width="0.1" points="161.5,-648.32 158,-638.32 154.5,-648.32 161.5,-648.32"/>
</g>
<!-- key 5336
bias &#45;0.132
h_scaling 0.901&#45;&gt;key 1857
bias 1.000
h_scaling 0.173 -->
<g id="edge6" class="edge">
<title>key 5336
bias &#45;0.132
h_scaling 0.901&#45;&gt;key 1857
bias 1.000
h_scaling 0.173</title>
<path fill="none" stroke="blue" stroke-width="0.1" d="M116.31,-112C91.96,-144.54 66,-190.01 66,-235.92 66,-657.12 66,-657.12 66,-657.12 66,-722.24 67.49,-739.68 85,-802.4 106.69,-880.09 145.87,-964.11 174.4,-1020.02"/>
<polygon fill="blue" stroke="blue" stroke-width="0.1" points="171.38,-1021.8 179.06,-1029.09 177.61,-1018.6 171.38,-1021.8"/>
</g>
</g>
</svg>
