<?xml version="1.0" encoding="UTF-8" standalone="no"?>
<!DOCTYPE svg PUBLIC "-//W3C//DTD SVG 1.1//EN"
 "http://www.w3.org/Graphics/SVG/1.1/DTD/svg11.dtd">
<!-- Generated by graphviz version 2.43.0 (0)
 -->
<!-- Title: %3 Pages: 1 -->
<svg width="504pt" height="1239pt"
 viewBox="0.00 0.00 504.00 1238.95" xmlns="http://www.w3.org/2000/svg" xmlns:xlink="http://www.w3.org/1999/xlink">
<g id="graph0" class="graph" transform="scale(1 1) rotate(0) translate(4 1234.95)">
<title>%3</title>
<polygon fill="white" stroke="transparent" points="-4,4 -4,-1234.95 500,-1234.95 500,4 -4,4"/>
<!-- ready -->
<g id="node1" class="node">
<title>ready</title>
<polygon fill="yellow" stroke="black" points="398.5,-1230.95 355.5,-1230.95 355.5,-1212.95 398.5,-1212.95 398.5,-1230.95"/>
<text text-anchor="middle" x="377" y="-1219.75" font-family="Times,serif" font-size="9.00">ready</text>
</g>
<!-- key 1857
bias 1.000
h_scaling 0.173 -->
<g id="node4" class="node">
<title>key 1857
bias 1.000
h_scaling 0.173</title>
<ellipse fill="white" stroke="black" cx="264" cy="-1103.31" rx="63.78" ry="63.78"/>
<text text-anchor="middle" x="264" y="-1111.11" font-family="Times,serif" font-size="9.00">key 1857</text>
<text text-anchor="middle" x="264" y="-1101.11" font-family="Times,serif" font-size="9.00">bias 1.000</text>
<text text-anchor="middle" x="264" y="-1091.11" font-family="Times,serif" font-size="9.00">h_scaling 0.173</text>
</g>
<!-- ready&#45;&gt;key 1857
bias 1.000
h_scaling 0.173 -->
<g id="edge5" class="edge">
<title>ready&#45;&gt;key 1857
bias 1.000
h_scaling 0.173</title>
<path fill="none" stroke="blue" stroke-width="1.08" d="M359.25,-1212.82C350.49,-1208.3 340.1,-1202.14 332,-1194.95 322.15,-1186.22 312.8,-1175.85 304.36,-1165.31"/>
<polygon fill="blue" stroke="blue" stroke-width="1.08" points="306.99,-1162.99 298.1,-1157.23 301.46,-1167.28 306.99,-1162.99"/>
<text text-anchor="middle" x="347.5" y="-1187.75" font-family="Times,serif" font-size="9.00">&#45;0.328</text>
</g>
<!-- key 12907
bias 0.725
h_scaling 0.692 -->
<g id="node8" class="node">
<title>key 12907
bias 0.725
h_scaling 0.692</title>
<ellipse fill="white" stroke="black" cx="353" cy="-583.48" rx="63.78" ry="63.78"/>
<text text-anchor="middle" x="353" y="-591.28" font-family="Times,serif" font-size="9.00">key 12907</text>
<text text-anchor="middle" x="353" y="-581.28" font-family="Times,serif" font-size="9.00">bias 0.725</text>
<text text-anchor="middle" x="353" y="-571.28" font-family="Times,serif" font-size="9.00">h_scaling 0.692</text>
</g>
<!-- ready&#45;&gt;key 12907
bias 0.725
h_scaling 0.692 -->
<g id="edge9" class="edge">
<title>ready&#45;&gt;key 12907
bias 0.725
h_scaling 0.692</title>
<path fill="none" stroke="red" stroke-width="3.1" d="M383.33,-1212.7C396.79,-1194.32 427,-1148.16 427,-1104.31 427,-1104.31 427,-1104.31 427,-755.76 427,-716.99 410.83,-677.03 393.6,-645.47"/>
<polygon fill="red" stroke="red" stroke-width="3.1" points="396.44,-643.38 388.48,-636.38 390.34,-646.81 396.44,-643.38"/>
<text text-anchor="middle" x="441" y="-927.84" font-family="Times,serif" font-size="9.00">1.000</text>
</g>
<!-- key 16337
bias 0.455
h_scaling 0.069 -->
<g id="node9" class="node">
<title>key 16337
bias 0.455
h_scaling 0.069</title>
<ellipse fill="white" stroke="black" cx="335" cy="-756.76" rx="63.78" ry="63.78"/>
<text text-anchor="middle" x="335" y="-764.56" font-family="Times,serif" font-size="9.00">key 16337</text>
<text text-anchor="middle" x="335" y="-754.56" font-family="Times,serif" font-size="9.00">bias 0.455</text>
<text text-anchor="middle" x="335" y="-744.56" font-family="Times,serif" font-size="9.00">h_scaling 0.069</text>
</g>
<!-- ready&#45;&gt;key 16337
bias 0.455
h_scaling 0.069 -->
<g id="edge11" class="edge">
<title>ready&#45;&gt;key 16337
bias 0.455
h_scaling 0.069</title>
<path fill="none" stroke="blue" stroke-width="2.39" d="M376.27,-1212.91C372.21,-1168.14 352.19,-947.31 341.6,-830.51"/>
<polygon fill="blue" stroke="blue" stroke-width="2.39" points="345.05,-829.87 340.66,-820.23 338.08,-830.5 345.05,-829.87"/>
<text text-anchor="middle" x="373.5" y="-1014.48" font-family="Times,serif" font-size="9.00">&#45;0.765</text>
</g>
<!-- go -->
<g id="node2" class="node">
<title>go</title>
<polygon fill="green" stroke="black" points="97,-1230.95 69,-1230.95 69,-1212.95 97,-1212.95 97,-1230.95"/>
<text text-anchor="middle" x="83" y="-1219.75" font-family="Times,serif" font-size="9.00">go</text>
</g>
<!-- go&#45;&gt;key 1857
bias 1.000
h_scaling 0.173 -->
<g id="edge4" class="edge">
<title>go&#45;&gt;key 1857
bias 1.000
h_scaling 0.173</title>
<path fill="none" stroke="red" stroke-width="3.1" d="M95.44,-1212.94C117.2,-1198.92 163.51,-1169.07 202.1,-1144.2"/>
<polygon fill="red" stroke="red" stroke-width="3.1" points="204.2,-1147.02 210.71,-1138.66 200.41,-1141.13 204.2,-1147.02"/>
<text text-anchor="middle" x="151" y="-1187.75" font-family="Times,serif" font-size="9.00">1.000</text>
</g>
<!-- key 1858
bias &#45;0.987
h_scaling 0.769 -->
<g id="node5" class="node">
<title>key 1858
bias &#45;0.987
h_scaling 0.769</title>
<ellipse fill="white" stroke="black" cx="151" cy="-756.76" rx="63.78" ry="63.78"/>
<text text-anchor="middle" x="151" y="-764.56" font-family="Times,serif" font-size="9.00">key 1858</text>
<text text-anchor="middle" x="151" y="-754.56" font-family="Times,serif" font-size="9.00">bias &#45;0.987</text>
<text text-anchor="middle" x="151" y="-744.56" font-family="Times,serif" font-size="9.00">h_scaling 0.769</text>
</g>
<!-- go&#45;&gt;key 1858
bias &#45;0.987
h_scaling 0.769 -->
<g id="edge2" class="edge">
<title>go&#45;&gt;key 1858
bias &#45;0.987
h_scaling 0.769</title>
<path fill="none" stroke="red" stroke-width="2.95" d="M84.18,-1212.91C90.77,-1168.03 123.32,-946.29 140.44,-829.7"/>
<polygon fill="red" stroke="red" stroke-width="2.95" points="143.9,-830.18 141.89,-819.78 136.98,-829.17 143.9,-830.18"/>
<text text-anchor="middle" x="128" y="-1014.48" font-family="Times,serif" font-size="9.00">0.950</text>
</g>
<!-- key 9315
bias 0.703
h_scaling 0.980 -->
<g id="node6" class="node">
<title>key 9315
bias 0.703
h_scaling 0.980</title>
<ellipse fill="white" stroke="black" cx="197" cy="-236.92" rx="63.78" ry="63.78"/>
<text text-anchor="middle" x="197" y="-244.72" font-family="Times,serif" font-size="9.00">key 9315</text>
<text text-anchor="middle" x="197" y="-234.72" font-family="Times,serif" font-size="9.00">bias 0.703</text>
<text text-anchor="middle" x="197" y="-224.72" font-family="Times,serif" font-size="9.00">h_scaling 0.980</text>
</g>
<!-- go&#45;&gt;key 9315
bias 0.703
h_scaling 0.980 -->
<g id="edge14" class="edge">
<title>go&#45;&gt;key 9315
bias 0.703
h_scaling 0.980</title>
<path fill="none" stroke="blue" stroke-width="2.71" d="M71.46,-1212.76C48.65,-1195.52 0,-1153.03 0,-1104.31 0,-1104.31 0,-1104.31 0,-409.2 0,-339.33 71.45,-291.5 128.28,-264.5"/>
<polygon fill="blue" stroke="blue" stroke-width="2.71" points="130.02,-267.55 137.63,-260.18 127.08,-261.2 130.02,-267.55"/>
<text text-anchor="middle" x="15.5" y="-754.56" font-family="Times,serif" font-size="9.00">&#45;0.869</text>
</g>
<!-- key 23782
bias &#45;0.363
h_scaling 0.794 -->
<g id="node7" class="node">
<title>key 23782
bias &#45;0.363
h_scaling 0.794</title>
<ellipse fill="white" stroke="black" cx="151" cy="-410.2" rx="63.78" ry="63.78"/>
<text text-anchor="middle" x="151" y="-418" font-family="Times,serif" font-size="9.00">key 23782</text>
<text text-anchor="middle" x="151" y="-408" font-family="Times,serif" font-size="9.00">bias &#45;0.363</text>
<text text-anchor="middle" x="151" y="-398" font-family="Times,serif" font-size="9.00">h_scaling 0.794</text>
</g>
<!-- go&#45;&gt;key 23782
bias &#45;0.363
h_scaling 0.794 -->
<g id="edge18" class="edge">
<title>go&#45;&gt;key 23782
bias &#45;0.363
h_scaling 0.794</title>
<path fill="none" stroke="blue" stroke-width="0.21" d="M80.15,-1212.87C73.8,-1194.08 59,-1145.87 59,-1104.31 59,-1104.31 59,-1104.31 59,-582.48 59,-540.34 80.88,-498.56 103.3,-466.82"/>
<polygon fill="blue" stroke="blue" stroke-width="0.21" points="106.26,-468.71 109.31,-458.56 100.6,-464.59 106.26,-468.71"/>
<text text-anchor="middle" x="74.5" y="-841.2" font-family="Times,serif" font-size="9.00">&#45;0.038</text>
</g>
<!-- output
bias 1.000
h_scaling 0.156 -->
<g id="node3" class="node">
<title>output
bias 1.000
h_scaling 0.156</title>
<ellipse fill="lightblue" stroke="black" cx="243" cy="-930.04" rx="63.78" ry="63.78"/>
<text text-anchor="middle" x="243" y="-937.84" font-family="Times,serif" font-size="9.00">output</text>
<text text-anchor="middle" x="243" y="-927.84" font-family="Times,serif" font-size="9.00">bias 1.000</text>
<text text-anchor="middle" x="243" y="-917.84" font-family="Times,serif" font-size="9.00">h_scaling 0.156</text>
</g>
<!-- output
bias 1.000
h_scaling 0.156&#45;&gt;key 1858
bias &#45;0.987
h_scaling 0.769 -->
<g id="edge7" class="edge">
<title>output
bias 1.000
h_scaling 0.156&#45;&gt;key 1858
bias &#45;0.987
h_scaling 0.769</title>
<path fill="none" stroke="blue" stroke-width="3.1" d="M191.61,-891.73C178.43,-879.47 165.78,-864.74 158,-848.4 155.33,-842.79 153.31,-836.76 151.82,-830.57"/>
<polygon fill="blue" stroke="blue" stroke-width="3.1" points="155.25,-829.88 149.87,-820.76 148.38,-831.25 155.25,-829.88"/>
<text text-anchor="middle" x="173.5" y="-841.2" font-family="Times,serif" font-size="9.00">&#45;1.000</text>
</g>
<!-- output
bias 1.000
h_scaling 0.156&#45;&gt;key 16337
bias 0.455
h_scaling 0.069 -->
<g id="edge15" class="edge">
<title>output
bias 1.000
h_scaling 0.156&#45;&gt;key 16337
bias 0.455
h_scaling 0.069</title>
<path fill="none" stroke="red" stroke-width="0.7" d="M272.87,-873.43C281.64,-857.11 291.3,-839.12 300.33,-822.3"/>
<polygon fill="red" stroke="red" stroke-width="0.7" points="303.63,-823.55 305.28,-813.09 297.46,-820.24 303.63,-823.55"/>
<text text-anchor="middle" x="303" y="-841.2" font-family="Times,serif" font-size="9.00">0.199</text>
</g>
<!-- key 1857
bias 1.000
h_scaling 0.173&#45;&gt;output
bias 1.000
h_scaling 0.156 -->
<g id="edge1" class="edge">
<title>key 1857
bias 1.000
h_scaling 0.173&#45;&gt;output
bias 1.000
h_scaling 0.156</title>
<path fill="none" stroke="blue" stroke-width="3.1" d="M256.36,-1039.99C254.9,-1028.11 253.37,-1015.58 251.87,-1003.42"/>
<polygon fill="blue" stroke="blue" stroke-width="3.1" points="255.33,-1002.81 250.64,-993.31 248.38,-1003.66 255.33,-1002.81"/>
<text text-anchor="middle" x="268.5" y="-1014.48" font-family="Times,serif" font-size="9.00">&#45;1.000</text>
</g>
<!-- key 1858
bias &#45;0.987
h_scaling 0.769&#45;&gt;output
bias 1.000
h_scaling 0.156 -->
<g id="edge3" class="edge">
<title>key 1858
bias &#45;0.987
h_scaling 0.769&#45;&gt;output
bias 1.000
h_scaling 0.156</title>
<path fill="none" stroke="blue" stroke-width="1.78" d="M179.82,-813.98C185.77,-825.41 192.04,-837.31 198,-848.4 200.94,-853.86 204.02,-859.52 207.13,-865.19"/>
<polygon fill="blue" stroke="blue" stroke-width="1.78" points="204.14,-867 212.03,-874.07 210.27,-863.62 204.14,-867"/>
<text text-anchor="middle" x="213.5" y="-841.2" font-family="Times,serif" font-size="9.00">&#45;0.560</text>
</g>
<!-- key 9315
bias 0.703
h_scaling 0.980&#45;&gt;output
bias 1.000
h_scaling 0.156 -->
<g id="edge16" class="edge">
<title>key 9315
bias 0.703
h_scaling 0.980&#45;&gt;output
bias 1.000
h_scaling 0.156</title>
<path fill="none" stroke="red" stroke-width="0.94" d="M220.81,-296.33C232.03,-328.97 243,-370.71 243,-409.2 243,-757.76 243,-757.76 243,-757.76 243,-790.08 243,-825.84 243,-856.29"/>
<polygon fill="red" stroke="red" stroke-width="0.94" points="239.5,-856.4 243,-866.4 246.5,-856.4 239.5,-856.4"/>
<text text-anchor="middle" x="257" y="-581.28" font-family="Times,serif" font-size="9.00">0.281</text>
</g>
<!-- key 5336
bias &#45;0.132
h_scaling 0.901 -->
<g id="node10" class="node">
<title>key 5336
bias &#45;0.132
h_scaling 0.901</title>
<ellipse fill="white" stroke="black" cx="353" cy="-63.64" rx="63.78" ry="63.78"/>
<text text-anchor="middle" x="353" y="-71.44" font-family="Times,serif" font-size="9.00">key 5336</text>
<text text-anchor="middle" x="353" y="-61.44" font-family="Times,serif" font-size="9.00">bias &#45;0.132</text>
<text text-anchor="middle" x="353" y="-51.44" font-family="Times,serif" font-size="9.00">h_scaling 0.901</text>
</g>
<!-- key 9315
bias 0.703
h_scaling 0.980&#45;&gt;key 5336
bias &#45;0.132
h_scaling 0.901 -->
<g id="edge8" class="edge">
<title>key 9315
bias 0.703
h_scaling 0.980&#45;&gt;key 5336
bias &#45;0.132
h_scaling 0.901</title>
<path fill="none" stroke="red" stroke-width="0.52" d="M239.63,-189.12C259.4,-167.4 283.03,-141.46 303.58,-118.9"/>
<polygon fill="red" stroke="red" stroke-width="0.52" points="306.28,-121.14 310.42,-111.39 301.1,-116.42 306.28,-121.14"/>
<text text-anchor="middle" x="289" y="-148.08" font-family="Times,serif" font-size="9.00">0.141</text>
</g>
<!-- key 23782
bias &#45;0.363
h_scaling 0.794&#45;&gt;key 9315
bias 0.703
h_scaling 0.980 -->
<g id="edge13" class="edge">
<title>key 23782
bias &#45;0.363
h_scaling 0.794&#45;&gt;key 9315
bias 0.703
h_scaling 0.980</title>
<path fill="none" stroke="blue" stroke-width="2.85" d="M167.35,-348.33C170.8,-335.46 174.48,-321.77 178.03,-308.57"/>
<polygon fill="blue" stroke="blue" stroke-width="2.85" points="181.49,-309.16 180.71,-298.59 174.73,-307.34 181.49,-309.16"/>
<text text-anchor="middle" x="189.5" y="-321.36" font-family="Times,serif" font-size="9.00">&#45;0.917</text>
</g>
<!-- key 12907
bias 0.725
h_scaling 0.692&#45;&gt;key 23782
bias &#45;0.363
h_scaling 0.794 -->
<g id="edge17" class="edge">
<title>key 12907
bias 0.725
h_scaling 0.692&#45;&gt;key 23782
bias &#45;0.363
h_scaling 0.794</title>
<path fill="none" stroke="blue" stroke-width="1.4" d="M304.87,-541.67C275.4,-516.68 237.55,-484.59 206.77,-458.49"/>
<polygon fill="blue" stroke="blue" stroke-width="1.4" points="209,-455.79 199.11,-451.99 204.47,-461.13 209,-455.79"/>
<text text-anchor="middle" x="267.5" y="-494.64" font-family="Times,serif" font-size="9.00">&#45;0.433</text>
</g>
<!-- key 12907
bias 0.725
h_scaling 0.692&#45;&gt;key 5336
bias &#45;0.132
h_scaling 0.901 -->
<g id="edge10" class="edge">
<title>key 12907
bias 0.725
h_scaling 0.692&#45;&gt;key 5336
bias &#45;0.132
h_scaling 0.901</title>
<path fill="none" stroke="red" stroke-width="0.65" d="M353,-519.76C353,-423.56 353,-240.05 353,-137.89"/>
<polygon fill="red" stroke="red" stroke-width="0.65" points="356.5,-137.66 353,-127.66 349.5,-137.66 356.5,-137.66"/>
<text text-anchor="middle" x="367" y="-321.36" font-family="Times,serif" font-size="9.00">0.183</text>
</g>
<!-- key 16337
bias 0.455
h_scaling 0.069&#45;&gt;key 12907
bias 0.725
h_scaling 0.692 -->
<g id="edge12" class="edge">
<title>key 16337
bias 0.455
h_scaling 0.069&#45;&gt;key 12907
bias 0.725
h_scaling 0.692</title>
<path fill="none" stroke="blue" stroke-width="2.4" d="M341.55,-693.44C342.79,-681.63 344.1,-669.18 345.37,-657.09"/>
<polygon fill="blue" stroke="blue" stroke-width="2.4" points="348.86,-657.35 346.43,-647.04 341.9,-656.62 348.86,-657.35"/>
<text text-anchor="middle" x="359.5" y="-667.92" font-family="Times,serif" font-size="9.00">&#45;0.767</text>
</g>
<!-- key 5336
bias &#45;0.132
h_scaling 0.901&#45;&gt;key 1857
bias 1.000
h_scaling 0.173 -->
<g id="edge6" class="edge">
<title>key 5336
bias &#45;0.132
h_scaling 0.901&#45;&gt;key 1857
bias 1.000
h_scaling 0.173</title>
<path fill="none" stroke="blue" stroke-width="3.01" d="M400.17,-106.61C430.78,-138.62 465,-185.65 465,-235.92 465,-671.12 465,-671.12 465,-671.12 465,-747.68 359.57,-939.52 301.43,-1039.5"/>
<polygon fill="blue" stroke="blue" stroke-width="3.01" points="298.31,-1037.89 296.29,-1048.29 304.36,-1041.42 298.31,-1037.89"/>
<text text-anchor="middle" x="480.5" y="-581.28" font-family="Times,serif" font-size="9.00">&#45;0.970</text>
</g>
</g>
</svg>
