<?xml version="1.0" encoding="UTF-8" standalone="no"?>
<!DOCTYPE svg PUBLIC "-//W3C//DTD SVG 1.1//EN"
 "http://www.w3.org/Graphics/SVG/1.1/DTD/svg11.dtd">
<!-- Generated by graphviz version 2.43.0 (0)
 -->
<!-- Title: %3 Pages: 1 -->
<svg width="393pt" height="1169pt"
 viewBox="0.00 0.00 392.73 1168.95" xmlns="http://www.w3.org/2000/svg" xmlns:xlink="http://www.w3.org/1999/xlink">
<g id="graph0" class="graph" transform="scale(1 1) rotate(0) translate(4 1164.95)">
<title>%3</title>
<polygon fill="white" stroke="transparent" points="-4,4 -4,-1164.95 388.73,-1164.95 388.73,4 -4,4"/>
<!-- ready -->
<g id="node1" class="node">
<title>ready</title>
<polygon fill="yellow" stroke="black" points="192.99,-1160.95 149.99,-1160.95 149.99,-1142.95 192.99,-1142.95 192.99,-1160.95"/>
<text text-anchor="middle" x="171.49" y="-1149.75" font-family="Times,serif" font-size="9.00">ready</text>
</g>
<!-- key 12728
bias &#45;0.460
h_scaling 0.602 -->
<g id="node8" class="node">
<title>key 12728
bias &#45;0.460
h_scaling 0.602</title>
<ellipse fill="white" stroke="black" cx="171.49" cy="-1043.31" rx="63.78" ry="63.78"/>
<text text-anchor="middle" x="171.49" y="-1051.11" font-family="Times,serif" font-size="9.00">key 12728</text>
<text text-anchor="middle" x="171.49" y="-1041.11" font-family="Times,serif" font-size="9.00">bias &#45;0.460</text>
<text text-anchor="middle" x="171.49" y="-1031.11" font-family="Times,serif" font-size="9.00">h_scaling 0.602</text>
</g>
<!-- ready&#45;&gt;key 12728
bias &#45;0.460
h_scaling 0.602 -->
<g id="edge13" class="edge">
<title>ready&#45;&gt;key 12728
bias &#45;0.460
h_scaling 0.602</title>
<path fill="none" stroke="blue" stroke-width="4" d="M171.49,-1142.94C171.49,-1136.77 171.49,-1127.57 171.49,-1117.23"/>
<polygon fill="blue" stroke="blue" stroke-width="4" points="175,-1117.03 171.49,-1107.03 167.99,-1117.03 175,-1117.03"/>
</g>
<!-- go -->
<g id="node2" class="node">
<title>go</title>
<polygon fill="green" stroke="black" points="295.49,-1160.95 267.49,-1160.95 267.49,-1142.95 295.49,-1142.95 295.49,-1160.95"/>
<text text-anchor="middle" x="281.49" y="-1149.75" font-family="Times,serif" font-size="9.00">go</text>
</g>
<!-- key 11137
bias &#45;0.510
h_scaling 0.710 -->
<g id="node5" class="node">
<title>key 11137
bias &#45;0.510
h_scaling 0.710</title>
<ellipse fill="white" stroke="black" cx="254.49" cy="-880.04" rx="63.78" ry="63.78"/>
<text text-anchor="middle" x="254.49" y="-887.84" font-family="Times,serif" font-size="9.00">key 11137</text>
<text text-anchor="middle" x="254.49" y="-877.84" font-family="Times,serif" font-size="9.00">bias &#45;0.510</text>
<text text-anchor="middle" x="254.49" y="-867.84" font-family="Times,serif" font-size="9.00">h_scaling 0.710</text>
</g>
<!-- go&#45;&gt;key 11137
bias &#45;0.510
h_scaling 0.710 -->
<g id="edge3" class="edge">
<title>go&#45;&gt;key 11137
bias &#45;0.510
h_scaling 0.710</title>
<path fill="none" stroke="red" stroke-width="3.99" d="M280.69,-1142.88C277.9,-1115.05 268.51,-1021.2 261.77,-953.81"/>
<polygon fill="red" stroke="red" stroke-width="3.99" points="265.23,-953.26 260.76,-943.65 258.27,-953.95 265.23,-953.26"/>
</g>
<!-- go&#45;&gt;key 12728
bias &#45;0.460
h_scaling 0.602 -->
<g id="edge5" class="edge">
<title>go&#45;&gt;key 12728
bias &#45;0.460
h_scaling 0.602</title>
<path fill="none" stroke="red" stroke-width="5.1" d="M273.23,-1142.94C262.55,-1132.59 243.06,-1113.7 223.98,-1095.2"/>
<polygon fill="red" stroke="red" stroke-width="5.1" points="226.99,-1091.9 216.7,-1088.14 220.78,-1098.31 226.99,-1091.9"/>
</g>
<!-- key 1432
bias 0.033
h_scaling 0.543 -->
<g id="node11" class="node">
<title>key 1432
bias 0.033
h_scaling 0.543</title>
<ellipse fill="white" stroke="black" cx="208.49" cy="-716.76" rx="63.78" ry="63.78"/>
<text text-anchor="middle" x="208.49" y="-724.56" font-family="Times,serif" font-size="9.00">key 1432</text>
<text text-anchor="middle" x="208.49" y="-714.56" font-family="Times,serif" font-size="9.00">bias 0.033</text>
<text text-anchor="middle" x="208.49" y="-704.56" font-family="Times,serif" font-size="9.00">h_scaling 0.543</text>
</g>
<!-- go&#45;&gt;key 1432
bias 0.033
h_scaling 0.543 -->
<g id="edge1" class="edge">
<title>go&#45;&gt;key 1432
bias 0.033
h_scaling 0.543</title>
<path fill="none" stroke="blue" stroke-width="5.1" d="M285.69,-1142.93C305.2,-1104.5 383.73,-936.05 327.49,-816.4 315.65,-791.2 293.86,-770.23 272.14,-754.19"/>
<polygon fill="blue" stroke="blue" stroke-width="5.1" points="274.57,-750.44 263.83,-748.29 269.4,-757.72 274.57,-750.44"/>
</g>
<!-- key output
bias &#45;0.985
h_scaling 0.565 -->
<g id="node3" class="node">
<title>key output
bias &#45;0.985
h_scaling 0.565</title>
<ellipse fill="lightblue" stroke="black" cx="109.49" cy="-880.04" rx="63.78" ry="63.78"/>
<text text-anchor="middle" x="109.49" y="-887.84" font-family="Times,serif" font-size="9.00">key output</text>
<text text-anchor="middle" x="109.49" y="-877.84" font-family="Times,serif" font-size="9.00">bias &#45;0.985</text>
<text text-anchor="middle" x="109.49" y="-867.84" font-family="Times,serif" font-size="9.00">h_scaling 0.565</text>
</g>
<!-- key output
bias &#45;0.985
h_scaling 0.565&#45;&gt;key 1432
bias 0.033
h_scaling 0.543 -->
<g id="edge7" class="edge">
<title>key output
bias &#45;0.985
h_scaling 0.565&#45;&gt;key 1432
bias 0.033
h_scaling 0.543</title>
<path fill="none" stroke="red" stroke-width="3.08" d="M137.65,-822.63C146.34,-807.9 156.09,-791.98 165.53,-777.1"/>
<polygon fill="red" stroke="red" stroke-width="3.08" points="168.61,-778.79 171.04,-768.48 162.71,-775.02 168.61,-778.79"/>
</g>
<!-- key 23296
bias &#45;0.614
h_scaling 0.510 -->
<g id="node4" class="node">
<title>key 23296
bias &#45;0.614
h_scaling 0.510</title>
<ellipse fill="white" stroke="black" cx="109.49" cy="-390.2" rx="63.78" ry="63.78"/>
<text text-anchor="middle" x="109.49" y="-398" font-family="Times,serif" font-size="9.00">key 23296</text>
<text text-anchor="middle" x="109.49" y="-388" font-family="Times,serif" font-size="9.00">bias &#45;0.614</text>
<text text-anchor="middle" x="109.49" y="-378" font-family="Times,serif" font-size="9.00">h_scaling 0.510</text>
</g>
<!-- key 23296
bias &#45;0.614
h_scaling 0.510&#45;&gt;key output
bias &#45;0.985
h_scaling 0.565 -->
<g id="edge10" class="edge">
<title>key 23296
bias &#45;0.614
h_scaling 0.510&#45;&gt;key output
bias &#45;0.985
h_scaling 0.565</title>
<path fill="none" stroke="red" stroke-width="4.49" d="M109.49,-454.12C109.49,-544.46 109.49,-710.51 109.49,-806.1"/>
<polygon fill="red" stroke="red" stroke-width="4.49" points="105.56,-806.26 109.49,-816.26 113.42,-806.26 105.56,-806.26"/>
</g>
<!-- key 217825
bias &#45;0.948
h_scaling 0.504 -->
<g id="node6" class="node">
<title>key 217825
bias &#45;0.948
h_scaling 0.504</title>
<ellipse fill="white" stroke="black" cx="83.49" cy="-226.92" rx="63.78" ry="63.78"/>
<text text-anchor="middle" x="83.49" y="-234.72" font-family="Times,serif" font-size="9.00">key 217825</text>
<text text-anchor="middle" x="83.49" y="-224.72" font-family="Times,serif" font-size="9.00">bias &#45;0.948</text>
<text text-anchor="middle" x="83.49" y="-214.72" font-family="Times,serif" font-size="9.00">h_scaling 0.504</text>
</g>
<!-- key 23296
bias &#45;0.614
h_scaling 0.510&#45;&gt;key 217825
bias &#45;0.948
h_scaling 0.504 -->
<g id="edge18" class="edge">
<title>key 23296
bias &#45;0.614
h_scaling 0.510&#45;&gt;key 217825
bias &#45;0.948
h_scaling 0.504</title>
<path fill="none" stroke="blue" stroke-width="5.1" d="M99.52,-327.3C98.06,-318.3 96.56,-308.97 95.08,-299.79"/>
<polygon fill="blue" stroke="blue" stroke-width="5.1" points="99.48,-299.08 93.49,-289.91 90.67,-300.5 99.48,-299.08"/>
</g>
<!-- key 99973
bias &#45;0.396
h_scaling 0.439 -->
<g id="node7" class="node">
<title>key 99973
bias &#45;0.396
h_scaling 0.439</title>
<ellipse fill="white" stroke="black" cx="228.49" cy="-226.92" rx="63.78" ry="63.78"/>
<text text-anchor="middle" x="228.49" y="-234.72" font-family="Times,serif" font-size="9.00">key 99973</text>
<text text-anchor="middle" x="228.49" y="-224.72" font-family="Times,serif" font-size="9.00">bias &#45;0.396</text>
<text text-anchor="middle" x="228.49" y="-214.72" font-family="Times,serif" font-size="9.00">h_scaling 0.439</text>
</g>
<!-- key 23296
bias &#45;0.614
h_scaling 0.510&#45;&gt;key 99973
bias &#45;0.396
h_scaling 0.439 -->
<g id="edge16" class="edge">
<title>key 23296
bias &#45;0.614
h_scaling 0.510&#45;&gt;key 99973
bias &#45;0.396
h_scaling 0.439</title>
<path fill="none" stroke="red" stroke-width="5.1" d="M146.82,-338.61C158.94,-322.18 172.5,-303.8 185.04,-286.82"/>
<polygon fill="red" stroke="red" stroke-width="5.1" points="188.75,-289.3 191.1,-278.6 181.57,-284 188.75,-289.3"/>
</g>
<!-- key 11137
bias &#45;0.510
h_scaling 0.710&#45;&gt;key 1432
bias 0.033
h_scaling 0.543 -->
<g id="edge4" class="edge">
<title>key 11137
bias &#45;0.510
h_scaling 0.710&#45;&gt;key 1432
bias 0.033
h_scaling 0.543</title>
<path fill="none" stroke="blue" stroke-width="5.1" d="M237.23,-818.52C234.37,-808.5 231.39,-798.03 228.47,-787.79"/>
<polygon fill="blue" stroke="blue" stroke-width="5.1" points="232.73,-786.47 225.7,-778.07 224.15,-788.91 232.73,-786.47"/>
</g>
<!-- key 234378
bias &#45;0.813
h_scaling 0.378 -->
<g id="node9" class="node">
<title>key 234378
bias &#45;0.813
h_scaling 0.378</title>
<ellipse fill="white" stroke="black" cx="83.49" cy="-63.64" rx="63.78" ry="63.78"/>
<text text-anchor="middle" x="83.49" y="-71.44" font-family="Times,serif" font-size="9.00">key 234378</text>
<text text-anchor="middle" x="83.49" y="-61.44" font-family="Times,serif" font-size="9.00">bias &#45;0.813</text>
<text text-anchor="middle" x="83.49" y="-51.44" font-family="Times,serif" font-size="9.00">h_scaling 0.378</text>
</g>
<!-- key 217825
bias &#45;0.948
h_scaling 0.504&#45;&gt;key 234378
bias &#45;0.813
h_scaling 0.378 -->
<g id="edge19" class="edge">
<title>key 217825
bias &#45;0.948
h_scaling 0.504&#45;&gt;key 234378
bias &#45;0.813
h_scaling 0.378</title>
<path fill="none" stroke="red" stroke-width="2.1" d="M83.49,-163.1C83.49,-154.65 83.49,-145.92 83.49,-137.31"/>
<polygon fill="red" stroke="red" stroke-width="2.1" points="86.99,-137.28 83.49,-127.28 79.99,-137.28 86.99,-137.28"/>
</g>
<!-- key 99973
bias &#45;0.396
h_scaling 0.439&#45;&gt;key 12728
bias &#45;0.460
h_scaling 0.602 -->
<g id="edge14" class="edge">
<title>key 99973
bias &#45;0.396
h_scaling 0.439&#45;&gt;key 12728
bias &#45;0.460
h_scaling 0.602</title>
<path fill="none" stroke="red" stroke-width="2.36" d="M268.87,-276.41C315.09,-336.99 384.49,-445.73 384.49,-552.48 384.49,-717.76 384.49,-717.76 384.49,-717.76 384.49,-821.31 388.26,-859.82 327.49,-943.68 305.33,-974.26 270.51,-997.59 239.38,-1013.86"/>
<polygon fill="red" stroke="red" stroke-width="2.36" points="237.62,-1010.83 230.29,-1018.48 240.79,-1017.07 237.62,-1010.83"/>
</g>
<!-- key 11954
bias 0.108
h_scaling 0.602 -->
<g id="node10" class="node">
<title>key 11954
bias 0.108
h_scaling 0.602</title>
<ellipse fill="white" stroke="black" cx="208.49" cy="-553.48" rx="63.78" ry="63.78"/>
<text text-anchor="middle" x="208.49" y="-561.28" font-family="Times,serif" font-size="9.00">key 11954</text>
<text text-anchor="middle" x="208.49" y="-551.28" font-family="Times,serif" font-size="9.00">bias 0.108</text>
<text text-anchor="middle" x="208.49" y="-541.28" font-family="Times,serif" font-size="9.00">h_scaling 0.602</text>
</g>
<!-- key 99973
bias &#45;0.396
h_scaling 0.439&#45;&gt;key 11954
bias 0.108
h_scaling 0.602 -->
<g id="edge17" class="edge">
<title>key 99973
bias &#45;0.396
h_scaling 0.439&#45;&gt;key 11954
bias 0.108
h_scaling 0.602</title>
<path fill="none" stroke="blue" stroke-width="3.93" d="M224.63,-290.58C221.29,-344.74 216.47,-423.03 212.97,-479.9"/>
<polygon fill="blue" stroke="blue" stroke-width="3.93" points="209.47,-479.7 212.35,-489.9 216.46,-480.13 209.47,-479.7"/>
</g>
<!-- key 12728
bias &#45;0.460
h_scaling 0.602&#45;&gt;key output
bias &#45;0.985
h_scaling 0.565 -->
<g id="edge20" class="edge">
<title>key 12728
bias &#45;0.460
h_scaling 0.602&#45;&gt;key output
bias &#45;0.985
h_scaling 0.565</title>
<path fill="none" stroke="blue" stroke-width="1.48" d="M148.93,-983.63C144.63,-972.45 140.1,-960.65 135.69,-949.19"/>
<polygon fill="blue" stroke="blue" stroke-width="1.48" points="138.89,-947.75 132.04,-939.67 132.36,-950.26 138.89,-947.75"/>
</g>
<!-- key 12728
bias &#45;0.460
h_scaling 0.602&#45;&gt;key 23296
bias &#45;0.614
h_scaling 0.510 -->
<g id="edge11" class="edge">
<title>key 12728
bias &#45;0.460
h_scaling 0.602&#45;&gt;key 23296
bias &#45;0.614
h_scaling 0.510</title>
<path fill="none" stroke="blue" stroke-width="1.89" d="M113.83,-1016.28C84.97,-999.91 52.79,-975.77 36.49,-943.68 -44.92,-783.37 30.33,-564.67 77.7,-456.83"/>
<polygon fill="blue" stroke="blue" stroke-width="1.89" points="80.9,-458.25 81.77,-447.69 74.5,-455.4 80.9,-458.25"/>
</g>
<!-- key 12728
bias &#45;0.460
h_scaling 0.602&#45;&gt;key 11137
bias &#45;0.510
h_scaling 0.710 -->
<g id="edge6" class="edge">
<title>key 12728
bias &#45;0.460
h_scaling 0.602&#45;&gt;key 11137
bias &#45;0.510
h_scaling 0.710</title>
<path fill="none" stroke="red" stroke-width="5.1" d="M200.29,-986.36C206.98,-973.35 214.17,-959.39 221.05,-946.03"/>
<polygon fill="red" stroke="red" stroke-width="5.1" points="225.14,-947.83 225.75,-936.89 217.2,-943.74 225.14,-947.83"/>
</g>
<!-- key 12728
bias &#45;0.460
h_scaling 0.602&#45;&gt;key 12728
bias &#45;0.460
h_scaling 0.602 -->
<g id="edge8" class="edge">
<title>key 12728
bias &#45;0.460
h_scaling 0.602&#45;&gt;key 12728
bias &#45;0.460
h_scaling 0.602</title>
<path fill="none" stroke="red" stroke-width="0.82" d="M232.38,-1062.73C244.49,-1060.54 253.13,-1054.07 253.13,-1043.31 253.13,-1035.75 248.86,-1030.31 242.11,-1026.98"/>
<polygon fill="red" stroke="red" stroke-width="0.82" points="242.97,-1023.58 232.38,-1023.9 240.85,-1030.25 242.97,-1023.58"/>
</g>
<!-- key 11954
bias 0.108
h_scaling 0.602&#45;&gt;key 23296
bias &#45;0.614
h_scaling 0.510 -->
<g id="edge9" class="edge">
<title>key 11954
bias 0.108
h_scaling 0.602&#45;&gt;key 23296
bias &#45;0.614
h_scaling 0.510</title>
<path fill="none" stroke="red" stroke-width="5.06" d="M175.53,-498.77C166.64,-484.3 156.95,-468.51 147.8,-453.6"/>
<polygon fill="red" stroke="red" stroke-width="5.06" points="151.49,-451.15 142.48,-444.94 143.94,-455.78 151.49,-451.15"/>
</g>
<!-- key 1432
bias 0.033
h_scaling 0.543&#45;&gt;key output
bias &#45;0.985
h_scaling 0.565 -->
<g id="edge2" class="edge">
<title>key 1432
bias 0.033
h_scaling 0.543&#45;&gt;key output
bias &#45;0.985
h_scaling 0.565</title>
<path fill="none" stroke="red" stroke-width="5.1" d="M180.4,-774.06C171.67,-788.85 161.88,-804.85 152.4,-819.79"/>
<polygon fill="red" stroke="red" stroke-width="5.1" points="148.49,-817.62 146.86,-828.45 156.01,-822.43 148.49,-817.62"/>
</g>
<!-- key 1432
bias 0.033
h_scaling 0.543&#45;&gt;key 11954
bias 0.108
h_scaling 0.602 -->
<g id="edge12" class="edge">
<title>key 1432
bias 0.033
h_scaling 0.543&#45;&gt;key 11954
bias 0.108
h_scaling 0.602</title>
<path fill="none" stroke="red" stroke-width="4.41" d="M208.49,-652.94C208.49,-644.49 208.49,-635.75 208.49,-627.15"/>
<polygon fill="red" stroke="red" stroke-width="4.41" points="212.35,-627.12 208.49,-617.12 204.64,-627.12 212.35,-627.12"/>
</g>
<!-- key 1432
bias 0.033
h_scaling 0.543&#45;&gt;key 1432
bias 0.033
h_scaling 0.543 -->
<g id="edge15" class="edge">
<title>key 1432
bias 0.033
h_scaling 0.543&#45;&gt;key 1432
bias 0.033
h_scaling 0.543</title>
<path fill="none" stroke="red" stroke-width="1.92" d="M264.96,-746.77C279.34,-744.8 290.13,-734.79 290.13,-716.76 290.13,-703.09 283.93,-694.03 274.68,-689.59"/>
<polygon fill="red" stroke="red" stroke-width="1.92" points="275.54,-686.2 264.96,-686.74 273.58,-692.92 275.54,-686.2"/>
</g>
</g>
</svg>
