<?xml version="1.0" encoding="UTF-8" standalone="no"?>
<!DOCTYPE svg PUBLIC "-//W3C//DTD SVG 1.1//EN"
 "http://www.w3.org/Graphics/SVG/1.1/DTD/svg11.dtd">
<!-- Generated by graphviz version 2.43.0 (0)
 -->
<!-- Title: %3 Pages: 1 -->
<svg width="396pt" height="729pt"
 viewBox="0.00 0.00 396.40 729.12" xmlns="http://www.w3.org/2000/svg" xmlns:xlink="http://www.w3.org/1999/xlink">
<g id="graph0" class="graph" transform="scale(1 1) rotate(0) translate(4 725.12)">
<title>%3</title>
<polygon fill="white" stroke="transparent" points="-4,4 -4,-725.12 392.4,-725.12 392.4,4 -4,4"/>
<!-- ready
output 0.000 -->
<g id="node1" class="node">
<title>ready
output 0.000</title>
<polygon fill="yellow" stroke="black" points="388.4,-721.12 311.4,-721.12 311.4,-693.12 388.4,-693.12 388.4,-721.12"/>
<text text-anchor="middle" x="349.9" y="-709.92" font-family="Times,serif" font-size="9.00">ready</text>
<text text-anchor="middle" x="349.9" y="-699.92" font-family="Times,serif" font-size="9.00">output 0.000</text>
</g>
<!-- key 3521
bias 0.494
h_scaling 1.000
output 0.043 -->
<g id="node4" class="node">
<title>key 3521
bias 0.494
h_scaling 1.000
output 0.043</title>
<ellipse fill="white" stroke="black" cx="190.9" cy="-583.48" rx="63.78" ry="63.78"/>
<text text-anchor="middle" x="190.9" y="-596.28" font-family="Times,serif" font-size="9.00">key 3521</text>
<text text-anchor="middle" x="190.9" y="-586.28" font-family="Times,serif" font-size="9.00">bias 0.494</text>
<text text-anchor="middle" x="190.9" y="-576.28" font-family="Times,serif" font-size="9.00">h_scaling 1.000</text>
<text text-anchor="middle" x="190.9" y="-566.28" font-family="Times,serif" font-size="9.00">output 0.043</text>
</g>
<!-- ready
output 0.000&#45;&gt;key 3521
bias 0.494
h_scaling 1.000
output 0.043 -->
<g id="edge13" class="edge">
<title>ready
output 0.000&#45;&gt;key 3521
bias 0.494
h_scaling 1.000
output 0.043</title>
<path fill="none" stroke="red" stroke-width="0.43" d="M332.88,-693.1C313.04,-677.92 279.16,-652 249.48,-629.29"/>
<polygon fill="red" stroke="red" stroke-width="0.43" points="251.3,-626.28 241.23,-622.98 247.04,-631.84 251.3,-626.28"/>
<text text-anchor="middle" x="320.9" y="-667.92" font-family="Times,serif" font-size="9.00">0.910</text>
</g>
<!-- key 17717
bias &#45;0.522
h_scaling 1.000
output 0.940 -->
<g id="node6" class="node">
<title>key 17717
bias &#45;0.522
h_scaling 1.000
output 0.940</title>
<ellipse fill="white" stroke="black" cx="220.9" cy="-236.92" rx="63.78" ry="63.78"/>
<text text-anchor="middle" x="220.9" y="-249.72" font-family="Times,serif" font-size="9.00">key 17717</text>
<text text-anchor="middle" x="220.9" y="-239.72" font-family="Times,serif" font-size="9.00">bias &#45;0.522</text>
<text text-anchor="middle" x="220.9" y="-229.72" font-family="Times,serif" font-size="9.00">h_scaling 1.000</text>
<text text-anchor="middle" x="220.9" y="-219.72" font-family="Times,serif" font-size="9.00">output 0.940</text>
</g>
<!-- ready
output 0.000&#45;&gt;key 17717
bias &#45;0.522
h_scaling 1.000
output 0.940 -->
<g id="edge10" class="edge">
<title>ready
output 0.000&#45;&gt;key 17717
bias &#45;0.522
h_scaling 1.000
output 0.940</title>
<path fill="none" stroke="blue" stroke-width="2.02" d="M348.43,-693.1C342.82,-645.68 320.95,-478.16 277.9,-346.56 272.85,-331.14 265.76,-315.27 258.29,-300.59"/>
<polygon fill="blue" stroke="blue" stroke-width="2.02" points="261.34,-298.86 253.61,-291.62 255.13,-302.1 261.34,-298.86"/>
<text text-anchor="middle" x="332.4" y="-494.64" font-family="Times,serif" font-size="9.00">&#45;0.640</text>
</g>
<!-- go
output 1.000 -->
<g id="node2" class="node">
<title>go
output 1.000</title>
<polygon fill="green" stroke="black" points="286.4,-721.12 209.4,-721.12 209.4,-693.12 286.4,-693.12 286.4,-721.12"/>
<text text-anchor="middle" x="247.9" y="-709.92" font-family="Times,serif" font-size="9.00">go</text>
<text text-anchor="middle" x="247.9" y="-699.92" font-family="Times,serif" font-size="9.00">output 1.000</text>
</g>
<!-- go
output 1.000&#45;&gt;key 3521
bias 0.494
h_scaling 1.000
output 0.043 -->
<g id="edge2" class="edge">
<title>go
output 1.000&#45;&gt;key 3521
bias 0.494
h_scaling 1.000
output 0.043</title>
<path fill="none" stroke="blue" stroke-width="2.83" d="M241.8,-693.1C236.9,-682.65 229.62,-667.11 222.09,-651.03"/>
<polygon fill="blue" stroke="blue" stroke-width="2.83" points="225.05,-649.11 217.64,-641.54 218.71,-652.08 225.05,-649.11"/>
<text text-anchor="middle" x="248.4" y="-667.92" font-family="Times,serif" font-size="9.00">&#45;0.911</text>
</g>
<!-- go
output 1.000&#45;&gt;key 17717
bias &#45;0.522
h_scaling 1.000
output 0.940 -->
<g id="edge3" class="edge">
<title>go
output 1.000&#45;&gt;key 17717
bias &#45;0.522
h_scaling 1.000
output 0.940</title>
<path fill="none" stroke="red" stroke-width="2.92" d="M258.69,-693.07C262.36,-687.82 266.02,-681.51 267.9,-675.12 269.16,-670.85 267.96,-669.56 267.9,-665.12 265.95,-523.46 282.29,-485.93 256.9,-346.56 254.5,-333.4 250.88,-319.64 246.83,-306.52"/>
<polygon fill="red" stroke="red" stroke-width="2.92" points="250.05,-305.08 243.67,-296.62 243.38,-307.21 250.05,-305.08"/>
<text text-anchor="middle" x="284.9" y="-494.64" font-family="Times,serif" font-size="9.00">1.742</text>
</g>
<!-- output
bias &#45;0.368
h_scaling 0.639
output 0.599 -->
<g id="node3" class="node">
<title>output
bias &#45;0.368
h_scaling 0.639
output 0.599</title>
<ellipse fill="lightblue" stroke="black" cx="139.9" cy="-410.2" rx="63.78" ry="63.78"/>
<text text-anchor="middle" x="139.9" y="-423" font-family="Times,serif" font-size="9.00">output</text>
<text text-anchor="middle" x="139.9" y="-413" font-family="Times,serif" font-size="9.00">bias &#45;0.368</text>
<text text-anchor="middle" x="139.9" y="-403" font-family="Times,serif" font-size="9.00">h_scaling 0.639</text>
<text text-anchor="middle" x="139.9" y="-393" font-family="Times,serif" font-size="9.00">output 0.599</text>
</g>
<!-- output
bias &#45;0.368
h_scaling 0.639
output 0.599&#45;&gt;key 3521
bias 0.494
h_scaling 1.000
output 0.043 -->
<g id="edge14" class="edge">
<title>output
bias &#45;0.368
h_scaling 0.639
output 0.599&#45;&gt;key 3521
bias 0.494
h_scaling 1.000
output 0.043</title>
<path fill="none" stroke="red" stroke-width="0.94" d="M132.51,-473.82C132.9,-483.34 134.2,-492.95 136.9,-501.84 139.21,-509.43 142.49,-516.96 146.32,-524.19"/>
<polygon fill="red" stroke="red" stroke-width="0.94" points="143.44,-526.21 151.43,-533.18 149.53,-522.76 143.44,-526.21"/>
<text text-anchor="middle" x="150.9" y="-494.64" font-family="Times,serif" font-size="9.00">0.440</text>
</g>
<!-- output
bias &#45;0.368
h_scaling 0.639
output 0.599&#45;&gt;key 17717
bias &#45;0.522
h_scaling 1.000
output 0.940 -->
<g id="edge11" class="edge">
<title>output
bias &#45;0.368
h_scaling 0.639
output 0.599&#45;&gt;key 17717
bias &#45;0.522
h_scaling 1.000
output 0.940</title>
<path fill="none" stroke="red" stroke-width="1.06" d="M166.87,-352.16C174.18,-336.71 182.15,-319.85 189.68,-303.94"/>
<polygon fill="red" stroke="red" stroke-width="1.06" points="192.93,-305.24 194.05,-294.7 186.61,-302.25 192.93,-305.24"/>
<text text-anchor="middle" x="194.9" y="-321.36" font-family="Times,serif" font-size="9.00">0.480</text>
</g>
<!-- key 3521
bias 0.494
h_scaling 1.000
output 0.043&#45;&gt;output
bias &#45;0.368
h_scaling 0.639
output 0.599 -->
<g id="edge1" class="edge">
<title>key 3521
bias 0.494
h_scaling 1.000
output 0.043&#45;&gt;output
bias &#45;0.368
h_scaling 0.639
output 0.599</title>
<path fill="none" stroke="red" stroke-width="3.1" d="M177,-521.29C174.48,-511.4 171.74,-501.3 168.9,-491.84 167.7,-487.83 166.41,-483.73 165.07,-479.61"/>
<polygon fill="red" stroke="red" stroke-width="3.1" points="168.34,-478.35 161.86,-469.97 161.7,-480.56 168.34,-478.35"/>
<text text-anchor="middle" x="185.9" y="-494.64" font-family="Times,serif" font-size="9.00">1.073</text>
</g>
<!-- key 24977
bias 0.137
h_scaling 0.172
output 0.083 -->
<g id="node5" class="node">
<title>key 24977
bias 0.137
h_scaling 0.172
output 0.083</title>
<ellipse fill="white" stroke="black" cx="78.9" cy="-63.64" rx="63.78" ry="63.78"/>
<text text-anchor="middle" x="78.9" y="-76.44" font-family="Times,serif" font-size="9.00">key 24977</text>
<text text-anchor="middle" x="78.9" y="-66.44" font-family="Times,serif" font-size="9.00">bias 0.137</text>
<text text-anchor="middle" x="78.9" y="-56.44" font-family="Times,serif" font-size="9.00">h_scaling 0.172</text>
<text text-anchor="middle" x="78.9" y="-46.44" font-family="Times,serif" font-size="9.00">output 0.083</text>
</g>
<!-- key 3521
bias 0.494
h_scaling 1.000
output 0.043&#45;&gt;key 24977
bias 0.137
h_scaling 0.172
output 0.083 -->
<g id="edge8" class="edge">
<title>key 3521
bias 0.494
h_scaling 1.000
output 0.043&#45;&gt;key 24977
bias 0.137
h_scaling 0.172
output 0.083</title>
<path fill="none" stroke="blue" stroke-width="3.08" d="M133.17,-556.32C99.17,-537.98 58.19,-510.23 33.9,-473.84 -2.8,-418.84 9.05,-394.29 1.9,-328.56 -5.7,-258.73 20.88,-181.97 44.86,-129.32"/>
<polygon fill="blue" stroke="blue" stroke-width="3.08" points="48.1,-130.65 49.14,-120.11 41.76,-127.7 48.1,-130.65"/>
<text text-anchor="middle" x="17.4" y="-321.36" font-family="Times,serif" font-size="9.00">&#45;0.994</text>
</g>
<!-- key 24977
bias 0.137
h_scaling 0.172
output 0.083&#45;&gt;output
bias &#45;0.368
h_scaling 0.639
output 0.599 -->
<g id="edge9" class="edge">
<title>key 24977
bias 0.137
h_scaling 0.172
output 0.083&#45;&gt;output
bias &#45;0.368
h_scaling 0.639
output 0.599</title>
<path fill="none" stroke="blue" stroke-width="2.51" d="M88.07,-126.87C95.3,-174.52 105.96,-241.83 116.9,-300.56 119.16,-312.67 121.72,-325.51 124.3,-337.95"/>
<polygon fill="blue" stroke="blue" stroke-width="2.51" points="120.89,-338.75 126.36,-347.83 127.74,-337.32 120.89,-338.75"/>
<text text-anchor="middle" x="132.4" y="-234.72" font-family="Times,serif" font-size="9.00">&#45;0.805</text>
</g>
<!-- key 24977
bias 0.137
h_scaling 0.172
output 0.083&#45;&gt;key 3521
bias 0.494
h_scaling 1.000
output 0.043 -->
<g id="edge4" class="edge">
<title>key 24977
bias 0.137
h_scaling 0.172
output 0.083&#45;&gt;key 3521
bias 0.494
h_scaling 1.000
output 0.043</title>
<path fill="none" stroke="blue" stroke-width="2.39" d="M61.25,-125.11C40.5,-207.94 15.03,-359.43 66.9,-473.84 79.8,-502.29 104.23,-526.22 128.03,-544.32"/>
<polygon fill="blue" stroke="blue" stroke-width="2.39" points="126.27,-547.37 136.4,-550.48 130.41,-541.74 126.27,-547.37"/>
<text text-anchor="middle" x="52.4" y="-321.36" font-family="Times,serif" font-size="9.00">&#45;0.762</text>
</g>
<!-- key 17717
bias &#45;0.522
h_scaling 1.000
output 0.940&#45;&gt;output
bias &#45;0.368
h_scaling 0.639
output 0.599 -->
<g id="edge12" class="edge">
<title>key 17717
bias &#45;0.522
h_scaling 1.000
output 0.940&#45;&gt;output
bias &#45;0.368
h_scaling 0.639
output 0.599</title>
<path fill="none" stroke="blue" stroke-width="2.62" d="M172.67,-279.09C162.04,-290.72 152.12,-304.17 145.9,-318.56 143.44,-324.26 141.59,-330.35 140.23,-336.58"/>
<polygon fill="blue" stroke="blue" stroke-width="2.62" points="136.78,-335.98 138.47,-346.44 143.67,-337.21 136.78,-335.98"/>
<text text-anchor="middle" x="161.4" y="-321.36" font-family="Times,serif" font-size="9.00">&#45;0.840</text>
</g>
<!-- key 17717
bias &#45;0.522
h_scaling 1.000
output 0.940&#45;&gt;key 3521
bias 0.494
h_scaling 1.000
output 0.043 -->
<g id="edge6" class="edge">
<title>key 17717
bias &#45;0.522
h_scaling 1.000
output 0.940&#45;&gt;key 3521
bias 0.494
h_scaling 1.000
output 0.043</title>
<path fill="none" stroke="blue" stroke-width="2.95" d="M221.6,-300.72C221.44,-348.37 219.76,-415.43 212.9,-473.84 211.47,-486.05 209.38,-498.94 207.05,-511.4"/>
<polygon fill="blue" stroke="blue" stroke-width="2.95" points="203.6,-510.8 205.14,-521.29 210.47,-512.13 203.6,-510.8"/>
<text text-anchor="middle" x="237.4" y="-408" font-family="Times,serif" font-size="9.00">&#45;0.951</text>
</g>
<!-- key 17717
bias &#45;0.522
h_scaling 1.000
output 0.940&#45;&gt;key 24977
bias 0.137
h_scaling 0.172
output 0.083 -->
<g id="edge5" class="edge">
<title>key 17717
bias &#45;0.522
h_scaling 1.000
output 0.940&#45;&gt;key 24977
bias 0.137
h_scaling 0.172
output 0.083</title>
<path fill="none" stroke="red" stroke-width="3.1" d="M180.59,-187.3C163.43,-166.6 143.3,-142.32 125.51,-120.86"/>
<polygon fill="red" stroke="red" stroke-width="3.1" points="128.14,-118.55 119.07,-113.09 122.75,-123.02 128.14,-118.55"/>
<text text-anchor="middle" x="163.9" y="-148.08" font-family="Times,serif" font-size="9.00">1.037</text>
</g>
<!-- key 17717
bias &#45;0.522
h_scaling 1.000
output 0.940&#45;&gt;key 17717
bias &#45;0.522
h_scaling 1.000
output 0.940 -->
<g id="edge7" class="edge">
<title>key 17717
bias &#45;0.522
h_scaling 1.000
output 0.940&#45;&gt;key 17717
bias &#45;0.522
h_scaling 1.000
output 0.940</title>
<path fill="none" stroke="red" stroke-width="1.85" d="M282.84,-252.22C294.4,-250.33 302.54,-245.23 302.54,-236.92 302.54,-231.2 298.69,-227.01 292.53,-224.33"/>
<polygon fill="red" stroke="red" stroke-width="1.85" points="293.42,-220.94 282.84,-221.62 291.53,-227.68 293.42,-220.94"/>
<text text-anchor="middle" x="316.54" y="-234.72" font-family="Times,serif" font-size="9.00">0.796</text>
</g>
</g>
</svg>
