<?xml version="1.0" encoding="UTF-8" standalone="no"?>
<!DOCTYPE svg PUBLIC "-//W3C//DTD SVG 1.1//EN"
 "http://www.w3.org/Graphics/SVG/1.1/DTD/svg11.dtd">
<!-- Generated by graphviz version 2.43.0 (0)
 -->
<!-- Title: %3 Pages: 1 -->
<svg width="492pt" height="846pt"
 viewBox="0.00 0.00 491.52 846.40" xmlns="http://www.w3.org/2000/svg" xmlns:xlink="http://www.w3.org/1999/xlink">
<g id="graph0" class="graph" transform="scale(1 1) rotate(0) translate(4 842.4)">
<title>%3</title>
<polygon fill="white" stroke="transparent" points="-4,4 -4,-842.4 487.52,-842.4 487.52,4 -4,4"/>
<!-- ready
output 0.000 -->
<g id="node1" class="node">
<title>ready
output 0.000</title>
<polygon fill="yellow" stroke="black" points="205.38,-838.4 128.38,-838.4 128.38,-810.4 205.38,-810.4 205.38,-838.4"/>
<text text-anchor="middle" x="166.88" y="-827.2" font-family="Times,serif" font-size="9.00">ready</text>
<text text-anchor="middle" x="166.88" y="-817.2" font-family="Times,serif" font-size="9.00">output 0.000</text>
</g>
<!-- key 2923
bias 0.457
h_scaling 0.973
output 0.934 -->
<g id="node5" class="node">
<title>key 2923
bias 0.457
h_scaling 0.973
output 0.934</title>
<ellipse fill="white" stroke="black" cx="138.88" cy="-527.48" rx="63.78" ry="63.78"/>
<text text-anchor="middle" x="138.88" y="-540.28" font-family="Times,serif" font-size="9.00">key 2923</text>
<text text-anchor="middle" x="138.88" y="-530.28" font-family="Times,serif" font-size="9.00">bias 0.457</text>
<text text-anchor="middle" x="138.88" y="-520.28" font-family="Times,serif" font-size="9.00">h_scaling 0.973</text>
<text text-anchor="middle" x="138.88" y="-510.28" font-family="Times,serif" font-size="9.00">output 0.934</text>
</g>
<!-- ready
output 0.000&#45;&gt;key 2923
bias 0.457
h_scaling 0.973
output 0.934 -->
<g id="edge15" class="edge">
<title>ready
output 0.000&#45;&gt;key 2923
bias 0.457
h_scaling 0.973
output 0.934</title>
<path fill="none" stroke="blue" stroke-width="0.1" d="M165.64,-810.34C162.23,-774.43 152.52,-672.12 145.78,-601.18"/>
<polygon fill="blue" stroke="blue" stroke-width="0.1" points="149.24,-600.58 144.81,-590.96 142.27,-601.24 149.24,-600.58"/>
<text text-anchor="middle" x="176.38" y="-698.56" font-family="Times,serif" font-size="9.00">&#45;0.361</text>
</g>
<!-- key 131602
bias &#45;0.581
h_scaling 0.026
output 0.267 -->
<g id="node6" class="node">
<title>key 131602
bias &#45;0.581
h_scaling 0.026
output 0.267</title>
<ellipse fill="white" stroke="black" cx="270.88" cy="-700.76" rx="63.78" ry="63.78"/>
<text text-anchor="middle" x="270.88" y="-713.56" font-family="Times,serif" font-size="9.00">key 131602</text>
<text text-anchor="middle" x="270.88" y="-703.56" font-family="Times,serif" font-size="9.00">bias &#45;0.581</text>
<text text-anchor="middle" x="270.88" y="-693.56" font-family="Times,serif" font-size="9.00">h_scaling 0.026</text>
<text text-anchor="middle" x="270.88" y="-683.56" font-family="Times,serif" font-size="9.00">output 0.267</text>
</g>
<!-- ready
output 0.000&#45;&gt;key 131602
bias &#45;0.581
h_scaling 0.026
output 0.267 -->
<g id="edge10" class="edge">
<title>ready
output 0.000&#45;&gt;key 131602
bias &#45;0.581
h_scaling 0.026
output 0.267</title>
<path fill="none" stroke="red" stroke-width="0.1" d="M178.01,-810.38C188.93,-797.61 206.34,-777.25 223.15,-757.58"/>
<polygon fill="red" stroke="red" stroke-width="0.1" points="225.96,-759.69 229.79,-749.81 220.64,-755.14 225.96,-759.69"/>
<text text-anchor="middle" x="213.88" y="-785.2" font-family="Times,serif" font-size="9.00">1.007</text>
</g>
<!-- go
output 1.000 -->
<g id="node2" class="node">
<title>go
output 1.000</title>
<polygon fill="green" stroke="black" points="95.38,-714.76 18.38,-714.76 18.38,-686.76 95.38,-686.76 95.38,-714.76"/>
<text text-anchor="middle" x="56.88" y="-703.56" font-family="Times,serif" font-size="9.00">go</text>
<text text-anchor="middle" x="56.88" y="-693.56" font-family="Times,serif" font-size="9.00">output 1.000</text>
</g>
<!-- key 42178
bias &#45;0.735
h_scaling 0.730
output 0.048 -->
<g id="node4" class="node">
<title>key 42178
bias &#45;0.735
h_scaling 0.730
output 0.048</title>
<ellipse fill="white" stroke="black" cx="195.88" cy="-63.64" rx="63.78" ry="63.78"/>
<text text-anchor="middle" x="195.88" y="-76.44" font-family="Times,serif" font-size="9.00">key 42178</text>
<text text-anchor="middle" x="195.88" y="-66.44" font-family="Times,serif" font-size="9.00">bias &#45;0.735</text>
<text text-anchor="middle" x="195.88" y="-56.44" font-family="Times,serif" font-size="9.00">h_scaling 0.730</text>
<text text-anchor="middle" x="195.88" y="-46.44" font-family="Times,serif" font-size="9.00">output 0.048</text>
</g>
<!-- go
output 1.000&#45;&gt;key 42178
bias &#45;0.735
h_scaling 0.730
output 0.048 -->
<g id="edge6" class="edge">
<title>go
output 1.000&#45;&gt;key 42178
bias &#45;0.735
h_scaling 0.730
output 0.048</title>
<path fill="none" stroke="blue" stroke-width="0.1" d="M52.27,-686.52C31.43,-624.31 -48.94,-356.35 44.88,-173.28 62.65,-138.6 97.21,-112.48 128.79,-94.55"/>
<polygon fill="blue" stroke="blue" stroke-width="0.1" points="130.52,-97.59 137.6,-89.71 127.15,-91.46 130.52,-97.59"/>
<text text-anchor="middle" x="19.38" y="-380" font-family="Times,serif" font-size="9.00">&#45;0.935</text>
</g>
<!-- go
output 1.000&#45;&gt;key 2923
bias 0.457
h_scaling 0.973
output 0.934 -->
<g id="edge2" class="edge">
<title>go
output 1.000&#45;&gt;key 2923
bias 0.457
h_scaling 0.973
output 0.934</title>
<path fill="none" stroke="red" stroke-width="0.1" d="M63.18,-686.6C72.57,-666.98 90.89,-628.72 107.15,-594.75"/>
<polygon fill="red" stroke="red" stroke-width="0.1" points="110.51,-595.83 111.67,-585.3 104.2,-592.81 110.51,-595.83"/>
<text text-anchor="middle" x="111.88" y="-611.92" font-family="Times,serif" font-size="9.00">1.207</text>
</g>
<!-- output
bias 0.227
h_scaling 0.438
output 0.793 -->
<g id="node3" class="node">
<title>output
bias 0.227
h_scaling 0.438
output 0.793</title>
<ellipse fill="lightblue" stroke="black" cx="117.88" cy="-236.92" rx="63.78" ry="63.78"/>
<text text-anchor="middle" x="117.88" y="-249.72" font-family="Times,serif" font-size="9.00">output</text>
<text text-anchor="middle" x="117.88" y="-239.72" font-family="Times,serif" font-size="9.00">bias 0.227</text>
<text text-anchor="middle" x="117.88" y="-229.72" font-family="Times,serif" font-size="9.00">h_scaling 0.438</text>
<text text-anchor="middle" x="117.88" y="-219.72" font-family="Times,serif" font-size="9.00">output 0.793</text>
</g>
<!-- output
bias 0.227
h_scaling 0.438
output 0.793&#45;&gt;key 42178
bias &#45;0.735
h_scaling 0.730
output 0.048 -->
<g id="edge9" class="edge">
<title>output
bias 0.227
h_scaling 0.438
output 0.793&#45;&gt;key 42178
bias &#45;0.735
h_scaling 0.730
output 0.048</title>
<path fill="none" stroke="blue" stroke-width="0.1" d="M114.13,-173.24C115.2,-163.63 117.28,-154.01 120.88,-145.28 125.65,-133.7 132.89,-122.77 141.02,-112.91"/>
<polygon fill="blue" stroke="blue" stroke-width="0.1" points="143.78,-115.09 147.71,-105.25 138.5,-110.49 143.78,-115.09"/>
<text text-anchor="middle" x="136.38" y="-148.08" font-family="Times,serif" font-size="9.00">&#45;0.860</text>
</g>
<!-- output
bias 0.227
h_scaling 0.438
output 0.793&#45;&gt;key 2923
bias 0.457
h_scaling 0.973
output 0.934 -->
<g id="edge3" class="edge">
<title>output
bias 0.227
h_scaling 0.438
output 0.793&#45;&gt;key 2923
bias 0.457
h_scaling 0.973
output 0.934</title>
<path fill="none" stroke="red" stroke-width="0.1" d="M131.21,-299.39C132.26,-305.84 133.19,-312.32 133.88,-318.56 138.8,-363.13 140.12,-413.39 140.18,-453.33"/>
<polygon fill="red" stroke="red" stroke-width="0.1" points="136.68,-453.51 140.17,-463.51 143.68,-453.51 136.68,-453.51"/>
<text text-anchor="middle" x="153.88" y="-380" font-family="Times,serif" font-size="9.00">0.707</text>
</g>
<!-- key 42178
bias &#45;0.735
h_scaling 0.730
output 0.048&#45;&gt;output
bias 0.227
h_scaling 0.438
output 0.793 -->
<g id="edge16" class="edge">
<title>key 42178
bias &#45;0.735
h_scaling 0.730
output 0.048&#45;&gt;output
bias 0.227
h_scaling 0.438
output 0.793</title>
<path fill="none" stroke="red" stroke-width="0.1" d="M169.76,-122C162.91,-137.04 155.46,-153.39 148.4,-168.89"/>
<polygon fill="red" stroke="red" stroke-width="0.1" points="145.03,-167.86 144.07,-178.41 151.4,-170.76 145.03,-167.86"/>
<text text-anchor="middle" x="170.88" y="-148.08" font-family="Times,serif" font-size="9.00">0.269</text>
</g>
<!-- key 42178
bias &#45;0.735
h_scaling 0.730
output 0.048&#45;&gt;key 42178
bias &#45;0.735
h_scaling 0.730
output 0.048 -->
<g id="edge8" class="edge">
<title>key 42178
bias &#45;0.735
h_scaling 0.730
output 0.048&#45;&gt;key 42178
bias &#45;0.735
h_scaling 0.730
output 0.048</title>
<path fill="none" stroke="red" stroke-width="0.1" d="M257.82,-78.94C269.38,-77.05 277.52,-71.95 277.52,-63.64 277.52,-57.92 273.67,-53.73 267.51,-51.05"/>
<polygon fill="red" stroke="red" stroke-width="0.1" points="268.39,-47.66 257.82,-48.34 266.51,-54.4 268.39,-47.66"/>
<text text-anchor="middle" x="291.52" y="-61.44" font-family="Times,serif" font-size="9.00">1.098</text>
</g>
<!-- key 42178
bias &#45;0.735
h_scaling 0.730
output 0.048&#45;&gt;key 2923
bias 0.457
h_scaling 0.973
output 0.934 -->
<g id="edge5" class="edge">
<title>key 42178
bias &#45;0.735
h_scaling 0.730
output 0.048&#45;&gt;key 2923
bias 0.457
h_scaling 0.973
output 0.934</title>
<path fill="none" stroke="blue" stroke-width="0.1" d="M199.33,-127.23C201.88,-203.75 200.86,-336.55 171.88,-445.84 170.71,-450.23 169.37,-454.71 167.9,-459.18"/>
<polygon fill="blue" stroke="blue" stroke-width="0.1" points="164.48,-458.36 164.51,-468.95 171.09,-460.65 164.48,-458.36"/>
<text text-anchor="middle" x="215.38" y="-234.72" font-family="Times,serif" font-size="9.00">&#45;0.967</text>
</g>
<!-- key 2923
bias 0.457
h_scaling 0.973
output 0.934&#45;&gt;output
bias 0.227
h_scaling 0.438
output 0.793 -->
<g id="edge1" class="edge">
<title>key 2923
bias 0.457
h_scaling 0.973
output 0.934&#45;&gt;output
bias 0.227
h_scaling 0.438
output 0.793</title>
<path fill="none" stroke="blue" stroke-width="0.1" d="M110.23,-470.21C107.2,-462.2 104.6,-453.93 102.88,-445.84 93.35,-401.13 96.88,-349.93 102.89,-309.53"/>
<polygon fill="blue" stroke="blue" stroke-width="0.1" points="106.37,-309.92 104.47,-299.5 99.46,-308.83 106.37,-309.92"/>
<text text-anchor="middle" x="118.38" y="-380" font-family="Times,serif" font-size="9.00">&#45;0.983</text>
</g>
<!-- key 2923
bias 0.457
h_scaling 0.973
output 0.934&#45;&gt;key 2923
bias 0.457
h_scaling 0.973
output 0.934 -->
<g id="edge4" class="edge">
<title>key 2923
bias 0.457
h_scaling 0.973
output 0.934&#45;&gt;key 2923
bias 0.457
h_scaling 0.973
output 0.934</title>
<path fill="none" stroke="red" stroke-width="0.1" d="M200.82,-542.77C212.38,-540.89 220.52,-535.79 220.52,-527.48 220.52,-521.76 216.67,-517.56 210.51,-514.89"/>
<polygon fill="red" stroke="red" stroke-width="0.1" points="211.39,-511.5 200.82,-512.18 209.51,-518.24 211.39,-511.5"/>
<text text-anchor="middle" x="234.52" y="-525.28" font-family="Times,serif" font-size="9.00">1.359</text>
</g>
<!-- key 131602
bias &#45;0.581
h_scaling 0.026
output 0.267&#45;&gt;key 42178
bias &#45;0.735
h_scaling 0.730
output 0.048 -->
<g id="edge13" class="edge">
<title>key 131602
bias &#45;0.581
h_scaling 0.026
output 0.267&#45;&gt;key 42178
bias &#45;0.735
h_scaling 0.730
output 0.048</title>
<path fill="none" stroke="red" stroke-width="0.1" d="M272.35,-636.95C273.4,-537.42 270.27,-337.86 234.88,-173.28 231.98,-159.8 227.82,-145.72 223.29,-132.33"/>
<polygon fill="red" stroke="red" stroke-width="0.1" points="226.54,-131.02 219.94,-122.73 219.93,-133.32 226.54,-131.02"/>
<text text-anchor="middle" x="281.88" y="-380" font-family="Times,serif" font-size="9.00">0.355</text>
</g>
<!-- key 131602
bias &#45;0.581
h_scaling 0.026
output 0.267&#45;&gt;key 2923
bias 0.457
h_scaling 0.973
output 0.934 -->
<g id="edge11" class="edge">
<title>key 131602
bias &#45;0.581
h_scaling 0.026
output 0.267&#45;&gt;key 2923
bias 0.457
h_scaling 0.973
output 0.934</title>
<path fill="none" stroke="blue" stroke-width="0.1" d="M232.34,-649.76C217.09,-629.97 199.46,-607.09 183.65,-586.57"/>
<polygon fill="blue" stroke="blue" stroke-width="0.1" points="186.34,-584.33 177.46,-578.54 180.79,-588.6 186.34,-584.33"/>
<text text-anchor="middle" x="220.38" y="-611.92" font-family="Times,serif" font-size="9.00">&#45;0.677</text>
</g>
<!-- key 131602
bias &#45;0.581
h_scaling 0.026
output 0.267&#45;&gt;key 131602
bias &#45;0.581
h_scaling 0.026
output 0.267 -->
<g id="edge12" class="edge">
<title>key 131602
bias &#45;0.581
h_scaling 0.026
output 0.267&#45;&gt;key 131602
bias &#45;0.581
h_scaling 0.026
output 0.267</title>
<path fill="none" stroke="red" stroke-width="0.1" d="M332.82,-716.05C344.38,-714.17 352.52,-709.07 352.52,-700.76 352.52,-695.04 348.67,-690.84 342.51,-688.17"/>
<polygon fill="red" stroke="red" stroke-width="0.1" points="343.39,-684.78 332.82,-685.46 341.51,-691.52 343.39,-684.78"/>
<text text-anchor="middle" x="366.52" y="-698.56" font-family="Times,serif" font-size="9.00">0.922</text>
</g>
<!-- key 69010
bias &#45;0.093
h_scaling 0.960
output 0.878 -->
<g id="node7" class="node">
<title>key 69010
bias &#45;0.093
h_scaling 0.960
output 0.878</title>
<ellipse fill="white" stroke="black" cx="373.88" cy="-382.2" rx="63.78" ry="63.78"/>
<text text-anchor="middle" x="373.88" y="-395" font-family="Times,serif" font-size="9.00">key 69010</text>
<text text-anchor="middle" x="373.88" y="-385" font-family="Times,serif" font-size="9.00">bias &#45;0.093</text>
<text text-anchor="middle" x="373.88" y="-375" font-family="Times,serif" font-size="9.00">h_scaling 0.960</text>
<text text-anchor="middle" x="373.88" y="-365" font-family="Times,serif" font-size="9.00">output 0.878</text>
</g>
<!-- key 131602
bias &#45;0.581
h_scaling 0.026
output 0.267&#45;&gt;key 69010
bias &#45;0.093
h_scaling 0.960
output 0.878 -->
<g id="edge14" class="edge">
<title>key 131602
bias &#45;0.581
h_scaling 0.026
output 0.267&#45;&gt;key 69010
bias &#45;0.093
h_scaling 0.960
output 0.878</title>
<path fill="none" stroke="red" stroke-width="0.1" d="M290.37,-639.84C307.7,-586.58 333.05,-508.69 351.26,-452.7"/>
<polygon fill="red" stroke="red" stroke-width="0.1" points="354.7,-453.46 354.46,-442.87 348.04,-451.29 354.7,-453.46"/>
<text text-anchor="middle" x="312.88" y="-611.92" font-family="Times,serif" font-size="9.00">1.288</text>
</g>
<!-- key 69010
bias &#45;0.093
h_scaling 0.960
output 0.878&#45;&gt;key 42178
bias &#45;0.735
h_scaling 0.730
output 0.048 -->
<g id="edge7" class="edge">
<title>key 69010
bias &#45;0.093
h_scaling 0.960
output 0.878&#45;&gt;key 42178
bias &#45;0.735
h_scaling 0.730
output 0.048</title>
<path fill="none" stroke="red" stroke-width="0.1" d="M361.66,-319.69C349.58,-269.51 327.49,-198.49 290.88,-145.28 281.33,-131.41 268.81,-118.51 256,-107.29"/>
<polygon fill="red" stroke="red" stroke-width="0.1" points="257.9,-104.31 248.01,-100.52 253.38,-109.65 257.9,-104.31"/>
<text text-anchor="middle" x="369.88" y="-234.72" font-family="Times,serif" font-size="9.00">0.596</text>
</g>
<!-- key 69010
bias &#45;0.093
h_scaling 0.960
output 0.878&#45;&gt;key 69010
bias &#45;0.093
h_scaling 0.960
output 0.878 -->
<g id="edge17" class="edge">
<title>key 69010
bias &#45;0.093
h_scaling 0.960
output 0.878&#45;&gt;key 69010
bias &#45;0.093
h_scaling 0.960
output 0.878</title>
<path fill="none" stroke="red" stroke-width="0.1" d="M431.85,-408.66C445.47,-406.49 455.52,-397.67 455.52,-382.2 455.52,-370.72 449.98,-362.9 441.56,-358.74"/>
<polygon fill="red" stroke="red" stroke-width="0.1" points="442.44,-355.35 431.85,-355.73 440.37,-362.03 442.44,-355.35"/>
<text text-anchor="middle" x="469.52" y="-380" font-family="Times,serif" font-size="9.00">0.635</text>
</g>
</g>
</svg>
