<?xml version="1.0" encoding="UTF-8" standalone="no"?>
<!DOCTYPE svg PUBLIC "-//W3C//DTD SVG 1.1//EN"
 "http://www.w3.org/Graphics/SVG/1.1/DTD/svg11.dtd">
<!-- Generated by graphviz version 2.43.0 (0)
 -->
<!-- Title: %3 Pages: 1 -->
<svg width="413pt" height="883pt"
 viewBox="0.00 0.00 413.28 883.40" xmlns="http://www.w3.org/2000/svg" xmlns:xlink="http://www.w3.org/1999/xlink">
<g id="graph0" class="graph" transform="scale(1 1) rotate(0) translate(4 879.4)">
<title>%3</title>
<polygon fill="white" stroke="transparent" points="-4,4 -4,-879.4 409.28,-879.4 409.28,4 -4,4"/>
<!-- ready -->
<g id="node1" class="node">
<title>ready</title>
<polygon fill="yellow" stroke="black" points="158.14,-875.4 115.14,-875.4 115.14,-857.4 158.14,-857.4 158.14,-875.4"/>
<text text-anchor="middle" x="136.64" y="-864.2" font-family="Times,serif" font-size="9.00">ready</text>
</g>
<!-- key 218025
bias &#45;0.260
h_scaling 1.000 -->
<g id="node6" class="node">
<title>key 218025
bias &#45;0.260
h_scaling 1.000</title>
<ellipse fill="white" stroke="black" cx="63.64" cy="-574.48" rx="63.78" ry="63.78"/>
<text text-anchor="middle" x="63.64" y="-582.28" font-family="Times,serif" font-size="9.00">key 218025</text>
<text text-anchor="middle" x="63.64" y="-572.28" font-family="Times,serif" font-size="9.00">bias &#45;0.260</text>
<text text-anchor="middle" x="63.64" y="-562.28" font-family="Times,serif" font-size="9.00">h_scaling 1.000</text>
</g>
<!-- ready&#45;&gt;key 218025
bias &#45;0.260
h_scaling 1.000 -->
<g id="edge14" class="edge">
<title>ready&#45;&gt;key 218025
bias &#45;0.260
h_scaling 1.000</title>
<path fill="none" stroke="red" stroke-width="0.1" d="M115.13,-860.8C90.94,-854.35 52.81,-840.05 35.64,-811.4 5.23,-760.65 17.69,-692.71 34.52,-642.77"/>
<polygon fill="red" stroke="red" stroke-width="0.1" points="37.93,-643.63 37.93,-633.03 31.32,-641.31 37.93,-643.63"/>
<text text-anchor="middle" x="49.64" y="-745.56" font-family="Times,serif" font-size="9.00">0.000</text>
</g>
<!-- key 594
bias &#45;0.476
h_scaling 1.000 -->
<g id="node7" class="node">
<title>key 594
bias &#45;0.476
h_scaling 1.000</title>
<ellipse fill="white" stroke="black" cx="295.64" cy="-401.2" rx="63.78" ry="63.78"/>
<text text-anchor="middle" x="295.64" y="-409" font-family="Times,serif" font-size="9.00">key 594</text>
<text text-anchor="middle" x="295.64" y="-399" font-family="Times,serif" font-size="9.00">bias &#45;0.476</text>
<text text-anchor="middle" x="295.64" y="-389" font-family="Times,serif" font-size="9.00">h_scaling 1.000</text>
</g>
<!-- ready&#45;&gt;key 594
bias &#45;0.476
h_scaling 1.000 -->
<g id="edge4" class="edge">
<title>ready&#45;&gt;key 594
bias &#45;0.476
h_scaling 1.000</title>
<path fill="none" stroke="blue" stroke-width="0.1" d="M158.38,-862.21C185.95,-856.91 232.67,-843.5 255.64,-811.4 274.72,-784.73 287.02,-585.5 292.44,-475.19"/>
<polygon fill="blue" stroke="blue" stroke-width="0.1" points="295.94,-475.28 292.93,-465.12 288.95,-474.94 295.94,-475.28"/>
</g>
<!-- key 200927
bias &#45;0.469
h_scaling 1.000 -->
<g id="node8" class="node">
<title>key 200927
bias &#45;0.469
h_scaling 1.000</title>
<ellipse fill="white" stroke="black" cx="136.64" cy="-747.76" rx="63.78" ry="63.78"/>
<text text-anchor="middle" x="136.64" y="-755.56" font-family="Times,serif" font-size="9.00">key 200927</text>
<text text-anchor="middle" x="136.64" y="-745.56" font-family="Times,serif" font-size="9.00">bias &#45;0.469</text>
<text text-anchor="middle" x="136.64" y="-735.56" font-family="Times,serif" font-size="9.00">h_scaling 1.000</text>
</g>
<!-- ready&#45;&gt;key 200927
bias &#45;0.469
h_scaling 1.000 -->
<g id="edge5" class="edge">
<title>ready&#45;&gt;key 200927
bias &#45;0.469
h_scaling 1.000</title>
<path fill="none" stroke="red" stroke-width="0.1" d="M136.64,-857.38C136.64,-849.35 136.64,-836.13 136.64,-821.63"/>
<polygon fill="red" stroke="red" stroke-width="0.1" points="140.14,-821.43 136.64,-811.43 133.14,-821.43 140.14,-821.43"/>
<text text-anchor="middle" x="150.64" y="-832.2" font-family="Times,serif" font-size="9.00">0.000</text>
</g>
<!-- go -->
<g id="node2" class="node">
<title>go</title>
<polygon fill="green" stroke="black" points="330.64,-583.48 302.64,-583.48 302.64,-565.48 330.64,-565.48 330.64,-583.48"/>
<text text-anchor="middle" x="316.64" y="-572.28" font-family="Times,serif" font-size="9.00">go</text>
</g>
<!-- go&#45;&gt;key 594
bias &#45;0.476
h_scaling 1.000 -->
<g id="edge2" class="edge">
<title>go&#45;&gt;key 594
bias &#45;0.476
h_scaling 1.000</title>
<path fill="none" stroke="red" stroke-width="0.1" d="M315.63,-565.22C313.61,-548.73 308.89,-510.3 304.55,-474.89"/>
<polygon fill="red" stroke="red" stroke-width="0.1" points="307.97,-474.01 303.28,-464.51 301.02,-474.87 307.97,-474.01"/>
<text text-anchor="middle" x="319.64" y="-485.64" font-family="Times,serif" font-size="9.00">0.000</text>
</g>
<!-- output
bias 0.674
h_scaling 1.000 -->
<g id="node3" class="node">
<title>output
bias 0.674
h_scaling 1.000</title>
<ellipse fill="lightblue" stroke="black" cx="201.64" cy="-63.64" rx="63.78" ry="63.78"/>
<text text-anchor="middle" x="201.64" y="-71.44" font-family="Times,serif" font-size="9.00">output</text>
<text text-anchor="middle" x="201.64" y="-61.44" font-family="Times,serif" font-size="9.00">bias 0.674</text>
<text text-anchor="middle" x="201.64" y="-51.44" font-family="Times,serif" font-size="9.00">h_scaling 1.000</text>
</g>
<!-- output
bias 0.674
h_scaling 1.000&#45;&gt;key 218025
bias &#45;0.260
h_scaling 1.000 -->
<g id="edge9" class="edge">
<title>output
bias 0.674
h_scaling 1.000&#45;&gt;key 218025
bias &#45;0.260
h_scaling 1.000</title>
<path fill="none" stroke="blue" stroke-width="0.1" d="M159.73,-111.67C117.25,-162.94 54.61,-249.51 31.64,-337.56 17.27,-392.63 27.62,-456.72 40.25,-504.19"/>
<polygon fill="blue" stroke="blue" stroke-width="0.1" points="36.94,-505.35 42.98,-514.06 43.69,-503.48 36.94,-505.35"/>
</g>
<!-- key 230372
bias 0.608
h_scaling 1.000 -->
<g id="node4" class="node">
<title>key 230372
bias 0.608
h_scaling 1.000</title>
<ellipse fill="white" stroke="black" cx="104.64" cy="-401.2" rx="63.78" ry="63.78"/>
<text text-anchor="middle" x="104.64" y="-409" font-family="Times,serif" font-size="9.00">key 230372</text>
<text text-anchor="middle" x="104.64" y="-399" font-family="Times,serif" font-size="9.00">bias 0.608</text>
<text text-anchor="middle" x="104.64" y="-389" font-family="Times,serif" font-size="9.00">h_scaling 1.000</text>
</g>
<!-- key 230372
bias 0.608
h_scaling 1.000&#45;&gt;key 230372
bias 0.608
h_scaling 1.000 -->
<g id="edge13" class="edge">
<title>key 230372
bias 0.608
h_scaling 1.000&#45;&gt;key 230372
bias 0.608
h_scaling 1.000</title>
<path fill="none" stroke="red" stroke-width="0.1" d="M166.58,-416.5C178.14,-414.61 186.28,-409.51 186.28,-401.2 186.28,-395.48 182.43,-391.29 176.27,-388.61"/>
<polygon fill="red" stroke="red" stroke-width="0.1" points="177.16,-385.22 166.58,-385.9 175.27,-391.96 177.16,-385.22"/>
<text text-anchor="middle" x="200.28" y="-399" font-family="Times,serif" font-size="9.00">0.000</text>
</g>
<!-- key 240969
bias &#45;0.740
h_scaling 1.000 -->
<g id="node5" class="node">
<title>key 240969
bias &#45;0.740
h_scaling 1.000</title>
<ellipse fill="white" stroke="black" cx="201.64" cy="-227.92" rx="63.78" ry="63.78"/>
<text text-anchor="middle" x="201.64" y="-235.72" font-family="Times,serif" font-size="9.00">key 240969</text>
<text text-anchor="middle" x="201.64" y="-225.72" font-family="Times,serif" font-size="9.00">bias &#45;0.740</text>
<text text-anchor="middle" x="201.64" y="-215.72" font-family="Times,serif" font-size="9.00">h_scaling 1.000</text>
</g>
<!-- key 230372
bias 0.608
h_scaling 1.000&#45;&gt;key 240969
bias &#45;0.740
h_scaling 1.000 -->
<g id="edge15" class="edge">
<title>key 230372
bias 0.608
h_scaling 1.000&#45;&gt;key 240969
bias &#45;0.740
h_scaling 1.000</title>
<path fill="none" stroke="red" stroke-width="0.1" d="M135.6,-345.53C145.14,-328.69 155.72,-310 165.57,-292.61"/>
<polygon fill="red" stroke="red" stroke-width="0.1" points="168.76,-294.08 170.64,-283.65 162.67,-290.63 168.76,-294.08"/>
<text text-anchor="middle" x="166.64" y="-312.36" font-family="Times,serif" font-size="9.00">0.000</text>
</g>
<!-- key 240969
bias &#45;0.740
h_scaling 1.000&#45;&gt;output
bias 0.674
h_scaling 1.000 -->
<g id="edge11" class="edge">
<title>key 240969
bias &#45;0.740
h_scaling 1.000&#45;&gt;output
bias 0.674
h_scaling 1.000</title>
<path fill="none" stroke="blue" stroke-width="0.1" d="M201.64,-164.18C201.64,-155.52 201.64,-146.57 201.64,-137.75"/>
<polygon fill="blue" stroke="blue" stroke-width="0.1" points="205.14,-137.48 201.64,-127.48 198.14,-137.48 205.14,-137.48"/>
</g>
<!-- key 240969
bias &#45;0.740
h_scaling 1.000&#45;&gt;key 594
bias &#45;0.476
h_scaling 1.000 -->
<g id="edge12" class="edge">
<title>key 240969
bias &#45;0.740
h_scaling 1.000&#45;&gt;key 594
bias &#45;0.476
h_scaling 1.000</title>
<path fill="none" stroke="red" stroke-width="0.1" d="M231.84,-283.95C240.98,-300.6 251.09,-319.03 260.52,-336.21"/>
<polygon fill="red" stroke="red" stroke-width="0.1" points="257.5,-337.98 265.38,-345.06 263.64,-334.61 257.5,-337.98"/>
<text text-anchor="middle" x="262.64" y="-312.36" font-family="Times,serif" font-size="9.00">0.000</text>
</g>
<!-- key 218025
bias &#45;0.260
h_scaling 1.000&#45;&gt;key 594
bias &#45;0.476
h_scaling 1.000 -->
<g id="edge8" class="edge">
<title>key 218025
bias &#45;0.260
h_scaling 1.000&#45;&gt;key 594
bias &#45;0.476
h_scaling 1.000</title>
<path fill="none" stroke="blue" stroke-width="0.1" d="M117,-539.55C148.65,-518.86 189.19,-491.37 223.64,-464.84 229.33,-460.46 235.15,-455.77 240.9,-451"/>
<polygon fill="blue" stroke="blue" stroke-width="0.1" points="243.27,-453.58 248.68,-444.46 238.77,-448.22 243.27,-453.58"/>
</g>
<!-- key 594
bias &#45;0.476
h_scaling 1.000&#45;&gt;output
bias 0.674
h_scaling 1.000 -->
<g id="edge1" class="edge">
<title>key 594
bias &#45;0.476
h_scaling 1.000&#45;&gt;output
bias 0.674
h_scaling 1.000</title>
<path fill="none" stroke="blue" stroke-width="0.1" d="M299.08,-337.57C299.64,-288.82 295.75,-220.26 274.64,-164.28 268.78,-148.74 259.79,-133.49 250.09,-119.77"/>
<polygon fill="blue" stroke="blue" stroke-width="0.1" points="252.72,-117.43 243.99,-111.44 247.08,-121.57 252.72,-117.43"/>
</g>
<!-- key 594
bias &#45;0.476
h_scaling 1.000&#45;&gt;key 240969
bias &#45;0.740
h_scaling 1.000 -->
<g id="edge10" class="edge">
<title>key 594
bias &#45;0.476
h_scaling 1.000&#45;&gt;key 240969
bias &#45;0.740
h_scaling 1.000</title>
<path fill="none" stroke="red" stroke-width="0.1" d="M248.05,-358.7C239.91,-351.64 231.54,-344.38 223.64,-337.56 214.34,-329.52 207.84,-330.7 202.64,-319.56 199.98,-313.85 198.12,-307.71 196.89,-301.41"/>
<polygon fill="red" stroke="red" stroke-width="0.1" points="200.34,-300.82 195.43,-291.43 193.41,-301.83 200.34,-300.82"/>
<text text-anchor="middle" x="216.64" y="-312.36" font-family="Times,serif" font-size="9.00">0.000</text>
</g>
<!-- key 594
bias &#45;0.476
h_scaling 1.000&#45;&gt;key 594
bias &#45;0.476
h_scaling 1.000 -->
<g id="edge3" class="edge">
<title>key 594
bias &#45;0.476
h_scaling 1.000&#45;&gt;key 594
bias &#45;0.476
h_scaling 1.000</title>
<path fill="none" stroke="red" stroke-width="0.1" d="M357.58,-416.5C369.14,-414.61 377.28,-409.51 377.28,-401.2 377.28,-395.48 373.43,-391.29 367.27,-388.61"/>
<polygon fill="red" stroke="red" stroke-width="0.1" points="368.16,-385.22 357.58,-385.9 366.27,-391.96 368.16,-385.22"/>
<text text-anchor="middle" x="391.28" y="-399" font-family="Times,serif" font-size="9.00">0.000</text>
</g>
<!-- key 200927
bias &#45;0.469
h_scaling 1.000&#45;&gt;key 218025
bias &#45;0.260
h_scaling 1.000 -->
<g id="edge7" class="edge">
<title>key 200927
bias &#45;0.469
h_scaling 1.000&#45;&gt;key 218025
bias &#45;0.260
h_scaling 1.000</title>
<path fill="none" stroke="red" stroke-width="0.1" d="M111.93,-688.77C105.62,-673.98 98.79,-657.96 92.31,-642.75"/>
<polygon fill="red" stroke="red" stroke-width="0.1" points="95.47,-641.23 88.33,-633.4 89.03,-643.98 95.47,-641.23"/>
<text text-anchor="middle" x="114.64" y="-658.92" font-family="Times,serif" font-size="9.00">0.000</text>
</g>
<!-- key 200927
bias &#45;0.469
h_scaling 1.000&#45;&gt;key 200927
bias &#45;0.469
h_scaling 1.000 -->
<g id="edge6" class="edge">
<title>key 200927
bias &#45;0.469
h_scaling 1.000&#45;&gt;key 200927
bias &#45;0.469
h_scaling 1.000</title>
<path fill="none" stroke="red" stroke-width="0.1" d="M198.58,-763.05C210.14,-761.17 218.28,-756.07 218.28,-747.76 218.28,-742.04 214.43,-737.84 208.27,-735.17"/>
<polygon fill="red" stroke="red" stroke-width="0.1" points="209.16,-731.78 198.58,-732.46 207.27,-738.52 209.16,-731.78"/>
<text text-anchor="middle" x="232.28" y="-745.56" font-family="Times,serif" font-size="9.00">0.000</text>
</g>
</g>
</svg>
