<?xml version="1.0" encoding="UTF-8" standalone="no"?>
<!DOCTYPE svg PUBLIC "-//W3C//DTD SVG 1.1//EN"
 "http://www.w3.org/Graphics/SVG/1.1/DTD/svg11.dtd">
<!-- Generated by graphviz version 2.43.0 (0)
 -->
<!-- Title: %3 Pages: 1 -->
<svg width="413pt" height="892pt"
 viewBox="0.00 0.00 413.28 892.40" xmlns="http://www.w3.org/2000/svg" xmlns:xlink="http://www.w3.org/1999/xlink">
<g id="graph0" class="graph" transform="scale(1 1) rotate(0) translate(4 888.4)">
<title>%3</title>
<polygon fill="white" stroke="transparent" points="-4,4 -4,-888.4 409.28,-888.4 409.28,4 -4,4"/>
<!-- ready -->
<g id="node1" class="node">
<title>ready</title>
<polygon fill="yellow" stroke="black" points="158.14,-884.4 115.14,-884.4 115.14,-866.4 158.14,-866.4 158.14,-884.4"/>
<text text-anchor="middle" x="136.64" y="-873.2" font-family="Times,serif" font-size="9.00">ready</text>
</g>
<!-- key 218025
bias &#45;0.260
h_scaling 1.000 -->
<g id="node6" class="node">
<title>key 218025
bias &#45;0.260
h_scaling 1.000</title>
<ellipse fill="white" stroke="black" cx="63.64" cy="-583.48" rx="63.78" ry="63.78"/>
<text text-anchor="middle" x="63.64" y="-591.28" font-family="Times,serif" font-size="9.00">key 218025</text>
<text text-anchor="middle" x="63.64" y="-581.28" font-family="Times,serif" font-size="9.00">bias &#45;0.260</text>
<text text-anchor="middle" x="63.64" y="-571.28" font-family="Times,serif" font-size="9.00">h_scaling 1.000</text>
</g>
<!-- ready&#45;&gt;key 218025
bias &#45;0.260
h_scaling 1.000 -->
<g id="edge14" class="edge">
<title>ready&#45;&gt;key 218025
bias &#45;0.260
h_scaling 1.000</title>
<path fill="none" stroke="red" stroke-width="0.83" d="M115.13,-869.8C90.94,-863.35 52.81,-849.05 35.64,-820.4 5.23,-769.65 17.69,-701.71 34.52,-651.77"/>
<polygon fill="red" stroke="red" stroke-width="0.83" points="37.93,-652.63 37.93,-642.03 31.32,-650.31 37.93,-652.63"/>
<text text-anchor="middle" x="49.64" y="-754.56" font-family="Times,serif" font-size="9.00">0.244</text>
</g>
<!-- key 594
bias &#45;0.476
h_scaling 1.000 -->
<g id="node7" class="node">
<title>key 594
bias &#45;0.476
h_scaling 1.000</title>
<ellipse fill="white" stroke="black" cx="295.64" cy="-410.2" rx="63.78" ry="63.78"/>
<text text-anchor="middle" x="295.64" y="-418" font-family="Times,serif" font-size="9.00">key 594</text>
<text text-anchor="middle" x="295.64" y="-408" font-family="Times,serif" font-size="9.00">bias &#45;0.476</text>
<text text-anchor="middle" x="295.64" y="-398" font-family="Times,serif" font-size="9.00">h_scaling 1.000</text>
</g>
<!-- ready&#45;&gt;key 594
bias &#45;0.476
h_scaling 1.000 -->
<g id="edge4" class="edge">
<title>ready&#45;&gt;key 594
bias &#45;0.476
h_scaling 1.000</title>
<path fill="none" stroke="blue" stroke-width="0.8" d="M158.38,-871.21C185.95,-865.91 232.67,-852.5 255.64,-820.4 274.72,-793.73 287.02,-594.5 292.44,-484.19"/>
<polygon fill="blue" stroke="blue" stroke-width="0.8" points="295.94,-484.28 292.93,-474.12 288.95,-483.94 295.94,-484.28"/>
<text text-anchor="middle" x="295.14" y="-667.92" font-family="Times,serif" font-size="9.00">&#45;0.234</text>
</g>
<!-- key 200927
bias &#45;0.469
h_scaling 1.000 -->
<g id="node8" class="node">
<title>key 200927
bias &#45;0.469
h_scaling 1.000</title>
<ellipse fill="white" stroke="black" cx="136.64" cy="-756.76" rx="63.78" ry="63.78"/>
<text text-anchor="middle" x="136.64" y="-764.56" font-family="Times,serif" font-size="9.00">key 200927</text>
<text text-anchor="middle" x="136.64" y="-754.56" font-family="Times,serif" font-size="9.00">bias &#45;0.469</text>
<text text-anchor="middle" x="136.64" y="-744.56" font-family="Times,serif" font-size="9.00">h_scaling 1.000</text>
</g>
<!-- ready&#45;&gt;key 200927
bias &#45;0.469
h_scaling 1.000 -->
<g id="edge5" class="edge">
<title>ready&#45;&gt;key 200927
bias &#45;0.469
h_scaling 1.000</title>
<path fill="none" stroke="red" stroke-width="2.9" d="M136.64,-866.38C136.64,-858.35 136.64,-845.13 136.64,-830.63"/>
<polygon fill="red" stroke="red" stroke-width="2.9" points="140.14,-830.43 136.64,-820.43 133.14,-830.43 140.14,-830.43"/>
<text text-anchor="middle" x="150.64" y="-841.2" font-family="Times,serif" font-size="9.00">0.932</text>
</g>
<!-- go -->
<g id="node2" class="node">
<title>go</title>
<polygon fill="green" stroke="black" points="330.64,-592.48 302.64,-592.48 302.64,-574.48 330.64,-574.48 330.64,-592.48"/>
<text text-anchor="middle" x="316.64" y="-581.28" font-family="Times,serif" font-size="9.00">go</text>
</g>
<!-- go&#45;&gt;key 594
bias &#45;0.476
h_scaling 1.000 -->
<g id="edge2" class="edge">
<title>go&#45;&gt;key 594
bias &#45;0.476
h_scaling 1.000</title>
<path fill="none" stroke="red" stroke-width="3.07" d="M315.63,-574.22C313.61,-557.73 308.89,-519.3 304.55,-483.89"/>
<polygon fill="red" stroke="red" stroke-width="3.07" points="307.97,-483.01 303.28,-473.51 301.02,-483.87 307.97,-483.01"/>
<text text-anchor="middle" x="319.64" y="-494.64" font-family="Times,serif" font-size="9.00">0.990</text>
</g>
<!-- output
bias 0.674
h_scaling 1.000 -->
<g id="node3" class="node">
<title>output
bias 0.674
h_scaling 1.000</title>
<ellipse fill="lightblue" stroke="black" cx="195.64" cy="-63.64" rx="63.78" ry="63.78"/>
<text text-anchor="middle" x="195.64" y="-71.44" font-family="Times,serif" font-size="9.00">output</text>
<text text-anchor="middle" x="195.64" y="-61.44" font-family="Times,serif" font-size="9.00">bias 0.674</text>
<text text-anchor="middle" x="195.64" y="-51.44" font-family="Times,serif" font-size="9.00">h_scaling 1.000</text>
</g>
<!-- output
bias 0.674
h_scaling 1.000&#45;&gt;key 218025
bias &#45;0.260
h_scaling 1.000 -->
<g id="edge9" class="edge">
<title>output
bias 0.674
h_scaling 1.000&#45;&gt;key 218025
bias &#45;0.260
h_scaling 1.000</title>
<path fill="none" stroke="blue" stroke-width="1.49" d="M155.56,-113.26C114.55,-166.61 53.81,-256.67 31.64,-346.56 18.09,-401.48 23.57,-417.85 31.64,-473.84 33.51,-486.79 36.57,-500.34 40.07,-513.32"/>
<polygon fill="blue" stroke="blue" stroke-width="1.49" points="36.75,-514.43 42.82,-523.11 43.48,-512.53 36.75,-514.43"/>
<text text-anchor="middle" x="55.14" y="-321.36" font-family="Times,serif" font-size="9.00">&#45;0.464</text>
</g>
<!-- key 230372
bias 0.608
h_scaling 1.000 -->
<g id="node4" class="node">
<title>key 230372
bias 0.608
h_scaling 1.000</title>
<ellipse fill="white" stroke="black" cx="104.64" cy="-410.2" rx="63.78" ry="63.78"/>
<text text-anchor="middle" x="104.64" y="-418" font-family="Times,serif" font-size="9.00">key 230372</text>
<text text-anchor="middle" x="104.64" y="-408" font-family="Times,serif" font-size="9.00">bias 0.608</text>
<text text-anchor="middle" x="104.64" y="-398" font-family="Times,serif" font-size="9.00">h_scaling 1.000</text>
</g>
<!-- key 230372
bias 0.608
h_scaling 1.000&#45;&gt;key 230372
bias 0.608
h_scaling 1.000 -->
<g id="edge13" class="edge">
<title>key 230372
bias 0.608
h_scaling 1.000&#45;&gt;key 230372
bias 0.608
h_scaling 1.000</title>
<path fill="none" stroke="red" stroke-width="0.84" d="M166.58,-425.5C178.14,-423.61 186.28,-418.51 186.28,-410.2 186.28,-404.48 182.43,-400.29 176.27,-397.61"/>
<polygon fill="red" stroke="red" stroke-width="0.84" points="177.16,-394.22 166.58,-394.9 175.27,-400.96 177.16,-394.22"/>
<text text-anchor="middle" x="200.28" y="-408" font-family="Times,serif" font-size="9.00">0.245</text>
</g>
<!-- key 240969
bias &#45;0.740
h_scaling 1.000 -->
<g id="node5" class="node">
<title>key 240969
bias &#45;0.740
h_scaling 1.000</title>
<ellipse fill="white" stroke="black" cx="195.64" cy="-236.92" rx="63.78" ry="63.78"/>
<text text-anchor="middle" x="195.64" y="-244.72" font-family="Times,serif" font-size="9.00">key 240969</text>
<text text-anchor="middle" x="195.64" y="-234.72" font-family="Times,serif" font-size="9.00">bias &#45;0.740</text>
<text text-anchor="middle" x="195.64" y="-224.72" font-family="Times,serif" font-size="9.00">h_scaling 1.000</text>
</g>
<!-- key 230372
bias 0.608
h_scaling 1.000&#45;&gt;key 240969
bias &#45;0.740
h_scaling 1.000 -->
<g id="edge15" class="edge">
<title>key 230372
bias 0.608
h_scaling 1.000&#45;&gt;key 240969
bias &#45;0.740
h_scaling 1.000</title>
<path fill="none" stroke="red" stroke-width="0.86" d="M130.9,-351.74C136.25,-340.63 141.98,-329.16 147.64,-318.56 150.78,-312.67 154.15,-306.59 157.59,-300.55"/>
<polygon fill="red" stroke="red" stroke-width="0.86" points="160.7,-302.15 162.66,-291.74 154.64,-298.66 160.7,-302.15"/>
<text text-anchor="middle" x="161.64" y="-321.36" font-family="Times,serif" font-size="9.00">0.255</text>
</g>
<!-- key 240969
bias &#45;0.740
h_scaling 1.000&#45;&gt;output
bias 0.674
h_scaling 1.000 -->
<g id="edge11" class="edge">
<title>key 240969
bias &#45;0.740
h_scaling 1.000&#45;&gt;output
bias 0.674
h_scaling 1.000</title>
<path fill="none" stroke="blue" stroke-width="3.1" d="M195.64,-173.11C195.64,-161.59 195.64,-149.48 195.64,-137.69"/>
<polygon fill="blue" stroke="blue" stroke-width="3.1" points="199.14,-137.44 195.64,-127.44 192.14,-137.44 199.14,-137.44"/>
<text text-anchor="middle" x="211.14" y="-148.08" font-family="Times,serif" font-size="9.00">&#45;1.000</text>
</g>
<!-- key 240969
bias &#45;0.740
h_scaling 1.000&#45;&gt;key 594
bias &#45;0.476
h_scaling 1.000 -->
<g id="edge12" class="edge">
<title>key 240969
bias &#45;0.740
h_scaling 1.000&#45;&gt;key 594
bias &#45;0.476
h_scaling 1.000</title>
<path fill="none" stroke="red" stroke-width="0.34" d="M227.42,-292.36C237.29,-309.27 248.26,-328.05 258.47,-345.53"/>
<polygon fill="red" stroke="red" stroke-width="0.34" points="255.66,-347.66 263.72,-354.53 261.7,-344.13 255.66,-347.66"/>
<text text-anchor="middle" x="259.64" y="-321.36" font-family="Times,serif" font-size="9.00">0.080</text>
</g>
<!-- key 218025
bias &#45;0.260
h_scaling 1.000&#45;&gt;key 594
bias &#45;0.476
h_scaling 1.000 -->
<g id="edge8" class="edge">
<title>key 218025
bias &#45;0.260
h_scaling 1.000&#45;&gt;key 594
bias &#45;0.476
h_scaling 1.000</title>
<path fill="none" stroke="blue" stroke-width="0.83" d="M117,-548.55C148.65,-527.86 189.19,-500.37 223.64,-473.84 229.33,-469.46 235.15,-464.77 240.9,-460"/>
<polygon fill="blue" stroke="blue" stroke-width="0.83" points="243.27,-462.58 248.68,-453.46 238.77,-457.22 243.27,-462.58"/>
<text text-anchor="middle" x="213.14" y="-494.64" font-family="Times,serif" font-size="9.00">&#45;0.244</text>
</g>
<!-- key 594
bias &#45;0.476
h_scaling 1.000&#45;&gt;output
bias 0.674
h_scaling 1.000 -->
<g id="edge1" class="edge">
<title>key 594
bias &#45;0.476
h_scaling 1.000&#45;&gt;output
bias 0.674
h_scaling 1.000</title>
<path fill="none" stroke="blue" stroke-width="3.1" d="M296.47,-346.49C295.23,-297.85 289.33,-229.47 268.64,-173.28 262.08,-155.47 252.03,-137.71 241.46,-121.87"/>
<polygon fill="blue" stroke="blue" stroke-width="3.1" points="244.11,-119.54 235.56,-113.28 238.34,-123.51 244.11,-119.54"/>
<text text-anchor="middle" x="309.14" y="-234.72" font-family="Times,serif" font-size="9.00">&#45;1.000</text>
</g>
<!-- key 594
bias &#45;0.476
h_scaling 1.000&#45;&gt;key 240969
bias &#45;0.740
h_scaling 1.000 -->
<g id="edge10" class="edge">
<title>key 594
bias &#45;0.476
h_scaling 1.000&#45;&gt;key 240969
bias &#45;0.740
h_scaling 1.000</title>
<path fill="none" stroke="red" stroke-width="3.1" d="M248.18,-367.55C240.03,-360.5 231.62,-353.29 223.64,-346.56 213.98,-338.41 207.42,-339.79 201.64,-328.56 198.75,-322.95 196.62,-316.87 195.07,-310.62"/>
<polygon fill="red" stroke="red" stroke-width="3.1" points="198.48,-309.82 193.11,-300.69 191.62,-311.17 198.48,-309.82"/>
<text text-anchor="middle" x="215.64" y="-321.36" font-family="Times,serif" font-size="9.00">1.000</text>
</g>
<!-- key 594
bias &#45;0.476
h_scaling 1.000&#45;&gt;key 594
bias &#45;0.476
h_scaling 1.000 -->
<g id="edge3" class="edge">
<title>key 594
bias &#45;0.476
h_scaling 1.000&#45;&gt;key 594
bias &#45;0.476
h_scaling 1.000</title>
<path fill="none" stroke="red" stroke-width="3.1" d="M357.58,-425.5C369.14,-423.61 377.28,-418.51 377.28,-410.2 377.28,-404.48 373.43,-400.29 367.27,-397.61"/>
<polygon fill="red" stroke="red" stroke-width="3.1" points="368.16,-394.22 357.58,-394.9 366.27,-400.96 368.16,-394.22"/>
<text text-anchor="middle" x="391.28" y="-408" font-family="Times,serif" font-size="9.00">0.999</text>
</g>
<!-- key 200927
bias &#45;0.469
h_scaling 1.000&#45;&gt;key 218025
bias &#45;0.260
h_scaling 1.000 -->
<g id="edge7" class="edge">
<title>key 200927
bias &#45;0.469
h_scaling 1.000&#45;&gt;key 218025
bias &#45;0.260
h_scaling 1.000</title>
<path fill="none" stroke="red" stroke-width="3.1" d="M111.93,-697.77C105.62,-682.98 98.79,-666.96 92.31,-651.75"/>
<polygon fill="red" stroke="red" stroke-width="3.1" points="95.47,-650.23 88.33,-642.4 89.03,-652.98 95.47,-650.23"/>
<text text-anchor="middle" x="114.64" y="-667.92" font-family="Times,serif" font-size="9.00">1.000</text>
</g>
<!-- key 200927
bias &#45;0.469
h_scaling 1.000&#45;&gt;key 200927
bias &#45;0.469
h_scaling 1.000 -->
<g id="edge6" class="edge">
<title>key 200927
bias &#45;0.469
h_scaling 1.000&#45;&gt;key 200927
bias &#45;0.469
h_scaling 1.000</title>
<path fill="none" stroke="red" stroke-width="2.35" d="M198.58,-772.05C210.14,-770.17 218.28,-765.07 218.28,-756.76 218.28,-751.04 214.43,-746.84 208.27,-744.17"/>
<polygon fill="red" stroke="red" stroke-width="2.35" points="209.16,-740.78 198.58,-741.46 207.27,-747.52 209.16,-740.78"/>
<text text-anchor="middle" x="232.28" y="-754.56" font-family="Times,serif" font-size="9.00">0.751</text>
</g>
</g>
</svg>
