<?xml version="1.0" encoding="UTF-8" standalone="no"?>
<!DOCTYPE svg PUBLIC "-//W3C//DTD SVG 1.1//EN"
 "http://www.w3.org/Graphics/SVG/1.1/DTD/svg11.dtd">
<!-- Generated by graphviz version 2.43.0 (0)
 -->
<!-- Title: %3 Pages: 1 -->
<svg width="468pt" height="1048pt"
 viewBox="0.00 0.00 467.64 1047.68" xmlns="http://www.w3.org/2000/svg" xmlns:xlink="http://www.w3.org/1999/xlink">
<g id="graph0" class="graph" transform="scale(1 1) rotate(0) translate(4 1043.68)">
<title>%3</title>
<polygon fill="white" stroke="transparent" points="-4,4 -4,-1043.68 463.64,-1043.68 463.64,4 -4,4"/>
<!-- ready -->
<g id="node1" class="node">
<title>ready</title>
<polygon fill="yellow" stroke="black" points="225.5,-1039.68 182.5,-1039.68 182.5,-1021.68 225.5,-1021.68 225.5,-1039.68"/>
<text text-anchor="middle" x="204" y="-1028.48" font-family="Times,serif" font-size="9.00">ready</text>
</g>
<!-- key 108608
bias &#45;0.324
h_scaling 1.000 -->
<g id="node4" class="node">
<title>key 108608
bias &#45;0.324
h_scaling 1.000</title>
<ellipse fill="white" stroke="black" cx="350" cy="-912.04" rx="63.78" ry="63.78"/>
<text text-anchor="middle" x="350" y="-919.84" font-family="Times,serif" font-size="9.00">key 108608</text>
<text text-anchor="middle" x="350" y="-909.84" font-family="Times,serif" font-size="9.00">bias &#45;0.324</text>
<text text-anchor="middle" x="350" y="-899.84" font-family="Times,serif" font-size="9.00">h_scaling 1.000</text>
</g>
<!-- ready&#45;&gt;key 108608
bias &#45;0.324
h_scaling 1.000 -->
<g id="edge12" class="edge">
<title>ready&#45;&gt;key 108608
bias &#45;0.324
h_scaling 1.000</title>
<path fill="none" stroke="red" stroke-width="0.1" d="M214.04,-1021.66C230.17,-1008.77 263.05,-982.5 292.44,-959.02"/>
<polygon fill="red" stroke="red" stroke-width="0.1" points="294.99,-961.46 300.62,-952.49 290.62,-955.99 294.99,-961.46"/>
<text text-anchor="middle" x="262" y="-996.48" font-family="Times,serif" font-size="9.00">0.000</text>
</g>
<!-- key 2153
bias &#45;0.512
h_scaling 1.000 -->
<g id="node6" class="node">
<title>key 2153
bias &#45;0.512
h_scaling 1.000</title>
<ellipse fill="white" stroke="black" cx="204" cy="-738.76" rx="63.78" ry="63.78"/>
<text text-anchor="middle" x="204" y="-746.56" font-family="Times,serif" font-size="9.00">key 2153</text>
<text text-anchor="middle" x="204" y="-736.56" font-family="Times,serif" font-size="9.00">bias &#45;0.512</text>
<text text-anchor="middle" x="204" y="-726.56" font-family="Times,serif" font-size="9.00">h_scaling 1.000</text>
</g>
<!-- ready&#45;&gt;key 2153
bias &#45;0.512
h_scaling 1.000 -->
<g id="edge2" class="edge">
<title>ready&#45;&gt;key 2153
bias &#45;0.512
h_scaling 1.000</title>
<path fill="none" stroke="blue" stroke-width="0.1" d="M204,-1021.62C204,-991.83 204,-885.89 204,-812.74"/>
<polygon fill="blue" stroke="blue" stroke-width="0.1" points="207.5,-812.64 204,-802.64 200.5,-812.64 207.5,-812.64"/>
</g>
<!-- key 7657
bias &#45;0.507
h_scaling 1.000 -->
<g id="node7" class="node">
<title>key 7657
bias &#45;0.507
h_scaling 1.000</title>
<ellipse fill="white" stroke="black" cx="148" cy="-401.2" rx="63.78" ry="63.78"/>
<text text-anchor="middle" x="148" y="-409" font-family="Times,serif" font-size="9.00">key 7657</text>
<text text-anchor="middle" x="148" y="-399" font-family="Times,serif" font-size="9.00">bias &#45;0.507</text>
<text text-anchor="middle" x="148" y="-389" font-family="Times,serif" font-size="9.00">h_scaling 1.000</text>
</g>
<!-- ready&#45;&gt;key 7657
bias &#45;0.507
h_scaling 1.000 -->
<g id="edge19" class="edge">
<title>ready&#45;&gt;key 7657
bias &#45;0.507
h_scaling 1.000</title>
<path fill="none" stroke="blue" stroke-width="0.1" d="M182.17,-1027.49C129.54,-1020.91 0,-996.26 0,-913.04 0,-913.04 0,-913.04 0,-564.48 0,-511.08 44.29,-467.54 84.41,-439.05"/>
<polygon fill="blue" stroke="blue" stroke-width="0.1" points="86.64,-441.76 92.89,-433.21 82.67,-436 86.64,-441.76"/>
</g>
<!-- go -->
<g id="node2" class="node">
<title>go</title>
<polygon fill="green" stroke="black" points="115,-921.04 87,-921.04 87,-903.04 115,-903.04 115,-921.04"/>
<text text-anchor="middle" x="101" y="-909.84" font-family="Times,serif" font-size="9.00">go</text>
</g>
<!-- go&#45;&gt;key 2153
bias &#45;0.512
h_scaling 1.000 -->
<g id="edge1" class="edge">
<title>go&#45;&gt;key 2153
bias &#45;0.512
h_scaling 1.000</title>
<path fill="none" stroke="red" stroke-width="0.1" d="M105.97,-902.77C116.79,-884.77 143.37,-840.58 166.12,-802.75"/>
<polygon fill="red" stroke="red" stroke-width="0.1" points="169.36,-804.16 171.51,-793.78 163.36,-800.55 169.36,-804.16"/>
<text text-anchor="middle" x="167" y="-823.2" font-family="Times,serif" font-size="9.00">0.000</text>
</g>
<!-- go&#45;&gt;key 7657
bias &#45;0.507
h_scaling 1.000 -->
<g id="edge9" class="edge">
<title>go&#45;&gt;key 7657
bias &#45;0.507
h_scaling 1.000</title>
<path fill="none" stroke="red" stroke-width="0.1" d="M98.54,-902.96C85.93,-860.17 31.04,-656.12 81,-501.84 85.79,-487.03 93.49,-472.39 101.99,-459.07"/>
<polygon fill="red" stroke="red" stroke-width="0.1" points="105.05,-460.79 107.66,-450.53 99.21,-456.92 105.05,-460.79"/>
<text text-anchor="middle" x="75" y="-649.92" font-family="Times,serif" font-size="9.00">0.000</text>
</g>
<!-- output
bias 0.577
h_scaling 1.000 -->
<g id="node3" class="node">
<title>output
bias 0.577
h_scaling 1.000</title>
<ellipse fill="lightblue" stroke="black" cx="258" cy="-565.48" rx="63.78" ry="63.78"/>
<text text-anchor="middle" x="258" y="-573.28" font-family="Times,serif" font-size="9.00">output</text>
<text text-anchor="middle" x="258" y="-563.28" font-family="Times,serif" font-size="9.00">bias 0.577</text>
<text text-anchor="middle" x="258" y="-553.28" font-family="Times,serif" font-size="9.00">h_scaling 1.000</text>
</g>
<!-- output
bias 0.577
h_scaling 1.000&#45;&gt;key 108608
bias &#45;0.324
h_scaling 1.000 -->
<g id="edge21" class="edge">
<title>output
bias 0.577
h_scaling 1.000&#45;&gt;key 108608
bias &#45;0.324
h_scaling 1.000</title>
<path fill="none" stroke="red" stroke-width="0.1" d="M294.67,-617.6C305.51,-635.07 316.27,-655.24 323,-675.12 340.86,-727.86 347.39,-790.64 349.58,-838.16"/>
<polygon fill="red" stroke="red" stroke-width="0.1" points="346.09,-838.52 349.99,-848.37 353.08,-838.24 346.09,-838.52"/>
<text text-anchor="middle" x="362" y="-736.56" font-family="Times,serif" font-size="9.00">0.000</text>
</g>
<!-- key 143081
bias &#45;0.163
h_scaling 1.000 -->
<g id="node5" class="node">
<title>key 143081
bias &#45;0.163
h_scaling 1.000</title>
<ellipse fill="white" stroke="black" cx="258" cy="-236.92" rx="63.78" ry="63.78"/>
<text text-anchor="middle" x="258" y="-244.72" font-family="Times,serif" font-size="9.00">key 143081</text>
<text text-anchor="middle" x="258" y="-234.72" font-family="Times,serif" font-size="9.00">bias &#45;0.163</text>
<text text-anchor="middle" x="258" y="-224.72" font-family="Times,serif" font-size="9.00">h_scaling 1.000</text>
</g>
<!-- output
bias 0.577
h_scaling 1.000&#45;&gt;key 143081
bias &#45;0.163
h_scaling 1.000 -->
<g id="edge15" class="edge">
<title>output
bias 0.577
h_scaling 1.000&#45;&gt;key 143081
bias &#45;0.163
h_scaling 1.000</title>
<path fill="none" stroke="red" stroke-width="0.1" d="M258,-501.51C258,-446.96 258,-368.02 258,-310.76"/>
<polygon fill="red" stroke="red" stroke-width="0.1" points="261.5,-310.69 258,-300.69 254.5,-310.69 261.5,-310.69"/>
<text text-anchor="middle" x="272" y="-399" font-family="Times,serif" font-size="9.00">0.000</text>
</g>
<!-- output
bias 0.577
h_scaling 1.000&#45;&gt;key 2153
bias &#45;0.512
h_scaling 1.000 -->
<g id="edge10" class="edge">
<title>output
bias 0.577
h_scaling 1.000&#45;&gt;key 2153
bias &#45;0.512
h_scaling 1.000</title>
<path fill="none" stroke="blue" stroke-width="0.1" d="M245.13,-627.92C241.09,-641.65 236.52,-656.28 231.9,-670.23"/>
<polygon fill="blue" stroke="blue" stroke-width="0.1" points="228.57,-669.18 228.71,-679.77 235.2,-671.4 228.57,-669.18"/>
</g>
<!-- output
bias 0.577
h_scaling 1.000&#45;&gt;key 7657
bias &#45;0.507
h_scaling 1.000 -->
<g id="edge7" class="edge">
<title>output
bias 0.577
h_scaling 1.000&#45;&gt;key 7657
bias &#45;0.507
h_scaling 1.000</title>
<path fill="none" stroke="blue" stroke-width="0.1" d="M218.44,-515.35C207.33,-499.7 195.32,-482.16 184.4,-465.64"/>
<polygon fill="blue" stroke="blue" stroke-width="0.1" points="187.22,-463.55 178.8,-457.12 181.36,-467.4 187.22,-463.55"/>
</g>
<!-- key 108608
bias &#45;0.324
h_scaling 1.000&#45;&gt;key 108608
bias &#45;0.324
h_scaling 1.000 -->
<g id="edge14" class="edge">
<title>key 108608
bias &#45;0.324
h_scaling 1.000&#45;&gt;key 108608
bias &#45;0.324
h_scaling 1.000</title>
<path fill="none" stroke="red" stroke-width="0.1" d="M411.94,-927.33C423.5,-925.45 431.64,-920.35 431.64,-912.04 431.64,-906.32 427.79,-902.12 421.63,-899.45"/>
<polygon fill="red" stroke="red" stroke-width="0.1" points="422.52,-896.06 411.94,-896.74 420.63,-902.8 422.52,-896.06"/>
<text text-anchor="middle" x="445.64" y="-909.84" font-family="Times,serif" font-size="9.00">0.000</text>
</g>
<!-- key 108608
bias &#45;0.324
h_scaling 1.000&#45;&gt;key 2153
bias &#45;0.512
h_scaling 1.000 -->
<g id="edge13" class="edge">
<title>key 108608
bias &#45;0.324
h_scaling 1.000&#45;&gt;key 2153
bias &#45;0.512
h_scaling 1.000</title>
<path fill="none" stroke="blue" stroke-width="0.1" d="M308.94,-862.87C291.14,-841.98 270.18,-817.39 251.69,-795.71"/>
<polygon fill="blue" stroke="blue" stroke-width="0.1" points="254.15,-793.2 245,-787.86 248.83,-797.74 254.15,-793.2"/>
</g>
<!-- key 106644
bias &#45;0.520
h_scaling 1.000 -->
<g id="node8" class="node">
<title>key 106644
bias &#45;0.520
h_scaling 1.000</title>
<ellipse fill="white" stroke="black" cx="350" cy="-63.64" rx="63.78" ry="63.78"/>
<text text-anchor="middle" x="350" y="-71.44" font-family="Times,serif" font-size="9.00">key 106644</text>
<text text-anchor="middle" x="350" y="-61.44" font-family="Times,serif" font-size="9.00">bias &#45;0.520</text>
<text text-anchor="middle" x="350" y="-51.44" font-family="Times,serif" font-size="9.00">h_scaling 1.000</text>
</g>
<!-- key 108608
bias &#45;0.324
h_scaling 1.000&#45;&gt;key 106644
bias &#45;0.520
h_scaling 1.000 -->
<g id="edge17" class="edge">
<title>key 108608
bias &#45;0.324
h_scaling 1.000&#45;&gt;key 106644
bias &#45;0.520
h_scaling 1.000</title>
<path fill="none" stroke="blue" stroke-width="0.1" d="M392.33,-864.18C417.28,-831.68 444,-786.06 444,-739.76 444,-739.76 444,-739.76 444,-235.92 444,-193.42 421.48,-151.49 398.49,-119.75"/>
<polygon fill="blue" stroke="blue" stroke-width="0.1" points="401.11,-117.42 392.33,-111.49 395.5,-121.6 401.11,-117.42"/>
</g>
<!-- key 143081
bias &#45;0.163
h_scaling 1.000&#45;&gt;key 108608
bias &#45;0.324
h_scaling 1.000 -->
<g id="edge22" class="edge">
<title>key 143081
bias &#45;0.163
h_scaling 1.000&#45;&gt;key 108608
bias &#45;0.324
h_scaling 1.000</title>
<path fill="none" stroke="blue" stroke-width="0.1" d="M313.11,-268.93C355.19,-297.12 406,-343 406,-400.2 406,-739.76 406,-739.76 406,-739.76 406,-775.76 394.68,-814.01 382.22,-845.21"/>
<polygon fill="blue" stroke="blue" stroke-width="0.1" points="378.9,-844.08 378.33,-854.66 385.37,-846.75 378.9,-844.08"/>
</g>
<!-- key 143081
bias &#45;0.163
h_scaling 1.000&#45;&gt;key 106644
bias &#45;0.520
h_scaling 1.000 -->
<g id="edge16" class="edge">
<title>key 143081
bias &#45;0.163
h_scaling 1.000&#45;&gt;key 106644
bias &#45;0.520
h_scaling 1.000</title>
<path fill="none" stroke="red" stroke-width="0.1" d="M287.87,-180.31C296.64,-163.99 306.3,-146.01 315.33,-129.18"/>
<polygon fill="red" stroke="red" stroke-width="0.1" points="318.63,-130.44 320.28,-119.97 312.46,-127.12 318.63,-130.44"/>
<text text-anchor="middle" x="318" y="-148.08" font-family="Times,serif" font-size="9.00">0.000</text>
</g>
<!-- key 2153
bias &#45;0.512
h_scaling 1.000&#45;&gt;output
bias 0.577
h_scaling 1.000 -->
<g id="edge3" class="edge">
<title>key 2153
bias &#45;0.512
h_scaling 1.000&#45;&gt;output
bias 0.577
h_scaling 1.000</title>
<path fill="none" stroke="blue" stroke-width="0.1" d="M216.84,-676.4C220.9,-662.6 225.51,-647.88 230.15,-633.84"/>
<polygon fill="blue" stroke="blue" stroke-width="0.1" points="233.5,-634.85 233.36,-624.25 226.87,-632.62 233.5,-634.85"/>
</g>
<!-- key 2153
bias &#45;0.512
h_scaling 1.000&#45;&gt;key 2153
bias &#45;0.512
h_scaling 1.000 -->
<g id="edge6" class="edge">
<title>key 2153
bias &#45;0.512
h_scaling 1.000&#45;&gt;key 2153
bias &#45;0.512
h_scaling 1.000</title>
<path fill="none" stroke="red" stroke-width="0.1" d="M265.94,-754.05C277.5,-752.17 285.64,-747.07 285.64,-738.76 285.64,-733.04 281.79,-728.84 275.63,-726.17"/>
<polygon fill="red" stroke="red" stroke-width="0.1" points="276.52,-722.78 265.94,-723.46 274.63,-729.52 276.52,-722.78"/>
<text text-anchor="middle" x="299.64" y="-736.56" font-family="Times,serif" font-size="9.00">0.000</text>
</g>
<!-- key 2153
bias &#45;0.512
h_scaling 1.000&#45;&gt;key 7657
bias &#45;0.507
h_scaling 1.000 -->
<g id="edge4" class="edge">
<title>key 2153
bias &#45;0.512
h_scaling 1.000&#45;&gt;key 7657
bias &#45;0.507
h_scaling 1.000</title>
<path fill="none" stroke="red" stroke-width="0.1" d="M153.07,-700.49C131.78,-681.74 109.37,-657.06 98,-629.12 76.67,-576.72 84.96,-556.88 98,-501.84 100.9,-489.58 105.56,-477.11 110.9,-465.33"/>
<polygon fill="red" stroke="red" stroke-width="0.1" points="114.18,-466.59 115.3,-456.05 107.85,-463.59 114.18,-466.59"/>
<text text-anchor="middle" x="112" y="-563.28" font-family="Times,serif" font-size="9.00">0.000</text>
</g>
<!-- key 7657
bias &#45;0.507
h_scaling 1.000&#45;&gt;output
bias 0.577
h_scaling 1.000 -->
<g id="edge5" class="edge">
<title>key 7657
bias &#45;0.507
h_scaling 1.000&#45;&gt;output
bias 0.577
h_scaling 1.000</title>
<path fill="none" stroke="blue" stroke-width="0.1" d="M187.59,-451.36C198.69,-467 210.68,-484.52 221.59,-501.02"/>
<polygon fill="blue" stroke="blue" stroke-width="0.1" points="218.77,-503.1 227.19,-509.54 224.62,-499.26 218.77,-503.1"/>
</g>
<!-- key 7657
bias &#45;0.507
h_scaling 1.000&#45;&gt;key 143081
bias &#45;0.163
h_scaling 1.000 -->
<g id="edge18" class="edge">
<title>key 7657
bias &#45;0.507
h_scaling 1.000&#45;&gt;key 143081
bias &#45;0.163
h_scaling 1.000</title>
<path fill="none" stroke="blue" stroke-width="0.1" d="M183.41,-347.96C194.11,-332.18 205.94,-314.72 216.97,-298.45"/>
<polygon fill="blue" stroke="blue" stroke-width="0.1" points="219.94,-300.3 222.66,-290.06 214.15,-296.37 219.94,-300.3"/>
</g>
<!-- key 7657
bias &#45;0.507
h_scaling 1.000&#45;&gt;key 2153
bias &#45;0.512
h_scaling 1.000 -->
<g id="edge8" class="edge">
<title>key 7657
bias &#45;0.507
h_scaling 1.000&#45;&gt;key 2153
bias &#45;0.512
h_scaling 1.000</title>
<path fill="none" stroke="red" stroke-width="0.1" d="M144.35,-465.13C143.17,-511.13 144.61,-574.72 157,-629.12 160.28,-643.52 165.43,-658.41 171.13,-672.37"/>
<polygon fill="red" stroke="red" stroke-width="0.1" points="168.03,-674.02 175.16,-681.87 174.48,-671.29 168.03,-674.02"/>
<text text-anchor="middle" x="171" y="-563.28" font-family="Times,serif" font-size="9.00">0.000</text>
</g>
<!-- key 106644
bias &#45;0.520
h_scaling 1.000&#45;&gt;key 2153
bias &#45;0.512
h_scaling 1.000 -->
<g id="edge11" class="edge">
<title>key 106644
bias &#45;0.520
h_scaling 1.000&#45;&gt;key 2153
bias &#45;0.512
h_scaling 1.000</title>
<path fill="none" stroke="red" stroke-width="0.1" d="M350,-127.28C350,-159.71 350,-199.94 350,-235.92 350,-483.84 350,-483.84 350,-483.84 350,-548.96 362.03,-571.86 331,-629.12 315.85,-657.08 290.39,-681.01 266.23,-699.24"/>
<polygon fill="red" stroke="red" stroke-width="0.1" points="264.09,-696.47 258.1,-705.2 268.23,-702.11 264.09,-696.47"/>
<text text-anchor="middle" x="364" y="-399" font-family="Times,serif" font-size="9.00">0.000</text>
</g>
<!-- key 106644
bias &#45;0.520
h_scaling 1.000&#45;&gt;key 106644
bias &#45;0.520
h_scaling 1.000 -->
<g id="edge20" class="edge">
<title>key 106644
bias &#45;0.520
h_scaling 1.000&#45;&gt;key 106644
bias &#45;0.520
h_scaling 1.000</title>
<path fill="none" stroke="red" stroke-width="0.1" d="M411.94,-78.94C423.5,-77.05 431.64,-71.95 431.64,-63.64 431.64,-57.92 427.79,-53.73 421.63,-51.05"/>
<polygon fill="red" stroke="red" stroke-width="0.1" points="422.52,-47.66 411.94,-48.34 420.63,-54.4 422.52,-47.66"/>
<text text-anchor="middle" x="445.64" y="-61.44" font-family="Times,serif" font-size="9.00">0.000</text>
</g>
</g>
</svg>
