<?xml version="1.0" encoding="UTF-8" standalone="no"?>
<!DOCTYPE svg PUBLIC "-//W3C//DTD SVG 1.1//EN"
 "http://www.w3.org/Graphics/SVG/1.1/DTD/svg11.dtd">
<!-- Generated by graphviz version 2.43.0 (0)
 -->
<!-- Title: %3 Pages: 1 -->
<svg width="515pt" height="1066pt"
 viewBox="0.00 0.00 515.00 1065.68" xmlns="http://www.w3.org/2000/svg" xmlns:xlink="http://www.w3.org/1999/xlink">
<g id="graph0" class="graph" transform="scale(1 1) rotate(0) translate(4 1061.68)">
<title>%3</title>
<polygon fill="white" stroke="transparent" points="-4,4 -4,-1061.68 511,-1061.68 511,4 -4,4"/>
<!-- ready -->
<g id="node1" class="node">
<title>ready</title>
<polygon fill="yellow" stroke="black" points="226.5,-1057.68 183.5,-1057.68 183.5,-1039.68 226.5,-1039.68 226.5,-1057.68"/>
<text text-anchor="middle" x="205" y="-1046.48" font-family="Times,serif" font-size="9.00">ready</text>
</g>
<!-- key 108608
bias &#45;0.324
h_scaling 1.000 -->
<g id="node4" class="node">
<title>key 108608
bias &#45;0.324
h_scaling 1.000</title>
<ellipse fill="white" stroke="black" cx="351" cy="-930.04" rx="63.78" ry="63.78"/>
<text text-anchor="middle" x="351" y="-937.84" font-family="Times,serif" font-size="9.00">key 108608</text>
<text text-anchor="middle" x="351" y="-927.84" font-family="Times,serif" font-size="9.00">bias &#45;0.324</text>
<text text-anchor="middle" x="351" y="-917.84" font-family="Times,serif" font-size="9.00">h_scaling 1.000</text>
</g>
<!-- ready&#45;&gt;key 108608
bias &#45;0.324
h_scaling 1.000 -->
<g id="edge12" class="edge">
<title>ready&#45;&gt;key 108608
bias &#45;0.324
h_scaling 1.000</title>
<path fill="none" stroke="red" stroke-width="3" d="M215.04,-1039.66C231.17,-1026.77 264.05,-1000.5 293.44,-977.02"/>
<polygon fill="red" stroke="red" stroke-width="3" points="295.99,-979.46 301.62,-970.49 291.62,-973.99 295.99,-979.46"/>
<text text-anchor="middle" x="263" y="-1014.48" font-family="Times,serif" font-size="9.00">0.966</text>
</g>
<!-- key 2153
bias &#45;0.512
h_scaling 1.000 -->
<g id="node6" class="node">
<title>key 2153
bias &#45;0.512
h_scaling 1.000</title>
<ellipse fill="white" stroke="black" cx="205" cy="-756.76" rx="63.78" ry="63.78"/>
<text text-anchor="middle" x="205" y="-764.56" font-family="Times,serif" font-size="9.00">key 2153</text>
<text text-anchor="middle" x="205" y="-754.56" font-family="Times,serif" font-size="9.00">bias &#45;0.512</text>
<text text-anchor="middle" x="205" y="-744.56" font-family="Times,serif" font-size="9.00">h_scaling 1.000</text>
</g>
<!-- ready&#45;&gt;key 2153
bias &#45;0.512
h_scaling 1.000 -->
<g id="edge2" class="edge">
<title>ready&#45;&gt;key 2153
bias &#45;0.512
h_scaling 1.000</title>
<path fill="none" stroke="blue" stroke-width="0.72" d="M205,-1039.62C205,-1009.83 205,-903.89 205,-830.74"/>
<polygon fill="blue" stroke="blue" stroke-width="0.72" points="208.5,-830.64 205,-820.64 201.5,-830.64 208.5,-830.64"/>
<text text-anchor="middle" x="220.5" y="-927.84" font-family="Times,serif" font-size="9.00">&#45;0.207</text>
</g>
<!-- key 7657
bias &#45;0.507
h_scaling 1.000 -->
<g id="node7" class="node">
<title>key 7657
bias &#45;0.507
h_scaling 1.000</title>
<ellipse fill="white" stroke="black" cx="207" cy="-410.2" rx="63.78" ry="63.78"/>
<text text-anchor="middle" x="207" y="-418" font-family="Times,serif" font-size="9.00">key 7657</text>
<text text-anchor="middle" x="207" y="-408" font-family="Times,serif" font-size="9.00">bias &#45;0.507</text>
<text text-anchor="middle" x="207" y="-398" font-family="Times,serif" font-size="9.00">h_scaling 1.000</text>
</g>
<!-- ready&#45;&gt;key 7657
bias &#45;0.507
h_scaling 1.000 -->
<g id="edge19" class="edge">
<title>ready&#45;&gt;key 7657
bias &#45;0.507
h_scaling 1.000</title>
<path fill="none" stroke="blue" stroke-width="0.32" d="M183.45,-1045.58C130.82,-1039.16 0,-1014.77 0,-931.04 0,-931.04 0,-931.04 0,-582.48 0,-507.52 69,-518.76 129,-473.84 135.8,-468.75 142.84,-463.32 149.79,-457.87"/>
<polygon fill="blue" stroke="blue" stroke-width="0.32" points="152.21,-460.42 157.88,-451.47 147.87,-454.93 152.21,-460.42"/>
<text text-anchor="middle" x="15.5" y="-754.56" font-family="Times,serif" font-size="9.00">&#45;0.075</text>
</g>
<!-- go -->
<g id="node2" class="node">
<title>go</title>
<polygon fill="green" stroke="black" points="121,-939.04 93,-939.04 93,-921.04 121,-921.04 121,-939.04"/>
<text text-anchor="middle" x="107" y="-927.84" font-family="Times,serif" font-size="9.00">go</text>
</g>
<!-- go&#45;&gt;key 2153
bias &#45;0.512
h_scaling 1.000 -->
<g id="edge1" class="edge">
<title>go&#45;&gt;key 2153
bias &#45;0.512
h_scaling 1.000</title>
<path fill="none" stroke="red" stroke-width="2.87" d="M111.73,-920.77C121.96,-902.9 146.96,-859.19 168.51,-821.53"/>
<polygon fill="red" stroke="red" stroke-width="2.87" points="171.69,-823.02 173.62,-812.6 165.62,-819.54 171.69,-823.02"/>
<text text-anchor="middle" x="170" y="-841.2" font-family="Times,serif" font-size="9.00">0.922</text>
</g>
<!-- go&#45;&gt;key 7657
bias &#45;0.507
h_scaling 1.000 -->
<g id="edge9" class="edge">
<title>go&#45;&gt;key 7657
bias &#45;0.507
h_scaling 1.000</title>
<path fill="none" stroke="red" stroke-width="2.9" d="M102.91,-920.72C87.32,-887.86 33.72,-764.08 60,-665.12 79.46,-591.82 126.01,-517.89 161.55,-468.86"/>
<polygon fill="red" stroke="red" stroke-width="2.9" points="164.51,-470.74 167.6,-460.61 158.87,-466.6 164.51,-470.74"/>
<text text-anchor="middle" x="74" y="-667.92" font-family="Times,serif" font-size="9.00">0.935</text>
</g>
<!-- output
bias 0.577
h_scaling 1.000 -->
<g id="node3" class="node">
<title>output
bias 0.577
h_scaling 1.000</title>
<ellipse fill="lightblue" stroke="black" cx="317" cy="-583.48" rx="63.78" ry="63.78"/>
<text text-anchor="middle" x="317" y="-591.28" font-family="Times,serif" font-size="9.00">output</text>
<text text-anchor="middle" x="317" y="-581.28" font-family="Times,serif" font-size="9.00">bias 0.577</text>
<text text-anchor="middle" x="317" y="-571.28" font-family="Times,serif" font-size="9.00">h_scaling 1.000</text>
</g>
<!-- output
bias 0.577
h_scaling 1.000&#45;&gt;key 108608
bias &#45;0.324
h_scaling 1.000 -->
<g id="edge21" class="edge">
<title>output
bias 0.577
h_scaling 1.000&#45;&gt;key 108608
bias &#45;0.324
h_scaling 1.000</title>
<path fill="none" stroke="red" stroke-width="0.52" d="M323.17,-646.99C328.99,-706 337.72,-794.45 343.84,-856.53"/>
<polygon fill="red" stroke="red" stroke-width="0.52" points="340.38,-857.03 344.84,-866.64 347.34,-856.34 340.38,-857.03"/>
<text text-anchor="middle" x="355" y="-754.56" font-family="Times,serif" font-size="9.00">0.141</text>
</g>
<!-- key 143081
bias &#45;0.163
h_scaling 1.000 -->
<g id="node5" class="node">
<title>key 143081
bias &#45;0.163
h_scaling 1.000</title>
<ellipse fill="white" stroke="black" cx="340" cy="-236.92" rx="63.78" ry="63.78"/>
<text text-anchor="middle" x="340" y="-244.72" font-family="Times,serif" font-size="9.00">key 143081</text>
<text text-anchor="middle" x="340" y="-234.72" font-family="Times,serif" font-size="9.00">bias &#45;0.163</text>
<text text-anchor="middle" x="340" y="-224.72" font-family="Times,serif" font-size="9.00">h_scaling 1.000</text>
</g>
<!-- output
bias 0.577
h_scaling 1.000&#45;&gt;key 143081
bias &#45;0.163
h_scaling 1.000 -->
<g id="edge15" class="edge">
<title>output
bias 0.577
h_scaling 1.000&#45;&gt;key 143081
bias &#45;0.163
h_scaling 1.000</title>
<path fill="none" stroke="red" stroke-width="3.08" d="M321.19,-519.68C325.13,-460.75 331.01,-372.64 335.14,-310.67"/>
<polygon fill="red" stroke="red" stroke-width="3.08" points="338.64,-310.79 335.82,-300.57 331.66,-310.32 338.64,-310.79"/>
<text text-anchor="middle" x="347" y="-408" font-family="Times,serif" font-size="9.00">0.994</text>
</g>
<!-- output
bias 0.577
h_scaling 1.000&#45;&gt;key 2153
bias &#45;0.512
h_scaling 1.000 -->
<g id="edge10" class="edge">
<title>output
bias 0.577
h_scaling 1.000&#45;&gt;key 2153
bias &#45;0.512
h_scaling 1.000</title>
<path fill="none" stroke="blue" stroke-width="0.25" d="M297.07,-644.09C292.46,-654.78 287.09,-665.55 281,-675.12 274.4,-685.49 266.35,-695.71 258,-705.2"/>
<polygon fill="blue" stroke="blue" stroke-width="0.25" points="255.37,-702.89 251.26,-712.65 260.56,-707.59 255.37,-702.89"/>
<text text-anchor="middle" x="302.5" y="-667.92" font-family="Times,serif" font-size="9.00">&#45;0.049</text>
</g>
<!-- output
bias 0.577
h_scaling 1.000&#45;&gt;key 7657
bias &#45;0.507
h_scaling 1.000 -->
<g id="edge7" class="edge">
<title>output
bias 0.577
h_scaling 1.000&#45;&gt;key 7657
bias &#45;0.507
h_scaling 1.000</title>
<path fill="none" stroke="blue" stroke-width="1.84" d="M268.92,-541.31C257.26,-529.49 245.67,-515.96 237,-501.84 233.13,-495.52 229.69,-488.65 226.66,-481.61"/>
<polygon fill="blue" stroke="blue" stroke-width="1.84" points="229.75,-479.91 222.77,-471.94 223.25,-482.52 229.75,-479.91"/>
<text text-anchor="middle" x="252.5" y="-494.64" font-family="Times,serif" font-size="9.00">&#45;0.580</text>
</g>
<!-- key 108608
bias &#45;0.324
h_scaling 1.000&#45;&gt;key 108608
bias &#45;0.324
h_scaling 1.000 -->
<g id="edge14" class="edge">
<title>key 108608
bias &#45;0.324
h_scaling 1.000&#45;&gt;key 108608
bias &#45;0.324
h_scaling 1.000</title>
<path fill="none" stroke="red" stroke-width="1.84" d="M412.94,-945.33C424.5,-943.45 432.64,-938.35 432.64,-930.04 432.64,-924.32 428.79,-920.12 422.63,-917.45"/>
<polygon fill="red" stroke="red" stroke-width="1.84" points="423.52,-914.06 412.94,-914.74 421.63,-920.8 423.52,-914.06"/>
<text text-anchor="middle" x="446.64" y="-927.84" font-family="Times,serif" font-size="9.00">0.580</text>
</g>
<!-- key 108608
bias &#45;0.324
h_scaling 1.000&#45;&gt;key 2153
bias &#45;0.512
h_scaling 1.000 -->
<g id="edge13" class="edge">
<title>key 108608
bias &#45;0.324
h_scaling 1.000&#45;&gt;key 2153
bias &#45;0.512
h_scaling 1.000</title>
<path fill="none" stroke="blue" stroke-width="0.9" d="M309.94,-880.87C292.14,-859.98 271.18,-835.39 252.69,-813.71"/>
<polygon fill="blue" stroke="blue" stroke-width="0.9" points="255.15,-811.2 246,-805.86 249.83,-815.74 255.15,-811.2"/>
<text text-anchor="middle" x="293.5" y="-841.2" font-family="Times,serif" font-size="9.00">&#45;0.268</text>
</g>
<!-- key 106644
bias &#45;0.520
h_scaling 1.000 -->
<g id="node8" class="node">
<title>key 106644
bias &#45;0.520
h_scaling 1.000</title>
<ellipse fill="white" stroke="black" cx="340" cy="-63.64" rx="63.78" ry="63.78"/>
<text text-anchor="middle" x="340" y="-71.44" font-family="Times,serif" font-size="9.00">key 106644</text>
<text text-anchor="middle" x="340" y="-61.44" font-family="Times,serif" font-size="9.00">bias &#45;0.520</text>
<text text-anchor="middle" x="340" y="-51.44" font-family="Times,serif" font-size="9.00">h_scaling 1.000</text>
</g>
<!-- key 108608
bias &#45;0.324
h_scaling 1.000&#45;&gt;key 106644
bias &#45;0.520
h_scaling 1.000 -->
<g id="edge17" class="edge">
<title>key 108608
bias &#45;0.324
h_scaling 1.000&#45;&gt;key 106644
bias &#45;0.520
h_scaling 1.000</title>
<path fill="none" stroke="blue" stroke-width="0.87" d="M401.12,-890.46C435.9,-858.99 476,-811.13 476,-757.76 476,-757.76 476,-757.76 476,-235.92 476,-183.46 436.38,-137.73 399.91,-106.75"/>
<polygon fill="blue" stroke="blue" stroke-width="0.87" points="402.13,-104.04 392.19,-100.37 397.67,-109.44 402.13,-104.04"/>
<text text-anchor="middle" x="491.5" y="-494.64" font-family="Times,serif" font-size="9.00">&#45;0.256</text>
</g>
<!-- key 143081
bias &#45;0.163
h_scaling 1.000&#45;&gt;key 108608
bias &#45;0.324
h_scaling 1.000 -->
<g id="edge22" class="edge">
<title>key 143081
bias &#45;0.163
h_scaling 1.000&#45;&gt;key 108608
bias &#45;0.324
h_scaling 1.000</title>
<path fill="none" stroke="blue" stroke-width="0.34" d="M376.7,-289.25C396.53,-321.97 417,-366.16 417,-409.2 417,-757.76 417,-757.76 417,-757.76 417,-795.32 403.01,-834.6 387.91,-866.05"/>
<polygon fill="blue" stroke="blue" stroke-width="0.34" points="384.72,-864.62 383.42,-875.13 390.99,-867.72 384.72,-864.62"/>
<text text-anchor="middle" x="432.5" y="-581.28" font-family="Times,serif" font-size="9.00">&#45;0.079</text>
</g>
<!-- key 143081
bias &#45;0.163
h_scaling 1.000&#45;&gt;key 106644
bias &#45;0.520
h_scaling 1.000 -->
<g id="edge16" class="edge">
<title>key 143081
bias &#45;0.163
h_scaling 1.000&#45;&gt;key 106644
bias &#45;0.520
h_scaling 1.000</title>
<path fill="none" stroke="red" stroke-width="3.01" d="M340,-173.11C340,-161.59 340,-149.48 340,-137.69"/>
<polygon fill="red" stroke="red" stroke-width="3.01" points="343.5,-137.44 340,-127.44 336.5,-137.44 343.5,-137.44"/>
<text text-anchor="middle" x="354" y="-148.08" font-family="Times,serif" font-size="9.00">0.969</text>
</g>
<!-- key 2153
bias &#45;0.512
h_scaling 1.000&#45;&gt;output
bias 0.577
h_scaling 1.000 -->
<g id="edge3" class="edge">
<title>key 2153
bias &#45;0.512
h_scaling 1.000&#45;&gt;output
bias 0.577
h_scaling 1.000</title>
<path fill="none" stroke="blue" stroke-width="3.1" d="M230.87,-698.54C236.7,-687.2 243.19,-675.57 250,-665.12 255.57,-656.56 261.91,-647.89 268.42,-639.55"/>
<polygon fill="blue" stroke="blue" stroke-width="3.1" points="271.2,-641.68 274.7,-631.68 265.73,-637.32 271.2,-641.68"/>
<text text-anchor="middle" x="265.5" y="-667.92" font-family="Times,serif" font-size="9.00">&#45;1.000</text>
</g>
<!-- key 2153
bias &#45;0.512
h_scaling 1.000&#45;&gt;key 2153
bias &#45;0.512
h_scaling 1.000 -->
<g id="edge6" class="edge">
<title>key 2153
bias &#45;0.512
h_scaling 1.000&#45;&gt;key 2153
bias &#45;0.512
h_scaling 1.000</title>
<path fill="none" stroke="red" stroke-width="2.32" d="M266.94,-772.05C278.5,-770.17 286.64,-765.07 286.64,-756.76 286.64,-751.04 282.79,-746.84 276.63,-744.17"/>
<polygon fill="red" stroke="red" stroke-width="2.32" points="277.52,-740.78 266.94,-741.46 275.63,-747.52 277.52,-740.78"/>
<text text-anchor="middle" x="300.64" y="-754.56" font-family="Times,serif" font-size="9.00">0.740</text>
</g>
<!-- key 2153
bias &#45;0.512
h_scaling 1.000&#45;&gt;key 7657
bias &#45;0.507
h_scaling 1.000 -->
<g id="edge4" class="edge">
<title>key 2153
bias &#45;0.512
h_scaling 1.000&#45;&gt;key 7657
bias &#45;0.507
h_scaling 1.000</title>
<path fill="none" stroke="red" stroke-width="3.1" d="M175.21,-700.3C167.75,-683.67 160.79,-665.07 157,-647.12 145.32,-591.77 144.89,-575.1 157,-519.84 160.28,-504.86 165.83,-489.49 172.06,-475.2"/>
<polygon fill="red" stroke="red" stroke-width="3.1" points="175.3,-476.52 176.24,-465.97 168.92,-473.64 175.3,-476.52"/>
<text text-anchor="middle" x="171" y="-581.28" font-family="Times,serif" font-size="9.00">1.000</text>
</g>
<!-- key 7657
bias &#45;0.507
h_scaling 1.000&#45;&gt;output
bias 0.577
h_scaling 1.000 -->
<g id="edge5" class="edge">
<title>key 7657
bias &#45;0.507
h_scaling 1.000&#45;&gt;output
bias 0.577
h_scaling 1.000</title>
<path fill="none" stroke="blue" stroke-width="3.1" d="M248.31,-458.96C256.59,-469.48 264.92,-480.78 272,-491.84 276.94,-499.55 281.73,-507.88 286.24,-516.26"/>
<polygon fill="blue" stroke="blue" stroke-width="3.1" points="283.26,-518.11 291,-525.34 289.46,-514.86 283.26,-518.11"/>
<text text-anchor="middle" x="293.5" y="-494.64" font-family="Times,serif" font-size="9.00">&#45;1.000</text>
</g>
<!-- key 7657
bias &#45;0.507
h_scaling 1.000&#45;&gt;key 143081
bias &#45;0.163
h_scaling 1.000 -->
<g id="edge18" class="edge">
<title>key 7657
bias &#45;0.507
h_scaling 1.000&#45;&gt;key 143081
bias &#45;0.163
h_scaling 1.000</title>
<path fill="none" stroke="blue" stroke-width="0.32" d="M245.83,-359.2C261.26,-339.32 279.11,-316.33 295.1,-295.74"/>
<polygon fill="blue" stroke="blue" stroke-width="0.32" points="297.99,-297.73 301.36,-287.69 292.46,-293.44 297.99,-297.73"/>
<text text-anchor="middle" x="289.5" y="-321.36" font-family="Times,serif" font-size="9.00">&#45;0.073</text>
</g>
<!-- key 7657
bias &#45;0.507
h_scaling 1.000&#45;&gt;key 2153
bias &#45;0.512
h_scaling 1.000 -->
<g id="edge8" class="edge">
<title>key 7657
bias &#45;0.507
h_scaling 1.000&#45;&gt;key 2153
bias &#45;0.512
h_scaling 1.000</title>
<path fill="none" stroke="red" stroke-width="0.78" d="M206.64,-473.85C206.29,-532.74 205.78,-620.85 205.42,-682.86"/>
<polygon fill="red" stroke="red" stroke-width="0.78" points="201.92,-682.94 205.36,-692.96 208.92,-682.98 201.92,-682.94"/>
<text text-anchor="middle" x="221" y="-581.28" font-family="Times,serif" font-size="9.00">0.228</text>
</g>
<!-- key 106644
bias &#45;0.520
h_scaling 1.000&#45;&gt;key 2153
bias &#45;0.512
h_scaling 1.000 -->
<g id="edge11" class="edge">
<title>key 106644
bias &#45;0.520
h_scaling 1.000&#45;&gt;key 2153
bias &#45;0.512
h_scaling 1.000</title>
<path fill="none" stroke="red" stroke-width="1.25" d="M278.05,-79.37C206.06,-100.61 97,-147.4 97,-235.92 97,-497.84 97,-497.84 97,-497.84 97,-569.74 133.15,-644.77 163.62,-695.25"/>
<polygon fill="red" stroke="red" stroke-width="1.25" points="160.82,-697.38 169.04,-704.07 166.79,-693.71 160.82,-697.38"/>
<text text-anchor="middle" x="111" y="-408" font-family="Times,serif" font-size="9.00">0.383</text>
</g>
<!-- key 106644
bias &#45;0.520
h_scaling 1.000&#45;&gt;key 106644
bias &#45;0.520
h_scaling 1.000 -->
<g id="edge20" class="edge">
<title>key 106644
bias &#45;0.520
h_scaling 1.000&#45;&gt;key 106644
bias &#45;0.520
h_scaling 1.000</title>
<path fill="none" stroke="red" stroke-width="0.15" d="M401.94,-78.94C413.5,-77.05 421.64,-71.95 421.64,-63.64 421.64,-57.92 417.79,-53.73 411.63,-51.05"/>
<polygon fill="red" stroke="red" stroke-width="0.15" points="412.52,-47.66 401.94,-48.34 410.63,-54.4 412.52,-47.66"/>
<text text-anchor="middle" x="435.64" y="-61.44" font-family="Times,serif" font-size="9.00">0.016</text>
</g>
</g>
</svg>
