<?xml version="1.0" encoding="UTF-8" standalone="no"?>
<!DOCTYPE svg PUBLIC "-//W3C//DTD SVG 1.1//EN"
 "http://www.w3.org/Graphics/SVG/1.1/DTD/svg11.dtd">
<!-- Generated by graphviz version 8.0.5 (20230430.1635)
 -->
<!-- Pages: 1 -->
<svg width="182pt" height="180pt"
 viewBox="0.00 0.00 181.80 179.70" xmlns="http://www.w3.org/2000/svg" xmlns:xlink="http://www.w3.org/1999/xlink">
<g id="graph0" class="graph" transform="scale(1 1) rotate(0) translate(4 175.7)">
<polygon fill="white" stroke="none" points="-4,4 -4,-175.7 177.8,-175.7 177.8,4 -4,4"/>
<!-- ready -->
<g id="node1" class="node">
<title>ready</title>
<polygon fill="yellow" stroke="black" points="36.25,-98.66 0,-98.66 0,-79.41 36.25,-79.41 36.25,-98.66"/>
<text text-anchor="middle" x="18.12" y="-86.11" font-family="Times New Roman,serif" font-size="9.00">ready</text>
</g>
<!-- o1 -->
<g id="node3" class="node">
<title>o1</title>
<ellipse fill="lightblue" stroke="black" cx="85.12" cy="-17.68" rx="17.68" ry="17.68"/>
<text text-anchor="middle" x="85.12" y="-14.75" font-family="Times New Roman,serif" font-size="9.00">o1</text>
</g>
<!-- ready&#45;&gt;o1 -->
<g id="edge6" class="edge">
<title>ready&#45;&gt;o1</title>
<path fill="none" stroke="blue" stroke-width="0.23" d="M26.88,-78.97C36.88,-68.62 53.52,-51.4 66.46,-38"/>
<polygon fill="blue" stroke="blue" stroke-width="0.23" points="68.77,-40.65 73.2,-31.02 63.73,-35.78 68.77,-40.65"/>
</g>
<!-- go -->
<g id="node2" class="node">
<title>go</title>
<polygon fill="green" stroke="black" points="118.25,-166.83 94,-166.83 94,-147.58 118.25,-147.58 118.25,-166.83"/>
<text text-anchor="middle" x="106.12" y="-154.28" font-family="Times New Roman,serif" font-size="9.00">go</text>
</g>
<!-- go&#45;&gt;o1 -->
<g id="edge3" class="edge">
<title>go&#45;&gt;o1</title>
<path fill="none" stroke="red" stroke-width="0.11" d="M100.44,-147.15C94.77,-137.54 86.44,-121.7 83.12,-106.71 78.63,-86.37 79.49,-62.74 81.27,-45.09"/>
<polygon fill="red" stroke="red" stroke-width="0.11" points="84.71,-45.8 82.4,-35.46 77.76,-44.98 84.71,-45.8"/>
</g>
<!-- 2 -->
<g id="node5" class="node">
<title>2</title>
<ellipse fill="white" stroke="black" cx="106.12" cy="-89.03" rx="14.5" ry="14.5"/>
<text text-anchor="middle" x="106.12" y="-86.11" font-family="Times New Roman,serif" font-size="9.00">2</text>
</g>
<!-- go&#45;&gt;2 -->
<g id="edge1" class="edge">
<title>go&#45;&gt;2</title>
<path fill="none" stroke="red" stroke-width="0.13" d="M106.12,-147.28C106.12,-138.66 106.12,-125.22 106.12,-113.53"/>
<polygon fill="red" stroke="red" stroke-width="0.13" points="109.63,-113.88 106.12,-103.88 102.63,-113.88 109.63,-113.88"/>
</g>
<!-- o2 -->
<g id="node6" class="node">
<title>o2</title>
<ellipse fill="none" stroke="black" cx="156.12" cy="-89.03" rx="17.68" ry="17.68"/>
<text text-anchor="middle" x="156.12" y="-86.11" font-family="Times New Roman,serif" font-size="9.00">o2</text>
</g>
<!-- go&#45;&gt;o2 -->
<g id="edge4" class="edge">
<title>go&#45;&gt;o2</title>
<path fill="none" stroke="red" stroke-width="0.22" d="M112.87,-147.28C119.71,-138.22 130.57,-123.85 139.69,-111.78"/>
<polygon fill="red" stroke="red" stroke-width="0.22" points="142.43,-113.97 145.66,-103.88 136.84,-109.75 142.43,-113.97"/>
</g>
<!-- o1&#45;&gt;o1 -->
<g id="edge5" class="edge">
<title>o1&#45;&gt;o1</title>
<path fill="none" stroke="red" stroke-width="0.18" d="M99.04,-29.33C109.81,-33.69 120.8,-29.8 120.8,-17.68 120.8,-9.34 115.61,-4.9 108.86,-4.36"/>
<polygon fill="red" stroke="red" stroke-width="0.18" points="108.31,-0.9 99.04,-6.03 109.49,-7.8 108.31,-0.9"/>
</g>
<!-- 1 -->
<g id="node4" class="node">
<title>1</title>
<ellipse fill="lightblue" stroke="black" cx="151.12" cy="-157.21" rx="14.5" ry="14.5"/>
<text text-anchor="middle" x="151.12" y="-154.28" font-family="Times New Roman,serif" font-size="9.00">1</text>
</g>
<!-- 2&#45;&gt;o1 -->
<g id="edge2" class="edge">
<title>2&#45;&gt;o1</title>
<path fill="none" stroke="red" stroke-width="0.19" d="M102.08,-74.66C99.47,-66.07 96.01,-54.63 92.89,-44.33"/>
<polygon fill="red" stroke="red" stroke-width="0.19" points="96.3,-43.49 90.05,-34.94 89.6,-45.52 96.3,-43.49"/>
</g>
<!-- o2&#45;&gt;o1 -->
<g id="edge7" class="edge">
<title>o2&#45;&gt;o1</title>
<path fill="none" stroke="red" stroke-width="0.3" d="M143.76,-75.95C132.86,-65.31 116.82,-49.64 104.27,-37.38"/>
<polygon fill="red" stroke="red" stroke-width="0.3" points="106.95,-35.1 97.35,-30.62 102.06,-40.11 106.95,-35.1"/>
</g>
</g>
</svg>
