<?xml version="1.0" encoding="UTF-8" standalone="no"?>
<!DOCTYPE svg PUBLIC "-//W3C//DTD SVG 1.1//EN"
 "http://www.w3.org/Graphics/SVG/1.1/DTD/svg11.dtd">
<!-- Generated by graphviz version 2.43.0 (0)
 -->
<!-- Title: %3 Pages: 1 -->
<svg width="885pt" height="729pt"
 viewBox="0.00 0.00 884.64 729.12" xmlns="http://www.w3.org/2000/svg" xmlns:xlink="http://www.w3.org/1999/xlink">
<g id="graph0" class="graph" transform="scale(1 1) rotate(0) translate(4 725.12)">
<title>%3</title>
<polygon fill="white" stroke="transparent" points="-4,4 -4,-725.12 880.64,-725.12 880.64,4 -4,4"/>
<!-- ready
output 0.000 -->
<g id="node1" class="node">
<title>ready
output 0.000</title>
<polygon fill="yellow" stroke="black" points="858.14,-721.12 781.14,-721.12 781.14,-693.12 858.14,-693.12 858.14,-721.12"/>
<text text-anchor="middle" x="819.64" y="-709.92" font-family="Times,serif" font-size="9.00">ready</text>
<text text-anchor="middle" x="819.64" y="-699.92" font-family="Times,serif" font-size="9.00">output 0.000</text>
</g>
<!-- key 11211
bias &#45;0.534
h_scaling 1.000
output 0.542 -->
<g id="node5" class="node">
<title>key 11211
bias &#45;0.534
h_scaling 1.000
output 0.542</title>
<ellipse fill="white" stroke="black" cx="628.64" cy="-583.48" rx="63.78" ry="63.78"/>
<text text-anchor="middle" x="628.64" y="-596.28" font-family="Times,serif" font-size="9.00">key 11211</text>
<text text-anchor="middle" x="628.64" y="-586.28" font-family="Times,serif" font-size="9.00">bias &#45;0.534</text>
<text text-anchor="middle" x="628.64" y="-576.28" font-family="Times,serif" font-size="9.00">h_scaling 1.000</text>
<text text-anchor="middle" x="628.64" y="-566.28" font-family="Times,serif" font-size="9.00">output 0.542</text>
</g>
<!-- ready
output 0.000&#45;&gt;key 11211
bias &#45;0.534
h_scaling 1.000
output 0.542 -->
<g id="edge7" class="edge">
<title>ready
output 0.000&#45;&gt;key 11211
bias &#45;0.534
h_scaling 1.000
output 0.542</title>
<path fill="none" stroke="blue" stroke-width="0.1" d="M799.2,-693.1C773.54,-676.76 728.35,-647.98 690.93,-624.15"/>
<polygon fill="blue" stroke="blue" stroke-width="0.1" points="692.41,-620.94 682.1,-618.52 688.65,-626.85 692.41,-620.94"/>
<text text-anchor="middle" x="783.14" y="-667.92" font-family="Times,serif" font-size="9.00">&#45;0.243</text>
</g>
<!-- key 1458
bias &#45;0.756
h_scaling 1.000
output 0.663 -->
<g id="node7" class="node">
<title>key 1458
bias &#45;0.756
h_scaling 1.000
output 0.663</title>
<ellipse fill="white" stroke="black" cx="634.64" cy="-63.64" rx="63.78" ry="63.78"/>
<text text-anchor="middle" x="634.64" y="-76.44" font-family="Times,serif" font-size="9.00">key 1458</text>
<text text-anchor="middle" x="634.64" y="-66.44" font-family="Times,serif" font-size="9.00">bias &#45;0.756</text>
<text text-anchor="middle" x="634.64" y="-56.44" font-family="Times,serif" font-size="9.00">h_scaling 1.000</text>
<text text-anchor="middle" x="634.64" y="-46.44" font-family="Times,serif" font-size="9.00">output 0.663</text>
</g>
<!-- ready
output 0.000&#45;&gt;key 1458
bias &#45;0.756
h_scaling 1.000
output 0.663 -->
<g id="edge9" class="edge">
<title>ready
output 0.000&#45;&gt;key 1458
bias &#45;0.756
h_scaling 1.000
output 0.663</title>
<path fill="none" stroke="blue" stroke-width="0.1" d="M824.41,-692.82C831.91,-670.66 845.64,-624.64 845.64,-584.48 845.64,-584.48 845.64,-584.48 845.64,-235.92 845.64,-161.53 765.61,-113.81 704.13,-88.12"/>
<polygon fill="blue" stroke="blue" stroke-width="0.1" points="705.4,-84.86 694.82,-84.33 702.77,-91.34 705.4,-84.86"/>
<text text-anchor="middle" x="861.14" y="-408" font-family="Times,serif" font-size="9.00">&#45;0.144</text>
</g>
<!-- go
output 0.000 -->
<g id="node2" class="node">
<title>go
output 0.000</title>
<polygon fill="green" stroke="black" points="756.14,-721.12 679.14,-721.12 679.14,-693.12 756.14,-693.12 756.14,-721.12"/>
<text text-anchor="middle" x="717.64" y="-709.92" font-family="Times,serif" font-size="9.00">go</text>
<text text-anchor="middle" x="717.64" y="-699.92" font-family="Times,serif" font-size="9.00">output 0.000</text>
</g>
<!-- go
output 0.000&#45;&gt;key 11211
bias &#45;0.534
h_scaling 1.000
output 0.542 -->
<g id="edge4" class="edge">
<title>go
output 0.000&#45;&gt;key 11211
bias &#45;0.534
h_scaling 1.000
output 0.542</title>
<path fill="none" stroke="red" stroke-width="0.1" d="M708.12,-693.1C699.29,-681.03 685.5,-662.19 671.87,-643.56"/>
<polygon fill="red" stroke="red" stroke-width="0.1" points="674.57,-641.33 665.84,-635.33 668.92,-645.46 674.57,-641.33"/>
<text text-anchor="middle" x="707.64" y="-667.92" font-family="Times,serif" font-size="9.00">0.386</text>
</g>
<!-- go
output 0.000&#45;&gt;key 1458
bias &#45;0.756
h_scaling 1.000
output 0.663 -->
<g id="edge2" class="edge">
<title>go
output 0.000&#45;&gt;key 1458
bias &#45;0.756
h_scaling 1.000
output 0.663</title>
<path fill="none" stroke="red" stroke-width="0.1" d="M726.86,-692.96C741.05,-671.36 766.64,-626.6 766.64,-584.48 766.64,-584.48 766.64,-584.48 766.64,-235.92 766.64,-184.61 729.02,-139.27 693.95,-108.15"/>
<polygon fill="red" stroke="red" stroke-width="0.1" points="695.91,-105.22 686.05,-101.34 691.34,-110.52 695.91,-105.22"/>
<text text-anchor="middle" x="780.64" y="-408" font-family="Times,serif" font-size="9.00">0.971</text>
</g>
<!-- output
bias 1.000
h_scaling 1.000
output 0.003 -->
<g id="node3" class="node">
<title>output
bias 1.000
h_scaling 1.000
output 0.003</title>
<ellipse fill="lightblue" stroke="black" cx="367.64" cy="-410.2" rx="63.78" ry="63.78"/>
<text text-anchor="middle" x="367.64" y="-423" font-family="Times,serif" font-size="9.00">output</text>
<text text-anchor="middle" x="367.64" y="-413" font-family="Times,serif" font-size="9.00">bias 1.000</text>
<text text-anchor="middle" x="367.64" y="-403" font-family="Times,serif" font-size="9.00">h_scaling 1.000</text>
<text text-anchor="middle" x="367.64" y="-393" font-family="Times,serif" font-size="9.00">output 0.003</text>
</g>
<!-- key 138281
bias &#45;0.484
h_scaling 1.000
output 0.793 -->
<g id="node4" class="node">
<title>key 138281
bias &#45;0.484
h_scaling 1.000
output 0.793</title>
<ellipse fill="white" stroke="black" cx="421.64" cy="-236.92" rx="63.78" ry="63.78"/>
<text text-anchor="middle" x="421.64" y="-249.72" font-family="Times,serif" font-size="9.00">key 138281</text>
<text text-anchor="middle" x="421.64" y="-239.72" font-family="Times,serif" font-size="9.00">bias &#45;0.484</text>
<text text-anchor="middle" x="421.64" y="-229.72" font-family="Times,serif" font-size="9.00">h_scaling 1.000</text>
<text text-anchor="middle" x="421.64" y="-219.72" font-family="Times,serif" font-size="9.00">output 0.793</text>
</g>
<!-- output
bias 1.000
h_scaling 1.000
output 0.003&#45;&gt;key 138281
bias &#45;0.484
h_scaling 1.000
output 0.793 -->
<g id="edge15" class="edge">
<title>output
bias 1.000
h_scaling 1.000
output 0.003&#45;&gt;key 138281
bias &#45;0.484
h_scaling 1.000
output 0.793</title>
<path fill="none" stroke="blue" stroke-width="0.1" d="M391.86,-350.97C394.64,-343.48 397.31,-335.88 399.64,-328.56 401.65,-322.23 403.58,-315.61 405.41,-308.95"/>
<polygon fill="blue" stroke="blue" stroke-width="0.1" points="408.82,-309.75 408,-299.19 402.05,-307.95 408.82,-309.75"/>
<text text-anchor="middle" x="417.14" y="-321.36" font-family="Times,serif" font-size="9.00">&#45;0.147</text>
</g>
<!-- key 384139
bias 1.000
h_scaling 1.000
output 0.993 -->
<g id="node6" class="node">
<title>key 384139
bias 1.000
h_scaling 1.000
output 0.993</title>
<ellipse fill="white" stroke="black" cx="208.64" cy="-236.92" rx="63.78" ry="63.78"/>
<text text-anchor="middle" x="208.64" y="-249.72" font-family="Times,serif" font-size="9.00">key 384139</text>
<text text-anchor="middle" x="208.64" y="-239.72" font-family="Times,serif" font-size="9.00">bias 1.000</text>
<text text-anchor="middle" x="208.64" y="-229.72" font-family="Times,serif" font-size="9.00">h_scaling 1.000</text>
<text text-anchor="middle" x="208.64" y="-219.72" font-family="Times,serif" font-size="9.00">output 0.993</text>
</g>
<!-- output
bias 1.000
h_scaling 1.000
output 0.003&#45;&gt;key 384139
bias 1.000
h_scaling 1.000
output 0.993 -->
<g id="edge18" class="edge">
<title>output
bias 1.000
h_scaling 1.000
output 0.003&#45;&gt;key 384139
bias 1.000
h_scaling 1.000
output 0.993</title>
<path fill="none" stroke="red" stroke-width="0.1" d="M315.75,-373.03C299.05,-360.07 281.13,-344.65 266.64,-328.56 259.1,-320.18 251.89,-310.72 245.28,-301.15"/>
<polygon fill="red" stroke="red" stroke-width="0.1" points="248.11,-299.09 239.62,-292.74 242.29,-302.99 248.11,-299.09"/>
<text text-anchor="middle" x="280.64" y="-321.36" font-family="Times,serif" font-size="9.00">1.000</text>
</g>
<!-- key 84885
bias &#45;0.346
h_scaling 1.000
output 0.151 -->
<g id="node8" class="node">
<title>key 84885
bias &#45;0.346
h_scaling 1.000
output 0.151</title>
<ellipse fill="white" stroke="black" cx="63.64" cy="-236.92" rx="63.78" ry="63.78"/>
<text text-anchor="middle" x="63.64" y="-249.72" font-family="Times,serif" font-size="9.00">key 84885</text>
<text text-anchor="middle" x="63.64" y="-239.72" font-family="Times,serif" font-size="9.00">bias &#45;0.346</text>
<text text-anchor="middle" x="63.64" y="-229.72" font-family="Times,serif" font-size="9.00">h_scaling 1.000</text>
<text text-anchor="middle" x="63.64" y="-219.72" font-family="Times,serif" font-size="9.00">output 0.151</text>
</g>
<!-- output
bias 1.000
h_scaling 1.000
output 0.003&#45;&gt;key 84885
bias &#45;0.346
h_scaling 1.000
output 0.151 -->
<g id="edge10" class="edge">
<title>output
bias 1.000
h_scaling 1.000
output 0.003&#45;&gt;key 84885
bias &#45;0.346
h_scaling 1.000
output 0.151</title>
<path fill="none" stroke="red" stroke-width="0.1" d="M308.06,-386.68C259.73,-367.16 190.81,-336.46 135.64,-300.56 129.63,-296.64 123.58,-292.26 117.7,-287.68"/>
<polygon fill="red" stroke="red" stroke-width="0.1" points="119.78,-284.86 109.79,-281.34 115.4,-290.32 119.78,-284.86"/>
<text text-anchor="middle" x="192.64" y="-321.36" font-family="Times,serif" font-size="9.00">0.751</text>
</g>
<!-- key 138281
bias &#45;0.484
h_scaling 1.000
output 0.793&#45;&gt;output
bias 1.000
h_scaling 1.000
output 0.003 -->
<g id="edge13" class="edge">
<title>key 138281
bias &#45;0.484
h_scaling 1.000
output 0.793&#45;&gt;output
bias 1.000
h_scaling 1.000
output 0.003</title>
<path fill="none" stroke="blue" stroke-width="0.1" d="M382.73,-287.77C376.95,-297.5 371.87,-307.98 368.64,-318.56 366.9,-324.25 365.66,-330.23 364.8,-336.3"/>
<polygon fill="blue" stroke="blue" stroke-width="0.1" points="361.28,-336.24 363.69,-346.56 368.24,-336.99 361.28,-336.24"/>
<text text-anchor="middle" x="384.14" y="-321.36" font-family="Times,serif" font-size="9.00">&#45;0.985</text>
</g>
<!-- key 138281
bias &#45;0.484
h_scaling 1.000
output 0.793&#45;&gt;key 1458
bias &#45;0.756
h_scaling 1.000
output 0.663 -->
<g id="edge16" class="edge">
<title>key 138281
bias &#45;0.484
h_scaling 1.000
output 0.793&#45;&gt;key 1458
bias &#45;0.756
h_scaling 1.000
output 0.663</title>
<path fill="none" stroke="blue" stroke-width="0.1" d="M422.78,-172.93C425.28,-162.93 429.32,-153.27 435.64,-145.28 466.22,-106.64 518.29,-86.4 561.49,-75.86"/>
<polygon fill="blue" stroke="blue" stroke-width="0.1" points="562.46,-79.23 571.42,-73.57 560.88,-72.41 562.46,-79.23"/>
<text text-anchor="middle" x="451.14" y="-148.08" font-family="Times,serif" font-size="9.00">&#45;0.047</text>
</g>
<!-- key 11211
bias &#45;0.534
h_scaling 1.000
output 0.542&#45;&gt;output
bias 1.000
h_scaling 1.000
output 0.003 -->
<g id="edge8" class="edge">
<title>key 11211
bias &#45;0.534
h_scaling 1.000
output 0.542&#45;&gt;output
bias 1.000
h_scaling 1.000
output 0.003</title>
<path fill="none" stroke="blue" stroke-width="0.1" d="M575.82,-547.82C533.42,-519.99 473.82,-480.88 429.25,-451.63"/>
<polygon fill="blue" stroke="blue" stroke-width="0.1" points="431.11,-448.66 420.83,-446.1 427.27,-454.51 431.11,-448.66"/>
<text text-anchor="middle" x="513.14" y="-494.64" font-family="Times,serif" font-size="9.00">&#45;0.985</text>
</g>
<!-- key 11211
bias &#45;0.534
h_scaling 1.000
output 0.542&#45;&gt;key 11211
bias &#45;0.534
h_scaling 1.000
output 0.542 -->
<g id="edge6" class="edge">
<title>key 11211
bias &#45;0.534
h_scaling 1.000
output 0.542&#45;&gt;key 11211
bias &#45;0.534
h_scaling 1.000
output 0.542</title>
<path fill="none" stroke="red" stroke-width="0.1" d="M690.58,-598.77C702.14,-596.89 710.28,-591.79 710.28,-583.48 710.28,-577.76 706.43,-573.56 700.27,-570.89"/>
<polygon fill="red" stroke="red" stroke-width="0.1" points="701.16,-567.5 690.58,-568.18 699.27,-574.24 701.16,-567.5"/>
<text text-anchor="middle" x="724.28" y="-581.28" font-family="Times,serif" font-size="9.00">0.944</text>
</g>
<!-- key 11211
bias &#45;0.534
h_scaling 1.000
output 0.542&#45;&gt;key 1458
bias &#45;0.756
h_scaling 1.000
output 0.663 -->
<g id="edge5" class="edge">
<title>key 11211
bias &#45;0.534
h_scaling 1.000
output 0.542&#45;&gt;key 1458
bias &#45;0.756
h_scaling 1.000
output 0.663</title>
<path fill="none" stroke="red" stroke-width="0.1" d="M656.63,-525.97C692.33,-446.18 745.19,-296.47 707.64,-173.28 702.08,-155.03 692.31,-137.07 681.7,-121.16"/>
<polygon fill="red" stroke="red" stroke-width="0.1" points="684.31,-118.78 675.74,-112.55 678.55,-122.77 684.31,-118.78"/>
<text text-anchor="middle" x="730.64" y="-321.36" font-family="Times,serif" font-size="9.00">0.932</text>
</g>
<!-- key 352055
bias &#45;0.966
h_scaling 1.000
output 0.005 -->
<g id="node9" class="node">
<title>key 352055
bias &#45;0.966
h_scaling 1.000
output 0.005</title>
<ellipse fill="white" stroke="black" cx="258.64" cy="-63.64" rx="63.78" ry="63.78"/>
<text text-anchor="middle" x="258.64" y="-76.44" font-family="Times,serif" font-size="9.00">key 352055</text>
<text text-anchor="middle" x="258.64" y="-66.44" font-family="Times,serif" font-size="9.00">bias &#45;0.966</text>
<text text-anchor="middle" x="258.64" y="-56.44" font-family="Times,serif" font-size="9.00">h_scaling 1.000</text>
<text text-anchor="middle" x="258.64" y="-46.44" font-family="Times,serif" font-size="9.00">output 0.005</text>
</g>
<!-- key 384139
bias 1.000
h_scaling 1.000
output 0.993&#45;&gt;key 352055
bias &#45;0.966
h_scaling 1.000
output 0.005 -->
<g id="edge19" class="edge">
<title>key 384139
bias 1.000
h_scaling 1.000
output 0.993&#45;&gt;key 352055
bias &#45;0.966
h_scaling 1.000
output 0.005</title>
<path fill="none" stroke="blue" stroke-width="0.1" d="M226.27,-175.53C230.11,-162.36 234.22,-148.31 238.16,-134.79"/>
<polygon fill="blue" stroke="blue" stroke-width="0.1" points="241.56,-135.64 241,-125.06 234.84,-133.68 241.56,-135.64"/>
<text text-anchor="middle" x="249.14" y="-148.08" font-family="Times,serif" font-size="9.00">&#45;0.113</text>
</g>
<!-- key 1458
bias &#45;0.756
h_scaling 1.000
output 0.663&#45;&gt;output
bias 1.000
h_scaling 1.000
output 0.003 -->
<g id="edge1" class="edge">
<title>key 1458
bias &#45;0.756
h_scaling 1.000
output 0.663&#45;&gt;output
bias 1.000
h_scaling 1.000
output 0.003</title>
<path fill="none" stroke="blue" stroke-width="0.1" d="M586.46,-105.25C566.69,-124.14 545.1,-148.01 530.64,-173.28 501.45,-224.31 526.33,-251.05 494.64,-300.56 477.78,-326.9 452.6,-350.32 429.1,-368.61"/>
<polygon fill="blue" stroke="blue" stroke-width="0.1" points="426.72,-366.02 420.87,-374.86 430.95,-371.6 426.72,-366.02"/>
<text text-anchor="middle" x="546.14" y="-234.72" font-family="Times,serif" font-size="9.00">&#45;0.985</text>
</g>
<!-- key 1458
bias &#45;0.756
h_scaling 1.000
output 0.663&#45;&gt;key 138281
bias &#45;0.484
h_scaling 1.000
output 0.793 -->
<g id="edge12" class="edge">
<title>key 1458
bias &#45;0.756
h_scaling 1.000
output 0.663&#45;&gt;key 138281
bias &#45;0.484
h_scaling 1.000
output 0.793</title>
<path fill="none" stroke="red" stroke-width="0.1" d="M575.27,-86.77C544.33,-100.35 507.29,-120 479.64,-145.28 471.21,-152.98 463.51,-162.17 456.66,-171.7"/>
<polygon fill="red" stroke="red" stroke-width="0.1" points="453.64,-169.91 450.86,-180.13 459.41,-173.87 453.64,-169.91"/>
<text text-anchor="middle" x="493.64" y="-148.08" font-family="Times,serif" font-size="9.00">1.000</text>
</g>
<!-- key 1458
bias &#45;0.756
h_scaling 1.000
output 0.663&#45;&gt;key 1458
bias &#45;0.756
h_scaling 1.000
output 0.663 -->
<g id="edge3" class="edge">
<title>key 1458
bias &#45;0.756
h_scaling 1.000
output 0.663&#45;&gt;key 1458
bias &#45;0.756
h_scaling 1.000
output 0.663</title>
<path fill="none" stroke="red" stroke-width="0.1" d="M696.58,-78.94C708.14,-77.05 716.28,-71.95 716.28,-63.64 716.28,-57.92 712.43,-53.73 706.27,-51.05"/>
<polygon fill="red" stroke="red" stroke-width="0.1" points="707.16,-47.66 696.58,-48.34 705.27,-54.4 707.16,-47.66"/>
<text text-anchor="middle" x="730.28" y="-61.44" font-family="Times,serif" font-size="9.00">0.522</text>
</g>
<!-- key 84885
bias &#45;0.346
h_scaling 1.000
output 0.151&#45;&gt;key 11211
bias &#45;0.534
h_scaling 1.000
output 0.542 -->
<g id="edge11" class="edge">
<title>key 84885
bias &#45;0.346
h_scaling 1.000
output 0.151&#45;&gt;key 11211
bias &#45;0.534
h_scaling 1.000
output 0.542</title>
<path fill="none" stroke="red" stroke-width="0.1" d="M96.61,-291.7C132.2,-345.36 193.68,-426.46 266.64,-473.84 356.31,-532.06 478.47,-560.18 555.45,-572.93"/>
<polygon fill="red" stroke="red" stroke-width="0.1" points="555.11,-576.42 565.54,-574.55 556.22,-569.51 555.11,-576.42"/>
<text text-anchor="middle" x="280.64" y="-408" font-family="Times,serif" font-size="9.00">0.154</text>
</g>
<!-- key 352055
bias &#45;0.966
h_scaling 1.000
output 0.005&#45;&gt;output
bias 1.000
h_scaling 1.000
output 0.003 -->
<g id="edge17" class="edge">
<title>key 352055
bias &#45;0.966
h_scaling 1.000
output 0.005&#45;&gt;output
bias 1.000
h_scaling 1.000
output 0.003</title>
<path fill="none" stroke="blue" stroke-width="0.1" d="M272.58,-125.84C286.19,-184.51 306.43,-268.7 317.64,-300.56 322.67,-314.86 328.9,-329.84 335.23,-343.95"/>
<polygon fill="blue" stroke="blue" stroke-width="0.1" points="332.06,-345.43 339.39,-353.08 338.43,-342.52 332.06,-345.43"/>
<text text-anchor="middle" x="333.14" y="-234.72" font-family="Times,serif" font-size="9.00">&#45;0.381</text>
</g>
<!-- key 257597
bias 0.942
h_scaling 1.000
output 0.000 -->
<g id="node10" class="node">
<title>key 257597
bias 0.942
h_scaling 1.000
output 0.000</title>
<ellipse fill="white" stroke="black" cx="634.64" cy="-236.92" rx="63.78" ry="63.78"/>
<text text-anchor="middle" x="634.64" y="-249.72" font-family="Times,serif" font-size="9.00">key 257597</text>
<text text-anchor="middle" x="634.64" y="-239.72" font-family="Times,serif" font-size="9.00">bias 0.942</text>
<text text-anchor="middle" x="634.64" y="-229.72" font-family="Times,serif" font-size="9.00">h_scaling 1.000</text>
<text text-anchor="middle" x="634.64" y="-219.72" font-family="Times,serif" font-size="9.00">output 0.000</text>
</g>
<!-- key 257597
bias 0.942
h_scaling 1.000
output 0.000&#45;&gt;key 1458
bias &#45;0.756
h_scaling 1.000
output 0.663 -->
<g id="edge14" class="edge">
<title>key 257597
bias 0.942
h_scaling 1.000
output 0.000&#45;&gt;key 1458
bias &#45;0.756
h_scaling 1.000
output 0.663</title>
<path fill="none" stroke="red" stroke-width="0.1" d="M634.64,-173.11C634.64,-161.59 634.64,-149.48 634.64,-137.69"/>
<polygon fill="red" stroke="red" stroke-width="0.1" points="638.14,-137.44 634.64,-127.44 631.14,-137.44 638.14,-137.44"/>
<text text-anchor="middle" x="648.64" y="-148.08" font-family="Times,serif" font-size="9.00">0.650</text>
</g>
</g>
</svg>
