<?xml version="1.0" encoding="UTF-8" standalone="no"?>
<!DOCTYPE svg PUBLIC "-//W3C//DTD SVG 1.1//EN"
 "http://www.w3.org/Graphics/SVG/1.1/DTD/svg11.dtd">
<!-- Generated by graphviz version 8.0.5 (20230430.1635)
 -->
<!-- Pages: 1 -->
<svg width="469pt" height="769pt"
 viewBox="0.00 0.00 469.25 769.08" xmlns="http://www.w3.org/2000/svg" xmlns:xlink="http://www.w3.org/1999/xlink">
<g id="graph0" class="graph" transform="scale(1 1) rotate(0) translate(4 765.08)">
<polygon fill="white" stroke="none" points="-4,4 -4,-765.08 465.25,-765.08 465.25,4 -4,4"/>
<!-- ready -->
<g id="node1" class="node">
<title>ready</title>
<polygon fill="yellow" stroke="black" points="97.12,-761.08 60.88,-761.08 60.88,-741.83 97.12,-741.83 97.12,-761.08"/>
<text text-anchor="middle" x="79" y="-748.53" font-family="Times New Roman,serif" font-size="9.00">ready</text>
</g>
<!-- key 25067
bias 0.441
h_scaling 0.382 -->
<g id="node4" class="node">
<title>key 25067
bias 0.441
h_scaling 0.382</title>
<ellipse fill="white" stroke="black" cx="79" cy="-495.66" rx="50.56" ry="50.56"/>
<text text-anchor="middle" x="79" y="-503.98" font-family="Times New Roman,serif" font-size="9.00">key 25067</text>
<text text-anchor="middle" x="79" y="-492.73" font-family="Times New Roman,serif" font-size="9.00">bias 0.441</text>
<text text-anchor="middle" x="79" y="-481.48" font-family="Times New Roman,serif" font-size="9.00">h_scaling 0.382</text>
</g>
<!-- ready&#45;&gt;key 25067
bias 0.441
h_scaling 0.382 -->
<g id="edge13" class="edge">
<title>ready&#45;&gt;key 25067
bias 0.441
h_scaling 0.382</title>
<path fill="none" stroke="red" stroke-width="1.32" d="M79,-741.42C79,-712.43 79,-619.99 79,-557.38"/>
<polygon fill="red" stroke="red" stroke-width="1.32" points="82.5,-557.45 79,-547.45 75.5,-557.45 82.5,-557.45"/>
<text text-anchor="middle" x="89.12" y="-641.1" font-family="Times New Roman,serif" font-size="9.00">0.406</text>
</g>
<!-- key 7694
bias 1.000
h_scaling 0.447 -->
<g id="node5" class="node">
<title>key 7694
bias 1.000
h_scaling 0.447</title>
<ellipse fill="white" stroke="black" cx="171" cy="-50.56" rx="50.56" ry="50.56"/>
<text text-anchor="middle" x="171" y="-58.88" font-family="Times New Roman,serif" font-size="9.00">key 7694</text>
<text text-anchor="middle" x="171" y="-47.63" font-family="Times New Roman,serif" font-size="9.00">bias 1.000</text>
<text text-anchor="middle" x="171" y="-36.38" font-family="Times New Roman,serif" font-size="9.00">h_scaling 0.447</text>
</g>
<!-- ready&#45;&gt;key 7694
bias 1.000
h_scaling 0.447 -->
<g id="edge17" class="edge">
<title>ready&#45;&gt;key 7694
bias 1.000
h_scaling 0.447</title>
<path fill="none" stroke="blue" stroke-width="0.9" d="M65.6,-741.45C43.06,-725.12 0,-688.25 0,-645.02 0,-645.02 0,-645.02 0,-197.92 0,-136.87 63.69,-95.82 113.33,-73.1"/>
<polygon fill="blue" stroke="blue" stroke-width="0.9" points="114.64,-75.91 122.37,-68.67 111.81,-69.51 114.64,-75.91"/>
<text text-anchor="middle" x="11.62" y="-418.55" font-family="Times New Roman,serif" font-size="9.00">&#45;0.265</text>
</g>
<!-- key 2865
bias &#45;0.491
h_scaling 0.827 -->
<g id="node7" class="node">
<title>key 2865
bias &#45;0.491
h_scaling 0.827</title>
<ellipse fill="white" stroke="black" cx="352" cy="-644.02" rx="50.56" ry="50.56"/>
<text text-anchor="middle" x="352" y="-652.35" font-family="Times New Roman,serif" font-size="9.00">key 2865</text>
<text text-anchor="middle" x="352" y="-641.1" font-family="Times New Roman,serif" font-size="9.00">bias &#45;0.491</text>
<text text-anchor="middle" x="352" y="-629.85" font-family="Times New Roman,serif" font-size="9.00">h_scaling 0.827</text>
</g>
<!-- ready&#45;&gt;key 2865
bias &#45;0.491
h_scaling 0.827 -->
<g id="edge1" class="edge">
<title>ready&#45;&gt;key 2865
bias &#45;0.491
h_scaling 0.827</title>
<path fill="none" stroke="red" stroke-width="2.79" d="M97.34,-743.37C136.51,-728.25 229.86,-692.19 291.99,-668.2"/>
<polygon fill="red" stroke="red" stroke-width="2.79" points="293.67,-671.14 301.74,-664.27 291.15,-664.61 293.67,-671.14"/>
<text text-anchor="middle" x="186.12" y="-715.28" font-family="Times New Roman,serif" font-size="9.00">0.896</text>
</g>
<!-- go -->
<g id="node2" class="node">
<title>go</title>
<polygon fill="green" stroke="black" points="208.12,-653.65 183.88,-653.65 183.88,-634.4 208.12,-634.4 208.12,-653.65"/>
<text text-anchor="middle" x="196" y="-641.1" font-family="Times New Roman,serif" font-size="9.00">go</text>
</g>
<!-- go&#45;&gt;key 25067
bias 0.441
h_scaling 0.382 -->
<g id="edge16" class="edge">
<title>go&#45;&gt;key 25067
bias 0.441
h_scaling 0.382</title>
<path fill="none" stroke="blue" stroke-width="1.79" d="M189.03,-634.31C175.24,-617.05 143.57,-577.43 117.73,-545.1"/>
<polygon fill="blue" stroke="blue" stroke-width="1.79" points="120.25,-543.4 111.27,-537.77 114.78,-547.77 120.25,-543.4"/>
<text text-anchor="middle" x="153.62" y="-566.92" font-family="Times New Roman,serif" font-size="9.00">&#45;0.564</text>
</g>
<!-- go&#45;&gt;key 7694
bias 1.000
h_scaling 0.447 -->
<g id="edge4" class="edge">
<title>go&#45;&gt;key 7694
bias 1.000
h_scaling 0.447</title>
<path fill="none" stroke="red" stroke-width="2.56" d="M195.41,-633.93C193.42,-603.24 186.74,-500.64 181,-415.85 180.46,-407.85 180.13,-405.86 179.75,-397.85 175.06,-298.81 172.78,-183.7 171.75,-114.31"/>
<polygon fill="red" stroke="red" stroke-width="2.56" points="175.21,-114.42 171.57,-104.47 168.21,-114.52 175.21,-114.42"/>
<text text-anchor="middle" x="190.12" y="-344.37" font-family="Times New Roman,serif" font-size="9.00">0.820</text>
</g>
<!-- key 31733
bias &#45;0.358
h_scaling 0.249 -->
<g id="node8" class="node">
<title>key 31733
bias &#45;0.358
h_scaling 0.249</title>
<ellipse fill="white" stroke="black" cx="318" cy="-198.92" rx="50.56" ry="50.56"/>
<text text-anchor="middle" x="318" y="-207.25" font-family="Times New Roman,serif" font-size="9.00">key 31733</text>
<text text-anchor="middle" x="318" y="-196" font-family="Times New Roman,serif" font-size="9.00">bias &#45;0.358</text>
<text text-anchor="middle" x="318" y="-184.75" font-family="Times New Roman,serif" font-size="9.00">h_scaling 0.249</text>
</g>
<!-- go&#45;&gt;key 31733
bias &#45;0.358
h_scaling 0.249 -->
<g id="edge8" class="edge">
<title>go&#45;&gt;key 31733
bias &#45;0.358
h_scaling 0.249</title>
<path fill="none" stroke="blue" stroke-width="2.02" d="M197.9,-634.03C206.46,-593.86 241.7,-432.16 257.75,-415.85 277.95,-395.32 302.69,-420.87 320,-397.85 349.26,-358.93 345.52,-302.47 336.34,-259.8"/>
<polygon fill="blue" stroke="blue" stroke-width="2.02" points="339.11,-258.26 333.42,-249.32 332.29,-259.85 339.11,-258.26"/>
<text text-anchor="middle" x="269.62" y="-418.55" font-family="Times New Roman,serif" font-size="9.00">&#45;0.638</text>
</g>
<!-- output
bias &#45;0.422
h_scaling 0.030 -->
<g id="node3" class="node">
<title>output
bias &#45;0.422
h_scaling 0.030</title>
<ellipse fill="lightblue" stroke="black" cx="260" cy="-347.29" rx="50.56" ry="50.56"/>
<text text-anchor="middle" x="260" y="-355.62" font-family="Times New Roman,serif" font-size="9.00">output</text>
<text text-anchor="middle" x="260" y="-344.37" font-family="Times New Roman,serif" font-size="9.00">bias &#45;0.422</text>
<text text-anchor="middle" x="260" y="-333.12" font-family="Times New Roman,serif" font-size="9.00">h_scaling 0.030</text>
</g>
<!-- output
bias &#45;0.422
h_scaling 0.030&#45;&gt;key 31733
bias &#45;0.358
h_scaling 0.249 -->
<g id="edge12" class="edge">
<title>output
bias &#45;0.422
h_scaling 0.030&#45;&gt;key 31733
bias &#45;0.358
h_scaling 0.249</title>
<path fill="none" stroke="blue" stroke-width="0.91" d="M278.35,-299.98C283.85,-286.1 289.95,-270.72 295.67,-256.26"/>
<polygon fill="blue" stroke="blue" stroke-width="0.91" points="299.14,-258.02 299.57,-247.44 292.63,-255.44 299.14,-258.02"/>
<text text-anchor="middle" x="302.62" y="-270.18" font-family="Times New Roman,serif" font-size="9.00">&#45;0.269</text>
</g>
<!-- key 25067
bias 0.441
h_scaling 0.382&#45;&gt;output
bias &#45;0.422
h_scaling 0.030 -->
<g id="edge11" class="edge">
<title>key 25067
bias 0.441
h_scaling 0.382&#45;&gt;output
bias &#45;0.422
h_scaling 0.030</title>
<path fill="none" stroke="red" stroke-width="3.09" d="M117.83,-463.26C144.82,-441.43 181.02,-412.16 210.14,-388.61"/>
<polygon fill="red" stroke="red" stroke-width="3.09" points="212.35,-390.9 217.92,-381.89 207.95,-385.46 212.35,-390.9"/>
<text text-anchor="middle" x="185.12" y="-418.55" font-family="Times New Roman,serif" font-size="9.00">0.998</text>
</g>
<!-- key 25067
bias 0.441
h_scaling 0.382&#45;&gt;key 25067
bias 0.441
h_scaling 0.382 -->
<g id="edge15" class="edge">
<title>key 25067
bias 0.441
h_scaling 0.382&#45;&gt;key 25067
bias 0.441
h_scaling 0.382</title>
<path fill="none" stroke="red" stroke-width="0.79" d="M127.99,-509.26C139.27,-508.09 147.56,-503.55 147.56,-495.66 147.56,-490.47 143.99,-486.74 138.35,-484.45"/>
<polygon fill="red" stroke="red" stroke-width="0.79" points="139.52,-480.9 128.99,-482.05 137.94,-487.72 139.52,-480.9"/>
<text text-anchor="middle" x="157.68" y="-492.73" font-family="Times New Roman,serif" font-size="9.00">0.230</text>
</g>
<!-- key 25067
bias 0.441
h_scaling 0.382&#45;&gt;key 7694
bias 1.000
h_scaling 0.447 -->
<g id="edge5" class="edge">
<title>key 25067
bias 0.441
h_scaling 0.382&#45;&gt;key 7694
bias 1.000
h_scaling 0.447</title>
<path fill="none" stroke="blue" stroke-width="2.23" d="M72.04,-445.32C63.84,-370.41 57.39,-225.46 111,-119.12 115.13,-110.93 120.5,-102.96 126.32,-95.54"/>
<polygon fill="blue" stroke="blue" stroke-width="2.23" points="128.75,-97.7 132.49,-87.78 123.38,-93.21 128.75,-97.7"/>
<text text-anchor="middle" x="82.62" y="-270.18" font-family="Times New Roman,serif" font-size="9.00">&#45;0.709</text>
</g>
<!-- key 7694
bias 1.000
h_scaling 0.447&#45;&gt;output
bias &#45;0.422
h_scaling 0.030 -->
<g id="edge3" class="edge">
<title>key 7694
bias 1.000
h_scaling 0.447&#45;&gt;output
bias &#45;0.422
h_scaling 0.030</title>
<path fill="none" stroke="blue" stroke-width="3.1" d="M185.38,-99.17C200.69,-149.87 224.96,-230.25 241.64,-285.49"/>
<polygon fill="blue" stroke="blue" stroke-width="3.1" points="238.36,-286.05 244.6,-294.61 245.06,-284.02 238.36,-286.05"/>
<text text-anchor="middle" x="242.62" y="-196" font-family="Times New Roman,serif" font-size="9.00">&#45;1.000</text>
</g>
<!-- key 7694
bias 1.000
h_scaling 0.447&#45;&gt;key 25067
bias 0.441
h_scaling 0.382 -->
<g id="edge10" class="edge">
<title>key 7694
bias 1.000
h_scaling 0.447&#45;&gt;key 25067
bias 0.441
h_scaling 0.382</title>
<path fill="none" stroke="blue" stroke-width="3.1" d="M160.87,-100.33C144.07,-181.26 110.45,-343.21 91.94,-432.32"/>
<polygon fill="blue" stroke="blue" stroke-width="3.1" points="87.71,-431.47 89.11,-441.97 94.57,-432.89 87.71,-431.47"/>
<text text-anchor="middle" x="138.62" y="-270.18" font-family="Times New Roman,serif" font-size="9.00">&#45;1.000</text>
</g>
<!-- key 194415
bias &#45;0.491
h_scaling 0.678 -->
<g id="node6" class="node">
<title>key 194415
bias &#45;0.491
h_scaling 0.678</title>
<ellipse fill="white" stroke="black" cx="313" cy="-495.66" rx="50.56" ry="50.56"/>
<text text-anchor="middle" x="313" y="-503.98" font-family="Times New Roman,serif" font-size="9.00">key 194415</text>
<text text-anchor="middle" x="313" y="-492.73" font-family="Times New Roman,serif" font-size="9.00">bias &#45;0.491</text>
<text text-anchor="middle" x="313" y="-481.48" font-family="Times New Roman,serif" font-size="9.00">h_scaling 0.678</text>
</g>
<!-- key 194415
bias &#45;0.491
h_scaling 0.678&#45;&gt;output
bias &#45;0.422
h_scaling 0.030 -->
<g id="edge19" class="edge">
<title>key 194415
bias &#45;0.491
h_scaling 0.678&#45;&gt;output
bias &#45;0.422
h_scaling 0.030</title>
<path fill="none" stroke="red" stroke-width="0.56" d="M295.94,-447.54C290.97,-433.83 285.5,-418.71 280.36,-404.5"/>
<polygon fill="red" stroke="red" stroke-width="0.56" points="283.72,-403.53 277.03,-395.32 277.14,-405.91 283.72,-403.53"/>
<text text-anchor="middle" x="299.12" y="-418.55" font-family="Times New Roman,serif" font-size="9.00">0.154</text>
</g>
<!-- key 2865
bias &#45;0.491
h_scaling 0.827&#45;&gt;key 7694
bias 1.000
h_scaling 0.447 -->
<g id="edge2" class="edge">
<title>key 2865
bias &#45;0.491
h_scaling 0.827&#45;&gt;key 7694
bias 1.000
h_scaling 0.447</title>
<path fill="none" stroke="blue" stroke-width="0.94" d="M387.23,-607.57C410.98,-579.82 438,-538.95 438,-496.66 438,-496.66 438,-496.66 438,-197.92 438,-104.65 311.15,-70.42 232.32,-58.15"/>
<polygon fill="blue" stroke="blue" stroke-width="0.94" points="232.94,-54.56 222.53,-56.57 231.92,-61.48 232.94,-54.56"/>
<text text-anchor="middle" x="449.62" y="-344.37" font-family="Times New Roman,serif" font-size="9.00">&#45;0.279</text>
</g>
<!-- key 2865
bias &#45;0.491
h_scaling 0.827&#45;&gt;key 194415
bias &#45;0.491
h_scaling 0.678 -->
<g id="edge18" class="edge">
<title>key 2865
bias &#45;0.491
h_scaling 0.827&#45;&gt;key 194415
bias &#45;0.491
h_scaling 0.678</title>
<path fill="none" stroke="red" stroke-width="3.09" d="M339.12,-594.69C336.03,-583.08 332.68,-570.51 329.45,-558.38"/>
<polygon fill="red" stroke="red" stroke-width="3.09" points="332.82,-557.7 326.86,-548.94 326.06,-559.5 332.82,-557.7"/>
<text text-anchor="middle" x="344.12" y="-566.92" font-family="Times New Roman,serif" font-size="9.00">0.995</text>
</g>
<!-- key 2865
bias &#45;0.491
h_scaling 0.827&#45;&gt;key 2865
bias &#45;0.491
h_scaling 0.827 -->
<g id="edge14" class="edge">
<title>key 2865
bias &#45;0.491
h_scaling 0.827&#45;&gt;key 2865
bias &#45;0.491
h_scaling 0.827</title>
<path fill="none" stroke="red" stroke-width="2.47" d="M400.99,-657.63C412.27,-656.45 420.56,-651.92 420.56,-644.02 420.56,-639.46 417.79,-636.02 413.27,-633.7"/>
<polygon fill="red" stroke="red" stroke-width="2.47" points="414.56,-629.62 403.99,-630.42 412.75,-636.38 414.56,-629.62"/>
<text text-anchor="middle" x="430.68" y="-641.1" font-family="Times New Roman,serif" font-size="9.00">0.790</text>
</g>
<!-- key 2865
bias &#45;0.491
h_scaling 0.827&#45;&gt;key 31733
bias &#45;0.358
h_scaling 0.249 -->
<g id="edge6" class="edge">
<title>key 2865
bias &#45;0.491
h_scaling 0.827&#45;&gt;key 31733
bias &#45;0.358
h_scaling 0.249</title>
<path fill="none" stroke="red" stroke-width="1.35" d="M364.63,-594.6C368.06,-579.24 371.29,-562.12 373,-546.22 386.24,-422.72 389.12,-386.31 353,-267.48 351.6,-262.86 349.88,-258.18 347.97,-253.56"/>
<polygon fill="red" stroke="red" stroke-width="1.35" points="350.48,-251.61 343.21,-243.91 344.09,-254.47 350.48,-251.61"/>
<text text-anchor="middle" x="393.12" y="-418.55" font-family="Times New Roman,serif" font-size="9.00">0.417</text>
</g>
<!-- key 31733
bias &#45;0.358
h_scaling 0.249&#45;&gt;key 7694
bias 1.000
h_scaling 0.447 -->
<g id="edge7" class="edge">
<title>key 31733
bias &#45;0.358
h_scaling 0.249&#45;&gt;key 7694
bias 1.000
h_scaling 0.447</title>
<path fill="none" stroke="blue" stroke-width="3.01" d="M282.42,-162.49C262.54,-142.7 237.56,-117.83 216.3,-96.66"/>
<polygon fill="blue" stroke="blue" stroke-width="3.01" points="219.07,-94.49 209.51,-89.92 214.13,-99.45 219.07,-94.49"/>
<text text-anchor="middle" x="260.62" y="-121.82" font-family="Times New Roman,serif" font-size="9.00">&#45;0.971</text>
</g>
<!-- key 31733
bias &#45;0.358
h_scaling 0.249&#45;&gt;key 31733
bias &#45;0.358
h_scaling 0.249 -->
<g id="edge9" class="edge">
<title>key 31733
bias &#45;0.358
h_scaling 0.249&#45;&gt;key 31733
bias &#45;0.358
h_scaling 0.249</title>
<path fill="none" stroke="red" stroke-width="1.75" d="M366.99,-212.53C378.27,-211.36 386.56,-206.82 386.56,-198.92 386.56,-194.11 383.48,-190.55 378.52,-188.23"/>
<polygon fill="red" stroke="red" stroke-width="1.75" points="379.54,-184.38 368.99,-185.32 377.83,-191.16 379.54,-184.38"/>
<text text-anchor="middle" x="396.68" y="-196" font-family="Times New Roman,serif" font-size="9.00">0.549</text>
</g>
</g>
</svg>
