<?xml version="1.0" encoding="UTF-8" standalone="no"?>
<!DOCTYPE svg PUBLIC "-//W3C//DTD SVG 1.1//EN"
 "http://www.w3.org/Graphics/SVG/1.1/DTD/svg11.dtd">
<!-- Generated by graphviz version 2.43.0 (0)
 -->
<!-- Title: %3 Pages: 1 -->
<svg width="391pt" height="902pt"
 viewBox="0.00 0.00 391.00 902.40" xmlns="http://www.w3.org/2000/svg" xmlns:xlink="http://www.w3.org/1999/xlink">
<g id="graph0" class="graph" transform="scale(1 1) rotate(0) translate(4 898.4)">
<title>%3</title>
<polygon fill="white" stroke="transparent" points="-4,4 -4,-898.4 387,-898.4 387,4 -4,4"/>
<!-- ready
output 0.000 -->
<g id="node1" class="node">
<title>ready
output 0.000</title>
<polygon fill="yellow" stroke="black" points="216.5,-894.4 139.5,-894.4 139.5,-866.4 216.5,-866.4 216.5,-894.4"/>
<text text-anchor="middle" x="178" y="-883.2" font-family="Times,serif" font-size="9.00">ready</text>
<text text-anchor="middle" x="178" y="-873.2" font-family="Times,serif" font-size="9.00">output 0.000</text>
</g>
<!-- key 833
bias &#45;0.881
h_scaling 0.171
output 0.979 -->
<g id="node4" class="node">
<title>key 833
bias &#45;0.881
h_scaling 0.171
output 0.979</title>
<ellipse fill="white" stroke="black" cx="178" cy="-756.76" rx="63.78" ry="63.78"/>
<text text-anchor="middle" x="178" y="-769.56" font-family="Times,serif" font-size="9.00">key 833</text>
<text text-anchor="middle" x="178" y="-759.56" font-family="Times,serif" font-size="9.00">bias &#45;0.881</text>
<text text-anchor="middle" x="178" y="-749.56" font-family="Times,serif" font-size="9.00">h_scaling 0.171</text>
<text text-anchor="middle" x="178" y="-739.56" font-family="Times,serif" font-size="9.00">output 0.979</text>
</g>
<!-- ready
output 0.000&#45;&gt;key 833
bias &#45;0.881
h_scaling 0.171
output 0.979 -->
<g id="edge15" class="edge">
<title>ready
output 0.000&#45;&gt;key 833
bias &#45;0.881
h_scaling 0.171
output 0.979</title>
<path fill="none" stroke="blue" stroke-width="0.1" d="M178,-866.38C178,-857.3 178,-844.39 178,-830.63"/>
<polygon fill="blue" stroke="blue" stroke-width="0.1" points="181.5,-830.49 178,-820.49 174.5,-830.49 181.5,-830.49"/>
<text text-anchor="middle" x="193.5" y="-841.2" font-family="Times,serif" font-size="9.00">&#45;0.245</text>
</g>
<!-- key 6931
bias &#45;0.214
h_scaling 0.662
output 0.939 -->
<g id="node6" class="node">
<title>key 6931
bias &#45;0.214
h_scaling 0.662
output 0.939</title>
<ellipse fill="white" stroke="black" cx="172" cy="-236.92" rx="63.78" ry="63.78"/>
<text text-anchor="middle" x="172" y="-249.72" font-family="Times,serif" font-size="9.00">key 6931</text>
<text text-anchor="middle" x="172" y="-239.72" font-family="Times,serif" font-size="9.00">bias &#45;0.214</text>
<text text-anchor="middle" x="172" y="-229.72" font-family="Times,serif" font-size="9.00">h_scaling 0.662</text>
<text text-anchor="middle" x="172" y="-219.72" font-family="Times,serif" font-size="9.00">output 0.939</text>
</g>
<!-- ready
output 0.000&#45;&gt;key 6931
bias &#45;0.214
h_scaling 0.662
output 0.939 -->
<g id="edge9" class="edge">
<title>ready
output 0.000&#45;&gt;key 6931
bias &#45;0.214
h_scaling 0.662
output 0.939</title>
<path fill="none" stroke="blue" stroke-width="0.1" d="M216.62,-870.67C267.88,-856.54 352,-823.36 352,-757.76 352,-757.76 352,-757.76 352,-409.2 352,-344.5 290.21,-296.81 239.03,-268.42"/>
<polygon fill="blue" stroke="blue" stroke-width="0.1" points="240.41,-265.18 229.94,-263.51 237.08,-271.34 240.41,-265.18"/>
<text text-anchor="middle" x="367.5" y="-581.28" font-family="Times,serif" font-size="9.00">&#45;0.386</text>
</g>
<!-- key 52218
bias &#45;0.236
h_scaling 0.540
output 0.041 -->
<g id="node7" class="node">
<title>key 52218
bias &#45;0.236
h_scaling 0.540
output 0.041</title>
<ellipse fill="white" stroke="black" cx="118" cy="-63.64" rx="63.78" ry="63.78"/>
<text text-anchor="middle" x="118" y="-76.44" font-family="Times,serif" font-size="9.00">key 52218</text>
<text text-anchor="middle" x="118" y="-66.44" font-family="Times,serif" font-size="9.00">bias &#45;0.236</text>
<text text-anchor="middle" x="118" y="-56.44" font-family="Times,serif" font-size="9.00">h_scaling 0.540</text>
<text text-anchor="middle" x="118" y="-46.44" font-family="Times,serif" font-size="9.00">output 0.041</text>
</g>
<!-- ready
output 0.000&#45;&gt;key 52218
bias &#45;0.236
h_scaling 0.540
output 0.041 -->
<g id="edge11" class="edge">
<title>ready
output 0.000&#45;&gt;key 52218
bias &#45;0.236
h_scaling 0.540
output 0.041</title>
<path fill="none" stroke="red" stroke-width="0.1" d="M139.38,-871.19C87.03,-857.53 0,-824.75 0,-757.76 0,-757.76 0,-757.76 0,-235.92 0,-188.11 31.56,-143.95 62.03,-112.44"/>
<polygon fill="red" stroke="red" stroke-width="0.1" points="64.75,-114.67 69.32,-105.11 59.79,-109.73 64.75,-114.67"/>
<text text-anchor="middle" x="14" y="-494.64" font-family="Times,serif" font-size="9.00">1.120</text>
</g>
<!-- go
output 0.000 -->
<g id="node2" class="node">
<title>go
output 0.000</title>
<polygon fill="green" stroke="black" points="105.5,-597.48 28.5,-597.48 28.5,-569.48 105.5,-569.48 105.5,-597.48"/>
<text text-anchor="middle" x="67" y="-586.28" font-family="Times,serif" font-size="9.00">go</text>
<text text-anchor="middle" x="67" y="-576.28" font-family="Times,serif" font-size="9.00">output 0.000</text>
</g>
<!-- key 4492
bias &#45;0.863
h_scaling 0.414
output 0.606 -->
<g id="node5" class="node">
<title>key 4492
bias &#45;0.863
h_scaling 0.414
output 0.606</title>
<ellipse fill="white" stroke="black" cx="173" cy="-410.2" rx="63.78" ry="63.78"/>
<text text-anchor="middle" x="173" y="-423" font-family="Times,serif" font-size="9.00">key 4492</text>
<text text-anchor="middle" x="173" y="-413" font-family="Times,serif" font-size="9.00">bias &#45;0.863</text>
<text text-anchor="middle" x="173" y="-403" font-family="Times,serif" font-size="9.00">h_scaling 0.414</text>
<text text-anchor="middle" x="173" y="-393" font-family="Times,serif" font-size="9.00">output 0.606</text>
</g>
<!-- go
output 0.000&#45;&gt;key 4492
bias &#45;0.863
h_scaling 0.414
output 0.606 -->
<g id="edge3" class="edge">
<title>go
output 0.000&#45;&gt;key 4492
bias &#45;0.863
h_scaling 0.414
output 0.606</title>
<path fill="none" stroke="red" stroke-width="0.1" d="M70.04,-569.47C74.67,-551.22 84.61,-517.37 100,-491.84 106.02,-481.86 113.38,-472 121.08,-462.79"/>
<polygon fill="red" stroke="red" stroke-width="0.1" points="123.73,-465.07 127.61,-455.22 118.43,-460.5 123.73,-465.07"/>
<text text-anchor="middle" x="114" y="-494.64" font-family="Times,serif" font-size="9.00">0.836</text>
</g>
<!-- go
output 0.000&#45;&gt;key 6931
bias &#45;0.214
h_scaling 0.662
output 0.939 -->
<g id="edge5" class="edge">
<title>go
output 0.000&#45;&gt;key 6931
bias &#45;0.214
h_scaling 0.662
output 0.939</title>
<path fill="none" stroke="red" stroke-width="0.1" d="M64.16,-569.31C56.85,-532.46 40.11,-425.8 72,-346.56 81.34,-323.36 98.08,-302.06 115.23,-284.59"/>
<polygon fill="red" stroke="red" stroke-width="0.1" points="117.92,-286.85 122.59,-277.34 113.01,-281.87 117.92,-286.85"/>
<text text-anchor="middle" x="86" y="-408" font-family="Times,serif" font-size="9.00">0.722</text>
</g>
<!-- output
bias 0.679
h_scaling 0.875
output 0.000 -->
<g id="node3" class="node">
<title>output
bias 0.679
h_scaling 0.875
output 0.000</title>
<ellipse fill="lightblue" stroke="black" cx="252" cy="-583.48" rx="63.78" ry="63.78"/>
<text text-anchor="middle" x="252" y="-596.28" font-family="Times,serif" font-size="9.00">output</text>
<text text-anchor="middle" x="252" y="-586.28" font-family="Times,serif" font-size="9.00">bias 0.679</text>
<text text-anchor="middle" x="252" y="-576.28" font-family="Times,serif" font-size="9.00">h_scaling 0.875</text>
<text text-anchor="middle" x="252" y="-566.28" font-family="Times,serif" font-size="9.00">output 0.000</text>
</g>
<!-- output
bias 0.679
h_scaling 0.875
output 0.000&#45;&gt;key 4492
bias &#45;0.863
h_scaling 0.414
output 0.606 -->
<g id="edge13" class="edge">
<title>output
bias 0.679
h_scaling 0.875
output 0.000&#45;&gt;key 4492
bias &#45;0.863
h_scaling 0.414
output 0.606</title>
<path fill="none" stroke="red" stroke-width="0.1" d="M225.69,-525.44C218.6,-510.07 210.87,-493.3 203.57,-477.47"/>
<polygon fill="red" stroke="red" stroke-width="0.1" points="206.69,-475.89 199.33,-468.27 200.34,-478.82 206.69,-475.89"/>
<text text-anchor="middle" x="227" y="-494.64" font-family="Times,serif" font-size="9.00">0.326</text>
</g>
<!-- key 833
bias &#45;0.881
h_scaling 0.171
output 0.979&#45;&gt;output
bias 0.679
h_scaling 0.875
output 0.000 -->
<g id="edge2" class="edge">
<title>key 833
bias &#45;0.881
h_scaling 0.171
output 0.979&#45;&gt;output
bias 0.679
h_scaling 0.875
output 0.000</title>
<path fill="none" stroke="blue" stroke-width="0.1" d="M203.05,-697.77C209.48,-682.9 216.44,-666.79 223.04,-651.5"/>
<polygon fill="blue" stroke="blue" stroke-width="0.1" points="226.35,-652.68 227.1,-642.11 219.92,-649.91 226.35,-652.68"/>
<text text-anchor="middle" x="230.5" y="-667.92" font-family="Times,serif" font-size="9.00">&#45;0.973</text>
</g>
<!-- key 833
bias &#45;0.881
h_scaling 0.171
output 0.979&#45;&gt;key 833
bias &#45;0.881
h_scaling 0.171
output 0.979 -->
<g id="edge1" class="edge">
<title>key 833
bias &#45;0.881
h_scaling 0.171
output 0.979&#45;&gt;key 833
bias &#45;0.881
h_scaling 0.171
output 0.979</title>
<path fill="none" stroke="red" stroke-width="0.1" d="M239.94,-772.05C251.5,-770.17 259.64,-765.07 259.64,-756.76 259.64,-751.04 255.79,-746.84 249.63,-744.17"/>
<polygon fill="red" stroke="red" stroke-width="0.1" points="250.52,-740.78 239.94,-741.46 248.63,-747.52 250.52,-740.78"/>
<text text-anchor="middle" x="273.64" y="-754.56" font-family="Times,serif" font-size="9.00">0.982</text>
</g>
<!-- key 4492
bias &#45;0.863
h_scaling 0.414
output 0.606&#45;&gt;output
bias 0.679
h_scaling 0.875
output 0.000 -->
<g id="edge8" class="edge">
<title>key 4492
bias &#45;0.863
h_scaling 0.414
output 0.606&#45;&gt;output
bias 0.679
h_scaling 0.875
output 0.000</title>
<path fill="none" stroke="blue" stroke-width="0.1" d="M170.02,-473.91C171.19,-483.51 173.35,-493.12 177,-501.84 181.78,-513.25 188.93,-524.04 196.96,-533.8"/>
<polygon fill="blue" stroke="blue" stroke-width="0.1" points="194.35,-536.14 203.55,-541.4 199.64,-531.55 194.35,-536.14"/>
<text text-anchor="middle" x="192.5" y="-494.64" font-family="Times,serif" font-size="9.00">&#45;0.941</text>
</g>
<!-- key 4492
bias &#45;0.863
h_scaling 0.414
output 0.606&#45;&gt;key 833
bias &#45;0.881
h_scaling 0.171
output 0.979 -->
<g id="edge4" class="edge">
<title>key 4492
bias &#45;0.863
h_scaling 0.414
output 0.606&#45;&gt;key 833
bias &#45;0.881
h_scaling 0.171
output 0.979</title>
<path fill="none" stroke="red" stroke-width="0.1" d="M158.39,-472.35C155.33,-487.76 152.55,-504.33 151,-519.84 145.36,-576.12 144.13,-590.97 151,-647.12 152.54,-659.67 155.04,-672.87 157.91,-685.57"/>
<polygon fill="red" stroke="red" stroke-width="0.1" points="154.58,-686.7 160.29,-695.62 161.4,-685.09 154.58,-686.7"/>
<text text-anchor="middle" x="165" y="-581.28" font-family="Times,serif" font-size="9.00">0.959</text>
</g>
<!-- key 4492
bias &#45;0.863
h_scaling 0.414
output 0.606&#45;&gt;key 6931
bias &#45;0.214
h_scaling 0.662
output 0.939 -->
<g id="edge7" class="edge">
<title>key 4492
bias &#45;0.863
h_scaling 0.414
output 0.606&#45;&gt;key 6931
bias &#45;0.214
h_scaling 0.662
output 0.939</title>
<path fill="none" stroke="red" stroke-width="0.1" d="M176.02,-346.3C176.2,-337 176.22,-327.53 176,-318.56 175.94,-316.04 175.86,-313.49 175.78,-310.91"/>
<polygon fill="red" stroke="red" stroke-width="0.1" points="179.28,-310.73 175.42,-300.86 172.28,-310.98 179.28,-310.73"/>
<text text-anchor="middle" x="191" y="-321.36" font-family="Times,serif" font-size="9.00">1.074</text>
</g>
<!-- key 6931
bias &#45;0.214
h_scaling 0.662
output 0.939&#45;&gt;output
bias 0.679
h_scaling 0.875
output 0.000 -->
<g id="edge10" class="edge">
<title>key 6931
bias &#45;0.214
h_scaling 0.662
output 0.939&#45;&gt;output
bias 0.679
h_scaling 0.875
output 0.000</title>
<path fill="none" stroke="blue" stroke-width="0.1" d="M213.15,-285.58C226.18,-303.51 239,-324.84 246,-346.56 263.03,-399.42 263.71,-462.45 260.58,-510.05"/>
<polygon fill="blue" stroke="blue" stroke-width="0.1" points="257.07,-510.04 259.83,-520.27 264.05,-510.55 257.07,-510.04"/>
<text text-anchor="middle" x="277.5" y="-408" font-family="Times,serif" font-size="9.00">&#45;0.947</text>
</g>
<!-- key 6931
bias &#45;0.214
h_scaling 0.662
output 0.939&#45;&gt;key 4492
bias &#45;0.863
h_scaling 0.414
output 0.606 -->
<g id="edge6" class="edge">
<title>key 6931
bias &#45;0.214
h_scaling 0.662
output 0.939&#45;&gt;key 4492
bias &#45;0.863
h_scaling 0.414
output 0.606</title>
<path fill="none" stroke="red" stroke-width="0.1" d="M149.21,-296.53C147.18,-307.1 146.42,-318.1 148,-328.56 148.56,-332.25 149.26,-336.01 150.06,-339.79"/>
<polygon fill="red" stroke="red" stroke-width="0.1" points="146.71,-340.84 152.39,-349.78 153.52,-339.24 146.71,-340.84"/>
<text text-anchor="middle" x="162" y="-321.36" font-family="Times,serif" font-size="9.00">1.070</text>
</g>
<!-- key 6931
bias &#45;0.214
h_scaling 0.662
output 0.939&#45;&gt;key 52218
bias &#45;0.236
h_scaling 0.540
output 0.041 -->
<g id="edge14" class="edge">
<title>key 6931
bias &#45;0.214
h_scaling 0.662
output 0.939&#45;&gt;key 52218
bias &#45;0.236
h_scaling 0.540
output 0.041</title>
<path fill="none" stroke="blue" stroke-width="0.1" d="M130.92,-187.74C124.37,-177.61 118.58,-166.55 115,-155.28 113.12,-149.37 111.89,-143.14 111.16,-136.81"/>
<polygon fill="blue" stroke="blue" stroke-width="0.1" points="114.65,-136.54 110.39,-126.84 107.67,-137.08 114.65,-136.54"/>
<text text-anchor="middle" x="130.5" y="-148.08" font-family="Times,serif" font-size="9.00">&#45;0.413</text>
</g>
<!-- key 52218
bias &#45;0.236
h_scaling 0.540
output 0.041&#45;&gt;key 6931
bias &#45;0.214
h_scaling 0.662
output 0.939 -->
<g id="edge12" class="edge">
<title>key 52218
bias &#45;0.236
h_scaling 0.540
output 0.041&#45;&gt;key 6931
bias &#45;0.214
h_scaling 0.662
output 0.939</title>
<path fill="none" stroke="blue" stroke-width="0.1" d="M142.22,-122.87C145,-130.35 147.67,-137.96 150,-145.28 152.01,-151.6 153.94,-158.23 155.77,-164.89"/>
<polygon fill="blue" stroke="blue" stroke-width="0.1" points="152.41,-165.89 158.36,-174.65 159.18,-164.09 152.41,-165.89"/>
<text text-anchor="middle" x="168.5" y="-148.08" font-family="Times,serif" font-size="9.00">&#45;0.493</text>
</g>
</g>
</svg>
