<?xml version="1.0" encoding="UTF-8" standalone="no"?>
<!DOCTYPE svg PUBLIC "-//W3C//DTD SVG 1.1//EN"
 "http://www.w3.org/Graphics/SVG/1.1/DTD/svg11.dtd">
<!-- Generated by graphviz version 2.43.0 (0)
 -->
<!-- Title: %3 Pages: 1 -->
<svg width="389pt" height="827pt"
 viewBox="0.00 0.00 389.13 827.40" xmlns="http://www.w3.org/2000/svg" xmlns:xlink="http://www.w3.org/1999/xlink">
<g id="graph0" class="graph" transform="scale(1 1) rotate(0) translate(4 823.4)">
<title>%3</title>
<polygon fill="white" stroke="transparent" points="-4,4 -4,-823.4 385.13,-823.4 385.13,4 -4,4"/>
<!-- ready -->
<g id="node1" class="node">
<title>ready</title>
<polygon fill="yellow" stroke="black" points="164.14,-819.4 121.14,-819.4 121.14,-801.4 164.14,-801.4 164.14,-819.4"/>
<text text-anchor="middle" x="142.64" y="-808.2" font-family="Times,serif" font-size="9.00">ready</text>
</g>
<!-- key 7339
bias &#45;0.762
h_scaling 0.000 -->
<g id="node4" class="node">
<title>key 7339
bias &#45;0.762
h_scaling 0.000</title>
<ellipse fill="white" stroke="black" cx="266.64" cy="-691.76" rx="63.78" ry="63.78"/>
<text text-anchor="middle" x="266.64" y="-699.56" font-family="Times,serif" font-size="9.00">key 7339</text>
<text text-anchor="middle" x="266.64" y="-689.56" font-family="Times,serif" font-size="9.00">bias &#45;0.762</text>
<text text-anchor="middle" x="266.64" y="-679.56" font-family="Times,serif" font-size="9.00">h_scaling 0.000</text>
</g>
<!-- ready&#45;&gt;key 7339
bias &#45;0.762
h_scaling 0.000 -->
<g id="edge10" class="edge">
<title>ready&#45;&gt;key 7339
bias &#45;0.762
h_scaling 0.000</title>
<path fill="none" stroke="blue" stroke-width="0.1" d="M151.16,-801.38C164.06,-789.25 189.54,-765.28 213.29,-742.94"/>
<polygon fill="blue" stroke="blue" stroke-width="0.1" points="215.71,-745.47 220.59,-736.07 210.91,-740.37 215.71,-745.47"/>
</g>
<!-- key 119115
bias &#45;1.000
h_scaling 0.783 -->
<g id="node5" class="node">
<title>key 119115
bias &#45;1.000
h_scaling 0.783</title>
<ellipse fill="white" stroke="black" cx="63.64" cy="-546.48" rx="63.78" ry="63.78"/>
<text text-anchor="middle" x="63.64" y="-554.28" font-family="Times,serif" font-size="9.00">key 119115</text>
<text text-anchor="middle" x="63.64" y="-544.28" font-family="Times,serif" font-size="9.00">bias &#45;1.000</text>
<text text-anchor="middle" x="63.64" y="-534.28" font-family="Times,serif" font-size="9.00">h_scaling 0.783</text>
</g>
<!-- ready&#45;&gt;key 119115
bias &#45;1.000
h_scaling 0.783 -->
<g id="edge12" class="edge">
<title>ready&#45;&gt;key 119115
bias &#45;1.000
h_scaling 0.783</title>
<path fill="none" stroke="red" stroke-width="1.14" d="M122.33,-801.34C114.34,-797.16 105.86,-791.26 100.64,-783.4 68.78,-735.41 60.61,-670.02 59.79,-620.26"/>
<polygon fill="red" stroke="red" stroke-width="1.14" points="63.29,-620.18 59.72,-610.21 56.29,-620.23 63.29,-620.18"/>
<text text-anchor="middle" x="114.64" y="-776.2" font-family="Times,serif" font-size="9.00">0.035</text>
</g>
<!-- key 17581
bias &#45;0.410
h_scaling 0.286 -->
<g id="node7" class="node">
<title>key 17581
bias &#45;0.410
h_scaling 0.286</title>
<ellipse fill="white" stroke="black" cx="170.64" cy="-227.92" rx="63.78" ry="63.78"/>
<text text-anchor="middle" x="170.64" y="-235.72" font-family="Times,serif" font-size="9.00">key 17581</text>
<text text-anchor="middle" x="170.64" y="-225.72" font-family="Times,serif" font-size="9.00">bias &#45;0.410</text>
<text text-anchor="middle" x="170.64" y="-215.72" font-family="Times,serif" font-size="9.00">h_scaling 0.286</text>
</g>
<!-- ready&#45;&gt;key 17581
bias &#45;0.410
h_scaling 0.286 -->
<g id="edge8" class="edge">
<title>ready&#45;&gt;key 17581
bias &#45;0.410
h_scaling 0.286</title>
<path fill="none" stroke="blue" stroke-width="0.1" d="M143.04,-801.19C145.63,-747.48 160.27,-443.93 167.11,-302.03"/>
<polygon fill="blue" stroke="blue" stroke-width="0.1" points="170.63,-301.85 167.61,-291.69 163.63,-301.51 170.63,-301.85"/>
</g>
<!-- go -->
<g id="node2" class="node">
<title>go</title>
<polygon fill="green" stroke="black" points="280.64,-819.4 252.64,-819.4 252.64,-801.4 280.64,-801.4 280.64,-819.4"/>
<text text-anchor="middle" x="266.64" y="-808.2" font-family="Times,serif" font-size="9.00">go</text>
</g>
<!-- go&#45;&gt;key 7339
bias &#45;0.762
h_scaling 0.000 -->
<g id="edge2" class="edge">
<title>go&#45;&gt;key 7339
bias &#45;0.762
h_scaling 0.000</title>
<path fill="none" stroke="red" stroke-width="0.64" d="M266.64,-801.38C266.64,-793.35 266.64,-780.13 266.64,-765.63"/>
<polygon fill="red" stroke="red" stroke-width="0.64" points="270.14,-765.43 266.64,-755.43 263.14,-765.43 270.14,-765.43"/>
<text text-anchor="middle" x="280.64" y="-776.2" font-family="Times,serif" font-size="9.00">0.018</text>
</g>
<!-- output
bias &#45;0.106
h_scaling 0.911 -->
<g id="node3" class="node">
<title>output
bias &#45;0.106
h_scaling 0.911</title>
<ellipse fill="lightblue" stroke="black" cx="316.64" cy="-63.64" rx="63.78" ry="63.78"/>
<text text-anchor="middle" x="316.64" y="-71.44" font-family="Times,serif" font-size="9.00">output</text>
<text text-anchor="middle" x="316.64" y="-61.44" font-family="Times,serif" font-size="9.00">bias &#45;0.106</text>
<text text-anchor="middle" x="316.64" y="-51.44" font-family="Times,serif" font-size="9.00">h_scaling 0.911</text>
</g>
<!-- key 7339
bias &#45;0.762
h_scaling 0.000&#45;&gt;output
bias &#45;0.106
h_scaling 0.911 -->
<g id="edge3" class="edge">
<title>key 7339
bias &#45;0.762
h_scaling 0.000&#45;&gt;output
bias &#45;0.106
h_scaling 0.911</title>
<path fill="none" stroke="blue" stroke-width="0.1" d="M299.82,-636.98C325.11,-592.64 357.87,-527.13 371.64,-464.84 397,-350.08 365.59,-214.07 340.87,-133.81"/>
<polygon fill="blue" stroke="blue" stroke-width="0.1" points="344.07,-132.32 337.74,-123.83 337.39,-134.41 344.07,-132.32"/>
</g>
<!-- key 7339
bias &#45;0.762
h_scaling 0.000&#45;&gt;key 7339
bias &#45;0.762
h_scaling 0.000 -->
<g id="edge5" class="edge">
<title>key 7339
bias &#45;0.762
h_scaling 0.000&#45;&gt;key 7339
bias &#45;0.762
h_scaling 0.000</title>
<path fill="none" stroke="red" stroke-width="1.63" d="M328.58,-707.05C340.14,-705.17 348.28,-700.07 348.28,-691.76 348.28,-686.04 344.43,-681.84 338.27,-679.17"/>
<polygon fill="red" stroke="red" stroke-width="1.63" points="339.16,-675.78 328.58,-676.46 337.27,-682.52 339.16,-675.78"/>
<text text-anchor="middle" x="362.28" y="-689.56" font-family="Times,serif" font-size="9.00">0.051</text>
</g>
<!-- key 3085
bias 0.453
h_scaling 0.593 -->
<g id="node6" class="node">
<title>key 3085
bias 0.453
h_scaling 0.593</title>
<ellipse fill="white" stroke="black" cx="298.64" cy="-401.2" rx="63.78" ry="63.78"/>
<text text-anchor="middle" x="298.64" y="-409" font-family="Times,serif" font-size="9.00">key 3085</text>
<text text-anchor="middle" x="298.64" y="-399" font-family="Times,serif" font-size="9.00">bias 0.453</text>
<text text-anchor="middle" x="298.64" y="-389" font-family="Times,serif" font-size="9.00">h_scaling 0.593</text>
</g>
<!-- key 7339
bias &#45;0.762
h_scaling 0.000&#45;&gt;key 3085
bias 0.453
h_scaling 0.593 -->
<g id="edge4" class="edge">
<title>key 7339
bias &#45;0.762
h_scaling 0.000&#45;&gt;key 3085
bias 0.453
h_scaling 0.593</title>
<path fill="none" stroke="blue" stroke-width="0.1" d="M273.58,-628.14C278.58,-583.05 285.34,-522.09 290.58,-474.85"/>
<polygon fill="blue" stroke="blue" stroke-width="0.1" points="294.09,-475.01 291.71,-464.69 287.13,-474.24 294.09,-475.01"/>
</g>
<!-- key 119115
bias &#45;1.000
h_scaling 0.783&#45;&gt;key 17581
bias &#45;0.410
h_scaling 0.286 -->
<g id="edge13" class="edge">
<title>key 119115
bias &#45;1.000
h_scaling 0.783&#45;&gt;key 17581
bias &#45;0.410
h_scaling 0.286</title>
<path fill="none" stroke="blue" stroke-width="0.1" d="M76.88,-483.71C88.12,-435.43 106.03,-367.09 128.64,-309.56 130.75,-304.19 133.11,-298.72 135.61,-293.27"/>
<polygon fill="blue" stroke="blue" stroke-width="0.1" points="138.81,-294.7 139.93,-284.17 132.48,-291.7 138.81,-294.7"/>
</g>
<!-- key 3085
bias 0.453
h_scaling 0.593&#45;&gt;output
bias &#45;0.106
h_scaling 0.911 -->
<g id="edge1" class="edge">
<title>key 3085
bias 0.453
h_scaling 0.593&#45;&gt;output
bias &#45;0.106
h_scaling 0.911</title>
<path fill="none" stroke="red" stroke-width="0.82" d="M302,-337.48C305.05,-280.72 309.53,-197.13 312.73,-137.45"/>
<polygon fill="red" stroke="red" stroke-width="0.82" points="316.24,-137.51 313.28,-127.34 309.25,-137.14 316.24,-137.51"/>
<text text-anchor="middle" x="325.64" y="-225.72" font-family="Times,serif" font-size="9.00">0.024</text>
</g>
<!-- key 3085
bias 0.453
h_scaling 0.593&#45;&gt;key 17581
bias &#45;0.410
h_scaling 0.286 -->
<g id="edge6" class="edge">
<title>key 3085
bias 0.453
h_scaling 0.593&#45;&gt;key 17581
bias &#45;0.410
h_scaling 0.286</title>
<path fill="none" stroke="red" stroke-width="0.6" d="M260.93,-349.74C246.34,-330.22 229.56,-307.76 214.44,-287.53"/>
<polygon fill="red" stroke="red" stroke-width="0.6" points="217.09,-285.23 208.3,-279.32 211.49,-289.42 217.09,-285.23"/>
<text text-anchor="middle" x="248.64" y="-312.36" font-family="Times,serif" font-size="9.00">0.017</text>
</g>
<!-- key 17581
bias &#45;0.410
h_scaling 0.286&#45;&gt;output
bias &#45;0.106
h_scaling 0.911 -->
<g id="edge11" class="edge">
<title>key 17581
bias &#45;0.410
h_scaling 0.286&#45;&gt;output
bias &#45;0.106
h_scaling 0.911</title>
<path fill="none" stroke="blue" stroke-width="0.1" d="M212.87,-179.98C230.04,-160.89 250,-138.71 267.8,-118.92"/>
<polygon fill="blue" stroke="blue" stroke-width="0.1" points="270.42,-121.25 274.51,-111.47 265.21,-116.57 270.42,-121.25"/>
</g>
<!-- key 17581
bias &#45;0.410
h_scaling 0.286&#45;&gt;key 7339
bias &#45;0.762
h_scaling 0.000 -->
<g id="edge7" class="edge">
<title>key 17581
bias &#45;0.410
h_scaling 0.286&#45;&gt;key 7339
bias &#45;0.762
h_scaling 0.000</title>
<path fill="none" stroke="red" stroke-width="0.83" d="M174.68,-291.5C178.51,-339.34 185.54,-406.72 197.64,-464.84 208.81,-518.51 227.13,-577.74 242.09,-622.08"/>
<polygon fill="red" stroke="red" stroke-width="0.83" points="238.79,-623.25 245.32,-631.59 245.42,-621 238.79,-623.25"/>
<text text-anchor="middle" x="211.64" y="-399" font-family="Times,serif" font-size="9.00">0.024</text>
</g>
<!-- key 17581
bias &#45;0.410
h_scaling 0.286&#45;&gt;key 17581
bias &#45;0.410
h_scaling 0.286 -->
<g id="edge9" class="edge">
<title>key 17581
bias &#45;0.410
h_scaling 0.286&#45;&gt;key 17581
bias &#45;0.410
h_scaling 0.286</title>
<path fill="none" stroke="red" stroke-width="0.73" d="M232.93,-242.45C244.3,-240.61 252.28,-235.77 252.28,-227.92 252.28,-222.65 248.68,-218.73 242.87,-216.17"/>
<polygon fill="red" stroke="red" stroke-width="0.73" points="243.5,-212.71 232.93,-213.39 241.62,-219.45 243.5,-212.71"/>
<text text-anchor="middle" x="266.28" y="-225.72" font-family="Times,serif" font-size="9.00">0.021</text>
</g>
</g>
</svg>
