<?xml version="1.0" encoding="UTF-8" standalone="no"?>
<!DOCTYPE svg PUBLIC "-//W3C//DTD SVG 1.1//EN"
 "http://www.w3.org/Graphics/SVG/1.1/DTD/svg11.dtd">
<!-- Generated by graphviz version 2.43.0 (0)
 -->
<!-- Title: %3 Pages: 1 -->
<svg width="421pt" height="836pt"
 viewBox="0.00 0.00 420.64 836.40" xmlns="http://www.w3.org/2000/svg" xmlns:xlink="http://www.w3.org/1999/xlink">
<g id="graph0" class="graph" transform="scale(1 1) rotate(0) translate(4 832.4)">
<title>%3</title>
<polygon fill="white" stroke="transparent" points="-4,4 -4,-832.4 416.64,-832.4 416.64,4 -4,4"/>
<!-- ready -->
<g id="node1" class="node">
<title>ready</title>
<polygon fill="yellow" stroke="black" points="172.14,-828.4 129.14,-828.4 129.14,-810.4 172.14,-810.4 172.14,-828.4"/>
<text text-anchor="middle" x="150.64" y="-817.2" font-family="Times,serif" font-size="9.00">ready</text>
</g>
<!-- key 7339
bias &#45;0.762
h_scaling 0.000 -->
<g id="node4" class="node">
<title>key 7339
bias &#45;0.762
h_scaling 0.000</title>
<ellipse fill="white" stroke="black" cx="274.64" cy="-700.76" rx="63.78" ry="63.78"/>
<text text-anchor="middle" x="274.64" y="-708.56" font-family="Times,serif" font-size="9.00">key 7339</text>
<text text-anchor="middle" x="274.64" y="-698.56" font-family="Times,serif" font-size="9.00">bias &#45;0.762</text>
<text text-anchor="middle" x="274.64" y="-688.56" font-family="Times,serif" font-size="9.00">h_scaling 0.000</text>
</g>
<!-- ready&#45;&gt;key 7339
bias &#45;0.762
h_scaling 0.000 -->
<g id="edge10" class="edge">
<title>ready&#45;&gt;key 7339
bias &#45;0.762
h_scaling 0.000</title>
<path fill="none" stroke="blue" stroke-width="0.76" d="M159.16,-810.38C172.06,-798.25 197.54,-774.28 221.29,-751.94"/>
<polygon fill="blue" stroke="blue" stroke-width="0.76" points="223.71,-754.47 228.59,-745.07 218.91,-749.37 223.71,-754.47"/>
<text text-anchor="middle" x="203.14" y="-785.2" font-family="Times,serif" font-size="9.00">&#45;0.219</text>
</g>
<!-- key 119115
bias &#45;1.000
h_scaling 0.783 -->
<g id="node5" class="node">
<title>key 119115
bias &#45;1.000
h_scaling 0.783</title>
<ellipse fill="white" stroke="black" cx="63.64" cy="-555.48" rx="63.78" ry="63.78"/>
<text text-anchor="middle" x="63.64" y="-563.28" font-family="Times,serif" font-size="9.00">key 119115</text>
<text text-anchor="middle" x="63.64" y="-553.28" font-family="Times,serif" font-size="9.00">bias &#45;1.000</text>
<text text-anchor="middle" x="63.64" y="-543.28" font-family="Times,serif" font-size="9.00">h_scaling 0.783</text>
</g>
<!-- ready&#45;&gt;key 119115
bias &#45;1.000
h_scaling 0.783 -->
<g id="edge12" class="edge">
<title>ready&#45;&gt;key 119115
bias &#45;1.000
h_scaling 0.783</title>
<path fill="none" stroke="red" stroke-width="3.1" d="M130.46,-810.26C122.49,-806.06 113.99,-800.17 108.64,-792.4 75.81,-744.67 65.36,-679.26 62.67,-629.42"/>
<polygon fill="red" stroke="red" stroke-width="3.1" points="66.16,-629.19 62.22,-619.35 59.17,-629.5 66.16,-629.19"/>
<text text-anchor="middle" x="122.64" y="-785.2" font-family="Times,serif" font-size="9.00">1.000</text>
</g>
<!-- key 17581
bias &#45;0.410
h_scaling 0.286 -->
<g id="node7" class="node">
<title>key 17581
bias &#45;0.410
h_scaling 0.286</title>
<ellipse fill="white" stroke="black" cx="178.64" cy="-236.92" rx="63.78" ry="63.78"/>
<text text-anchor="middle" x="178.64" y="-244.72" font-family="Times,serif" font-size="9.00">key 17581</text>
<text text-anchor="middle" x="178.64" y="-234.72" font-family="Times,serif" font-size="9.00">bias &#45;0.410</text>
<text text-anchor="middle" x="178.64" y="-224.72" font-family="Times,serif" font-size="9.00">h_scaling 0.286</text>
</g>
<!-- ready&#45;&gt;key 17581
bias &#45;0.410
h_scaling 0.286 -->
<g id="edge8" class="edge">
<title>ready&#45;&gt;key 17581
bias &#45;0.410
h_scaling 0.286</title>
<path fill="none" stroke="blue" stroke-width="1.13" d="M151.04,-810.19C153.63,-756.48 168.27,-452.93 175.11,-311.03"/>
<polygon fill="blue" stroke="blue" stroke-width="1.13" points="178.63,-310.85 175.61,-300.69 171.63,-310.51 178.63,-310.85"/>
<text text-anchor="middle" x="182.14" y="-553.28" font-family="Times,serif" font-size="9.00">&#45;0.342</text>
</g>
<!-- go -->
<g id="node2" class="node">
<title>go</title>
<polygon fill="green" stroke="black" points="288.64,-828.4 260.64,-828.4 260.64,-810.4 288.64,-810.4 288.64,-828.4"/>
<text text-anchor="middle" x="274.64" y="-817.2" font-family="Times,serif" font-size="9.00">go</text>
</g>
<!-- go&#45;&gt;key 7339
bias &#45;0.762
h_scaling 0.000 -->
<g id="edge2" class="edge">
<title>go&#45;&gt;key 7339
bias &#45;0.762
h_scaling 0.000</title>
<path fill="none" stroke="red" stroke-width="3.1" d="M274.64,-810.38C274.64,-802.35 274.64,-789.13 274.64,-774.63"/>
<polygon fill="red" stroke="red" stroke-width="3.1" points="278.14,-774.43 274.64,-764.43 271.14,-774.43 278.14,-774.43"/>
<text text-anchor="middle" x="288.64" y="-785.2" font-family="Times,serif" font-size="9.00">1.000</text>
</g>
<!-- output
bias &#45;0.106
h_scaling 0.911 -->
<g id="node3" class="node">
<title>output
bias &#45;0.106
h_scaling 0.911</title>
<ellipse fill="lightblue" stroke="black" cx="324.64" cy="-63.64" rx="63.78" ry="63.78"/>
<text text-anchor="middle" x="324.64" y="-71.44" font-family="Times,serif" font-size="9.00">output</text>
<text text-anchor="middle" x="324.64" y="-61.44" font-family="Times,serif" font-size="9.00">bias &#45;0.106</text>
<text text-anchor="middle" x="324.64" y="-51.44" font-family="Times,serif" font-size="9.00">h_scaling 0.911</text>
</g>
<!-- key 7339
bias &#45;0.762
h_scaling 0.000&#45;&gt;output
bias &#45;0.106
h_scaling 0.911 -->
<g id="edge3" class="edge">
<title>key 7339
bias &#45;0.762
h_scaling 0.000&#45;&gt;output
bias &#45;0.106
h_scaling 0.911</title>
<path fill="none" stroke="blue" stroke-width="3.1" d="M313.97,-650.09C320.77,-640.18 327.35,-629.58 332.64,-619.12 363.27,-558.56 369.07,-540.87 379.64,-473.84 398.39,-354.94 368.88,-215.96 346.35,-134.4"/>
<polygon fill="blue" stroke="blue" stroke-width="3.1" points="349.71,-133.42 343.64,-124.74 342.97,-135.32 349.71,-133.42"/>
<text text-anchor="middle" x="397.14" y="-321.36" font-family="Times,serif" font-size="9.00">&#45;1.000</text>
</g>
<!-- key 7339
bias &#45;0.762
h_scaling 0.000&#45;&gt;key 7339
bias &#45;0.762
h_scaling 0.000 -->
<g id="edge5" class="edge">
<title>key 7339
bias &#45;0.762
h_scaling 0.000&#45;&gt;key 7339
bias &#45;0.762
h_scaling 0.000</title>
<path fill="none" stroke="red" stroke-width="3.1" d="M336.58,-716.05C348.14,-714.17 356.28,-709.07 356.28,-700.76 356.28,-695.04 352.43,-690.84 346.27,-688.17"/>
<polygon fill="red" stroke="red" stroke-width="3.1" points="347.16,-684.78 336.58,-685.46 345.27,-691.52 347.16,-684.78"/>
<text text-anchor="middle" x="370.28" y="-698.56" font-family="Times,serif" font-size="9.00">1.000</text>
</g>
<!-- key 3085
bias 0.453
h_scaling 0.593 -->
<g id="node6" class="node">
<title>key 3085
bias 0.453
h_scaling 0.593</title>
<ellipse fill="white" stroke="black" cx="306.64" cy="-410.2" rx="63.78" ry="63.78"/>
<text text-anchor="middle" x="306.64" y="-418" font-family="Times,serif" font-size="9.00">key 3085</text>
<text text-anchor="middle" x="306.64" y="-408" font-family="Times,serif" font-size="9.00">bias 0.453</text>
<text text-anchor="middle" x="306.64" y="-398" font-family="Times,serif" font-size="9.00">h_scaling 0.593</text>
</g>
<!-- key 7339
bias &#45;0.762
h_scaling 0.000&#45;&gt;key 3085
bias 0.453
h_scaling 0.593 -->
<g id="edge4" class="edge">
<title>key 7339
bias &#45;0.762
h_scaling 0.000&#45;&gt;key 3085
bias 0.453
h_scaling 0.593</title>
<path fill="none" stroke="blue" stroke-width="3.1" d="M281.58,-637.14C286.58,-592.05 293.34,-531.09 298.58,-483.85"/>
<polygon fill="blue" stroke="blue" stroke-width="3.1" points="302.09,-484.01 299.71,-473.69 295.13,-483.24 302.09,-484.01"/>
<text text-anchor="middle" x="313.14" y="-553.28" font-family="Times,serif" font-size="9.00">&#45;1.000</text>
</g>
<!-- key 119115
bias &#45;1.000
h_scaling 0.783&#45;&gt;key 17581
bias &#45;0.410
h_scaling 0.286 -->
<g id="edge13" class="edge">
<title>key 119115
bias &#45;1.000
h_scaling 0.783&#45;&gt;key 17581
bias &#45;0.410
h_scaling 0.286</title>
<path fill="none" stroke="blue" stroke-width="1.79" d="M69.77,-492.11C75.46,-449.8 86.13,-393.29 105.64,-346.56 112.92,-329.13 123.16,-311.57 133.68,-295.8"/>
<polygon fill="blue" stroke="blue" stroke-width="1.79" points="136.78,-297.46 139.54,-287.23 131,-293.51 136.78,-297.46"/>
<text text-anchor="middle" x="121.14" y="-408" font-family="Times,serif" font-size="9.00">&#45;0.562</text>
</g>
<!-- key 3085
bias 0.453
h_scaling 0.593&#45;&gt;output
bias &#45;0.106
h_scaling 0.911 -->
<g id="edge1" class="edge">
<title>key 3085
bias 0.453
h_scaling 0.593&#45;&gt;output
bias &#45;0.106
h_scaling 0.911</title>
<path fill="none" stroke="red" stroke-width="3.1" d="M309.92,-346.4C313,-287.47 317.6,-199.36 320.84,-137.39"/>
<polygon fill="red" stroke="red" stroke-width="3.1" points="324.34,-137.46 321.37,-127.3 317.35,-137.1 324.34,-137.46"/>
<text text-anchor="middle" x="333.64" y="-234.72" font-family="Times,serif" font-size="9.00">1.000</text>
</g>
<!-- key 3085
bias 0.453
h_scaling 0.593&#45;&gt;key 17581
bias &#45;0.410
h_scaling 0.286 -->
<g id="edge6" class="edge">
<title>key 3085
bias 0.453
h_scaling 0.593&#45;&gt;key 17581
bias &#45;0.410
h_scaling 0.286</title>
<path fill="none" stroke="red" stroke-width="0.71" d="M268.93,-358.74C254.34,-339.22 237.56,-316.76 222.44,-296.53"/>
<polygon fill="red" stroke="red" stroke-width="0.71" points="225.09,-294.23 216.3,-288.32 219.49,-298.42 225.09,-294.23"/>
<text text-anchor="middle" x="256.64" y="-321.36" font-family="Times,serif" font-size="9.00">0.202</text>
</g>
<!-- key 17581
bias &#45;0.410
h_scaling 0.286&#45;&gt;output
bias &#45;0.106
h_scaling 0.911 -->
<g id="edge11" class="edge">
<title>key 17581
bias &#45;0.410
h_scaling 0.286&#45;&gt;output
bias &#45;0.106
h_scaling 0.911</title>
<path fill="none" stroke="blue" stroke-width="3.09" d="M219.7,-187.75C237.5,-166.87 258.46,-142.28 276.95,-120.59"/>
<polygon fill="blue" stroke="blue" stroke-width="3.09" points="279.81,-122.62 283.64,-112.74 274.49,-118.08 279.81,-122.62"/>
<text text-anchor="middle" x="267.14" y="-148.08" font-family="Times,serif" font-size="9.00">&#45;0.997</text>
</g>
<!-- key 17581
bias &#45;0.410
h_scaling 0.286&#45;&gt;key 7339
bias &#45;0.762
h_scaling 0.000 -->
<g id="edge7" class="edge">
<title>key 17581
bias &#45;0.410
h_scaling 0.286&#45;&gt;key 7339
bias &#45;0.762
h_scaling 0.000</title>
<path fill="none" stroke="red" stroke-width="1.78" d="M182.68,-300.5C186.51,-348.34 193.54,-415.72 205.64,-473.84 216.81,-527.51 235.13,-586.74 250.09,-631.08"/>
<polygon fill="red" stroke="red" stroke-width="1.78" points="246.79,-632.25 253.32,-640.59 253.42,-630 246.79,-632.25"/>
<text text-anchor="middle" x="219.64" y="-408" font-family="Times,serif" font-size="9.00">0.560</text>
</g>
<!-- key 17581
bias &#45;0.410
h_scaling 0.286&#45;&gt;key 17581
bias &#45;0.410
h_scaling 0.286 -->
<g id="edge9" class="edge">
<title>key 17581
bias &#45;0.410
h_scaling 0.286&#45;&gt;key 17581
bias &#45;0.410
h_scaling 0.286</title>
<path fill="none" stroke="red" stroke-width="2.33" d="M240.58,-252.22C252.14,-250.33 260.28,-245.23 260.28,-236.92 260.28,-231.2 256.43,-227.01 250.27,-224.33"/>
<polygon fill="red" stroke="red" stroke-width="2.33" points="251.16,-220.94 240.58,-221.62 249.27,-227.68 251.16,-220.94"/>
<text text-anchor="middle" x="274.28" y="-234.72" font-family="Times,serif" font-size="9.00">0.742</text>
</g>
</g>
</svg>
