<?xml version="1.0" encoding="UTF-8" standalone="no"?>
<!DOCTYPE svg PUBLIC "-//W3C//DTD SVG 1.1//EN"
 "http://www.w3.org/Graphics/SVG/1.1/DTD/svg11.dtd">
<!-- Generated by graphviz version 2.43.0 (0)
 -->
<!-- Title: %3 Pages: 1 -->
<svg width="612pt" height="902pt"
 viewBox="0.00 0.00 611.64 902.40" xmlns="http://www.w3.org/2000/svg" xmlns:xlink="http://www.w3.org/1999/xlink">
<g id="graph0" class="graph" transform="scale(1 1) rotate(0) translate(4 898.4)">
<title>%3</title>
<polygon fill="white" stroke="transparent" points="-4,4 -4,-898.4 607.64,-898.4 607.64,4 -4,4"/>
<!-- ready
output 0.000 -->
<g id="node1" class="node">
<title>ready
output 0.000</title>
<polygon fill="yellow" stroke="black" points="192.14,-894.4 115.14,-894.4 115.14,-866.4 192.14,-866.4 192.14,-894.4"/>
<text text-anchor="middle" x="153.64" y="-883.2" font-family="Times,serif" font-size="9.00">ready</text>
<text text-anchor="middle" x="153.64" y="-873.2" font-family="Times,serif" font-size="9.00">output 0.000</text>
</g>
<!-- key 12486
bias 0.000
h_scaling 0.047
output 0.034 -->
<g id="node4" class="node">
<title>key 12486
bias 0.000
h_scaling 0.047
output 0.034</title>
<ellipse fill="white" stroke="black" cx="153.64" cy="-756.76" rx="63.78" ry="63.78"/>
<text text-anchor="middle" x="153.64" y="-769.56" font-family="Times,serif" font-size="9.00">key 12486</text>
<text text-anchor="middle" x="153.64" y="-759.56" font-family="Times,serif" font-size="9.00">bias 0.000</text>
<text text-anchor="middle" x="153.64" y="-749.56" font-family="Times,serif" font-size="9.00">h_scaling 0.047</text>
<text text-anchor="middle" x="153.64" y="-739.56" font-family="Times,serif" font-size="9.00">output 0.034</text>
</g>
<!-- ready
output 0.000&#45;&gt;key 12486
bias 0.000
h_scaling 0.047
output 0.034 -->
<g id="edge12" class="edge">
<title>ready
output 0.000&#45;&gt;key 12486
bias 0.000
h_scaling 0.047
output 0.034</title>
<path fill="none" stroke="red" stroke-width="0.1" d="M153.64,-866.38C153.64,-857.3 153.64,-844.39 153.64,-830.63"/>
<polygon fill="red" stroke="red" stroke-width="0.1" points="157.14,-830.49 153.64,-820.49 150.14,-830.49 157.14,-830.49"/>
<text text-anchor="middle" x="167.64" y="-841.2" font-family="Times,serif" font-size="9.00">0.431</text>
</g>
<!-- key 3672
bias 0.000
h_scaling 0.845
output 0.955 -->
<g id="node7" class="node">
<title>key 3672
bias 0.000
h_scaling 0.845
output 0.955</title>
<ellipse fill="white" stroke="black" cx="347.64" cy="-236.92" rx="63.78" ry="63.78"/>
<text text-anchor="middle" x="347.64" y="-249.72" font-family="Times,serif" font-size="9.00">key 3672</text>
<text text-anchor="middle" x="347.64" y="-239.72" font-family="Times,serif" font-size="9.00">bias 0.000</text>
<text text-anchor="middle" x="347.64" y="-229.72" font-family="Times,serif" font-size="9.00">h_scaling 0.845</text>
<text text-anchor="middle" x="347.64" y="-219.72" font-family="Times,serif" font-size="9.00">output 0.955</text>
</g>
<!-- ready
output 0.000&#45;&gt;key 3672
bias 0.000
h_scaling 0.845
output 0.955 -->
<g id="edge15" class="edge">
<title>ready
output 0.000&#45;&gt;key 3672
bias 0.000
h_scaling 0.845
output 0.955</title>
<path fill="none" stroke="red" stroke-width="0.1" d="M192.2,-876.57C274.72,-869.98 465.5,-851.74 521.64,-820.4 553.73,-802.48 575.64,-794.51 575.64,-757.76 575.64,-757.76 575.64,-757.76 575.64,-495.84 575.64,-428.64 590.71,-401.23 551.64,-346.56 519.73,-301.91 463.69,-273.96 418.41,-257.61"/>
<polygon fill="red" stroke="red" stroke-width="0.1" points="419.52,-254.29 408.92,-254.29 417.21,-260.9 419.52,-254.29"/>
<text text-anchor="middle" x="589.64" y="-581.28" font-family="Times,serif" font-size="9.00">0.593</text>
</g>
<!-- key 93723
bias 0.000
h_scaling 1.000
output 0.529 -->
<g id="node8" class="node">
<title>key 93723
bias 0.000
h_scaling 1.000
output 0.529</title>
<ellipse fill="white" stroke="black" cx="63.64" cy="-410.2" rx="63.78" ry="63.78"/>
<text text-anchor="middle" x="63.64" y="-423" font-family="Times,serif" font-size="9.00">key 93723</text>
<text text-anchor="middle" x="63.64" y="-413" font-family="Times,serif" font-size="9.00">bias 0.000</text>
<text text-anchor="middle" x="63.64" y="-403" font-family="Times,serif" font-size="9.00">h_scaling 1.000</text>
<text text-anchor="middle" x="63.64" y="-393" font-family="Times,serif" font-size="9.00">output 0.529</text>
</g>
<!-- ready
output 0.000&#45;&gt;key 93723
bias 0.000
h_scaling 1.000
output 0.529 -->
<g id="edge21" class="edge">
<title>ready
output 0.000&#45;&gt;key 93723
bias 0.000
h_scaling 1.000
output 0.529</title>
<path fill="none" stroke="red" stroke-width="0.1" d="M129.29,-866.2C112.82,-855.94 92.06,-840.15 80.64,-820.4 19.98,-715.43 32.58,-568.78 47.76,-482.52"/>
<polygon fill="red" stroke="red" stroke-width="0.1" points="51.23,-483.03 49.57,-472.56 44.34,-481.78 51.23,-483.03"/>
<text text-anchor="middle" x="51.64" y="-667.92" font-family="Times,serif" font-size="9.00">0.866</text>
</g>
<!-- go
output 0.000 -->
<g id="node2" class="node">
<title>go
output 0.000</title>
<polygon fill="green" stroke="black" points="512.14,-770.76 435.14,-770.76 435.14,-742.76 512.14,-742.76 512.14,-770.76"/>
<text text-anchor="middle" x="473.64" y="-759.56" font-family="Times,serif" font-size="9.00">go</text>
<text text-anchor="middle" x="473.64" y="-749.56" font-family="Times,serif" font-size="9.00">output 0.000</text>
</g>
<!-- key 7182
bias 0.000
h_scaling 0.370
output 0.305 -->
<g id="node5" class="node">
<title>key 7182
bias 0.000
h_scaling 0.370
output 0.305</title>
<ellipse fill="white" stroke="black" cx="247.64" cy="-583.48" rx="63.78" ry="63.78"/>
<text text-anchor="middle" x="247.64" y="-596.28" font-family="Times,serif" font-size="9.00">key 7182</text>
<text text-anchor="middle" x="247.64" y="-586.28" font-family="Times,serif" font-size="9.00">bias 0.000</text>
<text text-anchor="middle" x="247.64" y="-576.28" font-family="Times,serif" font-size="9.00">h_scaling 0.370</text>
<text text-anchor="middle" x="247.64" y="-566.28" font-family="Times,serif" font-size="9.00">output 0.305</text>
</g>
<!-- go
output 0.000&#45;&gt;key 7182
bias 0.000
h_scaling 0.370
output 0.305 -->
<g id="edge4" class="edge">
<title>go
output 0.000&#45;&gt;key 7182
bias 0.000
h_scaling 0.370
output 0.305</title>
<path fill="none" stroke="red" stroke-width="0.1" d="M456.28,-742.6C424.66,-718.63 356.32,-666.84 306.44,-629.04"/>
<polygon fill="red" stroke="red" stroke-width="0.1" points="308.38,-626.12 298.29,-622.87 304.15,-631.7 308.38,-626.12"/>
<text text-anchor="middle" x="374.64" y="-667.92" font-family="Times,serif" font-size="9.00">0.841</text>
</g>
<!-- key 5463
bias 0.000
h_scaling 0.138
output 0.031 -->
<g id="node6" class="node">
<title>key 5463
bias 0.000
h_scaling 0.138
output 0.031</title>
<ellipse fill="white" stroke="black" cx="217.64" cy="-63.64" rx="63.78" ry="63.78"/>
<text text-anchor="middle" x="217.64" y="-76.44" font-family="Times,serif" font-size="9.00">key 5463</text>
<text text-anchor="middle" x="217.64" y="-66.44" font-family="Times,serif" font-size="9.00">bias 0.000</text>
<text text-anchor="middle" x="217.64" y="-56.44" font-family="Times,serif" font-size="9.00">h_scaling 0.138</text>
<text text-anchor="middle" x="217.64" y="-46.44" font-family="Times,serif" font-size="9.00">output 0.031</text>
</g>
<!-- go
output 0.000&#45;&gt;key 5463
bias 0.000
h_scaling 0.138
output 0.031 -->
<g id="edge2" class="edge">
<title>go
output 0.000&#45;&gt;key 5463
bias 0.000
h_scaling 0.138
output 0.031</title>
<path fill="none" stroke="red" stroke-width="0.1" d="M478.45,-742.61C502.4,-674.64 602.43,-359.01 466.64,-173.28 425.26,-116.68 347.98,-89.18 290.44,-76.07"/>
<polygon fill="red" stroke="red" stroke-width="0.1" points="291.18,-72.65 280.67,-73.94 289.69,-79.49 291.18,-72.65"/>
<text text-anchor="middle" x="549.64" y="-408" font-family="Times,serif" font-size="9.00">0.874</text>
</g>
<!-- go
output 0.000&#45;&gt;key 3672
bias 0.000
h_scaling 0.845
output 0.955 -->
<g id="edge1" class="edge">
<title>go
output 0.000&#45;&gt;key 3672
bias 0.000
h_scaling 0.845
output 0.955</title>
<path fill="none" stroke="blue" stroke-width="0.1" d="M474.5,-742.45C477.41,-689.99 483.75,-493.14 426.64,-346.56 419.32,-327.78 407.94,-309.29 396.07,-293.05"/>
<polygon fill="blue" stroke="blue" stroke-width="0.1" points="398.65,-290.65 389.84,-284.77 393.06,-294.86 398.65,-290.65"/>
<text text-anchor="middle" x="480.14" y="-494.64" font-family="Times,serif" font-size="9.00">&#45;0.622</text>
</g>
<!-- output
bias 0.000
h_scaling 0.931
output 0.912 -->
<g id="node3" class="node">
<title>output
bias 0.000
h_scaling 0.931
output 0.912</title>
<ellipse fill="lightblue" stroke="black" cx="247.64" cy="-410.2" rx="63.78" ry="63.78"/>
<text text-anchor="middle" x="247.64" y="-423" font-family="Times,serif" font-size="9.00">output</text>
<text text-anchor="middle" x="247.64" y="-413" font-family="Times,serif" font-size="9.00">bias 0.000</text>
<text text-anchor="middle" x="247.64" y="-403" font-family="Times,serif" font-size="9.00">h_scaling 0.931</text>
<text text-anchor="middle" x="247.64" y="-393" font-family="Times,serif" font-size="9.00">output 0.912</text>
</g>
<!-- output
bias 0.000
h_scaling 0.931
output 0.912&#45;&gt;key 12486
bias 0.000
h_scaling 0.047
output 0.034 -->
<g id="edge8" class="edge">
<title>output
bias 0.000
h_scaling 0.931
output 0.912&#45;&gt;key 12486
bias 0.000
h_scaling 0.047
output 0.034</title>
<path fill="none" stroke="blue" stroke-width="0.1" d="M194.84,-446.18C179.01,-458.91 162.89,-474.49 151.64,-491.84 114.6,-548.96 121.23,-628.68 133.31,-685.52"/>
<polygon fill="blue" stroke="blue" stroke-width="0.1" points="129.95,-686.5 135.54,-695.5 136.78,-684.98 129.95,-686.5"/>
<text text-anchor="middle" x="152.14" y="-581.28" font-family="Times,serif" font-size="9.00">&#45;0.726</text>
</g>
<!-- output
bias 0.000
h_scaling 0.931
output 0.912&#45;&gt;key 3672
bias 0.000
h_scaling 0.845
output 0.955 -->
<g id="edge22" class="edge">
<title>output
bias 0.000
h_scaling 0.931
output 0.912&#45;&gt;key 3672
bias 0.000
h_scaling 0.845
output 0.955</title>
<path fill="none" stroke="blue" stroke-width="0.1" d="M279.56,-354.53C289.44,-337.61 300.41,-318.82 310.6,-301.35"/>
<polygon fill="blue" stroke="blue" stroke-width="0.1" points="313.84,-302.76 315.86,-292.36 307.79,-299.23 313.84,-302.76"/>
<text text-anchor="middle" x="313.14" y="-321.36" font-family="Times,serif" font-size="9.00">&#45;0.052</text>
</g>
<!-- key 12486
bias 0.000
h_scaling 0.047
output 0.034&#45;&gt;key 12486
bias 0.000
h_scaling 0.047
output 0.034 -->
<g id="edge11" class="edge">
<title>key 12486
bias 0.000
h_scaling 0.047
output 0.034&#45;&gt;key 12486
bias 0.000
h_scaling 0.047
output 0.034</title>
<path fill="none" stroke="red" stroke-width="0.1" d="M215.58,-772.05C227.14,-770.17 235.28,-765.07 235.28,-756.76 235.28,-751.04 231.43,-746.84 225.27,-744.17"/>
<polygon fill="red" stroke="red" stroke-width="0.1" points="226.16,-740.78 215.58,-741.46 224.27,-747.52 226.16,-740.78"/>
<text text-anchor="middle" x="249.28" y="-754.56" font-family="Times,serif" font-size="9.00">0.309</text>
</g>
<!-- key 12486
bias 0.000
h_scaling 0.047
output 0.034&#45;&gt;key 7182
bias 0.000
h_scaling 0.370
output 0.305 -->
<g id="edge9" class="edge">
<title>key 12486
bias 0.000
h_scaling 0.047
output 0.034&#45;&gt;key 7182
bias 0.000
h_scaling 0.370
output 0.305</title>
<path fill="none" stroke="blue" stroke-width="0.1" d="M190.66,-704.63C196.99,-695.03 203.25,-684.92 208.64,-675.12 212.67,-667.78 216.59,-659.94 220.28,-652.06"/>
<polygon fill="blue" stroke="blue" stroke-width="0.1" points="223.53,-653.36 224.51,-642.81 217.17,-650.45 223.53,-653.36"/>
<text text-anchor="middle" x="229.14" y="-667.92" font-family="Times,serif" font-size="9.00">&#45;0.825</text>
</g>
<!-- key 12486
bias 0.000
h_scaling 0.047
output 0.034&#45;&gt;key 93723
bias 0.000
h_scaling 1.000
output 0.529 -->
<g id="edge20" class="edge">
<title>key 12486
bias 0.000
h_scaling 0.047
output 0.034&#45;&gt;key 93723
bias 0.000
h_scaling 1.000
output 0.529</title>
<path fill="none" stroke="blue" stroke-width="0.1" d="M113.63,-706.93C101.2,-689.14 88.88,-668.2 81.64,-647.12 63.59,-594.54 59.59,-531.63 59.84,-484"/>
<polygon fill="blue" stroke="blue" stroke-width="0.1" points="63.34,-483.81 59.95,-473.77 56.34,-483.73 63.34,-483.81"/>
<text text-anchor="middle" x="97.14" y="-581.28" font-family="Times,serif" font-size="9.00">&#45;0.549</text>
</g>
<!-- key 7182
bias 0.000
h_scaling 0.370
output 0.305&#45;&gt;output
bias 0.000
h_scaling 0.931
output 0.912 -->
<g id="edge13" class="edge">
<title>key 7182
bias 0.000
h_scaling 0.370
output 0.305&#45;&gt;output
bias 0.000
h_scaling 0.931
output 0.912</title>
<path fill="none" stroke="blue" stroke-width="0.1" d="M247.64,-519.67C247.64,-508.15 247.64,-496.04 247.64,-484.25"/>
<polygon fill="blue" stroke="blue" stroke-width="0.1" points="251.14,-484 247.64,-474 244.14,-484 251.14,-484"/>
<text text-anchor="middle" x="263.14" y="-494.64" font-family="Times,serif" font-size="9.00">&#45;1.000</text>
</g>
<!-- key 7182
bias 0.000
h_scaling 0.370
output 0.305&#45;&gt;key 12486
bias 0.000
h_scaling 0.047
output 0.034 -->
<g id="edge17" class="edge">
<title>key 7182
bias 0.000
h_scaling 0.370
output 0.305&#45;&gt;key 12486
bias 0.000
h_scaling 0.047
output 0.034</title>
<path fill="none" stroke="blue" stroke-width="0.1" d="M200.75,-627.29C190.51,-638.7 180.66,-651.63 173.64,-665.12 170.54,-671.07 167.92,-677.49 165.71,-684.06"/>
<polygon fill="blue" stroke="blue" stroke-width="0.1" points="162.32,-683.17 162.74,-693.76 169.01,-685.22 162.32,-683.17"/>
<text text-anchor="middle" x="189.14" y="-667.92" font-family="Times,serif" font-size="9.00">&#45;0.035</text>
</g>
<!-- key 7182
bias 0.000
h_scaling 0.370
output 0.305&#45;&gt;key 3672
bias 0.000
h_scaling 0.845
output 0.955 -->
<g id="edge5" class="edge">
<title>key 7182
bias 0.000
h_scaling 0.370
output 0.305&#45;&gt;key 3672
bias 0.000
h_scaling 0.845
output 0.955</title>
<path fill="none" stroke="blue" stroke-width="0.1" d="M305.29,-555.98C336.18,-537.95 370.37,-510.65 382.64,-473.84 400.89,-419.08 388.89,-354.01 374.17,-306.09"/>
<polygon fill="blue" stroke="blue" stroke-width="0.1" points="377.47,-304.9 371.1,-296.43 370.79,-307.03 377.47,-304.9"/>
<text text-anchor="middle" x="407.14" y="-408" font-family="Times,serif" font-size="9.00">&#45;0.927</text>
</g>
<!-- key 7182
bias 0.000
h_scaling 0.370
output 0.305&#45;&gt;key 93723
bias 0.000
h_scaling 1.000
output 0.529 -->
<g id="edge18" class="edge">
<title>key 7182
bias 0.000
h_scaling 0.370
output 0.305&#45;&gt;key 93723
bias 0.000
h_scaling 1.000
output 0.529</title>
<path fill="none" stroke="red" stroke-width="0.1" d="M201.21,-539.26C175.62,-515.43 143.73,-485.75 117.1,-460.96"/>
<polygon fill="red" stroke="red" stroke-width="0.1" points="119.44,-458.36 109.74,-454.11 114.67,-463.48 119.44,-458.36"/>
<text text-anchor="middle" x="169.64" y="-494.64" font-family="Times,serif" font-size="9.00">0.465</text>
</g>
<!-- key 5463
bias 0.000
h_scaling 0.138
output 0.031&#45;&gt;output
bias 0.000
h_scaling 0.931
output 0.912 -->
<g id="edge3" class="edge">
<title>key 5463
bias 0.000
h_scaling 0.138
output 0.031&#45;&gt;output
bias 0.000
h_scaling 0.931
output 0.912</title>
<path fill="none" stroke="blue" stroke-width="0.1" d="M223.09,-127.3C228.22,-186.18 235.89,-274.29 241.29,-336.3"/>
<polygon fill="blue" stroke="blue" stroke-width="0.1" points="237.82,-336.74 242.17,-346.4 244.79,-336.14 237.82,-336.74"/>
<text text-anchor="middle" x="253.14" y="-234.72" font-family="Times,serif" font-size="9.00">&#45;0.987</text>
</g>
<!-- key 5463
bias 0.000
h_scaling 0.138
output 0.031&#45;&gt;key 7182
bias 0.000
h_scaling 0.370
output 0.305 -->
<g id="edge10" class="edge">
<title>key 5463
bias 0.000
h_scaling 0.138
output 0.031&#45;&gt;key 7182
bias 0.000
h_scaling 0.370
output 0.305</title>
<path fill="none" stroke="red" stroke-width="0.1" d="M196.55,-123.81C170.99,-204.82 135.85,-353.87 174.64,-473.84 177.68,-483.23 182.03,-483.72 187.64,-491.84 194.12,-501.2 200.87,-511.18 207.42,-520.98"/>
<polygon fill="red" stroke="red" stroke-width="0.1" points="204.64,-523.13 213.1,-529.51 210.47,-519.25 204.64,-523.13"/>
<text text-anchor="middle" x="172.64" y="-321.36" font-family="Times,serif" font-size="9.00">0.784</text>
</g>
<!-- key 3672
bias 0.000
h_scaling 0.845
output 0.955&#45;&gt;output
bias 0.000
h_scaling 0.931
output 0.912 -->
<g id="edge16" class="edge">
<title>key 3672
bias 0.000
h_scaling 0.845
output 0.955&#45;&gt;output
bias 0.000
h_scaling 0.931
output 0.912</title>
<path fill="none" stroke="red" stroke-width="0.1" d="M293.35,-270.69C277.02,-283.46 260.98,-299.62 251.64,-318.56 248.85,-324.21 246.84,-330.32 245.42,-336.59"/>
<polygon fill="red" stroke="red" stroke-width="0.1" points="241.96,-336.09 243.67,-346.55 248.85,-337.3 241.96,-336.09"/>
<text text-anchor="middle" x="265.64" y="-321.36" font-family="Times,serif" font-size="9.00">0.710</text>
</g>
<!-- key 3672
bias 0.000
h_scaling 0.845
output 0.955&#45;&gt;key 7182
bias 0.000
h_scaling 0.370
output 0.305 -->
<g id="edge14" class="edge">
<title>key 3672
bias 0.000
h_scaling 0.845
output 0.955&#45;&gt;key 7182
bias 0.000
h_scaling 0.370
output 0.305</title>
<path fill="none" stroke="blue" stroke-width="0.1" d="M348.47,-300.63C347.23,-349.27 341.33,-417.65 320.64,-473.84 314.08,-491.65 304.03,-509.4 293.46,-525.24"/>
<polygon fill="blue" stroke="blue" stroke-width="0.1" points="290.34,-523.61 287.56,-533.83 296.11,-527.57 290.34,-523.61"/>
<text text-anchor="middle" x="361.14" y="-408" font-family="Times,serif" font-size="9.00">&#45;0.135</text>
</g>
<!-- key 3672
bias 0.000
h_scaling 0.845
output 0.955&#45;&gt;key 5463
bias 0.000
h_scaling 0.138
output 0.031 -->
<g id="edge6" class="edge">
<title>key 3672
bias 0.000
h_scaling 0.845
output 0.955&#45;&gt;key 5463
bias 0.000
h_scaling 0.138
output 0.031</title>
<path fill="none" stroke="blue" stroke-width="0.1" d="M309.34,-185.46C294.4,-165.77 277.17,-143.08 261.72,-122.72"/>
<polygon fill="blue" stroke="blue" stroke-width="0.1" points="264.5,-120.59 255.67,-114.74 258.92,-124.82 264.5,-120.59"/>
<text text-anchor="middle" x="298.14" y="-148.08" font-family="Times,serif" font-size="9.00">&#45;0.865</text>
</g>
<!-- key 3672
bias 0.000
h_scaling 0.845
output 0.955&#45;&gt;key 3672
bias 0.000
h_scaling 0.845
output 0.955 -->
<g id="edge7" class="edge">
<title>key 3672
bias 0.000
h_scaling 0.845
output 0.955&#45;&gt;key 3672
bias 0.000
h_scaling 0.845
output 0.955</title>
<path fill="none" stroke="red" stroke-width="0.1" d="M409.58,-252.22C421.14,-250.33 429.28,-245.23 429.28,-236.92 429.28,-231.2 425.43,-227.01 419.27,-224.33"/>
<polygon fill="red" stroke="red" stroke-width="0.1" points="420.16,-220.94 409.58,-221.62 418.27,-227.68 420.16,-220.94"/>
<text text-anchor="middle" x="443.28" y="-234.72" font-family="Times,serif" font-size="9.00">0.961</text>
</g>
<!-- key 93723
bias 0.000
h_scaling 1.000
output 0.529&#45;&gt;key 5463
bias 0.000
h_scaling 0.138
output 0.031 -->
<g id="edge19" class="edge">
<title>key 93723
bias 0.000
h_scaling 1.000
output 0.529&#45;&gt;key 5463
bias 0.000
h_scaling 0.138
output 0.031</title>
<path fill="none" stroke="red" stroke-width="0.1" d="M67.5,-346.65C72.7,-297.17 84.93,-227.6 113.64,-173.28 125.54,-150.76 143.48,-129.62 161.12,-112.09"/>
<polygon fill="red" stroke="red" stroke-width="0.1" points="163.9,-114.27 168.64,-104.8 159.03,-109.25 163.9,-114.27"/>
<text text-anchor="middle" x="127.64" y="-234.72" font-family="Times,serif" font-size="9.00">0.490</text>
</g>
</g>
</svg>
