<?xml version="1.0" encoding="UTF-8" standalone="no"?>
<!DOCTYPE svg PUBLIC "-//W3C//DTD SVG 1.1//EN"
 "http://www.w3.org/Graphics/SVG/1.1/DTD/svg11.dtd">
<!-- Generated by graphviz version 2.43.0 (0)
 -->
<!-- Title: %3 Pages: 1 -->
<svg width="624pt" height="1422pt"
 viewBox="0.00 0.00 624.00 1422.23" xmlns="http://www.w3.org/2000/svg" xmlns:xlink="http://www.w3.org/1999/xlink">
<g id="graph0" class="graph" transform="scale(1 1) rotate(0) translate(4 1418.23)">
<title>%3</title>
<polygon fill="white" stroke="transparent" points="-4,4 -4,-1418.23 620,-1418.23 620,4 -4,4"/>
<!-- ready
output 0.000 -->
<g id="node1" class="node">
<title>ready
output 0.000</title>
<polygon fill="yellow" stroke="black" points="567.5,-1414.23 490.5,-1414.23 490.5,-1386.23 567.5,-1386.23 567.5,-1414.23"/>
<text text-anchor="middle" x="529" y="-1403.03" font-family="Times,serif" font-size="9.00">ready</text>
<text text-anchor="middle" x="529" y="-1393.03" font-family="Times,serif" font-size="9.00">output 0.000</text>
</g>
<!-- key 137985
bias &#45;0.622
h_scaling 0.699
output 0.605 -->
<g id="node4" class="node">
<title>key 137985
bias &#45;0.622
h_scaling 0.699
output 0.605</title>
<ellipse fill="white" stroke="black" cx="215" cy="-1276.59" rx="63.78" ry="63.78"/>
<text text-anchor="middle" x="215" y="-1289.39" font-family="Times,serif" font-size="9.00">key 137985</text>
<text text-anchor="middle" x="215" y="-1279.39" font-family="Times,serif" font-size="9.00">bias &#45;0.622</text>
<text text-anchor="middle" x="215" y="-1269.39" font-family="Times,serif" font-size="9.00">h_scaling 0.699</text>
<text text-anchor="middle" x="215" y="-1259.39" font-family="Times,serif" font-size="9.00">output 0.605</text>
</g>
<!-- ready
output 0.000&#45;&gt;key 137985
bias &#45;0.622
h_scaling 0.699
output 0.605 -->
<g id="edge19" class="edge">
<title>ready
output 0.000&#45;&gt;key 137985
bias &#45;0.622
h_scaling 0.699
output 0.605</title>
<path fill="none" stroke="blue" stroke-width="0.1" d="M495.4,-1386.22C445.11,-1366.73 349.19,-1329.58 283.68,-1304.2"/>
<polygon fill="blue" stroke="blue" stroke-width="0.1" points="284.83,-1300.89 274.24,-1300.54 282.3,-1307.42 284.83,-1300.89"/>
<text text-anchor="middle" x="460.5" y="-1361.03" font-family="Times,serif" font-size="9.00">&#45;0.548</text>
</g>
<!-- key 146208
bias &#45;0.225
h_scaling 1.000
output 0.238 -->
<g id="node6" class="node">
<title>key 146208
bias &#45;0.225
h_scaling 1.000
output 0.238</title>
<ellipse fill="white" stroke="black" cx="430" cy="-756.76" rx="63.78" ry="63.78"/>
<text text-anchor="middle" x="430" y="-769.56" font-family="Times,serif" font-size="9.00">key 146208</text>
<text text-anchor="middle" x="430" y="-759.56" font-family="Times,serif" font-size="9.00">bias &#45;0.225</text>
<text text-anchor="middle" x="430" y="-749.56" font-family="Times,serif" font-size="9.00">h_scaling 1.000</text>
<text text-anchor="middle" x="430" y="-739.56" font-family="Times,serif" font-size="9.00">output 0.238</text>
</g>
<!-- ready
output 0.000&#45;&gt;key 146208
bias &#45;0.225
h_scaling 1.000
output 0.238 -->
<g id="edge14" class="edge">
<title>ready
output 0.000&#45;&gt;key 146208
bias &#45;0.225
h_scaling 1.000
output 0.238</title>
<path fill="none" stroke="red" stroke-width="0.1" d="M529,-1386.09C529,-1363.79 529,-1317.08 529,-1277.59 529,-1277.59 529,-1277.59 529,-929.04 529,-885.34 504.55,-842.78 479.95,-811.01"/>
<polygon fill="red" stroke="red" stroke-width="0.1" points="482.68,-808.81 473.71,-803.17 477.2,-813.17 482.68,-808.81"/>
<text text-anchor="middle" x="543" y="-1101.11" font-family="Times,serif" font-size="9.00">1.211</text>
</g>
<!-- key 586
bias &#45;0.523
h_scaling 0.195
output 0.565 -->
<g id="node8" class="node">
<title>key 586
bias &#45;0.523
h_scaling 0.195
output 0.565</title>
<ellipse fill="white" stroke="black" cx="379" cy="-583.48" rx="63.78" ry="63.78"/>
<text text-anchor="middle" x="379" y="-596.28" font-family="Times,serif" font-size="9.00">key 586</text>
<text text-anchor="middle" x="379" y="-586.28" font-family="Times,serif" font-size="9.00">bias &#45;0.523</text>
<text text-anchor="middle" x="379" y="-576.28" font-family="Times,serif" font-size="9.00">h_scaling 0.195</text>
<text text-anchor="middle" x="379" y="-566.28" font-family="Times,serif" font-size="9.00">output 0.565</text>
</g>
<!-- ready
output 0.000&#45;&gt;key 586
bias &#45;0.523
h_scaling 0.195
output 0.565 -->
<g id="edge10" class="edge">
<title>ready
output 0.000&#45;&gt;key 586
bias &#45;0.523
h_scaling 0.195
output 0.565</title>
<path fill="none" stroke="blue" stroke-width="0.1" d="M539.8,-1385.93C556.07,-1364.5 585,-1320.37 585,-1277.59 585,-1277.59 585,-1277.59 585,-755.76 585,-683.13 508.36,-635.38 448.57,-609.18"/>
<polygon fill="blue" stroke="blue" stroke-width="0.1" points="449.71,-605.86 439.14,-605.16 446.97,-612.3 449.71,-605.86"/>
<text text-anchor="middle" x="600.5" y="-1014.48" font-family="Times,serif" font-size="9.00">&#45;0.271</text>
</g>
<!-- go
output 0.000 -->
<g id="node2" class="node">
<title>go
output 0.000</title>
<polygon fill="green" stroke="black" points="253.5,-1414.23 176.5,-1414.23 176.5,-1386.23 253.5,-1386.23 253.5,-1414.23"/>
<text text-anchor="middle" x="215" y="-1403.03" font-family="Times,serif" font-size="9.00">go</text>
<text text-anchor="middle" x="215" y="-1393.03" font-family="Times,serif" font-size="9.00">output 0.000</text>
</g>
<!-- go
output 0.000&#45;&gt;key 137985
bias &#45;0.622
h_scaling 0.699
output 0.605 -->
<g id="edge22" class="edge">
<title>go
output 0.000&#45;&gt;key 137985
bias &#45;0.622
h_scaling 0.699
output 0.605</title>
<path fill="none" stroke="red" stroke-width="0.1" d="M215,-1386.22C215,-1377.14 215,-1364.23 215,-1350.46"/>
<polygon fill="red" stroke="red" stroke-width="0.1" points="218.5,-1350.33 215,-1340.33 211.5,-1350.33 218.5,-1350.33"/>
<text text-anchor="middle" x="229" y="-1361.03" font-family="Times,serif" font-size="9.00">0.882</text>
</g>
<!-- key 10216
bias &#45;0.504
h_scaling 0.295
output 0.308 -->
<g id="node7" class="node">
<title>key 10216
bias &#45;0.504
h_scaling 0.295
output 0.308</title>
<ellipse fill="white" stroke="black" cx="202" cy="-63.64" rx="63.78" ry="63.78"/>
<text text-anchor="middle" x="202" y="-76.44" font-family="Times,serif" font-size="9.00">key 10216</text>
<text text-anchor="middle" x="202" y="-66.44" font-family="Times,serif" font-size="9.00">bias &#45;0.504</text>
<text text-anchor="middle" x="202" y="-56.44" font-family="Times,serif" font-size="9.00">h_scaling 0.295</text>
<text text-anchor="middle" x="202" y="-46.44" font-family="Times,serif" font-size="9.00">output 0.308</text>
</g>
<!-- go
output 0.000&#45;&gt;key 10216
bias &#45;0.504
h_scaling 0.295
output 0.308 -->
<g id="edge5" class="edge">
<title>go
output 0.000&#45;&gt;key 10216
bias &#45;0.504
h_scaling 0.295
output 0.308</title>
<path fill="none" stroke="red" stroke-width="0.1" d="M176.07,-1394.89C114.11,-1385.58 0,-1357.58 0,-1277.59 0,-1277.59 0,-1277.59 0,-235.92 0,-164.45 74.47,-116.63 132.97,-90.08"/>
<polygon fill="red" stroke="red" stroke-width="0.1" points="134.48,-93.24 142.21,-86 131.65,-86.84 134.48,-93.24"/>
<text text-anchor="middle" x="14" y="-754.56" font-family="Times,serif" font-size="9.00">0.621</text>
</g>
<!-- go
output 0.000&#45;&gt;key 586
bias &#45;0.523
h_scaling 0.195
output 0.565 -->
<g id="edge1" class="edge">
<title>go
output 0.000&#45;&gt;key 586
bias &#45;0.523
h_scaling 0.195
output 0.565</title>
<path fill="none" stroke="red" stroke-width="0.1" d="M253.54,-1397.22C320.97,-1393.32 454.58,-1383.72 469,-1368.23 577.14,-1252.12 476.39,-1169.99 487,-1011.68 492.71,-926.56 499.44,-905.63 503,-820.4 505.36,-763.88 526.36,-744.64 503,-693.12 490.1,-664.67 465.67,-640.73 441.87,-622.63"/>
<polygon fill="red" stroke="red" stroke-width="0.1" points="443.63,-619.58 433.5,-616.47 439.49,-625.22 443.63,-619.58"/>
<text text-anchor="middle" x="501" y="-1014.48" font-family="Times,serif" font-size="9.00">0.991</text>
</g>
<!-- output
bias 0.994
h_scaling 0.133
output 0.001 -->
<g id="node3" class="node">
<title>output
bias 0.994
h_scaling 0.133
output 0.001</title>
<ellipse fill="lightblue" stroke="black" cx="215" cy="-1103.31" rx="63.78" ry="63.78"/>
<text text-anchor="middle" x="215" y="-1116.11" font-family="Times,serif" font-size="9.00">output</text>
<text text-anchor="middle" x="215" y="-1106.11" font-family="Times,serif" font-size="9.00">bias 0.994</text>
<text text-anchor="middle" x="215" y="-1096.11" font-family="Times,serif" font-size="9.00">h_scaling 0.133</text>
<text text-anchor="middle" x="215" y="-1086.11" font-family="Times,serif" font-size="9.00">output 0.001</text>
</g>
<!-- key 150829
bias &#45;0.843
h_scaling 0.138
output 0.015 -->
<g id="node9" class="node">
<title>key 150829
bias &#45;0.843
h_scaling 0.138
output 0.015</title>
<ellipse fill="white" stroke="black" cx="366" cy="-930.04" rx="63.78" ry="63.78"/>
<text text-anchor="middle" x="366" y="-942.84" font-family="Times,serif" font-size="9.00">key 150829</text>
<text text-anchor="middle" x="366" y="-932.84" font-family="Times,serif" font-size="9.00">bias &#45;0.843</text>
<text text-anchor="middle" x="366" y="-922.84" font-family="Times,serif" font-size="9.00">h_scaling 0.138</text>
<text text-anchor="middle" x="366" y="-912.84" font-family="Times,serif" font-size="9.00">output 0.015</text>
</g>
<!-- output
bias 0.994
h_scaling 0.133
output 0.001&#45;&gt;key 150829
bias &#45;0.843
h_scaling 0.138
output 0.015 -->
<g id="edge16" class="edge">
<title>output
bias 0.994
h_scaling 0.133
output 0.001&#45;&gt;key 150829
bias &#45;0.843
h_scaling 0.138
output 0.015</title>
<path fill="none" stroke="red" stroke-width="0.1" d="M257.66,-1055.59C267.67,-1044.52 278.25,-1032.72 288,-1021.68 297.82,-1010.55 308.24,-998.56 318.16,-987.07"/>
<polygon fill="red" stroke="red" stroke-width="0.1" points="321.06,-989.07 324.93,-979.21 315.75,-984.5 321.06,-989.07"/>
<text text-anchor="middle" x="311" y="-1014.48" font-family="Times,serif" font-size="9.00">0.987</text>
</g>
<!-- key 137985
bias &#45;0.622
h_scaling 0.699
output 0.605&#45;&gt;output
bias 0.994
h_scaling 0.133
output 0.001 -->
<g id="edge11" class="edge">
<title>key 137985
bias &#45;0.622
h_scaling 0.699
output 0.605&#45;&gt;output
bias 0.994
h_scaling 0.133
output 0.001</title>
<path fill="none" stroke="blue" stroke-width="0.1" d="M215,-1212.79C215,-1201.27 215,-1189.15 215,-1177.37"/>
<polygon fill="blue" stroke="blue" stroke-width="0.1" points="218.5,-1177.11 215,-1167.11 211.5,-1177.11 218.5,-1177.11"/>
<text text-anchor="middle" x="230.5" y="-1187.75" font-family="Times,serif" font-size="9.00">&#45;0.848</text>
</g>
<!-- key 144450
bias &#45;0.619
h_scaling 0.331
output 0.726 -->
<g id="node5" class="node">
<title>key 144450
bias &#45;0.619
h_scaling 0.331
output 0.726</title>
<ellipse fill="white" stroke="black" cx="202" cy="-236.92" rx="63.78" ry="63.78"/>
<text text-anchor="middle" x="202" y="-249.72" font-family="Times,serif" font-size="9.00">key 144450</text>
<text text-anchor="middle" x="202" y="-239.72" font-family="Times,serif" font-size="9.00">bias &#45;0.619</text>
<text text-anchor="middle" x="202" y="-229.72" font-family="Times,serif" font-size="9.00">h_scaling 0.331</text>
<text text-anchor="middle" x="202" y="-219.72" font-family="Times,serif" font-size="9.00">output 0.726</text>
</g>
<!-- key 144450
bias &#45;0.619
h_scaling 0.331
output 0.726&#45;&gt;output
bias 0.994
h_scaling 0.133
output 0.001 -->
<g id="edge21" class="edge">
<title>key 144450
bias &#45;0.619
h_scaling 0.331
output 0.726&#45;&gt;output
bias 0.994
h_scaling 0.133
output 0.001</title>
<path fill="none" stroke="red" stroke-width="0.1" d="M184.53,-298.41C176.62,-330.96 169,-371.95 169,-409.2 169,-931.04 169,-931.04 169,-931.04 169,-965.76 177.93,-1003.14 187.92,-1034.09"/>
<polygon fill="red" stroke="red" stroke-width="0.1" points="184.71,-1035.52 191.19,-1043.9 191.35,-1033.31 184.71,-1035.52"/>
<text text-anchor="middle" x="183" y="-667.92" font-family="Times,serif" font-size="9.00">0.025</text>
</g>
<!-- key 144450
bias &#45;0.619
h_scaling 0.331
output 0.726&#45;&gt;key 137985
bias &#45;0.622
h_scaling 0.699
output 0.605 -->
<g id="edge13" class="edge">
<title>key 144450
bias &#45;0.619
h_scaling 0.331
output 0.726&#45;&gt;key 137985
bias &#45;0.622
h_scaling 0.699
output 0.605</title>
<path fill="none" stroke="red" stroke-width="0.1" d="M149.43,-273.16C110.44,-303.94 64,-352.49 64,-409.2 64,-1104.31 64,-1104.31 64,-1104.31 64,-1160.8 110.79,-1207.48 152.27,-1237.76"/>
<polygon fill="red" stroke="red" stroke-width="0.1" points="150.31,-1240.65 160.49,-1243.59 154.36,-1234.95 150.31,-1240.65"/>
<text text-anchor="middle" x="78" y="-754.56" font-family="Times,serif" font-size="9.00">1.110</text>
</g>
<!-- key 144450
bias &#45;0.619
h_scaling 0.331
output 0.726&#45;&gt;key 10216
bias &#45;0.504
h_scaling 0.295
output 0.308 -->
<g id="edge18" class="edge">
<title>key 144450
bias &#45;0.619
h_scaling 0.331
output 0.726&#45;&gt;key 10216
bias &#45;0.504
h_scaling 0.295
output 0.308</title>
<path fill="none" stroke="blue" stroke-width="0.1" d="M202,-173.11C202,-161.59 202,-149.48 202,-137.69"/>
<polygon fill="blue" stroke="blue" stroke-width="0.1" points="205.5,-137.44 202,-127.44 198.5,-137.44 205.5,-137.44"/>
<text text-anchor="middle" x="217.5" y="-148.08" font-family="Times,serif" font-size="9.00">&#45;0.386</text>
</g>
<!-- key 146208
bias &#45;0.225
h_scaling 1.000
output 0.238&#45;&gt;key 586
bias &#45;0.523
h_scaling 0.195
output 0.565 -->
<g id="edge15" class="edge">
<title>key 146208
bias &#45;0.225
h_scaling 1.000
output 0.238&#45;&gt;key 586
bias &#45;0.523
h_scaling 0.195
output 0.565</title>
<path fill="none" stroke="blue" stroke-width="0.1" d="M412.02,-695.37C408.07,-682.12 403.86,-667.98 399.82,-654.39"/>
<polygon fill="blue" stroke="blue" stroke-width="0.1" points="403.11,-653.19 396.9,-644.61 396.4,-655.19 403.11,-653.19"/>
<text text-anchor="middle" x="420.5" y="-667.92" font-family="Times,serif" font-size="9.00">&#45;0.404</text>
</g>
<!-- key 10216
bias &#45;0.504
h_scaling 0.295
output 0.308&#45;&gt;output
bias 0.994
h_scaling 0.133
output 0.001 -->
<g id="edge3" class="edge">
<title>key 10216
bias &#45;0.504
h_scaling 0.295
output 0.308&#45;&gt;output
bias 0.994
h_scaling 0.133
output 0.001</title>
<path fill="none" stroke="blue" stroke-width="0.1" d="M160.31,-112C135.96,-144.54 110,-190.01 110,-235.92 110,-497.84 110,-497.84 110,-497.84 110,-719.56 104.89,-780.26 165,-993.68 169.13,-1008.35 175.01,-1023.54 181.28,-1037.75"/>
<polygon fill="blue" stroke="blue" stroke-width="0.1" points="178.13,-1039.27 185.45,-1046.93 184.5,-1036.37 178.13,-1039.27"/>
<text text-anchor="middle" x="126.5" y="-581.28" font-family="Times,serif" font-size="9.00">&#45;0.920</text>
</g>
<!-- key 10216
bias &#45;0.504
h_scaling 0.295
output 0.308&#45;&gt;key 586
bias &#45;0.523
h_scaling 0.195
output 0.565 -->
<g id="edge6" class="edge">
<title>key 10216
bias &#45;0.504
h_scaling 0.295
output 0.308&#45;&gt;key 586
bias &#45;0.523
h_scaling 0.195
output 0.565</title>
<path fill="none" stroke="red" stroke-width="0.1" d="M251.86,-103.78C273.42,-122.82 297.44,-147.21 314,-173.28 379.59,-276.5 386.73,-423.1 384.12,-509.94"/>
<polygon fill="red" stroke="red" stroke-width="0.1" points="380.63,-509.85 383.77,-519.96 387.62,-510.09 380.63,-509.85"/>
<text text-anchor="middle" x="385" y="-321.36" font-family="Times,serif" font-size="9.00">0.413</text>
</g>
<!-- key 586
bias &#45;0.523
h_scaling 0.195
output 0.565&#45;&gt;output
bias 0.994
h_scaling 0.133
output 0.001 -->
<g id="edge7" class="edge">
<title>key 586
bias &#45;0.523
h_scaling 0.195
output 0.565&#45;&gt;output
bias 0.994
h_scaling 0.133
output 0.001</title>
<path fill="none" stroke="blue" stroke-width="0.1" d="M344.44,-636.93C334.31,-654.24 324.08,-673.97 317,-693.12 274.55,-807.99 244.03,-947.45 227.97,-1030.32"/>
<polygon fill="blue" stroke="blue" stroke-width="0.1" points="224.48,-1029.91 226.03,-1040.39 231.36,-1031.23 224.48,-1029.91"/>
<text text-anchor="middle" x="286.5" y="-841.2" font-family="Times,serif" font-size="9.00">&#45;0.988</text>
</g>
<!-- key 586
bias &#45;0.523
h_scaling 0.195
output 0.565&#45;&gt;key 10216
bias &#45;0.504
h_scaling 0.295
output 0.308 -->
<g id="edge2" class="edge">
<title>key 586
bias &#45;0.523
h_scaling 0.195
output 0.565&#45;&gt;key 10216
bias &#45;0.504
h_scaling 0.295
output 0.308</title>
<path fill="none" stroke="red" stroke-width="0.1" d="M371.45,-520.03C359.63,-437.24 331.94,-288.23 275,-173.28 266.66,-156.44 256.09,-139.15 245.6,-123.45"/>
<polygon fill="red" stroke="red" stroke-width="0.1" points="248.31,-121.21 239.8,-114.9 242.52,-125.14 248.31,-121.21"/>
<text text-anchor="middle" x="346" y="-321.36" font-family="Times,serif" font-size="9.00">0.996</text>
</g>
<!-- key 586
bias &#45;0.523
h_scaling 0.195
output 0.565&#45;&gt;key 586
bias &#45;0.523
h_scaling 0.195
output 0.565 -->
<g id="edge4" class="edge">
<title>key 586
bias &#45;0.523
h_scaling 0.195
output 0.565&#45;&gt;key 586
bias &#45;0.523
h_scaling 0.195
output 0.565</title>
<path fill="none" stroke="red" stroke-width="0.1" d="M440.94,-598.77C452.5,-596.89 460.64,-591.79 460.64,-583.48 460.64,-577.76 456.79,-573.56 450.63,-570.89"/>
<polygon fill="red" stroke="red" stroke-width="0.1" points="451.52,-567.5 440.94,-568.18 449.63,-574.24 451.52,-567.5"/>
<text text-anchor="middle" x="474.64" y="-581.28" font-family="Times,serif" font-size="9.00">0.846</text>
</g>
<!-- key 88924
bias &#45;0.359
h_scaling 0.000
output 0.788 -->
<g id="node10" class="node">
<title>key 88924
bias &#45;0.359
h_scaling 0.000
output 0.788</title>
<ellipse fill="white" stroke="black" cx="261" cy="-410.2" rx="63.78" ry="63.78"/>
<text text-anchor="middle" x="261" y="-423" font-family="Times,serif" font-size="9.00">key 88924</text>
<text text-anchor="middle" x="261" y="-413" font-family="Times,serif" font-size="9.00">bias &#45;0.359</text>
<text text-anchor="middle" x="261" y="-403" font-family="Times,serif" font-size="9.00">h_scaling 0.000</text>
<text text-anchor="middle" x="261" y="-393" font-family="Times,serif" font-size="9.00">output 0.788</text>
</g>
<!-- key 586
bias &#45;0.523
h_scaling 0.195
output 0.565&#45;&gt;key 88924
bias &#45;0.359
h_scaling 0.000
output 0.788 -->
<g id="edge8" class="edge">
<title>key 586
bias &#45;0.523
h_scaling 0.195
output 0.565&#45;&gt;key 88924
bias &#45;0.359
h_scaling 0.000
output 0.788</title>
<path fill="none" stroke="red" stroke-width="0.1" d="M336.76,-535.52C327.84,-524.76 318.78,-513.16 311,-501.84 305.43,-493.73 299.95,-484.94 294.78,-476.14"/>
<polygon fill="red" stroke="red" stroke-width="0.1" points="297.75,-474.28 289.73,-467.36 291.68,-477.77 297.75,-474.28"/>
<text text-anchor="middle" x="325" y="-494.64" font-family="Times,serif" font-size="9.00">0.951</text>
</g>
<!-- key 150829
bias &#45;0.843
h_scaling 0.138
output 0.015&#45;&gt;key 146208
bias &#45;0.225
h_scaling 1.000
output 0.238 -->
<g id="edge20" class="edge">
<title>key 150829
bias &#45;0.843
h_scaling 0.138
output 0.015&#45;&gt;key 146208
bias &#45;0.225
h_scaling 1.000
output 0.238</title>
<path fill="none" stroke="blue" stroke-width="0.1" d="M388.03,-870.09C393.33,-855.88 399.05,-840.58 404.5,-825.99"/>
<polygon fill="blue" stroke="blue" stroke-width="0.1" points="407.82,-827.11 408.04,-816.52 401.26,-824.66 407.82,-827.11"/>
<text text-anchor="middle" x="413.5" y="-841.2" font-family="Times,serif" font-size="9.00">&#45;0.506</text>
</g>
<!-- key 150829
bias &#45;0.843
h_scaling 0.138
output 0.015&#45;&gt;key 586
bias &#45;0.523
h_scaling 0.195
output 0.565 -->
<g id="edge17" class="edge">
<title>key 150829
bias &#45;0.843
h_scaling 0.138
output 0.015&#45;&gt;key 586
bias &#45;0.523
h_scaling 0.195
output 0.565</title>
<path fill="none" stroke="red" stroke-width="0.1" d="M342.23,-870.74C336.78,-854.69 331.77,-837.1 329,-820.4 319.76,-764.59 316.89,-748.37 329,-693.12 332.28,-678.14 337.83,-662.77 344.06,-648.47"/>
<polygon fill="red" stroke="red" stroke-width="0.1" points="347.3,-649.8 348.24,-639.25 340.92,-646.92 347.3,-649.8"/>
<text text-anchor="middle" x="343" y="-754.56" font-family="Times,serif" font-size="9.00">0.150</text>
</g>
<!-- key 88924
bias &#45;0.359
h_scaling 0.000
output 0.788&#45;&gt;output
bias 0.994
h_scaling 0.133
output 0.001 -->
<g id="edge9" class="edge">
<title>key 88924
bias &#45;0.359
h_scaling 0.000
output 0.788&#45;&gt;output
bias 0.994
h_scaling 0.133
output 0.001</title>
<path fill="none" stroke="blue" stroke-width="0.1" d="M237.19,-469.61C225.97,-502.25 215,-543.99 215,-582.48 215,-931.04 215,-931.04 215,-931.04 215,-963.36 215,-999.12 215,-1029.57"/>
<polygon fill="blue" stroke="blue" stroke-width="0.1" points="211.5,-1029.67 215,-1039.67 218.5,-1029.67 211.5,-1029.67"/>
<text text-anchor="middle" x="230.5" y="-754.56" font-family="Times,serif" font-size="9.00">&#45;0.857</text>
</g>
<!-- key 88924
bias &#45;0.359
h_scaling 0.000
output 0.788&#45;&gt;key 144450
bias &#45;0.619
h_scaling 0.331
output 0.726 -->
<g id="edge12" class="edge">
<title>key 88924
bias &#45;0.359
h_scaling 0.000
output 0.788&#45;&gt;key 144450
bias &#45;0.619
h_scaling 0.331
output 0.726</title>
<path fill="none" stroke="red" stroke-width="0.1" d="M240.53,-349.77C235.77,-335.96 230.66,-321.13 225.78,-306.94"/>
<polygon fill="red" stroke="red" stroke-width="0.1" points="229,-305.55 222.43,-297.24 222.38,-307.83 229,-305.55"/>
<text text-anchor="middle" x="246" y="-321.36" font-family="Times,serif" font-size="9.00">1.035</text>
</g>
</g>
</svg>
