<?xml version="1.0" encoding="UTF-8" standalone="no"?>
<!DOCTYPE svg PUBLIC "-//W3C//DTD SVG 1.1//EN"
 "http://www.w3.org/Graphics/SVG/1.1/DTD/svg11.dtd">
<!-- Generated by graphviz version 2.43.0 (0)
 -->
<!-- Title: %3 Pages: 1 -->
<svg width="507pt" height="892pt"
 viewBox="0.00 0.00 506.50 892.40" xmlns="http://www.w3.org/2000/svg" xmlns:xlink="http://www.w3.org/1999/xlink">
<g id="graph0" class="graph" transform="scale(1 1) rotate(0) translate(4 888.4)">
<title>%3</title>
<polygon fill="white" stroke="transparent" points="-4,4 -4,-888.4 502.5,-888.4 502.5,4 -4,4"/>
<!-- ready -->
<g id="node1" class="node">
<title>ready</title>
<polygon fill="yellow" stroke="black" points="43,-884.4 0,-884.4 0,-866.4 43,-866.4 43,-884.4"/>
<text text-anchor="middle" x="21.5" y="-873.2" font-family="Times,serif" font-size="9.00">ready</text>
</g>
<!-- key 28276
bias &#45;0.600
h_scaling 0.246 -->
<g id="node5" class="node">
<title>key 28276
bias &#45;0.600
h_scaling 0.246</title>
<ellipse fill="white" stroke="black" cx="338.5" cy="-756.76" rx="63.78" ry="63.78"/>
<text text-anchor="middle" x="338.5" y="-764.56" font-family="Times,serif" font-size="9.00">key 28276</text>
<text text-anchor="middle" x="338.5" y="-754.56" font-family="Times,serif" font-size="9.00">bias &#45;0.600</text>
<text text-anchor="middle" x="338.5" y="-744.56" font-family="Times,serif" font-size="9.00">h_scaling 0.246</text>
</g>
<!-- ready&#45;&gt;key 28276
bias &#45;0.600
h_scaling 0.246 -->
<g id="edge5" class="edge">
<title>ready&#45;&gt;key 28276
bias &#45;0.600
h_scaling 0.246</title>
<path fill="none" stroke="red" stroke-width="2.44" d="M43.29,-866.38C89.21,-849.48 197.59,-809.6 269.47,-783.16"/>
<polygon fill="red" stroke="red" stroke-width="2.44" points="270.75,-786.42 278.92,-779.68 268.33,-779.85 270.75,-786.42"/>
<text text-anchor="middle" x="129.5" y="-841.2" font-family="Times,serif" font-size="9.00">0.779</text>
</g>
<!-- key 6357
bias &#45;0.153
h_scaling 0.373 -->
<g id="node6" class="node">
<title>key 6357
bias &#45;0.153
h_scaling 0.373</title>
<ellipse fill="white" stroke="black" cx="139.5" cy="-410.2" rx="63.78" ry="63.78"/>
<text text-anchor="middle" x="139.5" y="-418" font-family="Times,serif" font-size="9.00">key 6357</text>
<text text-anchor="middle" x="139.5" y="-408" font-family="Times,serif" font-size="9.00">bias &#45;0.153</text>
<text text-anchor="middle" x="139.5" y="-398" font-family="Times,serif" font-size="9.00">h_scaling 0.373</text>
</g>
<!-- ready&#45;&gt;key 6357
bias &#45;0.153
h_scaling 0.373 -->
<g id="edge15" class="edge">
<title>ready&#45;&gt;key 6357
bias &#45;0.153
h_scaling 0.373</title>
<path fill="none" stroke="red" stroke-width="1.75" d="M20.44,-866.31C15.58,-826.79 -2.29,-650.48 46.5,-519.84 54.67,-497.95 69.4,-477.48 84.76,-460.34"/>
<polygon fill="red" stroke="red" stroke-width="1.75" points="87.61,-462.41 91.84,-452.7 82.48,-457.65 87.61,-462.41"/>
<text text-anchor="middle" x="30.5" y="-667.92" font-family="Times,serif" font-size="9.00">0.551</text>
</g>
<!-- go -->
<g id="node2" class="node">
<title>go</title>
<polygon fill="green" stroke="black" points="94.5,-765.76 66.5,-765.76 66.5,-747.76 94.5,-747.76 94.5,-765.76"/>
<text text-anchor="middle" x="80.5" y="-754.56" font-family="Times,serif" font-size="9.00">go</text>
</g>
<!-- go&#45;&gt;key 6357
bias &#45;0.153
h_scaling 0.373 -->
<g id="edge2" class="edge">
<title>go&#45;&gt;key 6357
bias &#45;0.153
h_scaling 0.373</title>
<path fill="none" stroke="blue" stroke-width="2.43" d="M77.48,-747.34C66.78,-716.22 32.79,-605.06 60.5,-519.84 66.79,-500.48 77.98,-481.69 89.99,-465.34"/>
<polygon fill="blue" stroke="blue" stroke-width="2.43" points="93.05,-467.09 96.32,-457.02 87.48,-462.85 93.05,-467.09"/>
<text text-anchor="middle" x="76" y="-581.28" font-family="Times,serif" font-size="9.00">&#45;0.775</text>
</g>
<!-- key 27319
bias &#45;0.274
h_scaling 0.000 -->
<g id="node7" class="node">
<title>key 27319
bias &#45;0.274
h_scaling 0.000</title>
<ellipse fill="white" stroke="black" cx="164.5" cy="-583.48" rx="63.78" ry="63.78"/>
<text text-anchor="middle" x="164.5" y="-591.28" font-family="Times,serif" font-size="9.00">key 27319</text>
<text text-anchor="middle" x="164.5" y="-581.28" font-family="Times,serif" font-size="9.00">bias &#45;0.274</text>
<text text-anchor="middle" x="164.5" y="-571.28" font-family="Times,serif" font-size="9.00">h_scaling 0.000</text>
</g>
<!-- go&#45;&gt;key 27319
bias &#45;0.274
h_scaling 0.000 -->
<g id="edge3" class="edge">
<title>go&#45;&gt;key 27319
bias &#45;0.274
h_scaling 0.000</title>
<path fill="none" stroke="red" stroke-width="3.1" d="M84.55,-747.5C93.16,-729.94 113.99,-687.47 132.23,-650.29"/>
<polygon fill="red" stroke="red" stroke-width="3.1" points="135.54,-651.48 136.8,-640.96 129.25,-648.4 135.54,-651.48"/>
<text text-anchor="middle" x="136.5" y="-667.92" font-family="Times,serif" font-size="9.00">1.000</text>
</g>
<!-- output
bias &#45;0.483
h_scaling 0.077 -->
<g id="node3" class="node">
<title>output
bias &#45;0.483
h_scaling 0.077</title>
<ellipse fill="lightblue" stroke="black" cx="300.5" cy="-236.92" rx="63.78" ry="63.78"/>
<text text-anchor="middle" x="300.5" y="-244.72" font-family="Times,serif" font-size="9.00">output</text>
<text text-anchor="middle" x="300.5" y="-234.72" font-family="Times,serif" font-size="9.00">bias &#45;0.483</text>
<text text-anchor="middle" x="300.5" y="-224.72" font-family="Times,serif" font-size="9.00">h_scaling 0.077</text>
</g>
<!-- key 65476
bias &#45;0.315
h_scaling 0.692 -->
<g id="node4" class="node">
<title>key 65476
bias &#45;0.315
h_scaling 0.692</title>
<ellipse fill="white" stroke="black" cx="406.5" cy="-63.64" rx="63.78" ry="63.78"/>
<text text-anchor="middle" x="406.5" y="-71.44" font-family="Times,serif" font-size="9.00">key 65476</text>
<text text-anchor="middle" x="406.5" y="-61.44" font-family="Times,serif" font-size="9.00">bias &#45;0.315</text>
<text text-anchor="middle" x="406.5" y="-51.44" font-family="Times,serif" font-size="9.00">h_scaling 0.692</text>
</g>
<!-- output
bias &#45;0.483
h_scaling 0.077&#45;&gt;key 65476
bias &#45;0.315
h_scaling 0.692 -->
<g id="edge12" class="edge">
<title>output
bias &#45;0.483
h_scaling 0.077&#45;&gt;key 65476
bias &#45;0.315
h_scaling 0.692</title>
<path fill="none" stroke="blue" stroke-width="0.57" d="M333.75,-182.19C344.6,-164.66 356.74,-145.04 367.95,-126.93"/>
<polygon fill="blue" stroke="blue" stroke-width="0.57" points="371.08,-128.52 373.37,-118.17 365.13,-124.83 371.08,-128.52"/>
<text text-anchor="middle" x="369" y="-148.08" font-family="Times,serif" font-size="9.00">&#45;0.157</text>
</g>
<!-- key 65476
bias &#45;0.315
h_scaling 0.692&#45;&gt;key 28276
bias &#45;0.600
h_scaling 0.246 -->
<g id="edge11" class="edge">
<title>key 65476
bias &#45;0.315
h_scaling 0.692&#45;&gt;key 28276
bias &#45;0.600
h_scaling 0.246</title>
<path fill="none" stroke="red" stroke-width="2.17" d="M438.13,-119.04C454.25,-151.8 470.5,-194.97 470.5,-235.92 470.5,-584.48 470.5,-584.48 470.5,-584.48 470.5,-635.78 432.88,-681.12 397.81,-712.25"/>
<polygon fill="red" stroke="red" stroke-width="2.17" points="395.2,-709.88 389.91,-719.06 399.77,-715.18 395.2,-709.88"/>
<text text-anchor="middle" x="484.5" y="-408" font-family="Times,serif" font-size="9.00">0.691</text>
</g>
<!-- key 28276
bias &#45;0.600
h_scaling 0.246&#45;&gt;output
bias &#45;0.483
h_scaling 0.077 -->
<g id="edge14" class="edge">
<title>key 28276
bias &#45;0.600
h_scaling 0.246&#45;&gt;output
bias &#45;0.483
h_scaling 0.077</title>
<path fill="none" stroke="red" stroke-width="0.72" d="M347.91,-693.56C349.81,-678.4 351.53,-662.2 352.5,-647.12 361.08,-513.39 354.46,-478.03 328.5,-346.56 326.06,-334.19 323.06,-321.14 319.95,-308.54"/>
<polygon fill="red" stroke="red" stroke-width="0.72" points="323.27,-307.39 317.43,-298.54 316.48,-309.1 323.27,-307.39"/>
<text text-anchor="middle" x="368.5" y="-494.64" font-family="Times,serif" font-size="9.00">0.206</text>
</g>
<!-- key 28276
bias &#45;0.600
h_scaling 0.246&#45;&gt;key 65476
bias &#45;0.315
h_scaling 0.692 -->
<g id="edge10" class="edge">
<title>key 28276
bias &#45;0.600
h_scaling 0.246&#45;&gt;key 65476
bias &#45;0.315
h_scaling 0.692</title>
<path fill="none" stroke="red" stroke-width="2.9" d="M371.7,-702.35C388.96,-669.59 406.5,-626.07 406.5,-584.48 406.5,-584.48 406.5,-584.48 406.5,-235.92 406.5,-203.59 406.5,-167.83 406.5,-137.39"/>
<polygon fill="red" stroke="red" stroke-width="2.9" points="410,-137.28 406.5,-127.28 403,-137.28 410,-137.28"/>
<text text-anchor="middle" x="420.5" y="-408" font-family="Times,serif" font-size="9.00">0.934</text>
</g>
<!-- key 28276
bias &#45;0.600
h_scaling 0.246&#45;&gt;key 6357
bias &#45;0.153
h_scaling 0.373 -->
<g id="edge6" class="edge">
<title>key 28276
bias &#45;0.600
h_scaling 0.246&#45;&gt;key 6357
bias &#45;0.153
h_scaling 0.373</title>
<path fill="none" stroke="red" stroke-width="1.06" d="M328.93,-693.57C318.85,-633.68 301.9,-548.13 283.5,-519.84 263.77,-489.51 232.51,-464.42 204.16,-446.03"/>
<polygon fill="red" stroke="red" stroke-width="1.06" points="205.79,-442.92 195.46,-440.54 202.05,-448.84 205.79,-442.92"/>
<text text-anchor="middle" x="334.5" y="-581.28" font-family="Times,serif" font-size="9.00">0.321</text>
</g>
<!-- key 28276
bias &#45;0.600
h_scaling 0.246&#45;&gt;key 27319
bias &#45;0.274
h_scaling 0.000 -->
<g id="edge8" class="edge">
<title>key 28276
bias &#45;0.600
h_scaling 0.246&#45;&gt;key 27319
bias &#45;0.274
h_scaling 0.000</title>
<path fill="none" stroke="blue" stroke-width="2.27" d="M293.24,-711.2C269.88,-688.21 241.25,-660.03 216.93,-636.09"/>
<polygon fill="blue" stroke="blue" stroke-width="2.27" points="219.12,-633.33 209.54,-628.81 214.21,-638.32 219.12,-633.33"/>
<text text-anchor="middle" x="267" y="-667.92" font-family="Times,serif" font-size="9.00">&#45;0.724</text>
</g>
<!-- key 6357
bias &#45;0.153
h_scaling 0.373&#45;&gt;output
bias &#45;0.483
h_scaling 0.077 -->
<g id="edge1" class="edge">
<title>key 6357
bias &#45;0.153
h_scaling 0.373&#45;&gt;output
bias &#45;0.483
h_scaling 0.077</title>
<path fill="none" stroke="red" stroke-width="3.09" d="M182.65,-363.3C203.49,-341.12 228.63,-314.38 250.32,-291.3"/>
<polygon fill="red" stroke="red" stroke-width="3.09" points="252.94,-293.63 257.24,-283.95 247.84,-288.83 252.94,-293.63"/>
<text text-anchor="middle" x="234.5" y="-321.36" font-family="Times,serif" font-size="9.00">0.997</text>
</g>
<!-- key 6357
bias &#45;0.153
h_scaling 0.373&#45;&gt;key 6357
bias &#45;0.153
h_scaling 0.373 -->
<g id="edge9" class="edge">
<title>key 6357
bias &#45;0.153
h_scaling 0.373&#45;&gt;key 6357
bias &#45;0.153
h_scaling 0.373</title>
<path fill="none" stroke="red" stroke-width="2.84" d="M201.44,-425.5C213,-423.61 221.14,-418.51 221.14,-410.2 221.14,-404.48 217.29,-400.29 211.13,-397.61"/>
<polygon fill="red" stroke="red" stroke-width="2.84" points="212.02,-394.22 201.44,-394.9 210.13,-400.96 212.02,-394.22"/>
<text text-anchor="middle" x="235.14" y="-408" font-family="Times,serif" font-size="9.00">0.913</text>
</g>
<!-- key 27319
bias &#45;0.274
h_scaling 0.000&#45;&gt;output
bias &#45;0.483
h_scaling 0.077 -->
<g id="edge13" class="edge">
<title>key 27319
bias &#45;0.274
h_scaling 0.000&#45;&gt;output
bias &#45;0.483
h_scaling 0.077</title>
<path fill="none" stroke="blue" stroke-width="2.94" d="M211.05,-539.65C228.54,-521.07 246.97,-498.04 258.5,-473.84 282.94,-422.56 293.25,-358.87 297.56,-310.59"/>
<polygon fill="blue" stroke="blue" stroke-width="2.94" points="301.06,-310.79 298.39,-300.54 294.08,-310.22 301.06,-310.79"/>
<text text-anchor="middle" x="309" y="-408" font-family="Times,serif" font-size="9.00">&#45;0.948</text>
</g>
<!-- key 27319
bias &#45;0.274
h_scaling 0.000&#45;&gt;key 6357
bias &#45;0.153
h_scaling 0.373 -->
<g id="edge4" class="edge">
<title>key 27319
bias &#45;0.274
h_scaling 0.000&#45;&gt;key 6357
bias &#45;0.153
h_scaling 0.373</title>
<path fill="none" stroke="blue" stroke-width="3.03" d="M155.4,-520.16C153.67,-508.28 151.84,-495.75 150.07,-483.58"/>
<polygon fill="blue" stroke="blue" stroke-width="3.03" points="153.5,-482.86 148.59,-473.47 146.57,-483.87 153.5,-482.86"/>
<text text-anchor="middle" x="168" y="-494.64" font-family="Times,serif" font-size="9.00">&#45;0.975</text>
</g>
<!-- key 27319
bias &#45;0.274
h_scaling 0.000&#45;&gt;key 27319
bias &#45;0.274
h_scaling 0.000 -->
<g id="edge7" class="edge">
<title>key 27319
bias &#45;0.274
h_scaling 0.000&#45;&gt;key 27319
bias &#45;0.274
h_scaling 0.000</title>
<path fill="none" stroke="red" stroke-width="2.34" d="M226.44,-598.77C238,-596.89 246.14,-591.79 246.14,-583.48 246.14,-577.76 242.29,-573.56 236.13,-570.89"/>
<polygon fill="red" stroke="red" stroke-width="2.34" points="237.02,-567.5 226.44,-568.18 235.13,-574.24 237.02,-567.5"/>
<text text-anchor="middle" x="260.14" y="-581.28" font-family="Times,serif" font-size="9.00">0.746</text>
</g>
</g>
</svg>
