<?xml version="1.0" encoding="UTF-8" standalone="no"?>
<!DOCTYPE svg PUBLIC "-//W3C//DTD SVG 1.1//EN"
 "http://www.w3.org/Graphics/SVG/1.1/DTD/svg11.dtd">
<!-- Generated by graphviz version 2.43.0 (0)
 -->
<!-- Title: %3 Pages: 1 -->
<svg width="378pt" height="719pt"
 viewBox="0.00 0.00 378.20 719.12" xmlns="http://www.w3.org/2000/svg" xmlns:xlink="http://www.w3.org/1999/xlink">
<g id="graph0" class="graph" transform="scale(1 1) rotate(0) translate(4 715.12)">
<title>%3</title>
<polygon fill="white" stroke="transparent" points="-4,4 -4,-715.12 374.2,-715.12 374.2,4 -4,4"/>
<!-- ready -->
<g id="node1" class="node">
<title>ready</title>
<polygon fill="yellow" stroke="black" points="336.06,-711.12 293.06,-711.12 293.06,-693.12 336.06,-693.12 336.06,-711.12"/>
<text text-anchor="middle" x="314.56" y="-699.92" font-family="Times,serif" font-size="9.00">ready</text>
</g>
<!-- key 245476
bias &#45;0.505
h_scaling 0.228 -->
<g id="node5" class="node">
<title>key 245476
bias &#45;0.505
h_scaling 0.228</title>
<ellipse fill="white" stroke="black" cx="122.56" cy="-583.48" rx="63.78" ry="63.78"/>
<text text-anchor="middle" x="122.56" y="-591.28" font-family="Times,serif" font-size="9.00">key 245476</text>
<text text-anchor="middle" x="122.56" y="-581.28" font-family="Times,serif" font-size="9.00">bias &#45;0.505</text>
<text text-anchor="middle" x="122.56" y="-571.28" font-family="Times,serif" font-size="9.00">h_scaling 0.228</text>
</g>
<!-- ready&#45;&gt;key 245476
bias &#45;0.505
h_scaling 0.228 -->
<g id="edge8" class="edge">
<title>ready&#45;&gt;key 245476
bias &#45;0.505
h_scaling 0.228</title>
<path fill="none" stroke="red" stroke-width="3.1" d="M301.37,-693.1C277.8,-678.78 227.05,-647.95 185.62,-622.78"/>
<polygon fill="red" stroke="red" stroke-width="3.1" points="187.29,-619.71 176.93,-617.5 183.66,-625.69 187.29,-619.71"/>
<text text-anchor="middle" x="281.56" y="-667.92" font-family="Times,serif" font-size="9.00">1.000</text>
</g>
<!-- key 238905
bias &#45;0.937
h_scaling 0.992 -->
<g id="node6" class="node">
<title>key 238905
bias &#45;0.937
h_scaling 0.992</title>
<ellipse fill="white" stroke="black" cx="260.56" cy="-236.92" rx="63.78" ry="63.78"/>
<text text-anchor="middle" x="260.56" y="-244.72" font-family="Times,serif" font-size="9.00">key 238905</text>
<text text-anchor="middle" x="260.56" y="-234.72" font-family="Times,serif" font-size="9.00">bias &#45;0.937</text>
<text text-anchor="middle" x="260.56" y="-224.72" font-family="Times,serif" font-size="9.00">h_scaling 0.992</text>
</g>
<!-- ready&#45;&gt;key 238905
bias &#45;0.937
h_scaling 0.992 -->
<g id="edge7" class="edge">
<title>ready&#45;&gt;key 238905
bias &#45;0.937
h_scaling 0.992</title>
<path fill="none" stroke="red" stroke-width="1.44" d="M313.97,-693.01C310.96,-652.52 296.61,-468.2 274.56,-318.56 274.15,-315.72 273.71,-312.84 273.25,-309.92"/>
<polygon fill="red" stroke="red" stroke-width="1.44" points="276.69,-309.27 271.66,-299.94 269.78,-310.37 276.69,-309.27"/>
<text text-anchor="middle" x="310.56" y="-494.64" font-family="Times,serif" font-size="9.00">0.446</text>
</g>
<!-- go -->
<g id="node2" class="node">
<title>go</title>
<polygon fill="green" stroke="black" points="136.56,-711.12 108.56,-711.12 108.56,-693.12 136.56,-693.12 136.56,-711.12"/>
<text text-anchor="middle" x="122.56" y="-699.92" font-family="Times,serif" font-size="9.00">go</text>
</g>
<!-- key 488
bias &#45;0.463
h_scaling 0.826 -->
<g id="node4" class="node">
<title>key 488
bias &#45;0.463
h_scaling 0.826</title>
<ellipse fill="white" stroke="black" cx="102.56" cy="-410.2" rx="63.78" ry="63.78"/>
<text text-anchor="middle" x="102.56" y="-418" font-family="Times,serif" font-size="9.00">key 488</text>
<text text-anchor="middle" x="102.56" y="-408" font-family="Times,serif" font-size="9.00">bias &#45;0.463</text>
<text text-anchor="middle" x="102.56" y="-398" font-family="Times,serif" font-size="9.00">h_scaling 0.826</text>
</g>
<!-- go&#45;&gt;key 488
bias &#45;0.463
h_scaling 0.826 -->
<g id="edge2" class="edge">
<title>go&#45;&gt;key 488
bias &#45;0.463
h_scaling 0.826</title>
<path fill="none" stroke="blue" stroke-width="2.9" d="M108.28,-698.55C84.7,-693.46 38.32,-679.63 18.56,-647.12 -10.81,-598.77 0.28,-573.37 18.56,-519.84 25.48,-499.58 37.88,-480.16 51.07,-463.49"/>
<polygon fill="blue" stroke="blue" stroke-width="2.9" points="53.96,-465.49 57.59,-455.54 48.54,-461.06 53.96,-465.49"/>
<text text-anchor="middle" x="34.06" y="-581.28" font-family="Times,serif" font-size="9.00">&#45;0.934</text>
</g>
<!-- go&#45;&gt;key 245476
bias &#45;0.505
h_scaling 0.228 -->
<g id="edge13" class="edge">
<title>go&#45;&gt;key 245476
bias &#45;0.505
h_scaling 0.228</title>
<path fill="none" stroke="red" stroke-width="0.98" d="M122.56,-693.1C122.56,-685.07 122.56,-671.85 122.56,-657.35"/>
<polygon fill="red" stroke="red" stroke-width="0.98" points="126.06,-657.15 122.56,-647.15 119.06,-657.15 126.06,-657.15"/>
<text text-anchor="middle" x="136.56" y="-667.92" font-family="Times,serif" font-size="9.00">0.293</text>
</g>
<!-- go&#45;&gt;key 238905
bias &#45;0.937
h_scaling 0.992 -->
<g id="edge6" class="edge">
<title>go&#45;&gt;key 238905
bias &#45;0.937
h_scaling 0.992</title>
<path fill="none" stroke="blue" stroke-width="2.47" d="M136.58,-699.44C162.41,-695.52 217.13,-683.18 241.56,-647.12 259.89,-620.07 261.7,-421 261.26,-310.82"/>
<polygon fill="blue" stroke="blue" stroke-width="2.47" points="264.76,-310.75 261.21,-300.76 257.76,-310.78 264.76,-310.75"/>
<text text-anchor="middle" x="274.06" y="-494.64" font-family="Times,serif" font-size="9.00">&#45;0.792</text>
</g>
<!-- output
bias &#45;1.000
h_scaling 0.142 -->
<g id="node3" class="node">
<title>output
bias &#45;1.000
h_scaling 0.142</title>
<ellipse fill="lightblue" stroke="black" cx="147.56" cy="-63.64" rx="63.78" ry="63.78"/>
<text text-anchor="middle" x="147.56" y="-71.44" font-family="Times,serif" font-size="9.00">output</text>
<text text-anchor="middle" x="147.56" y="-61.44" font-family="Times,serif" font-size="9.00">bias &#45;1.000</text>
<text text-anchor="middle" x="147.56" y="-51.44" font-family="Times,serif" font-size="9.00">h_scaling 0.142</text>
</g>
<!-- output
bias &#45;1.000
h_scaling 0.142&#45;&gt;key 488
bias &#45;0.463
h_scaling 0.826 -->
<g id="edge12" class="edge">
<title>output
bias &#45;1.000
h_scaling 0.142&#45;&gt;key 488
bias &#45;0.463
h_scaling 0.826</title>
<path fill="none" stroke="blue" stroke-width="0.5" d="M143.69,-127.47C140.27,-175.14 134.43,-242.2 125.56,-300.56 123.71,-312.74 121.35,-325.61 118.85,-338.07"/>
<polygon fill="blue" stroke="blue" stroke-width="0.5" points="115.41,-337.45 116.82,-347.95 122.26,-338.86 115.41,-337.45"/>
<text text-anchor="middle" x="156.06" y="-234.72" font-family="Times,serif" font-size="9.00">&#45;0.133</text>
</g>
<!-- key 488
bias &#45;0.463
h_scaling 0.826&#45;&gt;output
bias &#45;1.000
h_scaling 0.142 -->
<g id="edge1" class="edge">
<title>key 488
bias &#45;0.463
h_scaling 0.826&#45;&gt;output
bias &#45;1.000
h_scaling 0.142</title>
<path fill="none" stroke="red" stroke-width="1.86" d="M93.33,-346.83C88.12,-298.82 84.89,-231.11 97.56,-173.28 100.84,-158.31 106.39,-142.93 112.62,-128.64"/>
<polygon fill="red" stroke="red" stroke-width="1.86" points="115.86,-129.97 116.8,-119.41 109.49,-127.08 115.86,-129.97"/>
<text text-anchor="middle" x="111.56" y="-234.72" font-family="Times,serif" font-size="9.00">0.586</text>
</g>
<!-- key 488
bias &#45;0.463
h_scaling 0.826&#45;&gt;key 488
bias &#45;0.463
h_scaling 0.826 -->
<g id="edge3" class="edge">
<title>key 488
bias &#45;0.463
h_scaling 0.826&#45;&gt;key 488
bias &#45;0.463
h_scaling 0.826</title>
<path fill="none" stroke="red" stroke-width="2.82" d="M164.51,-425.5C176.06,-423.61 184.2,-418.51 184.2,-410.2 184.2,-404.48 180.36,-400.29 174.2,-397.61"/>
<polygon fill="red" stroke="red" stroke-width="2.82" points="175.08,-394.22 164.51,-394.9 173.19,-400.96 175.08,-394.22"/>
<text text-anchor="middle" x="198.2" y="-408" font-family="Times,serif" font-size="9.00">0.908</text>
</g>
<!-- key 488
bias &#45;0.463
h_scaling 0.826&#45;&gt;key 245476
bias &#45;0.505
h_scaling 0.228 -->
<g id="edge14" class="edge">
<title>key 488
bias &#45;0.463
h_scaling 0.826&#45;&gt;key 245476
bias &#45;0.505
h_scaling 0.228</title>
<path fill="none" stroke="red" stroke-width="0.55" d="M82.65,-470.75C81.3,-481.13 81.27,-491.81 83.56,-501.84 84.78,-507.14 86.39,-512.51 88.27,-517.81"/>
<polygon fill="red" stroke="red" stroke-width="0.55" points="85.05,-519.19 91.91,-527.27 91.58,-516.68 85.05,-519.19"/>
<text text-anchor="middle" x="97.56" y="-494.64" font-family="Times,serif" font-size="9.00">0.151</text>
</g>
<!-- key 488
bias &#45;0.463
h_scaling 0.826&#45;&gt;key 238905
bias &#45;0.937
h_scaling 0.992 -->
<g id="edge4" class="edge">
<title>key 488
bias &#45;0.463
h_scaling 0.826&#45;&gt;key 238905
bias &#45;0.937
h_scaling 0.992</title>
<path fill="none" stroke="red" stroke-width="3.1" d="M145.32,-362.85C165.52,-340.95 189.75,-314.68 210.78,-291.89"/>
<polygon fill="red" stroke="red" stroke-width="3.1" points="213.56,-294.03 217.77,-284.31 208.42,-289.28 213.56,-294.03"/>
<text text-anchor="middle" x="195.56" y="-321.36" font-family="Times,serif" font-size="9.00">1.000</text>
</g>
<!-- key 245476
bias &#45;0.505
h_scaling 0.228&#45;&gt;key 488
bias &#45;0.463
h_scaling 0.826 -->
<g id="edge9" class="edge">
<title>key 245476
bias &#45;0.505
h_scaling 0.228&#45;&gt;key 488
bias &#45;0.463
h_scaling 0.826</title>
<path fill="none" stroke="red" stroke-width="1.07" d="M118.38,-519.51C117.56,-510.22 116.63,-500.77 115.56,-491.84 115.23,-489 114.86,-486.11 114.47,-483.19"/>
<polygon fill="red" stroke="red" stroke-width="1.07" points="117.93,-482.63 113.09,-473.2 111,-483.59 117.93,-482.63"/>
<text text-anchor="middle" x="131.56" y="-494.64" font-family="Times,serif" font-size="9.00">0.325</text>
</g>
<!-- key 245476
bias &#45;0.505
h_scaling 0.228&#45;&gt;key 245476
bias &#45;0.505
h_scaling 0.228 -->
<g id="edge11" class="edge">
<title>key 245476
bias &#45;0.505
h_scaling 0.228&#45;&gt;key 245476
bias &#45;0.505
h_scaling 0.228</title>
<path fill="none" stroke="red" stroke-width="1.73" d="M184.51,-598.77C196.06,-596.89 204.2,-591.79 204.2,-583.48 204.2,-577.76 200.36,-573.56 194.2,-570.89"/>
<polygon fill="red" stroke="red" stroke-width="1.73" points="195.08,-567.5 184.51,-568.18 193.19,-574.24 195.08,-567.5"/>
<text text-anchor="middle" x="218.2" y="-581.28" font-family="Times,serif" font-size="9.00">0.542</text>
</g>
<!-- key 238905
bias &#45;0.937
h_scaling 0.992&#45;&gt;output
bias &#45;1.000
h_scaling 0.142 -->
<g id="edge5" class="edge">
<title>key 238905
bias &#45;0.937
h_scaling 0.992&#45;&gt;output
bias &#45;1.000
h_scaling 0.142</title>
<path fill="none" stroke="red" stroke-width="3.1" d="M225.74,-183.13C213.76,-164.98 200.25,-144.5 187.87,-125.74"/>
<polygon fill="red" stroke="red" stroke-width="3.1" points="190.7,-123.67 182.27,-117.25 184.86,-127.53 190.7,-123.67"/>
<text text-anchor="middle" x="217.56" y="-148.08" font-family="Times,serif" font-size="9.00">1.000</text>
</g>
<!-- key 238905
bias &#45;0.937
h_scaling 0.992&#45;&gt;key 238905
bias &#45;0.937
h_scaling 0.992 -->
<g id="edge10" class="edge">
<title>key 238905
bias &#45;0.937
h_scaling 0.992&#45;&gt;key 238905
bias &#45;0.937
h_scaling 0.992</title>
<path fill="none" stroke="red" stroke-width="2.84" d="M322.51,-252.22C334.06,-250.33 342.2,-245.23 342.2,-236.92 342.2,-231.2 338.36,-227.01 332.2,-224.33"/>
<polygon fill="red" stroke="red" stroke-width="2.84" points="333.08,-220.94 322.51,-221.62 331.19,-227.68 333.08,-220.94"/>
<text text-anchor="middle" x="356.2" y="-234.72" font-family="Times,serif" font-size="9.00">0.914</text>
</g>
</g>
</svg>
