<?xml version="1.0" encoding="UTF-8" standalone="no"?>
<!DOCTYPE svg PUBLIC "-//W3C//DTD SVG 1.1//EN"
 "http://www.w3.org/Graphics/SVG/1.1/DTD/svg11.dtd">
<!-- Generated by graphviz version 2.43.0 (0)
 -->
<!-- Title: %3 Pages: 1 -->
<svg width="345pt" height="719pt"
 viewBox="0.00 0.00 344.66 719.12" xmlns="http://www.w3.org/2000/svg" xmlns:xlink="http://www.w3.org/1999/xlink">
<g id="graph0" class="graph" transform="scale(1 1) rotate(0) translate(4 715.12)">
<title>%3</title>
<polygon fill="white" stroke="transparent" points="-4,4 -4,-715.12 340.66,-715.12 340.66,4 -4,4"/>
<!-- ready -->
<g id="node1" class="node">
<title>ready</title>
<polygon fill="yellow" stroke="black" points="302.52,-711.12 259.52,-711.12 259.52,-693.12 302.52,-693.12 302.52,-711.12"/>
<text text-anchor="middle" x="281.02" y="-699.92" font-family="Times,serif" font-size="9.00">ready</text>
</g>
<!-- key 245476
bias &#45;0.505
h_scaling 0.228 -->
<g id="node5" class="node">
<title>key 245476
bias &#45;0.505
h_scaling 0.228</title>
<ellipse fill="white" stroke="black" cx="89.02" cy="-583.48" rx="63.78" ry="63.78"/>
<text text-anchor="middle" x="89.02" y="-591.28" font-family="Times,serif" font-size="9.00">key 245476</text>
<text text-anchor="middle" x="89.02" y="-581.28" font-family="Times,serif" font-size="9.00">bias &#45;0.505</text>
<text text-anchor="middle" x="89.02" y="-571.28" font-family="Times,serif" font-size="9.00">h_scaling 0.228</text>
</g>
<!-- ready&#45;&gt;key 245476
bias &#45;0.505
h_scaling 0.228 -->
<g id="edge8" class="edge">
<title>ready&#45;&gt;key 245476
bias &#45;0.505
h_scaling 0.228</title>
<path fill="none" stroke="red" stroke-width="0.97" d="M267.82,-693.1C244.25,-678.78 193.5,-647.95 152.07,-622.78"/>
<polygon fill="red" stroke="red" stroke-width="0.97" points="153.75,-619.71 143.39,-617.5 150.12,-625.69 153.75,-619.71"/>
<text text-anchor="middle" x="248.02" y="-667.92" font-family="Times,serif" font-size="9.00">0.029</text>
</g>
<!-- key 238905
bias &#45;0.937
h_scaling 0.992 -->
<g id="node6" class="node">
<title>key 238905
bias &#45;0.937
h_scaling 0.992</title>
<ellipse fill="white" stroke="black" cx="227.02" cy="-236.92" rx="63.78" ry="63.78"/>
<text text-anchor="middle" x="227.02" y="-244.72" font-family="Times,serif" font-size="9.00">key 238905</text>
<text text-anchor="middle" x="227.02" y="-234.72" font-family="Times,serif" font-size="9.00">bias &#45;0.937</text>
<text text-anchor="middle" x="227.02" y="-224.72" font-family="Times,serif" font-size="9.00">h_scaling 0.992</text>
</g>
<!-- ready&#45;&gt;key 238905
bias &#45;0.937
h_scaling 0.992 -->
<g id="edge7" class="edge">
<title>ready&#45;&gt;key 238905
bias &#45;0.937
h_scaling 0.992</title>
<path fill="none" stroke="red" stroke-width="2.48" d="M280.38,-693.02C277.13,-652.56 261.83,-468.37 241.02,-318.56 240.63,-315.72 240.21,-312.83 239.77,-309.91"/>
<polygon fill="red" stroke="red" stroke-width="2.48" points="243.21,-309.27 238.22,-299.93 236.3,-310.35 243.21,-309.27"/>
<text text-anchor="middle" x="276.02" y="-494.64" font-family="Times,serif" font-size="9.00">0.079</text>
</g>
<!-- go -->
<g id="node2" class="node">
<title>go</title>
<polygon fill="green" stroke="black" points="103.02,-711.12 75.02,-711.12 75.02,-693.12 103.02,-693.12 103.02,-711.12"/>
<text text-anchor="middle" x="89.02" y="-699.92" font-family="Times,serif" font-size="9.00">go</text>
</g>
<!-- key 488
bias &#45;0.463
h_scaling 0.826 -->
<g id="node4" class="node">
<title>key 488
bias &#45;0.463
h_scaling 0.826</title>
<ellipse fill="white" stroke="black" cx="84.02" cy="-410.2" rx="63.78" ry="63.78"/>
<text text-anchor="middle" x="84.02" y="-418" font-family="Times,serif" font-size="9.00">key 488</text>
<text text-anchor="middle" x="84.02" y="-408" font-family="Times,serif" font-size="9.00">bias &#45;0.463</text>
<text text-anchor="middle" x="84.02" y="-398" font-family="Times,serif" font-size="9.00">h_scaling 0.826</text>
</g>
<!-- go&#45;&gt;key 488
bias &#45;0.463
h_scaling 0.826 -->
<g id="edge2" class="edge">
<title>go&#45;&gt;key 488
bias &#45;0.463
h_scaling 0.826</title>
<path fill="none" stroke="blue" stroke-width="0.1" d="M74.85,-695.45C57.32,-687.57 28.3,-671.47 16.02,-647.12 -9.45,-596.6 0.41,-574.21 16.02,-519.84 21.07,-502.24 29.9,-484.74 39.55,-469.08"/>
<polygon fill="blue" stroke="blue" stroke-width="0.1" points="42.55,-470.9 44.98,-460.59 36.65,-467.13 42.55,-470.9"/>
</g>
<!-- go&#45;&gt;key 245476
bias &#45;0.505
h_scaling 0.228 -->
<g id="edge13" class="edge">
<title>go&#45;&gt;key 245476
bias &#45;0.505
h_scaling 0.228</title>
<path fill="none" stroke="red" stroke-width="1.21" d="M89.02,-693.1C89.02,-685.07 89.02,-671.85 89.02,-657.35"/>
<polygon fill="red" stroke="red" stroke-width="1.21" points="92.52,-657.15 89.02,-647.15 85.52,-657.15 92.52,-657.15"/>
<text text-anchor="middle" x="103.02" y="-667.92" font-family="Times,serif" font-size="9.00">0.037</text>
</g>
<!-- go&#45;&gt;key 238905
bias &#45;0.937
h_scaling 0.992 -->
<g id="edge6" class="edge">
<title>go&#45;&gt;key 238905
bias &#45;0.937
h_scaling 0.992</title>
<path fill="none" stroke="blue" stroke-width="0.1" d="M103.03,-699.44C128.86,-695.52 183.58,-683.18 208.02,-647.12 243.93,-594.13 238.73,-413.34 232.48,-310.68"/>
<polygon fill="blue" stroke="blue" stroke-width="0.1" points="235.98,-310.45 231.86,-300.69 228.99,-310.89 235.98,-310.45"/>
</g>
<!-- output
bias &#45;1.000
h_scaling 0.142 -->
<g id="node3" class="node">
<title>output
bias &#45;1.000
h_scaling 0.142</title>
<ellipse fill="lightblue" stroke="black" cx="135.02" cy="-63.64" rx="63.78" ry="63.78"/>
<text text-anchor="middle" x="135.02" y="-71.44" font-family="Times,serif" font-size="9.00">output</text>
<text text-anchor="middle" x="135.02" y="-61.44" font-family="Times,serif" font-size="9.00">bias &#45;1.000</text>
<text text-anchor="middle" x="135.02" y="-51.44" font-family="Times,serif" font-size="9.00">h_scaling 0.142</text>
</g>
<!-- output
bias &#45;1.000
h_scaling 0.142&#45;&gt;key 488
bias &#45;0.463
h_scaling 0.826 -->
<g id="edge12" class="edge">
<title>output
bias &#45;1.000
h_scaling 0.142&#45;&gt;key 488
bias &#45;0.463
h_scaling 0.826</title>
<path fill="none" stroke="blue" stroke-width="0.1" d="M135.86,-127.3C135.4,-175.18 132.4,-242.58 121.02,-300.56 118.4,-313.93 114.53,-327.91 110.28,-341.23"/>
<polygon fill="blue" stroke="blue" stroke-width="0.1" points="106.94,-340.19 107.13,-350.78 113.58,-342.38 106.94,-340.19"/>
</g>
<!-- key 488
bias &#45;0.463
h_scaling 0.826&#45;&gt;output
bias &#45;1.000
h_scaling 0.142 -->
<g id="edge1" class="edge">
<title>key 488
bias &#45;0.463
h_scaling 0.826&#45;&gt;output
bias &#45;1.000
h_scaling 0.142</title>
<path fill="none" stroke="red" stroke-width="0.57" d="M80.83,-346.43C79.73,-298.5 81.09,-231.08 93.02,-173.28 95.86,-159.49 100.27,-145.17 105.17,-131.63"/>
<polygon fill="red" stroke="red" stroke-width="0.57" points="108.58,-132.51 108.81,-121.92 102.02,-130.05 108.58,-132.51"/>
<text text-anchor="middle" x="107.02" y="-234.72" font-family="Times,serif" font-size="9.00">0.016</text>
</g>
<!-- key 488
bias &#45;0.463
h_scaling 0.826&#45;&gt;key 488
bias &#45;0.463
h_scaling 0.826 -->
<g id="edge3" class="edge">
<title>key 488
bias &#45;0.463
h_scaling 0.826&#45;&gt;key 488
bias &#45;0.463
h_scaling 0.826</title>
<path fill="none" stroke="red" stroke-width="3.04" d="M145.96,-425.5C157.52,-423.61 165.66,-418.51 165.66,-410.2 165.66,-404.48 161.81,-400.29 155.65,-397.61"/>
<polygon fill="red" stroke="red" stroke-width="3.04" points="156.54,-394.22 145.96,-394.9 154.65,-400.96 156.54,-394.22"/>
<text text-anchor="middle" x="179.66" y="-408" font-family="Times,serif" font-size="9.00">0.098</text>
</g>
<!-- key 488
bias &#45;0.463
h_scaling 0.826&#45;&gt;key 245476
bias &#45;0.505
h_scaling 0.228 -->
<g id="edge14" class="edge">
<title>key 488
bias &#45;0.463
h_scaling 0.826&#45;&gt;key 245476
bias &#45;0.505
h_scaling 0.228</title>
<path fill="none" stroke="red" stroke-width="0.57" d="M59.16,-468.83C56.85,-479.71 56.02,-491.05 58.02,-501.84 58.83,-506.19 59.86,-510.6 61.05,-515.01"/>
<polygon fill="red" stroke="red" stroke-width="0.57" points="57.71,-516.04 63.91,-524.63 64.42,-514.05 57.71,-516.04"/>
<text text-anchor="middle" x="72.02" y="-494.64" font-family="Times,serif" font-size="9.00">0.016</text>
</g>
<!-- key 488
bias &#45;0.463
h_scaling 0.826&#45;&gt;key 238905
bias &#45;0.937
h_scaling 0.992 -->
<g id="edge4" class="edge">
<title>key 488
bias &#45;0.463
h_scaling 0.826&#45;&gt;key 238905
bias &#45;0.937
h_scaling 0.992</title>
<path fill="none" stroke="red" stroke-width="0.9" d="M124.62,-360.57C141.9,-339.87 162.16,-315.6 180.08,-294.14"/>
<polygon fill="red" stroke="red" stroke-width="0.9" points="182.85,-296.29 186.57,-286.37 177.48,-291.8 182.85,-296.29"/>
<text text-anchor="middle" x="169.02" y="-321.36" font-family="Times,serif" font-size="9.00">0.027</text>
</g>
<!-- key 245476
bias &#45;0.505
h_scaling 0.228&#45;&gt;key 488
bias &#45;0.463
h_scaling 0.826 -->
<g id="edge9" class="edge">
<title>key 245476
bias &#45;0.505
h_scaling 0.228&#45;&gt;key 488
bias &#45;0.463
h_scaling 0.826</title>
<path fill="none" stroke="red" stroke-width="0.57" d="M90.5,-519.57C90.49,-510.27 90.35,-500.8 90.02,-491.84 89.92,-489.17 89.8,-486.45 89.67,-483.7"/>
<polygon fill="red" stroke="red" stroke-width="0.57" points="93.16,-483.48 89.13,-473.69 86.17,-483.86 93.16,-483.48"/>
<text text-anchor="middle" x="105.02" y="-494.64" font-family="Times,serif" font-size="9.00">0.016</text>
</g>
<!-- key 245476
bias &#45;0.505
h_scaling 0.228&#45;&gt;key 245476
bias &#45;0.505
h_scaling 0.228 -->
<g id="edge11" class="edge">
<title>key 245476
bias &#45;0.505
h_scaling 0.228&#45;&gt;key 245476
bias &#45;0.505
h_scaling 0.228</title>
<path fill="none" stroke="red" stroke-width="2.49" d="M150.96,-598.77C162.52,-596.89 170.66,-591.79 170.66,-583.48 170.66,-577.76 166.81,-573.56 160.65,-570.89"/>
<polygon fill="red" stroke="red" stroke-width="2.49" points="161.54,-567.5 150.96,-568.18 159.65,-574.24 161.54,-567.5"/>
<text text-anchor="middle" x="184.66" y="-581.28" font-family="Times,serif" font-size="9.00">0.080</text>
</g>
<!-- key 238905
bias &#45;0.937
h_scaling 0.992&#45;&gt;output
bias &#45;1.000
h_scaling 0.142 -->
<g id="edge5" class="edge">
<title>key 238905
bias &#45;0.937
h_scaling 0.992&#45;&gt;output
bias &#45;1.000
h_scaling 0.142</title>
<path fill="none" stroke="red" stroke-width="1.19" d="M197.15,-180.31C188.38,-163.99 178.72,-146.01 169.69,-129.18"/>
<polygon fill="red" stroke="red" stroke-width="1.19" points="172.56,-127.12 164.74,-119.97 166.39,-130.44 172.56,-127.12"/>
<text text-anchor="middle" x="195.02" y="-148.08" font-family="Times,serif" font-size="9.00">0.036</text>
</g>
<!-- key 238905
bias &#45;0.937
h_scaling 0.992&#45;&gt;key 238905
bias &#45;0.937
h_scaling 0.992 -->
<g id="edge10" class="edge">
<title>key 238905
bias &#45;0.937
h_scaling 0.992&#45;&gt;key 238905
bias &#45;0.937
h_scaling 0.992</title>
<path fill="none" stroke="red" stroke-width="2.11" d="M288.96,-252.22C300.52,-250.33 308.66,-245.23 308.66,-236.92 308.66,-231.2 304.81,-227.01 298.65,-224.33"/>
<polygon fill="red" stroke="red" stroke-width="2.11" points="299.54,-220.94 288.96,-221.62 297.65,-227.68 299.54,-220.94"/>
<text text-anchor="middle" x="322.66" y="-234.72" font-family="Times,serif" font-size="9.00">0.067</text>
</g>
</g>
</svg>
