<?xml version="1.0" encoding="UTF-8" standalone="no"?>
<!DOCTYPE svg PUBLIC "-//W3C//DTD SVG 1.1//EN"
 "http://www.w3.org/Graphics/SVG/1.1/DTD/svg11.dtd">
<!-- Generated by graphviz version 2.43.0 (0)
 -->
<!-- Title: %3 Pages: 1 -->
<svg width="682pt" height="1249pt"
 viewBox="0.00 0.00 682.28 1248.95" xmlns="http://www.w3.org/2000/svg" xmlns:xlink="http://www.w3.org/1999/xlink">
<g id="graph0" class="graph" transform="scale(1 1) rotate(0) translate(4 1244.95)">
<title>%3</title>
<polygon fill="white" stroke="transparent" points="-4,4 -4,-1244.95 678.28,-1244.95 678.28,4 -4,4"/>
<!-- ready
output 0.000 -->
<g id="node1" class="node">
<title>ready
output 0.000</title>
<polygon fill="yellow" stroke="black" points="307.78,-1240.95 230.78,-1240.95 230.78,-1212.95 307.78,-1212.95 307.78,-1240.95"/>
<text text-anchor="middle" x="269.28" y="-1229.75" font-family="Times,serif" font-size="9.00">ready</text>
<text text-anchor="middle" x="269.28" y="-1219.75" font-family="Times,serif" font-size="9.00">output 0.000</text>
</g>
<!-- key 37
bias 0.646
h_scaling 1.000
output 0.610 -->
<g id="node4" class="node">
<title>key 37
bias 0.646
h_scaling 1.000
output 0.610</title>
<ellipse fill="white" stroke="black" cx="382.28" cy="-930.04" rx="63.78" ry="63.78"/>
<text text-anchor="middle" x="382.28" y="-942.84" font-family="Times,serif" font-size="9.00">key 37</text>
<text text-anchor="middle" x="382.28" y="-932.84" font-family="Times,serif" font-size="9.00">bias 0.646</text>
<text text-anchor="middle" x="382.28" y="-922.84" font-family="Times,serif" font-size="9.00">h_scaling 1.000</text>
<text text-anchor="middle" x="382.28" y="-912.84" font-family="Times,serif" font-size="9.00">output 0.610</text>
</g>
<!-- ready
output 0.000&#45;&gt;key 37
bias 0.646
h_scaling 1.000
output 0.610 -->
<g id="edge3" class="edge">
<title>ready
output 0.000&#45;&gt;key 37
bias 0.646
h_scaling 1.000
output 0.610</title>
<path fill="none" stroke="blue" stroke-width="0.1" d="M266.86,-1212.61C261.78,-1181.01 252.45,-1099.76 278.28,-1039.68 288.47,-1015.96 306.3,-994.35 324.36,-976.77"/>
<polygon fill="blue" stroke="blue" stroke-width="0.1" points="327.21,-978.89 332.08,-969.49 322.41,-973.8 327.21,-978.89"/>
<text text-anchor="middle" x="293.78" y="-1101.11" font-family="Times,serif" font-size="9.00">&#45;0.785</text>
</g>
<!-- key 32775
bias &#45;0.841
h_scaling 1.000
output 0.830 -->
<g id="node5" class="node">
<title>key 32775
bias &#45;0.841
h_scaling 1.000
output 0.830</title>
<ellipse fill="white" stroke="black" cx="175.28" cy="-756.76" rx="63.78" ry="63.78"/>
<text text-anchor="middle" x="175.28" y="-769.56" font-family="Times,serif" font-size="9.00">key 32775</text>
<text text-anchor="middle" x="175.28" y="-759.56" font-family="Times,serif" font-size="9.00">bias &#45;0.841</text>
<text text-anchor="middle" x="175.28" y="-749.56" font-family="Times,serif" font-size="9.00">h_scaling 1.000</text>
<text text-anchor="middle" x="175.28" y="-739.56" font-family="Times,serif" font-size="9.00">output 0.830</text>
</g>
<!-- ready
output 0.000&#45;&gt;key 32775
bias &#45;0.841
h_scaling 1.000
output 0.830 -->
<g id="edge22" class="edge">
<title>ready
output 0.000&#45;&gt;key 32775
bias &#45;0.841
h_scaling 1.000
output 0.830</title>
<path fill="none" stroke="blue" stroke-width="0.1" d="M230.68,-1225.14C179.1,-1223.22 91.58,-1216.75 69.28,-1194.95 -35.2,-1092.88 -6.6,-995.74 61.28,-866.4 74.4,-841.39 95.49,-818.87 115.99,-800.91"/>
<polygon fill="blue" stroke="blue" stroke-width="0.1" points="118.46,-803.4 123.8,-794.25 113.92,-798.08 118.46,-803.4"/>
<text text-anchor="middle" x="19.78" y="-1014.48" font-family="Times,serif" font-size="9.00">&#45;0.829</text>
</g>
<!-- key 8879
bias &#45;0.179
h_scaling 1.000
output 0.319 -->
<g id="node6" class="node">
<title>key 8879
bias &#45;0.179
h_scaling 1.000
output 0.319</title>
<ellipse fill="white" stroke="black" cx="382.28" cy="-1103.31" rx="63.78" ry="63.78"/>
<text text-anchor="middle" x="382.28" y="-1116.11" font-family="Times,serif" font-size="9.00">key 8879</text>
<text text-anchor="middle" x="382.28" y="-1106.11" font-family="Times,serif" font-size="9.00">bias &#45;0.179</text>
<text text-anchor="middle" x="382.28" y="-1096.11" font-family="Times,serif" font-size="9.00">h_scaling 1.000</text>
<text text-anchor="middle" x="382.28" y="-1086.11" font-family="Times,serif" font-size="9.00">output 0.319</text>
</g>
<!-- ready
output 0.000&#45;&gt;key 8879
bias &#45;0.179
h_scaling 1.000
output 0.319 -->
<g id="edge6" class="edge">
<title>ready
output 0.000&#45;&gt;key 8879
bias &#45;0.179
h_scaling 1.000
output 0.319</title>
<path fill="none" stroke="red" stroke-width="0.1" d="M281.37,-1212.94C293.69,-1199.67 313.63,-1178.21 332.54,-1157.86"/>
<polygon fill="red" stroke="red" stroke-width="0.1" points="335.2,-1160.13 339.44,-1150.43 330.07,-1155.37 335.2,-1160.13"/>
<text text-anchor="middle" x="319.28" y="-1187.75" font-family="Times,serif" font-size="9.00">0.910</text>
</g>
<!-- key 4787
bias &#45;0.697
h_scaling 1.000
output 0.093 -->
<g id="node8" class="node">
<title>key 4787
bias &#45;0.697
h_scaling 1.000
output 0.093</title>
<ellipse fill="white" stroke="black" cx="452.28" cy="-236.92" rx="63.78" ry="63.78"/>
<text text-anchor="middle" x="452.28" y="-249.72" font-family="Times,serif" font-size="9.00">key 4787</text>
<text text-anchor="middle" x="452.28" y="-239.72" font-family="Times,serif" font-size="9.00">bias &#45;0.697</text>
<text text-anchor="middle" x="452.28" y="-229.72" font-family="Times,serif" font-size="9.00">h_scaling 1.000</text>
<text text-anchor="middle" x="452.28" y="-219.72" font-family="Times,serif" font-size="9.00">output 0.093</text>
</g>
<!-- ready
output 0.000&#45;&gt;key 4787
bias &#45;0.697
h_scaling 1.000
output 0.093 -->
<g id="edge23" class="edge">
<title>ready
output 0.000&#45;&gt;key 4787
bias &#45;0.697
h_scaling 1.000
output 0.093</title>
<path fill="none" stroke="blue" stroke-width="0.1" d="M307.97,-1222.53C383.73,-1215.26 548.41,-1196.49 596.28,-1166.95 625.9,-1148.68 643.28,-1139.12 643.28,-1104.31 643.28,-1104.31 643.28,-1104.31 643.28,-409.2 643.28,-341.06 575.07,-293.19 520.17,-265.7"/>
<polygon fill="blue" stroke="blue" stroke-width="0.1" points="521.66,-262.54 511.14,-261.3 518.6,-268.83 521.66,-262.54"/>
<text text-anchor="middle" x="658.78" y="-754.56" font-family="Times,serif" font-size="9.00">&#45;0.688</text>
</g>
<!-- key 5855
bias 0.412
h_scaling 1.000
output 0.318 -->
<g id="node10" class="node">
<title>key 5855
bias 0.412
h_scaling 1.000
output 0.318</title>
<ellipse fill="white" stroke="black" cx="202.28" cy="-583.48" rx="63.78" ry="63.78"/>
<text text-anchor="middle" x="202.28" y="-596.28" font-family="Times,serif" font-size="9.00">key 5855</text>
<text text-anchor="middle" x="202.28" y="-586.28" font-family="Times,serif" font-size="9.00">bias 0.412</text>
<text text-anchor="middle" x="202.28" y="-576.28" font-family="Times,serif" font-size="9.00">h_scaling 1.000</text>
<text text-anchor="middle" x="202.28" y="-566.28" font-family="Times,serif" font-size="9.00">output 0.318</text>
</g>
<!-- ready
output 0.000&#45;&gt;key 5855
bias 0.412
h_scaling 1.000
output 0.318 -->
<g id="edge13" class="edge">
<title>ready
output 0.000&#45;&gt;key 5855
bias 0.412
h_scaling 1.000
output 0.318</title>
<path fill="none" stroke="red" stroke-width="0.1" d="M230.74,-1218.73C176.26,-1206.04 83.28,-1174.15 83.28,-1104.31 83.28,-1104.31 83.28,-1104.31 83.28,-755.76 83.28,-707.65 115.32,-663.35 146.16,-631.86"/>
<polygon fill="red" stroke="red" stroke-width="0.1" points="148.9,-634.06 153.53,-624.53 143.97,-629.1 148.9,-634.06"/>
<text text-anchor="middle" x="97.28" y="-927.84" font-family="Times,serif" font-size="9.00">0.245</text>
</g>
<!-- go
output 0.000 -->
<g id="node2" class="node">
<title>go
output 0.000</title>
<polygon fill="green" stroke="black" points="586.78,-1117.31 509.78,-1117.31 509.78,-1089.31 586.78,-1089.31 586.78,-1117.31"/>
<text text-anchor="middle" x="548.28" y="-1106.11" font-family="Times,serif" font-size="9.00">go</text>
<text text-anchor="middle" x="548.28" y="-1096.11" font-family="Times,serif" font-size="9.00">output 0.000</text>
</g>
<!-- go
output 0.000&#45;&gt;key 37
bias 0.646
h_scaling 1.000
output 0.610 -->
<g id="edge11" class="edge">
<title>go
output 0.000&#45;&gt;key 37
bias 0.646
h_scaling 1.000
output 0.610</title>
<path fill="none" stroke="red" stroke-width="0.1" d="M539.57,-1089.29C530.6,-1076.22 515.9,-1055.78 501.28,-1039.68 482.01,-1018.47 459.12,-996.84 438.58,-978.52"/>
<polygon fill="red" stroke="red" stroke-width="0.1" points="440.64,-975.68 430.84,-971.67 436.01,-980.92 440.64,-975.68"/>
<text text-anchor="middle" x="496.28" y="-1014.48" font-family="Times,serif" font-size="9.00">0.672</text>
</g>
<!-- key 5167
bias &#45;0.254
h_scaling 1.000
output 0.128 -->
<g id="node7" class="node">
<title>key 5167
bias &#45;0.254
h_scaling 1.000
output 0.128</title>
<ellipse fill="white" stroke="black" cx="314.28" cy="-410.2" rx="63.78" ry="63.78"/>
<text text-anchor="middle" x="314.28" y="-423" font-family="Times,serif" font-size="9.00">key 5167</text>
<text text-anchor="middle" x="314.28" y="-413" font-family="Times,serif" font-size="9.00">bias &#45;0.254</text>
<text text-anchor="middle" x="314.28" y="-403" font-family="Times,serif" font-size="9.00">h_scaling 1.000</text>
<text text-anchor="middle" x="314.28" y="-393" font-family="Times,serif" font-size="9.00">output 0.128</text>
</g>
<!-- go
output 0.000&#45;&gt;key 5167
bias &#45;0.254
h_scaling 1.000
output 0.128 -->
<g id="edge9" class="edge">
<title>go
output 0.000&#45;&gt;key 5167
bias &#45;0.254
h_scaling 1.000
output 0.128</title>
<path fill="none" stroke="red" stroke-width="0.1" d="M548.9,-1089.3C551.17,-1036.12 557.41,-830.33 527.28,-665.12 515.1,-598.36 521.46,-573.78 480.28,-519.84 454.57,-486.16 415.24,-459.77 381.31,-441.43"/>
<polygon fill="red" stroke="red" stroke-width="0.1" points="382.84,-438.28 372.36,-436.71 379.57,-444.47 382.84,-438.28"/>
<text text-anchor="middle" x="559.28" y="-754.56" font-family="Times,serif" font-size="9.00">0.820</text>
</g>
<!-- go
output 0.000&#45;&gt;key 4787
bias &#45;0.697
h_scaling 1.000
output 0.093 -->
<g id="edge19" class="edge">
<title>go
output 0.000&#45;&gt;key 4787
bias &#45;0.697
h_scaling 1.000
output 0.093</title>
<path fill="none" stroke="red" stroke-width="0.1" d="M554.88,-1088.92C568.26,-1060.55 597.28,-991.97 597.28,-931.04 597.28,-931.04 597.28,-931.04 597.28,-409.2 597.28,-354.46 553.6,-308.21 514.18,-277.62"/>
<polygon fill="red" stroke="red" stroke-width="0.1" points="515.95,-274.57 505.86,-271.34 511.73,-280.15 515.95,-274.57"/>
<text text-anchor="middle" x="611.28" y="-667.92" font-family="Times,serif" font-size="9.00">0.933</text>
</g>
<!-- output
bias 0.474
h_scaling 1.000
output 0.834 -->
<g id="node3" class="node">
<title>output
bias 0.474
h_scaling 1.000
output 0.834</title>
<ellipse fill="lightblue" stroke="black" cx="314.28" cy="-63.64" rx="63.78" ry="63.78"/>
<text text-anchor="middle" x="314.28" y="-76.44" font-family="Times,serif" font-size="9.00">output</text>
<text text-anchor="middle" x="314.28" y="-66.44" font-family="Times,serif" font-size="9.00">bias 0.474</text>
<text text-anchor="middle" x="314.28" y="-56.44" font-family="Times,serif" font-size="9.00">h_scaling 1.000</text>
<text text-anchor="middle" x="314.28" y="-46.44" font-family="Times,serif" font-size="9.00">output 0.834</text>
</g>
<!-- output
bias 0.474
h_scaling 1.000
output 0.834&#45;&gt;key 32775
bias &#45;0.841
h_scaling 1.000
output 0.830 -->
<g id="edge16" class="edge">
<title>output
bias 0.474
h_scaling 1.000
output 0.834&#45;&gt;key 32775
bias &#45;0.841
h_scaling 1.000
output 0.830</title>
<path fill="none" stroke="red" stroke-width="0.1" d="M254.45,-85.6C194.25,-110.97 110.28,-159.96 110.28,-235.92 110.28,-584.48 110.28,-584.48 110.28,-584.48 110.28,-621.82 123.95,-660.94 138.75,-692.35"/>
<polygon fill="red" stroke="red" stroke-width="0.1" points="135.64,-693.95 143.16,-701.41 141.94,-690.89 135.64,-693.95"/>
<text text-anchor="middle" x="124.28" y="-408" font-family="Times,serif" font-size="9.00">0.662</text>
</g>
<!-- key 37
bias 0.646
h_scaling 1.000
output 0.610&#45;&gt;key 32775
bias &#45;0.841
h_scaling 1.000
output 0.830 -->
<g id="edge20" class="edge">
<title>key 37
bias 0.646
h_scaling 1.000
output 0.610&#45;&gt;key 32775
bias &#45;0.841
h_scaling 1.000
output 0.830</title>
<path fill="none" stroke="red" stroke-width="0.1" d="M332.09,-890.59C315.16,-877.4 296.26,-862.43 279.28,-848.4 263.09,-835.02 245.8,-820.18 230.05,-806.45"/>
<polygon fill="red" stroke="red" stroke-width="0.1" points="232.29,-803.75 222.46,-799.8 227.68,-809.02 232.29,-803.75"/>
<text text-anchor="middle" x="293.28" y="-841.2" font-family="Times,serif" font-size="9.00">0.675</text>
</g>
<!-- key 37
bias 0.646
h_scaling 1.000
output 0.610&#45;&gt;key 4787
bias &#45;0.697
h_scaling 1.000
output 0.093 -->
<g id="edge1" class="edge">
<title>key 37
bias 0.646
h_scaling 1.000
output 0.610&#45;&gt;key 4787
bias &#45;0.697
h_scaling 1.000
output 0.093</title>
<path fill="none" stroke="red" stroke-width="0.1" d="M403.62,-869.92C408.57,-854.03 413.26,-836.72 416.28,-820.4 449.71,-639.24 453.81,-421.58 453.38,-310.66"/>
<polygon fill="red" stroke="red" stroke-width="0.1" points="456.88,-310.57 453.33,-300.59 449.88,-310.6 456.88,-310.57"/>
<text text-anchor="middle" x="462.28" y="-581.28" font-family="Times,serif" font-size="9.00">0.959</text>
</g>
<!-- key 37
bias 0.646
h_scaling 1.000
output 0.610&#45;&gt;key 5855
bias 0.412
h_scaling 1.000
output 0.318 -->
<g id="edge10" class="edge">
<title>key 37
bias 0.646
h_scaling 1.000
output 0.610&#45;&gt;key 5855
bias 0.412
h_scaling 1.000
output 0.318</title>
<path fill="none" stroke="blue" stroke-width="0.1" d="M348.36,-876.16C338.47,-858.92 328.41,-839.32 321.28,-820.4 300.89,-766.28 319.73,-745.04 294.28,-693.12 284.23,-672.62 269.46,-652.77 254.68,-635.78"/>
<polygon fill="blue" stroke="blue" stroke-width="0.1" points="257.17,-633.31 247.9,-628.17 251.94,-637.97 257.17,-633.31"/>
<text text-anchor="middle" x="336.78" y="-754.56" font-family="Times,serif" font-size="9.00">&#45;0.691</text>
</g>
<!-- key 32775
bias &#45;0.841
h_scaling 1.000
output 0.830&#45;&gt;key 32775
bias &#45;0.841
h_scaling 1.000
output 0.830 -->
<g id="edge21" class="edge">
<title>key 32775
bias &#45;0.841
h_scaling 1.000
output 0.830&#45;&gt;key 32775
bias &#45;0.841
h_scaling 1.000
output 0.830</title>
<path fill="none" stroke="red" stroke-width="0.1" d="M237.22,-772.05C248.78,-770.17 256.92,-765.07 256.92,-756.76 256.92,-751.04 253.07,-746.84 246.91,-744.17"/>
<polygon fill="red" stroke="red" stroke-width="0.1" points="247.79,-740.78 237.22,-741.46 245.91,-747.52 247.79,-740.78"/>
<text text-anchor="middle" x="270.92" y="-754.56" font-family="Times,serif" font-size="9.00">0.831</text>
</g>
<!-- key 32775
bias &#45;0.841
h_scaling 1.000
output 0.830&#45;&gt;key 5855
bias 0.412
h_scaling 1.000
output 0.318 -->
<g id="edge17" class="edge">
<title>key 32775
bias &#45;0.841
h_scaling 1.000
output 0.830&#45;&gt;key 5855
bias 0.412
h_scaling 1.000
output 0.318</title>
<path fill="none" stroke="blue" stroke-width="0.1" d="M185.1,-693.44C186.98,-681.48 188.97,-668.87 190.9,-656.63"/>
<polygon fill="blue" stroke="blue" stroke-width="0.1" points="194.4,-656.89 192.5,-646.46 187.49,-655.8 194.4,-656.89"/>
<text text-anchor="middle" x="203.78" y="-667.92" font-family="Times,serif" font-size="9.00">&#45;0.393</text>
</g>
<!-- key 8879
bias &#45;0.179
h_scaling 1.000
output 0.319&#45;&gt;key 37
bias 0.646
h_scaling 1.000
output 0.610 -->
<g id="edge7" class="edge">
<title>key 8879
bias &#45;0.179
h_scaling 1.000
output 0.319&#45;&gt;key 37
bias 0.646
h_scaling 1.000
output 0.610</title>
<path fill="none" stroke="blue" stroke-width="0.1" d="M382.28,-1039.51C382.28,-1027.99 382.28,-1015.88 382.28,-1004.09"/>
<polygon fill="blue" stroke="blue" stroke-width="0.1" points="385.78,-1003.83 382.28,-993.83 378.78,-1003.83 385.78,-1003.83"/>
<text text-anchor="middle" x="397.78" y="-1014.48" font-family="Times,serif" font-size="9.00">&#45;0.940</text>
</g>
<!-- key 8879
bias &#45;0.179
h_scaling 1.000
output 0.319&#45;&gt;key 8879
bias &#45;0.179
h_scaling 1.000
output 0.319 -->
<g id="edge25" class="edge">
<title>key 8879
bias &#45;0.179
h_scaling 1.000
output 0.319&#45;&gt;key 8879
bias &#45;0.179
h_scaling 1.000
output 0.319</title>
<path fill="none" stroke="red" stroke-width="0.1" d="M444.22,-1118.61C455.78,-1116.73 463.92,-1111.63 463.92,-1103.31 463.92,-1097.6 460.07,-1093.4 453.91,-1090.73"/>
<polygon fill="red" stroke="red" stroke-width="0.1" points="454.79,-1087.34 444.22,-1088.02 452.91,-1094.08 454.79,-1087.34"/>
<text text-anchor="middle" x="477.92" y="-1101.11" font-family="Times,serif" font-size="9.00">0.148</text>
</g>
<!-- key 8879
bias &#45;0.179
h_scaling 1.000
output 0.319&#45;&gt;key 4787
bias &#45;0.697
h_scaling 1.000
output 0.093 -->
<g id="edge24" class="edge">
<title>key 8879
bias &#45;0.179
h_scaling 1.000
output 0.319&#45;&gt;key 4787
bias &#45;0.697
h_scaling 1.000
output 0.093</title>
<path fill="none" stroke="blue" stroke-width="0.1" d="M422.7,-1053.85C435.37,-1036.01 447.95,-1014.94 455.28,-993.68 523.98,-794.29 487.08,-730.62 480.28,-519.84 477.39,-430.24 478.38,-407.51 467.28,-318.56 466.9,-315.55 466.48,-312.48 466.03,-309.38"/>
<polygon fill="blue" stroke="blue" stroke-width="0.1" points="469.48,-308.79 464.5,-299.44 462.57,-309.86 469.48,-308.79"/>
<text text-anchor="middle" x="505.78" y="-667.92" font-family="Times,serif" font-size="9.00">&#45;0.149</text>
</g>
<!-- key 5167
bias &#45;0.254
h_scaling 1.000
output 0.128&#45;&gt;output
bias 0.474
h_scaling 1.000
output 0.834 -->
<g id="edge12" class="edge">
<title>key 5167
bias &#45;0.254
h_scaling 1.000
output 0.128&#45;&gt;output
bias 0.474
h_scaling 1.000
output 0.834</title>
<path fill="none" stroke="blue" stroke-width="0.1" d="M314.28,-346.4C314.28,-287.47 314.28,-199.36 314.28,-137.39"/>
<polygon fill="blue" stroke="blue" stroke-width="0.1" points="317.78,-137.3 314.28,-127.3 310.78,-137.3 317.78,-137.3"/>
<text text-anchor="middle" x="329.78" y="-234.72" font-family="Times,serif" font-size="9.00">&#45;0.880</text>
</g>
<!-- key 5167
bias &#45;0.254
h_scaling 1.000
output 0.128&#45;&gt;key 5167
bias &#45;0.254
h_scaling 1.000
output 0.128 -->
<g id="edge15" class="edge">
<title>key 5167
bias &#45;0.254
h_scaling 1.000
output 0.128&#45;&gt;key 5167
bias &#45;0.254
h_scaling 1.000
output 0.128</title>
<path fill="none" stroke="red" stroke-width="0.1" d="M376.22,-425.5C387.78,-423.61 395.92,-418.51 395.92,-410.2 395.92,-404.48 392.07,-400.29 385.91,-397.61"/>
<polygon fill="red" stroke="red" stroke-width="0.1" points="386.79,-394.22 376.22,-394.9 384.91,-400.96 386.79,-394.22"/>
<text text-anchor="middle" x="409.92" y="-408" font-family="Times,serif" font-size="9.00">0.796</text>
</g>
<!-- key 5167
bias &#45;0.254
h_scaling 1.000
output 0.128&#45;&gt;key 4787
bias &#45;0.697
h_scaling 1.000
output 0.093 -->
<g id="edge4" class="edge">
<title>key 5167
bias &#45;0.254
h_scaling 1.000
output 0.128&#45;&gt;key 4787
bias &#45;0.697
h_scaling 1.000
output 0.093</title>
<path fill="none" stroke="red" stroke-width="0.1" d="M353.82,-360.12C370.21,-339.78 389.32,-316.06 406.32,-294.96"/>
<polygon fill="red" stroke="red" stroke-width="0.1" points="409.18,-296.99 412.72,-287.01 403.73,-292.6 409.18,-296.99"/>
<text text-anchor="middle" x="397.28" y="-321.36" font-family="Times,serif" font-size="9.00">1.232</text>
</g>
<!-- key 4787
bias &#45;0.697
h_scaling 1.000
output 0.093&#45;&gt;output
bias 0.474
h_scaling 1.000
output 0.834 -->
<g id="edge2" class="edge">
<title>key 4787
bias &#45;0.697
h_scaling 1.000
output 0.093&#45;&gt;output
bias 0.474
h_scaling 1.000
output 0.834</title>
<path fill="none" stroke="blue" stroke-width="0.1" d="M412.73,-186.84C396.35,-166.5 377.23,-142.78 360.23,-121.68"/>
<polygon fill="blue" stroke="blue" stroke-width="0.1" points="362.83,-119.32 353.83,-113.73 357.38,-123.71 362.83,-119.32"/>
<text text-anchor="middle" x="398.78" y="-148.08" font-family="Times,serif" font-size="9.00">&#45;0.947</text>
</g>
<!-- key 4787
bias &#45;0.697
h_scaling 1.000
output 0.093&#45;&gt;key 4787
bias &#45;0.697
h_scaling 1.000
output 0.093 -->
<g id="edge8" class="edge">
<title>key 4787
bias &#45;0.697
h_scaling 1.000
output 0.093&#45;&gt;key 4787
bias &#45;0.697
h_scaling 1.000
output 0.093</title>
<path fill="none" stroke="red" stroke-width="0.1" d="M514.22,-252.22C525.78,-250.33 533.92,-245.23 533.92,-236.92 533.92,-231.2 530.07,-227.01 523.91,-224.33"/>
<polygon fill="red" stroke="red" stroke-width="0.1" points="524.79,-220.94 514.22,-221.62 522.91,-227.68 524.79,-220.94"/>
<text text-anchor="middle" x="547.92" y="-234.72" font-family="Times,serif" font-size="9.00">1.168</text>
</g>
<!-- key 307161
bias &#45;1.000
h_scaling 1.000
output 0.000 -->
<g id="node9" class="node">
<title>key 307161
bias &#45;1.000
h_scaling 1.000
output 0.000</title>
<ellipse fill="white" stroke="black" cx="347.28" cy="-583.48" rx="63.78" ry="63.78"/>
<text text-anchor="middle" x="347.28" y="-596.28" font-family="Times,serif" font-size="9.00">key 307161</text>
<text text-anchor="middle" x="347.28" y="-586.28" font-family="Times,serif" font-size="9.00">bias &#45;1.000</text>
<text text-anchor="middle" x="347.28" y="-576.28" font-family="Times,serif" font-size="9.00">h_scaling 1.000</text>
<text text-anchor="middle" x="347.28" y="-566.28" font-family="Times,serif" font-size="9.00">output 0.000</text>
</g>
<!-- key 307161
bias &#45;1.000
h_scaling 1.000
output 0.000&#45;&gt;key 5167
bias &#45;0.254
h_scaling 1.000
output 0.128 -->
<g id="edge26" class="edge">
<title>key 307161
bias &#45;1.000
h_scaling 1.000
output 0.000&#45;&gt;key 5167
bias &#45;0.254
h_scaling 1.000
output 0.128</title>
<path fill="none" stroke="blue" stroke-width="0.1" d="M335.36,-520.64C333,-508.39 330.51,-495.44 328.09,-482.89"/>
<polygon fill="blue" stroke="blue" stroke-width="0.1" points="331.5,-482.1 326.17,-472.94 324.63,-483.42 331.5,-482.1"/>
<text text-anchor="middle" x="345.78" y="-494.64" font-family="Times,serif" font-size="9.00">&#45;0.428</text>
</g>
<!-- key 5855
bias 0.412
h_scaling 1.000
output 0.318&#45;&gt;key 37
bias 0.646
h_scaling 1.000
output 0.610 -->
<g id="edge5" class="edge">
<title>key 5855
bias 0.412
h_scaling 1.000
output 0.318&#45;&gt;key 37
bias 0.646
h_scaling 1.000
output 0.610</title>
<path fill="none" stroke="blue" stroke-width="0.1" d="M247.34,-628.73C255.83,-635.56 264.98,-642.02 274.28,-647.12 299.06,-660.7 312.06,-648.99 335.28,-665.12 348.05,-673.99 350.55,-678.65 356.28,-693.12 376.82,-745.06 382.9,-808.14 384.07,-856"/>
<polygon fill="blue" stroke="blue" stroke-width="0.1" points="380.57,-856.34 384.25,-866.28 387.57,-856.22 380.57,-856.34"/>
<text text-anchor="middle" x="396.78" y="-754.56" font-family="Times,serif" font-size="9.00">&#45;0.490</text>
</g>
<!-- key 5855
bias 0.412
h_scaling 1.000
output 0.318&#45;&gt;key 5167
bias &#45;0.254
h_scaling 1.000
output 0.128 -->
<g id="edge18" class="edge">
<title>key 5855
bias 0.412
h_scaling 1.000
output 0.318&#45;&gt;key 5167
bias &#45;0.254
h_scaling 1.000
output 0.128</title>
<path fill="none" stroke="blue" stroke-width="0.1" d="M236.79,-529.69C248.67,-511.53 262.06,-491.06 274.32,-472.3"/>
<polygon fill="blue" stroke="blue" stroke-width="0.1" points="277.33,-474.1 279.87,-463.81 271.47,-470.26 277.33,-474.1"/>
<text text-anchor="middle" x="273.78" y="-494.64" font-family="Times,serif" font-size="9.00">&#45;0.382</text>
</g>
<!-- key 5855
bias 0.412
h_scaling 1.000
output 0.318&#45;&gt;key 4787
bias &#45;0.697
h_scaling 1.000
output 0.093 -->
<g id="edge14" class="edge">
<title>key 5855
bias 0.412
h_scaling 1.000
output 0.318&#45;&gt;key 4787
bias &#45;0.697
h_scaling 1.000
output 0.093</title>
<path fill="none" stroke="blue" stroke-width="0.1" d="M186.64,-521.74C177.11,-470 173.01,-396.35 210.28,-346.56 249.27,-294.46 290.21,-327.86 349.28,-300.56 363.22,-294.11 377.64,-286.21 391.12,-278.22"/>
<polygon fill="blue" stroke="blue" stroke-width="0.1" points="393.06,-281.13 399.82,-272.97 389.45,-275.14 393.06,-281.13"/>
<text text-anchor="middle" x="225.78" y="-408" font-family="Times,serif" font-size="9.00">&#45;0.425</text>
</g>
</g>
</svg>
