<?xml version="1.0" encoding="UTF-8" standalone="no"?>
<!DOCTYPE svg PUBLIC "-//W3C//DTD SVG 1.1//EN"
 "http://www.w3.org/Graphics/SVG/1.1/DTD/svg11.dtd">
<!-- Generated by graphviz version 2.43.0 (0)
 -->
<!-- Title: %3 Pages: 1 -->
<svg width="512pt" height="892pt"
 viewBox="0.00 0.00 511.64 892.40" xmlns="http://www.w3.org/2000/svg" xmlns:xlink="http://www.w3.org/1999/xlink">
<g id="graph0" class="graph" transform="scale(1 1) rotate(0) translate(4 888.4)">
<title>%3</title>
<polygon fill="white" stroke="transparent" points="-4,4 -4,-888.4 507.64,-888.4 507.64,4 -4,4"/>
<!-- ready -->
<g id="node1" class="node">
<title>ready</title>
<polygon fill="yellow" stroke="black" points="318.14,-884.4 275.14,-884.4 275.14,-866.4 318.14,-866.4 318.14,-884.4"/>
<text text-anchor="middle" x="296.64" y="-873.2" font-family="Times,serif" font-size="9.00">ready</text>
</g>
<!-- key 235
bias &#45;0.400
h_scaling 1.000 -->
<g id="node5" class="node">
<title>key 235
bias &#45;0.400
h_scaling 1.000</title>
<ellipse fill="white" stroke="black" cx="150.64" cy="-756.76" rx="63.78" ry="63.78"/>
<text text-anchor="middle" x="150.64" y="-764.56" font-family="Times,serif" font-size="9.00">key 235</text>
<text text-anchor="middle" x="150.64" y="-754.56" font-family="Times,serif" font-size="9.00">bias &#45;0.400</text>
<text text-anchor="middle" x="150.64" y="-744.56" font-family="Times,serif" font-size="9.00">h_scaling 1.000</text>
</g>
<!-- ready&#45;&gt;key 235
bias &#45;0.400
h_scaling 1.000 -->
<g id="edge8" class="edge">
<title>ready&#45;&gt;key 235
bias &#45;0.400
h_scaling 1.000</title>
<path fill="none" stroke="blue" stroke-width="0.92" d="M280.73,-866.26C271.89,-861.48 260.84,-855.07 251.64,-848.4 235.24,-836.5 218.46,-822.36 203.4,-808.84"/>
<polygon fill="blue" stroke="blue" stroke-width="0.92" points="205.45,-805.97 195.7,-801.83 200.74,-811.15 205.45,-805.97"/>
<text text-anchor="middle" x="267.14" y="-841.2" font-family="Times,serif" font-size="9.00">&#45;0.273</text>
</g>
<!-- key 6516
bias 0.478
h_scaling 1.000 -->
<g id="node6" class="node">
<title>key 6516
bias 0.478
h_scaling 1.000</title>
<ellipse fill="white" stroke="black" cx="206.64" cy="-583.48" rx="63.78" ry="63.78"/>
<text text-anchor="middle" x="206.64" y="-591.28" font-family="Times,serif" font-size="9.00">key 6516</text>
<text text-anchor="middle" x="206.64" y="-581.28" font-family="Times,serif" font-size="9.00">bias 0.478</text>
<text text-anchor="middle" x="206.64" y="-571.28" font-family="Times,serif" font-size="9.00">h_scaling 1.000</text>
</g>
<!-- ready&#45;&gt;key 6516
bias 0.478
h_scaling 1.000 -->
<g id="edge10" class="edge">
<title>ready&#45;&gt;key 6516
bias 0.478
h_scaling 1.000</title>
<path fill="none" stroke="red" stroke-width="0.59" d="M296.51,-866.19C295.85,-840.1 292.03,-757.09 269.64,-693.12 263.95,-676.86 255.77,-660.29 247.18,-645.15"/>
<polygon fill="red" stroke="red" stroke-width="0.59" points="250.15,-643.3 242.1,-636.42 244.11,-646.82 250.15,-643.3"/>
<text text-anchor="middle" x="307.64" y="-754.56" font-family="Times,serif" font-size="9.00">0.164</text>
</g>
<!-- key 6910
bias &#45;0.132
h_scaling 1.000 -->
<g id="node8" class="node">
<title>key 6910
bias &#45;0.132
h_scaling 1.000</title>
<ellipse fill="white" stroke="black" cx="330.64" cy="-236.92" rx="63.78" ry="63.78"/>
<text text-anchor="middle" x="330.64" y="-244.72" font-family="Times,serif" font-size="9.00">key 6910</text>
<text text-anchor="middle" x="330.64" y="-234.72" font-family="Times,serif" font-size="9.00">bias &#45;0.132</text>
<text text-anchor="middle" x="330.64" y="-224.72" font-family="Times,serif" font-size="9.00">h_scaling 1.000</text>
</g>
<!-- ready&#45;&gt;key 6910
bias &#45;0.132
h_scaling 1.000 -->
<g id="edge11" class="edge">
<title>ready&#45;&gt;key 6910
bias &#45;0.132
h_scaling 1.000</title>
<path fill="none" stroke="blue" stroke-width="2.03" d="M302.01,-866.35C308.59,-856.11 319.61,-837.68 325.64,-820.4 347.86,-756.74 352.64,-738.54 352.64,-671.12 352.64,-671.12 352.64,-671.12 352.64,-409.2 352.64,-376.34 348.61,-340.22 343.99,-309.65"/>
<polygon fill="blue" stroke="blue" stroke-width="2.03" points="347.41,-308.85 342.41,-299.51 340.5,-309.93 347.41,-308.85"/>
<text text-anchor="middle" x="368.14" y="-581.28" font-family="Times,serif" font-size="9.00">&#45;0.643</text>
</g>
<!-- go -->
<g id="node2" class="node">
<title>go</title>
<polygon fill="green" stroke="black" points="427.64,-884.4 399.64,-884.4 399.64,-866.4 427.64,-866.4 427.64,-884.4"/>
<text text-anchor="middle" x="413.64" y="-873.2" font-family="Times,serif" font-size="9.00">go</text>
</g>
<!-- go&#45;&gt;key 235
bias &#45;0.400
h_scaling 1.000 -->
<g id="edge1" class="edge">
<title>go&#45;&gt;key 235
bias &#45;0.400
h_scaling 1.000</title>
<path fill="none" stroke="red" stroke-width="2.01" d="M399.24,-869.33C373.8,-860.25 319.33,-840.31 274.64,-820.4 255.23,-811.75 234.5,-801.64 215.65,-792.09"/>
<polygon fill="red" stroke="red" stroke-width="2.01" points="217.06,-788.88 206.57,-787.46 213.89,-795.12 217.06,-788.88"/>
<text text-anchor="middle" x="355.64" y="-841.2" font-family="Times,serif" font-size="9.00">0.636</text>
</g>
<!-- go&#45;&gt;key 6516
bias 0.478
h_scaling 1.000 -->
<g id="edge5" class="edge">
<title>go&#45;&gt;key 6516
bias 0.478
h_scaling 1.000</title>
<path fill="none" stroke="blue" stroke-width="3.04" d="M410.93,-866.2C401.83,-839.48 370.43,-753.1 325.64,-693.12 308.27,-669.86 285.44,-647.61 264.41,-629.37"/>
<polygon fill="blue" stroke="blue" stroke-width="3.04" points="266.64,-626.67 256.77,-622.84 262.1,-631.99 266.64,-626.67"/>
<text text-anchor="middle" x="409.14" y="-754.56" font-family="Times,serif" font-size="9.00">&#45;0.979</text>
</g>
<!-- go&#45;&gt;key 6910
bias &#45;0.132
h_scaling 1.000 -->
<g id="edge4" class="edge">
<title>go&#45;&gt;key 6910
bias &#45;0.132
h_scaling 1.000</title>
<path fill="none" stroke="blue" stroke-width="0.69" d="M421.11,-866.34C436.99,-848.35 472.64,-802.92 472.64,-757.76 472.64,-757.76 472.64,-757.76 472.64,-409.2 472.64,-355.29 430.43,-309.25 392.04,-278.52"/>
<polygon fill="blue" stroke="blue" stroke-width="0.69" points="393.96,-275.58 383.92,-272.2 389.66,-281.11 393.96,-275.58"/>
<text text-anchor="middle" x="488.14" y="-581.28" font-family="Times,serif" font-size="9.00">&#45;0.196</text>
</g>
<!-- output
bias &#45;0.552
h_scaling 1.000 -->
<g id="node3" class="node">
<title>output
bias &#45;0.552
h_scaling 1.000</title>
<ellipse fill="lightblue" stroke="black" cx="177.64" cy="-410.2" rx="63.78" ry="63.78"/>
<text text-anchor="middle" x="177.64" y="-418" font-family="Times,serif" font-size="9.00">output</text>
<text text-anchor="middle" x="177.64" y="-408" font-family="Times,serif" font-size="9.00">bias &#45;0.552</text>
<text text-anchor="middle" x="177.64" y="-398" font-family="Times,serif" font-size="9.00">h_scaling 1.000</text>
</g>
<!-- key 79094
bias &#45;0.624
h_scaling 1.000 -->
<g id="node7" class="node">
<title>key 79094
bias &#45;0.624
h_scaling 1.000</title>
<ellipse fill="white" stroke="black" cx="183.64" cy="-236.92" rx="63.78" ry="63.78"/>
<text text-anchor="middle" x="183.64" y="-244.72" font-family="Times,serif" font-size="9.00">key 79094</text>
<text text-anchor="middle" x="183.64" y="-234.72" font-family="Times,serif" font-size="9.00">bias &#45;0.624</text>
<text text-anchor="middle" x="183.64" y="-224.72" font-family="Times,serif" font-size="9.00">h_scaling 1.000</text>
</g>
<!-- output
bias &#45;0.552
h_scaling 1.000&#45;&gt;key 79094
bias &#45;0.624
h_scaling 1.000 -->
<g id="edge13" class="edge">
<title>output
bias &#45;0.552
h_scaling 1.000&#45;&gt;key 79094
bias &#45;0.624
h_scaling 1.000</title>
<path fill="none" stroke="blue" stroke-width="1.24" d="M136.96,-361.22C130.05,-347.83 126.32,-332.99 130.64,-318.56 132.87,-311.11 136.03,-303.71 139.71,-296.59"/>
<polygon fill="blue" stroke="blue" stroke-width="1.24" points="142.84,-298.18 144.63,-287.74 136.72,-294.78 142.84,-298.18"/>
<text text-anchor="middle" x="146.14" y="-321.36" font-family="Times,serif" font-size="9.00">&#45;0.380</text>
</g>
<!-- output
bias &#45;0.552
h_scaling 1.000&#45;&gt;key 6910
bias &#45;0.132
h_scaling 1.000 -->
<g id="edge7" class="edge">
<title>output
bias &#45;0.552
h_scaling 1.000&#45;&gt;key 6910
bias &#45;0.132
h_scaling 1.000</title>
<path fill="none" stroke="red" stroke-width="1.25" d="M219.85,-361.94C239,-340.51 261.76,-315.03 281.66,-292.75"/>
<polygon fill="red" stroke="red" stroke-width="1.25" points="284.51,-294.81 288.56,-285.02 279.29,-290.15 284.51,-294.81"/>
<text text-anchor="middle" x="267.64" y="-321.36" font-family="Times,serif" font-size="9.00">0.382</text>
</g>
<!-- key 93570
bias &#45;0.486
h_scaling 1.000 -->
<g id="node4" class="node">
<title>key 93570
bias &#45;0.486
h_scaling 1.000</title>
<ellipse fill="white" stroke="black" cx="63.64" cy="-63.64" rx="63.78" ry="63.78"/>
<text text-anchor="middle" x="63.64" y="-71.44" font-family="Times,serif" font-size="9.00">key 93570</text>
<text text-anchor="middle" x="63.64" y="-61.44" font-family="Times,serif" font-size="9.00">bias &#45;0.486</text>
<text text-anchor="middle" x="63.64" y="-51.44" font-family="Times,serif" font-size="9.00">h_scaling 1.000</text>
</g>
<!-- key 93570
bias &#45;0.486
h_scaling 1.000&#45;&gt;key 235
bias &#45;0.400
h_scaling 1.000 -->
<g id="edge17" class="edge">
<title>key 93570
bias &#45;0.486
h_scaling 1.000&#45;&gt;key 235
bias &#45;0.400
h_scaling 1.000</title>
<path fill="none" stroke="red" stroke-width="1.26" d="M55.03,-126.75C51.24,-159.21 47.64,-199.63 47.64,-235.92 47.64,-584.48 47.64,-584.48 47.64,-584.48 47.64,-628.94 73.45,-671.81 99.22,-703.53"/>
<polygon fill="red" stroke="red" stroke-width="1.26" points="96.66,-705.92 105.76,-711.35 102.03,-701.44 96.66,-705.92"/>
<text text-anchor="middle" x="61.64" y="-408" font-family="Times,serif" font-size="9.00">0.387</text>
</g>
<!-- key 235
bias &#45;0.400
h_scaling 1.000&#45;&gt;output
bias &#45;0.552
h_scaling 1.000 -->
<g id="edge12" class="edge">
<title>key 235
bias &#45;0.400
h_scaling 1.000&#45;&gt;output
bias &#45;0.552
h_scaling 1.000</title>
<path fill="none" stroke="blue" stroke-width="3.02" d="M120.85,-700.3C113.39,-683.67 106.43,-665.07 102.64,-647.12 90.96,-591.77 85.81,-573.84 102.64,-519.84 108.48,-501.11 118.79,-482.76 129.94,-466.64"/>
<polygon fill="blue" stroke="blue" stroke-width="3.02" points="132.85,-468.58 135.83,-458.41 127.16,-464.51 132.85,-468.58"/>
<text text-anchor="middle" x="118.14" y="-581.28" font-family="Times,serif" font-size="9.00">&#45;0.974</text>
</g>
<!-- key 235
bias &#45;0.400
h_scaling 1.000&#45;&gt;key 235
bias &#45;0.400
h_scaling 1.000 -->
<g id="edge6" class="edge">
<title>key 235
bias &#45;0.400
h_scaling 1.000&#45;&gt;key 235
bias &#45;0.400
h_scaling 1.000</title>
<path fill="none" stroke="red" stroke-width="1.96" d="M212.58,-772.05C224.14,-770.17 232.28,-765.07 232.28,-756.76 232.28,-751.04 228.43,-746.84 222.27,-744.17"/>
<polygon fill="red" stroke="red" stroke-width="1.96" points="223.16,-740.78 212.58,-741.46 221.27,-747.52 223.16,-740.78"/>
<text text-anchor="middle" x="246.28" y="-754.56" font-family="Times,serif" font-size="9.00">0.619</text>
</g>
<!-- key 235
bias &#45;0.400
h_scaling 1.000&#45;&gt;key 6516
bias 0.478
h_scaling 1.000 -->
<g id="edge2" class="edge">
<title>key 235
bias &#45;0.400
h_scaling 1.000&#45;&gt;key 6516
bias 0.478
h_scaling 1.000</title>
<path fill="none" stroke="blue" stroke-width="3.05" d="M148.24,-693.07C149.16,-683.56 150.83,-673.97 153.64,-665.12 155.99,-657.71 159.23,-650.33 162.96,-643.23"/>
<polygon fill="blue" stroke="blue" stroke-width="3.05" points="166.08,-644.82 167.92,-634.38 159.98,-641.4 166.08,-644.82"/>
<text text-anchor="middle" x="169.14" y="-667.92" font-family="Times,serif" font-size="9.00">&#45;0.984</text>
</g>
<!-- key 6516
bias 0.478
h_scaling 1.000&#45;&gt;output
bias &#45;0.552
h_scaling 1.000 -->
<g id="edge3" class="edge">
<title>key 6516
bias 0.478
h_scaling 1.000&#45;&gt;output
bias &#45;0.552
h_scaling 1.000</title>
<path fill="none" stroke="red" stroke-width="3.09" d="M196.17,-520.64C194.11,-508.47 191.93,-495.6 189.82,-483.13"/>
<polygon fill="red" stroke="red" stroke-width="3.09" points="193.26,-482.51 188.14,-473.23 186.36,-483.67 193.26,-482.51"/>
<text text-anchor="middle" x="205.64" y="-494.64" font-family="Times,serif" font-size="9.00">0.996</text>
</g>
<!-- key 6516
bias 0.478
h_scaling 1.000&#45;&gt;key 235
bias &#45;0.400
h_scaling 1.000 -->
<g id="edge9" class="edge">
<title>key 6516
bias 0.478
h_scaling 1.000&#45;&gt;key 235
bias &#45;0.400
h_scaling 1.000</title>
<path fill="none" stroke="blue" stroke-width="1.28" d="M193.18,-645.8C190.6,-655.68 187.73,-665.74 184.64,-675.12 183.17,-679.57 181.56,-684.13 179.87,-688.69"/>
<polygon fill="blue" stroke="blue" stroke-width="1.28" points="176.59,-687.45 176.29,-698.04 183.13,-689.95 176.59,-687.45"/>
<text text-anchor="middle" x="203.14" y="-667.92" font-family="Times,serif" font-size="9.00">&#45;0.394</text>
</g>
<!-- key 6516
bias 0.478
h_scaling 1.000&#45;&gt;key 6516
bias 0.478
h_scaling 1.000 -->
<g id="edge15" class="edge">
<title>key 6516
bias 0.478
h_scaling 1.000&#45;&gt;key 6516
bias 0.478
h_scaling 1.000</title>
<path fill="none" stroke="red" stroke-width="0.7" d="M268.58,-598.77C280.14,-596.89 288.28,-591.79 288.28,-583.48 288.28,-577.76 284.43,-573.56 278.27,-570.89"/>
<polygon fill="red" stroke="red" stroke-width="0.7" points="279.16,-567.5 268.58,-568.18 277.27,-574.24 279.16,-567.5"/>
<text text-anchor="middle" x="302.28" y="-581.28" font-family="Times,serif" font-size="9.00">0.201</text>
</g>
<!-- key 6516
bias 0.478
h_scaling 1.000&#45;&gt;key 79094
bias &#45;0.624
h_scaling 1.000 -->
<g id="edge18" class="edge">
<title>key 6516
bias 0.478
h_scaling 1.000&#45;&gt;key 79094
bias &#45;0.624
h_scaling 1.000</title>
<path fill="none" stroke="red" stroke-width="1.8" d="M237.09,-527.46C263.07,-472.86 292.07,-387.58 263.64,-318.56 258.44,-305.94 250.21,-294.25 240.96,-283.91"/>
<polygon fill="red" stroke="red" stroke-width="1.8" points="243.49,-281.49 234.08,-276.63 238.4,-286.3 243.49,-281.49"/>
<text text-anchor="middle" x="288.64" y="-408" font-family="Times,serif" font-size="9.00">0.566</text>
</g>
<!-- key 79094
bias &#45;0.624
h_scaling 1.000&#45;&gt;output
bias &#45;0.552
h_scaling 1.000 -->
<g id="edge19" class="edge">
<title>key 79094
bias &#45;0.624
h_scaling 1.000&#45;&gt;output
bias &#45;0.552
h_scaling 1.000</title>
<path fill="none" stroke="red" stroke-width="2.73" d="M181.44,-300.72C181.04,-312.24 180.61,-324.35 180.2,-336.14"/>
<polygon fill="red" stroke="red" stroke-width="2.73" points="176.69,-336.28 179.84,-346.39 183.69,-336.52 176.69,-336.28"/>
<text text-anchor="middle" x="194.64" y="-321.36" font-family="Times,serif" font-size="9.00">0.875</text>
</g>
<!-- key 6910
bias &#45;0.132
h_scaling 1.000&#45;&gt;key 93570
bias &#45;0.486
h_scaling 1.000 -->
<g id="edge16" class="edge">
<title>key 6910
bias &#45;0.132
h_scaling 1.000&#45;&gt;key 93570
bias &#45;0.486
h_scaling 1.000</title>
<path fill="none" stroke="red" stroke-width="3.1" d="M283.53,-193.77C274.81,-186.64 265.62,-179.53 256.64,-173.28 216.01,-145.03 167.47,-117.73 129.22,-97.56"/>
<polygon fill="red" stroke="red" stroke-width="3.1" points="130.72,-94.4 120.23,-92.86 127.47,-100.6 130.72,-94.4"/>
<text text-anchor="middle" x="239.64" y="-148.08" font-family="Times,serif" font-size="9.00">1.000</text>
</g>
<!-- key 6910
bias &#45;0.132
h_scaling 1.000&#45;&gt;key 6910
bias &#45;0.132
h_scaling 1.000 -->
<g id="edge14" class="edge">
<title>key 6910
bias &#45;0.132
h_scaling 1.000&#45;&gt;key 6910
bias &#45;0.132
h_scaling 1.000</title>
<path fill="none" stroke="red" stroke-width="1.25" d="M392.58,-252.22C404.14,-250.33 412.28,-245.23 412.28,-236.92 412.28,-231.2 408.43,-227.01 402.27,-224.33"/>
<polygon fill="red" stroke="red" stroke-width="1.25" points="403.16,-220.94 392.58,-221.62 401.27,-227.68 403.16,-220.94"/>
<text text-anchor="middle" x="426.28" y="-234.72" font-family="Times,serif" font-size="9.00">0.383</text>
</g>
</g>
</svg>
