<?xml version="1.0" encoding="UTF-8" standalone="no"?>
<!DOCTYPE svg PUBLIC "-//W3C//DTD SVG 1.1//EN"
 "http://www.w3.org/Graphics/SVG/1.1/DTD/svg11.dtd">
<!-- Generated by graphviz version 2.43.0 (0)
 -->
<!-- Title: %3 Pages: 1 -->
<svg width="489pt" height="836pt"
 viewBox="0.00 0.00 488.83 836.40" xmlns="http://www.w3.org/2000/svg" xmlns:xlink="http://www.w3.org/1999/xlink">
<g id="graph0" class="graph" transform="scale(1 1) rotate(0) translate(4 832.4)">
<title>%3</title>
<polygon fill="white" stroke="transparent" points="-4,4 -4,-832.4 484.83,-832.4 484.83,4 -4,4"/>
<!-- ready -->
<g id="node1" class="node">
<title>ready</title>
<polygon fill="yellow" stroke="black" points="185.7,-828.4 142.7,-828.4 142.7,-810.4 185.7,-810.4 185.7,-828.4"/>
<text text-anchor="middle" x="164.2" y="-817.2" font-family="Times,serif" font-size="9.00">ready</text>
</g>
<!-- key 2923
bias 0.457
h_scaling 0.973 -->
<g id="node5" class="node">
<title>key 2923
bias 0.457
h_scaling 0.973</title>
<ellipse fill="white" stroke="black" cx="136.2" cy="-527.48" rx="63.78" ry="63.78"/>
<text text-anchor="middle" x="136.2" y="-535.28" font-family="Times,serif" font-size="9.00">key 2923</text>
<text text-anchor="middle" x="136.2" y="-525.28" font-family="Times,serif" font-size="9.00">bias 0.457</text>
<text text-anchor="middle" x="136.2" y="-515.28" font-family="Times,serif" font-size="9.00">h_scaling 0.973</text>
</g>
<!-- ready&#45;&gt;key 2923
bias 0.457
h_scaling 0.973 -->
<g id="edge15" class="edge">
<title>ready&#45;&gt;key 2923
bias 0.457
h_scaling 0.973</title>
<path fill="none" stroke="blue" stroke-width="1.18" d="M163.42,-810.34C160.54,-780.51 150.28,-674.3 143.21,-601.13"/>
<polygon fill="blue" stroke="blue" stroke-width="1.18" points="146.68,-600.66 142.24,-591.04 139.72,-601.33 146.68,-600.66"/>
<text text-anchor="middle" x="173.7" y="-698.56" font-family="Times,serif" font-size="9.00">&#45;0.361</text>
</g>
<!-- key 131602
bias &#45;0.581
h_scaling 0.026 -->
<g id="node6" class="node">
<title>key 131602
bias &#45;0.581
h_scaling 0.026</title>
<ellipse fill="white" stroke="black" cx="268.2" cy="-700.76" rx="63.78" ry="63.78"/>
<text text-anchor="middle" x="268.2" y="-708.56" font-family="Times,serif" font-size="9.00">key 131602</text>
<text text-anchor="middle" x="268.2" y="-698.56" font-family="Times,serif" font-size="9.00">bias &#45;0.581</text>
<text text-anchor="middle" x="268.2" y="-688.56" font-family="Times,serif" font-size="9.00">h_scaling 0.026</text>
</g>
<!-- ready&#45;&gt;key 131602
bias &#45;0.581
h_scaling 0.026 -->
<g id="edge10" class="edge">
<title>ready&#45;&gt;key 131602
bias &#45;0.581
h_scaling 0.026</title>
<path fill="none" stroke="red" stroke-width="3.1" d="M171.34,-810.38C181.44,-799.06 200.74,-777.41 219.47,-756.4"/>
<polygon fill="red" stroke="red" stroke-width="3.1" points="222.28,-758.51 226.33,-748.71 217.06,-753.85 222.28,-758.51"/>
<text text-anchor="middle" x="208.2" y="-785.2" font-family="Times,serif" font-size="9.00">1.000</text>
</g>
<!-- go -->
<g id="node2" class="node">
<title>go</title>
<polygon fill="green" stroke="black" points="81.2,-709.76 53.2,-709.76 53.2,-691.76 81.2,-691.76 81.2,-709.76"/>
<text text-anchor="middle" x="67.2" y="-698.56" font-family="Times,serif" font-size="9.00">go</text>
</g>
<!-- key 42178
bias &#45;0.735
h_scaling 0.730 -->
<g id="node4" class="node">
<title>key 42178
bias &#45;0.735
h_scaling 0.730</title>
<ellipse fill="white" stroke="black" cx="193.2" cy="-63.64" rx="63.78" ry="63.78"/>
<text text-anchor="middle" x="193.2" y="-71.44" font-family="Times,serif" font-size="9.00">key 42178</text>
<text text-anchor="middle" x="193.2" y="-61.44" font-family="Times,serif" font-size="9.00">bias &#45;0.735</text>
<text text-anchor="middle" x="193.2" y="-51.44" font-family="Times,serif" font-size="9.00">h_scaling 0.730</text>
</g>
<!-- go&#45;&gt;key 42178
bias &#45;0.735
h_scaling 0.730 -->
<g id="edge6" class="edge">
<title>go&#45;&gt;key 42178
bias &#45;0.735
h_scaling 0.730</title>
<path fill="none" stroke="blue" stroke-width="2.91" d="M64.02,-691.72C44.57,-641.09 -54.62,-362.21 42.2,-173.28 59.97,-138.6 94.53,-112.48 126.11,-94.55"/>
<polygon fill="blue" stroke="blue" stroke-width="2.91" points="127.84,-97.59 134.92,-89.71 124.47,-91.46 127.84,-97.59"/>
<text text-anchor="middle" x="20.7" y="-380" font-family="Times,serif" font-size="9.00">&#45;0.935</text>
</g>
<!-- go&#45;&gt;key 2923
bias 0.457
h_scaling 0.973 -->
<g id="edge2" class="edge">
<title>go&#45;&gt;key 2923
bias 0.457
h_scaling 0.973</title>
<path fill="none" stroke="red" stroke-width="2.96" d="M70.52,-691.5C77.44,-674.32 93.97,-633.31 108.71,-596.72"/>
<polygon fill="red" stroke="red" stroke-width="2.96" points="112.12,-597.62 112.61,-587.03 105.62,-595 112.12,-597.62"/>
<text text-anchor="middle" x="116.2" y="-611.92" font-family="Times,serif" font-size="9.00">0.952</text>
</g>
<!-- output
bias 0.227
h_scaling 0.438 -->
<g id="node3" class="node">
<title>output
bias 0.227
h_scaling 0.438</title>
<ellipse fill="lightblue" stroke="black" cx="115.2" cy="-236.92" rx="63.78" ry="63.78"/>
<text text-anchor="middle" x="115.2" y="-244.72" font-family="Times,serif" font-size="9.00">output</text>
<text text-anchor="middle" x="115.2" y="-234.72" font-family="Times,serif" font-size="9.00">bias 0.227</text>
<text text-anchor="middle" x="115.2" y="-224.72" font-family="Times,serif" font-size="9.00">h_scaling 0.438</text>
</g>
<!-- output
bias 0.227
h_scaling 0.438&#45;&gt;key 42178
bias &#45;0.735
h_scaling 0.730 -->
<g id="edge9" class="edge">
<title>output
bias 0.227
h_scaling 0.438&#45;&gt;key 42178
bias &#45;0.735
h_scaling 0.730</title>
<path fill="none" stroke="blue" stroke-width="2.68" d="M111.44,-173.24C112.52,-163.63 114.59,-154.01 118.2,-145.28 122.97,-133.7 130.21,-122.77 138.34,-112.91"/>
<polygon fill="blue" stroke="blue" stroke-width="2.68" points="141.09,-115.09 145.02,-105.25 135.81,-110.49 141.09,-115.09"/>
<text text-anchor="middle" x="133.7" y="-148.08" font-family="Times,serif" font-size="9.00">&#45;0.860</text>
</g>
<!-- output
bias 0.227
h_scaling 0.438&#45;&gt;key 2923
bias 0.457
h_scaling 0.973 -->
<g id="edge3" class="edge">
<title>output
bias 0.227
h_scaling 0.438&#45;&gt;key 2923
bias 0.457
h_scaling 0.973</title>
<path fill="none" stroke="red" stroke-width="1.65" d="M128.52,-299.39C129.58,-305.84 130.51,-312.32 131.2,-318.56 136.12,-363.13 137.44,-413.39 137.5,-453.33"/>
<polygon fill="red" stroke="red" stroke-width="1.65" points="134,-453.51 137.49,-463.51 141,-453.51 134,-453.51"/>
<text text-anchor="middle" x="151.2" y="-380" font-family="Times,serif" font-size="9.00">0.518</text>
</g>
<!-- key 42178
bias &#45;0.735
h_scaling 0.730&#45;&gt;output
bias 0.227
h_scaling 0.438 -->
<g id="edge16" class="edge">
<title>key 42178
bias &#45;0.735
h_scaling 0.730&#45;&gt;output
bias 0.227
h_scaling 0.438</title>
<path fill="none" stroke="red" stroke-width="0.71" d="M167.07,-122C160.22,-137.04 152.78,-153.39 145.72,-168.89"/>
<polygon fill="red" stroke="red" stroke-width="0.71" points="142.34,-167.86 141.39,-178.41 148.71,-170.76 142.34,-167.86"/>
<text text-anchor="middle" x="168.2" y="-148.08" font-family="Times,serif" font-size="9.00">0.204</text>
</g>
<!-- key 42178
bias &#45;0.735
h_scaling 0.730&#45;&gt;key 42178
bias &#45;0.735
h_scaling 0.730 -->
<g id="edge8" class="edge">
<title>key 42178
bias &#45;0.735
h_scaling 0.730&#45;&gt;key 42178
bias &#45;0.735
h_scaling 0.730</title>
<path fill="none" stroke="red" stroke-width="2.94" d="M255.14,-78.94C266.7,-77.05 274.83,-71.95 274.83,-63.64 274.83,-57.92 270.99,-53.73 264.83,-51.05"/>
<polygon fill="red" stroke="red" stroke-width="2.94" points="265.71,-47.66 255.14,-48.34 263.83,-54.4 265.71,-47.66"/>
<text text-anchor="middle" x="288.83" y="-61.44" font-family="Times,serif" font-size="9.00">0.946</text>
</g>
<!-- key 42178
bias &#45;0.735
h_scaling 0.730&#45;&gt;key 2923
bias 0.457
h_scaling 0.973 -->
<g id="edge5" class="edge">
<title>key 42178
bias &#45;0.735
h_scaling 0.730&#45;&gt;key 2923
bias 0.457
h_scaling 0.973</title>
<path fill="none" stroke="blue" stroke-width="3" d="M196.65,-127.23C199.2,-203.75 198.18,-336.55 169.2,-445.84 168.03,-450.23 166.68,-454.71 165.21,-459.18"/>
<polygon fill="blue" stroke="blue" stroke-width="3" points="161.8,-458.36 161.82,-468.95 168.41,-460.65 161.8,-458.36"/>
<text text-anchor="middle" x="212.7" y="-234.72" font-family="Times,serif" font-size="9.00">&#45;0.967</text>
</g>
<!-- key 2923
bias 0.457
h_scaling 0.973&#45;&gt;output
bias 0.227
h_scaling 0.438 -->
<g id="edge1" class="edge">
<title>key 2923
bias 0.457
h_scaling 0.973&#45;&gt;output
bias 0.227
h_scaling 0.438</title>
<path fill="none" stroke="blue" stroke-width="3.05" d="M107.55,-470.21C104.52,-462.2 101.92,-453.93 100.2,-445.84 90.67,-401.13 94.19,-349.93 100.21,-309.53"/>
<polygon fill="blue" stroke="blue" stroke-width="3.05" points="103.69,-309.92 101.79,-299.5 96.78,-308.83 103.69,-309.92"/>
<text text-anchor="middle" x="115.7" y="-380" font-family="Times,serif" font-size="9.00">&#45;0.983</text>
</g>
<!-- key 2923
bias 0.457
h_scaling 0.973&#45;&gt;key 2923
bias 0.457
h_scaling 0.973 -->
<g id="edge4" class="edge">
<title>key 2923
bias 0.457
h_scaling 0.973&#45;&gt;key 2923
bias 0.457
h_scaling 0.973</title>
<path fill="none" stroke="red" stroke-width="2.47" d="M198.14,-542.77C209.7,-540.89 217.83,-535.79 217.83,-527.48 217.83,-521.76 213.99,-517.56 207.83,-514.89"/>
<polygon fill="red" stroke="red" stroke-width="2.47" points="208.71,-511.5 198.14,-512.18 206.83,-518.24 208.71,-511.5"/>
<text text-anchor="middle" x="231.83" y="-525.28" font-family="Times,serif" font-size="9.00">0.791</text>
</g>
<!-- key 131602
bias &#45;0.581
h_scaling 0.026&#45;&gt;key 42178
bias &#45;0.735
h_scaling 0.730 -->
<g id="edge13" class="edge">
<title>key 131602
bias &#45;0.581
h_scaling 0.026&#45;&gt;key 42178
bias &#45;0.735
h_scaling 0.730</title>
<path fill="none" stroke="red" stroke-width="0.79" d="M269.67,-636.95C270.72,-537.42 267.59,-337.86 232.2,-173.28 229.3,-159.8 225.14,-145.72 220.61,-132.33"/>
<polygon fill="red" stroke="red" stroke-width="0.79" points="223.86,-131.02 217.26,-122.73 217.25,-133.32 223.86,-131.02"/>
<text text-anchor="middle" x="279.2" y="-380" font-family="Times,serif" font-size="9.00">0.231</text>
</g>
<!-- key 131602
bias &#45;0.581
h_scaling 0.026&#45;&gt;key 2923
bias 0.457
h_scaling 0.973 -->
<g id="edge11" class="edge">
<title>key 131602
bias &#45;0.581
h_scaling 0.026&#45;&gt;key 2923
bias 0.457
h_scaling 0.973</title>
<path fill="none" stroke="blue" stroke-width="2.13" d="M229.66,-649.76C214.41,-629.97 196.78,-607.09 180.97,-586.57"/>
<polygon fill="blue" stroke="blue" stroke-width="2.13" points="183.65,-584.33 174.78,-578.54 178.11,-588.6 183.65,-584.33"/>
<text text-anchor="middle" x="217.7" y="-611.92" font-family="Times,serif" font-size="9.00">&#45;0.677</text>
</g>
<!-- key 131602
bias &#45;0.581
h_scaling 0.026&#45;&gt;key 131602
bias &#45;0.581
h_scaling 0.026 -->
<g id="edge12" class="edge">
<title>key 131602
bias &#45;0.581
h_scaling 0.026&#45;&gt;key 131602
bias &#45;0.581
h_scaling 0.026</title>
<path fill="none" stroke="red" stroke-width="2.85" d="M330.14,-716.05C341.7,-714.17 349.83,-709.07 349.83,-700.76 349.83,-695.04 345.99,-690.84 339.83,-688.17"/>
<polygon fill="red" stroke="red" stroke-width="2.85" points="340.71,-684.78 330.14,-685.46 338.83,-691.52 340.71,-684.78"/>
<text text-anchor="middle" x="363.83" y="-698.56" font-family="Times,serif" font-size="9.00">0.916</text>
</g>
<!-- key 69010
bias &#45;0.093
h_scaling 0.960 -->
<g id="node7" class="node">
<title>key 69010
bias &#45;0.093
h_scaling 0.960</title>
<ellipse fill="white" stroke="black" cx="371.2" cy="-382.2" rx="63.78" ry="63.78"/>
<text text-anchor="middle" x="371.2" y="-390" font-family="Times,serif" font-size="9.00">key 69010</text>
<text text-anchor="middle" x="371.2" y="-380" font-family="Times,serif" font-size="9.00">bias &#45;0.093</text>
<text text-anchor="middle" x="371.2" y="-370" font-family="Times,serif" font-size="9.00">h_scaling 0.960</text>
</g>
<!-- key 131602
bias &#45;0.581
h_scaling 0.026&#45;&gt;key 69010
bias &#45;0.093
h_scaling 0.960 -->
<g id="edge14" class="edge">
<title>key 131602
bias &#45;0.581
h_scaling 0.026&#45;&gt;key 69010
bias &#45;0.093
h_scaling 0.960</title>
<path fill="none" stroke="red" stroke-width="3.08" d="M287.69,-639.84C305.02,-586.58 330.36,-508.69 348.58,-452.7"/>
<polygon fill="red" stroke="red" stroke-width="3.08" points="352.01,-453.46 351.78,-442.87 345.36,-451.29 352.01,-453.46"/>
<text text-anchor="middle" x="310.2" y="-611.92" font-family="Times,serif" font-size="9.00">0.993</text>
</g>
<!-- key 69010
bias &#45;0.093
h_scaling 0.960&#45;&gt;key 42178
bias &#45;0.735
h_scaling 0.730 -->
<g id="edge7" class="edge">
<title>key 69010
bias &#45;0.093
h_scaling 0.960&#45;&gt;key 42178
bias &#45;0.735
h_scaling 0.730</title>
<path fill="none" stroke="red" stroke-width="1.38" d="M358.97,-319.69C346.89,-269.51 324.8,-198.49 288.2,-145.28 278.65,-131.41 266.13,-118.51 253.32,-107.29"/>
<polygon fill="red" stroke="red" stroke-width="1.38" points="255.22,-104.31 245.33,-100.52 250.7,-109.65 255.22,-104.31"/>
<text text-anchor="middle" x="367.2" y="-234.72" font-family="Times,serif" font-size="9.00">0.428</text>
</g>
<!-- key 69010
bias &#45;0.093
h_scaling 0.960&#45;&gt;key 69010
bias &#45;0.093
h_scaling 0.960 -->
<g id="edge17" class="edge">
<title>key 69010
bias &#45;0.093
h_scaling 0.960&#45;&gt;key 69010
bias &#45;0.093
h_scaling 0.960</title>
<path fill="none" stroke="red" stroke-width="0.34" d="M429.17,-408.66C442.79,-406.49 452.83,-397.67 452.83,-382.2 452.83,-370.72 447.3,-362.9 438.88,-358.74"/>
<polygon fill="red" stroke="red" stroke-width="0.34" points="439.75,-355.35 429.17,-355.73 437.68,-362.03 439.75,-355.35"/>
<text text-anchor="middle" x="466.83" y="-380" font-family="Times,serif" font-size="9.00">0.081</text>
</g>
</g>
</svg>
