<?xml version="1.0" encoding="UTF-8" standalone="no"?>
<!DOCTYPE svg PUBLIC "-//W3C//DTD SVG 1.1//EN"
 "http://www.w3.org/Graphics/SVG/1.1/DTD/svg11.dtd">
<!-- Generated by graphviz version 2.43.0 (0)
 -->
<!-- Title: %3 Pages: 1 -->
<svg width="444pt" height="1076pt"
 viewBox="0.00 0.00 443.58 1075.68" xmlns="http://www.w3.org/2000/svg" xmlns:xlink="http://www.w3.org/1999/xlink">
<g id="graph0" class="graph" transform="scale(1 1) rotate(0) translate(4 1071.68)">
<title>%3</title>
<polygon fill="white" stroke="transparent" points="-4,4 -4,-1071.68 439.58,-1071.68 439.58,4 -4,4"/>
<!-- ready
output 0.000 -->
<g id="node1" class="node">
<title>ready
output 0.000</title>
<polygon fill="yellow" stroke="black" points="158.45,-1067.68 81.45,-1067.68 81.45,-1039.68 158.45,-1039.68 158.45,-1067.68"/>
<text text-anchor="middle" x="119.95" y="-1056.48" font-family="Times,serif" font-size="9.00">ready</text>
<text text-anchor="middle" x="119.95" y="-1046.48" font-family="Times,serif" font-size="9.00">output 0.000</text>
</g>
<!-- key 229409
bias &#45;0.318
h_scaling 1.000
output 0.859 -->
<g id="node4" class="node">
<title>key 229409
bias &#45;0.318
h_scaling 1.000
output 0.859</title>
<ellipse fill="white" stroke="black" cx="119.95" cy="-930.04" rx="63.78" ry="63.78"/>
<text text-anchor="middle" x="119.95" y="-942.84" font-family="Times,serif" font-size="9.00">key 229409</text>
<text text-anchor="middle" x="119.95" y="-932.84" font-family="Times,serif" font-size="9.00">bias &#45;0.318</text>
<text text-anchor="middle" x="119.95" y="-922.84" font-family="Times,serif" font-size="9.00">h_scaling 1.000</text>
<text text-anchor="middle" x="119.95" y="-912.84" font-family="Times,serif" font-size="9.00">output 0.859</text>
</g>
<!-- ready
output 0.000&#45;&gt;key 229409
bias &#45;0.318
h_scaling 1.000
output 0.859 -->
<g id="edge11" class="edge">
<title>ready
output 0.000&#45;&gt;key 229409
bias &#45;0.318
h_scaling 1.000
output 0.859</title>
<path fill="none" stroke="red" stroke-width="0.1" d="M119.95,-1039.66C119.95,-1030.58 119.95,-1017.67 119.95,-1003.91"/>
<polygon fill="red" stroke="red" stroke-width="0.1" points="123.45,-1003.77 119.95,-993.77 116.45,-1003.77 123.45,-1003.77"/>
<text text-anchor="middle" x="133.95" y="-1014.48" font-family="Times,serif" font-size="9.00">0.776</text>
</g>
<!-- key 224544
bias &#45;0.723
h_scaling 1.000
output 0.513 -->
<g id="node5" class="node">
<title>key 224544
bias &#45;0.723
h_scaling 1.000
output 0.513</title>
<ellipse fill="white" stroke="black" cx="123.95" cy="-756.76" rx="63.78" ry="63.78"/>
<text text-anchor="middle" x="123.95" y="-769.56" font-family="Times,serif" font-size="9.00">key 224544</text>
<text text-anchor="middle" x="123.95" y="-759.56" font-family="Times,serif" font-size="9.00">bias &#45;0.723</text>
<text text-anchor="middle" x="123.95" y="-749.56" font-family="Times,serif" font-size="9.00">h_scaling 1.000</text>
<text text-anchor="middle" x="123.95" y="-739.56" font-family="Times,serif" font-size="9.00">output 0.513</text>
</g>
<!-- ready
output 0.000&#45;&gt;key 224544
bias &#45;0.723
h_scaling 1.000
output 0.513 -->
<g id="edge5" class="edge">
<title>ready
output 0.000&#45;&gt;key 224544
bias &#45;0.723
h_scaling 1.000
output 0.513</title>
<path fill="none" stroke="red" stroke-width="0.1" d="M81.2,-1040.92C58.72,-1031.88 32.29,-1016.92 18.95,-993.68 -9.21,-944.61 -2.26,-918.84 18.95,-866.4 28.84,-841.92 47.18,-819.9 65.8,-802.19"/>
<polygon fill="red" stroke="red" stroke-width="0.1" points="68.23,-804.71 73.21,-795.36 63.48,-799.56 68.23,-804.71"/>
<text text-anchor="middle" x="32.95" y="-927.84" font-family="Times,serif" font-size="9.00">0.530</text>
</g>
<!-- key 3640
bias &#45;0.440
h_scaling 1.000
output 0.356 -->
<g id="node8" class="node">
<title>key 3640
bias &#45;0.440
h_scaling 1.000
output 0.356</title>
<ellipse fill="white" stroke="black" cx="325.95" cy="-583.48" rx="63.78" ry="63.78"/>
<text text-anchor="middle" x="325.95" y="-596.28" font-family="Times,serif" font-size="9.00">key 3640</text>
<text text-anchor="middle" x="325.95" y="-586.28" font-family="Times,serif" font-size="9.00">bias &#45;0.440</text>
<text text-anchor="middle" x="325.95" y="-576.28" font-family="Times,serif" font-size="9.00">h_scaling 1.000</text>
<text text-anchor="middle" x="325.95" y="-566.28" font-family="Times,serif" font-size="9.00">output 0.356</text>
</g>
<!-- ready
output 0.000&#45;&gt;key 3640
bias &#45;0.440
h_scaling 1.000
output 0.356 -->
<g id="edge4" class="edge">
<title>ready
output 0.000&#45;&gt;key 3640
bias &#45;0.440
h_scaling 1.000
output 0.356</title>
<path fill="none" stroke="blue" stroke-width="0.1" d="M147.66,-1039.54C206.15,-1010.05 341,-932.3 391.95,-820.4 415.38,-768.91 407.2,-747.59 391.95,-693.12 387.15,-675.97 378.82,-658.85 369.66,-643.43"/>
<polygon fill="blue" stroke="blue" stroke-width="0.1" points="372.42,-641.24 364.2,-634.56 366.46,-644.91 372.42,-641.24"/>
<text text-anchor="middle" x="397.45" y="-841.2" font-family="Times,serif" font-size="9.00">&#45;0.149</text>
</g>
<!-- go
output 0.000 -->
<g id="node2" class="node">
<title>go
output 0.000</title>
<polygon fill="green" stroke="black" points="328.45,-770.76 251.45,-770.76 251.45,-742.76 328.45,-742.76 328.45,-770.76"/>
<text text-anchor="middle" x="289.95" y="-759.56" font-family="Times,serif" font-size="9.00">go</text>
<text text-anchor="middle" x="289.95" y="-749.56" font-family="Times,serif" font-size="9.00">output 0.000</text>
</g>
<!-- go
output 0.000&#45;&gt;key 3640
bias &#45;0.440
h_scaling 1.000
output 0.356 -->
<g id="edge2" class="edge">
<title>go
output 0.000&#45;&gt;key 3640
bias &#45;0.440
h_scaling 1.000
output 0.356</title>
<path fill="none" stroke="red" stroke-width="0.1" d="M292.71,-742.6C296.62,-724 304.05,-688.65 310.9,-656.08"/>
<polygon fill="red" stroke="red" stroke-width="0.1" points="314.37,-656.59 313,-646.08 307.52,-655.15 314.37,-656.59"/>
<text text-anchor="middle" x="321.95" y="-667.92" font-family="Times,serif" font-size="9.00">0.986</text>
</g>
<!-- output
bias 0.409
h_scaling 1.000
output 0.016 -->
<g id="node3" class="node">
<title>output
bias 0.409
h_scaling 1.000
output 0.016</title>
<ellipse fill="lightblue" stroke="black" cx="112.95" cy="-63.64" rx="63.78" ry="63.78"/>
<text text-anchor="middle" x="112.95" y="-76.44" font-family="Times,serif" font-size="9.00">output</text>
<text text-anchor="middle" x="112.95" y="-66.44" font-family="Times,serif" font-size="9.00">bias 0.409</text>
<text text-anchor="middle" x="112.95" y="-56.44" font-family="Times,serif" font-size="9.00">h_scaling 1.000</text>
<text text-anchor="middle" x="112.95" y="-46.44" font-family="Times,serif" font-size="9.00">output 0.016</text>
</g>
<!-- output
bias 0.409
h_scaling 1.000
output 0.016&#45;&gt;key 229409
bias &#45;0.318
h_scaling 1.000
output 0.859 -->
<g id="edge10" class="edge">
<title>output
bias 0.409
h_scaling 1.000
output 0.016&#45;&gt;key 229409
bias &#45;0.318
h_scaling 1.000
output 0.859</title>
<path fill="none" stroke="blue" stroke-width="0.1" d="M74.82,-114.97C53.81,-147.65 31.95,-192.17 31.95,-235.92 31.95,-757.76 31.95,-757.76 31.95,-757.76 31.95,-799.19 52.57,-840.64 73.85,-872.39"/>
<polygon fill="blue" stroke="blue" stroke-width="0.1" points="70.99,-874.42 79.55,-880.66 76.75,-870.44 70.99,-874.42"/>
<text text-anchor="middle" x="47.45" y="-494.64" font-family="Times,serif" font-size="9.00">&#45;0.148</text>
</g>
<!-- key 229409
bias &#45;0.318
h_scaling 1.000
output 0.859&#45;&gt;key 224544
bias &#45;0.723
h_scaling 1.000
output 0.513 -->
<g id="edge9" class="edge">
<title>key 229409
bias &#45;0.318
h_scaling 1.000
output 0.859&#45;&gt;key 224544
bias &#45;0.723
h_scaling 1.000
output 0.513</title>
<path fill="none" stroke="red" stroke-width="0.1" d="M95.08,-870.94C92.83,-860.21 92.03,-849.03 93.95,-838.4 94.7,-834.18 95.67,-829.89 96.79,-825.61"/>
<polygon fill="red" stroke="red" stroke-width="0.1" points="100.25,-826.22 99.64,-815.65 93.52,-824.3 100.25,-826.22"/>
<text text-anchor="middle" x="107.95" y="-841.2" font-family="Times,serif" font-size="9.00">0.692</text>
</g>
<!-- key 224544
bias &#45;0.723
h_scaling 1.000
output 0.513&#45;&gt;output
bias 0.409
h_scaling 1.000
output 0.016 -->
<g id="edge13" class="edge">
<title>key 224544
bias &#45;0.723
h_scaling 1.000
output 0.513&#45;&gt;output
bias 0.409
h_scaling 1.000
output 0.016</title>
<path fill="none" stroke="red" stroke-width="0.1" d="M100.14,-697.34C88.91,-664.7 77.95,-622.96 77.95,-584.48 77.95,-584.48 77.95,-584.48 77.95,-235.92 77.95,-202.1 84.58,-165.26 92.07,-134.45"/>
<polygon fill="red" stroke="red" stroke-width="0.1" points="95.48,-135.22 94.52,-124.67 88.69,-133.52 95.48,-135.22"/>
<text text-anchor="middle" x="91.95" y="-408" font-family="Times,serif" font-size="9.00">0.394</text>
</g>
<!-- key 224544
bias &#45;0.723
h_scaling 1.000
output 0.513&#45;&gt;key 229409
bias &#45;0.318
h_scaling 1.000
output 0.859 -->
<g id="edge8" class="edge">
<title>key 224544
bias &#45;0.723
h_scaling 1.000
output 0.513&#45;&gt;key 229409
bias &#45;0.318
h_scaling 1.000
output 0.859</title>
<path fill="none" stroke="red" stroke-width="0.1" d="M126.3,-820.66C126.36,-829.96 126.28,-839.43 125.95,-848.4 125.85,-851.07 125.73,-853.78 125.6,-856.53"/>
<polygon fill="red" stroke="red" stroke-width="0.1" points="122.1,-856.37 125.05,-866.55 129.09,-856.75 122.1,-856.37"/>
<text text-anchor="middle" x="139.95" y="-841.2" font-family="Times,serif" font-size="9.00">0.959</text>
</g>
<!-- key 224544
bias &#45;0.723
h_scaling 1.000
output 0.513&#45;&gt;key 224544
bias &#45;0.723
h_scaling 1.000
output 0.513 -->
<g id="edge7" class="edge">
<title>key 224544
bias &#45;0.723
h_scaling 1.000
output 0.513&#45;&gt;key 224544
bias &#45;0.723
h_scaling 1.000
output 0.513</title>
<path fill="none" stroke="red" stroke-width="0.1" d="M185.89,-772.05C197.45,-770.17 205.58,-765.07 205.58,-756.76 205.58,-751.04 201.74,-746.84 195.58,-744.17"/>
<polygon fill="red" stroke="red" stroke-width="0.1" points="196.46,-740.78 185.89,-741.46 194.58,-747.52 196.46,-740.78"/>
<text text-anchor="middle" x="219.58" y="-754.56" font-family="Times,serif" font-size="9.00">0.147</text>
</g>
<!-- key 309669
bias &#45;0.449
h_scaling 1.000
output 0.731 -->
<g id="node6" class="node">
<title>key 309669
bias &#45;0.449
h_scaling 1.000
output 0.731</title>
<ellipse fill="white" stroke="black" cx="183.95" cy="-236.92" rx="63.78" ry="63.78"/>
<text text-anchor="middle" x="183.95" y="-249.72" font-family="Times,serif" font-size="9.00">key 309669</text>
<text text-anchor="middle" x="183.95" y="-239.72" font-family="Times,serif" font-size="9.00">bias &#45;0.449</text>
<text text-anchor="middle" x="183.95" y="-229.72" font-family="Times,serif" font-size="9.00">h_scaling 1.000</text>
<text text-anchor="middle" x="183.95" y="-219.72" font-family="Times,serif" font-size="9.00">output 0.731</text>
</g>
<!-- key 224544
bias &#45;0.723
h_scaling 1.000
output 0.513&#45;&gt;key 309669
bias &#45;0.449
h_scaling 1.000
output 0.731 -->
<g id="edge16" class="edge">
<title>key 224544
bias &#45;0.723
h_scaling 1.000
output 0.513&#45;&gt;key 309669
bias &#45;0.449
h_scaling 1.000
output 0.731</title>
<path fill="none" stroke="blue" stroke-width="0.1" d="M124.37,-692.87C125.84,-612.11 131.57,-467.9 152.95,-346.56 155.2,-333.78 158.35,-320.36 161.8,-307.47"/>
<polygon fill="blue" stroke="blue" stroke-width="0.1" points="165.2,-308.31 164.48,-297.74 158.45,-306.45 165.2,-308.31"/>
<text text-anchor="middle" x="149.45" y="-494.64" font-family="Times,serif" font-size="9.00">&#45;0.335</text>
</g>
<!-- key 224544
bias &#45;0.723
h_scaling 1.000
output 0.513&#45;&gt;key 3640
bias &#45;0.440
h_scaling 1.000
output 0.356 -->
<g id="edge6" class="edge">
<title>key 224544
bias &#45;0.723
h_scaling 1.000
output 0.513&#45;&gt;key 3640
bias &#45;0.440
h_scaling 1.000
output 0.356</title>
<path fill="none" stroke="blue" stroke-width="0.1" d="M172.07,-714.95C201.55,-689.96 239.39,-657.87 270.17,-631.77"/>
<polygon fill="blue" stroke="blue" stroke-width="0.1" points="272.47,-634.41 277.84,-625.27 267.95,-629.07 272.47,-634.41"/>
<text text-anchor="middle" x="240.45" y="-667.92" font-family="Times,serif" font-size="9.00">&#45;0.378</text>
</g>
<!-- key 309669
bias &#45;0.449
h_scaling 1.000
output 0.731&#45;&gt;output
bias 0.409
h_scaling 1.000
output 0.016 -->
<g id="edge15" class="edge">
<title>key 309669
bias &#45;0.449
h_scaling 1.000
output 0.731&#45;&gt;output
bias 0.409
h_scaling 1.000
output 0.016</title>
<path fill="none" stroke="blue" stroke-width="0.1" d="M159.91,-177.93C153.81,-163.22 147.21,-147.3 140.94,-132.16"/>
<polygon fill="blue" stroke="blue" stroke-width="0.1" points="144.14,-130.76 137.08,-122.86 137.67,-133.44 144.14,-130.76"/>
<text text-anchor="middle" x="163.45" y="-148.08" font-family="Times,serif" font-size="9.00">&#45;0.995</text>
</g>
<!-- key 385321
bias &#45;0.882
h_scaling 1.000
output 0.154 -->
<g id="node7" class="node">
<title>key 385321
bias &#45;0.882
h_scaling 1.000
output 0.154</title>
<ellipse fill="white" stroke="black" cx="225.95" cy="-410.2" rx="63.78" ry="63.78"/>
<text text-anchor="middle" x="225.95" y="-423" font-family="Times,serif" font-size="9.00">key 385321</text>
<text text-anchor="middle" x="225.95" y="-413" font-family="Times,serif" font-size="9.00">bias &#45;0.882</text>
<text text-anchor="middle" x="225.95" y="-403" font-family="Times,serif" font-size="9.00">h_scaling 1.000</text>
<text text-anchor="middle" x="225.95" y="-393" font-family="Times,serif" font-size="9.00">output 0.154</text>
</g>
<!-- key 385321
bias &#45;0.882
h_scaling 1.000
output 0.154&#45;&gt;key 309669
bias &#45;0.449
h_scaling 1.000
output 0.731 -->
<g id="edge18" class="edge">
<title>key 385321
bias &#45;0.882
h_scaling 1.000
output 0.154&#45;&gt;key 309669
bias &#45;0.449
h_scaling 1.000
output 0.731</title>
<path fill="none" stroke="red" stroke-width="0.1" d="M211.02,-348.33C207.88,-335.53 204.55,-321.93 201.33,-308.8"/>
<polygon fill="red" stroke="red" stroke-width="0.1" points="204.67,-307.76 198.89,-298.88 197.88,-309.43 204.67,-307.76"/>
<text text-anchor="middle" x="218.95" y="-321.36" font-family="Times,serif" font-size="9.00">0.959</text>
</g>
<!-- key 3640
bias &#45;0.440
h_scaling 1.000
output 0.356&#45;&gt;output
bias 0.409
h_scaling 1.000
output 0.016 -->
<g id="edge1" class="edge">
<title>key 3640
bias &#45;0.440
h_scaling 1.000
output 0.356&#45;&gt;output
bias 0.409
h_scaling 1.000
output 0.016</title>
<path fill="none" stroke="blue" stroke-width="0.1" d="M348.52,-523.8C353.65,-507.84 358.35,-490.38 360.95,-473.84 369.73,-417.95 376.05,-401.07 360.95,-346.56 336.96,-260 317.01,-240.06 256.95,-173.28 233.22,-146.9 202.3,-122.6 175.19,-103.69"/>
<polygon fill="blue" stroke="blue" stroke-width="0.1" points="177.14,-100.78 166.91,-98 173.17,-106.55 177.14,-100.78"/>
<text text-anchor="middle" x="370.45" y="-321.36" font-family="Times,serif" font-size="9.00">&#45;1.000</text>
</g>
<!-- key 3640
bias &#45;0.440
h_scaling 1.000
output 0.356&#45;&gt;key 229409
bias &#45;0.318
h_scaling 1.000
output 0.859 -->
<g id="edge12" class="edge">
<title>key 3640
bias &#45;0.440
h_scaling 1.000
output 0.356&#45;&gt;key 229409
bias &#45;0.318
h_scaling 1.000
output 0.859</title>
<path fill="none" stroke="red" stroke-width="0.1" d="M346.77,-643.77C360.7,-694.58 371.06,-767.7 337.95,-820.4 305.99,-871.25 242.39,-899.11 192.09,-913.85"/>
<polygon fill="red" stroke="red" stroke-width="0.1" points="190.9,-910.55 182.22,-916.62 192.8,-917.28 190.9,-910.55"/>
<text text-anchor="middle" x="373.95" y="-754.56" font-family="Times,serif" font-size="9.00">0.234</text>
</g>
<!-- key 3640
bias &#45;0.440
h_scaling 1.000
output 0.356&#45;&gt;key 309669
bias &#45;0.449
h_scaling 1.000
output 0.731 -->
<g id="edge14" class="edge">
<title>key 3640
bias &#45;0.440
h_scaling 1.000
output 0.356&#45;&gt;key 309669
bias &#45;0.449
h_scaling 1.000
output 0.731</title>
<path fill="none" stroke="red" stroke-width="0.1" d="M330.18,-519.81C330.92,-470.26 326.01,-400.66 298.95,-346.56 286.2,-321.08 264.89,-298.4 244.06,-280.45"/>
<polygon fill="red" stroke="red" stroke-width="0.1" points="246.04,-277.54 236.12,-273.81 241.55,-282.91 246.04,-277.54"/>
<text text-anchor="middle" x="342.95" y="-408" font-family="Times,serif" font-size="9.00">0.955</text>
</g>
<!-- key 3640
bias &#45;0.440
h_scaling 1.000
output 0.356&#45;&gt;key 385321
bias &#45;0.882
h_scaling 1.000
output 0.154 -->
<g id="edge17" class="edge">
<title>key 3640
bias &#45;0.440
h_scaling 1.000
output 0.356&#45;&gt;key 385321
bias &#45;0.882
h_scaling 1.000
output 0.154</title>
<path fill="none" stroke="red" stroke-width="0.1" d="M294.03,-527.81C284.15,-510.89 273.18,-492.1 262.98,-474.63"/>
<polygon fill="red" stroke="red" stroke-width="0.1" points="265.79,-472.51 257.73,-465.64 259.75,-476.04 265.79,-472.51"/>
<text text-anchor="middle" x="289.95" y="-494.64" font-family="Times,serif" font-size="9.00">1.000</text>
</g>
<!-- key 3640
bias &#45;0.440
h_scaling 1.000
output 0.356&#45;&gt;key 3640
bias &#45;0.440
h_scaling 1.000
output 0.356 -->
<g id="edge3" class="edge">
<title>key 3640
bias &#45;0.440
h_scaling 1.000
output 0.356&#45;&gt;key 3640
bias &#45;0.440
h_scaling 1.000
output 0.356</title>
<path fill="none" stroke="red" stroke-width="0.1" d="M387.89,-598.77C399.45,-596.89 407.58,-591.79 407.58,-583.48 407.58,-577.76 403.74,-573.56 397.58,-570.89"/>
<polygon fill="red" stroke="red" stroke-width="0.1" points="398.46,-567.5 387.89,-568.18 396.58,-574.24 398.46,-567.5"/>
<text text-anchor="middle" x="421.58" y="-581.28" font-family="Times,serif" font-size="9.00">0.995</text>
</g>
</g>
</svg>
