<?xml version="1.0" encoding="UTF-8" standalone="no"?>
<!DOCTYPE svg PUBLIC "-//W3C//DTD SVG 1.1//EN"
 "http://www.w3.org/Graphics/SVG/1.1/DTD/svg11.dtd">
<!-- Generated by graphviz version 2.43.0 (0)
 -->
<!-- Title: %3 Pages: 1 -->
<svg width="458pt" height="1039pt"
 viewBox="0.00 0.00 457.73 1038.68" xmlns="http://www.w3.org/2000/svg" xmlns:xlink="http://www.w3.org/1999/xlink">
<g id="graph0" class="graph" transform="scale(1 1) rotate(0) translate(4 1034.68)">
<title>%3</title>
<polygon fill="white" stroke="transparent" points="-4,4 -4,-1034.68 453.73,-1034.68 453.73,4 -4,4"/>
<!-- ready -->
<g id="node1" class="node">
<title>ready</title>
<polygon fill="yellow" stroke="black" points="392.23,-1030.68 349.23,-1030.68 349.23,-1012.68 392.23,-1012.68 392.23,-1030.68"/>
<text text-anchor="middle" x="370.73" y="-1019.48" font-family="Times,serif" font-size="9.00">ready</text>
</g>
<!-- key 36293
bias &#45;0.333
h_scaling 1.000 -->
<g id="node5" class="node">
<title>key 36293
bias &#45;0.333
h_scaling 1.000</title>
<ellipse fill="white" stroke="black" cx="179.73" cy="-903.04" rx="63.78" ry="63.78"/>
<text text-anchor="middle" x="179.73" y="-910.84" font-family="Times,serif" font-size="9.00">key 36293</text>
<text text-anchor="middle" x="179.73" y="-900.84" font-family="Times,serif" font-size="9.00">bias &#45;0.333</text>
<text text-anchor="middle" x="179.73" y="-890.84" font-family="Times,serif" font-size="9.00">h_scaling 1.000</text>
</g>
<!-- ready&#45;&gt;key 36293
bias &#45;0.333
h_scaling 1.000 -->
<g id="edge10" class="edge">
<title>ready&#45;&gt;key 36293
bias &#45;0.333
h_scaling 1.000</title>
<path fill="none" stroke="red" stroke-width="4.96" d="M349.06,-1013.51C336.12,-1008.86 319.58,-1002.28 305.73,-994.68 282.27,-981.8 258.05,-965.27 237.19,-949.86"/>
<polygon fill="red" stroke="red" stroke-width="4.96" points="239.67,-946.3 229.07,-943.8 234.48,-953.26 239.67,-946.3"/>
<text text-anchor="middle" x="319.73" y="-987.48" font-family="Times,serif" font-size="9.00">0.162</text>
</g>
<!-- key 3021
bias 0.435
h_scaling 1.000 -->
<g id="node6" class="node">
<title>key 3021
bias 0.435
h_scaling 1.000</title>
<ellipse fill="white" stroke="black" cx="174.73" cy="-401.2" rx="63.78" ry="63.78"/>
<text text-anchor="middle" x="174.73" y="-409" font-family="Times,serif" font-size="9.00">key 3021</text>
<text text-anchor="middle" x="174.73" y="-399" font-family="Times,serif" font-size="9.00">bias 0.435</text>
<text text-anchor="middle" x="174.73" y="-389" font-family="Times,serif" font-size="9.00">h_scaling 1.000</text>
</g>
<!-- ready&#45;&gt;key 3021
bias 0.435
h_scaling 1.000 -->
<g id="edge6" class="edge">
<title>ready&#45;&gt;key 3021
bias 0.435
h_scaling 1.000</title>
<path fill="none" stroke="red" stroke-width="0.52" d="M373.89,-1012.62C375.7,-1007.56 377.8,-1000.84 378.73,-994.68 379.39,-990.28 379.08,-989.11 378.73,-984.68 373.6,-919.5 368.57,-903.5 355.73,-839.4 325.41,-688.01 349.13,-636.56 273.73,-501.84 267.23,-490.23 248.29,-470.42 228.69,-451.5"/>
<polygon fill="red" stroke="red" stroke-width="0.52" points="231.11,-448.97 221.47,-444.59 226.27,-454.03 231.11,-448.97"/>
<text text-anchor="middle" x="360.73" y="-727.56" font-family="Times,serif" font-size="9.00">0.014</text>
</g>
<!-- key 3022
bias 0.440
h_scaling 1.000 -->
<g id="node7" class="node">
<title>key 3022
bias 0.440
h_scaling 1.000</title>
<ellipse fill="white" stroke="black" cx="274.73" cy="-227.92" rx="63.78" ry="63.78"/>
<text text-anchor="middle" x="274.73" y="-235.72" font-family="Times,serif" font-size="9.00">key 3022</text>
<text text-anchor="middle" x="274.73" y="-225.72" font-family="Times,serif" font-size="9.00">bias 0.440</text>
<text text-anchor="middle" x="274.73" y="-215.72" font-family="Times,serif" font-size="9.00">h_scaling 1.000</text>
</g>
<!-- ready&#45;&gt;key 3022
bias 0.440
h_scaling 1.000 -->
<g id="edge15" class="edge">
<title>ready&#45;&gt;key 3022
bias 0.440
h_scaling 1.000</title>
<path fill="none" stroke="blue" stroke-width="0.1" d="M381.38,-1012.62C402.95,-995.32 449.73,-952.22 449.73,-904.04 449.73,-904.04 449.73,-904.04 449.73,-400.2 449.73,-337.03 390.78,-289.49 341.31,-260.72"/>
<polygon fill="blue" stroke="blue" stroke-width="0.1" points="342.94,-257.62 332.51,-255.74 339.49,-263.71 342.94,-257.62"/>
</g>
<!-- key 7838
bias 0.430
h_scaling 1.000 -->
<g id="node8" class="node">
<title>key 7838
bias 0.430
h_scaling 1.000</title>
<ellipse fill="white" stroke="black" cx="174.73" cy="-565.48" rx="63.78" ry="63.78"/>
<text text-anchor="middle" x="174.73" y="-573.28" font-family="Times,serif" font-size="9.00">key 7838</text>
<text text-anchor="middle" x="174.73" y="-563.28" font-family="Times,serif" font-size="9.00">bias 0.430</text>
<text text-anchor="middle" x="174.73" y="-553.28" font-family="Times,serif" font-size="9.00">h_scaling 1.000</text>
</g>
<!-- ready&#45;&gt;key 7838
bias 0.430
h_scaling 1.000 -->
<g id="edge7" class="edge">
<title>ready&#45;&gt;key 7838
bias 0.430
h_scaling 1.000</title>
<path fill="none" stroke="blue" stroke-width="0.1" d="M369.3,-1012.52C364.6,-986.61 348.55,-904.05 323.73,-839.4 289.2,-749.47 270.99,-731.05 223.73,-647.12 220.38,-641.17 216.82,-635.02 213.22,-628.9"/>
<polygon fill="blue" stroke="blue" stroke-width="0.1" points="216.03,-626.78 207.91,-619.97 210.01,-630.36 216.03,-626.78"/>
</g>
<!-- go -->
<g id="node2" class="node">
<title>go</title>
<polygon fill="green" stroke="black" points="228.73,-1030.68 200.73,-1030.68 200.73,-1012.68 228.73,-1012.68 228.73,-1030.68"/>
<text text-anchor="middle" x="214.73" y="-1019.48" font-family="Times,serif" font-size="9.00">go</text>
</g>
<!-- go&#45;&gt;key 36293
bias &#45;0.333
h_scaling 1.000 -->
<g id="edge20" class="edge">
<title>go&#45;&gt;key 36293
bias &#45;0.333
h_scaling 1.000</title>
<path fill="none" stroke="blue" stroke-width="0.1" d="M212.32,-1012.66C209.75,-1004.09 205.41,-989.61 200.71,-973.97"/>
<polygon fill="blue" stroke="blue" stroke-width="0.1" points="203.99,-972.7 197.76,-964.13 197.28,-974.71 203.99,-972.7"/>
</g>
<!-- go&#45;&gt;key 3021
bias 0.435
h_scaling 1.000 -->
<g id="edge16" class="edge">
<title>go&#45;&gt;key 3021
bias 0.435
h_scaling 1.000</title>
<path fill="none" stroke="blue" stroke-width="0.1" d="M223.05,-1012.43C232.37,-1002.55 246.92,-985.04 252.73,-966.68 275.07,-896.12 299.47,-656.15 247.73,-501.84 242.42,-486.01 233.59,-470.6 223.87,-456.81"/>
<polygon fill="blue" stroke="blue" stroke-width="0.1" points="226.47,-454.43 217.73,-448.44 220.83,-458.57 226.47,-454.43"/>
</g>
<!-- go&#45;&gt;key 3022
bias 0.440
h_scaling 1.000 -->
<g id="edge1" class="edge">
<title>go&#45;&gt;key 3022
bias 0.440
h_scaling 1.000</title>
<path fill="none" stroke="blue" stroke-width="0.1" d="M228.97,-1020.76C247.75,-1020 280.21,-1015.53 295.73,-994.68 330.87,-947.43 305.17,-523.72 305.73,-464.84 306.26,-408.27 313.56,-393.58 305.73,-337.56 303.92,-324.63 300.96,-311.09 297.56,-298.12"/>
<polygon fill="blue" stroke="blue" stroke-width="0.1" points="300.9,-297.06 294.89,-288.33 294.15,-298.9 300.9,-297.06"/>
</g>
<!-- go&#45;&gt;key 7838
bias 0.430
h_scaling 1.000 -->
<g id="edge8" class="edge">
<title>go&#45;&gt;key 7838
bias 0.430
h_scaling 1.000</title>
<path fill="none" stroke="red" stroke-width="0.84" d="M200.7,-1016.89C178.25,-1010.18 133.98,-994.27 106.73,-966.68 46.58,-905.79 41.88,-876.81 22.73,-793.4 10.07,-738.26 -4.16,-715.89 22.73,-666.12 40.54,-633.14 74.54,-609.32 105.88,-593.25"/>
<polygon fill="red" stroke="red" stroke-width="0.84" points="107.65,-596.28 115.06,-588.72 104.55,-590 107.65,-596.28"/>
<text text-anchor="middle" x="43.73" y="-814.2" font-family="Times,serif" font-size="9.00">0.025</text>
</g>
<!-- output
bias &#45;0.116
h_scaling 1.000 -->
<g id="node3" class="node">
<title>output
bias &#45;0.116
h_scaling 1.000</title>
<ellipse fill="lightblue" stroke="black" cx="82.73" cy="-63.64" rx="63.78" ry="63.78"/>
<text text-anchor="middle" x="82.73" y="-71.44" font-family="Times,serif" font-size="9.00">output</text>
<text text-anchor="middle" x="82.73" y="-61.44" font-family="Times,serif" font-size="9.00">bias &#45;0.116</text>
<text text-anchor="middle" x="82.73" y="-51.44" font-family="Times,serif" font-size="9.00">h_scaling 1.000</text>
</g>
<!-- output
bias &#45;0.116
h_scaling 1.000&#45;&gt;key 36293
bias &#45;0.333
h_scaling 1.000 -->
<g id="edge17" class="edge">
<title>output
bias &#45;0.116
h_scaling 1.000&#45;&gt;key 36293
bias &#45;0.333
h_scaling 1.000</title>
<path fill="none" stroke="blue" stroke-width="0.1" d="M44.15,-114.27C24.1,-144.97 3.73,-186.18 3.73,-226.92 3.73,-648.12 3.73,-648.12 3.73,-648.12 3.73,-713.24 -11.18,-737.81 22.73,-793.4 25.85,-798.52 75.7,-832.62 118.4,-861.27"/>
<polygon fill="blue" stroke="blue" stroke-width="0.1" points="116.57,-864.26 126.83,-866.92 120.47,-858.45 116.57,-864.26"/>
</g>
<!-- output
bias &#45;0.116
h_scaling 1.000&#45;&gt;key 7838
bias 0.430
h_scaling 1.000 -->
<g id="edge21" class="edge">
<title>output
bias &#45;0.116
h_scaling 1.000&#45;&gt;key 7838
bias 0.430
h_scaling 1.000</title>
<path fill="none" stroke="red" stroke-width="0.66" d="M74.84,-127.09C67.07,-207.68 61.5,-351.06 101.73,-464.84 107.29,-480.58 116.22,-495.96 125.96,-509.74"/>
<polygon fill="red" stroke="red" stroke-width="0.66" points="123.36,-512.12 132.1,-518.11 129,-507.97 123.36,-512.12"/>
<text text-anchor="middle" x="86.73" y="-312.36" font-family="Times,serif" font-size="9.00">0.019</text>
</g>
<!-- key 53346
bias &#45;0.668
h_scaling 1.000 -->
<g id="node4" class="node">
<title>key 53346
bias &#45;0.668
h_scaling 1.000</title>
<ellipse fill="white" stroke="black" cx="95.73" cy="-729.76" rx="63.78" ry="63.78"/>
<text text-anchor="middle" x="95.73" y="-737.56" font-family="Times,serif" font-size="9.00">key 53346</text>
<text text-anchor="middle" x="95.73" y="-727.56" font-family="Times,serif" font-size="9.00">bias &#45;0.668</text>
<text text-anchor="middle" x="95.73" y="-717.56" font-family="Times,serif" font-size="9.00">h_scaling 1.000</text>
</g>
<!-- key 53346
bias &#45;0.668
h_scaling 1.000&#45;&gt;key 53346
bias &#45;0.668
h_scaling 1.000 -->
<g id="edge14" class="edge">
<title>key 53346
bias &#45;0.668
h_scaling 1.000&#45;&gt;key 53346
bias &#45;0.668
h_scaling 1.000</title>
<path fill="none" stroke="red" stroke-width="1.13" d="M158.02,-744.29C169.39,-742.45 177.37,-737.6 177.37,-729.76 177.37,-724.48 173.77,-720.57 167.96,-718.01"/>
<polygon fill="red" stroke="red" stroke-width="1.13" points="168.59,-714.55 158.02,-715.23 166.71,-721.29 168.59,-714.55"/>
<text text-anchor="middle" x="191.37" y="-727.56" font-family="Times,serif" font-size="9.00">0.034</text>
</g>
<!-- key 53346
bias &#45;0.668
h_scaling 1.000&#45;&gt;key 7838
bias 0.430
h_scaling 1.000 -->
<g id="edge13" class="edge">
<title>key 53346
bias &#45;0.668
h_scaling 1.000&#45;&gt;key 7838
bias 0.430
h_scaling 1.000</title>
<path fill="none" stroke="blue" stroke-width="0.1" d="M123.36,-672C129.65,-659.08 136.38,-645.25 142.83,-631.99"/>
<polygon fill="blue" stroke="blue" stroke-width="0.1" points="146.02,-633.45 147.25,-622.93 139.72,-630.39 146.02,-633.45"/>
</g>
<!-- key 36293
bias &#45;0.333
h_scaling 1.000&#45;&gt;key 53346
bias &#45;0.668
h_scaling 1.000 -->
<g id="edge12" class="edge">
<title>key 36293
bias &#45;0.333
h_scaling 1.000&#45;&gt;key 53346
bias &#45;0.668
h_scaling 1.000</title>
<path fill="none" stroke="red" stroke-width="0.22" d="M151.99,-845.48C144.32,-829.84 135.93,-812.73 128.03,-796.61"/>
<polygon fill="red" stroke="red" stroke-width="0.22" points="130.98,-794.69 123.44,-787.26 124.7,-797.77 130.98,-794.69"/>
<text text-anchor="middle" x="151.73" y="-814.2" font-family="Times,serif" font-size="9.00">0.004</text>
</g>
<!-- key 36293
bias &#45;0.333
h_scaling 1.000&#45;&gt;key 7838
bias 0.430
h_scaling 1.000 -->
<g id="edge11" class="edge">
<title>key 36293
bias &#45;0.333
h_scaling 1.000&#45;&gt;key 7838
bias 0.430
h_scaling 1.000</title>
<path fill="none" stroke="blue" stroke-width="0.1" d="M202.31,-843.36C207.43,-827.4 212.13,-809.94 214.73,-793.4 223.51,-737.51 225.46,-721.66 214.73,-666.12 212.59,-655.08 209.25,-643.7 205.37,-632.77"/>
<polygon fill="blue" stroke="blue" stroke-width="0.1" points="208.61,-631.45 201.85,-623.3 202.05,-633.89 208.61,-631.45"/>
</g>
<!-- key 3021
bias 0.435
h_scaling 1.000&#45;&gt;output
bias &#45;0.116
h_scaling 1.000 -->
<g id="edge4" class="edge">
<title>key 3021
bias 0.435
h_scaling 1.000&#45;&gt;output
bias &#45;0.116
h_scaling 1.000</title>
<path fill="none" stroke="red" stroke-width="0.49" d="M158.07,-339.43C142.3,-281.91 118.63,-195.6 102.04,-135.09"/>
<polygon fill="red" stroke="red" stroke-width="0.49" points="105.36,-133.96 99.34,-125.24 98.61,-135.81 105.36,-133.96"/>
<text text-anchor="middle" x="159.73" y="-225.72" font-family="Times,serif" font-size="9.00">0.013</text>
</g>
<!-- key 3021
bias 0.435
h_scaling 1.000&#45;&gt;key 3022
bias 0.440
h_scaling 1.000 -->
<g id="edge5" class="edge">
<title>key 3021
bias 0.435
h_scaling 1.000&#45;&gt;key 3022
bias 0.440
h_scaling 1.000</title>
<path fill="none" stroke="blue" stroke-width="0.1" d="M206.64,-345.53C216.52,-328.61 227.49,-309.82 237.69,-292.35"/>
<polygon fill="blue" stroke="blue" stroke-width="0.1" points="240.92,-293.76 242.94,-283.36 234.88,-290.23 240.92,-293.76"/>
</g>
<!-- key 3021
bias 0.435
h_scaling 1.000&#45;&gt;key 7838
bias 0.430
h_scaling 1.000 -->
<g id="edge9" class="edge">
<title>key 3021
bias 0.435
h_scaling 1.000&#45;&gt;key 7838
bias 0.430
h_scaling 1.000</title>
<path fill="none" stroke="blue" stroke-width="0.1" d="M181.31,-464.51C181.47,-473.37 181.52,-482.56 181.45,-491.6"/>
<polygon fill="blue" stroke="blue" stroke-width="0.1" points="177.95,-491.69 181.32,-501.74 184.95,-491.78 177.95,-491.69"/>
</g>
<!-- key 3022
bias 0.440
h_scaling 1.000&#45;&gt;output
bias &#45;0.116
h_scaling 1.000 -->
<g id="edge2" class="edge">
<title>key 3022
bias 0.440
h_scaling 1.000&#45;&gt;output
bias &#45;0.116
h_scaling 1.000</title>
<path fill="none" stroke="blue" stroke-width="0.1" d="M226.28,-185.97C199.67,-163.48 166.55,-135.49 138.83,-112.06"/>
<polygon fill="blue" stroke="blue" stroke-width="0.1" points="141.06,-109.36 131.16,-105.58 136.54,-114.7 141.06,-109.36"/>
</g>
<!-- key 7838
bias 0.430
h_scaling 1.000&#45;&gt;output
bias &#45;0.116
h_scaling 1.000 -->
<g id="edge19" class="edge">
<title>key 7838
bias 0.430
h_scaling 1.000&#45;&gt;output
bias &#45;0.116
h_scaling 1.000</title>
<path fill="none" stroke="blue" stroke-width="0.1" d="M118.56,-535.27C99.34,-522.25 79.88,-505.01 68.73,-483.84 10.26,-372.78 36.87,-221.25 60.5,-134.08"/>
<polygon fill="blue" stroke="blue" stroke-width="0.1" points="63.91,-134.87 63.21,-124.3 57.17,-133 63.91,-134.87"/>
</g>
<!-- key 7838
bias 0.430
h_scaling 1.000&#45;&gt;key 3021
bias 0.435
h_scaling 1.000 -->
<g id="edge3" class="edge">
<title>key 7838
bias 0.430
h_scaling 1.000&#45;&gt;key 3021
bias 0.435
h_scaling 1.000</title>
<path fill="none" stroke="blue" stroke-width="0.1" d="M168.13,-501.74C167.98,-492.86 167.94,-483.67 168.01,-474.63"/>
<polygon fill="blue" stroke="blue" stroke-width="0.1" points="171.51,-474.55 168.14,-464.51 164.51,-474.46 171.51,-474.55"/>
</g>
<!-- key 7838
bias 0.430
h_scaling 1.000&#45;&gt;key 3022
bias 0.440
h_scaling 1.000 -->
<g id="edge18" class="edge">
<title>key 7838
bias 0.430
h_scaling 1.000&#45;&gt;key 3022
bias 0.440
h_scaling 1.000</title>
<path fill="none" stroke="red" stroke-width="0.99" d="M216.79,-517.57C228.71,-501.83 240.42,-483.51 247.73,-464.84 268.1,-412.8 274.47,-349.72 275.95,-301.89"/>
<polygon fill="red" stroke="red" stroke-width="0.99" points="279.46,-301.7 276.2,-291.62 272.46,-301.53 279.46,-301.7"/>
<text text-anchor="middle" x="287.73" y="-399" font-family="Times,serif" font-size="9.00">0.030</text>
</g>
</g>
</svg>
