<?xml version="1.0" encoding="UTF-8" standalone="no"?>
<!DOCTYPE svg PUBLIC "-//W3C//DTD SVG 1.1//EN"
 "http://www.w3.org/Graphics/SVG/1.1/DTD/svg11.dtd">
<!-- Generated by graphviz version 2.43.0 (0)
 -->
<!-- Title: %3 Pages: 1 -->
<svg width="573pt" height="1066pt"
 viewBox="0.00 0.00 573.04 1065.68" xmlns="http://www.w3.org/2000/svg" xmlns:xlink="http://www.w3.org/1999/xlink">
<g id="graph0" class="graph" transform="scale(1 1) rotate(0) translate(4 1061.68)">
<title>%3</title>
<polygon fill="white" stroke="transparent" points="-4,4 -4,-1061.68 569.04,-1061.68 569.04,4 -4,4"/>
<!-- ready -->
<g id="node1" class="node">
<title>ready</title>
<polygon fill="yellow" stroke="black" points="453.54,-1057.68 410.54,-1057.68 410.54,-1039.68 453.54,-1039.68 453.54,-1057.68"/>
<text text-anchor="middle" x="432.04" y="-1046.48" font-family="Times,serif" font-size="9.00">ready</text>
</g>
<!-- key 36293
bias &#45;0.333
h_scaling 1.000 -->
<g id="node5" class="node">
<title>key 36293
bias &#45;0.333
h_scaling 1.000</title>
<ellipse fill="white" stroke="black" cx="143.04" cy="-930.04" rx="63.78" ry="63.78"/>
<text text-anchor="middle" x="143.04" y="-937.84" font-family="Times,serif" font-size="9.00">key 36293</text>
<text text-anchor="middle" x="143.04" y="-927.84" font-family="Times,serif" font-size="9.00">bias &#45;0.333</text>
<text text-anchor="middle" x="143.04" y="-917.84" font-family="Times,serif" font-size="9.00">h_scaling 1.000</text>
</g>
<!-- ready&#45;&gt;key 36293
bias &#45;0.333
h_scaling 1.000 -->
<g id="edge10" class="edge">
<title>ready&#45;&gt;key 36293
bias &#45;0.333
h_scaling 1.000</title>
<path fill="none" stroke="red" stroke-width="2.67" d="M410.44,-1042.18C392.45,-1037.39 366.29,-1029.94 344.04,-1021.68 298.03,-1004.59 247.68,-981.88 208.89,-963.47"/>
<polygon fill="red" stroke="red" stroke-width="2.67" points="210.32,-960.28 199.79,-959.13 207.31,-966.6 210.32,-960.28"/>
<text text-anchor="middle" x="358.04" y="-1014.48" font-family="Times,serif" font-size="9.00">0.857</text>
</g>
<!-- key 3021
bias 0.435
h_scaling 1.000 -->
<g id="node6" class="node">
<title>key 3021
bias 0.435
h_scaling 1.000</title>
<ellipse fill="white" stroke="black" cx="276.04" cy="-410.2" rx="63.78" ry="63.78"/>
<text text-anchor="middle" x="276.04" y="-418" font-family="Times,serif" font-size="9.00">key 3021</text>
<text text-anchor="middle" x="276.04" y="-408" font-family="Times,serif" font-size="9.00">bias 0.435</text>
<text text-anchor="middle" x="276.04" y="-398" font-family="Times,serif" font-size="9.00">h_scaling 1.000</text>
</g>
<!-- ready&#45;&gt;key 3021
bias 0.435
h_scaling 1.000 -->
<g id="edge6" class="edge">
<title>ready&#45;&gt;key 3021
bias 0.435
h_scaling 1.000</title>
<path fill="none" stroke="red" stroke-width="0.64" d="M437.68,-1039.62C449.97,-1021.27 478.04,-974.57 478.04,-931.04 478.04,-931.04 478.04,-931.04 478.04,-582.48 478.04,-506.15 402.87,-523.65 345.04,-473.84 340.22,-469.68 335.24,-465.32 330.28,-460.92"/>
<polygon fill="red" stroke="red" stroke-width="0.64" points="332.3,-458.03 322.51,-453.99 327.64,-463.26 332.3,-458.03"/>
<text text-anchor="middle" x="492.04" y="-754.56" font-family="Times,serif" font-size="9.00">0.181</text>
</g>
<!-- key 3022
bias 0.440
h_scaling 1.000 -->
<g id="node7" class="node">
<title>key 3022
bias 0.440
h_scaling 1.000</title>
<ellipse fill="white" stroke="black" cx="376.04" cy="-236.92" rx="63.78" ry="63.78"/>
<text text-anchor="middle" x="376.04" y="-244.72" font-family="Times,serif" font-size="9.00">key 3022</text>
<text text-anchor="middle" x="376.04" y="-234.72" font-family="Times,serif" font-size="9.00">bias 0.440</text>
<text text-anchor="middle" x="376.04" y="-224.72" font-family="Times,serif" font-size="9.00">h_scaling 1.000</text>
</g>
<!-- ready&#45;&gt;key 3022
bias 0.440
h_scaling 1.000 -->
<g id="edge15" class="edge">
<title>ready&#45;&gt;key 3022
bias 0.440
h_scaling 1.000</title>
<path fill="none" stroke="blue" stroke-width="0.87" d="M447.09,-1039.65C475.47,-1023.3 534.04,-983.22 534.04,-931.04 534.04,-931.04 534.04,-931.04 534.04,-409.2 534.04,-350.86 483.91,-303.9 440.12,-274"/>
<polygon fill="blue" stroke="blue" stroke-width="0.87" points="442.01,-271.06 431.75,-268.44 438.14,-276.89 442.01,-271.06"/>
<text text-anchor="middle" x="549.54" y="-667.92" font-family="Times,serif" font-size="9.00">&#45;0.256</text>
</g>
<!-- key 7838
bias 0.430
h_scaling 1.000 -->
<g id="node8" class="node">
<title>key 7838
bias 0.430
h_scaling 1.000</title>
<ellipse fill="white" stroke="black" cx="222.04" cy="-583.48" rx="63.78" ry="63.78"/>
<text text-anchor="middle" x="222.04" y="-591.28" font-family="Times,serif" font-size="9.00">key 7838</text>
<text text-anchor="middle" x="222.04" y="-581.28" font-family="Times,serif" font-size="9.00">bias 0.430</text>
<text text-anchor="middle" x="222.04" y="-571.28" font-family="Times,serif" font-size="9.00">h_scaling 1.000</text>
</g>
<!-- ready&#45;&gt;key 7838
bias 0.430
h_scaling 1.000 -->
<g id="edge7" class="edge">
<title>ready&#45;&gt;key 7838
bias 0.430
h_scaling 1.000</title>
<path fill="none" stroke="blue" stroke-width="1.32" d="M429.87,-1039.38C422.83,-1012.18 400.26,-923.14 387.04,-848.4 374.92,-779.88 402.09,-753.23 367.04,-693.12 348.59,-661.47 316.92,-636.14 287.88,-617.92"/>
<polygon fill="blue" stroke="blue" stroke-width="1.32" points="289.33,-614.71 278.96,-612.5 285.69,-620.68 289.33,-614.71"/>
<text text-anchor="middle" x="402.54" y="-841.2" font-family="Times,serif" font-size="9.00">&#45;0.408</text>
</g>
<!-- go -->
<g id="node2" class="node">
<title>go</title>
<polygon fill="green" stroke="black" points="88.04,-1057.68 60.04,-1057.68 60.04,-1039.68 88.04,-1039.68 88.04,-1057.68"/>
<text text-anchor="middle" x="74.04" y="-1046.48" font-family="Times,serif" font-size="9.00">go</text>
</g>
<!-- go&#45;&gt;key 36293
bias &#45;0.333
h_scaling 1.000 -->
<g id="edge20" class="edge">
<title>go&#45;&gt;key 36293
bias &#45;0.333
h_scaling 1.000</title>
<path fill="none" stroke="blue" stroke-width="1.27" d="M78.78,-1039.66C84.59,-1029.84 95,-1012.26 105.76,-994.06"/>
<polygon fill="blue" stroke="blue" stroke-width="1.27" points="108.98,-995.49 111.06,-985.11 102.95,-991.93 108.98,-995.49"/>
<text text-anchor="middle" x="110.54" y="-1014.48" font-family="Times,serif" font-size="9.00">&#45;0.391</text>
</g>
<!-- go&#45;&gt;key 3021
bias 0.435
h_scaling 1.000 -->
<g id="edge16" class="edge">
<title>go&#45;&gt;key 3021
bias 0.435
h_scaling 1.000</title>
<path fill="none" stroke="blue" stroke-width="2.91" d="M67.84,-1039.4C60.57,-1029.22 48.79,-1011.13 43.04,-993.68 1.18,-866.51 -18.35,-820.43 23.04,-693.12 56.68,-589.66 152.49,-502.19 216.07,-453.25"/>
<polygon fill="blue" stroke="blue" stroke-width="2.91" points="218.21,-456.02 224.05,-447.18 213.97,-450.45 218.21,-456.02"/>
<text text-anchor="middle" x="38.54" y="-754.56" font-family="Times,serif" font-size="9.00">&#45;0.938</text>
</g>
<!-- go&#45;&gt;key 3022
bias 0.440
h_scaling 1.000 -->
<g id="edge1" class="edge">
<title>go&#45;&gt;key 3022
bias 0.440
h_scaling 1.000</title>
<path fill="none" stroke="blue" stroke-width="0.89" d="M88.04,-1047.2C144.2,-1045.22 351.28,-1036.91 376.04,-1021.68 416.37,-996.86 432.04,-978.39 432.04,-931.04 432.04,-931.04 432.04,-931.04 432.04,-409.2 432.04,-373.19 420.72,-334.94 408.26,-303.74"/>
<polygon fill="blue" stroke="blue" stroke-width="0.89" points="411.42,-302.21 404.37,-294.3 404.94,-304.87 411.42,-302.21"/>
<text text-anchor="middle" x="447.54" y="-667.92" font-family="Times,serif" font-size="9.00">&#45;0.262</text>
</g>
<!-- go&#45;&gt;key 7838
bias 0.430
h_scaling 1.000 -->
<g id="edge8" class="edge">
<title>go&#45;&gt;key 7838
bias 0.430
h_scaling 1.000</title>
<path fill="none" stroke="red" stroke-width="3.1" d="M71.27,-1039.57C62.01,-1011.38 33.84,-915.18 52.04,-838.4 70.75,-759.51 127.7,-684.32 170.57,-636.52"/>
<polygon fill="red" stroke="red" stroke-width="3.1" points="173.19,-638.85 177.33,-629.09 168.01,-634.14 173.19,-638.85"/>
<text text-anchor="middle" x="66.04" y="-841.2" font-family="Times,serif" font-size="9.00">1.000</text>
</g>
<!-- output
bias &#45;0.116
h_scaling 1.000 -->
<g id="node3" class="node">
<title>output
bias &#45;0.116
h_scaling 1.000</title>
<ellipse fill="lightblue" stroke="black" cx="184.04" cy="-63.64" rx="63.78" ry="63.78"/>
<text text-anchor="middle" x="184.04" y="-71.44" font-family="Times,serif" font-size="9.00">output</text>
<text text-anchor="middle" x="184.04" y="-61.44" font-family="Times,serif" font-size="9.00">bias &#45;0.116</text>
<text text-anchor="middle" x="184.04" y="-51.44" font-family="Times,serif" font-size="9.00">h_scaling 1.000</text>
</g>
<!-- output
bias &#45;0.116
h_scaling 1.000&#45;&gt;key 36293
bias &#45;0.333
h_scaling 1.000 -->
<g id="edge17" class="edge">
<title>output
bias &#45;0.116
h_scaling 1.000&#45;&gt;key 36293
bias &#45;0.333
h_scaling 1.000</title>
<path fill="none" stroke="blue" stroke-width="0.81" d="M163.8,-124.1C159.17,-139.91 154.81,-157.1 152.04,-173.28 113.09,-401.33 131.04,-461.84 125.04,-693.12 122.48,-791.93 122.13,-816.38 126.04,-848.4 126.41,-851.42 126.84,-854.5 127.31,-857.61"/>
<polygon fill="blue" stroke="blue" stroke-width="0.81" points="123.87,-858.28 128.95,-867.58 130.78,-857.14 123.87,-858.28"/>
<text text-anchor="middle" x="140.54" y="-494.64" font-family="Times,serif" font-size="9.00">&#45;0.238</text>
</g>
<!-- output
bias &#45;0.116
h_scaling 1.000&#45;&gt;key 7838
bias 0.430
h_scaling 1.000 -->
<g id="edge21" class="edge">
<title>output
bias &#45;0.116
h_scaling 1.000&#45;&gt;key 7838
bias 0.430
h_scaling 1.000</title>
<path fill="none" stroke="red" stroke-width="0.49" d="M171.47,-126.25C162.17,-179.74 152.2,-259.28 159.04,-328.56 165.52,-394.08 171.74,-410.04 188.04,-473.84 191.3,-486.58 195.16,-500.04 199.09,-512.98"/>
<polygon fill="red" stroke="red" stroke-width="0.49" points="195.81,-514.22 202.1,-522.75 202.5,-512.16 195.81,-514.22"/>
<text text-anchor="middle" x="173.04" y="-321.36" font-family="Times,serif" font-size="9.00">0.130</text>
</g>
<!-- key 53346
bias &#45;0.668
h_scaling 1.000 -->
<g id="node4" class="node">
<title>key 53346
bias &#45;0.668
h_scaling 1.000</title>
<ellipse fill="white" stroke="black" cx="248.04" cy="-756.76" rx="63.78" ry="63.78"/>
<text text-anchor="middle" x="248.04" y="-764.56" font-family="Times,serif" font-size="9.00">key 53346</text>
<text text-anchor="middle" x="248.04" y="-754.56" font-family="Times,serif" font-size="9.00">bias &#45;0.668</text>
<text text-anchor="middle" x="248.04" y="-744.56" font-family="Times,serif" font-size="9.00">h_scaling 1.000</text>
</g>
<!-- key 53346
bias &#45;0.668
h_scaling 1.000&#45;&gt;key 53346
bias &#45;0.668
h_scaling 1.000 -->
<g id="edge14" class="edge">
<title>key 53346
bias &#45;0.668
h_scaling 1.000&#45;&gt;key 53346
bias &#45;0.668
h_scaling 1.000</title>
<path fill="none" stroke="red" stroke-width="2.59" d="M309.98,-772.05C321.54,-770.17 329.68,-765.07 329.68,-756.76 329.68,-751.04 325.83,-746.84 319.67,-744.17"/>
<polygon fill="red" stroke="red" stroke-width="2.59" points="320.56,-740.78 309.98,-741.46 318.67,-747.52 320.56,-740.78"/>
<text text-anchor="middle" x="343.68" y="-754.56" font-family="Times,serif" font-size="9.00">0.829</text>
</g>
<!-- key 53346
bias &#45;0.668
h_scaling 1.000&#45;&gt;key 7838
bias 0.430
h_scaling 1.000 -->
<g id="edge13" class="edge">
<title>key 53346
bias &#45;0.668
h_scaling 1.000&#45;&gt;key 7838
bias 0.430
h_scaling 1.000</title>
<path fill="none" stroke="blue" stroke-width="1.95" d="M238.58,-693.44C236.77,-681.48 234.85,-668.87 232.99,-656.63"/>
<polygon fill="blue" stroke="blue" stroke-width="1.95" points="236.41,-655.83 231.45,-646.46 229.49,-656.88 236.41,-655.83"/>
<text text-anchor="middle" x="250.54" y="-667.92" font-family="Times,serif" font-size="9.00">&#45;0.615</text>
</g>
<!-- key 36293
bias &#45;0.333
h_scaling 1.000&#45;&gt;key 53346
bias &#45;0.668
h_scaling 1.000 -->
<g id="edge12" class="edge">
<title>key 36293
bias &#45;0.333
h_scaling 1.000&#45;&gt;key 53346
bias &#45;0.668
h_scaling 1.000</title>
<path fill="none" stroke="red" stroke-width="3.1" d="M175.98,-875.31C186.73,-857.78 198.75,-838.16 209.86,-820.04"/>
<polygon fill="red" stroke="red" stroke-width="3.1" points="212.98,-821.64 215.22,-811.29 207.01,-817.99 212.98,-821.64"/>
<text text-anchor="middle" x="209.04" y="-841.2" font-family="Times,serif" font-size="9.00">1.000</text>
</g>
<!-- key 36293
bias &#45;0.333
h_scaling 1.000&#45;&gt;key 7838
bias 0.430
h_scaling 1.000 -->
<g id="edge11" class="edge">
<title>key 36293
bias &#45;0.333
h_scaling 1.000&#45;&gt;key 7838
bias 0.430
h_scaling 1.000</title>
<path fill="none" stroke="blue" stroke-width="0.52" d="M133.2,-867.05C127.86,-818.5 125.63,-749.9 144.04,-693.12 150.26,-673.93 161.24,-655.26 173.03,-638.96"/>
<polygon fill="blue" stroke="blue" stroke-width="0.52" points="176.05,-640.76 179.25,-630.66 170.45,-636.56 176.05,-640.76"/>
<text text-anchor="middle" x="159.54" y="-754.56" font-family="Times,serif" font-size="9.00">&#45;0.139</text>
</g>
<!-- key 3021
bias 0.435
h_scaling 1.000&#45;&gt;output
bias &#45;0.116
h_scaling 1.000 -->
<g id="edge4" class="edge">
<title>key 3021
bias 0.435
h_scaling 1.000&#45;&gt;output
bias &#45;0.116
h_scaling 1.000</title>
<path fill="none" stroke="red" stroke-width="2.89" d="M259.81,-348.39C243.89,-288.79 219.65,-198 202.89,-135.24"/>
<polygon fill="red" stroke="red" stroke-width="2.89" points="206.23,-134.18 200.27,-125.42 199.47,-135.98 206.23,-134.18"/>
<text text-anchor="middle" x="260.04" y="-234.72" font-family="Times,serif" font-size="9.00">0.931</text>
</g>
<!-- key 3021
bias 0.435
h_scaling 1.000&#45;&gt;key 3022
bias 0.440
h_scaling 1.000 -->
<g id="edge5" class="edge">
<title>key 3021
bias 0.435
h_scaling 1.000&#45;&gt;key 3022
bias 0.440
h_scaling 1.000</title>
<path fill="none" stroke="blue" stroke-width="3.1" d="M307.96,-354.53C317.84,-337.61 328.81,-318.82 339.01,-301.35"/>
<polygon fill="blue" stroke="blue" stroke-width="3.1" points="342.24,-302.76 344.26,-292.36 336.19,-299.23 342.24,-302.76"/>
<text text-anchor="middle" x="341.54" y="-321.36" font-family="Times,serif" font-size="9.00">&#45;1.000</text>
</g>
<!-- key 3021
bias 0.435
h_scaling 1.000&#45;&gt;key 7838
bias 0.430
h_scaling 1.000 -->
<g id="edge9" class="edge">
<title>key 3021
bias 0.435
h_scaling 1.000&#45;&gt;key 7838
bias 0.430
h_scaling 1.000</title>
<path fill="none" stroke="blue" stroke-width="2.48" d="M234.97,-459.37C228.42,-469.51 222.62,-480.56 219.04,-491.84 217.16,-497.75 215.94,-503.98 215.2,-510.3"/>
<polygon fill="blue" stroke="blue" stroke-width="2.48" points="211.71,-510.03 214.43,-520.27 218.69,-510.57 211.71,-510.03"/>
<text text-anchor="middle" x="234.54" y="-494.64" font-family="Times,serif" font-size="9.00">&#45;0.792</text>
</g>
<!-- key 3022
bias 0.440
h_scaling 1.000&#45;&gt;output
bias &#45;0.116
h_scaling 1.000 -->
<g id="edge2" class="edge">
<title>key 3022
bias 0.440
h_scaling 1.000&#45;&gt;output
bias &#45;0.116
h_scaling 1.000</title>
<path fill="none" stroke="blue" stroke-width="3.1" d="M328.58,-193.58C301.48,-169.4 267.37,-138.98 239.1,-113.75"/>
<polygon fill="blue" stroke="blue" stroke-width="3.1" points="241.08,-110.83 231.29,-106.79 236.42,-116.06 241.08,-110.83"/>
<text text-anchor="middle" x="295.54" y="-148.08" font-family="Times,serif" font-size="9.00">&#45;1.000</text>
</g>
<!-- key 7838
bias 0.430
h_scaling 1.000&#45;&gt;output
bias &#45;0.116
h_scaling 1.000 -->
<g id="edge19" class="edge">
<title>key 7838
bias 0.430
h_scaling 1.000&#45;&gt;output
bias &#45;0.116
h_scaling 1.000</title>
<path fill="none" stroke="blue" stroke-width="3.06" d="M209.88,-520.91C207.24,-505.59 204.73,-489.16 203.04,-473.84 190.14,-356.73 185.98,-219.83 184.65,-137.79"/>
<polygon fill="blue" stroke="blue" stroke-width="3.06" points="188.14,-137.52 184.49,-127.57 181.15,-137.63 188.14,-137.52"/>
<text text-anchor="middle" x="206.54" y="-321.36" font-family="Times,serif" font-size="9.00">&#45;0.987</text>
</g>
<!-- key 7838
bias 0.430
h_scaling 1.000&#45;&gt;key 3021
bias 0.435
h_scaling 1.000 -->
<g id="edge3" class="edge">
<title>key 7838
bias 0.430
h_scaling 1.000&#45;&gt;key 3021
bias 0.435
h_scaling 1.000</title>
<path fill="none" stroke="blue" stroke-width="3.08" d="M246.26,-524.25C249.04,-516.76 251.71,-509.16 254.04,-501.84 256.05,-495.51 257.98,-488.89 259.81,-482.23"/>
<polygon fill="blue" stroke="blue" stroke-width="3.08" points="263.22,-483.03 262.41,-472.47 256.45,-481.23 263.22,-483.03"/>
<text text-anchor="middle" x="271.54" y="-494.64" font-family="Times,serif" font-size="9.00">&#45;0.993</text>
</g>
<!-- key 7838
bias 0.430
h_scaling 1.000&#45;&gt;key 3022
bias 0.440
h_scaling 1.000 -->
<g id="edge18" class="edge">
<title>key 7838
bias 0.430
h_scaling 1.000&#45;&gt;key 3022
bias 0.440
h_scaling 1.000</title>
<path fill="none" stroke="red" stroke-width="2.91" d="M276.35,-550.03C302.81,-531.23 332.43,-505.09 349.04,-473.84 375.64,-423.79 381.46,-359.47 381.14,-310.63"/>
<polygon fill="red" stroke="red" stroke-width="2.91" points="384.64,-310.4 380.99,-300.45 377.64,-310.5 384.64,-310.4"/>
<text text-anchor="middle" x="394.04" y="-408" font-family="Times,serif" font-size="9.00">0.938</text>
</g>
</g>
</svg>
