<?xml version="1.0" encoding="UTF-8" standalone="no"?>
<!DOCTYPE svg PUBLIC "-//W3C//DTD SVG 1.1//EN"
 "http://www.w3.org/Graphics/SVG/1.1/DTD/svg11.dtd">
<!-- Generated by graphviz version 2.43.0 (0)
 -->
<!-- Title: %3 Pages: 1 -->
<svg width="332pt" height="865pt"
 viewBox="0.00 0.00 332.00 865.40" xmlns="http://www.w3.org/2000/svg" xmlns:xlink="http://www.w3.org/1999/xlink">
<g id="graph0" class="graph" transform="scale(1 1) rotate(0) translate(4 861.4)">
<title>%3</title>
<polygon fill="white" stroke="transparent" points="-4,4 -4,-861.4 328,-861.4 328,4 -4,4"/>
<!-- ready -->
<g id="node1" class="node">
<title>ready</title>
<polygon fill="yellow" stroke="black" points="175.5,-857.4 132.5,-857.4 132.5,-839.4 175.5,-839.4 175.5,-857.4"/>
<text text-anchor="middle" x="154" y="-846.2" font-family="Times,serif" font-size="9.00">ready</text>
</g>
<!-- key 833
bias &#45;0.881
h_scaling 0.171 -->
<g id="node4" class="node">
<title>key 833
bias &#45;0.881
h_scaling 0.171</title>
<ellipse fill="white" stroke="black" cx="154" cy="-738.76" rx="63.78" ry="63.78"/>
<text text-anchor="middle" x="154" y="-746.56" font-family="Times,serif" font-size="9.00">key 833</text>
<text text-anchor="middle" x="154" y="-736.56" font-family="Times,serif" font-size="9.00">bias &#45;0.881</text>
<text text-anchor="middle" x="154" y="-726.56" font-family="Times,serif" font-size="9.00">h_scaling 0.171</text>
</g>
<!-- ready&#45;&gt;key 833
bias &#45;0.881
h_scaling 0.171 -->
<g id="edge15" class="edge">
<title>ready&#45;&gt;key 833
bias &#45;0.881
h_scaling 0.171</title>
<path fill="none" stroke="blue" stroke-width="0.1" d="M154,-839.31C154,-832.94 154,-823.38 154,-812.66"/>
<polygon fill="blue" stroke="blue" stroke-width="0.1" points="157.5,-812.54 154,-802.54 150.5,-812.54 157.5,-812.54"/>
</g>
<!-- key 6931
bias &#45;0.214
h_scaling 0.662 -->
<g id="node6" class="node">
<title>key 6931
bias &#45;0.214
h_scaling 0.662</title>
<ellipse fill="white" stroke="black" cx="154" cy="-227.92" rx="63.78" ry="63.78"/>
<text text-anchor="middle" x="154" y="-235.72" font-family="Times,serif" font-size="9.00">key 6931</text>
<text text-anchor="middle" x="154" y="-225.72" font-family="Times,serif" font-size="9.00">bias &#45;0.214</text>
<text text-anchor="middle" x="154" y="-215.72" font-family="Times,serif" font-size="9.00">h_scaling 0.662</text>
</g>
<!-- ready&#45;&gt;key 6931
bias &#45;0.214
h_scaling 0.662 -->
<g id="edge9" class="edge">
<title>ready&#45;&gt;key 6931
bias &#45;0.214
h_scaling 0.662</title>
<path fill="none" stroke="blue" stroke-width="0.1" d="M175.53,-844.1C221.28,-835.76 324,-809.27 324,-739.76 324,-739.76 324,-739.76 324,-400.2 324,-338.47 267.69,-291.06 219.89,-261.94"/>
<polygon fill="blue" stroke="blue" stroke-width="0.1" points="221.47,-258.8 211.08,-256.71 217.9,-264.82 221.47,-258.8"/>
</g>
<!-- key 52218
bias &#45;0.236
h_scaling 0.540 -->
<g id="node7" class="node">
<title>key 52218
bias &#45;0.236
h_scaling 0.540</title>
<ellipse fill="white" stroke="black" cx="154" cy="-63.64" rx="63.78" ry="63.78"/>
<text text-anchor="middle" x="154" y="-71.44" font-family="Times,serif" font-size="9.00">key 52218</text>
<text text-anchor="middle" x="154" y="-61.44" font-family="Times,serif" font-size="9.00">bias &#45;0.236</text>
<text text-anchor="middle" x="154" y="-51.44" font-family="Times,serif" font-size="9.00">h_scaling 0.540</text>
</g>
<!-- ready&#45;&gt;key 52218
bias &#45;0.236
h_scaling 0.540 -->
<g id="edge11" class="edge">
<title>ready&#45;&gt;key 52218
bias &#45;0.236
h_scaling 0.540</title>
<path fill="none" stroke="red" stroke-width="2.86" d="M132.26,-842.89C89.81,-832.67 0,-803.53 0,-739.76 0,-739.76 0,-739.76 0,-226.92 0,-171.87 47.21,-128.03 89.35,-99.87"/>
<polygon fill="red" stroke="red" stroke-width="2.86" points="91.49,-102.65 97.97,-94.27 87.67,-96.78 91.49,-102.65"/>
<text text-anchor="middle" x="14" y="-485.64" font-family="Times,serif" font-size="9.00">0.092</text>
</g>
<!-- go -->
<g id="node2" class="node">
<title>go</title>
<polygon fill="green" stroke="black" points="73,-583.48 45,-583.48 45,-565.48 73,-565.48 73,-583.48"/>
<text text-anchor="middle" x="59" y="-572.28" font-family="Times,serif" font-size="9.00">go</text>
</g>
<!-- key 4492
bias &#45;0.863
h_scaling 0.414 -->
<g id="node5" class="node">
<title>key 4492
bias &#45;0.863
h_scaling 0.414</title>
<ellipse fill="white" stroke="black" cx="156" cy="-401.2" rx="63.78" ry="63.78"/>
<text text-anchor="middle" x="156" y="-409" font-family="Times,serif" font-size="9.00">key 4492</text>
<text text-anchor="middle" x="156" y="-399" font-family="Times,serif" font-size="9.00">bias &#45;0.863</text>
<text text-anchor="middle" x="156" y="-389" font-family="Times,serif" font-size="9.00">h_scaling 0.414</text>
</g>
<!-- go&#45;&gt;key 4492
bias &#45;0.863
h_scaling 0.414 -->
<g id="edge3" class="edge">
<title>go&#45;&gt;key 4492
bias &#45;0.863
h_scaling 0.414</title>
<path fill="none" stroke="red" stroke-width="1.36" d="M59.46,-565.47C60.68,-549.05 65.05,-510.75 80,-482.84 85.88,-471.87 93.64,-461.29 101.96,-451.61"/>
<polygon fill="red" stroke="red" stroke-width="1.36" points="104.66,-453.83 108.72,-444.04 99.44,-449.16 104.66,-453.83"/>
<text text-anchor="middle" x="94" y="-485.64" font-family="Times,serif" font-size="9.00">0.042</text>
</g>
<!-- go&#45;&gt;key 6931
bias &#45;0.214
h_scaling 0.662 -->
<g id="edge5" class="edge">
<title>go&#45;&gt;key 6931
bias &#45;0.214
h_scaling 0.662</title>
<path fill="none" stroke="red" stroke-width="0.59" d="M56.74,-565.36C48.56,-534.39 22.6,-421.21 55,-337.56 63.99,-314.34 80.51,-293.04 97.51,-275.57"/>
<polygon fill="red" stroke="red" stroke-width="0.59" points="100.18,-277.86 104.8,-268.32 95.24,-272.89 100.18,-277.86"/>
<text text-anchor="middle" x="69" y="-399" font-family="Times,serif" font-size="9.00">0.016</text>
</g>
<!-- output
bias 0.679
h_scaling 0.875 -->
<g id="node3" class="node">
<title>output
bias 0.679
h_scaling 0.875</title>
<ellipse fill="lightblue" stroke="black" cx="232" cy="-574.48" rx="63.78" ry="63.78"/>
<text text-anchor="middle" x="232" y="-582.28" font-family="Times,serif" font-size="9.00">output</text>
<text text-anchor="middle" x="232" y="-572.28" font-family="Times,serif" font-size="9.00">bias 0.679</text>
<text text-anchor="middle" x="232" y="-562.28" font-family="Times,serif" font-size="9.00">h_scaling 0.875</text>
</g>
<!-- output
bias 0.679
h_scaling 0.875&#45;&gt;key 4492
bias &#45;0.863
h_scaling 0.414 -->
<g id="edge13" class="edge">
<title>output
bias 0.679
h_scaling 0.875&#45;&gt;key 4492
bias &#45;0.863
h_scaling 0.414</title>
<path fill="none" stroke="red" stroke-width="0.73" d="M206.48,-515.97C199.8,-500.92 192.55,-484.56 185.67,-469.07"/>
<polygon fill="red" stroke="red" stroke-width="0.73" points="188.71,-467.28 181.45,-459.56 182.31,-470.12 188.71,-467.28"/>
<text text-anchor="middle" x="208" y="-485.64" font-family="Times,serif" font-size="9.00">0.021</text>
</g>
<!-- key 833
bias &#45;0.881
h_scaling 0.171&#45;&gt;output
bias 0.679
h_scaling 0.875 -->
<g id="edge2" class="edge">
<title>key 833
bias &#45;0.881
h_scaling 0.171&#45;&gt;output
bias 0.679
h_scaling 0.875</title>
<path fill="none" stroke="blue" stroke-width="0.1" d="M181.28,-681C187.46,-668.15 194.06,-654.41 200.4,-641.22"/>
<polygon fill="blue" stroke="blue" stroke-width="0.1" points="203.56,-642.73 204.73,-632.2 197.25,-639.7 203.56,-642.73"/>
</g>
<!-- key 833
bias &#45;0.881
h_scaling 0.171&#45;&gt;key 833
bias &#45;0.881
h_scaling 0.171 -->
<g id="edge1" class="edge">
<title>key 833
bias &#45;0.881
h_scaling 0.171&#45;&gt;key 833
bias &#45;0.881
h_scaling 0.171</title>
<path fill="none" stroke="red" stroke-width="1.87" d="M216.29,-753.29C227.66,-751.45 235.64,-746.6 235.64,-738.76 235.64,-733.48 232.04,-729.57 226.23,-727.01"/>
<polygon fill="red" stroke="red" stroke-width="1.87" points="226.87,-723.55 216.29,-724.23 224.98,-730.29 226.87,-723.55"/>
<text text-anchor="middle" x="249.64" y="-736.56" font-family="Times,serif" font-size="9.00">0.059</text>
</g>
<!-- key 4492
bias &#45;0.863
h_scaling 0.414&#45;&gt;output
bias 0.679
h_scaling 0.875 -->
<g id="edge8" class="edge">
<title>key 4492
bias &#45;0.863
h_scaling 0.414&#45;&gt;output
bias 0.679
h_scaling 0.875</title>
<path fill="none" stroke="blue" stroke-width="0.1" d="M165.46,-464.2C167.95,-473.99 171.08,-483.85 175,-492.84 178.35,-500.52 182.49,-508.21 187.01,-515.62"/>
<polygon fill="blue" stroke="blue" stroke-width="0.1" points="184.14,-517.62 192.46,-524.18 190.04,-513.86 184.14,-517.62"/>
</g>
<!-- key 4492
bias &#45;0.863
h_scaling 0.414&#45;&gt;key 833
bias &#45;0.881
h_scaling 0.171 -->
<g id="edge4" class="edge">
<title>key 4492
bias &#45;0.863
h_scaling 0.414&#45;&gt;key 833
bias &#45;0.881
h_scaling 0.171</title>
<path fill="none" stroke="red" stroke-width="0.86" d="M139.53,-462.68C136,-478.26 132.79,-495.07 131,-510.84 124.62,-567.04 124.6,-581.91 131,-638.12 132.07,-647.54 133.7,-657.38 135.6,-667.03"/>
<polygon fill="red" stroke="red" stroke-width="0.86" points="132.22,-667.93 137.68,-677.01 139.07,-666.51 132.22,-667.93"/>
<text text-anchor="middle" x="145" y="-572.28" font-family="Times,serif" font-size="9.00">0.025</text>
</g>
<!-- key 4492
bias &#45;0.863
h_scaling 0.414&#45;&gt;key 6931
bias &#45;0.214
h_scaling 0.662 -->
<g id="edge7" class="edge">
<title>key 4492
bias &#45;0.863
h_scaling 0.414&#45;&gt;key 6931
bias &#45;0.214
h_scaling 0.662</title>
<path fill="none" stroke="red" stroke-width="0.94" d="M158.15,-337.3C158.25,-328 158.22,-318.53 158,-309.56 157.94,-307.04 157.86,-304.49 157.78,-301.91"/>
<polygon fill="red" stroke="red" stroke-width="0.94" points="161.28,-301.73 157.42,-291.86 154.28,-301.98 161.28,-301.73"/>
<text text-anchor="middle" x="173" y="-312.36" font-family="Times,serif" font-size="9.00">0.028</text>
</g>
<!-- key 6931
bias &#45;0.214
h_scaling 0.662&#45;&gt;output
bias 0.679
h_scaling 0.875 -->
<g id="edge10" class="edge">
<title>key 6931
bias &#45;0.214
h_scaling 0.662&#45;&gt;output
bias 0.679
h_scaling 0.875</title>
<path fill="none" stroke="blue" stroke-width="0.1" d="M195.66,-276.18C208.95,-294.15 222.01,-315.61 229,-337.56 245.86,-390.46 245.7,-453.49 241.83,-501.08"/>
<polygon fill="blue" stroke="blue" stroke-width="0.1" points="238.32,-501.03 240.92,-511.3 245.29,-501.65 238.32,-501.03"/>
</g>
<!-- key 6931
bias &#45;0.214
h_scaling 0.662&#45;&gt;key 4492
bias &#45;0.863
h_scaling 0.414 -->
<g id="edge6" class="edge">
<title>key 6931
bias &#45;0.214
h_scaling 0.662&#45;&gt;key 4492
bias &#45;0.863
h_scaling 0.414</title>
<path fill="none" stroke="red" stroke-width="0.94" d="M131.11,-287.54C129.09,-298.12 128.36,-309.11 130,-319.56 130.58,-323.26 131.31,-327.03 132.14,-330.81"/>
<polygon fill="red" stroke="red" stroke-width="0.94" points="128.81,-331.92 134.57,-340.81 135.61,-330.27 128.81,-331.92"/>
<text text-anchor="middle" x="144" y="-312.36" font-family="Times,serif" font-size="9.00">0.028</text>
</g>
<!-- key 6931
bias &#45;0.214
h_scaling 0.662&#45;&gt;key 52218
bias &#45;0.236
h_scaling 0.540 -->
<g id="edge14" class="edge">
<title>key 6931
bias &#45;0.214
h_scaling 0.662&#45;&gt;key 52218
bias &#45;0.236
h_scaling 0.540</title>
<path fill="none" stroke="blue" stroke-width="0.1" d="M147.41,-164.18C147.25,-155.3 147.21,-146.11 147.28,-137.07"/>
<polygon fill="blue" stroke="blue" stroke-width="0.1" points="150.79,-136.99 147.41,-126.95 143.79,-136.9 150.79,-136.99"/>
</g>
<!-- key 52218
bias &#45;0.236
h_scaling 0.540&#45;&gt;key 6931
bias &#45;0.214
h_scaling 0.662 -->
<g id="edge12" class="edge">
<title>key 52218
bias &#45;0.236
h_scaling 0.540&#45;&gt;key 6931
bias &#45;0.214
h_scaling 0.662</title>
<path fill="none" stroke="blue" stroke-width="0.1" d="M160.59,-126.95C160.74,-135.81 160.79,-145 160.72,-154.05"/>
<polygon fill="blue" stroke="blue" stroke-width="0.1" points="157.22,-154.13 160.59,-164.18 164.22,-154.22 157.22,-154.13"/>
</g>
</g>
</svg>
