<?xml version="1.0" encoding="UTF-8" standalone="no"?>
<!DOCTYPE svg PUBLIC "-//W3C//DTD SVG 1.1//EN"
 "http://www.w3.org/Graphics/SVG/1.1/DTD/svg11.dtd">
<!-- Generated by graphviz version 2.43.0 (0)
 -->
<!-- Title: %3 Pages: 1 -->
<svg width="371pt" height="892pt"
 viewBox="0.00 0.00 371.00 892.40" xmlns="http://www.w3.org/2000/svg" xmlns:xlink="http://www.w3.org/1999/xlink">
<g id="graph0" class="graph" transform="scale(1 1) rotate(0) translate(4 888.4)">
<title>%3</title>
<polygon fill="white" stroke="transparent" points="-4,4 -4,-888.4 367,-888.4 367,4 -4,4"/>
<!-- ready -->
<g id="node1" class="node">
<title>ready</title>
<polygon fill="yellow" stroke="black" points="179.5,-884.4 136.5,-884.4 136.5,-866.4 179.5,-866.4 179.5,-884.4"/>
<text text-anchor="middle" x="158" y="-873.2" font-family="Times,serif" font-size="9.00">ready</text>
</g>
<!-- key 833
bias &#45;0.881
h_scaling 0.171 -->
<g id="node4" class="node">
<title>key 833
bias &#45;0.881
h_scaling 0.171</title>
<ellipse fill="white" stroke="black" cx="158" cy="-756.76" rx="63.78" ry="63.78"/>
<text text-anchor="middle" x="158" y="-764.56" font-family="Times,serif" font-size="9.00">key 833</text>
<text text-anchor="middle" x="158" y="-754.56" font-family="Times,serif" font-size="9.00">bias &#45;0.881</text>
<text text-anchor="middle" x="158" y="-744.56" font-family="Times,serif" font-size="9.00">h_scaling 0.171</text>
</g>
<!-- ready&#45;&gt;key 833
bias &#45;0.881
h_scaling 0.171 -->
<g id="edge15" class="edge">
<title>ready&#45;&gt;key 833
bias &#45;0.881
h_scaling 0.171</title>
<path fill="none" stroke="blue" stroke-width="0.83" d="M158,-866.38C158,-858.35 158,-845.13 158,-830.63"/>
<polygon fill="blue" stroke="blue" stroke-width="0.83" points="161.5,-830.43 158,-820.43 154.5,-830.43 161.5,-830.43"/>
<text text-anchor="middle" x="173.5" y="-841.2" font-family="Times,serif" font-size="9.00">&#45;0.245</text>
</g>
<!-- key 6931
bias &#45;0.214
h_scaling 0.662 -->
<g id="node6" class="node">
<title>key 6931
bias &#45;0.214
h_scaling 0.662</title>
<ellipse fill="white" stroke="black" cx="155" cy="-236.92" rx="63.78" ry="63.78"/>
<text text-anchor="middle" x="155" y="-244.72" font-family="Times,serif" font-size="9.00">key 6931</text>
<text text-anchor="middle" x="155" y="-234.72" font-family="Times,serif" font-size="9.00">bias &#45;0.214</text>
<text text-anchor="middle" x="155" y="-224.72" font-family="Times,serif" font-size="9.00">h_scaling 0.662</text>
</g>
<!-- ready&#45;&gt;key 6931
bias &#45;0.214
h_scaling 0.662 -->
<g id="edge9" class="edge">
<title>ready&#45;&gt;key 6931
bias &#45;0.214
h_scaling 0.662</title>
<path fill="none" stroke="blue" stroke-width="1.26" d="M179.69,-870.46C226.33,-860.62 332,-830.31 332,-757.76 332,-757.76 332,-757.76 332,-409.2 332,-345.46 272,-297.88 221.86,-269.25"/>
<polygon fill="blue" stroke="blue" stroke-width="1.26" points="223.4,-266.1 212.96,-264.3 220,-272.22 223.4,-266.1"/>
<text text-anchor="middle" x="347.5" y="-581.28" font-family="Times,serif" font-size="9.00">&#45;0.386</text>
</g>
<!-- key 52218
bias &#45;0.236
h_scaling 0.540 -->
<g id="node7" class="node">
<title>key 52218
bias &#45;0.236
h_scaling 0.540</title>
<ellipse fill="white" stroke="black" cx="101" cy="-63.64" rx="63.78" ry="63.78"/>
<text text-anchor="middle" x="101" y="-71.44" font-family="Times,serif" font-size="9.00">key 52218</text>
<text text-anchor="middle" x="101" y="-61.44" font-family="Times,serif" font-size="9.00">bias &#45;0.236</text>
<text text-anchor="middle" x="101" y="-51.44" font-family="Times,serif" font-size="9.00">h_scaling 0.540</text>
</g>
<!-- ready&#45;&gt;key 52218
bias &#45;0.236
h_scaling 0.540 -->
<g id="edge11" class="edge">
<title>ready&#45;&gt;key 52218
bias &#45;0.236
h_scaling 0.540</title>
<path fill="none" stroke="red" stroke-width="2.71" d="M136.36,-869.28C93.09,-857.62 0,-824.75 0,-757.76 0,-757.76 0,-757.76 0,-235.92 0,-191.84 25.12,-149.13 50.31,-117.38"/>
<polygon fill="red" stroke="red" stroke-width="2.71" points="53.09,-119.51 56.7,-109.55 47.67,-115.08 53.09,-119.51"/>
<text text-anchor="middle" x="14" y="-494.64" font-family="Times,serif" font-size="9.00">0.869</text>
</g>
<!-- go -->
<g id="node2" class="node">
<title>go</title>
<polygon fill="green" stroke="black" points="73,-592.48 45,-592.48 45,-574.48 73,-574.48 73,-592.48"/>
<text text-anchor="middle" x="59" y="-581.28" font-family="Times,serif" font-size="9.00">go</text>
</g>
<!-- key 4492
bias &#45;0.863
h_scaling 0.414 -->
<g id="node5" class="node">
<title>key 4492
bias &#45;0.863
h_scaling 0.414</title>
<ellipse fill="white" stroke="black" cx="156" cy="-410.2" rx="63.78" ry="63.78"/>
<text text-anchor="middle" x="156" y="-418" font-family="Times,serif" font-size="9.00">key 4492</text>
<text text-anchor="middle" x="156" y="-408" font-family="Times,serif" font-size="9.00">bias &#45;0.863</text>
<text text-anchor="middle" x="156" y="-398" font-family="Times,serif" font-size="9.00">h_scaling 0.414</text>
</g>
<!-- go&#45;&gt;key 4492
bias &#45;0.863
h_scaling 0.414 -->
<g id="edge3" class="edge">
<title>go&#45;&gt;key 4492
bias &#45;0.863
h_scaling 0.414</title>
<path fill="none" stroke="red" stroke-width="2.39" d="M59.46,-574.47C60.68,-558.05 65.05,-519.75 80,-491.84 85.88,-480.87 93.64,-470.29 101.96,-460.61"/>
<polygon fill="red" stroke="red" stroke-width="2.39" points="104.66,-462.83 108.72,-453.04 99.44,-458.16 104.66,-462.83"/>
<text text-anchor="middle" x="94" y="-494.64" font-family="Times,serif" font-size="9.00">0.762</text>
</g>
<!-- go&#45;&gt;key 6931
bias &#45;0.214
h_scaling 0.662 -->
<g id="edge5" class="edge">
<title>go&#45;&gt;key 6931
bias &#45;0.214
h_scaling 0.662</title>
<path fill="none" stroke="red" stroke-width="1.97" d="M56.73,-574.35C48.5,-543.37 22.39,-430.13 55,-346.56 64.09,-323.26 80.78,-301.94 97.95,-284.48"/>
<polygon fill="red" stroke="red" stroke-width="1.97" points="100.64,-286.74 105.32,-277.23 95.73,-281.75 100.64,-286.74"/>
<text text-anchor="middle" x="69" y="-408" font-family="Times,serif" font-size="9.00">0.624</text>
</g>
<!-- output
bias 0.679
h_scaling 0.875 -->
<g id="node3" class="node">
<title>output
bias 0.679
h_scaling 0.875</title>
<ellipse fill="lightblue" stroke="black" cx="232" cy="-583.48" rx="63.78" ry="63.78"/>
<text text-anchor="middle" x="232" y="-591.28" font-family="Times,serif" font-size="9.00">output</text>
<text text-anchor="middle" x="232" y="-581.28" font-family="Times,serif" font-size="9.00">bias 0.679</text>
<text text-anchor="middle" x="232" y="-571.28" font-family="Times,serif" font-size="9.00">h_scaling 0.875</text>
</g>
<!-- output
bias 0.679
h_scaling 0.875&#45;&gt;key 4492
bias &#45;0.863
h_scaling 0.414 -->
<g id="edge13" class="edge">
<title>output
bias 0.679
h_scaling 0.875&#45;&gt;key 4492
bias &#45;0.863
h_scaling 0.414</title>
<path fill="none" stroke="red" stroke-width="0.94" d="M206.48,-524.97C199.8,-509.92 192.55,-493.56 185.67,-478.07"/>
<polygon fill="red" stroke="red" stroke-width="0.94" points="188.71,-476.28 181.45,-468.56 182.31,-479.12 188.71,-476.28"/>
<text text-anchor="middle" x="208" y="-494.64" font-family="Times,serif" font-size="9.00">0.280</text>
</g>
<!-- key 833
bias &#45;0.881
h_scaling 0.171&#45;&gt;output
bias 0.679
h_scaling 0.875 -->
<g id="edge2" class="edge">
<title>key 833
bias &#45;0.881
h_scaling 0.171&#45;&gt;output
bias 0.679
h_scaling 0.875</title>
<path fill="none" stroke="blue" stroke-width="3.02" d="M183.05,-697.77C189.48,-682.9 196.44,-666.79 203.04,-651.5"/>
<polygon fill="blue" stroke="blue" stroke-width="3.02" points="206.35,-652.68 207.1,-642.11 199.92,-649.91 206.35,-652.68"/>
<text text-anchor="middle" x="210.5" y="-667.92" font-family="Times,serif" font-size="9.00">&#45;0.973</text>
</g>
<!-- key 833
bias &#45;0.881
h_scaling 0.171&#45;&gt;key 833
bias &#45;0.881
h_scaling 0.171 -->
<g id="edge1" class="edge">
<title>key 833
bias &#45;0.881
h_scaling 0.171&#45;&gt;key 833
bias &#45;0.881
h_scaling 0.171</title>
<path fill="none" stroke="red" stroke-width="2.98" d="M219.94,-772.05C231.5,-770.17 239.64,-765.07 239.64,-756.76 239.64,-751.04 235.79,-746.84 229.63,-744.17"/>
<polygon fill="red" stroke="red" stroke-width="2.98" points="230.52,-740.78 219.94,-741.46 228.63,-747.52 230.52,-740.78"/>
<text text-anchor="middle" x="253.64" y="-754.56" font-family="Times,serif" font-size="9.00">0.959</text>
</g>
<!-- key 4492
bias &#45;0.863
h_scaling 0.414&#45;&gt;output
bias 0.679
h_scaling 0.875 -->
<g id="edge8" class="edge">
<title>key 4492
bias &#45;0.863
h_scaling 0.414&#45;&gt;output
bias 0.679
h_scaling 0.875</title>
<path fill="none" stroke="blue" stroke-width="2.92" d="M152.35,-473.83C153.41,-483.45 155.46,-493.08 159,-501.84 163.48,-512.92 170.21,-523.44 177.8,-533.02"/>
<polygon fill="blue" stroke="blue" stroke-width="2.92" points="175.24,-535.41 184.34,-540.83 180.6,-530.92 175.24,-535.41"/>
<text text-anchor="middle" x="174.5" y="-494.64" font-family="Times,serif" font-size="9.00">&#45;0.941</text>
</g>
<!-- key 4492
bias &#45;0.863
h_scaling 0.414&#45;&gt;key 833
bias &#45;0.881
h_scaling 0.171 -->
<g id="edge4" class="edge">
<title>key 4492
bias &#45;0.863
h_scaling 0.414&#45;&gt;key 833
bias &#45;0.881
h_scaling 0.171</title>
<path fill="none" stroke="red" stroke-width="2.94" d="M139.53,-471.68C136,-487.26 132.79,-504.07 131,-519.84 124.62,-576.04 124.13,-590.97 131,-647.12 132.54,-659.67 135.04,-672.87 137.91,-685.57"/>
<polygon fill="red" stroke="red" stroke-width="2.94" points="134.58,-686.7 140.29,-695.62 141.4,-685.09 134.58,-686.7"/>
<text text-anchor="middle" x="145" y="-581.28" font-family="Times,serif" font-size="9.00">0.945</text>
</g>
<!-- key 4492
bias &#45;0.863
h_scaling 0.414&#45;&gt;key 6931
bias &#45;0.214
h_scaling 0.662 -->
<g id="edge7" class="edge">
<title>key 4492
bias &#45;0.863
h_scaling 0.414&#45;&gt;key 6931
bias &#45;0.214
h_scaling 0.662</title>
<path fill="none" stroke="red" stroke-width="2.98" d="M159.02,-346.3C159.2,-337 159.22,-327.53 159,-318.56 158.94,-316.04 158.86,-313.49 158.78,-310.91"/>
<polygon fill="red" stroke="red" stroke-width="2.98" points="162.28,-310.73 158.42,-300.86 155.28,-310.98 162.28,-310.73"/>
<text text-anchor="middle" x="174" y="-321.36" font-family="Times,serif" font-size="9.00">0.961</text>
</g>
<!-- key 6931
bias &#45;0.214
h_scaling 0.662&#45;&gt;output
bias 0.679
h_scaling 0.875 -->
<g id="edge10" class="edge">
<title>key 6931
bias &#45;0.214
h_scaling 0.662&#45;&gt;output
bias 0.679
h_scaling 0.875</title>
<path fill="none" stroke="blue" stroke-width="2.94" d="M196.3,-285.53C209.35,-303.45 222.14,-324.79 229,-346.56 245.69,-399.51 245.55,-462.54 241.72,-510.12"/>
<polygon fill="blue" stroke="blue" stroke-width="2.94" points="238.21,-510.06 240.82,-520.33 245.18,-510.67 238.21,-510.06"/>
<text text-anchor="middle" x="258.5" y="-408" font-family="Times,serif" font-size="9.00">&#45;0.947</text>
</g>
<!-- key 6931
bias &#45;0.214
h_scaling 0.662&#45;&gt;key 4492
bias &#45;0.863
h_scaling 0.414 -->
<g id="edge6" class="edge">
<title>key 6931
bias &#45;0.214
h_scaling 0.662&#45;&gt;key 4492
bias &#45;0.863
h_scaling 0.414</title>
<path fill="none" stroke="red" stroke-width="3.1" d="M132.21,-296.53C130.18,-307.1 129.42,-318.1 131,-328.56 131.56,-332.25 132.26,-336.01 133.06,-339.79"/>
<polygon fill="red" stroke="red" stroke-width="3.1" points="129.71,-340.84 135.39,-349.78 136.52,-339.24 129.71,-340.84"/>
<text text-anchor="middle" x="145" y="-321.36" font-family="Times,serif" font-size="9.00">0.998</text>
</g>
<!-- key 6931
bias &#45;0.214
h_scaling 0.662&#45;&gt;key 52218
bias &#45;0.236
h_scaling 0.540 -->
<g id="edge14" class="edge">
<title>key 6931
bias &#45;0.214
h_scaling 0.662&#45;&gt;key 52218
bias &#45;0.236
h_scaling 0.540</title>
<path fill="none" stroke="blue" stroke-width="1.34" d="M113.92,-187.74C107.37,-177.61 101.58,-166.55 98,-155.28 96.12,-149.37 94.89,-143.14 94.16,-136.81"/>
<polygon fill="blue" stroke="blue" stroke-width="1.34" points="97.65,-136.54 93.39,-126.84 90.67,-137.08 97.65,-136.54"/>
<text text-anchor="middle" x="113.5" y="-148.08" font-family="Times,serif" font-size="9.00">&#45;0.413</text>
</g>
<!-- key 52218
bias &#45;0.236
h_scaling 0.540&#45;&gt;key 6931
bias &#45;0.214
h_scaling 0.662 -->
<g id="edge12" class="edge">
<title>key 52218
bias &#45;0.236
h_scaling 0.540&#45;&gt;key 6931
bias &#45;0.214
h_scaling 0.662</title>
<path fill="none" stroke="blue" stroke-width="1.58" d="M125.22,-122.87C128,-130.35 130.67,-137.96 133,-145.28 135.01,-151.6 136.94,-158.23 138.77,-164.89"/>
<polygon fill="blue" stroke="blue" stroke-width="1.58" points="135.41,-165.89 141.36,-174.65 142.18,-164.09 135.41,-165.89"/>
<text text-anchor="middle" x="151.5" y="-148.08" font-family="Times,serif" font-size="9.00">&#45;0.493</text>
</g>
</g>
</svg>
