<?xml version="1.0" encoding="UTF-8" standalone="no"?>
<!DOCTYPE svg PUBLIC "-//W3C//DTD SVG 1.1//EN"
 "http://www.w3.org/Graphics/SVG/1.1/DTD/svg11.dtd">
<!-- Generated by graphviz version 2.43.0 (0)
 -->
<!-- Title: %3 Pages: 1 -->
<svg width="654pt" height="1010pt"
 viewBox="0.00 0.00 653.64 1009.68" xmlns="http://www.w3.org/2000/svg" xmlns:xlink="http://www.w3.org/1999/xlink">
<g id="graph0" class="graph" transform="scale(1 1) rotate(0) translate(4 1005.68)">
<title>%3</title>
<polygon fill="white" stroke="transparent" points="-4,4 -4,-1005.68 649.64,-1005.68 649.64,4 -4,4"/>
<!-- ready -->
<g id="node1" class="node">
<title>ready</title>
<polygon fill="yellow" stroke="black" points="113.5,-1001.68 70.5,-1001.68 70.5,-983.68 113.5,-983.68 113.5,-1001.68"/>
<text text-anchor="middle" x="92" y="-990.48" font-family="Times,serif" font-size="9.00">ready</text>
</g>
<!-- key 330
bias &#45;0.248
h_scaling 1.000 -->
<g id="node6" class="node">
<title>key 330
bias &#45;0.248
h_scaling 1.000</title>
<ellipse fill="white" stroke="black" cx="241" cy="-874.04" rx="63.78" ry="63.78"/>
<text text-anchor="middle" x="241" y="-881.84" font-family="Times,serif" font-size="9.00">key 330</text>
<text text-anchor="middle" x="241" y="-871.84" font-family="Times,serif" font-size="9.00">bias &#45;0.248</text>
<text text-anchor="middle" x="241" y="-861.84" font-family="Times,serif" font-size="9.00">h_scaling 1.000</text>
</g>
<!-- ready&#45;&gt;key 330
bias &#45;0.248
h_scaling 1.000 -->
<g id="edge3" class="edge">
<title>ready&#45;&gt;key 330
bias &#45;0.248
h_scaling 1.000</title>
<path fill="none" stroke="blue" stroke-width="0.1" d="M102.24,-983.66C118.9,-970.62 153.05,-943.89 183.3,-920.2"/>
<polygon fill="blue" stroke="blue" stroke-width="0.1" points="185.58,-922.86 191.3,-913.94 181.27,-917.35 185.58,-922.86"/>
</g>
<!-- key 15737
bias &#45;0.161
h_scaling 1.000 -->
<g id="node9" class="node">
<title>key 15737
bias &#45;0.161
h_scaling 1.000</title>
<ellipse fill="white" stroke="black" cx="92" cy="-700.76" rx="63.78" ry="63.78"/>
<text text-anchor="middle" x="92" y="-708.56" font-family="Times,serif" font-size="9.00">key 15737</text>
<text text-anchor="middle" x="92" y="-698.56" font-family="Times,serif" font-size="9.00">bias &#45;0.161</text>
<text text-anchor="middle" x="92" y="-688.56" font-family="Times,serif" font-size="9.00">h_scaling 1.000</text>
</g>
<!-- ready&#45;&gt;key 15737
bias &#45;0.161
h_scaling 1.000 -->
<g id="edge8" class="edge">
<title>ready&#45;&gt;key 15737
bias &#45;0.161
h_scaling 1.000</title>
<path fill="none" stroke="red" stroke-width="0.1" d="M92,-983.62C92,-953.83 92,-847.89 92,-774.74"/>
<polygon fill="red" stroke="red" stroke-width="0.1" points="95.5,-774.64 92,-764.64 88.5,-774.64 95.5,-774.64"/>
<text text-anchor="middle" x="106" y="-871.84" font-family="Times,serif" font-size="9.00">0.000</text>
</g>
<!-- key 6366
bias &#45;0.545
h_scaling 1.000 -->
<g id="node10" class="node">
<title>key 6366
bias &#45;0.545
h_scaling 1.000</title>
<ellipse fill="white" stroke="black" cx="184" cy="-63.64" rx="63.78" ry="63.78"/>
<text text-anchor="middle" x="184" y="-71.44" font-family="Times,serif" font-size="9.00">key 6366</text>
<text text-anchor="middle" x="184" y="-61.44" font-family="Times,serif" font-size="9.00">bias &#45;0.545</text>
<text text-anchor="middle" x="184" y="-51.44" font-family="Times,serif" font-size="9.00">h_scaling 1.000</text>
</g>
<!-- ready&#45;&gt;key 6366
bias &#45;0.545
h_scaling 1.000 -->
<g id="edge4" class="edge">
<title>ready&#45;&gt;key 6366
bias &#45;0.545
h_scaling 1.000</title>
<path fill="none" stroke="red" stroke-width="0.1" d="M78.82,-983.53C53.38,-966.68 0,-925.33 0,-875.04 0,-875.04 0,-875.04 0,-235.92 0,-169.91 64.23,-122.11 116.79,-94.05"/>
<polygon fill="red" stroke="red" stroke-width="0.1" points="118.52,-97.09 125.78,-89.37 115.29,-90.88 118.52,-97.09"/>
<text text-anchor="middle" x="14" y="-553.28" font-family="Times,serif" font-size="9.00">0.000</text>
</g>
<!-- go -->
<g id="node2" class="node">
<title>go</title>
<polygon fill="green" stroke="black" points="380,-1001.68 352,-1001.68 352,-983.68 380,-983.68 380,-1001.68"/>
<text text-anchor="middle" x="366" y="-990.48" font-family="Times,serif" font-size="9.00">go</text>
</g>
<!-- go&#45;&gt;key 330
bias &#45;0.248
h_scaling 1.000 -->
<g id="edge1" class="edge">
<title>go&#45;&gt;key 330
bias &#45;0.248
h_scaling 1.000</title>
<path fill="none" stroke="red" stroke-width="0.1" d="M357.41,-983.66C344.36,-971.48 318.53,-947.38 294.5,-924.96"/>
<polygon fill="red" stroke="red" stroke-width="0.1" points="296.82,-922.33 287.12,-918.07 292.04,-927.45 296.82,-922.33"/>
<text text-anchor="middle" x="350" y="-958.48" font-family="Times,serif" font-size="9.00">0.000</text>
</g>
<!-- key 13296
bias &#45;0.739
h_scaling 1.000 -->
<g id="node7" class="node">
<title>key 13296
bias &#45;0.739
h_scaling 1.000</title>
<ellipse fill="white" stroke="black" cx="388" cy="-700.76" rx="63.78" ry="63.78"/>
<text text-anchor="middle" x="388" y="-708.56" font-family="Times,serif" font-size="9.00">key 13296</text>
<text text-anchor="middle" x="388" y="-698.56" font-family="Times,serif" font-size="9.00">bias &#45;0.739</text>
<text text-anchor="middle" x="388" y="-688.56" font-family="Times,serif" font-size="9.00">h_scaling 1.000</text>
</g>
<!-- go&#45;&gt;key 13296
bias &#45;0.739
h_scaling 1.000 -->
<g id="edge6" class="edge">
<title>go&#45;&gt;key 13296
bias &#45;0.739
h_scaling 1.000</title>
<path fill="none" stroke="red" stroke-width="0.1" d="M366.63,-983.48C367.03,-978.36 367.55,-971.63 368,-965.68 372.94,-901 378.51,-827.41 382.52,-774.4"/>
<polygon fill="red" stroke="red" stroke-width="0.1" points="386.01,-774.65 383.27,-764.41 379.03,-774.12 386.01,-774.65"/>
<text text-anchor="middle" x="394" y="-871.84" font-family="Times,serif" font-size="9.00">0.000</text>
</g>
<!-- output
bias 0.127
h_scaling 1.000 -->
<g id="node3" class="node">
<title>output
bias 0.127
h_scaling 1.000</title>
<ellipse fill="lightblue" stroke="black" cx="276" cy="-236.92" rx="63.78" ry="63.78"/>
<text text-anchor="middle" x="276" y="-244.72" font-family="Times,serif" font-size="9.00">output</text>
<text text-anchor="middle" x="276" y="-234.72" font-family="Times,serif" font-size="9.00">bias 0.127</text>
<text text-anchor="middle" x="276" y="-224.72" font-family="Times,serif" font-size="9.00">h_scaling 1.000</text>
</g>
<!-- output
bias 0.127
h_scaling 1.000&#45;&gt;key 6366
bias &#45;0.545
h_scaling 1.000 -->
<g id="edge10" class="edge">
<title>output
bias 0.127
h_scaling 1.000&#45;&gt;key 6366
bias &#45;0.545
h_scaling 1.000</title>
<path fill="none" stroke="blue" stroke-width="0.1" d="M267.47,-173.48C264.86,-163.74 261.45,-154.02 257,-145.28 251.64,-134.76 244.55,-124.57 236.89,-115.18"/>
<polygon fill="blue" stroke="blue" stroke-width="0.1" points="239.49,-112.84 230.34,-107.49 234.16,-117.37 239.49,-112.84"/>
</g>
<!-- key 353634
bias &#45;0.769
h_scaling 1.000 -->
<g id="node4" class="node">
<title>key 353634
bias &#45;0.769
h_scaling 1.000</title>
<ellipse fill="white" stroke="black" cx="301" cy="-555.48" rx="63.78" ry="63.78"/>
<text text-anchor="middle" x="301" y="-563.28" font-family="Times,serif" font-size="9.00">key 353634</text>
<text text-anchor="middle" x="301" y="-553.28" font-family="Times,serif" font-size="9.00">bias &#45;0.769</text>
<text text-anchor="middle" x="301" y="-543.28" font-family="Times,serif" font-size="9.00">h_scaling 1.000</text>
</g>
<!-- key 353634
bias &#45;0.769
h_scaling 1.000&#45;&gt;output
bias 0.127
h_scaling 1.000 -->
<g id="edge20" class="edge">
<title>key 353634
bias &#45;0.769
h_scaling 1.000&#45;&gt;output
bias 0.127
h_scaling 1.000</title>
<path fill="none" stroke="blue" stroke-width="0.1" d="M282.75,-494.06C281.23,-487.29 279.93,-480.45 279,-473.84 271.38,-419.61 270.9,-357.68 272.18,-310.88"/>
<polygon fill="blue" stroke="blue" stroke-width="0.1" points="275.68,-310.94 272.49,-300.83 268.69,-310.72 275.68,-310.94"/>
</g>
<!-- key 344070
bias &#45;0.948
h_scaling 1.000 -->
<g id="node5" class="node">
<title>key 344070
bias &#45;0.948
h_scaling 1.000</title>
<ellipse fill="white" stroke="black" cx="352" cy="-410.2" rx="63.78" ry="63.78"/>
<text text-anchor="middle" x="352" y="-418" font-family="Times,serif" font-size="9.00">key 344070</text>
<text text-anchor="middle" x="352" y="-408" font-family="Times,serif" font-size="9.00">bias &#45;0.948</text>
<text text-anchor="middle" x="352" y="-398" font-family="Times,serif" font-size="9.00">h_scaling 1.000</text>
</g>
<!-- key 344070
bias &#45;0.948
h_scaling 1.000&#45;&gt;output
bias 0.127
h_scaling 1.000 -->
<g id="edge17" class="edge">
<title>key 344070
bias &#45;0.948
h_scaling 1.000&#45;&gt;output
bias 0.127
h_scaling 1.000</title>
<path fill="none" stroke="blue" stroke-width="0.1" d="M326.48,-351.69C319.8,-336.64 312.55,-320.28 305.67,-304.79"/>
<polygon fill="blue" stroke="blue" stroke-width="0.1" points="308.71,-303 301.45,-295.28 302.31,-305.84 308.71,-303"/>
</g>
<!-- key 344070
bias &#45;0.948
h_scaling 1.000&#45;&gt;key 344070
bias &#45;0.948
h_scaling 1.000 -->
<g id="edge18" class="edge">
<title>key 344070
bias &#45;0.948
h_scaling 1.000&#45;&gt;key 344070
bias &#45;0.948
h_scaling 1.000</title>
<path fill="none" stroke="red" stroke-width="0.1" d="M413.94,-425.5C425.5,-423.61 433.64,-418.51 433.64,-410.2 433.64,-404.48 429.79,-400.29 423.63,-397.61"/>
<polygon fill="red" stroke="red" stroke-width="0.1" points="424.52,-394.22 413.94,-394.9 422.63,-400.96 424.52,-394.22"/>
<text text-anchor="middle" x="447.64" y="-408" font-family="Times,serif" font-size="9.00">0.000</text>
</g>
<!-- key 330
bias &#45;0.248
h_scaling 1.000&#45;&gt;output
bias 0.127
h_scaling 1.000 -->
<g id="edge2" class="edge">
<title>key 330
bias &#45;0.248
h_scaling 1.000&#45;&gt;output
bias 0.127
h_scaling 1.000</title>
<path fill="none" stroke="blue" stroke-width="0.1" d="M236.69,-810.52C232.29,-734.92 227.23,-603.85 236,-491.84 240.86,-429.79 252.29,-360 261.7,-309.31"/>
<polygon fill="blue" stroke="blue" stroke-width="0.1" points="265.15,-309.9 263.55,-299.43 258.27,-308.61 265.15,-309.9"/>
</g>
<!-- key 330
bias &#45;0.248
h_scaling 1.000&#45;&gt;key 353634
bias &#45;0.769
h_scaling 1.000 -->
<g id="edge19" class="edge">
<title>key 330
bias &#45;0.248
h_scaling 1.000&#45;&gt;key 353634
bias &#45;0.769
h_scaling 1.000</title>
<path fill="none" stroke="red" stroke-width="0.1" d="M252.71,-811.25C262.66,-758.74 276.96,-683.32 287.41,-628.16"/>
<polygon fill="red" stroke="red" stroke-width="0.1" points="290.89,-628.59 289.32,-618.11 284.02,-627.28 290.89,-628.59"/>
<text text-anchor="middle" x="272" y="-785.2" font-family="Times,serif" font-size="9.00">0.000</text>
</g>
<!-- key 330
bias &#45;0.248
h_scaling 1.000&#45;&gt;key 13296
bias &#45;0.739
h_scaling 1.000 -->
<g id="edge11" class="edge">
<title>key 330
bias &#45;0.248
h_scaling 1.000&#45;&gt;key 13296
bias &#45;0.739
h_scaling 1.000</title>
<path fill="none" stroke="red" stroke-width="0.1" d="M293.11,-836.99C309.38,-824.14 326.57,-808.76 340,-792.4 346.18,-784.86 351.92,-776.4 357.11,-767.76"/>
<polygon fill="red" stroke="red" stroke-width="0.1" points="360.15,-769.49 362.12,-759.08 354.09,-765.99 360.15,-769.49"/>
<text text-anchor="middle" x="361" y="-785.2" font-family="Times,serif" font-size="9.00">0.000</text>
</g>
<!-- key 330
bias &#45;0.248
h_scaling 1.000&#45;&gt;key 15737
bias &#45;0.161
h_scaling 1.000 -->
<g id="edge15" class="edge">
<title>key 330
bias &#45;0.248
h_scaling 1.000&#45;&gt;key 15737
bias &#45;0.161
h_scaling 1.000</title>
<path fill="none" stroke="blue" stroke-width="0.1" d="M199.24,-825.78C189.61,-814.84 179.43,-803.23 170,-792.4 160.25,-781.2 149.87,-769.19 139.96,-757.69"/>
<polygon fill="blue" stroke="blue" stroke-width="0.1" points="142.37,-755.12 133.19,-749.82 137.06,-759.69 142.37,-755.12"/>
</g>
<!-- key 13296
bias &#45;0.739
h_scaling 1.000&#45;&gt;output
bias 0.127
h_scaling 1.000 -->
<g id="edge12" class="edge">
<title>key 13296
bias &#45;0.739
h_scaling 1.000&#45;&gt;output
bias 0.127
h_scaling 1.000</title>
<path fill="none" stroke="blue" stroke-width="0.1" d="M422.79,-647.38C466.01,-575.1 527.56,-442.82 471,-346.56 444.39,-301.27 391.28,-273.48 347.21,-257.36"/>
<polygon fill="blue" stroke="blue" stroke-width="0.1" points="348.26,-254.02 337.66,-254 345.93,-260.62 348.26,-254.02"/>
</g>
<!-- key 13296
bias &#45;0.739
h_scaling 1.000&#45;&gt;key 344070
bias &#45;0.948
h_scaling 1.000 -->
<g id="edge16" class="edge">
<title>key 13296
bias &#45;0.739
h_scaling 1.000&#45;&gt;key 344070
bias &#45;0.948
h_scaling 1.000</title>
<path fill="none" stroke="red" stroke-width="0.1" d="M382.48,-637.3C378.56,-595.95 372.8,-540.55 366,-491.84 365.6,-489 365.18,-486.11 364.75,-483.19"/>
<polygon fill="red" stroke="red" stroke-width="0.1" points="368.19,-482.55 363.19,-473.21 361.27,-483.63 368.19,-482.55"/>
<text text-anchor="middle" x="395" y="-553.28" font-family="Times,serif" font-size="9.00">0.000</text>
</g>
<!-- key 13296
bias &#45;0.739
h_scaling 1.000&#45;&gt;key 330
bias &#45;0.248
h_scaling 1.000 -->
<g id="edge7" class="edge">
<title>key 13296
bias &#45;0.739
h_scaling 1.000&#45;&gt;key 330
bias &#45;0.248
h_scaling 1.000</title>
<path fill="none" stroke="red" stroke-width="0.1" d="M343.85,-747.15C333.22,-758.47 322.03,-770.73 312,-782.4 303.28,-792.54 294.26,-803.58 285.7,-814.35"/>
<polygon fill="red" stroke="red" stroke-width="0.1" points="282.71,-812.49 279.26,-822.51 288.2,-816.83 282.71,-812.49"/>
<text text-anchor="middle" x="326" y="-785.2" font-family="Times,serif" font-size="9.00">0.000</text>
</g>
<!-- key 379250
bias &#45;0.478
h_scaling 1.000 -->
<g id="node8" class="node">
<title>key 379250
bias &#45;0.478
h_scaling 1.000</title>
<ellipse fill="white" stroke="black" cx="582" cy="-410.2" rx="63.78" ry="63.78"/>
<text text-anchor="middle" x="582" y="-418" font-family="Times,serif" font-size="9.00">key 379250</text>
<text text-anchor="middle" x="582" y="-408" font-family="Times,serif" font-size="9.00">bias &#45;0.478</text>
<text text-anchor="middle" x="582" y="-398" font-family="Times,serif" font-size="9.00">h_scaling 1.000</text>
</g>
<!-- key 379250
bias &#45;0.478
h_scaling 1.000&#45;&gt;output
bias 0.127
h_scaling 1.000 -->
<g id="edge21" class="edge">
<title>key 379250
bias &#45;0.478
h_scaling 1.000&#45;&gt;output
bias 0.127
h_scaling 1.000</title>
<path fill="none" stroke="blue" stroke-width="0.1" d="M545.59,-357.6C533.64,-343.44 519.42,-329.11 504,-318.56 456.93,-286.35 395.62,-265.62 348.43,-253.25"/>
<polygon fill="blue" stroke="blue" stroke-width="0.1" points="349.14,-249.82 338.59,-250.74 347.41,-256.6 349.14,-249.82"/>
</g>
<!-- key 15737
bias &#45;0.161
h_scaling 1.000&#45;&gt;key 6366
bias &#45;0.545
h_scaling 1.000 -->
<g id="edge9" class="edge">
<title>key 15737
bias &#45;0.161
h_scaling 1.000&#45;&gt;key 6366
bias &#45;0.545
h_scaling 1.000</title>
<path fill="none" stroke="red" stroke-width="0.1" d="M99.62,-637.28C108.96,-561.71 125.59,-430.67 142,-318.56 153.3,-241.37 157.11,-222.22 170,-145.28 170.47,-142.45 170.96,-139.57 171.45,-136.67"/>
<polygon fill="red" stroke="red" stroke-width="0.1" points="174.92,-137.15 173.15,-126.7 168.02,-135.97 174.92,-137.15"/>
<text text-anchor="middle" x="156" y="-321.36" font-family="Times,serif" font-size="9.00">0.000</text>
</g>
<!-- key 6366
bias &#45;0.545
h_scaling 1.000&#45;&gt;output
bias 0.127
h_scaling 1.000 -->
<g id="edge14" class="edge">
<title>key 6366
bias &#45;0.545
h_scaling 1.000&#45;&gt;output
bias 0.127
h_scaling 1.000</title>
<path fill="none" stroke="red" stroke-width="0.1" d="M208.84,-122.76C213.92,-133.7 219.43,-144.94 225,-155.28 228.4,-161.59 232.12,-168.08 235.93,-174.5"/>
<polygon fill="red" stroke="red" stroke-width="0.1" points="233.02,-176.44 241.19,-183.19 239.01,-172.82 233.02,-176.44"/>
<text text-anchor="middle" x="239" y="-148.08" font-family="Times,serif" font-size="9.00">0.000</text>
</g>
<!-- key 6366
bias &#45;0.545
h_scaling 1.000&#45;&gt;key 330
bias &#45;0.248
h_scaling 1.000 -->
<g id="edge5" class="edge">
<title>key 6366
bias &#45;0.545
h_scaling 1.000&#45;&gt;key 330
bias &#45;0.248
h_scaling 1.000</title>
<path fill="none" stroke="blue" stroke-width="0.1" d="M184,-127.28C184,-159.71 184,-199.94 184,-235.92 184,-701.76 184,-701.76 184,-701.76 184,-737.97 195.61,-776.38 208.35,-807.64"/>
<polygon fill="blue" stroke="blue" stroke-width="0.1" points="205.23,-809.24 212.33,-817.1 211.68,-806.52 205.23,-809.24"/>
</g>
<!-- key 6366
bias &#45;0.545
h_scaling 1.000&#45;&gt;key 6366
bias &#45;0.545
h_scaling 1.000 -->
<g id="edge13" class="edge">
<title>key 6366
bias &#45;0.545
h_scaling 1.000&#45;&gt;key 6366
bias &#45;0.545
h_scaling 1.000</title>
<path fill="none" stroke="red" stroke-width="0.1" d="M245.94,-78.94C257.5,-77.05 265.64,-71.95 265.64,-63.64 265.64,-57.92 261.79,-53.73 255.63,-51.05"/>
<polygon fill="red" stroke="red" stroke-width="0.1" points="256.52,-47.66 245.94,-48.34 254.63,-54.4 256.52,-47.66"/>
<text text-anchor="middle" x="279.64" y="-61.44" font-family="Times,serif" font-size="9.00">0.000</text>
</g>
</g>
</svg>
