<?xml version="1.0" encoding="UTF-8" standalone="no"?>
<!DOCTYPE svg PUBLIC "-//W3C//DTD SVG 1.1//EN"
 "http://www.w3.org/Graphics/SVG/1.1/DTD/svg11.dtd">
<!-- Generated by graphviz version 2.43.0 (0)
 -->
<!-- Title: %3 Pages: 1 -->
<svg width="428pt" height="892pt"
 viewBox="0.00 0.00 428.00 892.40" xmlns="http://www.w3.org/2000/svg" xmlns:xlink="http://www.w3.org/1999/xlink">
<g id="graph0" class="graph" transform="scale(1 1) rotate(0) translate(4 888.4)">
<title>%3</title>
<polygon fill="white" stroke="transparent" points="-4,4 -4,-888.4 424,-888.4 424,4 -4,4"/>
<!-- ready -->
<g id="node1" class="node">
<title>ready</title>
<polygon fill="yellow" stroke="black" points="102.5,-765.76 59.5,-765.76 59.5,-747.76 102.5,-747.76 102.5,-765.76"/>
<text text-anchor="middle" x="81" y="-754.56" font-family="Times,serif" font-size="9.00">ready</text>
</g>
<!-- key 22770
bias &#45;0.986
h_scaling 0.801 -->
<g id="node4" class="node">
<title>key 22770
bias &#45;0.986
h_scaling 0.801</title>
<ellipse fill="white" stroke="black" cx="316" cy="-583.48" rx="63.78" ry="63.78"/>
<text text-anchor="middle" x="316" y="-591.28" font-family="Times,serif" font-size="9.00">key 22770</text>
<text text-anchor="middle" x="316" y="-581.28" font-family="Times,serif" font-size="9.00">bias &#45;0.986</text>
<text text-anchor="middle" x="316" y="-571.28" font-family="Times,serif" font-size="9.00">h_scaling 0.801</text>
</g>
<!-- ready&#45;&gt;key 22770
bias &#45;0.986
h_scaling 0.801 -->
<g id="edge14" class="edge">
<title>ready&#45;&gt;key 22770
bias &#45;0.986
h_scaling 0.801</title>
<path fill="none" stroke="red" stroke-width="1.53" d="M86.6,-747.59C98.61,-730.53 128.43,-690.59 161,-665.12 187.41,-644.46 219.91,-626.61 248.32,-612.99"/>
<polygon fill="red" stroke="red" stroke-width="1.53" points="249.83,-616.15 257.39,-608.72 246.85,-609.81 249.83,-616.15"/>
<text text-anchor="middle" x="175" y="-667.92" font-family="Times,serif" font-size="9.00">0.478</text>
</g>
<!-- key 2489
bias &#45;0.978
h_scaling 0.684 -->
<g id="node6" class="node">
<title>key 2489
bias &#45;0.978
h_scaling 0.684</title>
<ellipse fill="white" stroke="black" cx="249" cy="-63.64" rx="63.78" ry="63.78"/>
<text text-anchor="middle" x="249" y="-71.44" font-family="Times,serif" font-size="9.00">key 2489</text>
<text text-anchor="middle" x="249" y="-61.44" font-family="Times,serif" font-size="9.00">bias &#45;0.978</text>
<text text-anchor="middle" x="249" y="-51.44" font-family="Times,serif" font-size="9.00">h_scaling 0.684</text>
</g>
<!-- ready&#45;&gt;key 2489
bias &#45;0.978
h_scaling 0.684 -->
<g id="edge2" class="edge">
<title>ready&#45;&gt;key 2489
bias &#45;0.978
h_scaling 0.684</title>
<path fill="none" stroke="red" stroke-width="1.47" d="M78.14,-747.68C69.78,-723.35 46,-648.52 46,-584.48 46,-584.48 46,-584.48 46,-235.92 46,-164.14 121.06,-116.32 179.9,-89.86"/>
<polygon fill="red" stroke="red" stroke-width="1.47" points="181.43,-93.02 189.19,-85.8 178.63,-86.6 181.43,-93.02"/>
<text text-anchor="middle" x="60" y="-408" font-family="Times,serif" font-size="9.00">0.456</text>
</g>
<!-- key 14717
bias &#45;0.460
h_scaling 0.690 -->
<g id="node7" class="node">
<title>key 14717
bias &#45;0.460
h_scaling 0.690</title>
<ellipse fill="white" stroke="black" cx="140" cy="-236.92" rx="63.78" ry="63.78"/>
<text text-anchor="middle" x="140" y="-244.72" font-family="Times,serif" font-size="9.00">key 14717</text>
<text text-anchor="middle" x="140" y="-234.72" font-family="Times,serif" font-size="9.00">bias &#45;0.460</text>
<text text-anchor="middle" x="140" y="-224.72" font-family="Times,serif" font-size="9.00">h_scaling 0.690</text>
</g>
<!-- ready&#45;&gt;key 14717
bias &#45;0.460
h_scaling 0.690 -->
<g id="edge3" class="edge">
<title>ready&#45;&gt;key 14717
bias &#45;0.460
h_scaling 0.690</title>
<path fill="none" stroke="red" stroke-width="1.45" d="M81.48,-747.53C83.41,-715.02 91.05,-592.36 102,-491.84 110.42,-414.55 114.02,-395.38 126,-318.56 126.44,-315.73 126.9,-312.84 127.37,-309.93"/>
<polygon fill="red" stroke="red" stroke-width="1.45" points="130.84,-310.39 129.01,-299.96 123.93,-309.26 130.84,-310.39"/>
<text text-anchor="middle" x="116" y="-494.64" font-family="Times,serif" font-size="9.00">0.451</text>
</g>
<!-- go -->
<g id="node2" class="node">
<title>go</title>
<polygon fill="green" stroke="black" points="194,-884.4 166,-884.4 166,-866.4 194,-866.4 194,-884.4"/>
<text text-anchor="middle" x="180" y="-873.2" font-family="Times,serif" font-size="9.00">go</text>
</g>
<!-- go&#45;&gt;key 22770
bias &#45;0.986
h_scaling 0.801 -->
<g id="edge11" class="edge">
<title>go&#45;&gt;key 22770
bias &#45;0.986
h_scaling 0.801</title>
<path fill="none" stroke="blue" stroke-width="2.72" d="M179.8,-866.28C179.49,-839.81 181.08,-754.12 212,-693.12 223.57,-670.29 241.52,-649.02 259.27,-631.46"/>
<polygon fill="blue" stroke="blue" stroke-width="2.72" points="262.07,-633.63 266.85,-624.17 257.22,-628.58 262.07,-633.63"/>
<text text-anchor="middle" x="227.5" y="-754.56" font-family="Times,serif" font-size="9.00">&#45;0.872</text>
</g>
<!-- key 221589
bias &#45;0.599
h_scaling 0.033 -->
<g id="node5" class="node">
<title>key 221589
bias &#45;0.599
h_scaling 0.033</title>
<ellipse fill="white" stroke="black" cx="316" cy="-756.76" rx="63.78" ry="63.78"/>
<text text-anchor="middle" x="316" y="-764.56" font-family="Times,serif" font-size="9.00">key 221589</text>
<text text-anchor="middle" x="316" y="-754.56" font-family="Times,serif" font-size="9.00">bias &#45;0.599</text>
<text text-anchor="middle" x="316" y="-744.56" font-family="Times,serif" font-size="9.00">h_scaling 0.033</text>
</g>
<!-- go&#45;&gt;key 221589
bias &#45;0.599
h_scaling 0.033 -->
<g id="edge15" class="edge">
<title>go&#45;&gt;key 221589
bias &#45;0.599
h_scaling 0.033</title>
<path fill="none" stroke="red" stroke-width="3.1" d="M192.28,-866.35C199.63,-861.39 209.04,-854.79 217,-848.4 232.31,-836.09 248.28,-822.06 262.8,-808.77"/>
<polygon fill="red" stroke="red" stroke-width="3.1" points="265.27,-811.26 270.26,-801.91 260.53,-806.11 265.27,-811.26"/>
<text text-anchor="middle" x="243" y="-841.2" font-family="Times,serif" font-size="9.00">1.000</text>
</g>
<!-- go&#45;&gt;key 2489
bias &#45;0.978
h_scaling 0.684 -->
<g id="edge9" class="edge">
<title>go&#45;&gt;key 2489
bias &#45;0.978
h_scaling 0.684</title>
<path fill="none" stroke="blue" stroke-width="2.54" d="M165.88,-872.24C123.44,-864.88 0,-836.7 0,-757.76 0,-757.76 0,-757.76 0,-235.92 0,-149.3 103.55,-103.17 177.1,-81.33"/>
<polygon fill="blue" stroke="blue" stroke-width="2.54" points="178.17,-84.66 186.81,-78.53 176.23,-77.93 178.17,-84.66"/>
<text text-anchor="middle" x="15.5" y="-494.64" font-family="Times,serif" font-size="9.00">&#45;0.814</text>
</g>
<!-- go&#45;&gt;key 14717
bias &#45;0.460
h_scaling 0.690 -->
<g id="edge5" class="edge">
<title>go&#45;&gt;key 14717
bias &#45;0.460
h_scaling 0.690</title>
<path fill="none" stroke="blue" stroke-width="1.45" d="M178.54,-866.22C177.68,-861.12 176.64,-854.39 176,-848.4 155.46,-654.96 145.88,-425.7 142.09,-310.98"/>
<polygon fill="blue" stroke="blue" stroke-width="1.45" points="145.59,-310.8 141.77,-300.91 138.59,-311.02 145.59,-310.8"/>
<text text-anchor="middle" x="174.5" y="-581.28" font-family="Times,serif" font-size="9.00">&#45;0.449</text>
</g>
<!-- output
bias &#45;1.000
h_scaling 0.658 -->
<g id="node3" class="node">
<title>output
bias &#45;1.000
h_scaling 0.658</title>
<ellipse fill="lightblue" stroke="black" cx="232" cy="-410.2" rx="63.78" ry="63.78"/>
<text text-anchor="middle" x="232" y="-418" font-family="Times,serif" font-size="9.00">output</text>
<text text-anchor="middle" x="232" y="-408" font-family="Times,serif" font-size="9.00">bias &#45;1.000</text>
<text text-anchor="middle" x="232" y="-398" font-family="Times,serif" font-size="9.00">h_scaling 0.658</text>
</g>
<!-- output
bias &#45;1.000
h_scaling 0.658&#45;&gt;key 14717
bias &#45;0.460
h_scaling 0.690 -->
<g id="edge10" class="edge">
<title>output
bias &#45;1.000
h_scaling 0.658&#45;&gt;key 14717
bias &#45;0.460
h_scaling 0.690</title>
<path fill="none" stroke="blue" stroke-width="0.47" d="M202.13,-353.59C193.36,-337.27 183.7,-319.29 174.67,-302.46"/>
<polygon fill="blue" stroke="blue" stroke-width="0.47" points="177.54,-300.4 169.72,-293.25 171.37,-303.72 177.54,-300.4"/>
<text text-anchor="middle" x="201.5" y="-321.36" font-family="Times,serif" font-size="9.00">&#45;0.125</text>
</g>
<!-- key 22770
bias &#45;0.986
h_scaling 0.801&#45;&gt;output
bias &#45;1.000
h_scaling 0.658 -->
<g id="edge7" class="edge">
<title>key 22770
bias &#45;0.986
h_scaling 0.801&#45;&gt;output
bias &#45;1.000
h_scaling 0.658</title>
<path fill="none" stroke="red" stroke-width="3.08" d="M288.26,-525.92C280.59,-510.28 272.2,-493.17 264.3,-477.05"/>
<polygon fill="red" stroke="red" stroke-width="3.08" points="267.25,-475.13 259.71,-467.7 260.97,-478.22 267.25,-475.13"/>
<text text-anchor="middle" x="288" y="-494.64" font-family="Times,serif" font-size="9.00">0.993</text>
</g>
<!-- key 22770
bias &#45;0.986
h_scaling 0.801&#45;&gt;key 2489
bias &#45;0.978
h_scaling 0.684 -->
<g id="edge13" class="edge">
<title>key 22770
bias &#45;0.986
h_scaling 0.801&#45;&gt;key 2489
bias &#45;0.978
h_scaling 0.684</title>
<path fill="none" stroke="red" stroke-width="3.1" d="M352.84,-531C358.94,-521.52 364.92,-511.54 370,-501.84 408.02,-429.2 404.28,-399.47 391,-318.56 379.97,-251.32 375.66,-232.53 342,-173.28 330.67,-153.34 315.42,-133.65 300.54,-116.62"/>
<polygon fill="red" stroke="red" stroke-width="3.1" points="303.01,-114.13 293.74,-108.99 297.78,-118.79 303.01,-114.13"/>
<text text-anchor="middle" x="406" y="-321.36" font-family="Times,serif" font-size="9.00">1.000</text>
</g>
<!-- key 221589
bias &#45;0.599
h_scaling 0.033&#45;&gt;key 22770
bias &#45;0.986
h_scaling 0.801 -->
<g id="edge16" class="edge">
<title>key 221589
bias &#45;0.599
h_scaling 0.033&#45;&gt;key 22770
bias &#45;0.986
h_scaling 0.801</title>
<path fill="none" stroke="blue" stroke-width="0.54" d="M316,-692.95C316,-681.43 316,-669.32 316,-657.53"/>
<polygon fill="blue" stroke="blue" stroke-width="0.54" points="319.5,-657.28 316,-647.28 312.5,-657.28 319.5,-657.28"/>
<text text-anchor="middle" x="331.5" y="-667.92" font-family="Times,serif" font-size="9.00">&#45;0.146</text>
</g>
<!-- key 2489
bias &#45;0.978
h_scaling 0.684&#45;&gt;output
bias &#45;1.000
h_scaling 0.658 -->
<g id="edge1" class="edge">
<title>key 2489
bias &#45;0.978
h_scaling 0.684&#45;&gt;output
bias &#45;1.000
h_scaling 0.658</title>
<path fill="none" stroke="red" stroke-width="2.71" d="M257.19,-126.95C262.11,-174.64 266.17,-241.96 259,-300.56 257.46,-313.12 254.96,-326.31 252.09,-339.01"/>
<polygon fill="red" stroke="red" stroke-width="2.71" points="248.6,-338.53 249.71,-349.07 255.42,-340.14 248.6,-338.53"/>
<text text-anchor="middle" x="277" y="-234.72" font-family="Times,serif" font-size="9.00">0.871</text>
</g>
<!-- key 2489
bias &#45;0.978
h_scaling 0.684&#45;&gt;key 22770
bias &#45;0.986
h_scaling 0.801 -->
<g id="edge12" class="edge">
<title>key 2489
bias &#45;0.978
h_scaling 0.684&#45;&gt;key 22770
bias &#45;0.986
h_scaling 0.801</title>
<path fill="none" stroke="red" stroke-width="1.88" d="M278.98,-119.87C307.2,-175.3 347.4,-264.08 363,-346.56 373.52,-402.14 374.47,-418.44 363,-473.84 360,-488.31 354.98,-503.22 349.31,-517.19"/>
<polygon fill="red" stroke="red" stroke-width="1.88" points="345.97,-516.11 345.3,-526.68 352.41,-518.84 345.97,-516.11"/>
<text text-anchor="middle" x="373" y="-321.36" font-family="Times,serif" font-size="9.00">0.595</text>
</g>
<!-- key 14717
bias &#45;0.460
h_scaling 0.690&#45;&gt;key 22770
bias &#45;0.986
h_scaling 0.801 -->
<g id="edge6" class="edge">
<title>key 14717
bias &#45;0.460
h_scaling 0.690&#45;&gt;key 22770
bias &#45;0.986
h_scaling 0.801</title>
<path fill="none" stroke="red" stroke-width="3.1" d="M196.18,-267.59C238.9,-291.42 292.4,-324.43 305,-346.56 333.23,-396.15 334.02,-461.54 328.86,-510.9"/>
<polygon fill="red" stroke="red" stroke-width="3.1" points="325.38,-510.52 327.71,-520.86 332.33,-511.32 325.38,-510.52"/>
<text text-anchor="middle" x="345" y="-408" font-family="Times,serif" font-size="9.00">1.000</text>
</g>
<!-- key 14717
bias &#45;0.460
h_scaling 0.690&#45;&gt;key 2489
bias &#45;0.978
h_scaling 0.684 -->
<g id="edge4" class="edge">
<title>key 14717
bias &#45;0.460
h_scaling 0.690&#45;&gt;key 2489
bias &#45;0.978
h_scaling 0.684</title>
<path fill="none" stroke="red" stroke-width="2.28" d="M173.89,-182.66C185.17,-164.94 197.83,-145.05 209.49,-126.72"/>
<polygon fill="red" stroke="red" stroke-width="2.28" points="212.71,-128.18 215.13,-117.86 206.81,-124.42 212.71,-128.18"/>
<text text-anchor="middle" x="209" y="-148.08" font-family="Times,serif" font-size="9.00">0.726</text>
</g>
<!-- key 14717
bias &#45;0.460
h_scaling 0.690&#45;&gt;key 14717
bias &#45;0.460
h_scaling 0.690 -->
<g id="edge8" class="edge">
<title>key 14717
bias &#45;0.460
h_scaling 0.690&#45;&gt;key 14717
bias &#45;0.460
h_scaling 0.690</title>
<path fill="none" stroke="red" stroke-width="3.03" d="M201.94,-252.22C213.5,-250.33 221.64,-245.23 221.64,-236.92 221.64,-231.2 217.79,-227.01 211.63,-224.33"/>
<polygon fill="red" stroke="red" stroke-width="3.03" points="212.52,-220.94 201.94,-221.62 210.63,-227.68 212.52,-220.94"/>
<text text-anchor="middle" x="235.64" y="-234.72" font-family="Times,serif" font-size="9.00">0.977</text>
</g>
</g>
</svg>
