<?xml version="1.0" encoding="UTF-8" standalone="no"?>
<!DOCTYPE svg PUBLIC "-//W3C//DTD SVG 1.1//EN"
 "http://www.w3.org/Graphics/SVG/1.1/DTD/svg11.dtd">
<!-- Generated by graphviz version 2.43.0 (0)
 -->
<!-- Title: %3 Pages: 1 -->
<svg width="419pt" height="892pt"
 viewBox="0.00 0.00 419.00 892.40" xmlns="http://www.w3.org/2000/svg" xmlns:xlink="http://www.w3.org/1999/xlink">
<g id="graph0" class="graph" transform="scale(1 1) rotate(0) translate(4 888.4)">
<title>%3</title>
<polygon fill="white" stroke="transparent" points="-4,4 -4,-888.4 415,-888.4 415,4 -4,4"/>
<!-- ready -->
<g id="node1" class="node">
<title>ready</title>
<polygon fill="yellow" stroke="black" points="98.5,-765.76 55.5,-765.76 55.5,-747.76 98.5,-747.76 98.5,-765.76"/>
<text text-anchor="middle" x="77" y="-754.56" font-family="Times,serif" font-size="9.00">ready</text>
</g>
<!-- key 22770
bias &#45;0.986
h_scaling 0.801 -->
<g id="node4" class="node">
<title>key 22770
bias &#45;0.986
h_scaling 0.801</title>
<ellipse fill="white" stroke="black" cx="283" cy="-583.48" rx="63.78" ry="63.78"/>
<text text-anchor="middle" x="283" y="-591.28" font-family="Times,serif" font-size="9.00">key 22770</text>
<text text-anchor="middle" x="283" y="-581.28" font-family="Times,serif" font-size="9.00">bias &#45;0.986</text>
<text text-anchor="middle" x="283" y="-571.28" font-family="Times,serif" font-size="9.00">h_scaling 0.801</text>
</g>
<!-- ready&#45;&gt;key 22770
bias &#45;0.986
h_scaling 0.801 -->
<g id="edge14" class="edge">
<title>ready&#45;&gt;key 22770
bias &#45;0.986
h_scaling 0.801</title>
<path fill="none" stroke="red" stroke-width="2.39" d="M81.97,-747.7C92.65,-730.83 119.25,-691.24 149,-665.12 169.44,-647.17 194.41,-630.91 217.23,-617.78"/>
<polygon fill="red" stroke="red" stroke-width="2.39" points="219.2,-620.68 226.19,-612.72 215.76,-614.59 219.2,-620.68"/>
<text text-anchor="middle" x="163" y="-667.92" font-family="Times,serif" font-size="9.00">0.076</text>
</g>
<!-- key 2489
bias &#45;0.978
h_scaling 0.684 -->
<g id="node6" class="node">
<title>key 2489
bias &#45;0.978
h_scaling 0.684</title>
<ellipse fill="white" stroke="black" cx="249" cy="-63.64" rx="63.78" ry="63.78"/>
<text text-anchor="middle" x="249" y="-71.44" font-family="Times,serif" font-size="9.00">key 2489</text>
<text text-anchor="middle" x="249" y="-61.44" font-family="Times,serif" font-size="9.00">bias &#45;0.978</text>
<text text-anchor="middle" x="249" y="-51.44" font-family="Times,serif" font-size="9.00">h_scaling 0.684</text>
</g>
<!-- ready&#45;&gt;key 2489
bias &#45;0.978
h_scaling 0.684 -->
<g id="edge2" class="edge">
<title>ready&#45;&gt;key 2489
bias &#45;0.978
h_scaling 0.684</title>
<path fill="none" stroke="red" stroke-width="2.07" d="M74.46,-747.65C67.06,-723.25 46,-648.24 46,-584.48 46,-584.48 46,-584.48 46,-235.92 46,-164.14 121.06,-116.32 179.9,-89.86"/>
<polygon fill="red" stroke="red" stroke-width="2.07" points="181.43,-93.02 189.19,-85.8 178.63,-86.6 181.43,-93.02"/>
<text text-anchor="middle" x="60" y="-408" font-family="Times,serif" font-size="9.00">0.066</text>
</g>
<!-- key 14717
bias &#45;0.460
h_scaling 0.690 -->
<g id="node7" class="node">
<title>key 14717
bias &#45;0.460
h_scaling 0.690</title>
<ellipse fill="white" stroke="black" cx="140" cy="-236.92" rx="63.78" ry="63.78"/>
<text text-anchor="middle" x="140" y="-244.72" font-family="Times,serif" font-size="9.00">key 14717</text>
<text text-anchor="middle" x="140" y="-234.72" font-family="Times,serif" font-size="9.00">bias &#45;0.460</text>
<text text-anchor="middle" x="140" y="-224.72" font-family="Times,serif" font-size="9.00">h_scaling 0.690</text>
</g>
<!-- ready&#45;&gt;key 14717
bias &#45;0.460
h_scaling 0.690 -->
<g id="edge3" class="edge">
<title>ready&#45;&gt;key 14717
bias &#45;0.460
h_scaling 0.690</title>
<path fill="none" stroke="red" stroke-width="0.58" d="M77.65,-747.53C80.24,-715.03 90.28,-592.41 102,-491.84 111,-414.61 114.02,-395.38 126,-318.56 126.44,-315.73 126.9,-312.84 127.37,-309.93"/>
<polygon fill="red" stroke="red" stroke-width="0.58" points="130.84,-310.39 129.01,-299.96 123.93,-309.26 130.84,-310.39"/>
<text text-anchor="middle" x="116" y="-494.64" font-family="Times,serif" font-size="9.00">0.016</text>
</g>
<!-- go -->
<g id="node2" class="node">
<title>go</title>
<polygon fill="green" stroke="black" points="186,-884.4 158,-884.4 158,-866.4 186,-866.4 186,-884.4"/>
<text text-anchor="middle" x="172" y="-873.2" font-family="Times,serif" font-size="9.00">go</text>
</g>
<!-- go&#45;&gt;key 22770
bias &#45;0.986
h_scaling 0.801 -->
<g id="edge11" class="edge">
<title>go&#45;&gt;key 22770
bias &#45;0.986
h_scaling 0.801</title>
<path fill="none" stroke="blue" stroke-width="0.1" d="M172.6,-866.11C174.75,-839.81 183.38,-756.23 210,-693.12 217.34,-675.72 227.61,-658.16 238.13,-642.39"/>
<polygon fill="blue" stroke="blue" stroke-width="0.1" points="241.23,-644.06 243.98,-633.82 235.45,-640.11 241.23,-644.06"/>
</g>
<!-- key 221589
bias &#45;0.599
h_scaling 0.033 -->
<g id="node5" class="node">
<title>key 221589
bias &#45;0.599
h_scaling 0.033</title>
<ellipse fill="white" stroke="black" cx="283" cy="-756.76" rx="63.78" ry="63.78"/>
<text text-anchor="middle" x="283" y="-764.56" font-family="Times,serif" font-size="9.00">key 221589</text>
<text text-anchor="middle" x="283" y="-754.56" font-family="Times,serif" font-size="9.00">bias &#45;0.599</text>
<text text-anchor="middle" x="283" y="-744.56" font-family="Times,serif" font-size="9.00">h_scaling 0.033</text>
</g>
<!-- go&#45;&gt;key 221589
bias &#45;0.599
h_scaling 0.033 -->
<g id="edge15" class="edge">
<title>go&#45;&gt;key 221589
bias &#45;0.599
h_scaling 0.033</title>
<path fill="none" stroke="red" stroke-width="3.93" d="M183.44,-866.24C190.01,-861.35 198.26,-854.85 205,-848.4 215.72,-838.13 226.54,-826.53 236.56,-815.14"/>
<polygon fill="red" stroke="red" stroke-width="3.93" points="239.45,-817.15 243.36,-807.3 234.16,-812.56 239.45,-817.15"/>
<text text-anchor="middle" x="229" y="-841.2" font-family="Times,serif" font-size="9.00">0.128</text>
</g>
<!-- go&#45;&gt;key 2489
bias &#45;0.978
h_scaling 0.684 -->
<g id="edge9" class="edge">
<title>go&#45;&gt;key 2489
bias &#45;0.978
h_scaling 0.684</title>
<path fill="none" stroke="blue" stroke-width="0.1" d="M157.92,-871.91C116.85,-863.76 0,-833.88 0,-757.76 0,-757.76 0,-757.76 0,-235.92 0,-149.3 103.55,-103.17 177.1,-81.33"/>
<polygon fill="blue" stroke="blue" stroke-width="0.1" points="178.17,-84.66 186.81,-78.53 176.23,-77.93 178.17,-84.66"/>
</g>
<!-- go&#45;&gt;key 14717
bias &#45;0.460
h_scaling 0.690 -->
<g id="edge5" class="edge">
<title>go&#45;&gt;key 14717
bias &#45;0.460
h_scaling 0.690</title>
<path fill="none" stroke="blue" stroke-width="0.1" d="M171.6,-866.35C168.73,-809.31 151.36,-463.91 143.67,-310.85"/>
<polygon fill="blue" stroke="blue" stroke-width="0.1" points="147.15,-310.42 143.15,-300.6 140.16,-310.77 147.15,-310.42"/>
</g>
<!-- output
bias &#45;1.000
h_scaling 0.658 -->
<g id="node3" class="node">
<title>output
bias &#45;1.000
h_scaling 0.658</title>
<ellipse fill="lightblue" stroke="black" cx="232" cy="-410.2" rx="63.78" ry="63.78"/>
<text text-anchor="middle" x="232" y="-418" font-family="Times,serif" font-size="9.00">output</text>
<text text-anchor="middle" x="232" y="-408" font-family="Times,serif" font-size="9.00">bias &#45;1.000</text>
<text text-anchor="middle" x="232" y="-398" font-family="Times,serif" font-size="9.00">h_scaling 0.658</text>
</g>
<!-- output
bias &#45;1.000
h_scaling 0.658&#45;&gt;key 14717
bias &#45;0.460
h_scaling 0.690 -->
<g id="edge10" class="edge">
<title>output
bias &#45;1.000
h_scaling 0.658&#45;&gt;key 14717
bias &#45;0.460
h_scaling 0.690</title>
<path fill="none" stroke="blue" stroke-width="0.1" d="M202.13,-353.59C193.36,-337.27 183.7,-319.29 174.67,-302.46"/>
<polygon fill="blue" stroke="blue" stroke-width="0.1" points="177.54,-300.4 169.72,-293.25 171.37,-303.72 177.54,-300.4"/>
</g>
<!-- key 22770
bias &#45;0.986
h_scaling 0.801&#45;&gt;output
bias &#45;1.000
h_scaling 0.658 -->
<g id="edge7" class="edge">
<title>key 22770
bias &#45;0.986
h_scaling 0.801&#45;&gt;output
bias &#45;1.000
h_scaling 0.658</title>
<path fill="none" stroke="red" stroke-width="0.72" d="M265.02,-522.09C261.07,-508.84 256.86,-494.7 252.82,-481.11"/>
<polygon fill="red" stroke="red" stroke-width="0.72" points="256.11,-479.91 249.9,-471.33 249.4,-481.91 256.11,-479.91"/>
<text text-anchor="middle" x="272" y="-494.64" font-family="Times,serif" font-size="9.00">0.021</text>
</g>
<!-- key 22770
bias &#45;0.986
h_scaling 0.801&#45;&gt;key 2489
bias &#45;0.978
h_scaling 0.684 -->
<g id="edge13" class="edge">
<title>key 22770
bias &#45;0.986
h_scaling 0.801&#45;&gt;key 2489
bias &#45;0.978
h_scaling 0.684</title>
<path fill="none" stroke="red" stroke-width="1.93" d="M328.24,-538.36C338.69,-526.99 349.28,-514.41 358,-501.84 404.82,-434.33 394.55,-399.75 382,-318.56 371.66,-251.63 367.93,-233.01 336,-173.28 325.82,-154.23 312.14,-135.25 298.65,-118.59"/>
<polygon fill="red" stroke="red" stroke-width="1.93" points="301.13,-116.1 292.06,-110.62 295.73,-120.56 301.13,-116.1"/>
<text text-anchor="middle" x="397" y="-321.36" font-family="Times,serif" font-size="9.00">0.061</text>
</g>
<!-- key 221589
bias &#45;0.599
h_scaling 0.033&#45;&gt;key 22770
bias &#45;0.986
h_scaling 0.801 -->
<g id="edge16" class="edge">
<title>key 221589
bias &#45;0.599
h_scaling 0.033&#45;&gt;key 22770
bias &#45;0.986
h_scaling 0.801</title>
<path fill="none" stroke="blue" stroke-width="0.1" d="M283,-692.95C283,-681.43 283,-669.32 283,-657.53"/>
<polygon fill="blue" stroke="blue" stroke-width="0.1" points="286.5,-657.28 283,-647.28 279.5,-657.28 286.5,-657.28"/>
</g>
<!-- key 2489
bias &#45;0.978
h_scaling 0.684&#45;&gt;output
bias &#45;1.000
h_scaling 0.658 -->
<g id="edge1" class="edge">
<title>key 2489
bias &#45;0.978
h_scaling 0.684&#45;&gt;output
bias &#45;1.000
h_scaling 0.658</title>
<path fill="none" stroke="red" stroke-width="0.71" d="M257.19,-126.95C262.11,-174.64 266.17,-241.96 259,-300.56 257.46,-313.12 254.96,-326.31 252.09,-339.01"/>
<polygon fill="red" stroke="red" stroke-width="0.71" points="248.6,-338.53 249.71,-349.07 255.42,-340.14 248.6,-338.53"/>
<text text-anchor="middle" x="277" y="-234.72" font-family="Times,serif" font-size="9.00">0.020</text>
</g>
<!-- key 2489
bias &#45;0.978
h_scaling 0.684&#45;&gt;key 22770
bias &#45;0.986
h_scaling 0.801 -->
<g id="edge12" class="edge">
<title>key 2489
bias &#45;0.978
h_scaling 0.684&#45;&gt;key 22770
bias &#45;0.986
h_scaling 0.801</title>
<path fill="none" stroke="red" stroke-width="1.93" d="M277.33,-120.89C303.57,-176.56 340.5,-265.02 354,-346.56 363.24,-402.37 370.14,-419.62 354,-473.84 348.66,-491.78 339.3,-509.53 329.1,-525.31"/>
<polygon fill="red" stroke="red" stroke-width="1.93" points="326.02,-523.61 323.36,-533.87 331.84,-527.51 326.02,-523.61"/>
<text text-anchor="middle" x="364" y="-321.36" font-family="Times,serif" font-size="9.00">0.061</text>
</g>
<!-- key 14717
bias &#45;0.460
h_scaling 0.690&#45;&gt;key 22770
bias &#45;0.986
h_scaling 0.801 -->
<g id="edge6" class="edge">
<title>key 14717
bias &#45;0.460
h_scaling 0.690&#45;&gt;key 22770
bias &#45;0.986
h_scaling 0.801</title>
<path fill="none" stroke="red" stroke-width="0.47" d="M196.03,-267.2C238.97,-290.95 292.88,-324.06 305,-346.56 332.62,-397.82 322.97,-464.53 308.82,-513.93"/>
<polygon fill="red" stroke="red" stroke-width="0.47" points="305.45,-512.98 305.94,-523.57 312.16,-514.99 305.45,-512.98"/>
<text text-anchor="middle" x="336" y="-408" font-family="Times,serif" font-size="9.00">0.012</text>
</g>
<!-- key 14717
bias &#45;0.460
h_scaling 0.690&#45;&gt;key 2489
bias &#45;0.978
h_scaling 0.684 -->
<g id="edge4" class="edge">
<title>key 14717
bias &#45;0.460
h_scaling 0.690&#45;&gt;key 2489
bias &#45;0.978
h_scaling 0.684</title>
<path fill="none" stroke="red" stroke-width="0.45" d="M173.89,-182.66C185.17,-164.94 197.83,-145.05 209.49,-126.72"/>
<polygon fill="red" stroke="red" stroke-width="0.45" points="212.71,-128.18 215.13,-117.86 206.81,-124.42 212.71,-128.18"/>
<text text-anchor="middle" x="209" y="-148.08" font-family="Times,serif" font-size="9.00">0.012</text>
</g>
<!-- key 14717
bias &#45;0.460
h_scaling 0.690&#45;&gt;key 14717
bias &#45;0.460
h_scaling 0.690 -->
<g id="edge8" class="edge">
<title>key 14717
bias &#45;0.460
h_scaling 0.690&#45;&gt;key 14717
bias &#45;0.460
h_scaling 0.690</title>
<path fill="none" stroke="red" stroke-width="1.64" d="M201.94,-252.22C213.5,-250.33 221.64,-245.23 221.64,-236.92 221.64,-231.2 217.79,-227.01 211.63,-224.33"/>
<polygon fill="red" stroke="red" stroke-width="1.64" points="212.52,-220.94 201.94,-221.62 210.63,-227.68 212.52,-220.94"/>
<text text-anchor="middle" x="235.64" y="-234.72" font-family="Times,serif" font-size="9.00">0.051</text>
</g>
</g>
</svg>
