<?xml version="1.0" encoding="UTF-8" standalone="no"?>
<!DOCTYPE svg PUBLIC "-//W3C//DTD SVG 1.1//EN"
 "http://www.w3.org/Graphics/SVG/1.1/DTD/svg11.dtd">
<!-- Generated by graphviz version 8.0.5 (20230430.1635)
 -->
<!-- Pages: 1 -->
<svg width="453pt" height="780pt"
 viewBox="0.00 0.00 452.88 780.33" xmlns="http://www.w3.org/2000/svg" xmlns:xlink="http://www.w3.org/1999/xlink">
<g id="graph0" class="graph" transform="scale(1 1) rotate(0) translate(4 776.33)">
<polygon fill="white" stroke="none" points="-4,4 -4,-776.33 448.88,-776.33 448.88,4 -4,4"/>
<!-- ready
output 0.000 -->
<g id="node1" class="node">
<title>ready
output 0.000</title>
<polygon fill="yellow" stroke="black" points="63.25,-772.33 0,-772.33 0,-741.83 63.25,-741.83 63.25,-772.33"/>
<text text-anchor="middle" x="31.62" y="-759.78" font-family="Times New Roman,serif" font-size="9.00">ready</text>
<text text-anchor="middle" x="31.62" y="-748.53" font-family="Times New Roman,serif" font-size="9.00">output 0.000</text>
</g>
<!-- key 28276
bias &#45;0.617
h_scaling 0.273
output 0.088 -->
<g id="node5" class="node">
<title>key 28276
bias &#45;0.617
h_scaling 0.273
output 0.088</title>
<ellipse fill="white" stroke="black" cx="302.62" cy="-644.02" rx="50.56" ry="50.56"/>
<text text-anchor="middle" x="302.62" y="-657.97" font-family="Times New Roman,serif" font-size="9.00">key 28276</text>
<text text-anchor="middle" x="302.62" y="-646.72" font-family="Times New Roman,serif" font-size="9.00">bias &#45;0.617</text>
<text text-anchor="middle" x="302.62" y="-635.47" font-family="Times New Roman,serif" font-size="9.00">h_scaling 0.273</text>
<text text-anchor="middle" x="302.62" y="-624.22" font-family="Times New Roman,serif" font-size="9.00">output 0.088</text>
</g>
<!-- ready
output 0.000&#45;&gt;key 28276
bias &#45;0.617
h_scaling 0.273
output 0.088 -->
<g id="edge5" class="edge">
<title>ready
output 0.000&#45;&gt;key 28276
bias &#45;0.617
h_scaling 0.273
output 0.088</title>
<path fill="none" stroke="red" stroke-width="0.1" d="M63.51,-743.01C108.57,-724.55 191.56,-690.54 246.93,-667.85"/>
<polygon fill="red" stroke="red" stroke-width="0.1" points="247.98,-671.2 255.91,-664.17 245.33,-664.72 247.98,-671.2"/>
<text text-anchor="middle" x="145.75" y="-715.28" font-family="Times New Roman,serif" font-size="9.00">0.787</text>
</g>
<!-- key 6357
bias &#45;0.210
h_scaling 0.422
output 0.963 -->
<g id="node6" class="node">
<title>key 6357
bias &#45;0.210
h_scaling 0.422
output 0.963</title>
<ellipse fill="white" stroke="black" cx="128.62" cy="-347.29" rx="50.56" ry="50.56"/>
<text text-anchor="middle" x="128.62" y="-361.24" font-family="Times New Roman,serif" font-size="9.00">key 6357</text>
<text text-anchor="middle" x="128.62" y="-349.99" font-family="Times New Roman,serif" font-size="9.00">bias &#45;0.210</text>
<text text-anchor="middle" x="128.62" y="-338.74" font-family="Times New Roman,serif" font-size="9.00">h_scaling 0.422</text>
<text text-anchor="middle" x="128.62" y="-327.49" font-family="Times New Roman,serif" font-size="9.00">output 0.963</text>
</g>
<!-- ready
output 0.000&#45;&gt;key 6357
bias &#45;0.210
h_scaling 0.422
output 0.963 -->
<g id="edge15" class="edge">
<title>ready
output 0.000&#45;&gt;key 6357
bias &#45;0.210
h_scaling 0.422
output 0.963</title>
<path fill="none" stroke="red" stroke-width="0.1" d="M30.93,-741.46C29.19,-696.32 26.85,-555.51 58.62,-445.1 64.2,-425.74 75.61,-407.14 87.64,-391.51"/>
<polygon fill="red" stroke="red" stroke-width="0.1" points="90.06,-394.08 93.57,-384.08 84.59,-389.71 90.06,-394.08"/>
<text text-anchor="middle" x="46.75" y="-566.92" font-family="Times New Roman,serif" font-size="9.00">0.576</text>
</g>
<!-- go
output 0.000 -->
<g id="node2" class="node">
<title>go
output 0.000</title>
<polygon fill="green" stroke="black" points="146.25,-659.27 83,-659.27 83,-628.77 146.25,-628.77 146.25,-659.27"/>
<text text-anchor="middle" x="114.62" y="-646.72" font-family="Times New Roman,serif" font-size="9.00">go</text>
<text text-anchor="middle" x="114.62" y="-635.47" font-family="Times New Roman,serif" font-size="9.00">output 0.000</text>
</g>
<!-- go
output 0.000&#45;&gt;key 6357
bias &#45;0.210
h_scaling 0.422
output 0.963 -->
<g id="edge2" class="edge">
<title>go
output 0.000&#45;&gt;key 6357
bias &#45;0.210
h_scaling 0.422
output 0.963</title>
<path fill="none" stroke="blue" stroke-width="0.1" d="M105.45,-628.3C94.58,-609.91 77.1,-577.09 70.38,-546.22 60.81,-502.3 58.35,-488.4 70.38,-445.1 75.11,-428.04 83.75,-410.97 92.95,-396.02"/>
<polygon fill="blue" stroke="blue" stroke-width="0.1" points="95.68,-398.26 98.1,-387.95 89.78,-394.5 95.68,-398.26"/>
<text text-anchor="middle" x="82.25" y="-492.73" font-family="Times New Roman,serif" font-size="9.00">&#45;0.781</text>
</g>
<!-- key 27319
bias &#45;0.274
h_scaling 0.939
output 0.120 -->
<g id="node7" class="node">
<title>key 27319
bias &#45;0.274
h_scaling 0.939
output 0.120</title>
<ellipse fill="white" stroke="black" cx="153.62" cy="-495.66" rx="50.56" ry="50.56"/>
<text text-anchor="middle" x="153.62" y="-509.61" font-family="Times New Roman,serif" font-size="9.00">key 27319</text>
<text text-anchor="middle" x="153.62" y="-498.36" font-family="Times New Roman,serif" font-size="9.00">bias &#45;0.274</text>
<text text-anchor="middle" x="153.62" y="-487.11" font-family="Times New Roman,serif" font-size="9.00">h_scaling 0.939</text>
<text text-anchor="middle" x="153.62" y="-475.86" font-family="Times New Roman,serif" font-size="9.00">output 0.120</text>
</g>
<!-- go
output 0.000&#45;&gt;key 27319
bias &#45;0.274
h_scaling 0.939
output 0.120 -->
<g id="edge3" class="edge">
<title>go
output 0.000&#45;&gt;key 27319
bias &#45;0.274
h_scaling 0.939
output 0.120</title>
<path fill="none" stroke="red" stroke-width="0.1" d="M118.51,-628.45C123.11,-611.18 131.06,-581.35 138.23,-554.42"/>
<polygon fill="red" stroke="red" stroke-width="0.1" points="141.54,-555.61 140.73,-545.05 134.77,-553.81 141.54,-555.61"/>
<text text-anchor="middle" x="145.75" y="-566.92" font-family="Times New Roman,serif" font-size="9.00">1.000</text>
</g>
<!-- output
bias &#45;0.483
h_scaling 0.000
output 0.867 -->
<g id="node3" class="node">
<title>output
bias &#45;0.483
h_scaling 0.000
output 0.867</title>
<ellipse fill="lightblue" stroke="black" cx="271.62" cy="-198.92" rx="50.56" ry="50.56"/>
<text text-anchor="middle" x="271.62" y="-212.87" font-family="Times New Roman,serif" font-size="9.00">output</text>
<text text-anchor="middle" x="271.62" y="-201.62" font-family="Times New Roman,serif" font-size="9.00">bias &#45;0.483</text>
<text text-anchor="middle" x="271.62" y="-190.37" font-family="Times New Roman,serif" font-size="9.00">h_scaling 0.000</text>
<text text-anchor="middle" x="271.62" y="-179.12" font-family="Times New Roman,serif" font-size="9.00">output 0.867</text>
</g>
<!-- key 65476
bias &#45;0.268
h_scaling 0.020
output 0.334 -->
<g id="node4" class="node">
<title>key 65476
bias &#45;0.268
h_scaling 0.020
output 0.334</title>
<ellipse fill="white" stroke="black" cx="368.62" cy="-50.56" rx="50.56" ry="50.56"/>
<text text-anchor="middle" x="368.62" y="-64.51" font-family="Times New Roman,serif" font-size="9.00">key 65476</text>
<text text-anchor="middle" x="368.62" y="-53.26" font-family="Times New Roman,serif" font-size="9.00">bias &#45;0.268</text>
<text text-anchor="middle" x="368.62" y="-42.01" font-family="Times New Roman,serif" font-size="9.00">h_scaling 0.020</text>
<text text-anchor="middle" x="368.62" y="-30.76" font-family="Times New Roman,serif" font-size="9.00">output 0.334</text>
</g>
<!-- output
bias &#45;0.483
h_scaling 0.000
output 0.867&#45;&gt;key 65476
bias &#45;0.268
h_scaling 0.020
output 0.334 -->
<g id="edge12" class="edge">
<title>output
bias &#45;0.483
h_scaling 0.000
output 0.867&#45;&gt;key 65476
bias &#45;0.268
h_scaling 0.020
output 0.334</title>
<path fill="none" stroke="blue" stroke-width="0.1" d="M299.16,-156.37C310.53,-139.22 323.8,-119.2 335.67,-101.28"/>
<polygon fill="blue" stroke="blue" stroke-width="0.1" points="338.41,-103.48 341.02,-93.21 332.58,-99.62 338.41,-103.48"/>
<text text-anchor="middle" x="335.25" y="-121.82" font-family="Times New Roman,serif" font-size="9.00">&#45;0.192</text>
</g>
<!-- key 65476
bias &#45;0.268
h_scaling 0.020
output 0.334&#45;&gt;key 28276
bias &#45;0.617
h_scaling 0.273
output 0.088 -->
<g id="edge11" class="edge">
<title>key 65476
bias &#45;0.268
h_scaling 0.020
output 0.334&#45;&gt;key 28276
bias &#45;0.617
h_scaling 0.273
output 0.088</title>
<path fill="none" stroke="red" stroke-width="0.1" d="M394.49,-94.44C409.17,-122.79 424.62,-161.33 424.62,-197.92 424.62,-496.66 424.62,-496.66 424.62,-496.66 424.62,-543.82 386.79,-583.85 353.25,-610.06"/>
<polygon fill="red" stroke="red" stroke-width="0.1" points="351.15,-607.26 345.29,-616.09 355.38,-612.84 351.15,-607.26"/>
<text text-anchor="middle" x="434.75" y="-344.37" font-family="Times New Roman,serif" font-size="9.00">0.685</text>
</g>
<!-- key 28276
bias &#45;0.617
h_scaling 0.273
output 0.088&#45;&gt;output
bias &#45;0.483
h_scaling 0.000
output 0.867 -->
<g id="edge14" class="edge">
<title>key 28276
bias &#45;0.617
h_scaling 0.273
output 0.088&#45;&gt;output
bias &#45;0.483
h_scaling 0.000
output 0.867</title>
<path fill="none" stroke="red" stroke-width="0.1" d="M308.75,-593.35C310.35,-578.24 311.84,-561.57 312.62,-546.22 314.92,-501.33 316.34,-489.89 312.62,-445.1 307.27,-380.59 294.11,-307.5 284.14,-258.04"/>
<polygon fill="red" stroke="red" stroke-width="0.1" points="287.61,-257.57 282.19,-248.47 280.75,-258.97 287.61,-257.57"/>
<text text-anchor="middle" x="321.75" y="-418.55" font-family="Times New Roman,serif" font-size="9.00">0.206</text>
</g>
<!-- key 28276
bias &#45;0.617
h_scaling 0.273
output 0.088&#45;&gt;key 65476
bias &#45;0.268
h_scaling 0.020
output 0.334 -->
<g id="edge10" class="edge">
<title>key 28276
bias &#45;0.617
h_scaling 0.273
output 0.088&#45;&gt;key 65476
bias &#45;0.268
h_scaling 0.020
output 0.334</title>
<path fill="none" stroke="red" stroke-width="0.1" d="M331.96,-602.61C349.58,-574.36 368.62,-534.98 368.62,-496.66 368.62,-496.66 368.62,-496.66 368.62,-197.92 368.62,-169.42 368.62,-137.8 368.62,-111.26"/>
<polygon fill="red" stroke="red" stroke-width="0.1" points="372.13,-111.35 368.62,-101.35 365.13,-111.35 372.13,-111.35"/>
<text text-anchor="middle" x="378.75" y="-344.37" font-family="Times New Roman,serif" font-size="9.00">0.904</text>
</g>
<!-- key 28276
bias &#45;0.617
h_scaling 0.273
output 0.088&#45;&gt;key 6357
bias &#45;0.210
h_scaling 0.422
output 0.963 -->
<g id="edge6" class="edge">
<title>key 28276
bias &#45;0.617
h_scaling 0.273
output 0.088&#45;&gt;key 6357
bias &#45;0.210
h_scaling 0.422
output 0.963</title>
<path fill="none" stroke="red" stroke-width="0.1" d="M298.75,-593.51C293.47,-551.17 281,-490.12 251.62,-445.1 233.81,-417.8 205.69,-394.83 180.83,-378.13"/>
<polygon fill="red" stroke="red" stroke-width="0.1" points="182.83,-375.25 172.55,-372.71 179,-381.11 182.83,-375.25"/>
<text text-anchor="middle" x="300.75" y="-492.73" font-family="Times New Roman,serif" font-size="9.00">0.496</text>
</g>
<!-- key 28276
bias &#45;0.617
h_scaling 0.273
output 0.088&#45;&gt;key 27319
bias &#45;0.274
h_scaling 0.939
output 0.120 -->
<g id="edge8" class="edge">
<title>key 28276
bias &#45;0.617
h_scaling 0.273
output 0.088&#45;&gt;key 27319
bias &#45;0.274
h_scaling 0.939
output 0.120</title>
<path fill="none" stroke="blue" stroke-width="0.1" d="M266.94,-607.96C245.8,-587.21 218.89,-560.77 196.6,-538.87"/>
<polygon fill="blue" stroke="blue" stroke-width="0.1" points="199.13,-536.45 189.54,-531.94 194.22,-541.44 199.13,-536.45"/>
<text text-anchor="middle" x="244.25" y="-566.92" font-family="Times New Roman,serif" font-size="9.00">&#45;0.769</text>
</g>
<!-- key 6357
bias &#45;0.210
h_scaling 0.422
output 0.963&#45;&gt;output
bias &#45;0.483
h_scaling 0.000
output 0.867 -->
<g id="edge1" class="edge">
<title>key 6357
bias &#45;0.210
h_scaling 0.422
output 0.963&#45;&gt;output
bias &#45;0.483
h_scaling 0.000
output 0.867</title>
<path fill="none" stroke="red" stroke-width="0.1" d="M163.61,-310.49C183.52,-290.11 208.59,-264.44 229.57,-242.97"/>
<polygon fill="red" stroke="red" stroke-width="0.1" points="232.02,-245.47 236.51,-235.87 227.02,-240.57 232.02,-245.47"/>
<text text-anchor="middle" x="214.75" y="-270.18" font-family="Times New Roman,serif" font-size="9.00">1.000</text>
</g>
<!-- key 6357
bias &#45;0.210
h_scaling 0.422
output 0.963&#45;&gt;key 6357
bias &#45;0.210
h_scaling 0.422
output 0.963 -->
<g id="edge9" class="edge">
<title>key 6357
bias &#45;0.210
h_scaling 0.422
output 0.963&#45;&gt;key 6357
bias &#45;0.210
h_scaling 0.422
output 0.963</title>
<path fill="none" stroke="red" stroke-width="0.1" d="M177.62,-360.89C188.9,-359.72 197.18,-355.19 197.18,-347.29 197.18,-341.86 193.27,-338.02 187.15,-335.77"/>
<polygon fill="red" stroke="red" stroke-width="0.1" points="188.13,-332.4 177.62,-333.69 186.64,-339.24 188.13,-332.4"/>
<text text-anchor="middle" x="207.31" y="-344.37" font-family="Times New Roman,serif" font-size="9.00">0.913</text>
</g>
<!-- key 27319
bias &#45;0.274
h_scaling 0.939
output 0.120&#45;&gt;output
bias &#45;0.483
h_scaling 0.000
output 0.867 -->
<g id="edge13" class="edge">
<title>key 27319
bias &#45;0.274
h_scaling 0.939
output 0.120&#45;&gt;output
bias &#45;0.483
h_scaling 0.000
output 0.867</title>
<path fill="none" stroke="blue" stroke-width="0.1" d="M187.51,-457.52C201.48,-440.43 216.69,-419.23 226.62,-397.85 247.13,-353.71 258.61,-299.59 264.83,-259.1"/>
<polygon fill="blue" stroke="blue" stroke-width="0.1" points="268.27,-259.78 266.26,-249.38 261.34,-258.76 268.27,-259.78"/>
<text text-anchor="middle" x="270.25" y="-344.37" font-family="Times New Roman,serif" font-size="9.00">&#45;0.948</text>
</g>
<!-- key 27319
bias &#45;0.274
h_scaling 0.939
output 0.120&#45;&gt;key 6357
bias &#45;0.210
h_scaling 0.422
output 0.963 -->
<g id="edge4" class="edge">
<title>key 27319
bias &#45;0.274
h_scaling 0.939
output 0.120&#45;&gt;key 6357
bias &#45;0.210
h_scaling 0.422
output 0.963</title>
<path fill="none" stroke="blue" stroke-width="0.1" d="M145.23,-445.51C143.13,-433.2 140.85,-419.87 138.68,-407.14"/>
<polygon fill="blue" stroke="blue" stroke-width="0.1" points="142.17,-406.82 137.04,-397.56 135.27,-408 142.17,-406.82"/>
<text text-anchor="middle" x="154.25" y="-418.55" font-family="Times New Roman,serif" font-size="9.00">&#45;1.000</text>
</g>
<!-- key 27319
bias &#45;0.274
h_scaling 0.939
output 0.120&#45;&gt;key 27319
bias &#45;0.274
h_scaling 0.939
output 0.120 -->
<g id="edge7" class="edge">
<title>key 27319
bias &#45;0.274
h_scaling 0.939
output 0.120&#45;&gt;key 27319
bias &#45;0.274
h_scaling 0.939
output 0.120</title>
<path fill="none" stroke="red" stroke-width="0.1" d="M202.62,-509.26C213.9,-508.09 222.18,-503.55 222.18,-495.66 222.18,-490.23 218.27,-486.39 212.15,-484.14"/>
<polygon fill="red" stroke="red" stroke-width="0.1" points="213.13,-480.77 202.62,-482.05 211.64,-487.61 213.13,-480.77"/>
<text text-anchor="middle" x="232.31" y="-492.73" font-family="Times New Roman,serif" font-size="9.00">0.752</text>
</g>
</g>
</svg>
