<?xml version="1.0" encoding="UTF-8" standalone="no"?>
<!DOCTYPE svg PUBLIC "-//W3C//DTD SVG 1.1//EN"
 "http://www.w3.org/Graphics/SVG/1.1/DTD/svg11.dtd">
<!-- Generated by graphviz version 2.43.0 (0)
 -->
<!-- Title: %3 Pages: 1 -->
<svg width="470pt" height="710pt"
 viewBox="0.00 0.00 470.00 710.12" xmlns="http://www.w3.org/2000/svg" xmlns:xlink="http://www.w3.org/1999/xlink">
<g id="graph0" class="graph" transform="scale(1 1) rotate(0) translate(4 706.12)">
<title>%3</title>
<polygon fill="white" stroke="transparent" points="-4,4 -4,-706.12 466,-706.12 466,4 -4,4"/>
<!-- ready -->
<g id="node1" class="node">
<title>ready</title>
<polygon fill="yellow" stroke="black" points="123.5,-702.12 80.5,-702.12 80.5,-684.12 123.5,-684.12 123.5,-702.12"/>
<text text-anchor="middle" x="102" y="-690.92" font-family="Times,serif" font-size="9.00">ready</text>
</g>
<!-- key 19081
bias &#45;0.447
h_scaling 1.000 -->
<g id="node4" class="node">
<title>key 19081
bias &#45;0.447
h_scaling 1.000</title>
<ellipse fill="white" stroke="black" cx="102" cy="-574.48" rx="63.78" ry="63.78"/>
<text text-anchor="middle" x="102" y="-582.28" font-family="Times,serif" font-size="9.00">key 19081</text>
<text text-anchor="middle" x="102" y="-572.28" font-family="Times,serif" font-size="9.00">bias &#45;0.447</text>
<text text-anchor="middle" x="102" y="-562.28" font-family="Times,serif" font-size="9.00">h_scaling 1.000</text>
</g>
<!-- ready&#45;&gt;key 19081
bias &#45;0.447
h_scaling 1.000 -->
<g id="edge6" class="edge">
<title>ready&#45;&gt;key 19081
bias &#45;0.447
h_scaling 1.000</title>
<path fill="none" stroke="red" stroke-width="0.87" d="M102,-684.1C102,-676.07 102,-662.85 102,-648.35"/>
<polygon fill="red" stroke="red" stroke-width="0.87" points="105.5,-648.15 102,-638.15 98.5,-648.15 105.5,-648.15"/>
<text text-anchor="middle" x="116" y="-658.92" font-family="Times,serif" font-size="9.00">0.026</text>
</g>
<!-- key 18296
bias &#45;0.656
h_scaling 1.000 -->
<g id="node5" class="node">
<title>key 18296
bias &#45;0.656
h_scaling 1.000</title>
<ellipse fill="white" stroke="black" cx="249" cy="-63.64" rx="63.78" ry="63.78"/>
<text text-anchor="middle" x="249" y="-71.44" font-family="Times,serif" font-size="9.00">key 18296</text>
<text text-anchor="middle" x="249" y="-61.44" font-family="Times,serif" font-size="9.00">bias &#45;0.656</text>
<text text-anchor="middle" x="249" y="-51.44" font-family="Times,serif" font-size="9.00">h_scaling 1.000</text>
</g>
<!-- ready&#45;&gt;key 18296
bias &#45;0.656
h_scaling 1.000 -->
<g id="edge13" class="edge">
<title>ready&#45;&gt;key 18296
bias &#45;0.656
h_scaling 1.000</title>
<path fill="none" stroke="red" stroke-width="0.5" d="M86.95,-684.09C58.58,-667.74 0,-627.66 0,-575.48 0,-575.48 0,-575.48 0,-226.92 0,-141.86 103.25,-99.05 176.78,-79.36"/>
<polygon fill="red" stroke="red" stroke-width="0.5" points="177.69,-82.74 186.49,-76.84 175.93,-75.96 177.69,-82.74"/>
<text text-anchor="middle" x="14" y="-399" font-family="Times,serif" font-size="9.00">0.013</text>
</g>
<!-- key 1562
bias 0.569
h_scaling 1.000 -->
<g id="node6" class="node">
<title>key 1562
bias 0.569
h_scaling 1.000</title>
<ellipse fill="white" stroke="black" cx="249" cy="-227.92" rx="63.78" ry="63.78"/>
<text text-anchor="middle" x="249" y="-235.72" font-family="Times,serif" font-size="9.00">key 1562</text>
<text text-anchor="middle" x="249" y="-225.72" font-family="Times,serif" font-size="9.00">bias 0.569</text>
<text text-anchor="middle" x="249" y="-215.72" font-family="Times,serif" font-size="9.00">h_scaling 1.000</text>
</g>
<!-- ready&#45;&gt;key 1562
bias 0.569
h_scaling 1.000 -->
<g id="edge12" class="edge">
<title>ready&#45;&gt;key 1562
bias 0.569
h_scaling 1.000</title>
<path fill="none" stroke="blue" stroke-width="0.1" d="M123.88,-689.03C151.61,-683.84 198.5,-670.55 221,-638.12 257.53,-585.46 256.53,-404.54 252.72,-301.77"/>
<polygon fill="blue" stroke="blue" stroke-width="0.1" points="256.22,-301.62 252.33,-291.77 249.22,-301.9 256.22,-301.62"/>
</g>
<!-- go -->
<g id="node2" class="node">
<title>go</title>
<polygon fill="green" stroke="black" points="326,-702.12 298,-702.12 298,-684.12 326,-684.12 326,-702.12"/>
<text text-anchor="middle" x="312" y="-690.92" font-family="Times,serif" font-size="9.00">go</text>
</g>
<!-- go&#45;&gt;key 19081
bias &#45;0.447
h_scaling 1.000 -->
<g id="edge10" class="edge">
<title>go&#45;&gt;key 19081
bias &#45;0.447
h_scaling 1.000</title>
<path fill="none" stroke="blue" stroke-width="0.1" d="M297.69,-684.43C288.13,-679.28 275.29,-672.33 264,-666.12 231.63,-648.3 195.77,-628.26 166.03,-611.57"/>
<polygon fill="blue" stroke="blue" stroke-width="0.1" points="167.44,-608.35 157.01,-606.5 164.01,-614.45 167.44,-608.35"/>
</g>
<!-- go&#45;&gt;key 18296
bias &#45;0.656
h_scaling 1.000 -->
<g id="edge4" class="edge">
<title>go&#45;&gt;key 18296
bias &#45;0.656
h_scaling 1.000</title>
<path fill="none" stroke="blue" stroke-width="0.1" d="M326.11,-688.51C363.45,-678.04 462,-643.93 462,-575.48 462,-575.48 462,-575.48 462,-226.92 462,-153.74 381.46,-109.19 319.43,-85.74"/>
<polygon fill="blue" stroke="blue" stroke-width="0.1" points="320.63,-82.45 310.04,-82.3 318.22,-89.03 320.63,-82.45"/>
</g>
<!-- go&#45;&gt;key 1562
bias 0.569
h_scaling 1.000 -->
<g id="edge1" class="edge">
<title>go&#45;&gt;key 1562
bias 0.569
h_scaling 1.000</title>
<path fill="none" stroke="red" stroke-width="0.6" d="M310.91,-684.08C304.81,-639.25 274.72,-418.03 258.85,-301.32"/>
<polygon fill="red" stroke="red" stroke-width="0.6" points="262.31,-300.82 257.5,-291.39 255.38,-301.77 262.31,-300.82"/>
<text text-anchor="middle" x="298" y="-485.64" font-family="Times,serif" font-size="9.00">0.017</text>
</g>
<!-- key 148477
bias &#45;0.867
h_scaling 1.000 -->
<g id="node7" class="node">
<title>key 148477
bias &#45;0.867
h_scaling 1.000</title>
<ellipse fill="white" stroke="black" cx="370" cy="-401.2" rx="63.78" ry="63.78"/>
<text text-anchor="middle" x="370" y="-409" font-family="Times,serif" font-size="9.00">key 148477</text>
<text text-anchor="middle" x="370" y="-399" font-family="Times,serif" font-size="9.00">bias &#45;0.867</text>
<text text-anchor="middle" x="370" y="-389" font-family="Times,serif" font-size="9.00">h_scaling 1.000</text>
</g>
<!-- go&#45;&gt;key 148477
bias &#45;0.867
h_scaling 1.000 -->
<g id="edge14" class="edge">
<title>go&#45;&gt;key 148477
bias &#45;0.867
h_scaling 1.000</title>
<path fill="none" stroke="red" stroke-width="2.55" d="M313.61,-684.06C319.61,-654.1 341.01,-547.09 355.66,-473.89"/>
<polygon fill="red" stroke="red" stroke-width="2.55" points="359.15,-474.29 357.68,-463.8 352.28,-472.92 359.15,-474.29"/>
<text text-anchor="middle" x="361" y="-572.28" font-family="Times,serif" font-size="9.00">0.082</text>
</g>
<!-- output
bias &#45;0.653
h_scaling 1.000 -->
<g id="node3" class="node">
<title>output
bias &#45;0.653
h_scaling 1.000</title>
<ellipse fill="lightblue" stroke="black" cx="148" cy="-401.2" rx="63.78" ry="63.78"/>
<text text-anchor="middle" x="148" y="-409" font-family="Times,serif" font-size="9.00">output</text>
<text text-anchor="middle" x="148" y="-399" font-family="Times,serif" font-size="9.00">bias &#45;0.653</text>
<text text-anchor="middle" x="148" y="-389" font-family="Times,serif" font-size="9.00">h_scaling 1.000</text>
</g>
<!-- output
bias &#45;0.653
h_scaling 1.000&#45;&gt;key 19081
bias &#45;0.447
h_scaling 1.000 -->
<g id="edge11" class="edge">
<title>output
bias &#45;0.653
h_scaling 1.000&#45;&gt;key 19081
bias &#45;0.447
h_scaling 1.000</title>
<path fill="none" stroke="blue" stroke-width="0.1" d="M126.42,-461.36C124.1,-468.55 121.9,-475.83 120,-482.84 118.34,-488.93 116.77,-495.3 115.3,-501.71"/>
<polygon fill="blue" stroke="blue" stroke-width="0.1" points="111.81,-501.26 113.06,-511.78 118.65,-502.77 111.81,-501.26"/>
</g>
<!-- output
bias &#45;0.653
h_scaling 1.000&#45;&gt;key 1562
bias 0.569
h_scaling 1.000 -->
<g id="edge9" class="edge">
<title>output
bias &#45;0.653
h_scaling 1.000&#45;&gt;key 1562
bias 0.569
h_scaling 1.000</title>
<path fill="none" stroke="blue" stroke-width="0.1" d="M175.23,-343.16C185.1,-325.69 196.44,-306.41 207.25,-288.75"/>
<polygon fill="blue" stroke="blue" stroke-width="0.1" points="210.23,-290.58 212.5,-280.23 204.28,-286.9 210.23,-290.58"/>
</g>
<!-- key 19081
bias &#45;0.447
h_scaling 1.000&#45;&gt;output
bias &#45;0.653
h_scaling 1.000 -->
<g id="edge16" class="edge">
<title>key 19081
bias &#45;0.447
h_scaling 1.000&#45;&gt;output
bias &#45;0.653
h_scaling 1.000</title>
<path fill="none" stroke="red" stroke-width="0.71" d="M118.35,-512.61C121.8,-499.74 125.48,-486.05 129.03,-472.85"/>
<polygon fill="red" stroke="red" stroke-width="0.71" points="132.49,-473.44 131.71,-462.87 125.73,-471.62 132.49,-473.44"/>
<text text-anchor="middle" x="139" y="-485.64" font-family="Times,serif" font-size="9.00">0.020</text>
</g>
<!-- key 19081
bias &#45;0.447
h_scaling 1.000&#45;&gt;key 19081
bias &#45;0.447
h_scaling 1.000 -->
<g id="edge8" class="edge">
<title>key 19081
bias &#45;0.447
h_scaling 1.000&#45;&gt;key 19081
bias &#45;0.447
h_scaling 1.000</title>
<path fill="none" stroke="red" stroke-width="1.14" d="M163.94,-589.77C175.5,-587.89 183.64,-582.79 183.64,-574.48 183.64,-568.76 179.79,-564.56 173.63,-561.89"/>
<polygon fill="red" stroke="red" stroke-width="1.14" points="174.52,-558.5 163.94,-559.18 172.63,-565.24 174.52,-558.5"/>
<text text-anchor="middle" x="197.64" y="-572.28" font-family="Times,serif" font-size="9.00">0.035</text>
</g>
<!-- key 19081
bias &#45;0.447
h_scaling 1.000&#45;&gt;key 18296
bias &#45;0.656
h_scaling 1.000 -->
<g id="edge7" class="edge">
<title>key 19081
bias &#45;0.447
h_scaling 1.000&#45;&gt;key 18296
bias &#45;0.656
h_scaling 1.000</title>
<path fill="none" stroke="red" stroke-width="0.41" d="M84.29,-513.34C80.44,-497.69 76.95,-480.75 75,-464.84 58.53,-330.28 51.72,-277.02 127,-164.28 142.62,-140.89 165.38,-120.21 187.03,-103.83"/>
<polygon fill="red" stroke="red" stroke-width="0.41" points="189.28,-106.52 195.25,-97.77 185.13,-100.89 189.28,-106.52"/>
<text text-anchor="middle" x="81" y="-312.36" font-family="Times,serif" font-size="9.00">0.010</text>
</g>
<!-- key 18296
bias &#45;0.656
h_scaling 1.000&#45;&gt;output
bias &#45;0.653
h_scaling 1.000 -->
<g id="edge5" class="edge">
<title>key 18296
bias &#45;0.656
h_scaling 1.000&#45;&gt;output
bias &#45;0.653
h_scaling 1.000</title>
<path fill="none" stroke="red" stroke-width="0.54" d="M197.32,-101.2C178.02,-117.97 158.31,-139.62 148,-164.28 126.28,-216.23 127.88,-280.41 134.03,-328.72"/>
<polygon fill="red" stroke="red" stroke-width="0.54" points="130.58,-329.34 135.4,-338.77 137.52,-328.39 130.58,-329.34"/>
<text text-anchor="middle" x="162" y="-225.72" font-family="Times,serif" font-size="9.00">0.015</text>
</g>
<!-- key 18296
bias &#45;0.656
h_scaling 1.000&#45;&gt;key 18296
bias &#45;0.656
h_scaling 1.000 -->
<g id="edge19" class="edge">
<title>key 18296
bias &#45;0.656
h_scaling 1.000&#45;&gt;key 18296
bias &#45;0.656
h_scaling 1.000</title>
<path fill="none" stroke="red" stroke-width="0.91" d="M311.29,-78.17C322.66,-76.33 330.64,-71.49 330.64,-63.64 330.64,-58.37 327.04,-54.45 321.23,-51.89"/>
<polygon fill="red" stroke="red" stroke-width="0.91" points="321.87,-48.43 311.29,-49.11 319.98,-55.18 321.87,-48.43"/>
<text text-anchor="middle" x="344.64" y="-61.44" font-family="Times,serif" font-size="9.00">0.027</text>
</g>
<!-- key 18296
bias &#45;0.656
h_scaling 1.000&#45;&gt;key 1562
bias 0.569
h_scaling 1.000 -->
<g id="edge3" class="edge">
<title>key 18296
bias &#45;0.656
h_scaling 1.000&#45;&gt;key 1562
bias 0.569
h_scaling 1.000</title>
<path fill="none" stroke="blue" stroke-width="0.1" d="M255.59,-126.95C255.74,-135.81 255.79,-145 255.72,-154.05"/>
<polygon fill="blue" stroke="blue" stroke-width="0.1" points="252.22,-154.13 255.59,-164.18 259.22,-154.22 252.22,-154.13"/>
</g>
<!-- key 1562
bias 0.569
h_scaling 1.000&#45;&gt;output
bias &#45;0.653
h_scaling 1.000 -->
<g id="edge2" class="edge">
<title>key 1562
bias 0.569
h_scaling 1.000&#45;&gt;output
bias &#45;0.653
h_scaling 1.000</title>
<path fill="none" stroke="blue" stroke-width="0.1" d="M221.94,-285.66C212.05,-303.18 200.67,-322.52 189.82,-340.25"/>
<polygon fill="blue" stroke="blue" stroke-width="0.1" points="186.82,-338.46 184.55,-348.81 192.77,-342.13 186.82,-338.46"/>
</g>
<!-- key 1562
bias 0.569
h_scaling 1.000&#45;&gt;key 18296
bias &#45;0.656
h_scaling 1.000 -->
<g id="edge18" class="edge">
<title>key 1562
bias 0.569
h_scaling 1.000&#45;&gt;key 18296
bias &#45;0.656
h_scaling 1.000</title>
<path fill="none" stroke="blue" stroke-width="0.1" d="M242.41,-164.18C242.25,-155.3 242.21,-146.11 242.28,-137.07"/>
<polygon fill="blue" stroke="blue" stroke-width="0.1" points="245.79,-136.99 242.41,-126.95 238.79,-136.9 245.79,-136.99"/>
</g>
<!-- key 148477
bias &#45;0.867
h_scaling 1.000&#45;&gt;key 18296
bias &#45;0.656
h_scaling 1.000 -->
<g id="edge17" class="edge">
<title>key 148477
bias &#45;0.867
h_scaling 1.000&#45;&gt;key 18296
bias &#45;0.656
h_scaling 1.000</title>
<path fill="none" stroke="blue" stroke-width="0.1" d="M364.67,-337.62C358.79,-288.74 346.65,-219.99 322,-164.28 315.32,-149.18 306.05,-134.14 296.36,-120.5"/>
<polygon fill="blue" stroke="blue" stroke-width="0.1" points="299.01,-118.21 290.28,-112.2 293.36,-122.34 299.01,-118.21"/>
</g>
<!-- key 148477
bias &#45;0.867
h_scaling 1.000&#45;&gt;key 1562
bias 0.569
h_scaling 1.000 -->
<g id="edge15" class="edge">
<title>key 148477
bias &#45;0.867
h_scaling 1.000&#45;&gt;key 1562
bias 0.569
h_scaling 1.000</title>
<path fill="none" stroke="red" stroke-width="0.43" d="M333.7,-348.81C320.3,-329.84 305,-308.19 291.13,-288.55"/>
<polygon fill="red" stroke="red" stroke-width="0.43" points="293.91,-286.42 285.28,-280.27 288.19,-290.46 293.91,-286.42"/>
<text text-anchor="middle" x="323" y="-312.36" font-family="Times,serif" font-size="9.00">0.011</text>
</g>
</g>
</svg>
