<?xml version="1.0" encoding="UTF-8" standalone="no"?>
<!DOCTYPE svg PUBLIC "-//W3C//DTD SVG 1.1//EN"
 "http://www.w3.org/Graphics/SVG/1.1/DTD/svg11.dtd">
<!-- Generated by graphviz version 2.43.0 (0)
 -->
<!-- Title: %3 Pages: 1 -->
<svg width="509pt" height="719pt"
 viewBox="0.00 0.00 509.00 719.12" xmlns="http://www.w3.org/2000/svg" xmlns:xlink="http://www.w3.org/1999/xlink">
<g id="graph0" class="graph" transform="scale(1 1) rotate(0) translate(4 715.12)">
<title>%3</title>
<polygon fill="white" stroke="transparent" points="-4,4 -4,-715.12 505,-715.12 505,4 -4,4"/>
<!-- ready -->
<g id="node1" class="node">
<title>ready</title>
<polygon fill="yellow" stroke="black" points="120.5,-711.12 77.5,-711.12 77.5,-693.12 120.5,-693.12 120.5,-711.12"/>
<text text-anchor="middle" x="99" y="-699.92" font-family="Times,serif" font-size="9.00">ready</text>
</g>
<!-- key 19081
bias &#45;0.447
h_scaling 1.000 -->
<g id="node4" class="node">
<title>key 19081
bias &#45;0.447
h_scaling 1.000</title>
<ellipse fill="white" stroke="black" cx="99" cy="-583.48" rx="63.78" ry="63.78"/>
<text text-anchor="middle" x="99" y="-591.28" font-family="Times,serif" font-size="9.00">key 19081</text>
<text text-anchor="middle" x="99" y="-581.28" font-family="Times,serif" font-size="9.00">bias &#45;0.447</text>
<text text-anchor="middle" x="99" y="-571.28" font-family="Times,serif" font-size="9.00">h_scaling 1.000</text>
</g>
<!-- ready&#45;&gt;key 19081
bias &#45;0.447
h_scaling 1.000 -->
<g id="edge6" class="edge">
<title>ready&#45;&gt;key 19081
bias &#45;0.447
h_scaling 1.000</title>
<path fill="none" stroke="red" stroke-width="1.34" d="M99,-693.1C99,-685.07 99,-671.85 99,-657.35"/>
<polygon fill="red" stroke="red" stroke-width="1.34" points="102.5,-657.15 99,-647.15 95.5,-657.15 102.5,-657.15"/>
<text text-anchor="middle" x="113" y="-667.92" font-family="Times,serif" font-size="9.00">0.412</text>
</g>
<!-- key 18296
bias &#45;0.656
h_scaling 1.000 -->
<g id="node5" class="node">
<title>key 18296
bias &#45;0.656
h_scaling 1.000</title>
<ellipse fill="white" stroke="black" cx="174" cy="-63.64" rx="63.78" ry="63.78"/>
<text text-anchor="middle" x="174" y="-71.44" font-family="Times,serif" font-size="9.00">key 18296</text>
<text text-anchor="middle" x="174" y="-61.44" font-family="Times,serif" font-size="9.00">bias &#45;0.656</text>
<text text-anchor="middle" x="174" y="-51.44" font-family="Times,serif" font-size="9.00">h_scaling 1.000</text>
</g>
<!-- ready&#45;&gt;key 18296
bias &#45;0.656
h_scaling 1.000 -->
<g id="edge13" class="edge">
<title>ready&#45;&gt;key 18296
bias &#45;0.656
h_scaling 1.000</title>
<path fill="none" stroke="red" stroke-width="1.16" d="M83.66,-693.1C67.41,-683.92 41.93,-667.48 26,-647.12 7.43,-623.37 0,-614.62 0,-584.48 0,-584.48 0,-584.48 0,-235.92 0,-172.94 58.61,-125.37 107.8,-96.54"/>
<polygon fill="red" stroke="red" stroke-width="1.16" points="109.59,-99.54 116.54,-91.55 106.12,-93.46 109.59,-99.54"/>
<text text-anchor="middle" x="14" y="-408" font-family="Times,serif" font-size="9.00">0.355</text>
</g>
<!-- key 1562
bias 0.569
h_scaling 1.000 -->
<g id="node6" class="node">
<title>key 1562
bias 0.569
h_scaling 1.000</title>
<ellipse fill="white" stroke="black" cx="228" cy="-236.92" rx="63.78" ry="63.78"/>
<text text-anchor="middle" x="228" y="-244.72" font-family="Times,serif" font-size="9.00">key 1562</text>
<text text-anchor="middle" x="228" y="-234.72" font-family="Times,serif" font-size="9.00">bias 0.569</text>
<text text-anchor="middle" x="228" y="-224.72" font-family="Times,serif" font-size="9.00">h_scaling 1.000</text>
</g>
<!-- ready&#45;&gt;key 1562
bias 0.569
h_scaling 1.000 -->
<g id="edge12" class="edge">
<title>ready&#45;&gt;key 1562
bias 0.569
h_scaling 1.000</title>
<path fill="none" stroke="blue" stroke-width="0.72" d="M120.73,-699.83C153.22,-697.41 212.04,-690.92 225,-675.12 269.18,-621.27 251.56,-419.94 238.04,-310.26"/>
<polygon fill="blue" stroke="blue" stroke-width="0.72" points="241.5,-309.75 236.79,-300.26 234.56,-310.62 241.5,-309.75"/>
<text text-anchor="middle" x="267.5" y="-494.64" font-family="Times,serif" font-size="9.00">&#45;0.207</text>
</g>
<!-- go -->
<g id="node2" class="node">
<title>go</title>
<polygon fill="green" stroke="black" points="337,-711.12 309,-711.12 309,-693.12 337,-693.12 337,-711.12"/>
<text text-anchor="middle" x="323" y="-699.92" font-family="Times,serif" font-size="9.00">go</text>
</g>
<!-- go&#45;&gt;key 19081
bias &#45;0.447
h_scaling 1.000 -->
<g id="edge10" class="edge">
<title>go&#45;&gt;key 19081
bias &#45;0.447
h_scaling 1.000</title>
<path fill="none" stroke="blue" stroke-width="0.89" d="M308.83,-697.19C293.48,-692.71 268.45,-684.75 248,-675.12 217.97,-660.98 186.35,-642.33 159.99,-625.63"/>
<polygon fill="blue" stroke="blue" stroke-width="0.89" points="161.58,-622.49 151.26,-620.05 157.8,-628.38 161.58,-622.49"/>
<text text-anchor="middle" x="263.5" y="-667.92" font-family="Times,serif" font-size="9.00">&#45;0.263</text>
</g>
<!-- go&#45;&gt;key 18296
bias &#45;0.656
h_scaling 1.000 -->
<g id="edge4" class="edge">
<title>go&#45;&gt;key 18296
bias &#45;0.656
h_scaling 1.000</title>
<path fill="none" stroke="blue" stroke-width="3.03" d="M337.09,-697.35C373.89,-686.56 470,-651.92 470,-584.48 470,-584.48 470,-584.48 470,-235.92 470,-133.16 334.7,-91.06 247.05,-74.56"/>
<polygon fill="blue" stroke="blue" stroke-width="3.03" points="247.6,-71.11 237.14,-72.77 246.35,-78 247.6,-71.11"/>
<text text-anchor="middle" x="485.5" y="-408" font-family="Times,serif" font-size="9.00">&#45;0.978</text>
</g>
<!-- go&#45;&gt;key 1562
bias 0.569
h_scaling 1.000 -->
<g id="edge1" class="edge">
<title>go&#45;&gt;key 1562
bias 0.569
h_scaling 1.000</title>
<path fill="none" stroke="red" stroke-width="1.64" d="M321.94,-692.96C316.56,-652.21 291.1,-466.85 254,-318.56 253.09,-314.92 252.1,-311.21 251.06,-307.47"/>
<polygon fill="red" stroke="red" stroke-width="1.64" points="254.34,-306.19 248.21,-297.55 247.61,-308.13 254.34,-306.19"/>
<text text-anchor="middle" x="305" y="-494.64" font-family="Times,serif" font-size="9.00">0.512</text>
</g>
<!-- key 148477
bias &#45;0.867
h_scaling 1.000 -->
<g id="node7" class="node">
<title>key 148477
bias &#45;0.867
h_scaling 1.000</title>
<ellipse fill="white" stroke="black" cx="370" cy="-410.2" rx="63.78" ry="63.78"/>
<text text-anchor="middle" x="370" y="-418" font-family="Times,serif" font-size="9.00">key 148477</text>
<text text-anchor="middle" x="370" y="-408" font-family="Times,serif" font-size="9.00">bias &#45;0.867</text>
<text text-anchor="middle" x="370" y="-398" font-family="Times,serif" font-size="9.00">h_scaling 1.000</text>
</g>
<!-- go&#45;&gt;key 148477
bias &#45;0.867
h_scaling 1.000 -->
<g id="edge14" class="edge">
<title>go&#45;&gt;key 148477
bias &#45;0.867
h_scaling 1.000</title>
<path fill="none" stroke="red" stroke-width="2.92" d="M324.31,-693.06C329.16,-663.14 346.46,-556.4 358.33,-483.21"/>
<polygon fill="red" stroke="red" stroke-width="2.92" points="361.82,-483.55 359.96,-473.12 354.91,-482.43 361.82,-483.55"/>
<text text-anchor="middle" x="365" y="-581.28" font-family="Times,serif" font-size="9.00">0.941</text>
</g>
<!-- output
bias &#45;0.653
h_scaling 1.000 -->
<g id="node3" class="node">
<title>output
bias &#45;0.653
h_scaling 1.000</title>
<ellipse fill="lightblue" stroke="black" cx="148" cy="-410.2" rx="63.78" ry="63.78"/>
<text text-anchor="middle" x="148" y="-418" font-family="Times,serif" font-size="9.00">output</text>
<text text-anchor="middle" x="148" y="-408" font-family="Times,serif" font-size="9.00">bias &#45;0.653</text>
<text text-anchor="middle" x="148" y="-398" font-family="Times,serif" font-size="9.00">h_scaling 1.000</text>
</g>
<!-- output
bias &#45;0.653
h_scaling 1.000&#45;&gt;key 19081
bias &#45;0.447
h_scaling 1.000 -->
<g id="edge11" class="edge">
<title>output
bias &#45;0.653
h_scaling 1.000&#45;&gt;key 19081
bias &#45;0.447
h_scaling 1.000</title>
<path fill="none" stroke="blue" stroke-width="0.5" d="M134.65,-472.86C132.27,-482.6 129.69,-492.53 127,-501.84 125.9,-505.65 124.72,-509.55 123.5,-513.48"/>
<polygon fill="blue" stroke="blue" stroke-width="0.5" points="120.08,-512.66 120.37,-523.26 126.75,-514.8 120.08,-512.66"/>
<text text-anchor="middle" x="145.5" y="-494.64" font-family="Times,serif" font-size="9.00">&#45;0.132</text>
</g>
<!-- output
bias &#45;0.653
h_scaling 1.000&#45;&gt;key 1562
bias 0.569
h_scaling 1.000 -->
<g id="edge9" class="edge">
<title>output
bias &#45;0.653
h_scaling 1.000&#45;&gt;key 1562
bias 0.569
h_scaling 1.000</title>
<path fill="none" stroke="blue" stroke-width="3.1" d="M174.64,-352.16C181.82,-336.79 189.65,-320.02 197.05,-304.19"/>
<polygon fill="blue" stroke="blue" stroke-width="3.1" points="200.28,-305.54 201.34,-295 193.94,-302.57 200.28,-305.54"/>
<text text-anchor="middle" x="203.5" y="-321.36" font-family="Times,serif" font-size="9.00">&#45;1.000</text>
</g>
<!-- key 19081
bias &#45;0.447
h_scaling 1.000&#45;&gt;output
bias &#45;0.653
h_scaling 1.000 -->
<g id="edge16" class="edge">
<title>key 19081
bias &#45;0.447
h_scaling 1.000&#45;&gt;output
bias &#45;0.653
h_scaling 1.000</title>
<path fill="none" stroke="red" stroke-width="2.21" d="M90.79,-520.36C91.07,-510.68 92.29,-500.89 95,-491.84 97.23,-484.39 100.39,-476.99 104.07,-469.87"/>
<polygon fill="red" stroke="red" stroke-width="2.21" points="107.2,-471.46 108.99,-461.02 101.08,-468.06 107.2,-471.46"/>
<text text-anchor="middle" x="109" y="-494.64" font-family="Times,serif" font-size="9.00">0.704</text>
</g>
<!-- key 19081
bias &#45;0.447
h_scaling 1.000&#45;&gt;key 19081
bias &#45;0.447
h_scaling 1.000 -->
<g id="edge8" class="edge">
<title>key 19081
bias &#45;0.447
h_scaling 1.000&#45;&gt;key 19081
bias &#45;0.447
h_scaling 1.000</title>
<path fill="none" stroke="red" stroke-width="2.81" d="M160.94,-598.77C172.5,-596.89 180.64,-591.79 180.64,-583.48 180.64,-577.76 176.79,-573.56 170.63,-570.89"/>
<polygon fill="red" stroke="red" stroke-width="2.81" points="171.52,-567.5 160.94,-568.18 169.63,-574.24 171.52,-567.5"/>
<text text-anchor="middle" x="194.64" y="-581.28" font-family="Times,serif" font-size="9.00">0.904</text>
</g>
<!-- key 19081
bias &#45;0.447
h_scaling 1.000&#45;&gt;key 18296
bias &#45;0.656
h_scaling 1.000 -->
<g id="edge7" class="edge">
<title>key 19081
bias &#45;0.447
h_scaling 1.000&#45;&gt;key 18296
bias &#45;0.656
h_scaling 1.000</title>
<path fill="none" stroke="red" stroke-width="3.1" d="M83.13,-521.67C79.76,-506.18 76.71,-489.49 75,-473.84 60.37,-339.75 76.36,-301.89 117,-173.28 121.89,-157.81 128.92,-141.92 136.38,-127.24"/>
<polygon fill="red" stroke="red" stroke-width="3.1" points="139.54,-128.75 141.06,-118.27 133.33,-125.51 139.54,-128.75"/>
<text text-anchor="middle" x="90" y="-321.36" font-family="Times,serif" font-size="9.00">1.000</text>
</g>
<!-- key 18296
bias &#45;0.656
h_scaling 1.000&#45;&gt;output
bias &#45;0.653
h_scaling 1.000 -->
<g id="edge5" class="edge">
<title>key 18296
bias &#45;0.656
h_scaling 1.000&#45;&gt;output
bias &#45;0.653
h_scaling 1.000</title>
<path fill="none" stroke="red" stroke-width="3.1" d="M144.7,-120.43C137.44,-136.99 130.69,-155.47 127,-173.28 115.7,-227.86 122.25,-290.79 130.92,-337.92"/>
<polygon fill="red" stroke="red" stroke-width="3.1" points="127.54,-338.86 132.86,-348.03 134.42,-337.55 127.54,-338.86"/>
<text text-anchor="middle" x="141" y="-234.72" font-family="Times,serif" font-size="9.00">1.000</text>
</g>
<!-- key 18296
bias &#45;0.656
h_scaling 1.000&#45;&gt;key 18296
bias &#45;0.656
h_scaling 1.000 -->
<g id="edge19" class="edge">
<title>key 18296
bias &#45;0.656
h_scaling 1.000&#45;&gt;key 18296
bias &#45;0.656
h_scaling 1.000</title>
<path fill="none" stroke="red" stroke-width="0.59" d="M235.94,-78.94C247.5,-77.05 255.64,-71.95 255.64,-63.64 255.64,-57.92 251.79,-53.73 245.63,-51.05"/>
<polygon fill="red" stroke="red" stroke-width="0.59" points="246.52,-47.66 235.94,-48.34 244.63,-54.4 246.52,-47.66"/>
<text text-anchor="middle" x="269.64" y="-61.44" font-family="Times,serif" font-size="9.00">0.164</text>
</g>
<!-- key 18296
bias &#45;0.656
h_scaling 1.000&#45;&gt;key 1562
bias 0.569
h_scaling 1.000 -->
<g id="edge3" class="edge">
<title>key 18296
bias &#45;0.656
h_scaling 1.000&#45;&gt;key 1562
bias 0.569
h_scaling 1.000</title>
<path fill="none" stroke="blue" stroke-width="3.1" d="M198.22,-122.87C201,-130.35 203.67,-137.96 206,-145.28 208.01,-151.6 209.94,-158.23 211.77,-164.89"/>
<polygon fill="blue" stroke="blue" stroke-width="3.1" points="208.41,-165.89 214.36,-174.65 215.18,-164.09 208.41,-165.89"/>
<text text-anchor="middle" x="223.5" y="-148.08" font-family="Times,serif" font-size="9.00">&#45;1.000</text>
</g>
<!-- key 1562
bias 0.569
h_scaling 1.000&#45;&gt;output
bias &#45;0.653
h_scaling 1.000 -->
<g id="edge2" class="edge">
<title>key 1562
bias 0.569
h_scaling 1.000&#45;&gt;output
bias &#45;0.653
h_scaling 1.000</title>
<path fill="none" stroke="blue" stroke-width="3.1" d="M175.51,-273.83C161.66,-286.23 148.5,-301.38 141,-318.56 138.43,-324.44 136.85,-330.75 136.02,-337.19"/>
<polygon fill="blue" stroke="blue" stroke-width="3.1" points="132.51,-337.16 135.29,-347.38 139.5,-337.66 132.51,-337.16"/>
<text text-anchor="middle" x="156.5" y="-321.36" font-family="Times,serif" font-size="9.00">&#45;1.000</text>
</g>
<!-- key 1562
bias 0.569
h_scaling 1.000&#45;&gt;key 18296
bias &#45;0.656
h_scaling 1.000 -->
<g id="edge18" class="edge">
<title>key 1562
bias 0.569
h_scaling 1.000&#45;&gt;key 18296
bias &#45;0.656
h_scaling 1.000</title>
<path fill="none" stroke="blue" stroke-width="0.52" d="M186.92,-187.74C180.37,-177.61 174.58,-166.55 171,-155.28 169.12,-149.37 167.89,-143.14 167.16,-136.81"/>
<polygon fill="blue" stroke="blue" stroke-width="0.52" points="170.65,-136.54 166.39,-126.84 163.67,-137.08 170.65,-136.54"/>
<text text-anchor="middle" x="186.5" y="-148.08" font-family="Times,serif" font-size="9.00">&#45;0.140</text>
</g>
<!-- key 148477
bias &#45;0.867
h_scaling 1.000&#45;&gt;key 18296
bias &#45;0.656
h_scaling 1.000 -->
<g id="edge17" class="edge">
<title>key 148477
bias &#45;0.867
h_scaling 1.000&#45;&gt;key 18296
bias &#45;0.656
h_scaling 1.000</title>
<path fill="none" stroke="blue" stroke-width="2.02" d="M361.83,-346.98C352.99,-296.88 335.29,-226.32 301,-173.28 284.02,-147.01 258.82,-123.61 235.34,-105.31"/>
<polygon fill="blue" stroke="blue" stroke-width="2.02" points="237.2,-102.32 227.12,-99.05 232.96,-107.89 237.2,-102.32"/>
<text text-anchor="middle" x="366.5" y="-234.72" font-family="Times,serif" font-size="9.00">&#45;0.640</text>
</g>
<!-- key 148477
bias &#45;0.867
h_scaling 1.000&#45;&gt;key 1562
bias 0.569
h_scaling 1.000 -->
<g id="edge15" class="edge">
<title>key 148477
bias &#45;0.867
h_scaling 1.000&#45;&gt;key 1562
bias 0.569
h_scaling 1.000</title>
<path fill="none" stroke="red" stroke-width="2.43" d="M329.69,-360.57C312.53,-339.87 292.4,-315.6 274.61,-294.14"/>
<polygon fill="red" stroke="red" stroke-width="2.43" points="277.24,-291.83 268.17,-286.37 271.85,-296.3 277.24,-291.83"/>
<text text-anchor="middle" x="313" y="-321.36" font-family="Times,serif" font-size="9.00">0.778</text>
</g>
</g>
</svg>
