<?xml version="1.0" encoding="UTF-8" standalone="no"?>
<!DOCTYPE svg PUBLIC "-//W3C//DTD SVG 1.1//EN"
 "http://www.w3.org/Graphics/SVG/1.1/DTD/svg11.dtd">
<!-- Generated by graphviz version 2.43.0 (0)
 -->
<!-- Title: %3 Pages: 1 -->
<svg width="346pt" height="892pt"
 viewBox="0.00 0.00 346.27 892.40" xmlns="http://www.w3.org/2000/svg" xmlns:xlink="http://www.w3.org/1999/xlink">
<g id="graph0" class="graph" transform="scale(1 1) rotate(0) translate(4 888.4)">
<title>%3</title>
<polygon fill="white" stroke="transparent" points="-4,4 -4,-888.4 342.27,-888.4 342.27,4 -4,4"/>
<!-- ready -->
<g id="node1" class="node">
<title>ready</title>
<polygon fill="yellow" stroke="black" points="316.77,-884.4 273.77,-884.4 273.77,-866.4 316.77,-866.4 316.77,-884.4"/>
<text text-anchor="middle" x="295.27" y="-873.2" font-family="Times,serif" font-size="9.00">ready</text>
</g>
<!-- key 170467
bias &#45;0.552
h_scaling 0.303 -->
<g id="node4" class="node">
<title>key 170467
bias &#45;0.552
h_scaling 0.303</title>
<ellipse fill="white" stroke="black" cx="194.27" cy="-756.76" rx="63.78" ry="63.78"/>
<text text-anchor="middle" x="194.27" y="-764.56" font-family="Times,serif" font-size="9.00">key 170467</text>
<text text-anchor="middle" x="194.27" y="-754.56" font-family="Times,serif" font-size="9.00">bias &#45;0.552</text>
<text text-anchor="middle" x="194.27" y="-744.56" font-family="Times,serif" font-size="9.00">h_scaling 0.303</text>
</g>
<!-- ready&#45;&gt;key 170467
bias &#45;0.552
h_scaling 0.303 -->
<g id="edge4" class="edge">
<title>ready&#45;&gt;key 170467
bias &#45;0.552
h_scaling 0.303</title>
<path fill="none" stroke="red" stroke-width="2.68" d="M288.33,-866.38C278.64,-855.19 260.23,-833.94 242.25,-813.17"/>
<polygon fill="red" stroke="red" stroke-width="2.68" points="244.86,-810.83 235.66,-805.56 239.56,-815.41 244.86,-810.83"/>
<text text-anchor="middle" x="284.27" y="-841.2" font-family="Times,serif" font-size="9.00">0.860</text>
</g>
<!-- key 212468
bias &#45;0.996
h_scaling 0.787 -->
<g id="node7" class="node">
<title>key 212468
bias &#45;0.996
h_scaling 0.787</title>
<ellipse fill="white" stroke="black" cx="143.27" cy="-410.2" rx="63.78" ry="63.78"/>
<text text-anchor="middle" x="143.27" y="-418" font-family="Times,serif" font-size="9.00">key 212468</text>
<text text-anchor="middle" x="143.27" y="-408" font-family="Times,serif" font-size="9.00">bias &#45;0.996</text>
<text text-anchor="middle" x="143.27" y="-398" font-family="Times,serif" font-size="9.00">h_scaling 0.787</text>
</g>
<!-- ready&#45;&gt;key 212468
bias &#45;0.996
h_scaling 0.787 -->
<g id="edge10" class="edge">
<title>ready&#45;&gt;key 212468
bias &#45;0.996
h_scaling 0.787</title>
<path fill="none" stroke="red" stroke-width="1.05" d="M298.93,-866.19C303.36,-855.78 310.55,-837.17 313.27,-820.4 324.33,-752.24 326.84,-731.62 308.27,-665.12 289.66,-598.47 290.05,-577.82 252.27,-519.84 237.72,-497.51 217.96,-476.08 199.25,-458.25"/>
<polygon fill="red" stroke="red" stroke-width="1.05" points="201.57,-455.62 191.88,-451.34 196.79,-460.73 201.57,-455.62"/>
<text text-anchor="middle" x="324.27" y="-667.92" font-family="Times,serif" font-size="9.00">0.316</text>
</g>
<!-- go -->
<g id="node2" class="node">
<title>go</title>
<polygon fill="green" stroke="black" points="95.27,-884.4 67.27,-884.4 67.27,-866.4 95.27,-866.4 95.27,-884.4"/>
<text text-anchor="middle" x="81.27" y="-873.2" font-family="Times,serif" font-size="9.00">go</text>
</g>
<!-- go&#45;&gt;key 170467
bias &#45;0.552
h_scaling 0.303 -->
<g id="edge15" class="edge">
<title>go&#45;&gt;key 170467
bias &#45;0.552
h_scaling 0.303</title>
<path fill="none" stroke="red" stroke-width="0.78" d="M89.04,-866.38C100.37,-854.68 122.38,-831.96 143.36,-810.31"/>
<polygon fill="red" stroke="red" stroke-width="0.78" points="145.97,-812.64 150.41,-803.03 140.94,-807.77 145.97,-812.64"/>
<text text-anchor="middle" x="129.27" y="-841.2" font-family="Times,serif" font-size="9.00">0.228</text>
</g>
<!-- key 27204
bias &#45;0.481
h_scaling 0.520 -->
<g id="node5" class="node">
<title>key 27204
bias &#45;0.481
h_scaling 0.520</title>
<ellipse fill="white" stroke="black" cx="92.27" cy="-583.48" rx="63.78" ry="63.78"/>
<text text-anchor="middle" x="92.27" y="-591.28" font-family="Times,serif" font-size="9.00">key 27204</text>
<text text-anchor="middle" x="92.27" y="-581.28" font-family="Times,serif" font-size="9.00">bias &#45;0.481</text>
<text text-anchor="middle" x="92.27" y="-571.28" font-family="Times,serif" font-size="9.00">h_scaling 0.520</text>
</g>
<!-- go&#45;&gt;key 27204
bias &#45;0.481
h_scaling 0.520 -->
<g id="edge2" class="edge">
<title>go&#45;&gt;key 27204
bias &#45;0.481
h_scaling 0.520</title>
<path fill="none" stroke="blue" stroke-width="3.07" d="M81.57,-866.34C82.7,-836.55 86.72,-730.62 89.5,-657.46"/>
<polygon fill="blue" stroke="blue" stroke-width="3.07" points="93,-657.49 89.88,-647.36 86.01,-657.22 93,-657.49"/>
<text text-anchor="middle" x="103.77" y="-754.56" font-family="Times,serif" font-size="9.00">&#45;0.992</text>
</g>
<!-- go&#45;&gt;key 212468
bias &#45;0.996
h_scaling 0.787 -->
<g id="edge16" class="edge">
<title>go&#45;&gt;key 212468
bias &#45;0.996
h_scaling 0.787</title>
<path fill="none" stroke="blue" stroke-width="1.83" d="M76.51,-866.23C53.92,-826.31 -39.05,-648.46 19.27,-519.84 32.17,-491.39 56.6,-467.45 80.4,-449.35"/>
<polygon fill="blue" stroke="blue" stroke-width="1.83" points="82.78,-451.94 88.76,-443.19 78.63,-446.3 82.78,-451.94"/>
<text text-anchor="middle" x="20.77" y="-667.92" font-family="Times,serif" font-size="9.00">&#45;0.576</text>
</g>
<!-- output
bias &#45;0.971
h_scaling 0.058 -->
<g id="node3" class="node">
<title>output
bias &#45;0.971
h_scaling 0.058</title>
<ellipse fill="lightblue" stroke="black" cx="128.27" cy="-63.64" rx="63.78" ry="63.78"/>
<text text-anchor="middle" x="128.27" y="-71.44" font-family="Times,serif" font-size="9.00">output</text>
<text text-anchor="middle" x="128.27" y="-61.44" font-family="Times,serif" font-size="9.00">bias &#45;0.971</text>
<text text-anchor="middle" x="128.27" y="-51.44" font-family="Times,serif" font-size="9.00">h_scaling 0.058</text>
</g>
<!-- output
bias &#45;0.971
h_scaling 0.058&#45;&gt;key 170467
bias &#45;0.552
h_scaling 0.303 -->
<g id="edge7" class="edge">
<title>output
bias &#45;0.971
h_scaling 0.058&#45;&gt;key 170467
bias &#45;0.552
h_scaling 0.303</title>
<path fill="none" stroke="blue" stroke-width="0.45" d="M184.21,-94.07C215.1,-112.93 251.85,-140.09 275.27,-173.28 292.04,-197.05 294.27,-206.83 294.27,-235.92 294.27,-584.48 294.27,-584.48 294.27,-584.48 294.27,-628.28 269.57,-670.85 244.73,-702.59"/>
<polygon fill="blue" stroke="blue" stroke-width="0.45" points="241.97,-700.44 238.42,-710.42 247.42,-704.83 241.97,-700.44"/>
<text text-anchor="middle" x="309.77" y="-408" font-family="Times,serif" font-size="9.00">&#45;0.117</text>
</g>
<!-- key 170467
bias &#45;0.552
h_scaling 0.303&#45;&gt;key 170467
bias &#45;0.552
h_scaling 0.303 -->
<g id="edge6" class="edge">
<title>key 170467
bias &#45;0.552
h_scaling 0.303&#45;&gt;key 170467
bias &#45;0.552
h_scaling 0.303</title>
<path fill="none" stroke="red" stroke-width="2.63" d="M256.21,-772.05C267.77,-770.17 275.91,-765.07 275.91,-756.76 275.91,-751.04 272.06,-746.84 265.9,-744.17"/>
<polygon fill="red" stroke="red" stroke-width="2.63" points="266.78,-740.78 256.21,-741.46 264.9,-747.52 266.78,-740.78"/>
<text text-anchor="middle" x="289.91" y="-754.56" font-family="Times,serif" font-size="9.00">0.844</text>
</g>
<!-- key 170467
bias &#45;0.552
h_scaling 0.303&#45;&gt;key 27204
bias &#45;0.481
h_scaling 0.520 -->
<g id="edge5" class="edge">
<title>key 170467
bias &#45;0.552
h_scaling 0.303&#45;&gt;key 27204
bias &#45;0.481
h_scaling 0.520</title>
<path fill="none" stroke="red" stroke-width="0.78" d="M162,-701.56C151.71,-684.3 140.25,-665.05 129.64,-647.23"/>
<polygon fill="red" stroke="red" stroke-width="0.78" points="132.63,-645.41 124.51,-638.61 126.62,-649 132.63,-645.41"/>
<text text-anchor="middle" x="157.27" y="-667.92" font-family="Times,serif" font-size="9.00">0.226</text>
</g>
<!-- key 170467
bias &#45;0.552
h_scaling 0.303&#45;&gt;key 212468
bias &#45;0.996
h_scaling 0.787 -->
<g id="edge11" class="edge">
<title>key 170467
bias &#45;0.552
h_scaling 0.303&#45;&gt;key 212468
bias &#45;0.996
h_scaling 0.787</title>
<path fill="none" stroke="red" stroke-width="1.6" d="M210.05,-694.93C219.91,-646.56 227.87,-577.66 211.27,-519.84 206.22,-502.24 197.39,-484.74 187.73,-469.08"/>
<polygon fill="red" stroke="red" stroke-width="1.6" points="190.64,-467.13 182.3,-460.59 184.74,-470.9 190.64,-467.13"/>
<text text-anchor="middle" x="234.27" y="-581.28" font-family="Times,serif" font-size="9.00">0.500</text>
</g>
<!-- key 27204
bias &#45;0.481
h_scaling 0.520&#45;&gt;output
bias &#45;0.971
h_scaling 0.058 -->
<g id="edge1" class="edge">
<title>key 27204
bias &#45;0.481
h_scaling 0.520&#45;&gt;output
bias &#45;0.971
h_scaling 0.058</title>
<path fill="none" stroke="red" stroke-width="3.06" d="M77.66,-521.33C74.6,-505.92 71.82,-489.35 70.27,-473.84 56.91,-340.6 62.6,-304.08 91.27,-173.28 94.19,-159.97 98.19,-146.01 102.48,-132.71"/>
<polygon fill="red" stroke="red" stroke-width="3.06" points="105.82,-133.75 105.65,-123.16 99.18,-131.55 105.82,-133.75"/>
<text text-anchor="middle" x="80.27" y="-321.36" font-family="Times,serif" font-size="9.00">0.986</text>
</g>
<!-- key 27204
bias &#45;0.481
h_scaling 0.520&#45;&gt;key 27204
bias &#45;0.481
h_scaling 0.520 -->
<g id="edge3" class="edge">
<title>key 27204
bias &#45;0.481
h_scaling 0.520&#45;&gt;key 27204
bias &#45;0.481
h_scaling 0.520</title>
<path fill="none" stroke="red" stroke-width="3.07" d="M154.21,-598.77C165.77,-596.89 173.91,-591.79 173.91,-583.48 173.91,-577.76 170.06,-573.56 163.9,-570.89"/>
<polygon fill="red" stroke="red" stroke-width="3.07" points="164.78,-567.5 154.21,-568.18 162.9,-574.24 164.78,-567.5"/>
<text text-anchor="middle" x="187.91" y="-581.28" font-family="Times,serif" font-size="9.00">0.988</text>
</g>
<!-- key 27204
bias &#45;0.481
h_scaling 0.520&#45;&gt;key 212468
bias &#45;0.996
h_scaling 0.787 -->
<g id="edge8" class="edge">
<title>key 27204
bias &#45;0.481
h_scaling 0.520&#45;&gt;key 212468
bias &#45;0.996
h_scaling 0.787</title>
<path fill="none" stroke="red" stroke-width="2.98" d="M110.25,-522.09C114.2,-508.84 118.41,-494.7 122.45,-481.11"/>
<polygon fill="red" stroke="red" stroke-width="2.98" points="125.87,-481.91 125.36,-471.33 119.16,-479.91 125.87,-481.91"/>
<text text-anchor="middle" x="132.27" y="-494.64" font-family="Times,serif" font-size="9.00">0.961</text>
</g>
<!-- key 258290
bias 0.909
h_scaling 0.748 -->
<g id="node6" class="node">
<title>key 258290
bias 0.909
h_scaling 0.748</title>
<ellipse fill="white" stroke="black" cx="202.27" cy="-236.92" rx="63.78" ry="63.78"/>
<text text-anchor="middle" x="202.27" y="-244.72" font-family="Times,serif" font-size="9.00">key 258290</text>
<text text-anchor="middle" x="202.27" y="-234.72" font-family="Times,serif" font-size="9.00">bias 0.909</text>
<text text-anchor="middle" x="202.27" y="-224.72" font-family="Times,serif" font-size="9.00">h_scaling 0.748</text>
</g>
<!-- key 258290
bias 0.909
h_scaling 0.748&#45;&gt;output
bias &#45;0.971
h_scaling 0.058 -->
<g id="edge14" class="edge">
<title>key 258290
bias 0.909
h_scaling 0.748&#45;&gt;output
bias &#45;0.971
h_scaling 0.058</title>
<path fill="none" stroke="blue" stroke-width="1.27" d="M177.22,-177.93C170.79,-163.06 163.83,-146.95 157.23,-131.67"/>
<polygon fill="blue" stroke="blue" stroke-width="1.27" points="160.35,-130.07 153.17,-122.28 153.92,-132.84 160.35,-130.07"/>
<text text-anchor="middle" x="180.77" y="-148.08" font-family="Times,serif" font-size="9.00">&#45;0.390</text>
</g>
<!-- key 212468
bias &#45;0.996
h_scaling 0.787&#45;&gt;output
bias &#45;0.971
h_scaling 0.058 -->
<g id="edge9" class="edge">
<title>key 212468
bias &#45;0.996
h_scaling 0.787&#45;&gt;output
bias &#45;0.971
h_scaling 0.058</title>
<path fill="none" stroke="red" stroke-width="3.1" d="M116.74,-352.28C110.38,-335.94 104.5,-317.85 101.27,-300.56 90.89,-244.95 94.4,-229.43 101.27,-173.28 102.81,-160.72 105.31,-147.53 108.18,-134.83"/>
<polygon fill="red" stroke="red" stroke-width="3.1" points="111.67,-135.31 110.56,-124.77 104.85,-133.7 111.67,-135.31"/>
<text text-anchor="middle" x="115.27" y="-234.72" font-family="Times,serif" font-size="9.00">1.000</text>
</g>
<!-- key 212468
bias &#45;0.996
h_scaling 0.787&#45;&gt;key 258290
bias 0.909
h_scaling 0.748 -->
<g id="edge13" class="edge">
<title>key 212468
bias &#45;0.996
h_scaling 0.787&#45;&gt;key 258290
bias 0.909
h_scaling 0.748</title>
<path fill="none" stroke="blue" stroke-width="2.13" d="M163.74,-349.77C168.5,-335.96 173.6,-321.13 178.49,-306.94"/>
<polygon fill="blue" stroke="blue" stroke-width="2.13" points="181.89,-307.83 181.84,-297.24 175.27,-305.55 181.89,-307.83"/>
<text text-anchor="middle" x="187.77" y="-321.36" font-family="Times,serif" font-size="9.00">&#45;0.676</text>
</g>
<!-- key 212468
bias &#45;0.996
h_scaling 0.787&#45;&gt;key 212468
bias &#45;0.996
h_scaling 0.787 -->
<g id="edge12" class="edge">
<title>key 212468
bias &#45;0.996
h_scaling 0.787&#45;&gt;key 212468
bias &#45;0.996
h_scaling 0.787</title>
<path fill="none" stroke="red" stroke-width="1.72" d="M205.21,-425.5C216.77,-423.61 224.91,-418.51 224.91,-410.2 224.91,-404.48 221.06,-400.29 214.9,-397.61"/>
<polygon fill="red" stroke="red" stroke-width="1.72" points="215.78,-394.22 205.21,-394.9 213.9,-400.96 215.78,-394.22"/>
<text text-anchor="middle" x="238.91" y="-408" font-family="Times,serif" font-size="9.00">0.539</text>
</g>
</g>
</svg>
