<?xml version="1.0" encoding="UTF-8" standalone="no"?>
<!DOCTYPE svg PUBLIC "-//W3C//DTD SVG 1.1//EN"
 "http://www.w3.org/Graphics/SVG/1.1/DTD/svg11.dtd">
<!-- Generated by graphviz version 2.43.0 (0)
 -->
<!-- Title: %3 Pages: 1 -->
<svg width="346pt" height="883pt"
 viewBox="0.00 0.00 345.88 883.40" xmlns="http://www.w3.org/2000/svg" xmlns:xlink="http://www.w3.org/1999/xlink">
<g id="graph0" class="graph" transform="scale(1 1) rotate(0) translate(4 879.4)">
<title>%3</title>
<polygon fill="white" stroke="transparent" points="-4,4 -4,-879.4 341.88,-879.4 341.88,4 -4,4"/>
<!-- ready -->
<g id="node1" class="node">
<title>ready</title>
<polygon fill="yellow" stroke="black" points="314.38,-875.4 271.38,-875.4 271.38,-857.4 314.38,-857.4 314.38,-875.4"/>
<text text-anchor="middle" x="292.88" y="-864.2" font-family="Times,serif" font-size="9.00">ready</text>
</g>
<!-- key 170467
bias &#45;0.552
h_scaling 0.303 -->
<g id="node4" class="node">
<title>key 170467
bias &#45;0.552
h_scaling 0.303</title>
<ellipse fill="white" stroke="black" cx="193.88" cy="-747.76" rx="63.78" ry="63.78"/>
<text text-anchor="middle" x="193.88" y="-755.56" font-family="Times,serif" font-size="9.00">key 170467</text>
<text text-anchor="middle" x="193.88" y="-745.56" font-family="Times,serif" font-size="9.00">bias &#45;0.552</text>
<text text-anchor="middle" x="193.88" y="-735.56" font-family="Times,serif" font-size="9.00">h_scaling 0.303</text>
</g>
<!-- ready&#45;&gt;key 170467
bias &#45;0.552
h_scaling 0.303 -->
<g id="edge4" class="edge">
<title>ready&#45;&gt;key 170467
bias &#45;0.552
h_scaling 0.303</title>
<path fill="none" stroke="red" stroke-width="1.07" d="M286.08,-857.38C276.67,-846.29 258.85,-825.29 241.37,-804.7"/>
<polygon fill="red" stroke="red" stroke-width="1.07" points="243.84,-802.2 234.7,-796.84 238.5,-806.73 243.84,-802.2"/>
<text text-anchor="middle" x="282.88" y="-832.2" font-family="Times,serif" font-size="9.00">0.032</text>
</g>
<!-- key 212468
bias &#45;0.996
h_scaling 0.787 -->
<g id="node7" class="node">
<title>key 212468
bias &#45;0.996
h_scaling 0.787</title>
<ellipse fill="white" stroke="black" cx="146.88" cy="-401.2" rx="63.78" ry="63.78"/>
<text text-anchor="middle" x="146.88" y="-409" font-family="Times,serif" font-size="9.00">key 212468</text>
<text text-anchor="middle" x="146.88" y="-399" font-family="Times,serif" font-size="9.00">bias &#45;0.996</text>
<text text-anchor="middle" x="146.88" y="-389" font-family="Times,serif" font-size="9.00">h_scaling 0.787</text>
</g>
<!-- ready&#45;&gt;key 212468
bias &#45;0.996
h_scaling 0.787 -->
<g id="edge10" class="edge">
<title>ready&#45;&gt;key 212468
bias &#45;0.996
h_scaling 0.787</title>
<path fill="none" stroke="red" stroke-width="1.9" d="M296.95,-857.24C301.87,-846.88 309.85,-828.32 312.88,-811.4 325.07,-743.43 326.46,-722.62 307.88,-656.12 289.27,-589.47 289.12,-569.17 251.88,-510.84 238.18,-489.36 219.76,-468.55 202.17,-450.98"/>
<polygon fill="red" stroke="red" stroke-width="1.9" points="204.29,-448.16 194.7,-443.66 199.39,-453.16 204.29,-448.16"/>
<text text-anchor="middle" x="323.88" y="-658.92" font-family="Times,serif" font-size="9.00">0.060</text>
</g>
<!-- go -->
<g id="node2" class="node">
<title>go</title>
<polygon fill="green" stroke="black" points="105.88,-875.4 77.88,-875.4 77.88,-857.4 105.88,-857.4 105.88,-875.4"/>
<text text-anchor="middle" x="91.88" y="-864.2" font-family="Times,serif" font-size="9.00">go</text>
</g>
<!-- go&#45;&gt;key 170467
bias &#45;0.552
h_scaling 0.303 -->
<g id="edge15" class="edge">
<title>go&#45;&gt;key 170467
bias &#45;0.552
h_scaling 0.303</title>
<path fill="none" stroke="red" stroke-width="1.24" d="M98.9,-857.38C108.72,-846.15 127.42,-824.76 145.65,-803.91"/>
<polygon fill="red" stroke="red" stroke-width="1.24" points="148.38,-806.11 152.33,-796.28 143.11,-801.5 148.38,-806.11"/>
<text text-anchor="middle" x="136.88" y="-832.2" font-family="Times,serif" font-size="9.00">0.038</text>
</g>
<!-- key 27204
bias &#45;0.481
h_scaling 0.520 -->
<g id="node5" class="node">
<title>key 27204
bias &#45;0.481
h_scaling 0.520</title>
<ellipse fill="white" stroke="black" cx="91.88" cy="-574.48" rx="63.78" ry="63.78"/>
<text text-anchor="middle" x="91.88" y="-582.28" font-family="Times,serif" font-size="9.00">key 27204</text>
<text text-anchor="middle" x="91.88" y="-572.28" font-family="Times,serif" font-size="9.00">bias &#45;0.481</text>
<text text-anchor="middle" x="91.88" y="-562.28" font-family="Times,serif" font-size="9.00">h_scaling 0.520</text>
</g>
<!-- go&#45;&gt;key 27204
bias &#45;0.481
h_scaling 0.520 -->
<g id="edge2" class="edge">
<title>go&#45;&gt;key 27204
bias &#45;0.481
h_scaling 0.520</title>
<path fill="none" stroke="blue" stroke-width="0.1" d="M91.88,-857.34C91.88,-827.55 91.88,-721.62 91.88,-648.46"/>
<polygon fill="blue" stroke="blue" stroke-width="0.1" points="95.38,-648.36 91.88,-638.36 88.38,-648.36 95.38,-648.36"/>
</g>
<!-- go&#45;&gt;key 212468
bias &#45;0.996
h_scaling 0.787 -->
<g id="edge16" class="edge">
<title>go&#45;&gt;key 212468
bias &#45;0.996
h_scaling 0.787</title>
<path fill="none" stroke="blue" stroke-width="0.1" d="M86.65,-857.24C61.79,-817.38 -40.78,-639.73 18.88,-510.84 32.47,-481.49 58.32,-457.17 83.26,-439.04"/>
<polygon fill="blue" stroke="blue" stroke-width="0.1" points="85.5,-441.74 91.66,-433.13 81.47,-436.02 85.5,-441.74"/>
</g>
<!-- output
bias &#45;0.971
h_scaling 0.058 -->
<g id="node3" class="node">
<title>output
bias &#45;0.971
h_scaling 0.058</title>
<ellipse fill="lightblue" stroke="black" cx="125.88" cy="-63.64" rx="63.78" ry="63.78"/>
<text text-anchor="middle" x="125.88" y="-71.44" font-family="Times,serif" font-size="9.00">output</text>
<text text-anchor="middle" x="125.88" y="-61.44" font-family="Times,serif" font-size="9.00">bias &#45;0.971</text>
<text text-anchor="middle" x="125.88" y="-51.44" font-family="Times,serif" font-size="9.00">h_scaling 0.058</text>
</g>
<!-- output
bias &#45;0.971
h_scaling 0.058&#45;&gt;key 170467
bias &#45;0.552
h_scaling 0.303 -->
<g id="edge7" class="edge">
<title>output
bias &#45;0.971
h_scaling 0.058&#45;&gt;key 170467
bias &#45;0.552
h_scaling 0.303</title>
<path fill="none" stroke="blue" stroke-width="0.1" d="M183.7,-91.06C214.78,-107.96 251.44,-132.66 274.88,-164.28 292.21,-187.65 293.88,-197.83 293.88,-226.92 293.88,-575.48 293.88,-575.48 293.88,-575.48 293.88,-619.28 269.19,-661.85 244.34,-693.59"/>
<polygon fill="blue" stroke="blue" stroke-width="0.1" points="241.58,-691.44 238.04,-701.42 247.03,-695.83 241.58,-691.44"/>
</g>
<!-- key 170467
bias &#45;0.552
h_scaling 0.303&#45;&gt;key 170467
bias &#45;0.552
h_scaling 0.303 -->
<g id="edge6" class="edge">
<title>key 170467
bias &#45;0.552
h_scaling 0.303&#45;&gt;key 170467
bias &#45;0.552
h_scaling 0.303</title>
<path fill="none" stroke="red" stroke-width="0.9" d="M255.83,-763.05C267.38,-761.17 275.52,-756.07 275.52,-747.76 275.52,-742.04 271.68,-737.84 265.52,-735.17"/>
<polygon fill="red" stroke="red" stroke-width="0.9" points="266.4,-731.78 255.83,-732.46 264.52,-738.52 266.4,-731.78"/>
<text text-anchor="middle" x="289.52" y="-745.56" font-family="Times,serif" font-size="9.00">0.027</text>
</g>
<!-- key 170467
bias &#45;0.552
h_scaling 0.303&#45;&gt;key 27204
bias &#45;0.481
h_scaling 0.520 -->
<g id="edge5" class="edge">
<title>key 170467
bias &#45;0.552
h_scaling 0.303&#45;&gt;key 27204
bias &#45;0.481
h_scaling 0.520</title>
<path fill="none" stroke="red" stroke-width="0.42" d="M161.61,-692.56C151.33,-675.3 139.87,-656.05 129.26,-638.23"/>
<polygon fill="red" stroke="red" stroke-width="0.42" points="132.25,-636.41 124.12,-629.61 126.23,-640 132.25,-636.41"/>
<text text-anchor="middle" x="156.88" y="-658.92" font-family="Times,serif" font-size="9.00">0.011</text>
</g>
<!-- key 170467
bias &#45;0.552
h_scaling 0.303&#45;&gt;key 212468
bias &#45;0.996
h_scaling 0.787 -->
<g id="edge11" class="edge">
<title>key 170467
bias &#45;0.552
h_scaling 0.303&#45;&gt;key 212468
bias &#45;0.996
h_scaling 0.787</title>
<path fill="none" stroke="red" stroke-width="0.54" d="M209.34,-685.55C218.91,-637.28 226.66,-568.68 210.88,-510.84 206.29,-493.98 198.33,-477.07 189.56,-461.78"/>
<polygon fill="red" stroke="red" stroke-width="0.54" points="192.45,-459.78 184.33,-452.98 186.43,-463.36 192.45,-459.78"/>
<text text-anchor="middle" x="233.88" y="-572.28" font-family="Times,serif" font-size="9.00">0.015</text>
</g>
<!-- key 27204
bias &#45;0.481
h_scaling 0.520&#45;&gt;output
bias &#45;0.971
h_scaling 0.058 -->
<g id="edge1" class="edge">
<title>key 27204
bias &#45;0.481
h_scaling 0.520&#45;&gt;output
bias &#45;0.971
h_scaling 0.058</title>
<path fill="none" stroke="red" stroke-width="0.65" d="M79.88,-511.93C77.39,-496.61 75.15,-480.18 73.88,-464.84 62.91,-331.49 60.75,-294.64 90.88,-164.28 93.29,-153.88 96.41,-143.07 99.79,-132.56"/>
<polygon fill="red" stroke="red" stroke-width="0.65" points="103.13,-133.61 102.96,-123.01 96.49,-131.4 103.13,-133.61"/>
<text text-anchor="middle" x="81.88" y="-312.36" font-family="Times,serif" font-size="9.00">0.018</text>
</g>
<!-- key 27204
bias &#45;0.481
h_scaling 0.520&#45;&gt;key 27204
bias &#45;0.481
h_scaling 0.520 -->
<g id="edge3" class="edge">
<title>key 27204
bias &#45;0.481
h_scaling 0.520&#45;&gt;key 27204
bias &#45;0.481
h_scaling 0.520</title>
<path fill="none" stroke="red" stroke-width="1.97" d="M153.83,-589.77C165.38,-587.89 173.52,-582.79 173.52,-574.48 173.52,-568.76 169.68,-564.56 163.52,-561.89"/>
<polygon fill="red" stroke="red" stroke-width="1.97" points="164.4,-558.5 153.83,-559.18 162.52,-565.24 164.4,-558.5"/>
<text text-anchor="middle" x="187.52" y="-572.28" font-family="Times,serif" font-size="9.00">0.062</text>
</g>
<!-- key 27204
bias &#45;0.481
h_scaling 0.520&#45;&gt;key 212468
bias &#45;0.996
h_scaling 0.787 -->
<g id="edge8" class="edge">
<title>key 27204
bias &#45;0.481
h_scaling 0.520&#45;&gt;key 212468
bias &#45;0.996
h_scaling 0.787</title>
<path fill="none" stroke="red" stroke-width="1.56" d="M111.12,-513.57C115.43,-500.14 120.04,-485.78 124.47,-471.99"/>
<polygon fill="red" stroke="red" stroke-width="1.56" points="127.93,-472.66 127.66,-462.07 121.27,-470.52 127.93,-472.66"/>
<text text-anchor="middle" x="133.88" y="-485.64" font-family="Times,serif" font-size="9.00">0.049</text>
</g>
<!-- key 258290
bias 0.909
h_scaling 0.748 -->
<g id="node6" class="node">
<title>key 258290
bias 0.909
h_scaling 0.748</title>
<ellipse fill="white" stroke="black" cx="201.88" cy="-227.92" rx="63.78" ry="63.78"/>
<text text-anchor="middle" x="201.88" y="-235.72" font-family="Times,serif" font-size="9.00">key 258290</text>
<text text-anchor="middle" x="201.88" y="-225.72" font-family="Times,serif" font-size="9.00">bias 0.909</text>
<text text-anchor="middle" x="201.88" y="-215.72" font-family="Times,serif" font-size="9.00">h_scaling 0.748</text>
</g>
<!-- key 258290
bias 0.909
h_scaling 0.748&#45;&gt;output
bias &#45;0.971
h_scaling 0.058 -->
<g id="edge14" class="edge">
<title>key 258290
bias 0.909
h_scaling 0.748&#45;&gt;output
bias &#45;0.971
h_scaling 0.058</title>
<path fill="none" stroke="blue" stroke-width="0.1" d="M175.09,-169.71C169.21,-157.15 162.94,-143.75 156.9,-130.88"/>
<polygon fill="blue" stroke="blue" stroke-width="0.1" points="159.98,-129.18 152.57,-121.61 153.64,-132.15 159.98,-129.18"/>
</g>
<!-- key 212468
bias &#45;0.996
h_scaling 0.787&#45;&gt;output
bias &#45;0.971
h_scaling 0.058 -->
<g id="edge9" class="edge">
<title>key 212468
bias &#45;0.996
h_scaling 0.787&#45;&gt;output
bias &#45;0.971
h_scaling 0.058</title>
<path fill="none" stroke="red" stroke-width="1.17" d="M118.21,-344.35C111.1,-327.79 104.49,-309.32 100.88,-291.56 89.63,-236.12 93.95,-220.42 100.88,-164.28 102.06,-154.76 103.85,-144.83 105.94,-135.1"/>
<polygon fill="red" stroke="red" stroke-width="1.17" points="109.42,-135.58 108.21,-125.05 102.59,-134.03 109.42,-135.58"/>
<text text-anchor="middle" x="114.88" y="-225.72" font-family="Times,serif" font-size="9.00">0.036</text>
</g>
<!-- key 212468
bias &#45;0.996
h_scaling 0.787&#45;&gt;key 258290
bias 0.909
h_scaling 0.748 -->
<g id="edge13" class="edge">
<title>key 212468
bias &#45;0.996
h_scaling 0.787&#45;&gt;key 258290
bias 0.909
h_scaling 0.748</title>
<path fill="none" stroke="blue" stroke-width="0.1" d="M166.12,-340.29C170.43,-326.86 175.04,-312.5 179.47,-298.71"/>
<polygon fill="blue" stroke="blue" stroke-width="0.1" points="182.93,-299.38 182.66,-288.79 176.27,-297.24 182.93,-299.38"/>
</g>
<!-- key 212468
bias &#45;0.996
h_scaling 0.787&#45;&gt;key 212468
bias &#45;0.996
h_scaling 0.787 -->
<g id="edge12" class="edge">
<title>key 212468
bias &#45;0.996
h_scaling 0.787&#45;&gt;key 212468
bias &#45;0.996
h_scaling 0.787</title>
<path fill="none" stroke="red" stroke-width="0.77" d="M208.83,-416.5C220.38,-414.61 228.52,-409.51 228.52,-401.2 228.52,-395.48 224.68,-391.29 218.52,-388.61"/>
<polygon fill="red" stroke="red" stroke-width="0.77" points="219.4,-385.22 208.83,-385.9 217.52,-391.96 219.4,-385.22"/>
<text text-anchor="middle" x="242.52" y="-399" font-family="Times,serif" font-size="9.00">0.022</text>
</g>
</g>
</svg>
