<?xml version="1.0" encoding="UTF-8" standalone="no"?>
<!DOCTYPE svg PUBLIC "-//W3C//DTD SVG 1.1//EN"
 "http://www.w3.org/Graphics/SVG/1.1/DTD/svg11.dtd">
<!-- Generated by graphviz version 2.43.0 (0)
 -->
<!-- Title: %3 Pages: 1 -->
<svg width="477pt" height="883pt"
 viewBox="0.00 0.00 476.64 883.40" xmlns="http://www.w3.org/2000/svg" xmlns:xlink="http://www.w3.org/1999/xlink">
<g id="graph0" class="graph" transform="scale(1 1) rotate(0) translate(4 879.4)">
<title>%3</title>
<polygon fill="white" stroke="transparent" points="-4,4 -4,-879.4 472.64,-879.4 472.64,4 -4,4"/>
<!-- ready -->
<g id="node1" class="node">
<title>ready</title>
<polygon fill="yellow" stroke="black" points="177.14,-875.4 134.14,-875.4 134.14,-857.4 177.14,-857.4 177.14,-875.4"/>
<text text-anchor="middle" x="155.64" y="-864.2" font-family="Times,serif" font-size="9.00">ready</text>
</g>
<!-- key 17031
bias &#45;1.000
h_scaling 1.000 -->
<g id="node4" class="node">
<title>key 17031
bias &#45;1.000
h_scaling 1.000</title>
<ellipse fill="white" stroke="black" cx="290.64" cy="-574.48" rx="63.78" ry="63.78"/>
<text text-anchor="middle" x="290.64" y="-582.28" font-family="Times,serif" font-size="9.00">key 17031</text>
<text text-anchor="middle" x="290.64" y="-572.28" font-family="Times,serif" font-size="9.00">bias &#45;1.000</text>
<text text-anchor="middle" x="290.64" y="-562.28" font-family="Times,serif" font-size="9.00">h_scaling 1.000</text>
</g>
<!-- ready&#45;&gt;key 17031
bias &#45;1.000
h_scaling 1.000 -->
<g id="edge17" class="edge">
<title>ready&#45;&gt;key 17031
bias &#45;1.000
h_scaling 1.000</title>
<path fill="none" stroke="blue" stroke-width="0.1" d="M177.52,-862.31C205.25,-857.13 252.15,-843.84 274.64,-811.4 307.52,-763.97 309.12,-697.5 303.87,-647.2"/>
<polygon fill="blue" stroke="blue" stroke-width="0.1" points="307.32,-646.57 302.7,-637.04 300.37,-647.38 307.32,-646.57"/>
</g>
<!-- key 25045
bias &#45;0.770
h_scaling 1.000 -->
<g id="node5" class="node">
<title>key 25045
bias &#45;0.770
h_scaling 1.000</title>
<ellipse fill="white" stroke="black" cx="63.64" cy="-401.2" rx="63.78" ry="63.78"/>
<text text-anchor="middle" x="63.64" y="-409" font-family="Times,serif" font-size="9.00">key 25045</text>
<text text-anchor="middle" x="63.64" y="-399" font-family="Times,serif" font-size="9.00">bias &#45;0.770</text>
<text text-anchor="middle" x="63.64" y="-389" font-family="Times,serif" font-size="9.00">h_scaling 1.000</text>
</g>
<!-- ready&#45;&gt;key 25045
bias &#45;0.770
h_scaling 1.000 -->
<g id="edge16" class="edge">
<title>ready&#45;&gt;key 25045
bias &#45;0.770
h_scaling 1.000</title>
<path fill="none" stroke="blue" stroke-width="0.1" d="M136.89,-857.38C119.42,-848.79 94.37,-833.37 82.64,-811.4 25.72,-704.72 36.02,-559.25 49.37,-473.57"/>
<polygon fill="blue" stroke="blue" stroke-width="0.1" points="52.82,-474.11 50.96,-463.68 45.91,-472.99 52.82,-474.11"/>
</g>
<!-- key 1048
bias &#45;0.274
h_scaling 1.000 -->
<g id="node6" class="node">
<title>key 1048
bias &#45;0.274
h_scaling 1.000</title>
<ellipse fill="white" stroke="black" cx="155.64" cy="-747.76" rx="63.78" ry="63.78"/>
<text text-anchor="middle" x="155.64" y="-755.56" font-family="Times,serif" font-size="9.00">key 1048</text>
<text text-anchor="middle" x="155.64" y="-745.56" font-family="Times,serif" font-size="9.00">bias &#45;0.274</text>
<text text-anchor="middle" x="155.64" y="-735.56" font-family="Times,serif" font-size="9.00">h_scaling 1.000</text>
</g>
<!-- ready&#45;&gt;key 1048
bias &#45;0.274
h_scaling 1.000 -->
<g id="edge2" class="edge">
<title>ready&#45;&gt;key 1048
bias &#45;0.274
h_scaling 1.000</title>
<path fill="none" stroke="blue" stroke-width="0.1" d="M155.64,-857.38C155.64,-849.35 155.64,-836.13 155.64,-821.63"/>
<polygon fill="blue" stroke="blue" stroke-width="0.1" points="159.14,-821.43 155.64,-811.43 152.14,-821.43 159.14,-821.43"/>
</g>
<!-- go -->
<g id="node2" class="node">
<title>go</title>
<polygon fill="green" stroke="black" points="383.64,-875.4 355.64,-875.4 355.64,-857.4 383.64,-857.4 383.64,-875.4"/>
<text text-anchor="middle" x="369.64" y="-864.2" font-family="Times,serif" font-size="9.00">go</text>
</g>
<!-- go&#45;&gt;key 17031
bias &#45;1.000
h_scaling 1.000 -->
<g id="edge11" class="edge">
<title>go&#45;&gt;key 17031
bias &#45;1.000
h_scaling 1.000</title>
<path fill="none" stroke="red" stroke-width="0.1" d="M367.44,-857.34C359.24,-827.25 329.87,-719.43 309.91,-646.21"/>
<polygon fill="red" stroke="red" stroke-width="0.1" points="313.17,-644.85 307.17,-636.12 306.42,-646.69 313.17,-644.85"/>
<text text-anchor="middle" x="368.64" y="-745.56" font-family="Times,serif" font-size="9.00">0.000</text>
</g>
<!-- go&#45;&gt;key 25045
bias &#45;0.770
h_scaling 1.000 -->
<g id="edge10" class="edge">
<title>go&#45;&gt;key 25045
bias &#45;0.770
h_scaling 1.000</title>
<path fill="none" stroke="red" stroke-width="0.1" d="M374.27,-857.14C397.04,-815.3 492.86,-624.19 409.64,-510.84 377.09,-466.51 227.83,-432.09 136.31,-414.7"/>
<polygon fill="red" stroke="red" stroke-width="0.1" points="136.75,-411.22 126.27,-412.81 135.46,-418.1 136.75,-411.22"/>
<text text-anchor="middle" x="454.64" y="-658.92" font-family="Times,serif" font-size="9.00">0.000</text>
</g>
<!-- go&#45;&gt;key 1048
bias &#45;0.274
h_scaling 1.000 -->
<g id="edge3" class="edge">
<title>go&#45;&gt;key 1048
bias &#45;0.274
h_scaling 1.000</title>
<path fill="none" stroke="red" stroke-width="0.1" d="M355.6,-857.74C328.61,-843.03 267.94,-809.97 220.47,-784.09"/>
<polygon fill="red" stroke="red" stroke-width="0.1" points="221.92,-780.9 211.46,-779.18 218.57,-787.04 221.92,-780.9"/>
<text text-anchor="middle" x="331.64" y="-832.2" font-family="Times,serif" font-size="9.00">0.000</text>
</g>
<!-- output
bias 0.984
h_scaling 1.000 -->
<g id="node3" class="node">
<title>output
bias 0.984
h_scaling 1.000</title>
<ellipse fill="lightblue" stroke="black" cx="178.64" cy="-63.64" rx="63.78" ry="63.78"/>
<text text-anchor="middle" x="178.64" y="-71.44" font-family="Times,serif" font-size="9.00">output</text>
<text text-anchor="middle" x="178.64" y="-61.44" font-family="Times,serif" font-size="9.00">bias 0.984</text>
<text text-anchor="middle" x="178.64" y="-51.44" font-family="Times,serif" font-size="9.00">h_scaling 1.000</text>
</g>
<!-- key 17031
bias &#45;1.000
h_scaling 1.000&#45;&gt;output
bias 0.984
h_scaling 1.000 -->
<g id="edge5" class="edge">
<title>key 17031
bias &#45;1.000
h_scaling 1.000&#45;&gt;output
bias 0.984
h_scaling 1.000</title>
<path fill="none" stroke="blue" stroke-width="0.1" d="M284.77,-510.96C275.71,-426.5 255.06,-271.93 215.64,-145.28 214.13,-140.44 212.4,-135.51 210.53,-130.6"/>
<polygon fill="blue" stroke="blue" stroke-width="0.1" points="213.73,-129.18 206.78,-121.19 207.23,-131.78 213.73,-129.18"/>
</g>
<!-- key 17031
bias &#45;1.000
h_scaling 1.000&#45;&gt;key 17031
bias &#45;1.000
h_scaling 1.000 -->
<g id="edge6" class="edge">
<title>key 17031
bias &#45;1.000
h_scaling 1.000&#45;&gt;key 17031
bias &#45;1.000
h_scaling 1.000</title>
<path fill="none" stroke="red" stroke-width="0.1" d="M352.58,-589.77C364.14,-587.89 372.28,-582.79 372.28,-574.48 372.28,-568.76 368.43,-564.56 362.27,-561.89"/>
<polygon fill="red" stroke="red" stroke-width="0.1" points="363.16,-558.5 352.58,-559.18 361.27,-565.24 363.16,-558.5"/>
<text text-anchor="middle" x="386.28" y="-572.28" font-family="Times,serif" font-size="9.00">0.000</text>
</g>
<!-- key 17031
bias &#45;1.000
h_scaling 1.000&#45;&gt;key 25045
bias &#45;0.770
h_scaling 1.000 -->
<g id="edge8" class="edge">
<title>key 17031
bias &#45;1.000
h_scaling 1.000&#45;&gt;key 25045
bias &#45;0.770
h_scaling 1.000</title>
<path fill="none" stroke="red" stroke-width="0.1" d="M240.26,-535.46C205.41,-509.17 158.92,-474.09 122.38,-446.52"/>
<polygon fill="red" stroke="red" stroke-width="0.1" points="124.36,-443.63 114.27,-440.4 120.14,-449.22 124.36,-443.63"/>
<text text-anchor="middle" x="190.64" y="-485.64" font-family="Times,serif" font-size="9.00">0.000</text>
</g>
<!-- key 25045
bias &#45;0.770
h_scaling 1.000&#45;&gt;output
bias 0.984
h_scaling 1.000 -->
<g id="edge9" class="edge">
<title>key 25045
bias &#45;0.770
h_scaling 1.000&#45;&gt;output
bias 0.984
h_scaling 1.000</title>
<path fill="none" stroke="blue" stroke-width="0.1" d="M39.41,-342.06C22.57,-292.14 7.83,-219.69 36.64,-164.28 52.63,-133.53 82.94,-110.28 111.47,-94.02"/>
<polygon fill="blue" stroke="blue" stroke-width="0.1" points="113.17,-97.08 120.25,-89.19 109.8,-90.94 113.17,-97.08"/>
</g>
<!-- key 25045
bias &#45;0.770
h_scaling 1.000&#45;&gt;key 25045
bias &#45;0.770
h_scaling 1.000 -->
<g id="edge14" class="edge">
<title>key 25045
bias &#45;0.770
h_scaling 1.000&#45;&gt;key 25045
bias &#45;0.770
h_scaling 1.000</title>
<path fill="none" stroke="red" stroke-width="0.1" d="M125.58,-416.5C137.14,-414.61 145.28,-409.51 145.28,-401.2 145.28,-395.48 141.43,-391.29 135.27,-388.61"/>
<polygon fill="red" stroke="red" stroke-width="0.1" points="136.16,-385.22 125.58,-385.9 134.27,-391.96 136.16,-385.22"/>
<text text-anchor="middle" x="159.28" y="-399" font-family="Times,serif" font-size="9.00">0.000</text>
</g>
<!-- key 77215
bias &#45;0.545
h_scaling 1.000 -->
<g id="node7" class="node">
<title>key 77215
bias &#45;0.545
h_scaling 1.000</title>
<ellipse fill="white" stroke="black" cx="109.64" cy="-227.92" rx="63.78" ry="63.78"/>
<text text-anchor="middle" x="109.64" y="-235.72" font-family="Times,serif" font-size="9.00">key 77215</text>
<text text-anchor="middle" x="109.64" y="-225.72" font-family="Times,serif" font-size="9.00">bias &#45;0.545</text>
<text text-anchor="middle" x="109.64" y="-215.72" font-family="Times,serif" font-size="9.00">h_scaling 1.000</text>
</g>
<!-- key 25045
bias &#45;0.770
h_scaling 1.000&#45;&gt;key 77215
bias &#45;0.545
h_scaling 1.000 -->
<g id="edge12" class="edge">
<title>key 25045
bias &#45;0.770
h_scaling 1.000&#45;&gt;key 77215
bias &#45;0.545
h_scaling 1.000</title>
<path fill="none" stroke="red" stroke-width="0.1" d="M79.99,-339.33C83.44,-326.46 87.12,-312.77 90.67,-299.57"/>
<polygon fill="red" stroke="red" stroke-width="0.1" points="94.13,-300.16 93.34,-289.59 87.37,-298.34 94.13,-300.16"/>
<text text-anchor="middle" x="100.64" y="-312.36" font-family="Times,serif" font-size="9.00">0.000</text>
</g>
<!-- key 1048
bias &#45;0.274
h_scaling 1.000&#45;&gt;output
bias 0.984
h_scaling 1.000 -->
<g id="edge1" class="edge">
<title>key 1048
bias &#45;0.274
h_scaling 1.000&#45;&gt;output
bias 0.984
h_scaling 1.000</title>
<path fill="none" stroke="blue" stroke-width="0.1" d="M163.33,-684.45C169.96,-627.41 179.02,-540.59 182.64,-464.84 189.01,-331.41 185.32,-297.83 182.64,-164.28 182.47,-155.6 182.21,-146.5 181.9,-137.48"/>
<polygon fill="blue" stroke="blue" stroke-width="0.1" points="185.39,-137.22 181.54,-127.35 178.4,-137.47 185.39,-137.22"/>
</g>
<!-- key 1048
bias &#45;0.274
h_scaling 1.000&#45;&gt;key 17031
bias &#45;1.000
h_scaling 1.000 -->
<g id="edge4" class="edge">
<title>key 1048
bias &#45;0.274
h_scaling 1.000&#45;&gt;key 17031
bias &#45;1.000
h_scaling 1.000</title>
<path fill="none" stroke="red" stroke-width="0.1" d="M194.69,-697.22C210.57,-677.07 229.02,-653.65 245.48,-632.77"/>
<polygon fill="red" stroke="red" stroke-width="0.1" points="248.24,-634.93 251.68,-624.91 242.74,-630.59 248.24,-634.93"/>
<text text-anchor="middle" x="236.64" y="-658.92" font-family="Times,serif" font-size="9.00">0.000</text>
</g>
<!-- key 1048
bias &#45;0.274
h_scaling 1.000&#45;&gt;key 25045
bias &#45;0.770
h_scaling 1.000 -->
<g id="edge15" class="edge">
<title>key 1048
bias &#45;0.274
h_scaling 1.000&#45;&gt;key 25045
bias &#45;0.770
h_scaling 1.000</title>
<path fill="none" stroke="red" stroke-width="0.1" d="M139.4,-685.95C123.49,-626.35 99.25,-535.56 82.49,-472.8"/>
<polygon fill="red" stroke="red" stroke-width="0.1" points="85.83,-471.73 79.87,-462.98 79.07,-473.54 85.83,-471.73"/>
<text text-anchor="middle" x="139.64" y="-572.28" font-family="Times,serif" font-size="9.00">0.000</text>
</g>
<!-- key 1048
bias &#45;0.274
h_scaling 1.000&#45;&gt;key 1048
bias &#45;0.274
h_scaling 1.000 -->
<g id="edge7" class="edge">
<title>key 1048
bias &#45;0.274
h_scaling 1.000&#45;&gt;key 1048
bias &#45;0.274
h_scaling 1.000</title>
<path fill="none" stroke="red" stroke-width="0.1" d="M217.58,-763.05C229.14,-761.17 237.28,-756.07 237.28,-747.76 237.28,-742.04 233.43,-737.84 227.27,-735.17"/>
<polygon fill="red" stroke="red" stroke-width="0.1" points="228.16,-731.78 217.58,-732.46 226.27,-738.52 228.16,-731.78"/>
<text text-anchor="middle" x="251.28" y="-745.56" font-family="Times,serif" font-size="9.00">0.000</text>
</g>
<!-- key 77215
bias &#45;0.545
h_scaling 1.000&#45;&gt;output
bias 0.984
h_scaling 1.000 -->
<g id="edge13" class="edge">
<title>key 77215
bias &#45;0.545
h_scaling 1.000&#45;&gt;output
bias 0.984
h_scaling 1.000</title>
<path fill="none" stroke="blue" stroke-width="0.1" d="M134.36,-168.79C139.47,-156.76 144.9,-143.99 150.14,-131.68"/>
<polygon fill="blue" stroke="blue" stroke-width="0.1" points="153.4,-132.93 154.1,-122.36 146.96,-130.2 153.4,-132.93"/>
</g>
</g>
</svg>
