<?xml version="1.0" encoding="UTF-8" standalone="no"?>
<!DOCTYPE svg PUBLIC "-//W3C//DTD SVG 1.1//EN"
 "http://www.w3.org/Graphics/SVG/1.1/DTD/svg11.dtd">
<!-- Generated by graphviz version 2.43.0 (0)
 -->
<!-- Title: %3 Pages: 1 -->
<svg width="439pt" height="1076pt"
 viewBox="0.00 0.00 438.50 1075.68" xmlns="http://www.w3.org/2000/svg" xmlns:xlink="http://www.w3.org/1999/xlink">
<g id="graph0" class="graph" transform="scale(1 1) rotate(0) translate(4 1071.68)">
<title>%3</title>
<polygon fill="white" stroke="transparent" points="-4,4 -4,-1071.68 434.5,-1071.68 434.5,4 -4,4"/>
<!-- ready
output 0.000 -->
<g id="node1" class="node">
<title>ready
output 0.000</title>
<polygon fill="yellow" stroke="black" points="240,-1067.68 163,-1067.68 163,-1039.68 240,-1039.68 240,-1067.68"/>
<text text-anchor="middle" x="201.5" y="-1056.48" font-family="Times,serif" font-size="9.00">ready</text>
<text text-anchor="middle" x="201.5" y="-1046.48" font-family="Times,serif" font-size="9.00">output 0.000</text>
</g>
<!-- key 268266
bias &#45;0.374
h_scaling 0.946
output 0.368 -->
<g id="node4" class="node">
<title>key 268266
bias &#45;0.374
h_scaling 0.946
output 0.368</title>
<ellipse fill="white" stroke="black" cx="297.5" cy="-930.04" rx="63.78" ry="63.78"/>
<text text-anchor="middle" x="297.5" y="-942.84" font-family="Times,serif" font-size="9.00">key 268266</text>
<text text-anchor="middle" x="297.5" y="-932.84" font-family="Times,serif" font-size="9.00">bias &#45;0.374</text>
<text text-anchor="middle" x="297.5" y="-922.84" font-family="Times,serif" font-size="9.00">h_scaling 0.946</text>
<text text-anchor="middle" x="297.5" y="-912.84" font-family="Times,serif" font-size="9.00">output 0.368</text>
</g>
<!-- ready
output 0.000&#45;&gt;key 268266
bias &#45;0.374
h_scaling 0.946
output 0.368 -->
<g id="edge16" class="edge">
<title>ready
output 0.000&#45;&gt;key 268266
bias &#45;0.374
h_scaling 0.946
output 0.368</title>
<path fill="none" stroke="blue" stroke-width="0.1" d="M211.77,-1039.66C221.59,-1027.21 237.11,-1007.56 252.25,-988.37"/>
<polygon fill="blue" stroke="blue" stroke-width="0.1" points="255.03,-990.5 258.47,-980.48 249.53,-986.17 255.03,-990.5"/>
<text text-anchor="middle" x="248" y="-1014.48" font-family="Times,serif" font-size="9.00">&#45;0.445</text>
</g>
<!-- key 8299
bias 0.370
h_scaling 0.212
output 0.527 -->
<g id="node5" class="node">
<title>key 8299
bias 0.370
h_scaling 0.212
output 0.527</title>
<ellipse fill="white" stroke="black" cx="201.5" cy="-583.48" rx="63.78" ry="63.78"/>
<text text-anchor="middle" x="201.5" y="-596.28" font-family="Times,serif" font-size="9.00">key 8299</text>
<text text-anchor="middle" x="201.5" y="-586.28" font-family="Times,serif" font-size="9.00">bias 0.370</text>
<text text-anchor="middle" x="201.5" y="-576.28" font-family="Times,serif" font-size="9.00">h_scaling 0.212</text>
<text text-anchor="middle" x="201.5" y="-566.28" font-family="Times,serif" font-size="9.00">output 0.527</text>
</g>
<!-- ready
output 0.000&#45;&gt;key 8299
bias 0.370
h_scaling 0.212
output 0.527 -->
<g id="edge6" class="edge">
<title>ready
output 0.000&#45;&gt;key 8299
bias 0.370
h_scaling 0.212
output 0.527</title>
<path fill="none" stroke="red" stroke-width="0.1" d="M201.5,-1039.66C201.5,-984.97 201.5,-771.27 201.5,-657.19"/>
<polygon fill="red" stroke="red" stroke-width="0.1" points="205,-657.14 201.5,-647.14 198,-657.14 205,-657.14"/>
<text text-anchor="middle" x="215.5" y="-841.2" font-family="Times,serif" font-size="9.00">0.169</text>
</g>
<!-- key 183
bias 0.671
h_scaling 0.713
output 0.161 -->
<g id="node7" class="node">
<title>key 183
bias 0.671
h_scaling 0.713
output 0.161</title>
<ellipse fill="white" stroke="black" cx="243.5" cy="-410.2" rx="63.78" ry="63.78"/>
<text text-anchor="middle" x="243.5" y="-423" font-family="Times,serif" font-size="9.00">key 183</text>
<text text-anchor="middle" x="243.5" y="-413" font-family="Times,serif" font-size="9.00">bias 0.671</text>
<text text-anchor="middle" x="243.5" y="-403" font-family="Times,serif" font-size="9.00">h_scaling 0.713</text>
<text text-anchor="middle" x="243.5" y="-393" font-family="Times,serif" font-size="9.00">output 0.161</text>
</g>
<!-- ready
output 0.000&#45;&gt;key 183
bias 0.671
h_scaling 0.713
output 0.161 -->
<g id="edge1" class="edge">
<title>ready
output 0.000&#45;&gt;key 183
bias 0.671
h_scaling 0.713
output 0.161</title>
<path fill="none" stroke="blue" stroke-width="0.1" d="M181.99,-1039.48C154.98,-1019.47 109.5,-978.7 109.5,-931.04 109.5,-931.04 109.5,-931.04 109.5,-669.12 109.5,-602.24 98.2,-579.46 128.5,-519.84 130.53,-515.83 160.52,-487.56 189.35,-460.86"/>
<polygon fill="blue" stroke="blue" stroke-width="0.1" points="192.07,-463.11 197.04,-453.76 187.32,-457.97 192.07,-463.11"/>
<text text-anchor="middle" x="125" y="-754.56" font-family="Times,serif" font-size="9.00">&#45;0.208</text>
</g>
<!-- go
output 0.000 -->
<g id="node2" class="node">
<title>go
output 0.000</title>
<polygon fill="green" stroke="black" points="77,-597.48 0,-597.48 0,-569.48 77,-569.48 77,-597.48"/>
<text text-anchor="middle" x="38.5" y="-586.28" font-family="Times,serif" font-size="9.00">go</text>
<text text-anchor="middle" x="38.5" y="-576.28" font-family="Times,serif" font-size="9.00">output 0.000</text>
</g>
<!-- key 85363
bias &#45;0.764
h_scaling 0.526
output 0.324 -->
<g id="node6" class="node">
<title>key 85363
bias &#45;0.764
h_scaling 0.526
output 0.324</title>
<ellipse fill="white" stroke="black" cx="243.5" cy="-236.92" rx="63.78" ry="63.78"/>
<text text-anchor="middle" x="243.5" y="-249.72" font-family="Times,serif" font-size="9.00">key 85363</text>
<text text-anchor="middle" x="243.5" y="-239.72" font-family="Times,serif" font-size="9.00">bias &#45;0.764</text>
<text text-anchor="middle" x="243.5" y="-229.72" font-family="Times,serif" font-size="9.00">h_scaling 0.526</text>
<text text-anchor="middle" x="243.5" y="-219.72" font-family="Times,serif" font-size="9.00">output 0.324</text>
</g>
<!-- go
output 0.000&#45;&gt;key 85363
bias &#45;0.764
h_scaling 0.526
output 0.324 -->
<g id="edge11" class="edge">
<title>go
output 0.000&#45;&gt;key 85363
bias &#45;0.764
h_scaling 0.526
output 0.324</title>
<path fill="none" stroke="red" stroke-width="0.1" d="M40.94,-569.25C44.5,-551.3 51.84,-518.43 62.5,-491.84 89.92,-423.42 99.3,-406.29 142.5,-346.56 156.89,-326.66 174.58,-306.5 191.11,-289.05"/>
<polygon fill="red" stroke="red" stroke-width="0.1" points="193.72,-291.39 198.11,-281.75 188.67,-286.54 193.72,-291.39"/>
<text text-anchor="middle" x="156.5" y="-408" font-family="Times,serif" font-size="9.00">1.039</text>
</g>
<!-- go
output 0.000&#45;&gt;key 183
bias 0.671
h_scaling 0.713
output 0.161 -->
<g id="edge3" class="edge">
<title>go
output 0.000&#45;&gt;key 183
bias 0.671
h_scaling 0.713
output 0.161</title>
<path fill="none" stroke="red" stroke-width="0.1" d="M40.24,-569.46C43.43,-550.26 51.89,-514.21 72.5,-491.84 99.13,-462.93 138.26,-443.43 172.37,-430.85"/>
<polygon fill="red" stroke="red" stroke-width="0.1" points="173.59,-434.13 181.84,-427.48 171.25,-427.53 173.59,-434.13"/>
<text text-anchor="middle" x="86.5" y="-494.64" font-family="Times,serif" font-size="9.00">0.739</text>
</g>
<!-- key 52792
bias 0.710
h_scaling 0.384
output 0.964 -->
<g id="node8" class="node">
<title>key 52792
bias 0.710
h_scaling 0.384
output 0.964</title>
<ellipse fill="white" stroke="black" cx="318.5" cy="-63.64" rx="63.78" ry="63.78"/>
<text text-anchor="middle" x="318.5" y="-76.44" font-family="Times,serif" font-size="9.00">key 52792</text>
<text text-anchor="middle" x="318.5" y="-66.44" font-family="Times,serif" font-size="9.00">bias 0.710</text>
<text text-anchor="middle" x="318.5" y="-56.44" font-family="Times,serif" font-size="9.00">h_scaling 0.384</text>
<text text-anchor="middle" x="318.5" y="-46.44" font-family="Times,serif" font-size="9.00">output 0.964</text>
</g>
<!-- go
output 0.000&#45;&gt;key 52792
bias 0.710
h_scaling 0.384
output 0.964 -->
<g id="edge13" class="edge">
<title>go
output 0.000&#45;&gt;key 52792
bias 0.710
h_scaling 0.384
output 0.964</title>
<path fill="none" stroke="blue" stroke-width="0.1" d="M38.16,-569.27C37.61,-532.74 38.75,-427.74 66.5,-346.56 95.55,-261.57 110,-239.66 170.5,-173.28 195.11,-146.27 227.36,-121.67 255.47,-102.73"/>
<polygon fill="blue" stroke="blue" stroke-width="0.1" points="257.65,-105.48 264.05,-97.04 253.78,-99.65 257.65,-105.48"/>
<text text-anchor="middle" x="92" y="-321.36" font-family="Times,serif" font-size="9.00">&#45;0.960</text>
</g>
<!-- output
bias 0.977
h_scaling 0.767
output 0.999 -->
<g id="node3" class="node">
<title>output
bias 0.977
h_scaling 0.767
output 0.999</title>
<ellipse fill="lightblue" stroke="black" cx="301.5" cy="-756.76" rx="63.78" ry="63.78"/>
<text text-anchor="middle" x="301.5" y="-769.56" font-family="Times,serif" font-size="9.00">output</text>
<text text-anchor="middle" x="301.5" y="-759.56" font-family="Times,serif" font-size="9.00">bias 0.977</text>
<text text-anchor="middle" x="301.5" y="-749.56" font-family="Times,serif" font-size="9.00">h_scaling 0.767</text>
<text text-anchor="middle" x="301.5" y="-739.56" font-family="Times,serif" font-size="9.00">output 0.999</text>
</g>
<!-- output
bias 0.977
h_scaling 0.767
output 0.999&#45;&gt;key 8299
bias 0.370
h_scaling 0.212
output 0.527 -->
<g id="edge5" class="edge">
<title>output
bias 0.977
h_scaling 0.767
output 0.999&#45;&gt;key 8299
bias 0.370
h_scaling 0.212
output 0.527</title>
<path fill="none" stroke="blue" stroke-width="0.1" d="M269.58,-701.09C259.7,-684.17 248.73,-665.38 238.54,-647.91"/>
<polygon fill="blue" stroke="blue" stroke-width="0.1" points="241.35,-645.79 233.28,-638.92 235.3,-649.32 241.35,-645.79"/>
<text text-anchor="middle" x="267" y="-667.92" font-family="Times,serif" font-size="9.00">&#45;0.166</text>
</g>
<!-- key 268266
bias &#45;0.374
h_scaling 0.946
output 0.368&#45;&gt;output
bias 0.977
h_scaling 0.767
output 0.999 -->
<g id="edge15" class="edge">
<title>key 268266
bias &#45;0.374
h_scaling 0.946
output 0.368&#45;&gt;output
bias 0.977
h_scaling 0.767
output 0.999</title>
<path fill="none" stroke="blue" stroke-width="0.1" d="M298.97,-866.23C299.24,-854.71 299.52,-842.6 299.79,-830.81"/>
<polygon fill="blue" stroke="blue" stroke-width="0.1" points="303.3,-830.63 300.03,-820.55 296.3,-830.47 303.3,-830.63"/>
<text text-anchor="middle" x="315" y="-841.2" font-family="Times,serif" font-size="9.00">&#45;0.442</text>
</g>
<!-- key 268266
bias &#45;0.374
h_scaling 0.946
output 0.368&#45;&gt;key 268266
bias &#45;0.374
h_scaling 0.946
output 0.368 -->
<g id="edge17" class="edge">
<title>key 268266
bias &#45;0.374
h_scaling 0.946
output 0.368&#45;&gt;key 268266
bias &#45;0.374
h_scaling 0.946
output 0.368</title>
<path fill="none" stroke="red" stroke-width="0.1" d="M359.44,-945.33C371,-943.45 379.14,-938.35 379.14,-930.04 379.14,-924.32 375.29,-920.12 369.13,-917.45"/>
<polygon fill="red" stroke="red" stroke-width="0.1" points="370.02,-914.06 359.44,-914.74 368.13,-920.8 370.02,-914.06"/>
<text text-anchor="middle" x="393.14" y="-927.84" font-family="Times,serif" font-size="9.00">0.032</text>
</g>
<!-- key 8299
bias 0.370
h_scaling 0.212
output 0.527&#45;&gt;key 183
bias 0.671
h_scaling 0.713
output 0.161 -->
<g id="edge4" class="edge">
<title>key 8299
bias 0.370
h_scaling 0.212
output 0.527&#45;&gt;key 183
bias 0.671
h_scaling 0.713
output 0.161</title>
<path fill="none" stroke="blue" stroke-width="0.1" d="M192.87,-520.01C193.03,-510.47 194.07,-500.81 196.5,-491.84 198.26,-485.32 200.69,-478.79 203.53,-472.42"/>
<polygon fill="blue" stroke="blue" stroke-width="0.1" points="206.77,-473.76 207.95,-463.23 200.46,-470.73 206.77,-473.76"/>
<text text-anchor="middle" x="212" y="-494.64" font-family="Times,serif" font-size="9.00">&#45;0.688</text>
</g>
<!-- key 85363
bias &#45;0.764
h_scaling 0.526
output 0.324&#45;&gt;output
bias 0.977
h_scaling 0.767
output 0.999 -->
<g id="edge14" class="edge">
<title>key 85363
bias &#45;0.764
h_scaling 0.526
output 0.324&#45;&gt;output
bias 0.977
h_scaling 0.767
output 0.999</title>
<path fill="none" stroke="blue" stroke-width="0.1" d="M284.03,-286.35C296.71,-304.18 309.26,-325.26 316.5,-346.56 359.5,-473.12 343.16,-514.37 327.5,-647.12 326.03,-659.58 323.64,-672.68 320.89,-685.3"/>
<polygon fill="blue" stroke="blue" stroke-width="0.1" points="317.42,-684.78 318.62,-695.3 324.25,-686.33 317.42,-684.78"/>
<text text-anchor="middle" x="359" y="-494.64" font-family="Times,serif" font-size="9.00">&#45;0.760</text>
</g>
<!-- key 85363
bias &#45;0.764
h_scaling 0.526
output 0.324&#45;&gt;key 52792
bias 0.710
h_scaling 0.384
output 0.964 -->
<g id="edge10" class="edge">
<title>key 85363
bias &#45;0.764
h_scaling 0.526
output 0.324&#45;&gt;key 52792
bias 0.710
h_scaling 0.384
output 0.964</title>
<path fill="none" stroke="red" stroke-width="0.1" d="M268.68,-178.41C275.24,-163.44 282.36,-147.18 289.11,-131.76"/>
<polygon fill="red" stroke="red" stroke-width="0.1" points="292.45,-132.85 293.26,-122.29 286.04,-130.05 292.45,-132.85"/>
<text text-anchor="middle" x="294.5" y="-148.08" font-family="Times,serif" font-size="9.00">0.205</text>
</g>
<!-- key 183
bias 0.671
h_scaling 0.713
output 0.161&#45;&gt;output
bias 0.977
h_scaling 0.767
output 0.999 -->
<g id="edge2" class="edge">
<title>key 183
bias 0.671
h_scaling 0.713
output 0.161&#45;&gt;output
bias 0.977
h_scaling 0.767
output 0.999</title>
<path fill="none" stroke="blue" stroke-width="0.1" d="M262.49,-471.11C266.96,-486.84 271.33,-503.87 274.5,-519.84 285.27,-574.09 292.17,-636.27 296.29,-683.17"/>
<polygon fill="blue" stroke="blue" stroke-width="0.1" points="292.81,-683.57 297.16,-693.24 299.79,-682.97 292.81,-683.57"/>
<text text-anchor="middle" x="308" y="-581.28" font-family="Times,serif" font-size="9.00">&#45;1.000</text>
</g>
<!-- key 183
bias 0.671
h_scaling 0.713
output 0.161&#45;&gt;key 8299
bias 0.370
h_scaling 0.212
output 0.527 -->
<g id="edge7" class="edge">
<title>key 183
bias 0.671
h_scaling 0.713
output 0.161&#45;&gt;key 8299
bias 0.370
h_scaling 0.212
output 0.527</title>
<path fill="none" stroke="blue" stroke-width="0.1" d="M233.69,-473.36C231.85,-482.94 229.77,-492.69 227.5,-501.84 226.6,-505.48 225.61,-509.19 224.58,-512.93"/>
<polygon fill="blue" stroke="blue" stroke-width="0.1" points="221.13,-512.27 221.73,-522.85 227.86,-514.21 221.13,-512.27"/>
<text text-anchor="middle" x="245" y="-494.64" font-family="Times,serif" font-size="9.00">&#45;0.277</text>
</g>
<!-- key 183
bias 0.671
h_scaling 0.713
output 0.161&#45;&gt;key 85363
bias &#45;0.764
h_scaling 0.526
output 0.324 -->
<g id="edge12" class="edge">
<title>key 183
bias 0.671
h_scaling 0.713
output 0.161&#45;&gt;key 85363
bias &#45;0.764
h_scaling 0.526
output 0.324</title>
<path fill="none" stroke="red" stroke-width="0.1" d="M243.5,-346.39C243.5,-334.87 243.5,-322.76 243.5,-310.97"/>
<polygon fill="red" stroke="red" stroke-width="0.1" points="247,-310.72 243.5,-300.72 240,-310.72 247,-310.72"/>
<text text-anchor="middle" x="257.5" y="-321.36" font-family="Times,serif" font-size="9.00">0.812</text>
</g>
<!-- key 183
bias 0.671
h_scaling 0.713
output 0.161&#45;&gt;key 52792
bias 0.710
h_scaling 0.384
output 0.964 -->
<g id="edge8" class="edge">
<title>key 183
bias 0.671
h_scaling 0.713
output 0.161&#45;&gt;key 52792
bias 0.710
h_scaling 0.384
output 0.964</title>
<path fill="none" stroke="blue" stroke-width="0.1" d="M284.5,-361.25C297.3,-343.38 309.82,-322.16 316.5,-300.56 332.91,-247.52 332.5,-184.5 328.49,-136.95"/>
<polygon fill="blue" stroke="blue" stroke-width="0.1" points="331.95,-136.37 327.55,-126.74 324.98,-137.01 331.95,-136.37"/>
<text text-anchor="middle" x="346" y="-234.72" font-family="Times,serif" font-size="9.00">&#45;0.700</text>
</g>
<!-- key 52792
bias 0.710
h_scaling 0.384
output 0.964&#45;&gt;output
bias 0.977
h_scaling 0.767
output 0.999 -->
<g id="edge9" class="edge">
<title>key 52792
bias 0.710
h_scaling 0.384
output 0.964&#45;&gt;output
bias 0.977
h_scaling 0.767
output 0.999</title>
<path fill="none" stroke="red" stroke-width="0.1" d="M357.55,-114.02C379.49,-146.69 402.5,-191.54 402.5,-235.92 402.5,-584.48 402.5,-584.48 402.5,-584.48 402.5,-628.55 377.38,-671.27 352.19,-703.02"/>
<polygon fill="red" stroke="red" stroke-width="0.1" points="349.41,-700.89 345.8,-710.85 354.83,-705.31 349.41,-700.89"/>
<text text-anchor="middle" x="416.5" y="-408" font-family="Times,serif" font-size="9.00">1.030</text>
</g>
</g>
</svg>
