<?xml version="1.0" encoding="UTF-8" standalone="no"?>
<!DOCTYPE svg PUBLIC "-//W3C//DTD SVG 1.1//EN"
 "http://www.w3.org/Graphics/SVG/1.1/DTD/svg11.dtd">
<!-- Generated by graphviz version 2.43.0 (0)
 -->
<!-- Title: %3 Pages: 1 -->
<svg width="487pt" height="902pt"
 viewBox="0.00 0.00 486.64 902.40" xmlns="http://www.w3.org/2000/svg" xmlns:xlink="http://www.w3.org/1999/xlink">
<g id="graph0" class="graph" transform="scale(1 1) rotate(0) translate(4 898.4)">
<title>%3</title>
<polygon fill="white" stroke="transparent" points="-4,4 -4,-898.4 482.64,-898.4 482.64,4 -4,4"/>
<!-- ready
output 0.000 -->
<g id="node1" class="node">
<title>ready
output 0.000</title>
<polygon fill="yellow" stroke="black" points="159.14,-894.4 82.14,-894.4 82.14,-866.4 159.14,-866.4 159.14,-894.4"/>
<text text-anchor="middle" x="120.64" y="-883.2" font-family="Times,serif" font-size="9.00">ready</text>
<text text-anchor="middle" x="120.64" y="-873.2" font-family="Times,serif" font-size="9.00">output 0.000</text>
</g>
<!-- key 3008
bias &#45;0.541
h_scaling 0.217
output 0.356 -->
<g id="node4" class="node">
<title>key 3008
bias &#45;0.541
h_scaling 0.217
output 0.356</title>
<ellipse fill="white" stroke="black" cx="258.64" cy="-756.76" rx="63.78" ry="63.78"/>
<text text-anchor="middle" x="258.64" y="-769.56" font-family="Times,serif" font-size="9.00">key 3008</text>
<text text-anchor="middle" x="258.64" y="-759.56" font-family="Times,serif" font-size="9.00">bias &#45;0.541</text>
<text text-anchor="middle" x="258.64" y="-749.56" font-family="Times,serif" font-size="9.00">h_scaling 0.217</text>
<text text-anchor="middle" x="258.64" y="-739.56" font-family="Times,serif" font-size="9.00">output 0.356</text>
</g>
<!-- ready
output 0.000&#45;&gt;key 3008
bias &#45;0.541
h_scaling 0.217
output 0.356 -->
<g id="edge2" class="edge">
<title>ready
output 0.000&#45;&gt;key 3008
bias &#45;0.541
h_scaling 0.217
output 0.356</title>
<path fill="none" stroke="red" stroke-width="0.1" d="M135.41,-866.38C151.73,-851.99 178.98,-827.97 203.72,-806.17"/>
<polygon fill="red" stroke="red" stroke-width="0.1" points="206.11,-808.72 211.3,-799.48 201.48,-803.47 206.11,-808.72"/>
<text text-anchor="middle" x="178.64" y="-841.2" font-family="Times,serif" font-size="9.00">0.318</text>
</g>
<!-- key 26755
bias &#45;0.361
h_scaling 0.666
output 0.699 -->
<g id="node5" class="node">
<title>key 26755
bias &#45;0.361
h_scaling 0.666
output 0.699</title>
<ellipse fill="white" stroke="black" cx="63.64" cy="-236.92" rx="63.78" ry="63.78"/>
<text text-anchor="middle" x="63.64" y="-249.72" font-family="Times,serif" font-size="9.00">key 26755</text>
<text text-anchor="middle" x="63.64" y="-239.72" font-family="Times,serif" font-size="9.00">bias &#45;0.361</text>
<text text-anchor="middle" x="63.64" y="-229.72" font-family="Times,serif" font-size="9.00">h_scaling 0.666</text>
<text text-anchor="middle" x="63.64" y="-219.72" font-family="Times,serif" font-size="9.00">output 0.699</text>
</g>
<!-- ready
output 0.000&#45;&gt;key 26755
bias &#45;0.361
h_scaling 0.666
output 0.699 -->
<g id="edge8" class="edge">
<title>ready
output 0.000&#45;&gt;key 26755
bias &#45;0.361
h_scaling 0.666
output 0.699</title>
<path fill="none" stroke="red" stroke-width="0.1" d="M98.51,-866.39C68.51,-846.9 18.64,-807.09 18.64,-757.76 18.64,-757.76 18.64,-757.76 18.64,-409.2 18.64,-374.52 27.38,-337.15 37.15,-306.19"/>
<polygon fill="red" stroke="red" stroke-width="0.1" points="40.58,-306.97 40.35,-296.38 33.92,-304.8 40.58,-306.97"/>
<text text-anchor="middle" x="32.64" y="-581.28" font-family="Times,serif" font-size="9.00">0.635</text>
</g>
<!-- key 18534
bias &#45;0.768
h_scaling 0.143
output 0.800 -->
<g id="node6" class="node">
<title>key 18534
bias &#45;0.768
h_scaling 0.143
output 0.800</title>
<ellipse fill="white" stroke="black" cx="251.64" cy="-63.64" rx="63.78" ry="63.78"/>
<text text-anchor="middle" x="251.64" y="-76.44" font-family="Times,serif" font-size="9.00">key 18534</text>
<text text-anchor="middle" x="251.64" y="-66.44" font-family="Times,serif" font-size="9.00">bias &#45;0.768</text>
<text text-anchor="middle" x="251.64" y="-56.44" font-family="Times,serif" font-size="9.00">h_scaling 0.143</text>
<text text-anchor="middle" x="251.64" y="-46.44" font-family="Times,serif" font-size="9.00">output 0.800</text>
</g>
<!-- ready
output 0.000&#45;&gt;key 18534
bias &#45;0.768
h_scaling 0.143
output 0.800 -->
<g id="edge3" class="edge">
<title>ready
output 0.000&#45;&gt;key 18534
bias &#45;0.768
h_scaling 0.143
output 0.800</title>
<path fill="none" stroke="red" stroke-width="0.1" d="M159.39,-877.65C229.14,-872.22 368.64,-849.83 368.64,-757.76 368.64,-757.76 368.64,-757.76 368.64,-235.92 368.64,-188.24 337.35,-144.07 307.13,-112.53"/>
<polygon fill="red" stroke="red" stroke-width="0.1" points="309.42,-109.86 299.9,-105.19 304.43,-114.77 309.42,-109.86"/>
<text text-anchor="middle" x="382.64" y="-494.64" font-family="Times,serif" font-size="9.00">0.213</text>
</g>
<!-- key 130681
bias &#45;0.424
h_scaling 0.399
output 0.829 -->
<g id="node8" class="node">
<title>key 130681
bias &#45;0.424
h_scaling 0.399
output 0.829</title>
<ellipse fill="white" stroke="black" cx="110.64" cy="-410.2" rx="63.78" ry="63.78"/>
<text text-anchor="middle" x="110.64" y="-423" font-family="Times,serif" font-size="9.00">key 130681</text>
<text text-anchor="middle" x="110.64" y="-413" font-family="Times,serif" font-size="9.00">bias &#45;0.424</text>
<text text-anchor="middle" x="110.64" y="-403" font-family="Times,serif" font-size="9.00">h_scaling 0.399</text>
<text text-anchor="middle" x="110.64" y="-393" font-family="Times,serif" font-size="9.00">output 0.829</text>
</g>
<!-- ready
output 0.000&#45;&gt;key 130681
bias &#45;0.424
h_scaling 0.399
output 0.829 -->
<g id="edge12" class="edge">
<title>ready
output 0.000&#45;&gt;key 130681
bias &#45;0.424
h_scaling 0.399
output 0.829</title>
<path fill="none" stroke="red" stroke-width="0.1" d="M118.22,-866.33C109.83,-819.45 83.11,-655.27 93.64,-519.84 94.56,-507.94 96.05,-495.38 97.77,-483.18"/>
<polygon fill="red" stroke="red" stroke-width="0.1" points="101.27,-483.45 99.26,-473.05 94.34,-482.43 101.27,-483.45"/>
<text text-anchor="middle" x="107.64" y="-667.92" font-family="Times,serif" font-size="9.00">0.124</text>
</g>
<!-- go
output 0.000 -->
<g id="node2" class="node">
<title>go
output 0.000</title>
<polygon fill="green" stroke="black" points="463.14,-894.4 386.14,-894.4 386.14,-866.4 463.14,-866.4 463.14,-894.4"/>
<text text-anchor="middle" x="424.64" y="-883.2" font-family="Times,serif" font-size="9.00">go</text>
<text text-anchor="middle" x="424.64" y="-873.2" font-family="Times,serif" font-size="9.00">output 0.000</text>
</g>
<!-- go
output 0.000&#45;&gt;key 3008
bias &#45;0.541
h_scaling 0.217
output 0.356 -->
<g id="edge9" class="edge">
<title>go
output 0.000&#45;&gt;key 3008
bias &#45;0.541
h_scaling 0.217
output 0.356</title>
<path fill="none" stroke="blue" stroke-width="0.1" d="M406.87,-866.38C385.76,-850.91 349.43,-824.29 318.02,-801.27"/>
<polygon fill="blue" stroke="blue" stroke-width="0.1" points="319.87,-798.29 309.74,-795.2 315.73,-803.93 319.87,-798.29"/>
<text text-anchor="middle" x="395.14" y="-841.2" font-family="Times,serif" font-size="9.00">&#45;0.743</text>
</g>
<!-- go
output 0.000&#45;&gt;key 18534
bias &#45;0.768
h_scaling 0.143
output 0.800 -->
<g id="edge14" class="edge">
<title>go
output 0.000&#45;&gt;key 18534
bias &#45;0.768
h_scaling 0.143
output 0.800</title>
<path fill="none" stroke="blue" stroke-width="0.1" d="M428.86,-866.05C435.5,-843.83 447.64,-797.73 447.64,-757.76 447.64,-757.76 447.64,-757.76 447.64,-235.92 447.64,-166.36 376.78,-118.52 320.27,-91.44"/>
<polygon fill="blue" stroke="blue" stroke-width="0.1" points="321.52,-88.16 310.98,-87.11 318.56,-94.5 321.52,-88.16"/>
<text text-anchor="middle" x="463.14" y="-494.64" font-family="Times,serif" font-size="9.00">&#45;0.944</text>
</g>
<!-- output
bias &#45;1.000
h_scaling 0.525
output 0.254 -->
<g id="node3" class="node">
<title>output
bias &#45;1.000
h_scaling 0.525
output 0.254</title>
<ellipse fill="lightblue" stroke="black" cx="166.64" cy="-583.48" rx="63.78" ry="63.78"/>
<text text-anchor="middle" x="166.64" y="-596.28" font-family="Times,serif" font-size="9.00">output</text>
<text text-anchor="middle" x="166.64" y="-586.28" font-family="Times,serif" font-size="9.00">bias &#45;1.000</text>
<text text-anchor="middle" x="166.64" y="-576.28" font-family="Times,serif" font-size="9.00">h_scaling 0.525</text>
<text text-anchor="middle" x="166.64" y="-566.28" font-family="Times,serif" font-size="9.00">output 0.254</text>
</g>
<!-- output
bias &#45;1.000
h_scaling 0.525
output 0.254&#45;&gt;key 130681
bias &#45;0.424
h_scaling 0.399
output 0.829 -->
<g id="edge16" class="edge">
<title>output
bias &#45;1.000
h_scaling 0.525
output 0.254&#45;&gt;key 130681
bias &#45;0.424
h_scaling 0.399
output 0.829</title>
<path fill="none" stroke="blue" stroke-width="0.1" d="M147.05,-522.57C142.62,-509.01 137.88,-494.5 133.33,-480.59"/>
<polygon fill="blue" stroke="blue" stroke-width="0.1" points="136.65,-479.49 130.21,-471.07 130,-481.66 136.65,-479.49"/>
<text text-anchor="middle" x="154.14" y="-494.64" font-family="Times,serif" font-size="9.00">&#45;0.429</text>
</g>
<!-- key 3008
bias &#45;0.541
h_scaling 0.217
output 0.356&#45;&gt;output
bias &#45;1.000
h_scaling 0.525
output 0.254 -->
<g id="edge1" class="edge">
<title>key 3008
bias &#45;0.541
h_scaling 0.217
output 0.356&#45;&gt;output
bias &#45;1.000
h_scaling 0.525
output 0.254</title>
<path fill="none" stroke="red" stroke-width="0.1" d="M228.77,-700.15C220,-683.83 210.34,-665.84 201.31,-649.02"/>
<polygon fill="red" stroke="red" stroke-width="0.1" points="204.17,-646.96 196.36,-639.81 198.01,-650.27 204.17,-646.96"/>
<text text-anchor="middle" x="226.64" y="-667.92" font-family="Times,serif" font-size="9.00">0.988</text>
</g>
<!-- key 3008
bias &#45;0.541
h_scaling 0.217
output 0.356&#45;&gt;key 18534
bias &#45;0.768
h_scaling 0.143
output 0.800 -->
<g id="edge5" class="edge">
<title>key 3008
bias &#45;0.541
h_scaling 0.217
output 0.356&#45;&gt;key 18534
bias &#45;0.768
h_scaling 0.143
output 0.800</title>
<path fill="none" stroke="red" stroke-width="0.1" d="M258,-692.9C256.71,-564.8 253.76,-274.15 252.38,-137.81"/>
<polygon fill="red" stroke="red" stroke-width="0.1" points="255.88,-137.44 252.28,-127.48 248.88,-137.51 255.88,-137.44"/>
<text text-anchor="middle" x="269.64" y="-408" font-family="Times,serif" font-size="9.00">1.006</text>
</g>
<!-- key 26755
bias &#45;0.361
h_scaling 0.666
output 0.699&#45;&gt;key 26755
bias &#45;0.361
h_scaling 0.666
output 0.699 -->
<g id="edge11" class="edge">
<title>key 26755
bias &#45;0.361
h_scaling 0.666
output 0.699&#45;&gt;key 26755
bias &#45;0.361
h_scaling 0.666
output 0.699</title>
<path fill="none" stroke="red" stroke-width="0.1" d="M125.58,-252.22C137.14,-250.33 145.28,-245.23 145.28,-236.92 145.28,-231.2 141.43,-227.01 135.27,-224.33"/>
<polygon fill="red" stroke="red" stroke-width="0.1" points="136.16,-220.94 125.58,-221.62 134.27,-227.68 136.16,-220.94"/>
<text text-anchor="middle" x="159.28" y="-234.72" font-family="Times,serif" font-size="9.00">0.389</text>
</g>
<!-- key 26755
bias &#45;0.361
h_scaling 0.666
output 0.699&#45;&gt;key 18534
bias &#45;0.768
h_scaling 0.143
output 0.800 -->
<g id="edge6" class="edge">
<title>key 26755
bias &#45;0.361
h_scaling 0.666
output 0.699&#45;&gt;key 18534
bias &#45;0.768
h_scaling 0.143
output 0.800</title>
<path fill="none" stroke="red" stroke-width="0.1" d="M109.79,-192.33C125.8,-177.33 143.93,-160.48 160.64,-145.28 172.17,-134.79 184.61,-123.64 196.49,-113.09"/>
<polygon fill="red" stroke="red" stroke-width="0.1" points="199.04,-115.51 204.2,-106.26 194.39,-110.27 199.04,-115.51"/>
<text text-anchor="middle" x="174.64" y="-148.08" font-family="Times,serif" font-size="9.00">0.523</text>
</g>
<!-- key 45681
bias &#45;0.975
h_scaling 1.000
output 0.004 -->
<g id="node7" class="node">
<title>key 45681
bias &#45;0.975
h_scaling 1.000
output 0.004</title>
<ellipse fill="white" stroke="black" cx="82.64" cy="-63.64" rx="63.78" ry="63.78"/>
<text text-anchor="middle" x="82.64" y="-76.44" font-family="Times,serif" font-size="9.00">key 45681</text>
<text text-anchor="middle" x="82.64" y="-66.44" font-family="Times,serif" font-size="9.00">bias &#45;0.975</text>
<text text-anchor="middle" x="82.64" y="-56.44" font-family="Times,serif" font-size="9.00">h_scaling 1.000</text>
<text text-anchor="middle" x="82.64" y="-46.44" font-family="Times,serif" font-size="9.00">output 0.004</text>
</g>
<!-- key 26755
bias &#45;0.361
h_scaling 0.666
output 0.699&#45;&gt;key 45681
bias &#45;0.975
h_scaling 1.000
output 0.004 -->
<g id="edge18" class="edge">
<title>key 26755
bias &#45;0.361
h_scaling 0.666
output 0.699&#45;&gt;key 45681
bias &#45;0.975
h_scaling 1.000
output 0.004</title>
<path fill="none" stroke="blue" stroke-width="0.1" d="M70.55,-173.6C71.87,-161.72 73.26,-149.19 74.61,-137.02"/>
<polygon fill="blue" stroke="blue" stroke-width="0.1" points="78.11,-137.24 75.73,-126.91 71.15,-136.47 78.11,-137.24"/>
<text text-anchor="middle" x="89.14" y="-148.08" font-family="Times,serif" font-size="9.00">&#45;0.126</text>
</g>
<!-- key 26755
bias &#45;0.361
h_scaling 0.666
output 0.699&#45;&gt;key 130681
bias &#45;0.424
h_scaling 0.399
output 0.829 -->
<g id="edge15" class="edge">
<title>key 26755
bias &#45;0.361
h_scaling 0.666
output 0.699&#45;&gt;key 130681
bias &#45;0.424
h_scaling 0.399
output 0.829</title>
<path fill="none" stroke="red" stroke-width="0.1" d="M84.26,-297.15C86.53,-304.33 88.71,-311.59 90.64,-318.56 92.33,-324.67 93.98,-331.05 95.55,-337.47"/>
<polygon fill="red" stroke="red" stroke-width="0.1" points="92.23,-338.63 97.96,-347.55 99.04,-337.01 92.23,-338.63"/>
<text text-anchor="middle" x="106.64" y="-321.36" font-family="Times,serif" font-size="9.00">0.863</text>
</g>
<!-- key 18534
bias &#45;0.768
h_scaling 0.143
output 0.800&#45;&gt;output
bias &#45;1.000
h_scaling 0.525
output 0.254 -->
<g id="edge7" class="edge">
<title>key 18534
bias &#45;0.768
h_scaling 0.143
output 0.800&#45;&gt;output
bias &#45;1.000
h_scaling 0.525
output 0.254</title>
<path fill="none" stroke="red" stroke-width="0.1" d="M238.34,-126.22C237.05,-132.65 235.79,-139.09 234.64,-145.28 207.6,-290.56 205.89,-327.75 183.64,-473.84 181.84,-485.63 179.91,-498.14 178.02,-510.32"/>
<polygon fill="red" stroke="red" stroke-width="0.1" points="174.52,-510.02 176.44,-520.44 181.44,-511.1 174.52,-510.02"/>
<text text-anchor="middle" x="219.64" y="-321.36" font-family="Times,serif" font-size="9.00">0.997</text>
</g>
<!-- key 18534
bias &#45;0.768
h_scaling 0.143
output 0.800&#45;&gt;key 3008
bias &#45;0.541
h_scaling 0.217
output 0.356 -->
<g id="edge4" class="edge">
<title>key 18534
bias &#45;0.768
h_scaling 0.143
output 0.800&#45;&gt;key 3008
bias &#45;0.541
h_scaling 0.217
output 0.356</title>
<path fill="none" stroke="red" stroke-width="0.1" d="M281.96,-119.59C297.27,-152.36 312.64,-195.36 312.64,-235.92 312.64,-584.48 312.64,-584.48 312.64,-584.48 312.64,-620.36 301.72,-658.6 289.71,-689.82"/>
<polygon fill="red" stroke="red" stroke-width="0.1" points="286.39,-688.69 285.96,-699.28 292.9,-691.27 286.39,-688.69"/>
<text text-anchor="middle" x="326.64" y="-408" font-family="Times,serif" font-size="9.00">1.022</text>
</g>
<!-- key 18534
bias &#45;0.768
h_scaling 0.143
output 0.800&#45;&gt;key 18534
bias &#45;0.768
h_scaling 0.143
output 0.800 -->
<g id="edge17" class="edge">
<title>key 18534
bias &#45;0.768
h_scaling 0.143
output 0.800&#45;&gt;key 18534
bias &#45;0.768
h_scaling 0.143
output 0.800</title>
<path fill="none" stroke="red" stroke-width="0.1" d="M313.58,-78.94C325.14,-77.05 333.28,-71.95 333.28,-63.64 333.28,-57.92 329.43,-53.73 323.27,-51.05"/>
<polygon fill="red" stroke="red" stroke-width="0.1" points="324.16,-47.66 313.58,-48.34 322.27,-54.4 324.16,-47.66"/>
<text text-anchor="middle" x="347.28" y="-61.44" font-family="Times,serif" font-size="9.00">0.358</text>
</g>
<!-- key 45681
bias &#45;0.975
h_scaling 1.000
output 0.004&#45;&gt;key 26755
bias &#45;0.361
h_scaling 0.666
output 0.699 -->
<g id="edge10" class="edge">
<title>key 45681
bias &#45;0.975
h_scaling 1.000
output 0.004&#45;&gt;key 26755
bias &#45;0.361
h_scaling 0.666
output 0.699</title>
<path fill="none" stroke="red" stroke-width="0.1" d="M47.62,-117.18C43.09,-126.22 39.16,-135.78 36.64,-145.28 34.6,-152.98 34.3,-161.02 35.16,-168.99"/>
<polygon fill="red" stroke="red" stroke-width="0.1" points="31.73,-169.72 36.82,-179.01 38.64,-168.58 31.73,-169.72"/>
<text text-anchor="middle" x="50.64" y="-148.08" font-family="Times,serif" font-size="9.00">0.968</text>
</g>
<!-- key 130681
bias &#45;0.424
h_scaling 0.399
output 0.829&#45;&gt;key 26755
bias &#45;0.361
h_scaling 0.666
output 0.699 -->
<g id="edge13" class="edge">
<title>key 130681
bias &#45;0.424
h_scaling 0.399
output 0.829&#45;&gt;key 26755
bias &#45;0.361
h_scaling 0.666
output 0.699</title>
<path fill="none" stroke="red" stroke-width="0.1" d="M74.57,-357.68C69.65,-348.36 65.36,-338.46 62.64,-328.56 61.06,-322.82 59.97,-316.81 59.26,-310.71"/>
<polygon fill="red" stroke="red" stroke-width="0.1" points="62.72,-310.1 58.4,-300.43 55.75,-310.69 62.72,-310.1"/>
<text text-anchor="middle" x="76.64" y="-321.36" font-family="Times,serif" font-size="9.00">0.562</text>
</g>
</g>
</svg>
