<?xml version="1.0" encoding="UTF-8" standalone="no"?>
<!DOCTYPE svg PUBLIC "-//W3C//DTD SVG 1.1//EN"
 "http://www.w3.org/Graphics/SVG/1.1/DTD/svg11.dtd">
<!-- Generated by graphviz version 2.43.0 (0)
 -->
<!-- Title: %3 Pages: 1 -->
<svg width="467pt" height="902pt"
 viewBox="0.00 0.00 467.47 902.40" xmlns="http://www.w3.org/2000/svg" xmlns:xlink="http://www.w3.org/1999/xlink">
<g id="graph0" class="graph" transform="scale(1 1) rotate(0) translate(4 898.4)">
<title>%3</title>
<polygon fill="white" stroke="transparent" points="-4,4 -4,-898.4 463.47,-898.4 463.47,4 -4,4"/>
<!-- ready
output 1.000 -->
<g id="node1" class="node">
<title>ready
output 1.000</title>
<polygon fill="yellow" stroke="black" points="276.97,-894.4 199.97,-894.4 199.97,-866.4 276.97,-866.4 276.97,-894.4"/>
<text text-anchor="middle" x="238.47" y="-883.2" font-family="Times,serif" font-size="9.00">ready</text>
<text text-anchor="middle" x="238.47" y="-873.2" font-family="Times,serif" font-size="9.00">output 1.000</text>
</g>
<!-- key 23464
bias &#45;0.461
h_scaling 1.000
output 0.970 -->
<g id="node4" class="node">
<title>key 23464
bias &#45;0.461
h_scaling 1.000
output 0.970</title>
<ellipse fill="white" stroke="black" cx="92.47" cy="-756.76" rx="63.78" ry="63.78"/>
<text text-anchor="middle" x="92.47" y="-769.56" font-family="Times,serif" font-size="9.00">key 23464</text>
<text text-anchor="middle" x="92.47" y="-759.56" font-family="Times,serif" font-size="9.00">bias &#45;0.461</text>
<text text-anchor="middle" x="92.47" y="-749.56" font-family="Times,serif" font-size="9.00">h_scaling 1.000</text>
<text text-anchor="middle" x="92.47" y="-739.56" font-family="Times,serif" font-size="9.00">output 0.970</text>
</g>
<!-- ready
output 1.000&#45;&gt;key 23464
bias &#45;0.461
h_scaling 1.000
output 0.970 -->
<g id="edge8" class="edge">
<title>ready
output 1.000&#45;&gt;key 23464
bias &#45;0.461
h_scaling 1.000
output 0.970</title>
<path fill="none" stroke="red" stroke-width="0.1" d="M219.83,-866.13C212.45,-860.76 203.96,-854.41 196.47,-848.4 180.1,-835.25 162.75,-820.49 147,-806.75"/>
<polygon fill="red" stroke="red" stroke-width="0.1" points="149.24,-804.05 139.42,-800.09 144.63,-809.32 149.24,-804.05"/>
<text text-anchor="middle" x="210.47" y="-841.2" font-family="Times,serif" font-size="9.00">0.971</text>
</g>
<!-- key 42765
bias &#45;0.260
h_scaling 1.000
output 0.080 -->
<g id="node5" class="node">
<title>key 42765
bias &#45;0.260
h_scaling 1.000
output 0.080</title>
<ellipse fill="white" stroke="black" cx="115.47" cy="-63.64" rx="63.78" ry="63.78"/>
<text text-anchor="middle" x="115.47" y="-76.44" font-family="Times,serif" font-size="9.00">key 42765</text>
<text text-anchor="middle" x="115.47" y="-66.44" font-family="Times,serif" font-size="9.00">bias &#45;0.260</text>
<text text-anchor="middle" x="115.47" y="-56.44" font-family="Times,serif" font-size="9.00">h_scaling 1.000</text>
<text text-anchor="middle" x="115.47" y="-46.44" font-family="Times,serif" font-size="9.00">output 0.080</text>
</g>
<!-- ready
output 1.000&#45;&gt;key 42765
bias &#45;0.260
h_scaling 1.000
output 0.080 -->
<g id="edge15" class="edge">
<title>ready
output 1.000&#45;&gt;key 42765
bias &#45;0.260
h_scaling 1.000
output 0.080</title>
<path fill="none" stroke="blue" stroke-width="0.1" d="M199.76,-879.76C151.21,-878.08 68.39,-867.8 19.47,-820.4 -1.42,-800.15 0.47,-786.85 0.47,-757.76 0.47,-757.76 0.47,-757.76 0.47,-235.92 0.47,-188.67 31.01,-144.63 60.62,-113.04"/>
<polygon fill="blue" stroke="blue" stroke-width="0.1" points="63.28,-115.32 67.7,-105.69 58.24,-110.46 63.28,-115.32"/>
<text text-anchor="middle" x="15.97" y="-494.64" font-family="Times,serif" font-size="9.00">&#45;0.289</text>
</g>
<!-- key 1621
bias &#45;0.904
h_scaling 1.000
output 0.527 -->
<g id="node6" class="node">
<title>key 1621
bias &#45;0.904
h_scaling 1.000
output 0.527</title>
<ellipse fill="white" stroke="black" cx="325.47" cy="-63.64" rx="63.78" ry="63.78"/>
<text text-anchor="middle" x="325.47" y="-76.44" font-family="Times,serif" font-size="9.00">key 1621</text>
<text text-anchor="middle" x="325.47" y="-66.44" font-family="Times,serif" font-size="9.00">bias &#45;0.904</text>
<text text-anchor="middle" x="325.47" y="-56.44" font-family="Times,serif" font-size="9.00">h_scaling 1.000</text>
<text text-anchor="middle" x="325.47" y="-46.44" font-family="Times,serif" font-size="9.00">output 0.527</text>
</g>
<!-- ready
output 1.000&#45;&gt;key 1621
bias &#45;0.904
h_scaling 1.000
output 0.527 -->
<g id="edge16" class="edge">
<title>ready
output 1.000&#45;&gt;key 1621
bias &#45;0.904
h_scaling 1.000
output 0.527</title>
<path fill="none" stroke="blue" stroke-width="0.1" d="M277.38,-872.55C332.97,-860.28 428.47,-828.84 428.47,-757.76 428.47,-757.76 428.47,-757.76 428.47,-235.92 428.47,-191.46 402.67,-148.59 376.89,-116.86"/>
<polygon fill="blue" stroke="blue" stroke-width="0.1" points="379.45,-114.47 370.35,-109.04 374.08,-118.96 379.45,-114.47"/>
<text text-anchor="middle" x="443.97" y="-494.64" font-family="Times,serif" font-size="9.00">&#45;0.236</text>
</g>
<!-- key 1622
bias 0.137
h_scaling 1.000
output 0.215 -->
<g id="node7" class="node">
<title>key 1622
bias 0.137
h_scaling 1.000
output 0.215</title>
<ellipse fill="white" stroke="black" cx="258.47" cy="-410.2" rx="63.78" ry="63.78"/>
<text text-anchor="middle" x="258.47" y="-423" font-family="Times,serif" font-size="9.00">key 1622</text>
<text text-anchor="middle" x="258.47" y="-413" font-family="Times,serif" font-size="9.00">bias 0.137</text>
<text text-anchor="middle" x="258.47" y="-403" font-family="Times,serif" font-size="9.00">h_scaling 1.000</text>
<text text-anchor="middle" x="258.47" y="-393" font-family="Times,serif" font-size="9.00">output 0.215</text>
</g>
<!-- ready
output 1.000&#45;&gt;key 1622
bias 0.137
h_scaling 1.000
output 0.215 -->
<g id="edge6" class="edge">
<title>ready
output 1.000&#45;&gt;key 1622
bias 0.137
h_scaling 1.000
output 0.215</title>
<path fill="none" stroke="blue" stroke-width="0.1" d="M245.55,-866.24C251.46,-854.56 259.54,-836.84 263.47,-820.4 294.6,-690.38 285.84,-653.12 275.47,-519.84 274.55,-507.94 273.06,-495.38 271.34,-483.18"/>
<polygon fill="blue" stroke="blue" stroke-width="0.1" points="274.77,-482.43 269.85,-473.05 267.84,-483.45 274.77,-482.43"/>
<text text-anchor="middle" x="299.97" y="-667.92" font-family="Times,serif" font-size="9.00">&#45;0.262</text>
</g>
<!-- key 25849
bias &#45;0.387
h_scaling 1.000
output 0.516 -->
<g id="node8" class="node">
<title>key 25849
bias &#45;0.387
h_scaling 1.000
output 0.516</title>
<ellipse fill="white" stroke="black" cx="202.47" cy="-583.48" rx="63.78" ry="63.78"/>
<text text-anchor="middle" x="202.47" y="-596.28" font-family="Times,serif" font-size="9.00">key 25849</text>
<text text-anchor="middle" x="202.47" y="-586.28" font-family="Times,serif" font-size="9.00">bias &#45;0.387</text>
<text text-anchor="middle" x="202.47" y="-576.28" font-family="Times,serif" font-size="9.00">h_scaling 1.000</text>
<text text-anchor="middle" x="202.47" y="-566.28" font-family="Times,serif" font-size="9.00">output 0.516</text>
</g>
<!-- ready
output 1.000&#45;&gt;key 25849
bias &#45;0.387
h_scaling 1.000
output 0.516 -->
<g id="edge14" class="edge">
<title>ready
output 1.000&#45;&gt;key 25849
bias &#45;0.387
h_scaling 1.000
output 0.516</title>
<path fill="none" stroke="red" stroke-width="0.1" d="M236.88,-866.34C232.5,-830.43 220.01,-728.12 211.35,-657.18"/>
<polygon fill="red" stroke="red" stroke-width="0.1" points="214.79,-656.46 210.1,-646.96 207.84,-657.31 214.79,-656.46"/>
<text text-anchor="middle" x="245.47" y="-754.56" font-family="Times,serif" font-size="9.00">0.155</text>
</g>
<!-- go
output 0.000 -->
<g id="node2" class="node">
<title>go
output 0.000</title>
<polygon fill="green" stroke="black" points="399.97,-597.48 322.97,-597.48 322.97,-569.48 399.97,-569.48 399.97,-597.48"/>
<text text-anchor="middle" x="361.47" y="-586.28" font-family="Times,serif" font-size="9.00">go</text>
<text text-anchor="middle" x="361.47" y="-576.28" font-family="Times,serif" font-size="9.00">output 0.000</text>
</g>
<!-- go
output 0.000&#45;&gt;key 1621
bias &#45;0.904
h_scaling 1.000
output 0.527 -->
<g id="edge3" class="edge">
<title>go
output 0.000&#45;&gt;key 1621
bias &#45;0.904
h_scaling 1.000
output 0.527</title>
<path fill="none" stroke="red" stroke-width="0.1" d="M361.98,-569.34C363.77,-518.26 368.67,-328.1 349.47,-173.28 347.94,-160.95 345.67,-147.96 343.12,-135.42"/>
<polygon fill="red" stroke="red" stroke-width="0.1" points="346.51,-134.54 341.02,-125.48 339.66,-135.99 346.51,-134.54"/>
<text text-anchor="middle" x="374.47" y="-321.36" font-family="Times,serif" font-size="9.00">1.000</text>
</g>
<!-- go
output 0.000&#45;&gt;key 1622
bias 0.137
h_scaling 1.000
output 0.215 -->
<g id="edge1" class="edge">
<title>go
output 0.000&#45;&gt;key 1622
bias 0.137
h_scaling 1.000
output 0.215</title>
<path fill="none" stroke="red" stroke-width="0.1" d="M353.86,-569.2C343.65,-551.49 324.93,-519.16 308.47,-491.84 304.93,-485.96 301.22,-479.86 297.49,-473.76"/>
<polygon fill="red" stroke="red" stroke-width="0.1" points="300.24,-471.55 292.02,-464.87 294.27,-475.22 300.24,-471.55"/>
<text text-anchor="middle" x="327.47" y="-494.64" font-family="Times,serif" font-size="9.00">0.979</text>
</g>
<!-- output
bias 0.405
h_scaling 1.000
output 0.063 -->
<g id="node3" class="node">
<title>output
bias 0.405
h_scaling 1.000
output 0.063</title>
<ellipse fill="lightblue" stroke="black" cx="225.47" cy="-236.92" rx="63.78" ry="63.78"/>
<text text-anchor="middle" x="225.47" y="-249.72" font-family="Times,serif" font-size="9.00">output</text>
<text text-anchor="middle" x="225.47" y="-239.72" font-family="Times,serif" font-size="9.00">bias 0.405</text>
<text text-anchor="middle" x="225.47" y="-229.72" font-family="Times,serif" font-size="9.00">h_scaling 1.000</text>
<text text-anchor="middle" x="225.47" y="-219.72" font-family="Times,serif" font-size="9.00">output 0.063</text>
</g>
<!-- output
bias 0.405
h_scaling 1.000
output 0.063&#45;&gt;key 42765
bias &#45;0.260
h_scaling 1.000
output 0.080 -->
<g id="edge12" class="edge">
<title>output
bias 0.405
h_scaling 1.000
output 0.063&#45;&gt;key 42765
bias &#45;0.260
h_scaling 1.000
output 0.080</title>
<path fill="none" stroke="red" stroke-width="0.1" d="M191.27,-182.66C179.78,-164.78 166.88,-144.68 155.01,-126.21"/>
<polygon fill="red" stroke="red" stroke-width="0.1" points="157.81,-124.09 149.46,-117.57 151.92,-127.87 157.81,-124.09"/>
<text text-anchor="middle" x="184.47" y="-148.08" font-family="Times,serif" font-size="9.00">0.984</text>
</g>
<!-- output
bias 0.405
h_scaling 1.000
output 0.063&#45;&gt;key 1621
bias &#45;0.904
h_scaling 1.000
output 0.527 -->
<g id="edge7" class="edge">
<title>output
bias 0.405
h_scaling 1.000
output 0.063&#45;&gt;key 1621
bias &#45;0.904
h_scaling 1.000
output 0.527</title>
<path fill="none" stroke="blue" stroke-width="0.1" d="M257.39,-181.25C267.27,-164.33 278.24,-145.54 288.44,-128.07"/>
<polygon fill="blue" stroke="blue" stroke-width="0.1" points="291.67,-129.48 293.69,-119.08 285.62,-125.95 291.67,-129.48"/>
<text text-anchor="middle" x="290.97" y="-148.08" font-family="Times,serif" font-size="9.00">&#45;0.491</text>
</g>
<!-- key 23464
bias &#45;0.461
h_scaling 1.000
output 0.970&#45;&gt;key 23464
bias &#45;0.461
h_scaling 1.000
output 0.970 -->
<g id="edge11" class="edge">
<title>key 23464
bias &#45;0.461
h_scaling 1.000
output 0.970&#45;&gt;key 23464
bias &#45;0.461
h_scaling 1.000
output 0.970</title>
<path fill="none" stroke="red" stroke-width="0.1" d="M154.42,-772.05C165.97,-770.17 174.11,-765.07 174.11,-756.76 174.11,-751.04 170.27,-746.84 164.11,-744.17"/>
<polygon fill="red" stroke="red" stroke-width="0.1" points="164.99,-740.78 154.42,-741.46 163.1,-747.52 164.99,-740.78"/>
<text text-anchor="middle" x="188.11" y="-754.56" font-family="Times,serif" font-size="9.00">0.767</text>
</g>
<!-- key 23464
bias &#45;0.461
h_scaling 1.000
output 0.970&#45;&gt;key 25849
bias &#45;0.387
h_scaling 1.000
output 0.516 -->
<g id="edge9" class="edge">
<title>key 23464
bias &#45;0.461
h_scaling 1.000
output 0.970&#45;&gt;key 25849
bias &#45;0.387
h_scaling 1.000
output 0.516</title>
<path fill="none" stroke="red" stroke-width="0.1" d="M126.67,-702.5C138.16,-684.61 151.07,-664.52 162.93,-646.04"/>
<polygon fill="red" stroke="red" stroke-width="0.1" points="166.02,-647.71 168.48,-637.4 160.13,-643.93 166.02,-647.71"/>
<text text-anchor="middle" x="161.47" y="-667.92" font-family="Times,serif" font-size="9.00">1.000</text>
</g>
<!-- key 42765
bias &#45;0.260
h_scaling 1.000
output 0.080&#45;&gt;key 1622
bias 0.137
h_scaling 1.000
output 0.215 -->
<g id="edge13" class="edge">
<title>key 42765
bias &#45;0.260
h_scaling 1.000
output 0.080&#45;&gt;key 1622
bias 0.137
h_scaling 1.000
output 0.215</title>
<path fill="none" stroke="red" stroke-width="0.1" d="M104.41,-126.46C98.56,-176.17 97.38,-246.4 124.47,-300.56 139.65,-330.89 167.62,-355.65 194.09,-373.82"/>
<polygon fill="red" stroke="red" stroke-width="0.1" points="192.35,-376.87 202.62,-379.49 196.23,-371.04 192.35,-376.87"/>
<text text-anchor="middle" x="138.47" y="-234.72" font-family="Times,serif" font-size="9.00">0.379</text>
</g>
<!-- key 1621
bias &#45;0.904
h_scaling 1.000
output 0.527&#45;&gt;output
bias 0.405
h_scaling 1.000
output 0.063 -->
<g id="edge2" class="edge">
<title>key 1621
bias &#45;0.904
h_scaling 1.000
output 0.527&#45;&gt;output
bias 0.405
h_scaling 1.000
output 0.063</title>
<path fill="none" stroke="blue" stroke-width="0.1" d="M270.45,-95.93C253.14,-108.8 236.05,-125.41 226.47,-145.28 223.74,-150.95 221.83,-157.07 220.57,-163.35"/>
<polygon fill="blue" stroke="blue" stroke-width="0.1" points="217.09,-162.91 219.07,-173.32 224.02,-163.95 217.09,-162.91"/>
<text text-anchor="middle" x="241.97" y="-148.08" font-family="Times,serif" font-size="9.00">&#45;1.000</text>
</g>
<!-- key 1621
bias &#45;0.904
h_scaling 1.000
output 0.527&#45;&gt;key 1621
bias &#45;0.904
h_scaling 1.000
output 0.527 -->
<g id="edge5" class="edge">
<title>key 1621
bias &#45;0.904
h_scaling 1.000
output 0.527&#45;&gt;key 1621
bias &#45;0.904
h_scaling 1.000
output 0.527</title>
<path fill="none" stroke="red" stroke-width="0.1" d="M387.42,-78.94C398.97,-77.05 407.11,-71.95 407.11,-63.64 407.11,-57.92 403.27,-53.73 397.11,-51.05"/>
<polygon fill="red" stroke="red" stroke-width="0.1" points="397.99,-47.66 387.42,-48.34 396.1,-54.4 397.99,-47.66"/>
<text text-anchor="middle" x="421.11" y="-61.44" font-family="Times,serif" font-size="9.00">1.000</text>
</g>
<!-- key 1622
bias 0.137
h_scaling 1.000
output 0.215&#45;&gt;output
bias 0.405
h_scaling 1.000
output 0.063 -->
<g id="edge17" class="edge">
<title>key 1622
bias 0.137
h_scaling 1.000
output 0.215&#45;&gt;output
bias 0.405
h_scaling 1.000
output 0.063</title>
<path fill="none" stroke="blue" stroke-width="0.1" d="M246.56,-347.36C244.2,-335.11 241.7,-322.16 239.29,-309.61"/>
<polygon fill="blue" stroke="blue" stroke-width="0.1" points="242.7,-308.82 237.37,-299.66 235.82,-310.15 242.7,-308.82"/>
<text text-anchor="middle" x="256.97" y="-321.36" font-family="Times,serif" font-size="9.00">&#45;0.420</text>
</g>
<!-- key 1622
bias 0.137
h_scaling 1.000
output 0.215&#45;&gt;key 1621
bias &#45;0.904
h_scaling 1.000
output 0.527 -->
<g id="edge4" class="edge">
<title>key 1622
bias 0.137
h_scaling 1.000
output 0.215&#45;&gt;key 1621
bias &#45;0.904
h_scaling 1.000
output 0.527</title>
<path fill="none" stroke="red" stroke-width="0.1" d="M282.78,-351.07C288.72,-334.95 294.5,-317.28 298.47,-300.56 311.26,-246.75 318.06,-184.55 321.64,-137.53"/>
<polygon fill="red" stroke="red" stroke-width="0.1" points="325.14,-137.66 322.37,-127.43 318.16,-137.15 325.14,-137.66"/>
<text text-anchor="middle" x="331.47" y="-234.72" font-family="Times,serif" font-size="9.00">1.000</text>
</g>
<!-- key 25849
bias &#45;0.387
h_scaling 1.000
output 0.516&#45;&gt;key 1622
bias 0.137
h_scaling 1.000
output 0.215 -->
<g id="edge10" class="edge">
<title>key 25849
bias &#45;0.387
h_scaling 1.000
output 0.516&#45;&gt;key 1622
bias 0.137
h_scaling 1.000
output 0.215</title>
<path fill="none" stroke="blue" stroke-width="0.1" d="M222.06,-522.57C226.49,-509.01 231.24,-494.5 235.79,-480.59"/>
<polygon fill="blue" stroke="blue" stroke-width="0.1" points="239.12,-481.66 238.9,-471.07 232.46,-479.49 239.12,-481.66"/>
<text text-anchor="middle" x="245.97" y="-494.64" font-family="Times,serif" font-size="9.00">&#45;0.569</text>
</g>
</g>
</svg>
