<?xml version="1.0" encoding="UTF-8" standalone="no"?>
<!DOCTYPE svg PUBLIC "-//W3C//DTD SVG 1.1//EN"
 "http://www.w3.org/Graphics/SVG/1.1/DTD/svg11.dtd">
<!-- Generated by graphviz version 2.43.0 (0)
 -->
<!-- Title: %3 Pages: 1 -->
<svg width="407pt" height="842pt"
 viewBox="0.00 0.00 407.34 842.40" xmlns="http://www.w3.org/2000/svg" xmlns:xlink="http://www.w3.org/1999/xlink">
<g id="graph0" class="graph" transform="scale(1 1) rotate(0) translate(4 838.4)">
<title>%3</title>
<polygon fill="white" stroke="transparent" points="-4,4 -4,-838.4 403.34,-838.4 403.34,4 -4,4"/>
<!-- ready -->
<g id="node1" class="node">
<title>ready</title>
<polygon fill="yellow" stroke="black" points="154.2,-834.4 111.2,-834.4 111.2,-816.4 154.2,-816.4 154.2,-834.4"/>
<text text-anchor="middle" x="132.7" y="-823.2" font-family="Times,serif" font-size="9.00">ready</text>
</g>
<!-- key 9391
bias &#45;0.640
h_scaling 0.056 -->
<g id="node6" class="node">
<title>key 9391
bias &#45;0.640
h_scaling 0.056</title>
<ellipse fill="white" stroke="black" cx="96.7" cy="-716.76" rx="63.78" ry="63.78"/>
<text text-anchor="middle" x="96.7" y="-724.56" font-family="Times,serif" font-size="9.00">key 9391</text>
<text text-anchor="middle" x="96.7" y="-714.56" font-family="Times,serif" font-size="9.00">bias &#45;0.640</text>
<text text-anchor="middle" x="96.7" y="-704.56" font-family="Times,serif" font-size="9.00">h_scaling 0.056</text>
</g>
<!-- ready&#45;&gt;key 9391
bias &#45;0.640
h_scaling 0.056 -->
<g id="edge5" class="edge">
<title>ready&#45;&gt;key 9391
bias &#45;0.640
h_scaling 0.056</title>
<path fill="none" stroke="red" stroke-width="0.83" d="M129.99,-816.38C127.67,-809.5 124.07,-798.85 120.09,-787.05"/>
<polygon fill="red" stroke="red" stroke-width="0.83" points="123.34,-785.74 116.83,-777.38 116.71,-787.98 123.34,-785.74"/>
</g>
<!-- key 117660
bias &#45;0.381
h_scaling 0.286 -->
<g id="node8" class="node">
<title>key 117660
bias &#45;0.381
h_scaling 0.286</title>
<ellipse fill="white" stroke="black" cx="335.7" cy="-226.92" rx="63.78" ry="63.78"/>
<text text-anchor="middle" x="335.7" y="-234.72" font-family="Times,serif" font-size="9.00">key 117660</text>
<text text-anchor="middle" x="335.7" y="-224.72" font-family="Times,serif" font-size="9.00">bias &#45;0.381</text>
<text text-anchor="middle" x="335.7" y="-214.72" font-family="Times,serif" font-size="9.00">h_scaling 0.286</text>
</g>
<!-- ready&#45;&gt;key 117660
bias &#45;0.381
h_scaling 0.286 -->
<g id="edge12" class="edge">
<title>ready&#45;&gt;key 117660
bias &#45;0.381
h_scaling 0.286</title>
<path fill="none" stroke="blue" stroke-width="2.04" d="M147.36,-816.11C159.79,-808.38 177.21,-795.74 187.7,-780.4 290.09,-630.53 321.72,-413 331.43,-300.85"/>
<polygon fill="blue" stroke="blue" stroke-width="2.04" points="334.94,-300.91 332.28,-290.66 327.96,-300.34 334.94,-300.91"/>
</g>
<!-- go -->
<g id="node2" class="node">
<title>go</title>
<polygon fill="green" stroke="black" points="73.7,-834.4 45.7,-834.4 45.7,-816.4 73.7,-816.4 73.7,-834.4"/>
<text text-anchor="middle" x="59.7" y="-823.2" font-family="Times,serif" font-size="9.00">go</text>
</g>
<!-- key 14080
bias 0.087
h_scaling 0.033 -->
<g id="node4" class="node">
<title>key 14080
bias 0.087
h_scaling 0.033</title>
<ellipse fill="white" stroke="black" cx="74.7" cy="-63.64" rx="63.78" ry="63.78"/>
<text text-anchor="middle" x="74.7" y="-71.44" font-family="Times,serif" font-size="9.00">key 14080</text>
<text text-anchor="middle" x="74.7" y="-61.44" font-family="Times,serif" font-size="9.00">bias 0.087</text>
<text text-anchor="middle" x="74.7" y="-51.44" font-family="Times,serif" font-size="9.00">h_scaling 0.033</text>
</g>
<!-- go&#45;&gt;key 14080
bias 0.087
h_scaling 0.033 -->
<g id="edge7" class="edge">
<title>go&#45;&gt;key 14080
bias 0.087
h_scaling 0.033</title>
<path fill="none" stroke="blue" stroke-width="2.75" d="M50.48,-816.34C41.89,-808.22 29.55,-794.85 23.7,-780.4 -14.13,-687 4.7,-655.24 4.7,-554.48 4.7,-554.48 4.7,-554.48 4.7,-389.2 4.7,-299.42 30.61,-198.74 50.9,-133.66"/>
<polygon fill="blue" stroke="blue" stroke-width="2.75" points="54.3,-134.52 53.98,-123.93 47.63,-132.41 54.3,-134.52"/>
</g>
<!-- go&#45;&gt;key 9391
bias &#45;0.640
h_scaling 0.056 -->
<g id="edge2" class="edge">
<title>go&#45;&gt;key 9391
bias &#45;0.640
h_scaling 0.056</title>
<path fill="none" stroke="blue" stroke-width="3.1" d="M62.48,-816.38C64.88,-809.46 68.6,-798.73 72.72,-786.85"/>
<polygon fill="blue" stroke="blue" stroke-width="3.1" points="76.12,-787.72 76.1,-777.13 69.51,-785.43 76.12,-787.72"/>
</g>
<!-- output
bias &#45;0.997
h_scaling 0.534 -->
<g id="node3" class="node">
<title>output
bias &#45;0.997
h_scaling 0.534</title>
<ellipse fill="lightblue" stroke="black" cx="152.7" cy="-553.48" rx="63.78" ry="63.78"/>
<text text-anchor="middle" x="152.7" y="-561.28" font-family="Times,serif" font-size="9.00">output</text>
<text text-anchor="middle" x="152.7" y="-551.28" font-family="Times,serif" font-size="9.00">bias &#45;0.997</text>
<text text-anchor="middle" x="152.7" y="-541.28" font-family="Times,serif" font-size="9.00">h_scaling 0.534</text>
</g>
<!-- key 50447
bias &#45;0.299
h_scaling 0.906 -->
<g id="node5" class="node">
<title>key 50447
bias &#45;0.299
h_scaling 0.906</title>
<ellipse fill="white" stroke="black" cx="216.7" cy="-390.2" rx="63.78" ry="63.78"/>
<text text-anchor="middle" x="216.7" y="-398" font-family="Times,serif" font-size="9.00">key 50447</text>
<text text-anchor="middle" x="216.7" y="-388" font-family="Times,serif" font-size="9.00">bias &#45;0.299</text>
<text text-anchor="middle" x="216.7" y="-378" font-family="Times,serif" font-size="9.00">h_scaling 0.906</text>
</g>
<!-- output
bias &#45;0.997
h_scaling 0.534&#45;&gt;key 50447
bias &#45;0.299
h_scaling 0.906 -->
<g id="edge8" class="edge">
<title>output
bias &#45;0.997
h_scaling 0.534&#45;&gt;key 50447
bias &#45;0.299
h_scaling 0.906</title>
<path fill="none" stroke="red" stroke-width="2.8" d="M175.98,-493.8C180.45,-482.54 185.16,-470.66 189.73,-459.14"/>
<polygon fill="red" stroke="red" stroke-width="2.8" points="193.1,-460.15 193.53,-449.57 186.59,-457.57 193.1,-460.15"/>
</g>
<!-- key 14080
bias 0.087
h_scaling 0.033&#45;&gt;output
bias &#45;0.997
h_scaling 0.534 -->
<g id="edge11" class="edge">
<title>key 14080
bias 0.087
h_scaling 0.033&#45;&gt;output
bias &#45;0.997
h_scaling 0.534</title>
<path fill="none" stroke="red" stroke-width="1.49" d="M84.59,-126.55C99.04,-216.89 125.83,-384.48 141.16,-480.3"/>
<polygon fill="red" stroke="red" stroke-width="1.49" points="137.7,-480.87 142.74,-490.2 144.61,-479.77 137.7,-480.87"/>
</g>
<!-- key 14080
bias 0.087
h_scaling 0.033&#45;&gt;key 9391
bias &#45;0.640
h_scaling 0.056 -->
<g id="edge4" class="edge">
<title>key 14080
bias 0.087
h_scaling 0.033&#45;&gt;key 9391
bias &#45;0.640
h_scaling 0.056</title>
<path fill="none" stroke="red" stroke-width="2.46" d="M77.57,-127.36C77.26,-230 72.75,-440.14 88.7,-617.12 89.45,-625.51 90.53,-634.27 91.73,-642.95"/>
<polygon fill="red" stroke="red" stroke-width="2.46" points="88.29,-643.67 93.16,-653.08 95.22,-642.68 88.29,-643.67"/>
</g>
<!-- key 50447
bias &#45;0.299
h_scaling 0.906&#45;&gt;key 117660
bias &#45;0.381
h_scaling 0.286 -->
<g id="edge9" class="edge">
<title>key 50447
bias &#45;0.299
h_scaling 0.906&#45;&gt;key 117660
bias &#45;0.381
h_scaling 0.286</title>
<path fill="none" stroke="red" stroke-width="3.06" d="M254.02,-338.61C266.15,-322.18 279.71,-303.8 292.24,-286.82"/>
<polygon fill="red" stroke="red" stroke-width="3.06" points="295.18,-288.73 298.3,-278.6 289.54,-284.57 295.18,-288.73"/>
</g>
<!-- key 9391
bias &#45;0.640
h_scaling 0.056&#45;&gt;output
bias &#45;0.997
h_scaling 0.534 -->
<g id="edge1" class="edge">
<title>key 9391
bias &#45;0.640
h_scaling 0.056&#45;&gt;output
bias &#45;0.997
h_scaling 0.534</title>
<path fill="none" stroke="red" stroke-width="3.07" d="M117.39,-656.16C121.1,-645.47 124.99,-634.25 128.79,-623.33"/>
<polygon fill="red" stroke="red" stroke-width="3.07" points="132.11,-624.42 132.09,-613.83 125.5,-622.13 132.11,-624.42"/>
</g>
<!-- key 9391
bias &#45;0.640
h_scaling 0.056&#45;&gt;key 14080
bias 0.087
h_scaling 0.033 -->
<g id="edge3" class="edge">
<title>key 9391
bias &#45;0.640
h_scaling 0.056&#45;&gt;key 14080
bias 0.087
h_scaling 0.033</title>
<path fill="none" stroke="red" stroke-width="2.97" d="M76.1,-656.5C73.76,-643.57 71.85,-629.92 70.7,-617.12 55.24,-445.61 59,-242.96 65.73,-137.18"/>
<polygon fill="red" stroke="red" stroke-width="2.97" points="69.24,-137.15 66.42,-126.94 62.26,-136.69 69.24,-137.15"/>
</g>
<!-- key 9391
bias &#45;0.640
h_scaling 0.056&#45;&gt;key 9391
bias &#45;0.640
h_scaling 0.056 -->
<g id="edge6" class="edge">
<title>key 9391
bias &#45;0.640
h_scaling 0.056&#45;&gt;key 9391
bias &#45;0.640
h_scaling 0.056</title>
<path fill="none" stroke="red" stroke-width="2.3" d="M157.58,-736.17C169.69,-733.99 178.34,-727.51 178.34,-716.76 178.34,-709.19 174.06,-703.75 167.32,-700.42"/>
<polygon fill="red" stroke="red" stroke-width="2.3" points="168.17,-697.02 157.58,-697.34 166.06,-703.69 168.17,-697.02"/>
</g>
<!-- key 403286
bias 0.476
h_scaling 0.816 -->
<g id="node7" class="node">
<title>key 403286
bias 0.476
h_scaling 0.816</title>
<ellipse fill="white" stroke="black" cx="190.7" cy="-226.92" rx="63.78" ry="63.78"/>
<text text-anchor="middle" x="190.7" y="-234.72" font-family="Times,serif" font-size="9.00">key 403286</text>
<text text-anchor="middle" x="190.7" y="-224.72" font-family="Times,serif" font-size="9.00">bias 0.476</text>
<text text-anchor="middle" x="190.7" y="-214.72" font-family="Times,serif" font-size="9.00">h_scaling 0.816</text>
</g>
<!-- key 403286
bias 0.476
h_scaling 0.816&#45;&gt;key 14080
bias 0.087
h_scaling 0.033 -->
<g id="edge13" class="edge">
<title>key 403286
bias 0.476
h_scaling 0.816&#45;&gt;key 14080
bias 0.087
h_scaling 0.033</title>
<path fill="none" stroke="blue" stroke-width="2.19" d="M153.99,-174.89C142.46,-158.86 129.63,-141.01 117.7,-124.43"/>
<polygon fill="blue" stroke="blue" stroke-width="2.19" points="120.24,-121.97 111.56,-115.89 114.56,-126.05 120.24,-121.97"/>
</g>
<!-- key 117660
bias &#45;0.381
h_scaling 0.286&#45;&gt;key 14080
bias 0.087
h_scaling 0.033 -->
<g id="edge10" class="edge">
<title>key 117660
bias &#45;0.381
h_scaling 0.286&#45;&gt;key 14080
bias 0.087
h_scaling 0.033</title>
<path fill="none" stroke="blue" stroke-width="3.1" d="M289.34,-182.82C281.06,-175.94 272.32,-169.16 263.7,-163.28 225.22,-137.04 178.9,-112.76 141.75,-94.86"/>
<polygon fill="blue" stroke="blue" stroke-width="3.1" points="143.04,-91.6 132.51,-90.45 140.03,-97.91 143.04,-91.6"/>
</g>
</g>
</svg>
