<?xml version="1.0" encoding="UTF-8" standalone="no"?>
<!DOCTYPE svg PUBLIC "-//W3C//DTD SVG 1.1//EN"
 "http://www.w3.org/Graphics/SVG/1.1/DTD/svg11.dtd">
<!-- Generated by graphviz version 2.43.0 (0)
 -->
<!-- Title: %3 Pages: 1 -->
<svg width="505pt" height="719pt"
 viewBox="0.00 0.00 505.28 719.12" xmlns="http://www.w3.org/2000/svg" xmlns:xlink="http://www.w3.org/1999/xlink">
<g id="graph0" class="graph" transform="scale(1 1) rotate(0) translate(4 715.12)">
<title>%3</title>
<polygon fill="white" stroke="transparent" points="-4,4 -4,-715.12 501.28,-715.12 501.28,4 -4,4"/>
<!-- ready -->
<g id="node1" class="node">
<title>ready</title>
<polygon fill="yellow" stroke="black" points="200.14,-711.12 157.14,-711.12 157.14,-693.12 200.14,-693.12 200.14,-711.12"/>
<text text-anchor="middle" x="178.64" y="-699.92" font-family="Times,serif" font-size="9.00">ready</text>
</g>
<!-- key 7427
bias 0.570
h_scaling 0.505 -->
<g id="node5" class="node">
<title>key 7427
bias 0.570
h_scaling 0.505</title>
<ellipse fill="white" stroke="black" cx="295.64" cy="-583.48" rx="63.78" ry="63.78"/>
<text text-anchor="middle" x="295.64" y="-591.28" font-family="Times,serif" font-size="9.00">key 7427</text>
<text text-anchor="middle" x="295.64" y="-581.28" font-family="Times,serif" font-size="9.00">bias 0.570</text>
<text text-anchor="middle" x="295.64" y="-571.28" font-family="Times,serif" font-size="9.00">h_scaling 0.505</text>
</g>
<!-- ready&#45;&gt;key 7427
bias 0.570
h_scaling 0.505 -->
<g id="edge6" class="edge">
<title>ready&#45;&gt;key 7427
bias 0.570
h_scaling 0.505</title>
<path fill="none" stroke="blue" stroke-width="0.1" d="M191.87,-692.92C199.19,-688.12 208.27,-681.71 215.64,-675.12 227.19,-664.78 238.73,-652.87 249.3,-641.15"/>
<polygon fill="blue" stroke="blue" stroke-width="0.1" points="252.08,-643.29 256.1,-633.49 246.85,-638.64 252.08,-643.29"/>
</g>
<!-- key 115492
bias &#45;0.604
h_scaling 0.924 -->
<g id="node6" class="node">
<title>key 115492
bias &#45;0.604
h_scaling 0.924</title>
<ellipse fill="white" stroke="black" cx="109.64" cy="-236.92" rx="63.78" ry="63.78"/>
<text text-anchor="middle" x="109.64" y="-244.72" font-family="Times,serif" font-size="9.00">key 115492</text>
<text text-anchor="middle" x="109.64" y="-234.72" font-family="Times,serif" font-size="9.00">bias &#45;0.604</text>
<text text-anchor="middle" x="109.64" y="-224.72" font-family="Times,serif" font-size="9.00">h_scaling 0.924</text>
</g>
<!-- ready&#45;&gt;key 115492
bias &#45;0.604
h_scaling 0.924 -->
<g id="edge13" class="edge">
<title>ready&#45;&gt;key 115492
bias &#45;0.604
h_scaling 0.924</title>
<path fill="none" stroke="blue" stroke-width="0.1" d="M178.06,-693.07C175.22,-654.43 161.77,-484.06 136.64,-346.56 134.38,-334.19 131.54,-321.13 128.55,-308.52"/>
<polygon fill="blue" stroke="blue" stroke-width="0.1" points="131.89,-307.43 126.13,-298.53 125.08,-309.08 131.89,-307.43"/>
</g>
<!-- key 136643
bias &#45;0.378
h_scaling 0.334 -->
<g id="node7" class="node">
<title>key 136643
bias &#45;0.378
h_scaling 0.334</title>
<ellipse fill="white" stroke="black" cx="63.64" cy="-583.48" rx="63.78" ry="63.78"/>
<text text-anchor="middle" x="63.64" y="-591.28" font-family="Times,serif" font-size="9.00">key 136643</text>
<text text-anchor="middle" x="63.64" y="-581.28" font-family="Times,serif" font-size="9.00">bias &#45;0.378</text>
<text text-anchor="middle" x="63.64" y="-571.28" font-family="Times,serif" font-size="9.00">h_scaling 0.334</text>
</g>
<!-- ready&#45;&gt;key 136643
bias &#45;0.378
h_scaling 0.334 -->
<g id="edge15" class="edge">
<title>ready&#45;&gt;key 136643
bias &#45;0.378
h_scaling 0.334</title>
<path fill="none" stroke="red" stroke-width="3.77" d="M157.04,-696.46C143.34,-692.62 125.94,-685.98 113.64,-675.12 105.88,-668.26 99.09,-659.91 93.21,-651.07"/>
<polygon fill="red" stroke="red" stroke-width="3.77" points="96.12,-649.12 87.85,-642.48 90.18,-652.82 96.12,-649.12"/>
<text text-anchor="middle" x="127.64" y="-667.92" font-family="Times,serif" font-size="9.00">0.122</text>
</g>
<!-- key 28842
bias &#45;0.607
h_scaling 0.516 -->
<g id="node8" class="node">
<title>key 28842
bias &#45;0.607
h_scaling 0.516</title>
<ellipse fill="white" stroke="black" cx="257.64" cy="-63.64" rx="63.78" ry="63.78"/>
<text text-anchor="middle" x="257.64" y="-71.44" font-family="Times,serif" font-size="9.00">key 28842</text>
<text text-anchor="middle" x="257.64" y="-61.44" font-family="Times,serif" font-size="9.00">bias &#45;0.607</text>
<text text-anchor="middle" x="257.64" y="-51.44" font-family="Times,serif" font-size="9.00">h_scaling 0.516</text>
</g>
<!-- ready&#45;&gt;key 28842
bias &#45;0.607
h_scaling 0.516 -->
<g id="edge7" class="edge">
<title>ready&#45;&gt;key 28842
bias &#45;0.607
h_scaling 0.516</title>
<path fill="none" stroke="red" stroke-width="0.82" d="M181.86,-693.03C183.78,-687.96 186.12,-681.24 187.64,-675.12 197.46,-635.55 201.64,-625.24 201.64,-584.48 201.64,-584.48 201.64,-584.48 201.64,-235.92 201.64,-199.91 212.96,-161.66 225.42,-130.46"/>
<polygon fill="red" stroke="red" stroke-width="0.82" points="228.74,-131.6 229.31,-121.02 222.27,-128.93 228.74,-131.6"/>
<text text-anchor="middle" x="215.64" y="-408" font-family="Times,serif" font-size="9.00">0.024</text>
</g>
<!-- go -->
<g id="node2" class="node">
<title>go</title>
<polygon fill="green" stroke="black" points="367.64,-711.12 339.64,-711.12 339.64,-693.12 367.64,-693.12 367.64,-711.12"/>
<text text-anchor="middle" x="353.64" y="-699.92" font-family="Times,serif" font-size="9.00">go</text>
</g>
<!-- key 3549
bias 0.581
h_scaling 0.631 -->
<g id="node4" class="node">
<title>key 3549
bias 0.581
h_scaling 0.631</title>
<ellipse fill="white" stroke="black" cx="387.64" cy="-410.2" rx="63.78" ry="63.78"/>
<text text-anchor="middle" x="387.64" y="-418" font-family="Times,serif" font-size="9.00">key 3549</text>
<text text-anchor="middle" x="387.64" y="-408" font-family="Times,serif" font-size="9.00">bias 0.581</text>
<text text-anchor="middle" x="387.64" y="-398" font-family="Times,serif" font-size="9.00">h_scaling 0.631</text>
</g>
<!-- go&#45;&gt;key 3549
bias 0.581
h_scaling 0.631 -->
<g id="edge11" class="edge">
<title>go&#45;&gt;key 3549
bias 0.581
h_scaling 0.631</title>
<path fill="none" stroke="blue" stroke-width="0.1" d="M360.5,-693.03C364.21,-688.17 368.46,-681.67 370.64,-675.12 391.37,-612.92 394.26,-537.99 392.77,-483.89"/>
<polygon fill="blue" stroke="blue" stroke-width="0.1" points="396.26,-483.58 392.43,-473.7 389.26,-483.81 396.26,-483.58"/>
</g>
<!-- go&#45;&gt;key 7427
bias 0.570
h_scaling 0.505 -->
<g id="edge2" class="edge">
<title>go&#45;&gt;key 7427
bias 0.570
h_scaling 0.505</title>
<path fill="none" stroke="red" stroke-width="0.53" d="M349.65,-693.1C344.99,-683.72 336.8,-667.26 328.19,-649.94"/>
<polygon fill="red" stroke="red" stroke-width="0.53" points="331.25,-648.24 323.67,-640.84 324.99,-651.35 331.25,-648.24"/>
<text text-anchor="middle" x="352.64" y="-667.92" font-family="Times,serif" font-size="9.00">0.014</text>
</g>
<!-- output
bias &#45;0.368
h_scaling 0.078 -->
<g id="node3" class="node">
<title>output
bias &#45;0.368
h_scaling 0.078</title>
<ellipse fill="lightblue" stroke="black" cx="349.64" cy="-236.92" rx="63.78" ry="63.78"/>
<text text-anchor="middle" x="349.64" y="-244.72" font-family="Times,serif" font-size="9.00">output</text>
<text text-anchor="middle" x="349.64" y="-234.72" font-family="Times,serif" font-size="9.00">bias &#45;0.368</text>
<text text-anchor="middle" x="349.64" y="-224.72" font-family="Times,serif" font-size="9.00">h_scaling 0.078</text>
</g>
<!-- output
bias &#45;0.368
h_scaling 0.078&#45;&gt;key 28842
bias &#45;0.607
h_scaling 0.516 -->
<g id="edge16" class="edge">
<title>output
bias &#45;0.368
h_scaling 0.078&#45;&gt;key 28842
bias &#45;0.607
h_scaling 0.516</title>
<path fill="none" stroke="blue" stroke-width="0.1" d="M319.77,-180.31C311,-163.99 301.34,-146.01 292.31,-129.18"/>
<polygon fill="blue" stroke="blue" stroke-width="0.1" points="295.17,-127.12 287.36,-119.97 289.01,-130.44 295.17,-127.12"/>
</g>
<!-- key 3549
bias 0.581
h_scaling 0.631&#45;&gt;output
bias &#45;0.368
h_scaling 0.078 -->
<g id="edge1" class="edge">
<title>key 3549
bias 0.581
h_scaling 0.631&#45;&gt;output
bias &#45;0.368
h_scaling 0.078</title>
<path fill="none" stroke="red" stroke-width="0.64" d="M374.03,-347.85C371.23,-335.22 368.26,-321.84 365.39,-308.91"/>
<polygon fill="red" stroke="red" stroke-width="0.64" points="368.8,-308.13 363.22,-299.13 361.97,-309.65 368.8,-308.13"/>
<text text-anchor="middle" x="382.64" y="-321.36" font-family="Times,serif" font-size="9.00">0.018</text>
</g>
<!-- key 3549
bias 0.581
h_scaling 0.631&#45;&gt;key 3549
bias 0.581
h_scaling 0.631 -->
<g id="edge12" class="edge">
<title>key 3549
bias 0.581
h_scaling 0.631&#45;&gt;key 3549
bias 0.581
h_scaling 0.631</title>
<path fill="none" stroke="red" stroke-width="1.49" d="M449.58,-425.5C461.14,-423.61 469.28,-418.51 469.28,-410.2 469.28,-404.48 465.43,-400.29 459.27,-397.61"/>
<polygon fill="red" stroke="red" stroke-width="1.49" points="460.16,-394.22 449.58,-394.9 458.27,-400.96 460.16,-394.22"/>
<text text-anchor="middle" x="483.28" y="-408" font-family="Times,serif" font-size="9.00">0.046</text>
</g>
<!-- key 3549
bias 0.581
h_scaling 0.631&#45;&gt;key 7427
bias 0.570
h_scaling 0.505 -->
<g id="edge5" class="edge">
<title>key 3549
bias 0.581
h_scaling 0.631&#45;&gt;key 7427
bias 0.570
h_scaling 0.505</title>
<path fill="none" stroke="blue" stroke-width="0.1" d="M362.92,-469.18C354.44,-485.71 344.77,-503.78 335.43,-520.53"/>
<polygon fill="blue" stroke="blue" stroke-width="0.1" points="332.13,-519.26 330.28,-529.69 338.23,-522.69 332.13,-519.26"/>
</g>
<!-- key 3549
bias 0.581
h_scaling 0.631&#45;&gt;key 28842
bias &#45;0.607
h_scaling 0.516 -->
<g id="edge9" class="edge">
<title>key 3549
bias 0.581
h_scaling 0.631&#45;&gt;key 28842
bias &#45;0.607
h_scaling 0.516</title>
<path fill="none" stroke="red" stroke-width="2.04" d="M414.67,-352.44C434.32,-302.43 452.69,-229.05 422.64,-173.28 402.25,-135.45 362.29,-108.62 326.81,-91.09"/>
<polygon fill="red" stroke="red" stroke-width="2.04" points="327.95,-87.76 317.42,-86.62 324.94,-94.08 327.95,-87.76"/>
<text text-anchor="middle" x="451.64" y="-234.72" font-family="Times,serif" font-size="9.00">0.065</text>
</g>
<!-- key 7427
bias 0.570
h_scaling 0.505&#45;&gt;output
bias &#45;0.368
h_scaling 0.078 -->
<g id="edge4" class="edge">
<title>key 7427
bias 0.570
h_scaling 0.505&#45;&gt;output
bias &#45;0.368
h_scaling 0.078</title>
<path fill="none" stroke="blue" stroke-width="0.1" d="M296.75,-519.85C298.54,-471.99 303.12,-404.6 314.64,-346.56 317.24,-333.47 320.89,-319.75 324.86,-306.64"/>
<polygon fill="blue" stroke="blue" stroke-width="0.1" points="328.31,-307.34 327.95,-296.75 321.63,-305.25 328.31,-307.34"/>
</g>
<!-- key 7427
bias 0.570
h_scaling 0.505&#45;&gt;key 3549
bias 0.581
h_scaling 0.631 -->
<g id="edge3" class="edge">
<title>key 7427
bias 0.570
h_scaling 0.505&#45;&gt;key 3549
bias 0.581
h_scaling 0.631</title>
<path fill="none" stroke="blue" stroke-width="0.1" d="M320.36,-524.49C328.84,-507.95 338.53,-489.87 347.88,-473.1"/>
<polygon fill="blue" stroke="blue" stroke-width="0.1" points="351.17,-474.37 353.02,-463.94 345.07,-470.94 351.17,-474.37"/>
</g>
<!-- key 115492
bias &#45;0.604
h_scaling 0.924&#45;&gt;key 28842
bias &#45;0.607
h_scaling 0.516 -->
<g id="edge14" class="edge">
<title>key 115492
bias &#45;0.604
h_scaling 0.924&#45;&gt;key 28842
bias &#45;0.607
h_scaling 0.516</title>
<path fill="none" stroke="red" stroke-width="0.54" d="M136.64,-179.13C143.38,-167.4 151.14,-155.51 159.64,-145.28 170.82,-131.82 184.5,-118.95 198.04,-107.6"/>
<polygon fill="red" stroke="red" stroke-width="0.54" points="200.46,-110.14 205.98,-101.1 196.03,-104.73 200.46,-110.14"/>
<text text-anchor="middle" x="173.64" y="-148.08" font-family="Times,serif" font-size="9.00">0.015</text>
</g>
<!-- key 174205
bias &#45;0.443
h_scaling 0.731 -->
<g id="node9" class="node">
<title>key 174205
bias &#45;0.443
h_scaling 0.731</title>
<ellipse fill="white" stroke="black" cx="63.64" cy="-410.2" rx="63.78" ry="63.78"/>
<text text-anchor="middle" x="63.64" y="-418" font-family="Times,serif" font-size="9.00">key 174205</text>
<text text-anchor="middle" x="63.64" y="-408" font-family="Times,serif" font-size="9.00">bias &#45;0.443</text>
<text text-anchor="middle" x="63.64" y="-398" font-family="Times,serif" font-size="9.00">h_scaling 0.731</text>
</g>
<!-- key 136643
bias &#45;0.378
h_scaling 0.334&#45;&gt;key 174205
bias &#45;0.443
h_scaling 0.731 -->
<g id="edge17" class="edge">
<title>key 136643
bias &#45;0.378
h_scaling 0.334&#45;&gt;key 174205
bias &#45;0.443
h_scaling 0.731</title>
<path fill="none" stroke="red" stroke-width="0.3" d="M63.64,-519.67C63.64,-508.15 63.64,-496.04 63.64,-484.25"/>
<polygon fill="red" stroke="red" stroke-width="0.3" points="67.14,-484 63.64,-474 60.14,-484 67.14,-484"/>
<text text-anchor="middle" x="77.64" y="-494.64" font-family="Times,serif" font-size="9.00">0.007</text>
</g>
<!-- key 28842
bias &#45;0.607
h_scaling 0.516&#45;&gt;key 7427
bias 0.570
h_scaling 0.505 -->
<g id="edge8" class="edge">
<title>key 28842
bias &#45;0.607
h_scaling 0.516&#45;&gt;key 7427
bias 0.570
h_scaling 0.505</title>
<path fill="none" stroke="blue" stroke-width="0.1" d="M262.23,-127.25C269.3,-223.51 282.79,-407.39 290.29,-509.53"/>
<polygon fill="blue" stroke="blue" stroke-width="0.1" points="286.81,-510.04 291.04,-519.76 293.8,-509.53 286.81,-510.04"/>
</g>
<!-- key 28842
bias &#45;0.607
h_scaling 0.516&#45;&gt;key 28842
bias &#45;0.607
h_scaling 0.516 -->
<g id="edge10" class="edge">
<title>key 28842
bias &#45;0.607
h_scaling 0.516&#45;&gt;key 28842
bias &#45;0.607
h_scaling 0.516</title>
<path fill="none" stroke="red" stroke-width="3.32" d="M319.58,-78.94C331.14,-77.05 339.28,-71.95 339.28,-63.64 339.28,-57.92 335.43,-53.73 329.27,-51.05"/>
<polygon fill="red" stroke="red" stroke-width="3.32" points="330.16,-47.66 319.58,-48.34 328.27,-54.4 330.16,-47.66"/>
<text text-anchor="middle" x="353.28" y="-61.44" font-family="Times,serif" font-size="9.00">0.107</text>
</g>
<!-- key 174205
bias &#45;0.443
h_scaling 0.731&#45;&gt;key 115492
bias &#45;0.604
h_scaling 0.924 -->
<g id="edge18" class="edge">
<title>key 174205
bias &#45;0.443
h_scaling 0.731&#45;&gt;key 115492
bias &#45;0.604
h_scaling 0.924</title>
<path fill="none" stroke="red" stroke-width="0.41" d="M79.99,-348.33C83.44,-335.46 87.12,-321.77 90.67,-308.57"/>
<polygon fill="red" stroke="red" stroke-width="0.41" points="94.13,-309.16 93.34,-298.59 87.37,-307.34 94.13,-309.16"/>
<text text-anchor="middle" x="100.64" y="-321.36" font-family="Times,serif" font-size="9.00">0.010</text>
</g>
</g>
</svg>
