<?xml version="1.0" encoding="UTF-8" standalone="no"?>
<!DOCTYPE svg PUBLIC "-//W3C//DTD SVG 1.1//EN"
 "http://www.w3.org/Graphics/SVG/1.1/DTD/svg11.dtd">
<!-- Generated by graphviz version 2.43.0 (0)
 -->
<!-- Title: %3 Pages: 1 -->
<svg width="559pt" height="846pt"
 viewBox="0.00 0.00 559.00 846.40" xmlns="http://www.w3.org/2000/svg" xmlns:xlink="http://www.w3.org/1999/xlink">
<g id="graph0" class="graph" transform="scale(1 1) rotate(0) translate(4 842.4)">
<title>%3</title>
<polygon fill="white" stroke="transparent" points="-4,4 -4,-842.4 555,-842.4 555,4 -4,4"/>
<!-- ready
output 0.000 -->
<g id="node1" class="node">
<title>ready
output 0.000</title>
<polygon fill="yellow" stroke="black" points="167.5,-838.4 90.5,-838.4 90.5,-810.4 167.5,-810.4 167.5,-838.4"/>
<text text-anchor="middle" x="129" y="-827.2" font-family="Times,serif" font-size="9.00">ready</text>
<text text-anchor="middle" x="129" y="-817.2" font-family="Times,serif" font-size="9.00">output 0.000</text>
</g>
<!-- key 2544
bias &#45;0.668
h_scaling 0.117
output 0.862 -->
<g id="node5" class="node">
<title>key 2544
bias &#45;0.668
h_scaling 0.117
output 0.862</title>
<ellipse fill="white" stroke="black" cx="336" cy="-700.76" rx="63.78" ry="63.78"/>
<text text-anchor="middle" x="336" y="-713.56" font-family="Times,serif" font-size="9.00">key 2544</text>
<text text-anchor="middle" x="336" y="-703.56" font-family="Times,serif" font-size="9.00">bias &#45;0.668</text>
<text text-anchor="middle" x="336" y="-693.56" font-family="Times,serif" font-size="9.00">h_scaling 0.117</text>
<text text-anchor="middle" x="336" y="-683.56" font-family="Times,serif" font-size="9.00">output 0.862</text>
</g>
<!-- ready
output 0.000&#45;&gt;key 2544
bias &#45;0.668
h_scaling 0.117
output 0.862 -->
<g id="edge13" class="edge">
<title>ready
output 0.000&#45;&gt;key 2544
bias &#45;0.668
h_scaling 0.117
output 0.862</title>
<path fill="none" stroke="red" stroke-width="0.74" d="M167.62,-814.88C186.26,-809.87 208.52,-802.49 227,-792.4 246.76,-781.6 266.32,-766.94 283.29,-752.57"/>
<polygon fill="red" stroke="red" stroke-width="0.74" points="285.62,-755.18 290.9,-746 281.05,-749.88 285.62,-755.18"/>
<text text-anchor="middle" x="257" y="-785.2" font-family="Times,serif" font-size="9.00">0.305</text>
</g>
<!-- key 15889
bias &#45;0.268
h_scaling 0.977
output 0.717 -->
<g id="node6" class="node">
<title>key 15889
bias &#45;0.268
h_scaling 0.977
output 0.717</title>
<ellipse fill="white" stroke="black" cx="211" cy="-555.48" rx="63.78" ry="63.78"/>
<text text-anchor="middle" x="211" y="-568.28" font-family="Times,serif" font-size="9.00">key 15889</text>
<text text-anchor="middle" x="211" y="-558.28" font-family="Times,serif" font-size="9.00">bias &#45;0.268</text>
<text text-anchor="middle" x="211" y="-548.28" font-family="Times,serif" font-size="9.00">h_scaling 0.977</text>
<text text-anchor="middle" x="211" y="-538.28" font-family="Times,serif" font-size="9.00">output 0.717</text>
</g>
<!-- ready
output 0.000&#45;&gt;key 15889
bias &#45;0.268
h_scaling 0.977
output 0.717 -->
<g id="edge4" class="edge">
<title>ready
output 0.000&#45;&gt;key 15889
bias &#45;0.268
h_scaling 0.977
output 0.717</title>
<path fill="none" stroke="red" stroke-width="3.1" d="M142.96,-810.27C147.73,-805.12 152.68,-798.88 156,-792.4 182.19,-741.18 196.1,-677.35 203.37,-629.01"/>
<polygon fill="red" stroke="red" stroke-width="3.1" points="206.86,-629.33 204.82,-618.93 199.93,-628.33 206.86,-629.33"/>
<text text-anchor="middle" x="175" y="-785.2" font-family="Times,serif" font-size="9.00">1.776</text>
</g>
<!-- key 405074
bias &#45;0.981
h_scaling 0.762
output 0.007 -->
<g id="node7" class="node">
<title>key 405074
bias &#45;0.981
h_scaling 0.762
output 0.007</title>
<ellipse fill="white" stroke="black" cx="79" cy="-555.48" rx="63.78" ry="63.78"/>
<text text-anchor="middle" x="79" y="-568.28" font-family="Times,serif" font-size="9.00">key 405074</text>
<text text-anchor="middle" x="79" y="-558.28" font-family="Times,serif" font-size="9.00">bias &#45;0.981</text>
<text text-anchor="middle" x="79" y="-548.28" font-family="Times,serif" font-size="9.00">h_scaling 0.762</text>
<text text-anchor="middle" x="79" y="-538.28" font-family="Times,serif" font-size="9.00">output 0.007</text>
</g>
<!-- ready
output 0.000&#45;&gt;key 405074
bias &#45;0.981
h_scaling 0.762
output 0.007 -->
<g id="edge16" class="edge">
<title>ready
output 0.000&#45;&gt;key 405074
bias &#45;0.981
h_scaling 0.762
output 0.007</title>
<path fill="none" stroke="red" stroke-width="3.05" d="M126.52,-810.16C120.39,-777.46 104.19,-690.95 92.4,-628.02"/>
<polygon fill="red" stroke="red" stroke-width="3.05" points="95.83,-627.32 90.55,-618.14 88.95,-628.61 95.83,-627.32"/>
<text text-anchor="middle" x="138" y="-785.2" font-family="Times,serif" font-size="9.00">1.588</text>
</g>
<!-- key 10170
bias &#45;0.824
h_scaling 0.468
output 0.523 -->
<g id="node8" class="node">
<title>key 10170
bias &#45;0.824
h_scaling 0.468
output 0.523</title>
<ellipse fill="white" stroke="black" cx="238" cy="-63.64" rx="63.78" ry="63.78"/>
<text text-anchor="middle" x="238" y="-76.44" font-family="Times,serif" font-size="9.00">key 10170</text>
<text text-anchor="middle" x="238" y="-66.44" font-family="Times,serif" font-size="9.00">bias &#45;0.824</text>
<text text-anchor="middle" x="238" y="-56.44" font-family="Times,serif" font-size="9.00">h_scaling 0.468</text>
<text text-anchor="middle" x="238" y="-46.44" font-family="Times,serif" font-size="9.00">output 0.523</text>
</g>
<!-- ready
output 0.000&#45;&gt;key 10170
bias &#45;0.824
h_scaling 0.468
output 0.523 -->
<g id="edge15" class="edge">
<title>ready
output 0.000&#45;&gt;key 10170
bias &#45;0.824
h_scaling 0.468
output 0.523</title>
<path fill="none" stroke="red" stroke-width="0.94" d="M97.44,-810.28C59.25,-792.05 0,-755.16 0,-701.76 0,-701.76 0,-701.76 0,-235.92 0,-152.9 96.58,-106.15 166.69,-83.14"/>
<polygon fill="red" stroke="red" stroke-width="0.94" points="167.93,-86.42 176.4,-80.05 165.81,-79.75 167.93,-86.42"/>
<text text-anchor="middle" x="14" y="-408" font-family="Times,serif" font-size="9.00">0.650</text>
</g>
<!-- go
output 0.000 -->
<g id="node2" class="node">
<title>go
output 0.000</title>
<polygon fill="green" stroke="black" points="512.5,-838.4 435.5,-838.4 435.5,-810.4 512.5,-810.4 512.5,-838.4"/>
<text text-anchor="middle" x="474" y="-827.2" font-family="Times,serif" font-size="9.00">go</text>
<text text-anchor="middle" x="474" y="-817.2" font-family="Times,serif" font-size="9.00">output 0.000</text>
</g>
<!-- key 13932
bias &#45;0.579
h_scaling 0.929
output 0.952 -->
<g id="node4" class="node">
<title>key 13932
bias &#45;0.579
h_scaling 0.929
output 0.952</title>
<ellipse fill="white" stroke="black" cx="382" cy="-236.92" rx="63.78" ry="63.78"/>
<text text-anchor="middle" x="382" y="-249.72" font-family="Times,serif" font-size="9.00">key 13932</text>
<text text-anchor="middle" x="382" y="-239.72" font-family="Times,serif" font-size="9.00">bias &#45;0.579</text>
<text text-anchor="middle" x="382" y="-229.72" font-family="Times,serif" font-size="9.00">h_scaling 0.929</text>
<text text-anchor="middle" x="382" y="-219.72" font-family="Times,serif" font-size="9.00">output 0.952</text>
</g>
<!-- go
output 0.000&#45;&gt;key 13932
bias &#45;0.579
h_scaling 0.929
output 0.952 -->
<g id="edge8" class="edge">
<title>go
output 0.000&#45;&gt;key 13932
bias &#45;0.579
h_scaling 0.929
output 0.952</title>
<path fill="none" stroke="blue" stroke-width="2.41" d="M473.9,-810.11C473.31,-737.63 469.73,-391.65 455,-346.56 449.08,-328.42 439.19,-310.5 428.57,-294.6"/>
<polygon fill="blue" stroke="blue" stroke-width="2.41" points="431.18,-292.22 422.62,-285.98 425.42,-296.2 431.18,-292.22"/>
<text text-anchor="middle" x="485.5" y="-553.28" font-family="Times,serif" font-size="9.00">&#45;0.770</text>
</g>
<!-- go
output 0.000&#45;&gt;key 2544
bias &#45;0.668
h_scaling 0.117
output 0.862 -->
<g id="edge6" class="edge">
<title>go
output 0.000&#45;&gt;key 2544
bias &#45;0.668
h_scaling 0.117
output 0.862</title>
<path fill="none" stroke="blue" stroke-width="3.1" d="M453.31,-810.21C445.48,-804.95 436.62,-798.66 429,-792.4 414.89,-780.8 400.4,-767.47 387.18,-754.66"/>
<polygon fill="blue" stroke="blue" stroke-width="3.1" points="389.57,-752.11 379.98,-747.61 384.68,-757.11 389.57,-752.11"/>
<text text-anchor="middle" x="444.5" y="-785.2" font-family="Times,serif" font-size="9.00">&#45;0.999</text>
</g>
<!-- go
output 0.000&#45;&gt;key 10170
bias &#45;0.824
h_scaling 0.468
output 0.523 -->
<g id="edge11" class="edge">
<title>go
output 0.000&#45;&gt;key 10170
bias &#45;0.824
h_scaling 0.468
output 0.523</title>
<path fill="none" stroke="blue" stroke-width="2.1" d="M482.65,-810.16C495.98,-788.45 520,-743.53 520,-701.76 520,-701.76 520,-701.76 520,-235.92 520,-206.83 520.55,-194.83 501,-173.28 451.34,-118.54 369.91,-90.68 310.8,-76.98"/>
<polygon fill="blue" stroke="blue" stroke-width="2.1" points="311.3,-73.5 300.78,-74.74 309.77,-80.33 311.3,-73.5"/>
<text text-anchor="middle" x="535.5" y="-408" font-family="Times,serif" font-size="9.00">&#45;0.666</text>
</g>
<!-- output
bias &#45;0.942
h_scaling 0.500
output 0.418 -->
<g id="node3" class="node">
<title>output
bias &#45;0.942
h_scaling 0.500
output 0.418</title>
<ellipse fill="lightblue" stroke="black" cx="382" cy="-410.2" rx="63.78" ry="63.78"/>
<text text-anchor="middle" x="382" y="-423" font-family="Times,serif" font-size="9.00">output</text>
<text text-anchor="middle" x="382" y="-413" font-family="Times,serif" font-size="9.00">bias &#45;0.942</text>
<text text-anchor="middle" x="382" y="-403" font-family="Times,serif" font-size="9.00">h_scaling 0.500</text>
<text text-anchor="middle" x="382" y="-393" font-family="Times,serif" font-size="9.00">output 0.418</text>
</g>
<!-- output
bias &#45;0.942
h_scaling 0.500
output 0.418&#45;&gt;key 13932
bias &#45;0.579
h_scaling 0.929
output 0.952 -->
<g id="edge12" class="edge">
<title>output
bias &#45;0.942
h_scaling 0.500
output 0.418&#45;&gt;key 13932
bias &#45;0.579
h_scaling 0.929
output 0.952</title>
<path fill="none" stroke="blue" stroke-width="1" d="M382,-346.39C382,-334.87 382,-322.76 382,-310.97"/>
<polygon fill="blue" stroke="blue" stroke-width="1" points="385.5,-310.72 382,-300.72 378.5,-310.72 385.5,-310.72"/>
<text text-anchor="middle" x="397.5" y="-321.36" font-family="Times,serif" font-size="9.00">&#45;0.299</text>
</g>
<!-- key 13932
bias &#45;0.579
h_scaling 0.929
output 0.952&#45;&gt;key 13932
bias &#45;0.579
h_scaling 0.929
output 0.952 -->
<g id="edge9" class="edge">
<title>key 13932
bias &#45;0.579
h_scaling 0.929
output 0.952&#45;&gt;key 13932
bias &#45;0.579
h_scaling 0.929
output 0.952</title>
<path fill="none" stroke="red" stroke-width="1.68" d="M443.94,-252.22C455.5,-250.33 463.64,-245.23 463.64,-236.92 463.64,-231.2 459.79,-227.01 453.63,-224.33"/>
<polygon fill="red" stroke="red" stroke-width="1.68" points="454.52,-220.94 443.94,-221.62 452.63,-227.68 454.52,-220.94"/>
<text text-anchor="middle" x="477.64" y="-234.72" font-family="Times,serif" font-size="9.00">0.646</text>
</g>
<!-- key 13932
bias &#45;0.579
h_scaling 0.929
output 0.952&#45;&gt;key 10170
bias &#45;0.824
h_scaling 0.468
output 0.523 -->
<g id="edge3" class="edge">
<title>key 13932
bias &#45;0.579
h_scaling 0.929
output 0.952&#45;&gt;key 10170
bias &#45;0.824
h_scaling 0.468
output 0.523</title>
<path fill="none" stroke="red" stroke-width="3.02" d="M341.5,-187.75C324.02,-166.96 303.45,-142.49 285.27,-120.86"/>
<polygon fill="red" stroke="red" stroke-width="3.02" points="287.8,-118.44 278.69,-113.04 282.45,-122.94 287.8,-118.44"/>
<text text-anchor="middle" x="324" y="-148.08" font-family="Times,serif" font-size="9.00">1.032</text>
</g>
<!-- key 2544
bias &#45;0.668
h_scaling 0.117
output 0.862&#45;&gt;output
bias &#45;0.942
h_scaling 0.500
output 0.418 -->
<g id="edge1" class="edge">
<title>key 2544
bias &#45;0.668
h_scaling 0.117
output 0.862&#45;&gt;output
bias &#45;0.942
h_scaling 0.500
output 0.418</title>
<path fill="none" stroke="red" stroke-width="3" d="M346.9,-637.7C347.96,-631.43 349.01,-625.15 350,-619.12 357.37,-574.1 365.17,-523.51 371.22,-483.5"/>
<polygon fill="red" stroke="red" stroke-width="3" points="374.69,-483.98 372.72,-473.57 367.77,-482.94 374.69,-483.98"/>
<text text-anchor="middle" x="383" y="-553.28" font-family="Times,serif" font-size="9.00">1.026</text>
</g>
<!-- key 2544
bias &#45;0.668
h_scaling 0.117
output 0.862&#45;&gt;key 2544
bias &#45;0.668
h_scaling 0.117
output 0.862 -->
<g id="edge10" class="edge">
<title>key 2544
bias &#45;0.668
h_scaling 0.117
output 0.862&#45;&gt;key 2544
bias &#45;0.668
h_scaling 0.117
output 0.862</title>
<path fill="none" stroke="red" stroke-width="2.82" d="M397.94,-716.05C409.5,-714.17 417.64,-709.07 417.64,-700.76 417.64,-695.04 413.79,-690.84 407.63,-688.17"/>
<polygon fill="red" stroke="red" stroke-width="2.82" points="408.52,-684.78 397.94,-685.46 406.63,-691.52 408.52,-684.78"/>
<text text-anchor="middle" x="431.64" y="-698.56" font-family="Times,serif" font-size="9.00">0.919</text>
</g>
<!-- key 15889
bias &#45;0.268
h_scaling 0.977
output 0.717&#45;&gt;key 13932
bias &#45;0.579
h_scaling 0.929
output 0.952 -->
<g id="edge5" class="edge">
<title>key 15889
bias &#45;0.268
h_scaling 0.977
output 0.717&#45;&gt;key 13932
bias &#45;0.579
h_scaling 0.929
output 0.952</title>
<path fill="none" stroke="red" stroke-width="2.7" d="M224.41,-492.86C235.48,-449.85 253.83,-392.22 281,-346.56 293.62,-325.36 310.94,-304.81 327.68,-287.39"/>
<polygon fill="red" stroke="red" stroke-width="2.7" points="330.3,-289.72 334.8,-280.13 325.3,-284.82 330.3,-289.72"/>
<text text-anchor="middle" x="295" y="-408" font-family="Times,serif" font-size="9.00">0.979</text>
</g>
<!-- key 15889
bias &#45;0.268
h_scaling 0.977
output 0.717&#45;&gt;key 15889
bias &#45;0.268
h_scaling 0.977
output 0.717 -->
<g id="edge7" class="edge">
<title>key 15889
bias &#45;0.268
h_scaling 0.977
output 0.717&#45;&gt;key 15889
bias &#45;0.268
h_scaling 0.977
output 0.717</title>
<path fill="none" stroke="red" stroke-width="1.47" d="M268.97,-581.94C282.59,-579.77 292.64,-570.95 292.64,-555.48 292.64,-544 287.1,-536.18 278.68,-532.02"/>
<polygon fill="red" stroke="red" stroke-width="1.47" points="279.56,-528.63 268.97,-529.01 277.49,-535.31 279.56,-528.63"/>
<text text-anchor="middle" x="306.64" y="-553.28" font-family="Times,serif" font-size="9.00">0.577</text>
</g>
<!-- key 405074
bias &#45;0.981
h_scaling 0.762
output 0.007&#45;&gt;key 10170
bias &#45;0.824
h_scaling 0.468
output 0.523 -->
<g id="edge17" class="edge">
<title>key 405074
bias &#45;0.981
h_scaling 0.762
output 0.007&#45;&gt;key 10170
bias &#45;0.824
h_scaling 0.468
output 0.523</title>
<path fill="none" stroke="red" stroke-width="1.44" d="M90.28,-492.77C106.41,-411.13 139.8,-263.71 190,-145.28 192.65,-139.03 195.71,-132.68 198.97,-126.43"/>
<polygon fill="red" stroke="red" stroke-width="1.44" points="202.2,-127.82 203.87,-117.36 196.04,-124.49 202.2,-127.82"/>
<text text-anchor="middle" x="145" y="-321.36" font-family="Times,serif" font-size="9.00">0.538</text>
</g>
<!-- key 10170
bias &#45;0.824
h_scaling 0.468
output 0.523&#45;&gt;output
bias &#45;0.942
h_scaling 0.500
output 0.418 -->
<g id="edge14" class="edge">
<title>key 10170
bias &#45;0.824
h_scaling 0.468
output 0.523&#45;&gt;output
bias &#45;0.942
h_scaling 0.500
output 0.418</title>
<path fill="none" stroke="red" stroke-width="2.12" d="M239.87,-127.28C243.54,-176.65 253.67,-246.03 281,-300.56 292.16,-322.82 309.29,-343.76 326.3,-361.21"/>
<polygon fill="red" stroke="red" stroke-width="2.12" points="324.02,-363.87 333.57,-368.46 328.96,-358.92 324.02,-363.87"/>
<text text-anchor="middle" x="295" y="-234.72" font-family="Times,serif" font-size="9.00">0.707</text>
</g>
<!-- key 10170
bias &#45;0.824
h_scaling 0.468
output 0.523&#45;&gt;key 2544
bias &#45;0.668
h_scaling 0.117
output 0.862 -->
<g id="edge2" class="edge">
<title>key 10170
bias &#45;0.824
h_scaling 0.468
output 0.523&#45;&gt;key 2544
bias &#45;0.668
h_scaling 0.117
output 0.862</title>
<path fill="none" stroke="red" stroke-width="3.03" d="M236.9,-127.54C236.86,-136.84 236.88,-146.31 237,-155.28 237.89,-219.87 221.18,-239.08 241,-300.56 245.61,-314.87 250.76,-316.69 260,-328.56 266.57,-337 270.96,-337.12 276,-346.56 303.51,-398.12 284.13,-420.95 309,-473.84 313.2,-482.77 318.65,-482.56 322,-491.84 337.51,-534.82 341.13,-585.99 340.81,-626.82"/>
<polygon fill="red" stroke="red" stroke-width="3.03" points="337.3,-626.91 340.64,-636.97 344.3,-627.02 337.3,-626.91"/>
<text text-anchor="middle" x="274" y="-321.36" font-family="Times,serif" font-size="9.00">0.986</text>
</g>
</g>
</svg>
