<?xml version="1.0" encoding="UTF-8" standalone="no"?>
<!DOCTYPE svg PUBLIC "-//W3C//DTD SVG 1.1//EN"
 "http://www.w3.org/Graphics/SVG/1.1/DTD/svg11.dtd">
<!-- Generated by graphviz version 2.43.0 (0)
 -->
<!-- Title: %3 Pages: 1 -->
<svg width="514pt" height="902pt"
 viewBox="0.00 0.00 513.64 902.40" xmlns="http://www.w3.org/2000/svg" xmlns:xlink="http://www.w3.org/1999/xlink">
<g id="graph0" class="graph" transform="scale(1 1) rotate(0) translate(4 898.4)">
<title>%3</title>
<polygon fill="white" stroke="transparent" points="-4,4 -4,-898.4 509.64,-898.4 509.64,4 -4,4"/>
<!-- ready
output 0.000 -->
<g id="node1" class="node">
<title>ready
output 0.000</title>
<polygon fill="yellow" stroke="black" points="155.5,-894.4 78.5,-894.4 78.5,-866.4 155.5,-866.4 155.5,-894.4"/>
<text text-anchor="middle" x="117" y="-883.2" font-family="Times,serif" font-size="9.00">ready</text>
<text text-anchor="middle" x="117" y="-873.2" font-family="Times,serif" font-size="9.00">output 0.000</text>
</g>
<!-- key 9391
bias &#45;0.640
h_scaling 0.056
output 0.897 -->
<g id="node6" class="node">
<title>key 9391
bias &#45;0.640
h_scaling 0.056
output 0.897</title>
<ellipse fill="white" stroke="black" cx="212" cy="-756.76" rx="63.78" ry="63.78"/>
<text text-anchor="middle" x="212" y="-769.56" font-family="Times,serif" font-size="9.00">key 9391</text>
<text text-anchor="middle" x="212" y="-759.56" font-family="Times,serif" font-size="9.00">bias &#45;0.640</text>
<text text-anchor="middle" x="212" y="-749.56" font-family="Times,serif" font-size="9.00">h_scaling 0.056</text>
<text text-anchor="middle" x="212" y="-739.56" font-family="Times,serif" font-size="9.00">output 0.897</text>
</g>
<!-- ready
output 0.000&#45;&gt;key 9391
bias &#45;0.640
h_scaling 0.056
output 0.897 -->
<g id="edge5" class="edge">
<title>ready
output 0.000&#45;&gt;key 9391
bias &#45;0.640
h_scaling 0.056
output 0.897</title>
<path fill="none" stroke="red" stroke-width="0.83" d="M127.17,-866.38C136.8,-854.04 151.97,-834.62 166.83,-815.59"/>
<polygon fill="red" stroke="red" stroke-width="0.83" points="169.77,-817.52 173.16,-807.48 164.25,-813.21 169.77,-817.52"/>
<text text-anchor="middle" x="162" y="-841.2" font-family="Times,serif" font-size="9.00">0.287</text>
</g>
<!-- key 117660
bias &#45;0.381
h_scaling 0.286
output 0.303 -->
<g id="node8" class="node">
<title>key 117660
bias &#45;0.381
h_scaling 0.286
output 0.303</title>
<ellipse fill="white" stroke="black" cx="92" cy="-236.92" rx="63.78" ry="63.78"/>
<text text-anchor="middle" x="92" y="-249.72" font-family="Times,serif" font-size="9.00">key 117660</text>
<text text-anchor="middle" x="92" y="-239.72" font-family="Times,serif" font-size="9.00">bias &#45;0.381</text>
<text text-anchor="middle" x="92" y="-229.72" font-family="Times,serif" font-size="9.00">h_scaling 0.286</text>
<text text-anchor="middle" x="92" y="-219.72" font-family="Times,serif" font-size="9.00">output 0.303</text>
</g>
<!-- ready
output 0.000&#45;&gt;key 117660
bias &#45;0.381
h_scaling 0.286
output 0.303 -->
<g id="edge12" class="edge">
<title>ready
output 0.000&#45;&gt;key 117660
bias &#45;0.381
h_scaling 0.286
output 0.303</title>
<path fill="none" stroke="blue" stroke-width="2.04" d="M89.86,-866.29C55.3,-847.48 0,-809.33 0,-757.76 0,-757.76 0,-757.76 0,-409.2 0,-367.06 21.88,-325.28 44.3,-293.54"/>
<polygon fill="blue" stroke="blue" stroke-width="2.04" points="47.26,-295.43 50.31,-285.28 41.6,-291.31 47.26,-295.43"/>
<text text-anchor="middle" x="15.5" y="-581.28" font-family="Times,serif" font-size="9.00">&#45;0.647</text>
</g>
<!-- go
output 0.000 -->
<g id="node2" class="node">
<title>go
output 0.000</title>
<polygon fill="green" stroke="black" points="354.5,-894.4 277.5,-894.4 277.5,-866.4 354.5,-866.4 354.5,-894.4"/>
<text text-anchor="middle" x="316" y="-883.2" font-family="Times,serif" font-size="9.00">go</text>
<text text-anchor="middle" x="316" y="-873.2" font-family="Times,serif" font-size="9.00">output 0.000</text>
</g>
<!-- key 14080
bias 0.087
h_scaling 0.033
output 0.982 -->
<g id="node4" class="node">
<title>key 14080
bias 0.087
h_scaling 0.033
output 0.982</title>
<ellipse fill="white" stroke="black" cx="262" cy="-63.64" rx="63.78" ry="63.78"/>
<text text-anchor="middle" x="262" y="-76.44" font-family="Times,serif" font-size="9.00">key 14080</text>
<text text-anchor="middle" x="262" y="-66.44" font-family="Times,serif" font-size="9.00">bias 0.087</text>
<text text-anchor="middle" x="262" y="-56.44" font-family="Times,serif" font-size="9.00">h_scaling 0.033</text>
<text text-anchor="middle" x="262" y="-46.44" font-family="Times,serif" font-size="9.00">output 0.982</text>
</g>
<!-- go
output 0.000&#45;&gt;key 14080
bias 0.087
h_scaling 0.033
output 0.982 -->
<g id="edge7" class="edge">
<title>go
output 0.000&#45;&gt;key 14080
bias 0.087
h_scaling 0.033
output 0.982</title>
<path fill="none" stroke="blue" stroke-width="2.75" d="M322.24,-866.23C332.05,-844.27 350,-798.54 350,-757.76 350,-757.76 350,-757.76 350,-235.92 350,-194.49 329.38,-153.03 308.1,-121.28"/>
<polygon fill="blue" stroke="blue" stroke-width="2.75" points="310.95,-119.26 302.39,-113.01 305.19,-123.23 310.95,-119.26"/>
<text text-anchor="middle" x="365.5" y="-494.64" font-family="Times,serif" font-size="9.00">&#45;0.882</text>
</g>
<!-- go
output 0.000&#45;&gt;key 9391
bias &#45;0.640
h_scaling 0.056
output 0.897 -->
<g id="edge2" class="edge">
<title>go
output 0.000&#45;&gt;key 9391
bias &#45;0.640
h_scaling 0.056
output 0.897</title>
<path fill="none" stroke="blue" stroke-width="3.1" d="M304.87,-866.38C293.95,-853.61 276.54,-833.25 259.73,-813.58"/>
<polygon fill="blue" stroke="blue" stroke-width="3.1" points="262.24,-811.14 253.08,-805.81 256.92,-815.69 262.24,-811.14"/>
<text text-anchor="middle" x="303.5" y="-841.2" font-family="Times,serif" font-size="9.00">&#45;1.000</text>
</g>
<!-- output
bias &#45;0.997
h_scaling 0.534
output 0.574 -->
<g id="node3" class="node">
<title>output
bias &#45;0.997
h_scaling 0.534
output 0.574</title>
<ellipse fill="lightblue" stroke="black" cx="138" cy="-583.48" rx="63.78" ry="63.78"/>
<text text-anchor="middle" x="138" y="-596.28" font-family="Times,serif" font-size="9.00">output</text>
<text text-anchor="middle" x="138" y="-586.28" font-family="Times,serif" font-size="9.00">bias &#45;0.997</text>
<text text-anchor="middle" x="138" y="-576.28" font-family="Times,serif" font-size="9.00">h_scaling 0.534</text>
<text text-anchor="middle" x="138" y="-566.28" font-family="Times,serif" font-size="9.00">output 0.574</text>
</g>
<!-- key 50447
bias &#45;0.299
h_scaling 0.906
output 0.261 -->
<g id="node5" class="node">
<title>key 50447
bias &#45;0.299
h_scaling 0.906
output 0.261</title>
<ellipse fill="white" stroke="black" cx="92" cy="-410.2" rx="63.78" ry="63.78"/>
<text text-anchor="middle" x="92" y="-423" font-family="Times,serif" font-size="9.00">key 50447</text>
<text text-anchor="middle" x="92" y="-413" font-family="Times,serif" font-size="9.00">bias &#45;0.299</text>
<text text-anchor="middle" x="92" y="-403" font-family="Times,serif" font-size="9.00">h_scaling 0.906</text>
<text text-anchor="middle" x="92" y="-393" font-family="Times,serif" font-size="9.00">output 0.261</text>
</g>
<!-- output
bias &#45;0.997
h_scaling 0.534
output 0.574&#45;&gt;key 50447
bias &#45;0.299
h_scaling 0.906
output 0.261 -->
<g id="edge8" class="edge">
<title>output
bias &#45;0.997
h_scaling 0.534
output 0.574&#45;&gt;key 50447
bias &#45;0.299
h_scaling 0.906
output 0.261</title>
<path fill="none" stroke="red" stroke-width="2.8" d="M121.65,-521.61C118.2,-508.74 114.52,-495.05 110.97,-481.85"/>
<polygon fill="red" stroke="red" stroke-width="2.8" points="114.27,-480.62 108.29,-471.87 107.51,-482.44 114.27,-480.62"/>
<text text-anchor="middle" x="129" y="-494.64" font-family="Times,serif" font-size="9.00">1.030</text>
</g>
<!-- key 14080
bias 0.087
h_scaling 0.033
output 0.982&#45;&gt;output
bias &#45;0.997
h_scaling 0.534
output 0.574 -->
<g id="edge11" class="edge">
<title>key 14080
bias 0.087
h_scaling 0.033
output 0.982&#45;&gt;output
bias &#45;0.997
h_scaling 0.534
output 0.574</title>
<path fill="none" stroke="red" stroke-width="1.49" d="M228.06,-118.03C223.46,-126.89 219.22,-136.16 216,-145.28 166.82,-284.63 193.68,-328.87 165,-473.84 162.56,-486.17 159.63,-499.21 156.61,-511.81"/>
<polygon fill="red" stroke="red" stroke-width="1.49" points="153.14,-511.26 154.18,-521.8 159.94,-512.91 153.14,-511.26"/>
<text text-anchor="middle" x="197" y="-321.36" font-family="Times,serif" font-size="9.00">0.516</text>
</g>
<!-- key 14080
bias 0.087
h_scaling 0.033
output 0.982&#45;&gt;key 9391
bias &#45;0.640
h_scaling 0.056
output 0.897 -->
<g id="edge4" class="edge">
<title>key 14080
bias 0.087
h_scaling 0.033
output 0.982&#45;&gt;key 9391
bias &#45;0.640
h_scaling 0.056
output 0.897</title>
<path fill="none" stroke="red" stroke-width="2.46" d="M278.94,-125.17C286.61,-157.72 294,-198.71 294,-235.92 294,-584.48 294,-584.48 294,-584.48 294,-624.71 275.37,-665.5 255.87,-697.18"/>
<polygon fill="red" stroke="red" stroke-width="2.46" points="252.76,-695.55 250.36,-705.87 258.67,-699.3 252.76,-695.55"/>
<text text-anchor="middle" x="308" y="-408" font-family="Times,serif" font-size="9.00">0.790</text>
</g>
<!-- key 50447
bias &#45;0.299
h_scaling 0.906
output 0.261&#45;&gt;key 117660
bias &#45;0.381
h_scaling 0.286
output 0.303 -->
<g id="edge9" class="edge">
<title>key 50447
bias &#45;0.299
h_scaling 0.906
output 0.261&#45;&gt;key 117660
bias &#45;0.381
h_scaling 0.286
output 0.303</title>
<path fill="none" stroke="red" stroke-width="3.06" d="M92,-346.39C92,-334.87 92,-322.76 92,-310.97"/>
<polygon fill="red" stroke="red" stroke-width="3.06" points="95.5,-310.72 92,-300.72 88.5,-310.72 95.5,-310.72"/>
<text text-anchor="middle" x="106" y="-321.36" font-family="Times,serif" font-size="9.00">0.995</text>
</g>
<!-- key 9391
bias &#45;0.640
h_scaling 0.056
output 0.897&#45;&gt;output
bias &#45;0.997
h_scaling 0.534
output 0.574 -->
<g id="edge1" class="edge">
<title>key 9391
bias &#45;0.640
h_scaling 0.056
output 0.897&#45;&gt;output
bias &#45;0.997
h_scaling 0.534
output 0.574</title>
<path fill="none" stroke="red" stroke-width="3.07" d="M186.95,-697.77C180.52,-682.9 173.56,-666.79 166.96,-651.5"/>
<polygon fill="red" stroke="red" stroke-width="3.07" points="170.08,-649.91 162.9,-642.11 163.65,-652.68 170.08,-649.91"/>
<text text-anchor="middle" x="189" y="-667.92" font-family="Times,serif" font-size="9.00">1.057</text>
</g>
<!-- key 9391
bias &#45;0.640
h_scaling 0.056
output 0.897&#45;&gt;key 14080
bias 0.087
h_scaling 0.033
output 0.982 -->
<g id="edge3" class="edge">
<title>key 9391
bias &#45;0.640
h_scaling 0.056
output 0.897&#45;&gt;key 14080
bias 0.087
h_scaling 0.033
output 0.982</title>
<path fill="none" stroke="red" stroke-width="2.97" d="M221.68,-693.68C225.95,-661.23 230,-620.81 230,-584.48 230,-584.48 230,-584.48 230,-235.92 230,-202.34 236.01,-165.69 242.83,-134.93"/>
<polygon fill="red" stroke="red" stroke-width="2.97" points="246.25,-135.69 245.06,-125.17 239.42,-134.13 246.25,-135.69"/>
<text text-anchor="middle" x="244" y="-408" font-family="Times,serif" font-size="9.00">0.962</text>
</g>
<!-- key 9391
bias &#45;0.640
h_scaling 0.056
output 0.897&#45;&gt;key 9391
bias &#45;0.640
h_scaling 0.056
output 0.897 -->
<g id="edge6" class="edge">
<title>key 9391
bias &#45;0.640
h_scaling 0.056
output 0.897&#45;&gt;key 9391
bias &#45;0.640
h_scaling 0.056
output 0.897</title>
<path fill="none" stroke="red" stroke-width="2.3" d="M273.94,-772.05C285.5,-770.17 293.64,-765.07 293.64,-756.76 293.64,-751.04 289.79,-746.84 283.63,-744.17"/>
<polygon fill="red" stroke="red" stroke-width="2.3" points="284.52,-740.78 273.94,-741.46 282.63,-747.52 284.52,-740.78"/>
<text text-anchor="middle" x="307.64" y="-754.56" font-family="Times,serif" font-size="9.00">0.740</text>
</g>
<!-- key 403286
bias 0.476
h_scaling 0.816
output 0.000 -->
<g id="node7" class="node">
<title>key 403286
bias 0.476
h_scaling 0.816
output 0.000</title>
<ellipse fill="white" stroke="black" cx="442" cy="-236.92" rx="63.78" ry="63.78"/>
<text text-anchor="middle" x="442" y="-249.72" font-family="Times,serif" font-size="9.00">key 403286</text>
<text text-anchor="middle" x="442" y="-239.72" font-family="Times,serif" font-size="9.00">bias 0.476</text>
<text text-anchor="middle" x="442" y="-229.72" font-family="Times,serif" font-size="9.00">h_scaling 0.816</text>
<text text-anchor="middle" x="442" y="-219.72" font-family="Times,serif" font-size="9.00">output 0.000</text>
</g>
<!-- key 403286
bias 0.476
h_scaling 0.816
output 0.000&#45;&gt;key 14080
bias 0.087
h_scaling 0.033
output 0.982 -->
<g id="edge13" class="edge">
<title>key 403286
bias 0.476
h_scaling 0.816
output 0.000&#45;&gt;key 14080
bias 0.087
h_scaling 0.033
output 0.982</title>
<path fill="none" stroke="blue" stroke-width="2.19" d="M402.35,-186.39C390.52,-172.59 377.18,-157.93 364,-145.28 350.74,-132.56 335.59,-119.77 321.1,-108.24"/>
<polygon fill="blue" stroke="blue" stroke-width="2.19" points="323.16,-105.41 313.14,-101.98 318.84,-110.91 323.16,-105.41"/>
<text text-anchor="middle" x="388.5" y="-148.08" font-family="Times,serif" font-size="9.00">&#45;0.696</text>
</g>
<!-- key 117660
bias &#45;0.381
h_scaling 0.286
output 0.303&#45;&gt;key 14080
bias 0.087
h_scaling 0.033
output 0.982 -->
<g id="edge10" class="edge">
<title>key 117660
bias &#45;0.381
h_scaling 0.286
output 0.303&#45;&gt;key 14080
bias 0.087
h_scaling 0.033
output 0.982</title>
<path fill="none" stroke="blue" stroke-width="3.1" d="M116.42,-177.91C122.78,-166.38 130.33,-154.88 139,-145.28 155.4,-127.12 176.75,-111.26 197.05,-98.52"/>
<polygon fill="blue" stroke="blue" stroke-width="3.1" points="198.96,-101.45 205.67,-93.25 195.31,-95.48 198.96,-101.45"/>
<text text-anchor="middle" x="154.5" y="-148.08" font-family="Times,serif" font-size="9.00">&#45;0.999</text>
</g>
</g>
</svg>
