<?xml version="1.0" encoding="UTF-8" standalone="no"?>
<!DOCTYPE svg PUBLIC "-//W3C//DTD SVG 1.1//EN"
 "http://www.w3.org/Graphics/SVG/1.1/DTD/svg11.dtd">
<!-- Generated by graphviz version 2.43.0 (0)
 -->
<!-- Title: %3 Pages: 1 -->
<svg width="515pt" height="1076pt"
 viewBox="0.00 0.00 515.00 1075.68" xmlns="http://www.w3.org/2000/svg" xmlns:xlink="http://www.w3.org/1999/xlink">
<g id="graph0" class="graph" transform="scale(1 1) rotate(0) translate(4 1071.68)">
<title>%3</title>
<polygon fill="white" stroke="transparent" points="-4,4 -4,-1071.68 511,-1071.68 511,4 -4,4"/>
<!-- ready
output 0.000 -->
<g id="node1" class="node">
<title>ready
output 0.000</title>
<polygon fill="yellow" stroke="black" points="243.5,-1067.68 166.5,-1067.68 166.5,-1039.68 243.5,-1039.68 243.5,-1067.68"/>
<text text-anchor="middle" x="205" y="-1056.48" font-family="Times,serif" font-size="9.00">ready</text>
<text text-anchor="middle" x="205" y="-1046.48" font-family="Times,serif" font-size="9.00">output 0.000</text>
</g>
<!-- key 108608
bias &#45;0.324
h_scaling 1.000
output 0.547 -->
<g id="node4" class="node">
<title>key 108608
bias &#45;0.324
h_scaling 1.000
output 0.547</title>
<ellipse fill="white" stroke="black" cx="351" cy="-930.04" rx="63.78" ry="63.78"/>
<text text-anchor="middle" x="351" y="-942.84" font-family="Times,serif" font-size="9.00">key 108608</text>
<text text-anchor="middle" x="351" y="-932.84" font-family="Times,serif" font-size="9.00">bias &#45;0.324</text>
<text text-anchor="middle" x="351" y="-922.84" font-family="Times,serif" font-size="9.00">h_scaling 1.000</text>
<text text-anchor="middle" x="351" y="-912.84" font-family="Times,serif" font-size="9.00">output 0.547</text>
</g>
<!-- ready
output 0.000&#45;&gt;key 108608
bias &#45;0.324
h_scaling 1.000
output 0.547 -->
<g id="edge12" class="edge">
<title>ready
output 0.000&#45;&gt;key 108608
bias &#45;0.324
h_scaling 1.000
output 0.547</title>
<path fill="none" stroke="red" stroke-width="0.1" d="M220.62,-1039.66C238.3,-1024.93 268.1,-1000.1 294.75,-977.9"/>
<polygon fill="red" stroke="red" stroke-width="0.1" points="297.09,-980.5 302.54,-971.41 292.61,-975.13 297.09,-980.5"/>
<text text-anchor="middle" x="267" y="-1014.48" font-family="Times,serif" font-size="9.00">0.966</text>
</g>
<!-- key 2153
bias &#45;0.512
h_scaling 1.000
output 0.067 -->
<g id="node6" class="node">
<title>key 2153
bias &#45;0.512
h_scaling 1.000
output 0.067</title>
<ellipse fill="white" stroke="black" cx="205" cy="-756.76" rx="63.78" ry="63.78"/>
<text text-anchor="middle" x="205" y="-769.56" font-family="Times,serif" font-size="9.00">key 2153</text>
<text text-anchor="middle" x="205" y="-759.56" font-family="Times,serif" font-size="9.00">bias &#45;0.512</text>
<text text-anchor="middle" x="205" y="-749.56" font-family="Times,serif" font-size="9.00">h_scaling 1.000</text>
<text text-anchor="middle" x="205" y="-739.56" font-family="Times,serif" font-size="9.00">output 0.067</text>
</g>
<!-- ready
output 0.000&#45;&gt;key 2153
bias &#45;0.512
h_scaling 1.000
output 0.067 -->
<g id="edge2" class="edge">
<title>ready
output 0.000&#45;&gt;key 2153
bias &#45;0.512
h_scaling 1.000
output 0.067</title>
<path fill="none" stroke="blue" stroke-width="0.1" d="M205,-1039.62C205,-1003.76 205,-901.7 205,-830.78"/>
<polygon fill="blue" stroke="blue" stroke-width="0.1" points="208.5,-830.55 205,-820.55 201.5,-830.55 208.5,-830.55"/>
<text text-anchor="middle" x="220.5" y="-927.84" font-family="Times,serif" font-size="9.00">&#45;0.207</text>
</g>
<!-- key 7657
bias &#45;0.507
h_scaling 1.000
output 0.024 -->
<g id="node7" class="node">
<title>key 7657
bias &#45;0.507
h_scaling 1.000
output 0.024</title>
<ellipse fill="white" stroke="black" cx="207" cy="-410.2" rx="63.78" ry="63.78"/>
<text text-anchor="middle" x="207" y="-423" font-family="Times,serif" font-size="9.00">key 7657</text>
<text text-anchor="middle" x="207" y="-413" font-family="Times,serif" font-size="9.00">bias &#45;0.507</text>
<text text-anchor="middle" x="207" y="-403" font-family="Times,serif" font-size="9.00">h_scaling 1.000</text>
<text text-anchor="middle" x="207" y="-393" font-family="Times,serif" font-size="9.00">output 0.024</text>
</g>
<!-- ready
output 0.000&#45;&gt;key 7657
bias &#45;0.507
h_scaling 1.000
output 0.024 -->
<g id="edge19" class="edge">
<title>ready
output 0.000&#45;&gt;key 7657
bias &#45;0.507
h_scaling 1.000
output 0.024</title>
<path fill="none" stroke="blue" stroke-width="0.1" d="M166.44,-1047.46C107.06,-1037.03 0,-1007.6 0,-931.04 0,-931.04 0,-931.04 0,-582.48 0,-507.52 69,-518.76 129,-473.84 135.8,-468.75 142.84,-463.32 149.79,-457.87"/>
<polygon fill="blue" stroke="blue" stroke-width="0.1" points="152.21,-460.42 157.88,-451.47 147.87,-454.93 152.21,-460.42"/>
<text text-anchor="middle" x="15.5" y="-754.56" font-family="Times,serif" font-size="9.00">&#45;0.075</text>
</g>
<!-- go
output 0.000 -->
<g id="node2" class="node">
<title>go
output 0.000</title>
<polygon fill="green" stroke="black" points="137.5,-944.04 60.5,-944.04 60.5,-916.04 137.5,-916.04 137.5,-944.04"/>
<text text-anchor="middle" x="99" y="-932.84" font-family="Times,serif" font-size="9.00">go</text>
<text text-anchor="middle" x="99" y="-922.84" font-family="Times,serif" font-size="9.00">output 0.000</text>
</g>
<!-- go
output 0.000&#45;&gt;key 2153
bias &#45;0.512
h_scaling 1.000
output 0.067 -->
<g id="edge1" class="edge">
<title>go
output 0.000&#45;&gt;key 2153
bias &#45;0.512
h_scaling 1.000
output 0.067</title>
<path fill="none" stroke="red" stroke-width="0.1" d="M107.14,-915.88C119.74,-895.52 144.78,-855.07 166.37,-820.18"/>
<polygon fill="red" stroke="red" stroke-width="0.1" points="169.49,-821.79 171.78,-811.44 163.54,-818.1 169.49,-821.79"/>
<text text-anchor="middle" x="166" y="-841.2" font-family="Times,serif" font-size="9.00">0.922</text>
</g>
<!-- go
output 0.000&#45;&gt;key 7657
bias &#45;0.507
h_scaling 1.000
output 0.024 -->
<g id="edge9" class="edge">
<title>go
output 0.000&#45;&gt;key 7657
bias &#45;0.507
h_scaling 1.000
output 0.024</title>
<path fill="none" stroke="red" stroke-width="0.1" d="M93.37,-915.92C77.47,-877.05 34.98,-759.35 60,-665.12 79.46,-591.82 126.01,-517.89 161.55,-468.86"/>
<polygon fill="red" stroke="red" stroke-width="0.1" points="164.51,-470.74 167.6,-460.61 158.87,-466.6 164.51,-470.74"/>
<text text-anchor="middle" x="74" y="-667.92" font-family="Times,serif" font-size="9.00">0.935</text>
</g>
<!-- output
bias 0.577
h_scaling 1.000
output 0.840 -->
<g id="node3" class="node">
<title>output
bias 0.577
h_scaling 1.000
output 0.840</title>
<ellipse fill="lightblue" stroke="black" cx="317" cy="-583.48" rx="63.78" ry="63.78"/>
<text text-anchor="middle" x="317" y="-596.28" font-family="Times,serif" font-size="9.00">output</text>
<text text-anchor="middle" x="317" y="-586.28" font-family="Times,serif" font-size="9.00">bias 0.577</text>
<text text-anchor="middle" x="317" y="-576.28" font-family="Times,serif" font-size="9.00">h_scaling 1.000</text>
<text text-anchor="middle" x="317" y="-566.28" font-family="Times,serif" font-size="9.00">output 0.840</text>
</g>
<!-- output
bias 0.577
h_scaling 1.000
output 0.840&#45;&gt;key 108608
bias &#45;0.324
h_scaling 1.000
output 0.547 -->
<g id="edge21" class="edge">
<title>output
bias 0.577
h_scaling 1.000
output 0.840&#45;&gt;key 108608
bias &#45;0.324
h_scaling 1.000
output 0.547</title>
<path fill="none" stroke="red" stroke-width="0.1" d="M323.17,-646.99C328.99,-706 337.72,-794.45 343.84,-856.53"/>
<polygon fill="red" stroke="red" stroke-width="0.1" points="340.38,-857.03 344.84,-866.64 347.34,-856.34 340.38,-857.03"/>
<text text-anchor="middle" x="355" y="-754.56" font-family="Times,serif" font-size="9.00">0.141</text>
</g>
<!-- key 143081
bias &#45;0.163
h_scaling 1.000
output 0.886 -->
<g id="node5" class="node">
<title>key 143081
bias &#45;0.163
h_scaling 1.000
output 0.886</title>
<ellipse fill="white" stroke="black" cx="340" cy="-236.92" rx="63.78" ry="63.78"/>
<text text-anchor="middle" x="340" y="-249.72" font-family="Times,serif" font-size="9.00">key 143081</text>
<text text-anchor="middle" x="340" y="-239.72" font-family="Times,serif" font-size="9.00">bias &#45;0.163</text>
<text text-anchor="middle" x="340" y="-229.72" font-family="Times,serif" font-size="9.00">h_scaling 1.000</text>
<text text-anchor="middle" x="340" y="-219.72" font-family="Times,serif" font-size="9.00">output 0.886</text>
</g>
<!-- output
bias 0.577
h_scaling 1.000
output 0.840&#45;&gt;key 143081
bias &#45;0.163
h_scaling 1.000
output 0.886 -->
<g id="edge15" class="edge">
<title>output
bias 0.577
h_scaling 1.000
output 0.840&#45;&gt;key 143081
bias &#45;0.163
h_scaling 1.000
output 0.886</title>
<path fill="none" stroke="red" stroke-width="0.1" d="M321.19,-519.68C325.13,-460.75 331.01,-372.64 335.14,-310.67"/>
<polygon fill="red" stroke="red" stroke-width="0.1" points="338.64,-310.79 335.82,-300.57 331.66,-310.32 338.64,-310.79"/>
<text text-anchor="middle" x="347" y="-408" font-family="Times,serif" font-size="9.00">0.994</text>
</g>
<!-- output
bias 0.577
h_scaling 1.000
output 0.840&#45;&gt;key 2153
bias &#45;0.512
h_scaling 1.000
output 0.067 -->
<g id="edge10" class="edge">
<title>output
bias 0.577
h_scaling 1.000
output 0.840&#45;&gt;key 2153
bias &#45;0.512
h_scaling 1.000
output 0.067</title>
<path fill="none" stroke="blue" stroke-width="0.1" d="M297.07,-644.09C292.46,-654.78 287.09,-665.55 281,-675.12 274.4,-685.49 266.35,-695.71 258,-705.2"/>
<polygon fill="blue" stroke="blue" stroke-width="0.1" points="255.37,-702.89 251.26,-712.65 260.56,-707.59 255.37,-702.89"/>
<text text-anchor="middle" x="302.5" y="-667.92" font-family="Times,serif" font-size="9.00">&#45;0.049</text>
</g>
<!-- output
bias 0.577
h_scaling 1.000
output 0.840&#45;&gt;key 7657
bias &#45;0.507
h_scaling 1.000
output 0.024 -->
<g id="edge7" class="edge">
<title>output
bias 0.577
h_scaling 1.000
output 0.840&#45;&gt;key 7657
bias &#45;0.507
h_scaling 1.000
output 0.024</title>
<path fill="none" stroke="blue" stroke-width="0.1" d="M268.92,-541.31C257.26,-529.49 245.67,-515.96 237,-501.84 233.13,-495.52 229.69,-488.65 226.66,-481.61"/>
<polygon fill="blue" stroke="blue" stroke-width="0.1" points="229.75,-479.91 222.77,-471.94 223.25,-482.52 229.75,-479.91"/>
<text text-anchor="middle" x="252.5" y="-494.64" font-family="Times,serif" font-size="9.00">&#45;0.580</text>
</g>
<!-- key 108608
bias &#45;0.324
h_scaling 1.000
output 0.547&#45;&gt;key 108608
bias &#45;0.324
h_scaling 1.000
output 0.547 -->
<g id="edge14" class="edge">
<title>key 108608
bias &#45;0.324
h_scaling 1.000
output 0.547&#45;&gt;key 108608
bias &#45;0.324
h_scaling 1.000
output 0.547</title>
<path fill="none" stroke="red" stroke-width="0.1" d="M412.94,-945.33C424.5,-943.45 432.64,-938.35 432.64,-930.04 432.64,-924.32 428.79,-920.12 422.63,-917.45"/>
<polygon fill="red" stroke="red" stroke-width="0.1" points="423.52,-914.06 412.94,-914.74 421.63,-920.8 423.52,-914.06"/>
<text text-anchor="middle" x="446.64" y="-927.84" font-family="Times,serif" font-size="9.00">0.580</text>
</g>
<!-- key 108608
bias &#45;0.324
h_scaling 1.000
output 0.547&#45;&gt;key 2153
bias &#45;0.512
h_scaling 1.000
output 0.067 -->
<g id="edge13" class="edge">
<title>key 108608
bias &#45;0.324
h_scaling 1.000
output 0.547&#45;&gt;key 2153
bias &#45;0.512
h_scaling 1.000
output 0.067</title>
<path fill="none" stroke="blue" stroke-width="0.1" d="M309.94,-880.87C292.14,-859.98 271.18,-835.39 252.69,-813.71"/>
<polygon fill="blue" stroke="blue" stroke-width="0.1" points="255.15,-811.2 246,-805.86 249.83,-815.74 255.15,-811.2"/>
<text text-anchor="middle" x="293.5" y="-841.2" font-family="Times,serif" font-size="9.00">&#45;0.268</text>
</g>
<!-- key 106644
bias &#45;0.520
h_scaling 1.000
output 0.205 -->
<g id="node8" class="node">
<title>key 106644
bias &#45;0.520
h_scaling 1.000
output 0.205</title>
<ellipse fill="white" stroke="black" cx="340" cy="-63.64" rx="63.78" ry="63.78"/>
<text text-anchor="middle" x="340" y="-76.44" font-family="Times,serif" font-size="9.00">key 106644</text>
<text text-anchor="middle" x="340" y="-66.44" font-family="Times,serif" font-size="9.00">bias &#45;0.520</text>
<text text-anchor="middle" x="340" y="-56.44" font-family="Times,serif" font-size="9.00">h_scaling 1.000</text>
<text text-anchor="middle" x="340" y="-46.44" font-family="Times,serif" font-size="9.00">output 0.205</text>
</g>
<!-- key 108608
bias &#45;0.324
h_scaling 1.000
output 0.547&#45;&gt;key 106644
bias &#45;0.520
h_scaling 1.000
output 0.205 -->
<g id="edge17" class="edge">
<title>key 108608
bias &#45;0.324
h_scaling 1.000
output 0.547&#45;&gt;key 106644
bias &#45;0.520
h_scaling 1.000
output 0.205</title>
<path fill="none" stroke="blue" stroke-width="0.1" d="M401.12,-890.46C435.9,-858.99 476,-811.13 476,-757.76 476,-757.76 476,-757.76 476,-235.92 476,-183.46 436.38,-137.73 399.91,-106.75"/>
<polygon fill="blue" stroke="blue" stroke-width="0.1" points="402.13,-104.04 392.19,-100.37 397.67,-109.44 402.13,-104.04"/>
<text text-anchor="middle" x="491.5" y="-494.64" font-family="Times,serif" font-size="9.00">&#45;0.256</text>
</g>
<!-- key 143081
bias &#45;0.163
h_scaling 1.000
output 0.886&#45;&gt;key 108608
bias &#45;0.324
h_scaling 1.000
output 0.547 -->
<g id="edge22" class="edge">
<title>key 143081
bias &#45;0.163
h_scaling 1.000
output 0.886&#45;&gt;key 108608
bias &#45;0.324
h_scaling 1.000
output 0.547</title>
<path fill="none" stroke="blue" stroke-width="0.1" d="M376.7,-289.25C396.53,-321.97 417,-366.16 417,-409.2 417,-757.76 417,-757.76 417,-757.76 417,-795.32 403.01,-834.6 387.91,-866.05"/>
<polygon fill="blue" stroke="blue" stroke-width="0.1" points="384.72,-864.62 383.42,-875.13 390.99,-867.72 384.72,-864.62"/>
<text text-anchor="middle" x="432.5" y="-581.28" font-family="Times,serif" font-size="9.00">&#45;0.079</text>
</g>
<!-- key 143081
bias &#45;0.163
h_scaling 1.000
output 0.886&#45;&gt;key 106644
bias &#45;0.520
h_scaling 1.000
output 0.205 -->
<g id="edge16" class="edge">
<title>key 143081
bias &#45;0.163
h_scaling 1.000
output 0.886&#45;&gt;key 106644
bias &#45;0.520
h_scaling 1.000
output 0.205</title>
<path fill="none" stroke="red" stroke-width="0.1" d="M340,-173.11C340,-161.59 340,-149.48 340,-137.69"/>
<polygon fill="red" stroke="red" stroke-width="0.1" points="343.5,-137.44 340,-127.44 336.5,-137.44 343.5,-137.44"/>
<text text-anchor="middle" x="354" y="-148.08" font-family="Times,serif" font-size="9.00">0.969</text>
</g>
<!-- key 2153
bias &#45;0.512
h_scaling 1.000
output 0.067&#45;&gt;output
bias 0.577
h_scaling 1.000
output 0.840 -->
<g id="edge3" class="edge">
<title>key 2153
bias &#45;0.512
h_scaling 1.000
output 0.067&#45;&gt;output
bias 0.577
h_scaling 1.000
output 0.840</title>
<path fill="none" stroke="blue" stroke-width="0.1" d="M230.87,-698.54C236.7,-687.2 243.19,-675.57 250,-665.12 255.57,-656.56 261.91,-647.89 268.42,-639.55"/>
<polygon fill="blue" stroke="blue" stroke-width="0.1" points="271.2,-641.68 274.7,-631.68 265.73,-637.32 271.2,-641.68"/>
<text text-anchor="middle" x="265.5" y="-667.92" font-family="Times,serif" font-size="9.00">&#45;1.000</text>
</g>
<!-- key 2153
bias &#45;0.512
h_scaling 1.000
output 0.067&#45;&gt;key 2153
bias &#45;0.512
h_scaling 1.000
output 0.067 -->
<g id="edge6" class="edge">
<title>key 2153
bias &#45;0.512
h_scaling 1.000
output 0.067&#45;&gt;key 2153
bias &#45;0.512
h_scaling 1.000
output 0.067</title>
<path fill="none" stroke="red" stroke-width="0.1" d="M266.94,-772.05C278.5,-770.17 286.64,-765.07 286.64,-756.76 286.64,-751.04 282.79,-746.84 276.63,-744.17"/>
<polygon fill="red" stroke="red" stroke-width="0.1" points="277.52,-740.78 266.94,-741.46 275.63,-747.52 277.52,-740.78"/>
<text text-anchor="middle" x="300.64" y="-754.56" font-family="Times,serif" font-size="9.00">0.740</text>
</g>
<!-- key 2153
bias &#45;0.512
h_scaling 1.000
output 0.067&#45;&gt;key 7657
bias &#45;0.507
h_scaling 1.000
output 0.024 -->
<g id="edge4" class="edge">
<title>key 2153
bias &#45;0.512
h_scaling 1.000
output 0.067&#45;&gt;key 7657
bias &#45;0.507
h_scaling 1.000
output 0.024</title>
<path fill="none" stroke="red" stroke-width="0.1" d="M175.21,-700.3C167.75,-683.67 160.79,-665.07 157,-647.12 145.32,-591.77 144.89,-575.1 157,-519.84 160.28,-504.86 165.83,-489.49 172.06,-475.2"/>
<polygon fill="red" stroke="red" stroke-width="0.1" points="175.3,-476.52 176.24,-465.97 168.92,-473.64 175.3,-476.52"/>
<text text-anchor="middle" x="171" y="-581.28" font-family="Times,serif" font-size="9.00">1.000</text>
</g>
<!-- key 7657
bias &#45;0.507
h_scaling 1.000
output 0.024&#45;&gt;output
bias 0.577
h_scaling 1.000
output 0.840 -->
<g id="edge5" class="edge">
<title>key 7657
bias &#45;0.507
h_scaling 1.000
output 0.024&#45;&gt;output
bias 0.577
h_scaling 1.000
output 0.840</title>
<path fill="none" stroke="blue" stroke-width="0.1" d="M248.31,-458.96C256.59,-469.48 264.92,-480.78 272,-491.84 276.94,-499.55 281.73,-507.88 286.24,-516.26"/>
<polygon fill="blue" stroke="blue" stroke-width="0.1" points="283.26,-518.11 291,-525.34 289.46,-514.86 283.26,-518.11"/>
<text text-anchor="middle" x="293.5" y="-494.64" font-family="Times,serif" font-size="9.00">&#45;1.000</text>
</g>
<!-- key 7657
bias &#45;0.507
h_scaling 1.000
output 0.024&#45;&gt;key 143081
bias &#45;0.163
h_scaling 1.000
output 0.886 -->
<g id="edge18" class="edge">
<title>key 7657
bias &#45;0.507
h_scaling 1.000
output 0.024&#45;&gt;key 143081
bias &#45;0.163
h_scaling 1.000
output 0.886</title>
<path fill="none" stroke="blue" stroke-width="0.1" d="M245.83,-359.2C261.26,-339.32 279.11,-316.33 295.1,-295.74"/>
<polygon fill="blue" stroke="blue" stroke-width="0.1" points="297.99,-297.73 301.36,-287.69 292.46,-293.44 297.99,-297.73"/>
<text text-anchor="middle" x="289.5" y="-321.36" font-family="Times,serif" font-size="9.00">&#45;0.073</text>
</g>
<!-- key 7657
bias &#45;0.507
h_scaling 1.000
output 0.024&#45;&gt;key 2153
bias &#45;0.512
h_scaling 1.000
output 0.067 -->
<g id="edge8" class="edge">
<title>key 7657
bias &#45;0.507
h_scaling 1.000
output 0.024&#45;&gt;key 2153
bias &#45;0.512
h_scaling 1.000
output 0.067</title>
<path fill="none" stroke="red" stroke-width="0.1" d="M206.64,-473.85C206.29,-532.74 205.78,-620.85 205.42,-682.86"/>
<polygon fill="red" stroke="red" stroke-width="0.1" points="201.92,-682.94 205.36,-692.96 208.92,-682.98 201.92,-682.94"/>
<text text-anchor="middle" x="221" y="-581.28" font-family="Times,serif" font-size="9.00">0.228</text>
</g>
<!-- key 106644
bias &#45;0.520
h_scaling 1.000
output 0.205&#45;&gt;key 2153
bias &#45;0.512
h_scaling 1.000
output 0.067 -->
<g id="edge11" class="edge">
<title>key 106644
bias &#45;0.520
h_scaling 1.000
output 0.205&#45;&gt;key 2153
bias &#45;0.512
h_scaling 1.000
output 0.067</title>
<path fill="none" stroke="red" stroke-width="0.1" d="M278.05,-79.37C206.06,-100.61 97,-147.4 97,-235.92 97,-497.84 97,-497.84 97,-497.84 97,-569.74 133.15,-644.77 163.62,-695.25"/>
<polygon fill="red" stroke="red" stroke-width="0.1" points="160.82,-697.38 169.04,-704.07 166.79,-693.71 160.82,-697.38"/>
<text text-anchor="middle" x="111" y="-408" font-family="Times,serif" font-size="9.00">0.383</text>
</g>
<!-- key 106644
bias &#45;0.520
h_scaling 1.000
output 0.205&#45;&gt;key 106644
bias &#45;0.520
h_scaling 1.000
output 0.205 -->
<g id="edge20" class="edge">
<title>key 106644
bias &#45;0.520
h_scaling 1.000
output 0.205&#45;&gt;key 106644
bias &#45;0.520
h_scaling 1.000
output 0.205</title>
<path fill="none" stroke="red" stroke-width="0.1" d="M401.94,-78.94C413.5,-77.05 421.64,-71.95 421.64,-63.64 421.64,-57.92 417.79,-53.73 411.63,-51.05"/>
<polygon fill="red" stroke="red" stroke-width="0.1" points="412.52,-47.66 401.94,-48.34 410.63,-54.4 412.52,-47.66"/>
<text text-anchor="middle" x="435.64" y="-61.44" font-family="Times,serif" font-size="9.00">0.016</text>
</g>
</g>
</svg>
