<?xml version="1.0" encoding="UTF-8" standalone="no"?>
<!DOCTYPE svg PUBLIC "-//W3C//DTD SVG 1.1//EN"
 "http://www.w3.org/Graphics/SVG/1.1/DTD/svg11.dtd">
<!-- Generated by graphviz version 2.43.0 (0)
 -->
<!-- Title: %3 Pages: 1 -->
<svg width="418pt" height="719pt"
 viewBox="0.00 0.00 418.00 719.12" xmlns="http://www.w3.org/2000/svg" xmlns:xlink="http://www.w3.org/1999/xlink">
<g id="graph0" class="graph" transform="scale(1 1) rotate(0) translate(4 715.12)">
<title>%3</title>
<polygon fill="white" stroke="transparent" points="-4,4 -4,-715.12 414,-715.12 414,4 -4,4"/>
<!-- ready -->
<g id="node1" class="node">
<title>ready</title>
<polygon fill="yellow" stroke="black" points="100.5,-711.12 57.5,-711.12 57.5,-693.12 100.5,-693.12 100.5,-711.12"/>
<text text-anchor="middle" x="79" y="-699.92" font-family="Times,serif" font-size="9.00">ready</text>
</g>
<!-- key 1818
bias 0.164
h_scaling 1.000 -->
<g id="node4" class="node">
<title>key 1818
bias 0.164
h_scaling 1.000</title>
<ellipse fill="white" stroke="black" cx="166" cy="-583.48" rx="63.78" ry="63.78"/>
<text text-anchor="middle" x="166" y="-591.28" font-family="Times,serif" font-size="9.00">key 1818</text>
<text text-anchor="middle" x="166" y="-581.28" font-family="Times,serif" font-size="9.00">bias 0.164</text>
<text text-anchor="middle" x="166" y="-571.28" font-family="Times,serif" font-size="9.00">h_scaling 1.000</text>
</g>
<!-- ready&#45;&gt;key 1818
bias 0.164
h_scaling 1.000 -->
<g id="edge6" class="edge">
<title>ready&#45;&gt;key 1818
bias 0.164
h_scaling 1.000</title>
<path fill="none" stroke="blue" stroke-width="1.18" d="M84.98,-693.1C92.88,-682.51 107.5,-662.91 122.18,-643.23"/>
<polygon fill="blue" stroke="blue" stroke-width="1.18" points="125.05,-645.23 128.23,-635.12 119.44,-641.04 125.05,-645.23"/>
<text text-anchor="middle" x="120.5" y="-667.92" font-family="Times,serif" font-size="9.00">&#45;0.360</text>
</g>
<!-- key 25567
bias &#45;0.416
h_scaling 1.000 -->
<g id="node6" class="node">
<title>key 25567
bias &#45;0.416
h_scaling 1.000</title>
<ellipse fill="white" stroke="black" cx="106" cy="-63.64" rx="63.78" ry="63.78"/>
<text text-anchor="middle" x="106" y="-71.44" font-family="Times,serif" font-size="9.00">key 25567</text>
<text text-anchor="middle" x="106" y="-61.44" font-family="Times,serif" font-size="9.00">bias &#45;0.416</text>
<text text-anchor="middle" x="106" y="-51.44" font-family="Times,serif" font-size="9.00">h_scaling 1.000</text>
</g>
<!-- ready&#45;&gt;key 25567
bias &#45;0.416
h_scaling 1.000 -->
<g id="edge3" class="edge">
<title>ready&#45;&gt;key 25567
bias &#45;0.416
h_scaling 1.000</title>
<path fill="none" stroke="red" stroke-width="1.26" d="M68.35,-693.06C46.78,-675.76 0,-632.66 0,-584.48 0,-584.48 0,-584.48 0,-235.92 0,-190.79 26.94,-147.63 53.66,-115.92"/>
<polygon fill="red" stroke="red" stroke-width="1.26" points="56.52,-117.96 60.43,-108.12 51.24,-113.38 56.52,-117.96"/>
<text text-anchor="middle" x="14" y="-408" font-family="Times,serif" font-size="9.00">0.385</text>
</g>
<!-- go -->
<g id="node2" class="node">
<title>go</title>
<polygon fill="green" stroke="black" points="307,-711.12 279,-711.12 279,-693.12 307,-693.12 307,-711.12"/>
<text text-anchor="middle" x="293" y="-699.92" font-family="Times,serif" font-size="9.00">go</text>
</g>
<!-- go&#45;&gt;key 1818
bias 0.164
h_scaling 1.000 -->
<g id="edge1" class="edge">
<title>go&#45;&gt;key 1818
bias 0.164
h_scaling 1.000</title>
<path fill="none" stroke="red" stroke-width="3.1" d="M278.76,-693.55C270.32,-688.77 259.63,-682.18 251,-675.12 238.28,-664.71 225.6,-652.47 214.07,-640.4"/>
<polygon fill="red" stroke="red" stroke-width="3.1" points="216.45,-637.82 207.05,-632.94 211.35,-642.62 216.45,-637.82"/>
<text text-anchor="middle" x="265" y="-667.92" font-family="Times,serif" font-size="9.00">1.000</text>
</g>
<!-- key 41239
bias &#45;0.619
h_scaling 1.000 -->
<g id="node5" class="node">
<title>key 41239
bias &#45;0.619
h_scaling 1.000</title>
<ellipse fill="white" stroke="black" cx="279" cy="-410.2" rx="63.78" ry="63.78"/>
<text text-anchor="middle" x="279" y="-418" font-family="Times,serif" font-size="9.00">key 41239</text>
<text text-anchor="middle" x="279" y="-408" font-family="Times,serif" font-size="9.00">bias &#45;0.619</text>
<text text-anchor="middle" x="279" y="-398" font-family="Times,serif" font-size="9.00">h_scaling 1.000</text>
</g>
<!-- go&#45;&gt;key 41239
bias &#45;0.619
h_scaling 1.000 -->
<g id="edge11" class="edge">
<title>go&#45;&gt;key 41239
bias &#45;0.619
h_scaling 1.000</title>
<path fill="none" stroke="red" stroke-width="2.17" d="M292.61,-693.06C291.17,-663.28 286.06,-557.34 282.52,-484.18"/>
<polygon fill="red" stroke="red" stroke-width="2.17" points="286.01,-483.9 282.04,-474.08 279.02,-484.24 286.01,-483.9"/>
<text text-anchor="middle" x="304" y="-581.28" font-family="Times,serif" font-size="9.00">0.691</text>
</g>
<!-- go&#45;&gt;key 25567
bias &#45;0.416
h_scaling 1.000 -->
<g id="edge7" class="edge">
<title>go&#45;&gt;key 25567
bias &#45;0.416
h_scaling 1.000</title>
<path fill="none" stroke="blue" stroke-width="0.61" d="M304.96,-693.02C328.59,-675.96 379,-633.79 379,-584.48 379,-584.48 379,-584.48 379,-235.92 379,-141.21 259.66,-96.87 178.78,-77.69"/>
<polygon fill="blue" stroke="blue" stroke-width="0.61" points="179.16,-74.18 168.63,-75.36 177.6,-81.01 179.16,-74.18"/>
<text text-anchor="middle" x="394.5" y="-408" font-family="Times,serif" font-size="9.00">&#45;0.169</text>
</g>
<!-- output
bias 0.596
h_scaling 1.000 -->
<g id="node3" class="node">
<title>output
bias 0.596
h_scaling 1.000</title>
<ellipse fill="lightblue" stroke="black" cx="157" cy="-236.92" rx="63.78" ry="63.78"/>
<text text-anchor="middle" x="157" y="-244.72" font-family="Times,serif" font-size="9.00">output</text>
<text text-anchor="middle" x="157" y="-234.72" font-family="Times,serif" font-size="9.00">bias 0.596</text>
<text text-anchor="middle" x="157" y="-224.72" font-family="Times,serif" font-size="9.00">h_scaling 1.000</text>
</g>
<!-- output
bias 0.596
h_scaling 1.000&#45;&gt;key 1818
bias 0.164
h_scaling 1.000 -->
<g id="edge14" class="edge">
<title>output
bias 0.596
h_scaling 1.000&#45;&gt;key 1818
bias 0.164
h_scaling 1.000</title>
<path fill="none" stroke="red" stroke-width="0.23" d="M137.4,-297.66C133.1,-313.39 129.18,-330.47 127,-346.56 119.4,-402.61 117.3,-418.11 127,-473.84 129.38,-487.5 133.32,-501.72 137.81,-515.19"/>
<polygon fill="red" stroke="red" stroke-width="0.23" points="134.57,-516.54 141.16,-524.84 141.19,-514.25 134.57,-516.54"/>
<text text-anchor="middle" x="141" y="-408" font-family="Times,serif" font-size="9.00">0.042</text>
</g>
<!-- output
bias 0.596
h_scaling 1.000&#45;&gt;key 25567
bias &#45;0.416
h_scaling 1.000 -->
<g id="edge12" class="edge">
<title>output
bias 0.596
h_scaling 1.000&#45;&gt;key 25567
bias &#45;0.416
h_scaling 1.000</title>
<path fill="none" stroke="blue" stroke-width="0.32" d="M143.1,-174.73C140.58,-164.84 137.84,-154.74 135,-145.28 133.8,-141.27 132.51,-137.17 131.17,-133.05"/>
<polygon fill="blue" stroke="blue" stroke-width="0.32" points="134.44,-131.79 127.96,-123.41 127.8,-134.01 134.44,-131.79"/>
<text text-anchor="middle" x="152.5" y="-148.08" font-family="Times,serif" font-size="9.00">&#45;0.074</text>
</g>
<!-- key 1818
bias 0.164
h_scaling 1.000&#45;&gt;output
bias 0.596
h_scaling 1.000 -->
<g id="edge2" class="edge">
<title>key 1818
bias 0.164
h_scaling 1.000&#45;&gt;output
bias 0.596
h_scaling 1.000</title>
<path fill="none" stroke="blue" stroke-width="3.06" d="M164.36,-519.68C162.82,-460.75 160.52,-372.64 158.9,-310.67"/>
<polygon fill="blue" stroke="blue" stroke-width="3.06" points="162.4,-310.48 158.64,-300.57 155.4,-310.66 162.4,-310.48"/>
<text text-anchor="middle" x="178.5" y="-408" font-family="Times,serif" font-size="9.00">&#45;0.987</text>
</g>
<!-- key 1818
bias 0.164
h_scaling 1.000&#45;&gt;key 41239
bias &#45;0.619
h_scaling 1.000 -->
<g id="edge8" class="edge">
<title>key 1818
bias 0.164
h_scaling 1.000&#45;&gt;key 41239
bias &#45;0.619
h_scaling 1.000</title>
<path fill="none" stroke="red" stroke-width="3.08" d="M205.51,-533.39C213.24,-523.16 221.09,-512.3 228,-501.84 233.53,-493.48 239.05,-484.48 244.32,-475.52"/>
<polygon fill="red" stroke="red" stroke-width="3.08" points="247.51,-477 249.49,-466.59 241.45,-473.49 247.51,-477"/>
<text text-anchor="middle" x="248" y="-494.64" font-family="Times,serif" font-size="9.00">0.993</text>
</g>
<!-- key 41239
bias &#45;0.619
h_scaling 1.000&#45;&gt;output
bias 0.596
h_scaling 1.000 -->
<g id="edge10" class="edge">
<title>key 41239
bias &#45;0.619
h_scaling 1.000&#45;&gt;output
bias 0.596
h_scaling 1.000</title>
<path fill="none" stroke="blue" stroke-width="3.1" d="M242.4,-357.81C228.88,-338.84 213.46,-317.19 199.48,-297.55"/>
<polygon fill="blue" stroke="blue" stroke-width="3.1" points="202.23,-295.39 193.58,-289.27 196.53,-299.45 202.23,-295.39"/>
<text text-anchor="middle" x="233.5" y="-321.36" font-family="Times,serif" font-size="9.00">&#45;1.000</text>
</g>
<!-- key 41239
bias &#45;0.619
h_scaling 1.000&#45;&gt;key 1818
bias 0.164
h_scaling 1.000 -->
<g id="edge9" class="edge">
<title>key 41239
bias &#45;0.619
h_scaling 1.000&#45;&gt;key 1818
bias 0.164
h_scaling 1.000</title>
<path fill="none" stroke="red" stroke-width="3.04" d="M229.94,-451.28C217.55,-463.29 205.17,-477.2 196,-491.84 192.07,-498.11 188.59,-504.96 185.54,-511.99"/>
<polygon fill="red" stroke="red" stroke-width="3.04" points="182.14,-511.06 181.63,-521.65 188.62,-513.69 182.14,-511.06"/>
<text text-anchor="middle" x="210" y="-494.64" font-family="Times,serif" font-size="9.00">0.980</text>
</g>
<!-- key 25567
bias &#45;0.416
h_scaling 1.000&#45;&gt;output
bias 0.596
h_scaling 1.000 -->
<g id="edge13" class="edge">
<title>key 25567
bias &#45;0.416
h_scaling 1.000&#45;&gt;output
bias 0.596
h_scaling 1.000</title>
<path fill="none" stroke="red" stroke-width="1.24" d="M98.61,-127.27C99,-136.79 100.3,-146.39 103,-155.28 105.31,-162.87 108.6,-170.4 112.42,-177.64"/>
<polygon fill="red" stroke="red" stroke-width="1.24" points="109.54,-179.65 117.53,-186.62 115.63,-176.2 109.54,-179.65"/>
<text text-anchor="middle" x="117" y="-148.08" font-family="Times,serif" font-size="9.00">0.379</text>
</g>
<!-- key 25567
bias &#45;0.416
h_scaling 1.000&#45;&gt;key 1818
bias 0.164
h_scaling 1.000 -->
<g id="edge4" class="edge">
<title>key 25567
bias &#45;0.416
h_scaling 1.000&#45;&gt;key 1818
bias 0.164
h_scaling 1.000</title>
<path fill="none" stroke="blue" stroke-width="3.1" d="M91.39,-125.79C88.33,-141.2 85.55,-157.77 84,-173.28 70.6,-306.99 81.72,-344.17 117,-473.84 120.93,-488.27 126.55,-503.22 132.59,-517.24"/>
<polygon fill="blue" stroke="blue" stroke-width="3.1" points="129.56,-519.06 136.82,-526.78 135.96,-516.22 129.56,-519.06"/>
<text text-anchor="middle" x="98.5" y="-321.36" font-family="Times,serif" font-size="9.00">&#45;1.000</text>
</g>
<!-- key 25567
bias &#45;0.416
h_scaling 1.000&#45;&gt;key 25567
bias &#45;0.416
h_scaling 1.000 -->
<g id="edge5" class="edge">
<title>key 25567
bias &#45;0.416
h_scaling 1.000&#45;&gt;key 25567
bias &#45;0.416
h_scaling 1.000</title>
<path fill="none" stroke="red" stroke-width="2.59" d="M167.94,-78.94C179.5,-77.05 187.64,-71.95 187.64,-63.64 187.64,-57.92 183.79,-53.73 177.63,-51.05"/>
<polygon fill="red" stroke="red" stroke-width="2.59" points="178.52,-47.66 167.94,-48.34 176.63,-54.4 178.52,-47.66"/>
<text text-anchor="middle" x="201.64" y="-61.44" font-family="Times,serif" font-size="9.00">0.831</text>
</g>
</g>
</svg>
