<?xml version="1.0" encoding="UTF-8" standalone="no"?>
<!DOCTYPE svg PUBLIC "-//W3C//DTD SVG 1.1//EN"
 "http://www.w3.org/Graphics/SVG/1.1/DTD/svg11.dtd">
<!-- Generated by graphviz version 2.43.0 (0)
 -->
<!-- Title: %3 Pages: 1 -->
<svg width="475pt" height="1076pt"
 viewBox="0.00 0.00 475.00 1075.68" xmlns="http://www.w3.org/2000/svg" xmlns:xlink="http://www.w3.org/1999/xlink">
<g id="graph0" class="graph" transform="scale(1 1) rotate(0) translate(4 1071.68)">
<title>%3</title>
<polygon fill="white" stroke="transparent" points="-4,4 -4,-1071.68 471,-1071.68 471,4 -4,4"/>
<!-- ready
output 0.000 -->
<g id="node1" class="node">
<title>ready
output 0.000</title>
<polygon fill="yellow" stroke="black" points="172.5,-1067.68 95.5,-1067.68 95.5,-1039.68 172.5,-1039.68 172.5,-1067.68"/>
<text text-anchor="middle" x="134" y="-1056.48" font-family="Times,serif" font-size="9.00">ready</text>
<text text-anchor="middle" x="134" y="-1046.48" font-family="Times,serif" font-size="9.00">output 0.000</text>
</g>
<!-- key 3655
bias &#45;0.415
h_scaling 0.197
output 0.147 -->
<g id="node4" class="node">
<title>key 3655
bias &#45;0.415
h_scaling 0.197
output 0.147</title>
<ellipse fill="white" stroke="black" cx="277" cy="-930.04" rx="63.78" ry="63.78"/>
<text text-anchor="middle" x="277" y="-942.84" font-family="Times,serif" font-size="9.00">key 3655</text>
<text text-anchor="middle" x="277" y="-932.84" font-family="Times,serif" font-size="9.00">bias &#45;0.415</text>
<text text-anchor="middle" x="277" y="-922.84" font-family="Times,serif" font-size="9.00">h_scaling 0.197</text>
<text text-anchor="middle" x="277" y="-912.84" font-family="Times,serif" font-size="9.00">output 0.147</text>
</g>
<!-- ready
output 0.000&#45;&gt;key 3655
bias &#45;0.415
h_scaling 0.197
output 0.147 -->
<g id="edge4" class="edge">
<title>ready
output 0.000&#45;&gt;key 3655
bias &#45;0.415
h_scaling 0.197
output 0.147</title>
<path fill="none" stroke="blue" stroke-width="0.1" d="M149.3,-1039.66C166.41,-1025.11 195.11,-1000.69 220.98,-978.69"/>
<polygon fill="blue" stroke="blue" stroke-width="0.1" points="223.55,-981.1 228.9,-971.95 219.01,-975.77 223.55,-981.1"/>
<text text-anchor="middle" x="196.5" y="-1014.48" font-family="Times,serif" font-size="9.00">&#45;0.248</text>
</g>
<!-- key 216592
bias &#45;0.280
h_scaling 0.966
output 0.902 -->
<g id="node6" class="node">
<title>key 216592
bias &#45;0.280
h_scaling 0.966
output 0.902</title>
<ellipse fill="white" stroke="black" cx="134" cy="-583.48" rx="63.78" ry="63.78"/>
<text text-anchor="middle" x="134" y="-596.28" font-family="Times,serif" font-size="9.00">key 216592</text>
<text text-anchor="middle" x="134" y="-586.28" font-family="Times,serif" font-size="9.00">bias &#45;0.280</text>
<text text-anchor="middle" x="134" y="-576.28" font-family="Times,serif" font-size="9.00">h_scaling 0.966</text>
<text text-anchor="middle" x="134" y="-566.28" font-family="Times,serif" font-size="9.00">output 0.902</text>
</g>
<!-- ready
output 0.000&#45;&gt;key 216592
bias &#45;0.280
h_scaling 0.966
output 0.902 -->
<g id="edge6" class="edge">
<title>ready
output 0.000&#45;&gt;key 216592
bias &#45;0.280
h_scaling 0.966
output 0.902</title>
<path fill="none" stroke="red" stroke-width="0.1" d="M134,-1039.66C134,-984.97 134,-771.27 134,-657.19"/>
<polygon fill="red" stroke="red" stroke-width="0.1" points="137.5,-657.14 134,-647.14 130.5,-657.14 137.5,-657.14"/>
<text text-anchor="middle" x="148" y="-841.2" font-family="Times,serif" font-size="9.00">0.911</text>
</g>
<!-- key 219100
bias &#45;0.601
h_scaling 0.705
output 0.487 -->
<g id="node9" class="node">
<title>key 219100
bias &#45;0.601
h_scaling 0.705
output 0.487</title>
<ellipse fill="white" stroke="black" cx="135" cy="-410.2" rx="63.78" ry="63.78"/>
<text text-anchor="middle" x="135" y="-423" font-family="Times,serif" font-size="9.00">key 219100</text>
<text text-anchor="middle" x="135" y="-413" font-family="Times,serif" font-size="9.00">bias &#45;0.601</text>
<text text-anchor="middle" x="135" y="-403" font-family="Times,serif" font-size="9.00">h_scaling 0.705</text>
<text text-anchor="middle" x="135" y="-393" font-family="Times,serif" font-size="9.00">output 0.487</text>
</g>
<!-- ready
output 0.000&#45;&gt;key 219100
bias &#45;0.601
h_scaling 0.705
output 0.487 -->
<g id="edge8" class="edge">
<title>ready
output 0.000&#45;&gt;key 219100
bias &#45;0.601
h_scaling 0.705
output 0.487</title>
<path fill="none" stroke="red" stroke-width="0.1" d="M100.53,-1039.59C60.84,-1021.62 0,-985.23 0,-931.04 0,-931.04 0,-931.04 0,-582.48 0,-554.59 44.71,-502.07 82.67,-462.51"/>
<polygon fill="red" stroke="red" stroke-width="0.1" points="85.23,-464.9 89.67,-455.28 80.2,-460.03 85.23,-464.9"/>
<text text-anchor="middle" x="14" y="-754.56" font-family="Times,serif" font-size="9.00">0.852</text>
</g>
<!-- go
output 0.000 -->
<g id="node2" class="node">
<title>go
output 0.000</title>
<polygon fill="green" stroke="black" points="315.5,-1067.68 238.5,-1067.68 238.5,-1039.68 315.5,-1039.68 315.5,-1067.68"/>
<text text-anchor="middle" x="277" y="-1056.48" font-family="Times,serif" font-size="9.00">go</text>
<text text-anchor="middle" x="277" y="-1046.48" font-family="Times,serif" font-size="9.00">output 0.000</text>
</g>
<!-- go
output 0.000&#45;&gt;key 3655
bias &#45;0.415
h_scaling 0.197
output 0.147 -->
<g id="edge2" class="edge">
<title>go
output 0.000&#45;&gt;key 3655
bias &#45;0.415
h_scaling 0.197
output 0.147</title>
<path fill="none" stroke="red" stroke-width="0.1" d="M277,-1039.66C277,-1030.58 277,-1017.67 277,-1003.91"/>
<polygon fill="red" stroke="red" stroke-width="0.1" points="280.5,-1003.77 277,-993.77 273.5,-1003.77 280.5,-1003.77"/>
<text text-anchor="middle" x="291" y="-1014.48" font-family="Times,serif" font-size="9.00">0.996</text>
</g>
<!-- output
bias 0.632
h_scaling 0.000
output 0.409 -->
<g id="node3" class="node">
<title>output
bias 0.632
h_scaling 0.000
output 0.409</title>
<ellipse fill="lightblue" stroke="black" cx="320" cy="-756.76" rx="63.78" ry="63.78"/>
<text text-anchor="middle" x="320" y="-769.56" font-family="Times,serif" font-size="9.00">output</text>
<text text-anchor="middle" x="320" y="-759.56" font-family="Times,serif" font-size="9.00">bias 0.632</text>
<text text-anchor="middle" x="320" y="-749.56" font-family="Times,serif" font-size="9.00">h_scaling 0.000</text>
<text text-anchor="middle" x="320" y="-739.56" font-family="Times,serif" font-size="9.00">output 0.409</text>
</g>
<!-- output
bias 0.632
h_scaling 0.000
output 0.409&#45;&gt;key 216592
bias &#45;0.280
h_scaling 0.966
output 0.902 -->
<g id="edge11" class="edge">
<title>output
bias 0.632
h_scaling 0.000
output 0.409&#45;&gt;key 216592
bias &#45;0.280
h_scaling 0.966
output 0.902</title>
<path fill="none" stroke="blue" stroke-width="0.1" d="M285.91,-702.4C276.4,-689.47 265.5,-676.19 254,-665.12 237.15,-648.89 216.66,-633.79 197.42,-621.14"/>
<polygon fill="blue" stroke="blue" stroke-width="0.1" points="199.27,-618.18 188.97,-615.7 195.48,-624.06 199.27,-618.18"/>
<text text-anchor="middle" x="278.5" y="-667.92" font-family="Times,serif" font-size="9.00">&#45;0.202</text>
</g>
<!-- key 313467
bias 0.006
h_scaling 0.543
output 0.380 -->
<g id="node8" class="node">
<title>key 313467
bias 0.006
h_scaling 0.543
output 0.380</title>
<ellipse fill="white" stroke="black" cx="334" cy="-63.64" rx="63.78" ry="63.78"/>
<text text-anchor="middle" x="334" y="-76.44" font-family="Times,serif" font-size="9.00">key 313467</text>
<text text-anchor="middle" x="334" y="-66.44" font-family="Times,serif" font-size="9.00">bias 0.006</text>
<text text-anchor="middle" x="334" y="-56.44" font-family="Times,serif" font-size="9.00">h_scaling 0.543</text>
<text text-anchor="middle" x="334" y="-46.44" font-family="Times,serif" font-size="9.00">output 0.380</text>
</g>
<!-- output
bias 0.632
h_scaling 0.000
output 0.409&#45;&gt;key 313467
bias 0.006
h_scaling 0.543
output 0.380 -->
<g id="edge17" class="edge">
<title>output
bias 0.632
h_scaling 0.000
output 0.409&#45;&gt;key 313467
bias 0.006
h_scaling 0.543
output 0.380</title>
<path fill="none" stroke="red" stroke-width="0.1" d="M350,-700.36C365,-667.63 380,-624.81 380,-584.48 380,-584.48 380,-584.48 380,-235.92 380,-201.19 371.07,-163.81 361.08,-132.87"/>
<polygon fill="red" stroke="red" stroke-width="0.1" points="364.29,-131.43 357.81,-123.06 357.65,-133.65 364.29,-131.43"/>
<text text-anchor="middle" x="394" y="-408" font-family="Times,serif" font-size="9.00">0.757</text>
</g>
<!-- key 3655
bias &#45;0.415
h_scaling 0.197
output 0.147&#45;&gt;output
bias 0.632
h_scaling 0.000
output 0.409 -->
<g id="edge1" class="edge">
<title>key 3655
bias &#45;0.415
h_scaling 0.197
output 0.147&#45;&gt;output
bias 0.632
h_scaling 0.000
output 0.409</title>
<path fill="none" stroke="blue" stroke-width="0.1" d="M292.28,-868.17C295.49,-855.37 298.91,-841.77 302.2,-828.64"/>
<polygon fill="blue" stroke="blue" stroke-width="0.1" points="305.66,-829.27 304.7,-818.72 298.87,-827.56 305.66,-829.27"/>
<text text-anchor="middle" x="313.5" y="-841.2" font-family="Times,serif" font-size="9.00">&#45;1.000</text>
</g>
<!-- key 3655
bias &#45;0.415
h_scaling 0.197
output 0.147&#45;&gt;key 3655
bias &#45;0.415
h_scaling 0.197
output 0.147 -->
<g id="edge3" class="edge">
<title>key 3655
bias &#45;0.415
h_scaling 0.197
output 0.147&#45;&gt;key 3655
bias &#45;0.415
h_scaling 0.197
output 0.147</title>
<path fill="none" stroke="red" stroke-width="0.1" d="M338.94,-945.33C350.5,-943.45 358.64,-938.35 358.64,-930.04 358.64,-924.32 354.79,-920.12 348.63,-917.45"/>
<polygon fill="red" stroke="red" stroke-width="0.1" points="349.52,-914.06 338.94,-914.74 347.63,-920.8 349.52,-914.06"/>
<text text-anchor="middle" x="372.64" y="-927.84" font-family="Times,serif" font-size="9.00">1.046</text>
</g>
<!-- key 274635
bias &#45;0.492
h_scaling 0.986
output 0.253 -->
<g id="node5" class="node">
<title>key 274635
bias &#45;0.492
h_scaling 0.986
output 0.253</title>
<ellipse fill="white" stroke="black" cx="280" cy="-410.2" rx="63.78" ry="63.78"/>
<text text-anchor="middle" x="280" y="-423" font-family="Times,serif" font-size="9.00">key 274635</text>
<text text-anchor="middle" x="280" y="-413" font-family="Times,serif" font-size="9.00">bias &#45;0.492</text>
<text text-anchor="middle" x="280" y="-403" font-family="Times,serif" font-size="9.00">h_scaling 0.986</text>
<text text-anchor="middle" x="280" y="-393" font-family="Times,serif" font-size="9.00">output 0.253</text>
</g>
<!-- key 3655
bias &#45;0.415
h_scaling 0.197
output 0.147&#45;&gt;key 274635
bias &#45;0.492
h_scaling 0.986
output 0.253 -->
<g id="edge12" class="edge">
<title>key 3655
bias &#45;0.415
h_scaling 0.197
output 0.147&#45;&gt;key 274635
bias &#45;0.492
h_scaling 0.986
output 0.253</title>
<path fill="none" stroke="red" stroke-width="0.1" d="M259.19,-868.68C254.89,-853.03 250.52,-836.15 247,-820.4 231.75,-752.18 214.17,-734.58 222,-665.12 229.11,-602.03 245.87,-531.78 259.55,-481.18"/>
<polygon fill="red" stroke="red" stroke-width="0.1" points="262.98,-481.91 262.24,-471.34 256.23,-480.06 262.98,-481.91"/>
<text text-anchor="middle" x="236" y="-667.92" font-family="Times,serif" font-size="9.00">1.182</text>
</g>
<!-- key 274635
bias &#45;0.492
h_scaling 0.986
output 0.253&#45;&gt;output
bias 0.632
h_scaling 0.000
output 0.409 -->
<g id="edge13" class="edge">
<title>key 274635
bias &#45;0.492
h_scaling 0.986
output 0.253&#45;&gt;output
bias 0.632
h_scaling 0.000
output 0.409</title>
<path fill="none" stroke="blue" stroke-width="0.1" d="M287.26,-473.71C294.11,-532.72 304.38,-621.17 311.58,-683.25"/>
<polygon fill="blue" stroke="blue" stroke-width="0.1" points="308.13,-683.83 312.76,-693.36 315.08,-683.02 308.13,-683.83"/>
<text text-anchor="middle" x="322.5" y="-581.28" font-family="Times,serif" font-size="9.00">&#45;1.000</text>
</g>
<!-- key 213616
bias &#45;0.515
h_scaling 0.485
output 0.947 -->
<g id="node7" class="node">
<title>key 213616
bias &#45;0.515
h_scaling 0.485
output 0.947</title>
<ellipse fill="white" stroke="black" cx="284" cy="-236.92" rx="63.78" ry="63.78"/>
<text text-anchor="middle" x="284" y="-249.72" font-family="Times,serif" font-size="9.00">key 213616</text>
<text text-anchor="middle" x="284" y="-239.72" font-family="Times,serif" font-size="9.00">bias &#45;0.515</text>
<text text-anchor="middle" x="284" y="-229.72" font-family="Times,serif" font-size="9.00">h_scaling 0.485</text>
<text text-anchor="middle" x="284" y="-219.72" font-family="Times,serif" font-size="9.00">output 0.947</text>
</g>
<!-- key 274635
bias &#45;0.492
h_scaling 0.986
output 0.253&#45;&gt;key 213616
bias &#45;0.515
h_scaling 0.485
output 0.947 -->
<g id="edge15" class="edge">
<title>key 274635
bias &#45;0.492
h_scaling 0.986
output 0.253&#45;&gt;key 213616
bias &#45;0.515
h_scaling 0.485
output 0.947</title>
<path fill="none" stroke="red" stroke-width="0.1" d="M281.47,-346.39C281.74,-334.87 282.02,-322.76 282.29,-310.97"/>
<polygon fill="red" stroke="red" stroke-width="0.1" points="285.8,-310.8 282.53,-300.72 278.8,-310.63 285.8,-310.8"/>
<text text-anchor="middle" x="296" y="-321.36" font-family="Times,serif" font-size="9.00">0.359</text>
</g>
<!-- key 216592
bias &#45;0.280
h_scaling 0.966
output 0.902&#45;&gt;key 274635
bias &#45;0.492
h_scaling 0.986
output 0.253 -->
<g id="edge14" class="edge">
<title>key 216592
bias &#45;0.280
h_scaling 0.966
output 0.902&#45;&gt;key 274635
bias &#45;0.492
h_scaling 0.986
output 0.253</title>
<path fill="none" stroke="red" stroke-width="0.1" d="M162.03,-526.19C169.1,-514.3 177.2,-502.22 186,-491.84 194.17,-482.2 198.34,-481.98 208,-473.84 213.48,-469.21 219.17,-464.36 224.84,-459.48"/>
<polygon fill="red" stroke="red" stroke-width="0.1" points="227.25,-462.03 232.54,-452.85 222.68,-456.73 227.25,-462.03"/>
<text text-anchor="middle" x="200" y="-494.64" font-family="Times,serif" font-size="9.00">0.231</text>
</g>
<!-- key 216592
bias &#45;0.280
h_scaling 0.966
output 0.902&#45;&gt;key 213616
bias &#45;0.515
h_scaling 0.485
output 0.947 -->
<g id="edge7" class="edge">
<title>key 216592
bias &#45;0.280
h_scaling 0.966
output 0.902&#45;&gt;key 213616
bias &#45;0.515
h_scaling 0.485
output 0.947</title>
<path fill="none" stroke="red" stroke-width="0.1" d="M84.32,-543.16C64.7,-524.51 44.39,-500.47 34,-473.84 13.44,-421.14 2.98,-393.86 34,-346.56 72.88,-287.26 151.89,-260.16 210.73,-247.88"/>
<polygon fill="red" stroke="red" stroke-width="0.1" points="211.61,-251.28 220.73,-245.9 210.24,-244.41 211.61,-251.28"/>
<text text-anchor="middle" x="48" y="-408" font-family="Times,serif" font-size="9.00">1.093</text>
</g>
<!-- key 216592
bias &#45;0.280
h_scaling 0.966
output 0.902&#45;&gt;key 219100
bias &#45;0.601
h_scaling 0.705
output 0.487 -->
<g id="edge10" class="edge">
<title>key 216592
bias &#45;0.280
h_scaling 0.966
output 0.902&#45;&gt;key 219100
bias &#45;0.601
h_scaling 0.705
output 0.487</title>
<path fill="none" stroke="red" stroke-width="0.1" d="M105.22,-526.57C102.14,-515.23 100.81,-503.27 103,-491.84 103.85,-487.39 104.94,-482.88 106.21,-478.37"/>
<polygon fill="red" stroke="red" stroke-width="0.1" points="109.63,-479.14 109.23,-468.55 102.94,-477.08 109.63,-479.14"/>
<text text-anchor="middle" x="117" y="-494.64" font-family="Times,serif" font-size="9.00">0.697</text>
</g>
<!-- key 213616
bias &#45;0.515
h_scaling 0.485
output 0.947&#45;&gt;key 3655
bias &#45;0.415
h_scaling 0.197
output 0.147 -->
<g id="edge5" class="edge">
<title>key 213616
bias &#45;0.515
h_scaling 0.485
output 0.947&#45;&gt;key 3655
bias &#45;0.415
h_scaling 0.197
output 0.147</title>
<path fill="none" stroke="blue" stroke-width="0.1" d="M338.88,-269.83C382.41,-299.72 436,-348.77 436,-409.2 436,-757.76 436,-757.76 436,-757.76 436,-816.46 385.22,-863.51 341.05,-893.34"/>
<polygon fill="blue" stroke="blue" stroke-width="0.1" points="339.04,-890.47 332.61,-898.89 342.89,-896.32 339.04,-890.47"/>
<text text-anchor="middle" x="451.5" y="-581.28" font-family="Times,serif" font-size="9.00">&#45;0.258</text>
</g>
<!-- key 213616
bias &#45;0.515
h_scaling 0.485
output 0.947&#45;&gt;key 313467
bias 0.006
h_scaling 0.543
output 0.380 -->
<g id="edge16" class="edge">
<title>key 213616
bias &#45;0.515
h_scaling 0.485
output 0.947&#45;&gt;key 313467
bias 0.006
h_scaling 0.543
output 0.380</title>
<path fill="none" stroke="blue" stroke-width="0.1" d="M301.63,-175.53C305.47,-162.36 309.58,-148.31 313.52,-134.79"/>
<polygon fill="blue" stroke="blue" stroke-width="0.1" points="316.92,-135.64 316.36,-125.06 310.2,-133.68 316.92,-135.64"/>
<text text-anchor="middle" x="324.5" y="-148.08" font-family="Times,serif" font-size="9.00">&#45;0.387</text>
</g>
<!-- key 219100
bias &#45;0.601
h_scaling 0.705
output 0.487&#45;&gt;key 216592
bias &#45;0.280
h_scaling 0.966
output 0.902 -->
<g id="edge9" class="edge">
<title>key 219100
bias &#45;0.601
h_scaling 0.705
output 0.487&#45;&gt;key 216592
bias &#45;0.280
h_scaling 0.966
output 0.902</title>
<path fill="none" stroke="red" stroke-width="0.1" d="M134.63,-474C134.57,-485.52 134.5,-497.63 134.43,-509.42"/>
<polygon fill="red" stroke="red" stroke-width="0.1" points="130.93,-509.65 134.37,-519.67 137.93,-509.69 130.93,-509.65"/>
<text text-anchor="middle" x="149" y="-494.64" font-family="Times,serif" font-size="9.00">0.989</text>
</g>
</g>
</svg>
