<?xml version="1.0" encoding="UTF-8" standalone="no"?>
<!DOCTYPE svg PUBLIC "-//W3C//DTD SVG 1.1//EN"
 "http://www.w3.org/Graphics/SVG/1.1/DTD/svg11.dtd">
<!-- Generated by graphviz version 2.43.0 (0)
 -->
<!-- Title: %3 Pages: 1 -->
<svg width="291pt" height="556pt"
 viewBox="0.00 0.00 290.60 555.84" xmlns="http://www.w3.org/2000/svg" xmlns:xlink="http://www.w3.org/1999/xlink">
<g id="graph0" class="graph" transform="scale(1 1) rotate(0) translate(4 551.84)">
<title>%3</title>
<polygon fill="white" stroke="transparent" points="-4,4 -4,-551.84 286.6,-551.84 286.6,4 -4,4"/>
<!-- ready
output 1.000 -->
<g id="node1" class="node">
<title>ready
output 1.000</title>
<polygon fill="yellow" stroke="black" points="110.1,-547.84 33.1,-547.84 33.1,-519.84 110.1,-519.84 110.1,-547.84"/>
<text text-anchor="middle" x="71.6" y="-536.64" font-family="Times,serif" font-size="9.00">ready</text>
<text text-anchor="middle" x="71.6" y="-526.64" font-family="Times,serif" font-size="9.00">output 1.000</text>
</g>
<!-- key 75324
bias &#45;0.443
h_scaling 0.003
output 0.927 -->
<g id="node4" class="node">
<title>key 75324
bias &#45;0.443
h_scaling 0.003
output 0.927</title>
<ellipse fill="white" stroke="black" cx="116.6" cy="-410.2" rx="63.78" ry="63.78"/>
<text text-anchor="middle" x="116.6" y="-423" font-family="Times,serif" font-size="9.00">key 75324</text>
<text text-anchor="middle" x="116.6" y="-413" font-family="Times,serif" font-size="9.00">bias &#45;0.443</text>
<text text-anchor="middle" x="116.6" y="-403" font-family="Times,serif" font-size="9.00">h_scaling 0.003</text>
<text text-anchor="middle" x="116.6" y="-393" font-family="Times,serif" font-size="9.00">output 0.927</text>
</g>
<!-- ready
output 1.000&#45;&gt;key 75324
bias &#45;0.443
h_scaling 0.003
output 0.927 -->
<g id="edge5" class="edge">
<title>ready
output 1.000&#45;&gt;key 75324
bias &#45;0.443
h_scaling 0.003
output 0.927</title>
<path fill="none" stroke="red" stroke-width="0.1" d="M76.41,-519.82C80.11,-509.82 85.53,-495.17 91.2,-479.84"/>
<polygon fill="red" stroke="red" stroke-width="0.1" points="94.57,-480.84 94.75,-470.24 88,-478.41 94.57,-480.84"/>
<text text-anchor="middle" x="100.6" y="-494.64" font-family="Times,serif" font-size="9.00">0.432</text>
</g>
<!-- key 6191
bias &#45;1.000
h_scaling 0.906
output 0.868 -->
<g id="node5" class="node">
<title>key 6191
bias &#45;1.000
h_scaling 0.906
output 0.868</title>
<ellipse fill="white" stroke="black" cx="115.6" cy="-236.92" rx="63.78" ry="63.78"/>
<text text-anchor="middle" x="115.6" y="-249.72" font-family="Times,serif" font-size="9.00">key 6191</text>
<text text-anchor="middle" x="115.6" y="-239.72" font-family="Times,serif" font-size="9.00">bias &#45;1.000</text>
<text text-anchor="middle" x="115.6" y="-229.72" font-family="Times,serif" font-size="9.00">h_scaling 0.906</text>
<text text-anchor="middle" x="115.6" y="-219.72" font-family="Times,serif" font-size="9.00">output 0.868</text>
</g>
<!-- ready
output 1.000&#45;&gt;key 6191
bias &#45;1.000
h_scaling 0.906
output 0.868 -->
<g id="edge2" class="edge">
<title>ready
output 1.000&#45;&gt;key 6191
bias &#45;1.000
h_scaling 0.906
output 0.868</title>
<path fill="none" stroke="red" stroke-width="0.1" d="M53.15,-519.69C39.91,-509.03 23.13,-492.73 15.6,-473.84 -5.37,-421.3 -4.96,-399.26 15.6,-346.56 24.69,-323.26 41.37,-301.94 58.55,-284.48"/>
<polygon fill="red" stroke="red" stroke-width="0.1" points="61.24,-286.74 65.91,-277.23 56.33,-281.75 61.24,-286.74"/>
<text text-anchor="middle" x="29.6" y="-408" font-family="Times,serif" font-size="9.00">0.736</text>
</g>
<!-- go
output 0.000 -->
<g id="node2" class="node">
<title>go
output 0.000</title>
<polygon fill="green" stroke="black" points="212.1,-547.84 135.1,-547.84 135.1,-519.84 212.1,-519.84 212.1,-547.84"/>
<text text-anchor="middle" x="173.6" y="-536.64" font-family="Times,serif" font-size="9.00">go</text>
<text text-anchor="middle" x="173.6" y="-526.64" font-family="Times,serif" font-size="9.00">output 0.000</text>
</g>
<!-- go
output 0.000&#45;&gt;key 75324
bias &#45;0.443
h_scaling 0.003
output 0.927 -->
<g id="edge8" class="edge">
<title>go
output 0.000&#45;&gt;key 75324
bias &#45;0.443
h_scaling 0.003
output 0.927</title>
<path fill="none" stroke="blue" stroke-width="0.1" d="M167.5,-519.82C162.6,-509.37 155.32,-493.83 147.78,-477.75"/>
<polygon fill="blue" stroke="blue" stroke-width="0.1" points="150.75,-475.83 143.33,-468.26 144.41,-478.8 150.75,-475.83"/>
<text text-anchor="middle" x="174.1" y="-494.64" font-family="Times,serif" font-size="9.00">&#45;0.253</text>
</g>
<!-- go
output 0.000&#45;&gt;key 6191
bias &#45;1.000
h_scaling 0.906
output 0.868 -->
<g id="edge3" class="edge">
<title>go
output 0.000&#45;&gt;key 6191
bias &#45;1.000
h_scaling 0.906
output 0.868</title>
<path fill="none" stroke="blue" stroke-width="0.1" d="M194.58,-519.69C209.12,-509.26 227.28,-493.23 235.6,-473.84 257.89,-421.85 258.54,-398.27 235.6,-346.56 223.37,-318.98 200.29,-295.43 177.62,-277.38"/>
<polygon fill="blue" stroke="blue" stroke-width="0.1" points="179.69,-274.56 169.64,-271.22 175.42,-280.1 179.69,-274.56"/>
<text text-anchor="middle" x="267.1" y="-408" font-family="Times,serif" font-size="9.00">&#45;1.000</text>
</g>
<!-- output
bias &#45;0.715
h_scaling 0.258
output 0.153 -->
<g id="node3" class="node">
<title>output
bias &#45;0.715
h_scaling 0.258
output 0.153</title>
<ellipse fill="lightblue" stroke="black" cx="115.6" cy="-63.64" rx="63.78" ry="63.78"/>
<text text-anchor="middle" x="115.6" y="-76.44" font-family="Times,serif" font-size="9.00">output</text>
<text text-anchor="middle" x="115.6" y="-66.44" font-family="Times,serif" font-size="9.00">bias &#45;0.715</text>
<text text-anchor="middle" x="115.6" y="-56.44" font-family="Times,serif" font-size="9.00">h_scaling 0.258</text>
<text text-anchor="middle" x="115.6" y="-46.44" font-family="Times,serif" font-size="9.00">output 0.153</text>
</g>
<!-- key 75324
bias &#45;0.443
h_scaling 0.003
output 0.927&#45;&gt;key 75324
bias &#45;0.443
h_scaling 0.003
output 0.927 -->
<g id="edge7" class="edge">
<title>key 75324
bias &#45;0.443
h_scaling 0.003
output 0.927&#45;&gt;key 75324
bias &#45;0.443
h_scaling 0.003
output 0.927</title>
<path fill="none" stroke="red" stroke-width="0.1" d="M178.54,-425.5C190.1,-423.61 198.24,-418.51 198.24,-410.2 198.24,-404.48 194.39,-400.29 188.23,-397.61"/>
<polygon fill="red" stroke="red" stroke-width="0.1" points="189.11,-394.22 178.54,-394.9 187.23,-400.96 189.11,-394.22"/>
<text text-anchor="middle" x="212.24" y="-408" font-family="Times,serif" font-size="9.00">0.925</text>
</g>
<!-- key 75324
bias &#45;0.443
h_scaling 0.003
output 0.927&#45;&gt;key 6191
bias &#45;1.000
h_scaling 0.906
output 0.868 -->
<g id="edge6" class="edge">
<title>key 75324
bias &#45;0.443
h_scaling 0.003
output 0.927&#45;&gt;key 6191
bias &#45;1.000
h_scaling 0.906
output 0.868</title>
<path fill="none" stroke="red" stroke-width="0.1" d="M95.99,-349.78C94.19,-342.7 92.65,-335.51 91.6,-328.56 90.51,-321.37 90.53,-313.92 91.31,-306.54"/>
<polygon fill="red" stroke="red" stroke-width="0.1" points="94.79,-306.93 92.81,-296.53 87.87,-305.9 94.79,-306.93"/>
<text text-anchor="middle" x="105.6" y="-321.36" font-family="Times,serif" font-size="9.00">0.948</text>
</g>
<!-- key 6191
bias &#45;1.000
h_scaling 0.906
output 0.868&#45;&gt;output
bias &#45;0.715
h_scaling 0.258
output 0.153 -->
<g id="edge1" class="edge">
<title>key 6191
bias &#45;1.000
h_scaling 0.906
output 0.868&#45;&gt;output
bias &#45;0.715
h_scaling 0.258
output 0.153</title>
<path fill="none" stroke="red" stroke-width="0.1" d="M115.6,-173.11C115.6,-161.59 115.6,-149.48 115.6,-137.69"/>
<polygon fill="red" stroke="red" stroke-width="0.1" points="119.1,-137.44 115.6,-127.44 112.1,-137.44 119.1,-137.44"/>
<text text-anchor="middle" x="129.6" y="-148.08" font-family="Times,serif" font-size="9.00">1.040</text>
</g>
<!-- key 6191
bias &#45;1.000
h_scaling 0.906
output 0.868&#45;&gt;key 75324
bias &#45;0.443
h_scaling 0.003
output 0.927 -->
<g id="edge9" class="edge">
<title>key 6191
bias &#45;1.000
h_scaling 0.906
output 0.868&#45;&gt;key 75324
bias &#45;0.443
h_scaling 0.003
output 0.927</title>
<path fill="none" stroke="blue" stroke-width="0.1" d="M119.02,-300.86C119.26,-306.84 119.46,-312.81 119.6,-318.56 119.74,-324.31 119.78,-330.26 119.75,-336.24"/>
<polygon fill="blue" stroke="blue" stroke-width="0.1" points="116.25,-336.26 119.62,-346.3 123.25,-336.35 116.25,-336.26"/>
<text text-anchor="middle" x="136.1" y="-321.36" font-family="Times,serif" font-size="9.00">&#45;0.138</text>
</g>
<!-- key 6191
bias &#45;1.000
h_scaling 0.906
output 0.868&#45;&gt;key 6191
bias &#45;1.000
h_scaling 0.906
output 0.868 -->
<g id="edge4" class="edge">
<title>key 6191
bias &#45;1.000
h_scaling 0.906
output 0.868&#45;&gt;key 6191
bias &#45;1.000
h_scaling 0.906
output 0.868</title>
<path fill="none" stroke="red" stroke-width="0.1" d="M177.54,-252.22C189.1,-250.33 197.24,-245.23 197.24,-236.92 197.24,-231.2 193.39,-227.01 187.23,-224.33"/>
<polygon fill="red" stroke="red" stroke-width="0.1" points="188.11,-220.94 177.54,-221.62 186.23,-227.68 188.11,-220.94"/>
<text text-anchor="middle" x="211.24" y="-234.72" font-family="Times,serif" font-size="9.00">1.011</text>
</g>
</g>
</svg>
