<?xml version="1.0" encoding="UTF-8" standalone="no"?>
<!DOCTYPE svg PUBLIC "-//W3C//DTD SVG 1.1//EN"
 "http://www.w3.org/Graphics/SVG/1.1/DTD/svg11.dtd">
<!-- Generated by graphviz version 2.43.0 (0)
 -->
<!-- Title: %3 Pages: 1 -->
<svg width="312pt" height="679pt"
 viewBox="0.00 0.00 312.37 679.12" xmlns="http://www.w3.org/2000/svg" xmlns:xlink="http://www.w3.org/1999/xlink">
<g id="graph0" class="graph" transform="scale(1 1) rotate(0) translate(4 675.12)">
<title>%3</title>
<polygon fill="white" stroke="transparent" points="-4,4 -4,-675.12 308.37,-675.12 308.37,4 -4,4"/>
<!-- ready -->
<g id="node1" class="node">
<title>ready</title>
<polygon fill="yellow" stroke="black" points="83.23,-671.12 40.23,-671.12 40.23,-653.12 83.23,-653.12 83.23,-671.12"/>
<text text-anchor="middle" x="61.73" y="-659.92" font-family="Times,serif" font-size="9.00">ready</text>
</g>
<!-- key 3521
bias 0.494
h_scaling 1.000 -->
<g id="node4" class="node">
<title>key 3521
bias 0.494
h_scaling 1.000</title>
<ellipse fill="white" stroke="black" cx="172.73" cy="-553.48" rx="63.78" ry="63.78"/>
<text text-anchor="middle" x="172.73" y="-561.28" font-family="Times,serif" font-size="9.00">key 3521</text>
<text text-anchor="middle" x="172.73" y="-551.28" font-family="Times,serif" font-size="9.00">bias 0.494</text>
<text text-anchor="middle" x="172.73" y="-541.28" font-family="Times,serif" font-size="9.00">h_scaling 1.000</text>
</g>
<!-- ready&#45;&gt;key 3521
bias 0.494
h_scaling 1.000 -->
<g id="edge13" class="edge">
<title>ready&#45;&gt;key 3521
bias 0.494
h_scaling 1.000</title>
<path fill="none" stroke="red" stroke-width="0.43" d="M70.07,-653.1C80.84,-642.75 100.51,-623.86 119.76,-605.36"/>
<polygon fill="red" stroke="red" stroke-width="0.43" points="122.32,-607.76 127.1,-598.31 117.47,-602.71 122.32,-607.76"/>
</g>
<!-- key 17717
bias &#45;0.522
h_scaling 1.000 -->
<g id="node6" class="node">
<title>key 17717
bias &#45;0.522
h_scaling 1.000</title>
<ellipse fill="white" stroke="black" cx="89.73" cy="-226.92" rx="63.78" ry="63.78"/>
<text text-anchor="middle" x="89.73" y="-234.72" font-family="Times,serif" font-size="9.00">key 17717</text>
<text text-anchor="middle" x="89.73" y="-224.72" font-family="Times,serif" font-size="9.00">bias &#45;0.522</text>
<text text-anchor="middle" x="89.73" y="-214.72" font-family="Times,serif" font-size="9.00">h_scaling 1.000</text>
</g>
<!-- ready&#45;&gt;key 17717
bias &#45;0.522
h_scaling 1.000 -->
<g id="edge10" class="edge">
<title>ready&#45;&gt;key 17717
bias &#45;0.522
h_scaling 1.000</title>
<path fill="none" stroke="blue" stroke-width="2.02" d="M53.02,-653C44.95,-644.84 33.5,-631.43 28.73,-617.12 -12.11,-494.61 -6.58,-450.78 28.73,-326.56 32.6,-312.92 38.96,-299.32 46.14,-286.78"/>
<polygon fill="blue" stroke="blue" stroke-width="2.02" points="49.36,-288.22 51.49,-277.84 43.35,-284.62 49.36,-288.22"/>
</g>
<!-- go -->
<g id="node2" class="node">
<title>go</title>
<polygon fill="green" stroke="black" points="157.73,-671.12 129.73,-671.12 129.73,-653.12 157.73,-653.12 157.73,-671.12"/>
<text text-anchor="middle" x="143.73" y="-659.92" font-family="Times,serif" font-size="9.00">go</text>
</g>
<!-- go&#45;&gt;key 3521
bias 0.494
h_scaling 1.000 -->
<g id="edge2" class="edge">
<title>go&#45;&gt;key 3521
bias 0.494
h_scaling 1.000</title>
<path fill="none" stroke="blue" stroke-width="2.83" d="M145.91,-653.1C147.72,-646.44 150.49,-636.25 153.58,-624.89"/>
<polygon fill="blue" stroke="blue" stroke-width="2.83" points="156.98,-625.71 156.23,-615.14 150.23,-623.87 156.98,-625.71"/>
</g>
<!-- go&#45;&gt;key 17717
bias &#45;0.522
h_scaling 1.000 -->
<g id="edge3" class="edge">
<title>go&#45;&gt;key 17717
bias &#45;0.522
h_scaling 1.000</title>
<path fill="none" stroke="red" stroke-width="2.92" d="M131.85,-652.83C121.53,-644.92 107.11,-632.03 99.73,-617.12 42.27,-501.05 69.89,-455.83 77.73,-326.56 78.25,-317.99 79.02,-309.02 79.92,-300.14"/>
<polygon fill="red" stroke="red" stroke-width="2.92" points="83.4,-300.49 80.99,-290.17 76.44,-299.74 83.4,-300.49"/>
</g>
<!-- output
bias &#45;0.368
h_scaling 0.639 -->
<g id="node3" class="node">
<title>output
bias &#45;0.368
h_scaling 0.639</title>
<ellipse fill="lightblue" stroke="black" cx="172.73" cy="-390.2" rx="63.78" ry="63.78"/>
<text text-anchor="middle" x="172.73" y="-398" font-family="Times,serif" font-size="9.00">output</text>
<text text-anchor="middle" x="172.73" y="-388" font-family="Times,serif" font-size="9.00">bias &#45;0.368</text>
<text text-anchor="middle" x="172.73" y="-378" font-family="Times,serif" font-size="9.00">h_scaling 0.639</text>
</g>
<!-- output
bias &#45;0.368
h_scaling 0.639&#45;&gt;key 3521
bias 0.494
h_scaling 1.000 -->
<g id="edge14" class="edge">
<title>output
bias &#45;0.368
h_scaling 0.639&#45;&gt;key 3521
bias 0.494
h_scaling 1.000</title>
<path fill="none" stroke="red" stroke-width="0.94" d="M179.32,-453.65C179.47,-462.26 179.51,-471.15 179.45,-479.92"/>
<polygon fill="red" stroke="red" stroke-width="0.94" points="175.94,-480.08 179.32,-490.12 182.94,-480.17 175.94,-480.08"/>
</g>
<!-- output
bias &#45;0.368
h_scaling 0.639&#45;&gt;key 17717
bias &#45;0.522
h_scaling 1.000 -->
<g id="edge11" class="edge">
<title>output
bias &#45;0.368
h_scaling 0.639&#45;&gt;key 17717
bias &#45;0.522
h_scaling 1.000</title>
<path fill="none" stroke="red" stroke-width="1.06" d="M138.93,-335.94C131.9,-322.97 124.58,-308.93 117.78,-295.39"/>
<polygon fill="red" stroke="red" stroke-width="1.06" points="120.76,-293.51 113.17,-286.12 114.49,-296.63 120.76,-293.51"/>
</g>
<!-- key 3521
bias 0.494
h_scaling 1.000&#45;&gt;output
bias &#45;0.368
h_scaling 0.639 -->
<g id="edge1" class="edge">
<title>key 3521
bias 0.494
h_scaling 1.000&#45;&gt;output
bias &#45;0.368
h_scaling 0.639</title>
<path fill="none" stroke="red" stroke-width="3.1" d="M166.13,-490.12C165.98,-481.52 165.94,-472.63 166.01,-463.86"/>
<polygon fill="red" stroke="red" stroke-width="3.1" points="169.51,-463.7 166.13,-453.65 162.51,-463.61 169.51,-463.7"/>
</g>
<!-- key 24977
bias 0.137
h_scaling 0.172 -->
<g id="node5" class="node">
<title>key 24977
bias 0.137
h_scaling 0.172</title>
<ellipse fill="white" stroke="black" cx="240.73" cy="-63.64" rx="63.78" ry="63.78"/>
<text text-anchor="middle" x="240.73" y="-71.44" font-family="Times,serif" font-size="9.00">key 24977</text>
<text text-anchor="middle" x="240.73" y="-61.44" font-family="Times,serif" font-size="9.00">bias 0.137</text>
<text text-anchor="middle" x="240.73" y="-51.44" font-family="Times,serif" font-size="9.00">h_scaling 0.172</text>
</g>
<!-- key 3521
bias 0.494
h_scaling 1.000&#45;&gt;key 24977
bias 0.137
h_scaling 0.172 -->
<g id="edge8" class="edge">
<title>key 3521
bias 0.494
h_scaling 1.000&#45;&gt;key 24977
bias 0.137
h_scaling 0.172</title>
<path fill="none" stroke="blue" stroke-width="3.08" d="M210.66,-502.26C221.1,-487.69 231.05,-471.04 236.73,-453.84 271.64,-347.98 259.48,-216.96 248.83,-137.15"/>
<polygon fill="blue" stroke="blue" stroke-width="3.08" points="252.29,-136.63 247.48,-127.2 245.36,-137.58 252.29,-136.63"/>
</g>
<!-- key 24977
bias 0.137
h_scaling 0.172&#45;&gt;output
bias &#45;0.368
h_scaling 0.639 -->
<g id="edge9" class="edge">
<title>key 24977
bias 0.137
h_scaling 0.172&#45;&gt;output
bias &#45;0.368
h_scaling 0.639</title>
<path fill="none" stroke="blue" stroke-width="2.51" d="M227.85,-126.09C216.43,-180.62 199.73,-260.31 187.71,-317.69"/>
<polygon fill="blue" stroke="blue" stroke-width="2.51" points="184.22,-317.26 185.6,-327.77 191.07,-318.7 184.22,-317.26"/>
</g>
<!-- key 24977
bias 0.137
h_scaling 0.172&#45;&gt;key 3521
bias 0.494
h_scaling 1.000 -->
<g id="edge4" class="edge">
<title>key 24977
bias 0.137
h_scaling 0.172&#45;&gt;key 3521
bias 0.494
h_scaling 1.000</title>
<path fill="none" stroke="blue" stroke-width="2.39" d="M259.45,-124.48C276.01,-202.5 291.55,-342.17 254.73,-453.84 248.93,-471.42 238.65,-488.43 227.26,-503.24"/>
<polygon fill="blue" stroke="blue" stroke-width="2.39" points="224.37,-501.24 220.83,-511.22 229.83,-505.63 224.37,-501.24"/>
</g>
<!-- key 17717
bias &#45;0.522
h_scaling 1.000&#45;&gt;output
bias &#45;0.368
h_scaling 0.639 -->
<g id="edge12" class="edge">
<title>key 17717
bias &#45;0.522
h_scaling 1.000&#45;&gt;output
bias &#45;0.368
h_scaling 0.639</title>
<path fill="none" stroke="blue" stroke-width="2.62" d="M123.41,-280.97C130.46,-293.98 137.81,-308.08 144.64,-321.67"/>
<polygon fill="blue" stroke="blue" stroke-width="2.62" points="141.68,-323.58 149.27,-330.97 147.95,-320.46 141.68,-323.58"/>
</g>
<!-- key 17717
bias &#45;0.522
h_scaling 1.000&#45;&gt;key 3521
bias 0.494
h_scaling 1.000 -->
<g id="edge6" class="edge">
<title>key 17717
bias &#45;0.522
h_scaling 1.000&#45;&gt;key 3521
bias 0.494
h_scaling 1.000</title>
<path fill="none" stroke="blue" stroke-width="2.95" d="M82.86,-290.67C80.05,-337.08 81.03,-401.11 99.73,-453.84 105.21,-469.3 114,-484.39 123.61,-497.93"/>
<polygon fill="blue" stroke="blue" stroke-width="2.95" points="120.92,-500.18 129.68,-506.15 126.56,-496.02 120.92,-500.18"/>
</g>
<!-- key 17717
bias &#45;0.522
h_scaling 1.000&#45;&gt;key 24977
bias 0.137
h_scaling 0.172 -->
<g id="edge5" class="edge">
<title>key 17717
bias &#45;0.522
h_scaling 1.000&#45;&gt;key 24977
bias 0.137
h_scaling 0.172</title>
<path fill="none" stroke="red" stroke-width="3.1" d="M133,-179.7C151,-160.47 172.02,-138.02 190.68,-118.09"/>
<polygon fill="red" stroke="red" stroke-width="3.1" points="193.43,-120.28 197.71,-110.58 188.32,-115.49 193.43,-120.28"/>
</g>
<!-- key 17717
bias &#45;0.522
h_scaling 1.000&#45;&gt;key 17717
bias &#45;0.522
h_scaling 1.000 -->
<g id="edge7" class="edge">
<title>key 17717
bias &#45;0.522
h_scaling 1.000&#45;&gt;key 17717
bias &#45;0.522
h_scaling 1.000</title>
<path fill="none" stroke="red" stroke-width="1.85" d="M146.2,-256.93C160.57,-254.96 171.37,-244.95 171.37,-226.92 171.37,-213.25 165.17,-204.2 155.91,-199.75"/>
<polygon fill="red" stroke="red" stroke-width="1.85" points="156.78,-196.36 146.2,-196.91 154.81,-203.08 156.78,-196.36"/>
</g>
</g>
</svg>
