<?xml version="1.0" encoding="UTF-8" standalone="no"?>
<!DOCTYPE svg PUBLIC "-//W3C//DTD SVG 1.1//EN"
 "http://www.w3.org/Graphics/SVG/1.1/DTD/svg11.dtd">
<!-- Generated by graphviz version 2.43.0 (0)
 -->
<!-- Title: %3 Pages: 1 -->
<svg width="558pt" height="1412pt"
 viewBox="0.00 0.00 557.64 1412.23" xmlns="http://www.w3.org/2000/svg" xmlns:xlink="http://www.w3.org/1999/xlink">
<g id="graph0" class="graph" transform="scale(1 1) rotate(0) translate(4 1408.23)">
<title>%3</title>
<polygon fill="white" stroke="transparent" points="-4,4 -4,-1408.23 553.64,-1408.23 553.64,4 -4,4"/>
<!-- ready -->
<g id="node1" class="node">
<title>ready</title>
<polygon fill="yellow" stroke="black" points="67.5,-1404.23 24.5,-1404.23 24.5,-1386.23 67.5,-1386.23 67.5,-1404.23"/>
<text text-anchor="middle" x="46" y="-1393.03" font-family="Times,serif" font-size="9.00">ready</text>
</g>
<!-- key 4995
bias &#45;0.566
h_scaling 1.000 -->
<g id="node5" class="node">
<title>key 4995
bias &#45;0.566
h_scaling 1.000</title>
<ellipse fill="white" stroke="black" cx="248" cy="-1276.59" rx="63.78" ry="63.78"/>
<text text-anchor="middle" x="248" y="-1284.39" font-family="Times,serif" font-size="9.00">key 4995</text>
<text text-anchor="middle" x="248" y="-1274.39" font-family="Times,serif" font-size="9.00">bias &#45;0.566</text>
<text text-anchor="middle" x="248" y="-1264.39" font-family="Times,serif" font-size="9.00">h_scaling 1.000</text>
</g>
<!-- ready&#45;&gt;key 4995
bias &#45;0.566
h_scaling 1.000 -->
<g id="edge3" class="edge">
<title>ready&#45;&gt;key 4995
bias &#45;0.566
h_scaling 1.000</title>
<path fill="none" stroke="red" stroke-width="0.1" d="M59.88,-1386.22C85.15,-1371.63 140.1,-1339.9 184.13,-1314.48"/>
<polygon fill="red" stroke="red" stroke-width="0.1" points="186.15,-1317.35 193.05,-1309.32 182.64,-1311.29 186.15,-1317.35"/>
<text text-anchor="middle" x="120" y="-1361.03" font-family="Times,serif" font-size="9.00">0.000</text>
</g>
<!-- key 36042
bias &#45;0.307
h_scaling 1.000 -->
<g id="node7" class="node">
<title>key 36042
bias &#45;0.307
h_scaling 1.000</title>
<ellipse fill="white" stroke="black" cx="153" cy="-583.48" rx="63.78" ry="63.78"/>
<text text-anchor="middle" x="153" y="-591.28" font-family="Times,serif" font-size="9.00">key 36042</text>
<text text-anchor="middle" x="153" y="-581.28" font-family="Times,serif" font-size="9.00">bias &#45;0.307</text>
<text text-anchor="middle" x="153" y="-571.28" font-family="Times,serif" font-size="9.00">h_scaling 1.000</text>
</g>
<!-- ready&#45;&gt;key 36042
bias &#45;0.307
h_scaling 1.000 -->
<g id="edge5" class="edge">
<title>ready&#45;&gt;key 36042
bias &#45;0.307
h_scaling 1.000</title>
<path fill="none" stroke="red" stroke-width="0.1" d="M40.36,-1386.18C28.08,-1367.83 0,-1321.13 0,-1277.59 0,-1277.59 0,-1277.59 0,-755.76 0,-698.75 47.72,-652 89.86,-621.82"/>
<polygon fill="red" stroke="red" stroke-width="0.1" points="91.99,-624.6 98.2,-616.01 87.99,-618.86 91.99,-624.6"/>
<text text-anchor="middle" x="14" y="-1014.48" font-family="Times,serif" font-size="9.00">0.000</text>
</g>
<!-- key 39930
bias &#45;0.606
h_scaling 1.000 -->
<g id="node10" class="node">
<title>key 39930
bias &#45;0.606
h_scaling 1.000</title>
<ellipse fill="white" stroke="black" cx="96" cy="-756.76" rx="63.78" ry="63.78"/>
<text text-anchor="middle" x="96" y="-764.56" font-family="Times,serif" font-size="9.00">key 39930</text>
<text text-anchor="middle" x="96" y="-754.56" font-family="Times,serif" font-size="9.00">bias &#45;0.606</text>
<text text-anchor="middle" x="96" y="-744.56" font-family="Times,serif" font-size="9.00">h_scaling 1.000</text>
</g>
<!-- ready&#45;&gt;key 39930
bias &#45;0.606
h_scaling 1.000 -->
<g id="edge10" class="edge">
<title>ready&#45;&gt;key 39930
bias &#45;0.606
h_scaling 1.000</title>
<path fill="none" stroke="red" stroke-width="0.1" d="M46,-1386.03C46,-1366.99 46,-1318.3 46,-1277.59 46,-1277.59 46,-1277.59 46,-929.04 46,-893.66 55.95,-855.77 66.97,-824.64"/>
<polygon fill="red" stroke="red" stroke-width="0.1" points="70.27,-825.8 70.41,-815.21 63.7,-823.4 70.27,-825.8"/>
<text text-anchor="middle" x="60" y="-1101.11" font-family="Times,serif" font-size="9.00">0.000</text>
</g>
<!-- go -->
<g id="node2" class="node">
<title>go</title>
<polygon fill="green" stroke="black" points="199,-1404.23 171,-1404.23 171,-1386.23 199,-1386.23 199,-1404.23"/>
<text text-anchor="middle" x="185" y="-1393.03" font-family="Times,serif" font-size="9.00">go</text>
</g>
<!-- go&#45;&gt;key 4995
bias &#45;0.566
h_scaling 1.000 -->
<g id="edge2" class="edge">
<title>go&#45;&gt;key 4995
bias &#45;0.566
h_scaling 1.000</title>
<path fill="none" stroke="blue" stroke-width="0.1" d="M189.33,-1386.22C194.47,-1376.71 203.54,-1359.91 213.04,-1342.33"/>
<polygon fill="blue" stroke="blue" stroke-width="0.1" points="216.35,-1343.56 218.02,-1333.1 210.19,-1340.23 216.35,-1343.56"/>
</g>
<!-- key 86992
bias &#45;0.639
h_scaling 1.000 -->
<g id="node9" class="node">
<title>key 86992
bias &#45;0.639
h_scaling 1.000</title>
<ellipse fill="white" stroke="black" cx="156" cy="-1103.31" rx="63.78" ry="63.78"/>
<text text-anchor="middle" x="156" y="-1111.11" font-family="Times,serif" font-size="9.00">key 86992</text>
<text text-anchor="middle" x="156" y="-1101.11" font-family="Times,serif" font-size="9.00">bias &#45;0.639</text>
<text text-anchor="middle" x="156" y="-1091.11" font-family="Times,serif" font-size="9.00">h_scaling 1.000</text>
</g>
<!-- go&#45;&gt;key 86992
bias &#45;0.639
h_scaling 1.000 -->
<g id="edge15" class="edge">
<title>go&#45;&gt;key 86992
bias &#45;0.639
h_scaling 1.000</title>
<path fill="none" stroke="blue" stroke-width="0.1" d="M183.25,-1386.22C181.02,-1375.72 177.18,-1356.68 175,-1340.23 167.78,-1285.78 162.92,-1223.86 159.93,-1177.12"/>
<polygon fill="blue" stroke="blue" stroke-width="0.1" points="163.42,-1176.85 159.3,-1167.09 156.43,-1177.29 163.42,-1176.85"/>
</g>
<!-- output
bias &#45;0.979
h_scaling 1.000 -->
<g id="node3" class="node">
<title>output
bias &#45;0.979
h_scaling 1.000</title>
<ellipse fill="lightblue" stroke="black" cx="344" cy="-930.04" rx="63.78" ry="63.78"/>
<text text-anchor="middle" x="344" y="-937.84" font-family="Times,serif" font-size="9.00">output</text>
<text text-anchor="middle" x="344" y="-927.84" font-family="Times,serif" font-size="9.00">bias &#45;0.979</text>
<text text-anchor="middle" x="344" y="-917.84" font-family="Times,serif" font-size="9.00">h_scaling 1.000</text>
</g>
<!-- output
bias &#45;0.979
h_scaling 1.000&#45;&gt;key 39930
bias &#45;0.606
h_scaling 1.000 -->
<g id="edge20" class="edge">
<title>output
bias &#45;0.979
h_scaling 1.000&#45;&gt;key 39930
bias &#45;0.606
h_scaling 1.000</title>
<path fill="none" stroke="red" stroke-width="0.1" d="M295.53,-888.78C285.89,-881.16 275.74,-873.38 266,-866.4 231.39,-841.55 191.29,-815.79 158.74,-795.59"/>
<polygon fill="red" stroke="red" stroke-width="0.1" points="160.54,-792.6 150.2,-790.32 156.86,-798.55 160.54,-792.6"/>
<text text-anchor="middle" x="252" y="-841.2" font-family="Times,serif" font-size="9.00">0.000</text>
</g>
<!-- key 236225
bias &#45;0.322
h_scaling 1.000 -->
<g id="node4" class="node">
<title>key 236225
bias &#45;0.322
h_scaling 1.000</title>
<ellipse fill="white" stroke="black" cx="302" cy="-63.64" rx="63.78" ry="63.78"/>
<text text-anchor="middle" x="302" y="-71.44" font-family="Times,serif" font-size="9.00">key 236225</text>
<text text-anchor="middle" x="302" y="-61.44" font-family="Times,serif" font-size="9.00">bias &#45;0.322</text>
<text text-anchor="middle" x="302" y="-51.44" font-family="Times,serif" font-size="9.00">h_scaling 1.000</text>
</g>
<!-- key 236225
bias &#45;0.322
h_scaling 1.000&#45;&gt;output
bias &#45;0.979
h_scaling 1.000 -->
<g id="edge21" class="edge">
<title>key 236225
bias &#45;0.322
h_scaling 1.000&#45;&gt;output
bias &#45;0.979
h_scaling 1.000</title>
<path fill="none" stroke="blue" stroke-width="0.1" d="M325.81,-123.06C337.03,-155.69 348,-197.43 348,-235.92 348,-757.76 348,-757.76 348,-757.76 348,-790.09 347.28,-825.85 346.45,-856.3"/>
<polygon fill="blue" stroke="blue" stroke-width="0.1" points="342.95,-856.31 346.16,-866.4 349.94,-856.51 342.95,-856.31"/>
</g>
<!-- key 4995
bias &#45;0.566
h_scaling 1.000&#45;&gt;output
bias &#45;0.979
h_scaling 1.000 -->
<g id="edge1" class="edge">
<title>key 4995
bias &#45;0.566
h_scaling 1.000&#45;&gt;output
bias &#45;0.979
h_scaling 1.000</title>
<path fill="none" stroke="red" stroke-width="0.1" d="M264.83,-1215.18C281.45,-1155.55 306.84,-1064.41 324.36,-1001.51"/>
<polygon fill="red" stroke="red" stroke-width="0.1" points="327.79,-1002.24 327.11,-991.67 321.05,-1000.36 327.79,-1002.24"/>
<text text-anchor="middle" x="327" y="-1101.11" font-family="Times,serif" font-size="9.00">0.000</text>
</g>
<!-- key 4995
bias &#45;0.566
h_scaling 1.000&#45;&gt;key 4995
bias &#45;0.566
h_scaling 1.000 -->
<g id="edge4" class="edge">
<title>key 4995
bias &#45;0.566
h_scaling 1.000&#45;&gt;key 4995
bias &#45;0.566
h_scaling 1.000</title>
<path fill="none" stroke="red" stroke-width="0.1" d="M309.94,-1291.89C321.5,-1290.01 329.64,-1284.91 329.64,-1276.59 329.64,-1270.88 325.79,-1266.68 319.63,-1264"/>
<polygon fill="red" stroke="red" stroke-width="0.1" points="320.52,-1260.62 309.94,-1261.3 318.63,-1267.36 320.52,-1260.62"/>
<text text-anchor="middle" x="343.64" y="-1274.39" font-family="Times,serif" font-size="9.00">0.000</text>
</g>
<!-- key 4995
bias &#45;0.566
h_scaling 1.000&#45;&gt;key 86992
bias &#45;0.639
h_scaling 1.000 -->
<g id="edge12" class="edge">
<title>key 4995
bias &#45;0.566
h_scaling 1.000&#45;&gt;key 86992
bias &#45;0.639
h_scaling 1.000</title>
<path fill="none" stroke="red" stroke-width="0.1" d="M218.13,-1219.98C209.36,-1203.67 199.7,-1185.68 190.67,-1168.86"/>
<polygon fill="red" stroke="red" stroke-width="0.1" points="193.54,-1166.8 185.72,-1159.65 187.37,-1170.11 193.54,-1166.8"/>
<text text-anchor="middle" x="216" y="-1187.75" font-family="Times,serif" font-size="9.00">0.000</text>
</g>
<!-- key 36168
bias &#45;0.804
h_scaling 1.000 -->
<g id="node6" class="node">
<title>key 36168
bias &#45;0.804
h_scaling 1.000</title>
<ellipse fill="white" stroke="black" cx="440" cy="-236.92" rx="63.78" ry="63.78"/>
<text text-anchor="middle" x="440" y="-244.72" font-family="Times,serif" font-size="9.00">key 36168</text>
<text text-anchor="middle" x="440" y="-234.72" font-family="Times,serif" font-size="9.00">bias &#45;0.804</text>
<text text-anchor="middle" x="440" y="-224.72" font-family="Times,serif" font-size="9.00">h_scaling 1.000</text>
</g>
<!-- key 36168
bias &#45;0.804
h_scaling 1.000&#45;&gt;key 4995
bias &#45;0.566
h_scaling 1.000 -->
<g id="edge7" class="edge">
<title>key 36168
bias &#45;0.804
h_scaling 1.000&#45;&gt;key 4995
bias &#45;0.566
h_scaling 1.000</title>
<path fill="none" stroke="red" stroke-width="0.1" d="M438.92,-300.56C438.45,-332.98 438,-373.22 438,-409.2 438,-1104.31 438,-1104.31 438,-1104.31 438,-1172.15 370.36,-1220.01 315.79,-1247.59"/>
<polygon fill="red" stroke="red" stroke-width="0.1" points="314.24,-1244.45 306.82,-1252 317.33,-1250.73 314.24,-1244.45"/>
<text text-anchor="middle" x="452" y="-754.56" font-family="Times,serif" font-size="9.00">0.000</text>
</g>
<!-- key 36168
bias &#45;0.804
h_scaling 1.000&#45;&gt;key 36168
bias &#45;0.804
h_scaling 1.000 -->
<g id="edge18" class="edge">
<title>key 36168
bias &#45;0.804
h_scaling 1.000&#45;&gt;key 36168
bias &#45;0.804
h_scaling 1.000</title>
<path fill="none" stroke="red" stroke-width="0.1" d="M501.94,-252.22C513.5,-250.33 521.64,-245.23 521.64,-236.92 521.64,-231.2 517.79,-227.01 511.63,-224.33"/>
<polygon fill="red" stroke="red" stroke-width="0.1" points="512.52,-220.94 501.94,-221.62 510.63,-227.68 512.52,-220.94"/>
<text text-anchor="middle" x="535.64" y="-234.72" font-family="Times,serif" font-size="9.00">0.000</text>
</g>
<!-- key 36042
bias &#45;0.307
h_scaling 1.000&#45;&gt;key 4995
bias &#45;0.566
h_scaling 1.000 -->
<g id="edge6" class="edge">
<title>key 36042
bias &#45;0.307
h_scaling 1.000&#45;&gt;key 4995
bias &#45;0.566
h_scaling 1.000</title>
<path fill="none" stroke="red" stroke-width="0.1" d="M188.94,-636.14C199.21,-653.48 209.18,-673.44 215,-693.12 229.08,-740.72 240.95,-1057.01 245.73,-1202.55"/>
<polygon fill="red" stroke="red" stroke-width="0.1" points="242.24,-1202.84 246.07,-1212.72 249.24,-1202.61 242.24,-1202.84"/>
<text text-anchor="middle" x="251" y="-927.84" font-family="Times,serif" font-size="9.00">0.000</text>
</g>
<!-- key 36042
bias &#45;0.307
h_scaling 1.000&#45;&gt;key 36042
bias &#45;0.307
h_scaling 1.000 -->
<g id="edge16" class="edge">
<title>key 36042
bias &#45;0.307
h_scaling 1.000&#45;&gt;key 36042
bias &#45;0.307
h_scaling 1.000</title>
<path fill="none" stroke="red" stroke-width="0.1" d="M214.94,-598.77C226.5,-596.89 234.64,-591.79 234.64,-583.48 234.64,-577.76 230.79,-573.56 224.63,-570.89"/>
<polygon fill="red" stroke="red" stroke-width="0.1" points="225.52,-567.5 214.94,-568.18 223.63,-574.24 225.52,-567.5"/>
<text text-anchor="middle" x="248.64" y="-581.28" font-family="Times,serif" font-size="9.00">0.000</text>
</g>
<!-- key 37631
bias &#45;0.228
h_scaling 1.000 -->
<g id="node11" class="node">
<title>key 37631
bias &#45;0.228
h_scaling 1.000</title>
<ellipse fill="white" stroke="black" cx="255" cy="-410.2" rx="63.78" ry="63.78"/>
<text text-anchor="middle" x="255" y="-418" font-family="Times,serif" font-size="9.00">key 37631</text>
<text text-anchor="middle" x="255" y="-408" font-family="Times,serif" font-size="9.00">bias &#45;0.228</text>
<text text-anchor="middle" x="255" y="-398" font-family="Times,serif" font-size="9.00">h_scaling 1.000</text>
</g>
<!-- key 36042
bias &#45;0.307
h_scaling 1.000&#45;&gt;key 37631
bias &#45;0.228
h_scaling 1.000 -->
<g id="edge8" class="edge">
<title>key 36042
bias &#45;0.307
h_scaling 1.000&#45;&gt;key 37631
bias &#45;0.228
h_scaling 1.000</title>
<path fill="none" stroke="red" stroke-width="0.1" d="M185.27,-528.28C195.56,-511.02 207.02,-491.77 217.63,-473.95"/>
<polygon fill="red" stroke="red" stroke-width="0.1" points="220.65,-475.72 222.76,-465.33 214.64,-472.13 220.65,-475.72"/>
<text text-anchor="middle" x="218" y="-494.64" font-family="Times,serif" font-size="9.00">0.000</text>
</g>
<!-- key 324524
bias 0.698
h_scaling 1.000 -->
<g id="node8" class="node">
<title>key 324524
bias 0.698
h_scaling 1.000</title>
<ellipse fill="white" stroke="black" cx="255" cy="-236.92" rx="63.78" ry="63.78"/>
<text text-anchor="middle" x="255" y="-244.72" font-family="Times,serif" font-size="9.00">key 324524</text>
<text text-anchor="middle" x="255" y="-234.72" font-family="Times,serif" font-size="9.00">bias 0.698</text>
<text text-anchor="middle" x="255" y="-224.72" font-family="Times,serif" font-size="9.00">h_scaling 1.000</text>
</g>
<!-- key 324524
bias 0.698
h_scaling 1.000&#45;&gt;key 236225
bias &#45;0.322
h_scaling 1.000 -->
<g id="edge23" class="edge">
<title>key 324524
bias 0.698
h_scaling 1.000&#45;&gt;key 236225
bias &#45;0.322
h_scaling 1.000</title>
<path fill="none" stroke="red" stroke-width="0.1" d="M271.7,-175.05C275.24,-162.18 278.99,-148.49 282.61,-135.29"/>
<polygon fill="red" stroke="red" stroke-width="0.1" points="286.08,-135.88 285.35,-125.31 279.33,-134.03 286.08,-135.88"/>
<text text-anchor="middle" x="292" y="-148.08" font-family="Times,serif" font-size="9.00">0.000</text>
</g>
<!-- key 86992
bias &#45;0.639
h_scaling 1.000&#45;&gt;output
bias &#45;0.979
h_scaling 1.000 -->
<g id="edge17" class="edge">
<title>key 86992
bias &#45;0.639
h_scaling 1.000&#45;&gt;output
bias &#45;0.979
h_scaling 1.000</title>
<path fill="none" stroke="red" stroke-width="0.1" d="M202.96,-1059.54C229.3,-1035.53 262.29,-1005.48 289.73,-980.48"/>
<polygon fill="red" stroke="red" stroke-width="0.1" points="292.28,-982.89 297.32,-973.57 287.57,-977.71 292.28,-982.89"/>
<text text-anchor="middle" x="264" y="-1014.48" font-family="Times,serif" font-size="9.00">0.000</text>
</g>
<!-- key 86992
bias &#45;0.639
h_scaling 1.000&#45;&gt;key 39930
bias &#45;0.606
h_scaling 1.000 -->
<g id="edge13" class="edge">
<title>key 86992
bias &#45;0.639
h_scaling 1.000&#45;&gt;key 39930
bias &#45;0.606
h_scaling 1.000</title>
<path fill="none" stroke="blue" stroke-width="0.1" d="M145.2,-1040.32C134.9,-981.13 119.37,-891.98 108.53,-829.69"/>
<polygon fill="blue" stroke="blue" stroke-width="0.1" points="111.92,-828.8 106.76,-819.55 105.03,-830 111.92,-828.8"/>
</g>
<!-- key 39930
bias &#45;0.606
h_scaling 1.000&#45;&gt;key 36042
bias &#45;0.307
h_scaling 1.000 -->
<g id="edge11" class="edge">
<title>key 39930
bias &#45;0.606
h_scaling 1.000&#45;&gt;key 36042
bias &#45;0.307
h_scaling 1.000</title>
<path fill="none" stroke="red" stroke-width="0.1" d="M115.94,-695.85C120.47,-682.21 125.33,-667.61 129.99,-653.63"/>
<polygon fill="red" stroke="red" stroke-width="0.1" points="133.33,-654.65 133.17,-644.06 126.69,-652.44 133.33,-654.65"/>
<text text-anchor="middle" x="139" y="-667.92" font-family="Times,serif" font-size="9.00">0.000</text>
</g>
<!-- key 39930
bias &#45;0.606
h_scaling 1.000&#45;&gt;key 39930
bias &#45;0.606
h_scaling 1.000 -->
<g id="edge14" class="edge">
<title>key 39930
bias &#45;0.606
h_scaling 1.000&#45;&gt;key 39930
bias &#45;0.606
h_scaling 1.000</title>
<path fill="none" stroke="red" stroke-width="0.1" d="M157.94,-772.05C169.5,-770.17 177.64,-765.07 177.64,-756.76 177.64,-751.04 173.79,-746.84 167.63,-744.17"/>
<polygon fill="red" stroke="red" stroke-width="0.1" points="168.52,-740.78 157.94,-741.46 166.63,-747.52 168.52,-740.78"/>
<text text-anchor="middle" x="191.64" y="-754.56" font-family="Times,serif" font-size="9.00">0.000</text>
</g>
<!-- key 37631
bias &#45;0.228
h_scaling 1.000&#45;&gt;output
bias &#45;0.979
h_scaling 1.000 -->
<g id="edge19" class="edge">
<title>key 37631
bias &#45;0.228
h_scaling 1.000&#45;&gt;output
bias &#45;0.979
h_scaling 1.000</title>
<path fill="none" stroke="blue" stroke-width="0.1" d="M265.66,-473.22C282.23,-569.65 314.1,-755.04 331.65,-857.17"/>
<polygon fill="blue" stroke="blue" stroke-width="0.1" points="328.21,-857.82 333.35,-867.09 335.11,-856.64 328.21,-857.82"/>
</g>
<!-- key 37631
bias &#45;0.228
h_scaling 1.000&#45;&gt;key 36168
bias &#45;0.804
h_scaling 1.000 -->
<g id="edge9" class="edge">
<title>key 37631
bias &#45;0.228
h_scaling 1.000&#45;&gt;key 36168
bias &#45;0.804
h_scaling 1.000</title>
<path fill="none" stroke="red" stroke-width="0.1" d="M301.21,-366.42C327.03,-342.51 359.34,-312.59 386.29,-287.64"/>
<polygon fill="red" stroke="red" stroke-width="0.1" points="388.78,-290.11 393.74,-280.75 384.03,-284.97 388.78,-290.11"/>
<text text-anchor="middle" x="361" y="-321.36" font-family="Times,serif" font-size="9.00">0.000</text>
</g>
<!-- key 37631
bias &#45;0.228
h_scaling 1.000&#45;&gt;key 324524
bias 0.698
h_scaling 1.000 -->
<g id="edge22" class="edge">
<title>key 37631
bias &#45;0.228
h_scaling 1.000&#45;&gt;key 324524
bias 0.698
h_scaling 1.000</title>
<path fill="none" stroke="red" stroke-width="0.1" d="M255,-346.39C255,-334.87 255,-322.76 255,-310.97"/>
<polygon fill="red" stroke="red" stroke-width="0.1" points="258.5,-310.72 255,-300.72 251.5,-310.72 258.5,-310.72"/>
<text text-anchor="middle" x="269" y="-321.36" font-family="Times,serif" font-size="9.00">0.000</text>
</g>
</g>
</svg>
