<?xml version="1.0" encoding="UTF-8" standalone="no"?>
<!DOCTYPE svg PUBLIC "-//W3C//DTD SVG 1.1//EN"
 "http://www.w3.org/Graphics/SVG/1.1/DTD/svg11.dtd">
<!-- Generated by graphviz version 2.43.0 (0)
 -->
<!-- Title: %3 Pages: 1 -->
<svg width="571pt" height="1412pt"
 viewBox="0.00 0.00 570.64 1412.23" xmlns="http://www.w3.org/2000/svg" xmlns:xlink="http://www.w3.org/1999/xlink">
<g id="graph0" class="graph" transform="scale(1 1) rotate(0) translate(4 1408.23)">
<title>%3</title>
<polygon fill="white" stroke="transparent" points="-4,4 -4,-1408.23 566.64,-1408.23 566.64,4 -4,4"/>
<!-- ready -->
<g id="node1" class="node">
<title>ready</title>
<polygon fill="yellow" stroke="black" points="67.5,-1404.23 24.5,-1404.23 24.5,-1386.23 67.5,-1386.23 67.5,-1404.23"/>
<text text-anchor="middle" x="46" y="-1393.03" font-family="Times,serif" font-size="9.00">ready</text>
</g>
<!-- key 4995
bias &#45;0.566
h_scaling 1.000 -->
<g id="node5" class="node">
<title>key 4995
bias &#45;0.566
h_scaling 1.000</title>
<ellipse fill="white" stroke="black" cx="257" cy="-1276.59" rx="63.78" ry="63.78"/>
<text text-anchor="middle" x="257" y="-1284.39" font-family="Times,serif" font-size="9.00">key 4995</text>
<text text-anchor="middle" x="257" y="-1274.39" font-family="Times,serif" font-size="9.00">bias &#45;0.566</text>
<text text-anchor="middle" x="257" y="-1264.39" font-family="Times,serif" font-size="9.00">h_scaling 1.000</text>
</g>
<!-- ready&#45;&gt;key 4995
bias &#45;0.566
h_scaling 1.000 -->
<g id="edge3" class="edge">
<title>ready&#45;&gt;key 4995
bias &#45;0.566
h_scaling 1.000</title>
<path fill="none" stroke="red" stroke-width="0.6" d="M67.62,-1387.62C94.71,-1378.86 142.04,-1361.95 179,-1340.23 186.43,-1335.87 193.9,-1330.85 201.13,-1325.58"/>
<polygon fill="red" stroke="red" stroke-width="0.6" points="203.58,-1328.12 209.49,-1319.32 199.38,-1322.52 203.58,-1328.12"/>
<text text-anchor="middle" x="159" y="-1361.03" font-family="Times,serif" font-size="9.00">0.166</text>
</g>
<!-- key 36042
bias &#45;0.307
h_scaling 1.000 -->
<g id="node7" class="node">
<title>key 36042
bias &#45;0.307
h_scaling 1.000</title>
<ellipse fill="white" stroke="black" cx="158" cy="-583.48" rx="63.78" ry="63.78"/>
<text text-anchor="middle" x="158" y="-591.28" font-family="Times,serif" font-size="9.00">key 36042</text>
<text text-anchor="middle" x="158" y="-581.28" font-family="Times,serif" font-size="9.00">bias &#45;0.307</text>
<text text-anchor="middle" x="158" y="-571.28" font-family="Times,serif" font-size="9.00">h_scaling 1.000</text>
</g>
<!-- ready&#45;&gt;key 36042
bias &#45;0.307
h_scaling 1.000 -->
<g id="edge5" class="edge">
<title>ready&#45;&gt;key 36042
bias &#45;0.307
h_scaling 1.000</title>
<path fill="none" stroke="red" stroke-width="1.29" d="M40.36,-1386.18C28.08,-1367.83 0,-1321.13 0,-1277.59 0,-1277.59 0,-1277.59 0,-755.76 0,-697.42 50.14,-650.45 93.92,-620.56"/>
<polygon fill="red" stroke="red" stroke-width="1.29" points="95.9,-623.45 102.3,-615 92.03,-617.62 95.9,-623.45"/>
<text text-anchor="middle" x="14" y="-1014.48" font-family="Times,serif" font-size="9.00">0.397</text>
</g>
<!-- key 39930
bias &#45;0.606
h_scaling 1.000 -->
<g id="node10" class="node">
<title>key 39930
bias &#45;0.606
h_scaling 1.000</title>
<ellipse fill="white" stroke="black" cx="101" cy="-756.76" rx="63.78" ry="63.78"/>
<text text-anchor="middle" x="101" y="-764.56" font-family="Times,serif" font-size="9.00">key 39930</text>
<text text-anchor="middle" x="101" y="-754.56" font-family="Times,serif" font-size="9.00">bias &#45;0.606</text>
<text text-anchor="middle" x="101" y="-744.56" font-family="Times,serif" font-size="9.00">h_scaling 1.000</text>
</g>
<!-- ready&#45;&gt;key 39930
bias &#45;0.606
h_scaling 1.000 -->
<g id="edge10" class="edge">
<title>ready&#45;&gt;key 39930
bias &#45;0.606
h_scaling 1.000</title>
<path fill="none" stroke="red" stroke-width="3.08" d="M46,-1386.03C46,-1366.99 46,-1318.3 46,-1277.59 46,-1277.59 46,-1277.59 46,-929.04 46,-893.09 57.12,-854.85 69.35,-823.64"/>
<polygon fill="red" stroke="red" stroke-width="3.08" points="72.67,-824.77 73.18,-814.19 66.18,-822.14 72.67,-824.77"/>
<text text-anchor="middle" x="60" y="-1101.11" font-family="Times,serif" font-size="9.00">0.995</text>
</g>
<!-- go -->
<g id="node2" class="node">
<title>go</title>
<polygon fill="green" stroke="black" points="194,-1404.23 166,-1404.23 166,-1386.23 194,-1386.23 194,-1404.23"/>
<text text-anchor="middle" x="180" y="-1393.03" font-family="Times,serif" font-size="9.00">go</text>
</g>
<!-- go&#45;&gt;key 4995
bias &#45;0.566
h_scaling 1.000 -->
<g id="edge2" class="edge">
<title>go&#45;&gt;key 4995
bias &#45;0.566
h_scaling 1.000</title>
<path fill="none" stroke="blue" stroke-width="3.01" d="M185.29,-1386.22C192.01,-1376.04 204.24,-1357.52 216.71,-1338.62"/>
<polygon fill="blue" stroke="blue" stroke-width="3.01" points="219.66,-1340.51 222.25,-1330.23 213.82,-1336.65 219.66,-1340.51"/>
<text text-anchor="middle" x="218.5" y="-1361.03" font-family="Times,serif" font-size="9.00">&#45;0.972</text>
</g>
<!-- key 86992
bias &#45;0.639
h_scaling 1.000 -->
<g id="node9" class="node">
<title>key 86992
bias &#45;0.639
h_scaling 1.000</title>
<ellipse fill="white" stroke="black" cx="156" cy="-1103.31" rx="63.78" ry="63.78"/>
<text text-anchor="middle" x="156" y="-1111.11" font-family="Times,serif" font-size="9.00">key 86992</text>
<text text-anchor="middle" x="156" y="-1101.11" font-family="Times,serif" font-size="9.00">bias &#45;0.639</text>
<text text-anchor="middle" x="156" y="-1091.11" font-family="Times,serif" font-size="9.00">h_scaling 1.000</text>
</g>
<!-- go&#45;&gt;key 86992
bias &#45;0.639
h_scaling 1.000 -->
<g id="edge15" class="edge">
<title>go&#45;&gt;key 86992
bias &#45;0.639
h_scaling 1.000</title>
<path fill="none" stroke="blue" stroke-width="0.88" d="M174.29,-1385.92C167.66,-1375.7 157.09,-1357.58 153,-1340.23 140.33,-1286.57 141.82,-1224.1 146.07,-1176.93"/>
<polygon fill="blue" stroke="blue" stroke-width="0.88" points="149.57,-1177.1 147.05,-1166.81 142.6,-1176.43 149.57,-1177.1"/>
<text text-anchor="middle" x="168.5" y="-1274.39" font-family="Times,serif" font-size="9.00">&#45;0.261</text>
</g>
<!-- output
bias &#45;0.979
h_scaling 1.000 -->
<g id="node3" class="node">
<title>output
bias &#45;0.979
h_scaling 1.000</title>
<ellipse fill="lightblue" stroke="black" cx="349" cy="-930.04" rx="63.78" ry="63.78"/>
<text text-anchor="middle" x="349" y="-937.84" font-family="Times,serif" font-size="9.00">output</text>
<text text-anchor="middle" x="349" y="-927.84" font-family="Times,serif" font-size="9.00">bias &#45;0.979</text>
<text text-anchor="middle" x="349" y="-917.84" font-family="Times,serif" font-size="9.00">h_scaling 1.000</text>
</g>
<!-- output
bias &#45;0.979
h_scaling 1.000&#45;&gt;key 39930
bias &#45;0.606
h_scaling 1.000 -->
<g id="edge20" class="edge">
<title>output
bias &#45;0.979
h_scaling 1.000&#45;&gt;key 39930
bias &#45;0.606
h_scaling 1.000</title>
<path fill="none" stroke="red" stroke-width="0.55" d="M300.53,-888.78C290.89,-881.16 280.74,-873.38 271,-866.4 236.39,-841.55 196.29,-815.79 163.74,-795.59"/>
<polygon fill="red" stroke="red" stroke-width="0.55" points="165.54,-792.6 155.2,-790.32 161.86,-798.55 165.54,-792.6"/>
<text text-anchor="middle" x="257" y="-841.2" font-family="Times,serif" font-size="9.00">0.151</text>
</g>
<!-- key 236225
bias &#45;0.322
h_scaling 1.000 -->
<g id="node4" class="node">
<title>key 236225
bias &#45;0.322
h_scaling 1.000</title>
<ellipse fill="white" stroke="black" cx="315" cy="-63.64" rx="63.78" ry="63.78"/>
<text text-anchor="middle" x="315" y="-71.44" font-family="Times,serif" font-size="9.00">key 236225</text>
<text text-anchor="middle" x="315" y="-61.44" font-family="Times,serif" font-size="9.00">bias &#45;0.322</text>
<text text-anchor="middle" x="315" y="-51.44" font-family="Times,serif" font-size="9.00">h_scaling 1.000</text>
</g>
<!-- key 236225
bias &#45;0.322
h_scaling 1.000&#45;&gt;output
bias &#45;0.979
h_scaling 1.000 -->
<g id="edge21" class="edge">
<title>key 236225
bias &#45;0.322
h_scaling 1.000&#45;&gt;output
bias &#45;0.979
h_scaling 1.000</title>
<path fill="none" stroke="blue" stroke-width="0.54" d="M338.81,-123.06C350.03,-155.69 361,-197.43 361,-235.92 361,-757.76 361,-757.76 361,-757.76 361,-790.16 358.84,-825.93 356.35,-856.37"/>
<polygon fill="blue" stroke="blue" stroke-width="0.54" points="352.85,-856.21 355.49,-866.47 359.82,-856.8 352.85,-856.21"/>
<text text-anchor="middle" x="376.5" y="-494.64" font-family="Times,serif" font-size="9.00">&#45;0.148</text>
</g>
<!-- key 4995
bias &#45;0.566
h_scaling 1.000&#45;&gt;output
bias &#45;0.979
h_scaling 1.000 -->
<g id="edge1" class="edge">
<title>key 4995
bias &#45;0.566
h_scaling 1.000&#45;&gt;output
bias &#45;0.979
h_scaling 1.000</title>
<path fill="none" stroke="red" stroke-width="3.09" d="M273.24,-1214.79C289.15,-1155.19 313.39,-1064.39 330.15,-1001.64"/>
<polygon fill="red" stroke="red" stroke-width="3.09" points="333.57,-1002.38 332.77,-991.81 326.81,-1000.57 333.57,-1002.38"/>
<text text-anchor="middle" x="333" y="-1101.11" font-family="Times,serif" font-size="9.00">0.997</text>
</g>
<!-- key 4995
bias &#45;0.566
h_scaling 1.000&#45;&gt;key 4995
bias &#45;0.566
h_scaling 1.000 -->
<g id="edge4" class="edge">
<title>key 4995
bias &#45;0.566
h_scaling 1.000&#45;&gt;key 4995
bias &#45;0.566
h_scaling 1.000</title>
<path fill="none" stroke="red" stroke-width="3.1" d="M318.94,-1291.89C330.5,-1290.01 338.64,-1284.91 338.64,-1276.59 338.64,-1270.88 334.79,-1266.68 328.63,-1264"/>
<polygon fill="red" stroke="red" stroke-width="3.1" points="329.52,-1260.62 318.94,-1261.3 327.63,-1267.36 329.52,-1260.62"/>
<text text-anchor="middle" x="352.64" y="-1274.39" font-family="Times,serif" font-size="9.00">1.000</text>
</g>
<!-- key 4995
bias &#45;0.566
h_scaling 1.000&#45;&gt;key 86992
bias &#45;0.639
h_scaling 1.000 -->
<g id="edge12" class="edge">
<title>key 4995
bias &#45;0.566
h_scaling 1.000&#45;&gt;key 86992
bias &#45;0.639
h_scaling 1.000</title>
<path fill="none" stroke="red" stroke-width="3.1" d="M222.8,-1222.52C217.1,-1213.38 211.31,-1203.94 206,-1194.95 200.99,-1186.49 195.84,-1177.49 190.83,-1168.59"/>
<polygon fill="red" stroke="red" stroke-width="3.1" points="193.82,-1166.76 185.88,-1159.74 187.71,-1170.17 193.82,-1166.76"/>
<text text-anchor="middle" x="220" y="-1187.75" font-family="Times,serif" font-size="9.00">1.000</text>
</g>
<!-- key 36168
bias &#45;0.804
h_scaling 1.000 -->
<g id="node6" class="node">
<title>key 36168
bias &#45;0.804
h_scaling 1.000</title>
<ellipse fill="white" stroke="black" cx="453" cy="-236.92" rx="63.78" ry="63.78"/>
<text text-anchor="middle" x="453" y="-244.72" font-family="Times,serif" font-size="9.00">key 36168</text>
<text text-anchor="middle" x="453" y="-234.72" font-family="Times,serif" font-size="9.00">bias &#45;0.804</text>
<text text-anchor="middle" x="453" y="-224.72" font-family="Times,serif" font-size="9.00">h_scaling 1.000</text>
</g>
<!-- key 36168
bias &#45;0.804
h_scaling 1.000&#45;&gt;key 4995
bias &#45;0.566
h_scaling 1.000 -->
<g id="edge7" class="edge">
<title>key 36168
bias &#45;0.804
h_scaling 1.000&#45;&gt;key 4995
bias &#45;0.566
h_scaling 1.000</title>
<path fill="none" stroke="red" stroke-width="0.92" d="M449.75,-300.54C448.34,-332.96 447,-373.2 447,-409.2 447,-1104.31 447,-1104.31 447,-1104.31 447,-1172.15 379.36,-1220.01 324.79,-1247.59"/>
<polygon fill="red" stroke="red" stroke-width="0.92" points="323.24,-1244.45 315.82,-1252 326.33,-1250.73 323.24,-1244.45"/>
<text text-anchor="middle" x="461" y="-754.56" font-family="Times,serif" font-size="9.00">0.273</text>
</g>
<!-- key 36168
bias &#45;0.804
h_scaling 1.000&#45;&gt;key 36168
bias &#45;0.804
h_scaling 1.000 -->
<g id="edge18" class="edge">
<title>key 36168
bias &#45;0.804
h_scaling 1.000&#45;&gt;key 36168
bias &#45;0.804
h_scaling 1.000</title>
<path fill="none" stroke="red" stroke-width="0.61" d="M514.94,-252.22C526.5,-250.33 534.64,-245.23 534.64,-236.92 534.64,-231.2 530.79,-227.01 524.63,-224.33"/>
<polygon fill="red" stroke="red" stroke-width="0.61" points="525.52,-220.94 514.94,-221.62 523.63,-227.68 525.52,-220.94"/>
<text text-anchor="middle" x="548.64" y="-234.72" font-family="Times,serif" font-size="9.00">0.169</text>
</g>
<!-- key 36042
bias &#45;0.307
h_scaling 1.000&#45;&gt;key 4995
bias &#45;0.566
h_scaling 1.000 -->
<g id="edge6" class="edge">
<title>key 36042
bias &#45;0.307
h_scaling 1.000&#45;&gt;key 4995
bias &#45;0.566
h_scaling 1.000</title>
<path fill="none" stroke="red" stroke-width="0.63" d="M193.86,-636.16C204.12,-653.51 214.11,-673.46 220,-693.12 234.26,-740.72 248.39,-1057.39 254.22,-1202.81"/>
<polygon fill="red" stroke="red" stroke-width="0.63" points="250.73,-1203.13 254.62,-1212.98 257.72,-1202.85 250.73,-1203.13"/>
<text text-anchor="middle" x="258" y="-927.84" font-family="Times,serif" font-size="9.00">0.175</text>
</g>
<!-- key 36042
bias &#45;0.307
h_scaling 1.000&#45;&gt;key 36042
bias &#45;0.307
h_scaling 1.000 -->
<g id="edge16" class="edge">
<title>key 36042
bias &#45;0.307
h_scaling 1.000&#45;&gt;key 36042
bias &#45;0.307
h_scaling 1.000</title>
<path fill="none" stroke="red" stroke-width="0.36" d="M219.94,-598.77C231.5,-596.89 239.64,-591.79 239.64,-583.48 239.64,-577.76 235.79,-573.56 229.63,-570.89"/>
<polygon fill="red" stroke="red" stroke-width="0.36" points="230.52,-567.5 219.94,-568.18 228.63,-574.24 230.52,-567.5"/>
<text text-anchor="middle" x="253.64" y="-581.28" font-family="Times,serif" font-size="9.00">0.088</text>
</g>
<!-- key 37631
bias &#45;0.228
h_scaling 1.000 -->
<g id="node11" class="node">
<title>key 37631
bias &#45;0.228
h_scaling 1.000</title>
<ellipse fill="white" stroke="black" cx="268" cy="-410.2" rx="63.78" ry="63.78"/>
<text text-anchor="middle" x="268" y="-418" font-family="Times,serif" font-size="9.00">key 37631</text>
<text text-anchor="middle" x="268" y="-408" font-family="Times,serif" font-size="9.00">bias &#45;0.228</text>
<text text-anchor="middle" x="268" y="-398" font-family="Times,serif" font-size="9.00">h_scaling 1.000</text>
</g>
<!-- key 36042
bias &#45;0.307
h_scaling 1.000&#45;&gt;key 37631
bias &#45;0.228
h_scaling 1.000 -->
<g id="edge8" class="edge">
<title>key 36042
bias &#45;0.307
h_scaling 1.000&#45;&gt;key 37631
bias &#45;0.228
h_scaling 1.000</title>
<path fill="none" stroke="red" stroke-width="3.09" d="M192.2,-529.22C203.69,-511.33 216.6,-491.24 228.46,-472.76"/>
<polygon fill="red" stroke="red" stroke-width="3.09" points="231.55,-474.43 234.01,-464.13 225.66,-470.65 231.55,-474.43"/>
<text text-anchor="middle" x="227" y="-494.64" font-family="Times,serif" font-size="9.00">0.996</text>
</g>
<!-- key 324524
bias 0.698
h_scaling 1.000 -->
<g id="node8" class="node">
<title>key 324524
bias 0.698
h_scaling 1.000</title>
<ellipse fill="white" stroke="black" cx="268" cy="-236.92" rx="63.78" ry="63.78"/>
<text text-anchor="middle" x="268" y="-244.72" font-family="Times,serif" font-size="9.00">key 324524</text>
<text text-anchor="middle" x="268" y="-234.72" font-family="Times,serif" font-size="9.00">bias 0.698</text>
<text text-anchor="middle" x="268" y="-224.72" font-family="Times,serif" font-size="9.00">h_scaling 1.000</text>
</g>
<!-- key 324524
bias 0.698
h_scaling 1.000&#45;&gt;key 236225
bias &#45;0.322
h_scaling 1.000 -->
<g id="edge23" class="edge">
<title>key 324524
bias 0.698
h_scaling 1.000&#45;&gt;key 236225
bias &#45;0.322
h_scaling 1.000</title>
<path fill="none" stroke="red" stroke-width="2.57" d="M284.7,-175.05C288.24,-162.18 291.99,-148.49 295.61,-135.29"/>
<polygon fill="red" stroke="red" stroke-width="2.57" points="299.08,-135.88 298.35,-125.31 292.33,-134.03 299.08,-135.88"/>
<text text-anchor="middle" x="305" y="-148.08" font-family="Times,serif" font-size="9.00">0.822</text>
</g>
<!-- key 86992
bias &#45;0.639
h_scaling 1.000&#45;&gt;output
bias &#45;0.979
h_scaling 1.000 -->
<g id="edge17" class="edge">
<title>key 86992
bias &#45;0.639
h_scaling 1.000&#45;&gt;output
bias &#45;0.979
h_scaling 1.000</title>
<path fill="none" stroke="red" stroke-width="3.1" d="M203.21,-1060.42C230.67,-1036.05 265.4,-1005.23 294.07,-979.78"/>
<polygon fill="red" stroke="red" stroke-width="3.1" points="296.45,-982.35 301.61,-973.1 291.8,-977.12 296.45,-982.35"/>
<text text-anchor="middle" x="266" y="-1014.48" font-family="Times,serif" font-size="9.00">1.000</text>
</g>
<!-- key 86992
bias &#45;0.639
h_scaling 1.000&#45;&gt;key 39930
bias &#45;0.606
h_scaling 1.000 -->
<g id="edge13" class="edge">
<title>key 86992
bias &#45;0.639
h_scaling 1.000&#45;&gt;key 39930
bias &#45;0.606
h_scaling 1.000</title>
<path fill="none" stroke="blue" stroke-width="2.19" d="M146.1,-1040.32C136.67,-981.22 122.47,-892.25 112.53,-829.98"/>
<polygon fill="blue" stroke="blue" stroke-width="2.19" points="115.94,-829.16 110.91,-819.84 109.03,-830.26 115.94,-829.16"/>
<text text-anchor="middle" x="154.5" y="-927.84" font-family="Times,serif" font-size="9.00">&#45;0.696</text>
</g>
<!-- key 39930
bias &#45;0.606
h_scaling 1.000&#45;&gt;key 36042
bias &#45;0.307
h_scaling 1.000 -->
<g id="edge11" class="edge">
<title>key 39930
bias &#45;0.606
h_scaling 1.000&#45;&gt;key 36042
bias &#45;0.307
h_scaling 1.000</title>
<path fill="none" stroke="red" stroke-width="2.2" d="M120.94,-695.85C125.47,-682.21 130.33,-667.61 134.99,-653.63"/>
<polygon fill="red" stroke="red" stroke-width="2.2" points="138.33,-654.65 138.17,-644.06 131.69,-652.44 138.33,-654.65"/>
<text text-anchor="middle" x="144" y="-667.92" font-family="Times,serif" font-size="9.00">0.701</text>
</g>
<!-- key 39930
bias &#45;0.606
h_scaling 1.000&#45;&gt;key 39930
bias &#45;0.606
h_scaling 1.000 -->
<g id="edge14" class="edge">
<title>key 39930
bias &#45;0.606
h_scaling 1.000&#45;&gt;key 39930
bias &#45;0.606
h_scaling 1.000</title>
<path fill="none" stroke="red" stroke-width="1.9" d="M162.94,-772.05C174.5,-770.17 182.64,-765.07 182.64,-756.76 182.64,-751.04 178.79,-746.84 172.63,-744.17"/>
<polygon fill="red" stroke="red" stroke-width="1.9" points="173.52,-740.78 162.94,-741.46 171.63,-747.52 173.52,-740.78"/>
<text text-anchor="middle" x="196.64" y="-754.56" font-family="Times,serif" font-size="9.00">0.600</text>
</g>
<!-- key 37631
bias &#45;0.228
h_scaling 1.000&#45;&gt;output
bias &#45;0.979
h_scaling 1.000 -->
<g id="edge19" class="edge">
<title>key 37631
bias &#45;0.228
h_scaling 1.000&#45;&gt;output
bias &#45;0.979
h_scaling 1.000</title>
<path fill="none" stroke="blue" stroke-width="0.46" d="M277.7,-473.22C292.79,-569.65 321.78,-755.04 337.76,-857.17"/>
<polygon fill="blue" stroke="blue" stroke-width="0.46" points="334.31,-857.75 339.31,-867.09 341.22,-856.67 334.31,-857.75"/>
<text text-anchor="middle" x="323.5" y="-667.92" font-family="Times,serif" font-size="9.00">&#45;0.119</text>
</g>
<!-- key 37631
bias &#45;0.228
h_scaling 1.000&#45;&gt;key 36168
bias &#45;0.804
h_scaling 1.000 -->
<g id="edge9" class="edge">
<title>key 37631
bias &#45;0.228
h_scaling 1.000&#45;&gt;key 36168
bias &#45;0.804
h_scaling 1.000</title>
<path fill="none" stroke="red" stroke-width="3.09" d="M314.21,-366.42C340.03,-342.51 372.34,-312.59 399.29,-287.64"/>
<polygon fill="red" stroke="red" stroke-width="3.09" points="401.78,-290.11 406.74,-280.75 397.03,-284.97 401.78,-290.11"/>
<text text-anchor="middle" x="374" y="-321.36" font-family="Times,serif" font-size="9.00">0.996</text>
</g>
<!-- key 37631
bias &#45;0.228
h_scaling 1.000&#45;&gt;key 324524
bias 0.698
h_scaling 1.000 -->
<g id="edge22" class="edge">
<title>key 37631
bias &#45;0.228
h_scaling 1.000&#45;&gt;key 324524
bias 0.698
h_scaling 1.000</title>
<path fill="none" stroke="red" stroke-width="0.4" d="M268,-346.39C268,-334.87 268,-322.76 268,-310.97"/>
<polygon fill="red" stroke="red" stroke-width="0.4" points="271.5,-310.72 268,-300.72 264.5,-310.72 271.5,-310.72"/>
<text text-anchor="middle" x="282" y="-321.36" font-family="Times,serif" font-size="9.00">0.098</text>
</g>
</g>
</svg>
