<?xml version="1.0" encoding="UTF-8" standalone="no"?>
<!DOCTYPE svg PUBLIC "-//W3C//DTD SVG 1.1//EN"
 "http://www.w3.org/Graphics/SVG/1.1/DTD/svg11.dtd">
<!-- Generated by graphviz version 2.43.0 (0)
 -->
<!-- Title: %3 Pages: 1 -->
<svg width="585pt" height="1596pt"
 viewBox="0.00 0.00 585.00 1595.51" xmlns="http://www.w3.org/2000/svg" xmlns:xlink="http://www.w3.org/1999/xlink">
<g id="graph0" class="graph" transform="scale(1 1) rotate(0) translate(4 1591.51)">
<title>%3</title>
<polygon fill="white" stroke="transparent" points="-4,4 -4,-1591.51 581,-1591.51 581,4 -4,4"/>
<!-- ready
output 0.000 -->
<g id="node1" class="node">
<title>ready
output 0.000</title>
<polygon fill="yellow" stroke="black" points="196.5,-1587.51 119.5,-1587.51 119.5,-1559.51 196.5,-1559.51 196.5,-1587.51"/>
<text text-anchor="middle" x="158" y="-1576.31" font-family="Times,serif" font-size="9.00">ready</text>
<text text-anchor="middle" x="158" y="-1566.31" font-family="Times,serif" font-size="9.00">output 0.000</text>
</g>
<!-- key 6528
bias 1.000
h_scaling 0.881
output 0.881 -->
<g id="node4" class="node">
<title>key 6528
bias 1.000
h_scaling 0.881
output 0.881</title>
<ellipse fill="white" stroke="black" cx="370" cy="-1449.87" rx="63.78" ry="63.78"/>
<text text-anchor="middle" x="370" y="-1462.67" font-family="Times,serif" font-size="9.00">key 6528</text>
<text text-anchor="middle" x="370" y="-1452.67" font-family="Times,serif" font-size="9.00">bias 1.000</text>
<text text-anchor="middle" x="370" y="-1442.67" font-family="Times,serif" font-size="9.00">h_scaling 0.881</text>
<text text-anchor="middle" x="370" y="-1432.67" font-family="Times,serif" font-size="9.00">output 0.881</text>
</g>
<!-- ready
output 0.000&#45;&gt;key 6528
bias 1.000
h_scaling 0.881
output 0.881 -->
<g id="edge4" class="edge">
<title>ready
output 0.000&#45;&gt;key 6528
bias 1.000
h_scaling 0.881
output 0.881</title>
<path fill="none" stroke="blue" stroke-width="0.1" d="M180.69,-1559.5C210.41,-1542.44 263.72,-1511.85 306.22,-1487.47"/>
<polygon fill="blue" stroke="blue" stroke-width="0.1" points="308.18,-1490.38 315.11,-1482.37 304.7,-1484.31 308.18,-1490.38"/>
<text text-anchor="middle" x="241.5" y="-1534.31" font-family="Times,serif" font-size="9.00">&#45;0.624</text>
</g>
<!-- key 7195
bias 0.295
h_scaling 0.613
output 0.751 -->
<g id="node10" class="node">
<title>key 7195
bias 0.295
h_scaling 0.613
output 0.751</title>
<ellipse fill="white" stroke="black" cx="158" cy="-1103.31" rx="63.78" ry="63.78"/>
<text text-anchor="middle" x="158" y="-1116.11" font-family="Times,serif" font-size="9.00">key 7195</text>
<text text-anchor="middle" x="158" y="-1106.11" font-family="Times,serif" font-size="9.00">bias 0.295</text>
<text text-anchor="middle" x="158" y="-1096.11" font-family="Times,serif" font-size="9.00">h_scaling 0.613</text>
<text text-anchor="middle" x="158" y="-1086.11" font-family="Times,serif" font-size="9.00">output 0.751</text>
</g>
<!-- ready
output 0.000&#45;&gt;key 7195
bias 0.295
h_scaling 0.613
output 0.751 -->
<g id="edge12" class="edge">
<title>ready
output 0.000&#45;&gt;key 7195
bias 0.295
h_scaling 0.613
output 0.751</title>
<path fill="none" stroke="blue" stroke-width="0.1" d="M158,-1559.5C158,-1504.81 158,-1291.1 158,-1177.02"/>
<polygon fill="blue" stroke="blue" stroke-width="0.1" points="161.5,-1176.97 158,-1166.97 154.5,-1176.97 161.5,-1176.97"/>
<text text-anchor="middle" x="173.5" y="-1361.03" font-family="Times,serif" font-size="9.00">&#45;0.310</text>
</g>
<!-- key 7998
bias 0.949
h_scaling 1.000
output 0.440 -->
<g id="node12" class="node">
<title>key 7998
bias 0.949
h_scaling 1.000
output 0.440</title>
<ellipse fill="white" stroke="black" cx="209" cy="-236.92" rx="63.78" ry="63.78"/>
<text text-anchor="middle" x="209" y="-249.72" font-family="Times,serif" font-size="9.00">key 7998</text>
<text text-anchor="middle" x="209" y="-239.72" font-family="Times,serif" font-size="9.00">bias 0.949</text>
<text text-anchor="middle" x="209" y="-229.72" font-family="Times,serif" font-size="9.00">h_scaling 1.000</text>
<text text-anchor="middle" x="209" y="-219.72" font-family="Times,serif" font-size="9.00">output 0.440</text>
</g>
<!-- ready
output 0.000&#45;&gt;key 7998
bias 0.949
h_scaling 1.000
output 0.440 -->
<g id="edge5" class="edge">
<title>ready
output 0.000&#45;&gt;key 7998
bias 0.949
h_scaling 1.000
output 0.440</title>
<path fill="none" stroke="red" stroke-width="0.1" d="M119.35,-1561.47C72.57,-1545.46 0,-1510.94 0,-1450.87 0,-1450.87 0,-1450.87 0,-409.2 0,-335.61 78.47,-287.9 139.24,-261.98"/>
<polygon fill="red" stroke="red" stroke-width="0.1" points="140.93,-265.07 148.83,-258 138.25,-258.6 140.93,-265.07"/>
<text text-anchor="middle" x="14" y="-927.84" font-family="Times,serif" font-size="9.00">0.616</text>
</g>
<!-- go
output 1.000 -->
<g id="node2" class="node">
<title>go
output 1.000</title>
<polygon fill="green" stroke="black" points="538.5,-1587.51 461.5,-1587.51 461.5,-1559.51 538.5,-1559.51 538.5,-1587.51"/>
<text text-anchor="middle" x="500" y="-1576.31" font-family="Times,serif" font-size="9.00">go</text>
<text text-anchor="middle" x="500" y="-1566.31" font-family="Times,serif" font-size="9.00">output 1.000</text>
</g>
<!-- go
output 1.000&#45;&gt;key 6528
bias 1.000
h_scaling 0.881
output 0.881 -->
<g id="edge9" class="edge">
<title>go
output 1.000&#45;&gt;key 6528
bias 1.000
h_scaling 0.881
output 0.881</title>
<path fill="none" stroke="red" stroke-width="0.1" d="M480.67,-1559.26C473.36,-1553.99 465.1,-1547.71 458,-1541.51 445.02,-1530.17 431.72,-1517.26 419.51,-1504.8"/>
<polygon fill="red" stroke="red" stroke-width="0.1" points="421.94,-1502.27 412.47,-1497.53 416.92,-1507.15 421.94,-1502.27"/>
<text text-anchor="middle" x="472" y="-1534.31" font-family="Times,serif" font-size="9.00">1.128</text>
</g>
<!-- key 757
bias 0.729
h_scaling 0.933
output 0.805 -->
<g id="node8" class="node">
<title>key 757
bias 0.729
h_scaling 0.933
output 0.805</title>
<ellipse fill="white" stroke="black" cx="370" cy="-410.2" rx="63.78" ry="63.78"/>
<text text-anchor="middle" x="370" y="-423" font-family="Times,serif" font-size="9.00">key 757</text>
<text text-anchor="middle" x="370" y="-413" font-family="Times,serif" font-size="9.00">bias 0.729</text>
<text text-anchor="middle" x="370" y="-403" font-family="Times,serif" font-size="9.00">h_scaling 0.933</text>
<text text-anchor="middle" x="370" y="-393" font-family="Times,serif" font-size="9.00">output 0.805</text>
</g>
<!-- go
output 1.000&#45;&gt;key 757
bias 0.729
h_scaling 0.933
output 0.805 -->
<g id="edge1" class="edge">
<title>go
output 1.000&#45;&gt;key 757
bias 0.729
h_scaling 0.933
output 0.805</title>
<path fill="none" stroke="red" stroke-width="0.1" d="M500,-1559.37C500,-1537.07 500,-1490.36 500,-1450.87 500,-1450.87 500,-1450.87 500,-1015.68 500,-859.51 510.25,-817.48 476,-665.12 460.89,-597.91 447.58,-583.8 422,-519.84 416.3,-505.58 409.59,-490.57 402.92,-476.4"/>
<polygon fill="red" stroke="red" stroke-width="0.1" points="406.02,-474.76 398.56,-467.23 399.7,-477.77 406.02,-474.76"/>
<text text-anchor="middle" x="514" y="-1014.48" font-family="Times,serif" font-size="9.00">0.985</text>
</g>
<!-- go
output 1.000&#45;&gt;key 7998
bias 0.949
h_scaling 1.000
output 0.440 -->
<g id="edge10" class="edge">
<title>go
output 1.000&#45;&gt;key 7998
bias 0.949
h_scaling 1.000
output 0.440</title>
<path fill="none" stroke="blue" stroke-width="0.1" d="M508.65,-1559.27C521.98,-1537.57 546,-1492.64 546,-1450.87 546,-1450.87 546,-1450.87 546,-1015.68 546,-714.79 559.79,-623.85 443,-346.56 437.06,-332.46 435.67,-327.12 423,-318.56 394.96,-299.6 381.03,-311.52 349,-300.56 324.31,-292.11 298.01,-280.95 274.95,-270.4"/>
<polygon fill="blue" stroke="blue" stroke-width="0.1" points="276.16,-267.1 265.61,-266.07 273.22,-273.45 276.16,-267.1"/>
<text text-anchor="middle" x="561.5" y="-927.84" font-family="Times,serif" font-size="9.00">&#45;0.552</text>
</g>
<!-- output
bias 1.000
h_scaling 0.047
output 0.790 -->
<g id="node3" class="node">
<title>output
bias 1.000
h_scaling 0.047
output 0.790</title>
<ellipse fill="lightblue" stroke="black" cx="370" cy="-1276.59" rx="63.78" ry="63.78"/>
<text text-anchor="middle" x="370" y="-1289.39" font-family="Times,serif" font-size="9.00">output</text>
<text text-anchor="middle" x="370" y="-1279.39" font-family="Times,serif" font-size="9.00">bias 1.000</text>
<text text-anchor="middle" x="370" y="-1269.39" font-family="Times,serif" font-size="9.00">h_scaling 0.047</text>
<text text-anchor="middle" x="370" y="-1259.39" font-family="Times,serif" font-size="9.00">output 0.790</text>
</g>
<!-- output
bias 1.000
h_scaling 0.047
output 0.790&#45;&gt;key 7195
bias 0.295
h_scaling 0.613
output 0.751 -->
<g id="edge15" class="edge">
<title>output
bias 1.000
h_scaling 0.047
output 0.790&#45;&gt;key 7195
bias 0.295
h_scaling 0.613
output 0.751</title>
<path fill="none" stroke="red" stroke-width="0.1" d="M320.83,-1235.87C289.37,-1210.45 248.43,-1177.37 215.47,-1150.74"/>
<polygon fill="red" stroke="red" stroke-width="0.1" points="217.25,-1147.68 207.27,-1144.12 212.85,-1153.13 217.25,-1147.68"/>
<text text-anchor="middle" x="278" y="-1187.75" font-family="Times,serif" font-size="9.00">0.185</text>
</g>
<!-- key 6528
bias 1.000
h_scaling 0.881
output 0.881&#45;&gt;output
bias 1.000
h_scaling 0.047
output 0.790 -->
<g id="edge3" class="edge">
<title>key 6528
bias 1.000
h_scaling 0.881
output 0.881&#45;&gt;output
bias 1.000
h_scaling 0.047
output 0.790</title>
<path fill="none" stroke="blue" stroke-width="0.1" d="M370,-1386.07C370,-1374.55 370,-1362.43 370,-1350.65"/>
<polygon fill="blue" stroke="blue" stroke-width="0.1" points="373.5,-1350.39 370,-1340.39 366.5,-1350.39 373.5,-1350.39"/>
<text text-anchor="middle" x="385.5" y="-1361.03" font-family="Times,serif" font-size="9.00">&#45;1.000</text>
</g>
<!-- key 17571
bias &#45;0.947
h_scaling 0.611
output 0.257 -->
<g id="node5" class="node">
<title>key 17571
bias &#45;0.947
h_scaling 0.611
output 0.257</title>
<ellipse fill="white" stroke="black" cx="422" cy="-236.92" rx="63.78" ry="63.78"/>
<text text-anchor="middle" x="422" y="-249.72" font-family="Times,serif" font-size="9.00">key 17571</text>
<text text-anchor="middle" x="422" y="-239.72" font-family="Times,serif" font-size="9.00">bias &#45;0.947</text>
<text text-anchor="middle" x="422" y="-229.72" font-family="Times,serif" font-size="9.00">h_scaling 0.611</text>
<text text-anchor="middle" x="422" y="-219.72" font-family="Times,serif" font-size="9.00">output 0.257</text>
</g>
<!-- key 17571
bias &#45;0.947
h_scaling 0.611
output 0.257&#45;&gt;key 6528
bias 1.000
h_scaling 0.881
output 0.881 -->
<g id="edge14" class="edge">
<title>key 17571
bias &#45;0.947
h_scaling 0.611
output 0.257&#45;&gt;key 6528
bias 1.000
h_scaling 0.881
output 0.881</title>
<path fill="none" stroke="red" stroke-width="0.1" d="M442.94,-297.37C452.62,-329.96 462,-371.33 462,-409.2 462,-1277.59 462,-1277.59 462,-1277.59 462,-1319.73 440.12,-1361.51 417.7,-1393.25"/>
<polygon fill="red" stroke="red" stroke-width="0.1" points="414.74,-1391.37 411.69,-1401.51 420.4,-1395.48 414.74,-1391.37"/>
<text text-anchor="middle" x="476" y="-841.2" font-family="Times,serif" font-size="9.00">0.430</text>
</g>
<!-- key 263747
bias 0.656
h_scaling 0.862
output 0.999 -->
<g id="node6" class="node">
<title>key 263747
bias 0.656
h_scaling 0.862
output 0.999</title>
<ellipse fill="white" stroke="black" cx="186" cy="-756.76" rx="63.78" ry="63.78"/>
<text text-anchor="middle" x="186" y="-769.56" font-family="Times,serif" font-size="9.00">key 263747</text>
<text text-anchor="middle" x="186" y="-759.56" font-family="Times,serif" font-size="9.00">bias 0.656</text>
<text text-anchor="middle" x="186" y="-749.56" font-family="Times,serif" font-size="9.00">h_scaling 0.862</text>
<text text-anchor="middle" x="186" y="-739.56" font-family="Times,serif" font-size="9.00">output 0.999</text>
</g>
<!-- key 11676
bias 0.351
h_scaling 0.261
output 0.751 -->
<g id="node9" class="node">
<title>key 11676
bias 0.351
h_scaling 0.261
output 0.751</title>
<ellipse fill="white" stroke="black" cx="316" cy="-583.48" rx="63.78" ry="63.78"/>
<text text-anchor="middle" x="316" y="-596.28" font-family="Times,serif" font-size="9.00">key 11676</text>
<text text-anchor="middle" x="316" y="-586.28" font-family="Times,serif" font-size="9.00">bias 0.351</text>
<text text-anchor="middle" x="316" y="-576.28" font-family="Times,serif" font-size="9.00">h_scaling 0.261</text>
<text text-anchor="middle" x="316" y="-566.28" font-family="Times,serif" font-size="9.00">output 0.751</text>
</g>
<!-- key 263747
bias 0.656
h_scaling 0.862
output 0.999&#45;&gt;key 11676
bias 0.351
h_scaling 0.261
output 0.751 -->
<g id="edge21" class="edge">
<title>key 263747
bias 0.656
h_scaling 0.862
output 0.999&#45;&gt;key 11676
bias 0.351
h_scaling 0.261
output 0.751</title>
<path fill="none" stroke="blue" stroke-width="0.1" d="M224.3,-705.29C239.24,-685.61 256.47,-662.92 271.92,-642.55"/>
<polygon fill="blue" stroke="blue" stroke-width="0.1" points="274.71,-644.66 277.97,-634.58 269.14,-640.43 274.71,-644.66"/>
<text text-anchor="middle" x="266.5" y="-667.92" font-family="Times,serif" font-size="9.00">&#45;0.043</text>
</g>
<!-- key 15337
bias 0.439
h_scaling 0.653
output 0.911 -->
<g id="node7" class="node">
<title>key 15337
bias 0.439
h_scaling 0.653
output 0.911</title>
<ellipse fill="white" stroke="black" cx="158" cy="-930.04" rx="63.78" ry="63.78"/>
<text text-anchor="middle" x="158" y="-942.84" font-family="Times,serif" font-size="9.00">key 15337</text>
<text text-anchor="middle" x="158" y="-932.84" font-family="Times,serif" font-size="9.00">bias 0.439</text>
<text text-anchor="middle" x="158" y="-922.84" font-family="Times,serif" font-size="9.00">h_scaling 0.653</text>
<text text-anchor="middle" x="158" y="-912.84" font-family="Times,serif" font-size="9.00">output 0.911</text>
</g>
<!-- key 15337
bias 0.439
h_scaling 0.653
output 0.911&#45;&gt;key 263747
bias 0.656
h_scaling 0.862
output 0.999 -->
<g id="edge20" class="edge">
<title>key 15337
bias 0.439
h_scaling 0.653
output 0.911&#45;&gt;key 263747
bias 0.656
h_scaling 0.862
output 0.999</title>
<path fill="none" stroke="red" stroke-width="0.1" d="M168.11,-867.2C170.1,-855.03 172.2,-842.16 174.24,-829.68"/>
<polygon fill="red" stroke="red" stroke-width="0.1" points="177.7,-830.22 175.86,-819.79 170.79,-829.09 177.7,-830.22"/>
<text text-anchor="middle" x="186" y="-841.2" font-family="Times,serif" font-size="9.00">1.437</text>
</g>
<!-- key 62396
bias &#45;0.901
h_scaling 0.181
output 0.227 -->
<g id="node11" class="node">
<title>key 62396
bias &#45;0.901
h_scaling 0.181
output 0.227</title>
<ellipse fill="white" stroke="black" cx="118" cy="-63.64" rx="63.78" ry="63.78"/>
<text text-anchor="middle" x="118" y="-76.44" font-family="Times,serif" font-size="9.00">key 62396</text>
<text text-anchor="middle" x="118" y="-66.44" font-family="Times,serif" font-size="9.00">bias &#45;0.901</text>
<text text-anchor="middle" x="118" y="-56.44" font-family="Times,serif" font-size="9.00">h_scaling 0.181</text>
<text text-anchor="middle" x="118" y="-46.44" font-family="Times,serif" font-size="9.00">output 0.227</text>
</g>
<!-- key 15337
bias 0.439
h_scaling 0.653
output 0.911&#45;&gt;key 62396
bias &#45;0.901
h_scaling 0.181
output 0.227 -->
<g id="edge17" class="edge">
<title>key 15337
bias 0.439
h_scaling 0.653
output 0.911&#45;&gt;key 62396
bias &#45;0.901
h_scaling 0.181
output 0.227</title>
<path fill="none" stroke="red" stroke-width="0.1" d="M130.24,-872.45C123.38,-856.04 116.89,-837.83 113,-820.4 90.13,-717.95 102,-689.44 102,-584.48 102,-584.48 102,-584.48 102,-235.92 102,-203.32 104.91,-167.38 108.25,-136.87"/>
<polygon fill="red" stroke="red" stroke-width="0.1" points="111.75,-137.08 109.39,-126.75 104.79,-136.29 111.75,-137.08"/>
<text text-anchor="middle" x="116" y="-494.64" font-family="Times,serif" font-size="9.00">0.670</text>
</g>
<!-- key 757
bias 0.729
h_scaling 0.933
output 0.805&#45;&gt;output
bias 1.000
h_scaling 0.047
output 0.790 -->
<g id="edge2" class="edge">
<title>key 757
bias 0.729
h_scaling 0.933
output 0.805&#45;&gt;output
bias 1.000
h_scaling 0.047
output 0.790</title>
<path fill="none" stroke="blue" stroke-width="0.1" d="M389.89,-470.73C399.08,-503.34 408,-544.71 408,-582.48 408,-1104.31 408,-1104.31 408,-1104.31 408,-1138.4 400.74,-1175.4 392.57,-1206.27"/>
<polygon fill="blue" stroke="blue" stroke-width="0.1" points="389.15,-1205.5 389.89,-1216.07 395.9,-1207.34 389.15,-1205.5"/>
<text text-anchor="middle" x="423.5" y="-841.2" font-family="Times,serif" font-size="9.00">&#45;0.980</text>
</g>
<!-- key 757
bias 0.729
h_scaling 0.933
output 0.805&#45;&gt;key 17571
bias &#45;0.947
h_scaling 0.611
output 0.257 -->
<g id="edge13" class="edge">
<title>key 757
bias 0.729
h_scaling 0.933
output 0.805&#45;&gt;key 17571
bias &#45;0.947
h_scaling 0.611
output 0.257</title>
<path fill="none" stroke="red" stroke-width="0.1" d="M388.33,-348.81C392.36,-335.56 396.65,-321.42 400.78,-307.83"/>
<polygon fill="red" stroke="red" stroke-width="0.1" points="404.19,-308.63 403.74,-298.05 397.49,-306.6 404.19,-308.63"/>
<text text-anchor="middle" x="410" y="-321.36" font-family="Times,serif" font-size="9.00">0.053</text>
</g>
<!-- key 757
bias 0.729
h_scaling 0.933
output 0.805&#45;&gt;key 7998
bias 0.949
h_scaling 1.000
output 0.440 -->
<g id="edge8" class="edge">
<title>key 757
bias 0.729
h_scaling 0.933
output 0.805&#45;&gt;key 7998
bias 0.949
h_scaling 1.000
output 0.440</title>
<path fill="none" stroke="red" stroke-width="0.1" d="M326.85,-363.3C306.01,-341.12 280.87,-314.38 259.18,-291.3"/>
<polygon fill="red" stroke="red" stroke-width="0.1" points="261.66,-288.83 252.26,-283.95 256.56,-293.63 261.66,-288.83"/>
<text text-anchor="middle" x="303" y="-321.36" font-family="Times,serif" font-size="9.00">0.241</text>
</g>
<!-- key 11676
bias 0.351
h_scaling 0.261
output 0.751&#45;&gt;output
bias 1.000
h_scaling 0.047
output 0.790 -->
<g id="edge16" class="edge">
<title>key 11676
bias 0.351
h_scaling 0.261
output 0.751&#45;&gt;output
bias 1.000
h_scaling 0.047
output 0.790</title>
<path fill="none" stroke="red" stroke-width="0.1" d="M328.84,-646.02C334.55,-678.51 340,-719.12 340,-755.76 340,-1104.31 340,-1104.31 340,-1104.31 340,-1137.54 345.54,-1173.85 351.87,-1204.46"/>
<polygon fill="red" stroke="red" stroke-width="0.1" points="348.52,-1205.56 354.03,-1214.61 355.37,-1204.1 348.52,-1205.56"/>
<text text-anchor="middle" x="354" y="-927.84" font-family="Times,serif" font-size="9.00">0.273</text>
</g>
<!-- key 11676
bias 0.351
h_scaling 0.261
output 0.751&#45;&gt;key 757
bias 0.729
h_scaling 0.933
output 0.805 -->
<g id="edge11" class="edge">
<title>key 11676
bias 0.351
h_scaling 0.261
output 0.751&#45;&gt;key 757
bias 0.729
h_scaling 0.933
output 0.805</title>
<path fill="none" stroke="blue" stroke-width="0.1" d="M334.89,-522.57C339.12,-509.14 343.65,-494.78 348,-480.99"/>
<polygon fill="blue" stroke="blue" stroke-width="0.1" points="351.46,-481.66 351.12,-471.07 344.78,-479.55 351.46,-481.66"/>
<text text-anchor="middle" x="358.5" y="-494.64" font-family="Times,serif" font-size="9.00">&#45;0.776</text>
</g>
<!-- key 7195
bias 0.295
h_scaling 0.613
output 0.751&#45;&gt;key 15337
bias 0.439
h_scaling 0.653
output 0.911 -->
<g id="edge18" class="edge">
<title>key 7195
bias 0.295
h_scaling 0.613
output 0.751&#45;&gt;key 15337
bias 0.439
h_scaling 0.653
output 0.911</title>
<path fill="none" stroke="red" stroke-width="0.1" d="M158,-1039.51C158,-1027.99 158,-1015.88 158,-1004.09"/>
<polygon fill="red" stroke="red" stroke-width="0.1" points="161.5,-1003.83 158,-993.83 154.5,-1003.83 161.5,-1003.83"/>
<text text-anchor="middle" x="172" y="-1014.48" font-family="Times,serif" font-size="9.00">0.347</text>
</g>
<!-- key 7195
bias 0.295
h_scaling 0.613
output 0.751&#45;&gt;key 7998
bias 0.949
h_scaling 1.000
output 0.440 -->
<g id="edge7" class="edge">
<title>key 7195
bias 0.295
h_scaling 0.613
output 0.751&#45;&gt;key 7998
bias 0.949
h_scaling 1.000
output 0.440</title>
<path fill="none" stroke="blue" stroke-width="0.1" d="M117.47,-1053.89C104.78,-1036.05 92.23,-1014.98 85,-993.68 13.32,-782.46 18.74,-706.31 80,-491.84 99.86,-422.32 139.11,-349.38 169.13,-299.6"/>
<polygon fill="blue" stroke="blue" stroke-width="0.1" points="172.22,-301.25 174.43,-290.89 166.25,-297.61 172.22,-301.25"/>
<text text-anchor="middle" x="54.5" y="-667.92" font-family="Times,serif" font-size="9.00">&#45;0.653</text>
</g>
<!-- key 7998
bias 0.949
h_scaling 1.000
output 0.440&#45;&gt;key 6528
bias 1.000
h_scaling 0.881
output 0.881 -->
<g id="edge6" class="edge">
<title>key 7998
bias 0.949
h_scaling 1.000
output 0.440&#45;&gt;key 6528
bias 1.000
h_scaling 0.881
output 0.881</title>
<path fill="none" stroke="blue" stroke-width="0.1" d="M213.07,-300.77C218.53,-381.2 229.19,-524.75 243,-647.12 244.41,-659.61 242.51,-663.37 247,-675.12 250.43,-684.1 255.64,-684.11 259,-693.12 282.39,-755.77 278,-775.51 278,-842.4 278,-1277.59 278,-1277.59 278,-1277.59 278,-1319.73 299.88,-1361.51 322.3,-1393.25"/>
<polygon fill="blue" stroke="blue" stroke-width="0.1" points="319.6,-1395.48 328.31,-1401.51 325.26,-1391.37 319.6,-1395.48"/>
<text text-anchor="middle" x="293.5" y="-841.2" font-family="Times,serif" font-size="9.00">&#45;0.833</text>
</g>
<!-- key 7998
bias 0.949
h_scaling 1.000
output 0.440&#45;&gt;key 62396
bias &#45;0.901
h_scaling 0.181
output 0.227 -->
<g id="edge19" class="edge">
<title>key 7998
bias 0.949
h_scaling 1.000
output 0.440&#45;&gt;key 62396
bias &#45;0.901
h_scaling 0.181
output 0.227</title>
<path fill="none" stroke="blue" stroke-width="0.1" d="M179.45,-180.31C170.83,-164.07 161.33,-146.19 152.43,-129.44"/>
<polygon fill="blue" stroke="blue" stroke-width="0.1" points="155.34,-127.45 147.55,-120.26 149.15,-130.74 155.34,-127.45"/>
<text text-anchor="middle" x="179.5" y="-148.08" font-family="Times,serif" font-size="9.00">&#45;0.224</text>
</g>
</g>
</svg>
