<?xml version="1.0" encoding="UTF-8" standalone="no"?>
<!DOCTYPE svg PUBLIC "-//W3C//DTD SVG 1.1//EN"
 "http://www.w3.org/Graphics/SVG/1.1/DTD/svg11.dtd">
<!-- Generated by graphviz version 2.43.0 (0)
 -->
<!-- Title: %3 Pages: 1 -->
<svg width="403pt" height="729pt"
 viewBox="0.00 0.00 403.00 729.12" xmlns="http://www.w3.org/2000/svg" xmlns:xlink="http://www.w3.org/1999/xlink">
<g id="graph0" class="graph" transform="scale(1 1) rotate(0) translate(4 725.12)">
<title>%3</title>
<polygon fill="white" stroke="transparent" points="-4,4 -4,-725.12 399,-725.12 399,4 -4,4"/>
<!-- ready
output 1.000 -->
<g id="node1" class="node">
<title>ready
output 1.000</title>
<polygon fill="yellow" stroke="black" points="196.5,-721.12 119.5,-721.12 119.5,-693.12 196.5,-693.12 196.5,-721.12"/>
<text text-anchor="middle" x="158" y="-709.92" font-family="Times,serif" font-size="9.00">ready</text>
<text text-anchor="middle" x="158" y="-699.92" font-family="Times,serif" font-size="9.00">output 1.000</text>
</g>
<!-- key 24569
bias &#45;1.000
h_scaling 0.643
output 0.810 -->
<g id="node4" class="node">
<title>key 24569
bias &#45;1.000
h_scaling 0.643
output 0.810</title>
<ellipse fill="white" stroke="black" cx="213" cy="-583.48" rx="63.78" ry="63.78"/>
<text text-anchor="middle" x="213" y="-596.28" font-family="Times,serif" font-size="9.00">key 24569</text>
<text text-anchor="middle" x="213" y="-586.28" font-family="Times,serif" font-size="9.00">bias &#45;1.000</text>
<text text-anchor="middle" x="213" y="-576.28" font-family="Times,serif" font-size="9.00">h_scaling 0.643</text>
<text text-anchor="middle" x="213" y="-566.28" font-family="Times,serif" font-size="9.00">output 0.810</text>
</g>
<!-- ready
output 1.000&#45;&gt;key 24569
bias &#45;1.000
h_scaling 0.643
output 0.810 -->
<g id="edge12" class="edge">
<title>ready
output 1.000&#45;&gt;key 24569
bias &#45;1.000
h_scaling 0.643
output 0.810</title>
<path fill="none" stroke="blue" stroke-width="0.1" d="M163.89,-693.1C168.59,-682.7 175.57,-667.26 182.8,-651.27"/>
<polygon fill="blue" stroke="blue" stroke-width="0.1" points="186.14,-652.37 187.07,-641.82 179.76,-649.49 186.14,-652.37"/>
<text text-anchor="middle" x="191.5" y="-667.92" font-family="Times,serif" font-size="9.00">&#45;0.454</text>
</g>
<!-- key 118359
bias &#45;0.442
h_scaling 0.594
output 0.313 -->
<g id="node6" class="node">
<title>key 118359
bias &#45;0.442
h_scaling 0.594
output 0.313</title>
<ellipse fill="white" stroke="black" cx="160" cy="-236.92" rx="63.78" ry="63.78"/>
<text text-anchor="middle" x="160" y="-249.72" font-family="Times,serif" font-size="9.00">key 118359</text>
<text text-anchor="middle" x="160" y="-239.72" font-family="Times,serif" font-size="9.00">bias &#45;0.442</text>
<text text-anchor="middle" x="160" y="-229.72" font-family="Times,serif" font-size="9.00">h_scaling 0.594</text>
<text text-anchor="middle" x="160" y="-219.72" font-family="Times,serif" font-size="9.00">output 0.313</text>
</g>
<!-- ready
output 1.000&#45;&gt;key 118359
bias &#45;0.442
h_scaling 0.594
output 0.313 -->
<g id="edge10" class="edge">
<title>ready
output 1.000&#45;&gt;key 118359
bias &#45;0.442
h_scaling 0.594
output 0.313</title>
<path fill="none" stroke="blue" stroke-width="0.1" d="M152.69,-692.79C148.3,-681 142.4,-663.22 140,-647.12 122.52,-529.95 136.25,-392.04 147.98,-309.96"/>
<polygon fill="blue" stroke="blue" stroke-width="0.1" points="151.46,-310.39 149.44,-299.99 144.53,-309.38 151.46,-310.39"/>
<text text-anchor="middle" x="148.5" y="-494.64" font-family="Times,serif" font-size="9.00">&#45;0.315</text>
</g>
<!-- go
output 0.000 -->
<g id="node2" class="node">
<title>go
output 0.000</title>
<polygon fill="green" stroke="black" points="94.5,-721.12 17.5,-721.12 17.5,-693.12 94.5,-693.12 94.5,-721.12"/>
<text text-anchor="middle" x="56" y="-709.92" font-family="Times,serif" font-size="9.00">go</text>
<text text-anchor="middle" x="56" y="-699.92" font-family="Times,serif" font-size="9.00">output 0.000</text>
</g>
<!-- go
output 0.000&#45;&gt;key 24569
bias &#45;1.000
h_scaling 0.643
output 0.810 -->
<g id="edge4" class="edge">
<title>go
output 0.000&#45;&gt;key 24569
bias &#45;1.000
h_scaling 0.643
output 0.810</title>
<path fill="none" stroke="red" stroke-width="0.1" d="M72.8,-693.1C92.32,-677.97 125.6,-652.19 154.84,-629.54"/>
<polygon fill="red" stroke="red" stroke-width="0.1" points="157.2,-632.14 162.96,-623.25 152.91,-626.6 157.2,-632.14"/>
<text text-anchor="middle" x="121" y="-667.92" font-family="Times,serif" font-size="9.00">0.887</text>
</g>
<!-- key 3542
bias &#45;0.654
h_scaling 0.581
output 0.477 -->
<g id="node5" class="node">
<title>key 3542
bias &#45;0.654
h_scaling 0.581
output 0.477</title>
<ellipse fill="white" stroke="black" cx="269" cy="-63.64" rx="63.78" ry="63.78"/>
<text text-anchor="middle" x="269" y="-76.44" font-family="Times,serif" font-size="9.00">key 3542</text>
<text text-anchor="middle" x="269" y="-66.44" font-family="Times,serif" font-size="9.00">bias &#45;0.654</text>
<text text-anchor="middle" x="269" y="-56.44" font-family="Times,serif" font-size="9.00">h_scaling 0.581</text>
<text text-anchor="middle" x="269" y="-46.44" font-family="Times,serif" font-size="9.00">output 0.477</text>
</g>
<!-- go
output 0.000&#45;&gt;key 3542
bias &#45;0.654
h_scaling 0.581
output 0.477 -->
<g id="edge1" class="edge">
<title>go
output 0.000&#45;&gt;key 3542
bias &#45;0.654
h_scaling 0.581
output 0.477</title>
<path fill="none" stroke="red" stroke-width="0.1" d="M45.2,-692.81C28.93,-671.38 0,-627.25 0,-584.48 0,-584.48 0,-584.48 0,-235.92 0,-142.61 116.6,-97.92 196.26,-78.28"/>
<polygon fill="red" stroke="red" stroke-width="0.1" points="197.35,-81.62 206.27,-75.9 195.73,-74.81 197.35,-81.62"/>
<text text-anchor="middle" x="14" y="-408" font-family="Times,serif" font-size="9.00">1.063</text>
</g>
<!-- go
output 0.000&#45;&gt;key 118359
bias &#45;0.442
h_scaling 0.594
output 0.313 -->
<g id="edge9" class="edge">
<title>go
output 0.000&#45;&gt;key 118359
bias &#45;0.442
h_scaling 0.594
output 0.313</title>
<path fill="none" stroke="red" stroke-width="0.1" d="M58.29,-692.97C66.57,-645.82 96.26,-480.85 129,-346.56 132.07,-333.95 135.63,-320.61 139.21,-307.75"/>
<polygon fill="red" stroke="red" stroke-width="0.1" points="142.6,-308.61 141.95,-298.03 135.87,-306.71 142.6,-308.61"/>
<text text-anchor="middle" x="111" y="-494.64" font-family="Times,serif" font-size="9.00">0.310</text>
</g>
<!-- output
bias 0.616
h_scaling 0.531
output 0.005 -->
<g id="node3" class="node">
<title>output
bias 0.616
h_scaling 0.531
output 0.005</title>
<ellipse fill="lightblue" stroke="black" cx="275" cy="-410.2" rx="63.78" ry="63.78"/>
<text text-anchor="middle" x="275" y="-423" font-family="Times,serif" font-size="9.00">output</text>
<text text-anchor="middle" x="275" y="-413" font-family="Times,serif" font-size="9.00">bias 0.616</text>
<text text-anchor="middle" x="275" y="-403" font-family="Times,serif" font-size="9.00">h_scaling 0.531</text>
<text text-anchor="middle" x="275" y="-393" font-family="Times,serif" font-size="9.00">output 0.005</text>
</g>
<!-- output
bias 0.616
h_scaling 0.531
output 0.005&#45;&gt;key 24569
bias &#45;1.000
h_scaling 0.643
output 0.810 -->
<g id="edge5" class="edge">
<title>output
bias 0.616
h_scaling 0.531
output 0.005&#45;&gt;key 24569
bias &#45;1.000
h_scaling 0.643
output 0.810</title>
<path fill="none" stroke="blue" stroke-width="0.1" d="M231.61,-457.2C223.97,-467.83 217.15,-479.63 213,-491.84 211.09,-497.47 209.74,-503.41 208.83,-509.46"/>
<polygon fill="blue" stroke="blue" stroke-width="0.1" points="205.32,-509.35 207.69,-519.68 212.27,-510.13 205.32,-509.35"/>
<text text-anchor="middle" x="228.5" y="-494.64" font-family="Times,serif" font-size="9.00">&#45;0.435</text>
</g>
<!-- output
bias 0.616
h_scaling 0.531
output 0.005&#45;&gt;key 118359
bias &#45;0.442
h_scaling 0.594
output 0.313 -->
<g id="edge6" class="edge">
<title>output
bias 0.616
h_scaling 0.531
output 0.005&#45;&gt;key 118359
bias &#45;0.442
h_scaling 0.594
output 0.313</title>
<path fill="none" stroke="red" stroke-width="0.1" d="M232.92,-361.85C224.26,-351.21 215.5,-339.75 208,-328.56 202.7,-320.65 197.53,-312.1 192.65,-303.51"/>
<polygon fill="red" stroke="red" stroke-width="0.1" points="195.6,-301.62 187.69,-294.57 189.49,-305.01 195.6,-301.62"/>
<text text-anchor="middle" x="222" y="-321.36" font-family="Times,serif" font-size="9.00">0.165</text>
</g>
<!-- key 24569
bias &#45;1.000
h_scaling 0.643
output 0.810&#45;&gt;output
bias 0.616
h_scaling 0.531
output 0.005 -->
<g id="edge3" class="edge">
<title>key 24569
bias &#45;1.000
h_scaling 0.643
output 0.810&#45;&gt;output
bias 0.616
h_scaling 0.531
output 0.005</title>
<path fill="none" stroke="blue" stroke-width="0.1" d="M238.9,-525.11C242.11,-517.35 245.23,-509.44 248,-501.84 250.34,-495.41 252.64,-488.68 254.84,-481.9"/>
<polygon fill="blue" stroke="blue" stroke-width="0.1" points="258.3,-482.58 257.99,-471.99 251.63,-480.46 258.3,-482.58"/>
<text text-anchor="middle" x="266.5" y="-494.64" font-family="Times,serif" font-size="9.00">&#45;0.998</text>
</g>
<!-- key 24569
bias &#45;1.000
h_scaling 0.643
output 0.810&#45;&gt;key 24569
bias &#45;1.000
h_scaling 0.643
output 0.810 -->
<g id="edge13" class="edge">
<title>key 24569
bias &#45;1.000
h_scaling 0.643
output 0.810&#45;&gt;key 24569
bias &#45;1.000
h_scaling 0.643
output 0.810</title>
<path fill="none" stroke="red" stroke-width="0.1" d="M274.94,-598.77C286.5,-596.89 294.64,-591.79 294.64,-583.48 294.64,-577.76 290.79,-573.56 284.63,-570.89"/>
<polygon fill="red" stroke="red" stroke-width="0.1" points="285.52,-567.5 274.94,-568.18 283.63,-574.24 285.52,-567.5"/>
<text text-anchor="middle" x="308.64" y="-581.28" font-family="Times,serif" font-size="9.00">0.940</text>
</g>
<!-- key 3542
bias &#45;0.654
h_scaling 0.581
output 0.477&#45;&gt;output
bias 0.616
h_scaling 0.531
output 0.005 -->
<g id="edge11" class="edge">
<title>key 3542
bias &#45;0.654
h_scaling 0.581
output 0.477&#45;&gt;output
bias 0.616
h_scaling 0.531
output 0.005</title>
<path fill="none" stroke="blue" stroke-width="0.1" d="M275.75,-127.19C277.1,-142.26 278.31,-158.33 279,-173.28 281.51,-227.99 280.31,-289.89 278.59,-336.56"/>
<polygon fill="blue" stroke="blue" stroke-width="0.1" points="275.09,-336.45 278.2,-346.58 282.08,-336.72 275.09,-336.45"/>
<text text-anchor="middle" x="295.5" y="-234.72" font-family="Times,serif" font-size="9.00">&#45;0.962</text>
</g>
<!-- key 3542
bias &#45;0.654
h_scaling 0.581
output 0.477&#45;&gt;key 24569
bias &#45;1.000
h_scaling 0.643
output 0.810 -->
<g id="edge2" class="edge">
<title>key 3542
bias &#45;0.654
h_scaling 0.581
output 0.477&#45;&gt;key 24569
bias &#45;1.000
h_scaling 0.643
output 0.810</title>
<path fill="none" stroke="red" stroke-width="0.1" d="M300.11,-119.35C341.82,-200.5 404.48,-355.89 348,-473.84 333.23,-504.69 304.95,-529.56 278.07,-547.69"/>
<polygon fill="red" stroke="red" stroke-width="0.1" points="275.88,-544.94 269.42,-553.33 279.7,-550.8 275.88,-544.94"/>
<text text-anchor="middle" x="381" y="-321.36" font-family="Times,serif" font-size="9.00">1.097</text>
</g>
<!-- key 118359
bias &#45;0.442
h_scaling 0.594
output 0.313&#45;&gt;output
bias 0.616
h_scaling 0.531
output 0.005 -->
<g id="edge15" class="edge">
<title>key 118359
bias &#45;0.442
h_scaling 0.594
output 0.313&#45;&gt;output
bias 0.616
h_scaling 0.531
output 0.005</title>
<path fill="none" stroke="blue" stroke-width="0.1" d="M206,-281.19C216.7,-292.68 227.45,-305.53 236,-318.56 240.6,-325.56 244.86,-333.19 248.75,-340.95"/>
<polygon fill="blue" stroke="blue" stroke-width="0.1" points="245.66,-342.6 253.14,-350.1 251.97,-339.57 245.66,-342.6"/>
<text text-anchor="middle" x="256.5" y="-321.36" font-family="Times,serif" font-size="9.00">&#45;0.489</text>
</g>
<!-- key 118359
bias &#45;0.442
h_scaling 0.594
output 0.313&#45;&gt;key 24569
bias &#45;1.000
h_scaling 0.643
output 0.810 -->
<g id="edge14" class="edge">
<title>key 118359
bias &#45;0.442
h_scaling 0.594
output 0.313&#45;&gt;key 24569
bias &#45;1.000
h_scaling 0.643
output 0.810</title>
<path fill="none" stroke="red" stroke-width="0.1" d="M158.89,-300.64C159.2,-348.54 162.15,-415.96 174,-473.84 176.77,-487.34 180.86,-501.44 185.37,-514.83"/>
<polygon fill="red" stroke="red" stroke-width="0.1" points="182.12,-516.14 188.72,-524.43 188.74,-513.84 182.12,-516.14"/>
<text text-anchor="middle" x="188" y="-408" font-family="Times,serif" font-size="9.00">1.106</text>
</g>
<!-- key 118359
bias &#45;0.442
h_scaling 0.594
output 0.313&#45;&gt;key 3542
bias &#45;0.654
h_scaling 0.581
output 0.477 -->
<g id="edge7" class="edge">
<title>key 118359
bias &#45;0.442
h_scaling 0.594
output 0.313&#45;&gt;key 3542
bias &#45;0.654
h_scaling 0.581
output 0.477</title>
<path fill="none" stroke="red" stroke-width="0.1" d="M193.89,-182.66C205.17,-164.94 217.83,-145.05 229.49,-126.72"/>
<polygon fill="red" stroke="red" stroke-width="0.1" points="232.71,-128.18 235.13,-117.86 226.81,-124.42 232.71,-128.18"/>
<text text-anchor="middle" x="228" y="-148.08" font-family="Times,serif" font-size="9.00">0.954</text>
</g>
<!-- key 118359
bias &#45;0.442
h_scaling 0.594
output 0.313&#45;&gt;key 118359
bias &#45;0.442
h_scaling 0.594
output 0.313 -->
<g id="edge8" class="edge">
<title>key 118359
bias &#45;0.442
h_scaling 0.594
output 0.313&#45;&gt;key 118359
bias &#45;0.442
h_scaling 0.594
output 0.313</title>
<path fill="none" stroke="red" stroke-width="0.1" d="M221.94,-252.22C233.5,-250.33 241.64,-245.23 241.64,-236.92 241.64,-231.2 237.79,-227.01 231.63,-224.33"/>
<polygon fill="red" stroke="red" stroke-width="0.1" points="232.52,-220.94 221.94,-221.62 230.63,-227.68 232.52,-220.94"/>
<text text-anchor="middle" x="255.64" y="-234.72" font-family="Times,serif" font-size="9.00">0.914</text>
</g>
</g>
</svg>
