<?xml version="1.0" encoding="UTF-8" standalone="no"?>
<!DOCTYPE svg PUBLIC "-//W3C//DTD SVG 1.1//EN"
 "http://www.w3.org/Graphics/SVG/1.1/DTD/svg11.dtd">
<!-- Generated by graphviz version 2.43.0 (0)
 -->
<!-- Title: %3 Pages: 1 -->
<svg width="574pt" height="902pt"
 viewBox="0.00 0.00 574.00 902.40" xmlns="http://www.w3.org/2000/svg" xmlns:xlink="http://www.w3.org/1999/xlink">
<g id="graph0" class="graph" transform="scale(1 1) rotate(0) translate(4 898.4)">
<title>%3</title>
<polygon fill="white" stroke="transparent" points="-4,4 -4,-898.4 570,-898.4 570,4 -4,4"/>
<!-- ready
output 1.000 -->
<g id="node1" class="node">
<title>ready
output 1.000</title>
<polygon fill="yellow" stroke="black" points="348.5,-894.4 271.5,-894.4 271.5,-866.4 348.5,-866.4 348.5,-894.4"/>
<text text-anchor="middle" x="310" y="-883.2" font-family="Times,serif" font-size="9.00">ready</text>
<text text-anchor="middle" x="310" y="-873.2" font-family="Times,serif" font-size="9.00">output 1.000</text>
</g>
<!-- key 8227
bias &#45;0.019
h_scaling 0.137
output 0.167 -->
<g id="node4" class="node">
<title>key 8227
bias &#45;0.019
h_scaling 0.137
output 0.167</title>
<ellipse fill="white" stroke="black" cx="194" cy="-756.76" rx="63.78" ry="63.78"/>
<text text-anchor="middle" x="194" y="-769.56" font-family="Times,serif" font-size="9.00">key 8227</text>
<text text-anchor="middle" x="194" y="-759.56" font-family="Times,serif" font-size="9.00">bias &#45;0.019</text>
<text text-anchor="middle" x="194" y="-749.56" font-family="Times,serif" font-size="9.00">h_scaling 0.137</text>
<text text-anchor="middle" x="194" y="-739.56" font-family="Times,serif" font-size="9.00">output 0.167</text>
</g>
<!-- ready
output 1.000&#45;&gt;key 8227
bias &#45;0.019
h_scaling 0.137
output 0.167 -->
<g id="edge9" class="edge">
<title>ready
output 1.000&#45;&gt;key 8227
bias &#45;0.019
h_scaling 0.137
output 0.167</title>
<path fill="none" stroke="blue" stroke-width="0.1" d="M287.93,-866.13C280.29,-861.05 271.91,-854.9 265,-848.4 255.04,-839.03 245.33,-828.2 236.46,-817.35"/>
<polygon fill="blue" stroke="blue" stroke-width="0.1" points="239.13,-815.09 230.15,-809.47 233.67,-819.47 239.13,-815.09"/>
<text text-anchor="middle" x="280.5" y="-841.2" font-family="Times,serif" font-size="9.00">&#45;0.422</text>
</g>
<!-- key 100
bias &#45;0.064
h_scaling 0.736
output 0.273 -->
<g id="node5" class="node">
<title>key 100
bias &#45;0.064
h_scaling 0.736
output 0.273</title>
<ellipse fill="white" stroke="black" cx="379" cy="-236.92" rx="63.78" ry="63.78"/>
<text text-anchor="middle" x="379" y="-249.72" font-family="Times,serif" font-size="9.00">key 100</text>
<text text-anchor="middle" x="379" y="-239.72" font-family="Times,serif" font-size="9.00">bias &#45;0.064</text>
<text text-anchor="middle" x="379" y="-229.72" font-family="Times,serif" font-size="9.00">h_scaling 0.736</text>
<text text-anchor="middle" x="379" y="-219.72" font-family="Times,serif" font-size="9.00">output 0.273</text>
</g>
<!-- ready
output 1.000&#45;&gt;key 100
bias &#45;0.064
h_scaling 0.736
output 0.273 -->
<g id="edge12" class="edge">
<title>ready
output 1.000&#45;&gt;key 100
bias &#45;0.064
h_scaling 0.736
output 0.273</title>
<path fill="none" stroke="red" stroke-width="0.1" d="M348.66,-868.41C372.81,-859.47 402.37,-844.35 419,-820.4 435.27,-796.96 433,-786.28 433,-757.76 433,-757.76 433,-757.76 433,-409.2 433,-373.31 422.09,-335.07 410.07,-303.85"/>
<polygon fill="red" stroke="red" stroke-width="0.1" points="413.26,-302.4 406.32,-294.4 406.75,-304.98 413.26,-302.4"/>
<text text-anchor="middle" x="447" y="-581.28" font-family="Times,serif" font-size="9.00">0.530</text>
</g>
<!-- key 60015
bias &#45;0.237
h_scaling 0.902
output 0.821 -->
<g id="node6" class="node">
<title>key 60015
bias &#45;0.237
h_scaling 0.902
output 0.821</title>
<ellipse fill="white" stroke="black" cx="287" cy="-583.48" rx="63.78" ry="63.78"/>
<text text-anchor="middle" x="287" y="-596.28" font-family="Times,serif" font-size="9.00">key 60015</text>
<text text-anchor="middle" x="287" y="-586.28" font-family="Times,serif" font-size="9.00">bias &#45;0.237</text>
<text text-anchor="middle" x="287" y="-576.28" font-family="Times,serif" font-size="9.00">h_scaling 0.902</text>
<text text-anchor="middle" x="287" y="-566.28" font-family="Times,serif" font-size="9.00">output 0.821</text>
</g>
<!-- ready
output 1.000&#45;&gt;key 60015
bias &#45;0.237
h_scaling 0.902
output 0.821 -->
<g id="edge14" class="edge">
<title>ready
output 1.000&#45;&gt;key 60015
bias &#45;0.237
h_scaling 0.902
output 0.821</title>
<path fill="none" stroke="red" stroke-width="0.1" d="M308.98,-866.34C306.18,-830.43 298.2,-728.12 292.67,-657.18"/>
<polygon fill="red" stroke="red" stroke-width="0.1" points="296.14,-656.65 291.87,-646.96 289.16,-657.2 296.14,-656.65"/>
<text text-anchor="middle" x="319" y="-754.56" font-family="Times,serif" font-size="9.00">1.230</text>
</g>
<!-- go
output 0.000 -->
<g id="node2" class="node">
<title>go
output 0.000</title>
<polygon fill="green" stroke="black" points="485.5,-894.4 408.5,-894.4 408.5,-866.4 485.5,-866.4 485.5,-894.4"/>
<text text-anchor="middle" x="447" y="-883.2" font-family="Times,serif" font-size="9.00">go</text>
<text text-anchor="middle" x="447" y="-873.2" font-family="Times,serif" font-size="9.00">output 0.000</text>
</g>
<!-- go
output 0.000&#45;&gt;key 8227
bias &#45;0.019
h_scaling 0.137
output 0.167 -->
<g id="edge6" class="edge">
<title>go
output 0.000&#45;&gt;key 8227
bias &#45;0.019
h_scaling 0.137
output 0.167</title>
<path fill="none" stroke="red" stroke-width="0.1" d="M408.31,-869.45C388.76,-863.99 364.83,-856.67 344,-848.4 312.61,-835.93 280.25,-817.24 253.65,-800.06"/>
<polygon fill="red" stroke="red" stroke-width="0.1" points="255.51,-797.09 245.23,-794.55 251.68,-802.95 255.51,-797.09"/>
<text text-anchor="middle" x="358" y="-841.2" font-family="Times,serif" font-size="9.00">1.016</text>
</g>
<!-- go
output 0.000&#45;&gt;key 100
bias &#45;0.064
h_scaling 0.736
output 0.273 -->
<g id="edge5" class="edge">
<title>go
output 0.000&#45;&gt;key 100
bias &#45;0.064
h_scaling 0.736
output 0.273</title>
<path fill="none" stroke="blue" stroke-width="0.1" d="M465.23,-866.34C491.01,-846.21 535,-804.93 535,-757.76 535,-757.76 535,-757.76 535,-409.2 535,-351.51 486.03,-304.69 442.96,-274.68"/>
<polygon fill="blue" stroke="blue" stroke-width="0.1" points="444.68,-271.62 434.44,-268.9 440.75,-277.41 444.68,-271.62"/>
<text text-anchor="middle" x="550.5" y="-581.28" font-family="Times,serif" font-size="9.00">&#45;0.844</text>
</g>
<!-- go
output 0.000&#45;&gt;key 60015
bias &#45;0.237
h_scaling 0.902
output 0.821 -->
<g id="edge20" class="edge">
<title>go
output 0.000&#45;&gt;key 60015
bias &#45;0.237
h_scaling 0.902
output 0.821</title>
<path fill="none" stroke="red" stroke-width="0.1" d="M439.92,-866.34C419.65,-828.98 360.39,-719.75 321.87,-648.75"/>
<polygon fill="red" stroke="red" stroke-width="0.1" points="324.89,-646.98 317.05,-639.86 318.74,-650.32 324.89,-646.98"/>
<text text-anchor="middle" x="428" y="-754.56" font-family="Times,serif" font-size="9.00">0.413</text>
</g>
<!-- key 6269
bias &#45;0.835
h_scaling 0.589
output 0.680 -->
<g id="node7" class="node">
<title>key 6269
bias &#45;0.835
h_scaling 0.589
output 0.680</title>
<ellipse fill="white" stroke="black" cx="234" cy="-410.2" rx="63.78" ry="63.78"/>
<text text-anchor="middle" x="234" y="-423" font-family="Times,serif" font-size="9.00">key 6269</text>
<text text-anchor="middle" x="234" y="-413" font-family="Times,serif" font-size="9.00">bias &#45;0.835</text>
<text text-anchor="middle" x="234" y="-403" font-family="Times,serif" font-size="9.00">h_scaling 0.589</text>
<text text-anchor="middle" x="234" y="-393" font-family="Times,serif" font-size="9.00">output 0.680</text>
</g>
<!-- go
output 0.000&#45;&gt;key 6269
bias &#45;0.835
h_scaling 0.589
output 0.680 -->
<g id="edge2" class="edge">
<title>go
output 0.000&#45;&gt;key 6269
bias &#45;0.835
h_scaling 0.589
output 0.680</title>
<path fill="none" stroke="red" stroke-width="0.1" d="M449.61,-866.33C460.78,-808.87 502.43,-578.81 465,-519.84 430.46,-465.42 360.6,-437.77 306.7,-424.03"/>
<polygon fill="red" stroke="red" stroke-width="0.1" points="307.38,-420.6 296.84,-421.63 305.73,-427.4 307.38,-420.6"/>
<text text-anchor="middle" x="491" y="-667.92" font-family="Times,serif" font-size="9.00">0.620</text>
</g>
<!-- output
bias &#45;0.442
h_scaling 0.370
output 0.002 -->
<g id="node3" class="node">
<title>output
bias &#45;0.442
h_scaling 0.370
output 0.002</title>
<ellipse fill="lightblue" stroke="black" cx="125" cy="-63.64" rx="63.78" ry="63.78"/>
<text text-anchor="middle" x="125" y="-76.44" font-family="Times,serif" font-size="9.00">output</text>
<text text-anchor="middle" x="125" y="-66.44" font-family="Times,serif" font-size="9.00">bias &#45;0.442</text>
<text text-anchor="middle" x="125" y="-56.44" font-family="Times,serif" font-size="9.00">h_scaling 0.370</text>
<text text-anchor="middle" x="125" y="-46.44" font-family="Times,serif" font-size="9.00">output 0.002</text>
</g>
<!-- output
bias &#45;0.442
h_scaling 0.370
output 0.002&#45;&gt;key 8227
bias &#45;0.019
h_scaling 0.137
output 0.167 -->
<g id="edge13" class="edge">
<title>output
bias &#45;0.442
h_scaling 0.370
output 0.002&#45;&gt;key 8227
bias &#45;0.019
h_scaling 0.137
output 0.167</title>
<path fill="none" stroke="red" stroke-width="0.1" d="M95.83,-120.52C81.39,-153.25 67,-195.89 67,-235.92 67,-584.48 67,-584.48 67,-584.48 67,-634.55 102.46,-679.53 135.9,-710.82"/>
<polygon fill="red" stroke="red" stroke-width="0.1" points="133.69,-713.53 143.44,-717.68 138.4,-708.36 133.69,-713.53"/>
<text text-anchor="middle" x="81" y="-408" font-family="Times,serif" font-size="9.00">0.282</text>
</g>
<!-- key 8227
bias &#45;0.019
h_scaling 0.137
output 0.167&#45;&gt;output
bias &#45;0.442
h_scaling 0.370
output 0.002 -->
<g id="edge10" class="edge">
<title>key 8227
bias &#45;0.019
h_scaling 0.137
output 0.167&#45;&gt;output
bias &#45;0.442
h_scaling 0.370
output 0.002</title>
<path fill="none" stroke="blue" stroke-width="0.1" d="M134.74,-732.88C77.69,-706.52 0,-657.26 0,-584.48 0,-584.48 0,-584.48 0,-235.92 0,-186.29 34.66,-141.44 67.48,-110.09"/>
<polygon fill="blue" stroke="blue" stroke-width="0.1" points="69.94,-112.58 74.88,-103.21 65.17,-107.46 69.94,-112.58"/>
<text text-anchor="middle" x="15.5" y="-408" font-family="Times,serif" font-size="9.00">&#45;0.189</text>
</g>
<!-- key 8227
bias &#45;0.019
h_scaling 0.137
output 0.167&#45;&gt;key 60015
bias &#45;0.237
h_scaling 0.902
output 0.821 -->
<g id="edge17" class="edge">
<title>key 8227
bias &#45;0.019
h_scaling 0.137
output 0.167&#45;&gt;key 60015
bias &#45;0.237
h_scaling 0.902
output 0.821</title>
<path fill="none" stroke="blue" stroke-width="0.1" d="M226.85,-701.86C232.03,-692.99 237.25,-683.84 242,-675.12 246.32,-667.19 250.72,-658.79 254.99,-650.42"/>
<polygon fill="blue" stroke="blue" stroke-width="0.1" points="258.17,-651.89 259.57,-641.39 251.93,-648.73 258.17,-651.89"/>
<text text-anchor="middle" x="263.5" y="-667.92" font-family="Times,serif" font-size="9.00">&#45;0.698</text>
</g>
<!-- key 8227
bias &#45;0.019
h_scaling 0.137
output 0.167&#45;&gt;key 6269
bias &#45;0.835
h_scaling 0.589
output 0.680 -->
<g id="edge7" class="edge">
<title>key 8227
bias &#45;0.019
h_scaling 0.137
output 0.167&#45;&gt;key 6269
bias &#45;0.835
h_scaling 0.589
output 0.680</title>
<path fill="none" stroke="red" stroke-width="0.1" d="M183.81,-693.45C177.9,-645.48 173.77,-577.78 186,-519.84 189.08,-505.25 194.25,-490.23 200.08,-476.2"/>
<polygon fill="red" stroke="red" stroke-width="0.1" points="203.45,-477.22 204.21,-466.65 197.03,-474.44 203.45,-477.22"/>
<text text-anchor="middle" x="200" y="-581.28" font-family="Times,serif" font-size="9.00">0.796</text>
</g>
<!-- key 100
bias &#45;0.064
h_scaling 0.736
output 0.273&#45;&gt;output
bias &#45;0.442
h_scaling 0.370
output 0.002 -->
<g id="edge1" class="edge">
<title>key 100
bias &#45;0.064
h_scaling 0.736
output 0.273&#45;&gt;output
bias &#45;0.442
h_scaling 0.370
output 0.002</title>
<path fill="none" stroke="red" stroke-width="0.1" d="M326.68,-200.64C285.83,-173.09 229.01,-134.77 186.08,-105.83"/>
<polygon fill="red" stroke="red" stroke-width="0.1" points="187.94,-102.86 177.69,-100.17 184.02,-108.66 187.94,-102.86"/>
<text text-anchor="middle" x="266" y="-148.08" font-family="Times,serif" font-size="9.00">1.012</text>
</g>
<!-- key 100
bias &#45;0.064
h_scaling 0.736
output 0.273&#45;&gt;key 100
bias &#45;0.064
h_scaling 0.736
output 0.273 -->
<g id="edge4" class="edge">
<title>key 100
bias &#45;0.064
h_scaling 0.736
output 0.273&#45;&gt;key 100
bias &#45;0.064
h_scaling 0.736
output 0.273</title>
<path fill="none" stroke="red" stroke-width="0.1" d="M440.94,-252.22C452.5,-250.33 460.64,-245.23 460.64,-236.92 460.64,-231.2 456.79,-227.01 450.63,-224.33"/>
<polygon fill="red" stroke="red" stroke-width="0.1" points="451.52,-220.94 440.94,-221.62 449.63,-227.68 451.52,-220.94"/>
<text text-anchor="middle" x="474.64" y="-234.72" font-family="Times,serif" font-size="9.00">1.034</text>
</g>
<!-- key 60015
bias &#45;0.237
h_scaling 0.902
output 0.821&#45;&gt;key 8227
bias &#45;0.019
h_scaling 0.137
output 0.167 -->
<g id="edge16" class="edge">
<title>key 60015
bias &#45;0.237
h_scaling 0.902
output 0.821&#45;&gt;key 8227
bias &#45;0.019
h_scaling 0.137
output 0.167</title>
<path fill="none" stroke="blue" stroke-width="0.1" d="M239.31,-626.11C228.52,-637.73 218.15,-651.06 211,-665.12 208.09,-670.83 205.68,-676.97 203.68,-683.27"/>
<polygon fill="blue" stroke="blue" stroke-width="0.1" points="200.21,-682.68 200.86,-693.26 206.94,-684.58 200.21,-682.68"/>
<text text-anchor="middle" x="226.5" y="-667.92" font-family="Times,serif" font-size="9.00">&#45;0.341</text>
</g>
<!-- key 60015
bias &#45;0.237
h_scaling 0.902
output 0.821&#45;&gt;key 60015
bias &#45;0.237
h_scaling 0.902
output 0.821 -->
<g id="edge18" class="edge">
<title>key 60015
bias &#45;0.237
h_scaling 0.902
output 0.821&#45;&gt;key 60015
bias &#45;0.237
h_scaling 0.902
output 0.821</title>
<path fill="none" stroke="red" stroke-width="0.1" d="M348.94,-598.77C360.5,-596.89 368.64,-591.79 368.64,-583.48 368.64,-577.76 364.79,-573.56 358.63,-570.89"/>
<polygon fill="red" stroke="red" stroke-width="0.1" points="359.52,-567.5 348.94,-568.18 357.63,-574.24 359.52,-567.5"/>
<text text-anchor="middle" x="382.64" y="-581.28" font-family="Times,serif" font-size="9.00">0.929</text>
</g>
<!-- key 60015
bias &#45;0.237
h_scaling 0.902
output 0.821&#45;&gt;key 6269
bias &#45;0.835
h_scaling 0.589
output 0.680 -->
<g id="edge15" class="edge">
<title>key 60015
bias &#45;0.237
h_scaling 0.902
output 0.821&#45;&gt;key 6269
bias &#45;0.835
h_scaling 0.589
output 0.680</title>
<path fill="none" stroke="blue" stroke-width="0.1" d="M268.46,-522.57C264.33,-509.22 259.92,-494.95 255.67,-481.23"/>
<polygon fill="blue" stroke="blue" stroke-width="0.1" points="258.92,-479.88 252.62,-471.36 252.23,-481.95 258.92,-479.88"/>
<text text-anchor="middle" x="276.5" y="-494.64" font-family="Times,serif" font-size="9.00">&#45;0.151</text>
</g>
<!-- key 6269
bias &#45;0.835
h_scaling 0.589
output 0.680&#45;&gt;output
bias &#45;0.442
h_scaling 0.370
output 0.002 -->
<g id="edge19" class="edge">
<title>key 6269
bias &#45;0.835
h_scaling 0.589
output 0.680&#45;&gt;output
bias &#45;0.442
h_scaling 0.370
output 0.002</title>
<path fill="none" stroke="blue" stroke-width="0.1" d="M215.01,-349.18C196.08,-289.33 167.02,-197.47 147.07,-134.41"/>
<polygon fill="blue" stroke="blue" stroke-width="0.1" points="150.3,-133.03 143.95,-124.55 143.63,-135.14 150.3,-133.03"/>
<text text-anchor="middle" x="215.5" y="-234.72" font-family="Times,serif" font-size="9.00">&#45;1.000</text>
</g>
<!-- key 6269
bias &#45;0.835
h_scaling 0.589
output 0.680&#45;&gt;key 8227
bias &#45;0.019
h_scaling 0.137
output 0.167 -->
<g id="edge11" class="edge">
<title>key 6269
bias &#45;0.835
h_scaling 0.589
output 0.680&#45;&gt;key 8227
bias &#45;0.019
h_scaling 0.137
output 0.167</title>
<path fill="none" stroke="red" stroke-width="0.1" d="M188.13,-454.49C171.86,-472.89 155.48,-495.67 147,-519.84 128.26,-573.21 135.53,-591.72 147,-647.12 150,-661.59 155.02,-676.5 160.69,-690.46"/>
<polygon fill="red" stroke="red" stroke-width="0.1" points="157.59,-692.11 164.7,-699.96 164.03,-689.39 157.59,-692.11"/>
<text text-anchor="middle" x="161" y="-581.28" font-family="Times,serif" font-size="9.00">0.200</text>
</g>
<!-- key 6269
bias &#45;0.835
h_scaling 0.589
output 0.680&#45;&gt;key 100
bias &#45;0.064
h_scaling 0.736
output 0.273 -->
<g id="edge3" class="edge">
<title>key 6269
bias &#45;0.835
h_scaling 0.589
output 0.680&#45;&gt;key 100
bias &#45;0.064
h_scaling 0.736
output 0.273</title>
<path fill="none" stroke="blue" stroke-width="0.1" d="M274.78,-361.03C292.46,-340.15 313.27,-315.56 331.64,-293.87"/>
<polygon fill="blue" stroke="blue" stroke-width="0.1" points="334.49,-295.91 338.28,-286.02 329.15,-291.39 334.49,-295.91"/>
<text text-anchor="middle" x="321.5" y="-321.36" font-family="Times,serif" font-size="9.00">&#45;0.869</text>
</g>
<!-- key 6269
bias &#45;0.835
h_scaling 0.589
output 0.680&#45;&gt;key 6269
bias &#45;0.835
h_scaling 0.589
output 0.680 -->
<g id="edge8" class="edge">
<title>key 6269
bias &#45;0.835
h_scaling 0.589
output 0.680&#45;&gt;key 6269
bias &#45;0.835
h_scaling 0.589
output 0.680</title>
<path fill="none" stroke="red" stroke-width="0.1" d="M295.94,-425.5C307.5,-423.61 315.64,-418.51 315.64,-410.2 315.64,-404.48 311.79,-400.29 305.63,-397.61"/>
<polygon fill="red" stroke="red" stroke-width="0.1" points="306.52,-394.22 295.94,-394.9 304.63,-400.96 306.52,-394.22"/>
<text text-anchor="middle" x="329.64" y="-408" font-family="Times,serif" font-size="9.00">0.776</text>
</g>
</g>
</svg>
