<?xml version="1.0" encoding="UTF-8" standalone="no"?>
<!DOCTYPE svg PUBLIC "-//W3C//DTD SVG 1.1//EN"
 "http://www.w3.org/Graphics/SVG/1.1/DTD/svg11.dtd">
<!-- Generated by graphviz version 2.43.0 (0)
 -->
<!-- Title: %3 Pages: 1 -->
<svg width="684pt" height="1020pt"
 viewBox="0.00 0.00 683.64 1019.68" xmlns="http://www.w3.org/2000/svg" xmlns:xlink="http://www.w3.org/1999/xlink">
<g id="graph0" class="graph" transform="scale(1 1) rotate(0) translate(4 1015.68)">
<title>%3</title>
<polygon fill="white" stroke="transparent" points="-4,4 -4,-1015.68 679.64,-1015.68 679.64,4 -4,4"/>
<!-- ready
output 0.000 -->
<g id="node1" class="node">
<title>ready
output 0.000</title>
<polygon fill="yellow" stroke="black" points="425.5,-1011.68 348.5,-1011.68 348.5,-983.68 425.5,-983.68 425.5,-1011.68"/>
<text text-anchor="middle" x="387" y="-1000.48" font-family="Times,serif" font-size="9.00">ready</text>
<text text-anchor="middle" x="387" y="-990.48" font-family="Times,serif" font-size="9.00">output 0.000</text>
</g>
<!-- key 1381
bias 0.288
h_scaling 1.000
output 0.237 -->
<g id="node5" class="node">
<title>key 1381
bias 0.288
h_scaling 1.000
output 0.237</title>
<ellipse fill="white" stroke="black" cx="325" cy="-874.04" rx="63.78" ry="63.78"/>
<text text-anchor="middle" x="325" y="-886.84" font-family="Times,serif" font-size="9.00">key 1381</text>
<text text-anchor="middle" x="325" y="-876.84" font-family="Times,serif" font-size="9.00">bias 0.288</text>
<text text-anchor="middle" x="325" y="-866.84" font-family="Times,serif" font-size="9.00">h_scaling 1.000</text>
<text text-anchor="middle" x="325" y="-856.84" font-family="Times,serif" font-size="9.00">output 0.237</text>
</g>
<!-- ready
output 0.000&#45;&gt;key 1381
bias 0.288
h_scaling 1.000
output 0.237 -->
<g id="edge9" class="edge">
<title>ready
output 0.000&#45;&gt;key 1381
bias 0.288
h_scaling 1.000
output 0.237</title>
<path fill="none" stroke="red" stroke-width="0.1" d="M366.21,-983.53C359.88,-978.62 353.43,-972.54 349,-965.68 345.27,-959.88 342.11,-953.53 339.45,-946.96"/>
<polygon fill="red" stroke="red" stroke-width="0.1" points="342.6,-945.4 335.88,-937.21 336.03,-947.81 342.6,-945.4"/>
<text text-anchor="middle" x="363" y="-958.48" font-family="Times,serif" font-size="9.00">0.449</text>
</g>
<!-- key 10262
bias &#45;0.395
h_scaling 1.000
output 0.178 -->
<g id="node7" class="node">
<title>key 10262
bias &#45;0.395
h_scaling 1.000
output 0.178</title>
<ellipse fill="white" stroke="black" cx="248" cy="-236.92" rx="63.78" ry="63.78"/>
<text text-anchor="middle" x="248" y="-249.72" font-family="Times,serif" font-size="9.00">key 10262</text>
<text text-anchor="middle" x="248" y="-239.72" font-family="Times,serif" font-size="9.00">bias &#45;0.395</text>
<text text-anchor="middle" x="248" y="-229.72" font-family="Times,serif" font-size="9.00">h_scaling 1.000</text>
<text text-anchor="middle" x="248" y="-219.72" font-family="Times,serif" font-size="9.00">output 0.178</text>
</g>
<!-- ready
output 0.000&#45;&gt;key 10262
bias &#45;0.395
h_scaling 1.000
output 0.178 -->
<g id="edge10" class="edge">
<title>ready
output 0.000&#45;&gt;key 10262
bias &#45;0.395
h_scaling 1.000
output 0.178</title>
<path fill="none" stroke="blue" stroke-width="0.1" d="M418.92,-983.57C426.6,-978.99 434.01,-973.08 439,-965.68 461.79,-931.88 453,-915.8 453,-875.04 453,-875.04 453,-875.04 453,-409.2 453,-380.11 452.03,-369.39 434,-346.56 403.96,-308.52 356.67,-281.15 317.28,-263.4"/>
<polygon fill="blue" stroke="blue" stroke-width="0.1" points="318.54,-260.13 307.98,-259.31 315.73,-266.54 318.54,-260.13"/>
<text text-anchor="middle" x="468.5" y="-581.28" font-family="Times,serif" font-size="9.00">&#45;0.430</text>
</g>
<!-- go
output 1.000 -->
<g id="node2" class="node">
<title>go
output 1.000</title>
<polygon fill="green" stroke="black" points="550.5,-1011.68 473.5,-1011.68 473.5,-983.68 550.5,-983.68 550.5,-1011.68"/>
<text text-anchor="middle" x="512" y="-1000.48" font-family="Times,serif" font-size="9.00">go</text>
<text text-anchor="middle" x="512" y="-990.48" font-family="Times,serif" font-size="9.00">output 1.000</text>
</g>
<!-- go
output 1.000&#45;&gt;key 1381
bias 0.288
h_scaling 1.000
output 0.237 -->
<g id="edge3" class="edge">
<title>go
output 1.000&#45;&gt;key 1381
bias 0.288
h_scaling 1.000
output 0.237</title>
<path fill="none" stroke="blue" stroke-width="0.1" d="M491.99,-983.66C467.04,-967.43 423.24,-938.94 386.75,-915.21"/>
<polygon fill="blue" stroke="blue" stroke-width="0.1" points="388.42,-912.12 378.13,-909.6 384.61,-917.98 388.42,-912.12"/>
<text text-anchor="middle" x="476.5" y="-958.48" font-family="Times,serif" font-size="9.00">&#45;0.819</text>
</g>
<!-- key 50861
bias &#45;0.044
h_scaling 1.000
output 0.938 -->
<g id="node6" class="node">
<title>key 50861
bias &#45;0.044
h_scaling 1.000
output 0.938</title>
<ellipse fill="white" stroke="black" cx="612" cy="-728.76" rx="63.78" ry="63.78"/>
<text text-anchor="middle" x="612" y="-741.56" font-family="Times,serif" font-size="9.00">key 50861</text>
<text text-anchor="middle" x="612" y="-731.56" font-family="Times,serif" font-size="9.00">bias &#45;0.044</text>
<text text-anchor="middle" x="612" y="-721.56" font-family="Times,serif" font-size="9.00">h_scaling 1.000</text>
<text text-anchor="middle" x="612" y="-711.56" font-family="Times,serif" font-size="9.00">output 0.938</text>
</g>
<!-- go
output 1.000&#45;&gt;key 50861
bias &#45;0.044
h_scaling 1.000
output 0.938 -->
<g id="edge17" class="edge">
<title>go
output 1.000&#45;&gt;key 50861
bias &#45;0.044
h_scaling 1.000
output 0.938</title>
<path fill="none" stroke="red" stroke-width="0.1" d="M518.21,-983.49C520.73,-978.02 523.59,-971.58 526,-965.68 548.62,-910.15 571.76,-846.2 588.33,-798.9"/>
<polygon fill="red" stroke="red" stroke-width="0.1" points="591.66,-799.96 591.65,-789.37 585.05,-797.65 591.66,-799.96"/>
<text text-anchor="middle" x="543" y="-958.48" font-family="Times,serif" font-size="9.00">0.688</text>
</g>
<!-- key 5438
bias &#45;0.242
h_scaling 1.000
output 0.127 -->
<g id="node8" class="node">
<title>key 5438
bias &#45;0.242
h_scaling 1.000
output 0.127</title>
<ellipse fill="white" stroke="black" cx="361" cy="-410.2" rx="63.78" ry="63.78"/>
<text text-anchor="middle" x="361" y="-423" font-family="Times,serif" font-size="9.00">key 5438</text>
<text text-anchor="middle" x="361" y="-413" font-family="Times,serif" font-size="9.00">bias &#45;0.242</text>
<text text-anchor="middle" x="361" y="-403" font-family="Times,serif" font-size="9.00">h_scaling 1.000</text>
<text text-anchor="middle" x="361" y="-393" font-family="Times,serif" font-size="9.00">output 0.127</text>
</g>
<!-- go
output 1.000&#45;&gt;key 5438
bias &#45;0.242
h_scaling 1.000
output 0.127 -->
<g id="edge4" class="edge">
<title>go
output 1.000&#45;&gt;key 5438
bias &#45;0.242
h_scaling 1.000
output 0.127</title>
<path fill="none" stroke="blue" stroke-width="0.1" d="M511.63,-983.58C509.51,-909.08 498.51,-541.23 488,-519.84 473.92,-491.18 448.47,-467.08 424.03,-448.92"/>
<polygon fill="blue" stroke="blue" stroke-width="0.1" points="425.96,-446 415.8,-442.99 421.87,-451.68 425.96,-446"/>
<text text-anchor="middle" x="520.5" y="-726.56" font-family="Times,serif" font-size="9.00">&#45;0.845</text>
</g>
<!-- output
bias &#45;0.887
h_scaling 1.000
output 0.745 -->
<g id="node3" class="node">
<title>output
bias &#45;0.887
h_scaling 1.000
output 0.745</title>
<ellipse fill="lightblue" stroke="black" cx="225" cy="-583.48" rx="63.78" ry="63.78"/>
<text text-anchor="middle" x="225" y="-596.28" font-family="Times,serif" font-size="9.00">output</text>
<text text-anchor="middle" x="225" y="-586.28" font-family="Times,serif" font-size="9.00">bias &#45;0.887</text>
<text text-anchor="middle" x="225" y="-576.28" font-family="Times,serif" font-size="9.00">h_scaling 1.000</text>
<text text-anchor="middle" x="225" y="-566.28" font-family="Times,serif" font-size="9.00">output 0.745</text>
</g>
<!-- key 39681
bias &#45;0.562
h_scaling 1.000
output 0.157 -->
<g id="node4" class="node">
<title>key 39681
bias &#45;0.562
h_scaling 1.000
output 0.157</title>
<ellipse fill="white" stroke="black" cx="98" cy="-63.64" rx="63.78" ry="63.78"/>
<text text-anchor="middle" x="98" y="-76.44" font-family="Times,serif" font-size="9.00">key 39681</text>
<text text-anchor="middle" x="98" y="-66.44" font-family="Times,serif" font-size="9.00">bias &#45;0.562</text>
<text text-anchor="middle" x="98" y="-56.44" font-family="Times,serif" font-size="9.00">h_scaling 1.000</text>
<text text-anchor="middle" x="98" y="-46.44" font-family="Times,serif" font-size="9.00">output 0.157</text>
</g>
<!-- output
bias &#45;0.887
h_scaling 1.000
output 0.745&#45;&gt;key 39681
bias &#45;0.562
h_scaling 1.000
output 0.157 -->
<g id="edge14" class="edge">
<title>output
bias &#45;0.887
h_scaling 1.000
output 0.745&#45;&gt;key 39681
bias &#45;0.562
h_scaling 1.000
output 0.157</title>
<path fill="none" stroke="red" stroke-width="0.1" d="M203.34,-523.42C197.91,-507.45 192.39,-490.09 188,-473.84 156.37,-356.71 127.75,-218.5 111.65,-136.41"/>
<polygon fill="red" stroke="red" stroke-width="0.1" points="115.05,-135.58 109.7,-126.43 108.18,-136.92 115.05,-135.58"/>
<text text-anchor="middle" x="166" y="-321.36" font-family="Times,serif" font-size="9.00">0.859</text>
</g>
<!-- output
bias &#45;0.887
h_scaling 1.000
output 0.745&#45;&gt;key 10262
bias &#45;0.395
h_scaling 1.000
output 0.178 -->
<g id="edge8" class="edge">
<title>output
bias &#45;0.887
h_scaling 1.000
output 0.745&#45;&gt;key 10262
bias &#45;0.395
h_scaling 1.000
output 0.178</title>
<path fill="none" stroke="red" stroke-width="0.1" d="M207.31,-522.29C195.79,-474.29 185.08,-405.55 198,-346.56 201.28,-331.58 206.83,-316.21 213.06,-301.92"/>
<polygon fill="red" stroke="red" stroke-width="0.1" points="216.3,-303.25 217.24,-292.69 209.92,-300.36 216.3,-303.25"/>
<text text-anchor="middle" x="212" y="-408" font-family="Times,serif" font-size="9.00">0.319</text>
</g>
<!-- output
bias &#45;0.887
h_scaling 1.000
output 0.745&#45;&gt;key 5438
bias &#45;0.242
h_scaling 1.000
output 0.127 -->
<g id="edge11" class="edge">
<title>output
bias &#45;0.887
h_scaling 1.000
output 0.745&#45;&gt;key 5438
bias &#45;0.242
h_scaling 1.000
output 0.127</title>
<path fill="none" stroke="red" stroke-width="0.1" d="M243.06,-522.06C247.67,-511.46 253.27,-500.92 260,-491.84 267.73,-481.41 272.83,-481.9 283,-473.84 289.65,-468.56 296.61,-463.02 303.51,-457.5"/>
<polygon fill="red" stroke="red" stroke-width="0.1" points="305.94,-460.04 311.56,-451.06 301.57,-454.57 305.94,-460.04"/>
<text text-anchor="middle" x="274" y="-494.64" font-family="Times,serif" font-size="9.00">0.278</text>
</g>
<!-- key 39681
bias &#45;0.562
h_scaling 1.000
output 0.157&#45;&gt;output
bias &#45;0.887
h_scaling 1.000
output 0.745 -->
<g id="edge21" class="edge">
<title>key 39681
bias &#45;0.562
h_scaling 1.000
output 0.157&#45;&gt;output
bias &#45;0.887
h_scaling 1.000
output 0.745</title>
<path fill="none" stroke="blue" stroke-width="0.1" d="M79.05,-124.79C54.67,-214.4 23.51,-384.91 96,-501.84 110.19,-524.73 133.54,-542.18 156.5,-554.89"/>
<polygon fill="blue" stroke="blue" stroke-width="0.1" points="155.13,-558.12 165.61,-559.7 158.4,-551.93 155.13,-558.12"/>
<text text-anchor="middle" x="67.5" y="-321.36" font-family="Times,serif" font-size="9.00">&#45;0.359</text>
</g>
<!-- key 39681
bias &#45;0.562
h_scaling 1.000
output 0.157&#45;&gt;key 39681
bias &#45;0.562
h_scaling 1.000
output 0.157 -->
<g id="edge20" class="edge">
<title>key 39681
bias &#45;0.562
h_scaling 1.000
output 0.157&#45;&gt;key 39681
bias &#45;0.562
h_scaling 1.000
output 0.157</title>
<path fill="none" stroke="red" stroke-width="0.1" d="M159.94,-78.94C171.5,-77.05 179.64,-71.95 179.64,-63.64 179.64,-57.92 175.79,-53.73 169.63,-51.05"/>
<polygon fill="red" stroke="red" stroke-width="0.1" points="170.52,-47.66 159.94,-48.34 168.63,-54.4 170.52,-47.66"/>
<text text-anchor="middle" x="193.64" y="-61.44" font-family="Times,serif" font-size="9.00">0.290</text>
</g>
<!-- key 39681
bias &#45;0.562
h_scaling 1.000
output 0.157&#45;&gt;key 1381
bias 0.288
h_scaling 1.000
output 0.237 -->
<g id="edge15" class="edge">
<title>key 39681
bias &#45;0.562
h_scaling 1.000
output 0.157&#45;&gt;key 1381
bias 0.288
h_scaling 1.000
output 0.237</title>
<path fill="none" stroke="blue" stroke-width="0.1" d="M54.45,-110.48C28.27,-142.9 0,-188.81 0,-235.92 0,-584.48 0,-584.48 0,-584.48 0,-697.39 58.98,-720.44 146,-792.4 177.69,-818.6 219.27,-838.02 254.38,-851.23"/>
<polygon fill="blue" stroke="blue" stroke-width="0.1" points="253.5,-854.63 264.1,-854.79 255.91,-848.06 253.5,-854.63"/>
<text text-anchor="middle" x="15.5" y="-408" font-family="Times,serif" font-size="9.00">&#45;0.732</text>
</g>
<!-- key 1381
bias 0.288
h_scaling 1.000
output 0.237&#45;&gt;output
bias &#45;0.887
h_scaling 1.000
output 0.745 -->
<g id="edge12" class="edge">
<title>key 1381
bias 0.288
h_scaling 1.000
output 0.237&#45;&gt;output
bias &#45;0.887
h_scaling 1.000
output 0.745</title>
<path fill="none" stroke="red" stroke-width="0.1" d="M294.31,-817.78C290.22,-809.4 286.3,-800.76 283,-792.4 265.52,-748.12 251.1,-696.59 241.02,-655.91"/>
<polygon fill="red" stroke="red" stroke-width="0.1" points="244.39,-654.96 238.61,-646.08 237.59,-656.62 244.39,-654.96"/>
<text text-anchor="middle" x="297" y="-726.56" font-family="Times,serif" font-size="9.00">0.837</text>
</g>
<!-- key 1381
bias 0.288
h_scaling 1.000
output 0.237&#45;&gt;key 5438
bias &#45;0.242
h_scaling 1.000
output 0.127 -->
<g id="edge1" class="edge">
<title>key 1381
bias 0.288
h_scaling 1.000
output 0.237&#45;&gt;key 5438
bias &#45;0.242
h_scaling 1.000
output 0.127</title>
<path fill="none" stroke="red" stroke-width="0.1" d="M324.46,-810.27C324.56,-739.46 326.83,-620.98 339,-519.84 340.47,-507.63 342.58,-494.74 344.91,-482.28"/>
<polygon fill="red" stroke="red" stroke-width="0.1" points="348.36,-482.88 346.82,-472.4 341.49,-481.55 348.36,-482.88"/>
<text text-anchor="middle" x="353" y="-581.28" font-family="Times,serif" font-size="9.00">1.109</text>
</g>
<!-- key 50861
bias &#45;0.044
h_scaling 1.000
output 0.938&#45;&gt;key 10262
bias &#45;0.395
h_scaling 1.000
output 0.178 -->
<g id="edge18" class="edge">
<title>key 50861
bias &#45;0.044
h_scaling 1.000
output 0.938&#45;&gt;key 10262
bias &#45;0.395
h_scaling 1.000
output 0.178</title>
<path fill="none" stroke="red" stroke-width="0.1" d="M606.27,-665.02C594.93,-576.36 561.81,-414.54 467,-318.56 428.06,-279.13 368.21,-258.82 320.92,-248.45"/>
<polygon fill="red" stroke="red" stroke-width="0.1" points="321.54,-245 311.03,-246.38 320.1,-251.85 321.54,-245"/>
<text text-anchor="middle" x="582" y="-494.64" font-family="Times,serif" font-size="9.00">0.361</text>
</g>
<!-- key 10262
bias &#45;0.395
h_scaling 1.000
output 0.178&#45;&gt;output
bias &#45;0.887
h_scaling 1.000
output 0.745 -->
<g id="edge16" class="edge">
<title>key 10262
bias &#45;0.395
h_scaling 1.000
output 0.178&#45;&gt;output
bias &#45;0.887
h_scaling 1.000
output 0.745</title>
<path fill="none" stroke="blue" stroke-width="0.1" d="M243.82,-300.57C239.89,-359.46 234.01,-447.57 229.87,-509.58"/>
<polygon fill="blue" stroke="blue" stroke-width="0.1" points="226.37,-509.47 229.19,-519.68 233.35,-509.94 226.37,-509.47"/>
<text text-anchor="middle" x="255.5" y="-408" font-family="Times,serif" font-size="9.00">&#45;0.685</text>
</g>
<!-- key 10262
bias &#45;0.395
h_scaling 1.000
output 0.178&#45;&gt;key 39681
bias &#45;0.562
h_scaling 1.000
output 0.157 -->
<g id="edge19" class="edge">
<title>key 10262
bias &#45;0.395
h_scaling 1.000
output 0.178&#45;&gt;key 39681
bias &#45;0.562
h_scaling 1.000
output 0.157</title>
<path fill="none" stroke="red" stroke-width="0.1" d="M206.22,-188.21C187.61,-166.96 165.58,-141.8 146.27,-119.75"/>
<polygon fill="red" stroke="red" stroke-width="0.1" points="148.78,-117.31 139.56,-112.09 143.51,-121.92 148.78,-117.31"/>
<text text-anchor="middle" x="187" y="-148.08" font-family="Times,serif" font-size="9.00">0.722</text>
</g>
<!-- key 10262
bias &#45;0.395
h_scaling 1.000
output 0.178&#45;&gt;key 1381
bias 0.288
h_scaling 1.000
output 0.237 -->
<g id="edge5" class="edge">
<title>key 10262
bias &#45;0.395
h_scaling 1.000
output 0.178&#45;&gt;key 1381
bias 0.288
h_scaling 1.000
output 0.237</title>
<path fill="none" stroke="blue" stroke-width="0.1" d="M188.67,-260.74C162.98,-273.74 135.15,-292.68 119,-318.56 75.67,-388 87.25,-421.15 101,-501.84 125.05,-642.96 150.19,-680.92 240,-792.4 248.83,-803.36 259.1,-814.29 269.38,-824.4"/>
<polygon fill="blue" stroke="blue" stroke-width="0.1" points="267.23,-827.18 276.85,-831.6 272.09,-822.14 267.23,-827.18"/>
<text text-anchor="middle" x="116.5" y="-494.64" font-family="Times,serif" font-size="9.00">&#45;0.948</text>
</g>
<!-- key 10262
bias &#45;0.395
h_scaling 1.000
output 0.178&#45;&gt;key 10262
bias &#45;0.395
h_scaling 1.000
output 0.178 -->
<g id="edge6" class="edge">
<title>key 10262
bias &#45;0.395
h_scaling 1.000
output 0.178&#45;&gt;key 10262
bias &#45;0.395
h_scaling 1.000
output 0.178</title>
<path fill="none" stroke="red" stroke-width="0.1" d="M309.94,-252.22C321.5,-250.33 329.64,-245.23 329.64,-236.92 329.64,-231.2 325.79,-227.01 319.63,-224.33"/>
<polygon fill="red" stroke="red" stroke-width="0.1" points="320.52,-220.94 309.94,-221.62 318.63,-227.68 320.52,-220.94"/>
<text text-anchor="middle" x="343.64" y="-234.72" font-family="Times,serif" font-size="9.00">0.930</text>
</g>
<!-- key 5438
bias &#45;0.242
h_scaling 1.000
output 0.127&#45;&gt;output
bias &#45;0.887
h_scaling 1.000
output 0.745 -->
<g id="edge2" class="edge">
<title>key 5438
bias &#45;0.242
h_scaling 1.000
output 0.127&#45;&gt;output
bias &#45;0.887
h_scaling 1.000
output 0.745</title>
<path fill="none" stroke="red" stroke-width="0.1" d="M323.06,-461.83C313.06,-474.95 302.22,-488.99 292,-501.84 285.65,-509.83 278.86,-518.18 272.14,-526.37"/>
<polygon fill="red" stroke="red" stroke-width="0.1" points="269.39,-524.2 265.73,-534.14 274.79,-528.65 269.39,-524.2"/>
<text text-anchor="middle" x="313" y="-494.64" font-family="Times,serif" font-size="9.00">1.003</text>
</g>
<!-- key 5438
bias &#45;0.242
h_scaling 1.000
output 0.127&#45;&gt;key 1381
bias 0.288
h_scaling 1.000
output 0.237 -->
<g id="edge7" class="edge">
<title>key 5438
bias &#45;0.242
h_scaling 1.000
output 0.127&#45;&gt;key 1381
bias 0.288
h_scaling 1.000
output 0.237</title>
<path fill="none" stroke="red" stroke-width="0.1" d="M365.05,-473.79C365.86,-488.86 366.59,-504.92 367,-519.84 368.56,-576.38 372.19,-590.79 367,-647.12 360.97,-712.51 352.01,-727.83 340,-792.4 339.45,-795.38 338.88,-798.43 338.31,-801.5"/>
<polygon fill="red" stroke="red" stroke-width="0.1" points="334.85,-800.93 336.47,-811.4 341.74,-802.21 334.85,-800.93"/>
<text text-anchor="middle" x="383" y="-581.28" font-family="Times,serif" font-size="9.00">0.970</text>
</g>
<!-- key 5438
bias &#45;0.242
h_scaling 1.000
output 0.127&#45;&gt;key 10262
bias &#45;0.395
h_scaling 1.000
output 0.178 -->
<g id="edge13" class="edge">
<title>key 5438
bias &#45;0.242
h_scaling 1.000
output 0.127&#45;&gt;key 10262
bias &#45;0.395
h_scaling 1.000
output 0.178</title>
<path fill="none" stroke="blue" stroke-width="0.1" d="M326.17,-356.41C314.2,-338.26 300.69,-317.78 288.31,-299.02"/>
<polygon fill="blue" stroke="blue" stroke-width="0.1" points="291.14,-296.95 282.71,-290.53 285.3,-300.81 291.14,-296.95"/>
<text text-anchor="middle" x="319.5" y="-321.36" font-family="Times,serif" font-size="9.00">&#45;0.196</text>
</g>
</g>
</svg>
