<?xml version="1.0" encoding="UTF-8" standalone="no"?>
<!DOCTYPE svg PUBLIC "-//W3C//DTD SVG 1.1//EN"
 "http://www.w3.org/Graphics/SVG/1.1/DTD/svg11.dtd">
<!-- Generated by graphviz version 2.43.0 (0)
 -->
<!-- Title: %3 Pages: 1 -->
<svg width="868pt" height="1249pt"
 viewBox="0.00 0.00 868.00 1248.95" xmlns="http://www.w3.org/2000/svg" xmlns:xlink="http://www.w3.org/1999/xlink">
<g id="graph0" class="graph" transform="scale(1 1) rotate(0) translate(4 1244.95)">
<title>%3</title>
<polygon fill="white" stroke="transparent" points="-4,4 -4,-1244.95 864,-1244.95 864,4 -4,4"/>
<!-- ready
output 0.000 -->
<g id="node1" class="node">
<title>ready
output 0.000</title>
<polygon fill="yellow" stroke="black" points="189.5,-1240.95 112.5,-1240.95 112.5,-1212.95 189.5,-1212.95 189.5,-1240.95"/>
<text text-anchor="middle" x="151" y="-1229.75" font-family="Times,serif" font-size="9.00">ready</text>
<text text-anchor="middle" x="151" y="-1219.75" font-family="Times,serif" font-size="9.00">output 0.000</text>
</g>
<!-- key 15747
bias 0.000
h_scaling 0.114
output 0.931 -->
<g id="node5" class="node">
<title>key 15747
bias 0.000
h_scaling 0.114
output 0.931</title>
<ellipse fill="white" stroke="black" cx="619" cy="-1103.31" rx="63.78" ry="63.78"/>
<text text-anchor="middle" x="619" y="-1116.11" font-family="Times,serif" font-size="9.00">key 15747</text>
<text text-anchor="middle" x="619" y="-1106.11" font-family="Times,serif" font-size="9.00">bias 0.000</text>
<text text-anchor="middle" x="619" y="-1096.11" font-family="Times,serif" font-size="9.00">h_scaling 0.114</text>
<text text-anchor="middle" x="619" y="-1086.11" font-family="Times,serif" font-size="9.00">output 0.931</text>
</g>
<!-- ready
output 0.000&#45;&gt;key 15747
bias 0.000
h_scaling 0.114
output 0.931 -->
<g id="edge16" class="edge">
<title>ready
output 0.000&#45;&gt;key 15747
bias 0.000
h_scaling 0.114
output 0.931</title>
<path fill="none" stroke="red" stroke-width="0.1" d="M189.7,-1215.9C268.22,-1195.49 447.31,-1148.94 547.6,-1122.87"/>
<polygon fill="red" stroke="red" stroke-width="0.1" points="548.55,-1126.24 557.35,-1120.34 546.79,-1119.47 548.55,-1126.24"/>
<text text-anchor="middle" x="316" y="-1187.75" font-family="Times,serif" font-size="9.00">0.203</text>
</g>
<!-- key 154342
bias 0.000
h_scaling 0.465
output 0.945 -->
<g id="node6" class="node">
<title>key 154342
bias 0.000
h_scaling 0.465
output 0.945</title>
<ellipse fill="white" stroke="black" cx="103" cy="-583.48" rx="63.78" ry="63.78"/>
<text text-anchor="middle" x="103" y="-596.28" font-family="Times,serif" font-size="9.00">key 154342</text>
<text text-anchor="middle" x="103" y="-586.28" font-family="Times,serif" font-size="9.00">bias 0.000</text>
<text text-anchor="middle" x="103" y="-576.28" font-family="Times,serif" font-size="9.00">h_scaling 0.465</text>
<text text-anchor="middle" x="103" y="-566.28" font-family="Times,serif" font-size="9.00">output 0.945</text>
</g>
<!-- ready
output 0.000&#45;&gt;key 154342
bias 0.000
h_scaling 0.465
output 0.945 -->
<g id="edge33" class="edge">
<title>ready
output 0.000&#45;&gt;key 154342
bias 0.000
h_scaling 0.465
output 0.945</title>
<path fill="none" stroke="blue" stroke-width="0.1" d="M131.49,-1212.76C104.48,-1192.75 59,-1151.98 59,-1104.31 59,-1104.31 59,-1104.31 59,-755.76 59,-721.13 67.54,-683.76 77.1,-652.8"/>
<polygon fill="blue" stroke="blue" stroke-width="0.1" points="80.52,-653.57 80.23,-642.98 73.86,-651.44 80.52,-653.57"/>
<text text-anchor="middle" x="74.5" y="-927.84" font-family="Times,serif" font-size="9.00">&#45;0.234</text>
</g>
<!-- key 53386
bias 0.000
h_scaling 0.919
output 0.285 -->
<g id="node7" class="node">
<title>key 53386
bias 0.000
h_scaling 0.919
output 0.285</title>
<ellipse fill="white" stroke="black" cx="151" cy="-756.76" rx="63.78" ry="63.78"/>
<text text-anchor="middle" x="151" y="-769.56" font-family="Times,serif" font-size="9.00">key 53386</text>
<text text-anchor="middle" x="151" y="-759.56" font-family="Times,serif" font-size="9.00">bias 0.000</text>
<text text-anchor="middle" x="151" y="-749.56" font-family="Times,serif" font-size="9.00">h_scaling 0.919</text>
<text text-anchor="middle" x="151" y="-739.56" font-family="Times,serif" font-size="9.00">output 0.285</text>
</g>
<!-- ready
output 0.000&#45;&gt;key 53386
bias 0.000
h_scaling 0.919
output 0.285 -->
<g id="edge9" class="edge">
<title>ready
output 0.000&#45;&gt;key 53386
bias 0.000
h_scaling 0.919
output 0.285</title>
<path fill="none" stroke="red" stroke-width="0.1" d="M151,-1212.94C151,-1158.25 151,-944.55 151,-830.46"/>
<polygon fill="red" stroke="red" stroke-width="0.1" points="154.5,-830.41 151,-820.41 147.5,-830.41 154.5,-830.41"/>
<text text-anchor="middle" x="165" y="-1014.48" font-family="Times,serif" font-size="9.00">1.026</text>
</g>
<!-- key 4504
bias 0.000
h_scaling 0.829
output 0.066 -->
<g id="node10" class="node">
<title>key 4504
bias 0.000
h_scaling 0.829
output 0.066</title>
<ellipse fill="white" stroke="black" cx="500" cy="-236.92" rx="63.78" ry="63.78"/>
<text text-anchor="middle" x="500" y="-249.72" font-family="Times,serif" font-size="9.00">key 4504</text>
<text text-anchor="middle" x="500" y="-239.72" font-family="Times,serif" font-size="9.00">bias 0.000</text>
<text text-anchor="middle" x="500" y="-229.72" font-family="Times,serif" font-size="9.00">h_scaling 0.829</text>
<text text-anchor="middle" x="500" y="-219.72" font-family="Times,serif" font-size="9.00">output 0.066</text>
</g>
<!-- ready
output 0.000&#45;&gt;key 4504
bias 0.000
h_scaling 0.829
output 0.066 -->
<g id="edge17" class="edge">
<title>ready
output 0.000&#45;&gt;key 4504
bias 0.000
h_scaling 0.829
output 0.066</title>
<path fill="none" stroke="blue" stroke-width="0.1" d="M112.11,-1213.67C67.37,-1196.81 0,-1161.88 0,-1104.31 0,-1104.31 0,-1104.31 0,-495.84 0,-306.33 287.2,-255.93 426.27,-242.63"/>
<polygon fill="blue" stroke="blue" stroke-width="0.1" points="426.78,-246.1 436.42,-241.7 426.14,-239.13 426.78,-246.1"/>
<text text-anchor="middle" x="15.5" y="-754.56" font-family="Times,serif" font-size="9.00">&#45;0.218</text>
</g>
<!-- key 1887
bias 0.000
h_scaling 0.321
output 0.166 -->
<g id="node12" class="node">
<title>key 1887
bias 0.000
h_scaling 0.321
output 0.166</title>
<ellipse fill="white" stroke="black" cx="456" cy="-410.2" rx="63.78" ry="63.78"/>
<text text-anchor="middle" x="456" y="-423" font-family="Times,serif" font-size="9.00">key 1887</text>
<text text-anchor="middle" x="456" y="-413" font-family="Times,serif" font-size="9.00">bias 0.000</text>
<text text-anchor="middle" x="456" y="-403" font-family="Times,serif" font-size="9.00">h_scaling 0.321</text>
<text text-anchor="middle" x="456" y="-393" font-family="Times,serif" font-size="9.00">output 0.166</text>
</g>
<!-- ready
output 0.000&#45;&gt;key 1887
bias 0.000
h_scaling 0.321
output 0.166 -->
<g id="edge18" class="edge">
<title>ready
output 0.000&#45;&gt;key 1887
bias 0.000
h_scaling 0.321
output 0.166</title>
<path fill="none" stroke="blue" stroke-width="0.1" d="M157.94,-1212.68C160.5,-1207.3 163.21,-1200.95 165,-1194.95 213.22,-1033.48 200.32,-987.25 224,-820.4 242.92,-687.09 186.75,-631.49 262,-519.84 290.88,-476.98 342.61,-449.24 385.39,-432.52"/>
<polygon fill="blue" stroke="blue" stroke-width="0.1" points="386.82,-435.73 394.93,-428.92 384.34,-429.18 386.82,-435.73"/>
<text text-anchor="middle" x="236.5" y="-841.2" font-family="Times,serif" font-size="9.00">&#45;0.087</text>
</g>
<!-- go
output 0.000 -->
<g id="node2" class="node">
<title>go
output 0.000</title>
<polygon fill="green" stroke="black" points="657.5,-1240.95 580.5,-1240.95 580.5,-1212.95 657.5,-1212.95 657.5,-1240.95"/>
<text text-anchor="middle" x="619" y="-1229.75" font-family="Times,serif" font-size="9.00">go</text>
<text text-anchor="middle" x="619" y="-1219.75" font-family="Times,serif" font-size="9.00">output 0.000</text>
</g>
<!-- go
output 0.000&#45;&gt;key 15747
bias 0.000
h_scaling 0.114
output 0.931 -->
<g id="edge5" class="edge">
<title>go
output 0.000&#45;&gt;key 15747
bias 0.000
h_scaling 0.114
output 0.931</title>
<path fill="none" stroke="blue" stroke-width="0.1" d="M619,-1212.94C619,-1203.86 619,-1190.95 619,-1177.18"/>
<polygon fill="blue" stroke="blue" stroke-width="0.1" points="622.5,-1177.05 619,-1167.05 615.5,-1177.05 622.5,-1177.05"/>
<text text-anchor="middle" x="634.5" y="-1187.75" font-family="Times,serif" font-size="9.00">&#45;0.964</text>
</g>
<!-- go
output 0.000&#45;&gt;key 4504
bias 0.000
h_scaling 0.829
output 0.066 -->
<g id="edge3" class="edge">
<title>go
output 0.000&#45;&gt;key 4504
bias 0.000
h_scaling 0.829
output 0.066</title>
<path fill="none" stroke="red" stroke-width="0.1" d="M657.57,-1221.49C718.95,-1212 832,-1183.73 832,-1104.31 832,-1104.31 832,-1104.31 832,-669.12 832,-602.48 842.12,-581.96 818,-519.84 783.05,-429.84 756.51,-413.56 687,-346.56 667.61,-327.87 611.25,-296.02 565.42,-271.62"/>
<polygon fill="red" stroke="red" stroke-width="0.1" points="566.89,-268.44 556.41,-266.85 563.61,-274.62 566.89,-268.44"/>
<text text-anchor="middle" x="846" y="-754.56" font-family="Times,serif" font-size="9.00">1.018</text>
</g>
<!-- key 214364
bias 0.000
h_scaling 0.000
output 0.503 -->
<g id="node11" class="node">
<title>key 214364
bias 0.000
h_scaling 0.000
output 0.503</title>
<ellipse fill="white" stroke="black" cx="373" cy="-756.76" rx="63.78" ry="63.78"/>
<text text-anchor="middle" x="373" y="-769.56" font-family="Times,serif" font-size="9.00">key 214364</text>
<text text-anchor="middle" x="373" y="-759.56" font-family="Times,serif" font-size="9.00">bias 0.000</text>
<text text-anchor="middle" x="373" y="-749.56" font-family="Times,serif" font-size="9.00">h_scaling 0.000</text>
<text text-anchor="middle" x="373" y="-739.56" font-family="Times,serif" font-size="9.00">output 0.503</text>
</g>
<!-- go
output 0.000&#45;&gt;key 214364
bias 0.000
h_scaling 0.000
output 0.503 -->
<g id="edge27" class="edge">
<title>go
output 0.000&#45;&gt;key 214364
bias 0.000
h_scaling 0.000
output 0.503</title>
<path fill="none" stroke="blue" stroke-width="0.1" d="M580.19,-1226.29C522.74,-1225.88 419.2,-1221.37 395,-1194.95 347.82,-1143.47 357.04,-940.62 366,-830.25"/>
<polygon fill="blue" stroke="blue" stroke-width="0.1" points="369.49,-830.44 366.83,-820.19 362.52,-829.86 369.49,-830.44"/>
<text text-anchor="middle" x="374.5" y="-1014.48" font-family="Times,serif" font-size="9.00">&#45;0.444</text>
</g>
<!-- output
bias 0.000
h_scaling 0.017
output 0.424 -->
<g id="node3" class="node">
<title>output
bias 0.000
h_scaling 0.017
output 0.424</title>
<ellipse fill="lightblue" stroke="black" cx="498" cy="-930.04" rx="63.78" ry="63.78"/>
<text text-anchor="middle" x="498" y="-942.84" font-family="Times,serif" font-size="9.00">output</text>
<text text-anchor="middle" x="498" y="-932.84" font-family="Times,serif" font-size="9.00">bias 0.000</text>
<text text-anchor="middle" x="498" y="-922.84" font-family="Times,serif" font-size="9.00">h_scaling 0.017</text>
<text text-anchor="middle" x="498" y="-912.84" font-family="Times,serif" font-size="9.00">output 0.424</text>
</g>
<!-- output
bias 0.000
h_scaling 0.017
output 0.424&#45;&gt;key 53386
bias 0.000
h_scaling 0.919
output 0.285 -->
<g id="edge19" class="edge">
<title>output
bias 0.000
h_scaling 0.017
output 0.424&#45;&gt;key 53386
bias 0.000
h_scaling 0.919
output 0.285</title>
<path fill="none" stroke="blue" stroke-width="0.1" d="M441.09,-900.94C379.7,-870.64 282.06,-822.45 217.26,-790.46"/>
<polygon fill="blue" stroke="blue" stroke-width="0.1" points="218.46,-787.15 207.94,-785.86 215.36,-793.43 218.46,-787.15"/>
<text text-anchor="middle" x="339.5" y="-841.2" font-family="Times,serif" font-size="9.00">&#45;0.440</text>
</g>
<!-- output
bias 0.000
h_scaling 0.017
output 0.424&#45;&gt;key 214364
bias 0.000
h_scaling 0.000
output 0.503 -->
<g id="edge28" class="edge">
<title>output
bias 0.000
h_scaling 0.017
output 0.424&#45;&gt;key 214364
bias 0.000
h_scaling 0.000
output 0.503</title>
<path fill="none" stroke="red" stroke-width="0.1" d="M453.11,-884.67C442.66,-873.31 431.97,-860.79 423,-848.4 417.23,-840.43 411.64,-831.72 406.42,-822.96"/>
<polygon fill="red" stroke="red" stroke-width="0.1" points="409.38,-821.08 401.33,-814.2 403.33,-824.6 409.38,-821.08"/>
<text text-anchor="middle" x="437" y="-841.2" font-family="Times,serif" font-size="9.00">0.031</text>
</g>
<!-- output
bias 0.000
h_scaling 0.017
output 0.424&#45;&gt;key 1887
bias 0.000
h_scaling 0.321
output 0.166 -->
<g id="edge7" class="edge">
<title>output
bias 0.000
h_scaling 0.017
output 0.424&#45;&gt;key 1887
bias 0.000
h_scaling 0.321
output 0.166</title>
<path fill="none" stroke="blue" stroke-width="0.1" d="M496.62,-866.14C496.41,-856.83 496.2,-847.37 496,-838.4 494.26,-761.38 497.53,-741.95 492,-665.12 486.43,-587.74 482.77,-568.52 471,-491.84 470.54,-488.84 470.05,-485.78 469.54,-482.69"/>
<polygon fill="blue" stroke="blue" stroke-width="0.1" points="472.99,-482.05 467.87,-472.77 466.08,-483.21 472.99,-482.05"/>
<text text-anchor="middle" x="507.5" y="-667.92" font-family="Times,serif" font-size="9.00">&#45;0.559</text>
</g>
<!-- key 226466
bias 0.000
h_scaling 1.000
output 0.225 -->
<g id="node4" class="node">
<title>key 226466
bias 0.000
h_scaling 1.000
output 0.225</title>
<ellipse fill="white" stroke="black" cx="335" cy="-583.48" rx="63.78" ry="63.78"/>
<text text-anchor="middle" x="335" y="-596.28" font-family="Times,serif" font-size="9.00">key 226466</text>
<text text-anchor="middle" x="335" y="-586.28" font-family="Times,serif" font-size="9.00">bias 0.000</text>
<text text-anchor="middle" x="335" y="-576.28" font-family="Times,serif" font-size="9.00">h_scaling 1.000</text>
<text text-anchor="middle" x="335" y="-566.28" font-family="Times,serif" font-size="9.00">output 0.225</text>
</g>
<!-- key 226466
bias 0.000
h_scaling 1.000
output 0.225&#45;&gt;key 226466
bias 0.000
h_scaling 1.000
output 0.225 -->
<g id="edge32" class="edge">
<title>key 226466
bias 0.000
h_scaling 1.000
output 0.225&#45;&gt;key 226466
bias 0.000
h_scaling 1.000
output 0.225</title>
<path fill="none" stroke="blue" stroke-width="0.1" d="M396.94,-598.77C408.5,-596.89 416.64,-591.79 416.64,-583.48 416.64,-577.76 412.79,-573.56 406.63,-570.89"/>
<polygon fill="blue" stroke="blue" stroke-width="0.1" points="407.52,-567.5 396.94,-568.18 405.63,-574.24 407.52,-567.5"/>
<text text-anchor="middle" x="432.14" y="-581.28" font-family="Times,serif" font-size="9.00">&#45;0.818</text>
</g>
<!-- key 226466
bias 0.000
h_scaling 1.000
output 0.225&#45;&gt;key 1887
bias 0.000
h_scaling 0.321
output 0.166 -->
<g id="edge31" class="edge">
<title>key 226466
bias 0.000
h_scaling 1.000
output 0.225&#45;&gt;key 1887
bias 0.000
h_scaling 0.321
output 0.166</title>
<path fill="none" stroke="blue" stroke-width="0.1" d="M371.3,-531.09C384.7,-512.12 400,-490.47 413.87,-470.83"/>
<polygon fill="blue" stroke="blue" stroke-width="0.1" points="416.81,-472.74 419.72,-462.55 411.09,-468.7 416.81,-472.74"/>
<text text-anchor="middle" x="410.5" y="-494.64" font-family="Times,serif" font-size="9.00">&#45;0.311</text>
</g>
<!-- key 15747
bias 0.000
h_scaling 0.114
output 0.931&#45;&gt;output
bias 0.000
h_scaling 0.017
output 0.424 -->
<g id="edge11" class="edge">
<title>key 15747
bias 0.000
h_scaling 0.114
output 0.931&#45;&gt;output
bias 0.000
h_scaling 0.017
output 0.424</title>
<path fill="none" stroke="red" stroke-width="0.1" d="M582.7,-1050.93C569.3,-1031.96 554,-1010.3 540.13,-990.67"/>
<polygon fill="red" stroke="red" stroke-width="0.1" points="542.91,-988.54 534.28,-982.39 537.19,-992.58 542.91,-988.54"/>
<text text-anchor="middle" x="572" y="-1014.48" font-family="Times,serif" font-size="9.00">0.842</text>
</g>
<!-- key 15747
bias 0.000
h_scaling 0.114
output 0.931&#45;&gt;key 154342
bias 0.000
h_scaling 0.465
output 0.945 -->
<g id="edge25" class="edge">
<title>key 15747
bias 0.000
h_scaling 0.114
output 0.931&#45;&gt;key 154342
bias 0.000
h_scaling 0.465
output 0.945</title>
<path fill="none" stroke="red" stroke-width="0.1" d="M561.26,-1076.07C521.02,-1056.37 467.21,-1027.11 425,-993.68 356.38,-939.31 339.76,-921.76 292,-848.4 250.9,-785.25 268.14,-754.17 224,-693.12 206.69,-669.17 183.31,-646.65 161.72,-628.39"/>
<polygon fill="red" stroke="red" stroke-width="0.1" points="163.79,-625.56 153.86,-621.86 159.32,-630.94 163.79,-625.56"/>
<text text-anchor="middle" x="306" y="-841.2" font-family="Times,serif" font-size="9.00">0.509</text>
</g>
<!-- key 152907
bias 0.000
h_scaling 0.550
output 0.644 -->
<g id="node8" class="node">
<title>key 152907
bias 0.000
h_scaling 0.550
output 0.644</title>
<ellipse fill="white" stroke="black" cx="619" cy="-63.64" rx="63.78" ry="63.78"/>
<text text-anchor="middle" x="619" y="-76.44" font-family="Times,serif" font-size="9.00">key 152907</text>
<text text-anchor="middle" x="619" y="-66.44" font-family="Times,serif" font-size="9.00">bias 0.000</text>
<text text-anchor="middle" x="619" y="-56.44" font-family="Times,serif" font-size="9.00">h_scaling 0.550</text>
<text text-anchor="middle" x="619" y="-46.44" font-family="Times,serif" font-size="9.00">output 0.644</text>
</g>
<!-- key 15747
bias 0.000
h_scaling 0.114
output 0.931&#45;&gt;key 152907
bias 0.000
h_scaling 0.550
output 0.644 -->
<g id="edge29" class="edge">
<title>key 15747
bias 0.000
h_scaling 0.114
output 0.931&#45;&gt;key 152907
bias 0.000
h_scaling 0.550
output 0.644</title>
<path fill="none" stroke="blue" stroke-width="0.1" d="M674.16,-1070.87C718.35,-1041.13 773,-992.02 773,-931.04 773,-931.04 773,-931.04 773,-669.12 773,-448.71 864.4,-369.49 764,-173.28 747.11,-140.27 715.04,-114.63 685.34,-96.57"/>
<polygon fill="blue" stroke="blue" stroke-width="0.1" points="687.03,-93.5 676.63,-91.44 683.47,-99.53 687.03,-93.5"/>
<text text-anchor="middle" x="801.5" y="-581.28" font-family="Times,serif" font-size="9.00">&#45;0.137</text>
</g>
<!-- key 15747
bias 0.000
h_scaling 0.114
output 0.931&#45;&gt;key 4504
bias 0.000
h_scaling 0.829
output 0.066 -->
<g id="edge4" class="edge">
<title>key 15747
bias 0.000
h_scaling 0.114
output 0.931&#45;&gt;key 4504
bias 0.000
h_scaling 0.829
output 0.066</title>
<path fill="none" stroke="blue" stroke-width="0.1" d="M619,-1039.67C619,-1007.25 619,-967.02 619,-931.04 619,-931.04 619,-931.04 619,-669.12 619,-524.37 622.56,-482.92 574,-346.56 567.57,-328.51 557.4,-310.62 546.64,-294.72"/>
<polygon fill="blue" stroke="blue" stroke-width="0.1" points="549.21,-292.29 540.61,-286.1 543.47,-296.3 549.21,-292.29"/>
<text text-anchor="middle" x="634.5" y="-667.92" font-family="Times,serif" font-size="9.00">&#45;0.660</text>
</g>
<!-- key 154342
bias 0.000
h_scaling 0.465
output 0.945&#45;&gt;key 53386
bias 0.000
h_scaling 0.919
output 0.285 -->
<g id="edge26" class="edge">
<title>key 154342
bias 0.000
h_scaling 0.465
output 0.945&#45;&gt;key 53386
bias 0.000
h_scaling 0.919
output 0.285</title>
<path fill="none" stroke="blue" stroke-width="0.1" d="M88.36,-645.65C88.02,-655.64 88.95,-665.78 92,-675.12 94.81,-683.71 98.92,-692.15 103.69,-700.15"/>
<polygon fill="blue" stroke="blue" stroke-width="0.1" points="100.77,-702.07 109.09,-708.63 106.67,-698.31 100.77,-702.07"/>
<text text-anchor="middle" x="107.5" y="-667.92" font-family="Times,serif" font-size="9.00">&#45;0.274</text>
</g>
<!-- key 154342
bias 0.000
h_scaling 0.465
output 0.945&#45;&gt;key 1887
bias 0.000
h_scaling 0.321
output 0.166 -->
<g id="edge21" class="edge">
<title>key 154342
bias 0.000
h_scaling 0.465
output 0.945&#45;&gt;key 1887
bias 0.000
h_scaling 0.321
output 0.166</title>
<path fill="none" stroke="blue" stroke-width="0.1" d="M125.77,-523.54C132.66,-511.66 141.32,-500.25 152,-491.84 218.4,-439.53 315.66,-421 382.17,-414.52"/>
<polygon fill="blue" stroke="blue" stroke-width="0.1" points="382.52,-418 392.16,-413.61 381.89,-411.03 382.52,-418"/>
<text text-anchor="middle" x="167.5" y="-494.64" font-family="Times,serif" font-size="9.00">&#45;0.512</text>
</g>
<!-- key 53386
bias 0.000
h_scaling 0.919
output 0.285&#45;&gt;key 154342
bias 0.000
h_scaling 0.465
output 0.945 -->
<g id="edge24" class="edge">
<title>key 53386
bias 0.000
h_scaling 0.919
output 0.285&#45;&gt;key 154342
bias 0.000
h_scaling 0.465
output 0.945</title>
<path fill="none" stroke="blue" stroke-width="0.1" d="M134.08,-695.37C130.38,-682.19 126.45,-668.14 122.66,-654.63"/>
<polygon fill="blue" stroke="blue" stroke-width="0.1" points="126,-653.58 119.93,-644.9 119.26,-655.47 126,-653.58"/>
<text text-anchor="middle" x="142.5" y="-667.92" font-family="Times,serif" font-size="9.00">&#45;0.994</text>
</g>
<!-- key 53386
bias 0.000
h_scaling 0.919
output 0.285&#45;&gt;key 4504
bias 0.000
h_scaling 0.829
output 0.066 -->
<g id="edge10" class="edge">
<title>key 53386
bias 0.000
h_scaling 0.919
output 0.285&#45;&gt;key 4504
bias 0.000
h_scaling 0.829
output 0.066</title>
<path fill="none" stroke="blue" stroke-width="0.1" d="M165.46,-694.65C169.01,-679.17 172.73,-662.55 176,-647.12 190.55,-578.35 170.79,-552.67 206,-491.84 261.8,-395.42 368,-317.71 436.32,-274.71"/>
<polygon fill="blue" stroke="blue" stroke-width="0.1" points="438.24,-277.64 444.87,-269.38 434.54,-271.7 438.24,-277.64"/>
<text text-anchor="middle" x="221.5" y="-494.64" font-family="Times,serif" font-size="9.00">&#45;0.300</text>
</g>
<!-- key 152907
bias 0.000
h_scaling 0.550
output 0.644&#45;&gt;key 154342
bias 0.000
h_scaling 0.465
output 0.945 -->
<g id="edge20" class="edge">
<title>key 152907
bias 0.000
h_scaling 0.550
output 0.644&#45;&gt;key 154342
bias 0.000
h_scaling 0.465
output 0.945</title>
<path fill="none" stroke="red" stroke-width="0.1" d="M561.41,-91.6C475.28,-134.51 312.5,-225.97 214,-346.56 173.38,-396.29 143.69,-463.35 125.3,-513.26"/>
<polygon fill="red" stroke="red" stroke-width="0.1" points="122,-512.09 121.88,-522.68 128.58,-514.48 122,-512.09"/>
<text text-anchor="middle" x="251" y="-321.36" font-family="Times,serif" font-size="9.00">1.082</text>
</g>
<!-- key 88047
bias 0.000
h_scaling 0.000
output 0.890 -->
<g id="node9" class="node">
<title>key 88047
bias 0.000
h_scaling 0.000
output 0.890</title>
<ellipse fill="white" stroke="black" cx="691" cy="-236.92" rx="63.78" ry="63.78"/>
<text text-anchor="middle" x="691" y="-249.72" font-family="Times,serif" font-size="9.00">key 88047</text>
<text text-anchor="middle" x="691" y="-239.72" font-family="Times,serif" font-size="9.00">bias 0.000</text>
<text text-anchor="middle" x="691" y="-229.72" font-family="Times,serif" font-size="9.00">h_scaling 0.000</text>
<text text-anchor="middle" x="691" y="-219.72" font-family="Times,serif" font-size="9.00">output 0.890</text>
</g>
<!-- key 88047
bias 0.000
h_scaling 0.000
output 0.890&#45;&gt;key 15747
bias 0.000
h_scaling 0.114
output 0.931 -->
<g id="edge14" class="edge">
<title>key 88047
bias 0.000
h_scaling 0.000
output 0.890&#45;&gt;key 15747
bias 0.000
h_scaling 0.114
output 0.931</title>
<path fill="none" stroke="red" stroke-width="0.1" d="M709.95,-297.91C718.62,-330.49 727,-371.67 727,-409.2 727,-931.04 727,-931.04 727,-931.04 727,-976.57 699.35,-1019.87 672.04,-1051.55"/>
<polygon fill="red" stroke="red" stroke-width="0.1" points="669.14,-1049.54 665.11,-1059.34 674.37,-1054.19 669.14,-1049.54"/>
<text text-anchor="middle" x="741" y="-667.92" font-family="Times,serif" font-size="9.00">0.753</text>
</g>
<!-- key 88047
bias 0.000
h_scaling 0.000
output 0.890&#45;&gt;key 152907
bias 0.000
h_scaling 0.550
output 0.644 -->
<g id="edge22" class="edge">
<title>key 88047
bias 0.000
h_scaling 0.000
output 0.890&#45;&gt;key 152907
bias 0.000
h_scaling 0.550
output 0.644</title>
<path fill="none" stroke="red" stroke-width="0.1" d="M666.62,-177.93C660.41,-163.14 653.67,-147.12 647.28,-131.91"/>
<polygon fill="red" stroke="red" stroke-width="0.1" points="650.45,-130.43 643.35,-122.57 644,-133.14 650.45,-130.43"/>
<text text-anchor="middle" x="669" y="-148.08" font-family="Times,serif" font-size="9.00">0.545</text>
</g>
<!-- key 4504
bias 0.000
h_scaling 0.829
output 0.066&#45;&gt;output
bias 0.000
h_scaling 0.017
output 0.424 -->
<g id="edge15" class="edge">
<title>key 4504
bias 0.000
h_scaling 0.829
output 0.066&#45;&gt;output
bias 0.000
h_scaling 0.017
output 0.424</title>
<path fill="none" stroke="blue" stroke-width="0.1" d="M530,-293.31C545,-326.05 560,-368.87 560,-409.2 560,-757.76 560,-757.76 560,-757.76 560,-794.58 547.17,-833.35 533.18,-864.67"/>
<polygon fill="blue" stroke="blue" stroke-width="0.1" points="529.83,-863.59 528.82,-874.14 536.18,-866.52 529.83,-863.59"/>
<text text-anchor="middle" x="575.5" y="-581.28" font-family="Times,serif" font-size="9.00">&#45;1.000</text>
</g>
<!-- key 4504
bias 0.000
h_scaling 0.829
output 0.066&#45;&gt;key 15747
bias 0.000
h_scaling 0.114
output 0.931 -->
<g id="edge12" class="edge">
<title>key 4504
bias 0.000
h_scaling 0.829
output 0.066&#45;&gt;key 15747
bias 0.000
h_scaling 0.114
output 0.931</title>
<path fill="none" stroke="blue" stroke-width="0.1" d="M557.61,-265.18C607.93,-293.46 673,-342.84 673,-409.2 673,-931.04 673,-931.04 673,-931.04 673,-966.92 662.09,-1005.16 650.07,-1036.38"/>
<polygon fill="blue" stroke="blue" stroke-width="0.1" points="646.75,-1035.25 646.32,-1045.84 653.26,-1037.83 646.75,-1035.25"/>
<text text-anchor="middle" x="688.5" y="-667.92" font-family="Times,serif" font-size="9.00">&#45;0.833</text>
</g>
<!-- key 4504
bias 0.000
h_scaling 0.829
output 0.066&#45;&gt;key 152907
bias 0.000
h_scaling 0.550
output 0.644 -->
<g id="edge23" class="edge">
<title>key 4504
bias 0.000
h_scaling 0.829
output 0.066&#45;&gt;key 152907
bias 0.000
h_scaling 0.550
output 0.644</title>
<path fill="none" stroke="blue" stroke-width="0.1" d="M536.03,-184.06C549.02,-165.37 563.79,-144.11 577.23,-124.77"/>
<polygon fill="blue" stroke="blue" stroke-width="0.1" points="580.26,-126.53 583.1,-116.32 574.52,-122.53 580.26,-126.53"/>
<text text-anchor="middle" x="574.5" y="-148.08" font-family="Times,serif" font-size="9.00">&#45;1.000</text>
</g>
<!-- key 4504
bias 0.000
h_scaling 0.829
output 0.066&#45;&gt;key 4504
bias 0.000
h_scaling 0.829
output 0.066 -->
<g id="edge8" class="edge">
<title>key 4504
bias 0.000
h_scaling 0.829
output 0.066&#45;&gt;key 4504
bias 0.000
h_scaling 0.829
output 0.066</title>
<path fill="none" stroke="red" stroke-width="0.1" d="M561.94,-252.22C573.5,-250.33 581.64,-245.23 581.64,-236.92 581.64,-231.2 577.79,-227.01 571.63,-224.33"/>
<polygon fill="red" stroke="red" stroke-width="0.1" points="572.52,-220.94 561.94,-221.62 570.63,-227.68 572.52,-220.94"/>
<text text-anchor="middle" x="595.64" y="-234.72" font-family="Times,serif" font-size="9.00">0.730</text>
</g>
<!-- key 4504
bias 0.000
h_scaling 0.829
output 0.066&#45;&gt;key 1887
bias 0.000
h_scaling 0.321
output 0.166 -->
<g id="edge2" class="edge">
<title>key 4504
bias 0.000
h_scaling 0.829
output 0.066&#45;&gt;key 1887
bias 0.000
h_scaling 0.321
output 0.166</title>
<path fill="none" stroke="red" stroke-width="0.1" d="M466.28,-291.04C462.04,-299.93 458.37,-309.29 456,-318.56 454.55,-324.22 453.53,-330.15 452.83,-336.15"/>
<polygon fill="red" stroke="red" stroke-width="0.1" points="449.33,-336.01 451.95,-346.28 456.3,-336.62 449.33,-336.01"/>
<text text-anchor="middle" x="470" y="-321.36" font-family="Times,serif" font-size="9.00">1.022</text>
</g>
<!-- key 214364
bias 0.000
h_scaling 0.000
output 0.503&#45;&gt;key 226466
bias 0.000
h_scaling 1.000
output 0.225 -->
<g id="edge30" class="edge">
<title>key 214364
bias 0.000
h_scaling 0.000
output 0.503&#45;&gt;key 226466
bias 0.000
h_scaling 1.000
output 0.225</title>
<path fill="none" stroke="red" stroke-width="0.1" d="M359.39,-694.4C356.59,-681.78 353.62,-668.4 350.75,-655.47"/>
<polygon fill="red" stroke="red" stroke-width="0.1" points="354.16,-654.69 348.58,-645.69 347.33,-656.21 354.16,-654.69"/>
<text text-anchor="middle" x="368" y="-667.92" font-family="Times,serif" font-size="9.00">0.539</text>
</g>
<!-- key 1887
bias 0.000
h_scaling 0.321
output 0.166&#45;&gt;output
bias 0.000
h_scaling 0.017
output 0.424 -->
<g id="edge1" class="edge">
<title>key 1887
bias 0.000
h_scaling 0.321
output 0.166&#45;&gt;output
bias 0.000
h_scaling 0.017
output 0.424</title>
<path fill="none" stroke="blue" stroke-width="0.1" d="M456.77,-473.97C457.73,-545.69 459.41,-655.71 461,-675.12 466.07,-736.93 476.57,-806.61 485.09,-857.31"/>
<polygon fill="blue" stroke="blue" stroke-width="0.1" points="481.64,-857.92 486.77,-867.19 488.54,-856.75 481.64,-857.92"/>
<text text-anchor="middle" x="476.5" y="-667.92" font-family="Times,serif" font-size="9.00">&#45;0.962</text>
</g>
<!-- key 1887
bias 0.000
h_scaling 0.321
output 0.166&#45;&gt;key 88047
bias 0.000
h_scaling 0.000
output 0.890 -->
<g id="edge13" class="edge">
<title>key 1887
bias 0.000
h_scaling 0.321
output 0.166&#45;&gt;key 88047
bias 0.000
h_scaling 0.000
output 0.890</title>
<path fill="none" stroke="red" stroke-width="0.1" d="M509.68,-375.88C542.05,-355.19 583.72,-327.49 619,-300.56 624.7,-296.2 630.54,-291.53 636.3,-286.77"/>
<polygon fill="red" stroke="red" stroke-width="0.1" points="638.67,-289.35 644.08,-280.25 634.17,-283.99 638.67,-289.35"/>
<text text-anchor="middle" x="607" y="-321.36" font-family="Times,serif" font-size="9.00">0.621</text>
</g>
<!-- key 1887
bias 0.000
h_scaling 0.321
output 0.166&#45;&gt;key 4504
bias 0.000
h_scaling 0.829
output 0.066 -->
<g id="edge6" class="edge">
<title>key 1887
bias 0.000
h_scaling 0.321
output 0.166&#45;&gt;key 4504
bias 0.000
h_scaling 0.829
output 0.066</title>
<path fill="none" stroke="red" stroke-width="0.1" d="M477.73,-350.08C480.02,-342.88 482.17,-335.59 484,-328.56 485.56,-322.57 487.01,-316.32 488.35,-310.02"/>
<polygon fill="red" stroke="red" stroke-width="0.1" points="491.8,-310.62 490.37,-300.12 484.94,-309.22 491.8,-310.62"/>
<text text-anchor="middle" x="500" y="-321.36" font-family="Times,serif" font-size="9.00">0.289</text>
</g>
</g>
</svg>
