<?xml version="1.0" encoding="UTF-8" standalone="no"?>
<!DOCTYPE svg PUBLIC "-//W3C//DTD SVG 1.1//EN"
 "http://www.w3.org/Graphics/SVG/1.1/DTD/svg11.dtd">
<!-- Generated by graphviz version 2.43.0 (0)
 -->
<!-- Title: %3 Pages: 1 -->
<svg width="576pt" height="842pt"
 viewBox="0.00 0.00 575.64 842.40" xmlns="http://www.w3.org/2000/svg" xmlns:xlink="http://www.w3.org/1999/xlink">
<g id="graph0" class="graph" transform="scale(1 1) rotate(0) translate(4 838.4)">
<title>%3</title>
<polygon fill="white" stroke="transparent" points="-4,4 -4,-838.4 571.64,-838.4 571.64,4 -4,4"/>
<!-- ready -->
<g id="node1" class="node">
<title>ready</title>
<polygon fill="yellow" stroke="black" points="59.5,-834.4 16.5,-834.4 16.5,-816.4 59.5,-816.4 59.5,-834.4"/>
<text text-anchor="middle" x="38" y="-823.2" font-family="Times,serif" font-size="9.00">ready</text>
</g>
<!-- key 117952
bias 0.044
h_scaling 0.950 -->
<g id="node4" class="node">
<title>key 117952
bias 0.044
h_scaling 0.950</title>
<ellipse fill="white" stroke="black" cx="206" cy="-716.76" rx="63.78" ry="63.78"/>
<text text-anchor="middle" x="206" y="-724.56" font-family="Times,serif" font-size="9.00">key 117952</text>
<text text-anchor="middle" x="206" y="-714.56" font-family="Times,serif" font-size="9.00">bias 0.044</text>
<text text-anchor="middle" x="206" y="-704.56" font-family="Times,serif" font-size="9.00">h_scaling 0.950</text>
</g>
<!-- ready&#45;&gt;key 117952
bias 0.044
h_scaling 0.950 -->
<g id="edge13" class="edge">
<title>ready&#45;&gt;key 117952
bias 0.044
h_scaling 0.950</title>
<path fill="none" stroke="red" stroke-width="1.16" d="M50.63,-816.38C70.32,-803.88 109.65,-778.91 143.81,-757.23"/>
<polygon fill="red" stroke="red" stroke-width="1.16" points="145.8,-760.11 152.37,-751.8 142.05,-754.2 145.8,-760.11"/>
</g>
<!-- key 7184
bias &#45;0.067
h_scaling 0.007 -->
<g id="node5" class="node">
<title>key 7184
bias &#45;0.067
h_scaling 0.007</title>
<ellipse fill="white" stroke="black" cx="317" cy="-63.64" rx="63.78" ry="63.78"/>
<text text-anchor="middle" x="317" y="-71.44" font-family="Times,serif" font-size="9.00">key 7184</text>
<text text-anchor="middle" x="317" y="-61.44" font-family="Times,serif" font-size="9.00">bias &#45;0.067</text>
<text text-anchor="middle" x="317" y="-51.44" font-family="Times,serif" font-size="9.00">h_scaling 0.007</text>
</g>
<!-- ready&#45;&gt;key 7184
bias &#45;0.067
h_scaling 0.007 -->
<g id="edge4" class="edge">
<title>ready&#45;&gt;key 7184
bias &#45;0.067
h_scaling 0.007</title>
<path fill="none" stroke="blue" stroke-width="0.82" d="M35.96,-816.06C28.06,-783.1 0,-658.59 0,-554.48 0,-554.48 0,-554.48 0,-389.2 0,-282.97 5.14,-240.57 78,-163.28 122.11,-116.48 191.7,-91.17 244.44,-77.95"/>
<polygon fill="blue" stroke="blue" stroke-width="0.82" points="245.52,-81.3 254.42,-75.55 243.87,-74.49 245.52,-81.3"/>
</g>
<!-- key 18515
bias &#45;0.407
h_scaling 0.836 -->
<g id="node7" class="node">
<title>key 18515
bias &#45;0.407
h_scaling 0.836</title>
<ellipse fill="white" stroke="black" cx="151" cy="-226.92" rx="63.78" ry="63.78"/>
<text text-anchor="middle" x="151" y="-234.72" font-family="Times,serif" font-size="9.00">key 18515</text>
<text text-anchor="middle" x="151" y="-224.72" font-family="Times,serif" font-size="9.00">bias &#45;0.407</text>
<text text-anchor="middle" x="151" y="-214.72" font-family="Times,serif" font-size="9.00">h_scaling 0.836</text>
</g>
<!-- ready&#45;&gt;key 18515
bias &#45;0.407
h_scaling 0.836 -->
<g id="edge5" class="edge">
<title>ready&#45;&gt;key 18515
bias &#45;0.407
h_scaling 0.836</title>
<path fill="none" stroke="red" stroke-width="1.04" d="M37.78,-816.24C36.7,-768.18 34.37,-517.42 96,-326.56 100.01,-314.14 105.65,-301.52 111.8,-289.63"/>
<polygon fill="red" stroke="red" stroke-width="1.04" points="114.95,-291.17 116.59,-280.7 108.78,-287.86 114.95,-291.17"/>
</g>
<!-- go -->
<g id="node2" class="node">
<title>go</title>
<polygon fill="green" stroke="black" points="388,-834.4 360,-834.4 360,-816.4 388,-816.4 388,-834.4"/>
<text text-anchor="middle" x="374" y="-823.2" font-family="Times,serif" font-size="9.00">go</text>
</g>
<!-- go&#45;&gt;key 117952
bias 0.044
h_scaling 0.950 -->
<g id="edge14" class="edge">
<title>go&#45;&gt;key 117952
bias 0.044
h_scaling 0.950</title>
<path fill="none" stroke="blue" stroke-width="3.07" d="M361.37,-816.38C341.68,-803.88 302.35,-778.91 268.19,-757.23"/>
<polygon fill="blue" stroke="blue" stroke-width="3.07" points="269.95,-754.2 259.63,-751.8 266.2,-760.11 269.95,-754.2"/>
</g>
<!-- go&#45;&gt;key 7184
bias &#45;0.067
h_scaling 0.007 -->
<g id="edge2" class="edge">
<title>go&#45;&gt;key 7184
bias &#45;0.067
h_scaling 0.007</title>
<path fill="none" stroke="red" stroke-width="3.1" d="M376.83,-816.39C379.81,-807.66 384.42,-793.2 387,-780.4 406.95,-681.36 412,-655.5 412,-554.48 412,-554.48 412,-554.48 412,-389.2 412,-296.59 375.93,-194.88 348.24,-130.45"/>
<polygon fill="red" stroke="red" stroke-width="3.1" points="351.42,-128.99 344.22,-121.22 345.01,-131.78 351.42,-128.99"/>
</g>
<!-- go&#45;&gt;key 18515
bias &#45;0.407
h_scaling 0.836 -->
<g id="edge9" class="edge">
<title>go&#45;&gt;key 18515
bias &#45;0.407
h_scaling 0.836</title>
<path fill="none" stroke="blue" stroke-width="0.96" d="M374.49,-816.36C377.11,-766.88 385.71,-500.07 279,-326.56 263.42,-301.23 238.81,-279.97 215.3,-263.75"/>
<polygon fill="blue" stroke="blue" stroke-width="0.96" points="216.97,-260.65 206.71,-258 213.08,-266.47 216.97,-260.65"/>
</g>
<!-- output
bias &#45;0.201
h_scaling 0.555 -->
<g id="node3" class="node">
<title>output
bias &#45;0.201
h_scaling 0.555</title>
<ellipse fill="lightblue" stroke="black" cx="206" cy="-553.48" rx="63.78" ry="63.78"/>
<text text-anchor="middle" x="206" y="-561.28" font-family="Times,serif" font-size="9.00">output</text>
<text text-anchor="middle" x="206" y="-551.28" font-family="Times,serif" font-size="9.00">bias &#45;0.201</text>
<text text-anchor="middle" x="206" y="-541.28" font-family="Times,serif" font-size="9.00">h_scaling 0.555</text>
</g>
<!-- output
bias &#45;0.201
h_scaling 0.555&#45;&gt;key 117952
bias 0.044
h_scaling 0.950 -->
<g id="edge16" class="edge">
<title>output
bias &#45;0.201
h_scaling 0.555&#45;&gt;key 117952
bias 0.044
h_scaling 0.950</title>
<path fill="none" stroke="blue" stroke-width="0.53" d="M212.6,-616.93C212.74,-625.54 212.79,-634.43 212.72,-643.2"/>
<polygon fill="blue" stroke="blue" stroke-width="0.53" points="209.22,-643.36 212.59,-653.4 216.22,-643.45 209.22,-643.36"/>
</g>
<!-- key 393555
bias &#45;0.967
h_scaling 0.519 -->
<g id="node6" class="node">
<title>key 393555
bias &#45;0.967
h_scaling 0.519</title>
<ellipse fill="white" stroke="black" cx="206" cy="-390.2" rx="63.78" ry="63.78"/>
<text text-anchor="middle" x="206" y="-398" font-family="Times,serif" font-size="9.00">key 393555</text>
<text text-anchor="middle" x="206" y="-388" font-family="Times,serif" font-size="9.00">bias &#45;0.967</text>
<text text-anchor="middle" x="206" y="-378" font-family="Times,serif" font-size="9.00">h_scaling 0.519</text>
</g>
<!-- output
bias &#45;0.201
h_scaling 0.555&#45;&gt;key 393555
bias &#45;0.967
h_scaling 0.519 -->
<g id="edge18" class="edge">
<title>output
bias &#45;0.201
h_scaling 0.555&#45;&gt;key 393555
bias &#45;0.967
h_scaling 0.519</title>
<path fill="none" stroke="red" stroke-width="0.19" d="M206,-489.66C206,-481.21 206,-472.48 206,-463.87"/>
<polygon fill="red" stroke="red" stroke-width="0.19" points="209.5,-463.84 206,-453.84 202.5,-463.84 209.5,-463.84"/>
</g>
<!-- output
bias &#45;0.201
h_scaling 0.555&#45;&gt;key 18515
bias &#45;0.407
h_scaling 0.836 -->
<g id="edge8" class="edge">
<title>output
bias &#45;0.201
h_scaling 0.555&#45;&gt;key 18515
bias &#45;0.407
h_scaling 0.836</title>
<path fill="none" stroke="blue" stroke-width="0.44" d="M162.45,-506.32C150.54,-490.82 139.21,-472.65 133,-453.84 116.45,-403.64 122.22,-343.91 131.45,-298.48"/>
<polygon fill="blue" stroke="blue" stroke-width="0.44" points="134.93,-298.94 133.6,-288.43 128.09,-297.48 134.93,-298.94"/>
</g>
<!-- key 117952
bias 0.044
h_scaling 0.950&#45;&gt;output
bias &#45;0.201
h_scaling 0.555 -->
<g id="edge10" class="edge">
<title>key 117952
bias 0.044
h_scaling 0.950&#45;&gt;output
bias &#45;0.201
h_scaling 0.555</title>
<path fill="none" stroke="red" stroke-width="3.08" d="M199.41,-653.4C199.26,-644.8 199.21,-635.91 199.28,-627.14"/>
<polygon fill="red" stroke="red" stroke-width="3.08" points="202.78,-626.97 199.4,-616.93 195.78,-626.89 202.78,-626.97"/>
</g>
<!-- key 117952
bias 0.044
h_scaling 0.950&#45;&gt;key 117952
bias 0.044
h_scaling 0.950 -->
<g id="edge12" class="edge">
<title>key 117952
bias 0.044
h_scaling 0.950&#45;&gt;key 117952
bias 0.044
h_scaling 0.950</title>
<path fill="none" stroke="red" stroke-width="2.16" d="M266.88,-736.17C279,-733.99 287.64,-727.51 287.64,-716.76 287.64,-709.19 283.37,-703.75 276.62,-700.42"/>
<polygon fill="red" stroke="red" stroke-width="2.16" points="277.47,-697.02 266.88,-697.34 275.36,-703.69 277.47,-697.02"/>
</g>
<!-- key 7184
bias &#45;0.067
h_scaling 0.007&#45;&gt;output
bias &#45;0.201
h_scaling 0.555 -->
<g id="edge1" class="edge">
<title>key 7184
bias &#45;0.067
h_scaling 0.007&#45;&gt;output
bias &#45;0.201
h_scaling 0.555</title>
<path fill="none" stroke="blue" stroke-width="3.1" d="M320.94,-127.3C323.67,-206.22 320.98,-344.69 279,-453.84 273.11,-469.15 264.16,-484.18 254.52,-497.71"/>
<polygon fill="blue" stroke="blue" stroke-width="3.1" points="251.57,-495.8 248.45,-505.92 257.2,-499.96 251.57,-495.8"/>
</g>
<!-- key 7184
bias &#45;0.067
h_scaling 0.007&#45;&gt;key 117952
bias 0.044
h_scaling 0.950 -->
<g id="edge11" class="edge">
<title>key 7184
bias &#45;0.067
h_scaling 0.007&#45;&gt;key 117952
bias 0.044
h_scaling 0.950</title>
<path fill="none" stroke="blue" stroke-width="2.94" d="M325.65,-127C337.56,-232.72 350.17,-451.76 279,-617.12 272.55,-632.11 263.42,-646.96 253.8,-660.41"/>
<polygon fill="blue" stroke="blue" stroke-width="2.94" points="250.88,-658.47 247.76,-668.6 256.51,-662.63 250.88,-658.47"/>
</g>
<!-- key 7184
bias &#45;0.067
h_scaling 0.007&#45;&gt;key 7184
bias &#45;0.067
h_scaling 0.007 -->
<g id="edge3" class="edge">
<title>key 7184
bias &#45;0.067
h_scaling 0.007&#45;&gt;key 7184
bias &#45;0.067
h_scaling 0.007</title>
<path fill="none" stroke="red" stroke-width="2.69" d="M373.47,-93.65C387.85,-91.68 398.64,-81.67 398.64,-63.64 398.64,-49.97 392.44,-40.92 383.18,-36.47"/>
<polygon fill="red" stroke="red" stroke-width="2.69" points="384.05,-33.08 373.47,-33.63 382.08,-39.8 384.05,-33.08"/>
</g>
<!-- key 393555
bias &#45;0.967
h_scaling 0.519&#45;&gt;key 18515
bias &#45;0.407
h_scaling 0.836 -->
<g id="edge19" class="edge">
<title>key 393555
bias &#45;0.967
h_scaling 0.519&#45;&gt;key 18515
bias &#45;0.407
h_scaling 0.836</title>
<path fill="none" stroke="blue" stroke-width="2.16" d="M185.68,-329.6C182.03,-318.91 178.21,-307.7 174.48,-296.77"/>
<polygon fill="blue" stroke="blue" stroke-width="2.16" points="177.78,-295.61 171.24,-287.27 171.16,-297.86 177.78,-295.61"/>
</g>
<!-- key 18515
bias &#45;0.407
h_scaling 0.836&#45;&gt;key 117952
bias 0.044
h_scaling 0.950 -->
<g id="edge15" class="edge">
<title>key 18515
bias &#45;0.407
h_scaling 0.836&#45;&gt;key 117952
bias 0.044
h_scaling 0.950</title>
<path fill="none" stroke="red" stroke-width="1.51" d="M128.02,-286.34C123.86,-299.38 120.16,-313.28 118,-326.56 97.22,-454.19 86.92,-496.3 133,-617.12 138.85,-632.45 147.78,-647.48 157.42,-661.01"/>
<polygon fill="red" stroke="red" stroke-width="1.51" points="154.73,-663.26 163.49,-669.23 160.36,-659.1 154.73,-663.26"/>
</g>
<!-- key 18515
bias &#45;0.407
h_scaling 0.836&#45;&gt;key 7184
bias &#45;0.067
h_scaling 0.007 -->
<g id="edge6" class="edge">
<title>key 18515
bias &#45;0.407
h_scaling 0.836&#45;&gt;key 7184
bias &#45;0.067
h_scaling 0.007</title>
<path fill="none" stroke="blue" stroke-width="2.23" d="M196.36,-181.85C217.4,-161.4 242.54,-136.98 264.41,-115.73"/>
<polygon fill="blue" stroke="blue" stroke-width="2.23" points="266.96,-118.14 271.69,-108.66 262.08,-113.11 266.96,-118.14"/>
</g>
<!-- key 18515
bias &#45;0.407
h_scaling 0.836&#45;&gt;key 18515
bias &#45;0.407
h_scaling 0.836 -->
<g id="edge7" class="edge">
<title>key 18515
bias &#45;0.407
h_scaling 0.836&#45;&gt;key 18515
bias &#45;0.407
h_scaling 0.836</title>
<path fill="none" stroke="red" stroke-width="2.73" d="M207.47,-256.93C221.85,-254.96 232.64,-244.95 232.64,-226.92 232.64,-213.25 226.44,-204.2 217.18,-199.75"/>
<polygon fill="red" stroke="red" stroke-width="2.73" points="218.05,-196.36 207.47,-196.91 216.08,-203.08 218.05,-196.36"/>
</g>
<!-- key 348153
bias &#45;0.935
h_scaling 0.780 -->
<g id="node8" class="node">
<title>key 348153
bias &#45;0.935
h_scaling 0.780</title>
<ellipse fill="white" stroke="black" cx="504" cy="-226.92" rx="63.78" ry="63.78"/>
<text text-anchor="middle" x="504" y="-234.72" font-family="Times,serif" font-size="9.00">key 348153</text>
<text text-anchor="middle" x="504" y="-224.72" font-family="Times,serif" font-size="9.00">bias &#45;0.935</text>
<text text-anchor="middle" x="504" y="-214.72" font-family="Times,serif" font-size="9.00">h_scaling 0.780</text>
</g>
<!-- key 348153
bias &#45;0.935
h_scaling 0.780&#45;&gt;key 7184
bias &#45;0.067
h_scaling 0.007 -->
<g id="edge17" class="edge">
<title>key 348153
bias &#45;0.935
h_scaling 0.780&#45;&gt;key 7184
bias &#45;0.067
h_scaling 0.007</title>
<path fill="none" stroke="blue" stroke-width="0.99" d="M455.84,-184.39C430.43,-162.47 399.12,-135.47 372.67,-112.66"/>
<polygon fill="blue" stroke="blue" stroke-width="0.99" points="374.85,-109.91 364.99,-106.03 370.28,-115.21 374.85,-109.91"/>
</g>
</g>
</svg>
