<?xml version="1.0" encoding="UTF-8" standalone="no"?>
<!DOCTYPE svg PUBLIC "-//W3C//DTD SVG 1.1//EN"
 "http://www.w3.org/Graphics/SVG/1.1/DTD/svg11.dtd">
<!-- Generated by graphviz version 2.43.0 (0)
 -->
<!-- Title: %3 Pages: 1 -->
<svg width="444pt" height="1057pt"
 viewBox="0.00 0.00 444.00 1056.68" xmlns="http://www.w3.org/2000/svg" xmlns:xlink="http://www.w3.org/1999/xlink">
<g id="graph0" class="graph" transform="scale(1 1) rotate(0) translate(4 1052.68)">
<title>%3</title>
<polygon fill="white" stroke="transparent" points="-4,4 -4,-1052.68 440,-1052.68 440,4 -4,4"/>
<!-- ready -->
<g id="node1" class="node">
<title>ready</title>
<polygon fill="yellow" stroke="black" points="179.5,-1048.68 136.5,-1048.68 136.5,-1030.68 179.5,-1030.68 179.5,-1048.68"/>
<text text-anchor="middle" x="158" y="-1037.48" font-family="Times,serif" font-size="9.00">ready</text>
</g>
<!-- key 3655
bias &#45;0.415
h_scaling 0.197 -->
<g id="node4" class="node">
<title>key 3655
bias &#45;0.415
h_scaling 0.197</title>
<ellipse fill="white" stroke="black" cx="298" cy="-921.04" rx="63.78" ry="63.78"/>
<text text-anchor="middle" x="298" y="-928.84" font-family="Times,serif" font-size="9.00">key 3655</text>
<text text-anchor="middle" x="298" y="-918.84" font-family="Times,serif" font-size="9.00">bias &#45;0.415</text>
<text text-anchor="middle" x="298" y="-908.84" font-family="Times,serif" font-size="9.00">h_scaling 0.197</text>
</g>
<!-- ready&#45;&gt;key 3655
bias &#45;0.415
h_scaling 0.197 -->
<g id="edge4" class="edge">
<title>ready&#45;&gt;key 3655
bias &#45;0.415
h_scaling 0.197</title>
<path fill="none" stroke="blue" stroke-width="0.1" d="M167.62,-1030.66C182.87,-1017.96 213.71,-992.26 241.57,-969.05"/>
<polygon fill="blue" stroke="blue" stroke-width="0.1" points="243.89,-971.67 249.33,-962.58 239.41,-966.29 243.89,-971.67"/>
</g>
<!-- key 216592
bias &#45;0.280
h_scaling 0.966 -->
<g id="node6" class="node">
<title>key 216592
bias &#45;0.280
h_scaling 0.966</title>
<ellipse fill="white" stroke="black" cx="158" cy="-574.48" rx="63.78" ry="63.78"/>
<text text-anchor="middle" x="158" y="-582.28" font-family="Times,serif" font-size="9.00">key 216592</text>
<text text-anchor="middle" x="158" y="-572.28" font-family="Times,serif" font-size="9.00">bias &#45;0.280</text>
<text text-anchor="middle" x="158" y="-562.28" font-family="Times,serif" font-size="9.00">h_scaling 0.966</text>
</g>
<!-- ready&#45;&gt;key 216592
bias &#45;0.280
h_scaling 0.966 -->
<g id="edge6" class="edge">
<title>ready&#45;&gt;key 216592
bias &#45;0.280
h_scaling 0.966</title>
<path fill="none" stroke="red" stroke-width="0.6" d="M158,-1030.64C158,-985.91 158,-765.61 158,-648.69"/>
<polygon fill="red" stroke="red" stroke-width="0.6" points="161.5,-648.39 158,-638.39 154.5,-648.39 161.5,-648.39"/>
<text text-anchor="middle" x="172" y="-832.2" font-family="Times,serif" font-size="9.00">0.017</text>
</g>
<!-- key 219100
bias &#45;0.601
h_scaling 0.705 -->
<g id="node9" class="node">
<title>key 219100
bias &#45;0.601
h_scaling 0.705</title>
<ellipse fill="white" stroke="black" cx="135" cy="-401.2" rx="63.78" ry="63.78"/>
<text text-anchor="middle" x="135" y="-409" font-family="Times,serif" font-size="9.00">key 219100</text>
<text text-anchor="middle" x="135" y="-399" font-family="Times,serif" font-size="9.00">bias &#45;0.601</text>
<text text-anchor="middle" x="135" y="-389" font-family="Times,serif" font-size="9.00">h_scaling 0.705</text>
</g>
<!-- ready&#45;&gt;key 219100
bias &#45;0.601
h_scaling 0.705 -->
<g id="edge8" class="edge">
<title>ready&#45;&gt;key 219100
bias &#45;0.601
h_scaling 0.705</title>
<path fill="none" stroke="red" stroke-width="0.79" d="M136.36,-1033.56C93.09,-1021.9 0,-989.03 0,-922.04 0,-922.04 0,-922.04 0,-573.48 0,-545.59 44.71,-493.07 82.67,-453.51"/>
<polygon fill="red" stroke="red" stroke-width="0.79" points="85.23,-455.9 89.67,-446.28 80.2,-451.03 85.23,-455.9"/>
<text text-anchor="middle" x="14" y="-745.56" font-family="Times,serif" font-size="9.00">0.023</text>
</g>
<!-- go -->
<g id="node2" class="node">
<title>go</title>
<polygon fill="green" stroke="black" points="312,-1048.68 284,-1048.68 284,-1030.68 312,-1030.68 312,-1048.68"/>
<text text-anchor="middle" x="298" y="-1037.48" font-family="Times,serif" font-size="9.00">go</text>
</g>
<!-- go&#45;&gt;key 3655
bias &#45;0.415
h_scaling 0.197 -->
<g id="edge2" class="edge">
<title>go&#45;&gt;key 3655
bias &#45;0.415
h_scaling 0.197</title>
<path fill="none" stroke="red" stroke-width="0.69" d="M298,-1030.66C298,-1022.63 298,-1009.41 298,-994.91"/>
<polygon fill="red" stroke="red" stroke-width="0.69" points="301.5,-994.71 298,-984.71 294.5,-994.71 301.5,-994.71"/>
<text text-anchor="middle" x="312" y="-1005.48" font-family="Times,serif" font-size="9.00">0.020</text>
</g>
<!-- output
bias 0.632
h_scaling 0.000 -->
<g id="node3" class="node">
<title>output
bias 0.632
h_scaling 0.000</title>
<ellipse fill="lightblue" stroke="black" cx="344" cy="-747.76" rx="63.78" ry="63.78"/>
<text text-anchor="middle" x="344" y="-755.56" font-family="Times,serif" font-size="9.00">output</text>
<text text-anchor="middle" x="344" y="-745.56" font-family="Times,serif" font-size="9.00">bias 0.632</text>
<text text-anchor="middle" x="344" y="-735.56" font-family="Times,serif" font-size="9.00">h_scaling 0.000</text>
</g>
<!-- output
bias 0.632
h_scaling 0.000&#45;&gt;key 216592
bias &#45;0.280
h_scaling 0.966 -->
<g id="edge11" class="edge">
<title>output
bias 0.632
h_scaling 0.000&#45;&gt;key 216592
bias &#45;0.280
h_scaling 0.966</title>
<path fill="none" stroke="blue" stroke-width="0.1" d="M312.85,-691.69C304.4,-679.21 294.62,-666.58 284,-656.12 266.19,-638.58 243.96,-622.83 223.15,-610"/>
<polygon fill="blue" stroke="blue" stroke-width="0.1" points="224.71,-606.85 214.34,-604.69 221.09,-612.85 224.71,-606.85"/>
</g>
<!-- key 313467
bias 0.006
h_scaling 0.543 -->
<g id="node8" class="node">
<title>key 313467
bias 0.006
h_scaling 0.543</title>
<ellipse fill="white" stroke="black" cx="334" cy="-63.64" rx="63.78" ry="63.78"/>
<text text-anchor="middle" x="334" y="-71.44" font-family="Times,serif" font-size="9.00">key 313467</text>
<text text-anchor="middle" x="334" y="-61.44" font-family="Times,serif" font-size="9.00">bias 0.006</text>
<text text-anchor="middle" x="334" y="-51.44" font-family="Times,serif" font-size="9.00">h_scaling 0.543</text>
</g>
<!-- output
bias 0.632
h_scaling 0.000&#45;&gt;key 313467
bias 0.006
h_scaling 0.543 -->
<g id="edge17" class="edge">
<title>output
bias 0.632
h_scaling 0.000&#45;&gt;key 313467
bias 0.006
h_scaling 0.543</title>
<path fill="none" stroke="red" stroke-width="0.58" d="M362.95,-686.76C371.62,-654.18 380,-613 380,-575.48 380,-575.48 380,-575.48 380,-226.92 380,-194.95 371.64,-160.74 362.04,-132.01"/>
<polygon fill="red" stroke="red" stroke-width="0.58" points="365.33,-130.8 358.75,-122.49 358.71,-133.09 365.33,-130.8"/>
<text text-anchor="middle" x="394" y="-399" font-family="Times,serif" font-size="9.00">0.016</text>
</g>
<!-- key 3655
bias &#45;0.415
h_scaling 0.197&#45;&gt;output
bias 0.632
h_scaling 0.000 -->
<g id="edge1" class="edge">
<title>key 3655
bias &#45;0.415
h_scaling 0.197&#45;&gt;output
bias 0.632
h_scaling 0.000</title>
<path fill="none" stroke="blue" stroke-width="0.1" d="M314.35,-859.17C317.8,-846.29 321.48,-832.6 325.03,-819.41"/>
<polygon fill="blue" stroke="blue" stroke-width="0.1" points="328.49,-820 327.71,-809.43 321.73,-818.18 328.49,-820"/>
</g>
<!-- key 3655
bias &#45;0.415
h_scaling 0.197&#45;&gt;key 3655
bias &#45;0.415
h_scaling 0.197 -->
<g id="edge3" class="edge">
<title>key 3655
bias &#45;0.415
h_scaling 0.197&#45;&gt;key 3655
bias &#45;0.415
h_scaling 0.197</title>
<path fill="none" stroke="red" stroke-width="0.99" d="M359.94,-936.33C371.5,-934.45 379.64,-929.35 379.64,-921.04 379.64,-915.32 375.79,-911.12 369.63,-908.45"/>
<polygon fill="red" stroke="red" stroke-width="0.99" points="370.52,-905.06 359.94,-905.74 368.63,-911.8 370.52,-905.06"/>
<text text-anchor="middle" x="393.64" y="-918.84" font-family="Times,serif" font-size="9.00">0.030</text>
</g>
<!-- key 274635
bias &#45;0.492
h_scaling 0.986 -->
<g id="node5" class="node">
<title>key 274635
bias &#45;0.492
h_scaling 0.986</title>
<ellipse fill="white" stroke="black" cx="280" cy="-401.2" rx="63.78" ry="63.78"/>
<text text-anchor="middle" x="280" y="-409" font-family="Times,serif" font-size="9.00">key 274635</text>
<text text-anchor="middle" x="280" y="-399" font-family="Times,serif" font-size="9.00">bias &#45;0.492</text>
<text text-anchor="middle" x="280" y="-389" font-family="Times,serif" font-size="9.00">h_scaling 0.986</text>
</g>
<!-- key 3655
bias &#45;0.415
h_scaling 0.197&#45;&gt;key 274635
bias &#45;0.492
h_scaling 0.986 -->
<g id="edge12" class="edge">
<title>key 3655
bias &#45;0.415
h_scaling 0.197&#45;&gt;key 274635
bias &#45;0.492
h_scaling 0.986</title>
<path fill="none" stroke="red" stroke-width="0.71" d="M280.29,-859.9C276.44,-844.25 272.95,-827.31 271,-811.4 256.64,-694.09 264.74,-556.5 272.17,-474.49"/>
<polygon fill="red" stroke="red" stroke-width="0.71" points="275.66,-474.8 273.1,-464.52 268.69,-474.15 275.66,-474.8"/>
<text text-anchor="middle" x="278" y="-658.92" font-family="Times,serif" font-size="9.00">0.020</text>
</g>
<!-- key 274635
bias &#45;0.492
h_scaling 0.986&#45;&gt;output
bias 0.632
h_scaling 0.000 -->
<g id="edge13" class="edge">
<title>key 274635
bias &#45;0.492
h_scaling 0.986&#45;&gt;output
bias 0.632
h_scaling 0.000</title>
<path fill="none" stroke="blue" stroke-width="0.1" d="M291.48,-463.99C302.46,-523.11 319.02,-612.25 330.6,-674.6"/>
<polygon fill="blue" stroke="blue" stroke-width="0.1" points="327.22,-675.57 332.48,-684.76 334.1,-674.29 327.22,-675.57"/>
</g>
<!-- key 213616
bias &#45;0.515
h_scaling 0.485 -->
<g id="node7" class="node">
<title>key 213616
bias &#45;0.515
h_scaling 0.485</title>
<ellipse fill="white" stroke="black" cx="284" cy="-227.92" rx="63.78" ry="63.78"/>
<text text-anchor="middle" x="284" y="-235.72" font-family="Times,serif" font-size="9.00">key 213616</text>
<text text-anchor="middle" x="284" y="-225.72" font-family="Times,serif" font-size="9.00">bias &#45;0.515</text>
<text text-anchor="middle" x="284" y="-215.72" font-family="Times,serif" font-size="9.00">h_scaling 0.485</text>
</g>
<!-- key 274635
bias &#45;0.492
h_scaling 0.986&#45;&gt;key 213616
bias &#45;0.515
h_scaling 0.485 -->
<g id="edge15" class="edge">
<title>key 274635
bias &#45;0.492
h_scaling 0.986&#45;&gt;key 213616
bias &#45;0.515
h_scaling 0.485</title>
<path fill="none" stroke="red" stroke-width="0.94" d="M281.47,-337.39C281.74,-325.87 282.02,-313.76 282.29,-301.97"/>
<polygon fill="red" stroke="red" stroke-width="0.94" points="285.8,-301.8 282.53,-291.72 278.8,-301.63 285.8,-301.8"/>
<text text-anchor="middle" x="296" y="-312.36" font-family="Times,serif" font-size="9.00">0.028</text>
</g>
<!-- key 216592
bias &#45;0.280
h_scaling 0.966&#45;&gt;key 274635
bias &#45;0.492
h_scaling 0.986 -->
<g id="edge14" class="edge">
<title>key 216592
bias &#45;0.280
h_scaling 0.966&#45;&gt;key 274635
bias &#45;0.492
h_scaling 0.986</title>
<path fill="none" stroke="red" stroke-width="0.93" d="M187.68,-517.77C194.6,-505.97 202.22,-493.78 210,-482.84 216.25,-474.04 223.27,-465.08 230.4,-456.48"/>
<polygon fill="red" stroke="red" stroke-width="0.93" points="233.19,-458.61 236.95,-448.7 227.83,-454.1 233.19,-458.61"/>
<text text-anchor="middle" x="224" y="-485.64" font-family="Times,serif" font-size="9.00">0.028</text>
</g>
<!-- key 216592
bias &#45;0.280
h_scaling 0.966&#45;&gt;key 213616
bias &#45;0.515
h_scaling 0.485 -->
<g id="edge7" class="edge">
<title>key 216592
bias &#45;0.280
h_scaling 0.966&#45;&gt;key 213616
bias &#45;0.515
h_scaling 0.485</title>
<path fill="none" stroke="red" stroke-width="0.89" d="M103.5,-541.48C77.26,-522.8 48.42,-496.64 34,-464.84 10.64,-413.32 2.98,-384.86 34,-337.56 72.88,-278.26 151.89,-251.16 210.73,-238.88"/>
<polygon fill="red" stroke="red" stroke-width="0.89" points="211.61,-242.28 220.73,-236.9 210.24,-235.41 211.61,-242.28"/>
<text text-anchor="middle" x="48" y="-399" font-family="Times,serif" font-size="9.00">0.026</text>
</g>
<!-- key 216592
bias &#45;0.280
h_scaling 0.966&#45;&gt;key 219100
bias &#45;0.601
h_scaling 0.705 -->
<g id="edge10" class="edge">
<title>key 216592
bias &#45;0.280
h_scaling 0.966&#45;&gt;key 219100
bias &#45;0.601
h_scaling 0.705</title>
<path fill="none" stroke="red" stroke-width="0.53" d="M124.83,-519.85C120.78,-511.1 117.27,-501.92 115,-492.84 113.29,-486.01 112.75,-478.87 113.03,-471.73"/>
<polygon fill="red" stroke="red" stroke-width="0.53" points="116.55,-471.58 113.97,-461.3 109.58,-470.95 116.55,-471.58"/>
<text text-anchor="middle" x="129" y="-485.64" font-family="Times,serif" font-size="9.00">0.014</text>
</g>
<!-- key 213616
bias &#45;0.515
h_scaling 0.485&#45;&gt;key 3655
bias &#45;0.415
h_scaling 0.197 -->
<g id="edge5" class="edge">
<title>key 213616
bias &#45;0.515
h_scaling 0.485&#45;&gt;key 3655
bias &#45;0.415
h_scaling 0.197</title>
<path fill="none" stroke="blue" stroke-width="0.1" d="M338.88,-260.83C382.41,-290.72 436,-339.77 436,-400.2 436,-748.76 436,-748.76 436,-748.76 436,-801.7 395.53,-847.53 358.42,-878.43"/>
<polygon fill="blue" stroke="blue" stroke-width="0.1" points="356.13,-875.78 350.57,-884.79 360.54,-881.21 356.13,-875.78"/>
</g>
<!-- key 213616
bias &#45;0.515
h_scaling 0.485&#45;&gt;key 313467
bias 0.006
h_scaling 0.543 -->
<g id="edge16" class="edge">
<title>key 213616
bias &#45;0.515
h_scaling 0.485&#45;&gt;key 313467
bias 0.006
h_scaling 0.543</title>
<path fill="none" stroke="blue" stroke-width="0.1" d="M302.48,-166.95C305.73,-156.38 309.15,-145.28 312.49,-134.47"/>
<polygon fill="blue" stroke="blue" stroke-width="0.1" points="315.92,-135.22 315.52,-124.63 309.23,-133.16 315.92,-135.22"/>
</g>
<!-- key 219100
bias &#45;0.601
h_scaling 0.705&#45;&gt;key 216592
bias &#45;0.280
h_scaling 0.966 -->
<g id="edge9" class="edge">
<title>key 219100
bias &#45;0.601
h_scaling 0.705&#45;&gt;key 216592
bias &#45;0.280
h_scaling 0.966</title>
<path fill="none" stroke="red" stroke-width="0.53" d="M143.36,-464.47C144.96,-476.35 146.64,-488.88 148.27,-501.05"/>
<polygon fill="red" stroke="red" stroke-width="0.53" points="144.83,-501.71 149.63,-511.16 151.77,-500.78 144.83,-501.71"/>
<text text-anchor="middle" x="161" y="-485.64" font-family="Times,serif" font-size="9.00">0.014</text>
</g>
</g>
</svg>
