<?xml version="1.0" encoding="UTF-8" standalone="no"?>
<!DOCTYPE svg PUBLIC "-//W3C//DTD SVG 1.1//EN"
 "http://www.w3.org/Graphics/SVG/1.1/DTD/svg11.dtd">
<!-- Generated by graphviz version 2.43.0 (0)
 -->
<!-- Title: %3 Pages: 1 -->
<svg width="475pt" height="1066pt"
 viewBox="0.00 0.00 475.00 1065.68" xmlns="http://www.w3.org/2000/svg" xmlns:xlink="http://www.w3.org/1999/xlink">
<g id="graph0" class="graph" transform="scale(1 1) rotate(0) translate(4 1061.68)">
<title>%3</title>
<polygon fill="white" stroke="transparent" points="-4,4 -4,-1061.68 471,-1061.68 471,4 -4,4"/>
<!-- ready -->
<g id="node1" class="node">
<title>ready</title>
<polygon fill="yellow" stroke="black" points="155.5,-1057.68 112.5,-1057.68 112.5,-1039.68 155.5,-1039.68 155.5,-1057.68"/>
<text text-anchor="middle" x="134" y="-1046.48" font-family="Times,serif" font-size="9.00">ready</text>
</g>
<!-- key 3655
bias &#45;0.415
h_scaling 0.197 -->
<g id="node4" class="node">
<title>key 3655
bias &#45;0.415
h_scaling 0.197</title>
<ellipse fill="white" stroke="black" cx="226" cy="-930.04" rx="63.78" ry="63.78"/>
<text text-anchor="middle" x="226" y="-937.84" font-family="Times,serif" font-size="9.00">key 3655</text>
<text text-anchor="middle" x="226" y="-927.84" font-family="Times,serif" font-size="9.00">bias &#45;0.415</text>
<text text-anchor="middle" x="226" y="-917.84" font-family="Times,serif" font-size="9.00">h_scaling 0.197</text>
</g>
<!-- ready&#45;&gt;key 3655
bias &#45;0.415
h_scaling 0.197 -->
<g id="edge4" class="edge">
<title>ready&#45;&gt;key 3655
bias &#45;0.415
h_scaling 0.197</title>
<path fill="none" stroke="blue" stroke-width="0.84" d="M140.32,-1039.66C148.85,-1028.84 164.81,-1008.61 180.66,-988.52"/>
<polygon fill="blue" stroke="blue" stroke-width="0.84" points="183.51,-990.56 186.95,-980.54 178.01,-986.23 183.51,-990.56"/>
<text text-anchor="middle" x="177.5" y="-1014.48" font-family="Times,serif" font-size="9.00">&#45;0.248</text>
</g>
<!-- key 216592
bias &#45;0.280
h_scaling 0.966 -->
<g id="node6" class="node">
<title>key 216592
bias &#45;0.280
h_scaling 0.966</title>
<ellipse fill="white" stroke="black" cx="134" cy="-583.48" rx="63.78" ry="63.78"/>
<text text-anchor="middle" x="134" y="-591.28" font-family="Times,serif" font-size="9.00">key 216592</text>
<text text-anchor="middle" x="134" y="-581.28" font-family="Times,serif" font-size="9.00">bias &#45;0.280</text>
<text text-anchor="middle" x="134" y="-571.28" font-family="Times,serif" font-size="9.00">h_scaling 0.966</text>
</g>
<!-- ready&#45;&gt;key 216592
bias &#45;0.280
h_scaling 0.966 -->
<g id="edge6" class="edge">
<title>ready&#45;&gt;key 216592
bias &#45;0.280
h_scaling 0.966</title>
<path fill="none" stroke="red" stroke-width="2.45" d="M134,-1039.64C134,-994.91 134,-774.61 134,-657.69"/>
<polygon fill="red" stroke="red" stroke-width="2.45" points="137.5,-657.39 134,-647.39 130.5,-657.39 137.5,-657.39"/>
<text text-anchor="middle" x="148" y="-841.2" font-family="Times,serif" font-size="9.00">0.785</text>
</g>
<!-- key 219100
bias &#45;0.601
h_scaling 0.705 -->
<g id="node9" class="node">
<title>key 219100
bias &#45;0.601
h_scaling 0.705</title>
<ellipse fill="white" stroke="black" cx="135" cy="-410.2" rx="63.78" ry="63.78"/>
<text text-anchor="middle" x="135" y="-418" font-family="Times,serif" font-size="9.00">key 219100</text>
<text text-anchor="middle" x="135" y="-408" font-family="Times,serif" font-size="9.00">bias &#45;0.601</text>
<text text-anchor="middle" x="135" y="-398" font-family="Times,serif" font-size="9.00">h_scaling 0.705</text>
</g>
<!-- ready&#45;&gt;key 219100
bias &#45;0.601
h_scaling 0.705 -->
<g id="edge8" class="edge">
<title>ready&#45;&gt;key 219100
bias &#45;0.601
h_scaling 0.705</title>
<path fill="none" stroke="red" stroke-width="2.33" d="M112.47,-1040.33C74.59,-1025.88 0,-989.95 0,-931.04 0,-931.04 0,-931.04 0,-582.48 0,-554.59 44.71,-502.07 82.67,-462.51"/>
<polygon fill="red" stroke="red" stroke-width="2.33" points="85.23,-464.9 89.67,-455.28 80.2,-460.03 85.23,-464.9"/>
<text text-anchor="middle" x="14" y="-754.56" font-family="Times,serif" font-size="9.00">0.743</text>
</g>
<!-- go -->
<g id="node2" class="node">
<title>go</title>
<polygon fill="green" stroke="black" points="240,-1057.68 212,-1057.68 212,-1039.68 240,-1039.68 240,-1057.68"/>
<text text-anchor="middle" x="226" y="-1046.48" font-family="Times,serif" font-size="9.00">go</text>
</g>
<!-- go&#45;&gt;key 3655
bias &#45;0.415
h_scaling 0.197 -->
<g id="edge2" class="edge">
<title>go&#45;&gt;key 3655
bias &#45;0.415
h_scaling 0.197</title>
<path fill="none" stroke="red" stroke-width="3" d="M226,-1039.66C226,-1031.63 226,-1018.41 226,-1003.91"/>
<polygon fill="red" stroke="red" stroke-width="3" points="229.5,-1003.71 226,-993.71 222.5,-1003.71 229.5,-1003.71"/>
<text text-anchor="middle" x="240" y="-1014.48" font-family="Times,serif" font-size="9.00">0.966</text>
</g>
<!-- output
bias 0.632
h_scaling 0.000 -->
<g id="node3" class="node">
<title>output
bias 0.632
h_scaling 0.000</title>
<ellipse fill="lightblue" stroke="black" cx="320" cy="-756.76" rx="63.78" ry="63.78"/>
<text text-anchor="middle" x="320" y="-764.56" font-family="Times,serif" font-size="9.00">output</text>
<text text-anchor="middle" x="320" y="-754.56" font-family="Times,serif" font-size="9.00">bias 0.632</text>
<text text-anchor="middle" x="320" y="-744.56" font-family="Times,serif" font-size="9.00">h_scaling 0.000</text>
</g>
<!-- output
bias 0.632
h_scaling 0.000&#45;&gt;key 216592
bias &#45;0.280
h_scaling 0.966 -->
<g id="edge11" class="edge">
<title>output
bias 0.632
h_scaling 0.000&#45;&gt;key 216592
bias &#45;0.280
h_scaling 0.966</title>
<path fill="none" stroke="blue" stroke-width="0.7" d="M285.91,-702.4C276.4,-689.47 265.5,-676.19 254,-665.12 237.15,-648.89 216.66,-633.79 197.42,-621.14"/>
<polygon fill="blue" stroke="blue" stroke-width="0.7" points="199.27,-618.18 188.97,-615.7 195.48,-624.06 199.27,-618.18"/>
<text text-anchor="middle" x="278.5" y="-667.92" font-family="Times,serif" font-size="9.00">&#45;0.202</text>
</g>
<!-- key 313467
bias 0.006
h_scaling 0.543 -->
<g id="node8" class="node">
<title>key 313467
bias 0.006
h_scaling 0.543</title>
<ellipse fill="white" stroke="black" cx="334" cy="-63.64" rx="63.78" ry="63.78"/>
<text text-anchor="middle" x="334" y="-71.44" font-family="Times,serif" font-size="9.00">key 313467</text>
<text text-anchor="middle" x="334" y="-61.44" font-family="Times,serif" font-size="9.00">bias 0.006</text>
<text text-anchor="middle" x="334" y="-51.44" font-family="Times,serif" font-size="9.00">h_scaling 0.543</text>
</g>
<!-- output
bias 0.632
h_scaling 0.000&#45;&gt;key 313467
bias 0.006
h_scaling 0.543 -->
<g id="edge17" class="edge">
<title>output
bias 0.632
h_scaling 0.000&#45;&gt;key 313467
bias 0.006
h_scaling 0.543</title>
<path fill="none" stroke="red" stroke-width="2.33" d="M350,-700.36C365,-667.63 380,-624.81 380,-584.48 380,-584.48 380,-584.48 380,-235.92 380,-201.19 371.07,-163.81 361.08,-132.87"/>
<polygon fill="red" stroke="red" stroke-width="2.33" points="364.29,-131.43 357.81,-123.06 357.65,-133.65 364.29,-131.43"/>
<text text-anchor="middle" x="394" y="-408" font-family="Times,serif" font-size="9.00">0.745</text>
</g>
<!-- key 3655
bias &#45;0.415
h_scaling 0.197&#45;&gt;output
bias 0.632
h_scaling 0.000 -->
<g id="edge1" class="edge">
<title>key 3655
bias &#45;0.415
h_scaling 0.197&#45;&gt;output
bias 0.632
h_scaling 0.000</title>
<path fill="none" stroke="blue" stroke-width="3.1" d="M256.26,-873.9C265.4,-857.24 275.51,-838.82 284.94,-821.64"/>
<polygon fill="blue" stroke="blue" stroke-width="3.1" points="288.05,-823.24 289.8,-812.79 281.92,-819.87 288.05,-823.24"/>
<text text-anchor="middle" x="288.5" y="-841.2" font-family="Times,serif" font-size="9.00">&#45;1.000</text>
</g>
<!-- key 3655
bias &#45;0.415
h_scaling 0.197&#45;&gt;key 3655
bias &#45;0.415
h_scaling 0.197 -->
<g id="edge3" class="edge">
<title>key 3655
bias &#45;0.415
h_scaling 0.197&#45;&gt;key 3655
bias &#45;0.415
h_scaling 0.197</title>
<path fill="none" stroke="red" stroke-width="3.1" d="M287.94,-945.33C299.5,-943.45 307.64,-938.35 307.64,-930.04 307.64,-924.32 303.79,-920.12 297.63,-917.45"/>
<polygon fill="red" stroke="red" stroke-width="3.1" points="298.52,-914.06 287.94,-914.74 296.63,-920.8 298.52,-914.06"/>
<text text-anchor="middle" x="321.64" y="-927.84" font-family="Times,serif" font-size="9.00">1.000</text>
</g>
<!-- key 274635
bias &#45;0.492
h_scaling 0.986 -->
<g id="node5" class="node">
<title>key 274635
bias &#45;0.492
h_scaling 0.986</title>
<ellipse fill="white" stroke="black" cx="280" cy="-410.2" rx="63.78" ry="63.78"/>
<text text-anchor="middle" x="280" y="-418" font-family="Times,serif" font-size="9.00">key 274635</text>
<text text-anchor="middle" x="280" y="-408" font-family="Times,serif" font-size="9.00">bias &#45;0.492</text>
<text text-anchor="middle" x="280" y="-398" font-family="Times,serif" font-size="9.00">h_scaling 0.986</text>
</g>
<!-- key 3655
bias &#45;0.415
h_scaling 0.197&#45;&gt;key 274635
bias &#45;0.492
h_scaling 0.986 -->
<g id="edge12" class="edge">
<title>key 3655
bias &#45;0.415
h_scaling 0.197&#45;&gt;key 274635
bias &#45;0.492
h_scaling 0.986</title>
<path fill="none" stroke="red" stroke-width="3.1" d="M220.58,-866.43C217.01,-812.82 214.27,-733.65 222,-665.12 229.11,-602.03 245.87,-531.78 259.55,-481.18"/>
<polygon fill="red" stroke="red" stroke-width="3.1" points="262.98,-481.91 262.24,-471.34 256.23,-480.06 262.98,-481.91"/>
<text text-anchor="middle" x="236" y="-667.92" font-family="Times,serif" font-size="9.00">1.000</text>
</g>
<!-- key 274635
bias &#45;0.492
h_scaling 0.986&#45;&gt;output
bias 0.632
h_scaling 0.000 -->
<g id="edge13" class="edge">
<title>key 274635
bias &#45;0.492
h_scaling 0.986&#45;&gt;output
bias 0.632
h_scaling 0.000</title>
<path fill="none" stroke="blue" stroke-width="3.1" d="M287.26,-473.71C294.11,-532.72 304.38,-621.17 311.58,-683.25"/>
<polygon fill="blue" stroke="blue" stroke-width="3.1" points="308.13,-683.83 312.76,-693.36 315.08,-683.02 308.13,-683.83"/>
<text text-anchor="middle" x="322.5" y="-581.28" font-family="Times,serif" font-size="9.00">&#45;1.000</text>
</g>
<!-- key 213616
bias &#45;0.515
h_scaling 0.485 -->
<g id="node7" class="node">
<title>key 213616
bias &#45;0.515
h_scaling 0.485</title>
<ellipse fill="white" stroke="black" cx="284" cy="-236.92" rx="63.78" ry="63.78"/>
<text text-anchor="middle" x="284" y="-244.72" font-family="Times,serif" font-size="9.00">key 213616</text>
<text text-anchor="middle" x="284" y="-234.72" font-family="Times,serif" font-size="9.00">bias &#45;0.515</text>
<text text-anchor="middle" x="284" y="-224.72" font-family="Times,serif" font-size="9.00">h_scaling 0.485</text>
</g>
<!-- key 274635
bias &#45;0.492
h_scaling 0.986&#45;&gt;key 213616
bias &#45;0.515
h_scaling 0.485 -->
<g id="edge15" class="edge">
<title>key 274635
bias &#45;0.492
h_scaling 0.986&#45;&gt;key 213616
bias &#45;0.515
h_scaling 0.485</title>
<path fill="none" stroke="red" stroke-width="0.88" d="M281.47,-346.39C281.74,-334.87 282.02,-322.76 282.29,-310.97"/>
<polygon fill="red" stroke="red" stroke-width="0.88" points="285.8,-310.8 282.53,-300.72 278.8,-310.63 285.8,-310.8"/>
<text text-anchor="middle" x="296" y="-321.36" font-family="Times,serif" font-size="9.00">0.261</text>
</g>
<!-- key 216592
bias &#45;0.280
h_scaling 0.966&#45;&gt;key 274635
bias &#45;0.492
h_scaling 0.986 -->
<g id="edge14" class="edge">
<title>key 216592
bias &#45;0.280
h_scaling 0.966&#45;&gt;key 274635
bias &#45;0.492
h_scaling 0.986</title>
<path fill="none" stroke="red" stroke-width="0.41" d="M162.03,-526.19C169.1,-514.3 177.2,-502.22 186,-491.84 194.17,-482.2 198.34,-481.98 208,-473.84 213.48,-469.21 219.17,-464.36 224.84,-459.48"/>
<polygon fill="red" stroke="red" stroke-width="0.41" points="227.25,-462.03 232.54,-452.85 222.68,-456.73 227.25,-462.03"/>
<text text-anchor="middle" x="200" y="-494.64" font-family="Times,serif" font-size="9.00">0.105</text>
</g>
<!-- key 216592
bias &#45;0.280
h_scaling 0.966&#45;&gt;key 213616
bias &#45;0.515
h_scaling 0.485 -->
<g id="edge7" class="edge">
<title>key 216592
bias &#45;0.280
h_scaling 0.966&#45;&gt;key 213616
bias &#45;0.515
h_scaling 0.485</title>
<path fill="none" stroke="red" stroke-width="3.1" d="M84.32,-543.16C64.7,-524.51 44.39,-500.47 34,-473.84 13.44,-421.14 2.98,-393.86 34,-346.56 72.88,-287.26 151.89,-260.16 210.73,-247.88"/>
<polygon fill="red" stroke="red" stroke-width="3.1" points="211.61,-251.28 220.73,-245.9 210.24,-244.41 211.61,-251.28"/>
<text text-anchor="middle" x="48" y="-408" font-family="Times,serif" font-size="9.00">1.000</text>
</g>
<!-- key 216592
bias &#45;0.280
h_scaling 0.966&#45;&gt;key 219100
bias &#45;0.601
h_scaling 0.705 -->
<g id="edge10" class="edge">
<title>key 216592
bias &#45;0.280
h_scaling 0.966&#45;&gt;key 219100
bias &#45;0.601
h_scaling 0.705</title>
<path fill="none" stroke="red" stroke-width="1.96" d="M105.22,-526.57C102.14,-515.23 100.81,-503.27 103,-491.84 103.85,-487.39 104.94,-482.88 106.21,-478.37"/>
<polygon fill="red" stroke="red" stroke-width="1.96" points="109.63,-479.14 109.23,-468.55 102.94,-477.08 109.63,-479.14"/>
<text text-anchor="middle" x="117" y="-494.64" font-family="Times,serif" font-size="9.00">0.619</text>
</g>
<!-- key 213616
bias &#45;0.515
h_scaling 0.485&#45;&gt;key 3655
bias &#45;0.415
h_scaling 0.197 -->
<g id="edge5" class="edge">
<title>key 213616
bias &#45;0.515
h_scaling 0.485&#45;&gt;key 3655
bias &#45;0.415
h_scaling 0.197</title>
<path fill="none" stroke="blue" stroke-width="0.87" d="M338.88,-269.83C382.41,-299.72 436,-348.77 436,-409.2 436,-757.76 436,-757.76 436,-757.76 436,-831.82 356.59,-879.56 295.44,-905.35"/>
<polygon fill="blue" stroke="blue" stroke-width="0.87" points="294.1,-902.11 286.18,-909.15 296.76,-908.59 294.1,-902.11"/>
<text text-anchor="middle" x="451.5" y="-581.28" font-family="Times,serif" font-size="9.00">&#45;0.258</text>
</g>
<!-- key 213616
bias &#45;0.515
h_scaling 0.485&#45;&gt;key 313467
bias 0.006
h_scaling 0.543 -->
<g id="edge16" class="edge">
<title>key 213616
bias &#45;0.515
h_scaling 0.485&#45;&gt;key 313467
bias 0.006
h_scaling 0.543</title>
<path fill="none" stroke="blue" stroke-width="1.26" d="M301.63,-175.53C305.47,-162.36 309.58,-148.31 313.52,-134.79"/>
<polygon fill="blue" stroke="blue" stroke-width="1.26" points="316.92,-135.64 316.36,-125.06 310.2,-133.68 316.92,-135.64"/>
<text text-anchor="middle" x="324.5" y="-148.08" font-family="Times,serif" font-size="9.00">&#45;0.387</text>
</g>
<!-- key 219100
bias &#45;0.601
h_scaling 0.705&#45;&gt;key 216592
bias &#45;0.280
h_scaling 0.966 -->
<g id="edge9" class="edge">
<title>key 219100
bias &#45;0.601
h_scaling 0.705&#45;&gt;key 216592
bias &#45;0.280
h_scaling 0.966</title>
<path fill="none" stroke="red" stroke-width="2.75" d="M134.63,-474C134.57,-485.52 134.5,-497.63 134.43,-509.42"/>
<polygon fill="red" stroke="red" stroke-width="2.75" points="130.93,-509.65 134.37,-519.67 137.93,-509.69 130.93,-509.65"/>
<text text-anchor="middle" x="149" y="-494.64" font-family="Times,serif" font-size="9.00">0.883</text>
</g>
</g>
</svg>
