<?xml version="1.0" encoding="UTF-8" standalone="no"?>
<!DOCTYPE svg PUBLIC "-//W3C//DTD SVG 1.1//EN"
 "http://www.w3.org/Graphics/SVG/1.1/DTD/svg11.dtd">
<!-- Generated by graphviz version 2.43.0 (0)
 -->
<!-- Title: %3 Pages: 1 -->
<svg width="586pt" height="1249pt"
 viewBox="0.00 0.00 586.00 1248.95" xmlns="http://www.w3.org/2000/svg" xmlns:xlink="http://www.w3.org/1999/xlink">
<g id="graph0" class="graph" transform="scale(1 1) rotate(0) translate(4 1244.95)">
<title>%3</title>
<polygon fill="white" stroke="transparent" points="-4,4 -4,-1244.95 582,-1244.95 582,4 -4,4"/>
<!-- ready
output 0.000 -->
<g id="node1" class="node">
<title>ready
output 0.000</title>
<polygon fill="yellow" stroke="black" points="431.5,-1240.95 354.5,-1240.95 354.5,-1212.95 431.5,-1212.95 431.5,-1240.95"/>
<text text-anchor="middle" x="393" y="-1229.75" font-family="Times,serif" font-size="9.00">ready</text>
<text text-anchor="middle" x="393" y="-1219.75" font-family="Times,serif" font-size="9.00">output 0.000</text>
</g>
<!-- key 9490
bias 0.000
h_scaling 0.957
output 0.657 -->
<g id="node6" class="node">
<title>key 9490
bias 0.000
h_scaling 0.957
output 0.657</title>
<ellipse fill="white" stroke="black" cx="216" cy="-1103.31" rx="63.78" ry="63.78"/>
<text text-anchor="middle" x="216" y="-1116.11" font-family="Times,serif" font-size="9.00">key 9490</text>
<text text-anchor="middle" x="216" y="-1106.11" font-family="Times,serif" font-size="9.00">bias 0.000</text>
<text text-anchor="middle" x="216" y="-1096.11" font-family="Times,serif" font-size="9.00">h_scaling 0.957</text>
<text text-anchor="middle" x="216" y="-1086.11" font-family="Times,serif" font-size="9.00">output 0.657</text>
</g>
<!-- ready
output 0.000&#45;&gt;key 9490
bias 0.000
h_scaling 0.957
output 0.657 -->
<g id="edge6" class="edge">
<title>ready
output 0.000&#45;&gt;key 9490
bias 0.000
h_scaling 0.957
output 0.657</title>
<path fill="none" stroke="blue" stroke-width="0.1" d="M363.12,-1212.87C352.4,-1207.76 340.4,-1201.54 330,-1194.95 310.18,-1182.4 289.75,-1167.04 271.76,-1152.56"/>
<polygon fill="blue" stroke="blue" stroke-width="0.1" points="273.64,-1149.58 263.67,-1145.98 269.22,-1155 273.64,-1149.58"/>
<text text-anchor="middle" x="345.5" y="-1187.75" font-family="Times,serif" font-size="9.00">&#45;0.177</text>
</g>
<!-- key 37910
bias 0.000
h_scaling 0.584
output 0.118 -->
<g id="node7" class="node">
<title>key 37910
bias 0.000
h_scaling 0.584
output 0.118</title>
<ellipse fill="white" stroke="black" cx="375" cy="-756.76" rx="63.78" ry="63.78"/>
<text text-anchor="middle" x="375" y="-769.56" font-family="Times,serif" font-size="9.00">key 37910</text>
<text text-anchor="middle" x="375" y="-759.56" font-family="Times,serif" font-size="9.00">bias 0.000</text>
<text text-anchor="middle" x="375" y="-749.56" font-family="Times,serif" font-size="9.00">h_scaling 0.584</text>
<text text-anchor="middle" x="375" y="-739.56" font-family="Times,serif" font-size="9.00">output 0.118</text>
</g>
<!-- ready
output 0.000&#45;&gt;key 37910
bias 0.000
h_scaling 0.584
output 0.118 -->
<g id="edge16" class="edge">
<title>ready
output 0.000&#45;&gt;key 37910
bias 0.000
h_scaling 0.584
output 0.118</title>
<path fill="none" stroke="red" stroke-width="0.1" d="M397.04,-1212.94C411.81,-1163.2 460.1,-980.86 421,-838.4 419.29,-832.17 416.99,-825.93 414.33,-819.81"/>
<polygon fill="red" stroke="red" stroke-width="0.1" points="417.3,-817.9 409.88,-810.34 410.97,-820.88 417.3,-817.9"/>
<text text-anchor="middle" x="447" y="-1014.48" font-family="Times,serif" font-size="9.00">0.357</text>
</g>
<!-- key 27575
bias 0.000
h_scaling 0.919
output 0.500 -->
<g id="node8" class="node">
<title>key 27575
bias 0.000
h_scaling 0.919
output 0.500</title>
<ellipse fill="white" stroke="black" cx="156" cy="-756.76" rx="63.78" ry="63.78"/>
<text text-anchor="middle" x="156" y="-769.56" font-family="Times,serif" font-size="9.00">key 27575</text>
<text text-anchor="middle" x="156" y="-759.56" font-family="Times,serif" font-size="9.00">bias 0.000</text>
<text text-anchor="middle" x="156" y="-749.56" font-family="Times,serif" font-size="9.00">h_scaling 0.919</text>
<text text-anchor="middle" x="156" y="-739.56" font-family="Times,serif" font-size="9.00">output 0.500</text>
</g>
<!-- ready
output 0.000&#45;&gt;key 27575
bias 0.000
h_scaling 0.919
output 0.500 -->
<g id="edge17" class="edge">
<title>ready
output 0.000&#45;&gt;key 27575
bias 0.000
h_scaling 0.919
output 0.500</title>
<path fill="none" stroke="red" stroke-width="0.1" d="M392.59,-1212.82C390.87,-1179.54 381.87,-1090.9 335,-1039.68 312.94,-1015.56 298.3,-1021.08 267,-1011.68 227.1,-999.69 202.75,-1024.75 175,-993.68 154.11,-970.28 151.38,-890.89 152.58,-830.6"/>
<polygon fill="red" stroke="red" stroke-width="0.1" points="156.08,-830.43 152.82,-820.35 149.08,-830.26 156.08,-830.43"/>
<text text-anchor="middle" x="323" y="-1014.48" font-family="Times,serif" font-size="9.00">0.280</text>
</g>
<!-- key 250879
bias 0.000
h_scaling 0.941
output 0.522 -->
<g id="node11" class="node">
<title>key 250879
bias 0.000
h_scaling 0.941
output 0.522</title>
<ellipse fill="white" stroke="black" cx="458" cy="-410.2" rx="63.78" ry="63.78"/>
<text text-anchor="middle" x="458" y="-423" font-family="Times,serif" font-size="9.00">key 250879</text>
<text text-anchor="middle" x="458" y="-413" font-family="Times,serif" font-size="9.00">bias 0.000</text>
<text text-anchor="middle" x="458" y="-403" font-family="Times,serif" font-size="9.00">h_scaling 0.941</text>
<text text-anchor="middle" x="458" y="-393" font-family="Times,serif" font-size="9.00">output 0.522</text>
</g>
<!-- ready
output 0.000&#45;&gt;key 250879
bias 0.000
h_scaling 0.941
output 0.522 -->
<g id="edge21" class="edge">
<title>ready
output 0.000&#45;&gt;key 250879
bias 0.000
h_scaling 0.941
output 0.522</title>
<path fill="none" stroke="red" stroke-width="0.1" d="M431.81,-1214.7C478.3,-1198.55 550,-1163.97 550,-1104.31 550,-1104.31 550,-1104.31 550,-582.48 550,-540.34 528.12,-498.56 505.7,-466.82"/>
<polygon fill="red" stroke="red" stroke-width="0.1" points="508.4,-464.59 499.69,-458.56 502.74,-468.71 508.4,-464.59"/>
<text text-anchor="middle" x="564" y="-841.2" font-family="Times,serif" font-size="9.00">0.777</text>
</g>
<!-- go
output 0.000 -->
<g id="node2" class="node">
<title>go
output 0.000</title>
<polygon fill="green" stroke="black" points="315.5,-1240.95 238.5,-1240.95 238.5,-1212.95 315.5,-1212.95 315.5,-1240.95"/>
<text text-anchor="middle" x="277" y="-1229.75" font-family="Times,serif" font-size="9.00">go</text>
<text text-anchor="middle" x="277" y="-1219.75" font-family="Times,serif" font-size="9.00">output 0.000</text>
</g>
<!-- key 71362
bias 0.000
h_scaling 1.000
output 0.604 -->
<g id="node5" class="node">
<title>key 71362
bias 0.000
h_scaling 1.000
output 0.604</title>
<ellipse fill="white" stroke="black" cx="458" cy="-583.48" rx="63.78" ry="63.78"/>
<text text-anchor="middle" x="458" y="-596.28" font-family="Times,serif" font-size="9.00">key 71362</text>
<text text-anchor="middle" x="458" y="-586.28" font-family="Times,serif" font-size="9.00">bias 0.000</text>
<text text-anchor="middle" x="458" y="-576.28" font-family="Times,serif" font-size="9.00">h_scaling 1.000</text>
<text text-anchor="middle" x="458" y="-566.28" font-family="Times,serif" font-size="9.00">output 0.604</text>
</g>
<!-- go
output 0.000&#45;&gt;key 71362
bias 0.000
h_scaling 1.000
output 0.604 -->
<g id="edge18" class="edge">
<title>go
output 0.000&#45;&gt;key 71362
bias 0.000
h_scaling 1.000
output 0.604</title>
<path fill="none" stroke="blue" stroke-width="0.1" d="M315.52,-1218.69C332.12,-1214.06 350.92,-1206.65 365,-1194.95 433.4,-1138.15 441.99,-1107.57 465,-1021.68 498.49,-896.65 484.26,-744.23 471.03,-656.37"/>
<polygon fill="blue" stroke="blue" stroke-width="0.1" points="474.45,-655.59 469.46,-646.24 467.53,-656.66 474.45,-655.59"/>
<text text-anchor="middle" x="500.5" y="-927.84" font-family="Times,serif" font-size="9.00">&#45;1.000</text>
</g>
<!-- go
output 0.000&#45;&gt;key 9490
bias 0.000
h_scaling 0.957
output 0.657 -->
<g id="edge3" class="edge">
<title>go
output 0.000&#45;&gt;key 9490
bias 0.000
h_scaling 0.957
output 0.657</title>
<path fill="none" stroke="red" stroke-width="0.1" d="M266.18,-1212.86C262.06,-1207.5 257.52,-1201.13 254,-1194.95 249.98,-1187.89 246.14,-1180.32 242.55,-1172.67"/>
<polygon fill="red" stroke="red" stroke-width="0.1" points="245.63,-1170.99 238.3,-1163.33 239.26,-1173.89 245.63,-1170.99"/>
<text text-anchor="middle" x="268" y="-1187.75" font-family="Times,serif" font-size="9.00">0.451</text>
</g>
<!-- go
output 0.000&#45;&gt;key 37910
bias 0.000
h_scaling 0.584
output 0.118 -->
<g id="edge12" class="edge">
<title>go
output 0.000&#45;&gt;key 37910
bias 0.000
h_scaling 0.584
output 0.118</title>
<path fill="none" stroke="blue" stroke-width="0.1" d="M287.1,-1212.81C293.78,-1204.46 302.95,-1193.63 312,-1184.95 321.37,-1175.97 327.51,-1177.56 335,-1166.95 381.85,-1100.62 379.94,-1073.83 393,-993.68 401.92,-938.91 396.42,-876.25 389.22,-829.28"/>
<polygon fill="blue" stroke="blue" stroke-width="0.1" points="392.65,-828.52 387.62,-819.2 385.74,-829.62 392.65,-828.52"/>
<text text-anchor="middle" x="404.5" y="-1014.48" font-family="Times,serif" font-size="9.00">&#45;0.811</text>
</g>
<!-- key 474
bias 0.000
h_scaling 0.053
output 0.911 -->
<g id="node9" class="node">
<title>key 474
bias 0.000
h_scaling 0.053
output 0.911</title>
<ellipse fill="white" stroke="black" cx="147" cy="-410.2" rx="63.78" ry="63.78"/>
<text text-anchor="middle" x="147" y="-423" font-family="Times,serif" font-size="9.00">key 474</text>
<text text-anchor="middle" x="147" y="-413" font-family="Times,serif" font-size="9.00">bias 0.000</text>
<text text-anchor="middle" x="147" y="-403" font-family="Times,serif" font-size="9.00">h_scaling 0.053</text>
<text text-anchor="middle" x="147" y="-393" font-family="Times,serif" font-size="9.00">output 0.911</text>
</g>
<!-- go
output 0.000&#45;&gt;key 474
bias 0.000
h_scaling 0.053
output 0.911 -->
<g id="edge4" class="edge">
<title>go
output 0.000&#45;&gt;key 474
bias 0.000
h_scaling 0.053
output 0.911</title>
<path fill="none" stroke="red" stroke-width="0.1" d="M238.48,-1226.01C162.37,-1223.87 0,-1207.26 0,-1104.31 0,-1104.31 0,-1104.31 0,-582.48 0,-527.12 44.76,-480.7 84.89,-450.21"/>
<polygon fill="red" stroke="red" stroke-width="0.1" points="87.14,-452.9 93.1,-444.14 82.98,-447.27 87.14,-452.9"/>
<text text-anchor="middle" x="14" y="-841.2" font-family="Times,serif" font-size="9.00">1.005</text>
</g>
<!-- output
bias 0.000
h_scaling 0.000
output 0.001 -->
<g id="node3" class="node">
<title>output
bias 0.000
h_scaling 0.000
output 0.001</title>
<ellipse fill="lightblue" stroke="black" cx="248" cy="-930.04" rx="63.78" ry="63.78"/>
<text text-anchor="middle" x="248" y="-942.84" font-family="Times,serif" font-size="9.00">output</text>
<text text-anchor="middle" x="248" y="-932.84" font-family="Times,serif" font-size="9.00">bias 0.000</text>
<text text-anchor="middle" x="248" y="-922.84" font-family="Times,serif" font-size="9.00">h_scaling 0.000</text>
<text text-anchor="middle" x="248" y="-912.84" font-family="Times,serif" font-size="9.00">output 0.001</text>
</g>
<!-- output
bias 0.000
h_scaling 0.000
output 0.001&#45;&gt;key 37910
bias 0.000
h_scaling 0.584
output 0.118 -->
<g id="edge8" class="edge">
<title>output
bias 0.000
h_scaling 0.000
output 0.001&#45;&gt;key 37910
bias 0.000
h_scaling 0.584
output 0.118</title>
<path fill="none" stroke="red" stroke-width="0.1" d="M265.72,-868.89C270.18,-858.25 275.57,-847.64 282,-838.4 291.3,-825.03 303.3,-812.48 315.57,-801.44"/>
<polygon fill="red" stroke="red" stroke-width="0.1" points="317.98,-803.97 323.22,-794.76 313.38,-798.7 317.98,-803.97"/>
<text text-anchor="middle" x="296" y="-841.2" font-family="Times,serif" font-size="9.00">0.903</text>
</g>
<!-- output
bias 0.000
h_scaling 0.000
output 0.001&#45;&gt;key 27575
bias 0.000
h_scaling 0.919
output 0.500 -->
<g id="edge11" class="edge">
<title>output
bias 0.000
h_scaling 0.000
output 0.001&#45;&gt;key 27575
bias 0.000
h_scaling 0.919
output 0.500</title>
<path fill="none" stroke="blue" stroke-width="0.1" d="M217.03,-874.07C212.29,-865.5 207.48,-856.73 203,-848.4 198.57,-840.17 193.98,-831.49 189.47,-822.89"/>
<polygon fill="blue" stroke="blue" stroke-width="0.1" points="192.55,-821.23 184.82,-813.98 186.35,-824.47 192.55,-821.23"/>
<text text-anchor="middle" x="218.5" y="-841.2" font-family="Times,serif" font-size="9.00">&#45;0.128</text>
</g>
<!-- key 311553
bias 0.000
h_scaling 0.000
output 0.975 -->
<g id="node4" class="node">
<title>key 311553
bias 0.000
h_scaling 0.000
output 0.975</title>
<ellipse fill="white" stroke="black" cx="97" cy="-236.92" rx="63.78" ry="63.78"/>
<text text-anchor="middle" x="97" y="-249.72" font-family="Times,serif" font-size="9.00">key 311553</text>
<text text-anchor="middle" x="97" y="-239.72" font-family="Times,serif" font-size="9.00">bias 0.000</text>
<text text-anchor="middle" x="97" y="-229.72" font-family="Times,serif" font-size="9.00">h_scaling 0.000</text>
<text text-anchor="middle" x="97" y="-219.72" font-family="Times,serif" font-size="9.00">output 0.975</text>
</g>
<!-- key 175419
bias 0.000
h_scaling 1.000
output 0.992 -->
<g id="node10" class="node">
<title>key 175419
bias 0.000
h_scaling 1.000
output 0.992</title>
<ellipse fill="white" stroke="black" cx="147" cy="-63.64" rx="63.78" ry="63.78"/>
<text text-anchor="middle" x="147" y="-76.44" font-family="Times,serif" font-size="9.00">key 175419</text>
<text text-anchor="middle" x="147" y="-66.44" font-family="Times,serif" font-size="9.00">bias 0.000</text>
<text text-anchor="middle" x="147" y="-56.44" font-family="Times,serif" font-size="9.00">h_scaling 1.000</text>
<text text-anchor="middle" x="147" y="-46.44" font-family="Times,serif" font-size="9.00">output 0.992</text>
</g>
<!-- key 311553
bias 0.000
h_scaling 0.000
output 0.975&#45;&gt;key 175419
bias 0.000
h_scaling 1.000
output 0.992 -->
<g id="edge25" class="edge">
<title>key 311553
bias 0.000
h_scaling 0.000
output 0.975&#45;&gt;key 175419
bias 0.000
h_scaling 1.000
output 0.992</title>
<path fill="none" stroke="red" stroke-width="0.1" d="M114.63,-175.53C118.47,-162.36 122.58,-148.31 126.52,-134.79"/>
<polygon fill="red" stroke="red" stroke-width="0.1" points="129.92,-135.64 129.36,-125.06 123.2,-133.68 129.92,-135.64"/>
<text text-anchor="middle" x="136" y="-148.08" font-family="Times,serif" font-size="9.00">1.482</text>
</g>
<!-- key 71362
bias 0.000
h_scaling 1.000
output 0.604&#45;&gt;key 474
bias 0.000
h_scaling 0.053
output 0.911 -->
<g id="edge14" class="edge">
<title>key 71362
bias 0.000
h_scaling 1.000
output 0.604&#45;&gt;key 474
bias 0.000
h_scaling 0.053
output 0.911</title>
<path fill="none" stroke="blue" stroke-width="0.1" d="M410.23,-541.17C400.53,-533.64 390.18,-526.17 380,-519.84 327.42,-487.13 263.39,-457.96 215.77,-438.11"/>
<polygon fill="blue" stroke="blue" stroke-width="0.1" points="217.05,-434.85 206.47,-434.26 214.37,-441.32 217.05,-434.85"/>
<text text-anchor="middle" x="358.5" y="-494.64" font-family="Times,serif" font-size="9.00">&#45;0.762</text>
</g>
<!-- key 71362
bias 0.000
h_scaling 1.000
output 0.604&#45;&gt;key 250879
bias 0.000
h_scaling 0.941
output 0.522 -->
<g id="edge23" class="edge">
<title>key 71362
bias 0.000
h_scaling 1.000
output 0.604&#45;&gt;key 250879
bias 0.000
h_scaling 0.941
output 0.522</title>
<path fill="none" stroke="red" stroke-width="0.1" d="M458,-519.67C458,-508.15 458,-496.04 458,-484.25"/>
<polygon fill="red" stroke="red" stroke-width="0.1" points="461.5,-484 458,-474 454.5,-484 461.5,-484"/>
<text text-anchor="middle" x="472" y="-494.64" font-family="Times,serif" font-size="9.00">0.222</text>
</g>
<!-- key 9490
bias 0.000
h_scaling 0.957
output 0.657&#45;&gt;output
bias 0.000
h_scaling 0.000
output 0.001 -->
<g id="edge19" class="edge">
<title>key 9490
bias 0.000
h_scaling 0.957
output 0.657&#45;&gt;output
bias 0.000
h_scaling 0.000
output 0.001</title>
<path fill="none" stroke="blue" stroke-width="0.1" d="M227.55,-1040.48C229.84,-1028.23 232.26,-1015.28 234.61,-1002.73"/>
<polygon fill="blue" stroke="blue" stroke-width="0.1" points="238.07,-1003.25 236.46,-992.78 231.19,-1001.97 238.07,-1003.25"/>
<text text-anchor="middle" x="247.5" y="-1014.48" font-family="Times,serif" font-size="9.00">&#45;1.000</text>
</g>
<!-- key 9490
bias 0.000
h_scaling 0.957
output 0.657&#45;&gt;key 9490
bias 0.000
h_scaling 0.957
output 0.657 -->
<g id="edge7" class="edge">
<title>key 9490
bias 0.000
h_scaling 0.957
output 0.657&#45;&gt;key 9490
bias 0.000
h_scaling 0.957
output 0.657</title>
<path fill="none" stroke="red" stroke-width="0.1" d="M277.94,-1118.61C289.5,-1116.73 297.64,-1111.63 297.64,-1103.31 297.64,-1097.6 293.79,-1093.4 287.63,-1090.73"/>
<polygon fill="red" stroke="red" stroke-width="0.1" points="288.52,-1087.34 277.94,-1088.02 286.63,-1094.08 288.52,-1087.34"/>
<text text-anchor="middle" x="311.64" y="-1101.11" font-family="Times,serif" font-size="9.00">0.966</text>
</g>
<!-- key 9490
bias 0.000
h_scaling 0.957
output 0.657&#45;&gt;key 37910
bias 0.000
h_scaling 0.584
output 0.118 -->
<g id="edge9" class="edge">
<title>key 9490
bias 0.000
h_scaling 0.957
output 0.657&#45;&gt;key 37910
bias 0.000
h_scaling 0.584
output 0.118</title>
<path fill="none" stroke="blue" stroke-width="0.1" d="M272.66,-1073.66C293.15,-1060.53 314.54,-1043.07 328,-1021.68 338.13,-1005.57 354.5,-902.31 365,-829.84"/>
<polygon fill="blue" stroke="blue" stroke-width="0.1" points="368.48,-830.23 366.45,-819.83 361.56,-829.23 368.48,-830.23"/>
<text text-anchor="middle" x="374.5" y="-927.84" font-family="Times,serif" font-size="9.00">&#45;0.998</text>
</g>
<!-- key 9490
bias 0.000
h_scaling 0.957
output 0.657&#45;&gt;key 474
bias 0.000
h_scaling 0.053
output 0.911 -->
<g id="edge2" class="edge">
<title>key 9490
bias 0.000
h_scaling 0.957
output 0.657&#45;&gt;key 474
bias 0.000
h_scaling 0.053
output 0.911</title>
<path fill="none" stroke="red" stroke-width="0.1" d="M158.92,-1074.52C109.53,-1046.02 46,-996.6 46,-931.04 46,-931.04 46,-931.04 46,-582.48 46,-538.4 71.12,-495.68 96.31,-463.94"/>
<polygon fill="red" stroke="red" stroke-width="0.1" points="99.09,-466.07 102.7,-456.11 93.67,-461.64 99.09,-466.07"/>
<text text-anchor="middle" x="60" y="-754.56" font-family="Times,serif" font-size="9.00">0.717</text>
</g>
<!-- key 37910
bias 0.000
h_scaling 0.584
output 0.118&#45;&gt;output
bias 0.000
h_scaling 0.000
output 0.001 -->
<g id="edge10" class="edge">
<title>key 37910
bias 0.000
h_scaling 0.584
output 0.118&#45;&gt;output
bias 0.000
h_scaling 0.000
output 0.001</title>
<path fill="none" stroke="red" stroke-width="0.1" d="M338.51,-809.26C329.29,-822.11 319.35,-835.8 310,-848.4 304.51,-855.79 298.68,-863.51 292.89,-871.13"/>
<polygon fill="red" stroke="red" stroke-width="0.1" points="289.91,-869.26 286.63,-879.33 295.48,-873.51 289.91,-869.26"/>
<text text-anchor="middle" x="331" y="-841.2" font-family="Times,serif" font-size="9.00">1.000</text>
</g>
<!-- key 37910
bias 0.000
h_scaling 0.584
output 0.118&#45;&gt;key 71362
bias 0.000
h_scaling 1.000
output 0.604 -->
<g id="edge13" class="edge">
<title>key 37910
bias 0.000
h_scaling 0.584
output 0.118&#45;&gt;key 71362
bias 0.000
h_scaling 1.000
output 0.604</title>
<path fill="none" stroke="red" stroke-width="0.1" d="M402.41,-699.2C409.99,-683.56 418.28,-666.45 426.09,-650.33"/>
<polygon fill="red" stroke="red" stroke-width="0.1" points="429.41,-651.5 430.62,-640.98 423.11,-648.45 429.41,-651.5"/>
<text text-anchor="middle" x="430" y="-667.92" font-family="Times,serif" font-size="9.00">0.970</text>
</g>
<!-- key 27575
bias 0.000
h_scaling 0.919
output 0.500&#45;&gt;key 9490
bias 0.000
h_scaling 0.957
output 0.657 -->
<g id="edge5" class="edge">
<title>key 27575
bias 0.000
h_scaling 0.919
output 0.500&#45;&gt;key 9490
bias 0.000
h_scaling 0.957
output 0.657</title>
<path fill="none" stroke="blue" stroke-width="0.1" d="M127.79,-814.32C107.43,-863.24 87.32,-935.11 111,-993.68 120.89,-1018.15 139.24,-1040.17 157.86,-1057.89"/>
<polygon fill="blue" stroke="blue" stroke-width="0.1" points="155.54,-1060.51 165.27,-1064.71 160.28,-1055.36 155.54,-1060.51"/>
<text text-anchor="middle" x="126.5" y="-927.84" font-family="Times,serif" font-size="9.00">&#45;0.869</text>
</g>
<!-- key 474
bias 0.000
h_scaling 0.053
output 0.911&#45;&gt;output
bias 0.000
h_scaling 0.000
output 0.001 -->
<g id="edge1" class="edge">
<title>key 474
bias 0.000
h_scaling 0.053
output 0.911&#45;&gt;output
bias 0.000
h_scaling 0.000
output 0.001</title>
<path fill="none" stroke="blue" stroke-width="0.1" d="M168,-470.3C187.15,-526.77 214.58,-614.66 229,-693.12 238.94,-747.24 243.68,-809.3 245.94,-856.18"/>
<polygon fill="blue" stroke="blue" stroke-width="0.1" points="242.45,-856.42 246.4,-866.25 249.44,-856.1 242.45,-856.42"/>
<text text-anchor="middle" x="239.5" y="-667.92" font-family="Times,serif" font-size="9.00">&#45;1.000</text>
</g>
<!-- key 474
bias 0.000
h_scaling 0.053
output 0.911&#45;&gt;key 311553
bias 0.000
h_scaling 0.000
output 0.975 -->
<g id="edge24" class="edge">
<title>key 474
bias 0.000
h_scaling 0.053
output 0.911&#45;&gt;key 311553
bias 0.000
h_scaling 0.000
output 0.975</title>
<path fill="none" stroke="red" stroke-width="0.1" d="M129.37,-348.81C125.53,-335.64 121.42,-321.58 117.48,-308.07"/>
<polygon fill="red" stroke="red" stroke-width="0.1" points="120.8,-306.96 114.64,-298.34 114.08,-308.92 120.8,-306.96"/>
<text text-anchor="middle" x="136" y="-321.36" font-family="Times,serif" font-size="9.00">0.793</text>
</g>
<!-- key 474
bias 0.000
h_scaling 0.053
output 0.911&#45;&gt;key 474
bias 0.000
h_scaling 0.053
output 0.911 -->
<g id="edge15" class="edge">
<title>key 474
bias 0.000
h_scaling 0.053
output 0.911&#45;&gt;key 474
bias 0.000
h_scaling 0.053
output 0.911</title>
<path fill="none" stroke="red" stroke-width="0.1" d="M208.94,-425.5C220.5,-423.61 228.64,-418.51 228.64,-410.2 228.64,-404.48 224.79,-400.29 218.63,-397.61"/>
<polygon fill="red" stroke="red" stroke-width="0.1" points="219.52,-394.22 208.94,-394.9 217.63,-400.96 219.52,-394.22"/>
<text text-anchor="middle" x="242.64" y="-408" font-family="Times,serif" font-size="9.00">0.815</text>
</g>
<!-- key 175419
bias 0.000
h_scaling 1.000
output 0.992&#45;&gt;key 474
bias 0.000
h_scaling 0.053
output 0.911 -->
<g id="edge20" class="edge">
<title>key 175419
bias 0.000
h_scaling 1.000
output 0.992&#45;&gt;key 474
bias 0.000
h_scaling 0.053
output 0.911</title>
<path fill="none" stroke="blue" stroke-width="0.1" d="M162.21,-125.47C165.44,-140.96 168.36,-157.65 170,-173.28 175.89,-229.54 175.89,-244.3 170,-300.56 168.71,-312.89 166.62,-325.88 164.2,-338.42"/>
<polygon fill="blue" stroke="blue" stroke-width="0.1" points="160.74,-337.87 162.21,-348.36 167.61,-339.25 160.74,-337.87"/>
<text text-anchor="middle" x="189.5" y="-234.72" font-family="Times,serif" font-size="9.00">&#45;0.307</text>
</g>
<!-- key 250879
bias 0.000
h_scaling 0.941
output 0.522&#45;&gt;key 37910
bias 0.000
h_scaling 0.584
output 0.118 -->
<g id="edge22" class="edge">
<title>key 250879
bias 0.000
h_scaling 0.941
output 0.522&#45;&gt;key 37910
bias 0.000
h_scaling 0.584
output 0.118</title>
<path fill="none" stroke="red" stroke-width="0.1" d="M404.64,-445.13C388.58,-457.89 372.46,-473.75 362,-491.84 327.87,-550.84 337.74,-630.25 352.03,-686.51"/>
<polygon fill="red" stroke="red" stroke-width="0.1" points="348.7,-687.61 354.64,-696.39 355.46,-685.82 348.7,-687.61"/>
<text text-anchor="middle" x="363" y="-581.28" font-family="Times,serif" font-size="9.00">0.581</text>
</g>
</g>
</svg>
