<?xml version="1.0" encoding="UTF-8" standalone="no"?>
<!DOCTYPE svg PUBLIC "-//W3C//DTD SVG 1.1//EN"
 "http://www.w3.org/Graphics/SVG/1.1/DTD/svg11.dtd">
<!-- Generated by graphviz version 2.43.0 (0)
 -->
<!-- Title: %3 Pages: 1 -->
<svg width="771pt" height="710pt"
 viewBox="0.00 0.00 770.64 710.12" xmlns="http://www.w3.org/2000/svg" xmlns:xlink="http://www.w3.org/1999/xlink">
<g id="graph0" class="graph" transform="scale(1 1) rotate(0) translate(4 706.12)">
<title>%3</title>
<polygon fill="white" stroke="transparent" points="-4,4 -4,-706.12 766.64,-706.12 766.64,4 -4,4"/>
<!-- ready -->
<g id="node1" class="node">
<title>ready</title>
<polygon fill="yellow" stroke="black" points="693.14,-702.12 650.14,-702.12 650.14,-684.12 693.14,-684.12 693.14,-702.12"/>
<text text-anchor="middle" x="671.64" y="-690.92" font-family="Times,serif" font-size="9.00">ready</text>
</g>
<!-- key 11211
bias &#45;0.534
h_scaling 1.000 -->
<g id="node5" class="node">
<title>key 11211
bias &#45;0.534
h_scaling 1.000</title>
<ellipse fill="white" stroke="black" cx="522.64" cy="-574.48" rx="63.78" ry="63.78"/>
<text text-anchor="middle" x="522.64" y="-582.28" font-family="Times,serif" font-size="9.00">key 11211</text>
<text text-anchor="middle" x="522.64" y="-572.28" font-family="Times,serif" font-size="9.00">bias &#45;0.534</text>
<text text-anchor="middle" x="522.64" y="-562.28" font-family="Times,serif" font-size="9.00">h_scaling 1.000</text>
</g>
<!-- ready&#45;&gt;key 11211
bias &#45;0.534
h_scaling 1.000 -->
<g id="edge7" class="edge">
<title>ready&#45;&gt;key 11211
bias &#45;0.534
h_scaling 1.000</title>
<path fill="none" stroke="blue" stroke-width="0.1" d="M661.4,-684.1C644.74,-671.06 610.59,-644.33 580.34,-620.65"/>
<polygon fill="blue" stroke="blue" stroke-width="0.1" points="582.37,-617.79 572.34,-614.38 578.06,-623.3 582.37,-617.79"/>
</g>
<!-- key 1458
bias &#45;0.756
h_scaling 1.000 -->
<g id="node7" class="node">
<title>key 1458
bias &#45;0.756
h_scaling 1.000</title>
<ellipse fill="white" stroke="black" cx="522.64" cy="-63.64" rx="63.78" ry="63.78"/>
<text text-anchor="middle" x="522.64" y="-71.44" font-family="Times,serif" font-size="9.00">key 1458</text>
<text text-anchor="middle" x="522.64" y="-61.44" font-family="Times,serif" font-size="9.00">bias &#45;0.756</text>
<text text-anchor="middle" x="522.64" y="-51.44" font-family="Times,serif" font-size="9.00">h_scaling 1.000</text>
</g>
<!-- ready&#45;&gt;key 1458
bias &#45;0.756
h_scaling 1.000 -->
<g id="edge9" class="edge">
<title>ready&#45;&gt;key 1458
bias &#45;0.756
h_scaling 1.000</title>
<path fill="none" stroke="blue" stroke-width="0.1" d="M684.68,-683.94C709.84,-667.02 762.64,-625.56 762.64,-575.48 762.64,-575.48 762.64,-575.48 762.64,-235.92 762.64,-152.32 664.96,-105.68 594.23,-82.86"/>
<polygon fill="blue" stroke="blue" stroke-width="0.1" points="595.03,-79.44 584.45,-79.8 592.94,-86.12 595.03,-79.44"/>
</g>
<!-- go -->
<g id="node2" class="node">
<title>go</title>
<polygon fill="green" stroke="black" points="613.64,-702.12 585.64,-702.12 585.64,-684.12 613.64,-684.12 613.64,-702.12"/>
<text text-anchor="middle" x="599.64" y="-690.92" font-family="Times,serif" font-size="9.00">go</text>
</g>
<!-- go&#45;&gt;key 11211
bias &#45;0.534
h_scaling 1.000 -->
<g id="edge4" class="edge">
<title>go&#45;&gt;key 11211
bias &#45;0.534
h_scaling 1.000</title>
<path fill="none" stroke="red" stroke-width="0.1" d="M594.35,-684.1C587.63,-673.92 575.4,-655.4 562.93,-636.51"/>
<polygon fill="red" stroke="red" stroke-width="0.1" points="565.82,-634.53 557.39,-628.12 559.98,-638.39 565.82,-634.53"/>
<text text-anchor="middle" x="594.64" y="-658.92" font-family="Times,serif" font-size="9.00">0.000</text>
</g>
<!-- go&#45;&gt;key 1458
bias &#45;0.756
h_scaling 1.000 -->
<g id="edge2" class="edge">
<title>go&#45;&gt;key 1458
bias &#45;0.756
h_scaling 1.000</title>
<path fill="none" stroke="red" stroke-width="0.1" d="M614.07,-685.01C643.28,-669.5 706.64,-629.61 706.64,-575.48 706.64,-575.48 706.64,-575.48 706.64,-235.92 706.64,-206.83 705.05,-196.59 687.64,-173.28 662.39,-139.48 623.31,-113.08 589.52,-94.77"/>
<polygon fill="red" stroke="red" stroke-width="0.1" points="591.08,-91.63 580.6,-90.05 587.81,-97.82 591.08,-91.63"/>
<text text-anchor="middle" x="720.64" y="-408" font-family="Times,serif" font-size="9.00">0.000</text>
</g>
<!-- output
bias 1.000
h_scaling 1.000 -->
<g id="node3" class="node">
<title>output
bias 1.000
h_scaling 1.000</title>
<ellipse fill="lightblue" stroke="black" cx="338.64" cy="-410.2" rx="63.78" ry="63.78"/>
<text text-anchor="middle" x="338.64" y="-418" font-family="Times,serif" font-size="9.00">output</text>
<text text-anchor="middle" x="338.64" y="-408" font-family="Times,serif" font-size="9.00">bias 1.000</text>
<text text-anchor="middle" x="338.64" y="-398" font-family="Times,serif" font-size="9.00">h_scaling 1.000</text>
</g>
<!-- key 138281
bias &#45;0.484
h_scaling 1.000 -->
<g id="node4" class="node">
<title>key 138281
bias &#45;0.484
h_scaling 1.000</title>
<ellipse fill="white" stroke="black" cx="430.64" cy="-236.92" rx="63.78" ry="63.78"/>
<text text-anchor="middle" x="430.64" y="-244.72" font-family="Times,serif" font-size="9.00">key 138281</text>
<text text-anchor="middle" x="430.64" y="-234.72" font-family="Times,serif" font-size="9.00">bias &#45;0.484</text>
<text text-anchor="middle" x="430.64" y="-224.72" font-family="Times,serif" font-size="9.00">h_scaling 1.000</text>
</g>
<!-- output
bias 1.000
h_scaling 1.000&#45;&gt;key 138281
bias &#45;0.484
h_scaling 1.000 -->
<g id="edge15" class="edge">
<title>output
bias 1.000
h_scaling 1.000&#45;&gt;key 138281
bias &#45;0.484
h_scaling 1.000</title>
<path fill="none" stroke="blue" stroke-width="0.1" d="M363.36,-351.21C371.84,-334.67 381.53,-316.59 390.88,-299.82"/>
<polygon fill="blue" stroke="blue" stroke-width="0.1" points="394.17,-301.09 396.02,-290.66 388.07,-297.66 394.17,-301.09"/>
</g>
<!-- key 384139
bias 1.000
h_scaling 1.000 -->
<g id="node6" class="node">
<title>key 384139
bias 1.000
h_scaling 1.000</title>
<ellipse fill="white" stroke="black" cx="63.64" cy="-236.92" rx="63.78" ry="63.78"/>
<text text-anchor="middle" x="63.64" y="-244.72" font-family="Times,serif" font-size="9.00">key 384139</text>
<text text-anchor="middle" x="63.64" y="-234.72" font-family="Times,serif" font-size="9.00">bias 1.000</text>
<text text-anchor="middle" x="63.64" y="-224.72" font-family="Times,serif" font-size="9.00">h_scaling 1.000</text>
</g>
<!-- output
bias 1.000
h_scaling 1.000&#45;&gt;key 384139
bias 1.000
h_scaling 1.000 -->
<g id="edge18" class="edge">
<title>output
bias 1.000
h_scaling 1.000&#45;&gt;key 384139
bias 1.000
h_scaling 1.000</title>
<path fill="none" stroke="red" stroke-width="0.1" d="M287.02,-372.28C273.53,-363.34 258.8,-354.18 244.64,-346.56 198.33,-321.65 180.25,-328.39 135.64,-300.56 129.55,-296.76 123.46,-292.46 117.55,-287.92"/>
<polygon fill="red" stroke="red" stroke-width="0.1" points="119.61,-285.1 109.6,-281.63 115.27,-290.58 119.61,-285.1"/>
<text text-anchor="middle" x="215.64" y="-321.36" font-family="Times,serif" font-size="9.00">0.000</text>
</g>
<!-- key 84885
bias &#45;0.346
h_scaling 1.000 -->
<g id="node8" class="node">
<title>key 84885
bias &#45;0.346
h_scaling 1.000</title>
<ellipse fill="white" stroke="black" cx="208.64" cy="-236.92" rx="63.78" ry="63.78"/>
<text text-anchor="middle" x="208.64" y="-244.72" font-family="Times,serif" font-size="9.00">key 84885</text>
<text text-anchor="middle" x="208.64" y="-234.72" font-family="Times,serif" font-size="9.00">bias &#45;0.346</text>
<text text-anchor="middle" x="208.64" y="-224.72" font-family="Times,serif" font-size="9.00">h_scaling 1.000</text>
</g>
<!-- output
bias 1.000
h_scaling 1.000&#45;&gt;key 84885
bias &#45;0.346
h_scaling 1.000 -->
<g id="edge10" class="edge">
<title>output
bias 1.000
h_scaling 1.000&#45;&gt;key 84885
bias &#45;0.346
h_scaling 1.000</title>
<path fill="none" stroke="red" stroke-width="0.1" d="M291.86,-366.44C280.31,-354.74 268.45,-341.66 258.64,-328.56 252.74,-320.68 247.08,-312.03 241.82,-303.29"/>
<polygon fill="red" stroke="red" stroke-width="0.1" points="244.78,-301.41 236.71,-294.55 238.74,-304.95 244.78,-301.41"/>
<text text-anchor="middle" x="272.64" y="-321.36" font-family="Times,serif" font-size="9.00">0.000</text>
</g>
<!-- key 138281
bias &#45;0.484
h_scaling 1.000&#45;&gt;output
bias 1.000
h_scaling 1.000 -->
<g id="edge13" class="edge">
<title>key 138281
bias &#45;0.484
h_scaling 1.000&#45;&gt;output
bias 1.000
h_scaling 1.000</title>
<path fill="none" stroke="blue" stroke-width="0.1" d="M405.92,-295.9C397.44,-312.43 387.77,-330.5 378.43,-347.26"/>
<polygon fill="blue" stroke="blue" stroke-width="0.1" points="375.13,-345.98 373.28,-356.41 381.23,-349.41 375.13,-345.98"/>
</g>
<!-- key 138281
bias &#45;0.484
h_scaling 1.000&#45;&gt;key 1458
bias &#45;0.756
h_scaling 1.000 -->
<g id="edge16" class="edge">
<title>key 138281
bias &#45;0.484
h_scaling 1.000&#45;&gt;key 1458
bias &#45;0.756
h_scaling 1.000</title>
<path fill="none" stroke="blue" stroke-width="0.1" d="M456.04,-178.35C461.29,-167.25 466.96,-155.81 472.64,-145.28 476.03,-139 479.7,-132.54 483.46,-126.13"/>
<polygon fill="blue" stroke="blue" stroke-width="0.1" points="486.52,-127.84 488.63,-117.46 480.5,-124.25 486.52,-127.84"/>
</g>
<!-- key 11211
bias &#45;0.534
h_scaling 1.000&#45;&gt;output
bias 1.000
h_scaling 1.000 -->
<g id="edge8" class="edge">
<title>key 11211
bias &#45;0.534
h_scaling 1.000&#45;&gt;output
bias 1.000
h_scaling 1.000</title>
<path fill="none" stroke="blue" stroke-width="0.1" d="M475.26,-531.69C450.35,-509.72 419.69,-482.68 393.72,-459.78"/>
<polygon fill="blue" stroke="blue" stroke-width="0.1" points="396,-457.12 386.18,-453.13 391.37,-462.37 396,-457.12"/>
</g>
<!-- key 11211
bias &#45;0.534
h_scaling 1.000&#45;&gt;key 11211
bias &#45;0.534
h_scaling 1.000 -->
<g id="edge6" class="edge">
<title>key 11211
bias &#45;0.534
h_scaling 1.000&#45;&gt;key 11211
bias &#45;0.534
h_scaling 1.000</title>
<path fill="none" stroke="red" stroke-width="0.1" d="M584.93,-589.01C596.3,-587.17 604.28,-582.32 604.28,-574.48 604.28,-569.2 600.68,-565.29 594.87,-562.73"/>
<polygon fill="red" stroke="red" stroke-width="0.1" points="595.5,-559.27 584.93,-559.95 593.62,-566.01 595.5,-559.27"/>
<text text-anchor="middle" x="618.28" y="-572.28" font-family="Times,serif" font-size="9.00">0.000</text>
</g>
<!-- key 11211
bias &#45;0.534
h_scaling 1.000&#45;&gt;key 1458
bias &#45;0.756
h_scaling 1.000 -->
<g id="edge5" class="edge">
<title>key 11211
bias &#45;0.534
h_scaling 1.000&#45;&gt;key 1458
bias &#45;0.756
h_scaling 1.000</title>
<path fill="none" stroke="red" stroke-width="0.1" d="M522.64,-510.83C522.64,-416.32 522.64,-237.71 522.64,-137.51"/>
<polygon fill="red" stroke="red" stroke-width="0.1" points="526.14,-137.47 522.64,-127.47 519.14,-137.47 526.14,-137.47"/>
<text text-anchor="middle" x="536.64" y="-321.36" font-family="Times,serif" font-size="9.00">0.000</text>
</g>
<!-- key 352055
bias &#45;0.966
h_scaling 1.000 -->
<g id="node9" class="node">
<title>key 352055
bias &#45;0.966
h_scaling 1.000</title>
<ellipse fill="white" stroke="black" cx="235.64" cy="-63.64" rx="63.78" ry="63.78"/>
<text text-anchor="middle" x="235.64" y="-71.44" font-family="Times,serif" font-size="9.00">key 352055</text>
<text text-anchor="middle" x="235.64" y="-61.44" font-family="Times,serif" font-size="9.00">bias &#45;0.966</text>
<text text-anchor="middle" x="235.64" y="-51.44" font-family="Times,serif" font-size="9.00">h_scaling 1.000</text>
</g>
<!-- key 384139
bias 1.000
h_scaling 1.000&#45;&gt;key 352055
bias &#45;0.966
h_scaling 1.000 -->
<g id="edge19" class="edge">
<title>key 384139
bias 1.000
h_scaling 1.000&#45;&gt;key 352055
bias &#45;0.966
h_scaling 1.000</title>
<path fill="none" stroke="blue" stroke-width="0.1" d="M108.38,-191.36C131.38,-168.46 159.55,-140.41 183.53,-116.53"/>
<polygon fill="blue" stroke="blue" stroke-width="0.1" points="186.21,-118.8 190.82,-109.27 181.27,-113.84 186.21,-118.8"/>
</g>
<!-- key 1458
bias &#45;0.756
h_scaling 1.000&#45;&gt;output
bias 1.000
h_scaling 1.000 -->
<g id="edge1" class="edge">
<title>key 1458
bias &#45;0.756
h_scaling 1.000&#45;&gt;output
bias 1.000
h_scaling 1.000</title>
<path fill="none" stroke="blue" stroke-width="0.1" d="M463.53,-87.41C426.48,-104.99 381.4,-133.14 357.64,-173.28 328.56,-222.41 325.45,-287.69 328.68,-337.13"/>
<polygon fill="blue" stroke="blue" stroke-width="0.1" points="325.19,-337.4 329.43,-347.11 332.17,-336.88 325.19,-337.4"/>
</g>
<!-- key 1458
bias &#45;0.756
h_scaling 1.000&#45;&gt;key 138281
bias &#45;0.484
h_scaling 1.000 -->
<g id="edge12" class="edge">
<title>key 1458
bias &#45;0.756
h_scaling 1.000&#45;&gt;key 138281
bias &#45;0.484
h_scaling 1.000</title>
<path fill="none" stroke="red" stroke-width="0.1" d="M492.92,-119.97C484.16,-136.27 474.51,-154.25 465.46,-171.09"/>
<polygon fill="red" stroke="red" stroke-width="0.1" points="462.16,-169.84 460.51,-180.31 468.32,-173.16 462.16,-169.84"/>
<text text-anchor="middle" x="490.64" y="-148.08" font-family="Times,serif" font-size="9.00">0.000</text>
</g>
<!-- key 1458
bias &#45;0.756
h_scaling 1.000&#45;&gt;key 1458
bias &#45;0.756
h_scaling 1.000 -->
<g id="edge3" class="edge">
<title>key 1458
bias &#45;0.756
h_scaling 1.000&#45;&gt;key 1458
bias &#45;0.756
h_scaling 1.000</title>
<path fill="none" stroke="red" stroke-width="0.1" d="M584.58,-78.94C596.14,-77.05 604.28,-71.95 604.28,-63.64 604.28,-57.92 600.43,-53.73 594.27,-51.05"/>
<polygon fill="red" stroke="red" stroke-width="0.1" points="595.16,-47.66 584.58,-48.34 593.27,-54.4 595.16,-47.66"/>
<text text-anchor="middle" x="618.28" y="-61.44" font-family="Times,serif" font-size="9.00">0.000</text>
</g>
<!-- key 84885
bias &#45;0.346
h_scaling 1.000&#45;&gt;key 11211
bias &#45;0.534
h_scaling 1.000 -->
<g id="edge11" class="edge">
<title>key 84885
bias &#45;0.346
h_scaling 1.000&#45;&gt;key 11211
bias &#45;0.534
h_scaling 1.000</title>
<path fill="none" stroke="red" stroke-width="0.1" d="M209.04,-300.59C210.7,-361.33 216.79,-447.97 237.64,-473.84 288.79,-537.3 382.97,-560.43 449.03,-568.81"/>
<polygon fill="red" stroke="red" stroke-width="0.1" points="448.62,-572.29 458.97,-569.99 449.45,-565.33 448.62,-572.29"/>
<text text-anchor="middle" x="251.64" y="-408" font-family="Times,serif" font-size="9.00">0.000</text>
</g>
<!-- key 352055
bias &#45;0.966
h_scaling 1.000&#45;&gt;output
bias 1.000
h_scaling 1.000 -->
<g id="edge17" class="edge">
<title>key 352055
bias &#45;0.966
h_scaling 1.000&#45;&gt;output
bias 1.000
h_scaling 1.000</title>
<path fill="none" stroke="blue" stroke-width="0.1" d="M261.89,-121.76C268.87,-138.18 276.02,-156.26 281.64,-173.28 299.52,-227.45 314.43,-290.29 324.51,-337.5"/>
<polygon fill="blue" stroke="blue" stroke-width="0.1" points="321.09,-338.26 326.58,-347.32 327.94,-336.82 321.09,-338.26"/>
</g>
<!-- key 257597
bias 0.942
h_scaling 1.000 -->
<g id="node10" class="node">
<title>key 257597
bias 0.942
h_scaling 1.000</title>
<ellipse fill="white" stroke="black" cx="614.64" cy="-236.92" rx="63.78" ry="63.78"/>
<text text-anchor="middle" x="614.64" y="-244.72" font-family="Times,serif" font-size="9.00">key 257597</text>
<text text-anchor="middle" x="614.64" y="-234.72" font-family="Times,serif" font-size="9.00">bias 0.942</text>
<text text-anchor="middle" x="614.64" y="-224.72" font-family="Times,serif" font-size="9.00">h_scaling 1.000</text>
</g>
<!-- key 257597
bias 0.942
h_scaling 1.000&#45;&gt;key 1458
bias &#45;0.756
h_scaling 1.000 -->
<g id="edge14" class="edge">
<title>key 257597
bias 0.942
h_scaling 1.000&#45;&gt;key 1458
bias &#45;0.756
h_scaling 1.000</title>
<path fill="none" stroke="red" stroke-width="0.1" d="M584.77,-180.31C576,-163.99 566.34,-146.01 557.31,-129.18"/>
<polygon fill="red" stroke="red" stroke-width="0.1" points="560.17,-127.12 552.36,-119.97 554.01,-130.44 560.17,-127.12"/>
<text text-anchor="middle" x="582.64" y="-148.08" font-family="Times,serif" font-size="9.00">0.000</text>
</g>
</g>
</svg>
