<?xml version="1.0" encoding="UTF-8" standalone="no"?>
<!DOCTYPE svg PUBLIC "-//W3C//DTD SVG 1.1//EN"
 "http://www.w3.org/Graphics/SVG/1.1/DTD/svg11.dtd">
<!-- Generated by graphviz version 2.43.0 (0)
 -->
<!-- Title: %3 Pages: 1 -->
<svg width="538pt" height="1221pt"
 viewBox="0.00 0.00 538.00 1220.95" xmlns="http://www.w3.org/2000/svg" xmlns:xlink="http://www.w3.org/1999/xlink">
<g id="graph0" class="graph" transform="scale(1 1) rotate(0) translate(4 1216.95)">
<title>%3</title>
<polygon fill="white" stroke="transparent" points="-4,4 -4,-1216.95 534,-1216.95 534,4 -4,4"/>
<!-- ready -->
<g id="node1" class="node">
<title>ready</title>
<polygon fill="yellow" stroke="black" points="219.5,-1212.95 176.5,-1212.95 176.5,-1194.95 219.5,-1194.95 219.5,-1212.95"/>
<text text-anchor="middle" x="198" y="-1201.75" font-family="Times,serif" font-size="9.00">ready</text>
</g>
<!-- key 37
bias 0.646
h_scaling 1.000 -->
<g id="node4" class="node">
<title>key 37
bias 0.646
h_scaling 1.000</title>
<ellipse fill="white" stroke="black" cx="290" cy="-912.04" rx="63.78" ry="63.78"/>
<text text-anchor="middle" x="290" y="-919.84" font-family="Times,serif" font-size="9.00">key 37</text>
<text text-anchor="middle" x="290" y="-909.84" font-family="Times,serif" font-size="9.00">bias 0.646</text>
<text text-anchor="middle" x="290" y="-899.84" font-family="Times,serif" font-size="9.00">h_scaling 1.000</text>
</g>
<!-- ready&#45;&gt;key 37
bias 0.646
h_scaling 1.000 -->
<g id="edge3" class="edge">
<title>ready&#45;&gt;key 37
bias 0.646
h_scaling 1.000</title>
<path fill="none" stroke="blue" stroke-width="0.1" d="M197.48,-1194.69C196.12,-1168.46 194.01,-1085.04 217,-1021.68 223.47,-1003.83 233.49,-986.07 244.06,-970.23"/>
<polygon fill="blue" stroke="blue" stroke-width="0.1" points="247.18,-971.86 249.97,-961.64 241.42,-967.9 247.18,-971.86"/>
</g>
<!-- key 32775
bias &#45;0.841
h_scaling 1.000 -->
<g id="node5" class="node">
<title>key 32775
bias &#45;0.841
h_scaling 1.000</title>
<ellipse fill="white" stroke="black" cx="143" cy="-738.76" rx="63.78" ry="63.78"/>
<text text-anchor="middle" x="143" y="-746.56" font-family="Times,serif" font-size="9.00">key 32775</text>
<text text-anchor="middle" x="143" y="-736.56" font-family="Times,serif" font-size="9.00">bias &#45;0.841</text>
<text text-anchor="middle" x="143" y="-726.56" font-family="Times,serif" font-size="9.00">h_scaling 1.000</text>
</g>
<!-- ready&#45;&gt;key 32775
bias &#45;0.841
h_scaling 1.000 -->
<g id="edge22" class="edge">
<title>ready&#45;&gt;key 32775
bias &#45;0.841
h_scaling 1.000</title>
<path fill="none" stroke="blue" stroke-width="0.1" d="M195.87,-1194.81C194.59,-1189.71 193.03,-1182.98 192,-1176.95 170.23,-1049.5 155.82,-899.41 148.56,-812.37"/>
<polygon fill="blue" stroke="blue" stroke-width="0.1" points="152.04,-812.02 147.73,-802.34 145.07,-812.59 152.04,-812.02"/>
</g>
<!-- key 8879
bias &#45;0.179
h_scaling 1.000 -->
<g id="node6" class="node">
<title>key 8879
bias &#45;0.179
h_scaling 1.000</title>
<ellipse fill="white" stroke="black" cx="290" cy="-1085.31" rx="63.78" ry="63.78"/>
<text text-anchor="middle" x="290" y="-1093.11" font-family="Times,serif" font-size="9.00">key 8879</text>
<text text-anchor="middle" x="290" y="-1083.11" font-family="Times,serif" font-size="9.00">bias &#45;0.179</text>
<text text-anchor="middle" x="290" y="-1073.11" font-family="Times,serif" font-size="9.00">h_scaling 1.000</text>
</g>
<!-- ready&#45;&gt;key 8879
bias &#45;0.179
h_scaling 1.000 -->
<g id="edge6" class="edge">
<title>ready&#45;&gt;key 8879
bias &#45;0.179
h_scaling 1.000</title>
<path fill="none" stroke="red" stroke-width="0.33" d="M204.32,-1194.94C212.85,-1184.12 228.81,-1163.89 244.66,-1143.79"/>
<polygon fill="red" stroke="red" stroke-width="0.33" points="247.51,-1145.84 250.95,-1135.82 242.01,-1141.5 247.51,-1145.84"/>
<text text-anchor="middle" x="239" y="-1169.75" font-family="Times,serif" font-size="9.00">0.008</text>
</g>
<!-- key 4787
bias &#45;0.697
h_scaling 1.000 -->
<g id="node8" class="node">
<title>key 4787
bias &#45;0.697
h_scaling 1.000</title>
<ellipse fill="white" stroke="black" cx="337" cy="-227.92" rx="63.78" ry="63.78"/>
<text text-anchor="middle" x="337" y="-235.72" font-family="Times,serif" font-size="9.00">key 4787</text>
<text text-anchor="middle" x="337" y="-225.72" font-family="Times,serif" font-size="9.00">bias &#45;0.697</text>
<text text-anchor="middle" x="337" y="-215.72" font-family="Times,serif" font-size="9.00">h_scaling 1.000</text>
</g>
<!-- ready&#45;&gt;key 4787
bias &#45;0.697
h_scaling 1.000 -->
<g id="edge23" class="edge">
<title>ready&#45;&gt;key 4787
bias &#45;0.697
h_scaling 1.000</title>
<path fill="none" stroke="blue" stroke-width="0.1" d="M219.78,-1201.92C265.56,-1198.99 374.18,-1188.14 455,-1148.95 494.08,-1130.01 530,-1129.74 530,-1086.31 530,-1086.31 530,-1086.31 530,-400.2 530,-331.45 460.65,-283.58 405.09,-256.26"/>
<polygon fill="blue" stroke="blue" stroke-width="0.1" points="406.49,-253.04 395.96,-251.88 403.46,-259.36 406.49,-253.04"/>
</g>
<!-- key 5855
bias 0.412
h_scaling 1.000 -->
<g id="node10" class="node">
<title>key 5855
bias 0.412
h_scaling 1.000</title>
<ellipse fill="white" stroke="black" cx="92" cy="-565.48" rx="63.78" ry="63.78"/>
<text text-anchor="middle" x="92" y="-573.28" font-family="Times,serif" font-size="9.00">key 5855</text>
<text text-anchor="middle" x="92" y="-563.28" font-family="Times,serif" font-size="9.00">bias 0.412</text>
<text text-anchor="middle" x="92" y="-553.28" font-family="Times,serif" font-size="9.00">h_scaling 1.000</text>
</g>
<!-- ready&#45;&gt;key 5855
bias 0.412
h_scaling 1.000 -->
<g id="edge13" class="edge">
<title>ready&#45;&gt;key 5855
bias 0.412
h_scaling 1.000</title>
<path fill="none" stroke="red" stroke-width="0.42" d="M176.31,-1196.87C135.42,-1183.91 51,-1149.52 51,-1086.31 51,-1086.31 51,-1086.31 51,-737.76 51,-703.41 58.9,-666.22 67.76,-635.3"/>
<polygon fill="red" stroke="red" stroke-width="0.42" points="71.18,-636.08 70.66,-625.5 64.47,-634.09 71.18,-636.08"/>
<text text-anchor="middle" x="65" y="-909.84" font-family="Times,serif" font-size="9.00">0.011</text>
</g>
<!-- go -->
<g id="node2" class="node">
<title>go</title>
<polygon fill="green" stroke="black" points="446,-1094.31 418,-1094.31 418,-1076.31 446,-1076.31 446,-1094.31"/>
<text text-anchor="middle" x="432" y="-1083.11" font-family="Times,serif" font-size="9.00">go</text>
</g>
<!-- go&#45;&gt;key 37
bias 0.646
h_scaling 1.000 -->
<g id="edge11" class="edge">
<title>go&#45;&gt;key 37
bias 0.646
h_scaling 1.000</title>
<path fill="none" stroke="red" stroke-width="0.85" d="M430.29,-1076.03C427.42,-1063.45 420.75,-1039.18 409,-1021.68 407.7,-1019.74 375.31,-990.2 344.66,-962.42"/>
<polygon fill="red" stroke="red" stroke-width="0.85" points="346.68,-959.53 336.92,-955.41 341.98,-964.72 346.68,-959.53"/>
<text text-anchor="middle" x="401" y="-996.48" font-family="Times,serif" font-size="9.00">0.025</text>
</g>
<!-- key 5167
bias &#45;0.254
h_scaling 1.000 -->
<g id="node7" class="node">
<title>key 5167
bias &#45;0.254
h_scaling 1.000</title>
<ellipse fill="white" stroke="black" cx="199" cy="-401.2" rx="63.78" ry="63.78"/>
<text text-anchor="middle" x="199" y="-409" font-family="Times,serif" font-size="9.00">key 5167</text>
<text text-anchor="middle" x="199" y="-399" font-family="Times,serif" font-size="9.00">bias &#45;0.254</text>
<text text-anchor="middle" x="199" y="-389" font-family="Times,serif" font-size="9.00">h_scaling 1.000</text>
</g>
<!-- go&#45;&gt;key 5167
bias &#45;0.254
h_scaling 1.000 -->
<g id="edge9" class="edge">
<title>go&#45;&gt;key 5167
bias &#45;0.254
h_scaling 1.000</title>
<path fill="none" stroke="red" stroke-width="0.51" d="M432.15,-1076.01C433.18,-1012.3 437.09,-600.68 369,-501.84 344.86,-466.8 304.04,-442.28 268.46,-426.34"/>
<polygon fill="red" stroke="red" stroke-width="0.51" points="269.63,-423.03 259.06,-422.27 266.84,-429.46 269.63,-423.03"/>
<text text-anchor="middle" x="440" y="-736.56" font-family="Times,serif" font-size="9.00">0.014</text>
</g>
<!-- go&#45;&gt;key 4787
bias &#45;0.697
h_scaling 1.000 -->
<g id="edge19" class="edge">
<title>go&#45;&gt;key 4787
bias &#45;0.697
h_scaling 1.000</title>
<path fill="none" stroke="red" stroke-width="0.53" d="M436.69,-1076.06C449.99,-1051.86 487,-978.62 487,-913.04 487,-913.04 487,-913.04 487,-400.2 487,-344.06 440.83,-297.49 399.72,-267.15"/>
<polygon fill="red" stroke="red" stroke-width="0.53" points="401.74,-264.3 391.58,-261.3 397.66,-269.98 401.74,-264.3"/>
<text text-anchor="middle" x="501" y="-649.92" font-family="Times,serif" font-size="9.00">0.014</text>
</g>
<!-- output
bias 0.474
h_scaling 1.000 -->
<g id="node3" class="node">
<title>output
bias 0.474
h_scaling 1.000</title>
<ellipse fill="lightblue" stroke="black" cx="82" cy="-63.64" rx="63.78" ry="63.78"/>
<text text-anchor="middle" x="82" y="-71.44" font-family="Times,serif" font-size="9.00">output</text>
<text text-anchor="middle" x="82" y="-61.44" font-family="Times,serif" font-size="9.00">bias 0.474</text>
<text text-anchor="middle" x="82" y="-51.44" font-family="Times,serif" font-size="9.00">h_scaling 1.000</text>
</g>
<!-- output
bias 0.474
h_scaling 1.000&#45;&gt;key 32775
bias &#45;0.841
h_scaling 1.000 -->
<g id="edge16" class="edge">
<title>output
bias 0.474
h_scaling 1.000&#45;&gt;key 32775
bias &#45;0.841
h_scaling 1.000</title>
<path fill="none" stroke="red" stroke-width="0.58" d="M42.2,-113.7C21.31,-144.36 0,-185.73 0,-226.92 0,-566.48 0,-566.48 0,-566.48 0,-620.72 42.79,-666.88 81.56,-697.56"/>
<polygon fill="red" stroke="red" stroke-width="0.58" points="79.69,-700.54 89.75,-703.86 83.96,-694.99 79.69,-700.54"/>
<text text-anchor="middle" x="14" y="-399" font-family="Times,serif" font-size="9.00">0.016</text>
</g>
<!-- key 37
bias 0.646
h_scaling 1.000&#45;&gt;key 32775
bias &#45;0.841
h_scaling 1.000 -->
<g id="edge20" class="edge">
<title>key 37
bias 0.646
h_scaling 1.000&#45;&gt;key 32775
bias &#45;0.841
h_scaling 1.000</title>
<path fill="none" stroke="red" stroke-width="1.48" d="M248.66,-862.87C230.66,-841.9 209.45,-817.19 190.78,-795.43"/>
<polygon fill="red" stroke="red" stroke-width="1.48" points="193.2,-792.87 184.03,-787.56 187.89,-797.43 193.2,-792.87"/>
<text text-anchor="middle" x="230" y="-823.2" font-family="Times,serif" font-size="9.00">0.046</text>
</g>
<!-- key 37
bias 0.646
h_scaling 1.000&#45;&gt;key 4787
bias &#45;0.697
h_scaling 1.000 -->
<g id="edge1" class="edge">
<title>key 37
bias 0.646
h_scaling 1.000&#45;&gt;key 4787
bias &#45;0.697
h_scaling 1.000</title>
<path fill="none" stroke="red" stroke-width="0.84" d="M314.74,-852.96C317.44,-845.45 319.94,-837.8 322,-830.4 332.93,-791.05 337,-780.59 337,-739.76 337,-739.76 337,-739.76 337,-400.2 337,-367.87 337,-332.11 337,-301.67"/>
<polygon fill="red" stroke="red" stroke-width="0.84" points="340.5,-301.56 337,-291.56 333.5,-301.56 340.5,-301.56"/>
<text text-anchor="middle" x="351" y="-563.28" font-family="Times,serif" font-size="9.00">0.025</text>
</g>
<!-- key 37
bias 0.646
h_scaling 1.000&#45;&gt;key 5855
bias 0.412
h_scaling 1.000 -->
<g id="edge10" class="edge">
<title>key 37
bias 0.646
h_scaling 1.000&#45;&gt;key 5855
bias 0.412
h_scaling 1.000</title>
<path fill="none" stroke="blue" stroke-width="0.1" d="M291.03,-848.22C292.56,-796.94 289.02,-725.04 253,-675.12 224.85,-636.1 195.31,-655.38 155,-629.12 150.69,-626.31 146.36,-623.25 142.1,-620.06"/>
<polygon fill="blue" stroke="blue" stroke-width="0.1" points="144.06,-617.15 134.02,-613.78 139.76,-622.68 144.06,-617.15"/>
</g>
<!-- key 32775
bias &#45;0.841
h_scaling 1.000&#45;&gt;key 32775
bias &#45;0.841
h_scaling 1.000 -->
<g id="edge21" class="edge">
<title>key 32775
bias &#45;0.841
h_scaling 1.000&#45;&gt;key 32775
bias &#45;0.841
h_scaling 1.000</title>
<path fill="none" stroke="red" stroke-width="1.9" d="M204.94,-754.05C216.5,-752.17 224.64,-747.07 224.64,-738.76 224.64,-733.04 220.79,-728.84 214.63,-726.17"/>
<polygon fill="red" stroke="red" stroke-width="1.9" points="215.52,-722.78 204.94,-723.46 213.63,-729.52 215.52,-722.78"/>
<text text-anchor="middle" x="238.64" y="-736.56" font-family="Times,serif" font-size="9.00">0.060</text>
</g>
<!-- key 32775
bias &#45;0.841
h_scaling 1.000&#45;&gt;key 5855
bias 0.412
h_scaling 1.000 -->
<g id="edge17" class="edge">
<title>key 32775
bias &#45;0.841
h_scaling 1.000&#45;&gt;key 5855
bias 0.412
h_scaling 1.000</title>
<path fill="none" stroke="blue" stroke-width="0.1" d="M125.02,-677.37C121.07,-664.12 116.86,-649.98 112.82,-636.39"/>
<polygon fill="blue" stroke="blue" stroke-width="0.1" points="116.11,-635.19 109.9,-626.61 109.4,-637.19 116.11,-635.19"/>
</g>
<!-- key 8879
bias &#45;0.179
h_scaling 1.000&#45;&gt;key 37
bias 0.646
h_scaling 1.000 -->
<g id="edge7" class="edge">
<title>key 8879
bias &#45;0.179
h_scaling 1.000&#45;&gt;key 37
bias 0.646
h_scaling 1.000</title>
<path fill="none" stroke="blue" stroke-width="0.1" d="M290,-1021.51C290,-1009.99 290,-997.88 290,-986.09"/>
<polygon fill="blue" stroke="blue" stroke-width="0.1" points="293.5,-985.83 290,-975.83 286.5,-985.83 293.5,-985.83"/>
</g>
<!-- key 8879
bias &#45;0.179
h_scaling 1.000&#45;&gt;key 8879
bias &#45;0.179
h_scaling 1.000 -->
<g id="edge25" class="edge">
<title>key 8879
bias &#45;0.179
h_scaling 1.000&#45;&gt;key 8879
bias &#45;0.179
h_scaling 1.000</title>
<path fill="none" stroke="red" stroke-width="0.31" d="M351.94,-1100.61C363.5,-1098.73 371.64,-1093.63 371.64,-1085.31 371.64,-1079.6 367.79,-1075.4 361.63,-1072.73"/>
<polygon fill="red" stroke="red" stroke-width="0.31" points="362.52,-1069.34 351.94,-1070.02 360.63,-1076.08 362.52,-1069.34"/>
<text text-anchor="middle" x="385.64" y="-1083.11" font-family="Times,serif" font-size="9.00">0.007</text>
</g>
<!-- key 8879
bias &#45;0.179
h_scaling 1.000&#45;&gt;key 4787
bias &#45;0.697
h_scaling 1.000 -->
<g id="edge24" class="edge">
<title>key 8879
bias &#45;0.179
h_scaling 1.000&#45;&gt;key 4787
bias &#45;0.697
h_scaling 1.000</title>
<path fill="none" stroke="blue" stroke-width="0.1" d="M330.89,-1036.34C343.68,-1018.46 356.22,-997.25 363,-975.68 437.93,-737.22 385.34,-434.69 354.74,-299.61"/>
<polygon fill="blue" stroke="blue" stroke-width="0.1" points="358.13,-298.76 352.49,-289.79 351.31,-300.32 358.13,-298.76"/>
</g>
<!-- key 5167
bias &#45;0.254
h_scaling 1.000&#45;&gt;output
bias 0.474
h_scaling 1.000 -->
<g id="edge12" class="edge">
<title>key 5167
bias &#45;0.254
h_scaling 1.000&#45;&gt;output
bias 0.474
h_scaling 1.000</title>
<path fill="none" stroke="blue" stroke-width="0.1" d="M178.35,-340.98C158.15,-283.03 127.38,-194.79 106.07,-133.68"/>
<polygon fill="blue" stroke="blue" stroke-width="0.1" points="109.33,-132.4 102.74,-124.11 102.72,-134.71 109.33,-132.4"/>
</g>
<!-- key 5167
bias &#45;0.254
h_scaling 1.000&#45;&gt;key 5167
bias &#45;0.254
h_scaling 1.000 -->
<g id="edge15" class="edge">
<title>key 5167
bias &#45;0.254
h_scaling 1.000&#45;&gt;key 5167
bias &#45;0.254
h_scaling 1.000</title>
<path fill="none" stroke="red" stroke-width="1.12" d="M261.29,-415.73C272.66,-413.89 280.64,-409.05 280.64,-401.2 280.64,-395.93 277.04,-392.01 271.23,-389.45"/>
<polygon fill="red" stroke="red" stroke-width="1.12" points="271.87,-385.99 261.29,-386.67 269.98,-392.73 271.87,-385.99"/>
<text text-anchor="middle" x="294.64" y="-399" font-family="Times,serif" font-size="9.00">0.034</text>
</g>
<!-- key 5167
bias &#45;0.254
h_scaling 1.000&#45;&gt;key 4787
bias &#45;0.697
h_scaling 1.000 -->
<g id="edge4" class="edge">
<title>key 5167
bias &#45;0.254
h_scaling 1.000&#45;&gt;key 4787
bias &#45;0.697
h_scaling 1.000</title>
<path fill="none" stroke="red" stroke-width="2.41" d="M238.55,-351.12C254.93,-330.78 274.04,-307.06 291.05,-285.96"/>
<polygon fill="red" stroke="red" stroke-width="2.41" points="293.9,-287.99 297.45,-278.01 288.45,-283.6 293.9,-287.99"/>
<text text-anchor="middle" x="282" y="-312.36" font-family="Times,serif" font-size="9.00">0.077</text>
</g>
<!-- key 4787
bias &#45;0.697
h_scaling 1.000&#45;&gt;output
bias 0.474
h_scaling 1.000 -->
<g id="edge2" class="edge">
<title>key 4787
bias &#45;0.697
h_scaling 1.000&#45;&gt;output
bias 0.474
h_scaling 1.000</title>
<path fill="none" stroke="blue" stroke-width="0.1" d="M283.54,-192.9C242.83,-166.99 186.7,-131.27 144.01,-104.1"/>
<polygon fill="blue" stroke="blue" stroke-width="0.1" points="145.7,-101.03 135.39,-98.61 141.94,-106.94 145.7,-101.03"/>
</g>
<!-- key 4787
bias &#45;0.697
h_scaling 1.000&#45;&gt;key 4787
bias &#45;0.697
h_scaling 1.000 -->
<g id="edge8" class="edge">
<title>key 4787
bias &#45;0.697
h_scaling 1.000&#45;&gt;key 4787
bias &#45;0.697
h_scaling 1.000</title>
<path fill="none" stroke="red" stroke-width="1.41" d="M399.29,-242.45C410.66,-240.61 418.64,-235.77 418.64,-227.92 418.64,-222.65 415.04,-218.73 409.23,-216.17"/>
<polygon fill="red" stroke="red" stroke-width="1.41" points="409.87,-212.71 399.29,-213.39 407.98,-219.45 409.87,-212.71"/>
<text text-anchor="middle" x="432.64" y="-225.72" font-family="Times,serif" font-size="9.00">0.044</text>
</g>
<!-- key 307161
bias &#45;1.000
h_scaling 1.000 -->
<g id="node9" class="node">
<title>key 307161
bias &#45;1.000
h_scaling 1.000</title>
<ellipse fill="white" stroke="black" cx="237" cy="-565.48" rx="63.78" ry="63.78"/>
<text text-anchor="middle" x="237" y="-573.28" font-family="Times,serif" font-size="9.00">key 307161</text>
<text text-anchor="middle" x="237" y="-563.28" font-family="Times,serif" font-size="9.00">bias &#45;1.000</text>
<text text-anchor="middle" x="237" y="-553.28" font-family="Times,serif" font-size="9.00">h_scaling 1.000</text>
</g>
<!-- key 307161
bias &#45;1.000
h_scaling 1.000&#45;&gt;key 5167
bias &#45;0.254
h_scaling 1.000 -->
<g id="edge26" class="edge">
<title>key 307161
bias &#45;1.000
h_scaling 1.000&#45;&gt;key 5167
bias &#45;0.254
h_scaling 1.000</title>
<path fill="none" stroke="blue" stroke-width="0.1" d="M222.63,-503.13C220.35,-493.37 217.97,-483.2 215.63,-473.24"/>
<polygon fill="blue" stroke="blue" stroke-width="0.1" points="219.01,-472.3 213.32,-463.37 212.2,-473.9 219.01,-472.3"/>
</g>
<!-- key 5855
bias 0.412
h_scaling 1.000&#45;&gt;key 37
bias 0.646
h_scaling 1.000 -->
<g id="edge5" class="edge">
<title>key 5855
bias 0.412
h_scaling 1.000&#45;&gt;key 37
bias 0.646
h_scaling 1.000</title>
<path fill="none" stroke="blue" stroke-width="0.1" d="M141.85,-605.64C151.82,-613.93 162.45,-622.24 173,-629.12 213.31,-655.38 242.85,-636.1 271,-675.12 305.09,-722.37 310.09,-789.31 306.2,-839.82"/>
<polygon fill="blue" stroke="blue" stroke-width="0.1" points="302.69,-839.74 305.28,-850.02 309.67,-840.37 302.69,-839.74"/>
</g>
<!-- key 5855
bias 0.412
h_scaling 1.000&#45;&gt;key 5167
bias &#45;0.254
h_scaling 1.000 -->
<g id="edge18" class="edge">
<title>key 5855
bias 0.412
h_scaling 1.000&#45;&gt;key 5167
bias &#45;0.254
h_scaling 1.000</title>
<path fill="none" stroke="blue" stroke-width="0.1" d="M126.74,-511.79C136.88,-496.41 148.06,-479.46 158.52,-463.59"/>
<polygon fill="blue" stroke="blue" stroke-width="0.1" points="161.67,-465.17 164.25,-454.9 155.82,-461.32 161.67,-465.17"/>
</g>
<!-- key 5855
bias 0.412
h_scaling 1.000&#45;&gt;key 4787
bias &#45;0.697
h_scaling 1.000 -->
<g id="edge14" class="edge">
<title>key 5855
bias 0.412
h_scaling 1.000&#45;&gt;key 4787
bias &#45;0.697
h_scaling 1.000</title>
<path fill="none" stroke="blue" stroke-width="0.1" d="M86.69,-501.98C85.73,-452.91 91.88,-385.15 126,-337.56 159.24,-291.19 218.25,-263.2 265.43,-247.27"/>
<polygon fill="blue" stroke="blue" stroke-width="0.1" points="266.58,-250.58 275,-244.15 264.4,-243.92 266.58,-250.58"/>
</g>
</g>
</svg>
