<?xml version="1.0" encoding="UTF-8" standalone="no"?>
<!DOCTYPE svg PUBLIC "-//W3C//DTD SVG 1.1//EN"
 "http://www.w3.org/Graphics/SVG/1.1/DTD/svg11.dtd">
<!-- Generated by graphviz version 2.43.0 (0)
 -->
<!-- Title: %3 Pages: 1 -->
<svg width="683pt" height="1239pt"
 viewBox="0.00 0.00 682.95 1238.95" xmlns="http://www.w3.org/2000/svg" xmlns:xlink="http://www.w3.org/1999/xlink">
<g id="graph0" class="graph" transform="scale(1 1) rotate(0) translate(4 1234.95)">
<title>%3</title>
<polygon fill="white" stroke="transparent" points="-4,4 -4,-1234.95 678.95,-1234.95 678.95,4 -4,4"/>
<!-- ready -->
<g id="node1" class="node">
<title>ready</title>
<polygon fill="yellow" stroke="black" points="305.45,-1230.95 262.45,-1230.95 262.45,-1212.95 305.45,-1212.95 305.45,-1230.95"/>
<text text-anchor="middle" x="283.95" y="-1219.75" font-family="Times,serif" font-size="9.00">ready</text>
</g>
<!-- key 37
bias 0.646
h_scaling 1.000 -->
<g id="node4" class="node">
<title>key 37
bias 0.646
h_scaling 1.000</title>
<ellipse fill="white" stroke="black" cx="388.95" cy="-930.04" rx="63.78" ry="63.78"/>
<text text-anchor="middle" x="388.95" y="-937.84" font-family="Times,serif" font-size="9.00">key 37</text>
<text text-anchor="middle" x="388.95" y="-927.84" font-family="Times,serif" font-size="9.00">bias 0.646</text>
<text text-anchor="middle" x="388.95" y="-917.84" font-family="Times,serif" font-size="9.00">h_scaling 1.000</text>
</g>
<!-- ready&#45;&gt;key 37
bias 0.646
h_scaling 1.000 -->
<g id="edge3" class="edge">
<title>ready&#45;&gt;key 37
bias 0.646
h_scaling 1.000</title>
<path fill="none" stroke="blue" stroke-width="2.45" d="M282.49,-1212.59C278.22,-1186.05 267.64,-1101.84 292.95,-1039.68 301.96,-1017.54 317.5,-996.88 333.48,-979.64"/>
<polygon fill="blue" stroke="blue" stroke-width="2.45" points="336.44,-981.61 340.83,-971.97 331.38,-976.77 336.44,-981.61"/>
<text text-anchor="middle" x="308.45" y="-1101.11" font-family="Times,serif" font-size="9.00">&#45;0.785</text>
</g>
<!-- key 32775
bias &#45;0.841
h_scaling 1.000 -->
<g id="node5" class="node">
<title>key 32775
bias &#45;0.841
h_scaling 1.000</title>
<ellipse fill="white" stroke="black" cx="175.95" cy="-756.76" rx="63.78" ry="63.78"/>
<text text-anchor="middle" x="175.95" y="-764.56" font-family="Times,serif" font-size="9.00">key 32775</text>
<text text-anchor="middle" x="175.95" y="-754.56" font-family="Times,serif" font-size="9.00">bias &#45;0.841</text>
<text text-anchor="middle" x="175.95" y="-744.56" font-family="Times,serif" font-size="9.00">h_scaling 1.000</text>
</g>
<!-- ready&#45;&gt;key 32775
bias &#45;0.841
h_scaling 1.000 -->
<g id="edge22" class="edge">
<title>ready&#45;&gt;key 32775
bias &#45;0.841
h_scaling 1.000</title>
<path fill="none" stroke="blue" stroke-width="2.59" d="M262.35,-1221.45C213.62,-1222.09 97.28,-1220.79 69.95,-1194.95 -36.19,-1094.61 -5.92,-995.74 61.95,-866.4 75.07,-841.39 96.17,-818.87 116.67,-800.91"/>
<polygon fill="blue" stroke="blue" stroke-width="2.59" points="119.14,-803.4 124.47,-794.25 114.59,-798.08 119.14,-803.4"/>
<text text-anchor="middle" x="19.45" y="-1014.48" font-family="Times,serif" font-size="9.00">&#45;0.829</text>
</g>
<!-- key 8879
bias &#45;0.179
h_scaling 1.000 -->
<g id="node6" class="node">
<title>key 8879
bias &#45;0.179
h_scaling 1.000</title>
<ellipse fill="white" stroke="black" cx="396.95" cy="-1103.31" rx="63.78" ry="63.78"/>
<text text-anchor="middle" x="396.95" y="-1111.11" font-family="Times,serif" font-size="9.00">key 8879</text>
<text text-anchor="middle" x="396.95" y="-1101.11" font-family="Times,serif" font-size="9.00">bias &#45;0.179</text>
<text text-anchor="middle" x="396.95" y="-1091.11" font-family="Times,serif" font-size="9.00">h_scaling 1.000</text>
</g>
<!-- ready&#45;&gt;key 8879
bias &#45;0.179
h_scaling 1.000 -->
<g id="edge6" class="edge">
<title>ready&#45;&gt;key 8879
bias &#45;0.179
h_scaling 1.000</title>
<path fill="none" stroke="red" stroke-width="2.62" d="M291.72,-1212.94C303.05,-1201.24 325.06,-1178.52 346.04,-1156.87"/>
<polygon fill="red" stroke="red" stroke-width="2.62" points="348.65,-1159.2 353.09,-1149.58 343.62,-1154.33 348.65,-1159.2"/>
<text text-anchor="middle" x="330.95" y="-1187.75" font-family="Times,serif" font-size="9.00">0.839</text>
</g>
<!-- key 4787
bias &#45;0.697
h_scaling 1.000 -->
<g id="node8" class="node">
<title>key 4787
bias &#45;0.697
h_scaling 1.000</title>
<ellipse fill="white" stroke="black" cx="451.95" cy="-236.92" rx="63.78" ry="63.78"/>
<text text-anchor="middle" x="451.95" y="-244.72" font-family="Times,serif" font-size="9.00">key 4787</text>
<text text-anchor="middle" x="451.95" y="-234.72" font-family="Times,serif" font-size="9.00">bias &#45;0.697</text>
<text text-anchor="middle" x="451.95" y="-224.72" font-family="Times,serif" font-size="9.00">h_scaling 1.000</text>
</g>
<!-- ready&#45;&gt;key 4787
bias &#45;0.697
h_scaling 1.000 -->
<g id="edge23" class="edge">
<title>ready&#45;&gt;key 4787
bias &#45;0.697
h_scaling 1.000</title>
<path fill="none" stroke="blue" stroke-width="2.16" d="M305.66,-1218.71C383.49,-1210.08 643.95,-1175.84 643.95,-1104.31 643.95,-1104.31 643.95,-1104.31 643.95,-409.2 643.95,-340.76 575.17,-292.89 519.95,-265.48"/>
<polygon fill="blue" stroke="blue" stroke-width="2.16" points="521.39,-262.29 510.86,-261.09 518.35,-268.59 521.39,-262.29"/>
<text text-anchor="middle" x="659.45" y="-754.56" font-family="Times,serif" font-size="9.00">&#45;0.688</text>
</g>
<!-- key 5855
bias 0.412
h_scaling 1.000 -->
<g id="node10" class="node">
<title>key 5855
bias 0.412
h_scaling 1.000</title>
<ellipse fill="white" stroke="black" cx="202.95" cy="-583.48" rx="63.78" ry="63.78"/>
<text text-anchor="middle" x="202.95" y="-591.28" font-family="Times,serif" font-size="9.00">key 5855</text>
<text text-anchor="middle" x="202.95" y="-581.28" font-family="Times,serif" font-size="9.00">bias 0.412</text>
<text text-anchor="middle" x="202.95" y="-571.28" font-family="Times,serif" font-size="9.00">h_scaling 1.000</text>
</g>
<!-- ready&#45;&gt;key 5855
bias 0.412
h_scaling 1.000 -->
<g id="edge13" class="edge">
<title>ready&#45;&gt;key 5855
bias 0.412
h_scaling 1.000</title>
<path fill="none" stroke="red" stroke-width="0.57" d="M262.17,-1218.57C210.33,-1211.57 83.95,-1186.11 83.95,-1104.31 83.95,-1104.31 83.95,-1104.31 83.95,-755.76 83.95,-707.65 116,-663.35 146.83,-631.86"/>
<polygon fill="red" stroke="red" stroke-width="0.57" points="149.58,-634.06 154.21,-624.53 144.64,-629.1 149.58,-634.06"/>
<text text-anchor="middle" x="97.95" y="-927.84" font-family="Times,serif" font-size="9.00">0.156</text>
</g>
<!-- go -->
<g id="node2" class="node">
<title>go</title>
<polygon fill="green" stroke="black" points="555.95,-1112.31 527.95,-1112.31 527.95,-1094.31 555.95,-1094.31 555.95,-1112.31"/>
<text text-anchor="middle" x="541.95" y="-1101.11" font-family="Times,serif" font-size="9.00">go</text>
</g>
<!-- go&#45;&gt;key 37
bias 0.646
h_scaling 1.000 -->
<g id="edge11" class="edge">
<title>go&#45;&gt;key 37
bias 0.646
h_scaling 1.000</title>
<path fill="none" stroke="red" stroke-width="1.67" d="M539.85,-1093.98C536.37,-1081.36 528.55,-1057.01 515.95,-1039.68 505.35,-1025.08 475.1,-999.05 446.78,-976.12"/>
<polygon fill="red" stroke="red" stroke-width="1.67" points="448.85,-973.29 438.86,-969.75 444.46,-978.74 448.85,-973.29"/>
<text text-anchor="middle" x="510.95" y="-1014.48" font-family="Times,serif" font-size="9.00">0.523</text>
</g>
<!-- key 5167
bias &#45;0.254
h_scaling 1.000 -->
<g id="node7" class="node">
<title>key 5167
bias &#45;0.254
h_scaling 1.000</title>
<ellipse fill="white" stroke="black" cx="313.95" cy="-410.2" rx="63.78" ry="63.78"/>
<text text-anchor="middle" x="313.95" y="-418" font-family="Times,serif" font-size="9.00">key 5167</text>
<text text-anchor="middle" x="313.95" y="-408" font-family="Times,serif" font-size="9.00">bias &#45;0.254</text>
<text text-anchor="middle" x="313.95" y="-398" font-family="Times,serif" font-size="9.00">h_scaling 1.000</text>
</g>
<!-- go&#45;&gt;key 5167
bias &#45;0.254
h_scaling 1.000 -->
<g id="edge9" class="edge">
<title>go&#45;&gt;key 5167
bias &#45;0.254
h_scaling 1.000</title>
<path fill="none" stroke="red" stroke-width="2.24" d="M541.95,-1094.11C541.95,-1069.45 541.95,-993.78 541.95,-931.04 541.95,-931.04 541.95,-931.04 541.95,-582.48 541.95,-502.73 451.69,-455.53 384.75,-431.49"/>
<polygon fill="red" stroke="red" stroke-width="2.24" points="385.65,-428.1 375.05,-428.11 383.34,-434.71 385.65,-428.1"/>
<text text-anchor="middle" x="555.95" y="-754.56" font-family="Times,serif" font-size="9.00">0.715</text>
</g>
<!-- go&#45;&gt;key 4787
bias &#45;0.697
h_scaling 1.000 -->
<g id="edge19" class="edge">
<title>go&#45;&gt;key 4787
bias &#45;0.697
h_scaling 1.000</title>
<path fill="none" stroke="red" stroke-width="2.4" d="M546.73,-1094.08C560.27,-1069.9 597.95,-996.73 597.95,-931.04 597.95,-931.04 597.95,-931.04 597.95,-409.2 597.95,-354.3 553.97,-308.07 514.29,-277.53"/>
<polygon fill="red" stroke="red" stroke-width="2.4" points="516.01,-274.44 505.9,-271.25 511.81,-280.04 516.01,-274.44"/>
<text text-anchor="middle" x="611.95" y="-667.92" font-family="Times,serif" font-size="9.00">0.767</text>
</g>
<!-- output
bias 0.474
h_scaling 1.000 -->
<g id="node3" class="node">
<title>output
bias 0.474
h_scaling 1.000</title>
<ellipse fill="lightblue" stroke="black" cx="313.95" cy="-63.64" rx="63.78" ry="63.78"/>
<text text-anchor="middle" x="313.95" y="-71.44" font-family="Times,serif" font-size="9.00">output</text>
<text text-anchor="middle" x="313.95" y="-61.44" font-family="Times,serif" font-size="9.00">bias 0.474</text>
<text text-anchor="middle" x="313.95" y="-51.44" font-family="Times,serif" font-size="9.00">h_scaling 1.000</text>
</g>
<!-- output
bias 0.474
h_scaling 1.000&#45;&gt;key 32775
bias &#45;0.841
h_scaling 1.000 -->
<g id="edge16" class="edge">
<title>output
bias 0.474
h_scaling 1.000&#45;&gt;key 32775
bias &#45;0.841
h_scaling 1.000</title>
<path fill="none" stroke="red" stroke-width="1.93" d="M254.14,-85.8C194.26,-111.27 110.95,-160.3 110.95,-235.92 110.95,-584.48 110.95,-584.48 110.95,-584.48 110.95,-621.82 124.62,-660.94 139.43,-692.35"/>
<polygon fill="red" stroke="red" stroke-width="1.93" points="136.31,-693.95 143.83,-701.41 142.61,-690.89 136.31,-693.95"/>
<text text-anchor="middle" x="124.95" y="-408" font-family="Times,serif" font-size="9.00">0.611</text>
</g>
<!-- key 37
bias 0.646
h_scaling 1.000&#45;&gt;key 32775
bias &#45;0.841
h_scaling 1.000 -->
<g id="edge20" class="edge">
<title>key 37
bias 0.646
h_scaling 1.000&#45;&gt;key 32775
bias &#45;0.841
h_scaling 1.000</title>
<path fill="none" stroke="red" stroke-width="1.79" d="M337.57,-892.32C319.15,-878.83 298.39,-863.21 279.95,-848.4 263.59,-835.25 246.24,-820.47 230.49,-806.73"/>
<polygon fill="red" stroke="red" stroke-width="1.79" points="232.73,-804.04 222.9,-800.08 228.12,-809.31 232.73,-804.04"/>
<text text-anchor="middle" x="293.95" y="-841.2" font-family="Times,serif" font-size="9.00">0.564</text>
</g>
<!-- key 37
bias 0.646
h_scaling 1.000&#45;&gt;key 4787
bias &#45;0.697
h_scaling 1.000 -->
<g id="edge1" class="edge">
<title>key 37
bias 0.646
h_scaling 1.000&#45;&gt;key 4787
bias &#45;0.697
h_scaling 1.000</title>
<path fill="none" stroke="red" stroke-width="2.11" d="M408.59,-869.25C413.05,-853.51 417.26,-836.45 419.95,-820.4 450.42,-639.04 453.76,-421.9 453.13,-310.99"/>
<polygon fill="red" stroke="red" stroke-width="2.11" points="456.63,-310.89 453.06,-300.92 449.63,-310.94 456.63,-310.89"/>
<text text-anchor="middle" x="462.95" y="-581.28" font-family="Times,serif" font-size="9.00">0.670</text>
</g>
<!-- key 37
bias 0.646
h_scaling 1.000&#45;&gt;key 5855
bias 0.412
h_scaling 1.000 -->
<g id="edge10" class="edge">
<title>key 37
bias 0.646
h_scaling 1.000&#45;&gt;key 5855
bias 0.412
h_scaling 1.000</title>
<path fill="none" stroke="blue" stroke-width="2.17" d="M352.42,-877.91C341.26,-860.36 329.86,-840.15 321.95,-820.4 300.46,-766.71 320.41,-745.04 294.95,-693.12 284.9,-672.62 270.13,-652.77 255.35,-635.78"/>
<polygon fill="blue" stroke="blue" stroke-width="2.17" points="257.84,-633.31 248.58,-628.17 252.62,-637.97 257.84,-633.31"/>
<text text-anchor="middle" x="337.45" y="-754.56" font-family="Times,serif" font-size="9.00">&#45;0.691</text>
</g>
<!-- key 32775
bias &#45;0.841
h_scaling 1.000&#45;&gt;key 32775
bias &#45;0.841
h_scaling 1.000 -->
<g id="edge21" class="edge">
<title>key 32775
bias &#45;0.841
h_scaling 1.000&#45;&gt;key 32775
bias &#45;0.841
h_scaling 1.000</title>
<path fill="none" stroke="red" stroke-width="2.22" d="M237.89,-772.05C249.45,-770.17 257.59,-765.07 257.59,-756.76 257.59,-751.04 253.74,-746.84 247.58,-744.17"/>
<polygon fill="red" stroke="red" stroke-width="2.22" points="248.47,-740.78 237.89,-741.46 246.58,-747.52 248.47,-740.78"/>
<text text-anchor="middle" x="271.59" y="-754.56" font-family="Times,serif" font-size="9.00">0.708</text>
</g>
<!-- key 32775
bias &#45;0.841
h_scaling 1.000&#45;&gt;key 5855
bias 0.412
h_scaling 1.000 -->
<g id="edge17" class="edge">
<title>key 32775
bias &#45;0.841
h_scaling 1.000&#45;&gt;key 5855
bias 0.412
h_scaling 1.000</title>
<path fill="none" stroke="blue" stroke-width="1.28" d="M185.78,-693.44C187.66,-681.48 189.65,-668.87 191.58,-656.63"/>
<polygon fill="blue" stroke="blue" stroke-width="1.28" points="195.08,-656.89 193.18,-646.46 188.17,-655.8 195.08,-656.89"/>
<text text-anchor="middle" x="204.45" y="-667.92" font-family="Times,serif" font-size="9.00">&#45;0.393</text>
</g>
<!-- key 8879
bias &#45;0.179
h_scaling 1.000&#45;&gt;key 37
bias 0.646
h_scaling 1.000 -->
<g id="edge7" class="edge">
<title>key 8879
bias &#45;0.179
h_scaling 1.000&#45;&gt;key 37
bias 0.646
h_scaling 1.000</title>
<path fill="none" stroke="blue" stroke-width="2.92" d="M394.02,-1039.51C393.48,-1027.99 392.91,-1015.88 392.36,-1004.09"/>
<polygon fill="blue" stroke="blue" stroke-width="2.92" points="395.85,-1003.66 391.88,-993.83 388.86,-1003.99 395.85,-1003.66"/>
<text text-anchor="middle" x="408.45" y="-1014.48" font-family="Times,serif" font-size="9.00">&#45;0.940</text>
</g>
<!-- key 8879
bias &#45;0.179
h_scaling 1.000&#45;&gt;key 8879
bias &#45;0.179
h_scaling 1.000 -->
<g id="edge25" class="edge">
<title>key 8879
bias &#45;0.179
h_scaling 1.000&#45;&gt;key 8879
bias &#45;0.179
h_scaling 1.000</title>
<path fill="none" stroke="red" stroke-width="0.36" d="M458.89,-1118.61C470.45,-1116.73 478.59,-1111.63 478.59,-1103.31 478.59,-1097.6 474.74,-1093.4 468.58,-1090.73"/>
<polygon fill="red" stroke="red" stroke-width="0.36" points="469.47,-1087.34 458.89,-1088.02 467.58,-1094.08 469.47,-1087.34"/>
<text text-anchor="middle" x="492.59" y="-1101.11" font-family="Times,serif" font-size="9.00">0.086</text>
</g>
<!-- key 8879
bias &#45;0.179
h_scaling 1.000&#45;&gt;key 4787
bias &#45;0.697
h_scaling 1.000 -->
<g id="edge24" class="edge">
<title>key 8879
bias &#45;0.179
h_scaling 1.000&#45;&gt;key 4787
bias &#45;0.697
h_scaling 1.000</title>
<path fill="none" stroke="blue" stroke-width="0.55" d="M434.32,-1051.42C445.2,-1033.96 455.81,-1013.75 461.95,-993.68 523.63,-792.14 488.27,-730.47 480.95,-519.84 477.84,-430.22 478.28,-407.51 466.95,-318.56 466.57,-315.55 466.14,-312.48 465.69,-309.38"/>
<polygon fill="blue" stroke="blue" stroke-width="0.55" points="469.14,-308.79 464.15,-299.44 462.22,-309.86 469.14,-308.79"/>
<text text-anchor="middle" x="506.45" y="-667.92" font-family="Times,serif" font-size="9.00">&#45;0.149</text>
</g>
<!-- key 5167
bias &#45;0.254
h_scaling 1.000&#45;&gt;output
bias 0.474
h_scaling 1.000 -->
<g id="edge12" class="edge">
<title>key 5167
bias &#45;0.254
h_scaling 1.000&#45;&gt;output
bias 0.474
h_scaling 1.000</title>
<path fill="none" stroke="blue" stroke-width="2.74" d="M313.95,-346.4C313.95,-287.47 313.95,-199.36 313.95,-137.39"/>
<polygon fill="blue" stroke="blue" stroke-width="2.74" points="317.45,-137.3 313.95,-127.3 310.45,-137.3 317.45,-137.3"/>
<text text-anchor="middle" x="329.45" y="-234.72" font-family="Times,serif" font-size="9.00">&#45;0.880</text>
</g>
<!-- key 5167
bias &#45;0.254
h_scaling 1.000&#45;&gt;key 5167
bias &#45;0.254
h_scaling 1.000 -->
<g id="edge15" class="edge">
<title>key 5167
bias &#45;0.254
h_scaling 1.000&#45;&gt;key 5167
bias &#45;0.254
h_scaling 1.000</title>
<path fill="none" stroke="red" stroke-width="2.1" d="M375.89,-425.5C387.45,-423.61 395.59,-418.51 395.59,-410.2 395.59,-404.48 391.74,-400.29 385.58,-397.61"/>
<polygon fill="red" stroke="red" stroke-width="2.1" points="386.47,-394.22 375.89,-394.9 384.58,-400.96 386.47,-394.22"/>
<text text-anchor="middle" x="409.59" y="-408" font-family="Times,serif" font-size="9.00">0.666</text>
</g>
<!-- key 5167
bias &#45;0.254
h_scaling 1.000&#45;&gt;key 4787
bias &#45;0.697
h_scaling 1.000 -->
<g id="edge4" class="edge">
<title>key 5167
bias &#45;0.254
h_scaling 1.000&#45;&gt;key 4787
bias &#45;0.697
h_scaling 1.000</title>
<path fill="none" stroke="red" stroke-width="3.1" d="M353.5,-360.12C369.88,-339.78 388.99,-316.06 406,-294.96"/>
<polygon fill="red" stroke="red" stroke-width="3.1" points="408.85,-296.99 412.4,-287.01 403.4,-292.6 408.85,-296.99"/>
<text text-anchor="middle" x="396.95" y="-321.36" font-family="Times,serif" font-size="9.00">1.000</text>
</g>
<!-- key 4787
bias &#45;0.697
h_scaling 1.000&#45;&gt;output
bias 0.474
h_scaling 1.000 -->
<g id="edge2" class="edge">
<title>key 4787
bias &#45;0.697
h_scaling 1.000&#45;&gt;output
bias 0.474
h_scaling 1.000</title>
<path fill="none" stroke="blue" stroke-width="2.94" d="M412.41,-186.84C396.02,-166.5 376.91,-142.78 359.91,-121.68"/>
<polygon fill="blue" stroke="blue" stroke-width="2.94" points="362.5,-119.32 353.5,-113.73 357.05,-123.71 362.5,-119.32"/>
<text text-anchor="middle" x="398.45" y="-148.08" font-family="Times,serif" font-size="9.00">&#45;0.947</text>
</g>
<!-- key 4787
bias &#45;0.697
h_scaling 1.000&#45;&gt;key 4787
bias &#45;0.697
h_scaling 1.000 -->
<g id="edge8" class="edge">
<title>key 4787
bias &#45;0.697
h_scaling 1.000&#45;&gt;key 4787
bias &#45;0.697
h_scaling 1.000</title>
<path fill="none" stroke="red" stroke-width="2.21" d="M513.89,-252.22C525.45,-250.33 533.59,-245.23 533.59,-236.92 533.59,-231.2 529.74,-227.01 523.58,-224.33"/>
<polygon fill="red" stroke="red" stroke-width="2.21" points="524.47,-220.94 513.89,-221.62 522.58,-227.68 524.47,-220.94"/>
<text text-anchor="middle" x="547.59" y="-234.72" font-family="Times,serif" font-size="9.00">0.704</text>
</g>
<!-- key 307161
bias &#45;1.000
h_scaling 1.000 -->
<g id="node9" class="node">
<title>key 307161
bias &#45;1.000
h_scaling 1.000</title>
<ellipse fill="white" stroke="black" cx="347.95" cy="-583.48" rx="63.78" ry="63.78"/>
<text text-anchor="middle" x="347.95" y="-591.28" font-family="Times,serif" font-size="9.00">key 307161</text>
<text text-anchor="middle" x="347.95" y="-581.28" font-family="Times,serif" font-size="9.00">bias &#45;1.000</text>
<text text-anchor="middle" x="347.95" y="-571.28" font-family="Times,serif" font-size="9.00">h_scaling 1.000</text>
</g>
<!-- key 307161
bias &#45;1.000
h_scaling 1.000&#45;&gt;key 5167
bias &#45;0.254
h_scaling 1.000 -->
<g id="edge26" class="edge">
<title>key 307161
bias &#45;1.000
h_scaling 1.000&#45;&gt;key 5167
bias &#45;0.254
h_scaling 1.000</title>
<path fill="none" stroke="blue" stroke-width="1.38" d="M335.68,-520.64C333.25,-508.39 330.67,-495.44 328.18,-482.89"/>
<polygon fill="blue" stroke="blue" stroke-width="1.38" points="331.59,-482.07 326.21,-472.94 324.72,-483.43 331.59,-482.07"/>
<text text-anchor="middle" x="346.45" y="-494.64" font-family="Times,serif" font-size="9.00">&#45;0.428</text>
</g>
<!-- key 5855
bias 0.412
h_scaling 1.000&#45;&gt;key 37
bias 0.646
h_scaling 1.000 -->
<g id="edge5" class="edge">
<title>key 5855
bias 0.412
h_scaling 1.000&#45;&gt;key 37
bias 0.646
h_scaling 1.000</title>
<path fill="none" stroke="blue" stroke-width="1.57" d="M248.01,-628.73C256.5,-635.56 265.65,-642.02 274.95,-647.12 299.74,-660.7 312.74,-648.99 335.95,-665.12 348.73,-673.99 351.05,-678.72 356.95,-693.12 378.21,-744.96 385.93,-808.04 388.48,-855.93"/>
<polygon fill="blue" stroke="blue" stroke-width="1.57" points="385,-856.39 388.97,-866.22 391.99,-856.06 385,-856.39"/>
<text text-anchor="middle" x="400.45" y="-754.56" font-family="Times,serif" font-size="9.00">&#45;0.490</text>
</g>
<!-- key 5855
bias 0.412
h_scaling 1.000&#45;&gt;key 5167
bias &#45;0.254
h_scaling 1.000 -->
<g id="edge18" class="edge">
<title>key 5855
bias 0.412
h_scaling 1.000&#45;&gt;key 5167
bias &#45;0.254
h_scaling 1.000</title>
<path fill="none" stroke="blue" stroke-width="1.25" d="M237.16,-529.69C248.87,-511.62 262.07,-491.25 274.19,-472.56"/>
<polygon fill="blue" stroke="blue" stroke-width="1.25" points="277.16,-474.4 279.66,-464.11 271.29,-470.59 277.16,-474.4"/>
<text text-anchor="middle" x="273.45" y="-494.64" font-family="Times,serif" font-size="9.00">&#45;0.382</text>
</g>
<!-- key 5855
bias 0.412
h_scaling 1.000&#45;&gt;key 4787
bias &#45;0.697
h_scaling 1.000 -->
<g id="edge14" class="edge">
<title>key 5855
bias 0.412
h_scaling 1.000&#45;&gt;key 4787
bias &#45;0.697
h_scaling 1.000</title>
<path fill="none" stroke="blue" stroke-width="1.38" d="M187,-521.78C177.23,-470.06 172.8,-396.42 209.95,-346.56 248.84,-294.38 289.88,-327.86 348.95,-300.56 362.9,-294.11 377.32,-286.21 390.79,-278.22"/>
<polygon fill="blue" stroke="blue" stroke-width="1.38" points="392.74,-281.13 399.49,-272.97 389.12,-275.14 392.74,-281.13"/>
<text text-anchor="middle" x="225.45" y="-408" font-family="Times,serif" font-size="9.00">&#45;0.425</text>
</g>
</g>
</svg>
