<?xml version="1.0" encoding="UTF-8" standalone="no"?>
<!DOCTYPE svg PUBLIC "-//W3C//DTD SVG 1.1//EN"
 "http://www.w3.org/Graphics/SVG/1.1/DTD/svg11.dtd">
<!-- Generated by graphviz version 2.43.0 (0)
 -->
<!-- Title: %3 Pages: 1 -->
<svg width="873pt" height="2059pt"
 viewBox="0.00 0.00 873.00 2059.35" xmlns="http://www.w3.org/2000/svg" xmlns:xlink="http://www.w3.org/1999/xlink">
<g id="graph0" class="graph" transform="scale(1 1) rotate(0) translate(4 2055.35)">
<title>%3</title>
<polygon fill="white" stroke="transparent" points="-4,4 -4,-2055.35 869,-2055.35 869,4 -4,4"/>
<!-- ready
output 0.000 -->
<g id="node1" class="node">
<title>ready
output 0.000</title>
<polygon fill="yellow" stroke="black" points="450.5,-2051.35 373.5,-2051.35 373.5,-2023.35 450.5,-2023.35 450.5,-2051.35"/>
<text text-anchor="middle" x="412" y="-2040.15" font-family="Times,serif" font-size="9.00">ready</text>
<text text-anchor="middle" x="412" y="-2030.15" font-family="Times,serif" font-size="9.00">output 0.000</text>
</g>
<!-- key 19410
bias 0.000
h_scaling 0.209
output 0.760 -->
<g id="node11" class="node">
<title>key 19410
bias 0.000
h_scaling 0.209
output 0.760</title>
<ellipse fill="white" stroke="black" cx="412" cy="-1913.71" rx="63.78" ry="63.78"/>
<text text-anchor="middle" x="412" y="-1926.51" font-family="Times,serif" font-size="9.00">key 19410</text>
<text text-anchor="middle" x="412" y="-1916.51" font-family="Times,serif" font-size="9.00">bias 0.000</text>
<text text-anchor="middle" x="412" y="-1906.51" font-family="Times,serif" font-size="9.00">h_scaling 0.209</text>
<text text-anchor="middle" x="412" y="-1896.51" font-family="Times,serif" font-size="9.00">output 0.760</text>
</g>
<!-- ready
output 0.000&#45;&gt;key 19410
bias 0.000
h_scaling 0.209
output 0.760 -->
<g id="edge20" class="edge">
<title>ready
output 0.000&#45;&gt;key 19410
bias 0.000
h_scaling 0.209
output 0.760</title>
<path fill="none" stroke="red" stroke-width="0.1" d="M412,-2023.33C412,-2014.26 412,-2001.35 412,-1987.58"/>
<polygon fill="red" stroke="red" stroke-width="0.1" points="415.5,-1987.45 412,-1977.45 408.5,-1987.45 415.5,-1987.45"/>
<text text-anchor="middle" x="426" y="-1998.15" font-family="Times,serif" font-size="9.00">0.956</text>
</g>
<!-- go
output 0.000 -->
<g id="node2" class="node">
<title>go
output 0.000</title>
<polygon fill="green" stroke="black" points="245.5,-1754.43 168.5,-1754.43 168.5,-1726.43 245.5,-1726.43 245.5,-1754.43"/>
<text text-anchor="middle" x="207" y="-1743.23" font-family="Times,serif" font-size="9.00">go</text>
<text text-anchor="middle" x="207" y="-1733.23" font-family="Times,serif" font-size="9.00">output 0.000</text>
</g>
<!-- key 1253
bias 0.000
h_scaling 0.473
output 0.388 -->
<g id="node4" class="node">
<title>key 1253
bias 0.000
h_scaling 0.473
output 0.388</title>
<ellipse fill="white" stroke="black" cx="175" cy="-236.92" rx="63.78" ry="63.78"/>
<text text-anchor="middle" x="175" y="-249.72" font-family="Times,serif" font-size="9.00">key 1253</text>
<text text-anchor="middle" x="175" y="-239.72" font-family="Times,serif" font-size="9.00">bias 0.000</text>
<text text-anchor="middle" x="175" y="-229.72" font-family="Times,serif" font-size="9.00">h_scaling 0.473</text>
<text text-anchor="middle" x="175" y="-219.72" font-family="Times,serif" font-size="9.00">output 0.388</text>
</g>
<!-- go
output 0.000&#45;&gt;key 1253
bias 0.000
h_scaling 0.473
output 0.388 -->
<g id="edge4" class="edge">
<title>go
output 0.000&#45;&gt;key 1253
bias 0.000
h_scaling 0.473
output 0.388</title>
<path fill="none" stroke="blue" stroke-width="0.1" d="M181.27,-1726.34C149.37,-1708.83 95.5,-1674.8 65,-1630.79 48.43,-1606.88 46,-1597.24 46,-1568.15 46,-1568.15 46,-1568.15 46,-409.2 46,-358.67 82.27,-313.57 116.34,-282.35"/>
<polygon fill="blue" stroke="blue" stroke-width="0.1" points="118.88,-284.77 124.02,-275.51 114.22,-279.55 118.88,-284.77"/>
<text text-anchor="middle" x="61.5" y="-927.84" font-family="Times,serif" font-size="9.00">&#45;1.000</text>
</g>
<!-- key 1254
bias 0.000
h_scaling 0.297
output 0.691 -->
<g id="node6" class="node">
<title>key 1254
bias 0.000
h_scaling 0.297
output 0.691</title>
<ellipse fill="white" stroke="black" cx="138" cy="-1567.15" rx="63.78" ry="63.78"/>
<text text-anchor="middle" x="138" y="-1579.95" font-family="Times,serif" font-size="9.00">key 1254</text>
<text text-anchor="middle" x="138" y="-1569.95" font-family="Times,serif" font-size="9.00">bias 0.000</text>
<text text-anchor="middle" x="138" y="-1559.95" font-family="Times,serif" font-size="9.00">h_scaling 0.297</text>
<text text-anchor="middle" x="138" y="-1549.95" font-family="Times,serif" font-size="9.00">output 0.691</text>
</g>
<!-- go
output 0.000&#45;&gt;key 1254
bias 0.000
h_scaling 0.297
output 0.691 -->
<g id="edge2" class="edge">
<title>go
output 0.000&#45;&gt;key 1254
bias 0.000
h_scaling 0.297
output 0.691</title>
<path fill="none" stroke="red" stroke-width="0.1" d="M200.47,-1726.18C192.77,-1710.34 179.77,-1682.92 170,-1658.79 167.24,-1651.99 164.49,-1644.84 161.82,-1637.68"/>
<polygon fill="red" stroke="red" stroke-width="0.1" points="164.97,-1636.1 158.23,-1627.92 158.4,-1638.52 164.97,-1636.1"/>
<text text-anchor="middle" x="184" y="-1651.59" font-family="Times,serif" font-size="9.00">0.594</text>
</g>
<!-- key 17993
bias 0.000
h_scaling 0.593
output 0.670 -->
<g id="node7" class="node">
<title>key 17993
bias 0.000
h_scaling 0.593
output 0.670</title>
<ellipse fill="white" stroke="black" cx="394" cy="-410.2" rx="63.78" ry="63.78"/>
<text text-anchor="middle" x="394" y="-423" font-family="Times,serif" font-size="9.00">key 17993</text>
<text text-anchor="middle" x="394" y="-413" font-family="Times,serif" font-size="9.00">bias 0.000</text>
<text text-anchor="middle" x="394" y="-403" font-family="Times,serif" font-size="9.00">h_scaling 0.593</text>
<text text-anchor="middle" x="394" y="-393" font-family="Times,serif" font-size="9.00">output 0.670</text>
</g>
<!-- go
output 0.000&#45;&gt;key 17993
bias 0.000
h_scaling 0.593
output 0.670 -->
<g id="edge7" class="edge">
<title>go
output 0.000&#45;&gt;key 17993
bias 0.000
h_scaling 0.593
output 0.670</title>
<path fill="none" stroke="red" stroke-width="0.1" d="M219.78,-1726.24C233.29,-1711.29 253.76,-1685.51 262,-1658.79 263.31,-1654.55 262.08,-1653.24 262,-1648.79 260.89,-1584.19 274.28,-1565.77 257,-1503.51 254.55,-1494.69 249.54,-1494.3 247,-1485.51 189.19,-1285.45 221,-1225.92 221,-1017.68 221,-1017.68 221,-1017.68 221,-582.48 221,-519.88 278.91,-472.38 327.71,-443.47"/>
<polygon fill="red" stroke="red" stroke-width="0.1" points="329.48,-446.49 336.39,-438.46 325.98,-440.43 329.48,-446.49"/>
<text text-anchor="middle" x="235" y="-1014.48" font-family="Times,serif" font-size="9.00">0.708</text>
</g>
<!-- key 19633
bias 0.000
h_scaling 0.749
output 0.917 -->
<g id="node10" class="node">
<title>key 19633
bias 0.000
h_scaling 0.749
output 0.917</title>
<ellipse fill="white" stroke="black" cx="458" cy="-1103.31" rx="63.78" ry="63.78"/>
<text text-anchor="middle" x="458" y="-1116.11" font-family="Times,serif" font-size="9.00">key 19633</text>
<text text-anchor="middle" x="458" y="-1106.11" font-family="Times,serif" font-size="9.00">bias 0.000</text>
<text text-anchor="middle" x="458" y="-1096.11" font-family="Times,serif" font-size="9.00">h_scaling 0.749</text>
<text text-anchor="middle" x="458" y="-1086.11" font-family="Times,serif" font-size="9.00">output 0.917</text>
</g>
<!-- go
output 0.000&#45;&gt;key 19633
bias 0.000
h_scaling 0.749
output 0.917 -->
<g id="edge10" class="edge">
<title>go
output 0.000&#45;&gt;key 19633
bias 0.000
h_scaling 0.749
output 0.917</title>
<path fill="none" stroke="red" stroke-width="0.1" d="M245.52,-1730.76C283.12,-1720.24 339.05,-1698.72 370,-1658.79 427.32,-1584.84 448.16,-1309.93 455,-1177.09"/>
<polygon fill="red" stroke="red" stroke-width="0.1" points="458.5,-1177.17 455.5,-1167 451.51,-1176.81 458.5,-1177.17"/>
<text text-anchor="middle" x="454" y="-1419.67" font-family="Times,serif" font-size="9.00">0.857</text>
</g>
<!-- output
bias 0.000
h_scaling 0.978
output 0.022 -->
<g id="node3" class="node">
<title>output
bias 0.000
h_scaling 0.978
output 0.022</title>
<ellipse fill="lightblue" stroke="black" cx="532" cy="-1740.43" rx="63.78" ry="63.78"/>
<text text-anchor="middle" x="532" y="-1753.23" font-family="Times,serif" font-size="9.00">output</text>
<text text-anchor="middle" x="532" y="-1743.23" font-family="Times,serif" font-size="9.00">bias 0.000</text>
<text text-anchor="middle" x="532" y="-1733.23" font-family="Times,serif" font-size="9.00">h_scaling 0.978</text>
<text text-anchor="middle" x="532" y="-1723.23" font-family="Times,serif" font-size="9.00">output 0.022</text>
</g>
<!-- output
bias 0.000
h_scaling 0.978
output 0.022&#45;&gt;key 1254
bias 0.000
h_scaling 0.297
output 0.691 -->
<g id="edge12" class="edge">
<title>output
bias 0.000
h_scaling 0.978
output 0.022&#45;&gt;key 1254
bias 0.000
h_scaling 0.297
output 0.691</title>
<path fill="none" stroke="blue" stroke-width="0.1" d="M470.78,-1721.39C423.34,-1706.64 356.4,-1684.13 300,-1658.79 266.3,-1643.65 230.3,-1623.89 200.81,-1606.69"/>
<polygon fill="blue" stroke="blue" stroke-width="0.1" points="202.27,-1603.49 191.88,-1601.44 198.72,-1609.52 202.27,-1603.49"/>
<text text-anchor="middle" x="315.5" y="-1651.59" font-family="Times,serif" font-size="9.00">&#45;0.354</text>
</g>
<!-- output
bias 0.000
h_scaling 0.978
output 0.022&#45;&gt;key 17993
bias 0.000
h_scaling 0.593
output 0.670 -->
<g id="edge18" class="edge">
<title>output
bias 0.000
h_scaling 0.978
output 0.022&#45;&gt;key 17993
bias 0.000
h_scaling 0.593
output 0.670</title>
<path fill="none" stroke="red" stroke-width="0.1" d="M573.77,-1692.02C613.15,-1643.87 669.4,-1565.22 692,-1485.51 708.81,-1426.23 701,-992.65 701,-931.04 701,-931.04 701,-931.04 701,-582.48 701,-475.85 558.03,-434.99 467.22,-419.79"/>
<polygon fill="red" stroke="red" stroke-width="0.1" points="467.67,-416.32 457.24,-418.18 466.56,-423.23 467.67,-416.32"/>
<text text-anchor="middle" x="715" y="-1014.48" font-family="Times,serif" font-size="9.00">0.983</text>
</g>
<!-- key 11209
bias 0.000
h_scaling 0.927
output 0.291 -->
<g id="node8" class="node">
<title>key 11209
bias 0.000
h_scaling 0.927
output 0.291</title>
<ellipse fill="white" stroke="black" cx="740" cy="-63.64" rx="63.78" ry="63.78"/>
<text text-anchor="middle" x="740" y="-76.44" font-family="Times,serif" font-size="9.00">key 11209</text>
<text text-anchor="middle" x="740" y="-66.44" font-family="Times,serif" font-size="9.00">bias 0.000</text>
<text text-anchor="middle" x="740" y="-56.44" font-family="Times,serif" font-size="9.00">h_scaling 0.927</text>
<text text-anchor="middle" x="740" y="-46.44" font-family="Times,serif" font-size="9.00">output 0.291</text>
</g>
<!-- output
bias 0.000
h_scaling 0.978
output 0.022&#45;&gt;key 11209
bias 0.000
h_scaling 0.927
output 0.291 -->
<g id="edge16" class="edge">
<title>output
bias 0.000
h_scaling 0.978
output 0.022&#45;&gt;key 11209
bias 0.000
h_scaling 0.927
output 0.291</title>
<path fill="none" stroke="red" stroke-width="0.1" d="M592.47,-1719.82C655.13,-1695.25 744,-1646.58 744,-1568.15 744,-1568.15 744,-1568.15 744,-1102.31 744,-949.17 740,-910.9 740,-757.76 740,-757.76 740,-757.76 740,-235.92 740,-203.59 740,-167.83 740,-137.39"/>
<polygon fill="red" stroke="red" stroke-width="0.1" points="743.5,-137.28 740,-127.28 736.5,-137.28 743.5,-137.28"/>
<text text-anchor="middle" x="754" y="-841.2" font-family="Times,serif" font-size="9.00">0.935</text>
</g>
<!-- key 309719
bias 0.000
h_scaling 0.440
output 0.501 -->
<g id="node14" class="node">
<title>key 309719
bias 0.000
h_scaling 0.440
output 0.501</title>
<ellipse fill="white" stroke="black" cx="627" cy="-1421.87" rx="63.78" ry="63.78"/>
<text text-anchor="middle" x="627" y="-1434.67" font-family="Times,serif" font-size="9.00">key 309719</text>
<text text-anchor="middle" x="627" y="-1424.67" font-family="Times,serif" font-size="9.00">bias 0.000</text>
<text text-anchor="middle" x="627" y="-1414.67" font-family="Times,serif" font-size="9.00">h_scaling 0.440</text>
<text text-anchor="middle" x="627" y="-1404.67" font-family="Times,serif" font-size="9.00">output 0.501</text>
</g>
<!-- output
bias 0.000
h_scaling 0.978
output 0.022&#45;&gt;key 309719
bias 0.000
h_scaling 0.440
output 0.501 -->
<g id="edge33" class="edge">
<title>output
bias 0.000
h_scaling 0.978
output 0.022&#45;&gt;key 309719
bias 0.000
h_scaling 0.440
output 0.501</title>
<path fill="none" stroke="red" stroke-width="0.1" d="M550.09,-1679.14C566.04,-1626.01 589.28,-1548.58 606.03,-1492.75"/>
<polygon fill="red" stroke="red" stroke-width="0.1" points="609.45,-1493.52 608.97,-1482.94 602.75,-1491.51 609.45,-1493.52"/>
<text text-anchor="middle" x="571" y="-1651.59" font-family="Times,serif" font-size="9.00">0.203</text>
</g>
<!-- key 1253
bias 0.000
h_scaling 0.473
output 0.388&#45;&gt;key 1253
bias 0.000
h_scaling 0.473
output 0.388 -->
<g id="edge11" class="edge">
<title>key 1253
bias 0.000
h_scaling 0.473
output 0.388&#45;&gt;key 1253
bias 0.000
h_scaling 0.473
output 0.388</title>
<path fill="none" stroke="red" stroke-width="0.1" d="M236.94,-252.22C248.5,-250.33 256.64,-245.23 256.64,-236.92 256.64,-231.2 252.79,-227.01 246.63,-224.33"/>
<polygon fill="red" stroke="red" stroke-width="0.1" points="247.52,-220.94 236.94,-221.62 245.63,-227.68 247.52,-220.94"/>
<text text-anchor="middle" x="270.64" y="-234.72" font-family="Times,serif" font-size="9.00">0.654</text>
</g>
<!-- key 1253
bias 0.000
h_scaling 0.473
output 0.388&#45;&gt;key 1254
bias 0.000
h_scaling 0.297
output 0.691 -->
<g id="edge19" class="edge">
<title>key 1253
bias 0.000
h_scaling 0.473
output 0.388&#45;&gt;key 1254
bias 0.000
h_scaling 0.297
output 0.691</title>
<path fill="none" stroke="blue" stroke-width="0.1" d="M147.68,-294.4C134.29,-327.14 121,-369.6 121,-409.2 121,-1277.59 121,-1277.59 121,-1277.59 121,-1351.21 126.58,-1435.21 131.35,-1493.52"/>
<polygon fill="blue" stroke="blue" stroke-width="0.1" points="127.88,-1494.06 132.2,-1503.73 134.86,-1493.48 127.88,-1494.06"/>
<text text-anchor="middle" x="136.5" y="-841.2" font-family="Times,serif" font-size="9.00">&#45;0.434</text>
</g>
<!-- key 1253
bias 0.000
h_scaling 0.473
output 0.388&#45;&gt;key 17993
bias 0.000
h_scaling 0.593
output 0.670 -->
<g id="edge14" class="edge">
<title>key 1253
bias 0.000
h_scaling 0.473
output 0.388&#45;&gt;key 17993
bias 0.000
h_scaling 0.593
output 0.670</title>
<path fill="none" stroke="blue" stroke-width="0.1" d="M224.88,-276.93C257.98,-302.82 301.54,-336.88 336.16,-363.96"/>
<polygon fill="blue" stroke="blue" stroke-width="0.1" points="334.27,-366.93 344.31,-370.33 338.58,-361.41 334.27,-366.93"/>
<text text-anchor="middle" x="299.5" y="-321.36" font-family="Times,serif" font-size="9.00">&#45;0.772</text>
</g>
<!-- key 1253
bias 0.000
h_scaling 0.473
output 0.388&#45;&gt;key 11209
bias 0.000
h_scaling 0.927
output 0.291 -->
<g id="edge5" class="edge">
<title>key 1253
bias 0.000
h_scaling 0.473
output 0.388&#45;&gt;key 11209
bias 0.000
h_scaling 0.927
output 0.291</title>
<path fill="none" stroke="red" stroke-width="0.1" d="M235.73,-217.51C341.14,-185.55 557.38,-120 669.34,-86.06"/>
<polygon fill="red" stroke="red" stroke-width="0.1" points="670.63,-89.33 679.18,-83.08 668.6,-82.63 670.63,-89.33"/>
<text text-anchor="middle" x="471" y="-148.08" font-family="Times,serif" font-size="9.00">0.203</text>
</g>
<!-- key 145606
bias 0.000
h_scaling 0.920
output 0.988 -->
<g id="node5" class="node">
<title>key 145606
bias 0.000
h_scaling 0.920
output 0.988</title>
<ellipse fill="white" stroke="black" cx="394" cy="-756.76" rx="63.78" ry="63.78"/>
<text text-anchor="middle" x="394" y="-769.56" font-family="Times,serif" font-size="9.00">key 145606</text>
<text text-anchor="middle" x="394" y="-759.56" font-family="Times,serif" font-size="9.00">bias 0.000</text>
<text text-anchor="middle" x="394" y="-749.56" font-family="Times,serif" font-size="9.00">h_scaling 0.920</text>
<text text-anchor="middle" x="394" y="-739.56" font-family="Times,serif" font-size="9.00">output 0.988</text>
</g>
<!-- key 162547
bias 0.000
h_scaling 0.634
output 0.992 -->
<g id="node12" class="node">
<title>key 162547
bias 0.000
h_scaling 0.634
output 0.992</title>
<ellipse fill="white" stroke="black" cx="394" cy="-583.48" rx="63.78" ry="63.78"/>
<text text-anchor="middle" x="394" y="-596.28" font-family="Times,serif" font-size="9.00">key 162547</text>
<text text-anchor="middle" x="394" y="-586.28" font-family="Times,serif" font-size="9.00">bias 0.000</text>
<text text-anchor="middle" x="394" y="-576.28" font-family="Times,serif" font-size="9.00">h_scaling 0.634</text>
<text text-anchor="middle" x="394" y="-566.28" font-family="Times,serif" font-size="9.00">output 0.992</text>
</g>
<!-- key 145606
bias 0.000
h_scaling 0.920
output 0.988&#45;&gt;key 162547
bias 0.000
h_scaling 0.634
output 0.992 -->
<g id="edge27" class="edge">
<title>key 145606
bias 0.000
h_scaling 0.920
output 0.988&#45;&gt;key 162547
bias 0.000
h_scaling 0.634
output 0.992</title>
<path fill="none" stroke="red" stroke-width="0.1" d="M394,-692.95C394,-681.43 394,-669.32 394,-657.53"/>
<polygon fill="red" stroke="red" stroke-width="0.1" points="397.5,-657.28 394,-647.28 390.5,-657.28 397.5,-657.28"/>
<text text-anchor="middle" x="408" y="-667.92" font-family="Times,serif" font-size="9.00">1.381</text>
</g>
<!-- key 1254
bias 0.000
h_scaling 0.297
output 0.691&#45;&gt;output
bias 0.000
h_scaling 0.978
output 0.022 -->
<g id="edge3" class="edge">
<title>key 1254
bias 0.000
h_scaling 0.297
output 0.691&#45;&gt;output
bias 0.000
h_scaling 0.978
output 0.022</title>
<path fill="none" stroke="blue" stroke-width="0.1" d="M196.05,-1593.39C267.55,-1624.47 388.8,-1677.18 464.42,-1710.05"/>
<polygon fill="blue" stroke="blue" stroke-width="0.1" points="463.3,-1713.38 473.86,-1714.16 466.09,-1706.96 463.3,-1713.38"/>
<text text-anchor="middle" x="350.5" y="-1651.59" font-family="Times,serif" font-size="9.00">&#45;1.000</text>
</g>
<!-- key 1254
bias 0.000
h_scaling 0.297
output 0.691&#45;&gt;key 1253
bias 0.000
h_scaling 0.473
output 0.388 -->
<g id="edge17" class="edge">
<title>key 1254
bias 0.000
h_scaling 0.297
output 0.691&#45;&gt;key 1253
bias 0.000
h_scaling 0.473
output 0.388</title>
<path fill="none" stroke="blue" stroke-width="0.1" d="M150.53,-1504.53C161.26,-1446.3 175,-1356.39 175,-1277.59 175,-1277.59 175,-1277.59 175,-409.2 175,-376.87 175,-341.11 175,-310.67"/>
<polygon fill="blue" stroke="blue" stroke-width="0.1" points="178.5,-310.56 175,-300.56 171.5,-310.56 178.5,-310.56"/>
<text text-anchor="middle" x="190.5" y="-841.2" font-family="Times,serif" font-size="9.00">&#45;0.148</text>
</g>
<!-- key 1254
bias 0.000
h_scaling 0.297
output 0.691&#45;&gt;key 1254
bias 0.000
h_scaling 0.297
output 0.691 -->
<g id="edge1" class="edge">
<title>key 1254
bias 0.000
h_scaling 0.297
output 0.691&#45;&gt;key 1254
bias 0.000
h_scaling 0.297
output 0.691</title>
<path fill="none" stroke="red" stroke-width="0.1" d="M199.94,-1582.45C211.5,-1580.57 219.64,-1575.47 219.64,-1567.15 219.64,-1561.44 215.79,-1557.24 209.63,-1554.56"/>
<polygon fill="red" stroke="red" stroke-width="0.1" points="210.52,-1551.18 199.94,-1551.86 208.63,-1557.92 210.52,-1551.18"/>
<text text-anchor="middle" x="233.64" y="-1564.95" font-family="Times,serif" font-size="9.00">0.431</text>
</g>
<!-- key 234414
bias 0.000
h_scaling 0.000
output 0.641 -->
<g id="node9" class="node">
<title>key 234414
bias 0.000
h_scaling 0.000
output 0.641</title>
<ellipse fill="white" stroke="black" cx="364" cy="-1276.59" rx="63.78" ry="63.78"/>
<text text-anchor="middle" x="364" y="-1289.39" font-family="Times,serif" font-size="9.00">key 234414</text>
<text text-anchor="middle" x="364" y="-1279.39" font-family="Times,serif" font-size="9.00">bias 0.000</text>
<text text-anchor="middle" x="364" y="-1269.39" font-family="Times,serif" font-size="9.00">h_scaling 0.000</text>
<text text-anchor="middle" x="364" y="-1259.39" font-family="Times,serif" font-size="9.00">output 0.641</text>
</g>
<!-- key 1254
bias 0.000
h_scaling 0.297
output 0.691&#45;&gt;key 234414
bias 0.000
h_scaling 0.000
output 0.641 -->
<g id="edge29" class="edge">
<title>key 1254
bias 0.000
h_scaling 0.297
output 0.691&#45;&gt;key 234414
bias 0.000
h_scaling 0.000
output 0.641</title>
<path fill="none" stroke="blue" stroke-width="0.1" d="M176.85,-1516.55C216.22,-1466.27 277.1,-1388.55 318.66,-1335.49"/>
<polygon fill="blue" stroke="blue" stroke-width="0.1" points="321.49,-1337.55 324.9,-1327.52 315.98,-1333.23 321.49,-1337.55"/>
<text text-anchor="middle" x="312.5" y="-1419.67" font-family="Times,serif" font-size="9.00">&#45;0.631</text>
</g>
<!-- key 17993
bias 0.000
h_scaling 0.593
output 0.670&#45;&gt;output
bias 0.000
h_scaling 0.978
output 0.022 -->
<g id="edge23" class="edge">
<title>key 17993
bias 0.000
h_scaling 0.593
output 0.670&#45;&gt;output
bias 0.000
h_scaling 0.978
output 0.022</title>
<path fill="none" stroke="blue" stroke-width="0.1" d="M449.44,-442.18C494.28,-471.78 550,-520.94 550,-582.48 550,-1017.68 550,-1017.68 550,-1017.68 550,-1170.18 517.35,-1206.01 508,-1358.23 504.53,-1414.7 506.64,-1428.96 508,-1485.51 509.56,-1550.14 508.44,-1566.48 515,-1630.79 516.21,-1642.66 517.84,-1655.21 519.62,-1667.4"/>
<polygon fill="blue" stroke="blue" stroke-width="0.1" points="516.2,-1668.16 521.14,-1677.53 523.12,-1667.12 516.2,-1668.16"/>
<text text-anchor="middle" x="565.5" y="-1014.48" font-family="Times,serif" font-size="9.00">&#45;0.988</text>
</g>
<!-- key 17993
bias 0.000
h_scaling 0.593
output 0.670&#45;&gt;key 1253
bias 0.000
h_scaling 0.473
output 0.388 -->
<g id="edge15" class="edge">
<title>key 17993
bias 0.000
h_scaling 0.593
output 0.670&#45;&gt;key 1253
bias 0.000
h_scaling 0.473
output 0.388</title>
<path fill="none" stroke="blue" stroke-width="0.1" d="M336.1,-383.36C308.19,-369.37 275.18,-350.47 249,-328.56 237.99,-319.34 227.42,-308.31 217.88,-297.16"/>
<polygon fill="blue" stroke="blue" stroke-width="0.1" points="220.54,-294.88 211.45,-289.44 215.16,-299.36 220.54,-294.88"/>
<text text-anchor="middle" x="264.5" y="-321.36" font-family="Times,serif" font-size="9.00">&#45;0.587</text>
</g>
<!-- key 17993
bias 0.000
h_scaling 0.593
output 0.670&#45;&gt;key 11209
bias 0.000
h_scaling 0.927
output 0.291 -->
<g id="edge8" class="edge">
<title>key 17993
bias 0.000
h_scaling 0.593
output 0.670&#45;&gt;key 11209
bias 0.000
h_scaling 0.927
output 0.291</title>
<path fill="none" stroke="blue" stroke-width="0.1" d="M438.88,-364.51C502.92,-300.73 620.25,-183.89 688,-116.43"/>
<polygon fill="blue" stroke="blue" stroke-width="0.1" points="690.58,-118.79 695.2,-109.25 685.65,-113.83 690.58,-118.79"/>
<text text-anchor="middle" x="644.5" y="-234.72" font-family="Times,serif" font-size="9.00">&#45;0.775</text>
</g>
<!-- key 11209
bias 0.000
h_scaling 0.927
output 0.291&#45;&gt;output
bias 0.000
h_scaling 0.978
output 0.022 -->
<g id="edge6" class="edge">
<title>key 11209
bias 0.000
h_scaling 0.927
output 0.291&#45;&gt;output
bias 0.000
h_scaling 0.978
output 0.022</title>
<path fill="none" stroke="red" stroke-width="0.1" d="M766.1,-122.04C778.65,-154.72 791,-196.83 791,-235.92 791,-1568.15 791,-1568.15 791,-1568.15 791,-1611.02 788.41,-1628.58 758,-1658.79 717.01,-1699.52 654.1,-1719.78 605.05,-1729.81"/>
<polygon fill="red" stroke="red" stroke-width="0.1" points="604.27,-1726.39 595.12,-1731.73 605.61,-1733.26 604.27,-1726.39"/>
<text text-anchor="middle" x="805" y="-841.2" font-family="Times,serif" font-size="9.00">1.150</text>
</g>
<!-- key 234414
bias 0.000
h_scaling 0.000
output 0.641&#45;&gt;key 19633
bias 0.000
h_scaling 0.749
output 0.917 -->
<g id="edge31" class="edge">
<title>key 234414
bias 0.000
h_scaling 0.000
output 0.641&#45;&gt;key 19633
bias 0.000
h_scaling 0.749
output 0.917</title>
<path fill="none" stroke="red" stroke-width="0.1" d="M394.26,-1220.46C403.4,-1203.8 413.51,-1185.38 422.94,-1168.2"/>
<polygon fill="red" stroke="red" stroke-width="0.1" points="426.05,-1169.8 427.8,-1159.35 419.92,-1166.43 426.05,-1169.8"/>
<text text-anchor="middle" x="425" y="-1187.75" font-family="Times,serif" font-size="9.00">0.473</text>
</g>
<!-- key 117172
bias 0.000
h_scaling 0.634
output 0.561 -->
<g id="node13" class="node">
<title>key 117172
bias 0.000
h_scaling 0.634
output 0.561</title>
<ellipse fill="white" stroke="black" cx="313" cy="-1103.31" rx="63.78" ry="63.78"/>
<text text-anchor="middle" x="313" y="-1116.11" font-family="Times,serif" font-size="9.00">key 117172</text>
<text text-anchor="middle" x="313" y="-1106.11" font-family="Times,serif" font-size="9.00">bias 0.000</text>
<text text-anchor="middle" x="313" y="-1096.11" font-family="Times,serif" font-size="9.00">h_scaling 0.634</text>
<text text-anchor="middle" x="313" y="-1086.11" font-family="Times,serif" font-size="9.00">output 0.561</text>
</g>
<!-- key 234414
bias 0.000
h_scaling 0.000
output 0.641&#45;&gt;key 117172
bias 0.000
h_scaling 0.634
output 0.561 -->
<g id="edge30" class="edge">
<title>key 234414
bias 0.000
h_scaling 0.000
output 0.641&#45;&gt;key 117172
bias 0.000
h_scaling 0.634
output 0.561</title>
<path fill="none" stroke="red" stroke-width="0.1" d="M348.4,-1214.5C345.7,-1204.59 342.85,-1194.47 340,-1184.95 338.87,-1181.16 337.67,-1177.28 336.45,-1173.37"/>
<polygon fill="red" stroke="red" stroke-width="0.1" points="339.71,-1172.09 333.34,-1163.63 333.04,-1174.22 339.71,-1172.09"/>
<text text-anchor="middle" x="356" y="-1187.75" font-family="Times,serif" font-size="9.00">0.212</text>
</g>
<!-- key 19633
bias 0.000
h_scaling 0.749
output 0.917&#45;&gt;output
bias 0.000
h_scaling 0.978
output 0.022 -->
<g id="edge13" class="edge">
<title>key 19633
bias 0.000
h_scaling 0.749
output 0.917&#45;&gt;output
bias 0.000
h_scaling 0.978
output 0.022</title>
<path fill="none" stroke="blue" stroke-width="0.1" d="M471.34,-1165.58C482.01,-1216.82 496.55,-1291.97 505,-1358.23 518.64,-1465.15 525.84,-1589.88 529.28,-1666.76"/>
<polygon fill="blue" stroke="blue" stroke-width="0.1" points="525.79,-1666.98 529.72,-1676.82 532.78,-1666.68 525.79,-1666.98"/>
<text text-anchor="middle" x="532.5" y="-1419.67" font-family="Times,serif" font-size="9.00">&#45;0.493</text>
</g>
<!-- key 19410
bias 0.000
h_scaling 0.209
output 0.760&#45;&gt;output
bias 0.000
h_scaling 0.978
output 0.022 -->
<g id="edge26" class="edge">
<title>key 19410
bias 0.000
h_scaling 0.209
output 0.760&#45;&gt;output
bias 0.000
h_scaling 0.978
output 0.022</title>
<path fill="none" stroke="red" stroke-width="0.1" d="M448.33,-1860.86C461.43,-1842.16 476.32,-1820.9 489.88,-1801.56"/>
<polygon fill="red" stroke="red" stroke-width="0.1" points="492.92,-1803.31 495.79,-1793.11 487.19,-1799.29 492.92,-1803.31"/>
<text text-anchor="middle" x="486" y="-1824.87" font-family="Times,serif" font-size="9.00">0.785</text>
</g>
<!-- key 19410
bias 0.000
h_scaling 0.209
output 0.760&#45;&gt;key 1253
bias 0.000
h_scaling 0.473
output 0.388 -->
<g id="edge9" class="edge">
<title>key 19410
bias 0.000
h_scaling 0.209
output 0.760&#45;&gt;key 1253
bias 0.000
h_scaling 0.473
output 0.388</title>
<path fill="none" stroke="red" stroke-width="0.1" d="M349.43,-1900.28C234.17,-1875.57 0,-1816.18 0,-1741.43 0,-1741.43 0,-1741.43 0,-409.2 0,-346.03 58.95,-298.49 108.42,-269.72"/>
<polygon fill="red" stroke="red" stroke-width="0.1" points="110.24,-272.71 117.21,-264.74 106.79,-266.62 110.24,-272.71"/>
<text text-anchor="middle" x="14" y="-1014.48" font-family="Times,serif" font-size="9.00">0.576</text>
</g>
<!-- key 19410
bias 0.000
h_scaling 0.209
output 0.760&#45;&gt;key 11209
bias 0.000
h_scaling 0.927
output 0.291 -->
<g id="edge24" class="edge">
<title>key 19410
bias 0.000
h_scaling 0.209
output 0.760&#45;&gt;key 11209
bias 0.000
h_scaling 0.927
output 0.291</title>
<path fill="none" stroke="red" stroke-width="0.1" d="M474.71,-1901.02C592.93,-1877.17 837,-1818.6 837,-1741.43 837,-1741.43 837,-1741.43 837,-235.92 837,-192.78 813.42,-150.55 789.51,-118.81"/>
<polygon fill="red" stroke="red" stroke-width="0.1" points="792.01,-116.31 783.11,-110.56 786.47,-120.6 792.01,-116.31"/>
<text text-anchor="middle" x="851" y="-927.84" font-family="Times,serif" font-size="9.00">0.693</text>
</g>
<!-- key 19410
bias 0.000
h_scaling 0.209
output 0.760&#45;&gt;key 19410
bias 0.000
h_scaling 0.209
output 0.760 -->
<g id="edge22" class="edge">
<title>key 19410
bias 0.000
h_scaling 0.209
output 0.760&#45;&gt;key 19410
bias 0.000
h_scaling 0.209
output 0.760</title>
<path fill="none" stroke="red" stroke-width="0.1" d="M473.94,-1929.01C485.5,-1927.12 493.64,-1922.03 493.64,-1913.71 493.64,-1907.99 489.79,-1903.8 483.63,-1901.12"/>
<polygon fill="red" stroke="red" stroke-width="0.1" points="484.52,-1897.73 473.94,-1898.41 482.63,-1904.48 484.52,-1897.73"/>
<text text-anchor="middle" x="507.64" y="-1911.51" font-family="Times,serif" font-size="9.00">0.718</text>
</g>
<!-- key 162547
bias 0.000
h_scaling 0.634
output 0.992&#45;&gt;key 17993
bias 0.000
h_scaling 0.593
output 0.670 -->
<g id="edge25" class="edge">
<title>key 162547
bias 0.000
h_scaling 0.634
output 0.992&#45;&gt;key 17993
bias 0.000
h_scaling 0.593
output 0.670</title>
<path fill="none" stroke="red" stroke-width="0.1" d="M394,-519.67C394,-508.15 394,-496.04 394,-484.25"/>
<polygon fill="red" stroke="red" stroke-width="0.1" points="397.5,-484 394,-474 390.5,-484 397.5,-484"/>
<text text-anchor="middle" x="408" y="-494.64" font-family="Times,serif" font-size="9.00">0.403</text>
</g>
<!-- key 117172
bias 0.000
h_scaling 0.634
output 0.561&#45;&gt;key 145606
bias 0.000
h_scaling 0.920
output 0.988 -->
<g id="edge28" class="edge">
<title>key 117172
bias 0.000
h_scaling 0.634
output 0.561&#45;&gt;key 145606
bias 0.000
h_scaling 0.920
output 0.988</title>
<path fill="none" stroke="red" stroke-width="0.1" d="M353.69,-1054.27C366.47,-1036.39 379.04,-1015.19 386,-993.68 403.06,-940.91 404.32,-878.01 401.72,-830.43"/>
<polygon fill="red" stroke="red" stroke-width="0.1" points="405.2,-829.98 401.09,-820.21 398.21,-830.41 405.2,-829.98"/>
<text text-anchor="middle" x="416" y="-927.84" font-family="Times,serif" font-size="9.00">1.276</text>
</g>
<!-- key 117172
bias 0.000
h_scaling 0.634
output 0.561&#45;&gt;key 234414
bias 0.000
h_scaling 0.000
output 0.641 -->
<g id="edge32" class="edge">
<title>key 117172
bias 0.000
h_scaling 0.634
output 0.561&#45;&gt;key 234414
bias 0.000
h_scaling 0.000
output 0.641</title>
<path fill="none" stroke="red" stroke-width="0.1" d="M303.73,-1166.48C303.95,-1176.16 305.17,-1185.93 308,-1194.95 310.53,-1203.02 314.18,-1210.99 318.42,-1218.59"/>
<polygon fill="red" stroke="red" stroke-width="0.1" points="315.51,-1220.55 323.64,-1227.34 321.52,-1216.96 315.51,-1220.55"/>
<text text-anchor="middle" x="322" y="-1187.75" font-family="Times,serif" font-size="9.00">0.770</text>
</g>
<!-- key 117172
bias 0.000
h_scaling 0.634
output 0.561&#45;&gt;key 19410
bias 0.000
h_scaling 0.209
output 0.760 -->
<g id="edge21" class="edge">
<title>key 117172
bias 0.000
h_scaling 0.634
output 0.561&#45;&gt;key 19410
bias 0.000
h_scaling 0.209
output 0.760</title>
<path fill="none" stroke="blue" stroke-width="0.1" d="M293.14,-1163.97C280.17,-1212.89 269.29,-1283.13 291,-1340.23 294.8,-1350.24 302.72,-1348.42 307,-1358.23 360.67,-1481.24 310.19,-1527.1 336,-1658.79 348.51,-1722.64 370.38,-1793.41 387.46,-1843.99"/>
<polygon fill="blue" stroke="blue" stroke-width="0.1" points="384.17,-1845.17 390.7,-1853.51 390.79,-1842.91 384.17,-1845.17"/>
<text text-anchor="middle" x="347.5" y="-1564.95" font-family="Times,serif" font-size="9.00">&#45;0.727</text>
</g>
<!-- key 369433
bias 0.000
h_scaling 1.000
output 0.285 -->
<g id="node15" class="node">
<title>key 369433
bias 0.000
h_scaling 1.000
output 0.285</title>
<ellipse fill="white" stroke="black" cx="313" cy="-930.04" rx="63.78" ry="63.78"/>
<text text-anchor="middle" x="313" y="-942.84" font-family="Times,serif" font-size="9.00">key 369433</text>
<text text-anchor="middle" x="313" y="-932.84" font-family="Times,serif" font-size="9.00">bias 0.000</text>
<text text-anchor="middle" x="313" y="-922.84" font-family="Times,serif" font-size="9.00">h_scaling 1.000</text>
<text text-anchor="middle" x="313" y="-912.84" font-family="Times,serif" font-size="9.00">output 0.285</text>
</g>
<!-- key 117172
bias 0.000
h_scaling 0.634
output 0.561&#45;&gt;key 369433
bias 0.000
h_scaling 1.000
output 0.285 -->
<g id="edge35" class="edge">
<title>key 117172
bias 0.000
h_scaling 0.634
output 0.561&#45;&gt;key 369433
bias 0.000
h_scaling 1.000
output 0.285</title>
<path fill="none" stroke="blue" stroke-width="0.1" d="M313,-1039.51C313,-1027.99 313,-1015.88 313,-1004.09"/>
<polygon fill="blue" stroke="blue" stroke-width="0.1" points="316.5,-1003.83 313,-993.83 309.5,-1003.83 316.5,-1003.83"/>
<text text-anchor="middle" x="328.5" y="-1014.48" font-family="Times,serif" font-size="9.00">&#45;0.307</text>
</g>
<!-- key 309719
bias 0.000
h_scaling 0.440
output 0.501&#45;&gt;key 19633
bias 0.000
h_scaling 0.749
output 0.917 -->
<g id="edge34" class="edge">
<title>key 309719
bias 0.000
h_scaling 0.440
output 0.501&#45;&gt;key 19633
bias 0.000
h_scaling 0.749
output 0.917</title>
<path fill="none" stroke="red" stroke-width="0.1" d="M614.73,-1359.22C602.78,-1309.28 581.18,-1238.66 546,-1184.95 537.71,-1172.3 526.99,-1160.3 515.9,-1149.62"/>
<polygon fill="red" stroke="red" stroke-width="0.1" points="518.29,-1147.06 508.59,-1142.8 513.51,-1152.18 518.29,-1147.06"/>
<text text-anchor="middle" x="623" y="-1274.39" font-family="Times,serif" font-size="9.00">0.787</text>
</g>
<!-- key 369433
bias 0.000
h_scaling 1.000
output 0.285&#45;&gt;key 145606
bias 0.000
h_scaling 0.920
output 0.988 -->
<g id="edge36" class="edge">
<title>key 369433
bias 0.000
h_scaling 1.000
output 0.285&#45;&gt;key 145606
bias 0.000
h_scaling 0.920
output 0.988</title>
<path fill="none" stroke="red" stroke-width="0.1" d="M339.97,-872C347.28,-856.55 355.26,-839.69 362.78,-823.78"/>
<polygon fill="red" stroke="red" stroke-width="0.1" points="366.03,-825.08 367.15,-814.54 359.71,-822.08 366.03,-825.08"/>
<text text-anchor="middle" x="367" y="-841.2" font-family="Times,serif" font-size="9.00">1.066</text>
</g>
</g>
</svg>
