<?xml version="1.0" encoding="UTF-8" standalone="no"?>
<!DOCTYPE svg PUBLIC "-//W3C//DTD SVG 1.1//EN"
 "http://www.w3.org/Graphics/SVG/1.1/DTD/svg11.dtd">
<!-- Generated by graphviz version 2.43.0 (0)
 -->
<!-- Title: %3 Pages: 1 -->
<svg width="500pt" height="1076pt"
 viewBox="0.00 0.00 499.54 1075.68" xmlns="http://www.w3.org/2000/svg" xmlns:xlink="http://www.w3.org/1999/xlink">
<g id="graph0" class="graph" transform="scale(1 1) rotate(0) translate(4 1071.68)">
<title>%3</title>
<polygon fill="white" stroke="transparent" points="-4,4 -4,-1071.68 495.54,-1071.68 495.54,4 -4,4"/>
<!-- ready
output 0.000 -->
<g id="node1" class="node">
<title>ready
output 0.000</title>
<polygon fill="yellow" stroke="black" points="372.04,-1067.68 295.04,-1067.68 295.04,-1039.68 372.04,-1039.68 372.04,-1067.68"/>
<text text-anchor="middle" x="333.54" y="-1056.48" font-family="Times,serif" font-size="9.00">ready</text>
<text text-anchor="middle" x="333.54" y="-1046.48" font-family="Times,serif" font-size="9.00">output 0.000</text>
</g>
<!-- key 9117
bias &#45;0.384
h_scaling 1.000
output 0.446 -->
<g id="node8" class="node">
<title>key 9117
bias &#45;0.384
h_scaling 1.000
output 0.446</title>
<ellipse fill="white" stroke="black" cx="333.54" cy="-930.04" rx="63.78" ry="63.78"/>
<text text-anchor="middle" x="333.54" y="-942.84" font-family="Times,serif" font-size="9.00">key 9117</text>
<text text-anchor="middle" x="333.54" y="-932.84" font-family="Times,serif" font-size="9.00">bias &#45;0.384</text>
<text text-anchor="middle" x="333.54" y="-922.84" font-family="Times,serif" font-size="9.00">h_scaling 1.000</text>
<text text-anchor="middle" x="333.54" y="-912.84" font-family="Times,serif" font-size="9.00">output 0.446</text>
</g>
<!-- ready
output 0.000&#45;&gt;key 9117
bias &#45;0.384
h_scaling 1.000
output 0.446 -->
<g id="edge10" class="edge">
<title>ready
output 0.000&#45;&gt;key 9117
bias &#45;0.384
h_scaling 1.000
output 0.446</title>
<path fill="none" stroke="red" stroke-width="0.1" d="M333.54,-1039.66C333.54,-1030.58 333.54,-1017.67 333.54,-1003.91"/>
<polygon fill="red" stroke="red" stroke-width="0.1" points="337.04,-1003.77 333.54,-993.77 330.04,-1003.77 337.04,-1003.77"/>
<text text-anchor="middle" x="347.54" y="-1014.48" font-family="Times,serif" font-size="9.00">0.698</text>
</g>
<!-- go
output 0.000 -->
<g id="node2" class="node">
<title>go
output 0.000</title>
<polygon fill="green" stroke="black" points="123.04,-770.76 46.04,-770.76 46.04,-742.76 123.04,-742.76 123.04,-770.76"/>
<text text-anchor="middle" x="84.54" y="-759.56" font-family="Times,serif" font-size="9.00">go</text>
<text text-anchor="middle" x="84.54" y="-749.56" font-family="Times,serif" font-size="9.00">output 0.000</text>
</g>
<!-- key 8256
bias &#45;0.367
h_scaling 1.000
output 0.046 -->
<g id="node4" class="node">
<title>key 8256
bias &#45;0.367
h_scaling 1.000
output 0.046</title>
<ellipse fill="white" stroke="black" cx="211.54" cy="-583.48" rx="63.78" ry="63.78"/>
<text text-anchor="middle" x="211.54" y="-596.28" font-family="Times,serif" font-size="9.00">key 8256</text>
<text text-anchor="middle" x="211.54" y="-586.28" font-family="Times,serif" font-size="9.00">bias &#45;0.367</text>
<text text-anchor="middle" x="211.54" y="-576.28" font-family="Times,serif" font-size="9.00">h_scaling 1.000</text>
<text text-anchor="middle" x="211.54" y="-566.28" font-family="Times,serif" font-size="9.00">output 0.046</text>
</g>
<!-- go
output 0.000&#45;&gt;key 8256
bias &#45;0.367
h_scaling 1.000
output 0.046 -->
<g id="edge4" class="edge">
<title>go
output 0.000&#45;&gt;key 8256
bias &#45;0.367
h_scaling 1.000
output 0.046</title>
<path fill="none" stroke="red" stroke-width="0.1" d="M94.29,-742.6C109.89,-721.57 141.36,-679.12 167.78,-643.49"/>
<polygon fill="red" stroke="red" stroke-width="0.1" points="170.88,-645.19 174.03,-635.07 165.26,-641.02 170.88,-645.19"/>
<text text-anchor="middle" x="162.54" y="-667.92" font-family="Times,serif" font-size="9.00">1.000</text>
</g>
<!-- key 5492
bias &#45;0.305
h_scaling 1.000
output 0.079 -->
<g id="node7" class="node">
<title>key 5492
bias &#45;0.305
h_scaling 1.000
output 0.079</title>
<ellipse fill="white" stroke="black" cx="173.54" cy="-410.2" rx="63.78" ry="63.78"/>
<text text-anchor="middle" x="173.54" y="-423" font-family="Times,serif" font-size="9.00">key 5492</text>
<text text-anchor="middle" x="173.54" y="-413" font-family="Times,serif" font-size="9.00">bias &#45;0.305</text>
<text text-anchor="middle" x="173.54" y="-403" font-family="Times,serif" font-size="9.00">h_scaling 1.000</text>
<text text-anchor="middle" x="173.54" y="-393" font-family="Times,serif" font-size="9.00">output 0.079</text>
</g>
<!-- go
output 0.000&#45;&gt;key 5492
bias &#45;0.305
h_scaling 1.000
output 0.079 -->
<g id="edge1" class="edge">
<title>go
output 0.000&#45;&gt;key 5492
bias &#45;0.305
h_scaling 1.000
output 0.079</title>
<path fill="none" stroke="red" stroke-width="0.1" d="M84.11,-742.57C83.34,-706.11 83.77,-601.26 110.54,-519.84 115.92,-503.48 123.97,-486.87 132.55,-471.72"/>
<polygon fill="red" stroke="red" stroke-width="0.1" points="135.63,-473.39 137.64,-462.99 129.58,-469.86 135.63,-473.39"/>
<text text-anchor="middle" x="124.54" y="-581.28" font-family="Times,serif" font-size="9.00">0.974</text>
</g>
<!-- output
bias 0.390
h_scaling 1.000
output 0.948 -->
<g id="node3" class="node">
<title>output
bias 0.390
h_scaling 1.000
output 0.948</title>
<ellipse fill="lightblue" stroke="black" cx="313.54" cy="-236.92" rx="63.78" ry="63.78"/>
<text text-anchor="middle" x="313.54" y="-249.72" font-family="Times,serif" font-size="9.00">output</text>
<text text-anchor="middle" x="313.54" y="-239.72" font-family="Times,serif" font-size="9.00">bias 0.390</text>
<text text-anchor="middle" x="313.54" y="-229.72" font-family="Times,serif" font-size="9.00">h_scaling 1.000</text>
<text text-anchor="middle" x="313.54" y="-219.72" font-family="Times,serif" font-size="9.00">output 0.948</text>
</g>
<!-- key 1773
bias &#45;0.256
h_scaling 1.000
output 0.015 -->
<g id="node6" class="node">
<title>key 1773
bias &#45;0.256
h_scaling 1.000
output 0.015</title>
<ellipse fill="white" stroke="black" cx="313.54" cy="-63.64" rx="63.78" ry="63.78"/>
<text text-anchor="middle" x="313.54" y="-76.44" font-family="Times,serif" font-size="9.00">key 1773</text>
<text text-anchor="middle" x="313.54" y="-66.44" font-family="Times,serif" font-size="9.00">bias &#45;0.256</text>
<text text-anchor="middle" x="313.54" y="-56.44" font-family="Times,serif" font-size="9.00">h_scaling 1.000</text>
<text text-anchor="middle" x="313.54" y="-46.44" font-family="Times,serif" font-size="9.00">output 0.015</text>
</g>
<!-- output
bias 0.390
h_scaling 1.000
output 0.948&#45;&gt;key 1773
bias &#45;0.256
h_scaling 1.000
output 0.015 -->
<g id="edge6" class="edge">
<title>output
bias 0.390
h_scaling 1.000
output 0.948&#45;&gt;key 1773
bias &#45;0.256
h_scaling 1.000
output 0.015</title>
<path fill="none" stroke="blue" stroke-width="0.1" d="M289.23,-178.03C286.89,-170.49 284.89,-162.78 283.54,-155.28 282.1,-147.28 282.31,-139.01 283.6,-130.88"/>
<polygon fill="blue" stroke="blue" stroke-width="0.1" points="287.03,-131.56 285.66,-121.06 280.18,-130.12 287.03,-131.56"/>
<text text-anchor="middle" x="299.04" y="-148.08" font-family="Times,serif" font-size="9.00">&#45;0.984</text>
</g>
<!-- output
bias 0.390
h_scaling 1.000
output 0.948&#45;&gt;key 9117
bias &#45;0.384
h_scaling 1.000
output 0.446 -->
<g id="edge9" class="edge">
<title>output
bias 0.390
h_scaling 1.000
output 0.948&#45;&gt;key 9117
bias &#45;0.384
h_scaling 1.000
output 0.446</title>
<path fill="none" stroke="blue" stroke-width="0.1" d="M353.93,-286.29C377.07,-318.9 401.54,-364.07 401.54,-409.2 401.54,-757.76 401.54,-757.76 401.54,-757.76 401.54,-795.61 387.01,-835.06 371.39,-866.55"/>
<polygon fill="blue" stroke="blue" stroke-width="0.1" points="368.18,-865.13 366.74,-875.63 374.41,-868.32 368.18,-865.13"/>
<text text-anchor="middle" x="417.04" y="-581.28" font-family="Times,serif" font-size="9.00">&#45;0.058</text>
</g>
<!-- key 8256
bias &#45;0.367
h_scaling 1.000
output 0.046&#45;&gt;output
bias 0.390
h_scaling 1.000
output 0.948 -->
<g id="edge12" class="edge">
<title>key 8256
bias &#45;0.367
h_scaling 1.000
output 0.046&#45;&gt;output
bias 0.390
h_scaling 1.000
output 0.948</title>
<path fill="none" stroke="blue" stroke-width="0.1" d="M231.17,-522.83C236.28,-506.94 241.71,-489.77 246.54,-473.84 263.31,-418.49 281.15,-355.45 294.2,-308.47"/>
<polygon fill="blue" stroke="blue" stroke-width="0.1" points="297.61,-309.27 296.91,-298.7 290.86,-307.4 297.61,-309.27"/>
<text text-anchor="middle" x="299.04" y="-408" font-family="Times,serif" font-size="9.00">&#45;0.971</text>
</g>
<!-- key 8256
bias &#45;0.367
h_scaling 1.000
output 0.046&#45;&gt;key 5492
bias &#45;0.305
h_scaling 1.000
output 0.079 -->
<g id="edge5" class="edge">
<title>key 8256
bias &#45;0.367
h_scaling 1.000
output 0.046&#45;&gt;key 5492
bias &#45;0.305
h_scaling 1.000
output 0.079</title>
<path fill="none" stroke="red" stroke-width="0.1" d="M174.72,-531.03C169.7,-521.71 165.32,-511.78 162.54,-501.84 160.83,-495.73 159.92,-489.31 159.61,-482.84"/>
<polygon fill="red" stroke="red" stroke-width="0.1" points="163.11,-482.63 159.58,-472.64 156.11,-482.65 163.11,-482.63"/>
<text text-anchor="middle" x="176.54" y="-494.64" font-family="Times,serif" font-size="9.00">0.998</text>
</g>
<!-- key 237152
bias &#45;0.302
h_scaling 1.000
output 0.797 -->
<g id="node5" class="node">
<title>key 237152
bias &#45;0.302
h_scaling 1.000
output 0.797</title>
<ellipse fill="white" stroke="black" cx="204.54" cy="-756.76" rx="63.78" ry="63.78"/>
<text text-anchor="middle" x="204.54" y="-769.56" font-family="Times,serif" font-size="9.00">key 237152</text>
<text text-anchor="middle" x="204.54" y="-759.56" font-family="Times,serif" font-size="9.00">bias &#45;0.302</text>
<text text-anchor="middle" x="204.54" y="-749.56" font-family="Times,serif" font-size="9.00">h_scaling 1.000</text>
<text text-anchor="middle" x="204.54" y="-739.56" font-family="Times,serif" font-size="9.00">output 0.797</text>
</g>
<!-- key 237152
bias &#45;0.302
h_scaling 1.000
output 0.797&#45;&gt;key 8256
bias &#45;0.367
h_scaling 1.000
output 0.046 -->
<g id="edge17" class="edge">
<title>key 237152
bias &#45;0.302
h_scaling 1.000
output 0.797&#45;&gt;key 8256
bias &#45;0.367
h_scaling 1.000
output 0.046</title>
<path fill="none" stroke="blue" stroke-width="0.1" d="M207.1,-692.95C207.57,-681.43 208.07,-669.32 208.55,-657.53"/>
<polygon fill="blue" stroke="blue" stroke-width="0.1" points="212.06,-657.41 208.97,-647.28 205.07,-657.12 212.06,-657.41"/>
<text text-anchor="middle" x="224.04" y="-667.92" font-family="Times,serif" font-size="9.00">&#45;0.270</text>
</g>
<!-- key 1773
bias &#45;0.256
h_scaling 1.000
output 0.015&#45;&gt;output
bias 0.390
h_scaling 1.000
output 0.948 -->
<g id="edge3" class="edge">
<title>key 1773
bias &#45;0.256
h_scaling 1.000
output 0.015&#45;&gt;output
bias 0.390
h_scaling 1.000
output 0.948</title>
<path fill="none" stroke="blue" stroke-width="0.1" d="M317.82,-127.57C318.11,-133.56 318.36,-139.53 318.54,-145.28 318.72,-151.03 318.74,-156.99 318.65,-162.97"/>
<polygon fill="blue" stroke="blue" stroke-width="0.1" points="315.15,-162.95 318.41,-173.04 322.15,-163.12 315.15,-162.95"/>
<text text-anchor="middle" x="335.04" y="-148.08" font-family="Times,serif" font-size="9.00">&#45;1.000</text>
</g>
<!-- key 5492
bias &#45;0.305
h_scaling 1.000
output 0.079&#45;&gt;output
bias 0.390
h_scaling 1.000
output 0.948 -->
<g id="edge8" class="edge">
<title>key 5492
bias &#45;0.305
h_scaling 1.000
output 0.079&#45;&gt;output
bias 0.390
h_scaling 1.000
output 0.948</title>
<path fill="none" stroke="blue" stroke-width="0.1" d="M205.66,-354.61C213.62,-342.38 222.48,-329.73 231.54,-318.56 239.96,-308.18 249.58,-297.71 259.2,-287.92"/>
<polygon fill="blue" stroke="blue" stroke-width="0.1" points="261.95,-290.12 266.54,-280.57 257,-285.17 261.95,-290.12"/>
<text text-anchor="middle" x="247.04" y="-321.36" font-family="Times,serif" font-size="9.00">&#45;1.000</text>
</g>
<!-- key 5492
bias &#45;0.305
h_scaling 1.000
output 0.079&#45;&gt;key 8256
bias &#45;0.367
h_scaling 1.000
output 0.046 -->
<g id="edge7" class="edge">
<title>key 5492
bias &#45;0.305
h_scaling 1.000
output 0.079&#45;&gt;key 8256
bias &#45;0.367
h_scaling 1.000
output 0.046</title>
<path fill="none" stroke="red" stroke-width="0.1" d="M187.12,-472.41C189.92,-485.02 192.89,-498.41 195.76,-511.34"/>
<polygon fill="red" stroke="red" stroke-width="0.1" points="192.34,-512.12 197.93,-521.13 199.18,-510.6 192.34,-512.12"/>
<text text-anchor="middle" x="206.54" y="-494.64" font-family="Times,serif" font-size="9.00">0.853</text>
</g>
<!-- key 5492
bias &#45;0.305
h_scaling 1.000
output 0.079&#45;&gt;key 1773
bias &#45;0.256
h_scaling 1.000
output 0.015 -->
<g id="edge2" class="edge">
<title>key 5492
bias &#45;0.305
h_scaling 1.000
output 0.079&#45;&gt;key 1773
bias &#45;0.256
h_scaling 1.000
output 0.015</title>
<path fill="none" stroke="red" stroke-width="0.1" d="M174.14,-346.35C176.87,-297.01 185.78,-227.78 212.54,-173.28 223.56,-150.83 240.76,-129.77 257.86,-112.29"/>
<polygon fill="red" stroke="red" stroke-width="0.1" points="260.54,-114.56 265.16,-105.02 255.6,-109.59 260.54,-114.56"/>
<text text-anchor="middle" x="226.54" y="-234.72" font-family="Times,serif" font-size="9.00">0.991</text>
</g>
<!-- key 9117
bias &#45;0.384
h_scaling 1.000
output 0.446&#45;&gt;output
bias 0.390
h_scaling 1.000
output 0.948 -->
<g id="edge14" class="edge">
<title>key 9117
bias &#45;0.384
h_scaling 1.000
output 0.446&#45;&gt;output
bias 0.390
h_scaling 1.000
output 0.948</title>
<path fill="none" stroke="red" stroke-width="0.1" d="M344.25,-867.16C346.44,-851.92 348.42,-835.61 349.54,-820.4 353.67,-763.98 351.77,-749.64 349.54,-693.12 344.19,-557.73 329.94,-400.23 321.05,-310.48"/>
<polygon fill="red" stroke="red" stroke-width="0.1" points="324.52,-310.02 320.05,-300.41 317.56,-310.71 324.52,-310.02"/>
<text text-anchor="middle" x="361.54" y="-581.28" font-family="Times,serif" font-size="9.00">0.986</text>
</g>
<!-- key 9117
bias &#45;0.384
h_scaling 1.000
output 0.446&#45;&gt;key 8256
bias &#45;0.367
h_scaling 1.000
output 0.046 -->
<g id="edge15" class="edge">
<title>key 9117
bias &#45;0.384
h_scaling 1.000
output 0.446&#45;&gt;key 8256
bias &#45;0.367
h_scaling 1.000
output 0.046</title>
<path fill="none" stroke="blue" stroke-width="0.1" d="M324.29,-867.04C315.76,-818.48 300.84,-749.88 277.54,-693.12 270.88,-676.9 262.01,-660.3 252.92,-645.1"/>
<polygon fill="blue" stroke="blue" stroke-width="0.1" points="255.77,-643.04 247.57,-636.32 249.79,-646.68 255.77,-643.04"/>
<text text-anchor="middle" x="331.04" y="-754.56" font-family="Times,serif" font-size="9.00">&#45;0.193</text>
</g>
<!-- key 9117
bias &#45;0.384
h_scaling 1.000
output 0.446&#45;&gt;key 237152
bias &#45;0.302
h_scaling 1.000
output 0.797 -->
<g id="edge16" class="edge">
<title>key 9117
bias &#45;0.384
h_scaling 1.000
output 0.446&#45;&gt;key 237152
bias &#45;0.302
h_scaling 1.000
output 0.797</title>
<path fill="none" stroke="red" stroke-width="0.1" d="M290.62,-882.72C281.05,-871.73 271.18,-859.87 262.54,-848.4 255.84,-839.51 249.12,-829.85 242.76,-820.26"/>
<polygon fill="red" stroke="red" stroke-width="0.1" points="245.67,-818.32 237.26,-811.88 239.81,-822.16 245.67,-818.32"/>
<text text-anchor="middle" x="276.54" y="-841.2" font-family="Times,serif" font-size="9.00">0.969</text>
</g>
<!-- key 9117
bias &#45;0.384
h_scaling 1.000
output 0.446&#45;&gt;key 1773
bias &#45;0.256
h_scaling 1.000
output 0.015 -->
<g id="edge18" class="edge">
<title>key 9117
bias &#45;0.384
h_scaling 1.000
output 0.446&#45;&gt;key 1773
bias &#45;0.256
h_scaling 1.000
output 0.015</title>
<path fill="none" stroke="blue" stroke-width="0.1" d="M384.1,-890.96C419.51,-859.58 460.54,-811.62 460.54,-757.76 460.54,-757.76 460.54,-757.76 460.54,-235.92 460.54,-180.56 415.77,-134.14 375.65,-103.65"/>
<polygon fill="blue" stroke="blue" stroke-width="0.1" points="377.56,-100.71 367.44,-97.58 373.4,-106.34 377.56,-100.71"/>
<text text-anchor="middle" x="476.04" y="-494.64" font-family="Times,serif" font-size="9.00">&#45;0.211</text>
</g>
<!-- key 9117
bias &#45;0.384
h_scaling 1.000
output 0.446&#45;&gt;key 5492
bias &#45;0.305
h_scaling 1.000
output 0.079 -->
<g id="edge11" class="edge">
<title>key 9117
bias &#45;0.384
h_scaling 1.000
output 0.446&#45;&gt;key 5492
bias &#45;0.305
h_scaling 1.000
output 0.079</title>
<path fill="none" stroke="blue" stroke-width="0.1" d="M269.85,-926.02C199.45,-918.88 89.07,-895.55 36.54,-820.4 -40.92,-709.58 21.3,-639.87 83.54,-519.84 93.85,-499.95 108.29,-480.4 122.58,-463.48"/>
<polygon fill="blue" stroke="blue" stroke-width="0.1" points="125.24,-465.76 129.13,-455.91 119.94,-461.19 125.24,-465.76"/>
<text text-anchor="middle" x="26.04" y="-667.92" font-family="Times,serif" font-size="9.00">&#45;0.404</text>
</g>
<!-- key 9117
bias &#45;0.384
h_scaling 1.000
output 0.446&#45;&gt;key 9117
bias &#45;0.384
h_scaling 1.000
output 0.446 -->
<g id="edge13" class="edge">
<title>key 9117
bias &#45;0.384
h_scaling 1.000
output 0.446&#45;&gt;key 9117
bias &#45;0.384
h_scaling 1.000
output 0.446</title>
<path fill="none" stroke="red" stroke-width="0.1" d="M395.48,-945.33C407.04,-943.45 415.18,-938.35 415.18,-930.04 415.18,-924.32 411.33,-920.12 405.17,-917.45"/>
<polygon fill="red" stroke="red" stroke-width="0.1" points="406.05,-914.06 395.48,-914.74 404.17,-920.8 406.05,-914.06"/>
<text text-anchor="middle" x="429.18" y="-927.84" font-family="Times,serif" font-size="9.00">0.633</text>
</g>
</g>
</svg>
