<?xml version="1.0" encoding="UTF-8" standalone="no"?>
<!DOCTYPE svg PUBLIC "-//W3C//DTD SVG 1.1//EN"
 "http://www.w3.org/Graphics/SVG/1.1/DTD/svg11.dtd">
<!-- Generated by graphviz version 2.43.0 (0)
 -->
<!-- Title: %3 Pages: 1 -->
<svg width="549pt" height="1249pt"
 viewBox="0.00 0.00 548.50 1248.95" xmlns="http://www.w3.org/2000/svg" xmlns:xlink="http://www.w3.org/1999/xlink">
<g id="graph0" class="graph" transform="scale(1 1) rotate(0) translate(4 1244.95)">
<title>%3</title>
<polygon fill="white" stroke="transparent" points="-4,4 -4,-1244.95 544.5,-1244.95 544.5,4 -4,4"/>
<!-- ready
output 0.000 -->
<g id="node1" class="node">
<title>ready
output 0.000</title>
<polygon fill="yellow" stroke="black" points="77,-1240.95 0,-1240.95 0,-1212.95 77,-1212.95 77,-1240.95"/>
<text text-anchor="middle" x="38.5" y="-1229.75" font-family="Times,serif" font-size="9.00">ready</text>
<text text-anchor="middle" x="38.5" y="-1219.75" font-family="Times,serif" font-size="9.00">output 0.000</text>
</g>
<!-- key 6528
bias 1.000
h_scaling 0.328
output 0.936 -->
<g id="node4" class="node">
<title>key 6528
bias 1.000
h_scaling 0.328
output 0.936</title>
<ellipse fill="white" stroke="black" cx="297.5" cy="-1103.31" rx="63.78" ry="63.78"/>
<text text-anchor="middle" x="297.5" y="-1116.11" font-family="Times,serif" font-size="9.00">key 6528</text>
<text text-anchor="middle" x="297.5" y="-1106.11" font-family="Times,serif" font-size="9.00">bias 1.000</text>
<text text-anchor="middle" x="297.5" y="-1096.11" font-family="Times,serif" font-size="9.00">h_scaling 0.328</text>
<text text-anchor="middle" x="297.5" y="-1086.11" font-family="Times,serif" font-size="9.00">output 0.936</text>
</g>
<!-- ready
output 0.000&#45;&gt;key 6528
bias 1.000
h_scaling 0.328
output 0.936 -->
<g id="edge4" class="edge">
<title>ready
output 0.000&#45;&gt;key 6528
bias 1.000
h_scaling 0.328
output 0.936</title>
<path fill="none" stroke="blue" stroke-width="0.1" d="M66.22,-1212.94C105.26,-1194.6 177.65,-1160.6 231.08,-1135.51"/>
<polygon fill="blue" stroke="blue" stroke-width="0.1" points="232.59,-1138.67 240.16,-1131.25 229.62,-1132.33 232.59,-1138.67"/>
<text text-anchor="middle" x="137" y="-1187.75" font-family="Times,serif" font-size="9.00">&#45;0.594</text>
</g>
<!-- key 7195
bias 0.314
h_scaling 0.024
output 0.770 -->
<g id="node8" class="node">
<title>key 7195
bias 0.314
h_scaling 0.024
output 0.770</title>
<ellipse fill="white" stroke="black" cx="186.5" cy="-756.76" rx="63.78" ry="63.78"/>
<text text-anchor="middle" x="186.5" y="-769.56" font-family="Times,serif" font-size="9.00">key 7195</text>
<text text-anchor="middle" x="186.5" y="-759.56" font-family="Times,serif" font-size="9.00">bias 0.314</text>
<text text-anchor="middle" x="186.5" y="-749.56" font-family="Times,serif" font-size="9.00">h_scaling 0.024</text>
<text text-anchor="middle" x="186.5" y="-739.56" font-family="Times,serif" font-size="9.00">output 0.770</text>
</g>
<!-- ready
output 0.000&#45;&gt;key 7195
bias 0.314
h_scaling 0.024
output 0.770 -->
<g id="edge12" class="edge">
<title>ready
output 0.000&#45;&gt;key 7195
bias 0.314
h_scaling 0.024
output 0.770</title>
<path fill="none" stroke="blue" stroke-width="0.1" d="M36.23,-1212.59C30.91,-1178.41 19.55,-1085.28 39.5,-1011.68 59.34,-938.48 105.83,-864.54 141.25,-815.47"/>
<polygon fill="blue" stroke="blue" stroke-width="0.1" points="144.21,-817.35 147.28,-807.21 138.56,-813.23 144.21,-817.35"/>
<text text-anchor="middle" x="55" y="-1014.48" font-family="Times,serif" font-size="9.00">&#45;0.315</text>
</g>
<!-- key 7998
bias 0.948
h_scaling 1.000
output 0.683 -->
<g id="node10" class="node">
<title>key 7998
bias 0.948
h_scaling 1.000
output 0.683</title>
<ellipse fill="white" stroke="black" cx="113.5" cy="-63.64" rx="63.78" ry="63.78"/>
<text text-anchor="middle" x="113.5" y="-76.44" font-family="Times,serif" font-size="9.00">key 7998</text>
<text text-anchor="middle" x="113.5" y="-66.44" font-family="Times,serif" font-size="9.00">bias 0.948</text>
<text text-anchor="middle" x="113.5" y="-56.44" font-family="Times,serif" font-size="9.00">h_scaling 1.000</text>
<text text-anchor="middle" x="113.5" y="-46.44" font-family="Times,serif" font-size="9.00">output 0.683</text>
</g>
<!-- ready
output 0.000&#45;&gt;key 7998
bias 0.948
h_scaling 1.000
output 0.683 -->
<g id="edge5" class="edge">
<title>ready
output 0.000&#45;&gt;key 7998
bias 0.948
h_scaling 1.000
output 0.683</title>
<path fill="none" stroke="red" stroke-width="0.1" d="M31.53,-1212.87C20.56,-1191.03 0.5,-1145.47 0.5,-1104.31 0.5,-1104.31 0.5,-1104.31 0.5,-235.92 0.5,-189.25 30.09,-145.5 58.98,-113.89"/>
<polygon fill="red" stroke="red" stroke-width="0.1" points="61.61,-116.21 65.91,-106.53 56.51,-111.42 61.61,-116.21"/>
<text text-anchor="middle" x="14.5" y="-667.92" font-family="Times,serif" font-size="9.00">0.629</text>
</g>
<!-- go
output 0.000 -->
<g id="node2" class="node">
<title>go
output 0.000</title>
<polygon fill="green" stroke="black" points="436,-1240.95 359,-1240.95 359,-1212.95 436,-1212.95 436,-1240.95"/>
<text text-anchor="middle" x="397.5" y="-1229.75" font-family="Times,serif" font-size="9.00">go</text>
<text text-anchor="middle" x="397.5" y="-1219.75" font-family="Times,serif" font-size="9.00">output 0.000</text>
</g>
<!-- go
output 0.000&#45;&gt;key 6528
bias 1.000
h_scaling 0.328
output 0.936 -->
<g id="edge9" class="edge">
<title>go
output 0.000&#45;&gt;key 6528
bias 1.000
h_scaling 0.328
output 0.936</title>
<path fill="none" stroke="red" stroke-width="0.1" d="M376.62,-1212.82C369.45,-1207.75 361.69,-1201.57 355.5,-1194.95 347.8,-1186.72 340.51,-1177.34 333.86,-1167.8"/>
<polygon fill="red" stroke="red" stroke-width="0.1" points="336.69,-1165.73 328.19,-1159.4 330.89,-1169.65 336.69,-1165.73"/>
<text text-anchor="middle" x="369.5" y="-1187.75" font-family="Times,serif" font-size="9.00">1.045</text>
</g>
<!-- key 757
bias 0.770
h_scaling 0.955
output 0.128 -->
<g id="node7" class="node">
<title>key 757
bias 0.770
h_scaling 0.955
output 0.128</title>
<ellipse fill="white" stroke="black" cx="343.5" cy="-236.92" rx="63.78" ry="63.78"/>
<text text-anchor="middle" x="343.5" y="-249.72" font-family="Times,serif" font-size="9.00">key 757</text>
<text text-anchor="middle" x="343.5" y="-239.72" font-family="Times,serif" font-size="9.00">bias 0.770</text>
<text text-anchor="middle" x="343.5" y="-229.72" font-family="Times,serif" font-size="9.00">h_scaling 0.955</text>
<text text-anchor="middle" x="343.5" y="-219.72" font-family="Times,serif" font-size="9.00">output 0.128</text>
</g>
<!-- go
output 0.000&#45;&gt;key 757
bias 0.770
h_scaling 0.955
output 0.128 -->
<g id="edge1" class="edge">
<title>go
output 0.000&#45;&gt;key 757
bias 0.770
h_scaling 0.955
output 0.128</title>
<path fill="none" stroke="red" stroke-width="0.1" d="M397.5,-1212.81C397.5,-1190.51 397.5,-1143.81 397.5,-1104.31 397.5,-1104.31 397.5,-1104.31 397.5,-842.4 397.5,-608.9 389.6,-549.84 357.5,-318.56 357.11,-315.72 356.69,-312.83 356.25,-309.91"/>
<polygon fill="red" stroke="red" stroke-width="0.1" points="359.69,-309.27 354.7,-299.93 352.78,-310.35 359.69,-309.27"/>
<text text-anchor="middle" x="410.5" y="-754.56" font-family="Times,serif" font-size="9.00">1.037</text>
</g>
<!-- go
output 0.000&#45;&gt;key 7998
bias 0.948
h_scaling 1.000
output 0.683 -->
<g id="edge10" class="edge">
<title>go
output 0.000&#45;&gt;key 7998
bias 0.948
h_scaling 1.000
output 0.683</title>
<path fill="none" stroke="blue" stroke-width="0.1" d="M422.91,-1212.87C455.96,-1193.82 509.5,-1155.13 509.5,-1104.31 509.5,-1104.31 509.5,-1104.31 509.5,-235.92 509.5,-176.26 462.9,-173.79 410.5,-145.28 382.66,-130.13 372.11,-135.48 341.5,-127.28 288.86,-113.18 229.5,-96.86 184.54,-84.41"/>
<polygon fill="blue" stroke="blue" stroke-width="0.1" points="185.46,-81.03 174.89,-81.74 183.59,-87.78 185.46,-81.03"/>
<text text-anchor="middle" x="525" y="-667.92" font-family="Times,serif" font-size="9.00">&#45;0.525</text>
</g>
<!-- output
bias 1.000
h_scaling 0.583
output 0.006 -->
<g id="node3" class="node">
<title>output
bias 1.000
h_scaling 0.583
output 0.006</title>
<ellipse fill="lightblue" stroke="black" cx="297.5" cy="-930.04" rx="63.78" ry="63.78"/>
<text text-anchor="middle" x="297.5" y="-942.84" font-family="Times,serif" font-size="9.00">output</text>
<text text-anchor="middle" x="297.5" y="-932.84" font-family="Times,serif" font-size="9.00">bias 1.000</text>
<text text-anchor="middle" x="297.5" y="-922.84" font-family="Times,serif" font-size="9.00">h_scaling 0.583</text>
<text text-anchor="middle" x="297.5" y="-912.84" font-family="Times,serif" font-size="9.00">output 0.006</text>
</g>
<!-- output
bias 1.000
h_scaling 0.583
output 0.006&#45;&gt;key 7195
bias 0.314
h_scaling 0.024
output 0.770 -->
<g id="edge16" class="edge">
<title>output
bias 1.000
h_scaling 0.583
output 0.006&#45;&gt;key 7195
bias 0.314
h_scaling 0.024
output 0.770</title>
<path fill="none" stroke="red" stroke-width="0.1" d="M263.29,-876.25C251.58,-858.18 238.38,-837.81 226.27,-819.12"/>
<polygon fill="red" stroke="red" stroke-width="0.1" points="229.16,-817.15 220.79,-810.66 223.29,-820.96 229.16,-817.15"/>
<text text-anchor="middle" x="255.5" y="-841.2" font-family="Times,serif" font-size="9.00">0.129</text>
</g>
<!-- key 6528
bias 1.000
h_scaling 0.328
output 0.936&#45;&gt;output
bias 1.000
h_scaling 0.583
output 0.006 -->
<g id="edge3" class="edge">
<title>key 6528
bias 1.000
h_scaling 0.328
output 0.936&#45;&gt;output
bias 1.000
h_scaling 0.583
output 0.006</title>
<path fill="none" stroke="blue" stroke-width="0.1" d="M297.5,-1039.51C297.5,-1027.99 297.5,-1015.88 297.5,-1004.09"/>
<polygon fill="blue" stroke="blue" stroke-width="0.1" points="301,-1003.83 297.5,-993.83 294,-1003.83 301,-1003.83"/>
<text text-anchor="middle" x="313" y="-1014.48" font-family="Times,serif" font-size="9.00">&#45;1.000</text>
</g>
<!-- key 17571
bias &#45;0.839
h_scaling 0.246
output 0.282 -->
<g id="node5" class="node">
<title>key 17571
bias &#45;0.839
h_scaling 0.246
output 0.282</title>
<ellipse fill="white" stroke="black" cx="414.5" cy="-63.64" rx="63.78" ry="63.78"/>
<text text-anchor="middle" x="414.5" y="-76.44" font-family="Times,serif" font-size="9.00">key 17571</text>
<text text-anchor="middle" x="414.5" y="-66.44" font-family="Times,serif" font-size="9.00">bias &#45;0.839</text>
<text text-anchor="middle" x="414.5" y="-56.44" font-family="Times,serif" font-size="9.00">h_scaling 0.246</text>
<text text-anchor="middle" x="414.5" y="-46.44" font-family="Times,serif" font-size="9.00">output 0.282</text>
</g>
<!-- key 17571
bias &#45;0.839
h_scaling 0.246
output 0.282&#45;&gt;key 6528
bias 1.000
h_scaling 0.328
output 0.936 -->
<g id="edge15" class="edge">
<title>key 17571
bias &#45;0.839
h_scaling 0.246
output 0.282&#45;&gt;key 6528
bias 1.000
h_scaling 0.328
output 0.936</title>
<path fill="none" stroke="red" stroke-width="0.1" d="M434.91,-124.13C444.35,-156.74 453.5,-198.1 453.5,-235.92 453.5,-931.04 453.5,-931.04 453.5,-931.04 453.5,-988.73 404.53,-1035.54 361.46,-1065.55"/>
<polygon fill="red" stroke="red" stroke-width="0.1" points="359.25,-1062.82 352.94,-1071.33 363.18,-1068.62 359.25,-1062.82"/>
<text text-anchor="middle" x="467.5" y="-581.28" font-family="Times,serif" font-size="9.00">0.463</text>
</g>
<!-- key 15337
bias 0.067
h_scaling 0.412
output 0.024 -->
<g id="node6" class="node">
<title>key 15337
bias 0.067
h_scaling 0.412
output 0.024</title>
<ellipse fill="white" stroke="black" cx="205.5" cy="-583.48" rx="63.78" ry="63.78"/>
<text text-anchor="middle" x="205.5" y="-596.28" font-family="Times,serif" font-size="9.00">key 15337</text>
<text text-anchor="middle" x="205.5" y="-586.28" font-family="Times,serif" font-size="9.00">bias 0.067</text>
<text text-anchor="middle" x="205.5" y="-576.28" font-family="Times,serif" font-size="9.00">h_scaling 0.412</text>
<text text-anchor="middle" x="205.5" y="-566.28" font-family="Times,serif" font-size="9.00">output 0.024</text>
</g>
<!-- key 11676
bias 0.289
h_scaling 0.147
output 0.743 -->
<g id="node9" class="node">
<title>key 11676
bias 0.289
h_scaling 0.147
output 0.743</title>
<ellipse fill="white" stroke="black" cx="251.5" cy="-410.2" rx="63.78" ry="63.78"/>
<text text-anchor="middle" x="251.5" y="-423" font-family="Times,serif" font-size="9.00">key 11676</text>
<text text-anchor="middle" x="251.5" y="-413" font-family="Times,serif" font-size="9.00">bias 0.289</text>
<text text-anchor="middle" x="251.5" y="-403" font-family="Times,serif" font-size="9.00">h_scaling 0.147</text>
<text text-anchor="middle" x="251.5" y="-393" font-family="Times,serif" font-size="9.00">output 0.743</text>
</g>
<!-- key 15337
bias 0.067
h_scaling 0.412
output 0.024&#45;&gt;key 11676
bias 0.289
h_scaling 0.147
output 0.743 -->
<g id="edge13" class="edge">
<title>key 15337
bias 0.067
h_scaling 0.412
output 0.024&#45;&gt;key 11676
bias 0.289
h_scaling 0.147
output 0.743</title>
<path fill="none" stroke="blue" stroke-width="0.1" d="M221.85,-521.61C225.3,-508.74 228.98,-495.05 232.53,-481.85"/>
<polygon fill="blue" stroke="blue" stroke-width="0.1" points="235.99,-482.44 235.21,-471.87 229.23,-480.62 235.99,-482.44"/>
<text text-anchor="middle" x="244" y="-494.64" font-family="Times,serif" font-size="9.00">&#45;0.074</text>
</g>
<!-- key 757
bias 0.770
h_scaling 0.955
output 0.128&#45;&gt;output
bias 1.000
h_scaling 0.583
output 0.006 -->
<g id="edge2" class="edge">
<title>key 757
bias 0.770
h_scaling 0.955
output 0.128&#45;&gt;output
bias 1.000
h_scaling 0.583
output 0.006</title>
<path fill="none" stroke="blue" stroke-width="0.1" d="M343.5,-300.56C343.5,-332.99 343.5,-373.22 343.5,-409.2 343.5,-757.76 343.5,-757.76 343.5,-757.76 343.5,-792.49 334.57,-829.86 324.58,-860.81"/>
<polygon fill="blue" stroke="blue" stroke-width="0.1" points="321.15,-860.03 321.31,-870.62 327.79,-862.24 321.15,-860.03"/>
<text text-anchor="middle" x="359" y="-581.28" font-family="Times,serif" font-size="9.00">&#45;0.966</text>
</g>
<!-- key 757
bias 0.770
h_scaling 0.955
output 0.128&#45;&gt;key 17571
bias &#45;0.839
h_scaling 0.246
output 0.282 -->
<g id="edge14" class="edge">
<title>key 757
bias 0.770
h_scaling 0.955
output 0.128&#45;&gt;key 17571
bias &#45;0.839
h_scaling 0.246
output 0.282</title>
<path fill="none" stroke="red" stroke-width="0.1" d="M367.54,-177.93C373.63,-163.22 380.24,-147.3 386.51,-132.16"/>
<polygon fill="red" stroke="red" stroke-width="0.1" points="389.77,-133.44 390.37,-122.86 383.3,-130.76 389.77,-133.44"/>
<text text-anchor="middle" x="392.5" y="-148.08" font-family="Times,serif" font-size="9.00">0.062</text>
</g>
<!-- key 757
bias 0.770
h_scaling 0.955
output 0.128&#45;&gt;key 7998
bias 0.948
h_scaling 1.000
output 0.683 -->
<g id="edge8" class="edge">
<title>key 757
bias 0.770
h_scaling 0.955
output 0.128&#45;&gt;key 7998
bias 0.948
h_scaling 1.000
output 0.683</title>
<path fill="none" stroke="red" stroke-width="0.1" d="M292.74,-198.12C257.2,-171.65 209.6,-136.2 172.39,-108.49"/>
<polygon fill="red" stroke="red" stroke-width="0.1" points="174.24,-105.51 164.13,-102.34 170.06,-111.12 174.24,-105.51"/>
<text text-anchor="middle" x="242.5" y="-148.08" font-family="Times,serif" font-size="9.00">0.251</text>
</g>
<!-- key 7195
bias 0.314
h_scaling 0.024
output 0.770&#45;&gt;key 15337
bias 0.067
h_scaling 0.412
output 0.024 -->
<g id="edge18" class="edge">
<title>key 7195
bias 0.314
h_scaling 0.024
output 0.770&#45;&gt;key 15337
bias 0.067
h_scaling 0.412
output 0.024</title>
<path fill="none" stroke="blue" stroke-width="0.1" d="M193.41,-693.44C194.73,-681.55 196.12,-669.02 197.47,-656.86"/>
<polygon fill="blue" stroke="blue" stroke-width="0.1" points="200.97,-657.08 198.59,-646.75 194.01,-656.3 200.97,-657.08"/>
<text text-anchor="middle" x="211" y="-667.92" font-family="Times,serif" font-size="9.00">&#45;0.962</text>
</g>
<!-- key 7195
bias 0.314
h_scaling 0.024
output 0.770&#45;&gt;key 7998
bias 0.948
h_scaling 1.000
output 0.683 -->
<g id="edge7" class="edge">
<title>key 7195
bias 0.314
h_scaling 0.024
output 0.770&#45;&gt;key 7998
bias 0.948
h_scaling 1.000
output 0.683</title>
<path fill="none" stroke="blue" stroke-width="0.1" d="M151.28,-703.41C132.62,-670.68 113.5,-626.82 113.5,-584.48 113.5,-584.48 113.5,-584.48 113.5,-235.92 113.5,-203.59 113.5,-167.83 113.5,-137.39"/>
<polygon fill="blue" stroke="blue" stroke-width="0.1" points="117,-137.28 113.5,-127.28 110,-137.28 117,-137.28"/>
<text text-anchor="middle" x="129" y="-408" font-family="Times,serif" font-size="9.00">&#45;0.651</text>
</g>
<!-- key 11676
bias 0.289
h_scaling 0.147
output 0.743&#45;&gt;output
bias 1.000
h_scaling 0.583
output 0.006 -->
<g id="edge17" class="edge">
<title>key 11676
bias 0.289
h_scaling 0.147
output 0.743&#45;&gt;output
bias 1.000
h_scaling 0.583
output 0.006</title>
<path fill="none" stroke="red" stroke-width="0.1" d="M268.77,-471.68C272.6,-487.25 276.2,-504.07 278.5,-519.84 295.55,-636.59 298.48,-773.87 298.43,-856.04"/>
<polygon fill="red" stroke="red" stroke-width="0.1" points="294.93,-856.27 298.41,-866.28 301.93,-856.29 294.93,-856.27"/>
<text text-anchor="middle" x="306.5" y="-667.92" font-family="Times,serif" font-size="9.00">0.332</text>
</g>
<!-- key 11676
bias 0.289
h_scaling 0.147
output 0.743&#45;&gt;key 757
bias 0.770
h_scaling 0.955
output 0.128 -->
<g id="edge11" class="edge">
<title>key 11676
bias 0.289
h_scaling 0.147
output 0.743&#45;&gt;key 757
bias 0.770
h_scaling 0.955
output 0.128</title>
<path fill="none" stroke="blue" stroke-width="0.1" d="M280.32,-352.97C286.27,-341.55 292.54,-329.64 298.5,-318.56 301.44,-313.09 304.52,-307.43 307.63,-301.77"/>
<polygon fill="blue" stroke="blue" stroke-width="0.1" points="310.77,-303.33 312.53,-292.89 304.64,-299.95 310.77,-303.33"/>
<text text-anchor="middle" x="314" y="-321.36" font-family="Times,serif" font-size="9.00">&#45;0.810</text>
</g>
<!-- key 7998
bias 0.948
h_scaling 1.000
output 0.683&#45;&gt;key 6528
bias 1.000
h_scaling 0.328
output 0.936 -->
<g id="edge6" class="edge">
<title>key 7998
bias 0.948
h_scaling 1.000
output 0.683&#45;&gt;key 6528
bias 1.000
h_scaling 0.328
output 0.936</title>
<path fill="none" stroke="blue" stroke-width="0.1" d="M84,-120.09C69.25,-152.84 54.5,-195.66 54.5,-235.92 54.5,-497.84 54.5,-497.84 54.5,-497.84 54.5,-643.58 58.83,-685.3 113.5,-820.4 147.81,-905.18 174.33,-917.21 224.5,-993.68 234.76,-1009.3 245.96,-1026.11 256.44,-1041.72"/>
<polygon fill="blue" stroke="blue" stroke-width="0.1" points="253.69,-1043.91 262.18,-1050.25 259.5,-1040 253.69,-1043.91"/>
<text text-anchor="middle" x="76" y="-581.28" font-family="Times,serif" font-size="9.00">&#45;0.847</text>
</g>
</g>
</svg>
