<?xml version="1.0" encoding="UTF-8" standalone="no"?>
<!DOCTYPE svg PUBLIC "-//W3C//DTD SVG 1.1//EN"
 "http://www.w3.org/Graphics/SVG/1.1/DTD/svg11.dtd">
<!-- Generated by graphviz version 2.43.0 (0)
 -->
<!-- Title: %3 Pages: 1 -->
<svg width="418pt" height="1066pt"
 viewBox="0.00 0.00 418.00 1065.68" xmlns="http://www.w3.org/2000/svg" xmlns:xlink="http://www.w3.org/1999/xlink">
<g id="graph0" class="graph" transform="scale(1 1) rotate(0) translate(4 1061.68)">
<title>%3</title>
<polygon fill="white" stroke="transparent" points="-4,4 -4,-1061.68 414,-1061.68 414,4 -4,4"/>
<!-- ready -->
<g id="node1" class="node">
<title>ready</title>
<polygon fill="yellow" stroke="black" points="326.5,-1057.68 283.5,-1057.68 283.5,-1039.68 326.5,-1039.68 326.5,-1057.68"/>
<text text-anchor="middle" x="305" y="-1046.48" font-family="Times,serif" font-size="9.00">ready</text>
</g>
<!-- key 154634
bias &#45;0.707
h_scaling 0.429 -->
<g id="node4" class="node">
<title>key 154634
bias &#45;0.707
h_scaling 0.429</title>
<ellipse fill="white" stroke="black" cx="182" cy="-930.04" rx="63.78" ry="63.78"/>
<text text-anchor="middle" x="182" y="-937.84" font-family="Times,serif" font-size="9.00">key 154634</text>
<text text-anchor="middle" x="182" y="-927.84" font-family="Times,serif" font-size="9.00">bias &#45;0.707</text>
<text text-anchor="middle" x="182" y="-917.84" font-family="Times,serif" font-size="9.00">h_scaling 0.429</text>
</g>
<!-- ready&#45;&gt;key 154634
bias &#45;0.707
h_scaling 0.429 -->
<g id="edge10" class="edge">
<title>ready&#45;&gt;key 154634
bias &#45;0.707
h_scaling 0.429</title>
<path fill="none" stroke="red" stroke-width="3.08" d="M296.55,-1039.66C283.86,-1027.63 258.89,-1003.95 235.49,-981.76"/>
<polygon fill="red" stroke="red" stroke-width="3.08" points="237.63,-978.97 227.97,-974.63 232.82,-984.05 237.63,-978.97"/>
<text text-anchor="middle" x="289" y="-1014.48" font-family="Times,serif" font-size="9.00">0.992</text>
</g>
<!-- key 13332
bias &#45;0.359
h_scaling 0.652 -->
<g id="node6" class="node">
<title>key 13332
bias &#45;0.359
h_scaling 0.652</title>
<ellipse fill="white" stroke="black" cx="94" cy="-63.64" rx="63.78" ry="63.78"/>
<text text-anchor="middle" x="94" y="-71.44" font-family="Times,serif" font-size="9.00">key 13332</text>
<text text-anchor="middle" x="94" y="-61.44" font-family="Times,serif" font-size="9.00">bias &#45;0.359</text>
<text text-anchor="middle" x="94" y="-51.44" font-family="Times,serif" font-size="9.00">h_scaling 0.652</text>
</g>
<!-- ready&#45;&gt;key 13332
bias &#45;0.359
h_scaling 0.652 -->
<g id="edge16" class="edge">
<title>ready&#45;&gt;key 13332
bias &#45;0.359
h_scaling 0.652</title>
<path fill="none" stroke="blue" stroke-width="1.22" d="M314.98,-1039.47C335.18,-1021.88 379,-978.28 379,-931.04 379,-931.04 379,-931.04 379,-235.92 379,-136.94 251.15,-93.71 166.71,-75.96"/>
<polygon fill="blue" stroke="blue" stroke-width="1.22" points="167.39,-72.52 156.9,-73.97 166,-79.38 167.39,-72.52"/>
<text text-anchor="middle" x="394.5" y="-581.28" font-family="Times,serif" font-size="9.00">&#45;0.373</text>
</g>
<!-- go -->
<g id="node2" class="node">
<title>go</title>
<polygon fill="green" stroke="black" points="291,-765.76 263,-765.76 263,-747.76 291,-747.76 291,-765.76"/>
<text text-anchor="middle" x="277" y="-754.56" font-family="Times,serif" font-size="9.00">go</text>
</g>
<!-- key 2939
bias &#45;0.357
h_scaling 0.280 -->
<g id="node7" class="node">
<title>key 2939
bias &#45;0.357
h_scaling 0.280</title>
<ellipse fill="white" stroke="black" cx="269" cy="-410.2" rx="63.78" ry="63.78"/>
<text text-anchor="middle" x="269" y="-418" font-family="Times,serif" font-size="9.00">key 2939</text>
<text text-anchor="middle" x="269" y="-408" font-family="Times,serif" font-size="9.00">bias &#45;0.357</text>
<text text-anchor="middle" x="269" y="-398" font-family="Times,serif" font-size="9.00">h_scaling 0.280</text>
</g>
<!-- go&#45;&gt;key 2939
bias &#45;0.357
h_scaling 0.280 -->
<g id="edge1" class="edge">
<title>go&#45;&gt;key 2939
bias &#45;0.357
h_scaling 0.280</title>
<path fill="none" stroke="red" stroke-width="2.52" d="M276.81,-747.58C275.99,-712.44 272.73,-572.04 270.69,-484.11"/>
<polygon fill="red" stroke="red" stroke-width="2.52" points="274.19,-483.84 270.46,-473.92 267.19,-484 274.19,-483.84"/>
<text text-anchor="middle" x="288" y="-581.28" font-family="Times,serif" font-size="9.00">0.806</text>
</g>
<!-- key 2940
bias &#45;0.579
h_scaling 0.200 -->
<g id="node8" class="node">
<title>key 2940
bias &#45;0.579
h_scaling 0.200</title>
<ellipse fill="white" stroke="black" cx="128" cy="-583.48" rx="63.78" ry="63.78"/>
<text text-anchor="middle" x="128" y="-591.28" font-family="Times,serif" font-size="9.00">key 2940</text>
<text text-anchor="middle" x="128" y="-581.28" font-family="Times,serif" font-size="9.00">bias &#45;0.579</text>
<text text-anchor="middle" x="128" y="-571.28" font-family="Times,serif" font-size="9.00">h_scaling 0.200</text>
</g>
<!-- go&#45;&gt;key 2940
bias &#45;0.579
h_scaling 0.200 -->
<g id="edge7" class="edge">
<title>go&#45;&gt;key 2940
bias &#45;0.579
h_scaling 0.200</title>
<path fill="none" stroke="red" stroke-width="3.08" d="M275.35,-747.43C272.56,-734.8 266,-710.45 254,-693.12 251.23,-689.12 216.49,-659.25 184.19,-631.84"/>
<polygon fill="red" stroke="red" stroke-width="3.08" points="186.38,-629.11 176.49,-625.31 181.85,-634.45 186.38,-629.11"/>
<text text-anchor="middle" x="247" y="-667.92" font-family="Times,serif" font-size="9.00">0.993</text>
</g>
<!-- output
bias 0.954
h_scaling 0.043 -->
<g id="node3" class="node">
<title>output
bias 0.954
h_scaling 0.043</title>
<ellipse fill="lightblue" stroke="black" cx="148" cy="-236.92" rx="63.78" ry="63.78"/>
<text text-anchor="middle" x="148" y="-244.72" font-family="Times,serif" font-size="9.00">output</text>
<text text-anchor="middle" x="148" y="-234.72" font-family="Times,serif" font-size="9.00">bias 0.954</text>
<text text-anchor="middle" x="148" y="-224.72" font-family="Times,serif" font-size="9.00">h_scaling 0.043</text>
</g>
<!-- output
bias 0.954
h_scaling 0.043&#45;&gt;key 13332
bias &#45;0.359
h_scaling 0.652 -->
<g id="edge4" class="edge">
<title>output
bias 0.954
h_scaling 0.043&#45;&gt;key 13332
bias &#45;0.359
h_scaling 0.652</title>
<path fill="none" stroke="blue" stroke-width="2.98" d="M134.36,-174.65C131.81,-164.77 128.99,-154.69 126,-145.28 124.65,-141.05 123.19,-136.72 121.66,-132.38"/>
<polygon fill="blue" stroke="blue" stroke-width="2.98" points="124.92,-131.08 118.22,-122.87 118.33,-133.46 124.92,-131.08"/>
<text text-anchor="middle" x="143.5" y="-148.08" font-family="Times,serif" font-size="9.00">&#45;0.961</text>
</g>
<!-- output
bias 0.954
h_scaling 0.043&#45;&gt;key 2940
bias &#45;0.579
h_scaling 0.200 -->
<g id="edge9" class="edge">
<title>output
bias 0.954
h_scaling 0.043&#45;&gt;key 2940
bias &#45;0.579
h_scaling 0.200</title>
<path fill="none" stroke="red" stroke-width="2.09" d="M145.7,-300.54C143.8,-348.1 140.8,-415.12 137,-473.84 136.25,-485.49 135.33,-497.84 134.38,-509.88"/>
<polygon fill="red" stroke="red" stroke-width="2.09" points="130.89,-509.64 133.57,-519.89 137.86,-510.2 130.89,-509.64"/>
<text text-anchor="middle" x="157" y="-408" font-family="Times,serif" font-size="9.00">0.665</text>
</g>
<!-- key 154634
bias &#45;0.707
h_scaling 0.429&#45;&gt;key 154634
bias &#45;0.707
h_scaling 0.429 -->
<g id="edge20" class="edge">
<title>key 154634
bias &#45;0.707
h_scaling 0.429&#45;&gt;key 154634
bias &#45;0.707
h_scaling 0.429</title>
<path fill="none" stroke="red" stroke-width="1.36" d="M243.94,-945.33C255.5,-943.45 263.64,-938.35 263.64,-930.04 263.64,-924.32 259.79,-920.12 253.63,-917.45"/>
<polygon fill="red" stroke="red" stroke-width="1.36" points="254.52,-914.06 243.94,-914.74 252.63,-920.8 254.52,-914.06"/>
<text text-anchor="middle" x="277.64" y="-927.84" font-family="Times,serif" font-size="9.00">0.420</text>
</g>
<!-- key 240812
bias &#45;0.396
h_scaling 0.392 -->
<g id="node5" class="node">
<title>key 240812
bias &#45;0.396
h_scaling 0.392</title>
<ellipse fill="white" stroke="black" cx="181" cy="-756.76" rx="63.78" ry="63.78"/>
<text text-anchor="middle" x="181" y="-764.56" font-family="Times,serif" font-size="9.00">key 240812</text>
<text text-anchor="middle" x="181" y="-754.56" font-family="Times,serif" font-size="9.00">bias &#45;0.396</text>
<text text-anchor="middle" x="181" y="-744.56" font-family="Times,serif" font-size="9.00">h_scaling 0.392</text>
</g>
<!-- key 154634
bias &#45;0.707
h_scaling 0.429&#45;&gt;key 240812
bias &#45;0.396
h_scaling 0.392 -->
<g id="edge13" class="edge">
<title>key 154634
bias &#45;0.707
h_scaling 0.429&#45;&gt;key 240812
bias &#45;0.396
h_scaling 0.392</title>
<path fill="none" stroke="red" stroke-width="1.93" d="M185.02,-866.14C185.2,-856.84 185.22,-847.37 185,-838.4 184.94,-835.88 184.86,-833.33 184.78,-830.74"/>
<polygon fill="red" stroke="red" stroke-width="1.93" points="188.28,-830.57 184.42,-820.7 181.28,-830.81 188.28,-830.57"/>
<text text-anchor="middle" x="199" y="-841.2" font-family="Times,serif" font-size="9.00">0.608</text>
</g>
<!-- key 154634
bias &#45;0.707
h_scaling 0.429&#45;&gt;key 13332
bias &#45;0.359
h_scaling 0.652 -->
<g id="edge15" class="edge">
<title>key 154634
bias &#45;0.707
h_scaling 0.429&#45;&gt;key 13332
bias &#45;0.359
h_scaling 0.652</title>
<path fill="none" stroke="blue" stroke-width="0.9" d="M123.91,-903.87C70.65,-876.42 0,-826.96 0,-757.76 0,-757.76 0,-757.76 0,-235.92 0,-193.42 22.52,-151.49 45.51,-119.75"/>
<polygon fill="blue" stroke="blue" stroke-width="0.9" points="48.5,-121.6 51.67,-111.49 42.89,-117.42 48.5,-121.6"/>
<text text-anchor="middle" x="15.5" y="-494.64" font-family="Times,serif" font-size="9.00">&#45;0.266</text>
</g>
<!-- key 154634
bias &#45;0.707
h_scaling 0.429&#45;&gt;key 2939
bias &#45;0.357
h_scaling 0.280 -->
<g id="edge19" class="edge">
<title>key 154634
bias &#45;0.707
h_scaling 0.429&#45;&gt;key 2939
bias &#45;0.357
h_scaling 0.280</title>
<path fill="none" stroke="blue" stroke-width="0.15" d="M235.33,-894.87C259.7,-876.1 286.17,-850.51 300,-820.4 355.78,-698.99 327.83,-651.65 306,-519.84 303.77,-506.39 300.1,-492.38 295.9,-479.05"/>
<polygon fill="blue" stroke="blue" stroke-width="0.15" points="299.21,-477.91 292.77,-469.5 292.56,-480.09 299.21,-477.91"/>
<text text-anchor="middle" x="347.5" y="-667.92" font-family="Times,serif" font-size="9.00">&#45;0.018</text>
</g>
<!-- key 154634
bias &#45;0.707
h_scaling 0.429&#45;&gt;key 2940
bias &#45;0.579
h_scaling 0.200 -->
<g id="edge11" class="edge">
<title>key 154634
bias &#45;0.707
h_scaling 0.429&#45;&gt;key 2940
bias &#45;0.579
h_scaling 0.200</title>
<path fill="none" stroke="blue" stroke-width="0.87" d="M131.27,-891.43C110.26,-872.69 88.21,-848.12 77,-820.4 55.8,-767.95 64.69,-748.33 77,-693.12 80.35,-678.1 86.01,-662.71 92.37,-648.41"/>
<polygon fill="blue" stroke="blue" stroke-width="0.87" points="95.61,-649.73 96.63,-639.19 89.26,-646.8 95.61,-649.73"/>
<text text-anchor="middle" x="92.5" y="-754.56" font-family="Times,serif" font-size="9.00">&#45;0.258</text>
</g>
<!-- key 240812
bias &#45;0.396
h_scaling 0.392&#45;&gt;key 154634
bias &#45;0.707
h_scaling 0.429 -->
<g id="edge18" class="edge">
<title>key 240812
bias &#45;0.396
h_scaling 0.392&#45;&gt;key 154634
bias &#45;0.707
h_scaling 0.429</title>
<path fill="none" stroke="red" stroke-width="2.94" d="M154.77,-814.76C152.15,-825.8 151.08,-837.36 153,-848.4 153.72,-852.52 154.63,-856.71 155.68,-860.9"/>
<polygon fill="red" stroke="red" stroke-width="2.94" points="152.34,-861.95 158.37,-870.66 159.09,-860.09 152.34,-861.95"/>
<text text-anchor="middle" x="167" y="-841.2" font-family="Times,serif" font-size="9.00">0.946</text>
</g>
<!-- key 240812
bias &#45;0.396
h_scaling 0.392&#45;&gt;key 2940
bias &#45;0.579
h_scaling 0.200 -->
<g id="edge14" class="edge">
<title>key 240812
bias &#45;0.396
h_scaling 0.392&#45;&gt;key 2940
bias &#45;0.579
h_scaling 0.200</title>
<path fill="none" stroke="blue" stroke-width="1.22" d="M162.46,-695.85C158.33,-682.5 153.92,-668.23 149.67,-654.51"/>
<polygon fill="blue" stroke="blue" stroke-width="1.22" points="152.92,-653.16 146.62,-644.64 146.23,-655.23 152.92,-653.16"/>
<text text-anchor="middle" x="169.5" y="-667.92" font-family="Times,serif" font-size="9.00">&#45;0.372</text>
</g>
<!-- key 13332
bias &#45;0.359
h_scaling 0.652&#45;&gt;output
bias 0.954
h_scaling 0.043 -->
<g id="edge3" class="edge">
<title>key 13332
bias &#45;0.359
h_scaling 0.652&#45;&gt;output
bias 0.954
h_scaling 0.043</title>
<path fill="none" stroke="blue" stroke-width="3.02" d="M90.05,-127.28C90.78,-136.8 92.29,-146.4 95,-155.28 97.27,-162.72 100.46,-170.1 104.16,-177.22"/>
<polygon fill="blue" stroke="blue" stroke-width="3.02" points="101.16,-179.04 109.09,-186.07 107.28,-175.63 101.16,-179.04"/>
<text text-anchor="middle" x="110.5" y="-148.08" font-family="Times,serif" font-size="9.00">&#45;0.974</text>
</g>
<!-- key 13332
bias &#45;0.359
h_scaling 0.652&#45;&gt;key 13332
bias &#45;0.359
h_scaling 0.652 -->
<g id="edge21" class="edge">
<title>key 13332
bias &#45;0.359
h_scaling 0.652&#45;&gt;key 13332
bias &#45;0.359
h_scaling 0.652</title>
<path fill="none" stroke="red" stroke-width="1.61" d="M155.94,-78.94C167.5,-77.05 175.64,-71.95 175.64,-63.64 175.64,-57.92 171.79,-53.73 165.63,-51.05"/>
<polygon fill="red" stroke="red" stroke-width="1.61" points="166.52,-47.66 155.94,-48.34 164.63,-54.4 166.52,-47.66"/>
<text text-anchor="middle" x="189.64" y="-61.44" font-family="Times,serif" font-size="9.00">0.502</text>
</g>
<!-- key 2939
bias &#45;0.357
h_scaling 0.280&#45;&gt;output
bias 0.954
h_scaling 0.043 -->
<g id="edge2" class="edge">
<title>key 2939
bias &#45;0.357
h_scaling 0.280&#45;&gt;output
bias 0.954
h_scaling 0.043</title>
<path fill="none" stroke="blue" stroke-width="3.1" d="M232.7,-357.81C219.3,-338.84 204,-317.19 190.13,-297.55"/>
<polygon fill="blue" stroke="blue" stroke-width="3.1" points="192.91,-295.42 184.28,-289.27 187.19,-299.46 192.91,-295.42"/>
<text text-anchor="middle" x="223.5" y="-321.36" font-family="Times,serif" font-size="9.00">&#45;1.000</text>
</g>
<!-- key 2939
bias &#45;0.357
h_scaling 0.280&#45;&gt;key 2940
bias &#45;0.579
h_scaling 0.200 -->
<g id="edge5" class="edge">
<title>key 2939
bias &#45;0.357
h_scaling 0.280&#45;&gt;key 2940
bias &#45;0.579
h_scaling 0.200</title>
<path fill="none" stroke="red" stroke-width="2.73" d="M237.63,-465.89C229.8,-478.12 221.04,-490.74 212,-501.84 203.16,-512.68 192.97,-523.56 182.79,-533.65"/>
<polygon fill="red" stroke="red" stroke-width="2.73" points="180.12,-531.37 175.4,-540.86 185.01,-536.38 180.12,-531.37"/>
<text text-anchor="middle" x="233" y="-494.64" font-family="Times,serif" font-size="9.00">0.877</text>
</g>
<!-- key 2940
bias &#45;0.579
h_scaling 0.200&#45;&gt;output
bias 0.954
h_scaling 0.043 -->
<g id="edge8" class="edge">
<title>key 2940
bias &#45;0.579
h_scaling 0.200&#45;&gt;output
bias 0.954
h_scaling 0.043</title>
<path fill="none" stroke="blue" stroke-width="2.48" d="M113.11,-521.44C103.63,-473.56 95.02,-405.4 106,-346.56 108.6,-332.64 112.91,-318.21 117.82,-304.59"/>
<polygon fill="blue" stroke="blue" stroke-width="2.48" points="121.24,-305.43 121.47,-294.83 114.69,-302.97 121.24,-305.43"/>
<text text-anchor="middle" x="121.5" y="-408" font-family="Times,serif" font-size="9.00">&#45;0.792</text>
</g>
<!-- key 2940
bias &#45;0.579
h_scaling 0.200&#45;&gt;key 13332
bias &#45;0.359
h_scaling 0.652 -->
<g id="edge12" class="edge">
<title>key 2940
bias &#45;0.579
h_scaling 0.200&#45;&gt;key 13332
bias &#45;0.359
h_scaling 0.652</title>
<path fill="none" stroke="red" stroke-width="2.42" d="M109.14,-522.54C104.68,-506.81 100.27,-489.79 97,-473.84 70.11,-342.63 63.42,-306.72 75,-173.28 76.04,-161.28 77.72,-148.62 79.65,-136.35"/>
<polygon fill="red" stroke="red" stroke-width="2.42" points="83.16,-136.59 81.33,-126.16 76.25,-135.46 83.16,-136.59"/>
<text text-anchor="middle" x="86" y="-321.36" font-family="Times,serif" font-size="9.00">0.775</text>
</g>
<!-- key 2940
bias &#45;0.579
h_scaling 0.200&#45;&gt;key 2939
bias &#45;0.357
h_scaling 0.280 -->
<g id="edge6" class="edge">
<title>key 2940
bias &#45;0.579
h_scaling 0.200&#45;&gt;key 2939
bias &#45;0.357
h_scaling 0.280</title>
<path fill="none" stroke="red" stroke-width="3.07" d="M156.43,-526.51C163.47,-514.61 171.47,-502.44 180,-491.84 189.55,-479.98 200.88,-468.33 212.22,-457.73"/>
<polygon fill="red" stroke="red" stroke-width="3.07" points="214.64,-460.26 219.65,-450.92 209.91,-455.09 214.64,-460.26"/>
<text text-anchor="middle" x="194" y="-494.64" font-family="Times,serif" font-size="9.00">0.990</text>
</g>
<!-- key 2940
bias &#45;0.579
h_scaling 0.200&#45;&gt;key 2940
bias &#45;0.579
h_scaling 0.200 -->
<g id="edge17" class="edge">
<title>key 2940
bias &#45;0.579
h_scaling 0.200&#45;&gt;key 2940
bias &#45;0.579
h_scaling 0.200</title>
<path fill="none" stroke="blue" stroke-width="0.22" d="M189.94,-598.77C201.5,-596.89 209.64,-591.79 209.64,-583.48 209.64,-577.76 205.79,-573.56 199.63,-570.89"/>
<polygon fill="blue" stroke="blue" stroke-width="0.22" points="200.52,-567.5 189.94,-568.18 198.63,-574.24 200.52,-567.5"/>
<text text-anchor="middle" x="225.14" y="-581.28" font-family="Times,serif" font-size="9.00">&#45;0.041</text>
</g>
</g>
</svg>
