<?xml version="1.0" encoding="UTF-8" standalone="no"?>
<!DOCTYPE svg PUBLIC "-//W3C//DTD SVG 1.1//EN"
 "http://www.w3.org/Graphics/SVG/1.1/DTD/svg11.dtd">
<!-- Generated by graphviz version 2.43.0 (0)
 -->
<!-- Title: %3 Pages: 1 -->
<svg width="338pt" height="1057pt"
 viewBox="0.00 0.00 338.00 1056.68" xmlns="http://www.w3.org/2000/svg" xmlns:xlink="http://www.w3.org/1999/xlink">
<g id="graph0" class="graph" transform="scale(1 1) rotate(0) translate(4 1052.68)">
<title>%3</title>
<polygon fill="white" stroke="transparent" points="-4,4 -4,-1052.68 334,-1052.68 334,4 -4,4"/>
<!-- ready -->
<g id="node1" class="node">
<title>ready</title>
<polygon fill="yellow" stroke="black" points="281.5,-1048.68 238.5,-1048.68 238.5,-1030.68 281.5,-1030.68 281.5,-1048.68"/>
<text text-anchor="middle" x="260" y="-1037.48" font-family="Times,serif" font-size="9.00">ready</text>
</g>
<!-- key 154634
bias &#45;0.707
h_scaling 0.429 -->
<g id="node4" class="node">
<title>key 154634
bias &#45;0.707
h_scaling 0.429</title>
<ellipse fill="white" stroke="black" cx="141" cy="-921.04" rx="63.78" ry="63.78"/>
<text text-anchor="middle" x="141" y="-928.84" font-family="Times,serif" font-size="9.00">key 154634</text>
<text text-anchor="middle" x="141" y="-918.84" font-family="Times,serif" font-size="9.00">bias &#45;0.707</text>
<text text-anchor="middle" x="141" y="-908.84" font-family="Times,serif" font-size="9.00">h_scaling 0.429</text>
</g>
<!-- ready&#45;&gt;key 154634
bias &#45;0.707
h_scaling 0.429 -->
<g id="edge10" class="edge">
<title>ready&#45;&gt;key 154634
bias &#45;0.707
h_scaling 0.429</title>
<path fill="none" stroke="red" stroke-width="1.1" d="M251.82,-1030.66C239.64,-1018.72 215.76,-995.32 193.28,-973.28"/>
<polygon fill="red" stroke="red" stroke-width="1.1" points="195.63,-970.69 186.04,-966.19 190.73,-975.68 195.63,-970.69"/>
<text text-anchor="middle" x="245" y="-1005.48" font-family="Times,serif" font-size="9.00">0.033</text>
</g>
<!-- key 13332
bias &#45;0.359
h_scaling 0.652 -->
<g id="node6" class="node">
<title>key 13332
bias &#45;0.359
h_scaling 0.652</title>
<ellipse fill="white" stroke="black" cx="130" cy="-63.64" rx="63.78" ry="63.78"/>
<text text-anchor="middle" x="130" y="-71.44" font-family="Times,serif" font-size="9.00">key 13332</text>
<text text-anchor="middle" x="130" y="-61.44" font-family="Times,serif" font-size="9.00">bias &#45;0.359</text>
<text text-anchor="middle" x="130" y="-51.44" font-family="Times,serif" font-size="9.00">h_scaling 0.652</text>
</g>
<!-- ready&#45;&gt;key 13332
bias &#45;0.359
h_scaling 0.652 -->
<g id="edge16" class="edge">
<title>ready&#45;&gt;key 13332
bias &#45;0.359
h_scaling 0.652</title>
<path fill="none" stroke="blue" stroke-width="0.1" d="M269.15,-1030.63C288.13,-1013 330,-968.8 330,-922.04 330,-922.04 330,-922.04 330,-226.92 330,-157.98 257.47,-113.22 199.76,-88.52"/>
<polygon fill="blue" stroke="blue" stroke-width="0.1" points="200.86,-85.19 190.28,-84.58 198.17,-91.65 200.86,-85.19"/>
</g>
<!-- go -->
<g id="node2" class="node">
<title>go</title>
<polygon fill="green" stroke="black" points="250,-756.76 222,-756.76 222,-738.76 250,-738.76 250,-756.76"/>
<text text-anchor="middle" x="236" y="-745.56" font-family="Times,serif" font-size="9.00">go</text>
</g>
<!-- key 2939
bias &#45;0.357
h_scaling 0.280 -->
<g id="node7" class="node">
<title>key 2939
bias &#45;0.357
h_scaling 0.280</title>
<ellipse fill="white" stroke="black" cx="237" cy="-401.2" rx="63.78" ry="63.78"/>
<text text-anchor="middle" x="237" y="-409" font-family="Times,serif" font-size="9.00">key 2939</text>
<text text-anchor="middle" x="237" y="-399" font-family="Times,serif" font-size="9.00">bias &#45;0.357</text>
<text text-anchor="middle" x="237" y="-389" font-family="Times,serif" font-size="9.00">h_scaling 0.280</text>
</g>
<!-- go&#45;&gt;key 2939
bias &#45;0.357
h_scaling 0.280 -->
<g id="edge1" class="edge">
<title>go&#45;&gt;key 2939
bias &#45;0.357
h_scaling 0.280</title>
<path fill="none" stroke="red" stroke-width="0.79" d="M236.02,-738.58C236.13,-703.44 236.53,-563.04 236.79,-475.11"/>
<polygon fill="red" stroke="red" stroke-width="0.79" points="240.29,-474.93 236.82,-464.92 233.29,-474.91 240.29,-474.93"/>
<text text-anchor="middle" x="250" y="-572.28" font-family="Times,serif" font-size="9.00">0.023</text>
</g>
<!-- key 2940
bias &#45;0.579
h_scaling 0.200 -->
<g id="node8" class="node">
<title>key 2940
bias &#45;0.579
h_scaling 0.200</title>
<ellipse fill="white" stroke="black" cx="115" cy="-574.48" rx="63.78" ry="63.78"/>
<text text-anchor="middle" x="115" y="-582.28" font-family="Times,serif" font-size="9.00">key 2940</text>
<text text-anchor="middle" x="115" y="-572.28" font-family="Times,serif" font-size="9.00">bias &#45;0.579</text>
<text text-anchor="middle" x="115" y="-562.28" font-family="Times,serif" font-size="9.00">h_scaling 0.200</text>
</g>
<!-- go&#45;&gt;key 2940
bias &#45;0.579
h_scaling 0.200 -->
<g id="edge7" class="edge">
<title>go&#45;&gt;key 2940
bias &#45;0.579
h_scaling 0.200</title>
<path fill="none" stroke="red" stroke-width="0.88" d="M234.25,-738.5C231.33,-725.96 224.59,-701.73 213,-684.12 206.6,-674.4 202.05,-674.51 194,-666.12 183.45,-655.12 172.49,-643.02 162.22,-631.35"/>
<polygon fill="red" stroke="red" stroke-width="0.88" points="164.79,-628.98 155.57,-623.75 159.52,-633.59 164.79,-628.98"/>
<text text-anchor="middle" x="208" y="-658.92" font-family="Times,serif" font-size="9.00">0.026</text>
</g>
<!-- output
bias 0.954
h_scaling 0.043 -->
<g id="node3" class="node">
<title>output
bias 0.954
h_scaling 0.043</title>
<ellipse fill="lightblue" stroke="black" cx="130" cy="-227.92" rx="63.78" ry="63.78"/>
<text text-anchor="middle" x="130" y="-235.72" font-family="Times,serif" font-size="9.00">output</text>
<text text-anchor="middle" x="130" y="-225.72" font-family="Times,serif" font-size="9.00">bias 0.954</text>
<text text-anchor="middle" x="130" y="-215.72" font-family="Times,serif" font-size="9.00">h_scaling 0.043</text>
</g>
<!-- output
bias 0.954
h_scaling 0.043&#45;&gt;key 13332
bias &#45;0.359
h_scaling 0.652 -->
<g id="edge4" class="edge">
<title>output
bias 0.954
h_scaling 0.043&#45;&gt;key 13332
bias &#45;0.359
h_scaling 0.652</title>
<path fill="none" stroke="blue" stroke-width="0.1" d="M123.41,-164.18C123.25,-155.3 123.21,-146.11 123.28,-137.07"/>
<polygon fill="blue" stroke="blue" stroke-width="0.1" points="126.79,-136.99 123.41,-126.95 119.79,-136.9 126.79,-136.99"/>
</g>
<!-- output
bias 0.954
h_scaling 0.043&#45;&gt;key 2940
bias &#45;0.579
h_scaling 0.200 -->
<g id="edge9" class="edge">
<title>output
bias 0.954
h_scaling 0.043&#45;&gt;key 2940
bias &#45;0.579
h_scaling 0.200</title>
<path fill="none" stroke="red" stroke-width="0.71" d="M127.27,-291.57C124.71,-350.46 120.87,-438.57 118.17,-500.58"/>
<polygon fill="red" stroke="red" stroke-width="0.71" points="114.67,-500.54 117.73,-510.68 121.67,-500.84 114.67,-500.54"/>
<text text-anchor="middle" x="139" y="-399" font-family="Times,serif" font-size="9.00">0.020</text>
</g>
<!-- key 154634
bias &#45;0.707
h_scaling 0.429&#45;&gt;key 154634
bias &#45;0.707
h_scaling 0.429 -->
<g id="edge20" class="edge">
<title>key 154634
bias &#45;0.707
h_scaling 0.429&#45;&gt;key 154634
bias &#45;0.707
h_scaling 0.429</title>
<path fill="none" stroke="red" stroke-width="0.45" d="M202.94,-936.33C214.5,-934.45 222.64,-929.35 222.64,-921.04 222.64,-915.32 218.79,-911.12 212.63,-908.45"/>
<polygon fill="red" stroke="red" stroke-width="0.45" points="213.52,-905.06 202.94,-905.74 211.63,-911.8 213.52,-905.06"/>
<text text-anchor="middle" x="236.64" y="-918.84" font-family="Times,serif" font-size="9.00">0.012</text>
</g>
<!-- key 240812
bias &#45;0.396
h_scaling 0.392 -->
<g id="node5" class="node">
<title>key 240812
bias &#45;0.396
h_scaling 0.392</title>
<ellipse fill="white" stroke="black" cx="140" cy="-747.76" rx="63.78" ry="63.78"/>
<text text-anchor="middle" x="140" y="-755.56" font-family="Times,serif" font-size="9.00">key 240812</text>
<text text-anchor="middle" x="140" y="-745.56" font-family="Times,serif" font-size="9.00">bias &#45;0.396</text>
<text text-anchor="middle" x="140" y="-735.56" font-family="Times,serif" font-size="9.00">h_scaling 0.392</text>
</g>
<!-- key 154634
bias &#45;0.707
h_scaling 0.429&#45;&gt;key 240812
bias &#45;0.396
h_scaling 0.392 -->
<g id="edge13" class="edge">
<title>key 154634
bias &#45;0.707
h_scaling 0.429&#45;&gt;key 240812
bias &#45;0.396
h_scaling 0.392</title>
<path fill="none" stroke="red" stroke-width="0.17" d="M144.02,-857.14C144.2,-847.84 144.22,-838.37 144,-829.4 143.94,-826.88 143.86,-824.33 143.78,-821.74"/>
<polygon fill="red" stroke="red" stroke-width="0.17" points="147.28,-821.57 143.42,-811.7 140.28,-821.81 147.28,-821.57"/>
<text text-anchor="middle" x="158" y="-832.2" font-family="Times,serif" font-size="9.00">0.002</text>
</g>
<!-- key 154634
bias &#45;0.707
h_scaling 0.429&#45;&gt;key 13332
bias &#45;0.359
h_scaling 0.652 -->
<g id="edge15" class="edge">
<title>key 154634
bias &#45;0.707
h_scaling 0.429&#45;&gt;key 13332
bias &#45;0.359
h_scaling 0.652</title>
<path fill="none" stroke="blue" stroke-width="0.1" d="M87.69,-885.36C47.77,-854.75 0,-806.14 0,-748.76 0,-748.76 0,-748.76 0,-226.92 0,-178.26 36.05,-135.84 70.18,-106.6"/>
<polygon fill="blue" stroke="blue" stroke-width="0.1" points="72.43,-109.28 77.87,-100.19 67.95,-103.9 72.43,-109.28"/>
</g>
<!-- key 154634
bias &#45;0.707
h_scaling 0.429&#45;&gt;key 2939
bias &#45;0.357
h_scaling 0.280 -->
<g id="edge19" class="edge">
<title>key 154634
bias &#45;0.707
h_scaling 0.429&#45;&gt;key 2939
bias &#45;0.357
h_scaling 0.280</title>
<path fill="none" stroke="blue" stroke-width="0.1" d="M194.1,-885.76C218.42,-866.97 244.91,-841.39 259,-811.4 310.66,-701.46 283.62,-556.15 259.89,-471.55"/>
<polygon fill="blue" stroke="blue" stroke-width="0.1" points="263.21,-470.44 257.09,-461.79 256.48,-472.37 263.21,-470.44"/>
</g>
<!-- key 154634
bias &#45;0.707
h_scaling 0.429&#45;&gt;key 2940
bias &#45;0.579
h_scaling 0.200 -->
<g id="edge11" class="edge">
<title>key 154634
bias &#45;0.707
h_scaling 0.429&#45;&gt;key 2940
bias &#45;0.579
h_scaling 0.200</title>
<path fill="none" stroke="blue" stroke-width="0.1" d="M99.54,-872.47C86.48,-854.55 73.72,-833.2 67,-811.4 50.34,-757.34 55.32,-739.47 67,-684.12 70.08,-669.53 75.25,-654.51 81.08,-640.48"/>
<polygon fill="blue" stroke="blue" stroke-width="0.1" points="84.45,-641.5 85.21,-630.93 78.03,-638.72 84.45,-641.5"/>
</g>
<!-- key 240812
bias &#45;0.396
h_scaling 0.392&#45;&gt;key 154634
bias &#45;0.707
h_scaling 0.429 -->
<g id="edge18" class="edge">
<title>key 240812
bias &#45;0.396
h_scaling 0.392&#45;&gt;key 154634
bias &#45;0.707
h_scaling 0.429</title>
<path fill="none" stroke="red" stroke-width="0.17" d="M113.77,-805.76C111.15,-816.8 110.08,-828.36 112,-839.4 112.72,-843.52 113.63,-847.71 114.68,-851.9"/>
<polygon fill="red" stroke="red" stroke-width="0.17" points="111.34,-852.95 117.37,-861.66 118.09,-851.09 111.34,-852.95"/>
<text text-anchor="middle" x="126" y="-832.2" font-family="Times,serif" font-size="9.00">0.002</text>
</g>
<!-- key 240812
bias &#45;0.396
h_scaling 0.392&#45;&gt;key 2940
bias &#45;0.579
h_scaling 0.200 -->
<g id="edge14" class="edge">
<title>key 240812
bias &#45;0.396
h_scaling 0.392&#45;&gt;key 2940
bias &#45;0.579
h_scaling 0.200</title>
<path fill="none" stroke="blue" stroke-width="0.1" d="M130.9,-684.44C129.17,-672.55 127.34,-660.02 125.57,-647.86"/>
<polygon fill="blue" stroke="blue" stroke-width="0.1" points="129,-647.14 124.09,-637.75 122.07,-648.15 129,-647.14"/>
</g>
<!-- key 13332
bias &#45;0.359
h_scaling 0.652&#45;&gt;output
bias 0.954
h_scaling 0.043 -->
<g id="edge3" class="edge">
<title>key 13332
bias &#45;0.359
h_scaling 0.652&#45;&gt;output
bias 0.954
h_scaling 0.043</title>
<path fill="none" stroke="blue" stroke-width="0.1" d="M136.59,-126.95C136.74,-135.81 136.79,-145 136.72,-154.05"/>
<polygon fill="blue" stroke="blue" stroke-width="0.1" points="133.22,-154.13 136.59,-164.18 140.22,-154.22 133.22,-154.13"/>
</g>
<!-- key 13332
bias &#45;0.359
h_scaling 0.652&#45;&gt;key 13332
bias &#45;0.359
h_scaling 0.652 -->
<g id="edge21" class="edge">
<title>key 13332
bias &#45;0.359
h_scaling 0.652&#45;&gt;key 13332
bias &#45;0.359
h_scaling 0.652</title>
<path fill="none" stroke="red" stroke-width="1.02" d="M192.29,-78.17C203.66,-76.33 211.64,-71.49 211.64,-63.64 211.64,-58.37 208.04,-54.45 202.23,-51.89"/>
<polygon fill="red" stroke="red" stroke-width="1.02" points="202.87,-48.43 192.29,-49.11 200.98,-55.18 202.87,-48.43"/>
<text text-anchor="middle" x="225.64" y="-61.44" font-family="Times,serif" font-size="9.00">0.031</text>
</g>
<!-- key 2939
bias &#45;0.357
h_scaling 0.280&#45;&gt;output
bias 0.954
h_scaling 0.043 -->
<g id="edge2" class="edge">
<title>key 2939
bias &#45;0.357
h_scaling 0.280&#45;&gt;output
bias 0.954
h_scaling 0.043</title>
<path fill="none" stroke="blue" stroke-width="0.1" d="M203.73,-346.94C192.71,-329.31 180.35,-309.52 168.95,-291.26"/>
<polygon fill="blue" stroke="blue" stroke-width="0.1" points="171.7,-289.06 163.43,-282.44 165.76,-292.77 171.7,-289.06"/>
</g>
<!-- key 2939
bias &#45;0.357
h_scaling 0.280&#45;&gt;key 2940
bias &#45;0.579
h_scaling 0.200 -->
<g id="edge5" class="edge">
<title>key 2939
bias &#45;0.357
h_scaling 0.280&#45;&gt;key 2940
bias &#45;0.579
h_scaling 0.200</title>
<path fill="none" stroke="red" stroke-width="1.28" d="M201.23,-454.12C192.39,-466.82 182.9,-480.36 174,-492.84 169,-499.84 163.73,-507.16 158.47,-514.4"/>
<polygon fill="red" stroke="red" stroke-width="1.28" points="155.38,-512.71 152.33,-522.85 161.04,-516.83 155.38,-512.71"/>
<text text-anchor="middle" x="194" y="-485.64" font-family="Times,serif" font-size="9.00">0.039</text>
</g>
<!-- key 2940
bias &#45;0.579
h_scaling 0.200&#45;&gt;output
bias 0.954
h_scaling 0.043 -->
<g id="edge8" class="edge">
<title>key 2940
bias &#45;0.579
h_scaling 0.200&#45;&gt;output
bias 0.954
h_scaling 0.043</title>
<path fill="none" stroke="blue" stroke-width="0.1" d="M100.68,-512.05C99.58,-505.59 98.65,-499.1 98,-492.84 90.84,-424.13 95.55,-405.99 105,-337.56 106.7,-325.23 109.13,-312.24 111.8,-299.7"/>
<polygon fill="blue" stroke="blue" stroke-width="0.1" points="115.26,-300.28 113.99,-289.76 108.42,-298.77 115.26,-300.28"/>
</g>
<!-- key 2940
bias &#45;0.579
h_scaling 0.200&#45;&gt;key 13332
bias &#45;0.359
h_scaling 0.652 -->
<g id="edge12" class="edge">
<title>key 2940
bias &#45;0.579
h_scaling 0.200&#45;&gt;key 13332
bias &#45;0.359
h_scaling 0.652</title>
<path fill="none" stroke="red" stroke-width="0.98" d="M90.69,-515.45C60.48,-434.81 17.46,-285.16 57,-164.28 62.22,-148.33 71.07,-132.82 80.84,-118.97"/>
<polygon fill="red" stroke="red" stroke-width="0.98" points="83.91,-120.7 87.02,-110.57 78.27,-116.55 83.91,-120.7"/>
<text text-anchor="middle" x="58" y="-312.36" font-family="Times,serif" font-size="9.00">0.029</text>
</g>
<!-- key 2940
bias &#45;0.579
h_scaling 0.200&#45;&gt;key 2939
bias &#45;0.357
h_scaling 0.280 -->
<g id="edge6" class="edge">
<title>key 2940
bias &#45;0.579
h_scaling 0.200&#45;&gt;key 2939
bias &#45;0.357
h_scaling 0.280</title>
<path fill="none" stroke="red" stroke-width="1.28" d="M128.09,-511.85C131.7,-501.7 136.26,-491.64 142,-482.84 145.09,-478.1 161.51,-463.78 179.84,-448.5"/>
<polygon fill="red" stroke="red" stroke-width="1.28" points="182.32,-450.99 187.79,-441.91 177.86,-445.6 182.32,-450.99"/>
<text text-anchor="middle" x="156" y="-485.64" font-family="Times,serif" font-size="9.00">0.039</text>
</g>
<!-- key 2940
bias &#45;0.579
h_scaling 0.200&#45;&gt;key 2940
bias &#45;0.579
h_scaling 0.200 -->
<g id="edge17" class="edge">
<title>key 2940
bias &#45;0.579
h_scaling 0.200&#45;&gt;key 2940
bias &#45;0.579
h_scaling 0.200</title>
<path fill="none" stroke="blue" stroke-width="0.1" d="M176.94,-589.77C188.5,-587.89 196.64,-582.79 196.64,-574.48 196.64,-568.76 192.79,-564.56 186.63,-561.89"/>
<polygon fill="blue" stroke="blue" stroke-width="0.1" points="187.52,-558.5 176.94,-559.18 185.63,-565.24 187.52,-558.5"/>
</g>
</g>
</svg>
