<?xml version="1.0" encoding="UTF-8" standalone="no"?>
<!DOCTYPE svg PUBLIC "-//W3C//DTD SVG 1.1//EN"
 "http://www.w3.org/Graphics/SVG/1.1/DTD/svg11.dtd">
<!-- Generated by graphviz version 2.43.0 (0)
 -->
<!-- Title: %3 Pages: 1 -->
<svg width="571pt" height="1550pt"
 viewBox="0.00 0.00 571.26 1549.51" xmlns="http://www.w3.org/2000/svg" xmlns:xlink="http://www.w3.org/1999/xlink">
<g id="graph0" class="graph" transform="scale(1 1) rotate(0) translate(4 1545.51)">
<title>%3</title>
<polygon fill="white" stroke="transparent" points="-4,4 -4,-1545.51 567.26,-1545.51 567.26,4 -4,4"/>
<!-- ready -->
<g id="node1" class="node">
<title>ready</title>
<polygon fill="yellow" stroke="black" points="385.85,-1541.51 342.85,-1541.51 342.85,-1523.51 385.85,-1523.51 385.85,-1541.51"/>
<text text-anchor="middle" x="364.35" y="-1530.31" font-family="Times,serif" font-size="9.00">ready</text>
</g>
<!-- key 169473
bias 0.000
h_scaling 0.993 -->
<g id="node4" class="node">
<title>key 169473
bias 0.000
h_scaling 0.993</title>
<ellipse fill="white" stroke="black" cx="423.35" cy="-1422.87" rx="63.78" ry="63.78"/>
<text text-anchor="middle" x="423.35" y="-1430.67" font-family="Times,serif" font-size="9.00">key 169473</text>
<text text-anchor="middle" x="423.35" y="-1420.67" font-family="Times,serif" font-size="9.00">bias 0.000</text>
<text text-anchor="middle" x="423.35" y="-1410.67" font-family="Times,serif" font-size="9.00">h_scaling 0.993</text>
</g>
<!-- ready&#45;&gt;key 169473
bias 0.000
h_scaling 0.993 -->
<g id="edge16" class="edge">
<title>ready&#45;&gt;key 169473
bias 0.000
h_scaling 0.993</title>
<path fill="none" stroke="blue" stroke-width="0.1" d="M368.79,-1523.42C373.2,-1515.37 380.43,-1502.18 388.2,-1488.01"/>
<polygon fill="blue" stroke="blue" stroke-width="0.1" points="391.35,-1489.54 393.09,-1479.09 385.21,-1486.18 391.35,-1489.54"/>
</g>
<!-- key 21177
bias 0.000
h_scaling 0.154 -->
<g id="node8" class="node">
<title>key 21177
bias 0.000
h_scaling 0.154</title>
<ellipse fill="white" stroke="black" cx="258.35" cy="-1249.59" rx="63.78" ry="63.78"/>
<text text-anchor="middle" x="258.35" y="-1257.39" font-family="Times,serif" font-size="9.00">key 21177</text>
<text text-anchor="middle" x="258.35" y="-1247.39" font-family="Times,serif" font-size="9.00">bias 0.000</text>
<text text-anchor="middle" x="258.35" y="-1237.39" font-family="Times,serif" font-size="9.00">h_scaling 0.154</text>
</g>
<!-- ready&#45;&gt;key 21177
bias 0.000
h_scaling 0.154 -->
<g id="edge20" class="edge">
<title>ready&#45;&gt;key 21177
bias 0.000
h_scaling 0.154</title>
<path fill="none" stroke="red" stroke-width="0.54" d="M354.21,-1523.26C344.64,-1514.95 330.56,-1501.27 322.35,-1486.51 294.03,-1435.62 277.68,-1371.5 268.61,-1322.95"/>
<polygon fill="red" stroke="red" stroke-width="0.54" points="272,-1322.05 266.78,-1312.84 265.11,-1323.3 272,-1322.05"/>
<text text-anchor="middle" x="336.35" y="-1420.67" font-family="Times,serif" font-size="9.00">0.015</text>
</g>
<!-- key 173659
bias 0.000
h_scaling 0.452 -->
<g id="node10" class="node">
<title>key 173659
bias 0.000
h_scaling 0.452</title>
<ellipse fill="white" stroke="black" cx="290.35" cy="-747.76" rx="63.78" ry="63.78"/>
<text text-anchor="middle" x="290.35" y="-755.56" font-family="Times,serif" font-size="9.00">key 173659</text>
<text text-anchor="middle" x="290.35" y="-745.56" font-family="Times,serif" font-size="9.00">bias 0.000</text>
<text text-anchor="middle" x="290.35" y="-735.56" font-family="Times,serif" font-size="9.00">h_scaling 0.452</text>
</g>
<!-- ready&#45;&gt;key 173659
bias 0.000
h_scaling 0.452 -->
<g id="edge26" class="edge">
<title>ready&#45;&gt;key 173659
bias 0.000
h_scaling 0.452</title>
<path fill="none" stroke="red" stroke-width="0.58" d="M342.67,-1531.16C285.64,-1529.75 133.65,-1522.6 102.35,-1486.51 -84.46,-1271.12 13.58,-1087.85 168.35,-848.4 169.58,-846.5 202.12,-819.95 233.28,-794.74"/>
<polygon fill="red" stroke="red" stroke-width="0.58" points="235.57,-797.39 241.15,-788.38 231.17,-791.94 235.57,-797.39"/>
<text text-anchor="middle" x="25.35" y="-1160.75" font-family="Times,serif" font-size="9.00">0.016</text>
</g>
<!-- key 166012
bias 0.000
h_scaling 0.989 -->
<g id="node11" class="node">
<title>key 166012
bias 0.000
h_scaling 0.989</title>
<ellipse fill="white" stroke="black" cx="449.35" cy="-1249.59" rx="63.78" ry="63.78"/>
<text text-anchor="middle" x="449.35" y="-1257.39" font-family="Times,serif" font-size="9.00">key 166012</text>
<text text-anchor="middle" x="449.35" y="-1247.39" font-family="Times,serif" font-size="9.00">bias 0.000</text>
<text text-anchor="middle" x="449.35" y="-1237.39" font-family="Times,serif" font-size="9.00">h_scaling 0.989</text>
</g>
<!-- ready&#45;&gt;key 166012
bias 0.000
h_scaling 0.989 -->
<g id="edge10" class="edge">
<title>ready&#45;&gt;key 166012
bias 0.000
h_scaling 0.989</title>
<path fill="none" stroke="blue" stroke-width="0.1" d="M385.94,-1529.32C429.02,-1524.44 523.16,-1511.16 542.35,-1486.51 577.11,-1441.88 561.96,-1412.29 542.35,-1359.23 534.25,-1337.32 519.55,-1316.84 504.18,-1299.7"/>
<polygon fill="blue" stroke="blue" stroke-width="0.1" points="506.46,-1297.01 497.1,-1292.07 501.33,-1301.78 506.46,-1297.01"/>
</g>
<!-- go -->
<g id="node2" class="node">
<title>go</title>
<polygon fill="green" stroke="black" points="139.35,-1431.87 111.35,-1431.87 111.35,-1413.87 139.35,-1413.87 139.35,-1431.87"/>
<text text-anchor="middle" x="125.35" y="-1420.67" font-family="Times,serif" font-size="9.00">go</text>
</g>
<!-- key 247303
bias 0.000
h_scaling 0.104 -->
<g id="node5" class="node">
<title>key 247303
bias 0.000
h_scaling 0.104</title>
<ellipse fill="white" stroke="black" cx="128.35" cy="-63.64" rx="63.78" ry="63.78"/>
<text text-anchor="middle" x="128.35" y="-71.44" font-family="Times,serif" font-size="9.00">key 247303</text>
<text text-anchor="middle" x="128.35" y="-61.44" font-family="Times,serif" font-size="9.00">bias 0.000</text>
<text text-anchor="middle" x="128.35" y="-51.44" font-family="Times,serif" font-size="9.00">h_scaling 0.104</text>
</g>
<!-- go&#45;&gt;key 247303
bias 0.000
h_scaling 0.104 -->
<g id="edge17" class="edge">
<title>go&#45;&gt;key 247303
bias 0.000
h_scaling 0.104</title>
<path fill="none" stroke="red" stroke-width="0.34" d="M121.94,-1413.73C109.04,-1382.53 62.93,-1267.42 42.35,-1167.95 26.68,-1092.22 26.35,-1072.02 26.35,-994.68 26.35,-994.68 26.35,-994.68 26.35,-235.92 26.35,-191.73 51.73,-149.01 77.16,-117.29"/>
<polygon fill="red" stroke="red" stroke-width="0.34" points="79.95,-119.41 83.61,-109.47 74.55,-114.96 79.95,-119.41"/>
<text text-anchor="middle" x="40.35" y="-745.56" font-family="Times,serif" font-size="9.00">0.008</text>
</g>
<!-- go&#45;&gt;key 21177
bias 0.000
h_scaling 0.154 -->
<g id="edge6" class="edge">
<title>go&#45;&gt;key 21177
bias 0.000
h_scaling 0.154</title>
<path fill="none" stroke="blue" stroke-width="0.1" d="M131.77,-1413.61C146.35,-1394.83 183.06,-1347.56 213.21,-1308.73"/>
<polygon fill="blue" stroke="blue" stroke-width="0.1" points="216.17,-1310.63 219.53,-1300.58 210.64,-1306.34 216.17,-1310.63"/>
</g>
<!-- go&#45;&gt;key 173659
bias 0.000
h_scaling 0.452 -->
<g id="edge24" class="edge">
<title>go&#45;&gt;key 173659
bias 0.000
h_scaling 0.452</title>
<path fill="none" stroke="red" stroke-width="0.61" d="M124.62,-1413.69C122.06,-1383.4 114.1,-1274.77 123.35,-1185.95 131.48,-1107.9 131.9,-1086.92 157.35,-1012.68 182.05,-940.64 222.81,-863.43 252.71,-811.25"/>
<polygon fill="red" stroke="red" stroke-width="0.61" points="255.82,-812.86 257.79,-802.45 249.76,-809.36 255.82,-812.86"/>
<text text-anchor="middle" x="171.35" y="-1074.11" font-family="Times,serif" font-size="9.00">0.017</text>
</g>
<!-- key 17343
bias 0.000
h_scaling 0.531 -->
<g id="node12" class="node">
<title>key 17343
bias 0.000
h_scaling 0.531</title>
<ellipse fill="white" stroke="black" cx="258.35" cy="-1076.31" rx="63.78" ry="63.78"/>
<text text-anchor="middle" x="258.35" y="-1084.11" font-family="Times,serif" font-size="9.00">key 17343</text>
<text text-anchor="middle" x="258.35" y="-1074.11" font-family="Times,serif" font-size="9.00">bias 0.000</text>
<text text-anchor="middle" x="258.35" y="-1064.11" font-family="Times,serif" font-size="9.00">h_scaling 0.531</text>
</g>
<!-- go&#45;&gt;key 17343
bias 0.000
h_scaling 0.531 -->
<g id="edge2" class="edge">
<title>go&#45;&gt;key 17343
bias 0.000
h_scaling 0.531</title>
<path fill="none" stroke="red" stroke-width="0.58" d="M124.74,-1413.64C122.74,-1382.26 118.64,-1267.78 157.35,-1185.95 168.05,-1163.34 185.17,-1142.25 202.29,-1124.78"/>
<polygon fill="red" stroke="red" stroke-width="0.58" points="204.98,-1127.05 209.62,-1117.52 200.05,-1122.08 204.98,-1127.05"/>
<text text-anchor="middle" x="171.35" y="-1247.39" font-family="Times,serif" font-size="9.00">0.016</text>
</g>
<!-- output
bias 0.000
h_scaling 0.998 -->
<g id="node3" class="node">
<title>output
bias 0.000
h_scaling 0.998</title>
<ellipse fill="lightblue" stroke="black" cx="368.35" cy="-912.04" rx="63.78" ry="63.78"/>
<text text-anchor="middle" x="368.35" y="-919.84" font-family="Times,serif" font-size="9.00">output</text>
<text text-anchor="middle" x="368.35" y="-909.84" font-family="Times,serif" font-size="9.00">bias 0.000</text>
<text text-anchor="middle" x="368.35" y="-899.84" font-family="Times,serif" font-size="9.00">h_scaling 0.998</text>
</g>
<!-- output
bias 0.000
h_scaling 0.998&#45;&gt;key 173659
bias 0.000
h_scaling 0.452 -->
<g id="edge12" class="edge">
<title>output
bias 0.000
h_scaling 0.998&#45;&gt;key 173659
bias 0.000
h_scaling 0.452</title>
<path fill="none" stroke="blue" stroke-width="0.1" d="M341.07,-854.28C334.9,-841.43 328.29,-827.68 321.95,-814.5"/>
<polygon fill="blue" stroke="blue" stroke-width="0.1" points="325.1,-812.98 317.62,-805.48 318.8,-816.01 325.1,-812.98"/>
</g>
<!-- key 169473
bias 0.000
h_scaling 0.993&#45;&gt;key 169473
bias 0.000
h_scaling 0.993 -->
<g id="edge21" class="edge">
<title>key 169473
bias 0.000
h_scaling 0.993&#45;&gt;key 169473
bias 0.000
h_scaling 0.993</title>
<path fill="none" stroke="red" stroke-width="0.91" d="M485.64,-1437.4C497.02,-1435.56 504.99,-1430.72 504.99,-1422.87 504.99,-1417.6 501.39,-1413.68 495.58,-1411.12"/>
<polygon fill="red" stroke="red" stroke-width="0.91" points="496.22,-1407.67 485.64,-1408.34 494.33,-1414.41 496.22,-1407.67"/>
<text text-anchor="middle" x="518.99" y="-1420.67" font-family="Times,serif" font-size="9.00">0.027</text>
</g>
<!-- key 169473
bias 0.000
h_scaling 0.993&#45;&gt;key 21177
bias 0.000
h_scaling 0.154 -->
<g id="edge22" class="edge">
<title>key 169473
bias 0.000
h_scaling 0.993&#45;&gt;key 21177
bias 0.000
h_scaling 0.154</title>
<path fill="none" stroke="blue" stroke-width="0.1" d="M379.57,-1376.42C357.95,-1353.98 331.73,-1326.77 309.22,-1303.4"/>
<polygon fill="blue" stroke="blue" stroke-width="0.1" points="311.51,-1300.73 302.05,-1295.96 306.47,-1305.59 311.51,-1300.73"/>
</g>
<!-- key 169473
bias 0.000
h_scaling 0.993&#45;&gt;key 173659
bias 0.000
h_scaling 0.452 -->
<g id="edge23" class="edge">
<title>key 169473
bias 0.000
h_scaling 0.993&#45;&gt;key 173659
bias 0.000
h_scaling 0.452</title>
<path fill="none" stroke="blue" stroke-width="0.1" d="M470.77,-1379.83C503.64,-1348.45 541.35,-1302.23 541.35,-1250.59 541.35,-1250.59 541.35,-1250.59 541.35,-911.04 541.35,-824.72 436.96,-782.64 362.76,-763.38"/>
<polygon fill="blue" stroke="blue" stroke-width="0.1" points="363.51,-759.96 352.96,-760.93 361.81,-766.75 363.51,-759.96"/>
</g>
<!-- key 169473
bias 0.000
h_scaling 0.993&#45;&gt;key 166012
bias 0.000
h_scaling 0.989 -->
<g id="edge9" class="edge">
<title>key 169473
bias 0.000
h_scaling 0.993&#45;&gt;key 166012
bias 0.000
h_scaling 0.989</title>
<path fill="none" stroke="red" stroke-width="0.8" d="M436.13,-1360.33C437.3,-1353.9 438.4,-1347.44 439.35,-1341.23 440.25,-1335.42 441.09,-1329.38 441.89,-1323.31"/>
<polygon fill="red" stroke="red" stroke-width="0.8" points="445.4,-1323.46 443.17,-1313.1 438.45,-1322.58 445.4,-1323.46"/>
<text text-anchor="middle" x="454.35" y="-1334.03" font-family="Times,serif" font-size="9.00">0.023</text>
</g>
<!-- key 247303
bias 0.000
h_scaling 0.104&#45;&gt;output
bias 0.000
h_scaling 0.998 -->
<g id="edge15" class="edge">
<title>key 247303
bias 0.000
h_scaling 0.104&#45;&gt;output
bias 0.000
h_scaling 0.998</title>
<path fill="none" stroke="blue" stroke-width="0.1" d="M190.49,-77.79C265.68,-97.77 382.35,-143.64 382.35,-235.92 382.35,-748.76 382.35,-748.76 382.35,-748.76 382.35,-778.22 380.03,-810.59 377.28,-838.61"/>
<polygon fill="blue" stroke="blue" stroke-width="0.1" points="373.78,-838.42 376.25,-848.72 380.75,-839.13 373.78,-838.42"/>
</g>
<!-- key 378634
bias 0.000
h_scaling 0.738 -->
<g id="node6" class="node">
<title>key 378634
bias 0.000
h_scaling 0.738</title>
<ellipse fill="white" stroke="black" cx="180.35" cy="-410.2" rx="63.78" ry="63.78"/>
<text text-anchor="middle" x="180.35" y="-418" font-family="Times,serif" font-size="9.00">key 378634</text>
<text text-anchor="middle" x="180.35" y="-408" font-family="Times,serif" font-size="9.00">bias 0.000</text>
<text text-anchor="middle" x="180.35" y="-398" font-family="Times,serif" font-size="9.00">h_scaling 0.738</text>
</g>
<!-- key 353964
bias 0.000
h_scaling 0.708 -->
<g id="node7" class="node">
<title>key 353964
bias 0.000
h_scaling 0.708</title>
<ellipse fill="white" stroke="black" cx="177.35" cy="-236.92" rx="63.78" ry="63.78"/>
<text text-anchor="middle" x="177.35" y="-244.72" font-family="Times,serif" font-size="9.00">key 353964</text>
<text text-anchor="middle" x="177.35" y="-234.72" font-family="Times,serif" font-size="9.00">bias 0.000</text>
<text text-anchor="middle" x="177.35" y="-224.72" font-family="Times,serif" font-size="9.00">h_scaling 0.708</text>
</g>
<!-- key 378634
bias 0.000
h_scaling 0.738&#45;&gt;key 353964
bias 0.000
h_scaling 0.708 -->
<g id="edge29" class="edge">
<title>key 378634
bias 0.000
h_scaling 0.738&#45;&gt;key 353964
bias 0.000
h_scaling 0.708</title>
<path fill="none" stroke="red" stroke-width="0.87" d="M179.25,-346.39C179.05,-334.87 178.84,-322.76 178.63,-310.97"/>
<polygon fill="red" stroke="red" stroke-width="0.87" points="182.13,-310.65 178.45,-300.72 175.13,-310.78 182.13,-310.65"/>
<text text-anchor="middle" x="193.35" y="-321.36" font-family="Times,serif" font-size="9.00">0.026</text>
</g>
<!-- key 353964
bias 0.000
h_scaling 0.708&#45;&gt;key 247303
bias 0.000
h_scaling 0.104 -->
<g id="edge25" class="edge">
<title>key 353964
bias 0.000
h_scaling 0.708&#45;&gt;key 247303
bias 0.000
h_scaling 0.104</title>
<path fill="none" stroke="red" stroke-width="0.79" d="M160.08,-175.53C156.31,-162.36 152.29,-148.31 148.42,-134.79"/>
<polygon fill="red" stroke="red" stroke-width="0.79" points="151.75,-133.71 145.64,-125.06 145.02,-135.64 151.75,-133.71"/>
<text text-anchor="middle" x="167.35" y="-148.08" font-family="Times,serif" font-size="9.00">0.023</text>
</g>
<!-- key 21177
bias 0.000
h_scaling 0.154&#45;&gt;output
bias 0.000
h_scaling 0.998 -->
<g id="edge5" class="edge">
<title>key 21177
bias 0.000
h_scaling 0.154&#45;&gt;output
bias 0.000
h_scaling 0.998</title>
<path fill="none" stroke="red" stroke-width="0.16" d="M297.9,-1199.46C310.42,-1181.65 323.12,-1160.77 331.35,-1139.95 350.87,-1090.61 360.09,-1031.32 364.45,-985.72"/>
<polygon fill="red" stroke="red" stroke-width="0.16" points="367.95,-985.89 365.36,-975.62 360.98,-985.26 367.95,-985.89"/>
<text text-anchor="middle" x="374.35" y="-1074.11" font-family="Times,serif" font-size="9.00">0.002</text>
</g>
<!-- key 21177
bias 0.000
h_scaling 0.154&#45;&gt;key 247303
bias 0.000
h_scaling 0.104 -->
<g id="edge18" class="edge">
<title>key 21177
bias 0.000
h_scaling 0.154&#45;&gt;key 247303
bias 0.000
h_scaling 0.104</title>
<path fill="none" stroke="blue" stroke-width="0.1" d="M219.42,-1199.21C206.96,-1181.37 194.13,-1160.55 185.35,-1139.95 174.79,-1115.17 82.35,-693.06 82.35,-666.12 82.35,-666.12 82.35,-666.12 82.35,-235.92 82.35,-201.19 91.28,-163.81 101.27,-132.87"/>
<polygon fill="blue" stroke="blue" stroke-width="0.1" points="104.7,-133.65 104.54,-123.06 98.06,-131.43 104.7,-133.65"/>
</g>
<!-- key 21177
bias 0.000
h_scaling 0.154&#45;&gt;key 21177
bias 0.000
h_scaling 0.154 -->
<g id="edge4" class="edge">
<title>key 21177
bias 0.000
h_scaling 0.154&#45;&gt;key 21177
bias 0.000
h_scaling 0.154</title>
<path fill="none" stroke="red" stroke-width="0.83" d="M320.3,-1264.89C331.85,-1263.01 339.99,-1257.91 339.99,-1249.59 339.99,-1243.88 336.14,-1239.68 329.98,-1237"/>
<polygon fill="red" stroke="red" stroke-width="0.83" points="330.87,-1233.62 320.3,-1234.3 328.98,-1240.36 330.87,-1233.62"/>
<text text-anchor="middle" x="353.99" y="-1247.39" font-family="Times,serif" font-size="9.00">0.024</text>
</g>
<!-- key 21177
bias 0.000
h_scaling 0.154&#45;&gt;key 17343
bias 0.000
h_scaling 0.531 -->
<g id="edge7" class="edge">
<title>key 21177
bias 0.000
h_scaling 0.154&#45;&gt;key 17343
bias 0.000
h_scaling 0.531</title>
<path fill="none" stroke="blue" stroke-width="0.1" d="M251.83,-1186.27C251.59,-1174.47 251.54,-1162.02 251.67,-1149.93"/>
<polygon fill="blue" stroke="blue" stroke-width="0.1" points="255.17,-1149.93 251.83,-1139.88 248.17,-1149.82 255.17,-1149.93"/>
</g>
<!-- key 374042
bias 0.000
h_scaling 0.980 -->
<g id="node9" class="node">
<title>key 374042
bias 0.000
h_scaling 0.980</title>
<ellipse fill="white" stroke="black" cx="281.35" cy="-583.48" rx="63.78" ry="63.78"/>
<text text-anchor="middle" x="281.35" y="-591.28" font-family="Times,serif" font-size="9.00">key 374042</text>
<text text-anchor="middle" x="281.35" y="-581.28" font-family="Times,serif" font-size="9.00">bias 0.000</text>
<text text-anchor="middle" x="281.35" y="-571.28" font-family="Times,serif" font-size="9.00">h_scaling 0.980</text>
</g>
<!-- key 374042
bias 0.000
h_scaling 0.980&#45;&gt;key 378634
bias 0.000
h_scaling 0.738 -->
<g id="edge28" class="edge">
<title>key 374042
bias 0.000
h_scaling 0.980&#45;&gt;key 378634
bias 0.000
h_scaling 0.738</title>
<path fill="none" stroke="red" stroke-width="0.28" d="M249.4,-528.28C239.21,-511.02 227.86,-491.77 217.36,-473.95"/>
<polygon fill="red" stroke="red" stroke-width="0.28" points="220.37,-472.17 212.27,-465.33 214.34,-475.72 220.37,-472.17"/>
<text text-anchor="middle" x="245.35" y="-494.64" font-family="Times,serif" font-size="9.00">0.006</text>
</g>
<!-- key 173659
bias 0.000
h_scaling 0.452&#45;&gt;key 169473
bias 0.000
h_scaling 0.993 -->
<g id="edge11" class="edge">
<title>key 173659
bias 0.000
h_scaling 0.452&#45;&gt;key 169473
bias 0.000
h_scaling 0.993</title>
<path fill="none" stroke="blue" stroke-width="0.1" d="M353.36,-758.26C432.95,-774.63 559.35,-816.06 559.35,-911.04 559.35,-1250.59 559.35,-1250.59 559.35,-1250.59 559.35,-1302.95 520.59,-1349.74 484.37,-1381.13"/>
<polygon fill="blue" stroke="blue" stroke-width="0.1" points="482.09,-1378.47 476.7,-1387.59 486.6,-1383.83 482.09,-1378.47"/>
</g>
<!-- key 173659
bias 0.000
h_scaling 0.452&#45;&gt;key 374042
bias 0.000
h_scaling 0.980 -->
<g id="edge27" class="edge">
<title>key 173659
bias 0.000
h_scaling 0.452&#45;&gt;key 374042
bias 0.000
h_scaling 0.980</title>
<path fill="none" stroke="blue" stroke-width="0.1" d="M286.87,-684.02C286.38,-675.2 285.88,-666.08 285.38,-657.1"/>
<polygon fill="blue" stroke="blue" stroke-width="0.1" points="288.87,-656.84 284.82,-647.05 281.88,-657.23 288.87,-656.84"/>
</g>
<!-- key 166012
bias 0.000
h_scaling 0.989&#45;&gt;output
bias 0.000
h_scaling 0.998 -->
<g id="edge19" class="edge">
<title>key 166012
bias 0.000
h_scaling 0.989&#45;&gt;output
bias 0.000
h_scaling 0.998</title>
<path fill="none" stroke="blue" stroke-width="0.1" d="M435.55,-1187.39C424.68,-1139.7 408.98,-1071.88 394.35,-1012.68 392.02,-1003.24 389.51,-993.31 386.99,-983.54"/>
<polygon fill="blue" stroke="blue" stroke-width="0.1" points="390.38,-982.64 384.49,-973.83 383.6,-984.39 390.38,-982.64"/>
</g>
<!-- key 166012
bias 0.000
h_scaling 0.989&#45;&gt;key 169473
bias 0.000
h_scaling 0.993 -->
<g id="edge13" class="edge">
<title>key 166012
bias 0.000
h_scaling 0.989&#45;&gt;key 169473
bias 0.000
h_scaling 0.993</title>
<path fill="none" stroke="red" stroke-width="0.8" d="M416.75,-1304.73C412.88,-1313.34 409.53,-1322.34 407.35,-1331.23 405.74,-1337.8 405.11,-1344.68 405.16,-1351.58"/>
<polygon fill="red" stroke="red" stroke-width="0.8" points="401.67,-1351.88 405.7,-1361.67 408.66,-1351.5 401.67,-1351.88"/>
<text text-anchor="middle" x="421.35" y="-1334.03" font-family="Times,serif" font-size="9.00">0.023</text>
</g>
<!-- key 166012
bias 0.000
h_scaling 0.989&#45;&gt;key 17343
bias 0.000
h_scaling 0.531 -->
<g id="edge8" class="edge">
<title>key 166012
bias 0.000
h_scaling 0.989&#45;&gt;key 17343
bias 0.000
h_scaling 0.531</title>
<path fill="none" stroke="red" stroke-width="0.57" d="M402.14,-1206.26C375.18,-1182.08 341.25,-1151.65 313.12,-1126.43"/>
<polygon fill="red" stroke="red" stroke-width="0.57" points="315.14,-1123.53 305.35,-1119.46 310.46,-1128.75 315.14,-1123.53"/>
<text text-anchor="middle" x="367.35" y="-1160.75" font-family="Times,serif" font-size="9.00">0.016</text>
</g>
<!-- key 17343
bias 0.000
h_scaling 0.531&#45;&gt;output
bias 0.000
h_scaling 0.998 -->
<g id="edge1" class="edge">
<title>key 17343
bias 0.000
h_scaling 0.531&#45;&gt;output
bias 0.000
h_scaling 0.998</title>
<path fill="none" stroke="blue" stroke-width="0.1" d="M293.76,-1023.08C304.46,-1007.3 316.29,-989.84 327.32,-973.56"/>
<polygon fill="blue" stroke="blue" stroke-width="0.1" points="330.29,-975.42 333.01,-965.18 324.5,-971.49 330.29,-975.42"/>
</g>
<!-- key 17343
bias 0.000
h_scaling 0.531&#45;&gt;key 378634
bias 0.000
h_scaling 0.738 -->
<g id="edge30" class="edge">
<title>key 17343
bias 0.000
h_scaling 0.531&#45;&gt;key 378634
bias 0.000
h_scaling 0.738</title>
<path fill="none" stroke="red" stroke-width="0.43" d="M220.04,-1025.25C200.31,-994.57 180.35,-953.52 180.35,-913.04 180.35,-913.04 180.35,-913.04 180.35,-582.48 180.35,-550.15 180.35,-514.39 180.35,-483.95"/>
<polygon fill="red" stroke="red" stroke-width="0.43" points="183.85,-483.84 180.35,-473.84 176.85,-483.84 183.85,-483.84"/>
<text text-anchor="middle" x="194.35" y="-745.56" font-family="Times,serif" font-size="9.00">0.011</text>
</g>
<!-- key 17343
bias 0.000
h_scaling 0.531&#45;&gt;key 21177
bias 0.000
h_scaling 0.154 -->
<g id="edge3" class="edge">
<title>key 17343
bias 0.000
h_scaling 0.531&#45;&gt;key 21177
bias 0.000
h_scaling 0.154</title>
<path fill="none" stroke="blue" stroke-width="0.1" d="M264.88,-1139.88C265.11,-1151.69 265.16,-1164.14 265.03,-1176.23"/>
<polygon fill="blue" stroke="blue" stroke-width="0.1" points="261.53,-1176.22 264.88,-1186.27 268.53,-1176.33 261.53,-1176.22"/>
</g>
<!-- key 17343
bias 0.000
h_scaling 0.531&#45;&gt;key 173659
bias 0.000
h_scaling 0.452 -->
<g id="edge14" class="edge">
<title>key 17343
bias 0.000
h_scaling 0.531&#45;&gt;key 173659
bias 0.000
h_scaling 0.452</title>
<path fill="none" stroke="red" stroke-width="0.72" d="M257.7,-1012.44C257.99,-966.74 259.97,-903.49 267.35,-848.4 268.61,-838.99 270.35,-829.17 272.31,-819.52"/>
<polygon fill="red" stroke="red" stroke-width="0.72" points="275.77,-820.06 274.42,-809.55 268.92,-818.61 275.77,-820.06"/>
<text text-anchor="middle" x="281.35" y="-909.84" font-family="Times,serif" font-size="9.00">0.021</text>
</g>
</g>
</svg>
