<?xml version="1.0" encoding="UTF-8" standalone="no"?>
<!DOCTYPE svg PUBLIC "-//W3C//DTD SVG 1.1//EN"
 "http://www.w3.org/Graphics/SVG/1.1/DTD/svg11.dtd">
<!-- Generated by graphviz version 2.43.0 (0)
 -->
<!-- Title: %3 Pages: 1 -->
<svg width="632pt" height="1586pt"
 viewBox="0.00 0.00 632.00 1585.51" xmlns="http://www.w3.org/2000/svg" xmlns:xlink="http://www.w3.org/1999/xlink">
<g id="graph0" class="graph" transform="scale(1 1) rotate(0) translate(4 1581.51)">
<title>%3</title>
<polygon fill="white" stroke="transparent" points="-4,4 -4,-1581.51 628,-1581.51 628,4 -4,4"/>
<!-- ready -->
<g id="node1" class="node">
<title>ready</title>
<polygon fill="yellow" stroke="black" points="312.5,-1577.51 269.5,-1577.51 269.5,-1559.51 312.5,-1559.51 312.5,-1577.51"/>
<text text-anchor="middle" x="291" y="-1566.31" font-family="Times,serif" font-size="9.00">ready</text>
</g>
<!-- key 169473
bias 0.000
h_scaling 0.993 -->
<g id="node4" class="node">
<title>key 169473
bias 0.000
h_scaling 0.993</title>
<ellipse fill="white" stroke="black" cx="182" cy="-1449.87" rx="63.78" ry="63.78"/>
<text text-anchor="middle" x="182" y="-1457.67" font-family="Times,serif" font-size="9.00">key 169473</text>
<text text-anchor="middle" x="182" y="-1447.67" font-family="Times,serif" font-size="9.00">bias 0.000</text>
<text text-anchor="middle" x="182" y="-1437.67" font-family="Times,serif" font-size="9.00">h_scaling 0.993</text>
</g>
<!-- ready&#45;&gt;key 169473
bias 0.000
h_scaling 0.993 -->
<g id="edge16" class="edge">
<title>ready&#45;&gt;key 169473
bias 0.000
h_scaling 0.993</title>
<path fill="none" stroke="blue" stroke-width="2.8" d="M283.51,-1559.5C272.75,-1547.99 252.03,-1525.81 232.09,-1504.48"/>
<polygon fill="blue" stroke="blue" stroke-width="2.8" points="234.48,-1501.9 225.09,-1496.99 229.36,-1506.68 234.48,-1501.9"/>
<text text-anchor="middle" x="280.5" y="-1534.31" font-family="Times,serif" font-size="9.00">&#45;0.901</text>
</g>
<!-- key 21177
bias 0.000
h_scaling 0.154 -->
<g id="node8" class="node">
<title>key 21177
bias 0.000
h_scaling 0.154</title>
<ellipse fill="white" stroke="black" cx="301" cy="-1276.59" rx="63.78" ry="63.78"/>
<text text-anchor="middle" x="301" y="-1284.39" font-family="Times,serif" font-size="9.00">key 21177</text>
<text text-anchor="middle" x="301" y="-1274.39" font-family="Times,serif" font-size="9.00">bias 0.000</text>
<text text-anchor="middle" x="301" y="-1264.39" font-family="Times,serif" font-size="9.00">h_scaling 0.154</text>
</g>
<!-- ready&#45;&gt;key 21177
bias 0.000
h_scaling 0.154 -->
<g id="edge20" class="edge">
<title>ready&#45;&gt;key 21177
bias 0.000
h_scaling 0.154</title>
<path fill="none" stroke="red" stroke-width="0.73" d="M294.48,-1559.48C296.49,-1554.43 298.84,-1547.71 300,-1541.51 302.28,-1529.27 300.78,-1525.96 301,-1513.51 301.97,-1458.96 301.93,-1397.29 301.67,-1350.69"/>
<polygon fill="red" stroke="red" stroke-width="0.73" points="305.17,-1350.66 301.61,-1340.68 298.17,-1350.7 305.17,-1350.66"/>
<text text-anchor="middle" x="316" y="-1447.67" font-family="Times,serif" font-size="9.00">0.210</text>
</g>
<!-- key 173659
bias 0.000
h_scaling 0.452 -->
<g id="node10" class="node">
<title>key 173659
bias 0.000
h_scaling 0.452</title>
<ellipse fill="white" stroke="black" cx="264" cy="-756.76" rx="63.78" ry="63.78"/>
<text text-anchor="middle" x="264" y="-764.56" font-family="Times,serif" font-size="9.00">key 173659</text>
<text text-anchor="middle" x="264" y="-754.56" font-family="Times,serif" font-size="9.00">bias 0.000</text>
<text text-anchor="middle" x="264" y="-744.56" font-family="Times,serif" font-size="9.00">h_scaling 0.452</text>
</g>
<!-- ready&#45;&gt;key 173659
bias 0.000
h_scaling 0.452 -->
<g id="edge26" class="edge">
<title>ready&#45;&gt;key 173659
bias 0.000
h_scaling 0.452</title>
<path fill="none" stroke="red" stroke-width="0.81" d="M312.93,-1564.02C382.87,-1552.28 596,-1511.53 596,-1450.87 596,-1450.87 596,-1450.87 596,-1015.68 596,-873.28 461.87,-897.25 342,-820.4 334.75,-815.75 327.38,-810.55 320.21,-805.19"/>
<polygon fill="red" stroke="red" stroke-width="0.81" points="321.98,-802.13 311.91,-798.84 317.73,-807.7 321.98,-802.13"/>
<text text-anchor="middle" x="610" y="-1187.75" font-family="Times,serif" font-size="9.00">0.237</text>
</g>
<!-- key 166012
bias 0.000
h_scaling 0.989 -->
<g id="node11" class="node">
<title>key 166012
bias 0.000
h_scaling 0.989</title>
<ellipse fill="white" stroke="black" cx="117" cy="-1276.59" rx="63.78" ry="63.78"/>
<text text-anchor="middle" x="117" y="-1284.39" font-family="Times,serif" font-size="9.00">key 166012</text>
<text text-anchor="middle" x="117" y="-1274.39" font-family="Times,serif" font-size="9.00">bias 0.000</text>
<text text-anchor="middle" x="117" y="-1264.39" font-family="Times,serif" font-size="9.00">h_scaling 0.989</text>
</g>
<!-- ready&#45;&gt;key 166012
bias 0.000
h_scaling 0.989 -->
<g id="edge10" class="edge">
<title>ready&#45;&gt;key 166012
bias 0.000
h_scaling 0.989</title>
<path fill="none" stroke="blue" stroke-width="2.71" d="M269.36,-1565.34C220.01,-1559.88 101.6,-1543.85 78,-1513.51 40.2,-1464.93 59.27,-1393.49 82.01,-1341.96"/>
<polygon fill="blue" stroke="blue" stroke-width="2.71" points="85.32,-1343.13 86.29,-1332.58 78.96,-1340.22 85.32,-1343.13"/>
<text text-anchor="middle" x="93.5" y="-1447.67" font-family="Times,serif" font-size="9.00">&#45;0.871</text>
</g>
<!-- go -->
<g id="node2" class="node">
<title>go</title>
<polygon fill="green" stroke="black" points="489,-1458.87 461,-1458.87 461,-1440.87 489,-1440.87 489,-1458.87"/>
<text text-anchor="middle" x="475" y="-1447.67" font-family="Times,serif" font-size="9.00">go</text>
</g>
<!-- key 247303
bias 0.000
h_scaling 0.104 -->
<g id="node5" class="node">
<title>key 247303
bias 0.000
h_scaling 0.104</title>
<ellipse fill="white" stroke="black" cx="433" cy="-63.64" rx="63.78" ry="63.78"/>
<text text-anchor="middle" x="433" y="-71.44" font-family="Times,serif" font-size="9.00">key 247303</text>
<text text-anchor="middle" x="433" y="-61.44" font-family="Times,serif" font-size="9.00">bias 0.000</text>
<text text-anchor="middle" x="433" y="-51.44" font-family="Times,serif" font-size="9.00">h_scaling 0.104</text>
</g>
<!-- go&#45;&gt;key 247303
bias 0.000
h_scaling 0.104 -->
<g id="edge17" class="edge">
<title>go&#45;&gt;key 247303
bias 0.000
h_scaling 0.104</title>
<path fill="none" stroke="red" stroke-width="1.48" d="M480.19,-1440.66C498.36,-1411.59 558,-1313.45 558,-1277.59 558,-1277.59 558,-1277.59 558,-235.92 558,-186.29 523.34,-141.44 490.52,-110.09"/>
<polygon fill="red" stroke="red" stroke-width="1.48" points="492.83,-107.46 483.12,-103.21 488.06,-112.58 492.83,-107.46"/>
<text text-anchor="middle" x="572" y="-754.56" font-family="Times,serif" font-size="9.00">0.462</text>
</g>
<!-- go&#45;&gt;key 21177
bias 0.000
h_scaling 0.154 -->
<g id="edge6" class="edge">
<title>go&#45;&gt;key 21177
bias 0.000
h_scaling 0.154</title>
<path fill="none" stroke="blue" stroke-width="3.1" d="M466.61,-1440.61C446.44,-1420.76 393.89,-1369.04 353.35,-1329.13"/>
<polygon fill="blue" stroke="blue" stroke-width="3.1" points="355.77,-1326.6 346.19,-1322.08 350.86,-1331.58 355.77,-1326.6"/>
<text text-anchor="middle" x="403.5" y="-1361.03" font-family="Times,serif" font-size="9.00">&#45;1.000</text>
</g>
<!-- go&#45;&gt;key 173659
bias 0.000
h_scaling 0.452 -->
<g id="edge24" class="edge">
<title>go&#45;&gt;key 173659
bias 0.000
h_scaling 0.452</title>
<path fill="none" stroke="red" stroke-width="0.84" d="M477.02,-1440.69C487.74,-1395.51 535.12,-1172.85 470,-1011.68 436.93,-929.82 368.02,-853.71 319.01,-806.57"/>
<polygon fill="red" stroke="red" stroke-width="0.84" points="321.29,-803.91 311.63,-799.55 316.46,-808.98 321.29,-803.91"/>
<text text-anchor="middle" x="516" y="-1101.11" font-family="Times,serif" font-size="9.00">0.245</text>
</g>
<!-- key 17343
bias 0.000
h_scaling 0.531 -->
<g id="node12" class="node">
<title>key 17343
bias 0.000
h_scaling 0.531</title>
<ellipse fill="white" stroke="black" cx="359" cy="-1103.31" rx="63.78" ry="63.78"/>
<text text-anchor="middle" x="359" y="-1111.11" font-family="Times,serif" font-size="9.00">key 17343</text>
<text text-anchor="middle" x="359" y="-1101.11" font-family="Times,serif" font-size="9.00">bias 0.000</text>
<text text-anchor="middle" x="359" y="-1091.11" font-family="Times,serif" font-size="9.00">h_scaling 0.531</text>
</g>
<!-- go&#45;&gt;key 17343
bias 0.000
h_scaling 0.531 -->
<g id="edge2" class="edge">
<title>go&#45;&gt;key 17343
bias 0.000
h_scaling 0.531</title>
<path fill="none" stroke="red" stroke-width="3.02" d="M473.92,-1440.47C469.73,-1409.41 453.18,-1298.42 420,-1212.95 413.97,-1197.42 406.05,-1181.41 397.92,-1166.6"/>
<polygon fill="red" stroke="red" stroke-width="3.02" points="400.79,-1164.56 392.84,-1157.55 394.68,-1167.99 400.79,-1164.56"/>
<text text-anchor="middle" x="471" y="-1274.39" font-family="Times,serif" font-size="9.00">0.974</text>
</g>
<!-- output
bias 0.000
h_scaling 0.998 -->
<g id="node3" class="node">
<title>output
bias 0.000
h_scaling 0.998</title>
<ellipse fill="lightblue" stroke="black" cx="169" cy="-930.04" rx="63.78" ry="63.78"/>
<text text-anchor="middle" x="169" y="-937.84" font-family="Times,serif" font-size="9.00">output</text>
<text text-anchor="middle" x="169" y="-927.84" font-family="Times,serif" font-size="9.00">bias 0.000</text>
<text text-anchor="middle" x="169" y="-917.84" font-family="Times,serif" font-size="9.00">h_scaling 0.998</text>
</g>
<!-- output
bias 0.000
h_scaling 0.998&#45;&gt;key 173659
bias 0.000
h_scaling 0.452 -->
<g id="edge12" class="edge">
<title>output
bias 0.000
h_scaling 0.998&#45;&gt;key 173659
bias 0.000
h_scaling 0.452</title>
<path fill="none" stroke="blue" stroke-width="1.25" d="M197.57,-872.68C203.54,-861.26 209.88,-849.39 216,-838.4 219.25,-832.56 222.68,-826.53 226.17,-820.51"/>
<polygon fill="blue" stroke="blue" stroke-width="1.25" points="229.27,-822.13 231.29,-811.72 223.23,-818.6 229.27,-822.13"/>
<text text-anchor="middle" x="231.5" y="-841.2" font-family="Times,serif" font-size="9.00">&#45;0.383</text>
</g>
<!-- key 169473
bias 0.000
h_scaling 0.993&#45;&gt;key 169473
bias 0.000
h_scaling 0.993 -->
<g id="edge21" class="edge">
<title>key 169473
bias 0.000
h_scaling 0.993&#45;&gt;key 169473
bias 0.000
h_scaling 0.993</title>
<path fill="none" stroke="red" stroke-width="0.57" d="M243.94,-1465.17C255.5,-1463.29 263.64,-1458.19 263.64,-1449.87 263.64,-1444.16 259.79,-1439.96 253.63,-1437.28"/>
<polygon fill="red" stroke="red" stroke-width="0.57" points="254.52,-1433.9 243.94,-1434.58 252.63,-1440.64 254.52,-1433.9"/>
<text text-anchor="middle" x="277.64" y="-1447.67" font-family="Times,serif" font-size="9.00">0.158</text>
</g>
<!-- key 169473
bias 0.000
h_scaling 0.993&#45;&gt;key 21177
bias 0.000
h_scaling 0.154 -->
<g id="edge22" class="edge">
<title>key 169473
bias 0.000
h_scaling 0.993&#45;&gt;key 21177
bias 0.000
h_scaling 0.154</title>
<path fill="none" stroke="blue" stroke-width="0.62" d="M218.03,-1397.02C231.02,-1378.32 245.79,-1357.07 259.23,-1337.72"/>
<polygon fill="blue" stroke="blue" stroke-width="0.62" points="262.26,-1339.48 265.1,-1329.27 256.52,-1335.49 262.26,-1339.48"/>
<text text-anchor="middle" x="257.5" y="-1361.03" font-family="Times,serif" font-size="9.00">&#45;0.173</text>
</g>
<!-- key 169473
bias 0.000
h_scaling 0.993&#45;&gt;key 173659
bias 0.000
h_scaling 0.452 -->
<g id="edge23" class="edge">
<title>key 169473
bias 0.000
h_scaling 0.993&#45;&gt;key 173659
bias 0.000
h_scaling 0.452</title>
<path fill="none" stroke="blue" stroke-width="0.66" d="M136.05,-1405.44C128.51,-1398.82 120.65,-1392.21 113,-1386.23 83.94,-1363.56 65.97,-1369.83 44,-1340.23 26.66,-1316.88 25,-1306.69 25,-1277.59 25,-1277.59 25,-1277.59 25,-929.04 25,-845.66 122.27,-798.96 192.7,-776.07"/>
<polygon fill="blue" stroke="blue" stroke-width="0.66" points="193.97,-779.34 202.45,-772.99 191.86,-772.66 193.97,-779.34"/>
<text text-anchor="middle" x="40.5" y="-1101.11" font-family="Times,serif" font-size="9.00">&#45;0.186</text>
</g>
<!-- key 169473
bias 0.000
h_scaling 0.993&#45;&gt;key 166012
bias 0.000
h_scaling 0.989 -->
<g id="edge9" class="edge">
<title>key 169473
bias 0.000
h_scaling 0.993&#45;&gt;key 166012
bias 0.000
h_scaling 0.989</title>
<path fill="none" stroke="red" stroke-width="3.1" d="M136.85,-1404.54C128.32,-1393.55 120.62,-1381.18 116,-1368.23 113.97,-1362.54 112.57,-1356.51 111.65,-1350.37"/>
<polygon fill="red" stroke="red" stroke-width="3.1" points="115.09,-1349.57 110.56,-1339.99 108.13,-1350.31 115.09,-1349.57"/>
<text text-anchor="middle" x="130" y="-1361.03" font-family="Times,serif" font-size="9.00">1.000</text>
</g>
<!-- key 247303
bias 0.000
h_scaling 0.104&#45;&gt;output
bias 0.000
h_scaling 0.998 -->
<g id="edge15" class="edge">
<title>key 247303
bias 0.000
h_scaling 0.104&#45;&gt;output
bias 0.000
h_scaling 0.998</title>
<path fill="none" stroke="blue" stroke-width="3.08" d="M370.5,-75.84C250.59,-99.13 0,-157.2 0,-235.92 0,-757.76 0,-757.76 0,-757.76 0,-819.3 55.97,-866.74 103.5,-895.92"/>
<polygon fill="blue" stroke="blue" stroke-width="3.08" points="101.88,-899.03 112.26,-901.15 105.47,-893.02 101.88,-899.03"/>
<text text-anchor="middle" x="15.5" y="-494.64" font-family="Times,serif" font-size="9.00">&#45;0.992</text>
</g>
<!-- key 378634
bias 0.000
h_scaling 0.738 -->
<g id="node6" class="node">
<title>key 378634
bias 0.000
h_scaling 0.738</title>
<ellipse fill="white" stroke="black" cx="364" cy="-410.2" rx="63.78" ry="63.78"/>
<text text-anchor="middle" x="364" y="-418" font-family="Times,serif" font-size="9.00">key 378634</text>
<text text-anchor="middle" x="364" y="-408" font-family="Times,serif" font-size="9.00">bias 0.000</text>
<text text-anchor="middle" x="364" y="-398" font-family="Times,serif" font-size="9.00">h_scaling 0.738</text>
</g>
<!-- key 353964
bias 0.000
h_scaling 0.708 -->
<g id="node7" class="node">
<title>key 353964
bias 0.000
h_scaling 0.708</title>
<ellipse fill="white" stroke="black" cx="364" cy="-236.92" rx="63.78" ry="63.78"/>
<text text-anchor="middle" x="364" y="-244.72" font-family="Times,serif" font-size="9.00">key 353964</text>
<text text-anchor="middle" x="364" y="-234.72" font-family="Times,serif" font-size="9.00">bias 0.000</text>
<text text-anchor="middle" x="364" y="-224.72" font-family="Times,serif" font-size="9.00">h_scaling 0.708</text>
</g>
<!-- key 378634
bias 0.000
h_scaling 0.738&#45;&gt;key 353964
bias 0.000
h_scaling 0.708 -->
<g id="edge29" class="edge">
<title>key 378634
bias 0.000
h_scaling 0.738&#45;&gt;key 353964
bias 0.000
h_scaling 0.708</title>
<path fill="none" stroke="red" stroke-width="3.06" d="M364,-346.39C364,-334.87 364,-322.76 364,-310.97"/>
<polygon fill="red" stroke="red" stroke-width="3.06" points="367.5,-310.72 364,-300.72 360.5,-310.72 367.5,-310.72"/>
<text text-anchor="middle" x="378" y="-321.36" font-family="Times,serif" font-size="9.00">0.987</text>
</g>
<!-- key 353964
bias 0.000
h_scaling 0.708&#45;&gt;key 247303
bias 0.000
h_scaling 0.104 -->
<g id="edge25" class="edge">
<title>key 353964
bias 0.000
h_scaling 0.708&#45;&gt;key 247303
bias 0.000
h_scaling 0.104</title>
<path fill="none" stroke="red" stroke-width="0.92" d="M387.55,-177.45C393.38,-162.98 399.68,-147.36 405.67,-132.49"/>
<polygon fill="red" stroke="red" stroke-width="0.92" points="409.06,-133.43 409.55,-122.84 402.57,-130.81 409.06,-133.43"/>
<text text-anchor="middle" x="413" y="-148.08" font-family="Times,serif" font-size="9.00">0.273</text>
</g>
<!-- key 21177
bias 0.000
h_scaling 0.154&#45;&gt;output
bias 0.000
h_scaling 0.998 -->
<g id="edge5" class="edge">
<title>key 21177
bias 0.000
h_scaling 0.154&#45;&gt;output
bias 0.000
h_scaling 0.998</title>
<path fill="none" stroke="red" stroke-width="3.01" d="M260.65,-1226.89C248.16,-1212.81 233.99,-1197.8 220,-1184.95 210.18,-1175.94 202.63,-1178.52 196,-1166.95 167.71,-1117.62 162.07,-1052.96 162.88,-1003.81"/>
<polygon fill="red" stroke="red" stroke-width="3.01" points="166.39,-1003.65 163.15,-993.57 159.39,-1003.47 166.39,-1003.65"/>
<text text-anchor="middle" x="210" y="-1101.11" font-family="Times,serif" font-size="9.00">0.970</text>
</g>
<!-- key 21177
bias 0.000
h_scaling 0.154&#45;&gt;key 247303
bias 0.000
h_scaling 0.104 -->
<g id="edge18" class="edge">
<title>key 21177
bias 0.000
h_scaling 0.154&#45;&gt;key 247303
bias 0.000
h_scaling 0.104</title>
<path fill="none" stroke="blue" stroke-width="3.07" d="M356.08,-1244.52C400.64,-1214.87 456,-1165.67 456,-1104.31 456,-1104.31 456,-1104.31 456,-235.92 456,-203.03 451.78,-166.91 446.96,-136.35"/>
<polygon fill="blue" stroke="blue" stroke-width="3.07" points="450.37,-135.52 445.31,-126.21 443.46,-136.64 450.37,-135.52"/>
<text text-anchor="middle" x="471.5" y="-667.92" font-family="Times,serif" font-size="9.00">&#45;0.991</text>
</g>
<!-- key 21177
bias 0.000
h_scaling 0.154&#45;&gt;key 21177
bias 0.000
h_scaling 0.154 -->
<g id="edge4" class="edge">
<title>key 21177
bias 0.000
h_scaling 0.154&#45;&gt;key 21177
bias 0.000
h_scaling 0.154</title>
<path fill="none" stroke="red" stroke-width="3.03" d="M362.94,-1291.89C374.5,-1290.01 382.64,-1284.91 382.64,-1276.59 382.64,-1270.88 378.79,-1266.68 372.63,-1264"/>
<polygon fill="red" stroke="red" stroke-width="3.03" points="373.52,-1260.62 362.94,-1261.3 371.63,-1267.36 373.52,-1260.62"/>
<text text-anchor="middle" x="396.64" y="-1274.39" font-family="Times,serif" font-size="9.00">0.977</text>
</g>
<!-- key 21177
bias 0.000
h_scaling 0.154&#45;&gt;key 17343
bias 0.000
h_scaling 0.531 -->
<g id="edge7" class="edge">
<title>key 21177
bias 0.000
h_scaling 0.154&#45;&gt;key 17343
bias 0.000
h_scaling 0.531</title>
<path fill="none" stroke="blue" stroke-width="1.96" d="M294.06,-1213.32C294.56,-1203.66 296.03,-1193.92 299,-1184.95 301.9,-1176.2 306.16,-1167.62 311.1,-1159.51"/>
<polygon fill="blue" stroke="blue" stroke-width="1.96" points="314.17,-1161.21 316.69,-1150.92 308.3,-1157.39 314.17,-1161.21"/>
<text text-anchor="middle" x="314.5" y="-1187.75" font-family="Times,serif" font-size="9.00">&#45;0.619</text>
</g>
<!-- key 374042
bias 0.000
h_scaling 0.980 -->
<g id="node9" class="node">
<title>key 374042
bias 0.000
h_scaling 0.980</title>
<ellipse fill="white" stroke="black" cx="270" cy="-583.48" rx="63.78" ry="63.78"/>
<text text-anchor="middle" x="270" y="-591.28" font-family="Times,serif" font-size="9.00">key 374042</text>
<text text-anchor="middle" x="270" y="-581.28" font-family="Times,serif" font-size="9.00">bias 0.000</text>
<text text-anchor="middle" x="270" y="-571.28" font-family="Times,serif" font-size="9.00">h_scaling 0.980</text>
</g>
<!-- key 374042
bias 0.000
h_scaling 0.980&#45;&gt;key 378634
bias 0.000
h_scaling 0.738 -->
<g id="edge28" class="edge">
<title>key 374042
bias 0.000
h_scaling 0.980&#45;&gt;key 378634
bias 0.000
h_scaling 0.738</title>
<path fill="none" stroke="red" stroke-width="3.1" d="M300.26,-527.34C309.4,-510.69 319.51,-492.26 328.94,-475.08"/>
<polygon fill="red" stroke="red" stroke-width="3.1" points="332.05,-476.68 333.8,-466.23 325.92,-473.31 332.05,-476.68"/>
<text text-anchor="middle" x="331" y="-494.64" font-family="Times,serif" font-size="9.00">1.000</text>
</g>
<!-- key 173659
bias 0.000
h_scaling 0.452&#45;&gt;key 169473
bias 0.000
h_scaling 0.993 -->
<g id="edge11" class="edge">
<title>key 173659
bias 0.000
h_scaling 0.452&#45;&gt;key 169473
bias 0.000
h_scaling 0.993</title>
<path fill="none" stroke="blue" stroke-width="3.1" d="M261.49,-820.54C258.98,-874.1 254.41,-953.09 247,-1021.68 233.42,-1147.28 209.58,-1292.5 194.85,-1377.17"/>
<polygon fill="blue" stroke="blue" stroke-width="3.1" points="191.38,-1376.74 193.11,-1387.19 198.27,-1377.94 191.38,-1376.74"/>
<text text-anchor="middle" x="260.5" y="-1101.11" font-family="Times,serif" font-size="9.00">&#45;1.000</text>
</g>
<!-- key 173659
bias 0.000
h_scaling 0.452&#45;&gt;key 374042
bias 0.000
h_scaling 0.980 -->
<g id="edge27" class="edge">
<title>key 173659
bias 0.000
h_scaling 0.452&#45;&gt;key 374042
bias 0.000
h_scaling 0.980</title>
<path fill="none" stroke="blue" stroke-width="3.1" d="M266.2,-692.95C266.6,-681.43 267.03,-669.32 267.44,-657.53"/>
<polygon fill="blue" stroke="blue" stroke-width="3.1" points="270.95,-657.39 267.8,-647.28 263.95,-657.15 270.95,-657.39"/>
<text text-anchor="middle" x="282.5" y="-667.92" font-family="Times,serif" font-size="9.00">&#45;1.000</text>
</g>
<!-- key 166012
bias 0.000
h_scaling 0.989&#45;&gt;output
bias 0.000
h_scaling 0.998 -->
<g id="edge19" class="edge">
<title>key 166012
bias 0.000
h_scaling 0.989&#45;&gt;output
bias 0.000
h_scaling 0.998</title>
<path fill="none" stroke="blue" stroke-width="1.01" d="M115.08,-1212.86C114.85,-1164.95 117.16,-1097.53 129,-1039.68 131.79,-1026.05 135.99,-1011.85 140.64,-998.39"/>
<polygon fill="blue" stroke="blue" stroke-width="1.01" points="144.02,-999.32 144.09,-988.73 137.43,-996.97 144.02,-999.32"/>
<text text-anchor="middle" x="144.5" y="-1101.11" font-family="Times,serif" font-size="9.00">&#45;0.302</text>
</g>
<!-- key 166012
bias 0.000
h_scaling 0.989&#45;&gt;key 169473
bias 0.000
h_scaling 0.993 -->
<g id="edge13" class="edge">
<title>key 166012
bias 0.000
h_scaling 0.989&#45;&gt;key 169473
bias 0.000
h_scaling 0.993</title>
<path fill="none" stroke="red" stroke-width="2.43" d="M139.3,-1336.36C144.69,-1350.56 150.49,-1365.85 156.03,-1380.45"/>
<polygon fill="red" stroke="red" stroke-width="2.43" points="152.81,-1381.82 159.63,-1389.93 159.35,-1379.34 152.81,-1381.82"/>
<text text-anchor="middle" x="164" y="-1361.03" font-family="Times,serif" font-size="9.00">0.775</text>
</g>
<!-- key 166012
bias 0.000
h_scaling 0.989&#45;&gt;key 17343
bias 0.000
h_scaling 0.531 -->
<g id="edge8" class="edge">
<title>key 166012
bias 0.000
h_scaling 0.989&#45;&gt;key 17343
bias 0.000
h_scaling 0.531</title>
<path fill="none" stroke="red" stroke-width="0.68" d="M170.65,-1241.82C203.09,-1220.96 245.01,-1193.24 281,-1166.95 287.85,-1161.95 294.94,-1156.57 301.91,-1151.14"/>
<polygon fill="red" stroke="red" stroke-width="0.68" points="304.31,-1153.7 310.02,-1144.77 299.99,-1148.2 304.31,-1153.7"/>
<text text-anchor="middle" x="269" y="-1187.75" font-family="Times,serif" font-size="9.00">0.194</text>
</g>
<!-- key 17343
bias 0.000
h_scaling 0.531&#45;&gt;output
bias 0.000
h_scaling 0.998 -->
<g id="edge1" class="edge">
<title>key 17343
bias 0.000
h_scaling 0.531&#45;&gt;output
bias 0.000
h_scaling 0.998</title>
<path fill="none" stroke="blue" stroke-width="3.09" d="M309.51,-1062.44C294.08,-1049.67 277.14,-1035.3 262,-1021.68 248.43,-1009.46 234.14,-995.89 220.93,-983.06"/>
<polygon fill="blue" stroke="blue" stroke-width="3.09" points="223.33,-980.51 213.73,-976.02 218.44,-985.51 223.33,-980.51"/>
<text text-anchor="middle" x="277.5" y="-1014.48" font-family="Times,serif" font-size="9.00">&#45;0.998</text>
</g>
<!-- key 17343
bias 0.000
h_scaling 0.531&#45;&gt;key 378634
bias 0.000
h_scaling 0.738 -->
<g id="edge30" class="edge">
<title>key 17343
bias 0.000
h_scaling 0.531&#45;&gt;key 378634
bias 0.000
h_scaling 0.738</title>
<path fill="none" stroke="red" stroke-width="0.21" d="M361.7,-1039.69C362.88,-1007.26 364,-967.03 364,-931.04 364,-931.04 364,-931.04 364,-582.48 364,-550.15 364,-514.39 364,-483.95"/>
<polygon fill="red" stroke="red" stroke-width="0.21" points="367.5,-483.84 364,-473.84 360.5,-483.84 367.5,-483.84"/>
<text text-anchor="middle" x="378" y="-754.56" font-family="Times,serif" font-size="9.00">0.036</text>
</g>
<!-- key 17343
bias 0.000
h_scaling 0.531&#45;&gt;key 21177
bias 0.000
h_scaling 0.154 -->
<g id="edge3" class="edge">
<title>key 17343
bias 0.000
h_scaling 0.531&#45;&gt;key 21177
bias 0.000
h_scaling 0.154</title>
<path fill="none" stroke="blue" stroke-width="1.97" d="M343.32,-1165.08C340.42,-1175.12 337.27,-1185.38 334,-1194.95 332.53,-1199.26 330.95,-1203.66 329.31,-1208.09"/>
<polygon fill="blue" stroke="blue" stroke-width="1.97" points="325.91,-1207.18 325.63,-1217.77 332.46,-1209.66 325.91,-1207.18"/>
<text text-anchor="middle" x="353.5" y="-1187.75" font-family="Times,serif" font-size="9.00">&#45;0.625</text>
</g>
<!-- key 17343
bias 0.000
h_scaling 0.531&#45;&gt;key 173659
bias 0.000
h_scaling 0.452 -->
<g id="edge14" class="edge">
<title>key 17343
bias 0.000
h_scaling 0.531&#45;&gt;key 173659
bias 0.000
h_scaling 0.452</title>
<path fill="none" stroke="red" stroke-width="1.25" d="M337.8,-1043.13C332.37,-1027.16 326.73,-1009.83 322,-993.68 305.97,-938.88 290.67,-876.06 279.82,-829.04"/>
<polygon fill="red" stroke="red" stroke-width="1.25" points="283.22,-828.21 277.57,-819.25 276.4,-829.78 283.22,-828.21"/>
<text text-anchor="middle" x="336" y="-927.84" font-family="Times,serif" font-size="9.00">0.385</text>
</g>
</g>
</svg>
