<?xml version="1.0" encoding="UTF-8" standalone="no"?>
<!DOCTYPE svg PUBLIC "-//W3C//DTD SVG 1.1//EN"
 "http://www.w3.org/Graphics/SVG/1.1/DTD/svg11.dtd">
<!-- Generated by graphviz version 8.0.5 (20230430.1635)
 -->
<!-- Pages: 1 -->
<svg width="469pt" height="780pt"
 viewBox="0.00 0.00 469.25 780.33" xmlns="http://www.w3.org/2000/svg" xmlns:xlink="http://www.w3.org/1999/xlink">
<g id="graph0" class="graph" transform="scale(1 1) rotate(0) translate(4 776.33)">
<polygon fill="white" stroke="none" points="-4,4 -4,-776.33 465.25,-776.33 465.25,4 -4,4"/>
<!-- ready
output 1.000 -->
<g id="node1" class="node">
<title>ready
output 1.000</title>
<polygon fill="yellow" stroke="black" points="110.62,-772.33 47.38,-772.33 47.38,-741.83 110.62,-741.83 110.62,-772.33"/>
<text text-anchor="middle" x="79" y="-759.78" font-family="Times New Roman,serif" font-size="9.00">ready</text>
<text text-anchor="middle" x="79" y="-748.53" font-family="Times New Roman,serif" font-size="9.00">output 1.000</text>
</g>
<!-- key 25067
bias 0.441
h_scaling 0.382
output 0.401 -->
<g id="node4" class="node">
<title>key 25067
bias 0.441
h_scaling 0.382
output 0.401</title>
<ellipse fill="white" stroke="black" cx="79" cy="-495.66" rx="50.56" ry="50.56"/>
<text text-anchor="middle" x="79" y="-509.61" font-family="Times New Roman,serif" font-size="9.00">key 25067</text>
<text text-anchor="middle" x="79" y="-498.36" font-family="Times New Roman,serif" font-size="9.00">bias 0.441</text>
<text text-anchor="middle" x="79" y="-487.11" font-family="Times New Roman,serif" font-size="9.00">h_scaling 0.382</text>
<text text-anchor="middle" x="79" y="-475.86" font-family="Times New Roman,serif" font-size="9.00">output 0.401</text>
</g>
<!-- ready
output 1.000&#45;&gt;key 25067
bias 0.441
h_scaling 0.382
output 0.401 -->
<g id="edge13" class="edge">
<title>ready
output 1.000&#45;&gt;key 25067
bias 0.441
h_scaling 0.382
output 0.401</title>
<path fill="none" stroke="red" stroke-width="0.1" d="M79,-741.39C79,-706.46 79,-616.86 79,-556.33"/>
<polygon fill="red" stroke="red" stroke-width="0.1" points="82.5,-556.5 79,-546.5 75.5,-556.5 82.5,-556.5"/>
<text text-anchor="middle" x="89.12" y="-641.1" font-family="Times New Roman,serif" font-size="9.00">0.435</text>
</g>
<!-- key 7694
bias 1.000
h_scaling 0.447
output 0.811 -->
<g id="node5" class="node">
<title>key 7694
bias 1.000
h_scaling 0.447
output 0.811</title>
<ellipse fill="white" stroke="black" cx="171" cy="-50.56" rx="50.56" ry="50.56"/>
<text text-anchor="middle" x="171" y="-64.51" font-family="Times New Roman,serif" font-size="9.00">key 7694</text>
<text text-anchor="middle" x="171" y="-53.26" font-family="Times New Roman,serif" font-size="9.00">bias 1.000</text>
<text text-anchor="middle" x="171" y="-42.01" font-family="Times New Roman,serif" font-size="9.00">h_scaling 0.447</text>
<text text-anchor="middle" x="171" y="-30.76" font-family="Times New Roman,serif" font-size="9.00">output 0.811</text>
</g>
<!-- ready
output 1.000&#45;&gt;key 7694
bias 1.000
h_scaling 0.447
output 0.811 -->
<g id="edge17" class="edge">
<title>ready
output 1.000&#45;&gt;key 7694
bias 1.000
h_scaling 0.447
output 0.811</title>
<path fill="none" stroke="blue" stroke-width="0.1" d="M59.47,-741.54C36.08,-722.28 0,-685.96 0,-645.02 0,-645.02 0,-645.02 0,-197.92 0,-136.49 64.49,-95.31 114.26,-72.68"/>
<polygon fill="blue" stroke="blue" stroke-width="0.1" points="115.63,-75.9 123.37,-68.67 112.8,-69.5 115.63,-75.9"/>
<text text-anchor="middle" x="11.62" y="-418.55" font-family="Times New Roman,serif" font-size="9.00">&#45;0.265</text>
</g>
<!-- key 2865
bias &#45;0.491
h_scaling 0.827
output 0.926 -->
<g id="node7" class="node">
<title>key 2865
bias &#45;0.491
h_scaling 0.827
output 0.926</title>
<ellipse fill="white" stroke="black" cx="364" cy="-644.02" rx="50.56" ry="50.56"/>
<text text-anchor="middle" x="364" y="-657.97" font-family="Times New Roman,serif" font-size="9.00">key 2865</text>
<text text-anchor="middle" x="364" y="-646.72" font-family="Times New Roman,serif" font-size="9.00">bias &#45;0.491</text>
<text text-anchor="middle" x="364" y="-635.47" font-family="Times New Roman,serif" font-size="9.00">h_scaling 0.827</text>
<text text-anchor="middle" x="364" y="-624.22" font-family="Times New Roman,serif" font-size="9.00">output 0.926</text>
</g>
<!-- ready
output 1.000&#45;&gt;key 2865
bias &#45;0.491
h_scaling 0.827
output 0.926 -->
<g id="edge1" class="edge">
<title>ready
output 1.000&#45;&gt;key 2865
bias &#45;0.491
h_scaling 0.827
output 0.926</title>
<path fill="none" stroke="red" stroke-width="0.1" d="M111.08,-743.6C143,-731.18 193.39,-711.58 237,-694.58 260.15,-685.56 285.68,-675.6 307.74,-666.99"/>
<polygon fill="red" stroke="red" stroke-width="0.1" points="308.92,-670.29 316.96,-663.39 306.37,-663.77 308.92,-670.29"/>
<text text-anchor="middle" x="200.12" y="-715.28" font-family="Times New Roman,serif" font-size="9.00">0.994</text>
</g>
<!-- go
output 0.000 -->
<g id="node2" class="node">
<title>go
output 0.000</title>
<polygon fill="green" stroke="black" points="227.62,-659.27 164.38,-659.27 164.38,-628.77 227.62,-628.77 227.62,-659.27"/>
<text text-anchor="middle" x="196" y="-646.72" font-family="Times New Roman,serif" font-size="9.00">go</text>
<text text-anchor="middle" x="196" y="-635.47" font-family="Times New Roman,serif" font-size="9.00">output 0.000</text>
</g>
<!-- go
output 0.000&#45;&gt;key 25067
bias 0.441
h_scaling 0.382
output 0.401 -->
<g id="edge16" class="edge">
<title>go
output 0.000&#45;&gt;key 25067
bias 0.441
h_scaling 0.382
output 0.401</title>
<path fill="none" stroke="blue" stroke-width="0.1" d="M184.35,-628.45C168.65,-608.81 139.94,-572.89 116.45,-543.51"/>
<polygon fill="blue" stroke="blue" stroke-width="0.1" points="119.27,-541.43 110.3,-535.81 113.81,-545.8 119.27,-541.43"/>
<text text-anchor="middle" x="153.62" y="-566.92" font-family="Times New Roman,serif" font-size="9.00">&#45;0.564</text>
</g>
<!-- go
output 0.000&#45;&gt;key 7694
bias 1.000
h_scaling 0.447
output 0.811 -->
<g id="edge4" class="edge">
<title>go
output 0.000&#45;&gt;key 7694
bias 1.000
h_scaling 0.447
output 0.811</title>
<path fill="none" stroke="red" stroke-width="0.1" d="M195.05,-628.4C192.71,-592.32 186.44,-496.1 181,-415.85 180.46,-407.85 180.13,-405.86 179.75,-397.85 174.99,-297.36 172.72,-180.35 171.71,-111.3"/>
<polygon fill="red" stroke="red" stroke-width="0.1" points="175.21,-111.42 171.57,-101.47 168.21,-111.52 175.21,-111.42"/>
<text text-anchor="middle" x="190.12" y="-344.37" font-family="Times New Roman,serif" font-size="9.00">0.890</text>
</g>
<!-- key 31733
bias &#45;0.358
h_scaling 0.249
output 0.370 -->
<g id="node8" class="node">
<title>key 31733
bias &#45;0.358
h_scaling 0.249
output 0.370</title>
<ellipse fill="white" stroke="black" cx="318" cy="-198.92" rx="50.56" ry="50.56"/>
<text text-anchor="middle" x="318" y="-212.87" font-family="Times New Roman,serif" font-size="9.00">key 31733</text>
<text text-anchor="middle" x="318" y="-201.62" font-family="Times New Roman,serif" font-size="9.00">bias &#45;0.358</text>
<text text-anchor="middle" x="318" y="-190.37" font-family="Times New Roman,serif" font-size="9.00">h_scaling 0.249</text>
<text text-anchor="middle" x="318" y="-179.12" font-family="Times New Roman,serif" font-size="9.00">output 0.370</text>
</g>
<!-- go
output 0.000&#45;&gt;key 31733
bias &#45;0.358
h_scaling 0.249
output 0.370 -->
<g id="edge8" class="edge">
<title>go
output 0.000&#45;&gt;key 31733
bias &#45;0.358
h_scaling 0.249
output 0.370</title>
<path fill="none" stroke="blue" stroke-width="0.1" d="M199.13,-628.28C209.41,-580.4 242.38,-431.47 257.75,-415.85 277.95,-395.32 302.69,-420.87 320,-397.85 349.95,-358.01 345.32,-299.79 335.68,-256.8"/>
<polygon fill="blue" stroke="blue" stroke-width="0.1" points="339.15,-256.23 333.42,-247.32 332.34,-257.86 339.15,-256.23"/>
<text text-anchor="middle" x="269.62" y="-418.55" font-family="Times New Roman,serif" font-size="9.00">&#45;0.638</text>
</g>
<!-- output
bias &#45;0.422
h_scaling 0.030
output 0.002 -->
<g id="node3" class="node">
<title>output
bias &#45;0.422
h_scaling 0.030
output 0.002</title>
<ellipse fill="lightblue" stroke="black" cx="260" cy="-347.29" rx="50.56" ry="50.56"/>
<text text-anchor="middle" x="260" y="-361.24" font-family="Times New Roman,serif" font-size="9.00">output</text>
<text text-anchor="middle" x="260" y="-349.99" font-family="Times New Roman,serif" font-size="9.00">bias &#45;0.422</text>
<text text-anchor="middle" x="260" y="-338.74" font-family="Times New Roman,serif" font-size="9.00">h_scaling 0.030</text>
<text text-anchor="middle" x="260" y="-327.49" font-family="Times New Roman,serif" font-size="9.00">output 0.002</text>
</g>
<!-- output
bias &#45;0.422
h_scaling 0.030
output 0.002&#45;&gt;key 31733
bias &#45;0.358
h_scaling 0.249
output 0.370 -->
<g id="edge12" class="edge">
<title>output
bias &#45;0.422
h_scaling 0.030
output 0.002&#45;&gt;key 31733
bias &#45;0.358
h_scaling 0.249
output 0.370</title>
<path fill="none" stroke="blue" stroke-width="0.1" d="M278.35,-299.98C283.96,-285.83 290.18,-270.13 296,-255.43"/>
<polygon fill="blue" stroke="blue" stroke-width="0.1" points="299.14,-257.02 299.57,-246.44 292.63,-254.44 299.14,-257.02"/>
<text text-anchor="middle" x="302.62" y="-270.18" font-family="Times New Roman,serif" font-size="9.00">&#45;0.269</text>
</g>
<!-- key 25067
bias 0.441
h_scaling 0.382
output 0.401&#45;&gt;output
bias &#45;0.422
h_scaling 0.030
output 0.002 -->
<g id="edge11" class="edge">
<title>key 25067
bias 0.441
h_scaling 0.382
output 0.401&#45;&gt;output
bias &#45;0.422
h_scaling 0.030
output 0.002</title>
<path fill="none" stroke="red" stroke-width="0.1" d="M117.83,-463.26C145.77,-440.67 183.59,-410.08 213.2,-386.14"/>
<polygon fill="red" stroke="red" stroke-width="0.1" points="215.35,-388.9 220.92,-379.89 210.95,-383.46 215.35,-388.9"/>
<text text-anchor="middle" x="185.12" y="-418.55" font-family="Times New Roman,serif" font-size="9.00">1.000</text>
</g>
<!-- key 25067
bias 0.441
h_scaling 0.382
output 0.401&#45;&gt;key 25067
bias 0.441
h_scaling 0.382
output 0.401 -->
<g id="edge15" class="edge">
<title>key 25067
bias 0.441
h_scaling 0.382
output 0.401&#45;&gt;key 25067
bias 0.441
h_scaling 0.382
output 0.401</title>
<path fill="none" stroke="red" stroke-width="0.1" d="M127.99,-509.26C139.27,-508.09 147.56,-503.55 147.56,-495.66 147.56,-490.23 143.64,-486.39 137.53,-484.14"/>
<polygon fill="red" stroke="red" stroke-width="0.1" points="138.51,-480.77 127.99,-482.05 137.01,-487.61 138.51,-480.77"/>
<text text-anchor="middle" x="157.68" y="-492.73" font-family="Times New Roman,serif" font-size="9.00">0.278</text>
</g>
<!-- key 25067
bias 0.441
h_scaling 0.382
output 0.401&#45;&gt;key 7694
bias 1.000
h_scaling 0.447
output 0.811 -->
<g id="edge5" class="edge">
<title>key 25067
bias 0.441
h_scaling 0.382
output 0.401&#45;&gt;key 7694
bias 1.000
h_scaling 0.447
output 0.811</title>
<path fill="none" stroke="blue" stroke-width="0.1" d="M72.04,-445.32C63.84,-370.41 57.39,-225.46 111,-119.12 115.6,-110 121.73,-101.15 128.33,-93.03"/>
<polygon fill="blue" stroke="blue" stroke-width="0.1" points="130.68,-95.67 134.49,-85.78 125.34,-91.14 130.68,-95.67"/>
<text text-anchor="middle" x="82.62" y="-270.18" font-family="Times New Roman,serif" font-size="9.00">&#45;0.709</text>
</g>
<!-- key 7694
bias 1.000
h_scaling 0.447
output 0.811&#45;&gt;output
bias &#45;0.422
h_scaling 0.030
output 0.002 -->
<g id="edge3" class="edge">
<title>key 7694
bias 1.000
h_scaling 0.447
output 0.811&#45;&gt;output
bias &#45;0.422
h_scaling 0.030
output 0.002</title>
<path fill="none" stroke="blue" stroke-width="0.1" d="M185.38,-99.17C201.04,-151.05 226.09,-234 242.79,-289.3"/>
<polygon fill="blue" stroke="blue" stroke-width="0.1" points="239.36,-290.05 245.6,-298.61 246.06,-288.02 239.36,-290.05"/>
<text text-anchor="middle" x="242.62" y="-196" font-family="Times New Roman,serif" font-size="9.00">&#45;1.000</text>
</g>
<!-- key 7694
bias 1.000
h_scaling 0.447
output 0.811&#45;&gt;key 25067
bias 0.441
h_scaling 0.382
output 0.401 -->
<g id="edge10" class="edge">
<title>key 7694
bias 1.000
h_scaling 0.447
output 0.811&#45;&gt;key 25067
bias 0.441
h_scaling 0.382
output 0.401</title>
<path fill="none" stroke="blue" stroke-width="0.1" d="M160.87,-100.33C143.81,-182.51 109.4,-348.22 91.1,-436.39"/>
<polygon fill="blue" stroke="blue" stroke-width="0.1" points="87.71,-435.47 89.11,-445.97 94.57,-436.89 87.71,-435.47"/>
<text text-anchor="middle" x="138.62" y="-270.18" font-family="Times New Roman,serif" font-size="9.00">&#45;1.000</text>
</g>
<!-- key 194415
bias &#45;0.491
h_scaling 0.678
output 0.138 -->
<g id="node6" class="node">
<title>key 194415
bias &#45;0.491
h_scaling 0.678
output 0.138</title>
<ellipse fill="white" stroke="black" cx="313" cy="-495.66" rx="50.56" ry="50.56"/>
<text text-anchor="middle" x="313" y="-509.61" font-family="Times New Roman,serif" font-size="9.00">key 194415</text>
<text text-anchor="middle" x="313" y="-498.36" font-family="Times New Roman,serif" font-size="9.00">bias &#45;0.491</text>
<text text-anchor="middle" x="313" y="-487.11" font-family="Times New Roman,serif" font-size="9.00">h_scaling 0.678</text>
<text text-anchor="middle" x="313" y="-475.86" font-family="Times New Roman,serif" font-size="9.00">output 0.138</text>
</g>
<!-- key 194415
bias &#45;0.491
h_scaling 0.678
output 0.138&#45;&gt;output
bias &#45;0.422
h_scaling 0.030
output 0.002 -->
<g id="edge19" class="edge">
<title>key 194415
bias &#45;0.491
h_scaling 0.678
output 0.138&#45;&gt;output
bias &#45;0.422
h_scaling 0.030
output 0.002</title>
<path fill="none" stroke="red" stroke-width="0.1" d="M295.94,-447.54C290.97,-433.83 285.5,-418.71 280.36,-404.5"/>
<polygon fill="red" stroke="red" stroke-width="0.1" points="283.72,-403.53 277.03,-395.32 277.14,-405.91 283.72,-403.53"/>
<text text-anchor="middle" x="299.12" y="-418.55" font-family="Times New Roman,serif" font-size="9.00">0.156</text>
</g>
<!-- key 2865
bias &#45;0.491
h_scaling 0.827
output 0.926&#45;&gt;key 7694
bias 1.000
h_scaling 0.447
output 0.811 -->
<g id="edge2" class="edge">
<title>key 2865
bias &#45;0.491
h_scaling 0.827
output 0.926&#45;&gt;key 7694
bias 1.000
h_scaling 0.447
output 0.811</title>
<path fill="none" stroke="blue" stroke-width="0.1" d="M396.03,-604.35C416.03,-576.27 438,-536.38 438,-496.66 438,-496.66 438,-496.66 438,-197.92 438,-104.27 310.11,-70.14 231.36,-58"/>
<polygon fill="blue" stroke="blue" stroke-width="0.1" points="231.94,-54.55 221.53,-56.57 230.92,-61.48 231.94,-54.55"/>
<text text-anchor="middle" x="449.62" y="-344.37" font-family="Times New Roman,serif" font-size="9.00">&#45;0.279</text>
</g>
<!-- key 2865
bias &#45;0.491
h_scaling 0.827
output 0.926&#45;&gt;key 194415
bias &#45;0.491
h_scaling 0.678
output 0.138 -->
<g id="edge18" class="edge">
<title>key 2865
bias &#45;0.491
h_scaling 0.827
output 0.926&#45;&gt;key 194415
bias &#45;0.491
h_scaling 0.678
output 0.138</title>
<path fill="none" stroke="red" stroke-width="0.1" d="M347.58,-595.91C342.83,-582.26 337.59,-567.23 332.66,-553.08"/>
<polygon fill="red" stroke="red" stroke-width="0.1" points="336.07,-552.23 329.47,-543.94 329.46,-554.53 336.07,-552.23"/>
<text text-anchor="middle" x="351.12" y="-566.92" font-family="Times New Roman,serif" font-size="9.00">1.070</text>
</g>
<!-- key 2865
bias &#45;0.491
h_scaling 0.827
output 0.926&#45;&gt;key 2865
bias &#45;0.491
h_scaling 0.827
output 0.926 -->
<g id="edge14" class="edge">
<title>key 2865
bias &#45;0.491
h_scaling 0.827
output 0.926&#45;&gt;key 2865
bias &#45;0.491
h_scaling 0.827
output 0.926</title>
<path fill="none" stroke="red" stroke-width="0.1" d="M412.99,-657.63C424.27,-656.45 432.56,-651.92 432.56,-644.02 432.56,-638.59 428.64,-634.75 422.53,-632.5"/>
<polygon fill="red" stroke="red" stroke-width="0.1" points="423.51,-629.14 412.99,-630.42 422.01,-635.97 423.51,-629.14"/>
<text text-anchor="middle" x="442.68" y="-641.1" font-family="Times New Roman,serif" font-size="9.00">0.921</text>
</g>
<!-- key 2865
bias &#45;0.491
h_scaling 0.827
output 0.926&#45;&gt;key 31733
bias &#45;0.358
h_scaling 0.249
output 0.370 -->
<g id="edge6" class="edge">
<title>key 2865
bias &#45;0.491
h_scaling 0.827
output 0.926&#45;&gt;key 31733
bias &#45;0.358
h_scaling 0.249
output 0.370</title>
<path fill="none" stroke="red" stroke-width="0.1" d="M369.51,-593.34C370.95,-578.23 372.29,-561.56 373,-546.22 378.75,-422.15 389.12,-386.31 353,-267.48 351.44,-262.35 349.49,-257.14 347.32,-252.02"/>
<polygon fill="red" stroke="red" stroke-width="0.1" points="350.51,-250.58 343.21,-242.91 344.14,-253.46 350.51,-250.58"/>
<text text-anchor="middle" x="389.12" y="-418.55" font-family="Times New Roman,serif" font-size="9.00">0.441</text>
</g>
<!-- key 31733
bias &#45;0.358
h_scaling 0.249
output 0.370&#45;&gt;key 7694
bias 1.000
h_scaling 0.447
output 0.811 -->
<g id="edge7" class="edge">
<title>key 31733
bias &#45;0.358
h_scaling 0.249
output 0.370&#45;&gt;key 7694
bias 1.000
h_scaling 0.447
output 0.811</title>
<path fill="none" stroke="blue" stroke-width="0.1" d="M282.42,-162.49C261.64,-141.8 235.29,-115.57 213.44,-93.81"/>
<polygon fill="blue" stroke="blue" stroke-width="0.1" points="216.07,-91.49 206.51,-86.92 211.13,-96.45 216.07,-91.49"/>
<text text-anchor="middle" x="260.62" y="-121.82" font-family="Times New Roman,serif" font-size="9.00">&#45;0.971</text>
</g>
<!-- key 31733
bias &#45;0.358
h_scaling 0.249
output 0.370&#45;&gt;key 31733
bias &#45;0.358
h_scaling 0.249
output 0.370 -->
<g id="edge9" class="edge">
<title>key 31733
bias &#45;0.358
h_scaling 0.249
output 0.370&#45;&gt;key 31733
bias &#45;0.358
h_scaling 0.249
output 0.370</title>
<path fill="none" stroke="red" stroke-width="0.1" d="M366.99,-212.53C378.27,-211.36 386.56,-206.82 386.56,-198.92 386.56,-193.5 382.64,-189.66 376.53,-187.41"/>
<polygon fill="red" stroke="red" stroke-width="0.1" points="377.51,-184.04 366.99,-185.32 376.01,-190.88 377.51,-184.04"/>
<text text-anchor="middle" x="396.68" y="-196" font-family="Times New Roman,serif" font-size="9.00">0.599</text>
</g>
</g>
</svg>
