<?xml version="1.0" encoding="UTF-8" standalone="no"?>
<!DOCTYPE svg PUBLIC "-//W3C//DTD SVG 1.1//EN"
 "http://www.w3.org/Graphics/SVG/1.1/DTD/svg11.dtd">
<!-- Generated by graphviz version 8.0.5 (20230430.1635)
 -->
<!-- Pages: 1 -->
<svg width="355pt" height="610pt"
 viewBox="0.00 0.00 355.00 610.47" xmlns="http://www.w3.org/2000/svg" xmlns:xlink="http://www.w3.org/1999/xlink">
<g id="graph0" class="graph" transform="scale(1 1) rotate(0) translate(4 606.47)">
<polygon fill="white" stroke="none" points="-4,4 -4,-606.47 351,-606.47 351,4 -4,4"/>
<!-- ready -->
<g id="node1" class="node">
<title>ready</title>
<polygon fill="yellow" stroke="black" points="66.12,-602.47 29.88,-602.47 29.88,-583.22 66.12,-583.22 66.12,-602.47"/>
<text text-anchor="middle" x="48" y="-589.92" font-family="Times New Roman,serif" font-size="9.00">ready</text>
</g>
<!-- key 7184
bias &#45;0.116
h_scaling 0.962 -->
<g id="node4" class="node">
<title>key 7184
bias &#45;0.116
h_scaling 0.962</title>
<ellipse fill="white" stroke="black" cx="212" cy="-485.41" rx="50.56" ry="50.56"/>
<text text-anchor="middle" x="212" y="-493.73" font-family="Times New Roman,serif" font-size="9.00">key 7184</text>
<text text-anchor="middle" x="212" y="-482.48" font-family="Times New Roman,serif" font-size="9.00">bias &#45;0.116</text>
<text text-anchor="middle" x="212" y="-471.23" font-family="Times New Roman,serif" font-size="9.00">h_scaling 0.962</text>
</g>
<!-- ready&#45;&gt;key 7184
bias &#45;0.116
h_scaling 0.962 -->
<g id="edge4" class="edge">
<title>ready&#45;&gt;key 7184
bias &#45;0.116
h_scaling 0.962</title>
<path fill="none" stroke="blue" stroke-width="0.1" d="M61.98,-582.85C83.85,-568.79 127.23,-540.91 161.74,-518.72"/>
<polygon fill="blue" stroke="blue" stroke-width="0.1" points="163.33,-521.86 169.85,-513.51 159.54,-515.97 163.33,-521.86"/>
</g>
<!-- key 18515
bias &#45;0.440
h_scaling 0.396 -->
<g id="node5" class="node">
<title>key 18515
bias &#45;0.440
h_scaling 0.396</title>
<ellipse fill="white" stroke="black" cx="80" cy="-198.92" rx="50.56" ry="50.56"/>
<text text-anchor="middle" x="80" y="-207.25" font-family="Times New Roman,serif" font-size="9.00">key 18515</text>
<text text-anchor="middle" x="80" y="-196" font-family="Times New Roman,serif" font-size="9.00">bias &#45;0.440</text>
<text text-anchor="middle" x="80" y="-184.75" font-family="Times New Roman,serif" font-size="9.00">h_scaling 0.396</text>
</g>
<!-- ready&#45;&gt;key 18515
bias &#45;0.440
h_scaling 0.396 -->
<g id="edge5" class="edge">
<title>ready&#45;&gt;key 18515
bias &#45;0.440
h_scaling 0.396</title>
<path fill="none" stroke="red" stroke-width="0.55" d="M48.61,-582.92C50.46,-556.09 56.21,-473.78 61.75,-405.6 65.76,-356.25 70.76,-300.29 74.51,-259.21"/>
<polygon fill="red" stroke="red" stroke-width="0.55" points="77.98,-259.64 75.41,-249.36 71.01,-259 77.98,-259.64"/>
<text text-anchor="middle" x="72.12" y="-408.3" font-family="Times New Roman,serif" font-size="9.00">0.015</text>
</g>
<!-- key 117952
bias 0.037
h_scaling 0.241 -->
<g id="node6" class="node">
<title>key 117952
bias 0.037
h_scaling 0.241</title>
<ellipse fill="white" stroke="black" cx="243" cy="-50.56" rx="50.56" ry="50.56"/>
<text text-anchor="middle" x="243" y="-58.88" font-family="Times New Roman,serif" font-size="9.00">key 117952</text>
<text text-anchor="middle" x="243" y="-47.63" font-family="Times New Roman,serif" font-size="9.00">bias 0.037</text>
<text text-anchor="middle" x="243" y="-36.38" font-family="Times New Roman,serif" font-size="9.00">h_scaling 0.241</text>
</g>
<!-- ready&#45;&gt;key 117952
bias 0.037
h_scaling 0.241 -->
<g id="edge13" class="edge">
<title>ready&#45;&gt;key 117952
bias 0.037
h_scaling 0.241</title>
<path fill="none" stroke="red" stroke-width="1.49" d="M40.71,-582.88C27.28,-565.44 0,-525.22 0,-486.41 0,-486.41 0,-486.41 0,-197.92 0,-113.48 109,-76.5 181,-61.28"/>
<polygon fill="red" stroke="red" stroke-width="1.49" points="181.54,-64.34 190.65,-58.93 180.16,-57.47 181.54,-64.34"/>
<text text-anchor="middle" x="10.12" y="-334.12" font-family="Times New Roman,serif" font-size="9.00">0.046</text>
</g>
<!-- go -->
<g id="node2" class="node">
<title>go</title>
<polygon fill="green" stroke="black" points="224.12,-602.47 199.88,-602.47 199.88,-583.22 224.12,-583.22 224.12,-602.47"/>
<text text-anchor="middle" x="212" y="-589.92" font-family="Times New Roman,serif" font-size="9.00">go</text>
</g>
<!-- go&#45;&gt;key 7184
bias &#45;0.116
h_scaling 0.962 -->
<g id="edge2" class="edge">
<title>go&#45;&gt;key 7184
bias &#45;0.116
h_scaling 0.962</title>
<path fill="none" stroke="red" stroke-width="0.42" d="M212,-582.85C212,-574.23 212,-560.42 212,-545.91"/>
<polygon fill="red" stroke="red" stroke-width="0.42" points="215.5,-546.32 212,-536.32 208.5,-546.32 215.5,-546.32"/>
<text text-anchor="middle" x="222.12" y="-556.67" font-family="Times New Roman,serif" font-size="9.00">0.011</text>
</g>
<!-- go&#45;&gt;key 18515
bias &#45;0.440
h_scaling 0.396 -->
<g id="edge9" class="edge">
<title>go&#45;&gt;key 18515
bias &#45;0.440
h_scaling 0.396</title>
<path fill="none" stroke="blue" stroke-width="0.1" d="M199.49,-583.48C185.8,-573.69 164.19,-556.21 152,-535.97 99.81,-449.32 85.17,-330.07 81.23,-259.39"/>
<polygon fill="blue" stroke="blue" stroke-width="0.1" points="84.74,-259.56 80.74,-249.75 77.75,-259.91 84.74,-259.56"/>
</g>
<!-- go&#45;&gt;key 117952
bias 0.037
h_scaling 0.241 -->
<g id="edge14" class="edge">
<title>go&#45;&gt;key 117952
bias 0.037
h_scaling 0.241</title>
<path fill="none" stroke="blue" stroke-width="0.1" d="M224.46,-588.63C257.88,-579.21 347,-548.26 347,-486.41 347,-486.41 347,-486.41 347,-197.92 347,-155.11 317.06,-116.1 289.31,-89.14"/>
<polygon fill="blue" stroke="blue" stroke-width="0.1" points="291.99,-86.86 282.32,-82.55 287.19,-91.96 291.99,-86.86"/>
</g>
<!-- output
bias &#45;0.204
h_scaling 0.938 -->
<g id="node3" class="node">
<title>output
bias &#45;0.204
h_scaling 0.938</title>
<ellipse fill="lightblue" stroke="black" cx="212" cy="-337.04" rx="50.56" ry="50.56"/>
<text text-anchor="middle" x="212" y="-345.37" font-family="Times New Roman,serif" font-size="9.00">output</text>
<text text-anchor="middle" x="212" y="-334.12" font-family="Times New Roman,serif" font-size="9.00">bias &#45;0.204</text>
<text text-anchor="middle" x="212" y="-322.87" font-family="Times New Roman,serif" font-size="9.00">h_scaling 0.938</text>
</g>
<!-- output
bias &#45;0.204
h_scaling 0.938&#45;&gt;key 18515
bias &#45;0.440
h_scaling 0.396 -->
<g id="edge8" class="edge">
<title>output
bias &#45;0.204
h_scaling 0.938&#45;&gt;key 18515
bias &#45;0.440
h_scaling 0.396</title>
<path fill="none" stroke="blue" stroke-width="0.1" d="M177.74,-299.6C167.87,-289.18 157.05,-277.84 147,-267.48 139,-259.24 130.41,-250.49 122.13,-242.11"/>
<polygon fill="blue" stroke="blue" stroke-width="0.1" points="124.8,-239.83 115.27,-235.19 119.82,-244.76 124.8,-239.83"/>
</g>
<!-- output
bias &#45;0.204
h_scaling 0.938&#45;&gt;key 117952
bias 0.037
h_scaling 0.241 -->
<g id="edge16" class="edge">
<title>output
bias &#45;0.204
h_scaling 0.938&#45;&gt;key 117952
bias 0.037
h_scaling 0.241</title>
<path fill="none" stroke="blue" stroke-width="0.1" d="M210.15,-286.38C209.5,-248.39 210.24,-194.81 217,-148.37 218.92,-135.2 222.01,-121.27 225.4,-108.2"/>
<polygon fill="blue" stroke="blue" stroke-width="0.1" points="228.69,-109.42 227.91,-98.85 221.93,-107.6 228.69,-109.42"/>
</g>
<!-- key 7184
bias &#45;0.116
h_scaling 0.962&#45;&gt;output
bias &#45;0.204
h_scaling 0.938 -->
<g id="edge1" class="edge">
<title>key 7184
bias &#45;0.116
h_scaling 0.962&#45;&gt;output
bias &#45;0.204
h_scaling 0.938</title>
<path fill="none" stroke="blue" stroke-width="0.1" d="M212,-434.45C212,-422.55 212,-409.75 212,-397.48"/>
<polygon fill="blue" stroke="blue" stroke-width="0.1" points="215.5,-397.78 212,-387.78 208.5,-397.78 215.5,-397.78"/>
</g>
<!-- key 7184
bias &#45;0.116
h_scaling 0.962&#45;&gt;key 7184
bias &#45;0.116
h_scaling 0.962 -->
<g id="edge3" class="edge">
<title>key 7184
bias &#45;0.116
h_scaling 0.962&#45;&gt;key 7184
bias &#45;0.116
h_scaling 0.962</title>
<path fill="none" stroke="red" stroke-width="1.17" d="M260.99,-499.01C272.27,-497.84 280.56,-493.3 280.56,-485.41 280.56,-480.22 276.99,-476.49 271.35,-474.2"/>
<polygon fill="red" stroke="red" stroke-width="1.17" points="272.52,-470.65 261.99,-471.8 270.94,-477.47 272.52,-470.65"/>
<text text-anchor="middle" x="290.68" y="-482.48" font-family="Times New Roman,serif" font-size="9.00">0.036</text>
</g>
<!-- key 7184
bias &#45;0.116
h_scaling 0.962&#45;&gt;key 117952
bias 0.037
h_scaling 0.241 -->
<g id="edge11" class="edge">
<title>key 7184
bias &#45;0.116
h_scaling 0.962&#45;&gt;key 117952
bias 0.037
h_scaling 0.241</title>
<path fill="none" stroke="blue" stroke-width="0.1" d="M237.19,-441.56C247.24,-425.55 257.58,-406.62 263,-387.6 289.86,-293.26 269.16,-178.5 254.15,-110.44"/>
<polygon fill="blue" stroke="blue" stroke-width="0.1" points="257.58,-109.74 251.98,-100.74 250.75,-111.26 257.58,-109.74"/>
</g>
<!-- key 18515
bias &#45;0.440
h_scaling 0.396&#45;&gt;key 7184
bias &#45;0.116
h_scaling 0.962 -->
<g id="edge6" class="edge">
<title>key 18515
bias &#45;0.440
h_scaling 0.396&#45;&gt;key 7184
bias &#45;0.116
h_scaling 0.962</title>
<path fill="none" stroke="blue" stroke-width="0.1" d="M100.04,-245.56C103.12,-252.86 106.2,-260.36 109,-267.48 129.75,-320.25 127.37,-336.52 152,-387.6 159.68,-403.53 169.32,-420.14 178.61,-435.02"/>
<polygon fill="blue" stroke="blue" stroke-width="0.1" points="175.41,-436.52 183.72,-443.09 181.33,-432.77 175.41,-436.52"/>
</g>
<!-- key 18515
bias &#45;0.440
h_scaling 0.396&#45;&gt;key 18515
bias &#45;0.440
h_scaling 0.396 -->
<g id="edge7" class="edge">
<title>key 18515
bias &#45;0.440
h_scaling 0.396&#45;&gt;key 18515
bias &#45;0.440
h_scaling 0.396</title>
<path fill="none" stroke="red" stroke-width="0.81" d="M129.3,-211.56C140.42,-210.42 148.56,-206.21 148.56,-198.92 148.56,-194.26 145.22,-190.85 139.9,-188.71"/>
<polygon fill="red" stroke="red" stroke-width="0.81" points="140.83,-185.1 130.3,-186.29 139.27,-191.93 140.83,-185.1"/>
<text text-anchor="middle" x="158.68" y="-196" font-family="Times New Roman,serif" font-size="9.00">0.024</text>
</g>
<!-- key 18515
bias &#45;0.440
h_scaling 0.396&#45;&gt;key 117952
bias 0.037
h_scaling 0.241 -->
<g id="edge15" class="edge">
<title>key 18515
bias &#45;0.440
h_scaling 0.396&#45;&gt;key 117952
bias 0.037
h_scaling 0.241</title>
<path fill="none" stroke="red" stroke-width="0.42" d="M115.8,-162.91C130.2,-149.07 147.08,-133.15 162.75,-119.12 173.55,-109.44 185.4,-99.25 196.59,-89.8"/>
<polygon fill="red" stroke="red" stroke-width="0.42" points="198.82,-92.5 204.22,-83.39 194.31,-87.14 198.82,-92.5"/>
<text text-anchor="middle" x="172.12" y="-121.82" font-family="Times New Roman,serif" font-size="9.00">0.011</text>
</g>
<!-- key 117952
bias 0.037
h_scaling 0.241&#45;&gt;output
bias &#45;0.204
h_scaling 0.938 -->
<g id="edge10" class="edge">
<title>key 117952
bias 0.037
h_scaling 0.241&#45;&gt;output
bias &#45;0.204
h_scaling 0.938</title>
<path fill="none" stroke="red" stroke-width="0.45" d="M237.61,-101.02C232.28,-149.89 224.13,-224.68 218.46,-276.72"/>
<polygon fill="red" stroke="red" stroke-width="0.45" points="215,-276.17 217.4,-286.49 221.96,-276.93 215,-276.17"/>
<text text-anchor="middle" x="242.12" y="-196" font-family="Times New Roman,serif" font-size="9.00">0.012</text>
</g>
<!-- key 117952
bias 0.037
h_scaling 0.241&#45;&gt;key 7184
bias &#45;0.116
h_scaling 0.962 -->
<g id="edge17" class="edge">
<title>key 117952
bias 0.037
h_scaling 0.241&#45;&gt;key 7184
bias &#45;0.116
h_scaling 0.962</title>
<path fill="none" stroke="blue" stroke-width="0.1" d="M263.1,-97.39C284.16,-163.01 309.67,-286.93 281,-387.6 275.51,-406.88 264.95,-426.08 253.65,-442.23"/>
<polygon fill="blue" stroke="blue" stroke-width="0.1" points="251.12,-439.76 248.06,-449.9 256.77,-443.88 251.12,-439.76"/>
</g>
<!-- key 117952
bias 0.037
h_scaling 0.241&#45;&gt;key 117952
bias 0.037
h_scaling 0.241 -->
<g id="edge12" class="edge">
<title>key 117952
bias 0.037
h_scaling 0.241&#45;&gt;key 117952
bias 0.037
h_scaling 0.241</title>
<path fill="none" stroke="red" stroke-width="0.91" d="M291.99,-64.16C303.27,-62.99 311.56,-58.45 311.56,-50.56 311.56,-45.38 307.99,-41.64 302.35,-39.36"/>
<polygon fill="red" stroke="red" stroke-width="0.91" points="303.52,-35.8 292.99,-36.96 301.94,-42.62 303.52,-35.8"/>
<text text-anchor="middle" x="321.68" y="-47.63" font-family="Times New Roman,serif" font-size="9.00">0.027</text>
</g>
</g>
</svg>
