<?xml version="1.0" encoding="UTF-8" standalone="no"?>
<!DOCTYPE svg PUBLIC "-//W3C//DTD SVG 1.1//EN"
 "http://www.w3.org/Graphics/SVG/1.1/DTD/svg11.dtd">
<!-- Generated by graphviz version 8.0.5 (20230430.1635)
 -->
<!-- Pages: 1 -->
<svg width="430pt" height="621pt"
 viewBox="0.00 0.00 430.25 620.72" xmlns="http://www.w3.org/2000/svg" xmlns:xlink="http://www.w3.org/1999/xlink">
<g id="graph0" class="graph" transform="scale(1 1) rotate(0) translate(4 616.72)">
<polygon fill="white" stroke="none" points="-4,4 -4,-616.72 426.25,-616.72 426.25,4 -4,4"/>
<!-- ready -->
<g id="node1" class="node">
<title>ready</title>
<polygon fill="yellow" stroke="black" points="66.12,-612.72 29.88,-612.72 29.88,-593.47 66.12,-593.47 66.12,-612.72"/>
<text text-anchor="middle" x="48" y="-600.17" font-family="Times New Roman,serif" font-size="9.00">ready</text>
</g>
<!-- key 7184
bias &#45;0.116
h_scaling 0.962 -->
<g id="node4" class="node">
<title>key 7184
bias &#45;0.116
h_scaling 0.962</title>
<ellipse fill="white" stroke="black" cx="228" cy="-495.66" rx="50.56" ry="50.56"/>
<text text-anchor="middle" x="228" y="-503.98" font-family="Times New Roman,serif" font-size="9.00">key 7184</text>
<text text-anchor="middle" x="228" y="-492.73" font-family="Times New Roman,serif" font-size="9.00">bias &#45;0.116</text>
<text text-anchor="middle" x="228" y="-481.48" font-family="Times New Roman,serif" font-size="9.00">h_scaling 0.962</text>
</g>
<!-- ready&#45;&gt;key 7184
bias &#45;0.116
h_scaling 0.962 -->
<g id="edge4" class="edge">
<title>ready&#45;&gt;key 7184
bias &#45;0.116
h_scaling 0.962</title>
<path fill="none" stroke="blue" stroke-width="0.81" d="M63.35,-593.1C87.8,-578.78 136.74,-550.11 174.94,-527.74"/>
<polygon fill="blue" stroke="blue" stroke-width="0.81" points="176.54,-530.27 183.4,-522.2 173,-524.23 176.54,-530.27"/>
<text text-anchor="middle" x="122.62" y="-566.92" font-family="Times New Roman,serif" font-size="9.00">&#45;0.238</text>
</g>
<!-- key 18515
bias &#45;0.440
h_scaling 0.396 -->
<g id="node5" class="node">
<title>key 18515
bias &#45;0.440
h_scaling 0.396</title>
<ellipse fill="white" stroke="black" cx="82" cy="-198.92" rx="50.56" ry="50.56"/>
<text text-anchor="middle" x="82" y="-207.25" font-family="Times New Roman,serif" font-size="9.00">key 18515</text>
<text text-anchor="middle" x="82" y="-196" font-family="Times New Roman,serif" font-size="9.00">bias &#45;0.440</text>
<text text-anchor="middle" x="82" y="-184.75" font-family="Times New Roman,serif" font-size="9.00">h_scaling 0.396</text>
</g>
<!-- ready&#45;&gt;key 18515
bias &#45;0.440
h_scaling 0.396 -->
<g id="edge5" class="edge">
<title>ready&#45;&gt;key 18515
bias &#45;0.440
h_scaling 0.396</title>
<path fill="none" stroke="red" stroke-width="1.01" d="M47.72,-593.15C46.98,-566.28 45.35,-483.87 50.75,-415.85 54.97,-362.77 63.98,-302.87 71.24,-259.65"/>
<polygon fill="red" stroke="red" stroke-width="1.01" points="74.82,-260.48 73.05,-250.03 67.92,-259.3 74.82,-260.48"/>
<text text-anchor="middle" x="61.12" y="-418.55" font-family="Times New Roman,serif" font-size="9.00">0.303</text>
</g>
<!-- key 117952
bias 0.037
h_scaling 0.241 -->
<g id="node6" class="node">
<title>key 117952
bias 0.037
h_scaling 0.241</title>
<ellipse fill="white" stroke="black" cx="263" cy="-50.56" rx="50.56" ry="50.56"/>
<text text-anchor="middle" x="263" y="-58.88" font-family="Times New Roman,serif" font-size="9.00">key 117952</text>
<text text-anchor="middle" x="263" y="-47.63" font-family="Times New Roman,serif" font-size="9.00">bias 0.037</text>
<text text-anchor="middle" x="263" y="-36.38" font-family="Times New Roman,serif" font-size="9.00">h_scaling 0.241</text>
</g>
<!-- ready&#45;&gt;key 117952
bias 0.037
h_scaling 0.241 -->
<g id="edge13" class="edge">
<title>ready&#45;&gt;key 117952
bias 0.037
h_scaling 0.241</title>
<path fill="none" stroke="red" stroke-width="1.21" d="M40.71,-593.13C27.28,-575.69 0,-535.47 0,-496.66 0,-496.66 0,-496.66 0,-197.92 0,-105.97 124.27,-71.27 201.97,-58.57"/>
<polygon fill="red" stroke="red" stroke-width="1.21" points="202.26,-61.91 211.6,-56.92 201.18,-54.99 202.26,-61.91"/>
<text text-anchor="middle" x="10.12" y="-344.37" font-family="Times New Roman,serif" font-size="9.00">0.371</text>
</g>
<!-- go -->
<g id="node2" class="node">
<title>go</title>
<polygon fill="green" stroke="black" points="240.12,-612.72 215.88,-612.72 215.88,-593.47 240.12,-593.47 240.12,-612.72"/>
<text text-anchor="middle" x="228" y="-600.17" font-family="Times New Roman,serif" font-size="9.00">go</text>
</g>
<!-- go&#45;&gt;key 7184
bias &#45;0.116
h_scaling 0.962 -->
<g id="edge2" class="edge">
<title>go&#45;&gt;key 7184
bias &#45;0.116
h_scaling 0.962</title>
<path fill="none" stroke="red" stroke-width="2.99" d="M228,-593.1C228,-585.3 228,-573.25 228,-560.28"/>
<polygon fill="red" stroke="red" stroke-width="2.99" points="231.5,-560.57 228,-550.57 224.5,-560.57 231.5,-560.57"/>
<text text-anchor="middle" x="238.12" y="-566.92" font-family="Times New Roman,serif" font-size="9.00">0.964</text>
</g>
<!-- go&#45;&gt;key 18515
bias &#45;0.440
h_scaling 0.396 -->
<g id="edge9" class="edge">
<title>go&#45;&gt;key 18515
bias &#45;0.440
h_scaling 0.396</title>
<path fill="none" stroke="blue" stroke-width="0.74" d="M215.45,-593.08C202.13,-582.97 181.23,-565.45 168,-546.22 108.05,-459.08 89.81,-334.14 84.31,-260.58"/>
<polygon fill="blue" stroke="blue" stroke-width="0.74" points="87.74,-260.41 83.56,-250.67 80.76,-260.89 87.74,-260.41"/>
<text text-anchor="middle" x="123.62" y="-418.55" font-family="Times New Roman,serif" font-size="9.00">&#45;0.214</text>
</g>
<!-- go&#45;&gt;key 117952
bias 0.037
h_scaling 0.241 -->
<g id="edge14" class="edge">
<title>go&#45;&gt;key 117952
bias 0.037
h_scaling 0.241</title>
<path fill="none" stroke="blue" stroke-width="3.08" d="M240.57,-600.49C280.06,-594.71 399,-571.12 399,-496.66 399,-496.66 399,-496.66 399,-197.92 399,-148.26 356.45,-108.36 318.95,-82.84"/>
<polygon fill="blue" stroke="blue" stroke-width="3.08" points="320.82,-79.92 310.53,-77.39 316.99,-85.78 320.82,-79.92"/>
<text text-anchor="middle" x="410.62" y="-344.37" font-family="Times New Roman,serif" font-size="9.00">&#45;0.992</text>
</g>
<!-- output
bias &#45;0.204
h_scaling 0.938 -->
<g id="node3" class="node">
<title>output
bias &#45;0.204
h_scaling 0.938</title>
<ellipse fill="lightblue" stroke="black" cx="228" cy="-347.29" rx="50.56" ry="50.56"/>
<text text-anchor="middle" x="228" y="-355.62" font-family="Times New Roman,serif" font-size="9.00">output</text>
<text text-anchor="middle" x="228" y="-344.37" font-family="Times New Roman,serif" font-size="9.00">bias &#45;0.204</text>
<text text-anchor="middle" x="228" y="-333.12" font-family="Times New Roman,serif" font-size="9.00">h_scaling 0.938</text>
</g>
<!-- output
bias &#45;0.204
h_scaling 0.938&#45;&gt;key 18515
bias &#45;0.440
h_scaling 0.396 -->
<g id="edge8" class="edge">
<title>output
bias &#45;0.204
h_scaling 0.938&#45;&gt;key 18515
bias &#45;0.440
h_scaling 0.396</title>
<path fill="none" stroke="blue" stroke-width="0.42" d="M192.66,-310.86C172.1,-290.25 146.05,-264.13 124.39,-242.42"/>
<polygon fill="blue" stroke="blue" stroke-width="0.42" points="127.06,-240.14 117.52,-235.54 122.11,-245.09 127.06,-240.14"/>
<text text-anchor="middle" x="170.62" y="-270.18" font-family="Times New Roman,serif" font-size="9.00">&#45;0.106</text>
</g>
<!-- output
bias &#45;0.204
h_scaling 0.938&#45;&gt;key 117952
bias 0.037
h_scaling 0.241 -->
<g id="edge16" class="edge">
<title>output
bias &#45;0.204
h_scaling 0.938&#45;&gt;key 117952
bias 0.037
h_scaling 0.241</title>
<path fill="none" stroke="blue" stroke-width="0.88" d="M234.83,-297.07C236.89,-281.83 239.1,-264.97 241,-249.48 246.66,-203.37 252.44,-151.14 256.65,-111.92"/>
<polygon fill="blue" stroke="blue" stroke-width="0.88" points="260.21,-112.53 257.8,-102.21 253.25,-111.78 260.21,-112.53"/>
<text text-anchor="middle" x="263.62" y="-196" font-family="Times New Roman,serif" font-size="9.00">&#45;0.258</text>
</g>
<!-- key 7184
bias &#45;0.116
h_scaling 0.962&#45;&gt;output
bias &#45;0.204
h_scaling 0.938 -->
<g id="edge1" class="edge">
<title>key 7184
bias &#45;0.116
h_scaling 0.962&#45;&gt;output
bias &#45;0.204
h_scaling 0.938</title>
<path fill="none" stroke="blue" stroke-width="3.1" d="M228,-444.7C228,-434.1 228,-422.78 228,-411.75"/>
<polygon fill="blue" stroke="blue" stroke-width="3.1" points="231.5,-412.03 228,-402.03 224.5,-412.03 231.5,-412.03"/>
<text text-anchor="middle" x="239.62" y="-418.55" font-family="Times New Roman,serif" font-size="9.00">&#45;1.000</text>
</g>
<!-- key 7184
bias &#45;0.116
h_scaling 0.962&#45;&gt;key 7184
bias &#45;0.116
h_scaling 0.962 -->
<g id="edge3" class="edge">
<title>key 7184
bias &#45;0.116
h_scaling 0.962&#45;&gt;key 7184
bias &#45;0.116
h_scaling 0.962</title>
<path fill="none" stroke="red" stroke-width="2.62" d="M276.99,-509.26C288.27,-508.09 296.56,-503.55 296.56,-495.66 296.56,-491.09 293.79,-487.65 289.27,-485.33"/>
<polygon fill="red" stroke="red" stroke-width="2.62" points="290.56,-482.25 279.99,-483.05 288.75,-489.02 290.56,-482.25"/>
<text text-anchor="middle" x="306.68" y="-492.73" font-family="Times New Roman,serif" font-size="9.00">0.841</text>
</g>
<!-- key 7184
bias &#45;0.116
h_scaling 0.962&#45;&gt;key 117952
bias 0.037
h_scaling 0.241 -->
<g id="edge11" class="edge">
<title>key 7184
bias &#45;0.116
h_scaling 0.962&#45;&gt;key 117952
bias 0.037
h_scaling 0.241</title>
<path fill="none" stroke="blue" stroke-width="3.1" d="M273.4,-472.85C291.38,-461.76 310.28,-446.49 321,-427.1 354.12,-367.18 354.23,-182.35 328,-119.12 324.14,-109.81 318.35,-101.06 311.79,-93.14"/>
<polygon fill="blue" stroke="blue" stroke-width="3.1" points="314.78,-90.92 305.47,-85.87 309.6,-95.63 314.78,-90.92"/>
<text text-anchor="middle" x="357.62" y="-270.18" font-family="Times New Roman,serif" font-size="9.00">&#45;1.000</text>
</g>
<!-- key 18515
bias &#45;0.440
h_scaling 0.396&#45;&gt;key 7184
bias &#45;0.116
h_scaling 0.962 -->
<g id="edge6" class="edge">
<title>key 18515
bias &#45;0.440
h_scaling 0.396&#45;&gt;key 7184
bias &#45;0.116
h_scaling 0.962</title>
<path fill="none" stroke="blue" stroke-width="1.89" d="M97.58,-247.51C99.75,-254.21 101.94,-261.02 104,-267.48 122.45,-325.31 115.3,-344.77 144.75,-397.85 155.37,-416.98 170.18,-435.76 184.36,-451.6"/>
<polygon fill="blue" stroke="blue" stroke-width="1.89" points="181.81,-453.09 191.15,-458.09 186.97,-448.35 181.81,-453.09"/>
<text text-anchor="middle" x="155.62" y="-344.37" font-family="Times New Roman,serif" font-size="9.00">&#45;0.598</text>
</g>
<!-- key 18515
bias &#45;0.440
h_scaling 0.396&#45;&gt;key 18515
bias &#45;0.440
h_scaling 0.396 -->
<g id="edge7" class="edge">
<title>key 18515
bias &#45;0.440
h_scaling 0.396&#45;&gt;key 18515
bias &#45;0.440
h_scaling 0.396</title>
<path fill="none" stroke="red" stroke-width="2.76" d="M130.99,-212.53C142.27,-211.36 150.56,-206.82 150.56,-198.92 150.56,-194.73 148.22,-191.48 144.34,-189.19"/>
<polygon fill="red" stroke="red" stroke-width="2.76" points="145.57,-185.74 134.99,-186.32 143.62,-192.47 145.57,-185.74"/>
<text text-anchor="middle" x="160.68" y="-196" font-family="Times New Roman,serif" font-size="9.00">0.888</text>
</g>
<!-- key 18515
bias &#45;0.440
h_scaling 0.396&#45;&gt;key 117952
bias 0.037
h_scaling 0.241 -->
<g id="edge15" class="edge">
<title>key 18515
bias &#45;0.440
h_scaling 0.396&#45;&gt;key 117952
bias 0.037
h_scaling 0.241</title>
<path fill="none" stroke="red" stroke-width="1.55" d="M119.45,-164.33C135.62,-150.11 154.89,-133.53 172.75,-119.12 185.62,-108.73 199.83,-97.84 213.08,-87.92"/>
<polygon fill="red" stroke="red" stroke-width="1.55" points="215.61,-90.66 221.54,-81.88 211.43,-85.04 215.61,-90.66"/>
<text text-anchor="middle" x="182.12" y="-121.82" font-family="Times New Roman,serif" font-size="9.00">0.484</text>
</g>
<!-- key 117952
bias 0.037
h_scaling 0.241&#45;&gt;output
bias &#45;0.204
h_scaling 0.938 -->
<g id="edge10" class="edge">
<title>key 117952
bias 0.037
h_scaling 0.241&#45;&gt;output
bias &#45;0.204
h_scaling 0.938</title>
<path fill="none" stroke="red" stroke-width="3.1" d="M239.23,-95.59C231.76,-111.72 224.5,-130.42 220.75,-148.37 211.49,-192.73 213.69,-243.88 218,-283.07"/>
<polygon fill="red" stroke="red" stroke-width="3.1" points="215,-283.42 219.67,-292.93 221.95,-282.59 215,-283.42"/>
<text text-anchor="middle" x="230.12" y="-196" font-family="Times New Roman,serif" font-size="9.00">1.000</text>
</g>
<!-- key 117952
bias 0.037
h_scaling 0.241&#45;&gt;key 7184
bias &#45;0.116
h_scaling 0.962 -->
<g id="edge17" class="edge">
<title>key 117952
bias 0.037
h_scaling 0.241&#45;&gt;key 7184
bias &#45;0.116
h_scaling 0.962</title>
<path fill="none" stroke="blue" stroke-width="0.18" d="M276.73,-99.67C293.82,-167.55 317.38,-294.66 288,-397.85 283.07,-415.18 274.04,-432.44 264.46,-447.48"/>
<polygon fill="blue" stroke="blue" stroke-width="0.18" points="261.7,-445.32 259.11,-455.59 267.54,-449.18 261.7,-445.32"/>
<text text-anchor="middle" x="312.62" y="-270.18" font-family="Times New Roman,serif" font-size="9.00">&#45;0.026</text>
</g>
<!-- key 117952
bias 0.037
h_scaling 0.241&#45;&gt;key 117952
bias 0.037
h_scaling 0.241 -->
<g id="edge12" class="edge">
<title>key 117952
bias 0.037
h_scaling 0.241&#45;&gt;key 117952
bias 0.037
h_scaling 0.241</title>
<path fill="none" stroke="red" stroke-width="2.14" d="M311.99,-64.16C323.27,-62.99 331.56,-58.45 331.56,-50.56 331.56,-45.99 328.79,-42.55 324.27,-40.23"/>
<polygon fill="red" stroke="red" stroke-width="2.14" points="325.56,-36.15 314.99,-36.96 323.75,-42.92 325.56,-36.15"/>
<text text-anchor="middle" x="341.68" y="-47.63" font-family="Times New Roman,serif" font-size="9.00">0.681</text>
</g>
</g>
</svg>
