<?xml version="1.0" encoding="UTF-8" standalone="no"?>
<!DOCTYPE svg PUBLIC "-//W3C//DTD SVG 1.1//EN"
 "http://www.w3.org/Graphics/SVG/1.1/DTD/svg11.dtd">
<!-- Generated by graphviz version 8.0.5 (20230430.1635)
 -->
<!-- Pages: 1 -->
<svg width="235pt" height="576pt"
 viewBox="0.00 0.00 235.12 575.72" xmlns="http://www.w3.org/2000/svg" xmlns:xlink="http://www.w3.org/1999/xlink">
<g id="graph0" class="graph" transform="scale(1 1) rotate(0) translate(4 571.72)">
<polygon fill="white" stroke="none" points="-4,4 -4,-571.72 231.12,-571.72 231.12,4 -4,4"/>
<!-- ready -->
<g id="node1" class="node">
<title>ready</title>
<polygon fill="yellow" stroke="black" points="147.68,-567.72 111.43,-567.72 111.43,-548.47 147.68,-548.47 147.68,-567.72"/>
<text text-anchor="middle" x="129.56" y="-555.17" font-family="Times New Roman,serif" font-size="9.00">ready</text>
</g>
<!-- key 2931
bias &#45;0.649
h_scaling 0.295 -->
<g id="node4" class="node">
<title>key 2931
bias &#45;0.649
h_scaling 0.295</title>
<ellipse fill="white" stroke="black" cx="129.56" cy="-461.91" rx="50.56" ry="50.56"/>
<text text-anchor="middle" x="129.56" y="-470.23" font-family="Times New Roman,serif" font-size="9.00">key 2931</text>
<text text-anchor="middle" x="129.56" y="-458.98" font-family="Times New Roman,serif" font-size="9.00">bias &#45;0.649</text>
<text text-anchor="middle" x="129.56" y="-447.73" font-family="Times New Roman,serif" font-size="9.00">h_scaling 0.295</text>
</g>
<!-- ready&#45;&gt;key 2931
bias &#45;0.649
h_scaling 0.295 -->
<g id="edge11" class="edge">
<title>ready&#45;&gt;key 2931
bias &#45;0.649
h_scaling 0.295</title>
<path fill="none" stroke="red" stroke-width="1.32" d="M129.56,-548.06C129.56,-541.84 129.56,-532.97 129.56,-523.28"/>
<polygon fill="red" stroke="red" stroke-width="1.32" points="133.06,-523.54 129.56,-513.54 126.06,-523.54 133.06,-523.54"/>
</g>
<!-- go -->
<g id="node2" class="node">
<title>go</title>
<polygon fill="green" stroke="black" points="213.68,-567.72 189.43,-567.72 189.43,-548.47 213.68,-548.47 213.68,-567.72"/>
<text text-anchor="middle" x="201.56" y="-555.17" font-family="Times New Roman,serif" font-size="9.00">go</text>
</g>
<!-- go&#45;&gt;key 2931
bias &#45;0.649
h_scaling 0.295 -->
<g id="edge2" class="edge">
<title>go&#45;&gt;key 2931
bias &#45;0.649
h_scaling 0.295</title>
<path fill="none" stroke="blue" stroke-width="2.12" d="M194.65,-548.06C188.26,-539.69 178.21,-526.54 167.9,-513.06"/>
<polygon fill="blue" stroke="blue" stroke-width="2.12" points="169.87,-510.57 161.02,-504.75 164.31,-514.82 169.87,-510.57"/>
</g>
<!-- key 17642
bias &#45;0.462
h_scaling 0.837 -->
<g id="node5" class="node">
<title>key 17642
bias &#45;0.462
h_scaling 0.837</title>
<ellipse fill="white" stroke="black" cx="176.56" cy="-50.56" rx="50.56" ry="50.56"/>
<text text-anchor="middle" x="176.56" y="-58.88" font-family="Times New Roman,serif" font-size="9.00">key 17642</text>
<text text-anchor="middle" x="176.56" y="-47.63" font-family="Times New Roman,serif" font-size="9.00">bias &#45;0.462</text>
<text text-anchor="middle" x="176.56" y="-36.38" font-family="Times New Roman,serif" font-size="9.00">h_scaling 0.837</text>
</g>
<!-- go&#45;&gt;key 17642
bias &#45;0.462
h_scaling 0.837 -->
<g id="edge6" class="edge">
<title>go&#45;&gt;key 17642
bias &#45;0.462
h_scaling 0.837</title>
<path fill="none" stroke="blue" stroke-width="2.26" d="M203.1,-548.24C204.59,-539.26 206.72,-524.94 207.56,-512.47 210.56,-467.62 209.49,-456.25 207.56,-411.35 203.06,-306.83 191.26,-185.7 183.58,-114.03"/>
<polygon fill="blue" stroke="blue" stroke-width="2.26" points="186.75,-113.8 182.2,-104.23 179.79,-114.55 186.75,-113.8"/>
</g>
<!-- output
bias &#45;1.000
h_scaling 0.165 -->
<g id="node3" class="node">
<title>output
bias &#45;1.000
h_scaling 0.165</title>
<ellipse fill="lightblue" stroke="black" cx="50.56" cy="-324.79" rx="50.56" ry="50.56"/>
<text text-anchor="middle" x="50.56" y="-333.12" font-family="Times New Roman,serif" font-size="9.00">output</text>
<text text-anchor="middle" x="50.56" y="-321.87" font-family="Times New Roman,serif" font-size="9.00">bias &#45;1.000</text>
<text text-anchor="middle" x="50.56" y="-310.62" font-family="Times New Roman,serif" font-size="9.00">h_scaling 0.165</text>
</g>
<!-- key 67363
bias &#45;0.040
h_scaling 0.531 -->
<g id="node6" class="node">
<title>key 67363
bias &#45;0.040
h_scaling 0.531</title>
<ellipse fill="white" stroke="black" cx="88.56" cy="-187.67" rx="50.56" ry="50.56"/>
<text text-anchor="middle" x="88.56" y="-196" font-family="Times New Roman,serif" font-size="9.00">key 67363</text>
<text text-anchor="middle" x="88.56" y="-184.75" font-family="Times New Roman,serif" font-size="9.00">bias &#45;0.040</text>
<text text-anchor="middle" x="88.56" y="-173.5" font-family="Times New Roman,serif" font-size="9.00">h_scaling 0.531</text>
</g>
<!-- output
bias &#45;1.000
h_scaling 0.165&#45;&gt;key 67363
bias &#45;0.040
h_scaling 0.531 -->
<g id="edge12" class="edge">
<title>output
bias &#45;1.000
h_scaling 0.165&#45;&gt;key 67363
bias &#45;0.040
h_scaling 0.531</title>
<path fill="none" stroke="blue" stroke-width="1.92" d="M57.86,-274.63C60.22,-265.4 62.9,-255.68 65.69,-246.22"/>
<polygon fill="blue" stroke="blue" stroke-width="1.92" points="69.58,-247.46 69.12,-236.88 62.88,-245.43 69.58,-247.46"/>
</g>
<!-- key 2931
bias &#45;0.649
h_scaling 0.295&#45;&gt;output
bias &#45;1.000
h_scaling 0.165 -->
<g id="edge1" class="edge">
<title>key 2931
bias &#45;0.649
h_scaling 0.295&#45;&gt;output
bias &#45;1.000
h_scaling 0.165</title>
<path fill="none" stroke="red" stroke-width="2.85" d="M104.34,-417.78C97.5,-406.08 90,-393.25 82.83,-380.98"/>
<polygon fill="red" stroke="red" stroke-width="2.85" points="85.87,-378.83 77.8,-371.97 79.83,-382.37 85.87,-378.83"/>
</g>
<!-- key 2931
bias &#45;0.649
h_scaling 0.295&#45;&gt;key 2931
bias &#45;0.649
h_scaling 0.295 -->
<g id="edge3" class="edge">
<title>key 2931
bias &#45;0.649
h_scaling 0.295&#45;&gt;key 2931
bias &#45;0.649
h_scaling 0.295</title>
<path fill="none" stroke="red" stroke-width="1.07" d="M177.3,-479.69C189.21,-478.45 198.12,-472.52 198.12,-461.91 198.12,-454.78 194.1,-449.76 187.84,-446.86"/>
<polygon fill="red" stroke="red" stroke-width="1.07" points="188.86,-443.24 178.3,-444.12 187.1,-450.02 188.86,-443.24"/>
</g>
<!-- key 2931
bias &#45;0.649
h_scaling 0.295&#45;&gt;key 17642
bias &#45;0.462
h_scaling 0.837 -->
<g id="edge5" class="edge">
<title>key 2931
bias &#45;0.649
h_scaling 0.295&#45;&gt;key 17642
bias &#45;0.462
h_scaling 0.837</title>
<path fill="none" stroke="red" stroke-width="3.1" d="M130.67,-411.12C136.53,-336.47 152.56,-195.63 164.35,-114.13"/>
<polygon fill="red" stroke="red" stroke-width="3.1" points="168.39,-114.77 166.39,-104.36 161.46,-113.74 168.39,-114.77"/>
</g>
<!-- key 17642
bias &#45;0.462
h_scaling 0.837&#45;&gt;output
bias &#45;1.000
h_scaling 0.165 -->
<g id="edge7" class="edge">
<title>key 17642
bias &#45;0.462
h_scaling 0.837&#45;&gt;output
bias &#45;1.000
h_scaling 0.165</title>
<path fill="none" stroke="red" stroke-width="2.64" d="M127.9,-65.36C93.46,-77.97 49.77,-100.36 28.56,-137.12 6.31,-175.68 14.02,-226.15 26.08,-264.89"/>
<polygon fill="red" stroke="red" stroke-width="2.64" points="22.99,-266.69 29.48,-275.06 29.63,-264.47 22.99,-266.69"/>
</g>
<!-- key 17642
bias &#45;0.462
h_scaling 0.837&#45;&gt;key 2931
bias &#45;0.649
h_scaling 0.295 -->
<g id="edge4" class="edge">
<title>key 17642
bias &#45;0.462
h_scaling 0.837&#45;&gt;key 2931
bias &#45;0.649
h_scaling 0.295</title>
<path fill="none" stroke="red" stroke-width="2.53" d="M175.43,-101.54C169.54,-176.5 153.44,-317.89 141.64,-399.18"/>
<polygon fill="red" stroke="red" stroke-width="2.53" points="137.75,-398.53 139.75,-408.94 144.68,-399.56 137.75,-398.53"/>
</g>
<!-- key 67363
bias &#45;0.040
h_scaling 0.531&#45;&gt;output
bias &#45;1.000
h_scaling 0.165 -->
<g id="edge10" class="edge">
<title>key 67363
bias &#45;0.040
h_scaling 0.531&#45;&gt;output
bias &#45;1.000
h_scaling 0.165</title>
<path fill="none" stroke="blue" stroke-width="3.1" d="M81.26,-237.82C79.05,-246.46 76.56,-255.53 73.96,-264.42"/>
<polygon fill="blue" stroke="blue" stroke-width="3.1" points="70.5,-263.08 70.97,-273.67 77.2,-265.1 70.5,-263.08"/>
</g>
<!-- key 67363
bias &#45;0.040
h_scaling 0.531&#45;&gt;key 2931
bias &#45;0.649
h_scaling 0.295 -->
<g id="edge8" class="edge">
<title>key 67363
bias &#45;0.040
h_scaling 0.531&#45;&gt;key 2931
bias &#45;0.649
h_scaling 0.295</title>
<path fill="none" stroke="red" stroke-width="1.08" d="M102.29,-236.81C105.37,-248.95 108.38,-262 110.56,-274.23 118.03,-316.12 122.82,-363.85 125.73,-400.57"/>
<polygon fill="red" stroke="red" stroke-width="1.08" points="122.28,-400.4 126.53,-410.1 129.26,-399.87 122.28,-400.4"/>
</g>
<!-- key 67363
bias &#45;0.040
h_scaling 0.531&#45;&gt;key 17642
bias &#45;0.462
h_scaling 0.837 -->
<g id="edge9" class="edge">
<title>key 67363
bias &#45;0.040
h_scaling 0.531&#45;&gt;key 17642
bias &#45;0.462
h_scaling 0.837</title>
<path fill="none" stroke="red" stroke-width="1.11" d="M115.92,-144.66C124.61,-131.32 134.32,-116.41 143.37,-102.51"/>
<polygon fill="red" stroke="red" stroke-width="1.11" points="146.69,-104.83 149.21,-94.54 140.82,-101.01 146.69,-104.83"/>
</g>
</g>
</svg>
