<?xml version="1.0" encoding="UTF-8" standalone="no"?>
<!DOCTYPE svg PUBLIC "-//W3C//DTD SVG 1.1//EN"
 "http://www.w3.org/Graphics/SVG/1.1/DTD/svg11.dtd">
<!-- Generated by graphviz version 2.43.0 (0)
 -->
<!-- Title: %3 Pages: 1 -->
<svg width="540pt" height="902pt"
 viewBox="0.00 0.00 539.64 902.40" xmlns="http://www.w3.org/2000/svg" xmlns:xlink="http://www.w3.org/1999/xlink">
<g id="graph0" class="graph" transform="scale(1 1) rotate(0) translate(4 898.4)">
<title>%3</title>
<polygon fill="white" stroke="transparent" points="-4,4 -4,-898.4 535.64,-898.4 535.64,4 -4,4"/>
<!-- ready
output 0.000 -->
<g id="node1" class="node">
<title>ready
output 0.000</title>
<polygon fill="yellow" stroke="black" points="350.14,-894.4 273.14,-894.4 273.14,-866.4 350.14,-866.4 350.14,-894.4"/>
<text text-anchor="middle" x="311.64" y="-883.2" font-family="Times,serif" font-size="9.00">ready</text>
<text text-anchor="middle" x="311.64" y="-873.2" font-family="Times,serif" font-size="9.00">output 0.000</text>
</g>
<!-- key 79656
bias &#45;0.560
h_scaling 0.857
output 0.454 -->
<g id="node5" class="node">
<title>key 79656
bias &#45;0.560
h_scaling 0.857
output 0.454</title>
<ellipse fill="white" stroke="black" cx="173.64" cy="-756.76" rx="63.78" ry="63.78"/>
<text text-anchor="middle" x="173.64" y="-769.56" font-family="Times,serif" font-size="9.00">key 79656</text>
<text text-anchor="middle" x="173.64" y="-759.56" font-family="Times,serif" font-size="9.00">bias &#45;0.560</text>
<text text-anchor="middle" x="173.64" y="-749.56" font-family="Times,serif" font-size="9.00">h_scaling 0.857</text>
<text text-anchor="middle" x="173.64" y="-739.56" font-family="Times,serif" font-size="9.00">output 0.454</text>
</g>
<!-- ready
output 0.000&#45;&gt;key 79656
bias &#45;0.560
h_scaling 0.857
output 0.454 -->
<g id="edge13" class="edge">
<title>ready
output 0.000&#45;&gt;key 79656
bias &#45;0.560
h_scaling 0.857
output 0.454</title>
<path fill="none" stroke="red" stroke-width="0.1" d="M292.87,-866.29C285.48,-860.93 277.01,-854.56 269.64,-848.4 255.1,-836.24 239.93,-822.48 226.07,-809.42"/>
<polygon fill="red" stroke="red" stroke-width="0.1" points="228.17,-806.6 218.51,-802.25 223.36,-811.67 228.17,-806.6"/>
<text text-anchor="middle" x="283.64" y="-841.2" font-family="Times,serif" font-size="9.00">1.126</text>
</g>
<!-- key 9097
bias 0.049
h_scaling 0.601
output 0.572 -->
<g id="node6" class="node">
<title>key 9097
bias 0.049
h_scaling 0.601
output 0.572</title>
<ellipse fill="white" stroke="black" cx="298.64" cy="-410.2" rx="63.78" ry="63.78"/>
<text text-anchor="middle" x="298.64" y="-423" font-family="Times,serif" font-size="9.00">key 9097</text>
<text text-anchor="middle" x="298.64" y="-413" font-family="Times,serif" font-size="9.00">bias 0.049</text>
<text text-anchor="middle" x="298.64" y="-403" font-family="Times,serif" font-size="9.00">h_scaling 0.601</text>
<text text-anchor="middle" x="298.64" y="-393" font-family="Times,serif" font-size="9.00">output 0.572</text>
</g>
<!-- ready
output 0.000&#45;&gt;key 9097
bias 0.049
h_scaling 0.601
output 0.572 -->
<g id="edge8" class="edge">
<title>ready
output 0.000&#45;&gt;key 9097
bias 0.049
h_scaling 0.601
output 0.572</title>
<path fill="none" stroke="red" stroke-width="0.1" d="M311.28,-866.39C309.76,-811.69 303.83,-597.99 300.66,-483.91"/>
<polygon fill="red" stroke="red" stroke-width="0.1" points="304.16,-483.76 300.38,-473.86 297.16,-483.95 304.16,-483.76"/>
<text text-anchor="middle" x="320.64" y="-667.92" font-family="Times,serif" font-size="9.00">0.580</text>
</g>
<!-- key 2632
bias 0.179
h_scaling 0.300
output 0.975 -->
<g id="node8" class="node">
<title>key 2632
bias 0.179
h_scaling 0.300
output 0.975</title>
<ellipse fill="white" stroke="black" cx="275.64" cy="-63.64" rx="63.78" ry="63.78"/>
<text text-anchor="middle" x="275.64" y="-76.44" font-family="Times,serif" font-size="9.00">key 2632</text>
<text text-anchor="middle" x="275.64" y="-66.44" font-family="Times,serif" font-size="9.00">bias 0.179</text>
<text text-anchor="middle" x="275.64" y="-56.44" font-family="Times,serif" font-size="9.00">h_scaling 0.300</text>
<text text-anchor="middle" x="275.64" y="-46.44" font-family="Times,serif" font-size="9.00">output 0.975</text>
</g>
<!-- ready
output 0.000&#45;&gt;key 2632
bias 0.179
h_scaling 0.300
output 0.975 -->
<g id="edge18" class="edge">
<title>ready
output 0.000&#45;&gt;key 2632
bias 0.179
h_scaling 0.300
output 0.975</title>
<path fill="none" stroke="blue" stroke-width="0.1" d="M350.34,-872.48C405.64,-860.12 500.64,-828.58 500.64,-757.76 500.64,-757.76 500.64,-757.76 500.64,-235.92 500.64,-157.19 412.35,-109.89 346.38,-85.53"/>
<polygon fill="blue" stroke="blue" stroke-width="0.1" points="347.42,-82.18 336.82,-82.1 345.06,-88.77 347.42,-82.18"/>
<text text-anchor="middle" x="516.14" y="-494.64" font-family="Times,serif" font-size="9.00">&#45;0.157</text>
</g>
<!-- go
output 0.000 -->
<g id="node2" class="node">
<title>go
output 0.000</title>
<polygon fill="green" stroke="black" points="437.14,-597.48 360.14,-597.48 360.14,-569.48 437.14,-569.48 437.14,-597.48"/>
<text text-anchor="middle" x="398.64" y="-586.28" font-family="Times,serif" font-size="9.00">go</text>
<text text-anchor="middle" x="398.64" y="-576.28" font-family="Times,serif" font-size="9.00">output 0.000</text>
</g>
<!-- go
output 0.000&#45;&gt;key 9097
bias 0.049
h_scaling 0.601
output 0.572 -->
<g id="edge7" class="edge">
<title>go
output 0.000&#45;&gt;key 9097
bias 0.049
h_scaling 0.601
output 0.572</title>
<path fill="none" stroke="blue" stroke-width="0.1" d="M390.96,-569.32C379.15,-549.1 355.79,-509.08 335.52,-474.36"/>
<polygon fill="blue" stroke="blue" stroke-width="0.1" points="338.5,-472.54 330.44,-465.66 332.46,-476.06 338.5,-472.54"/>
<text text-anchor="middle" x="364.14" y="-494.64" font-family="Times,serif" font-size="9.00">&#45;0.960</text>
</g>
<!-- key 29354
bias &#45;0.417
h_scaling 0.263
output 0.089 -->
<g id="node7" class="node">
<title>key 29354
bias &#45;0.417
h_scaling 0.263
output 0.089</title>
<ellipse fill="white" stroke="black" cx="198.64" cy="-236.92" rx="63.78" ry="63.78"/>
<text text-anchor="middle" x="198.64" y="-249.72" font-family="Times,serif" font-size="9.00">key 29354</text>
<text text-anchor="middle" x="198.64" y="-239.72" font-family="Times,serif" font-size="9.00">bias &#45;0.417</text>
<text text-anchor="middle" x="198.64" y="-229.72" font-family="Times,serif" font-size="9.00">h_scaling 0.263</text>
<text text-anchor="middle" x="198.64" y="-219.72" font-family="Times,serif" font-size="9.00">output 0.089</text>
</g>
<!-- go
output 0.000&#45;&gt;key 29354
bias &#45;0.417
h_scaling 0.263
output 0.089 -->
<g id="edge19" class="edge">
<title>go
output 0.000&#45;&gt;key 29354
bias &#45;0.417
h_scaling 0.263
output 0.089</title>
<path fill="none" stroke="blue" stroke-width="0.1" d="M401.15,-569.23C407.65,-530.8 421.27,-417.49 371.64,-346.56 345.43,-309.1 318.35,-324.88 279.64,-300.56 271.79,-295.63 263.78,-290.11 256,-284.44"/>
<polygon fill="blue" stroke="blue" stroke-width="0.1" points="257.78,-281.4 247.66,-278.26 253.61,-287.03 257.78,-281.4"/>
<text text-anchor="middle" x="422.14" y="-408" font-family="Times,serif" font-size="9.00">&#45;0.676</text>
</g>
<!-- go
output 0.000&#45;&gt;key 2632
bias 0.179
h_scaling 0.300
output 0.975 -->
<g id="edge2" class="edge">
<title>go
output 0.000&#45;&gt;key 2632
bias 0.179
h_scaling 0.300
output 0.975</title>
<path fill="none" stroke="red" stroke-width="0.1" d="M405.78,-569.25C416.11,-549.28 434.76,-509.9 441.64,-473.84 452.24,-418.27 456.51,-401.14 441.64,-346.56 418.41,-261.34 362.15,-175.62 321.55,-121.46"/>
<polygon fill="red" stroke="red" stroke-width="0.1" points="324.26,-119.23 315.43,-113.37 318.68,-123.45 324.26,-119.23"/>
<text text-anchor="middle" x="449.64" y="-321.36" font-family="Times,serif" font-size="9.00">1.053</text>
</g>
<!-- output
bias &#45;0.510
h_scaling 0.022
output 0.009 -->
<g id="node3" class="node">
<title>output
bias &#45;0.510
h_scaling 0.022
output 0.009</title>
<ellipse fill="lightblue" stroke="black" cx="63.64" cy="-583.48" rx="63.78" ry="63.78"/>
<text text-anchor="middle" x="63.64" y="-596.28" font-family="Times,serif" font-size="9.00">output</text>
<text text-anchor="middle" x="63.64" y="-586.28" font-family="Times,serif" font-size="9.00">bias &#45;0.510</text>
<text text-anchor="middle" x="63.64" y="-576.28" font-family="Times,serif" font-size="9.00">h_scaling 0.022</text>
<text text-anchor="middle" x="63.64" y="-566.28" font-family="Times,serif" font-size="9.00">output 0.009</text>
</g>
<!-- output
bias &#45;0.510
h_scaling 0.022
output 0.009&#45;&gt;key 9097
bias 0.049
h_scaling 0.601
output 0.572 -->
<g id="edge10" class="edge">
<title>output
bias &#45;0.510
h_scaling 0.022
output 0.009&#45;&gt;key 9097
bias 0.049
h_scaling 0.601
output 0.572</title>
<path fill="none" stroke="blue" stroke-width="0.1" d="M110.08,-539.49C118.34,-532.6 127.06,-525.78 135.64,-519.84 170.95,-495.37 184.86,-497.6 220.64,-473.84 227.81,-469.07 235.14,-463.8 242.28,-458.4"/>
<polygon fill="blue" stroke="blue" stroke-width="0.1" points="244.77,-460.9 250.56,-452.02 240.5,-455.35 244.77,-460.9"/>
<text text-anchor="middle" x="204.14" y="-494.64" font-family="Times,serif" font-size="9.00">&#45;0.802</text>
</g>
<!-- output
bias &#45;0.510
h_scaling 0.022
output 0.009&#45;&gt;key 29354
bias &#45;0.417
h_scaling 0.263
output 0.089 -->
<g id="edge20" class="edge">
<title>output
bias &#45;0.510
h_scaling 0.022
output 0.009&#45;&gt;key 29354
bias &#45;0.417
h_scaling 0.263
output 0.089</title>
<path fill="none" stroke="red" stroke-width="0.1" d="M86.54,-524.03C110.19,-463.67 147.06,-369.57 172,-305.92"/>
<polygon fill="red" stroke="red" stroke-width="0.1" points="175.35,-306.95 175.74,-296.37 168.83,-304.4 175.35,-306.95"/>
<text text-anchor="middle" x="169.64" y="-408" font-family="Times,serif" font-size="9.00">0.270</text>
</g>
<!-- key 77924
bias &#45;0.440
h_scaling 0.863
output 0.651 -->
<g id="node4" class="node">
<title>key 77924
bias &#45;0.440
h_scaling 0.863
output 0.651</title>
<ellipse fill="white" stroke="black" cx="208.64" cy="-583.48" rx="63.78" ry="63.78"/>
<text text-anchor="middle" x="208.64" y="-596.28" font-family="Times,serif" font-size="9.00">key 77924</text>
<text text-anchor="middle" x="208.64" y="-586.28" font-family="Times,serif" font-size="9.00">bias &#45;0.440</text>
<text text-anchor="middle" x="208.64" y="-576.28" font-family="Times,serif" font-size="9.00">h_scaling 0.863</text>
<text text-anchor="middle" x="208.64" y="-566.28" font-family="Times,serif" font-size="9.00">output 0.651</text>
</g>
<!-- key 77924
bias &#45;0.440
h_scaling 0.863
output 0.651&#45;&gt;key 9097
bias 0.049
h_scaling 0.601
output 0.572 -->
<g id="edge12" class="edge">
<title>key 77924
bias &#45;0.440
h_scaling 0.863
output 0.651&#45;&gt;key 9097
bias 0.049
h_scaling 0.601
output 0.572</title>
<path fill="none" stroke="red" stroke-width="0.1" d="M237.86,-526.87C246.39,-510.63 255.79,-492.75 264.59,-475.99"/>
<polygon fill="red" stroke="red" stroke-width="0.1" points="267.86,-477.3 269.41,-466.82 261.66,-474.05 267.86,-477.3"/>
<text text-anchor="middle" x="267.64" y="-494.64" font-family="Times,serif" font-size="9.00">0.327</text>
</g>
<!-- key 77924
bias &#45;0.440
h_scaling 0.863
output 0.651&#45;&gt;key 29354
bias &#45;0.417
h_scaling 0.263
output 0.089 -->
<g id="edge15" class="edge">
<title>key 77924
bias &#45;0.440
h_scaling 0.863
output 0.651&#45;&gt;key 29354
bias &#45;0.417
h_scaling 0.263
output 0.089</title>
<path fill="none" stroke="red" stroke-width="0.1" d="M201.25,-520.23C199.75,-505.07 198.4,-488.89 197.64,-473.84 194.88,-419.15 195.27,-357.24 196.28,-310.57"/>
<polygon fill="red" stroke="red" stroke-width="0.1" points="199.78,-310.63 196.51,-300.55 192.78,-310.46 199.78,-310.63"/>
<text text-anchor="middle" x="211.64" y="-408" font-family="Times,serif" font-size="9.00">0.848</text>
</g>
<!-- key 79656
bias &#45;0.560
h_scaling 0.857
output 0.454&#45;&gt;output
bias &#45;0.510
h_scaling 0.022
output 0.009 -->
<g id="edge16" class="edge">
<title>key 79656
bias &#45;0.560
h_scaling 0.857
output 0.454&#45;&gt;output
bias &#45;0.510
h_scaling 0.022
output 0.009</title>
<path fill="none" stroke="red" stroke-width="0.1" d="M139.44,-702.5C127.95,-684.61 115.04,-664.52 103.18,-646.04"/>
<polygon fill="red" stroke="red" stroke-width="0.1" points="105.98,-643.93 97.63,-637.4 100.09,-647.71 105.98,-643.93"/>
<text text-anchor="middle" x="132.64" y="-667.92" font-family="Times,serif" font-size="9.00">0.276</text>
</g>
<!-- key 79656
bias &#45;0.560
h_scaling 0.857
output 0.454&#45;&gt;key 77924
bias &#45;0.440
h_scaling 0.863
output 0.651 -->
<g id="edge14" class="edge">
<title>key 79656
bias &#45;0.560
h_scaling 0.857
output 0.454&#45;&gt;key 77924
bias &#45;0.440
h_scaling 0.863
output 0.651</title>
<path fill="none" stroke="red" stroke-width="0.1" d="M186.28,-693.92C188.79,-681.6 191.46,-668.56 194.04,-655.94"/>
<polygon fill="red" stroke="red" stroke-width="0.1" points="197.51,-656.43 196.08,-645.93 190.65,-655.03 197.51,-656.43"/>
<text text-anchor="middle" x="205.64" y="-667.92" font-family="Times,serif" font-size="9.00">1.190</text>
</g>
<!-- key 79656
bias &#45;0.560
h_scaling 0.857
output 0.454&#45;&gt;key 79656
bias &#45;0.560
h_scaling 0.857
output 0.454 -->
<g id="edge17" class="edge">
<title>key 79656
bias &#45;0.560
h_scaling 0.857
output 0.454&#45;&gt;key 79656
bias &#45;0.560
h_scaling 0.857
output 0.454</title>
<path fill="none" stroke="red" stroke-width="0.1" d="M235.58,-772.05C247.14,-770.17 255.28,-765.07 255.28,-756.76 255.28,-751.04 251.43,-746.84 245.27,-744.17"/>
<polygon fill="red" stroke="red" stroke-width="0.1" points="246.16,-740.78 235.58,-741.46 244.27,-747.52 246.16,-740.78"/>
<text text-anchor="middle" x="269.28" y="-754.56" font-family="Times,serif" font-size="9.00">1.128</text>
</g>
<!-- key 9097
bias 0.049
h_scaling 0.601
output 0.572&#45;&gt;key 29354
bias &#45;0.417
h_scaling 0.263
output 0.089 -->
<g id="edge4" class="edge">
<title>key 9097
bias 0.049
h_scaling 0.601
output 0.572&#45;&gt;key 29354
bias &#45;0.417
h_scaling 0.263
output 0.089</title>
<path fill="none" stroke="red" stroke-width="0.1" d="M266.72,-354.53C256.84,-337.61 245.87,-318.82 235.68,-301.35"/>
<polygon fill="red" stroke="red" stroke-width="0.1" points="238.49,-299.23 230.42,-292.36 232.44,-302.76 238.49,-299.23"/>
<text text-anchor="middle" x="262.64" y="-321.36" font-family="Times,serif" font-size="9.00">0.942</text>
</g>
<!-- key 9097
bias 0.049
h_scaling 0.601
output 0.572&#45;&gt;key 2632
bias 0.179
h_scaling 0.300
output 0.975 -->
<g id="edge9" class="edge">
<title>key 9097
bias 0.049
h_scaling 0.601
output 0.572&#45;&gt;key 2632
bias 0.179
h_scaling 0.300
output 0.975</title>
<path fill="none" stroke="blue" stroke-width="0.1" d="M294.45,-346.4C290.51,-287.47 284.63,-199.36 280.5,-137.39"/>
<polygon fill="blue" stroke="blue" stroke-width="0.1" points="283.98,-137.04 279.82,-127.3 277,-137.51 283.98,-137.04"/>
<text text-anchor="middle" x="307.14" y="-234.72" font-family="Times,serif" font-size="9.00">&#45;0.612</text>
</g>
<!-- key 29354
bias &#45;0.417
h_scaling 0.263
output 0.089&#45;&gt;output
bias &#45;0.510
h_scaling 0.022
output 0.009 -->
<g id="edge11" class="edge">
<title>key 29354
bias &#45;0.417
h_scaling 0.263
output 0.089&#45;&gt;output
bias &#45;0.510
h_scaling 0.022
output 0.009</title>
<path fill="none" stroke="red" stroke-width="0.1" d="M144.42,-270.43C118.43,-289.17 89.73,-315.23 74.64,-346.56 50.17,-397.34 48.81,-461.61 52.8,-510.24"/>
<polygon fill="red" stroke="red" stroke-width="0.1" points="49.33,-510.73 53.72,-520.37 56.3,-510.1 49.33,-510.73"/>
<text text-anchor="middle" x="88.64" y="-408" font-family="Times,serif" font-size="9.00">1.002</text>
</g>
<!-- key 29354
bias &#45;0.417
h_scaling 0.263
output 0.089&#45;&gt;key 2632
bias 0.179
h_scaling 0.300
output 0.975 -->
<g id="edge5" class="edge">
<title>key 29354
bias &#45;0.417
h_scaling 0.263
output 0.089&#45;&gt;key 2632
bias 0.179
h_scaling 0.300
output 0.975</title>
<path fill="none" stroke="blue" stroke-width="0.1" d="M224.49,-178.41C231.26,-163.36 238.61,-147.01 245.58,-131.51"/>
<polygon fill="blue" stroke="blue" stroke-width="0.1" points="248.95,-132.55 249.85,-122 242.56,-129.68 248.95,-132.55"/>
<text text-anchor="middle" x="253.14" y="-148.08" font-family="Times,serif" font-size="9.00">&#45;0.630</text>
</g>
<!-- key 2632
bias 0.179
h_scaling 0.300
output 0.975&#45;&gt;output
bias &#45;0.510
h_scaling 0.022
output 0.009 -->
<g id="edge1" class="edge">
<title>key 2632
bias 0.179
h_scaling 0.300
output 0.975&#45;&gt;output
bias &#45;0.510
h_scaling 0.022
output 0.009</title>
<path fill="none" stroke="blue" stroke-width="0.1" d="M220.34,-95.73C189.6,-115.05 152.29,-142.12 125.64,-173.28 78.54,-228.35 73.5,-249.47 51.64,-318.56 31.67,-381.65 38.02,-457.45 47.37,-511.59"/>
<polygon fill="blue" stroke="blue" stroke-width="0.1" points="43.92,-512.22 49.14,-521.45 50.81,-510.98 43.92,-512.22"/>
<text text-anchor="middle" x="67.14" y="-321.36" font-family="Times,serif" font-size="9.00">&#45;1.000</text>
</g>
<!-- key 2632
bias 0.179
h_scaling 0.300
output 0.975&#45;&gt;key 29354
bias &#45;0.417
h_scaling 0.263
output 0.089 -->
<g id="edge6" class="edge">
<title>key 2632
bias 0.179
h_scaling 0.300
output 0.975&#45;&gt;key 29354
bias &#45;0.417
h_scaling 0.263
output 0.089</title>
<path fill="none" stroke="blue" stroke-width="0.1" d="M228.09,-106.33C217.9,-117.86 208.45,-131.13 202.64,-145.28 200.28,-151.02 198.56,-157.13 197.32,-163.38"/>
<polygon fill="blue" stroke="blue" stroke-width="0.1" points="193.86,-162.83 195.77,-173.25 200.78,-163.92 193.86,-162.83"/>
<text text-anchor="middle" x="218.14" y="-148.08" font-family="Times,serif" font-size="9.00">&#45;0.895</text>
</g>
<!-- key 2632
bias 0.179
h_scaling 0.300
output 0.975&#45;&gt;key 2632
bias 0.179
h_scaling 0.300
output 0.975 -->
<g id="edge3" class="edge">
<title>key 2632
bias 0.179
h_scaling 0.300
output 0.975&#45;&gt;key 2632
bias 0.179
h_scaling 0.300
output 0.975</title>
<path fill="none" stroke="red" stroke-width="0.1" d="M337.58,-78.94C349.14,-77.05 357.28,-71.95 357.28,-63.64 357.28,-57.92 353.43,-53.73 347.27,-51.05"/>
<polygon fill="red" stroke="red" stroke-width="0.1" points="348.16,-47.66 337.58,-48.34 346.27,-54.4 348.16,-47.66"/>
<text text-anchor="middle" x="371.28" y="-61.44" font-family="Times,serif" font-size="9.00">1.006</text>
</g>
</g>
</svg>
