<?xml version="1.0" encoding="UTF-8" standalone="no"?>
<!DOCTYPE svg PUBLIC "-//W3C//DTD SVG 1.1//EN"
 "http://www.w3.org/Graphics/SVG/1.1/DTD/svg11.dtd">
<!-- Generated by graphviz version 2.43.0 (0)
 -->
<!-- Title: %3 Pages: 1 -->
<svg width="274pt" height="679pt"
 viewBox="0.00 0.00 274.28 679.12" xmlns="http://www.w3.org/2000/svg" xmlns:xlink="http://www.w3.org/1999/xlink">
<g id="graph0" class="graph" transform="scale(1 1) rotate(0) translate(4 675.12)">
<title>%3</title>
<polygon fill="white" stroke="transparent" points="-4,4 -4,-675.12 270.28,-675.12 270.28,4 -4,4"/>
<!-- ready -->
<g id="node1" class="node">
<title>ready</title>
<polygon fill="yellow" stroke="black" points="177.14,-671.12 134.14,-671.12 134.14,-653.12 177.14,-653.12 177.14,-671.12"/>
<text text-anchor="middle" x="155.64" y="-659.92" font-family="Times,serif" font-size="9.00">ready</text>
</g>
<!-- key 2931
bias &#45;0.649
h_scaling 0.295 -->
<g id="node4" class="node">
<title>key 2931
bias &#45;0.649
h_scaling 0.295</title>
<ellipse fill="white" stroke="black" cx="155.64" cy="-553.48" rx="63.78" ry="63.78"/>
<text text-anchor="middle" x="155.64" y="-561.28" font-family="Times,serif" font-size="9.00">key 2931</text>
<text text-anchor="middle" x="155.64" y="-551.28" font-family="Times,serif" font-size="9.00">bias &#45;0.649</text>
<text text-anchor="middle" x="155.64" y="-541.28" font-family="Times,serif" font-size="9.00">h_scaling 0.295</text>
</g>
<!-- ready&#45;&gt;key 2931
bias &#45;0.649
h_scaling 0.295 -->
<g id="edge11" class="edge">
<title>ready&#45;&gt;key 2931
bias &#45;0.649
h_scaling 0.295</title>
<path fill="none" stroke="red" stroke-width="2.13" d="M155.64,-653.1C155.64,-646.93 155.64,-637.74 155.64,-627.4"/>
<polygon fill="red" stroke="red" stroke-width="2.13" points="159.14,-627.19 155.64,-617.19 152.14,-627.19 159.14,-627.19"/>
</g>
<!-- go -->
<g id="node2" class="node">
<title>go</title>
<polygon fill="green" stroke="black" points="251.64,-671.12 223.64,-671.12 223.64,-653.12 251.64,-653.12 251.64,-671.12"/>
<text text-anchor="middle" x="237.64" y="-659.92" font-family="Times,serif" font-size="9.00">go</text>
</g>
<!-- go&#45;&gt;key 2931
bias &#45;0.649
h_scaling 0.295 -->
<g id="edge2" class="edge">
<title>go&#45;&gt;key 2931
bias &#45;0.649
h_scaling 0.295</title>
<path fill="none" stroke="blue" stroke-width="3.47" d="M231.48,-653.1C224.59,-644.15 212.8,-628.81 200.54,-612.87"/>
<polygon fill="blue" stroke="blue" stroke-width="3.47" points="202.98,-610.3 194.11,-604.5 197.43,-614.56 202.98,-610.3"/>
</g>
<!-- key 17642
bias &#45;0.462
h_scaling 0.837 -->
<g id="node5" class="node">
<title>key 17642
bias &#45;0.462
h_scaling 0.837</title>
<ellipse fill="white" stroke="black" cx="202.64" cy="-63.64" rx="63.78" ry="63.78"/>
<text text-anchor="middle" x="202.64" y="-71.44" font-family="Times,serif" font-size="9.00">key 17642</text>
<text text-anchor="middle" x="202.64" y="-61.44" font-family="Times,serif" font-size="9.00">bias &#45;0.462</text>
<text text-anchor="middle" x="202.64" y="-51.44" font-family="Times,serif" font-size="9.00">h_scaling 0.837</text>
</g>
<!-- go&#45;&gt;key 17642
bias &#45;0.462
h_scaling 0.837 -->
<g id="edge6" class="edge">
<title>go&#45;&gt;key 17642
bias &#45;0.462
h_scaling 0.837</title>
<path fill="none" stroke="blue" stroke-width="3.7" d="M239.79,-653.08C242.02,-644.32 245.35,-629.84 246.64,-617.12 252.34,-560.84 249.55,-546.33 246.64,-489.84 240.22,-365.38 223.29,-221.25 212.4,-136.8"/>
<polygon fill="blue" stroke="blue" stroke-width="3.7" points="215.86,-136.27 211.1,-126.81 208.92,-137.17 215.86,-136.27"/>
</g>
<!-- key output
bias &#45;1.000
h_scaling 0.165 -->
<g id="node3" class="node">
<title>key output
bias &#45;1.000
h_scaling 0.165</title>
<ellipse fill="lightblue" stroke="black" cx="63.64" cy="-390.2" rx="63.78" ry="63.78"/>
<text text-anchor="middle" x="63.64" y="-398" font-family="Times,serif" font-size="9.00">key output</text>
<text text-anchor="middle" x="63.64" y="-388" font-family="Times,serif" font-size="9.00">bias &#45;1.000</text>
<text text-anchor="middle" x="63.64" y="-378" font-family="Times,serif" font-size="9.00">h_scaling 0.165</text>
</g>
<!-- key 67363
bias &#45;0.040
h_scaling 0.531 -->
<g id="node6" class="node">
<title>key 67363
bias &#45;0.040
h_scaling 0.531</title>
<ellipse fill="white" stroke="black" cx="101.64" cy="-226.92" rx="63.78" ry="63.78"/>
<text text-anchor="middle" x="101.64" y="-234.72" font-family="Times,serif" font-size="9.00">key 67363</text>
<text text-anchor="middle" x="101.64" y="-224.72" font-family="Times,serif" font-size="9.00">bias &#45;0.040</text>
<text text-anchor="middle" x="101.64" y="-214.72" font-family="Times,serif" font-size="9.00">h_scaling 0.531</text>
</g>
<!-- key output
bias &#45;1.000
h_scaling 0.165&#45;&gt;key 67363
bias &#45;0.040
h_scaling 0.531 -->
<g id="edge12" class="edge">
<title>key output
bias &#45;1.000
h_scaling 0.165&#45;&gt;key 67363
bias &#45;0.040
h_scaling 0.531</title>
<path fill="none" stroke="blue" stroke-width="3.14" d="M71.74,-326.84C73.87,-317.07 76.23,-306.92 78.67,-297.01"/>
<polygon fill="blue" stroke="blue" stroke-width="3.14" points="82.1,-297.75 81.14,-287.2 75.31,-296.04 82.1,-297.75"/>
</g>
<!-- key 2931
bias &#45;0.649
h_scaling 0.295&#45;&gt;key output
bias &#45;1.000
h_scaling 0.165 -->
<g id="edge1" class="edge">
<title>key 2931
bias &#45;0.649
h_scaling 0.295&#45;&gt;key output
bias &#45;1.000
h_scaling 0.165</title>
<path fill="none" stroke="red" stroke-width="4.68" d="M124.49,-497.88C116.55,-483.95 107.94,-468.87 99.78,-454.54"/>
<polygon fill="red" stroke="red" stroke-width="4.68" points="103.27,-452.4 94.75,-445.74 96.15,-456.46 103.27,-452.4"/>
</g>
<!-- key 2931
bias &#45;0.649
h_scaling 0.295&#45;&gt;key 2931
bias &#45;0.649
h_scaling 0.295 -->
<g id="edge3" class="edge">
<title>key 2931
bias &#45;0.649
h_scaling 0.295&#45;&gt;key 2931
bias &#45;0.649
h_scaling 0.295</title>
<path fill="none" stroke="red" stroke-width="1.72" d="M216.52,-572.89C228.64,-570.71 237.28,-564.24 237.28,-553.48 237.28,-545.91 233.01,-540.47 226.26,-537.14"/>
<polygon fill="red" stroke="red" stroke-width="1.72" points="227.11,-533.74 216.52,-534.06 225,-540.42 227.11,-533.74"/>
</g>
<!-- key 2931
bias &#45;0.649
h_scaling 0.295&#45;&gt;key 17642
bias &#45;0.462
h_scaling 0.837 -->
<g id="edge5" class="edge">
<title>key 2931
bias &#45;0.649
h_scaling 0.295&#45;&gt;key 17642
bias &#45;0.462
h_scaling 0.837</title>
<path fill="none" stroke="red" stroke-width="5.1" d="M156.99,-489.7C163.07,-399.07 179.08,-232.02 190.76,-136.55"/>
<polygon fill="red" stroke="red" stroke-width="5.1" points="195.21,-136.88 192.02,-126.41 186.36,-135.78 195.21,-136.88"/>
</g>
<!-- key 17642
bias &#45;0.462
h_scaling 0.837&#45;&gt;key output
bias &#45;1.000
h_scaling 0.165 -->
<g id="edge7" class="edge">
<title>key 17642
bias &#45;0.462
h_scaling 0.837&#45;&gt;key output
bias &#45;1.000
h_scaling 0.165</title>
<path fill="none" stroke="red" stroke-width="4.34" d="M141.19,-81.8C101.44,-96.45 52.76,-121.87 28.64,-163.28 0.32,-211.89 14.09,-275.92 32.02,-323.4"/>
<polygon fill="red" stroke="red" stroke-width="4.34" points="28.59,-325.05 35.77,-332.97 35.66,-322.27 28.59,-325.05"/>
</g>
<!-- key 17642
bias &#45;0.462
h_scaling 0.837&#45;&gt;key 2931
bias &#45;0.649
h_scaling 0.295 -->
<g id="edge4" class="edge">
<title>key 17642
bias &#45;0.462
h_scaling 0.837&#45;&gt;key 2931
bias &#45;0.649
h_scaling 0.295</title>
<path fill="none" stroke="red" stroke-width="4.15" d="M201.29,-127.46C195.2,-218.1 179.2,-385.1 167.52,-480.55"/>
<polygon fill="red" stroke="red" stroke-width="4.15" points="163.9,-480.32 166.27,-490.69 171.1,-481.21 163.9,-480.32"/>
</g>
<!-- key 67363
bias &#45;0.040
h_scaling 0.531&#45;&gt;key output
bias &#45;1.000
h_scaling 0.165 -->
<g id="edge10" class="edge">
<title>key 67363
bias &#45;0.040
h_scaling 0.531&#45;&gt;key output
bias &#45;1.000
h_scaling 0.165</title>
<path fill="none" stroke="blue" stroke-width="5.1" d="M93.55,-290.24C91.43,-299.94 89.09,-310.01 86.67,-319.86"/>
<polygon fill="blue" stroke="blue" stroke-width="5.1" points="82.33,-318.82 84.22,-329.6 90.99,-320.99 82.33,-318.82"/>
</g>
<!-- key 67363
bias &#45;0.040
h_scaling 0.531&#45;&gt;key 2931
bias &#45;0.649
h_scaling 0.295 -->
<g id="edge8" class="edge">
<title>key 67363
bias &#45;0.040
h_scaling 0.531&#45;&gt;key 2931
bias &#45;0.649
h_scaling 0.295</title>
<path fill="none" stroke="red" stroke-width="1.73" d="M125.08,-286.14C129.57,-299.25 133.77,-313.24 136.64,-326.56 147.5,-376.89 152.22,-434.77 154.24,-479.35"/>
<polygon fill="red" stroke="red" stroke-width="1.73" points="150.75,-479.67 154.67,-489.51 157.74,-479.37 150.75,-479.67"/>
</g>
<!-- key 67363
bias &#45;0.040
h_scaling 0.531&#45;&gt;key 17642
bias &#45;0.462
h_scaling 0.837 -->
<g id="edge9" class="edge">
<title>key 67363
bias &#45;0.040
h_scaling 0.531&#45;&gt;key 17642
bias &#45;0.462
h_scaling 0.837</title>
<path fill="none" stroke="red" stroke-width="1.79" d="M134.99,-172.66C144.16,-158.01 154.2,-142 163.66,-126.89"/>
<polygon fill="red" stroke="red" stroke-width="1.79" points="166.81,-128.45 169.15,-118.11 160.88,-124.73 166.81,-128.45"/>
</g>
</g>
</svg>
