<?xml version="1.0" encoding="UTF-8" standalone="no"?>
<!DOCTYPE svg PUBLIC "-//W3C//DTD SVG 1.1//EN"
 "http://www.w3.org/Graphics/SVG/1.1/DTD/svg11.dtd">
<!-- Generated by graphviz version 2.43.0 (0)
 -->
<!-- Title: %3 Pages: 1 -->
<svg width="383pt" height="842pt"
 viewBox="0.00 0.00 383.28 842.40" xmlns="http://www.w3.org/2000/svg" xmlns:xlink="http://www.w3.org/1999/xlink">
<g id="graph0" class="graph" transform="scale(1 1) rotate(0) translate(4 838.4)">
<title>%3</title>
<polygon fill="white" stroke="transparent" points="-4,4 -4,-838.4 379.28,-838.4 379.28,4 -4,4"/>
<!-- ready -->
<g id="node1" class="node">
<title>ready</title>
<polygon fill="yellow" stroke="black" points="85.14,-834.4 42.14,-834.4 42.14,-816.4 85.14,-816.4 85.14,-834.4"/>
<text text-anchor="middle" x="63.64" y="-823.2" font-family="Times,serif" font-size="9.00">ready</text>
</g>
<!-- key 53039
bias &#45;0.483
h_scaling 0.875 -->
<g id="node6" class="node">
<title>key 53039
bias &#45;0.483
h_scaling 0.875</title>
<ellipse fill="white" stroke="black" cx="109.64" cy="-716.76" rx="63.78" ry="63.78"/>
<text text-anchor="middle" x="109.64" y="-724.56" font-family="Times,serif" font-size="9.00">key 53039</text>
<text text-anchor="middle" x="109.64" y="-714.56" font-family="Times,serif" font-size="9.00">bias &#45;0.483</text>
<text text-anchor="middle" x="109.64" y="-704.56" font-family="Times,serif" font-size="9.00">h_scaling 0.875</text>
</g>
<!-- ready&#45;&gt;key 53039
bias &#45;0.483
h_scaling 0.875 -->
<g id="edge8" class="edge">
<title>ready&#45;&gt;key 53039
bias &#45;0.483
h_scaling 0.875</title>
<path fill="none" stroke="red" stroke-width="1.95" d="M67.1,-816.38C70.24,-809.09 75.21,-797.57 80.66,-784.93"/>
<polygon fill="red" stroke="red" stroke-width="1.95" points="83.95,-786.14 84.7,-775.57 77.53,-783.37 83.95,-786.14"/>
</g>
<!-- key 819
bias &#45;0.882
h_scaling 0.293 -->
<g id="node8" class="node">
<title>key 819
bias &#45;0.882
h_scaling 0.293</title>
<ellipse fill="white" stroke="black" cx="109.64" cy="-553.48" rx="63.78" ry="63.78"/>
<text text-anchor="middle" x="109.64" y="-561.28" font-family="Times,serif" font-size="9.00">key 819</text>
<text text-anchor="middle" x="109.64" y="-551.28" font-family="Times,serif" font-size="9.00">bias &#45;0.882</text>
<text text-anchor="middle" x="109.64" y="-541.28" font-family="Times,serif" font-size="9.00">h_scaling 0.293</text>
</g>
<!-- ready&#45;&gt;key 819
bias &#45;0.882
h_scaling 0.293 -->
<g id="edge12" class="edge">
<title>ready&#45;&gt;key 819
bias &#45;0.882
h_scaling 0.293</title>
<path fill="none" stroke="red" stroke-width="1.03" d="M56.74,-816.3C50.11,-807.93 40.54,-794.2 36.64,-780.4 21.27,-725.96 18.92,-706.84 36.64,-653.12 41.78,-637.53 50.43,-622.4 60.02,-608.86"/>
<polygon fill="red" stroke="red" stroke-width="1.03" points="62.96,-610.76 66.09,-600.64 57.33,-606.6 62.96,-610.76"/>
</g>
<!-- go -->
<g id="node2" class="node">
<title>go</title>
<polygon fill="green" stroke="black" points="233.64,-834.4 205.64,-834.4 205.64,-816.4 233.64,-816.4 233.64,-834.4"/>
<text text-anchor="middle" x="219.64" y="-823.2" font-family="Times,serif" font-size="9.00">go</text>
</g>
<!-- key 347243
bias &#45;0.984
h_scaling 0.006 -->
<g id="node5" class="node">
<title>key 347243
bias &#45;0.984
h_scaling 0.006</title>
<ellipse fill="white" stroke="black" cx="311.64" cy="-716.76" rx="63.78" ry="63.78"/>
<text text-anchor="middle" x="311.64" y="-724.56" font-family="Times,serif" font-size="9.00">key 347243</text>
<text text-anchor="middle" x="311.64" y="-714.56" font-family="Times,serif" font-size="9.00">bias &#45;0.984</text>
<text text-anchor="middle" x="311.64" y="-704.56" font-family="Times,serif" font-size="9.00">h_scaling 0.006</text>
</g>
<!-- go&#45;&gt;key 347243
bias &#45;0.984
h_scaling 0.006 -->
<g id="edge14" class="edge">
<title>go&#45;&gt;key 347243
bias &#45;0.984
h_scaling 0.006</title>
<path fill="none" stroke="blue" stroke-width="1.81" d="M226.55,-816.38C234.74,-806.89 249.13,-790.21 263.77,-773.24"/>
<polygon fill="blue" stroke="blue" stroke-width="1.81" points="266.61,-775.31 270.49,-765.45 261.31,-770.74 266.61,-775.31"/>
</g>
<!-- go&#45;&gt;key 53039
bias &#45;0.483
h_scaling 0.875 -->
<g id="edge6" class="edge">
<title>go&#45;&gt;key 53039
bias &#45;0.483
h_scaling 0.875</title>
<path fill="none" stroke="blue" stroke-width="2.95" d="M211.37,-816.38C200.69,-806.03 181.21,-787.14 162.13,-768.64"/>
<polygon fill="blue" stroke="blue" stroke-width="2.95" points="164.47,-766.03 154.85,-761.59 159.59,-771.06 164.47,-766.03"/>
</g>
<!-- go&#45;&gt;key 819
bias &#45;0.882
h_scaling 0.293 -->
<g id="edge3" class="edge">
<title>go&#45;&gt;key 819
bias &#45;0.882
h_scaling 0.293</title>
<path fill="none" stroke="blue" stroke-width="3" d="M220.48,-816.07C222.72,-790.42 226.95,-710.83 200.64,-653.12 192.24,-634.7 179.07,-617.43 165.33,-602.64"/>
<polygon fill="blue" stroke="blue" stroke-width="3" points="167.56,-599.92 158.11,-595.14 162.52,-604.77 167.56,-599.92"/>
</g>
<!-- output
bias &#45;0.734
h_scaling 0.078 -->
<g id="node3" class="node">
<title>output
bias &#45;0.734
h_scaling 0.078</title>
<ellipse fill="lightblue" stroke="black" cx="63.64" cy="-390.2" rx="63.78" ry="63.78"/>
<text text-anchor="middle" x="63.64" y="-398" font-family="Times,serif" font-size="9.00">output</text>
<text text-anchor="middle" x="63.64" y="-388" font-family="Times,serif" font-size="9.00">bias &#45;0.734</text>
<text text-anchor="middle" x="63.64" y="-378" font-family="Times,serif" font-size="9.00">h_scaling 0.078</text>
</g>
<!-- key 76375
bias &#45;0.342
h_scaling 0.615 -->
<g id="node10" class="node">
<title>key 76375
bias &#45;0.342
h_scaling 0.615</title>
<ellipse fill="white" stroke="black" cx="109.64" cy="-226.92" rx="63.78" ry="63.78"/>
<text text-anchor="middle" x="109.64" y="-234.72" font-family="Times,serif" font-size="9.00">key 76375</text>
<text text-anchor="middle" x="109.64" y="-224.72" font-family="Times,serif" font-size="9.00">bias &#45;0.342</text>
<text text-anchor="middle" x="109.64" y="-214.72" font-family="Times,serif" font-size="9.00">h_scaling 0.615</text>
</g>
<!-- output
bias &#45;0.734
h_scaling 0.078&#45;&gt;key 76375
bias &#45;0.342
h_scaling 0.615 -->
<g id="edge9" class="edge">
<title>output
bias &#45;0.734
h_scaling 0.078&#45;&gt;key 76375
bias &#45;0.342
h_scaling 0.615</title>
<path fill="none" stroke="blue" stroke-width="2.34" d="M80.9,-328.68C83.76,-318.66 86.74,-308.19 89.66,-297.96"/>
<polygon fill="blue" stroke="blue" stroke-width="2.34" points="93.06,-298.81 92.44,-288.23 86.33,-296.89 93.06,-298.81"/>
</g>
<!-- key 271205
bias &#45;0.513
h_scaling 0.576 -->
<g id="node4" class="node">
<title>key 271205
bias &#45;0.513
h_scaling 0.576</title>
<ellipse fill="white" stroke="black" cx="109.64" cy="-63.64" rx="63.78" ry="63.78"/>
<text text-anchor="middle" x="109.64" y="-71.44" font-family="Times,serif" font-size="9.00">key 271205</text>
<text text-anchor="middle" x="109.64" y="-61.44" font-family="Times,serif" font-size="9.00">bias &#45;0.513</text>
<text text-anchor="middle" x="109.64" y="-51.44" font-family="Times,serif" font-size="9.00">h_scaling 0.576</text>
</g>
<!-- key 271205
bias &#45;0.513
h_scaling 0.576&#45;&gt;key 76375
bias &#45;0.342
h_scaling 0.615 -->
<g id="edge11" class="edge">
<title>key 271205
bias &#45;0.513
h_scaling 0.576&#45;&gt;key 76375
bias &#45;0.342
h_scaling 0.615</title>
<path fill="none" stroke="red" stroke-width="2.3" d="M116.23,-127.09C116.38,-135.7 116.43,-144.59 116.36,-153.36"/>
<polygon fill="red" stroke="red" stroke-width="2.3" points="112.86,-153.52 116.23,-163.56 119.86,-153.61 112.86,-153.52"/>
</g>
<!-- key 418676
bias &#45;0.100
h_scaling 1.000 -->
<g id="node9" class="node">
<title>key 418676
bias &#45;0.100
h_scaling 1.000</title>
<ellipse fill="white" stroke="black" cx="311.64" cy="-553.48" rx="63.78" ry="63.78"/>
<text text-anchor="middle" x="311.64" y="-561.28" font-family="Times,serif" font-size="9.00">key 418676</text>
<text text-anchor="middle" x="311.64" y="-551.28" font-family="Times,serif" font-size="9.00">bias &#45;0.100</text>
<text text-anchor="middle" x="311.64" y="-541.28" font-family="Times,serif" font-size="9.00">h_scaling 1.000</text>
</g>
<!-- key 347243
bias &#45;0.984
h_scaling 0.006&#45;&gt;key 418676
bias &#45;0.100
h_scaling 1.000 -->
<g id="edge15" class="edge">
<title>key 347243
bias &#45;0.984
h_scaling 0.006&#45;&gt;key 418676
bias &#45;0.100
h_scaling 1.000</title>
<path fill="none" stroke="red" stroke-width="0.4" d="M311.64,-652.94C311.64,-644.49 311.64,-635.75 311.64,-627.15"/>
<polygon fill="red" stroke="red" stroke-width="0.4" points="315.14,-627.12 311.64,-617.12 308.14,-627.12 315.14,-627.12"/>
</g>
<!-- key 53039
bias &#45;0.483
h_scaling 0.875&#45;&gt;key 53039
bias &#45;0.483
h_scaling 0.875 -->
<g id="edge5" class="edge">
<title>key 53039
bias &#45;0.483
h_scaling 0.875&#45;&gt;key 53039
bias &#45;0.483
h_scaling 0.875</title>
<path fill="none" stroke="red" stroke-width="3.1" d="M170.52,-736.17C182.64,-733.99 191.28,-727.51 191.28,-716.76 191.28,-709.19 187.01,-703.75 180.26,-700.42"/>
<polygon fill="red" stroke="red" stroke-width="3.1" points="181.11,-697.02 170.52,-697.34 179,-703.69 181.11,-697.02"/>
</g>
<!-- key 53039
bias &#45;0.483
h_scaling 0.875&#45;&gt;key 819
bias &#45;0.882
h_scaling 0.293 -->
<g id="edge4" class="edge">
<title>key 53039
bias &#45;0.483
h_scaling 0.875&#45;&gt;key 819
bias &#45;0.882
h_scaling 0.293</title>
<path fill="none" stroke="red" stroke-width="1.74" d="M109.64,-652.94C109.64,-644.49 109.64,-635.75 109.64,-627.15"/>
<polygon fill="red" stroke="red" stroke-width="1.74" points="113.14,-627.12 109.64,-617.12 106.14,-627.12 113.14,-627.12"/>
</g>
<!-- key 418257
bias &#45;0.712
h_scaling 0.013 -->
<g id="node7" class="node">
<title>key 418257
bias &#45;0.712
h_scaling 0.013</title>
<ellipse fill="white" stroke="black" cx="311.64" cy="-390.2" rx="63.78" ry="63.78"/>
<text text-anchor="middle" x="311.64" y="-398" font-family="Times,serif" font-size="9.00">key 418257</text>
<text text-anchor="middle" x="311.64" y="-388" font-family="Times,serif" font-size="9.00">bias &#45;0.712</text>
<text text-anchor="middle" x="311.64" y="-378" font-family="Times,serif" font-size="9.00">h_scaling 0.013</text>
</g>
<!-- key 819
bias &#45;0.882
h_scaling 0.293&#45;&gt;output
bias &#45;0.734
h_scaling 0.078 -->
<g id="edge2" class="edge">
<title>key 819
bias &#45;0.882
h_scaling 0.293&#45;&gt;output
bias &#45;0.734
h_scaling 0.078</title>
<path fill="none" stroke="red" stroke-width="3.1" d="M92.38,-491.96C89.52,-481.94 86.54,-471.47 83.62,-461.24"/>
<polygon fill="red" stroke="red" stroke-width="3.1" points="86.95,-460.17 80.84,-451.51 80.22,-462.09 86.95,-460.17"/>
</g>
<!-- key 819
bias &#45;0.882
h_scaling 0.293&#45;&gt;key 819
bias &#45;0.882
h_scaling 0.293 -->
<g id="edge1" class="edge">
<title>key 819
bias &#45;0.882
h_scaling 0.293&#45;&gt;key 819
bias &#45;0.882
h_scaling 0.293</title>
<path fill="none" stroke="red" stroke-width="3.1" d="M166.11,-583.49C180.49,-581.52 191.28,-571.51 191.28,-553.48 191.28,-539.81 185.08,-530.75 175.82,-526.31"/>
<polygon fill="red" stroke="red" stroke-width="3.1" points="176.69,-522.92 166.11,-523.47 174.72,-529.64 176.69,-522.92"/>
</g>
<!-- key 418676
bias &#45;0.100
h_scaling 1.000&#45;&gt;key 418257
bias &#45;0.712
h_scaling 0.013 -->
<g id="edge16" class="edge">
<title>key 418676
bias &#45;0.100
h_scaling 1.000&#45;&gt;key 418257
bias &#45;0.712
h_scaling 0.013</title>
<path fill="none" stroke="blue" stroke-width="0.71" d="M311.64,-489.66C311.64,-481.21 311.64,-472.48 311.64,-463.87"/>
<polygon fill="blue" stroke="blue" stroke-width="0.71" points="315.14,-463.84 311.64,-453.84 308.14,-463.84 315.14,-463.84"/>
</g>
<!-- key 76375
bias &#45;0.342
h_scaling 0.615&#45;&gt;key 271205
bias &#45;0.513
h_scaling 0.576 -->
<g id="edge10" class="edge">
<title>key 76375
bias &#45;0.342
h_scaling 0.615&#45;&gt;key 271205
bias &#45;0.513
h_scaling 0.576</title>
<path fill="none" stroke="red" stroke-width="3.1" d="M103.05,-163.56C102.9,-154.96 102.85,-146.07 102.92,-137.3"/>
<polygon fill="red" stroke="red" stroke-width="3.1" points="106.42,-137.14 103.04,-127.09 99.42,-137.05 106.42,-137.14"/>
</g>
<!-- key 76375
bias &#45;0.342
h_scaling 0.615&#45;&gt;key 819
bias &#45;0.882
h_scaling 0.293 -->
<g id="edge7" class="edge">
<title>key 76375
bias &#45;0.342
h_scaling 0.615&#45;&gt;key 819
bias &#45;0.882
h_scaling 0.293</title>
<path fill="none" stroke="red" stroke-width="1.37" d="M128.73,-287.64C132.02,-300.36 134.93,-313.8 136.64,-326.56 144.17,-382.62 144.17,-397.77 136.64,-453.84 135.37,-463.31 133.44,-473.15 131.18,-482.8"/>
<polygon fill="red" stroke="red" stroke-width="1.37" points="127.72,-482.21 128.73,-492.76 134.52,-483.88 127.72,-482.21"/>
</g>
<!-- key 76375
bias &#45;0.342
h_scaling 0.615&#45;&gt;key 76375
bias &#45;0.342
h_scaling 0.615 -->
<g id="edge13" class="edge">
<title>key 76375
bias &#45;0.342
h_scaling 0.615&#45;&gt;key 76375
bias &#45;0.342
h_scaling 0.615</title>
<path fill="none" stroke="red" stroke-width="0.73" d="M166.11,-256.93C180.49,-254.96 191.28,-244.95 191.28,-226.92 191.28,-213.25 185.08,-204.2 175.82,-199.75"/>
<polygon fill="red" stroke="red" stroke-width="0.73" points="176.69,-196.36 166.11,-196.91 174.72,-203.08 176.69,-196.36"/>
</g>
</g>
</svg>
