<?xml version="1.0" encoding="UTF-8" standalone="no"?>
<!DOCTYPE svg PUBLIC "-//W3C//DTD SVG 1.1//EN"
 "http://www.w3.org/Graphics/SVG/1.1/DTD/svg11.dtd">
<!-- Generated by graphviz version 2.43.0 (0)
 -->
<!-- Title: %3 Pages: 1 -->
<svg width="634pt" height="1066pt"
 viewBox="0.00 0.00 633.64 1065.68" xmlns="http://www.w3.org/2000/svg" xmlns:xlink="http://www.w3.org/1999/xlink">
<g id="graph0" class="graph" transform="scale(1 1) rotate(0) translate(4 1061.68)">
<title>%3</title>
<polygon fill="white" stroke="transparent" points="-4,4 -4,-1061.68 629.64,-1061.68 629.64,4 -4,4"/>
<!-- ready -->
<g id="node1" class="node">
<title>ready</title>
<polygon fill="yellow" stroke="black" points="377.5,-1057.68 334.5,-1057.68 334.5,-1039.68 377.5,-1039.68 377.5,-1057.68"/>
<text text-anchor="middle" x="356" y="-1046.48" font-family="Times,serif" font-size="9.00">ready</text>
</g>
<!-- key 64176
bias 0.000
h_scaling 0.909 -->
<g id="node7" class="node">
<title>key 64176
bias 0.000
h_scaling 0.909</title>
<ellipse fill="white" stroke="black" cx="322" cy="-756.76" rx="63.78" ry="63.78"/>
<text text-anchor="middle" x="322" y="-764.56" font-family="Times,serif" font-size="9.00">key 64176</text>
<text text-anchor="middle" x="322" y="-754.56" font-family="Times,serif" font-size="9.00">bias 0.000</text>
<text text-anchor="middle" x="322" y="-744.56" font-family="Times,serif" font-size="9.00">h_scaling 0.909</text>
</g>
<!-- ready&#45;&gt;key 64176
bias 0.000
h_scaling 0.909 -->
<g id="edge23" class="edge">
<title>ready&#45;&gt;key 64176
bias 0.000
h_scaling 0.909</title>
<path fill="none" stroke="red" stroke-width="0.39" d="M355.06,-1039.62C351.55,-1009.75 339.07,-903.27 330.48,-830.09"/>
<polygon fill="red" stroke="red" stroke-width="0.39" points="333.94,-829.52 329.3,-820 326.99,-830.34 333.94,-829.52"/>
<text text-anchor="middle" x="364" y="-927.84" font-family="Times,serif" font-size="9.00">0.010</text>
</g>
<!-- key 11026
bias 0.000
h_scaling 0.677 -->
<g id="node8" class="node">
<title>key 11026
bias 0.000
h_scaling 0.677</title>
<ellipse fill="white" stroke="black" cx="256" cy="-930.04" rx="63.78" ry="63.78"/>
<text text-anchor="middle" x="256" y="-937.84" font-family="Times,serif" font-size="9.00">key 11026</text>
<text text-anchor="middle" x="256" y="-927.84" font-family="Times,serif" font-size="9.00">bias 0.000</text>
<text text-anchor="middle" x="256" y="-917.84" font-family="Times,serif" font-size="9.00">h_scaling 0.677</text>
</g>
<!-- ready&#45;&gt;key 11026
bias 0.000
h_scaling 0.677 -->
<g id="edge6" class="edge">
<title>ready&#45;&gt;key 11026
bias 0.000
h_scaling 0.677</title>
<path fill="none" stroke="red" stroke-width="0.3" d="M339.24,-1039.57C331.02,-1035.06 321.33,-1028.9 314,-1021.68 305.97,-1013.77 298.51,-1004.55 291.78,-995.08"/>
<polygon fill="red" stroke="red" stroke-width="0.3" points="294.6,-993.01 286.07,-986.73 288.82,-996.96 294.6,-993.01"/>
<text text-anchor="middle" x="328" y="-1014.48" font-family="Times,serif" font-size="9.00">0.007</text>
</g>
<!-- key 2870
bias 0.000
h_scaling 0.527 -->
<g id="node9" class="node">
<title>key 2870
bias 0.000
h_scaling 0.527</title>
<ellipse fill="white" stroke="black" cx="225" cy="-63.64" rx="63.78" ry="63.78"/>
<text text-anchor="middle" x="225" y="-71.44" font-family="Times,serif" font-size="9.00">key 2870</text>
<text text-anchor="middle" x="225" y="-61.44" font-family="Times,serif" font-size="9.00">bias 0.000</text>
<text text-anchor="middle" x="225" y="-51.44" font-family="Times,serif" font-size="9.00">h_scaling 0.527</text>
</g>
<!-- ready&#45;&gt;key 2870
bias 0.000
h_scaling 0.527 -->
<g id="edge11" class="edge">
<title>ready&#45;&gt;key 2870
bias 0.000
h_scaling 0.527</title>
<path fill="none" stroke="blue" stroke-width="0.1" d="M373.81,-1039.64C405.88,-1023.83 470,-985.4 470,-931.04 470,-931.04 470,-931.04 470,-235.92 470,-150.66 369.12,-104.3 296.82,-82.01"/>
<polygon fill="blue" stroke="blue" stroke-width="0.1" points="297.41,-78.54 286.82,-79.03 295.4,-85.24 297.41,-78.54"/>
</g>
<!-- go -->
<g id="node2" class="node">
<title>go</title>
<polygon fill="green" stroke="black" points="106,-939.04 78,-939.04 78,-921.04 106,-921.04 106,-939.04"/>
<text text-anchor="middle" x="92" y="-927.84" font-family="Times,serif" font-size="9.00">go</text>
</g>
<!-- key 5283
bias 0.000
h_scaling 0.000 -->
<g id="node4" class="node">
<title>key 5283
bias 0.000
h_scaling 0.000</title>
<ellipse fill="white" stroke="black" cx="92" cy="-756.76" rx="63.78" ry="63.78"/>
<text text-anchor="middle" x="92" y="-764.56" font-family="Times,serif" font-size="9.00">key 5283</text>
<text text-anchor="middle" x="92" y="-754.56" font-family="Times,serif" font-size="9.00">bias 0.000</text>
<text text-anchor="middle" x="92" y="-744.56" font-family="Times,serif" font-size="9.00">h_scaling 0.000</text>
</g>
<!-- go&#45;&gt;key 5283
bias 0.000
h_scaling 0.000 -->
<g id="edge2" class="edge">
<title>go&#45;&gt;key 5283
bias 0.000
h_scaling 0.000</title>
<path fill="none" stroke="red" stroke-width="0.66" d="M92,-920.77C92,-904.35 92,-866.14 92,-830.84"/>
<polygon fill="red" stroke="red" stroke-width="0.66" points="95.5,-830.49 92,-820.49 88.5,-830.49 95.5,-830.49"/>
<text text-anchor="middle" x="106" y="-841.2" font-family="Times,serif" font-size="9.00">0.019</text>
</g>
<!-- key 52004
bias 0.000
h_scaling 0.130 -->
<g id="node5" class="node">
<title>key 52004
bias 0.000
h_scaling 0.130</title>
<ellipse fill="white" stroke="black" cx="230" cy="-583.48" rx="63.78" ry="63.78"/>
<text text-anchor="middle" x="230" y="-591.28" font-family="Times,serif" font-size="9.00">key 52004</text>
<text text-anchor="middle" x="230" y="-581.28" font-family="Times,serif" font-size="9.00">bias 0.000</text>
<text text-anchor="middle" x="230" y="-571.28" font-family="Times,serif" font-size="9.00">h_scaling 0.130</text>
</g>
<!-- go&#45;&gt;key 52004
bias 0.000
h_scaling 0.130 -->
<g id="edge24" class="edge">
<title>go&#45;&gt;key 52004
bias 0.000
h_scaling 0.130</title>
<path fill="none" stroke="blue" stroke-width="0.1" d="M106.16,-921.1C132.25,-905.62 187.37,-868.63 211,-820.4 235.81,-769.76 239.48,-705.61 237.55,-656.99"/>
<polygon fill="blue" stroke="blue" stroke-width="0.1" points="241.04,-656.68 237.06,-646.86 234.04,-657.02 241.04,-656.68"/>
</g>
<!-- go&#45;&gt;key 2870
bias 0.000
h_scaling 0.527 -->
<g id="edge19" class="edge">
<title>go&#45;&gt;key 2870
bias 0.000
h_scaling 0.527</title>
<path fill="none" stroke="red" stroke-width="0.54" d="M83.84,-920.97C61.32,-897.82 0,-828.3 0,-757.76 0,-757.76 0,-757.76 0,-235.92 0,-157.19 88.29,-109.89 154.26,-85.53"/>
<polygon fill="red" stroke="red" stroke-width="0.54" points="155.58,-88.77 163.81,-82.1 153.22,-82.18 155.58,-88.77"/>
<text text-anchor="middle" x="14" y="-494.64" font-family="Times,serif" font-size="9.00">0.015</text>
</g>
<!-- output
bias 0.000
h_scaling 0.013 -->
<g id="node3" class="node">
<title>output
bias 0.000
h_scaling 0.013</title>
<ellipse fill="lightblue" stroke="black" cx="303" cy="-236.92" rx="63.78" ry="63.78"/>
<text text-anchor="middle" x="303" y="-244.72" font-family="Times,serif" font-size="9.00">output</text>
<text text-anchor="middle" x="303" y="-234.72" font-family="Times,serif" font-size="9.00">bias 0.000</text>
<text text-anchor="middle" x="303" y="-224.72" font-family="Times,serif" font-size="9.00">h_scaling 0.013</text>
</g>
<!-- output
bias 0.000
h_scaling 0.013&#45;&gt;key 64176
bias 0.000
h_scaling 0.909 -->
<g id="edge10" class="edge">
<title>output
bias 0.000
h_scaling 0.013&#45;&gt;key 64176
bias 0.000
h_scaling 0.909</title>
<path fill="none" stroke="blue" stroke-width="0.1" d="M318.71,-298.63C337.35,-378.56 364.13,-523.47 349,-647.12 347.46,-659.67 344.96,-672.87 342.09,-685.57"/>
<polygon fill="blue" stroke="blue" stroke-width="0.1" points="338.6,-685.09 339.71,-695.62 345.42,-686.7 338.6,-685.09"/>
</g>
<!-- output
bias 0.000
h_scaling 0.013&#45;&gt;key 2870
bias 0.000
h_scaling 0.527 -->
<g id="edge18" class="edge">
<title>output
bias 0.000
h_scaling 0.013&#45;&gt;key 2870
bias 0.000
h_scaling 0.527</title>
<path fill="none" stroke="red" stroke-width="0.49" d="M264.96,-185.88C258.66,-176.09 252.67,-165.63 248,-155.28 245.22,-149.11 242.74,-142.56 240.53,-135.89"/>
<polygon fill="red" stroke="red" stroke-width="0.49" points="243.79,-134.61 237.48,-126.1 237.11,-136.68 243.79,-134.61"/>
<text text-anchor="middle" x="262" y="-148.08" font-family="Times,serif" font-size="9.00">0.013</text>
</g>
<!-- key 5283
bias 0.000
h_scaling 0.000&#45;&gt;output
bias 0.000
h_scaling 0.013 -->
<g id="edge5" class="edge">
<title>key 5283
bias 0.000
h_scaling 0.000&#45;&gt;output
bias 0.000
h_scaling 0.013</title>
<path fill="none" stroke="blue" stroke-width="0.1" d="M105.39,-694.42C120.3,-628.63 144.01,-531.91 157,-519.84 187.21,-491.78 211.81,-521.58 248,-501.84 263.18,-493.56 267.59,-489.46 275,-473.84 299.16,-422.86 305.5,-359.02 306.16,-310.6"/>
<polygon fill="blue" stroke="blue" stroke-width="0.1" points="309.66,-310.53 306.22,-300.51 302.66,-310.49 309.66,-310.53"/>
</g>
<!-- key 5283
bias 0.000
h_scaling 0.000&#45;&gt;key 5283
bias 0.000
h_scaling 0.000 -->
<g id="edge7" class="edge">
<title>key 5283
bias 0.000
h_scaling 0.000&#45;&gt;key 5283
bias 0.000
h_scaling 0.000</title>
<path fill="none" stroke="red" stroke-width="1.27" d="M153.94,-772.05C165.5,-770.17 173.64,-765.07 173.64,-756.76 173.64,-751.04 169.79,-746.84 163.63,-744.17"/>
<polygon fill="red" stroke="red" stroke-width="1.27" points="164.52,-740.78 153.94,-741.46 162.63,-747.52 164.52,-740.78"/>
<text text-anchor="middle" x="187.64" y="-754.56" font-family="Times,serif" font-size="9.00">0.039</text>
</g>
<!-- key 5283
bias 0.000
h_scaling 0.000&#45;&gt;key 52004
bias 0.000
h_scaling 0.130 -->
<g id="edge14" class="edge">
<title>key 5283
bias 0.000
h_scaling 0.000&#45;&gt;key 52004
bias 0.000
h_scaling 0.130</title>
<path fill="none" stroke="blue" stroke-width="0.1" d="M131.55,-706.67C147.93,-686.34 167.04,-662.62 184.05,-641.51"/>
<polygon fill="blue" stroke="blue" stroke-width="0.1" points="186.9,-643.55 190.45,-633.57 181.45,-639.16 186.9,-643.55"/>
</g>
<!-- key 5283
bias 0.000
h_scaling 0.000&#45;&gt;key 2870
bias 0.000
h_scaling 0.527 -->
<g id="edge3" class="edge">
<title>key 5283
bias 0.000
h_scaling 0.000&#45;&gt;key 2870
bias 0.000
h_scaling 0.527</title>
<path fill="none" stroke="red" stroke-width="0.9" d="M92,-693.12C92,-660.69 92,-620.46 92,-584.48 92,-584.48 92,-584.48 92,-235.92 92,-184.47 129.9,-139.14 165.24,-108.06"/>
<polygon fill="red" stroke="red" stroke-width="0.9" points="167.87,-110.41 173.2,-101.25 163.32,-105.09 167.87,-110.41"/>
<text text-anchor="middle" x="106" y="-408" font-family="Times,serif" font-size="9.00">0.027</text>
</g>
<!-- key 52004
bias 0.000
h_scaling 0.130&#45;&gt;key 52004
bias 0.000
h_scaling 0.130 -->
<g id="edge17" class="edge">
<title>key 52004
bias 0.000
h_scaling 0.130&#45;&gt;key 52004
bias 0.000
h_scaling 0.130</title>
<path fill="none" stroke="red" stroke-width="1.12" d="M291.94,-598.77C303.5,-596.89 311.64,-591.79 311.64,-583.48 311.64,-577.76 307.79,-573.56 301.63,-570.89"/>
<polygon fill="red" stroke="red" stroke-width="1.12" points="302.52,-567.5 291.94,-568.18 300.63,-574.24 302.52,-567.5"/>
<text text-anchor="middle" x="325.64" y="-581.28" font-family="Times,serif" font-size="9.00">0.034</text>
</g>
<!-- key 52004
bias 0.000
h_scaling 0.130&#45;&gt;key 64176
bias 0.000
h_scaling 0.909 -->
<g id="edge21" class="edge">
<title>key 52004
bias 0.000
h_scaling 0.130&#45;&gt;key 64176
bias 0.000
h_scaling 0.909</title>
<path fill="none" stroke="red" stroke-width="0.84" d="M274.05,-629.7C282.97,-640.65 291.58,-652.77 298,-665.12 301.13,-671.13 303.88,-677.59 306.28,-684.19"/>
<polygon fill="red" stroke="red" stroke-width="0.84" points="303.05,-685.56 309.57,-693.92 309.68,-683.32 303.05,-685.56"/>
<text text-anchor="middle" x="317" y="-667.92" font-family="Times,serif" font-size="9.00">0.025</text>
</g>
<!-- key 107964
bias 0.000
h_scaling 1.000 -->
<g id="node10" class="node">
<title>key 107964
bias 0.000
h_scaling 1.000</title>
<ellipse fill="white" stroke="black" cx="202" cy="-410.2" rx="63.78" ry="63.78"/>
<text text-anchor="middle" x="202" y="-418" font-family="Times,serif" font-size="9.00">key 107964</text>
<text text-anchor="middle" x="202" y="-408" font-family="Times,serif" font-size="9.00">bias 0.000</text>
<text text-anchor="middle" x="202" y="-398" font-family="Times,serif" font-size="9.00">h_scaling 1.000</text>
</g>
<!-- key 52004
bias 0.000
h_scaling 0.130&#45;&gt;key 107964
bias 0.000
h_scaling 1.000 -->
<g id="edge12" class="edge">
<title>key 52004
bias 0.000
h_scaling 0.130&#45;&gt;key 107964
bias 0.000
h_scaling 1.000</title>
<path fill="none" stroke="red" stroke-width="0.99" d="M219.89,-520.64C217.9,-508.47 215.8,-495.6 213.76,-483.13"/>
<polygon fill="red" stroke="red" stroke-width="0.99" points="217.21,-482.53 212.14,-473.23 210.3,-483.66 217.21,-482.53"/>
<text text-anchor="middle" x="230" y="-494.64" font-family="Times,serif" font-size="9.00">0.030</text>
</g>
<!-- key 309264
bias 0.000
h_scaling 0.877 -->
<g id="node6" class="node">
<title>key 309264
bias 0.000
h_scaling 0.877</title>
<ellipse fill="white" stroke="black" cx="562" cy="-236.92" rx="63.78" ry="63.78"/>
<text text-anchor="middle" x="562" y="-244.72" font-family="Times,serif" font-size="9.00">key 309264</text>
<text text-anchor="middle" x="562" y="-234.72" font-family="Times,serif" font-size="9.00">bias 0.000</text>
<text text-anchor="middle" x="562" y="-224.72" font-family="Times,serif" font-size="9.00">h_scaling 0.877</text>
</g>
<!-- key 309264
bias 0.000
h_scaling 0.877&#45;&gt;key 2870
bias 0.000
h_scaling 0.527 -->
<g id="edge22" class="edge">
<title>key 309264
bias 0.000
h_scaling 0.877&#45;&gt;key 2870
bias 0.000
h_scaling 0.527</title>
<path fill="none" stroke="red" stroke-width="0.32" d="M525.84,-183.95C513.9,-169.78 499.62,-155.53 484,-145.28 427.3,-108.05 352.41,-87.18 297.75,-76.06"/>
<polygon fill="red" stroke="red" stroke-width="0.32" points="298.28,-72.59 287.79,-74.09 296.93,-79.46 298.28,-72.59"/>
<text text-anchor="middle" x="510" y="-148.08" font-family="Times,serif" font-size="9.00">0.007</text>
</g>
<!-- key 64176
bias 0.000
h_scaling 0.909&#45;&gt;key 52004
bias 0.000
h_scaling 0.130 -->
<g id="edge9" class="edge">
<title>key 64176
bias 0.000
h_scaling 0.909&#45;&gt;key 52004
bias 0.000
h_scaling 0.130</title>
<path fill="none" stroke="red" stroke-width="0.84" d="M286.66,-703.56C280.84,-694.24 275.06,-684.5 270,-675.12 266.01,-667.72 262.09,-659.84 258.35,-651.93"/>
<polygon fill="red" stroke="red" stroke-width="0.84" points="261.44,-650.27 254.06,-642.67 255.09,-653.21 261.44,-650.27"/>
<text text-anchor="middle" x="284" y="-667.92" font-family="Times,serif" font-size="9.00">0.025</text>
</g>
<!-- key 11026
bias 0.000
h_scaling 0.677&#45;&gt;output
bias 0.000
h_scaling 0.013 -->
<g id="edge8" class="edge">
<title>key 11026
bias 0.000
h_scaling 0.677&#45;&gt;output
bias 0.000
h_scaling 0.013</title>
<path fill="none" stroke="red" stroke-width="0.34" d="M304.31,-888.51C313.43,-881.06 322.95,-873.42 332,-866.4 359.39,-845.14 374.93,-848.67 395,-820.4 411.84,-796.67 414,-786.85 414,-757.76 414,-757.76 414,-757.76 414,-409.2 414,-362.94 385.14,-319.33 356.85,-287.68"/>
<polygon fill="red" stroke="red" stroke-width="0.34" points="359.42,-285.3 350.07,-280.31 354.26,-290.04 359.42,-285.3"/>
<text text-anchor="middle" x="428" y="-581.28" font-family="Times,serif" font-size="9.00">0.008</text>
</g>
<!-- key 11026
bias 0.000
h_scaling 0.677&#45;&gt;key 5283
bias 0.000
h_scaling 0.000 -->
<g id="edge4" class="edge">
<title>key 11026
bias 0.000
h_scaling 0.677&#45;&gt;key 5283
bias 0.000
h_scaling 0.000</title>
<path fill="none" stroke="blue" stroke-width="0.1" d="M212.48,-883.59C191.07,-861.23 165.14,-834.15 142.83,-810.84"/>
<polygon fill="blue" stroke="blue" stroke-width="0.1" points="145.17,-808.22 135.72,-803.42 140.11,-813.06 145.17,-808.22"/>
</g>
<!-- key 2870
bias 0.000
h_scaling 0.527&#45;&gt;output
bias 0.000
h_scaling 0.013 -->
<g id="edge1" class="edge">
<title>key 2870
bias 0.000
h_scaling 0.527&#45;&gt;output
bias 0.000
h_scaling 0.013</title>
<path fill="none" stroke="blue" stroke-width="0.1" d="M263.04,-114.67C269.34,-124.47 275.33,-134.93 280,-145.28 282.78,-151.44 285.26,-158 287.47,-164.66"/>
<polygon fill="blue" stroke="blue" stroke-width="0.1" points="284.21,-165.95 290.52,-174.46 290.89,-163.87 284.21,-165.95"/>
</g>
<!-- key 2870
bias 0.000
h_scaling 0.527&#45;&gt;key 2870
bias 0.000
h_scaling 0.527 -->
<g id="edge20" class="edge">
<title>key 2870
bias 0.000
h_scaling 0.527&#45;&gt;key 2870
bias 0.000
h_scaling 0.527</title>
<path fill="none" stroke="red" stroke-width="1.01" d="M286.94,-78.94C298.5,-77.05 306.64,-71.95 306.64,-63.64 306.64,-57.92 302.79,-53.73 296.63,-51.05"/>
<polygon fill="red" stroke="red" stroke-width="1.01" points="297.52,-47.66 286.94,-48.34 295.63,-54.4 297.52,-47.66"/>
<text text-anchor="middle" x="320.64" y="-61.44" font-family="Times,serif" font-size="9.00">0.030</text>
</g>
<!-- key 2870
bias 0.000
h_scaling 0.527&#45;&gt;key 107964
bias 0.000
h_scaling 1.000 -->
<g id="edge15" class="edge">
<title>key 2870
bias 0.000
h_scaling 0.527&#45;&gt;key 107964
bias 0.000
h_scaling 1.000</title>
<path fill="none" stroke="blue" stroke-width="0.1" d="M226.17,-127.3C223.99,-186.44 218.17,-275.05 212.42,-337.09"/>
<polygon fill="blue" stroke="blue" stroke-width="0.1" points="208.93,-336.91 211.47,-347.2 215.89,-337.57 208.93,-336.91"/>
</g>
<!-- key 107964
bias 0.000
h_scaling 1.000&#45;&gt;output
bias 0.000
h_scaling 0.013 -->
<g id="edge13" class="edge">
<title>key 107964
bias 0.000
h_scaling 1.000&#45;&gt;output
bias 0.000
h_scaling 0.013</title>
<path fill="none" stroke="red" stroke-width="1.03" d="M231.88,-353.78C238.39,-342.07 245.32,-329.85 252,-318.56 255.65,-312.38 259.53,-305.99 263.45,-299.63"/>
<polygon fill="red" stroke="red" stroke-width="1.03" points="266.51,-301.34 268.8,-290.99 260.56,-297.65 266.51,-301.34"/>
<text text-anchor="middle" x="266" y="-321.36" font-family="Times,serif" font-size="9.00">0.031</text>
</g>
<!-- key 107964
bias 0.000
h_scaling 1.000&#45;&gt;key 2870
bias 0.000
h_scaling 0.527 -->
<g id="edge16" class="edge">
<title>key 107964
bias 0.000
h_scaling 1.000&#45;&gt;key 2870
bias 0.000
h_scaling 0.527</title>
<path fill="none" stroke="blue" stroke-width="0.1" d="M200.84,-346.4C203.01,-287.29 208.83,-198.81 214.57,-136.81"/>
<polygon fill="blue" stroke="blue" stroke-width="0.1" points="218.07,-137 215.53,-126.71 211.1,-136.34 218.07,-137"/>
</g>
</g>
</svg>
