<?xml version="1.0" encoding="UTF-8" standalone="no"?>
<!DOCTYPE svg PUBLIC "-//W3C//DTD SVG 1.1//EN"
 "http://www.w3.org/Graphics/SVG/1.1/DTD/svg11.dtd">
<!-- Generated by graphviz version 2.43.0 (0)
 -->
<!-- Title: %3 Pages: 1 -->
<svg width="539pt" height="1249pt"
 viewBox="0.00 0.00 538.50 1248.95" xmlns="http://www.w3.org/2000/svg" xmlns:xlink="http://www.w3.org/1999/xlink">
<g id="graph0" class="graph" transform="scale(1 1) rotate(0) translate(4 1244.95)">
<title>%3</title>
<polygon fill="white" stroke="transparent" points="-4,4 -4,-1244.95 534.5,-1244.95 534.5,4 -4,4"/>
<!-- ready
output 0.000 -->
<g id="node1" class="node">
<title>ready
output 0.000</title>
<polygon fill="yellow" stroke="black" points="189,-1240.95 112,-1240.95 112,-1212.95 189,-1212.95 189,-1240.95"/>
<text text-anchor="middle" x="150.5" y="-1229.75" font-family="Times,serif" font-size="9.00">ready</text>
<text text-anchor="middle" x="150.5" y="-1219.75" font-family="Times,serif" font-size="9.00">output 0.000</text>
</g>
<!-- key 33481
bias &#45;0.442
h_scaling 1.000
output 0.249 -->
<g id="node5" class="node">
<title>key 33481
bias &#45;0.442
h_scaling 1.000
output 0.249</title>
<ellipse fill="white" stroke="black" cx="364.5" cy="-1103.31" rx="63.78" ry="63.78"/>
<text text-anchor="middle" x="364.5" y="-1116.11" font-family="Times,serif" font-size="9.00">key 33481</text>
<text text-anchor="middle" x="364.5" y="-1106.11" font-family="Times,serif" font-size="9.00">bias &#45;0.442</text>
<text text-anchor="middle" x="364.5" y="-1096.11" font-family="Times,serif" font-size="9.00">h_scaling 1.000</text>
<text text-anchor="middle" x="364.5" y="-1086.11" font-family="Times,serif" font-size="9.00">output 0.249</text>
</g>
<!-- ready
output 0.000&#45;&gt;key 33481
bias &#45;0.442
h_scaling 1.000
output 0.249 -->
<g id="edge13" class="edge">
<title>ready
output 0.000&#45;&gt;key 33481
bias &#45;0.442
h_scaling 1.000
output 0.249</title>
<path fill="none" stroke="red" stroke-width="0.1" d="M173.4,-1212.94C203.56,-1195.79 257.81,-1164.96 300.82,-1140.51"/>
<polygon fill="red" stroke="red" stroke-width="0.1" points="302.57,-1143.54 309.54,-1135.56 299.11,-1137.46 302.57,-1143.54"/>
<text text-anchor="middle" x="234.5" y="-1187.75" font-family="Times,serif" font-size="9.00">0.922</text>
</g>
<!-- key 5323
bias &#45;0.116
h_scaling 1.000
output 0.294 -->
<g id="node7" class="node">
<title>key 5323
bias &#45;0.116
h_scaling 1.000
output 0.294</title>
<ellipse fill="white" stroke="black" cx="134.5" cy="-756.76" rx="63.78" ry="63.78"/>
<text text-anchor="middle" x="134.5" y="-769.56" font-family="Times,serif" font-size="9.00">key 5323</text>
<text text-anchor="middle" x="134.5" y="-759.56" font-family="Times,serif" font-size="9.00">bias &#45;0.116</text>
<text text-anchor="middle" x="134.5" y="-749.56" font-family="Times,serif" font-size="9.00">h_scaling 1.000</text>
<text text-anchor="middle" x="134.5" y="-739.56" font-family="Times,serif" font-size="9.00">output 0.294</text>
</g>
<!-- ready
output 0.000&#45;&gt;key 5323
bias &#45;0.116
h_scaling 1.000
output 0.294 -->
<g id="edge8" class="edge">
<title>ready
output 0.000&#45;&gt;key 5323
bias &#45;0.116
h_scaling 1.000
output 0.294</title>
<path fill="none" stroke="blue" stroke-width="0.1" d="M150.06,-1212.94C148.19,-1158.25 140.88,-944.55 136.98,-830.46"/>
<polygon fill="blue" stroke="blue" stroke-width="0.1" points="140.48,-830.29 136.64,-820.41 133.48,-830.53 140.48,-830.29"/>
<text text-anchor="middle" x="159" y="-1014.48" font-family="Times,serif" font-size="9.00">&#45;0.452</text>
</g>
<!-- go
output 0.000 -->
<g id="node2" class="node">
<title>go
output 0.000</title>
<polygon fill="green" stroke="black" points="77,-944.04 0,-944.04 0,-916.04 77,-916.04 77,-944.04"/>
<text text-anchor="middle" x="38.5" y="-932.84" font-family="Times,serif" font-size="9.00">go</text>
<text text-anchor="middle" x="38.5" y="-922.84" font-family="Times,serif" font-size="9.00">output 0.000</text>
</g>
<!-- go
output 0.000&#45;&gt;key 5323
bias &#45;0.116
h_scaling 1.000
output 0.294 -->
<g id="edge4" class="edge">
<title>go
output 0.000&#45;&gt;key 5323
bias &#45;0.116
h_scaling 1.000
output 0.294</title>
<path fill="none" stroke="red" stroke-width="0.1" d="M45.87,-915.88C57.12,-895.82 79.29,-856.26 98.64,-821.73"/>
<polygon fill="red" stroke="red" stroke-width="0.1" points="101.92,-823.05 103.75,-812.61 95.81,-819.63 101.92,-823.05"/>
<text text-anchor="middle" x="100.5" y="-841.2" font-family="Times,serif" font-size="9.00">0.836</text>
</g>
<!-- key 3409
bias 0.729
h_scaling 1.000
output 0.717 -->
<g id="node10" class="node">
<title>key 3409
bias 0.729
h_scaling 1.000
output 0.717</title>
<ellipse fill="white" stroke="black" cx="159.5" cy="-236.92" rx="63.78" ry="63.78"/>
<text text-anchor="middle" x="159.5" y="-249.72" font-family="Times,serif" font-size="9.00">key 3409</text>
<text text-anchor="middle" x="159.5" y="-239.72" font-family="Times,serif" font-size="9.00">bias 0.729</text>
<text text-anchor="middle" x="159.5" y="-229.72" font-family="Times,serif" font-size="9.00">h_scaling 1.000</text>
<text text-anchor="middle" x="159.5" y="-219.72" font-family="Times,serif" font-size="9.00">output 0.717</text>
</g>
<!-- go
output 0.000&#45;&gt;key 3409
bias 0.729
h_scaling 1.000
output 0.717 -->
<g id="edge3" class="edge">
<title>go
output 0.000&#45;&gt;key 3409
bias 0.729
h_scaling 1.000
output 0.717</title>
<path fill="none" stroke="blue" stroke-width="0.1" d="M34.58,-915.85C26.45,-887.3 8.5,-817.53 8.5,-757.76 8.5,-757.76 8.5,-757.76 8.5,-409.2 8.5,-352.71 55.29,-306.04 96.77,-275.76"/>
<polygon fill="blue" stroke="blue" stroke-width="0.1" points="98.86,-278.57 104.99,-269.92 94.81,-272.86 98.86,-278.57"/>
<text text-anchor="middle" x="24" y="-581.28" font-family="Times,serif" font-size="9.00">&#45;0.950</text>
</g>
<!-- output
bias &#45;0.735
h_scaling 1.000
output 0.009 -->
<g id="node3" class="node">
<title>output
bias &#45;0.735
h_scaling 1.000
output 0.009</title>
<ellipse fill="lightblue" stroke="black" cx="259.5" cy="-63.64" rx="63.78" ry="63.78"/>
<text text-anchor="middle" x="259.5" y="-76.44" font-family="Times,serif" font-size="9.00">output</text>
<text text-anchor="middle" x="259.5" y="-66.44" font-family="Times,serif" font-size="9.00">bias &#45;0.735</text>
<text text-anchor="middle" x="259.5" y="-56.44" font-family="Times,serif" font-size="9.00">h_scaling 1.000</text>
<text text-anchor="middle" x="259.5" y="-46.44" font-family="Times,serif" font-size="9.00">output 0.009</text>
</g>
<!-- output
bias &#45;0.735
h_scaling 1.000
output 0.009&#45;&gt;output
bias &#45;0.735
h_scaling 1.000
output 0.009 -->
<g id="edge2" class="edge">
<title>output
bias &#45;0.735
h_scaling 1.000
output 0.009&#45;&gt;output
bias &#45;0.735
h_scaling 1.000
output 0.009</title>
<path fill="none" stroke="red" stroke-width="0.1" d="M321.44,-78.94C333,-77.05 341.14,-71.95 341.14,-63.64 341.14,-57.92 337.29,-53.73 331.13,-51.05"/>
<polygon fill="red" stroke="red" stroke-width="0.1" points="332.02,-47.66 321.44,-48.34 330.13,-54.4 332.02,-47.66"/>
<text text-anchor="middle" x="355.14" y="-61.44" font-family="Times,serif" font-size="9.00">0.970</text>
</g>
<!-- key 137092
bias &#45;0.592
h_scaling 1.000
output 0.517 -->
<g id="node4" class="node">
<title>key 137092
bias &#45;0.592
h_scaling 1.000
output 0.517</title>
<ellipse fill="white" stroke="black" cx="410.5" cy="-410.2" rx="63.78" ry="63.78"/>
<text text-anchor="middle" x="410.5" y="-423" font-family="Times,serif" font-size="9.00">key 137092</text>
<text text-anchor="middle" x="410.5" y="-413" font-family="Times,serif" font-size="9.00">bias &#45;0.592</text>
<text text-anchor="middle" x="410.5" y="-403" font-family="Times,serif" font-size="9.00">h_scaling 1.000</text>
<text text-anchor="middle" x="410.5" y="-393" font-family="Times,serif" font-size="9.00">output 0.517</text>
</g>
<!-- key 137092
bias &#45;0.592
h_scaling 1.000
output 0.517&#45;&gt;key 33481
bias &#45;0.442
h_scaling 1.000
output 0.249 -->
<g id="edge20" class="edge">
<title>key 137092
bias &#45;0.592
h_scaling 1.000
output 0.517&#45;&gt;key 33481
bias &#45;0.442
h_scaling 1.000
output 0.249</title>
<path fill="none" stroke="red" stroke-width="0.1" d="M410.5,-473.84C410.5,-506.26 410.5,-546.5 410.5,-582.48 410.5,-931.04 410.5,-931.04 410.5,-931.04 410.5,-965.76 401.57,-1003.14 391.58,-1034.09"/>
<polygon fill="red" stroke="red" stroke-width="0.1" points="388.15,-1033.31 388.31,-1043.9 394.79,-1035.52 388.15,-1033.31"/>
<text text-anchor="middle" x="424.5" y="-754.56" font-family="Times,serif" font-size="9.00">0.177</text>
</g>
<!-- key 358831
bias &#45;0.337
h_scaling 1.000
output 0.878 -->
<g id="node9" class="node">
<title>key 358831
bias &#45;0.337
h_scaling 1.000
output 0.878</title>
<ellipse fill="white" stroke="black" cx="410.5" cy="-236.92" rx="63.78" ry="63.78"/>
<text text-anchor="middle" x="410.5" y="-249.72" font-family="Times,serif" font-size="9.00">key 358831</text>
<text text-anchor="middle" x="410.5" y="-239.72" font-family="Times,serif" font-size="9.00">bias &#45;0.337</text>
<text text-anchor="middle" x="410.5" y="-229.72" font-family="Times,serif" font-size="9.00">h_scaling 1.000</text>
<text text-anchor="middle" x="410.5" y="-219.72" font-family="Times,serif" font-size="9.00">output 0.878</text>
</g>
<!-- key 137092
bias &#45;0.592
h_scaling 1.000
output 0.517&#45;&gt;key 358831
bias &#45;0.337
h_scaling 1.000
output 0.878 -->
<g id="edge22" class="edge">
<title>key 137092
bias &#45;0.592
h_scaling 1.000
output 0.517&#45;&gt;key 358831
bias &#45;0.337
h_scaling 1.000
output 0.878</title>
<path fill="none" stroke="red" stroke-width="0.1" d="M392.32,-348.99C390.87,-338.88 390.35,-328.46 391.5,-318.56 391.87,-315.34 392.33,-312.07 392.85,-308.78"/>
<polygon fill="red" stroke="red" stroke-width="0.1" points="396.31,-309.31 394.58,-298.86 389.41,-308.11 396.31,-309.31"/>
<text text-anchor="middle" x="405.5" y="-321.36" font-family="Times,serif" font-size="9.00">1.000</text>
</g>
<!-- key 33481
bias &#45;0.442
h_scaling 1.000
output 0.249&#45;&gt;output
bias &#45;0.735
h_scaling 1.000
output 0.009 -->
<g id="edge15" class="edge">
<title>key 33481
bias &#45;0.442
h_scaling 1.000
output 0.249&#45;&gt;output
bias &#45;0.735
h_scaling 1.000
output 0.009</title>
<path fill="none" stroke="red" stroke-width="0.1" d="M417.07,-1067.07C456.06,-1036.29 502.5,-987.74 502.5,-931.04 502.5,-931.04 502.5,-931.04 502.5,-235.92 502.5,-206.83 502.39,-195.4 483.5,-173.28 444.03,-127.06 380.33,-98.84 330.93,-82.79"/>
<polygon fill="red" stroke="red" stroke-width="0.1" points="331.84,-79.4 321.25,-79.74 329.74,-86.08 331.84,-79.4"/>
<text text-anchor="middle" x="516.5" y="-581.28" font-family="Times,serif" font-size="9.00">0.370</text>
</g>
<!-- key 30955
bias &#45;0.552
h_scaling 1.000
output 0.763 -->
<g id="node6" class="node">
<title>key 30955
bias &#45;0.552
h_scaling 1.000
output 0.763</title>
<ellipse fill="white" stroke="black" cx="226.5" cy="-930.04" rx="63.78" ry="63.78"/>
<text text-anchor="middle" x="226.5" y="-942.84" font-family="Times,serif" font-size="9.00">key 30955</text>
<text text-anchor="middle" x="226.5" y="-932.84" font-family="Times,serif" font-size="9.00">bias &#45;0.552</text>
<text text-anchor="middle" x="226.5" y="-922.84" font-family="Times,serif" font-size="9.00">h_scaling 1.000</text>
<text text-anchor="middle" x="226.5" y="-912.84" font-family="Times,serif" font-size="9.00">output 0.763</text>
</g>
<!-- key 33481
bias &#45;0.442
h_scaling 1.000
output 0.249&#45;&gt;key 30955
bias &#45;0.552
h_scaling 1.000
output 0.763 -->
<g id="edge14" class="edge">
<title>key 33481
bias &#45;0.442
h_scaling 1.000
output 0.249&#45;&gt;key 30955
bias &#45;0.552
h_scaling 1.000
output 0.763</title>
<path fill="none" stroke="red" stroke-width="0.1" d="M324.95,-1053.23C308.57,-1032.9 289.46,-1009.18 272.45,-988.07"/>
<polygon fill="red" stroke="red" stroke-width="0.1" points="275.05,-985.72 266.05,-980.12 269.6,-990.11 275.05,-985.72"/>
<text text-anchor="middle" x="309.5" y="-1014.48" font-family="Times,serif" font-size="9.00">1.000</text>
</g>
<!-- key 30955
bias &#45;0.552
h_scaling 1.000
output 0.763&#45;&gt;key 30955
bias &#45;0.552
h_scaling 1.000
output 0.763 -->
<g id="edge18" class="edge">
<title>key 30955
bias &#45;0.552
h_scaling 1.000
output 0.763&#45;&gt;key 30955
bias &#45;0.552
h_scaling 1.000
output 0.763</title>
<path fill="none" stroke="red" stroke-width="0.1" d="M288.44,-945.33C300,-943.45 308.14,-938.35 308.14,-930.04 308.14,-924.32 304.29,-920.12 298.13,-917.45"/>
<polygon fill="red" stroke="red" stroke-width="0.1" points="299.02,-914.06 288.44,-914.74 297.13,-920.8 299.02,-914.06"/>
<text text-anchor="middle" x="322.14" y="-927.84" font-family="Times,serif" font-size="9.00">0.610</text>
</g>
<!-- key 30955
bias &#45;0.552
h_scaling 1.000
output 0.763&#45;&gt;key 5323
bias &#45;0.116
h_scaling 1.000
output 0.294 -->
<g id="edge12" class="edge">
<title>key 30955
bias &#45;0.552
h_scaling 1.000
output 0.763&#45;&gt;key 5323
bias &#45;0.116
h_scaling 1.000
output 0.294</title>
<path fill="none" stroke="blue" stroke-width="0.1" d="M196.63,-873.43C187.86,-857.11 178.2,-839.12 169.17,-822.3"/>
<polygon fill="blue" stroke="blue" stroke-width="0.1" points="172.04,-820.24 164.22,-813.09 165.87,-823.55 172.04,-820.24"/>
<text text-anchor="middle" x="196" y="-841.2" font-family="Times,serif" font-size="9.00">&#45;0.475</text>
</g>
<!-- key 5323
bias &#45;0.116
h_scaling 1.000
output 0.294&#45;&gt;output
bias &#45;0.735
h_scaling 1.000
output 0.009 -->
<g id="edge7" class="edge">
<title>key 5323
bias &#45;0.116
h_scaling 1.000
output 0.294&#45;&gt;output
bias &#45;0.735
h_scaling 1.000
output 0.009</title>
<path fill="none" stroke="blue" stroke-width="0.1" d="M101.59,-701.91C84.64,-669.17 67.5,-625.83 67.5,-584.48 67.5,-584.48 67.5,-584.48 67.5,-235.92 67.5,-206.83 68.84,-196.4 86.5,-173.28 113.59,-137.81 155.85,-110.96 191.82,-92.83"/>
<polygon fill="blue" stroke="blue" stroke-width="0.1" points="193.38,-95.96 200.81,-88.41 190.29,-89.68 193.38,-95.96"/>
<text text-anchor="middle" x="83" y="-408" font-family="Times,serif" font-size="9.00">&#45;0.906</text>
</g>
<!-- key 5323
bias &#45;0.116
h_scaling 1.000
output 0.294&#45;&gt;key 5323
bias &#45;0.116
h_scaling 1.000
output 0.294 -->
<g id="edge6" class="edge">
<title>key 5323
bias &#45;0.116
h_scaling 1.000
output 0.294&#45;&gt;key 5323
bias &#45;0.116
h_scaling 1.000
output 0.294</title>
<path fill="none" stroke="red" stroke-width="0.1" d="M196.44,-772.05C208,-770.17 216.14,-765.07 216.14,-756.76 216.14,-751.04 212.29,-746.84 206.13,-744.17"/>
<polygon fill="red" stroke="red" stroke-width="0.1" points="207.02,-740.78 196.44,-741.46 205.13,-747.52 207.02,-740.78"/>
<text text-anchor="middle" x="230.14" y="-754.56" font-family="Times,serif" font-size="9.00">0.720</text>
</g>
<!-- key 29007
bias &#45;0.601
h_scaling 1.000
output 0.277 -->
<g id="node8" class="node">
<title>key 29007
bias &#45;0.601
h_scaling 1.000
output 0.277</title>
<ellipse fill="white" stroke="black" cx="318.5" cy="-583.48" rx="63.78" ry="63.78"/>
<text text-anchor="middle" x="318.5" y="-596.28" font-family="Times,serif" font-size="9.00">key 29007</text>
<text text-anchor="middle" x="318.5" y="-586.28" font-family="Times,serif" font-size="9.00">bias &#45;0.601</text>
<text text-anchor="middle" x="318.5" y="-576.28" font-family="Times,serif" font-size="9.00">h_scaling 1.000</text>
<text text-anchor="middle" x="318.5" y="-566.28" font-family="Times,serif" font-size="9.00">output 0.277</text>
</g>
<!-- key 5323
bias &#45;0.116
h_scaling 1.000
output 0.294&#45;&gt;key 29007
bias &#45;0.601
h_scaling 1.000
output 0.277 -->
<g id="edge10" class="edge">
<title>key 5323
bias &#45;0.116
h_scaling 1.000
output 0.294&#45;&gt;key 29007
bias &#45;0.601
h_scaling 1.000
output 0.277</title>
<path fill="none" stroke="red" stroke-width="0.1" d="M180.93,-712.54C206.52,-688.71 238.41,-659.03 265.04,-634.24"/>
<polygon fill="red" stroke="red" stroke-width="0.1" points="267.47,-636.76 272.4,-627.39 262.7,-631.64 267.47,-636.76"/>
<text text-anchor="middle" x="240.5" y="-667.92" font-family="Times,serif" font-size="9.00">0.987</text>
</g>
<!-- key 5323
bias &#45;0.116
h_scaling 1.000
output 0.294&#45;&gt;key 3409
bias 0.729
h_scaling 1.000
output 0.717 -->
<g id="edge5" class="edge">
<title>key 5323
bias &#45;0.116
h_scaling 1.000
output 0.294&#45;&gt;key 3409
bias 0.729
h_scaling 1.000
output 0.717</title>
<path fill="none" stroke="blue" stroke-width="0.1" d="M137.24,-693.01C140.79,-612.69 147.26,-469.26 153.5,-346.56 154.09,-334.91 154.75,-322.57 155.4,-310.54"/>
<polygon fill="blue" stroke="blue" stroke-width="0.1" points="158.9,-310.71 155.95,-300.53 151.91,-310.33 158.9,-310.71"/>
<text text-anchor="middle" x="162" y="-494.64" font-family="Times,serif" font-size="9.00">&#45;1.000</text>
</g>
<!-- key 29007
bias &#45;0.601
h_scaling 1.000
output 0.277&#45;&gt;output
bias &#45;0.735
h_scaling 1.000
output 0.009 -->
<g id="edge21" class="edge">
<title>key 29007
bias &#45;0.601
h_scaling 1.000
output 0.277&#45;&gt;output
bias &#45;0.735
h_scaling 1.000
output 0.009</title>
<path fill="none" stroke="blue" stroke-width="0.1" d="M316.15,-519.74C312.47,-439.15 303.69,-295.1 284.5,-173.28 282.56,-160.98 280.02,-148.01 277.3,-135.48"/>
<polygon fill="blue" stroke="blue" stroke-width="0.1" points="280.68,-134.54 275.09,-125.54 273.85,-136.06 280.68,-134.54"/>
<text text-anchor="middle" x="319" y="-321.36" font-family="Times,serif" font-size="9.00">&#45;0.382</text>
</g>
<!-- key 29007
bias &#45;0.601
h_scaling 1.000
output 0.277&#45;&gt;key 137092
bias &#45;0.592
h_scaling 1.000
output 0.517 -->
<g id="edge19" class="edge">
<title>key 29007
bias &#45;0.601
h_scaling 1.000
output 0.277&#45;&gt;key 137092
bias &#45;0.592
h_scaling 1.000
output 0.517</title>
<path fill="none" stroke="red" stroke-width="0.1" d="M348.37,-526.87C357.14,-510.55 366.8,-492.56 375.83,-475.74"/>
<polygon fill="red" stroke="red" stroke-width="0.1" points="379.13,-476.99 380.78,-466.53 372.96,-473.68 379.13,-476.99"/>
<text text-anchor="middle" x="378.5" y="-494.64" font-family="Times,serif" font-size="9.00">0.965</text>
</g>
<!-- key 29007
bias &#45;0.601
h_scaling 1.000
output 0.277&#45;&gt;key 33481
bias &#45;0.442
h_scaling 1.000
output 0.249 -->
<g id="edge16" class="edge">
<title>key 29007
bias &#45;0.601
h_scaling 1.000
output 0.277&#45;&gt;key 33481
bias &#45;0.442
h_scaling 1.000
output 0.249</title>
<path fill="none" stroke="red" stroke-width="0.1" d="M324.75,-646.88C330.4,-703.99 338.84,-790.85 345.5,-866.4 350.32,-921.12 355.29,-983.03 358.94,-1029.69"/>
<polygon fill="red" stroke="red" stroke-width="0.1" points="355.45,-1030.01 359.72,-1039.71 362.43,-1029.47 355.45,-1030.01"/>
<text text-anchor="middle" x="358.5" y="-841.2" font-family="Times,serif" font-size="9.00">0.235</text>
</g>
<!-- key 27578
bias &#45;0.882
h_scaling 1.000
output 0.075 -->
<g id="node11" class="node">
<title>key 27578
bias &#45;0.882
h_scaling 1.000
output 0.075</title>
<ellipse fill="white" stroke="black" cx="226.5" cy="-410.2" rx="63.78" ry="63.78"/>
<text text-anchor="middle" x="226.5" y="-423" font-family="Times,serif" font-size="9.00">key 27578</text>
<text text-anchor="middle" x="226.5" y="-413" font-family="Times,serif" font-size="9.00">bias &#45;0.882</text>
<text text-anchor="middle" x="226.5" y="-403" font-family="Times,serif" font-size="9.00">h_scaling 1.000</text>
<text text-anchor="middle" x="226.5" y="-393" font-family="Times,serif" font-size="9.00">output 0.075</text>
</g>
<!-- key 29007
bias &#45;0.601
h_scaling 1.000
output 0.277&#45;&gt;key 27578
bias &#45;0.882
h_scaling 1.000
output 0.075 -->
<g id="edge11" class="edge">
<title>key 29007
bias &#45;0.601
h_scaling 1.000
output 0.277&#45;&gt;key 27578
bias &#45;0.882
h_scaling 1.000
output 0.075</title>
<path fill="none" stroke="red" stroke-width="0.1" d="M288.63,-526.87C279.86,-510.55 270.2,-492.56 261.17,-475.74"/>
<polygon fill="red" stroke="red" stroke-width="0.1" points="264.04,-473.68 256.22,-466.53 257.87,-476.99 264.04,-473.68"/>
<text text-anchor="middle" x="286.5" y="-494.64" font-family="Times,serif" font-size="9.00">0.970</text>
</g>
<!-- key 358831
bias &#45;0.337
h_scaling 1.000
output 0.878&#45;&gt;key 137092
bias &#45;0.592
h_scaling 1.000
output 0.517 -->
<g id="edge23" class="edge">
<title>key 358831
bias &#45;0.337
h_scaling 1.000
output 0.878&#45;&gt;key 137092
bias &#45;0.592
h_scaling 1.000
output 0.517</title>
<path fill="none" stroke="red" stroke-width="0.1" d="M419.24,-300.27C419.83,-309.74 420.01,-319.4 419.5,-328.56 419.35,-331.24 419.17,-333.96 418.98,-336.71"/>
<polygon fill="red" stroke="red" stroke-width="0.1" points="415.48,-336.49 418.16,-346.74 422.46,-337.06 415.48,-336.49"/>
<text text-anchor="middle" x="433.5" y="-321.36" font-family="Times,serif" font-size="9.00">0.242</text>
</g>
<!-- key 3409
bias 0.729
h_scaling 1.000
output 0.717&#45;&gt;output
bias &#45;0.735
h_scaling 1.000
output 0.009 -->
<g id="edge1" class="edge">
<title>key 3409
bias 0.729
h_scaling 1.000
output 0.717&#45;&gt;output
bias &#45;0.735
h_scaling 1.000
output 0.009</title>
<path fill="none" stroke="red" stroke-width="0.1" d="M191.42,-181.25C201.3,-164.33 212.27,-145.54 222.46,-128.07"/>
<polygon fill="red" stroke="red" stroke-width="0.1" points="225.7,-129.48 227.72,-119.08 219.65,-125.95 225.7,-129.48"/>
<text text-anchor="middle" x="223.5" y="-148.08" font-family="Times,serif" font-size="9.00">0.982</text>
</g>
<!-- key 27578
bias &#45;0.882
h_scaling 1.000
output 0.075&#45;&gt;output
bias &#45;0.735
h_scaling 1.000
output 0.009 -->
<g id="edge17" class="edge">
<title>key 27578
bias &#45;0.882
h_scaling 1.000
output 0.075&#45;&gt;output
bias &#45;0.735
h_scaling 1.000
output 0.009</title>
<path fill="none" stroke="blue" stroke-width="0.1" d="M232.48,-346.8C238.12,-287.83 246.59,-199.39 252.54,-137.27"/>
<polygon fill="blue" stroke="blue" stroke-width="0.1" points="256.04,-137.44 253.51,-127.15 249.08,-136.77 256.04,-137.44"/>
<text text-anchor="middle" x="265" y="-234.72" font-family="Times,serif" font-size="9.00">&#45;0.916</text>
</g>
<!-- key 27578
bias &#45;0.882
h_scaling 1.000
output 0.075&#45;&gt;key 3409
bias 0.729
h_scaling 1.000
output 0.717 -->
<g id="edge9" class="edge">
<title>key 27578
bias &#45;0.882
h_scaling 1.000
output 0.075&#45;&gt;key 3409
bias 0.729
h_scaling 1.000
output 0.717</title>
<path fill="none" stroke="blue" stroke-width="0.1" d="M203.63,-350.73C198,-336.34 191.93,-320.81 186.14,-306.01"/>
<polygon fill="blue" stroke="blue" stroke-width="0.1" points="189.28,-304.45 182.38,-296.41 182.76,-307 189.28,-304.45"/>
<text text-anchor="middle" x="209" y="-321.36" font-family="Times,serif" font-size="9.00">&#45;0.685</text>
</g>
</g>
</svg>
