<?xml version="1.0" encoding="UTF-8" standalone="no"?>
<!DOCTYPE svg PUBLIC "-//W3C//DTD SVG 1.1//EN"
 "http://www.w3.org/Graphics/SVG/1.1/DTD/svg11.dtd">
<!-- Generated by graphviz version 2.43.0 (0)
 -->
<!-- Title: %3 Pages: 1 -->
<svg width="530pt" height="1239pt"
 viewBox="0.00 0.00 530.00 1238.95" xmlns="http://www.w3.org/2000/svg" xmlns:xlink="http://www.w3.org/1999/xlink">
<g id="graph0" class="graph" transform="scale(1 1) rotate(0) translate(4 1234.95)">
<title>%3</title>
<polygon fill="white" stroke="transparent" points="-4,4 -4,-1234.95 526,-1234.95 526,4 -4,4"/>
<!-- ready -->
<g id="node1" class="node">
<title>ready</title>
<polygon fill="yellow" stroke="black" points="163.5,-1230.95 120.5,-1230.95 120.5,-1212.95 163.5,-1212.95 163.5,-1230.95"/>
<text text-anchor="middle" x="142" y="-1219.75" font-family="Times,serif" font-size="9.00">ready</text>
</g>
<!-- key 33481
bias &#45;0.442
h_scaling 1.000 -->
<g id="node5" class="node">
<title>key 33481
bias &#45;0.442
h_scaling 1.000</title>
<ellipse fill="white" stroke="black" cx="356" cy="-1103.31" rx="63.78" ry="63.78"/>
<text text-anchor="middle" x="356" y="-1111.11" font-family="Times,serif" font-size="9.00">key 33481</text>
<text text-anchor="middle" x="356" y="-1101.11" font-family="Times,serif" font-size="9.00">bias &#45;0.442</text>
<text text-anchor="middle" x="356" y="-1091.11" font-family="Times,serif" font-size="9.00">h_scaling 1.000</text>
</g>
<!-- ready&#45;&gt;key 33481
bias &#45;0.442
h_scaling 1.000 -->
<g id="edge13" class="edge">
<title>ready&#45;&gt;key 33481
bias &#45;0.442
h_scaling 1.000</title>
<path fill="none" stroke="red" stroke-width="2.87" d="M156.71,-1212.94C184.03,-1198.04 244.12,-1165.29 291.22,-1139.62"/>
<polygon fill="red" stroke="red" stroke-width="2.87" points="293.04,-1142.61 300.15,-1134.76 289.69,-1136.47 293.04,-1142.61"/>
<text text-anchor="middle" x="220" y="-1187.75" font-family="Times,serif" font-size="9.00">0.922</text>
</g>
<!-- key 5323
bias &#45;0.116
h_scaling 1.000 -->
<g id="node7" class="node">
<title>key 5323
bias &#45;0.116
h_scaling 1.000</title>
<ellipse fill="white" stroke="black" cx="126" cy="-756.76" rx="63.78" ry="63.78"/>
<text text-anchor="middle" x="126" y="-764.56" font-family="Times,serif" font-size="9.00">key 5323</text>
<text text-anchor="middle" x="126" y="-754.56" font-family="Times,serif" font-size="9.00">bias &#45;0.116</text>
<text text-anchor="middle" x="126" y="-744.56" font-family="Times,serif" font-size="9.00">h_scaling 1.000</text>
</g>
<!-- ready&#45;&gt;key 5323
bias &#45;0.116
h_scaling 1.000 -->
<g id="edge8" class="edge">
<title>ready&#45;&gt;key 5323
bias &#45;0.116
h_scaling 1.000</title>
<path fill="none" stroke="blue" stroke-width="1.46" d="M141.72,-1212.91C140.18,-1168.19 132.57,-947.89 128.53,-830.97"/>
<polygon fill="blue" stroke="blue" stroke-width="1.46" points="132.02,-830.54 128.17,-820.67 125.02,-830.78 132.02,-830.54"/>
<text text-anchor="middle" x="151.5" y="-1014.48" font-family="Times,serif" font-size="9.00">&#45;0.452</text>
</g>
<!-- go -->
<g id="node2" class="node">
<title>go</title>
<polygon fill="green" stroke="black" points="35,-939.04 7,-939.04 7,-921.04 35,-921.04 35,-939.04"/>
<text text-anchor="middle" x="21" y="-927.84" font-family="Times,serif" font-size="9.00">go</text>
</g>
<!-- go&#45;&gt;key 5323
bias &#45;0.116
h_scaling 1.000 -->
<g id="edge4" class="edge">
<title>go&#45;&gt;key 5323
bias &#45;0.116
h_scaling 1.000</title>
<path fill="none" stroke="red" stroke-width="2.61" d="M26.06,-920.77C37.14,-902.71 64.38,-858.28 87.62,-820.36"/>
<polygon fill="red" stroke="red" stroke-width="2.61" points="90.89,-821.73 93.13,-811.38 84.92,-818.07 90.89,-821.73"/>
<text text-anchor="middle" x="88" y="-841.2" font-family="Times,serif" font-size="9.00">0.836</text>
</g>
<!-- key 3409
bias 0.729
h_scaling 1.000 -->
<g id="node10" class="node">
<title>key 3409
bias 0.729
h_scaling 1.000</title>
<ellipse fill="white" stroke="black" cx="151" cy="-236.92" rx="63.78" ry="63.78"/>
<text text-anchor="middle" x="151" y="-244.72" font-family="Times,serif" font-size="9.00">key 3409</text>
<text text-anchor="middle" x="151" y="-234.72" font-family="Times,serif" font-size="9.00">bias 0.729</text>
<text text-anchor="middle" x="151" y="-224.72" font-family="Times,serif" font-size="9.00">h_scaling 1.000</text>
</g>
<!-- go&#45;&gt;key 3409
bias 0.729
h_scaling 1.000 -->
<g id="edge3" class="edge">
<title>go&#45;&gt;key 3409
bias 0.729
h_scaling 1.000</title>
<path fill="none" stroke="blue" stroke-width="2.95" d="M19.28,-920.88C14.27,-896.34 0,-820.97 0,-757.76 0,-757.76 0,-757.76 0,-409.2 0,-352.71 46.79,-306.04 88.27,-275.76"/>
<polygon fill="blue" stroke="blue" stroke-width="2.95" points="90.36,-278.57 96.49,-269.92 86.31,-272.86 90.36,-278.57"/>
<text text-anchor="middle" x="15.5" y="-581.28" font-family="Times,serif" font-size="9.00">&#45;0.950</text>
</g>
<!-- output
bias &#45;0.735
h_scaling 1.000 -->
<g id="node3" class="node">
<title>output
bias &#45;0.735
h_scaling 1.000</title>
<ellipse fill="lightblue" stroke="black" cx="251" cy="-63.64" rx="63.78" ry="63.78"/>
<text text-anchor="middle" x="251" y="-71.44" font-family="Times,serif" font-size="9.00">output</text>
<text text-anchor="middle" x="251" y="-61.44" font-family="Times,serif" font-size="9.00">bias &#45;0.735</text>
<text text-anchor="middle" x="251" y="-51.44" font-family="Times,serif" font-size="9.00">h_scaling 1.000</text>
</g>
<!-- output
bias &#45;0.735
h_scaling 1.000&#45;&gt;output
bias &#45;0.735
h_scaling 1.000 -->
<g id="edge2" class="edge">
<title>output
bias &#45;0.735
h_scaling 1.000&#45;&gt;output
bias &#45;0.735
h_scaling 1.000</title>
<path fill="none" stroke="red" stroke-width="3.01" d="M312.94,-78.94C324.5,-77.05 332.64,-71.95 332.64,-63.64 332.64,-57.92 328.79,-53.73 322.63,-51.05"/>
<polygon fill="red" stroke="red" stroke-width="3.01" points="323.52,-47.66 312.94,-48.34 321.63,-54.4 323.52,-47.66"/>
<text text-anchor="middle" x="346.64" y="-61.44" font-family="Times,serif" font-size="9.00">0.970</text>
</g>
<!-- key 137092
bias &#45;0.592
h_scaling 1.000 -->
<g id="node4" class="node">
<title>key 137092
bias &#45;0.592
h_scaling 1.000</title>
<ellipse fill="white" stroke="black" cx="402" cy="-410.2" rx="63.78" ry="63.78"/>
<text text-anchor="middle" x="402" y="-418" font-family="Times,serif" font-size="9.00">key 137092</text>
<text text-anchor="middle" x="402" y="-408" font-family="Times,serif" font-size="9.00">bias &#45;0.592</text>
<text text-anchor="middle" x="402" y="-398" font-family="Times,serif" font-size="9.00">h_scaling 1.000</text>
</g>
<!-- key 137092
bias &#45;0.592
h_scaling 1.000&#45;&gt;key 33481
bias &#45;0.442
h_scaling 1.000 -->
<g id="edge20" class="edge">
<title>key 137092
bias &#45;0.592
h_scaling 1.000&#45;&gt;key 33481
bias &#45;0.442
h_scaling 1.000</title>
<path fill="none" stroke="red" stroke-width="0.63" d="M402,-473.84C402,-506.26 402,-546.5 402,-582.48 402,-931.04 402,-931.04 402,-931.04 402,-965.76 393.07,-1003.14 383.08,-1034.09"/>
<polygon fill="red" stroke="red" stroke-width="0.63" points="379.65,-1033.31 379.81,-1043.9 386.29,-1035.52 379.65,-1033.31"/>
<text text-anchor="middle" x="416" y="-754.56" font-family="Times,serif" font-size="9.00">0.177</text>
</g>
<!-- key 358831
bias &#45;0.337
h_scaling 1.000 -->
<g id="node9" class="node">
<title>key 358831
bias &#45;0.337
h_scaling 1.000</title>
<ellipse fill="white" stroke="black" cx="402" cy="-236.92" rx="63.78" ry="63.78"/>
<text text-anchor="middle" x="402" y="-244.72" font-family="Times,serif" font-size="9.00">key 358831</text>
<text text-anchor="middle" x="402" y="-234.72" font-family="Times,serif" font-size="9.00">bias &#45;0.337</text>
<text text-anchor="middle" x="402" y="-224.72" font-family="Times,serif" font-size="9.00">h_scaling 1.000</text>
</g>
<!-- key 137092
bias &#45;0.592
h_scaling 1.000&#45;&gt;key 358831
bias &#45;0.337
h_scaling 1.000 -->
<g id="edge22" class="edge">
<title>key 137092
bias &#45;0.592
h_scaling 1.000&#45;&gt;key 358831
bias &#45;0.337
h_scaling 1.000</title>
<path fill="none" stroke="red" stroke-width="3.1" d="M383.82,-348.99C382.37,-338.88 381.85,-328.46 383,-318.56 383.37,-315.34 383.83,-312.07 384.35,-308.78"/>
<polygon fill="red" stroke="red" stroke-width="3.1" points="387.81,-309.31 386.08,-298.86 380.91,-308.11 387.81,-309.31"/>
<text text-anchor="middle" x="397" y="-321.36" font-family="Times,serif" font-size="9.00">1.000</text>
</g>
<!-- key 33481
bias &#45;0.442
h_scaling 1.000&#45;&gt;output
bias &#45;0.735
h_scaling 1.000 -->
<g id="edge15" class="edge">
<title>key 33481
bias &#45;0.442
h_scaling 1.000&#45;&gt;output
bias &#45;0.735
h_scaling 1.000</title>
<path fill="none" stroke="red" stroke-width="1.21" d="M408.57,-1067.07C447.56,-1036.29 494,-987.74 494,-931.04 494,-931.04 494,-931.04 494,-235.92 494,-206.83 493.89,-195.4 475,-173.28 435.53,-127.06 371.83,-98.84 322.43,-82.79"/>
<polygon fill="red" stroke="red" stroke-width="1.21" points="323.34,-79.4 312.75,-79.74 321.24,-86.08 323.34,-79.4"/>
<text text-anchor="middle" x="508" y="-581.28" font-family="Times,serif" font-size="9.00">0.370</text>
</g>
<!-- key 30955
bias &#45;0.552
h_scaling 1.000 -->
<g id="node6" class="node">
<title>key 30955
bias &#45;0.552
h_scaling 1.000</title>
<ellipse fill="white" stroke="black" cx="218" cy="-930.04" rx="63.78" ry="63.78"/>
<text text-anchor="middle" x="218" y="-937.84" font-family="Times,serif" font-size="9.00">key 30955</text>
<text text-anchor="middle" x="218" y="-927.84" font-family="Times,serif" font-size="9.00">bias &#45;0.552</text>
<text text-anchor="middle" x="218" y="-917.84" font-family="Times,serif" font-size="9.00">h_scaling 1.000</text>
</g>
<!-- key 33481
bias &#45;0.442
h_scaling 1.000&#45;&gt;key 30955
bias &#45;0.552
h_scaling 1.000 -->
<g id="edge14" class="edge">
<title>key 33481
bias &#45;0.442
h_scaling 1.000&#45;&gt;key 30955
bias &#45;0.552
h_scaling 1.000</title>
<path fill="none" stroke="red" stroke-width="3.1" d="M316.45,-1053.23C300.07,-1032.9 280.96,-1009.18 263.95,-988.07"/>
<polygon fill="red" stroke="red" stroke-width="3.1" points="266.55,-985.72 257.55,-980.12 261.1,-990.11 266.55,-985.72"/>
<text text-anchor="middle" x="301" y="-1014.48" font-family="Times,serif" font-size="9.00">1.000</text>
</g>
<!-- key 30955
bias &#45;0.552
h_scaling 1.000&#45;&gt;key 30955
bias &#45;0.552
h_scaling 1.000 -->
<g id="edge18" class="edge">
<title>key 30955
bias &#45;0.552
h_scaling 1.000&#45;&gt;key 30955
bias &#45;0.552
h_scaling 1.000</title>
<path fill="none" stroke="red" stroke-width="1.93" d="M279.94,-945.33C291.5,-943.45 299.64,-938.35 299.64,-930.04 299.64,-924.32 295.79,-920.12 289.63,-917.45"/>
<polygon fill="red" stroke="red" stroke-width="1.93" points="290.52,-914.06 279.94,-914.74 288.63,-920.8 290.52,-914.06"/>
<text text-anchor="middle" x="313.64" y="-927.84" font-family="Times,serif" font-size="9.00">0.610</text>
</g>
<!-- key 30955
bias &#45;0.552
h_scaling 1.000&#45;&gt;key 5323
bias &#45;0.116
h_scaling 1.000 -->
<g id="edge12" class="edge">
<title>key 30955
bias &#45;0.552
h_scaling 1.000&#45;&gt;key 5323
bias &#45;0.116
h_scaling 1.000</title>
<path fill="none" stroke="blue" stroke-width="1.53" d="M188.13,-873.43C179.36,-857.11 169.7,-839.12 160.67,-822.3"/>
<polygon fill="blue" stroke="blue" stroke-width="1.53" points="163.54,-820.24 155.72,-813.09 157.37,-823.55 163.54,-820.24"/>
<text text-anchor="middle" x="187.5" y="-841.2" font-family="Times,serif" font-size="9.00">&#45;0.475</text>
</g>
<!-- key 5323
bias &#45;0.116
h_scaling 1.000&#45;&gt;output
bias &#45;0.735
h_scaling 1.000 -->
<g id="edge7" class="edge">
<title>key 5323
bias &#45;0.116
h_scaling 1.000&#45;&gt;output
bias &#45;0.735
h_scaling 1.000</title>
<path fill="none" stroke="blue" stroke-width="2.82" d="M93.09,-701.91C76.14,-669.17 59,-625.83 59,-584.48 59,-584.48 59,-584.48 59,-235.92 59,-206.83 60.34,-196.4 78,-173.28 105.09,-137.81 147.35,-110.96 183.32,-92.83"/>
<polygon fill="blue" stroke="blue" stroke-width="2.82" points="184.88,-95.96 192.31,-88.41 181.79,-89.68 184.88,-95.96"/>
<text text-anchor="middle" x="74.5" y="-408" font-family="Times,serif" font-size="9.00">&#45;0.906</text>
</g>
<!-- key 5323
bias &#45;0.116
h_scaling 1.000&#45;&gt;key 5323
bias &#45;0.116
h_scaling 1.000 -->
<g id="edge6" class="edge">
<title>key 5323
bias &#45;0.116
h_scaling 1.000&#45;&gt;key 5323
bias &#45;0.116
h_scaling 1.000</title>
<path fill="none" stroke="red" stroke-width="2.26" d="M187.94,-772.05C199.5,-770.17 207.64,-765.07 207.64,-756.76 207.64,-751.04 203.79,-746.84 197.63,-744.17"/>
<polygon fill="red" stroke="red" stroke-width="2.26" points="198.52,-740.78 187.94,-741.46 196.63,-747.52 198.52,-740.78"/>
<text text-anchor="middle" x="221.64" y="-754.56" font-family="Times,serif" font-size="9.00">0.720</text>
</g>
<!-- key 29007
bias &#45;0.601
h_scaling 1.000 -->
<g id="node8" class="node">
<title>key 29007
bias &#45;0.601
h_scaling 1.000</title>
<ellipse fill="white" stroke="black" cx="310" cy="-583.48" rx="63.78" ry="63.78"/>
<text text-anchor="middle" x="310" y="-591.28" font-family="Times,serif" font-size="9.00">key 29007</text>
<text text-anchor="middle" x="310" y="-581.28" font-family="Times,serif" font-size="9.00">bias &#45;0.601</text>
<text text-anchor="middle" x="310" y="-571.28" font-family="Times,serif" font-size="9.00">h_scaling 1.000</text>
</g>
<!-- key 5323
bias &#45;0.116
h_scaling 1.000&#45;&gt;key 29007
bias &#45;0.601
h_scaling 1.000 -->
<g id="edge10" class="edge">
<title>key 5323
bias &#45;0.116
h_scaling 1.000&#45;&gt;key 29007
bias &#45;0.601
h_scaling 1.000</title>
<path fill="none" stroke="red" stroke-width="3.06" d="M172.43,-712.54C198.02,-688.71 229.91,-659.03 256.54,-634.24"/>
<polygon fill="red" stroke="red" stroke-width="3.06" points="258.97,-636.76 263.9,-627.39 254.2,-631.64 258.97,-636.76"/>
<text text-anchor="middle" x="232" y="-667.92" font-family="Times,serif" font-size="9.00">0.987</text>
</g>
<!-- key 5323
bias &#45;0.116
h_scaling 1.000&#45;&gt;key 3409
bias 0.729
h_scaling 1.000 -->
<g id="edge5" class="edge">
<title>key 5323
bias &#45;0.116
h_scaling 1.000&#45;&gt;key 3409
bias 0.729
h_scaling 1.000</title>
<path fill="none" stroke="blue" stroke-width="3.1" d="M128.74,-693.01C132.29,-612.69 138.76,-469.26 145,-346.56 145.59,-334.91 146.25,-322.57 146.9,-310.54"/>
<polygon fill="blue" stroke="blue" stroke-width="3.1" points="150.4,-310.71 147.45,-300.53 143.41,-310.33 150.4,-310.71"/>
<text text-anchor="middle" x="153.5" y="-494.64" font-family="Times,serif" font-size="9.00">&#45;1.000</text>
</g>
<!-- key 29007
bias &#45;0.601
h_scaling 1.000&#45;&gt;output
bias &#45;0.735
h_scaling 1.000 -->
<g id="edge21" class="edge">
<title>key 29007
bias &#45;0.601
h_scaling 1.000&#45;&gt;output
bias &#45;0.735
h_scaling 1.000</title>
<path fill="none" stroke="blue" stroke-width="1.25" d="M307.65,-519.74C303.97,-439.15 295.19,-295.1 276,-173.28 274.06,-160.98 271.52,-148.01 268.8,-135.48"/>
<polygon fill="blue" stroke="blue" stroke-width="1.25" points="272.18,-134.54 266.59,-125.54 265.35,-136.06 272.18,-134.54"/>
<text text-anchor="middle" x="310.5" y="-321.36" font-family="Times,serif" font-size="9.00">&#45;0.382</text>
</g>
<!-- key 29007
bias &#45;0.601
h_scaling 1.000&#45;&gt;key 137092
bias &#45;0.592
h_scaling 1.000 -->
<g id="edge19" class="edge">
<title>key 29007
bias &#45;0.601
h_scaling 1.000&#45;&gt;key 137092
bias &#45;0.592
h_scaling 1.000</title>
<path fill="none" stroke="red" stroke-width="2.99" d="M339.87,-526.87C348.64,-510.55 358.3,-492.56 367.33,-475.74"/>
<polygon fill="red" stroke="red" stroke-width="2.99" points="370.63,-476.99 372.28,-466.53 364.46,-473.68 370.63,-476.99"/>
<text text-anchor="middle" x="370" y="-494.64" font-family="Times,serif" font-size="9.00">0.965</text>
</g>
<!-- key 29007
bias &#45;0.601
h_scaling 1.000&#45;&gt;key 33481
bias &#45;0.442
h_scaling 1.000 -->
<g id="edge16" class="edge">
<title>key 29007
bias &#45;0.601
h_scaling 1.000&#45;&gt;key 33481
bias &#45;0.442
h_scaling 1.000</title>
<path fill="none" stroke="red" stroke-width="0.8" d="M316.25,-646.88C321.9,-703.99 330.34,-790.85 337,-866.4 341.82,-921.12 346.79,-983.03 350.44,-1029.69"/>
<polygon fill="red" stroke="red" stroke-width="0.8" points="346.95,-1030.01 351.22,-1039.71 353.93,-1029.47 346.95,-1030.01"/>
<text text-anchor="middle" x="350" y="-841.2" font-family="Times,serif" font-size="9.00">0.235</text>
</g>
<!-- key 27578
bias &#45;0.882
h_scaling 1.000 -->
<g id="node11" class="node">
<title>key 27578
bias &#45;0.882
h_scaling 1.000</title>
<ellipse fill="white" stroke="black" cx="218" cy="-410.2" rx="63.78" ry="63.78"/>
<text text-anchor="middle" x="218" y="-418" font-family="Times,serif" font-size="9.00">key 27578</text>
<text text-anchor="middle" x="218" y="-408" font-family="Times,serif" font-size="9.00">bias &#45;0.882</text>
<text text-anchor="middle" x="218" y="-398" font-family="Times,serif" font-size="9.00">h_scaling 1.000</text>
</g>
<!-- key 29007
bias &#45;0.601
h_scaling 1.000&#45;&gt;key 27578
bias &#45;0.882
h_scaling 1.000 -->
<g id="edge11" class="edge">
<title>key 29007
bias &#45;0.601
h_scaling 1.000&#45;&gt;key 27578
bias &#45;0.882
h_scaling 1.000</title>
<path fill="none" stroke="red" stroke-width="3.01" d="M280.13,-526.87C271.36,-510.55 261.7,-492.56 252.67,-475.74"/>
<polygon fill="red" stroke="red" stroke-width="3.01" points="255.54,-473.68 247.72,-466.53 249.37,-476.99 255.54,-473.68"/>
<text text-anchor="middle" x="278" y="-494.64" font-family="Times,serif" font-size="9.00">0.970</text>
</g>
<!-- key 358831
bias &#45;0.337
h_scaling 1.000&#45;&gt;key 137092
bias &#45;0.592
h_scaling 1.000 -->
<g id="edge23" class="edge">
<title>key 358831
bias &#45;0.337
h_scaling 1.000&#45;&gt;key 137092
bias &#45;0.592
h_scaling 1.000</title>
<path fill="none" stroke="red" stroke-width="0.83" d="M410.74,-300.27C411.33,-309.74 411.51,-319.4 411,-328.56 410.85,-331.24 410.67,-333.96 410.48,-336.71"/>
<polygon fill="red" stroke="red" stroke-width="0.83" points="406.98,-336.49 409.66,-346.74 413.96,-337.06 406.98,-336.49"/>
<text text-anchor="middle" x="425" y="-321.36" font-family="Times,serif" font-size="9.00">0.242</text>
</g>
<!-- key 3409
bias 0.729
h_scaling 1.000&#45;&gt;output
bias &#45;0.735
h_scaling 1.000 -->
<g id="edge1" class="edge">
<title>key 3409
bias 0.729
h_scaling 1.000&#45;&gt;output
bias &#45;0.735
h_scaling 1.000</title>
<path fill="none" stroke="red" stroke-width="3.05" d="M182.92,-181.25C192.8,-164.33 203.77,-145.54 213.96,-128.07"/>
<polygon fill="red" stroke="red" stroke-width="3.05" points="217.2,-129.48 219.22,-119.08 211.15,-125.95 217.2,-129.48"/>
<text text-anchor="middle" x="215" y="-148.08" font-family="Times,serif" font-size="9.00">0.982</text>
</g>
<!-- key 27578
bias &#45;0.882
h_scaling 1.000&#45;&gt;output
bias &#45;0.735
h_scaling 1.000 -->
<g id="edge17" class="edge">
<title>key 27578
bias &#45;0.882
h_scaling 1.000&#45;&gt;output
bias &#45;0.735
h_scaling 1.000</title>
<path fill="none" stroke="blue" stroke-width="2.85" d="M223.98,-346.8C229.62,-287.83 238.09,-199.39 244.04,-137.27"/>
<polygon fill="blue" stroke="blue" stroke-width="2.85" points="247.54,-137.44 245.01,-127.15 240.58,-136.77 247.54,-137.44"/>
<text text-anchor="middle" x="256.5" y="-234.72" font-family="Times,serif" font-size="9.00">&#45;0.916</text>
</g>
<!-- key 27578
bias &#45;0.882
h_scaling 1.000&#45;&gt;key 3409
bias 0.729
h_scaling 1.000 -->
<g id="edge9" class="edge">
<title>key 27578
bias &#45;0.882
h_scaling 1.000&#45;&gt;key 3409
bias 0.729
h_scaling 1.000</title>
<path fill="none" stroke="blue" stroke-width="2.16" d="M195.13,-350.73C189.5,-336.34 183.43,-320.81 177.64,-306.01"/>
<polygon fill="blue" stroke="blue" stroke-width="2.16" points="180.78,-304.45 173.88,-296.41 174.26,-307 180.78,-304.45"/>
<text text-anchor="middle" x="200.5" y="-321.36" font-family="Times,serif" font-size="9.00">&#45;0.685</text>
</g>
</g>
</svg>
