<?xml version="1.0" encoding="UTF-8" standalone="no"?>
<!DOCTYPE svg PUBLIC "-//W3C//DTD SVG 1.1//EN"
 "http://www.w3.org/Graphics/SVG/1.1/DTD/svg11.dtd">
<!-- Generated by graphviz version 2.43.0 (0)
 -->
<!-- Title: %3 Pages: 1 -->
<svg width="615pt" height="1422pt"
 viewBox="0.00 0.00 614.64 1422.23" xmlns="http://www.w3.org/2000/svg" xmlns:xlink="http://www.w3.org/1999/xlink">
<g id="graph0" class="graph" transform="scale(1 1) rotate(0) translate(4 1418.23)">
<title>%3</title>
<polygon fill="white" stroke="transparent" points="-4,4 -4,-1418.23 610.64,-1418.23 610.64,4 -4,4"/>
<!-- ready
output 0.000 -->
<g id="node1" class="node">
<title>ready
output 0.000</title>
<polygon fill="yellow" stroke="black" points="504.14,-1414.23 427.14,-1414.23 427.14,-1386.23 504.14,-1386.23 504.14,-1414.23"/>
<text text-anchor="middle" x="465.64" y="-1403.03" font-family="Times,serif" font-size="9.00">ready</text>
<text text-anchor="middle" x="465.64" y="-1393.03" font-family="Times,serif" font-size="9.00">output 0.000</text>
</g>
<!-- key 5827
bias &#45;0.644
h_scaling 0.449
output 0.187 -->
<g id="node4" class="node">
<title>key 5827
bias &#45;0.644
h_scaling 0.449
output 0.187</title>
<ellipse fill="white" stroke="black" cx="298.64" cy="-1276.59" rx="63.78" ry="63.78"/>
<text text-anchor="middle" x="298.64" y="-1289.39" font-family="Times,serif" font-size="9.00">key 5827</text>
<text text-anchor="middle" x="298.64" y="-1279.39" font-family="Times,serif" font-size="9.00">bias &#45;0.644</text>
<text text-anchor="middle" x="298.64" y="-1269.39" font-family="Times,serif" font-size="9.00">h_scaling 0.449</text>
<text text-anchor="middle" x="298.64" y="-1259.39" font-family="Times,serif" font-size="9.00">output 0.187</text>
</g>
<!-- ready
output 0.000&#45;&gt;key 5827
bias &#45;0.644
h_scaling 0.449
output 0.187 -->
<g id="edge12" class="edge">
<title>ready
output 0.000&#45;&gt;key 5827
bias &#45;0.644
h_scaling 0.449
output 0.187</title>
<path fill="none" stroke="red" stroke-width="0.99" d="M447.77,-1386.22C426.45,-1370.69 389.71,-1343.93 358.04,-1320.86"/>
<polygon fill="red" stroke="red" stroke-width="0.99" points="359.82,-1317.83 349.68,-1314.77 355.7,-1323.49 359.82,-1317.83"/>
<text text-anchor="middle" x="435.64" y="-1361.03" font-family="Times,serif" font-size="9.00">0.653</text>
</g>
<!-- key 28900
bias 0.246
h_scaling 0.173
output 0.637 -->
<g id="node5" class="node">
<title>key 28900
bias 0.246
h_scaling 0.173
output 0.637</title>
<ellipse fill="white" stroke="black" cx="405.64" cy="-756.76" rx="63.78" ry="63.78"/>
<text text-anchor="middle" x="405.64" y="-769.56" font-family="Times,serif" font-size="9.00">key 28900</text>
<text text-anchor="middle" x="405.64" y="-759.56" font-family="Times,serif" font-size="9.00">bias 0.246</text>
<text text-anchor="middle" x="405.64" y="-749.56" font-family="Times,serif" font-size="9.00">h_scaling 0.173</text>
<text text-anchor="middle" x="405.64" y="-739.56" font-family="Times,serif" font-size="9.00">output 0.637</text>
</g>
<!-- ready
output 0.000&#45;&gt;key 28900
bias 0.246
h_scaling 0.173
output 0.637 -->
<g id="edge11" class="edge">
<title>ready
output 0.000&#45;&gt;key 28900
bias 0.246
h_scaling 0.173
output 0.637</title>
<path fill="none" stroke="red" stroke-width="1.85" d="M491.28,-1386.21C524.62,-1367.23 578.64,-1328.61 578.64,-1277.59 578.64,-1277.59 578.64,-1277.59 578.64,-929.04 578.64,-866.44 520.73,-818.94 471.92,-790.03"/>
<polygon fill="red" stroke="red" stroke-width="1.85" points="473.66,-786.98 463.25,-785.02 470.16,-793.05 473.66,-786.98"/>
<text text-anchor="middle" x="592.64" y="-1101.11" font-family="Times,serif" font-size="9.00">0.721</text>
</g>
<!-- go
output 0.000 -->
<g id="node2" class="node">
<title>go
output 0.000</title>
<polygon fill="green" stroke="black" points="255.14,-1414.23 178.14,-1414.23 178.14,-1386.23 255.14,-1386.23 255.14,-1414.23"/>
<text text-anchor="middle" x="216.64" y="-1403.03" font-family="Times,serif" font-size="9.00">go</text>
<text text-anchor="middle" x="216.64" y="-1393.03" font-family="Times,serif" font-size="9.00">output 0.000</text>
</g>
<!-- go
output 0.000&#45;&gt;key 5827
bias &#45;0.644
h_scaling 0.449
output 0.187 -->
<g id="edge1" class="edge">
<title>go
output 0.000&#45;&gt;key 5827
bias &#45;0.644
h_scaling 0.449
output 0.187</title>
<path fill="none" stroke="blue" stroke-width="3.1" d="M225.42,-1386.22C233.33,-1374.47 245.58,-1356.3 257.81,-1338.16"/>
<polygon fill="blue" stroke="blue" stroke-width="3.1" points="260.73,-1340.1 263.41,-1329.85 254.92,-1336.18 260.73,-1340.1"/>
<text text-anchor="middle" x="259.14" y="-1361.03" font-family="Times,serif" font-size="9.00">&#45;1.000</text>
</g>
<!-- key 11408
bias &#45;0.552
h_scaling 0.645
output 0.370 -->
<g id="node10" class="node">
<title>key 11408
bias &#45;0.552
h_scaling 0.645
output 0.370</title>
<ellipse fill="white" stroke="black" cx="287.64" cy="-583.48" rx="63.78" ry="63.78"/>
<text text-anchor="middle" x="287.64" y="-596.28" font-family="Times,serif" font-size="9.00">key 11408</text>
<text text-anchor="middle" x="287.64" y="-586.28" font-family="Times,serif" font-size="9.00">bias &#45;0.552</text>
<text text-anchor="middle" x="287.64" y="-576.28" font-family="Times,serif" font-size="9.00">h_scaling 0.645</text>
<text text-anchor="middle" x="287.64" y="-566.28" font-family="Times,serif" font-size="9.00">output 0.370</text>
</g>
<!-- go
output 0.000&#45;&gt;key 11408
bias &#45;0.552
h_scaling 0.645
output 0.370 -->
<g id="edge6" class="edge">
<title>go
output 0.000&#45;&gt;key 11408
bias &#45;0.552
h_scaling 0.645
output 0.370</title>
<path fill="none" stroke="blue" stroke-width="2.89" d="M211.5,-1385.96C203.42,-1363.85 188.64,-1317.9 188.64,-1277.59 188.64,-1277.59 188.64,-1277.59 188.64,-755.76 188.64,-712.06 213.09,-669.5 237.69,-637.73"/>
<polygon fill="blue" stroke="blue" stroke-width="2.89" points="240.44,-639.89 243.93,-629.89 234.96,-635.53 240.44,-639.89"/>
<text text-anchor="middle" x="204.14" y="-1014.48" font-family="Times,serif" font-size="9.00">&#45;0.929</text>
</g>
<!-- output
bias &#45;0.989
h_scaling 0.935
output 0.008 -->
<g id="node3" class="node">
<title>output
bias &#45;0.989
h_scaling 0.935
output 0.008</title>
<ellipse fill="lightblue" stroke="black" cx="456.64" cy="-1103.31" rx="63.78" ry="63.78"/>
<text text-anchor="middle" x="456.64" y="-1116.11" font-family="Times,serif" font-size="9.00">output</text>
<text text-anchor="middle" x="456.64" y="-1106.11" font-family="Times,serif" font-size="9.00">bias &#45;0.989</text>
<text text-anchor="middle" x="456.64" y="-1096.11" font-family="Times,serif" font-size="9.00">h_scaling 0.935</text>
<text text-anchor="middle" x="456.64" y="-1086.11" font-family="Times,serif" font-size="9.00">output 0.008</text>
</g>
<!-- key 118697
bias &#45;0.362
h_scaling 0.435
output 0.144 -->
<g id="node6" class="node">
<title>key 118697
bias &#45;0.362
h_scaling 0.435
output 0.144</title>
<ellipse fill="white" stroke="black" cx="408.64" cy="-930.04" rx="63.78" ry="63.78"/>
<text text-anchor="middle" x="408.64" y="-942.84" font-family="Times,serif" font-size="9.00">key 118697</text>
<text text-anchor="middle" x="408.64" y="-932.84" font-family="Times,serif" font-size="9.00">bias &#45;0.362</text>
<text text-anchor="middle" x="408.64" y="-922.84" font-family="Times,serif" font-size="9.00">h_scaling 0.435</text>
<text text-anchor="middle" x="408.64" y="-912.84" font-family="Times,serif" font-size="9.00">output 0.144</text>
</g>
<!-- output
bias &#45;0.989
h_scaling 0.935
output 0.008&#45;&gt;key 118697
bias &#45;0.362
h_scaling 0.435
output 0.144 -->
<g id="edge9" class="edge">
<title>output
bias &#45;0.989
h_scaling 0.935
output 0.008&#45;&gt;key 118697
bias &#45;0.362
h_scaling 0.435
output 0.144</title>
<path fill="none" stroke="red" stroke-width="3.07" d="M439.72,-1041.93C436.02,-1028.75 432.09,-1014.7 428.3,-1001.18"/>
<polygon fill="red" stroke="red" stroke-width="3.07" points="431.64,-1000.14 425.57,-991.45 424.9,-1002.03 431.64,-1000.14"/>
<text text-anchor="middle" x="446.64" y="-1014.48" font-family="Times,serif" font-size="9.00">1.059</text>
</g>
<!-- key 5827
bias &#45;0.644
h_scaling 0.449
output 0.187&#45;&gt;output
bias &#45;0.989
h_scaling 0.935
output 0.008 -->
<g id="edge2" class="edge">
<title>key 5827
bias &#45;0.644
h_scaling 0.449
output 0.187&#45;&gt;output
bias &#45;0.989
h_scaling 0.935
output 0.008</title>
<path fill="none" stroke="red" stroke-width="2.88" d="M341.4,-1229.24C361.6,-1207.35 385.83,-1181.08 406.85,-1158.29"/>
<polygon fill="red" stroke="red" stroke-width="2.88" points="409.64,-1160.43 413.85,-1150.7 404.5,-1155.68 409.64,-1160.43"/>
<text text-anchor="middle" x="391.64" y="-1187.75" font-family="Times,serif" font-size="9.00">1.058</text>
</g>
<!-- key 5827
bias &#45;0.644
h_scaling 0.449
output 0.187&#45;&gt;key 5827
bias &#45;0.644
h_scaling 0.449
output 0.187 -->
<g id="edge5" class="edge">
<title>key 5827
bias &#45;0.644
h_scaling 0.449
output 0.187&#45;&gt;key 5827
bias &#45;0.644
h_scaling 0.449
output 0.187</title>
<path fill="none" stroke="red" stroke-width="1.41" d="M360.58,-1291.89C372.14,-1290.01 380.28,-1284.91 380.28,-1276.59 380.28,-1270.88 376.43,-1266.68 370.27,-1264"/>
<polygon fill="red" stroke="red" stroke-width="1.41" points="371.16,-1260.62 360.58,-1261.3 369.27,-1267.36 371.16,-1260.62"/>
<text text-anchor="middle" x="394.28" y="-1274.39" font-family="Times,serif" font-size="9.00">0.500</text>
</g>
<!-- key 5827
bias &#45;0.644
h_scaling 0.449
output 0.187&#45;&gt;key 11408
bias &#45;0.552
h_scaling 0.645
output 0.370 -->
<g id="edge4" class="edge">
<title>key 5827
bias &#45;0.644
h_scaling 0.449
output 0.187&#45;&gt;key 11408
bias &#45;0.552
h_scaling 0.645
output 0.370</title>
<path fill="none" stroke="red" stroke-width="3.08" d="M267.01,-1221.19C250.89,-1188.44 234.64,-1145.26 234.64,-1104.31 234.64,-1104.31 234.64,-1104.31 234.64,-755.76 234.64,-720.07 245.27,-682 257.01,-650.83"/>
<polygon fill="red" stroke="red" stroke-width="3.08" points="260.31,-651.98 260.67,-641.39 253.79,-649.45 260.31,-651.98"/>
<text text-anchor="middle" x="248.64" y="-927.84" font-family="Times,serif" font-size="9.00">1.082</text>
</g>
<!-- key 28900
bias 0.246
h_scaling 0.173
output 0.637&#45;&gt;key 11408
bias &#45;0.552
h_scaling 0.645
output 0.370 -->
<g id="edge8" class="edge">
<title>key 28900
bias 0.246
h_scaling 0.173
output 0.637&#45;&gt;key 11408
bias &#45;0.552
h_scaling 0.645
output 0.370</title>
<path fill="none" stroke="red" stroke-width="1.66" d="M369.92,-703.9C357.09,-685.29 342.52,-664.14 329.25,-644.87"/>
<polygon fill="red" stroke="red" stroke-width="1.66" points="332,-642.7 323.45,-636.45 326.24,-646.67 332,-642.7"/>
<text text-anchor="middle" x="360.64" y="-667.92" font-family="Times,serif" font-size="9.00">0.648</text>
</g>
<!-- key 118697
bias &#45;0.362
h_scaling 0.435
output 0.144&#45;&gt;key 28900
bias 0.246
h_scaling 0.173
output 0.637 -->
<g id="edge10" class="edge">
<title>key 118697
bias &#45;0.362
h_scaling 0.435
output 0.144&#45;&gt;key 28900
bias 0.246
h_scaling 0.173
output 0.637</title>
<path fill="none" stroke="blue" stroke-width="2.93" d="M407.54,-866.23C407.34,-854.71 407.13,-842.6 406.92,-830.81"/>
<polygon fill="blue" stroke="blue" stroke-width="2.93" points="410.41,-830.49 406.74,-820.55 403.42,-830.61 410.41,-830.49"/>
<text text-anchor="middle" x="423.14" y="-841.2" font-family="Times,serif" font-size="9.00">&#45;0.943</text>
</g>
<!-- key 424586
bias &#45;0.339
h_scaling 0.160
output 0.155 -->
<g id="node7" class="node">
<title>key 424586
bias &#45;0.339
h_scaling 0.160
output 0.155</title>
<ellipse fill="white" stroke="black" cx="63.64" cy="-583.48" rx="63.78" ry="63.78"/>
<text text-anchor="middle" x="63.64" y="-596.28" font-family="Times,serif" font-size="9.00">key 424586</text>
<text text-anchor="middle" x="63.64" y="-586.28" font-family="Times,serif" font-size="9.00">bias &#45;0.339</text>
<text text-anchor="middle" x="63.64" y="-576.28" font-family="Times,serif" font-size="9.00">h_scaling 0.160</text>
<text text-anchor="middle" x="63.64" y="-566.28" font-family="Times,serif" font-size="9.00">output 0.155</text>
</g>
<!-- key 416236
bias 0.054
h_scaling 1.000
output 0.612 -->
<g id="node9" class="node">
<title>key 416236
bias 0.054
h_scaling 1.000
output 0.612</title>
<ellipse fill="white" stroke="black" cx="230.64" cy="-410.2" rx="63.78" ry="63.78"/>
<text text-anchor="middle" x="230.64" y="-423" font-family="Times,serif" font-size="9.00">key 416236</text>
<text text-anchor="middle" x="230.64" y="-413" font-family="Times,serif" font-size="9.00">bias 0.054</text>
<text text-anchor="middle" x="230.64" y="-403" font-family="Times,serif" font-size="9.00">h_scaling 1.000</text>
<text text-anchor="middle" x="230.64" y="-393" font-family="Times,serif" font-size="9.00">output 0.612</text>
</g>
<!-- key 424586
bias &#45;0.339
h_scaling 0.160
output 0.155&#45;&gt;key 416236
bias 0.054
h_scaling 1.000
output 0.612 -->
<g id="edge19" class="edge">
<title>key 424586
bias &#45;0.339
h_scaling 0.160
output 0.155&#45;&gt;key 416236
bias 0.054
h_scaling 1.000
output 0.612</title>
<path fill="none" stroke="red" stroke-width="0.49" d="M94.34,-527.4C102.42,-515.06 111.69,-502.48 121.64,-491.84 135.46,-477.05 152.3,-463.09 168.57,-451.08"/>
<polygon fill="red" stroke="red" stroke-width="0.49" points="170.95,-453.68 177,-444.98 166.85,-448 170.95,-453.68"/>
<text text-anchor="middle" x="135.64" y="-494.64" font-family="Times,serif" font-size="9.00">0.130</text>
</g>
<!-- key 399851
bias 0.335
h_scaling 0.928
output 0.842 -->
<g id="node8" class="node">
<title>key 399851
bias 0.335
h_scaling 0.928
output 0.842</title>
<ellipse fill="white" stroke="black" cx="494.64" cy="-63.64" rx="63.78" ry="63.78"/>
<text text-anchor="middle" x="494.64" y="-76.44" font-family="Times,serif" font-size="9.00">key 399851</text>
<text text-anchor="middle" x="494.64" y="-66.44" font-family="Times,serif" font-size="9.00">bias 0.335</text>
<text text-anchor="middle" x="494.64" y="-56.44" font-family="Times,serif" font-size="9.00">h_scaling 0.928</text>
<text text-anchor="middle" x="494.64" y="-46.44" font-family="Times,serif" font-size="9.00">output 0.842</text>
</g>
<!-- key 399851
bias 0.335
h_scaling 0.928
output 0.842&#45;&gt;output
bias &#45;0.989
h_scaling 0.935
output 0.008 -->
<g id="edge13" class="edge">
<title>key 399851
bias 0.335
h_scaling 0.928
output 0.842&#45;&gt;output
bias &#45;0.989
h_scaling 0.935
output 0.008</title>
<path fill="none" stroke="blue" stroke-width="1.24" d="M518.45,-123.06C529.67,-155.69 540.64,-197.43 540.64,-235.92 540.64,-931.04 540.64,-931.04 540.64,-931.04 540.64,-971.6 521.41,-1012.56 501.35,-1044.25"/>
<polygon fill="blue" stroke="blue" stroke-width="1.24" points="498.22,-1042.64 495.69,-1052.93 504.08,-1046.47 498.22,-1042.64"/>
<text text-anchor="middle" x="556.14" y="-581.28" font-family="Times,serif" font-size="9.00">&#45;0.380</text>
</g>
<!-- key 417214
bias &#45;1.000
h_scaling 0.687
output 0.012 -->
<g id="node12" class="node">
<title>key 417214
bias &#45;1.000
h_scaling 0.687
output 0.012</title>
<ellipse fill="white" stroke="black" cx="394.64" cy="-236.92" rx="63.78" ry="63.78"/>
<text text-anchor="middle" x="394.64" y="-249.72" font-family="Times,serif" font-size="9.00">key 417214</text>
<text text-anchor="middle" x="394.64" y="-239.72" font-family="Times,serif" font-size="9.00">bias &#45;1.000</text>
<text text-anchor="middle" x="394.64" y="-229.72" font-family="Times,serif" font-size="9.00">h_scaling 0.687</text>
<text text-anchor="middle" x="394.64" y="-219.72" font-family="Times,serif" font-size="9.00">output 0.012</text>
</g>
<!-- key 416236
bias 0.054
h_scaling 1.000
output 0.612&#45;&gt;key 417214
bias &#45;1.000
h_scaling 0.687
output 0.012 -->
<g id="edge14" class="edge">
<title>key 416236
bias 0.054
h_scaling 1.000
output 0.612&#45;&gt;key 417214
bias &#45;1.000
h_scaling 0.687
output 0.012</title>
<path fill="none" stroke="red" stroke-width="0.67" d="M274.16,-363.75C295.56,-341.39 321.5,-314.31 343.81,-291"/>
<polygon fill="red" stroke="red" stroke-width="0.67" points="346.53,-293.22 350.92,-283.58 341.47,-288.38 346.53,-293.22"/>
<text text-anchor="middle" x="326.64" y="-321.36" font-family="Times,serif" font-size="9.00">0.315</text>
</g>
<!-- key 11408
bias &#45;0.552
h_scaling 0.645
output 0.370&#45;&gt;output
bias &#45;0.989
h_scaling 0.935
output 0.008 -->
<g id="edge7" class="edge">
<title>key 11408
bias &#45;0.552
h_scaling 0.645
output 0.370&#45;&gt;output
bias &#45;0.989
h_scaling 0.935
output 0.008</title>
<path fill="none" stroke="red" stroke-width="2.27" d="M348.77,-601.37C393.28,-617.21 450.51,-645.71 478.64,-693.12 479.07,-693.84 485.61,-958.7 481.64,-993.68 480.23,-1006.12 477.93,-1019.21 475.29,-1031.83"/>
<polygon fill="red" stroke="red" stroke-width="2.27" points="471.82,-1031.31 473.11,-1041.83 478.66,-1032.81 471.82,-1031.31"/>
<text text-anchor="middle" x="496.64" y="-841.2" font-family="Times,serif" font-size="9.00">0.768</text>
</g>
<!-- key 11408
bias &#45;0.552
h_scaling 0.645
output 0.370&#45;&gt;key 5827
bias &#45;0.644
h_scaling 0.449
output 0.187 -->
<g id="edge3" class="edge">
<title>key 11408
bias &#45;0.552
h_scaling 0.645
output 0.370&#45;&gt;key 5827
bias &#45;0.644
h_scaling 0.449
output 0.187</title>
<path fill="none" stroke="red" stroke-width="2.99" d="M293.59,-647.06C296.18,-679.47 298.64,-719.7 298.64,-755.76 298.64,-1104.31 298.64,-1104.31 298.64,-1104.31 298.64,-1136.64 298.64,-1172.4 298.64,-1202.85"/>
<polygon fill="red" stroke="red" stroke-width="2.99" points="295.14,-1202.95 298.64,-1212.95 302.14,-1202.95 295.14,-1202.95"/>
<text text-anchor="middle" x="312.64" y="-927.84" font-family="Times,serif" font-size="9.00">0.984</text>
</g>
<!-- key 11408
bias &#45;0.552
h_scaling 0.645
output 0.370&#45;&gt;key 416236
bias 0.054
h_scaling 1.000
output 0.612 -->
<g id="edge16" class="edge">
<title>key 11408
bias &#45;0.552
h_scaling 0.645
output 0.370&#45;&gt;key 416236
bias 0.054
h_scaling 1.000
output 0.612</title>
<path fill="none" stroke="red" stroke-width="0.27" d="M267.7,-522.57C263.17,-508.93 258.31,-494.34 253.65,-480.35"/>
<polygon fill="red" stroke="red" stroke-width="0.27" points="256.95,-479.16 250.47,-470.78 250.3,-481.37 256.95,-479.16"/>
<text text-anchor="middle" x="273.64" y="-494.64" font-family="Times,serif" font-size="9.00">0.102</text>
</g>
<!-- key 376923
bias &#45;0.387
h_scaling 0.103
output 0.000 -->
<g id="node11" class="node">
<title>key 376923
bias &#45;0.387
h_scaling 0.103
output 0.000</title>
<ellipse fill="white" stroke="black" cx="88.64" cy="-756.76" rx="63.78" ry="63.78"/>
<text text-anchor="middle" x="88.64" y="-769.56" font-family="Times,serif" font-size="9.00">key 376923</text>
<text text-anchor="middle" x="88.64" y="-759.56" font-family="Times,serif" font-size="9.00">bias &#45;0.387</text>
<text text-anchor="middle" x="88.64" y="-749.56" font-family="Times,serif" font-size="9.00">h_scaling 0.103</text>
<text text-anchor="middle" x="88.64" y="-739.56" font-family="Times,serif" font-size="9.00">output 0.000</text>
</g>
<!-- key 376923
bias &#45;0.387
h_scaling 0.103
output 0.000&#45;&gt;key 424586
bias &#45;0.339
h_scaling 0.160
output 0.155 -->
<g id="edge18" class="edge">
<title>key 376923
bias &#45;0.387
h_scaling 0.103
output 0.000&#45;&gt;key 424586
bias &#45;0.339
h_scaling 0.160
output 0.155</title>
<path fill="none" stroke="red" stroke-width="3.1" d="M79.54,-693.44C77.81,-681.55 75.98,-669.02 74.2,-656.86"/>
<polygon fill="red" stroke="red" stroke-width="3.1" points="77.64,-656.14 72.73,-646.75 70.71,-657.15 77.64,-656.14"/>
<text text-anchor="middle" x="90.64" y="-667.92" font-family="Times,serif" font-size="9.00">1.000</text>
</g>
<!-- key 376923
bias &#45;0.387
h_scaling 0.103
output 0.000&#45;&gt;key 416236
bias 0.054
h_scaling 1.000
output 0.612 -->
<g id="edge17" class="edge">
<title>key 376923
bias &#45;0.387
h_scaling 0.103
output 0.000&#45;&gt;key 416236
bias 0.054
h_scaling 1.000
output 0.612</title>
<path fill="none" stroke="blue" stroke-width="0.34" d="M114.72,-698.53C122.03,-682.03 129.83,-663.93 136.64,-647.12 159.28,-591.23 161.22,-575.82 183.64,-519.84 189.07,-506.28 195.11,-491.87 201,-478.13"/>
<polygon fill="blue" stroke="blue" stroke-width="0.34" points="204.31,-479.31 205.05,-468.74 197.88,-476.54 204.31,-479.31"/>
<text text-anchor="middle" x="199.14" y="-581.28" font-family="Times,serif" font-size="9.00">&#45;0.080</text>
</g>
<!-- key 417214
bias &#45;1.000
h_scaling 0.687
output 0.012&#45;&gt;key 399851
bias 0.335
h_scaling 0.928
output 0.842 -->
<g id="edge15" class="edge">
<title>key 417214
bias &#45;1.000
h_scaling 0.687
output 0.012&#45;&gt;key 399851
bias 0.335
h_scaling 0.928
output 0.842</title>
<path fill="none" stroke="blue" stroke-width="0.13" d="M426.56,-181.25C436.44,-164.33 447.41,-145.54 457.6,-128.07"/>
<polygon fill="blue" stroke="blue" stroke-width="0.13" points="460.84,-129.48 462.86,-119.08 454.79,-125.95 460.84,-129.48"/>
<text text-anchor="middle" x="460.14" y="-148.08" font-family="Times,serif" font-size="9.00">&#45;0.011</text>
</g>
</g>
</svg>
