<?xml version="1.0" encoding="UTF-8" standalone="no"?>
<!DOCTYPE svg PUBLIC "-//W3C//DTD SVG 1.1//EN"
 "http://www.w3.org/Graphics/SVG/1.1/DTD/svg11.dtd">
<!-- Generated by graphviz version 2.43.0 (0)
 -->
<!-- Title: %3 Pages: 1 -->
<svg width="298pt" height="546pt"
 viewBox="0.00 0.00 298.28 545.84" xmlns="http://www.w3.org/2000/svg" xmlns:xlink="http://www.w3.org/1999/xlink">
<g id="graph0" class="graph" transform="scale(1 1) rotate(0) translate(4 541.84)">
<title>%3</title>
<polygon fill="white" stroke="transparent" points="-4,4 -4,-541.84 294.28,-541.84 294.28,4 -4,4"/>
<!-- ready -->
<g id="node1" class="node">
<title>ready</title>
<polygon fill="yellow" stroke="black" points="158.14,-537.84 115.14,-537.84 115.14,-519.84 158.14,-519.84 158.14,-537.84"/>
<text text-anchor="middle" x="136.64" y="-526.64" font-family="Times,serif" font-size="9.00">ready</text>
</g>
<!-- key 340999
bias &#45;0.539
h_scaling 0.065 -->
<g id="node5" class="node">
<title>key 340999
bias &#45;0.539
h_scaling 0.065</title>
<ellipse fill="white" stroke="black" cx="136.64" cy="-410.2" rx="63.78" ry="63.78"/>
<text text-anchor="middle" x="136.64" y="-418" font-family="Times,serif" font-size="9.00">key 340999</text>
<text text-anchor="middle" x="136.64" y="-408" font-family="Times,serif" font-size="9.00">bias &#45;0.539</text>
<text text-anchor="middle" x="136.64" y="-398" font-family="Times,serif" font-size="9.00">h_scaling 0.065</text>
</g>
<!-- ready&#45;&gt;key 340999
bias &#45;0.539
h_scaling 0.065 -->
<g id="edge6" class="edge">
<title>ready&#45;&gt;key 340999
bias &#45;0.539
h_scaling 0.065</title>
<path fill="none" stroke="red" stroke-width="2.9" d="M136.64,-519.82C136.64,-511.79 136.64,-498.57 136.64,-484.07"/>
<polygon fill="red" stroke="red" stroke-width="2.9" points="140.14,-483.87 136.64,-473.87 133.14,-483.87 140.14,-483.87"/>
<text text-anchor="middle" x="150.64" y="-494.64" font-family="Times,serif" font-size="9.00">0.933</text>
</g>
<!-- go -->
<g id="node2" class="node">
<title>go</title>
<polygon fill="green" stroke="black" points="286.64,-245.92 258.64,-245.92 258.64,-227.92 286.64,-227.92 286.64,-245.92"/>
<text text-anchor="middle" x="272.64" y="-234.72" font-family="Times,serif" font-size="9.00">go</text>
</g>
<!-- key 2255
bias &#45;0.515
h_scaling 0.000 -->
<g id="node4" class="node">
<title>key 2255
bias &#45;0.515
h_scaling 0.000</title>
<ellipse fill="white" stroke="black" cx="180.64" cy="-63.64" rx="63.78" ry="63.78"/>
<text text-anchor="middle" x="180.64" y="-71.44" font-family="Times,serif" font-size="9.00">key 2255</text>
<text text-anchor="middle" x="180.64" y="-61.44" font-family="Times,serif" font-size="9.00">bias &#45;0.515</text>
<text text-anchor="middle" x="180.64" y="-51.44" font-family="Times,serif" font-size="9.00">h_scaling 0.000</text>
</g>
<!-- go&#45;&gt;key 2255
bias &#45;0.515
h_scaling 0.000 -->
<g id="edge3" class="edge">
<title>go&#45;&gt;key 2255
bias &#45;0.515
h_scaling 0.000</title>
<path fill="none" stroke="red" stroke-width="3.07" d="M269.3,-227.67C264.32,-215.56 254.47,-192.33 244.64,-173.28 236.75,-157.99 227.68,-141.86 218.89,-126.83"/>
<polygon fill="red" stroke="red" stroke-width="3.07" points="221.85,-124.96 213.75,-118.13 215.82,-128.52 221.85,-124.96"/>
<text text-anchor="middle" x="249.64" y="-148.08" font-family="Times,serif" font-size="9.00">0.989</text>
</g>
<!-- output
bias &#45;0.268
h_scaling 0.705 -->
<g id="node3" class="node">
<title>output
bias &#45;0.268
h_scaling 0.705</title>
<ellipse fill="lightblue" stroke="black" cx="63.64" cy="-236.92" rx="63.78" ry="63.78"/>
<text text-anchor="middle" x="63.64" y="-244.72" font-family="Times,serif" font-size="9.00">output</text>
<text text-anchor="middle" x="63.64" y="-234.72" font-family="Times,serif" font-size="9.00">bias &#45;0.268</text>
<text text-anchor="middle" x="63.64" y="-224.72" font-family="Times,serif" font-size="9.00">h_scaling 0.705</text>
</g>
<!-- output
bias &#45;0.268
h_scaling 0.705&#45;&gt;output
bias &#45;0.268
h_scaling 0.705 -->
<g id="edge2" class="edge">
<title>output
bias &#45;0.268
h_scaling 0.705&#45;&gt;output
bias &#45;0.268
h_scaling 0.705</title>
<path fill="none" stroke="red" stroke-width="2.59" d="M125.58,-252.22C137.14,-250.33 145.28,-245.23 145.28,-236.92 145.28,-231.2 141.43,-227.01 135.27,-224.33"/>
<polygon fill="red" stroke="red" stroke-width="2.59" points="136.16,-220.94 125.58,-221.62 134.27,-227.68 136.16,-220.94"/>
<text text-anchor="middle" x="159.28" y="-234.72" font-family="Times,serif" font-size="9.00">0.831</text>
</g>
<!-- output
bias &#45;0.268
h_scaling 0.705&#45;&gt;key 2255
bias &#45;0.515
h_scaling 0.000 -->
<g id="edge5" class="edge">
<title>output
bias &#45;0.268
h_scaling 0.705&#45;&gt;key 2255
bias &#45;0.515
h_scaling 0.000</title>
<path fill="none" stroke="red" stroke-width="0.39" d="M76.93,-174.42C80.51,-164.26 85.01,-154.16 90.64,-145.28 99.02,-132.05 110.17,-119.68 121.76,-108.79"/>
<polygon fill="red" stroke="red" stroke-width="0.39" points="124.35,-111.17 129.41,-101.86 119.65,-105.98 124.35,-111.17"/>
<text text-anchor="middle" x="104.64" y="-148.08" font-family="Times,serif" font-size="9.00">0.096</text>
</g>
<!-- key 2255
bias &#45;0.515
h_scaling 0.000&#45;&gt;output
bias &#45;0.268
h_scaling 0.705 -->
<g id="edge1" class="edge">
<title>key 2255
bias &#45;0.515
h_scaling 0.000&#45;&gt;output
bias &#45;0.268
h_scaling 0.705</title>
<path fill="none" stroke="blue" stroke-width="3.1" d="M145.12,-116.64C132.49,-135.12 118.17,-156.09 105.09,-175.23"/>
<polygon fill="blue" stroke="blue" stroke-width="3.1" points="102.13,-173.37 99.38,-183.6 107.91,-177.32 102.13,-173.37"/>
<text text-anchor="middle" x="138.14" y="-148.08" font-family="Times,serif" font-size="9.00">&#45;1.000</text>
</g>
<!-- key 2255
bias &#45;0.515
h_scaling 0.000&#45;&gt;key 2255
bias &#45;0.515
h_scaling 0.000 -->
<g id="edge4" class="edge">
<title>key 2255
bias &#45;0.515
h_scaling 0.000&#45;&gt;key 2255
bias &#45;0.515
h_scaling 0.000</title>
<path fill="none" stroke="red" stroke-width="3.1" d="M242.58,-78.94C254.14,-77.05 262.28,-71.95 262.28,-63.64 262.28,-57.92 258.43,-53.73 252.27,-51.05"/>
<polygon fill="red" stroke="red" stroke-width="3.1" points="253.16,-47.66 242.58,-48.34 251.27,-54.4 253.16,-47.66"/>
<text text-anchor="middle" x="276.28" y="-61.44" font-family="Times,serif" font-size="9.00">1.000</text>
</g>
<!-- key 340999
bias &#45;0.539
h_scaling 0.065&#45;&gt;output
bias &#45;0.268
h_scaling 0.705 -->
<g id="edge9" class="edge">
<title>key 340999
bias &#45;0.539
h_scaling 0.065&#45;&gt;output
bias &#45;0.268
h_scaling 0.705</title>
<path fill="none" stroke="red" stroke-width="1.29" d="M111.93,-351.21C105.62,-336.42 98.79,-320.4 92.31,-305.19"/>
<polygon fill="red" stroke="red" stroke-width="1.29" points="95.47,-303.67 88.33,-295.85 89.03,-306.42 95.47,-303.67"/>
<text text-anchor="middle" x="114.64" y="-321.36" font-family="Times,serif" font-size="9.00">0.396</text>
</g>
<!-- key 340999
bias &#45;0.539
h_scaling 0.065&#45;&gt;key 2255
bias &#45;0.515
h_scaling 0.000 -->
<g id="edge7" class="edge">
<title>key 340999
bias &#45;0.539
h_scaling 0.065&#45;&gt;key 2255
bias &#45;0.515
h_scaling 0.000</title>
<path fill="none" stroke="blue" stroke-width="0.81" d="M165.32,-353.35C172.42,-336.79 179.03,-318.32 182.64,-300.56 193.61,-246.52 192.49,-184.08 188.96,-137.01"/>
<polygon fill="blue" stroke="blue" stroke-width="0.81" points="192.44,-136.59 188.15,-126.91 185.46,-137.15 192.44,-136.59"/>
<text text-anchor="middle" x="207.14" y="-234.72" font-family="Times,serif" font-size="9.00">&#45;0.235</text>
</g>
<!-- key 340999
bias &#45;0.539
h_scaling 0.065&#45;&gt;key 340999
bias &#45;0.539
h_scaling 0.065 -->
<g id="edge8" class="edge">
<title>key 340999
bias &#45;0.539
h_scaling 0.065&#45;&gt;key 340999
bias &#45;0.539
h_scaling 0.065</title>
<path fill="none" stroke="red" stroke-width="2.73" d="M198.58,-425.5C210.14,-423.61 218.28,-418.51 218.28,-410.2 218.28,-404.48 214.43,-400.29 208.27,-397.61"/>
<polygon fill="red" stroke="red" stroke-width="2.73" points="209.16,-394.22 198.58,-394.9 207.27,-400.96 209.16,-394.22"/>
<text text-anchor="middle" x="232.28" y="-408" font-family="Times,serif" font-size="9.00">0.878</text>
</g>
</g>
</svg>
