<?xml version="1.0" encoding="UTF-8" standalone="no"?>
<!DOCTYPE svg PUBLIC "-//W3C//DTD SVG 1.1//EN"
 "http://www.w3.org/Graphics/SVG/1.1/DTD/svg11.dtd">
<!-- Generated by graphviz version 2.43.0 (0)
 -->
<!-- Title: %3 Pages: 1 -->
<svg width="388pt" height="1348pt"
 viewBox="0.00 0.00 388.31 1348.23" xmlns="http://www.w3.org/2000/svg" xmlns:xlink="http://www.w3.org/1999/xlink">
<g id="graph0" class="graph" transform="scale(1 1) rotate(0) translate(4 1344.23)">
<title>%3</title>
<polygon fill="white" stroke="transparent" points="-4,4 -4,-1344.23 384.31,-1344.23 384.31,4 -4,4"/>
<!-- ready -->
<g id="node1" class="node">
<title>ready</title>
<polygon fill="yellow" stroke="black" points="158.81,-939.04 115.81,-939.04 115.81,-921.04 158.81,-921.04 158.81,-939.04"/>
<text text-anchor="middle" x="137.31" y="-927.84" font-family="Times,serif" font-size="9.00">ready</text>
</g>
<!-- key 6536
bias 0.780
h_scaling 0.030 -->
<g id="node6" class="node">
<title>key 6536
bias 0.780
h_scaling 0.030</title>
<ellipse fill="white" stroke="black" cx="250.31" cy="-756.76" rx="63.78" ry="63.78"/>
<text text-anchor="middle" x="250.31" y="-764.56" font-family="Times,serif" font-size="9.00">key 6536</text>
<text text-anchor="middle" x="250.31" y="-754.56" font-family="Times,serif" font-size="9.00">bias 0.780</text>
<text text-anchor="middle" x="250.31" y="-744.56" font-family="Times,serif" font-size="9.00">h_scaling 0.030</text>
</g>
<!-- ready&#45;&gt;key 6536
bias 0.780
h_scaling 0.030 -->
<g id="edge4" class="edge">
<title>ready&#45;&gt;key 6536
bias 0.780
h_scaling 0.030</title>
<path fill="none" stroke="red" stroke-width="1.7" d="M142.43,-920.89C149.98,-908.9 164.58,-885.82 177.31,-866.4 187.55,-850.76 198.75,-833.95 209.24,-818.34"/>
<polygon fill="red" stroke="red" stroke-width="1.7" points="212.3,-820.06 214.97,-809.81 206.49,-816.16 212.3,-820.06"/>
<text text-anchor="middle" x="209.31" y="-841.2" font-family="Times,serif" font-size="9.00">0.533</text>
</g>
<!-- key 177
bias 0.669
h_scaling 0.141 -->
<g id="node7" class="node">
<title>key 177
bias 0.669
h_scaling 0.141</title>
<ellipse fill="white" stroke="black" cx="119.31" cy="-410.2" rx="63.78" ry="63.78"/>
<text text-anchor="middle" x="119.31" y="-418" font-family="Times,serif" font-size="9.00">key 177</text>
<text text-anchor="middle" x="119.31" y="-408" font-family="Times,serif" font-size="9.00">bias 0.669</text>
<text text-anchor="middle" x="119.31" y="-398" font-family="Times,serif" font-size="9.00">h_scaling 0.141</text>
</g>
<!-- ready&#45;&gt;key 177
bias 0.669
h_scaling 0.141 -->
<g id="edge9" class="edge">
<title>ready&#45;&gt;key 177
bias 0.669
h_scaling 0.141</title>
<path fill="none" stroke="blue" stroke-width="1.68" d="M127.44,-920.87C107.88,-904.14 64.12,-863.86 41.31,-820.4 10.4,-761.49 13.37,-741.15 5.31,-675.12 -4.81,-592.16 -3.27,-558.36 47.31,-491.84 54.16,-482.82 61.79,-473.58 69.43,-464.72"/>
<polygon fill="blue" stroke="blue" stroke-width="1.68" points="72.2,-466.87 76.14,-457.04 66.93,-462.27 72.2,-466.87"/>
<text text-anchor="middle" x="20.81" y="-667.92" font-family="Times,serif" font-size="9.00">&#45;0.527</text>
</g>
<!-- key 178
bias 0.892
h_scaling 0.206 -->
<g id="node8" class="node">
<title>key 178
bias 0.892
h_scaling 0.206</title>
<ellipse fill="white" stroke="black" cx="144.31" cy="-583.48" rx="63.78" ry="63.78"/>
<text text-anchor="middle" x="144.31" y="-591.28" font-family="Times,serif" font-size="9.00">key 178</text>
<text text-anchor="middle" x="144.31" y="-581.28" font-family="Times,serif" font-size="9.00">bias 0.892</text>
<text text-anchor="middle" x="144.31" y="-571.28" font-family="Times,serif" font-size="9.00">h_scaling 0.206</text>
</g>
<!-- ready&#45;&gt;key 178
bias 0.892
h_scaling 0.206 -->
<g id="edge13" class="edge">
<title>ready&#45;&gt;key 178
bias 0.892
h_scaling 0.206</title>
<path fill="none" stroke="blue" stroke-width="0.25" d="M137.48,-920.86C138.19,-885.72 141.04,-745.32 142.83,-657.39"/>
<polygon fill="blue" stroke="blue" stroke-width="0.25" points="146.33,-657.27 143.04,-647.2 139.33,-657.13 146.33,-657.27"/>
<text text-anchor="middle" x="157.81" y="-754.56" font-family="Times,serif" font-size="9.00">&#45;0.051</text>
</g>
<!-- go -->
<g id="node2" class="node">
<title>go</title>
<polygon fill="green" stroke="black" points="78.31,-765.76 50.31,-765.76 50.31,-747.76 78.31,-747.76 78.31,-765.76"/>
<text text-anchor="middle" x="64.31" y="-754.56" font-family="Times,serif" font-size="9.00">go</text>
</g>
<!-- go&#45;&gt;key 177
bias 0.669
h_scaling 0.141 -->
<g id="edge3" class="edge">
<title>go&#45;&gt;key 177
bias 0.669
h_scaling 0.141</title>
<path fill="none" stroke="red" stroke-width="3.1" d="M61.28,-747.36C50.54,-716.3 16.37,-605.34 43.31,-519.84 49.26,-500.96 59.79,-482.5 71.15,-466.31"/>
<polygon fill="red" stroke="red" stroke-width="3.1" points="74.1,-468.21 77.15,-458.06 68.44,-464.09 74.1,-468.21"/>
<text text-anchor="middle" x="57.31" y="-581.28" font-family="Times,serif" font-size="9.00">1.000</text>
</g>
<!-- go&#45;&gt;key 178
bias 0.892
h_scaling 0.206 -->
<g id="edge2" class="edge">
<title>go&#45;&gt;key 178
bias 0.892
h_scaling 0.206</title>
<path fill="none" stroke="red" stroke-width="2.67" d="M66.48,-747.52C70.88,-731.32 81.63,-694.34 95.31,-665.12 98.2,-658.94 101.45,-652.63 104.86,-646.41"/>
<polygon fill="red" stroke="red" stroke-width="2.67" points="108.1,-647.8 109.96,-637.37 102,-644.36 108.1,-647.8"/>
<text text-anchor="middle" x="109.31" y="-667.92" font-family="Times,serif" font-size="9.00">0.856</text>
</g>
<!-- output
bias 0.972
h_scaling 0.432 -->
<g id="node3" class="node">
<title>output
bias 0.972
h_scaling 0.432</title>
<ellipse fill="lightblue" stroke="black" cx="238.31" cy="-236.92" rx="63.78" ry="63.78"/>
<text text-anchor="middle" x="238.31" y="-244.72" font-family="Times,serif" font-size="9.00">output</text>
<text text-anchor="middle" x="238.31" y="-234.72" font-family="Times,serif" font-size="9.00">bias 0.972</text>
<text text-anchor="middle" x="238.31" y="-224.72" font-family="Times,serif" font-size="9.00">h_scaling 0.432</text>
</g>
<!-- key 54020
bias 0.305
h_scaling 0.995 -->
<g id="node4" class="node">
<title>key 54020
bias 0.305
h_scaling 0.995</title>
<ellipse fill="white" stroke="black" cx="303.31" cy="-63.64" rx="63.78" ry="63.78"/>
<text text-anchor="middle" x="303.31" y="-71.44" font-family="Times,serif" font-size="9.00">key 54020</text>
<text text-anchor="middle" x="303.31" y="-61.44" font-family="Times,serif" font-size="9.00">bias 0.305</text>
<text text-anchor="middle" x="303.31" y="-51.44" font-family="Times,serif" font-size="9.00">h_scaling 0.995</text>
</g>
<!-- output
bias 0.972
h_scaling 0.432&#45;&gt;key 54020
bias 0.305
h_scaling 0.995 -->
<g id="edge10" class="edge">
<title>output
bias 0.972
h_scaling 0.432&#45;&gt;key 54020
bias 0.305
h_scaling 0.995</title>
<path fill="none" stroke="red" stroke-width="3.1" d="M260.68,-176.97C266.07,-162.77 271.88,-147.47 277.42,-132.87"/>
<polygon fill="red" stroke="red" stroke-width="3.1" points="280.73,-133.99 281.01,-123.4 274.19,-131.51 280.73,-133.99"/>
<text text-anchor="middle" x="284.31" y="-148.08" font-family="Times,serif" font-size="9.00">1.000</text>
</g>
<!-- key 54020
bias 0.305
h_scaling 0.995&#45;&gt;key 6536
bias 0.780
h_scaling 0.030 -->
<g id="edge11" class="edge">
<title>key 54020
bias 0.305
h_scaling 0.995&#45;&gt;key 6536
bias 0.780
h_scaling 0.030</title>
<path fill="none" stroke="blue" stroke-width="0.49" d="M327.12,-123.06C338.34,-155.69 349.31,-197.43 349.31,-235.92 349.31,-584.48 349.31,-584.48 349.31,-584.48 349.31,-628.17 324.86,-670.74 300.26,-702.5"/>
<polygon fill="blue" stroke="blue" stroke-width="0.49" points="297.51,-700.34 294.02,-710.34 302.99,-704.7 297.51,-700.34"/>
<text text-anchor="middle" x="364.81" y="-408" font-family="Times,serif" font-size="9.00">&#45;0.131</text>
</g>
<!-- key 319141
bias 0.524
h_scaling 0.885 -->
<g id="node5" class="node">
<title>key 319141
bias 0.524
h_scaling 0.885</title>
<ellipse fill="white" stroke="black" cx="250.31" cy="-1276.59" rx="63.78" ry="63.78"/>
<text text-anchor="middle" x="250.31" y="-1284.39" font-family="Times,serif" font-size="9.00">key 319141</text>
<text text-anchor="middle" x="250.31" y="-1274.39" font-family="Times,serif" font-size="9.00">bias 0.524</text>
<text text-anchor="middle" x="250.31" y="-1264.39" font-family="Times,serif" font-size="9.00">h_scaling 0.885</text>
</g>
<!-- key 97599
bias 0.609
h_scaling 0.185 -->
<g id="node10" class="node">
<title>key 97599
bias 0.609
h_scaling 0.185</title>
<ellipse fill="white" stroke="black" cx="250.31" cy="-1103.31" rx="63.78" ry="63.78"/>
<text text-anchor="middle" x="250.31" y="-1111.11" font-family="Times,serif" font-size="9.00">key 97599</text>
<text text-anchor="middle" x="250.31" y="-1101.11" font-family="Times,serif" font-size="9.00">bias 0.609</text>
<text text-anchor="middle" x="250.31" y="-1091.11" font-family="Times,serif" font-size="9.00">h_scaling 0.185</text>
</g>
<!-- key 319141
bias 0.524
h_scaling 0.885&#45;&gt;key 97599
bias 0.609
h_scaling 0.185 -->
<g id="edge14" class="edge">
<title>key 319141
bias 0.524
h_scaling 0.885&#45;&gt;key 97599
bias 0.609
h_scaling 0.185</title>
<path fill="none" stroke="red" stroke-width="2.59" d="M250.31,-1212.79C250.31,-1201.27 250.31,-1189.15 250.31,-1177.37"/>
<polygon fill="red" stroke="red" stroke-width="2.59" points="253.81,-1177.11 250.31,-1167.11 246.81,-1177.11 253.81,-1177.11"/>
<text text-anchor="middle" x="264.31" y="-1187.75" font-family="Times,serif" font-size="9.00">0.830</text>
</g>
<!-- key 6536
bias 0.780
h_scaling 0.030&#45;&gt;output
bias 0.972
h_scaling 0.432 -->
<g id="edge12" class="edge">
<title>key 6536
bias 0.780
h_scaling 0.030&#45;&gt;output
bias 0.972
h_scaling 0.432</title>
<path fill="none" stroke="red" stroke-width="1.66" d="M271.69,-696.71C276.49,-680.82 280.88,-663.5 283.31,-647.12 300.9,-528.69 276.2,-390.04 257.03,-308.34"/>
<polygon fill="red" stroke="red" stroke-width="1.66" points="260.39,-307.34 254.66,-298.42 253.58,-308.96 260.39,-307.34"/>
<text text-anchor="middle" x="300.31" y="-494.64" font-family="Times,serif" font-size="9.00">0.521</text>
</g>
<!-- key 6536
bias 0.780
h_scaling 0.030&#45;&gt;key 177
bias 0.669
h_scaling 0.141 -->
<g id="edge5" class="edge">
<title>key 6536
bias 0.780
h_scaling 0.030&#45;&gt;key 177
bias 0.669
h_scaling 0.141</title>
<path fill="none" stroke="blue" stroke-width="2.64" d="M251.41,-693.08C250,-643.83 242.88,-574.65 217.31,-519.84 207.02,-497.78 190.71,-477.02 174.32,-459.67"/>
<polygon fill="blue" stroke="blue" stroke-width="2.64" points="176.79,-457.18 167.31,-452.45 171.76,-462.06 176.79,-457.18"/>
<text text-anchor="middle" x="263.81" y="-581.28" font-family="Times,serif" font-size="9.00">&#45;0.847</text>
</g>
<!-- key 6536
bias 0.780
h_scaling 0.030&#45;&gt;key 178
bias 0.892
h_scaling 0.206 -->
<g id="edge7" class="edge">
<title>key 6536
bias 0.780
h_scaling 0.030&#45;&gt;key 178
bias 0.892
h_scaling 0.206</title>
<path fill="none" stroke="blue" stroke-width="2.4" d="M216.43,-702.49C210.69,-693.38 204.81,-683.99 199.31,-675.12 193.67,-666.01 187.75,-656.36 181.97,-646.89"/>
<polygon fill="blue" stroke="blue" stroke-width="2.4" points="184.91,-644.98 176.72,-638.26 178.93,-648.62 184.91,-644.98"/>
<text text-anchor="middle" x="214.81" y="-667.92" font-family="Times,serif" font-size="9.00">&#45;0.765</text>
</g>
<!-- key 177
bias 0.669
h_scaling 0.141&#45;&gt;output
bias 0.972
h_scaling 0.432 -->
<g id="edge1" class="edge">
<title>key 177
bias 0.669
h_scaling 0.141&#45;&gt;output
bias 0.972
h_scaling 0.432</title>
<path fill="none" stroke="blue" stroke-width="3.09" d="M150.79,-354.81C158.22,-342.69 166.32,-330.04 174.31,-318.56 179.71,-310.8 185.61,-302.81 191.57,-295.01"/>
<polygon fill="blue" stroke="blue" stroke-width="3.09" points="194.69,-296.69 198.05,-286.64 189.16,-292.41 194.69,-296.69"/>
<text text-anchor="middle" x="189.81" y="-321.36" font-family="Times,serif" font-size="9.00">&#45;0.996</text>
</g>
<!-- key 178
bias 0.892
h_scaling 0.206&#45;&gt;output
bias 0.972
h_scaling 0.432 -->
<g id="edge8" class="edge">
<title>key 178
bias 0.892
h_scaling 0.206&#45;&gt;output
bias 0.972
h_scaling 0.432</title>
<path fill="none" stroke="blue" stroke-width="3.1" d="M172.04,-526.17C179.42,-509.6 186.84,-491.25 192.31,-473.84 209.14,-420.24 220.99,-357.77 228.45,-310.59"/>
<polygon fill="blue" stroke="blue" stroke-width="3.1" points="231.94,-310.87 230.02,-300.46 225.03,-309.8 231.94,-310.87"/>
<text text-anchor="middle" x="238.81" y="-408" font-family="Times,serif" font-size="9.00">&#45;1.000</text>
</g>
<!-- key 178
bias 0.892
h_scaling 0.206&#45;&gt;key 177
bias 0.669
h_scaling 0.141 -->
<g id="edge6" class="edge">
<title>key 178
bias 0.892
h_scaling 0.206&#45;&gt;key 177
bias 0.669
h_scaling 0.141</title>
<path fill="none" stroke="red" stroke-width="2.49" d="M135.21,-520.16C133.48,-508.28 131.65,-495.75 129.88,-483.58"/>
<polygon fill="red" stroke="red" stroke-width="2.49" points="133.31,-482.86 128.4,-473.47 126.38,-483.87 133.31,-482.86"/>
<text text-anchor="middle" x="146.31" y="-494.64" font-family="Times,serif" font-size="9.00">0.797</text>
</g>
<!-- key 343763
bias 0.886
h_scaling 0.651 -->
<g id="node9" class="node">
<title>key 343763
bias 0.886
h_scaling 0.651</title>
<ellipse fill="white" stroke="black" cx="250.31" cy="-930.04" rx="63.78" ry="63.78"/>
<text text-anchor="middle" x="250.31" y="-937.84" font-family="Times,serif" font-size="9.00">key 343763</text>
<text text-anchor="middle" x="250.31" y="-927.84" font-family="Times,serif" font-size="9.00">bias 0.886</text>
<text text-anchor="middle" x="250.31" y="-917.84" font-family="Times,serif" font-size="9.00">h_scaling 0.651</text>
</g>
<!-- key 343763
bias 0.886
h_scaling 0.651&#45;&gt;key 6536
bias 0.780
h_scaling 0.030 -->
<g id="edge16" class="edge">
<title>key 343763
bias 0.886
h_scaling 0.651&#45;&gt;key 6536
bias 0.780
h_scaling 0.030</title>
<path fill="none" stroke="blue" stroke-width="1" d="M250.31,-866.23C250.31,-854.71 250.31,-842.6 250.31,-830.81"/>
<polygon fill="blue" stroke="blue" stroke-width="1" points="253.81,-830.55 250.31,-820.55 246.81,-830.55 253.81,-830.55"/>
<text text-anchor="middle" x="265.81" y="-841.2" font-family="Times,serif" font-size="9.00">&#45;0.300</text>
</g>
<!-- key 97599
bias 0.609
h_scaling 0.185&#45;&gt;key 343763
bias 0.886
h_scaling 0.651 -->
<g id="edge15" class="edge">
<title>key 97599
bias 0.609
h_scaling 0.185&#45;&gt;key 343763
bias 0.886
h_scaling 0.651</title>
<path fill="none" stroke="red" stroke-width="3.1" d="M250.31,-1039.51C250.31,-1027.99 250.31,-1015.88 250.31,-1004.09"/>
<polygon fill="red" stroke="red" stroke-width="3.1" points="253.81,-1003.83 250.31,-993.83 246.81,-1003.83 253.81,-1003.83"/>
<text text-anchor="middle" x="264.31" y="-1014.48" font-family="Times,serif" font-size="9.00">1.000</text>
</g>
</g>
</svg>
