<?xml version="1.0" encoding="UTF-8" standalone="no"?>
<!DOCTYPE svg PUBLIC "-//W3C//DTD SVG 1.1//EN"
 "http://www.w3.org/Graphics/SVG/1.1/DTD/svg11.dtd">
<!-- Generated by graphviz version 2.43.0 (0)
 -->
<!-- Title: %3 Pages: 1 -->
<svg width="681pt" height="902pt"
 viewBox="0.00 0.00 680.64 902.40" xmlns="http://www.w3.org/2000/svg" xmlns:xlink="http://www.w3.org/1999/xlink">
<g id="graph0" class="graph" transform="scale(1 1) rotate(0) translate(4 898.4)">
<title>%3</title>
<polygon fill="white" stroke="transparent" points="-4,4 -4,-898.4 676.64,-898.4 676.64,4 -4,4"/>
<!-- ready
output 0.000 -->
<g id="node1" class="node">
<title>ready
output 0.000</title>
<polygon fill="yellow" stroke="black" points="287.5,-894.4 210.5,-894.4 210.5,-866.4 287.5,-866.4 287.5,-894.4"/>
<text text-anchor="middle" x="249" y="-883.2" font-family="Times,serif" font-size="9.00">ready</text>
<text text-anchor="middle" x="249" y="-873.2" font-family="Times,serif" font-size="9.00">output 0.000</text>
</g>
<!-- key 117952
bias 0.044
h_scaling 0.950
output 0.028 -->
<g id="node4" class="node">
<title>key 117952
bias 0.044
h_scaling 0.950
output 0.028</title>
<ellipse fill="white" stroke="black" cx="249" cy="-756.76" rx="63.78" ry="63.78"/>
<text text-anchor="middle" x="249" y="-769.56" font-family="Times,serif" font-size="9.00">key 117952</text>
<text text-anchor="middle" x="249" y="-759.56" font-family="Times,serif" font-size="9.00">bias 0.044</text>
<text text-anchor="middle" x="249" y="-749.56" font-family="Times,serif" font-size="9.00">h_scaling 0.950</text>
<text text-anchor="middle" x="249" y="-739.56" font-family="Times,serif" font-size="9.00">output 0.028</text>
</g>
<!-- ready
output 0.000&#45;&gt;key 117952
bias 0.044
h_scaling 0.950
output 0.028 -->
<g id="edge13" class="edge">
<title>ready
output 0.000&#45;&gt;key 117952
bias 0.044
h_scaling 0.950
output 0.028</title>
<path fill="none" stroke="red" stroke-width="1.16" d="M249,-866.38C249,-857.3 249,-844.39 249,-830.63"/>
<polygon fill="red" stroke="red" stroke-width="1.16" points="252.5,-830.49 249,-820.49 245.5,-830.49 252.5,-830.49"/>
<text text-anchor="middle" x="263" y="-841.2" font-family="Times,serif" font-size="9.00">1.106</text>
</g>
<!-- key 7184
bias &#45;0.067
h_scaling 0.007
output 0.924 -->
<g id="node5" class="node">
<title>key 7184
bias &#45;0.067
h_scaling 0.007
output 0.924</title>
<ellipse fill="white" stroke="black" cx="168" cy="-63.64" rx="63.78" ry="63.78"/>
<text text-anchor="middle" x="168" y="-76.44" font-family="Times,serif" font-size="9.00">key 7184</text>
<text text-anchor="middle" x="168" y="-66.44" font-family="Times,serif" font-size="9.00">bias &#45;0.067</text>
<text text-anchor="middle" x="168" y="-56.44" font-family="Times,serif" font-size="9.00">h_scaling 0.007</text>
<text text-anchor="middle" x="168" y="-46.44" font-family="Times,serif" font-size="9.00">output 0.924</text>
</g>
<!-- ready
output 0.000&#45;&gt;key 7184
bias &#45;0.067
h_scaling 0.007
output 0.924 -->
<g id="edge4" class="edge">
<title>ready
output 0.000&#45;&gt;key 7184
bias &#45;0.067
h_scaling 0.007
output 0.924</title>
<path fill="none" stroke="blue" stroke-width="0.82" d="M210.37,-877.73C140.43,-872.42 0,-850.25 0,-757.76 0,-757.76 0,-757.76 0,-235.92 0,-174.75 55.29,-127.39 102.43,-98.13"/>
<polygon fill="blue" stroke="blue" stroke-width="0.82" points="104.37,-101.05 111.12,-92.88 100.75,-95.06 104.37,-101.05"/>
<text text-anchor="middle" x="15.5" y="-494.64" font-family="Times,serif" font-size="9.00">&#45;0.241</text>
</g>
<!-- key 18515
bias &#45;0.407
h_scaling 0.836
output 0.434 -->
<g id="node7" class="node">
<title>key 18515
bias &#45;0.407
h_scaling 0.836
output 0.434</title>
<ellipse fill="white" stroke="black" cx="327" cy="-236.92" rx="63.78" ry="63.78"/>
<text text-anchor="middle" x="327" y="-249.72" font-family="Times,serif" font-size="9.00">key 18515</text>
<text text-anchor="middle" x="327" y="-239.72" font-family="Times,serif" font-size="9.00">bias &#45;0.407</text>
<text text-anchor="middle" x="327" y="-229.72" font-family="Times,serif" font-size="9.00">h_scaling 0.836</text>
<text text-anchor="middle" x="327" y="-219.72" font-family="Times,serif" font-size="9.00">output 0.434</text>
</g>
<!-- ready
output 0.000&#45;&gt;key 18515
bias &#45;0.407
h_scaling 0.836
output 0.434 -->
<g id="edge5" class="edge">
<title>ready
output 0.000&#45;&gt;key 18515
bias &#45;0.407
h_scaling 0.836
output 0.434</title>
<path fill="none" stroke="red" stroke-width="1.04" d="M287.59,-871.49C315.2,-863.6 350.47,-848.46 368,-820.4 423.8,-731.07 371.61,-451 358,-346.56 356.37,-334.02 356.06,-330.82 353,-318.56 352.09,-314.92 351.11,-311.2 350.07,-307.47"/>
<polygon fill="red" stroke="red" stroke-width="1.04" points="353.35,-306.19 347.22,-297.55 346.62,-308.13 353.35,-306.19"/>
<text text-anchor="middle" x="406" y="-581.28" font-family="Times,serif" font-size="9.00">0.978</text>
</g>
<!-- go
output 0.000 -->
<g id="node2" class="node">
<title>go
output 0.000</title>
<polygon fill="green" stroke="black" points="496.5,-894.4 419.5,-894.4 419.5,-866.4 496.5,-866.4 496.5,-894.4"/>
<text text-anchor="middle" x="458" y="-883.2" font-family="Times,serif" font-size="9.00">go</text>
<text text-anchor="middle" x="458" y="-873.2" font-family="Times,serif" font-size="9.00">output 0.000</text>
</g>
<!-- go
output 0.000&#45;&gt;key 117952
bias 0.044
h_scaling 0.950
output 0.028 -->
<g id="edge14" class="edge">
<title>go
output 0.000&#45;&gt;key 117952
bias 0.044
h_scaling 0.950
output 0.028</title>
<path fill="none" stroke="blue" stroke-width="3.07" d="M435.63,-866.38C406.53,-849.44 354.48,-819.14 312.72,-794.84"/>
<polygon fill="blue" stroke="blue" stroke-width="3.07" points="314.38,-791.76 303.98,-789.76 310.86,-797.81 314.38,-791.76"/>
<text text-anchor="middle" x="416.5" y="-841.2" font-family="Times,serif" font-size="9.00">&#45;0.991</text>
</g>
<!-- go
output 0.000&#45;&gt;key 7184
bias &#45;0.067
h_scaling 0.007
output 0.924 -->
<g id="edge2" class="edge">
<title>go
output 0.000&#45;&gt;key 7184
bias &#45;0.067
h_scaling 0.007
output 0.924</title>
<path fill="none" stroke="red" stroke-width="3.1" d="M469.38,-866.19C486.52,-844.89 517,-800.94 517,-757.76 517,-757.76 517,-757.76 517,-235.92 517,-114.26 343.98,-79.01 241.59,-68.8"/>
<polygon fill="red" stroke="red" stroke-width="3.1" points="241.89,-65.31 231.61,-67.86 241.23,-72.28 241.89,-65.31"/>
<text text-anchor="middle" x="531" y="-494.64" font-family="Times,serif" font-size="9.00">1.005</text>
</g>
<!-- go
output 0.000&#45;&gt;key 18515
bias &#45;0.407
h_scaling 0.836
output 0.434 -->
<g id="edge9" class="edge">
<title>go
output 0.000&#45;&gt;key 18515
bias &#45;0.407
h_scaling 0.836
output 0.434</title>
<path fill="none" stroke="blue" stroke-width="0.96" d="M458,-866.26C458,-843.95 458,-797.25 458,-757.76 458,-757.76 458,-757.76 458,-409.2 458,-358.21 420.92,-312.99 386.22,-281.84"/>
<polygon fill="blue" stroke="blue" stroke-width="0.96" points="388.23,-278.96 378.4,-275.02 383.63,-284.23 388.23,-278.96"/>
<text text-anchor="middle" x="473.5" y="-581.28" font-family="Times,serif" font-size="9.00">&#45;0.287</text>
</g>
<!-- output
bias &#45;0.201
h_scaling 0.555
output 0.003 -->
<g id="node3" class="node">
<title>output
bias &#45;0.201
h_scaling 0.555
output 0.003</title>
<ellipse fill="lightblue" stroke="black" cx="198" cy="-583.48" rx="63.78" ry="63.78"/>
<text text-anchor="middle" x="198" y="-596.28" font-family="Times,serif" font-size="9.00">output</text>
<text text-anchor="middle" x="198" y="-586.28" font-family="Times,serif" font-size="9.00">bias &#45;0.201</text>
<text text-anchor="middle" x="198" y="-576.28" font-family="Times,serif" font-size="9.00">h_scaling 0.555</text>
<text text-anchor="middle" x="198" y="-566.28" font-family="Times,serif" font-size="9.00">output 0.003</text>
</g>
<!-- output
bias &#45;0.201
h_scaling 0.555
output 0.003&#45;&gt;key 117952
bias 0.044
h_scaling 0.950
output 0.028 -->
<g id="edge16" class="edge">
<title>output
bias &#45;0.201
h_scaling 0.555
output 0.003&#45;&gt;key 117952
bias 0.044
h_scaling 0.950
output 0.028</title>
<path fill="none" stroke="blue" stroke-width="0.53" d="M219.96,-643.25C222.45,-650.57 224.86,-657.99 227,-665.12 228.91,-671.47 230.77,-678.12 232.55,-684.79"/>
<polygon fill="blue" stroke="blue" stroke-width="0.53" points="229.19,-685.78 235.1,-694.57 235.96,-684.01 229.19,-685.78"/>
<text text-anchor="middle" x="245.5" y="-667.92" font-family="Times,serif" font-size="9.00">&#45;0.145</text>
</g>
<!-- key 393555
bias &#45;0.967
h_scaling 0.519
output 0.008 -->
<g id="node6" class="node">
<title>key 393555
bias &#45;0.967
h_scaling 0.519
output 0.008</title>
<ellipse fill="white" stroke="black" cx="197" cy="-410.2" rx="63.78" ry="63.78"/>
<text text-anchor="middle" x="197" y="-423" font-family="Times,serif" font-size="9.00">key 393555</text>
<text text-anchor="middle" x="197" y="-413" font-family="Times,serif" font-size="9.00">bias &#45;0.967</text>
<text text-anchor="middle" x="197" y="-403" font-family="Times,serif" font-size="9.00">h_scaling 0.519</text>
<text text-anchor="middle" x="197" y="-393" font-family="Times,serif" font-size="9.00">output 0.008</text>
</g>
<!-- output
bias &#45;0.201
h_scaling 0.555
output 0.003&#45;&gt;key 393555
bias &#45;0.967
h_scaling 0.519
output 0.008 -->
<g id="edge18" class="edge">
<title>output
bias &#45;0.201
h_scaling 0.555
output 0.003&#45;&gt;key 393555
bias &#45;0.967
h_scaling 0.519
output 0.008</title>
<path fill="none" stroke="red" stroke-width="0.19" d="M197.63,-519.67C197.57,-508.15 197.5,-496.04 197.43,-484.25"/>
<polygon fill="red" stroke="red" stroke-width="0.19" points="200.93,-483.98 197.37,-474 193.93,-484.02 200.93,-483.98"/>
<text text-anchor="middle" x="212" y="-494.64" font-family="Times,serif" font-size="9.00">0.109</text>
</g>
<!-- output
bias &#45;0.201
h_scaling 0.555
output 0.003&#45;&gt;key 18515
bias &#45;0.407
h_scaling 0.836
output 0.434 -->
<g id="edge8" class="edge">
<title>output
bias &#45;0.201
h_scaling 0.555
output 0.003&#45;&gt;key 18515
bias &#45;0.407
h_scaling 0.836
output 0.434</title>
<path fill="none" stroke="blue" stroke-width="0.44" d="M236.3,-532.64C248.51,-514.85 261.14,-494.16 270,-473.84 292.92,-421.28 307.58,-357.94 316.28,-310.13"/>
<polygon fill="blue" stroke="blue" stroke-width="0.44" points="319.75,-310.63 318.05,-300.18 312.85,-309.41 319.75,-310.63"/>
<text text-anchor="middle" x="323.5" y="-408" font-family="Times,serif" font-size="9.00">&#45;0.112</text>
</g>
<!-- key 117952
bias 0.044
h_scaling 0.950
output 0.028&#45;&gt;output
bias &#45;0.201
h_scaling 0.555
output 0.003 -->
<g id="edge10" class="edge">
<title>key 117952
bias 0.044
h_scaling 0.950
output 0.028&#45;&gt;output
bias &#45;0.201
h_scaling 0.555
output 0.003</title>
<path fill="none" stroke="red" stroke-width="3.08" d="M211.78,-704.8C206.54,-695.34 201.94,-685.24 199,-675.12 197.34,-669.41 196.15,-663.4 195.32,-657.32"/>
<polygon fill="red" stroke="red" stroke-width="3.08" points="198.77,-656.64 194.26,-647.05 191.81,-657.36 198.77,-656.64"/>
<text text-anchor="middle" x="213" y="-667.92" font-family="Times,serif" font-size="9.00">1.064</text>
</g>
<!-- key 117952
bias 0.044
h_scaling 0.950
output 0.028&#45;&gt;key 117952
bias 0.044
h_scaling 0.950
output 0.028 -->
<g id="edge12" class="edge">
<title>key 117952
bias 0.044
h_scaling 0.950
output 0.028&#45;&gt;key 117952
bias 0.044
h_scaling 0.950
output 0.028</title>
<path fill="none" stroke="red" stroke-width="2.16" d="M310.94,-772.05C322.5,-770.17 330.64,-765.07 330.64,-756.76 330.64,-751.04 326.79,-746.84 320.63,-744.17"/>
<polygon fill="red" stroke="red" stroke-width="2.16" points="321.52,-740.78 310.94,-741.46 319.63,-747.52 321.52,-740.78"/>
<text text-anchor="middle" x="344.64" y="-754.56" font-family="Times,serif" font-size="9.00">0.807</text>
</g>
<!-- key 7184
bias &#45;0.067
h_scaling 0.007
output 0.924&#45;&gt;output
bias &#45;0.201
h_scaling 0.555
output 0.003 -->
<g id="edge1" class="edge">
<title>key 7184
bias &#45;0.067
h_scaling 0.007
output 0.924&#45;&gt;output
bias &#45;0.201
h_scaling 0.555
output 0.003</title>
<path fill="none" stroke="blue" stroke-width="3.1" d="M147.05,-123.99C121.75,-204.9 86.91,-353.49 124,-473.84 129.72,-492.41 139.83,-510.65 150.76,-526.72"/>
<polygon fill="blue" stroke="blue" stroke-width="3.1" points="147.92,-528.76 156.54,-534.91 153.64,-524.72 147.92,-528.76"/>
<text text-anchor="middle" x="124.5" y="-321.36" font-family="Times,serif" font-size="9.00">&#45;1.000</text>
</g>
<!-- key 7184
bias &#45;0.067
h_scaling 0.007
output 0.924&#45;&gt;key 117952
bias 0.044
h_scaling 0.950
output 0.028 -->
<g id="edge11" class="edge">
<title>key 7184
bias &#45;0.067
h_scaling 0.007
output 0.924&#45;&gt;key 117952
bias 0.044
h_scaling 0.950
output 0.028</title>
<path fill="none" stroke="blue" stroke-width="2.94" d="M118.38,-104.12C84.6,-135.72 46,-183.35 46,-235.92 46,-584.48 46,-584.48 46,-584.48 46,-656.26 121.06,-704.08 179.9,-730.53"/>
<polygon fill="blue" stroke="blue" stroke-width="2.94" points="178.63,-733.79 189.19,-734.59 181.43,-727.38 178.63,-733.79"/>
<text text-anchor="middle" x="61.5" y="-408" font-family="Times,serif" font-size="9.00">&#45;0.948</text>
</g>
<!-- key 7184
bias &#45;0.067
h_scaling 0.007
output 0.924&#45;&gt;key 7184
bias &#45;0.067
h_scaling 0.007
output 0.924 -->
<g id="edge3" class="edge">
<title>key 7184
bias &#45;0.067
h_scaling 0.007
output 0.924&#45;&gt;key 7184
bias &#45;0.067
h_scaling 0.007
output 0.924</title>
<path fill="none" stroke="red" stroke-width="2.69" d="M229.94,-78.94C241.5,-77.05 249.64,-71.95 249.64,-63.64 249.64,-57.92 245.79,-53.73 239.63,-51.05"/>
<polygon fill="red" stroke="red" stroke-width="2.69" points="240.52,-47.66 229.94,-48.34 238.63,-54.4 240.52,-47.66"/>
<text text-anchor="middle" x="263.64" y="-61.44" font-family="Times,serif" font-size="9.00">0.866</text>
</g>
<!-- key 393555
bias &#45;0.967
h_scaling 0.519
output 0.008&#45;&gt;key 18515
bias &#45;0.407
h_scaling 0.836
output 0.434 -->
<g id="edge19" class="edge">
<title>key 393555
bias &#45;0.967
h_scaling 0.519
output 0.008&#45;&gt;key 18515
bias &#45;0.407
h_scaling 0.836
output 0.434</title>
<path fill="none" stroke="blue" stroke-width="2.16" d="M227.82,-354.33C235.29,-342.24 243.56,-329.72 252,-318.56 259.21,-309.03 267.36,-299.34 275.58,-290.15"/>
<polygon fill="blue" stroke="blue" stroke-width="2.16" points="278.34,-292.31 282.47,-282.55 273.16,-287.6 278.34,-292.31"/>
<text text-anchor="middle" x="267.5" y="-321.36" font-family="Times,serif" font-size="9.00">&#45;0.687</text>
</g>
<!-- key 18515
bias &#45;0.407
h_scaling 0.836
output 0.434&#45;&gt;key 117952
bias 0.044
h_scaling 0.950
output 0.028 -->
<g id="edge15" class="edge">
<title>key 18515
bias &#45;0.407
h_scaling 0.836
output 0.434&#45;&gt;key 117952
bias 0.044
h_scaling 0.950
output 0.028</title>
<path fill="none" stroke="red" stroke-width="1.51" d="M337.04,-299.81C339.1,-315.05 340.96,-331.36 342,-346.56 345.88,-402.99 350.97,-417.99 342,-473.84 329.85,-549.48 300.45,-632.33 277.93,-688.52"/>
<polygon fill="red" stroke="red" stroke-width="1.51" points="274.61,-687.41 274.1,-697.99 281.09,-690.04 274.61,-687.41"/>
<text text-anchor="middle" x="352" y="-494.64" font-family="Times,serif" font-size="9.00">0.622</text>
</g>
<!-- key 18515
bias &#45;0.407
h_scaling 0.836
output 0.434&#45;&gt;key 7184
bias &#45;0.067
h_scaling 0.007
output 0.924 -->
<g id="edge6" class="edge">
<title>key 18515
bias &#45;0.407
h_scaling 0.836
output 0.434&#45;&gt;key 7184
bias &#45;0.067
h_scaling 0.007
output 0.924</title>
<path fill="none" stroke="blue" stroke-width="2.23" d="M283.97,-189.57C263.65,-167.67 239.26,-141.4 218.1,-118.61"/>
<polygon fill="blue" stroke="blue" stroke-width="2.23" points="220.43,-115.97 211.06,-111.03 215.3,-120.74 220.43,-115.97"/>
<text text-anchor="middle" x="262.5" y="-148.08" font-family="Times,serif" font-size="9.00">&#45;0.711</text>
</g>
<!-- key 18515
bias &#45;0.407
h_scaling 0.836
output 0.434&#45;&gt;key 18515
bias &#45;0.407
h_scaling 0.836
output 0.434 -->
<g id="edge7" class="edge">
<title>key 18515
bias &#45;0.407
h_scaling 0.836
output 0.434&#45;&gt;key 18515
bias &#45;0.407
h_scaling 0.836
output 0.434</title>
<path fill="none" stroke="red" stroke-width="2.73" d="M388.94,-252.22C400.5,-250.33 408.64,-245.23 408.64,-236.92 408.64,-231.2 404.79,-227.01 398.63,-224.33"/>
<polygon fill="red" stroke="red" stroke-width="2.73" points="399.52,-220.94 388.94,-221.62 397.63,-227.68 399.52,-220.94"/>
<text text-anchor="middle" x="422.64" y="-234.72" font-family="Times,serif" font-size="9.00">1.011</text>
</g>
<!-- key 348153
bias &#45;0.935
h_scaling 0.780
output 0.000 -->
<g id="node8" class="node">
<title>key 348153
bias &#45;0.935
h_scaling 0.780
output 0.000</title>
<ellipse fill="white" stroke="black" cx="609" cy="-236.92" rx="63.78" ry="63.78"/>
<text text-anchor="middle" x="609" y="-249.72" font-family="Times,serif" font-size="9.00">key 348153</text>
<text text-anchor="middle" x="609" y="-239.72" font-family="Times,serif" font-size="9.00">bias &#45;0.935</text>
<text text-anchor="middle" x="609" y="-229.72" font-family="Times,serif" font-size="9.00">h_scaling 0.780</text>
<text text-anchor="middle" x="609" y="-219.72" font-family="Times,serif" font-size="9.00">output 0.000</text>
</g>
<!-- key 348153
bias &#45;0.935
h_scaling 0.780
output 0.000&#45;&gt;key 7184
bias &#45;0.067
h_scaling 0.007
output 0.924 -->
<g id="edge17" class="edge">
<title>key 348153
bias &#45;0.935
h_scaling 0.780
output 0.000&#45;&gt;key 7184
bias &#45;0.067
h_scaling 0.007
output 0.924</title>
<path fill="none" stroke="blue" stroke-width="0.99" d="M573.76,-183.59C561.75,-169.24 547.21,-154.98 531,-145.28 441.01,-91.41 319.05,-73.44 241.94,-67.49"/>
<polygon fill="blue" stroke="blue" stroke-width="0.99" points="242.06,-63.99 231.83,-66.76 241.55,-70.98 242.06,-63.99"/>
<text text-anchor="middle" x="559.5" y="-148.08" font-family="Times,serif" font-size="9.00">&#45;0.298</text>
</g>
</g>
</svg>
