<?xml version="1.0" encoding="UTF-8" standalone="no"?>
<!DOCTYPE svg PUBLIC "-//W3C//DTD SVG 1.1//EN"
 "http://www.w3.org/Graphics/SVG/1.1/DTD/svg11.dtd">
<!-- Generated by graphviz version 2.43.0 (0)
 -->
<!-- Title: %3 Pages: 1 -->
<svg width="413pt" height="842pt"
 viewBox="0.00 0.00 413.45 842.40" xmlns="http://www.w3.org/2000/svg" xmlns:xlink="http://www.w3.org/1999/xlink">
<g id="graph0" class="graph" transform="scale(1 1) rotate(0) translate(4 838.4)">
<title>%3</title>
<polygon fill="white" stroke="transparent" points="-4,4 -4,-838.4 409.45,-838.4 409.45,4 -4,4"/>
<!-- ready -->
<g id="node1" class="node">
<title>ready</title>
<polygon fill="yellow" stroke="black" points="261.31,-834.4 218.31,-834.4 218.31,-816.4 261.31,-816.4 261.31,-834.4"/>
<text text-anchor="middle" x="239.81" y="-823.2" font-family="Times,serif" font-size="9.00">ready</text>
</g>
<!-- key 14003
bias &#45;0.030
h_scaling 0.320 -->
<g id="node5" class="node">
<title>key 14003
bias &#45;0.030
h_scaling 0.320</title>
<ellipse fill="white" stroke="black" cx="184.81" cy="-390.2" rx="63.78" ry="63.78"/>
<text text-anchor="middle" x="184.81" y="-398" font-family="Times,serif" font-size="9.00">key 14003</text>
<text text-anchor="middle" x="184.81" y="-388" font-family="Times,serif" font-size="9.00">bias &#45;0.030</text>
<text text-anchor="middle" x="184.81" y="-378" font-family="Times,serif" font-size="9.00">h_scaling 0.320</text>
</g>
<!-- ready&#45;&gt;key 14003
bias &#45;0.030
h_scaling 0.320 -->
<g id="edge12" class="edge">
<title>ready&#45;&gt;key 14003
bias &#45;0.030
h_scaling 0.320</title>
<path fill="none" stroke="red" stroke-width="2.08" d="M233.12,-816.23C226.65,-807.82 217.2,-794.05 212.81,-780.4 178.72,-674.39 176.87,-544.06 179.9,-464.35"/>
<polygon fill="red" stroke="red" stroke-width="2.08" points="183.42,-464.06 180.34,-453.92 176.42,-463.77 183.42,-464.06"/>
</g>
<!-- key 24661
bias &#45;0.449
h_scaling 0.317 -->
<g id="node7" class="node">
<title>key 24661
bias &#45;0.449
h_scaling 0.317</title>
<ellipse fill="white" stroke="black" cx="285.81" cy="-716.76" rx="63.78" ry="63.78"/>
<text text-anchor="middle" x="285.81" y="-724.56" font-family="Times,serif" font-size="9.00">key 24661</text>
<text text-anchor="middle" x="285.81" y="-714.56" font-family="Times,serif" font-size="9.00">bias &#45;0.449</text>
<text text-anchor="middle" x="285.81" y="-704.56" font-family="Times,serif" font-size="9.00">h_scaling 0.317</text>
</g>
<!-- ready&#45;&gt;key 24661
bias &#45;0.449
h_scaling 0.317 -->
<g id="edge5" class="edge">
<title>ready&#45;&gt;key 24661
bias &#45;0.449
h_scaling 0.317</title>
<path fill="none" stroke="red" stroke-width="5.05" d="M243.27,-816.38C246.41,-809.09 251.38,-797.57 256.83,-784.93"/>
<polygon fill="red" stroke="red" stroke-width="5.05" points="260.96,-786.51 260.87,-775.57 252.85,-783.01 260.96,-786.51"/>
</g>
<!-- go -->
<g id="node2" class="node">
<title>go</title>
<polygon fill="green" stroke="black" points="69.81,-725.76 41.81,-725.76 41.81,-707.76 69.81,-707.76 69.81,-725.76"/>
<text text-anchor="middle" x="55.81" y="-714.56" font-family="Times,serif" font-size="9.00">go</text>
</g>
<!-- key 38915
bias &#45;0.873
h_scaling 0.519 -->
<g id="node4" class="node">
<title>key 38915
bias &#45;0.873
h_scaling 0.519</title>
<ellipse fill="white" stroke="black" cx="212.81" cy="-63.64" rx="63.78" ry="63.78"/>
<text text-anchor="middle" x="212.81" y="-71.44" font-family="Times,serif" font-size="9.00">key 38915</text>
<text text-anchor="middle" x="212.81" y="-61.44" font-family="Times,serif" font-size="9.00">bias &#45;0.873</text>
<text text-anchor="middle" x="212.81" y="-51.44" font-family="Times,serif" font-size="9.00">h_scaling 0.519</text>
</g>
<!-- go&#45;&gt;key 38915
bias &#45;0.873
h_scaling 0.519 -->
<g id="edge8" class="edge">
<title>go&#45;&gt;key 38915
bias &#45;0.873
h_scaling 0.519</title>
<path fill="none" stroke="red" stroke-width="2.68" d="M50.3,-707.52C39.73,-691.15 16.92,-653.01 8.81,-617.12 -3.66,-561.94 -1.92,-545.38 8.81,-489.84 38.46,-336.29 63.56,-299.81 139.81,-163.28 147.68,-149.18 157.29,-134.79 166.91,-121.51"/>
<polygon fill="red" stroke="red" stroke-width="2.68" points="169.78,-123.53 172.89,-113.4 164.14,-119.37 169.78,-123.53"/>
</g>
<!-- go&#45;&gt;key 14003
bias &#45;0.030
h_scaling 0.320 -->
<g id="edge17" class="edge">
<title>go&#45;&gt;key 14003
bias &#45;0.030
h_scaling 0.320</title>
<path fill="none" stroke="blue" stroke-width="1.31" d="M51.66,-707.71C36.5,-677.07 -12.93,-565.61 28.81,-489.84 47.46,-455.97 83.19,-432.12 115.75,-416.36"/>
<polygon fill="blue" stroke="blue" stroke-width="1.31" points="117.24,-419.53 124.83,-412.13 114.29,-413.18 117.24,-419.53"/>
</g>
<!-- key 218932
bias &#45;0.882
h_scaling 0.760 -->
<g id="node6" class="node">
<title>key 218932
bias &#45;0.882
h_scaling 0.760</title>
<ellipse fill="white" stroke="black" cx="101.81" cy="-553.48" rx="63.78" ry="63.78"/>
<text text-anchor="middle" x="101.81" y="-561.28" font-family="Times,serif" font-size="9.00">key 218932</text>
<text text-anchor="middle" x="101.81" y="-551.28" font-family="Times,serif" font-size="9.00">bias &#45;0.882</text>
<text text-anchor="middle" x="101.81" y="-541.28" font-family="Times,serif" font-size="9.00">h_scaling 0.760</text>
</g>
<!-- go&#45;&gt;key 218932
bias &#45;0.882
h_scaling 0.760 -->
<g id="edge19" class="edge">
<title>go&#45;&gt;key 218932
bias &#45;0.882
h_scaling 0.760</title>
<path fill="none" stroke="blue" stroke-width="0.79" d="M58.15,-707.54C62.55,-692.12 72.43,-657.49 81.68,-625.07"/>
<polygon fill="blue" stroke="blue" stroke-width="0.79" points="85.14,-625.67 84.52,-615.1 78.41,-623.75 85.14,-625.67"/>
</g>
<!-- key 2073
bias &#45;0.348
h_scaling 0.680 -->
<g id="node8" class="node">
<title>key 2073
bias &#45;0.348
h_scaling 0.680</title>
<ellipse fill="white" stroke="black" cx="323.81" cy="-553.48" rx="63.78" ry="63.78"/>
<text text-anchor="middle" x="323.81" y="-561.28" font-family="Times,serif" font-size="9.00">key 2073</text>
<text text-anchor="middle" x="323.81" y="-551.28" font-family="Times,serif" font-size="9.00">bias &#45;0.348</text>
<text text-anchor="middle" x="323.81" y="-541.28" font-family="Times,serif" font-size="9.00">h_scaling 0.680</text>
</g>
<!-- go&#45;&gt;key 2073
bias &#45;0.348
h_scaling 0.680 -->
<g id="edge2" class="edge">
<title>go&#45;&gt;key 2073
bias &#45;0.348
h_scaling 0.680</title>
<path fill="none" stroke="red" stroke-width="2.78" d="M69.47,-707.54C104.16,-686.66 197.39,-630.56 260.8,-592.4"/>
<polygon fill="red" stroke="red" stroke-width="2.78" points="262.78,-595.29 269.54,-587.14 259.17,-589.29 262.78,-595.29"/>
</g>
<!-- key output
bias &#45;0.016
h_scaling 0.772 -->
<g id="node3" class="node">
<title>key output
bias &#45;0.016
h_scaling 0.772</title>
<ellipse fill="lightblue" stroke="black" cx="212.81" cy="-226.92" rx="63.78" ry="63.78"/>
<text text-anchor="middle" x="212.81" y="-234.72" font-family="Times,serif" font-size="9.00">key output</text>
<text text-anchor="middle" x="212.81" y="-224.72" font-family="Times,serif" font-size="9.00">bias &#45;0.016</text>
<text text-anchor="middle" x="212.81" y="-214.72" font-family="Times,serif" font-size="9.00">h_scaling 0.772</text>
</g>
<!-- key output
bias &#45;0.016
h_scaling 0.772&#45;&gt;key 38915
bias &#45;0.873
h_scaling 0.519 -->
<g id="edge13" class="edge">
<title>key output
bias &#45;0.016
h_scaling 0.772&#45;&gt;key 38915
bias &#45;0.873
h_scaling 0.519</title>
<path fill="none" stroke="red" stroke-width="4.05" d="M206.22,-163.56C206.07,-154.96 206.02,-146.07 206.09,-137.3"/>
<polygon fill="red" stroke="red" stroke-width="4.05" points="209.64,-137.14 206.21,-127.09 202.55,-137.05 209.64,-137.14"/>
</g>
<!-- key 38915
bias &#45;0.873
h_scaling 0.519&#45;&gt;key output
bias &#45;0.016
h_scaling 0.772 -->
<g id="edge11" class="edge">
<title>key 38915
bias &#45;0.873
h_scaling 0.519&#45;&gt;key output
bias &#45;0.016
h_scaling 0.772</title>
<path fill="none" stroke="blue" stroke-width="4.46" d="M219.4,-127.09C219.55,-135.7 219.59,-144.59 219.53,-153.36"/>
<polygon fill="blue" stroke="blue" stroke-width="4.46" points="215.63,-153.52 219.4,-163.56 223.42,-153.61 215.63,-153.52"/>
</g>
<!-- key 38915
bias &#45;0.873
h_scaling 0.519&#45;&gt;key 38915
bias &#45;0.873
h_scaling 0.519 -->
<g id="edge9" class="edge">
<title>key 38915
bias &#45;0.873
h_scaling 0.519&#45;&gt;key 38915
bias &#45;0.873
h_scaling 0.519</title>
<path fill="none" stroke="red" stroke-width="5.1" d="M269.28,-93.65C283.66,-91.68 294.45,-81.67 294.45,-63.64 294.45,-49.97 288.25,-40.92 278.99,-36.47"/>
<polygon fill="red" stroke="red" stroke-width="5.1" points="280.13,-32.16 269.28,-33.63 277.62,-40.72 280.13,-32.16"/>
</g>
<!-- key 14003
bias &#45;0.030
h_scaling 0.320&#45;&gt;key output
bias &#45;0.016
h_scaling 0.772 -->
<g id="edge4" class="edge">
<title>key 14003
bias &#45;0.030
h_scaling 0.320&#45;&gt;key output
bias &#45;0.016
h_scaling 0.772</title>
<path fill="none" stroke="red" stroke-width="5.1" d="M195.55,-327.3C197.12,-318.3 198.74,-308.97 200.33,-299.79"/>
<polygon fill="red" stroke="red" stroke-width="5.1" points="204.73,-300.53 202.05,-289.91 195.94,-299 204.73,-300.53"/>
</g>
<!-- key 14003
bias &#45;0.030
h_scaling 0.320&#45;&gt;key 14003
bias &#45;0.030
h_scaling 0.320 -->
<g id="edge16" class="edge">
<title>key 14003
bias &#45;0.030
h_scaling 0.320&#45;&gt;key 14003
bias &#45;0.030
h_scaling 0.320</title>
<path fill="none" stroke="red" stroke-width="3.24" d="M241.28,-420.21C255.66,-418.24 266.45,-408.23 266.45,-390.2 266.45,-376.53 260.25,-367.48 250.99,-363.03"/>
<polygon fill="red" stroke="red" stroke-width="3.24" points="251.86,-359.64 241.28,-360.19 249.89,-366.36 251.86,-359.64"/>
</g>
<!-- key 218932
bias &#45;0.882
h_scaling 0.760&#45;&gt;key 14003
bias &#45;0.030
h_scaling 0.320 -->
<g id="edge18" class="edge">
<title>key 218932
bias &#45;0.882
h_scaling 0.760&#45;&gt;key 14003
bias &#45;0.030
h_scaling 0.320</title>
<path fill="none" stroke="red" stroke-width="1.61" d="M130.61,-496.52C137.3,-483.51 144.48,-469.55 151.36,-456.19"/>
<polygon fill="red" stroke="red" stroke-width="1.61" points="154.6,-457.55 156.06,-447.05 148.38,-454.34 154.6,-457.55"/>
</g>
<!-- key 24661
bias &#45;0.449
h_scaling 0.317&#45;&gt;key 14003
bias &#45;0.030
h_scaling 0.320 -->
<g id="edge14" class="edge">
<title>key 24661
bias &#45;0.449
h_scaling 0.317&#45;&gt;key 14003
bias &#45;0.030
h_scaling 0.320</title>
<path fill="none" stroke="red" stroke-width="1.83" d="M264.25,-656.74C259.68,-643.74 254.97,-630 250.81,-617.12 234.1,-565.43 216.95,-506.49 204.32,-461.78"/>
<polygon fill="red" stroke="red" stroke-width="1.83" points="207.61,-460.57 201.53,-451.89 200.87,-462.47 207.61,-460.57"/>
</g>
<!-- key 24661
bias &#45;0.449
h_scaling 0.317&#45;&gt;key 24661
bias &#45;0.449
h_scaling 0.317 -->
<g id="edge7" class="edge">
<title>key 24661
bias &#45;0.449
h_scaling 0.317&#45;&gt;key 24661
bias &#45;0.449
h_scaling 0.317</title>
<path fill="none" stroke="red" stroke-width="3.47" d="M346.69,-736.17C358.81,-733.99 367.45,-727.51 367.45,-716.76 367.45,-709.19 363.18,-703.75 356.43,-700.42"/>
<polygon fill="red" stroke="red" stroke-width="3.47" points="357.28,-697.02 346.69,-697.34 355.17,-703.69 357.28,-697.02"/>
</g>
<!-- key 24661
bias &#45;0.449
h_scaling 0.317&#45;&gt;key 2073
bias &#45;0.348
h_scaling 0.680 -->
<g id="edge6" class="edge">
<title>key 24661
bias &#45;0.449
h_scaling 0.317&#45;&gt;key 2073
bias &#45;0.348
h_scaling 0.680</title>
<path fill="none" stroke="blue" stroke-width="1.12" d="M300.28,-654.32C302.49,-644.94 304.79,-635.19 307.05,-625.62"/>
<polygon fill="blue" stroke="blue" stroke-width="1.12" points="310.49,-626.28 309.37,-615.74 303.67,-624.67 310.49,-626.28"/>
</g>
<!-- key 2073
bias &#45;0.348
h_scaling 0.680&#45;&gt;key output
bias &#45;0.016
h_scaling 0.772 -->
<g id="edge1" class="edge">
<title>key 2073
bias &#45;0.348
h_scaling 0.680&#45;&gt;key output
bias &#45;0.016
h_scaling 0.772</title>
<path fill="none" stroke="blue" stroke-width="5.1" d="M316.64,-489.81C309.89,-443.44 297.47,-379.43 275.81,-326.56 270.36,-313.27 263.12,-299.8 255.49,-287.26"/>
<polygon fill="blue" stroke="blue" stroke-width="5.1" points="259.25,-284.85 250.16,-278.74 251.68,-289.58 259.25,-284.85"/>
</g>
<!-- key 2073
bias &#45;0.348
h_scaling 0.680&#45;&gt;key 38915
bias &#45;0.873
h_scaling 0.519 -->
<g id="edge10" class="edge">
<title>key 2073
bias &#45;0.348
h_scaling 0.680&#45;&gt;key 38915
bias &#45;0.873
h_scaling 0.519</title>
<path fill="none" stroke="red" stroke-width="2.27" d="M328.27,-489.95C331.58,-410.87 329.52,-271.93 285.81,-163.28 279.75,-148.22 270.83,-133.39 261.29,-119.98"/>
<polygon fill="red" stroke="red" stroke-width="2.27" points="264.04,-117.81 255.29,-111.83 258.4,-121.96 264.04,-117.81"/>
</g>
<!-- key 2073
bias &#45;0.348
h_scaling 0.680&#45;&gt;key 14003
bias &#45;0.030
h_scaling 0.320 -->
<g id="edge15" class="edge">
<title>key 2073
bias &#45;0.348
h_scaling 0.680&#45;&gt;key 14003
bias &#45;0.030
h_scaling 0.320</title>
<path fill="none" stroke="blue" stroke-width="5.1" d="M282.48,-504.52C266.8,-486.33 248.81,-465.45 232.58,-446.62"/>
<polygon fill="blue" stroke="blue" stroke-width="5.1" points="235.89,-443.63 225.98,-438.97 229.13,-449.45 235.89,-443.63"/>
</g>
<!-- key 2073
bias &#45;0.348
h_scaling 0.680&#45;&gt;key 2073
bias &#45;0.348
h_scaling 0.680 -->
<g id="edge3" class="edge">
<title>key 2073
bias &#45;0.348
h_scaling 0.680&#45;&gt;key 2073
bias &#45;0.348
h_scaling 0.680</title>
<path fill="none" stroke="red" stroke-width="3.82" d="M380.28,-583.49C394.66,-581.52 405.45,-571.51 405.45,-553.48 405.45,-539.81 399.25,-530.75 389.99,-526.31"/>
<polygon fill="red" stroke="red" stroke-width="3.82" points="390.86,-522.92 380.28,-523.47 388.89,-529.64 390.86,-522.92"/>
</g>
</g>
</svg>
