<?xml version="1.0" encoding="UTF-8" standalone="no"?>
<!DOCTYPE svg PUBLIC "-//W3C//DTD SVG 1.1//EN"
 "http://www.w3.org/Graphics/SVG/1.1/DTD/svg11.dtd">
<!-- Generated by graphviz version 2.43.0 (0)
 -->
<!-- Title: %3 Pages: 1 -->
<svg width="458pt" height="729pt"
 viewBox="0.00 0.00 457.64 729.12" xmlns="http://www.w3.org/2000/svg" xmlns:xlink="http://www.w3.org/1999/xlink">
<g id="graph0" class="graph" transform="scale(1 1) rotate(0) translate(4 725.12)">
<title>%3</title>
<polygon fill="white" stroke="transparent" points="-4,4 -4,-725.12 453.64,-725.12 453.64,4 -4,4"/>
<!-- ready
output 0.000 -->
<g id="node1" class="node">
<title>ready
output 0.000</title>
<polygon fill="yellow" stroke="black" points="248.14,-721.12 171.14,-721.12 171.14,-693.12 248.14,-693.12 248.14,-721.12"/>
<text text-anchor="middle" x="209.64" y="-709.92" font-family="Times,serif" font-size="9.00">ready</text>
<text text-anchor="middle" x="209.64" y="-699.92" font-family="Times,serif" font-size="9.00">output 0.000</text>
</g>
<!-- key 12834
bias &#45;0.249
h_scaling 0.004
output 0.817 -->
<g id="node4" class="node">
<title>key 12834
bias &#45;0.249
h_scaling 0.004
output 0.817</title>
<ellipse fill="white" stroke="black" cx="63.64" cy="-583.48" rx="63.78" ry="63.78"/>
<text text-anchor="middle" x="63.64" y="-596.28" font-family="Times,serif" font-size="9.00">key 12834</text>
<text text-anchor="middle" x="63.64" y="-586.28" font-family="Times,serif" font-size="9.00">bias &#45;0.249</text>
<text text-anchor="middle" x="63.64" y="-576.28" font-family="Times,serif" font-size="9.00">h_scaling 0.004</text>
<text text-anchor="middle" x="63.64" y="-566.28" font-family="Times,serif" font-size="9.00">output 0.817</text>
</g>
<!-- ready
output 0.000&#45;&gt;key 12834
bias &#45;0.249
h_scaling 0.004
output 0.817 -->
<g id="edge9" class="edge">
<title>ready
output 0.000&#45;&gt;key 12834
bias &#45;0.249
h_scaling 0.004
output 0.817</title>
<path fill="none" stroke="blue" stroke-width="0.1" d="M189.53,-693.07C181.61,-687.72 172.54,-681.34 164.64,-675.12 148.8,-662.64 132.27,-648.37 117.27,-634.91"/>
<polygon fill="blue" stroke="blue" stroke-width="0.1" points="119.34,-632.07 109.58,-627.96 114.65,-637.26 119.34,-632.07"/>
<text text-anchor="middle" x="180.14" y="-667.92" font-family="Times,serif" font-size="9.00">&#45;0.788</text>
</g>
<!-- key 501
bias 0.091
h_scaling 0.515
output 0.035 -->
<g id="node6" class="node">
<title>key 501
bias 0.091
h_scaling 0.515
output 0.035</title>
<ellipse fill="white" stroke="black" cx="305.64" cy="-236.92" rx="63.78" ry="63.78"/>
<text text-anchor="middle" x="305.64" y="-249.72" font-family="Times,serif" font-size="9.00">key 501</text>
<text text-anchor="middle" x="305.64" y="-239.72" font-family="Times,serif" font-size="9.00">bias 0.091</text>
<text text-anchor="middle" x="305.64" y="-229.72" font-family="Times,serif" font-size="9.00">h_scaling 0.515</text>
<text text-anchor="middle" x="305.64" y="-219.72" font-family="Times,serif" font-size="9.00">output 0.035</text>
</g>
<!-- ready
output 0.000&#45;&gt;key 501
bias 0.091
h_scaling 0.515
output 0.035 -->
<g id="edge12" class="edge">
<title>ready
output 0.000&#45;&gt;key 501
bias 0.091
h_scaling 0.515
output 0.035</title>
<path fill="none" stroke="red" stroke-width="0.1" d="M248.17,-698.93C280.11,-691.15 324.82,-675.8 353.64,-647.12 412.76,-588.29 409.32,-555.62 425.64,-473.84 436.71,-418.36 448.58,-398.27 425.64,-346.56 413.41,-318.98 390.33,-295.43 367.66,-277.38"/>
<polygon fill="red" stroke="red" stroke-width="0.1" points="369.74,-274.56 359.68,-271.22 365.46,-280.1 369.74,-274.56"/>
<text text-anchor="middle" x="435.64" y="-494.64" font-family="Times,serif" font-size="9.00">0.401</text>
</g>
<!-- key 12985
bias &#45;0.754
h_scaling 0.042
output 0.874 -->
<g id="node7" class="node">
<title>key 12985
bias &#45;0.754
h_scaling 0.042
output 0.874</title>
<ellipse fill="white" stroke="black" cx="114.64" cy="-410.2" rx="63.78" ry="63.78"/>
<text text-anchor="middle" x="114.64" y="-423" font-family="Times,serif" font-size="9.00">key 12985</text>
<text text-anchor="middle" x="114.64" y="-413" font-family="Times,serif" font-size="9.00">bias &#45;0.754</text>
<text text-anchor="middle" x="114.64" y="-403" font-family="Times,serif" font-size="9.00">h_scaling 0.042</text>
<text text-anchor="middle" x="114.64" y="-393" font-family="Times,serif" font-size="9.00">output 0.874</text>
</g>
<!-- ready
output 0.000&#45;&gt;key 12985
bias &#45;0.754
h_scaling 0.042
output 0.874 -->
<g id="edge11" class="edge">
<title>ready
output 0.000&#45;&gt;key 12985
bias &#45;0.754
h_scaling 0.042
output 0.874</title>
<path fill="none" stroke="blue" stroke-width="0.1" d="M209.58,-693.02C209.04,-661.96 205.37,-581.81 182.64,-519.84 176.46,-502.99 167.42,-485.97 157.94,-470.56"/>
<polygon fill="blue" stroke="blue" stroke-width="0.1" points="160.63,-468.27 152.32,-461.69 154.72,-472.01 160.63,-468.27"/>
<text text-anchor="middle" x="222.14" y="-581.28" font-family="Times,serif" font-size="9.00">&#45;0.176</text>
</g>
<!-- go
output 0.000 -->
<g id="node2" class="node">
<title>go
output 0.000</title>
<polygon fill="green" stroke="black" points="344.14,-597.48 267.14,-597.48 267.14,-569.48 344.14,-569.48 344.14,-597.48"/>
<text text-anchor="middle" x="305.64" y="-586.28" font-family="Times,serif" font-size="9.00">go</text>
<text text-anchor="middle" x="305.64" y="-576.28" font-family="Times,serif" font-size="9.00">output 0.000</text>
</g>
<!-- key 327429
bias &#45;0.620
h_scaling 0.930
output 0.043 -->
<g id="node5" class="node">
<title>key 327429
bias &#45;0.620
h_scaling 0.930
output 0.043</title>
<ellipse fill="white" stroke="black" cx="305.64" cy="-410.2" rx="63.78" ry="63.78"/>
<text text-anchor="middle" x="305.64" y="-423" font-family="Times,serif" font-size="9.00">key 327429</text>
<text text-anchor="middle" x="305.64" y="-413" font-family="Times,serif" font-size="9.00">bias &#45;0.620</text>
<text text-anchor="middle" x="305.64" y="-403" font-family="Times,serif" font-size="9.00">h_scaling 0.930</text>
<text text-anchor="middle" x="305.64" y="-393" font-family="Times,serif" font-size="9.00">output 0.043</text>
</g>
<!-- go
output 0.000&#45;&gt;key 327429
bias &#45;0.620
h_scaling 0.930
output 0.043 -->
<g id="edge14" class="edge">
<title>go
output 0.000&#45;&gt;key 327429
bias &#45;0.620
h_scaling 0.930
output 0.043</title>
<path fill="none" stroke="red" stroke-width="0.1" d="M305.64,-569.32C305.64,-551.01 305.64,-516.47 305.64,-484.34"/>
<polygon fill="red" stroke="red" stroke-width="0.1" points="309.14,-484.01 305.64,-474.01 302.14,-484.01 309.14,-484.01"/>
<text text-anchor="middle" x="319.64" y="-494.64" font-family="Times,serif" font-size="9.00">1.309</text>
</g>
<!-- go
output 0.000&#45;&gt;key 501
bias 0.091
h_scaling 0.515
output 0.035 -->
<g id="edge2" class="edge">
<title>go
output 0.000&#45;&gt;key 501
bias 0.091
h_scaling 0.515
output 0.035</title>
<path fill="none" stroke="blue" stroke-width="0.1" d="M318.26,-569.46C335.82,-550.36 366.78,-512.75 378.64,-473.84 395.13,-419.73 395.13,-400.67 378.64,-346.56 373.08,-328.31 363.31,-310.35 352.7,-294.44"/>
<polygon fill="blue" stroke="blue" stroke-width="0.1" points="355.31,-292.06 346.74,-285.83 349.55,-296.05 355.31,-292.06"/>
<text text-anchor="middle" x="406.14" y="-408" font-family="Times,serif" font-size="9.00">&#45;0.985</text>
</g>
<!-- go
output 0.000&#45;&gt;key 12985
bias &#45;0.754
h_scaling 0.042
output 0.874 -->
<g id="edge3" class="edge">
<title>go
output 0.000&#45;&gt;key 12985
bias &#45;0.754
h_scaling 0.042
output 0.874</title>
<path fill="none" stroke="red" stroke-width="0.1" d="M295.24,-569.42C280.34,-551.11 251.63,-517.2 223.64,-491.84 208.71,-478.31 191.58,-464.82 175.39,-452.84"/>
<polygon fill="red" stroke="red" stroke-width="0.1" points="177.17,-449.81 167.03,-446.73 173.04,-455.46 177.17,-449.81"/>
<text text-anchor="middle" x="246.64" y="-494.64" font-family="Times,serif" font-size="9.00">0.789</text>
</g>
<!-- output
bias &#45;0.469
h_scaling 0.602
output 0.001 -->
<g id="node3" class="node">
<title>output
bias &#45;0.469
h_scaling 0.602
output 0.001</title>
<ellipse fill="lightblue" stroke="black" cx="150.64" cy="-63.64" rx="63.78" ry="63.78"/>
<text text-anchor="middle" x="150.64" y="-76.44" font-family="Times,serif" font-size="9.00">output</text>
<text text-anchor="middle" x="150.64" y="-66.44" font-family="Times,serif" font-size="9.00">bias &#45;0.469</text>
<text text-anchor="middle" x="150.64" y="-56.44" font-family="Times,serif" font-size="9.00">h_scaling 0.602</text>
<text text-anchor="middle" x="150.64" y="-46.44" font-family="Times,serif" font-size="9.00">output 0.001</text>
</g>
<!-- output
bias &#45;0.469
h_scaling 0.602
output 0.001&#45;&gt;key 12834
bias &#45;0.249
h_scaling 0.004
output 0.817 -->
<g id="edge6" class="edge">
<title>output
bias &#45;0.469
h_scaling 0.602
output 0.001&#45;&gt;key 12834
bias &#45;0.249
h_scaling 0.004
output 0.817</title>
<path fill="none" stroke="red" stroke-width="0.1" d="M121.89,-120.59C95.04,-176.21 56.9,-264.8 41.64,-346.56 31.41,-401.37 38.18,-464.29 46.82,-511.35"/>
<polygon fill="red" stroke="red" stroke-width="0.1" points="43.43,-512.28 48.75,-521.44 50.31,-510.97 43.43,-512.28"/>
<text text-anchor="middle" x="61.64" y="-321.36" font-family="Times,serif" font-size="9.00">0.395</text>
</g>
<!-- key 12834
bias &#45;0.249
h_scaling 0.004
output 0.817&#45;&gt;key 12834
bias &#45;0.249
h_scaling 0.004
output 0.817 -->
<g id="edge13" class="edge">
<title>key 12834
bias &#45;0.249
h_scaling 0.004
output 0.817&#45;&gt;key 12834
bias &#45;0.249
h_scaling 0.004
output 0.817</title>
<path fill="none" stroke="red" stroke-width="0.1" d="M125.58,-598.77C137.14,-596.89 145.28,-591.79 145.28,-583.48 145.28,-577.76 141.43,-573.56 135.27,-570.89"/>
<polygon fill="red" stroke="red" stroke-width="0.1" points="136.16,-567.5 125.58,-568.18 134.27,-574.24 136.16,-567.5"/>
<text text-anchor="middle" x="159.28" y="-581.28" font-family="Times,serif" font-size="9.00">0.570</text>
</g>
<!-- key 12834
bias &#45;0.249
h_scaling 0.004
output 0.817&#45;&gt;key 12985
bias &#45;0.754
h_scaling 0.042
output 0.874 -->
<g id="edge8" class="edge">
<title>key 12834
bias &#45;0.249
h_scaling 0.004
output 0.817&#45;&gt;key 12985
bias &#45;0.754
h_scaling 0.042
output 0.874</title>
<path fill="none" stroke="red" stroke-width="0.1" d="M81.62,-522.09C85.57,-508.84 89.78,-494.7 93.82,-481.11"/>
<polygon fill="red" stroke="red" stroke-width="0.1" points="97.24,-481.91 96.74,-471.33 90.53,-479.91 97.24,-481.91"/>
<text text-anchor="middle" x="103.64" y="-494.64" font-family="Times,serif" font-size="9.00">0.309</text>
</g>
<!-- key 327429
bias &#45;0.620
h_scaling 0.930
output 0.043&#45;&gt;output
bias &#45;0.469
h_scaling 0.602
output 0.001 -->
<g id="edge16" class="edge">
<title>key 327429
bias &#45;0.620
h_scaling 0.930
output 0.043&#45;&gt;output
bias &#45;0.469
h_scaling 0.602
output 0.001</title>
<path fill="none" stroke="blue" stroke-width="0.1" d="M258.81,-366.75C250.59,-359.8 241.99,-352.82 233.64,-346.56 221.81,-337.68 214.02,-340.75 205.64,-328.56 194.78,-312.77 175.3,-209.14 162.68,-136.54"/>
<polygon fill="blue" stroke="blue" stroke-width="0.1" points="166.1,-135.77 160.94,-126.52 159.2,-136.97 166.1,-135.77"/>
<text text-anchor="middle" x="211.14" y="-234.72" font-family="Times,serif" font-size="9.00">&#45;0.511</text>
</g>
<!-- key 327429
bias &#45;0.620
h_scaling 0.930
output 0.043&#45;&gt;key 501
bias 0.091
h_scaling 0.515
output 0.035 -->
<g id="edge15" class="edge">
<title>key 327429
bias &#45;0.620
h_scaling 0.930
output 0.043&#45;&gt;key 501
bias 0.091
h_scaling 0.515
output 0.035</title>
<path fill="none" stroke="blue" stroke-width="0.1" d="M305.64,-346.39C305.64,-334.87 305.64,-322.76 305.64,-310.97"/>
<polygon fill="blue" stroke="blue" stroke-width="0.1" points="309.14,-310.72 305.64,-300.72 302.14,-310.72 309.14,-310.72"/>
<text text-anchor="middle" x="321.14" y="-321.36" font-family="Times,serif" font-size="9.00">&#45;0.941</text>
</g>
<!-- key 501
bias 0.091
h_scaling 0.515
output 0.035&#45;&gt;output
bias &#45;0.469
h_scaling 0.602
output 0.001 -->
<g id="edge1" class="edge">
<title>key 501
bias 0.091
h_scaling 0.515
output 0.035&#45;&gt;output
bias &#45;0.469
h_scaling 0.602
output 0.001</title>
<path fill="none" stroke="red" stroke-width="0.1" d="M263.29,-189.12C243.64,-167.4 220.16,-141.46 199.74,-118.9"/>
<polygon fill="red" stroke="red" stroke-width="0.1" points="202.25,-116.45 192.94,-111.39 197.06,-121.15 202.25,-116.45"/>
<text text-anchor="middle" x="241.64" y="-148.08" font-family="Times,serif" font-size="9.00">1.018</text>
</g>
<!-- key 501
bias 0.091
h_scaling 0.515
output 0.035&#45;&gt;key 501
bias 0.091
h_scaling 0.515
output 0.035 -->
<g id="edge10" class="edge">
<title>key 501
bias 0.091
h_scaling 0.515
output 0.035&#45;&gt;key 501
bias 0.091
h_scaling 0.515
output 0.035</title>
<path fill="none" stroke="red" stroke-width="0.1" d="M367.58,-252.22C379.14,-250.33 387.28,-245.23 387.28,-236.92 387.28,-231.2 383.43,-227.01 377.27,-224.33"/>
<polygon fill="red" stroke="red" stroke-width="0.1" points="378.16,-220.94 367.58,-221.62 376.27,-227.68 378.16,-220.94"/>
<text text-anchor="middle" x="401.28" y="-234.72" font-family="Times,serif" font-size="9.00">0.899</text>
</g>
<!-- key 12985
bias &#45;0.754
h_scaling 0.042
output 0.874&#45;&gt;output
bias &#45;0.469
h_scaling 0.602
output 0.001 -->
<g id="edge5" class="edge">
<title>key 12985
bias &#45;0.754
h_scaling 0.042
output 0.874&#45;&gt;output
bias &#45;0.469
h_scaling 0.602
output 0.001</title>
<path fill="none" stroke="blue" stroke-width="0.1" d="M119.88,-346.55C124,-298.97 130.13,-231.95 136.64,-173.28 137.94,-161.54 139.44,-149.1 140.95,-137"/>
<polygon fill="blue" stroke="blue" stroke-width="0.1" points="144.45,-137.29 142.23,-126.93 137.5,-136.41 144.45,-137.29"/>
<text text-anchor="middle" x="152.14" y="-234.72" font-family="Times,serif" font-size="9.00">&#45;1.000</text>
</g>
<!-- key 12985
bias &#45;0.754
h_scaling 0.042
output 0.874&#45;&gt;key 501
bias 0.091
h_scaling 0.515
output 0.035 -->
<g id="edge4" class="edge">
<title>key 12985
bias &#45;0.754
h_scaling 0.042
output 0.874&#45;&gt;key 501
bias 0.091
h_scaling 0.515
output 0.035</title>
<path fill="none" stroke="blue" stroke-width="0.1" d="M161.85,-366.86C188.81,-342.68 222.74,-312.26 250.87,-287.03"/>
<polygon fill="blue" stroke="blue" stroke-width="0.1" points="253.53,-289.35 258.64,-280.07 248.86,-284.14 253.53,-289.35"/>
<text text-anchor="middle" x="225.14" y="-321.36" font-family="Times,serif" font-size="9.00">&#45;0.840</text>
</g>
<!-- key 12985
bias &#45;0.754
h_scaling 0.042
output 0.874&#45;&gt;key 12985
bias &#45;0.754
h_scaling 0.042
output 0.874 -->
<g id="edge7" class="edge">
<title>key 12985
bias &#45;0.754
h_scaling 0.042
output 0.874&#45;&gt;key 12985
bias &#45;0.754
h_scaling 0.042
output 0.874</title>
<path fill="none" stroke="red" stroke-width="0.1" d="M176.58,-425.5C188.14,-423.61 196.28,-418.51 196.28,-410.2 196.28,-404.48 192.43,-400.29 186.27,-397.61"/>
<polygon fill="red" stroke="red" stroke-width="0.1" points="187.16,-394.22 176.58,-394.9 185.27,-400.96 187.16,-394.22"/>
<text text-anchor="middle" x="210.28" y="-408" font-family="Times,serif" font-size="9.00">1.009</text>
</g>
</g>
</svg>
