<?xml version="1.0" encoding="UTF-8" standalone="no"?>
<!DOCTYPE svg PUBLIC "-//W3C//DTD SVG 1.1//EN"
 "http://www.w3.org/Graphics/SVG/1.1/DTD/svg11.dtd">
<!-- Generated by graphviz version 2.43.0 (0)
 -->
<!-- Title: %3 Pages: 1 -->
<svg width="354pt" height="1048pt"
 viewBox="0.00 0.00 354.40 1047.68" xmlns="http://www.w3.org/2000/svg" xmlns:xlink="http://www.w3.org/1999/xlink">
<g id="graph0" class="graph" transform="scale(1 1) rotate(0) translate(4 1043.68)">
<title>%3</title>
<polygon fill="white" stroke="transparent" points="-4,4 -4,-1043.68 350.4,-1043.68 350.4,4 -4,4"/>
<!-- ready -->
<g id="node1" class="node">
<title>ready</title>
<polygon fill="yellow" stroke="black" points="258.26,-1039.68 215.26,-1039.68 215.26,-1021.68 258.26,-1021.68 258.26,-1039.68"/>
<text text-anchor="middle" x="236.76" y="-1028.48" font-family="Times,serif" font-size="9.00">ready</text>
</g>
<!-- key 9117
bias &#45;0.384
h_scaling 1.000 -->
<g id="node8" class="node">
<title>key 9117
bias &#45;0.384
h_scaling 1.000</title>
<ellipse fill="white" stroke="black" cx="236.76" cy="-912.04" rx="63.78" ry="63.78"/>
<text text-anchor="middle" x="236.76" y="-919.84" font-family="Times,serif" font-size="9.00">key 9117</text>
<text text-anchor="middle" x="236.76" y="-909.84" font-family="Times,serif" font-size="9.00">bias &#45;0.384</text>
<text text-anchor="middle" x="236.76" y="-899.84" font-family="Times,serif" font-size="9.00">h_scaling 1.000</text>
</g>
<!-- ready&#45;&gt;key 9117
bias &#45;0.384
h_scaling 1.000 -->
<g id="edge10" class="edge">
<title>ready&#45;&gt;key 9117
bias &#45;0.384
h_scaling 1.000</title>
<path fill="none" stroke="red" stroke-width="0.1" d="M236.76,-1021.66C236.76,-1013.63 236.76,-1000.41 236.76,-985.91"/>
<polygon fill="red" stroke="red" stroke-width="0.1" points="240.26,-985.71 236.76,-975.71 233.26,-985.71 240.26,-985.71"/>
<text text-anchor="middle" x="250.76" y="-996.48" font-family="Times,serif" font-size="9.00">0.000</text>
</g>
<!-- go -->
<g id="node2" class="node">
<title>go</title>
<polygon fill="green" stroke="black" points="43.76,-747.76 15.76,-747.76 15.76,-729.76 43.76,-729.76 43.76,-747.76"/>
<text text-anchor="middle" x="29.76" y="-736.56" font-family="Times,serif" font-size="9.00">go</text>
</g>
<!-- key 8256
bias &#45;0.367
h_scaling 1.000 -->
<g id="node4" class="node">
<title>key 8256
bias &#45;0.367
h_scaling 1.000</title>
<ellipse fill="white" stroke="black" cx="143.76" cy="-565.48" rx="63.78" ry="63.78"/>
<text text-anchor="middle" x="143.76" y="-573.28" font-family="Times,serif" font-size="9.00">key 8256</text>
<text text-anchor="middle" x="143.76" y="-563.28" font-family="Times,serif" font-size="9.00">bias &#45;0.367</text>
<text text-anchor="middle" x="143.76" y="-553.28" font-family="Times,serif" font-size="9.00">h_scaling 1.000</text>
</g>
<!-- go&#45;&gt;key 8256
bias &#45;0.367
h_scaling 1.000 -->
<g id="edge4" class="edge">
<title>go&#45;&gt;key 8256
bias &#45;0.367
h_scaling 1.000</title>
<path fill="none" stroke="red" stroke-width="0.1" d="M31.77,-729.65C35.03,-717.33 42.2,-693.37 52.76,-675.12 64.03,-655.63 78.87,-636.2 93.29,-619.27"/>
<polygon fill="red" stroke="red" stroke-width="0.1" points="95.96,-621.53 99.87,-611.68 90.67,-616.94 95.96,-621.53"/>
<text text-anchor="middle" x="83.76" y="-649.92" font-family="Times,serif" font-size="9.00">0.000</text>
</g>
<!-- key 5492
bias &#45;0.305
h_scaling 1.000 -->
<g id="node7" class="node">
<title>key 5492
bias &#45;0.305
h_scaling 1.000</title>
<ellipse fill="white" stroke="black" cx="98.76" cy="-392.2" rx="63.78" ry="63.78"/>
<text text-anchor="middle" x="98.76" y="-400" font-family="Times,serif" font-size="9.00">key 5492</text>
<text text-anchor="middle" x="98.76" y="-390" font-family="Times,serif" font-size="9.00">bias &#45;0.305</text>
<text text-anchor="middle" x="98.76" y="-380" font-family="Times,serif" font-size="9.00">h_scaling 1.000</text>
</g>
<!-- go&#45;&gt;key 5492
bias &#45;0.305
h_scaling 1.000 -->
<g id="edge1" class="edge">
<title>go&#45;&gt;key 5492
bias &#45;0.305
h_scaling 1.000</title>
<path fill="none" stroke="red" stroke-width="0.1" d="M28.98,-729.41C26.37,-698.53 19.3,-588.13 42.76,-501.84 47,-486.24 53.68,-470.3 60.97,-455.61"/>
<polygon fill="red" stroke="red" stroke-width="0.1" points="64.12,-457.13 65.57,-446.64 57.89,-453.94 64.12,-457.13"/>
<text text-anchor="middle" x="56.76" y="-563.28" font-family="Times,serif" font-size="9.00">0.000</text>
</g>
<!-- output
bias 0.390
h_scaling 1.000 -->
<g id="node3" class="node">
<title>output
bias 0.390
h_scaling 1.000</title>
<ellipse fill="lightblue" stroke="black" cx="228.76" cy="-227.92" rx="63.78" ry="63.78"/>
<text text-anchor="middle" x="228.76" y="-235.72" font-family="Times,serif" font-size="9.00">output</text>
<text text-anchor="middle" x="228.76" y="-225.72" font-family="Times,serif" font-size="9.00">bias 0.390</text>
<text text-anchor="middle" x="228.76" y="-215.72" font-family="Times,serif" font-size="9.00">h_scaling 1.000</text>
</g>
<!-- key 1773
bias &#45;0.256
h_scaling 1.000 -->
<g id="node6" class="node">
<title>key 1773
bias &#45;0.256
h_scaling 1.000</title>
<ellipse fill="white" stroke="black" cx="228.76" cy="-63.64" rx="63.78" ry="63.78"/>
<text text-anchor="middle" x="228.76" y="-71.44" font-family="Times,serif" font-size="9.00">key 1773</text>
<text text-anchor="middle" x="228.76" y="-61.44" font-family="Times,serif" font-size="9.00">bias &#45;0.256</text>
<text text-anchor="middle" x="228.76" y="-51.44" font-family="Times,serif" font-size="9.00">h_scaling 1.000</text>
</g>
<!-- output
bias 0.390
h_scaling 1.000&#45;&gt;key 1773
bias &#45;0.256
h_scaling 1.000 -->
<g id="edge6" class="edge">
<title>output
bias 0.390
h_scaling 1.000&#45;&gt;key 1773
bias &#45;0.256
h_scaling 1.000</title>
<path fill="none" stroke="blue" stroke-width="0.1" d="M222.17,-164.18C222.01,-155.3 221.97,-146.11 222.04,-137.07"/>
<polygon fill="blue" stroke="blue" stroke-width="0.1" points="225.55,-136.99 222.17,-126.95 218.55,-136.9 225.55,-136.99"/>
</g>
<!-- output
bias 0.390
h_scaling 1.000&#45;&gt;key 9117
bias &#45;0.384
h_scaling 1.000 -->
<g id="edge9" class="edge">
<title>output
bias 0.390
h_scaling 1.000&#45;&gt;key 9117
bias &#45;0.384
h_scaling 1.000</title>
<path fill="none" stroke="blue" stroke-width="0.1" d="M264.47,-280.9C282.15,-311.58 299.76,-351.99 299.76,-391.2 299.76,-739.76 299.76,-739.76 299.76,-739.76 299.76,-776.81 286.61,-815.76 272.33,-847.13"/>
<polygon fill="blue" stroke="blue" stroke-width="0.1" points="269.15,-845.66 268.08,-856.19 275.49,-848.63 269.15,-845.66"/>
</g>
<!-- key 8256
bias &#45;0.367
h_scaling 1.000&#45;&gt;output
bias 0.390
h_scaling 1.000 -->
<g id="edge12" class="edge">
<title>key 8256
bias &#45;0.367
h_scaling 1.000&#45;&gt;output
bias 0.390
h_scaling 1.000</title>
<path fill="none" stroke="blue" stroke-width="0.1" d="M159.52,-503.59C163.53,-488.02 167.82,-471.32 171.76,-455.84 185.03,-403.69 199.83,-344.74 211.02,-300"/>
<polygon fill="blue" stroke="blue" stroke-width="0.1" points="214.47,-300.65 213.5,-290.1 207.68,-298.95 214.47,-300.65"/>
</g>
<!-- key 8256
bias &#45;0.367
h_scaling 1.000&#45;&gt;key 5492
bias &#45;0.305
h_scaling 1.000 -->
<g id="edge5" class="edge">
<title>key 8256
bias &#45;0.367
h_scaling 1.000&#45;&gt;key 5492
bias &#45;0.305
h_scaling 1.000</title>
<path fill="none" stroke="red" stroke-width="0.1" d="M109.28,-511.42C104.94,-502.52 101.18,-493.15 98.76,-483.84 97.29,-478.18 96.24,-472.25 95.53,-466.26"/>
<polygon fill="red" stroke="red" stroke-width="0.1" points="99,-465.79 94.64,-456.14 92.03,-466.41 99,-465.79"/>
<text text-anchor="middle" x="112.76" y="-476.64" font-family="Times,serif" font-size="9.00">0.000</text>
</g>
<!-- key 237152
bias &#45;0.302
h_scaling 1.000 -->
<g id="node5" class="node">
<title>key 237152
bias &#45;0.302
h_scaling 1.000</title>
<ellipse fill="white" stroke="black" cx="125.76" cy="-738.76" rx="63.78" ry="63.78"/>
<text text-anchor="middle" x="125.76" y="-746.56" font-family="Times,serif" font-size="9.00">key 237152</text>
<text text-anchor="middle" x="125.76" y="-736.56" font-family="Times,serif" font-size="9.00">bias &#45;0.302</text>
<text text-anchor="middle" x="125.76" y="-726.56" font-family="Times,serif" font-size="9.00">h_scaling 1.000</text>
</g>
<!-- key 237152
bias &#45;0.302
h_scaling 1.000&#45;&gt;key 8256
bias &#45;0.367
h_scaling 1.000 -->
<g id="edge17" class="edge">
<title>key 237152
bias &#45;0.302
h_scaling 1.000&#45;&gt;key 8256
bias &#45;0.367
h_scaling 1.000</title>
<path fill="none" stroke="blue" stroke-width="0.1" d="M132.31,-675.44C133.55,-663.63 134.86,-651.18 136.13,-639.09"/>
<polygon fill="blue" stroke="blue" stroke-width="0.1" points="139.62,-639.35 137.19,-629.04 132.66,-638.62 139.62,-639.35"/>
</g>
<!-- key 1773
bias &#45;0.256
h_scaling 1.000&#45;&gt;output
bias 0.390
h_scaling 1.000 -->
<g id="edge3" class="edge">
<title>key 1773
bias &#45;0.256
h_scaling 1.000&#45;&gt;output
bias 0.390
h_scaling 1.000</title>
<path fill="none" stroke="blue" stroke-width="0.1" d="M235.35,-126.95C235.5,-135.81 235.55,-145 235.48,-154.05"/>
<polygon fill="blue" stroke="blue" stroke-width="0.1" points="231.98,-154.13 235.35,-164.18 238.98,-154.22 231.98,-154.13"/>
</g>
<!-- key 5492
bias &#45;0.305
h_scaling 1.000&#45;&gt;output
bias 0.390
h_scaling 1.000 -->
<g id="edge8" class="edge">
<title>key 5492
bias &#45;0.305
h_scaling 1.000&#45;&gt;output
bias 0.390
h_scaling 1.000</title>
<path fill="none" stroke="blue" stroke-width="0.1" d="M138.12,-342.07C152.18,-324.51 168.15,-304.58 182.73,-286.38"/>
<polygon fill="blue" stroke="blue" stroke-width="0.1" points="185.79,-288.15 189.31,-278.16 180.33,-283.78 185.79,-288.15"/>
</g>
<!-- key 5492
bias &#45;0.305
h_scaling 1.000&#45;&gt;key 8256
bias &#45;0.367
h_scaling 1.000 -->
<g id="edge7" class="edge">
<title>key 5492
bias &#45;0.305
h_scaling 1.000&#45;&gt;key 8256
bias &#45;0.367
h_scaling 1.000</title>
<path fill="none" stroke="red" stroke-width="0.1" d="M120.42,-452.34C122.72,-459.53 124.89,-466.82 126.76,-473.84 128.35,-479.83 129.85,-486.08 131.25,-492.38"/>
<polygon fill="red" stroke="red" stroke-width="0.1" points="127.85,-493.23 133.36,-502.28 134.7,-491.77 127.85,-493.23"/>
<text text-anchor="middle" x="143.76" y="-476.64" font-family="Times,serif" font-size="9.00">0.000</text>
</g>
<!-- key 5492
bias &#45;0.305
h_scaling 1.000&#45;&gt;key 1773
bias &#45;0.256
h_scaling 1.000 -->
<g id="edge2" class="edge">
<title>key 5492
bias &#45;0.305
h_scaling 1.000&#45;&gt;key 1773
bias &#45;0.256
h_scaling 1.000</title>
<path fill="none" stroke="red" stroke-width="0.1" d="M95.99,-328.33C96.38,-280.93 102.39,-215.53 127.76,-164.28 137.95,-143.7 154.11,-124.9 170.54,-109.3"/>
<polygon fill="red" stroke="red" stroke-width="0.1" points="173.09,-111.71 178.09,-102.37 168.36,-106.56 173.09,-111.71"/>
<text text-anchor="middle" x="141.76" y="-225.72" font-family="Times,serif" font-size="9.00">0.000</text>
</g>
<!-- key 9117
bias &#45;0.384
h_scaling 1.000&#45;&gt;output
bias 0.390
h_scaling 1.000 -->
<g id="edge14" class="edge">
<title>key 9117
bias &#45;0.384
h_scaling 1.000&#45;&gt;output
bias 0.390
h_scaling 1.000</title>
<path fill="none" stroke="red" stroke-width="0.1" d="M241.04,-848.1C241.33,-842.12 241.58,-836.14 241.76,-830.4 241.9,-825.95 241.81,-824.84 241.76,-820.4 239.71,-633.65 234.01,-413.81 230.88,-302.08"/>
<polygon fill="red" stroke="red" stroke-width="0.1" points="234.38,-301.84 230.6,-291.94 227.38,-302.03 234.38,-301.84"/>
<text text-anchor="middle" x="252.76" y="-563.28" font-family="Times,serif" font-size="9.00">0.000</text>
</g>
<!-- key 9117
bias &#45;0.384
h_scaling 1.000&#45;&gt;key 8256
bias &#45;0.367
h_scaling 1.000 -->
<g id="edge15" class="edge">
<title>key 9117
bias &#45;0.384
h_scaling 1.000&#45;&gt;key 8256
bias &#45;0.367
h_scaling 1.000</title>
<path fill="none" stroke="blue" stroke-width="0.1" d="M231.98,-848.46C227.04,-800.18 217.32,-732.23 198.76,-675.12 193.88,-660.11 187.17,-644.62 180.12,-630.2"/>
<polygon fill="blue" stroke="blue" stroke-width="0.1" points="183.06,-628.26 175.44,-620.89 176.8,-631.4 183.06,-628.26"/>
</g>
<!-- key 9117
bias &#45;0.384
h_scaling 1.000&#45;&gt;key 237152
bias &#45;0.302
h_scaling 1.000 -->
<g id="edge16" class="edge">
<title>key 9117
bias &#45;0.384
h_scaling 1.000&#45;&gt;key 237152
bias &#45;0.302
h_scaling 1.000</title>
<path fill="none" stroke="red" stroke-width="0.1" d="M197.55,-861.51C190.04,-851.4 182.45,-840.7 175.76,-830.4 170.4,-822.14 165.05,-813.28 159.94,-804.43"/>
<polygon fill="red" stroke="red" stroke-width="0.1" points="162.92,-802.58 154.93,-795.62 156.83,-806.04 162.92,-802.58"/>
<text text-anchor="middle" x="189.76" y="-823.2" font-family="Times,serif" font-size="9.00">0.000</text>
</g>
<!-- key 9117
bias &#45;0.384
h_scaling 1.000&#45;&gt;key 1773
bias &#45;0.256
h_scaling 1.000 -->
<g id="edge18" class="edge">
<title>key 9117
bias &#45;0.384
h_scaling 1.000&#45;&gt;key 1773
bias &#45;0.256
h_scaling 1.000</title>
<path fill="none" stroke="blue" stroke-width="0.1" d="M281.06,-866.13C308.2,-833.78 337.76,-787.57 337.76,-739.76 337.76,-739.76 337.76,-739.76 337.76,-226.92 337.76,-183.59 310.65,-143.11 283.46,-113.42"/>
<polygon fill="blue" stroke="blue" stroke-width="0.1" points="285.98,-110.98 276.57,-106.11 280.88,-115.79 285.98,-110.98"/>
</g>
<!-- key 9117
bias &#45;0.384
h_scaling 1.000&#45;&gt;key 5492
bias &#45;0.305
h_scaling 1.000 -->
<g id="edge11" class="edge">
<title>key 9117
bias &#45;0.384
h_scaling 1.000&#45;&gt;key 5492
bias &#45;0.305
h_scaling 1.000</title>
<path fill="none" stroke="blue" stroke-width="0.1" d="M173.92,-900.46C119.24,-887.58 43.22,-859.94 6.76,-802.4 -14.09,-769.48 20.78,-507.23 22.76,-501.84 29.54,-483.34 40.28,-465.07 51.57,-448.94"/>
<polygon fill="blue" stroke="blue" stroke-width="0.1" points="54.5,-450.87 57.51,-440.71 48.82,-446.77 54.5,-450.87"/>
</g>
<!-- key 9117
bias &#45;0.384
h_scaling 1.000&#45;&gt;key 9117
bias &#45;0.384
h_scaling 1.000 -->
<g id="edge13" class="edge">
<title>key 9117
bias &#45;0.384
h_scaling 1.000&#45;&gt;key 9117
bias &#45;0.384
h_scaling 1.000</title>
<path fill="none" stroke="red" stroke-width="0.1" d="M298.7,-927.33C310.26,-925.45 318.4,-920.35 318.4,-912.04 318.4,-906.32 314.55,-902.12 308.39,-899.45"/>
<polygon fill="red" stroke="red" stroke-width="0.1" points="309.28,-896.06 298.7,-896.74 307.39,-902.8 309.28,-896.06"/>
<text text-anchor="middle" x="332.4" y="-909.84" font-family="Times,serif" font-size="9.00">0.000</text>
</g>
</g>
</svg>
