<?xml version="1.0" encoding="UTF-8" standalone="no"?>
<!DOCTYPE svg PUBLIC "-//W3C//DTD SVG 1.1//EN"
 "http://www.w3.org/Graphics/SVG/1.1/DTD/svg11.dtd">
<!-- Generated by graphviz version 2.43.0 (0)
 -->
<!-- Title: %3 Pages: 1 -->
<svg width="457pt" height="1066pt"
 viewBox="0.00 0.00 457.14 1065.68" xmlns="http://www.w3.org/2000/svg" xmlns:xlink="http://www.w3.org/1999/xlink">
<g id="graph0" class="graph" transform="scale(1 1) rotate(0) translate(4 1061.68)">
<title>%3</title>
<polygon fill="white" stroke="transparent" points="-4,4 -4,-1061.68 453.14,-1061.68 453.14,4 -4,4"/>
<!-- ready -->
<g id="node1" class="node">
<title>ready</title>
<polygon fill="yellow" stroke="black" points="312.64,-1057.68 269.64,-1057.68 269.64,-1039.68 312.64,-1039.68 312.64,-1057.68"/>
<text text-anchor="middle" x="291.14" y="-1046.48" font-family="Times,serif" font-size="9.00">ready</text>
</g>
<!-- key 9117
bias &#45;0.384
h_scaling 1.000 -->
<g id="node8" class="node">
<title>key 9117
bias &#45;0.384
h_scaling 1.000</title>
<ellipse fill="white" stroke="black" cx="291.14" cy="-930.04" rx="63.78" ry="63.78"/>
<text text-anchor="middle" x="291.14" y="-937.84" font-family="Times,serif" font-size="9.00">key 9117</text>
<text text-anchor="middle" x="291.14" y="-927.84" font-family="Times,serif" font-size="9.00">bias &#45;0.384</text>
<text text-anchor="middle" x="291.14" y="-917.84" font-family="Times,serif" font-size="9.00">h_scaling 1.000</text>
</g>
<!-- ready&#45;&gt;key 9117
bias &#45;0.384
h_scaling 1.000 -->
<g id="edge10" class="edge">
<title>ready&#45;&gt;key 9117
bias &#45;0.384
h_scaling 1.000</title>
<path fill="none" stroke="red" stroke-width="2.19" d="M291.14,-1039.66C291.14,-1031.63 291.14,-1018.41 291.14,-1003.91"/>
<polygon fill="red" stroke="red" stroke-width="2.19" points="294.64,-1003.71 291.14,-993.71 287.64,-1003.71 294.64,-1003.71"/>
<text text-anchor="middle" x="305.14" y="-1014.48" font-family="Times,serif" font-size="9.00">0.698</text>
</g>
<!-- go -->
<g id="node2" class="node">
<title>go</title>
<polygon fill="green" stroke="black" points="80.14,-765.76 52.14,-765.76 52.14,-747.76 80.14,-747.76 80.14,-765.76"/>
<text text-anchor="middle" x="66.14" y="-754.56" font-family="Times,serif" font-size="9.00">go</text>
</g>
<!-- key 8256
bias &#45;0.367
h_scaling 1.000 -->
<g id="node4" class="node">
<title>key 8256
bias &#45;0.367
h_scaling 1.000</title>
<ellipse fill="white" stroke="black" cx="183.14" cy="-583.48" rx="63.78" ry="63.78"/>
<text text-anchor="middle" x="183.14" y="-591.28" font-family="Times,serif" font-size="9.00">key 8256</text>
<text text-anchor="middle" x="183.14" y="-581.28" font-family="Times,serif" font-size="9.00">bias &#45;0.367</text>
<text text-anchor="middle" x="183.14" y="-571.28" font-family="Times,serif" font-size="9.00">h_scaling 1.000</text>
</g>
<!-- go&#45;&gt;key 8256
bias &#45;0.367
h_scaling 1.000 -->
<g id="edge4" class="edge">
<title>go&#45;&gt;key 8256
bias &#45;0.367
h_scaling 1.000</title>
<path fill="none" stroke="red" stroke-width="3.1" d="M68.11,-747.63C71.33,-735.28 78.44,-711.28 89.14,-693.12 100.84,-673.27 116.33,-653.61 131.35,-636.57"/>
<polygon fill="red" stroke="red" stroke-width="3.1" points="134.13,-638.72 138.21,-628.94 128.92,-634.04 134.13,-638.72"/>
<text text-anchor="middle" x="121.14" y="-667.92" font-family="Times,serif" font-size="9.00">1.000</text>
</g>
<!-- key 5492
bias &#45;0.305
h_scaling 1.000 -->
<g id="node7" class="node">
<title>key 5492
bias &#45;0.305
h_scaling 1.000</title>
<ellipse fill="white" stroke="black" cx="135.14" cy="-410.2" rx="63.78" ry="63.78"/>
<text text-anchor="middle" x="135.14" y="-418" font-family="Times,serif" font-size="9.00">key 5492</text>
<text text-anchor="middle" x="135.14" y="-408" font-family="Times,serif" font-size="9.00">bias &#45;0.305</text>
<text text-anchor="middle" x="135.14" y="-398" font-family="Times,serif" font-size="9.00">h_scaling 1.000</text>
</g>
<!-- go&#45;&gt;key 5492
bias &#45;0.305
h_scaling 1.000 -->
<g id="edge1" class="edge">
<title>go&#45;&gt;key 5492
bias &#45;0.305
h_scaling 1.000</title>
<path fill="none" stroke="red" stroke-width="3.02" d="M65.57,-747.42C63.69,-716.59 59.07,-606.31 82.14,-519.84 86.16,-504.78 92.3,-489.33 99,-474.96"/>
<polygon fill="red" stroke="red" stroke-width="3.02" points="102.28,-476.23 103.47,-465.7 95.97,-473.19 102.28,-476.23"/>
<text text-anchor="middle" x="96.14" y="-581.28" font-family="Times,serif" font-size="9.00">0.974</text>
</g>
<!-- output
bias 0.390
h_scaling 1.000 -->
<g id="node3" class="node">
<title>output
bias 0.390
h_scaling 1.000</title>
<ellipse fill="lightblue" stroke="black" cx="273.14" cy="-236.92" rx="63.78" ry="63.78"/>
<text text-anchor="middle" x="273.14" y="-244.72" font-family="Times,serif" font-size="9.00">output</text>
<text text-anchor="middle" x="273.14" y="-234.72" font-family="Times,serif" font-size="9.00">bias 0.390</text>
<text text-anchor="middle" x="273.14" y="-224.72" font-family="Times,serif" font-size="9.00">h_scaling 1.000</text>
</g>
<!-- key 1773
bias &#45;0.256
h_scaling 1.000 -->
<g id="node6" class="node">
<title>key 1773
bias &#45;0.256
h_scaling 1.000</title>
<ellipse fill="white" stroke="black" cx="273.14" cy="-63.64" rx="63.78" ry="63.78"/>
<text text-anchor="middle" x="273.14" y="-71.44" font-family="Times,serif" font-size="9.00">key 1773</text>
<text text-anchor="middle" x="273.14" y="-61.44" font-family="Times,serif" font-size="9.00">bias &#45;0.256</text>
<text text-anchor="middle" x="273.14" y="-51.44" font-family="Times,serif" font-size="9.00">h_scaling 1.000</text>
</g>
<!-- output
bias 0.390
h_scaling 1.000&#45;&gt;key 1773
bias &#45;0.256
h_scaling 1.000 -->
<g id="edge6" class="edge">
<title>output
bias 0.390
h_scaling 1.000&#45;&gt;key 1773
bias &#45;0.256
h_scaling 1.000</title>
<path fill="none" stroke="blue" stroke-width="3.05" d="M248.83,-178.03C246.49,-170.49 244.49,-162.78 243.14,-155.28 241.7,-147.28 241.91,-139.01 243.2,-130.88"/>
<polygon fill="blue" stroke="blue" stroke-width="3.05" points="246.63,-131.56 245.26,-121.06 239.78,-130.12 246.63,-131.56"/>
<text text-anchor="middle" x="258.64" y="-148.08" font-family="Times,serif" font-size="9.00">&#45;0.984</text>
</g>
<!-- output
bias 0.390
h_scaling 1.000&#45;&gt;key 9117
bias &#45;0.384
h_scaling 1.000 -->
<g id="edge9" class="edge">
<title>output
bias 0.390
h_scaling 1.000&#45;&gt;key 9117
bias &#45;0.384
h_scaling 1.000</title>
<path fill="none" stroke="blue" stroke-width="0.27" d="M312.87,-286.8C335.4,-319.44 359.14,-364.44 359.14,-409.2 359.14,-757.76 359.14,-757.76 359.14,-757.76 359.14,-795.61 344.62,-835.06 328.99,-866.55"/>
<polygon fill="blue" stroke="blue" stroke-width="0.27" points="325.78,-865.13 324.34,-875.63 332.02,-868.32 325.78,-865.13"/>
<text text-anchor="middle" x="374.64" y="-581.28" font-family="Times,serif" font-size="9.00">&#45;0.058</text>
</g>
<!-- key 8256
bias &#45;0.367
h_scaling 1.000&#45;&gt;output
bias 0.390
h_scaling 1.000 -->
<g id="edge12" class="edge">
<title>key 8256
bias &#45;0.367
h_scaling 1.000&#45;&gt;output
bias 0.390
h_scaling 1.000</title>
<path fill="none" stroke="blue" stroke-width="3.01" d="M199.02,-521.67C214.59,-462.07 238.31,-371.28 254.7,-308.52"/>
<polygon fill="blue" stroke="blue" stroke-width="3.01" points="258.13,-309.26 257.27,-298.7 251.35,-307.49 258.13,-309.26"/>
<text text-anchor="middle" x="260.64" y="-408" font-family="Times,serif" font-size="9.00">&#45;0.971</text>
</g>
<!-- key 8256
bias &#45;0.367
h_scaling 1.000&#45;&gt;key 5492
bias &#45;0.305
h_scaling 1.000 -->
<g id="edge5" class="edge">
<title>key 8256
bias &#45;0.367
h_scaling 1.000&#45;&gt;key 5492
bias &#45;0.305
h_scaling 1.000</title>
<path fill="none" stroke="red" stroke-width="3.09" d="M145.83,-531.55C140.6,-522.09 136.03,-511.98 133.14,-501.84 131.51,-496.12 130.41,-490.11 129.71,-484.02"/>
<polygon fill="red" stroke="red" stroke-width="3.09" points="133.17,-483.44 128.89,-473.75 126.19,-483.99 133.17,-483.44"/>
<text text-anchor="middle" x="147.14" y="-494.64" font-family="Times,serif" font-size="9.00">0.998</text>
</g>
<!-- key 237152
bias &#45;0.302
h_scaling 1.000 -->
<g id="node5" class="node">
<title>key 237152
bias &#45;0.302
h_scaling 1.000</title>
<ellipse fill="white" stroke="black" cx="162.14" cy="-756.76" rx="63.78" ry="63.78"/>
<text text-anchor="middle" x="162.14" y="-764.56" font-family="Times,serif" font-size="9.00">key 237152</text>
<text text-anchor="middle" x="162.14" y="-754.56" font-family="Times,serif" font-size="9.00">bias &#45;0.302</text>
<text text-anchor="middle" x="162.14" y="-744.56" font-family="Times,serif" font-size="9.00">h_scaling 1.000</text>
</g>
<!-- key 237152
bias &#45;0.302
h_scaling 1.000&#45;&gt;key 8256
bias &#45;0.367
h_scaling 1.000 -->
<g id="edge17" class="edge">
<title>key 237152
bias &#45;0.302
h_scaling 1.000&#45;&gt;key 8256
bias &#45;0.367
h_scaling 1.000</title>
<path fill="none" stroke="blue" stroke-width="0.91" d="M169.78,-693.44C171.24,-681.55 172.78,-669.02 174.27,-656.86"/>
<polygon fill="blue" stroke="blue" stroke-width="0.91" points="177.76,-657.1 175.51,-646.75 170.82,-656.25 177.76,-657.1"/>
<text text-anchor="middle" x="188.64" y="-667.92" font-family="Times,serif" font-size="9.00">&#45;0.270</text>
</g>
<!-- key 1773
bias &#45;0.256
h_scaling 1.000&#45;&gt;output
bias 0.390
h_scaling 1.000 -->
<g id="edge3" class="edge">
<title>key 1773
bias &#45;0.256
h_scaling 1.000&#45;&gt;output
bias 0.390
h_scaling 1.000</title>
<path fill="none" stroke="blue" stroke-width="3.1" d="M277.42,-127.57C277.71,-133.56 277.96,-139.53 278.14,-145.28 278.32,-151.03 278.35,-156.99 278.26,-162.97"/>
<polygon fill="blue" stroke="blue" stroke-width="3.1" points="274.76,-162.95 278.01,-173.04 281.76,-163.12 274.76,-162.95"/>
<text text-anchor="middle" x="294.64" y="-148.08" font-family="Times,serif" font-size="9.00">&#45;1.000</text>
</g>
<!-- key 5492
bias &#45;0.305
h_scaling 1.000&#45;&gt;output
bias 0.390
h_scaling 1.000 -->
<g id="edge8" class="edge">
<title>key 5492
bias &#45;0.305
h_scaling 1.000&#45;&gt;output
bias 0.390
h_scaling 1.000</title>
<path fill="none" stroke="blue" stroke-width="3.1" d="M166.26,-354.08C173.87,-342 182.37,-329.55 191.14,-318.56 199.48,-308.11 209.06,-297.62 218.67,-287.81"/>
<polygon fill="blue" stroke="blue" stroke-width="3.1" points="221.42,-290.01 226,-280.46 216.46,-285.07 221.42,-290.01"/>
<text text-anchor="middle" x="206.64" y="-321.36" font-family="Times,serif" font-size="9.00">&#45;1.000</text>
</g>
<!-- key 5492
bias &#45;0.305
h_scaling 1.000&#45;&gt;key 8256
bias &#45;0.367
h_scaling 1.000 -->
<g id="edge7" class="edge">
<title>key 5492
bias &#45;0.305
h_scaling 1.000&#45;&gt;key 8256
bias &#45;0.367
h_scaling 1.000</title>
<path fill="none" stroke="red" stroke-width="2.66" d="M154.94,-470.94C157.11,-477.96 159.22,-485.04 161.14,-491.84 162.94,-498.22 164.73,-504.89 166.47,-511.58"/>
<polygon fill="red" stroke="red" stroke-width="2.66" points="163.1,-512.55 168.96,-521.37 169.88,-510.82 163.1,-512.55"/>
<text text-anchor="middle" x="178.14" y="-494.64" font-family="Times,serif" font-size="9.00">0.853</text>
</g>
<!-- key 5492
bias &#45;0.305
h_scaling 1.000&#45;&gt;key 1773
bias &#45;0.256
h_scaling 1.000 -->
<g id="edge2" class="edge">
<title>key 5492
bias &#45;0.305
h_scaling 1.000&#45;&gt;key 1773
bias &#45;0.256
h_scaling 1.000</title>
<path fill="none" stroke="red" stroke-width="3.07" d="M135.1,-346.37C137.35,-297.04 145.64,-227.82 172.14,-173.28 183.07,-150.78 200.25,-129.72 217.35,-112.24"/>
<polygon fill="red" stroke="red" stroke-width="3.07" points="220.04,-114.5 224.66,-104.97 215.1,-109.54 220.04,-114.5"/>
<text text-anchor="middle" x="186.14" y="-234.72" font-family="Times,serif" font-size="9.00">0.991</text>
</g>
<!-- key 9117
bias &#45;0.384
h_scaling 1.000&#45;&gt;output
bias 0.390
h_scaling 1.000 -->
<g id="edge14" class="edge">
<title>key 9117
bias &#45;0.384
h_scaling 1.000&#45;&gt;output
bias 0.390
h_scaling 1.000</title>
<path fill="none" stroke="red" stroke-width="3.06" d="M301.18,-867.14C303.24,-851.9 305.1,-835.59 306.14,-820.4 310.02,-763.96 308.19,-749.65 306.14,-693.12 301.24,-557.78 288.18,-400.26 280.03,-310.5"/>
<polygon fill="red" stroke="red" stroke-width="3.06" points="283.51,-310.07 279.11,-300.43 276.54,-310.7 283.51,-310.07"/>
<text text-anchor="middle" x="319.14" y="-581.28" font-family="Times,serif" font-size="9.00">0.986</text>
</g>
<!-- key 9117
bias &#45;0.384
h_scaling 1.000&#45;&gt;key 8256
bias &#45;0.367
h_scaling 1.000 -->
<g id="edge15" class="edge">
<title>key 9117
bias &#45;0.384
h_scaling 1.000&#45;&gt;key 8256
bias &#45;0.367
h_scaling 1.000</title>
<path fill="none" stroke="blue" stroke-width="0.68" d="M280.16,-866.9C270.75,-818.71 255.48,-750.67 235.14,-693.12 230.03,-678.64 223.57,-663.53 216.96,-649.35"/>
<polygon fill="blue" stroke="blue" stroke-width="0.68" points="220.05,-647.71 212.6,-640.17 213.73,-650.71 220.05,-647.71"/>
<text text-anchor="middle" x="286.64" y="-754.56" font-family="Times,serif" font-size="9.00">&#45;0.193</text>
</g>
<!-- key 9117
bias &#45;0.384
h_scaling 1.000&#45;&gt;key 237152
bias &#45;0.302
h_scaling 1.000 -->
<g id="edge16" class="edge">
<title>key 9117
bias &#45;0.384
h_scaling 1.000&#45;&gt;key 237152
bias &#45;0.302
h_scaling 1.000</title>
<path fill="none" stroke="red" stroke-width="3.01" d="M248.22,-882.72C238.65,-871.73 228.78,-859.87 220.14,-848.4 213.45,-839.51 206.73,-829.85 200.36,-820.26"/>
<polygon fill="red" stroke="red" stroke-width="3.01" points="203.27,-818.32 194.86,-811.88 197.42,-822.16 203.27,-818.32"/>
<text text-anchor="middle" x="234.14" y="-841.2" font-family="Times,serif" font-size="9.00">0.969</text>
</g>
<!-- key 9117
bias &#45;0.384
h_scaling 1.000&#45;&gt;key 1773
bias &#45;0.256
h_scaling 1.000 -->
<g id="edge18" class="edge">
<title>key 9117
bias &#45;0.384
h_scaling 1.000&#45;&gt;key 1773
bias &#45;0.256
h_scaling 1.000</title>
<path fill="none" stroke="blue" stroke-width="0.73" d="M341.7,-890.96C377.12,-859.58 418.14,-811.62 418.14,-757.76 418.14,-757.76 418.14,-757.76 418.14,-235.92 418.14,-181.18 374.46,-134.93 335.05,-104.34"/>
<polygon fill="blue" stroke="blue" stroke-width="0.73" points="336.81,-101.29 326.72,-98.06 332.59,-106.87 336.81,-101.29"/>
<text text-anchor="middle" x="433.64" y="-494.64" font-family="Times,serif" font-size="9.00">&#45;0.211</text>
</g>
<!-- key 9117
bias &#45;0.384
h_scaling 1.000&#45;&gt;key 5492
bias &#45;0.305
h_scaling 1.000 -->
<g id="edge11" class="edge">
<title>key 9117
bias &#45;0.384
h_scaling 1.000&#45;&gt;key 5492
bias &#45;0.305
h_scaling 1.000</title>
<path fill="none" stroke="blue" stroke-width="1.31" d="M228.26,-919.73C170.17,-907.57 86.51,-880.25 43.14,-820.4 -35.37,-712.03 8.12,-642.71 61.14,-519.84 68.66,-502.42 79.09,-484.87 89.76,-469.09"/>
<polygon fill="blue" stroke="blue" stroke-width="1.31" points="92.87,-470.74 95.69,-460.53 87.12,-466.76 92.87,-470.74"/>
<text text-anchor="middle" x="20.64" y="-667.92" font-family="Times,serif" font-size="9.00">&#45;0.404</text>
</g>
<!-- key 9117
bias &#45;0.384
h_scaling 1.000&#45;&gt;key 9117
bias &#45;0.384
h_scaling 1.000 -->
<g id="edge13" class="edge">
<title>key 9117
bias &#45;0.384
h_scaling 1.000&#45;&gt;key 9117
bias &#45;0.384
h_scaling 1.000</title>
<path fill="none" stroke="red" stroke-width="2" d="M353.08,-945.33C364.64,-943.45 372.78,-938.35 372.78,-930.04 372.78,-924.32 368.93,-920.12 362.77,-917.45"/>
<polygon fill="red" stroke="red" stroke-width="2" points="363.66,-914.06 353.08,-914.74 361.77,-920.8 363.66,-914.06"/>
<text text-anchor="middle" x="386.78" y="-927.84" font-family="Times,serif" font-size="9.00">0.633</text>
</g>
</g>
</svg>
