<?xml version="1.0" encoding="UTF-8" standalone="no"?>
<!DOCTYPE svg PUBLIC "-//W3C//DTD SVG 1.1//EN"
 "http://www.w3.org/Graphics/SVG/1.1/DTD/svg11.dtd">
<!-- Generated by graphviz version 2.43.0 (0)
 -->
<!-- Title: %3 Pages: 1 -->
<svg width="594pt" height="1076pt"
 viewBox="0.00 0.00 593.50 1075.68" xmlns="http://www.w3.org/2000/svg" xmlns:xlink="http://www.w3.org/1999/xlink">
<g id="graph0" class="graph" transform="scale(1 1) rotate(0) translate(4 1071.68)">
<title>%3</title>
<polygon fill="white" stroke="transparent" points="-4,4 -4,-1071.68 589.5,-1071.68 589.5,4 -4,4"/>
<!-- ready
output 0.000 -->
<g id="node1" class="node">
<title>ready
output 0.000</title>
<polygon fill="yellow" stroke="black" points="344,-1067.68 267,-1067.68 267,-1039.68 344,-1039.68 344,-1067.68"/>
<text text-anchor="middle" x="305.5" y="-1056.48" font-family="Times,serif" font-size="9.00">ready</text>
<text text-anchor="middle" x="305.5" y="-1046.48" font-family="Times,serif" font-size="9.00">output 0.000</text>
</g>
<!-- key 835
bias &#45;0.339
h_scaling 0.020
output 0.892 -->
<g id="node4" class="node">
<title>key 835
bias &#45;0.339
h_scaling 0.020
output 0.892</title>
<ellipse fill="white" stroke="black" cx="214.5" cy="-756.76" rx="63.78" ry="63.78"/>
<text text-anchor="middle" x="214.5" y="-769.56" font-family="Times,serif" font-size="9.00">key 835</text>
<text text-anchor="middle" x="214.5" y="-759.56" font-family="Times,serif" font-size="9.00">bias &#45;0.339</text>
<text text-anchor="middle" x="214.5" y="-749.56" font-family="Times,serif" font-size="9.00">h_scaling 0.020</text>
<text text-anchor="middle" x="214.5" y="-739.56" font-family="Times,serif" font-size="9.00">output 0.892</text>
</g>
<!-- ready
output 0.000&#45;&gt;key 835
bias &#45;0.339
h_scaling 0.020
output 0.892 -->
<g id="edge4" class="edge">
<title>ready
output 0.000&#45;&gt;key 835
bias &#45;0.339
h_scaling 0.020
output 0.892</title>
<path fill="none" stroke="blue" stroke-width="0.1" d="M301.47,-1039.62C290.24,-1003.21 257.94,-898.54 236.03,-827.52"/>
<polygon fill="blue" stroke="blue" stroke-width="0.1" points="239.3,-826.26 233.01,-817.73 232.61,-828.32 239.3,-826.26"/>
<text text-anchor="middle" x="302" y="-927.84" font-family="Times,serif" font-size="9.00">&#45;0.121</text>
</g>
<!-- key 32027
bias &#45;0.422
h_scaling 0.015
output 0.308 -->
<g id="node10" class="node">
<title>key 32027
bias &#45;0.422
h_scaling 0.015
output 0.308</title>
<ellipse fill="white" stroke="black" cx="454.5" cy="-930.04" rx="63.78" ry="63.78"/>
<text text-anchor="middle" x="454.5" y="-942.84" font-family="Times,serif" font-size="9.00">key 32027</text>
<text text-anchor="middle" x="454.5" y="-932.84" font-family="Times,serif" font-size="9.00">bias &#45;0.422</text>
<text text-anchor="middle" x="454.5" y="-922.84" font-family="Times,serif" font-size="9.00">h_scaling 0.015</text>
<text text-anchor="middle" x="454.5" y="-912.84" font-family="Times,serif" font-size="9.00">output 0.308</text>
</g>
<!-- ready
output 0.000&#45;&gt;key 32027
bias &#45;0.422
h_scaling 0.015
output 0.308 -->
<g id="edge11" class="edge">
<title>ready
output 0.000&#45;&gt;key 32027
bias &#45;0.422
h_scaling 0.015
output 0.308</title>
<path fill="none" stroke="red" stroke-width="0.1" d="M321.45,-1039.66C339.55,-1024.88 370.13,-999.92 397.4,-977.65"/>
<polygon fill="red" stroke="red" stroke-width="0.1" points="399.84,-980.18 405.37,-971.14 395.41,-974.76 399.84,-980.18"/>
<text text-anchor="middle" x="367.5" y="-1014.48" font-family="Times,serif" font-size="9.00">0.965</text>
</g>
<!-- go
output 0.000 -->
<g id="node2" class="node">
<title>go
output 0.000</title>
<polygon fill="green" stroke="black" points="77,-944.04 0,-944.04 0,-916.04 77,-916.04 77,-944.04"/>
<text text-anchor="middle" x="38.5" y="-932.84" font-family="Times,serif" font-size="9.00">go</text>
<text text-anchor="middle" x="38.5" y="-922.84" font-family="Times,serif" font-size="9.00">output 0.000</text>
</g>
<!-- go
output 0.000&#45;&gt;key 835
bias &#45;0.339
h_scaling 0.020
output 0.892 -->
<g id="edge1" class="edge">
<title>go
output 0.000&#45;&gt;key 835
bias &#45;0.339
h_scaling 0.020
output 0.892</title>
<path fill="none" stroke="red" stroke-width="0.1" d="M52.02,-915.88C75.19,-893.33 123.65,-846.17 161.65,-809.19"/>
<polygon fill="red" stroke="red" stroke-width="0.1" points="164.37,-811.42 169.1,-801.94 159.49,-806.41 164.37,-811.42"/>
<text text-anchor="middle" x="140.5" y="-841.2" font-family="Times,serif" font-size="9.00">0.810</text>
</g>
<!-- key 5284
bias &#45;0.402
h_scaling 0.140
output 0.708 -->
<g id="node5" class="node">
<title>key 5284
bias &#45;0.402
h_scaling 0.140
output 0.708</title>
<ellipse fill="white" stroke="black" cx="138.5" cy="-583.48" rx="63.78" ry="63.78"/>
<text text-anchor="middle" x="138.5" y="-596.28" font-family="Times,serif" font-size="9.00">key 5284</text>
<text text-anchor="middle" x="138.5" y="-586.28" font-family="Times,serif" font-size="9.00">bias &#45;0.402</text>
<text text-anchor="middle" x="138.5" y="-576.28" font-family="Times,serif" font-size="9.00">h_scaling 0.140</text>
<text text-anchor="middle" x="138.5" y="-566.28" font-family="Times,serif" font-size="9.00">output 0.708</text>
</g>
<!-- go
output 0.000&#45;&gt;key 5284
bias &#45;0.402
h_scaling 0.140
output 0.708 -->
<g id="edge6" class="edge">
<title>go
output 0.000&#45;&gt;key 5284
bias &#45;0.402
h_scaling 0.140
output 0.708</title>
<path fill="none" stroke="red" stroke-width="0.1" d="M42.3,-915.95C54.57,-873.68 93.75,-738.66 118.16,-654.55"/>
<polygon fill="red" stroke="red" stroke-width="0.1" points="121.57,-655.39 120.99,-644.81 114.84,-653.43 121.57,-655.39"/>
<text text-anchor="middle" x="120.5" y="-754.56" font-family="Times,serif" font-size="9.00">0.844</text>
</g>
<!-- key 30934
bias &#45;0.247
h_scaling 0.387
output 0.835 -->
<g id="node9" class="node">
<title>key 30934
bias &#45;0.247
h_scaling 0.387
output 0.835</title>
<ellipse fill="white" stroke="black" cx="222.5" cy="-410.2" rx="63.78" ry="63.78"/>
<text text-anchor="middle" x="222.5" y="-423" font-family="Times,serif" font-size="9.00">key 30934</text>
<text text-anchor="middle" x="222.5" y="-413" font-family="Times,serif" font-size="9.00">bias &#45;0.247</text>
<text text-anchor="middle" x="222.5" y="-403" font-family="Times,serif" font-size="9.00">h_scaling 0.387</text>
<text text-anchor="middle" x="222.5" y="-393" font-family="Times,serif" font-size="9.00">output 0.835</text>
</g>
<!-- go
output 0.000&#45;&gt;key 30934
bias &#45;0.247
h_scaling 0.387
output 0.835 -->
<g id="edge20" class="edge">
<title>go
output 0.000&#45;&gt;key 30934
bias &#45;0.247
h_scaling 0.387
output 0.835</title>
<path fill="none" stroke="red" stroke-width="0.1" d="M35.53,-915.86C24.16,-862.22 -12.09,-656.72 65.5,-519.84 85.45,-484.65 122.05,-458.32 154.9,-440.41"/>
<polygon fill="red" stroke="red" stroke-width="0.1" points="156.84,-443.34 164.05,-435.57 153.57,-437.15 156.84,-443.34"/>
<text text-anchor="middle" x="35.5" y="-667.92" font-family="Times,serif" font-size="9.00">0.124</text>
</g>
<!-- output
bias 0.899
h_scaling 0.413
output 0.013 -->
<g id="node3" class="node">
<title>output
bias 0.899
h_scaling 0.413
output 0.013</title>
<ellipse fill="lightblue" stroke="black" cx="284.5" cy="-63.64" rx="63.78" ry="63.78"/>
<text text-anchor="middle" x="284.5" y="-76.44" font-family="Times,serif" font-size="9.00">output</text>
<text text-anchor="middle" x="284.5" y="-66.44" font-family="Times,serif" font-size="9.00">bias 0.899</text>
<text text-anchor="middle" x="284.5" y="-56.44" font-family="Times,serif" font-size="9.00">h_scaling 0.413</text>
<text text-anchor="middle" x="284.5" y="-46.44" font-family="Times,serif" font-size="9.00">output 0.013</text>
</g>
<!-- key 835
bias &#45;0.339
h_scaling 0.020
output 0.892&#45;&gt;output
bias 0.899
h_scaling 0.413
output 0.013 -->
<g id="edge18" class="edge">
<title>key 835
bias &#45;0.339
h_scaling 0.020
output 0.892&#45;&gt;output
bias 0.899
h_scaling 0.413
output 0.013</title>
<path fill="none" stroke="blue" stroke-width="0.1" d="M166.57,-714.72C157.42,-707.32 147.78,-699.83 138.5,-693.12 107.42,-670.65 86.12,-679.45 65.5,-647.12 29.55,-590.72 46.5,-564.72 46.5,-497.84 46.5,-497.84 46.5,-497.84 46.5,-235.92 46.5,-152.9 143.08,-106.15 213.19,-83.14"/>
<polygon fill="blue" stroke="blue" stroke-width="0.1" points="214.43,-86.42 222.9,-80.05 212.31,-79.75 214.43,-86.42"/>
<text text-anchor="middle" x="62" y="-408" font-family="Times,serif" font-size="9.00">&#45;0.778</text>
</g>
<!-- key 835
bias &#45;0.339
h_scaling 0.020
output 0.892&#45;&gt;key 5284
bias &#45;0.402
h_scaling 0.140
output 0.708 -->
<g id="edge3" class="edge">
<title>key 835
bias &#45;0.339
h_scaling 0.020
output 0.892&#45;&gt;key 5284
bias &#45;0.402
h_scaling 0.140
output 0.708</title>
<path fill="none" stroke="red" stroke-width="0.1" d="M168.38,-712.84C158.87,-701.52 150.07,-688.66 144.5,-675.12 142.14,-669.37 140.36,-663.25 139.04,-657.01"/>
<polygon fill="red" stroke="red" stroke-width="0.1" points="142.48,-656.38 137.33,-647.13 135.59,-657.58 142.48,-656.38"/>
<text text-anchor="middle" x="158.5" y="-667.92" font-family="Times,serif" font-size="9.00">0.675</text>
</g>
<!-- key 27947
bias &#45;0.646
h_scaling 1.000
output 0.783 -->
<g id="node7" class="node">
<title>key 27947
bias &#45;0.646
h_scaling 1.000
output 0.783</title>
<ellipse fill="white" stroke="black" cx="348.5" cy="-583.48" rx="63.78" ry="63.78"/>
<text text-anchor="middle" x="348.5" y="-596.28" font-family="Times,serif" font-size="9.00">key 27947</text>
<text text-anchor="middle" x="348.5" y="-586.28" font-family="Times,serif" font-size="9.00">bias &#45;0.646</text>
<text text-anchor="middle" x="348.5" y="-576.28" font-family="Times,serif" font-size="9.00">h_scaling 1.000</text>
<text text-anchor="middle" x="348.5" y="-566.28" font-family="Times,serif" font-size="9.00">output 0.783</text>
</g>
<!-- key 835
bias &#45;0.339
h_scaling 0.020
output 0.892&#45;&gt;key 27947
bias &#45;0.646
h_scaling 1.000
output 0.783 -->
<g id="edge7" class="edge">
<title>key 835
bias &#45;0.339
h_scaling 0.020
output 0.892&#45;&gt;key 27947
bias &#45;0.646
h_scaling 1.000
output 0.783</title>
<path fill="none" stroke="red" stroke-width="0.1" d="M253.26,-706.22C268.88,-686.24 287.02,-663.06 303.25,-642.32"/>
<polygon fill="red" stroke="red" stroke-width="0.1" points="306.19,-644.24 309.6,-634.2 300.68,-639.92 306.19,-644.24"/>
<text text-anchor="middle" x="295.5" y="-667.92" font-family="Times,serif" font-size="9.00">1.171</text>
</g>
<!-- key 835
bias &#45;0.339
h_scaling 0.020
output 0.892&#45;&gt;key 30934
bias &#45;0.247
h_scaling 0.387
output 0.835 -->
<g id="edge9" class="edge">
<title>key 835
bias &#45;0.339
h_scaling 0.020
output 0.892&#45;&gt;key 30934
bias &#45;0.247
h_scaling 0.387
output 0.835</title>
<path fill="none" stroke="red" stroke-width="0.1" d="M215.96,-692.96C217.33,-634.03 219.37,-545.92 220.81,-483.95"/>
<polygon fill="red" stroke="red" stroke-width="0.1" points="224.31,-483.93 221.05,-473.85 217.31,-483.77 224.31,-483.93"/>
<text text-anchor="middle" x="233.5" y="-581.28" font-family="Times,serif" font-size="9.00">0.666</text>
</g>
<!-- key 5284
bias &#45;0.402
h_scaling 0.140
output 0.708&#45;&gt;output
bias 0.899
h_scaling 0.413
output 0.013 -->
<g id="edge5" class="edge">
<title>key 5284
bias &#45;0.402
h_scaling 0.140
output 0.708&#45;&gt;output
bias 0.899
h_scaling 0.413
output 0.013</title>
<path fill="none" stroke="blue" stroke-width="0.1" d="M134.71,-519.9C133.4,-471.77 135.04,-404.01 149.5,-346.56 169.68,-266.38 213.65,-181.79 245.95,-126.43"/>
<polygon fill="blue" stroke="blue" stroke-width="0.1" points="248.98,-128.2 251.03,-117.8 242.94,-124.65 248.98,-128.2"/>
<text text-anchor="middle" x="171" y="-321.36" font-family="Times,serif" font-size="9.00">&#45;0.720</text>
</g>
<!-- key 5284
bias &#45;0.402
h_scaling 0.140
output 0.708&#45;&gt;key 835
bias &#45;0.339
h_scaling 0.020
output 0.892 -->
<g id="edge2" class="edge">
<title>key 5284
bias &#45;0.402
h_scaling 0.140
output 0.708&#45;&gt;key 835
bias &#45;0.339
h_scaling 0.020
output 0.892</title>
<path fill="none" stroke="red" stroke-width="0.1" d="M163.95,-641.84C170.63,-656.88 177.88,-673.23 184.76,-688.73"/>
<polygon fill="red" stroke="red" stroke-width="0.1" points="181.73,-690.53 188.98,-698.25 188.12,-687.69 181.73,-690.53"/>
<text text-anchor="middle" x="190.5" y="-667.92" font-family="Times,serif" font-size="9.00">0.995</text>
</g>
<!-- key 54635
bias &#45;0.327
h_scaling 0.053
output 0.212 -->
<g id="node6" class="node">
<title>key 54635
bias &#45;0.327
h_scaling 0.053
output 0.212</title>
<ellipse fill="white" stroke="black" cx="406.5" cy="-236.92" rx="63.78" ry="63.78"/>
<text text-anchor="middle" x="406.5" y="-249.72" font-family="Times,serif" font-size="9.00">key 54635</text>
<text text-anchor="middle" x="406.5" y="-239.72" font-family="Times,serif" font-size="9.00">bias &#45;0.327</text>
<text text-anchor="middle" x="406.5" y="-229.72" font-family="Times,serif" font-size="9.00">h_scaling 0.053</text>
<text text-anchor="middle" x="406.5" y="-219.72" font-family="Times,serif" font-size="9.00">output 0.212</text>
</g>
<!-- key 54635
bias &#45;0.327
h_scaling 0.053
output 0.212&#45;&gt;output
bias 0.899
h_scaling 0.413
output 0.013 -->
<g id="edge15" class="edge">
<title>key 54635
bias &#45;0.327
h_scaling 0.053
output 0.212&#45;&gt;output
bias 0.899
h_scaling 0.413
output 0.013</title>
<path fill="none" stroke="blue" stroke-width="0.1" d="M369.9,-184.53C356.38,-165.56 340.96,-143.91 326.98,-124.27"/>
<polygon fill="blue" stroke="blue" stroke-width="0.1" points="329.73,-122.11 321.08,-115.99 324.03,-126.17 329.73,-122.11"/>
<text text-anchor="middle" x="361" y="-148.08" font-family="Times,serif" font-size="9.00">&#45;0.924</text>
</g>
<!-- key 27947
bias &#45;0.646
h_scaling 1.000
output 0.783&#45;&gt;output
bias 0.899
h_scaling 0.413
output 0.013 -->
<g id="edge8" class="edge">
<title>key 27947
bias &#45;0.646
h_scaling 1.000
output 0.783&#45;&gt;output
bias 0.899
h_scaling 0.413
output 0.013</title>
<path fill="none" stroke="blue" stroke-width="0.1" d="M339.63,-520.18C337.55,-505.02 335.39,-488.86 333.5,-473.84 316.75,-340.45 316.25,-306.67 299.5,-173.28 298.03,-161.55 296.39,-149.11 294.74,-137.01"/>
<polygon fill="blue" stroke="blue" stroke-width="0.1" points="298.19,-136.37 293.37,-126.94 291.25,-137.32 298.19,-136.37"/>
<text text-anchor="middle" x="332" y="-321.36" font-family="Times,serif" font-size="9.00">&#45;1.000</text>
</g>
<!-- key 32499
bias &#45;0.561
h_scaling 0.697
output 0.092 -->
<g id="node8" class="node">
<title>key 32499
bias &#45;0.561
h_scaling 0.697
output 0.092</title>
<ellipse fill="white" stroke="black" cx="406.5" cy="-410.2" rx="63.78" ry="63.78"/>
<text text-anchor="middle" x="406.5" y="-423" font-family="Times,serif" font-size="9.00">key 32499</text>
<text text-anchor="middle" x="406.5" y="-413" font-family="Times,serif" font-size="9.00">bias &#45;0.561</text>
<text text-anchor="middle" x="406.5" y="-403" font-family="Times,serif" font-size="9.00">h_scaling 0.697</text>
<text text-anchor="middle" x="406.5" y="-393" font-family="Times,serif" font-size="9.00">output 0.092</text>
</g>
<!-- key 27947
bias &#45;0.646
h_scaling 1.000
output 0.783&#45;&gt;key 32499
bias &#45;0.561
h_scaling 0.697
output 0.092 -->
<g id="edge13" class="edge">
<title>key 27947
bias &#45;0.646
h_scaling 1.000
output 0.783&#45;&gt;key 32499
bias &#45;0.561
h_scaling 0.697
output 0.092</title>
<path fill="none" stroke="red" stroke-width="0.1" d="M368.62,-523.05C373.27,-509.31 378.26,-494.58 383.05,-480.46"/>
<polygon fill="red" stroke="red" stroke-width="0.1" points="386.42,-481.4 386.31,-470.81 379.79,-479.16 386.42,-481.4"/>
<text text-anchor="middle" x="391.5" y="-494.64" font-family="Times,serif" font-size="9.00">1.051</text>
</g>
<!-- key 27947
bias &#45;0.646
h_scaling 1.000
output 0.783&#45;&gt;key 30934
bias &#45;0.247
h_scaling 0.387
output 0.835 -->
<g id="edge21" class="edge">
<title>key 27947
bias &#45;0.646
h_scaling 1.000
output 0.783&#45;&gt;key 30934
bias &#45;0.247
h_scaling 0.387
output 0.835</title>
<path fill="none" stroke="red" stroke-width="0.1" d="M302.98,-538.17C292.39,-526.81 281.57,-514.27 272.5,-501.84 266.7,-493.89 261.1,-485.19 255.87,-476.43"/>
<polygon fill="red" stroke="red" stroke-width="0.1" points="258.83,-474.56 250.77,-467.68 252.78,-478.08 258.83,-474.56"/>
<text text-anchor="middle" x="286.5" y="-494.64" font-family="Times,serif" font-size="9.00">0.449</text>
</g>
<!-- key 32499
bias &#45;0.561
h_scaling 0.697
output 0.092&#45;&gt;key 54635
bias &#45;0.327
h_scaling 0.053
output 0.212 -->
<g id="edge14" class="edge">
<title>key 32499
bias &#45;0.561
h_scaling 0.697
output 0.092&#45;&gt;key 54635
bias &#45;0.327
h_scaling 0.053
output 0.212</title>
<path fill="none" stroke="red" stroke-width="0.1" d="M406.5,-346.39C406.5,-334.87 406.5,-322.76 406.5,-310.97"/>
<polygon fill="red" stroke="red" stroke-width="0.1" points="410,-310.72 406.5,-300.72 403,-310.72 410,-310.72"/>
<text text-anchor="middle" x="420.5" y="-321.36" font-family="Times,serif" font-size="9.00">1.008</text>
</g>
<!-- key 30934
bias &#45;0.247
h_scaling 0.387
output 0.835&#45;&gt;output
bias 0.899
h_scaling 0.413
output 0.013 -->
<g id="edge10" class="edge">
<title>key 30934
bias &#45;0.247
h_scaling 0.387
output 0.835&#45;&gt;output
bias 0.899
h_scaling 0.413
output 0.013</title>
<path fill="none" stroke="blue" stroke-width="0.1" d="M233.66,-347.2C244.31,-288.01 260.35,-198.86 271.56,-136.57"/>
<polygon fill="blue" stroke="blue" stroke-width="0.1" points="275.06,-136.89 273.38,-126.43 268.17,-135.65 275.06,-136.89"/>
<text text-anchor="middle" x="280" y="-234.72" font-family="Times,serif" font-size="9.00">&#45;0.352</text>
</g>
<!-- key 32027
bias &#45;0.422
h_scaling 0.015
output 0.308&#45;&gt;output
bias 0.899
h_scaling 0.413
output 0.013 -->
<g id="edge19" class="edge">
<title>key 32027
bias &#45;0.422
h_scaling 0.015
output 0.308&#45;&gt;output
bias 0.899
h_scaling 0.413
output 0.013</title>
<path fill="none" stroke="red" stroke-width="0.1" d="M499.38,-884.63C527.13,-852.34 557.5,-805.99 557.5,-757.76 557.5,-757.76 557.5,-757.76 557.5,-235.92 557.5,-141.21 438.16,-96.87 357.28,-77.69"/>
<polygon fill="red" stroke="red" stroke-width="0.1" points="357.66,-74.18 347.13,-75.36 356.1,-81.01 357.66,-74.18"/>
<text text-anchor="middle" x="571.5" y="-494.64" font-family="Times,serif" font-size="9.00">0.447</text>
</g>
<!-- key 32027
bias &#45;0.422
h_scaling 0.015
output 0.308&#45;&gt;key 835
bias &#45;0.339
h_scaling 0.020
output 0.892 -->
<g id="edge12" class="edge">
<title>key 32027
bias &#45;0.422
h_scaling 0.015
output 0.308&#45;&gt;key 835
bias &#45;0.339
h_scaling 0.020
output 0.892</title>
<path fill="none" stroke="blue" stroke-width="0.1" d="M403.01,-892.29C365.21,-865.31 313.76,-828.6 274.16,-800.33"/>
<polygon fill="blue" stroke="blue" stroke-width="0.1" points="276.07,-797.4 265.9,-794.44 272.01,-803.1 276.07,-797.4"/>
<text text-anchor="middle" x="350" y="-841.2" font-family="Times,serif" font-size="9.00">&#45;0.453</text>
</g>
<!-- key 32027
bias &#45;0.422
h_scaling 0.015
output 0.308&#45;&gt;key 54635
bias &#45;0.327
h_scaling 0.053
output 0.212 -->
<g id="edge17" class="edge">
<title>key 32027
bias &#45;0.422
h_scaling 0.015
output 0.308&#45;&gt;key 54635
bias &#45;0.327
h_scaling 0.053
output 0.212</title>
<path fill="none" stroke="blue" stroke-width="0.1" d="M477.27,-870.53C488.01,-837.87 498.5,-796.13 498.5,-757.76 498.5,-757.76 498.5,-757.76 498.5,-409.2 498.5,-367.06 476.62,-325.28 454.2,-293.54"/>
<polygon fill="blue" stroke="blue" stroke-width="0.1" points="456.9,-291.31 448.19,-285.28 451.24,-295.43 456.9,-291.31"/>
<text text-anchor="middle" x="514" y="-581.28" font-family="Times,serif" font-size="9.00">&#45;0.051</text>
</g>
<!-- key 32027
bias &#45;0.422
h_scaling 0.015
output 0.308&#45;&gt;key 32027
bias &#45;0.422
h_scaling 0.015
output 0.308 -->
<g id="edge16" class="edge">
<title>key 32027
bias &#45;0.422
h_scaling 0.015
output 0.308&#45;&gt;key 32027
bias &#45;0.422
h_scaling 0.015
output 0.308</title>
<path fill="none" stroke="red" stroke-width="0.1" d="M516.44,-945.33C528,-943.45 536.14,-938.35 536.14,-930.04 536.14,-924.32 532.29,-920.12 526.13,-917.45"/>
<polygon fill="red" stroke="red" stroke-width="0.1" points="527.02,-914.06 516.44,-914.74 525.13,-920.8 527.02,-914.06"/>
<text text-anchor="middle" x="550.14" y="-927.84" font-family="Times,serif" font-size="9.00">0.703</text>
</g>
</g>
</svg>
