<?xml version="1.0" encoding="UTF-8" standalone="no"?>
<!DOCTYPE svg PUBLIC "-//W3C//DTD SVG 1.1//EN"
 "http://www.w3.org/Graphics/SVG/1.1/DTD/svg11.dtd">
<!-- Generated by graphviz version 2.43.0 (0)
 -->
<!-- Title: %3 Pages: 1 -->
<svg width="537pt" height="846pt"
 viewBox="0.00 0.00 536.64 846.40" xmlns="http://www.w3.org/2000/svg" xmlns:xlink="http://www.w3.org/1999/xlink">
<g id="graph0" class="graph" transform="scale(1 1) rotate(0) translate(4 842.4)">
<title>%3</title>
<polygon fill="white" stroke="transparent" points="-4,4 -4,-842.4 532.64,-842.4 532.64,4 -4,4"/>
<!-- ready
output 0.000 -->
<g id="node1" class="node">
<title>ready
output 0.000</title>
<polygon fill="yellow" stroke="black" points="189.14,-838.4 112.14,-838.4 112.14,-810.4 189.14,-810.4 189.14,-838.4"/>
<text text-anchor="middle" x="150.64" y="-827.2" font-family="Times,serif" font-size="9.00">ready</text>
<text text-anchor="middle" x="150.64" y="-817.2" font-family="Times,serif" font-size="9.00">output 0.000</text>
</g>
<!-- key 7463
bias &#45;0.301
h_scaling 1.000
output 0.621 -->
<g id="node4" class="node">
<title>key 7463
bias &#45;0.301
h_scaling 1.000
output 0.621</title>
<ellipse fill="white" stroke="black" cx="324.64" cy="-700.76" rx="63.78" ry="63.78"/>
<text text-anchor="middle" x="324.64" y="-713.56" font-family="Times,serif" font-size="9.00">key 7463</text>
<text text-anchor="middle" x="324.64" y="-703.56" font-family="Times,serif" font-size="9.00">bias &#45;0.301</text>
<text text-anchor="middle" x="324.64" y="-693.56" font-family="Times,serif" font-size="9.00">h_scaling 1.000</text>
<text text-anchor="middle" x="324.64" y="-683.56" font-family="Times,serif" font-size="9.00">output 0.621</text>
</g>
<!-- ready
output 0.000&#45;&gt;key 7463
bias &#45;0.301
h_scaling 1.000
output 0.621 -->
<g id="edge10" class="edge">
<title>ready
output 0.000&#45;&gt;key 7463
bias &#45;0.301
h_scaling 1.000
output 0.621</title>
<path fill="none" stroke="blue" stroke-width="0.1" d="M169.26,-810.38C191.81,-794.61 230.91,-767.28 264.25,-743.97"/>
<polygon fill="blue" stroke="blue" stroke-width="0.1" points="266.4,-746.74 272.59,-738.14 262.39,-741.01 266.4,-746.74"/>
<text text-anchor="middle" x="223.14" y="-785.2" font-family="Times,serif" font-size="9.00">&#45;0.409</text>
</g>
<!-- key 1967
bias 0.377
h_scaling 1.000
output 0.037 -->
<g id="node5" class="node">
<title>key 1967
bias 0.377
h_scaling 1.000
output 0.037</title>
<ellipse fill="white" stroke="black" cx="222.64" cy="-236.92" rx="63.78" ry="63.78"/>
<text text-anchor="middle" x="222.64" y="-249.72" font-family="Times,serif" font-size="9.00">key 1967</text>
<text text-anchor="middle" x="222.64" y="-239.72" font-family="Times,serif" font-size="9.00">bias 0.377</text>
<text text-anchor="middle" x="222.64" y="-229.72" font-family="Times,serif" font-size="9.00">h_scaling 1.000</text>
<text text-anchor="middle" x="222.64" y="-219.72" font-family="Times,serif" font-size="9.00">output 0.037</text>
</g>
<!-- ready
output 0.000&#45;&gt;key 1967
bias 0.377
h_scaling 1.000
output 0.037 -->
<g id="edge12" class="edge">
<title>ready
output 0.000&#45;&gt;key 1967
bias 0.377
h_scaling 1.000
output 0.037</title>
<path fill="none" stroke="red" stroke-width="0.1" d="M150.48,-810.38C150.11,-765.77 150.16,-615.04 165.64,-491.84 175.45,-413.79 183.72,-395.15 201.64,-318.56 202.42,-315.22 203.24,-311.8 204.08,-308.36"/>
<polygon fill="red" stroke="red" stroke-width="0.1" points="207.49,-309.15 206.49,-298.6 200.69,-307.47 207.49,-309.15"/>
<text text-anchor="middle" x="179.64" y="-553.28" font-family="Times,serif" font-size="9.00">0.242</text>
</g>
<!-- key 118586
bias &#45;0.996
h_scaling 1.000
output 0.007 -->
<g id="node7" class="node">
<title>key 118586
bias &#45;0.996
h_scaling 1.000
output 0.007</title>
<ellipse fill="white" stroke="black" cx="63.64" cy="-555.48" rx="63.78" ry="63.78"/>
<text text-anchor="middle" x="63.64" y="-568.28" font-family="Times,serif" font-size="9.00">key 118586</text>
<text text-anchor="middle" x="63.64" y="-558.28" font-family="Times,serif" font-size="9.00">bias &#45;0.996</text>
<text text-anchor="middle" x="63.64" y="-548.28" font-family="Times,serif" font-size="9.00">h_scaling 1.000</text>
<text text-anchor="middle" x="63.64" y="-538.28" font-family="Times,serif" font-size="9.00">output 0.007</text>
</g>
<!-- ready
output 0.000&#45;&gt;key 118586
bias &#45;0.996
h_scaling 1.000
output 0.007 -->
<g id="edge14" class="edge">
<title>ready
output 0.000&#45;&gt;key 118586
bias &#45;0.996
h_scaling 1.000
output 0.007</title>
<path fill="none" stroke="red" stroke-width="0.1" d="M126.48,-810.22C119.75,-805.44 113.08,-799.45 108.64,-792.4 77.95,-743.64 67.28,-678.78 63.96,-629.42"/>
<polygon fill="red" stroke="red" stroke-width="0.1" points="67.44,-628.91 63.36,-619.13 60.45,-629.32 67.44,-628.91"/>
<text text-anchor="middle" x="122.64" y="-785.2" font-family="Times,serif" font-size="9.00">1.000</text>
</g>
<!-- go
output 0.000 -->
<g id="node2" class="node">
<title>go
output 0.000</title>
<polygon fill="green" stroke="black" points="363.14,-838.4 286.14,-838.4 286.14,-810.4 363.14,-810.4 363.14,-838.4"/>
<text text-anchor="middle" x="324.64" y="-827.2" font-family="Times,serif" font-size="9.00">go</text>
<text text-anchor="middle" x="324.64" y="-817.2" font-family="Times,serif" font-size="9.00">output 0.000</text>
</g>
<!-- go
output 0.000&#45;&gt;key 7463
bias &#45;0.301
h_scaling 1.000
output 0.621 -->
<g id="edge4" class="edge">
<title>go
output 0.000&#45;&gt;key 7463
bias &#45;0.301
h_scaling 1.000
output 0.621</title>
<path fill="none" stroke="red" stroke-width="0.1" d="M324.64,-810.38C324.64,-801.3 324.64,-788.39 324.64,-774.63"/>
<polygon fill="red" stroke="red" stroke-width="0.1" points="328.14,-774.49 324.64,-764.49 321.14,-774.49 328.14,-774.49"/>
<text text-anchor="middle" x="338.64" y="-785.2" font-family="Times,serif" font-size="9.00">0.063</text>
</g>
<!-- go
output 0.000&#45;&gt;key 1967
bias 0.377
h_scaling 1.000
output 0.037 -->
<g id="edge16" class="edge">
<title>go
output 0.000&#45;&gt;key 1967
bias 0.377
h_scaling 1.000
output 0.037</title>
<path fill="none" stroke="blue" stroke-width="0.1" d="M299.47,-810.23C282.85,-800.09 262.23,-784.42 251.64,-764.4 211.14,-687.86 214.66,-436.93 219.26,-311.15"/>
<polygon fill="blue" stroke="blue" stroke-width="0.1" points="222.77,-310.97 219.65,-300.85 215.77,-310.71 222.77,-310.97"/>
<text text-anchor="middle" x="238.14" y="-553.28" font-family="Times,serif" font-size="9.00">&#45;0.242</text>
</g>
<!-- key 1968
bias &#45;0.817
h_scaling 1.000
output 0.672 -->
<g id="node6" class="node">
<title>key 1968
bias &#45;0.817
h_scaling 1.000
output 0.672</title>
<ellipse fill="white" stroke="black" cx="374.64" cy="-410.2" rx="63.78" ry="63.78"/>
<text text-anchor="middle" x="374.64" y="-423" font-family="Times,serif" font-size="9.00">key 1968</text>
<text text-anchor="middle" x="374.64" y="-413" font-family="Times,serif" font-size="9.00">bias &#45;0.817</text>
<text text-anchor="middle" x="374.64" y="-403" font-family="Times,serif" font-size="9.00">h_scaling 1.000</text>
<text text-anchor="middle" x="374.64" y="-393" font-family="Times,serif" font-size="9.00">output 0.672</text>
</g>
<!-- go
output 0.000&#45;&gt;key 1968
bias &#45;0.817
h_scaling 1.000
output 0.672 -->
<g id="edge2" class="edge">
<title>go
output 0.000&#45;&gt;key 1968
bias &#45;0.817
h_scaling 1.000
output 0.672</title>
<path fill="none" stroke="red" stroke-width="0.1" d="M363.28,-815.52C390.92,-807.65 426.2,-792.52 443.64,-764.4 499.5,-674.35 451.06,-548.59 412,-473.96"/>
<polygon fill="red" stroke="red" stroke-width="0.1" points="415.08,-472.3 407.29,-465.12 408.9,-475.59 415.08,-472.3"/>
<text text-anchor="middle" x="482.64" y="-698.56" font-family="Times,serif" font-size="9.00">0.966</text>
</g>
<!-- output
bias &#45;0.016
h_scaling 1.000
output 0.004 -->
<g id="node3" class="node">
<title>output
bias &#45;0.016
h_scaling 1.000
output 0.004</title>
<ellipse fill="lightblue" stroke="black" cx="374.64" cy="-63.64" rx="63.78" ry="63.78"/>
<text text-anchor="middle" x="374.64" y="-76.44" font-family="Times,serif" font-size="9.00">output</text>
<text text-anchor="middle" x="374.64" y="-66.44" font-family="Times,serif" font-size="9.00">bias &#45;0.016</text>
<text text-anchor="middle" x="374.64" y="-56.44" font-family="Times,serif" font-size="9.00">h_scaling 1.000</text>
<text text-anchor="middle" x="374.64" y="-46.44" font-family="Times,serif" font-size="9.00">output 0.004</text>
</g>
<!-- key 7463
bias &#45;0.301
h_scaling 1.000
output 0.621&#45;&gt;output
bias &#45;0.016
h_scaling 1.000
output 0.004 -->
<g id="edge9" class="edge">
<title>key 7463
bias &#45;0.301
h_scaling 1.000
output 0.621&#45;&gt;output
bias &#45;0.016
h_scaling 1.000
output 0.004</title>
<path fill="none" stroke="blue" stroke-width="0.1" d="M370.92,-657.03C412.53,-615.09 470.54,-546.93 493.64,-473.84 532.44,-351.06 463.48,-206.09 415.35,-125.85"/>
<polygon fill="blue" stroke="blue" stroke-width="0.1" points="418.07,-123.59 409.89,-116.87 412.09,-127.23 418.07,-123.59"/>
<text text-anchor="middle" x="513.14" y="-321.36" font-family="Times,serif" font-size="9.00">&#45;0.953</text>
</g>
<!-- key 7463
bias &#45;0.301
h_scaling 1.000
output 0.621&#45;&gt;key 7463
bias &#45;0.301
h_scaling 1.000
output 0.621 -->
<g id="edge6" class="edge">
<title>key 7463
bias &#45;0.301
h_scaling 1.000
output 0.621&#45;&gt;key 7463
bias &#45;0.301
h_scaling 1.000
output 0.621</title>
<path fill="none" stroke="red" stroke-width="0.1" d="M386.58,-716.05C398.14,-714.17 406.28,-709.07 406.28,-700.76 406.28,-695.04 402.43,-690.84 396.27,-688.17"/>
<polygon fill="red" stroke="red" stroke-width="0.1" points="397.16,-684.78 386.58,-685.46 395.27,-691.52 397.16,-684.78"/>
<text text-anchor="middle" x="420.28" y="-698.56" font-family="Times,serif" font-size="9.00">0.684</text>
</g>
<!-- key 7463
bias &#45;0.301
h_scaling 1.000
output 0.621&#45;&gt;key 1967
bias 0.377
h_scaling 1.000
output 0.037 -->
<g id="edge13" class="edge">
<title>key 7463
bias &#45;0.301
h_scaling 1.000
output 0.621&#45;&gt;key 1967
bias 0.377
h_scaling 1.000
output 0.037</title>
<path fill="none" stroke="blue" stroke-width="0.1" d="M309.41,-638.52C298.27,-593.15 283.01,-529.75 270.64,-473.84 258.49,-418.9 245.84,-356.5 236.58,-309.68"/>
<polygon fill="blue" stroke="blue" stroke-width="0.1" points="239.97,-308.77 234.6,-299.63 233.1,-310.12 239.97,-308.77"/>
<text text-anchor="middle" x="286.14" y="-408" font-family="Times,serif" font-size="9.00">&#45;0.769</text>
</g>
<!-- key 7463
bias &#45;0.301
h_scaling 1.000
output 0.621&#45;&gt;key 1968
bias &#45;0.817
h_scaling 1.000
output 0.672 -->
<g id="edge5" class="edge">
<title>key 7463
bias &#45;0.301
h_scaling 1.000
output 0.621&#45;&gt;key 1968
bias &#45;0.817
h_scaling 1.000
output 0.672</title>
<path fill="none" stroke="red" stroke-width="0.1" d="M335.37,-637.85C343.24,-592.4 353.96,-530.54 362.21,-482.93"/>
<polygon fill="red" stroke="red" stroke-width="0.1" points="365.67,-483.45 363.93,-473 358.78,-482.25 365.67,-483.45"/>
<text text-anchor="middle" x="373.64" y="-553.28" font-family="Times,serif" font-size="9.00">0.478</text>
</g>
<!-- key 1967
bias 0.377
h_scaling 1.000
output 0.037&#45;&gt;output
bias &#45;0.016
h_scaling 1.000
output 0.004 -->
<g id="edge1" class="edge">
<title>key 1967
bias 0.377
h_scaling 1.000
output 0.037&#45;&gt;output
bias &#45;0.016
h_scaling 1.000
output 0.004</title>
<path fill="none" stroke="red" stroke-width="0.1" d="M264.58,-188.66C283.6,-167.23 306.21,-141.75 325.98,-119.47"/>
<polygon fill="red" stroke="red" stroke-width="0.1" points="328.82,-121.54 332.84,-111.74 323.58,-116.9 328.82,-121.54"/>
<text text-anchor="middle" x="312.64" y="-148.08" font-family="Times,serif" font-size="9.00">1.000</text>
</g>
<!-- key 1967
bias 0.377
h_scaling 1.000
output 0.037&#45;&gt;key 1967
bias 0.377
h_scaling 1.000
output 0.037 -->
<g id="edge11" class="edge">
<title>key 1967
bias 0.377
h_scaling 1.000
output 0.037&#45;&gt;key 1967
bias 0.377
h_scaling 1.000
output 0.037</title>
<path fill="none" stroke="red" stroke-width="0.1" d="M284.58,-252.22C296.14,-250.33 304.28,-245.23 304.28,-236.92 304.28,-231.2 300.43,-227.01 294.27,-224.33"/>
<polygon fill="red" stroke="red" stroke-width="0.1" points="295.16,-220.94 284.58,-221.62 293.27,-227.68 295.16,-220.94"/>
<text text-anchor="middle" x="318.28" y="-234.72" font-family="Times,serif" font-size="9.00">0.697</text>
</g>
<!-- key 1968
bias &#45;0.817
h_scaling 1.000
output 0.672&#45;&gt;output
bias &#45;0.016
h_scaling 1.000
output 0.004 -->
<g id="edge3" class="edge">
<title>key 1968
bias &#45;0.817
h_scaling 1.000
output 0.672&#45;&gt;output
bias &#45;0.016
h_scaling 1.000
output 0.004</title>
<path fill="none" stroke="blue" stroke-width="0.1" d="M374.64,-346.4C374.64,-287.47 374.64,-199.36 374.64,-137.39"/>
<polygon fill="blue" stroke="blue" stroke-width="0.1" points="378.14,-137.3 374.64,-127.3 371.14,-137.3 378.14,-137.3"/>
<text text-anchor="middle" x="390.14" y="-234.72" font-family="Times,serif" font-size="9.00">&#45;1.000</text>
</g>
<!-- key 1968
bias &#45;0.817
h_scaling 1.000
output 0.672&#45;&gt;key 1967
bias 0.377
h_scaling 1.000
output 0.037 -->
<g id="edge8" class="edge">
<title>key 1968
bias &#45;0.817
h_scaling 1.000
output 0.672&#45;&gt;key 1967
bias 0.377
h_scaling 1.000
output 0.037</title>
<path fill="none" stroke="blue" stroke-width="0.1" d="M332.7,-361.94C313.68,-340.51 291.07,-315.03 271.3,-292.75"/>
<polygon fill="blue" stroke="blue" stroke-width="0.1" points="273.7,-290.18 264.44,-285.02 268.46,-294.82 273.7,-290.18"/>
<text text-anchor="middle" x="314.14" y="-321.36" font-family="Times,serif" font-size="9.00">&#45;0.971</text>
</g>
<!-- key 1968
bias &#45;0.817
h_scaling 1.000
output 0.672&#45;&gt;key 1968
bias &#45;0.817
h_scaling 1.000
output 0.672 -->
<g id="edge7" class="edge">
<title>key 1968
bias &#45;0.817
h_scaling 1.000
output 0.672&#45;&gt;key 1968
bias &#45;0.817
h_scaling 1.000
output 0.672</title>
<path fill="none" stroke="red" stroke-width="0.1" d="M436.58,-425.5C448.14,-423.61 456.28,-418.51 456.28,-410.2 456.28,-404.48 452.43,-400.29 446.27,-397.61"/>
<polygon fill="red" stroke="red" stroke-width="0.1" points="447.16,-394.22 436.58,-394.9 445.27,-400.96 447.16,-394.22"/>
<text text-anchor="middle" x="470.28" y="-408" font-family="Times,serif" font-size="9.00">0.901</text>
</g>
<!-- key 118586
bias &#45;0.996
h_scaling 1.000
output 0.007&#45;&gt;key 1967
bias 0.377
h_scaling 1.000
output 0.037 -->
<g id="edge15" class="edge">
<title>key 118586
bias &#45;0.996
h_scaling 1.000
output 0.007&#45;&gt;key 1967
bias 0.377
h_scaling 1.000
output 0.037</title>
<path fill="none" stroke="red" stroke-width="0.1" d="M67.9,-491.66C72.99,-448.64 84.15,-391.47 108.64,-346.56 122.1,-321.87 143.15,-299.48 163.52,-281.53"/>
<polygon fill="red" stroke="red" stroke-width="0.1" points="165.96,-284.04 171.27,-274.87 161.4,-278.73 165.96,-284.04"/>
<text text-anchor="middle" x="122.64" y="-408" font-family="Times,serif" font-size="9.00">0.243</text>
</g>
</g>
</svg>
