<?xml version="1.0" encoding="UTF-8" standalone="no"?>
<!DOCTYPE svg PUBLIC "-//W3C//DTD SVG 1.1//EN"
 "http://www.w3.org/Graphics/SVG/1.1/DTD/svg11.dtd">
<!-- Generated by graphviz version 2.43.0 (0)
 -->
<!-- Title: %3 Pages: 1 -->
<svg width="690pt" height="1249pt"
 viewBox="0.00 0.00 689.59 1248.95" xmlns="http://www.w3.org/2000/svg" xmlns:xlink="http://www.w3.org/1999/xlink">
<g id="graph0" class="graph" transform="scale(1 1) rotate(0) translate(4 1244.95)">
<title>%3</title>
<polygon fill="white" stroke="transparent" points="-4,4 -4,-1244.95 685.59,-1244.95 685.59,4 -4,4"/>
<!-- ready
output 0.000 -->
<g id="node1" class="node">
<title>ready
output 0.000</title>
<polygon fill="yellow" stroke="black" points="633.09,-1240.95 556.09,-1240.95 556.09,-1212.95 633.09,-1212.95 633.09,-1240.95"/>
<text text-anchor="middle" x="594.59" y="-1229.75" font-family="Times,serif" font-size="9.00">ready</text>
<text text-anchor="middle" x="594.59" y="-1219.75" font-family="Times,serif" font-size="9.00">output 0.000</text>
</g>
<!-- key 3175
bias 0.000
h_scaling 0.022
output 0.093 -->
<g id="node4" class="node">
<title>key 3175
bias 0.000
h_scaling 0.022
output 0.093</title>
<ellipse fill="white" stroke="black" cx="148.59" cy="-1103.31" rx="63.78" ry="63.78"/>
<text text-anchor="middle" x="148.59" y="-1116.11" font-family="Times,serif" font-size="9.00">key 3175</text>
<text text-anchor="middle" x="148.59" y="-1106.11" font-family="Times,serif" font-size="9.00">bias 0.000</text>
<text text-anchor="middle" x="148.59" y="-1096.11" font-family="Times,serif" font-size="9.00">h_scaling 0.022</text>
<text text-anchor="middle" x="148.59" y="-1086.11" font-family="Times,serif" font-size="9.00">output 0.093</text>
</g>
<!-- ready
output 0.000&#45;&gt;key 3175
bias 0.000
h_scaling 0.022
output 0.093 -->
<g id="edge12" class="edge">
<title>ready
output 0.000&#45;&gt;key 3175
bias 0.000
h_scaling 0.022
output 0.093</title>
<path fill="none" stroke="blue" stroke-width="0.1" d="M555.79,-1215.37C480.77,-1194.91 314.85,-1149.66 219.58,-1123.68"/>
<polygon fill="blue" stroke="blue" stroke-width="0.1" points="220.3,-1120.25 209.73,-1120.99 218.46,-1127 220.3,-1120.25"/>
<text text-anchor="middle" x="490.09" y="-1187.75" font-family="Times,serif" font-size="9.00">&#45;0.328</text>
</g>
<!-- key 26327
bias 0.000
h_scaling 0.276
output 0.188 -->
<g id="node9" class="node">
<title>key 26327
bias 0.000
h_scaling 0.276
output 0.188</title>
<ellipse fill="white" stroke="black" cx="495.59" cy="-63.64" rx="63.78" ry="63.78"/>
<text text-anchor="middle" x="495.59" y="-76.44" font-family="Times,serif" font-size="9.00">key 26327</text>
<text text-anchor="middle" x="495.59" y="-66.44" font-family="Times,serif" font-size="9.00">bias 0.000</text>
<text text-anchor="middle" x="495.59" y="-56.44" font-family="Times,serif" font-size="9.00">h_scaling 0.276</text>
<text text-anchor="middle" x="495.59" y="-46.44" font-family="Times,serif" font-size="9.00">output 0.188</text>
</g>
<!-- ready
output 0.000&#45;&gt;key 26327
bias 0.000
h_scaling 0.276
output 0.188 -->
<g id="edge23" class="edge">
<title>ready
output 0.000&#45;&gt;key 26327
bias 0.000
h_scaling 0.276
output 0.188</title>
<path fill="none" stroke="red" stroke-width="0.1" d="M605.96,-1212.75C623.11,-1191.45 653.59,-1147.5 653.59,-1104.31 653.59,-1104.31 653.59,-1104.31 653.59,-235.92 653.59,-177.58 603.45,-130.62 559.67,-100.73"/>
<polygon fill="red" stroke="red" stroke-width="0.1" points="561.56,-97.78 551.29,-95.16 557.68,-103.61 561.56,-97.78"/>
<text text-anchor="middle" x="667.59" y="-667.92" font-family="Times,serif" font-size="9.00">0.430</text>
</g>
<!-- key 55677
bias 0.000
h_scaling 0.287
output 0.506 -->
<g id="node11" class="node">
<title>key 55677
bias 0.000
h_scaling 0.287
output 0.506</title>
<ellipse fill="white" stroke="black" cx="384.59" cy="-236.92" rx="63.78" ry="63.78"/>
<text text-anchor="middle" x="384.59" y="-249.72" font-family="Times,serif" font-size="9.00">key 55677</text>
<text text-anchor="middle" x="384.59" y="-239.72" font-family="Times,serif" font-size="9.00">bias 0.000</text>
<text text-anchor="middle" x="384.59" y="-229.72" font-family="Times,serif" font-size="9.00">h_scaling 0.287</text>
<text text-anchor="middle" x="384.59" y="-219.72" font-family="Times,serif" font-size="9.00">output 0.506</text>
</g>
<!-- ready
output 0.000&#45;&gt;key 55677
bias 0.000
h_scaling 0.287
output 0.506 -->
<g id="edge16" class="edge">
<title>ready
output 0.000&#45;&gt;key 55677
bias 0.000
h_scaling 0.287
output 0.506</title>
<path fill="none" stroke="blue" stroke-width="0.1" d="M594.59,-1212.81C594.59,-1190.51 594.59,-1143.81 594.59,-1104.31 594.59,-1104.31 594.59,-1104.31 594.59,-409.2 594.59,-335.14 515.18,-287.39 454.03,-261.61"/>
<polygon fill="blue" stroke="blue" stroke-width="0.1" points="455.35,-258.36 444.77,-257.81 452.69,-264.84 455.35,-258.36"/>
<text text-anchor="middle" x="610.09" y="-754.56" font-family="Times,serif" font-size="9.00">&#45;0.973</text>
</g>
<!-- go
output 0.000 -->
<g id="node2" class="node">
<title>go
output 0.000</title>
<polygon fill="green" stroke="black" points="82.09,-1240.95 5.09,-1240.95 5.09,-1212.95 82.09,-1212.95 82.09,-1240.95"/>
<text text-anchor="middle" x="43.59" y="-1229.75" font-family="Times,serif" font-size="9.00">go</text>
<text text-anchor="middle" x="43.59" y="-1219.75" font-family="Times,serif" font-size="9.00">output 0.000</text>
</g>
<!-- go
output 0.000&#45;&gt;key 3175
bias 0.000
h_scaling 0.022
output 0.093 -->
<g id="edge1" class="edge">
<title>go
output 0.000&#45;&gt;key 3175
bias 0.000
h_scaling 0.022
output 0.093</title>
<path fill="none" stroke="red" stroke-width="0.1" d="M54.83,-1212.94C65.89,-1200.11 83.57,-1179.63 100.61,-1159.89"/>
<polygon fill="red" stroke="red" stroke-width="0.1" points="103.46,-1161.95 107.35,-1152.09 98.17,-1157.37 103.46,-1161.95"/>
<text text-anchor="middle" x="91.59" y="-1187.75" font-family="Times,serif" font-size="9.00">0.897</text>
</g>
<!-- key 3176
bias 0.000
h_scaling 0.847
output 0.931 -->
<g id="node6" class="node">
<title>key 3176
bias 0.000
h_scaling 0.847
output 0.931</title>
<ellipse fill="white" stroke="black" cx="160.59" cy="-583.48" rx="63.78" ry="63.78"/>
<text text-anchor="middle" x="160.59" y="-596.28" font-family="Times,serif" font-size="9.00">key 3176</text>
<text text-anchor="middle" x="160.59" y="-586.28" font-family="Times,serif" font-size="9.00">bias 0.000</text>
<text text-anchor="middle" x="160.59" y="-576.28" font-family="Times,serif" font-size="9.00">h_scaling 0.847</text>
<text text-anchor="middle" x="160.59" y="-566.28" font-family="Times,serif" font-size="9.00">output 0.931</text>
</g>
<!-- go
output 0.000&#45;&gt;key 3176
bias 0.000
h_scaling 0.847
output 0.931 -->
<g id="edge5" class="edge">
<title>go
output 0.000&#45;&gt;key 3176
bias 0.000
h_scaling 0.847
output 0.931</title>
<path fill="none" stroke="blue" stroke-width="0.1" d="M39.31,-1212.65C24.61,-1164.96 -21.15,-998.39 11.59,-866.4 32.05,-783.9 81.56,-698.95 117.92,-644.17"/>
<polygon fill="blue" stroke="blue" stroke-width="0.1" points="120.98,-645.89 123.64,-635.64 115.16,-642 120.98,-645.89"/>
<text text-anchor="middle" x="27.09" y="-927.84" font-family="Times,serif" font-size="9.00">&#45;0.492</text>
</g>
<!-- output
bias 0.000
h_scaling 0.118
output 0.982 -->
<g id="node3" class="node">
<title>output
bias 0.000
h_scaling 0.118
output 0.982</title>
<ellipse fill="lightblue" stroke="black" cx="287.59" cy="-930.04" rx="63.78" ry="63.78"/>
<text text-anchor="middle" x="287.59" y="-942.84" font-family="Times,serif" font-size="9.00">output</text>
<text text-anchor="middle" x="287.59" y="-932.84" font-family="Times,serif" font-size="9.00">bias 0.000</text>
<text text-anchor="middle" x="287.59" y="-922.84" font-family="Times,serif" font-size="9.00">h_scaling 0.118</text>
<text text-anchor="middle" x="287.59" y="-912.84" font-family="Times,serif" font-size="9.00">output 0.982</text>
</g>
<!-- key 51993
bias 0.000
h_scaling 0.119
output 0.496 -->
<g id="node10" class="node">
<title>key 51993
bias 0.000
h_scaling 0.119
output 0.496</title>
<ellipse fill="white" stroke="black" cx="342.59" cy="-756.76" rx="63.78" ry="63.78"/>
<text text-anchor="middle" x="342.59" y="-769.56" font-family="Times,serif" font-size="9.00">key 51993</text>
<text text-anchor="middle" x="342.59" y="-759.56" font-family="Times,serif" font-size="9.00">bias 0.000</text>
<text text-anchor="middle" x="342.59" y="-749.56" font-family="Times,serif" font-size="9.00">h_scaling 0.119</text>
<text text-anchor="middle" x="342.59" y="-739.56" font-family="Times,serif" font-size="9.00">output 0.496</text>
</g>
<!-- output
bias 0.000
h_scaling 0.118
output 0.982&#45;&gt;key 51993
bias 0.000
h_scaling 0.119
output 0.496 -->
<g id="edge15" class="edge">
<title>output
bias 0.000
h_scaling 0.118
output 0.982&#45;&gt;key 51993
bias 0.000
h_scaling 0.119
output 0.496</title>
<path fill="none" stroke="blue" stroke-width="0.1" d="M306.83,-869.13C311.14,-855.7 315.75,-841.34 320.18,-827.55"/>
<polygon fill="blue" stroke="blue" stroke-width="0.1" points="323.64,-828.22 323.36,-817.63 316.97,-826.08 323.64,-828.22"/>
<text text-anchor="middle" x="330.09" y="-841.2" font-family="Times,serif" font-size="9.00">&#45;0.536</text>
</g>
<!-- key 3175
bias 0.000
h_scaling 0.022
output 0.093&#45;&gt;output
bias 0.000
h_scaling 0.118
output 0.982 -->
<g id="edge21" class="edge">
<title>key 3175
bias 0.000
h_scaling 0.022
output 0.093&#45;&gt;output
bias 0.000
h_scaling 0.118
output 0.982</title>
<path fill="none" stroke="blue" stroke-width="0.1" d="M188.42,-1053.23C204.92,-1032.9 224.17,-1009.18 241.3,-988.07"/>
<polygon fill="blue" stroke="blue" stroke-width="0.1" points="244.17,-990.09 247.75,-980.12 238.73,-985.68 244.17,-990.09"/>
<text text-anchor="middle" x="233.09" y="-1014.48" font-family="Times,serif" font-size="9.00">&#45;1.000</text>
</g>
<!-- key 3175
bias 0.000
h_scaling 0.022
output 0.093&#45;&gt;key 3176
bias 0.000
h_scaling 0.847
output 0.931 -->
<g id="edge6" class="edge">
<title>key 3175
bias 0.000
h_scaling 0.022
output 0.093&#45;&gt;key 3176
bias 0.000
h_scaling 0.847
output 0.931</title>
<path fill="none" stroke="blue" stroke-width="0.1" d="M135.25,-1041.09C125.19,-987.66 114,-908.01 119.59,-838.4 124.57,-776.32 136.29,-706.53 145.93,-655.85"/>
<polygon fill="blue" stroke="blue" stroke-width="0.1" points="149.38,-656.45 147.83,-645.97 142.5,-655.13 149.38,-656.45"/>
<text text-anchor="middle" x="135.09" y="-841.2" font-family="Times,serif" font-size="9.00">&#45;0.795</text>
</g>
<!-- key 4793
bias 0.000
h_scaling 0.603
output 0.111 -->
<g id="node8" class="node">
<title>key 4793
bias 0.000
h_scaling 0.603
output 0.111</title>
<ellipse fill="white" stroke="black" cx="200.59" cy="-63.64" rx="63.78" ry="63.78"/>
<text text-anchor="middle" x="200.59" y="-76.44" font-family="Times,serif" font-size="9.00">key 4793</text>
<text text-anchor="middle" x="200.59" y="-66.44" font-family="Times,serif" font-size="9.00">bias 0.000</text>
<text text-anchor="middle" x="200.59" y="-56.44" font-family="Times,serif" font-size="9.00">h_scaling 0.603</text>
<text text-anchor="middle" x="200.59" y="-46.44" font-family="Times,serif" font-size="9.00">output 0.111</text>
</g>
<!-- key 3175
bias 0.000
h_scaling 0.022
output 0.093&#45;&gt;key 4793
bias 0.000
h_scaling 0.603
output 0.111 -->
<g id="edge2" class="edge">
<title>key 3175
bias 0.000
h_scaling 0.022
output 0.093&#45;&gt;key 4793
bias 0.000
h_scaling 0.603
output 0.111</title>
<path fill="none" stroke="red" stroke-width="0.1" d="M128.54,-1042.51C98.32,-946.9 44.59,-753.2 44.59,-584.48 44.59,-584.48 44.59,-584.48 44.59,-235.92 44.59,-178.23 93.56,-131.41 136.63,-101.4"/>
<polygon fill="red" stroke="red" stroke-width="0.1" points="138.84,-104.13 145.15,-95.62 134.91,-98.34 138.84,-104.13"/>
<text text-anchor="middle" x="61.59" y="-581.28" font-family="Times,serif" font-size="9.00">1.077</text>
</g>
<!-- key 46536
bias 0.000
h_scaling 0.523
output 0.016 -->
<g id="node5" class="node">
<title>key 46536
bias 0.000
h_scaling 0.523
output 0.016</title>
<ellipse fill="white" stroke="black" cx="232.59" cy="-410.2" rx="63.78" ry="63.78"/>
<text text-anchor="middle" x="232.59" y="-423" font-family="Times,serif" font-size="9.00">key 46536</text>
<text text-anchor="middle" x="232.59" y="-413" font-family="Times,serif" font-size="9.00">bias 0.000</text>
<text text-anchor="middle" x="232.59" y="-403" font-family="Times,serif" font-size="9.00">h_scaling 0.523</text>
<text text-anchor="middle" x="232.59" y="-393" font-family="Times,serif" font-size="9.00">output 0.016</text>
</g>
<!-- key 46536
bias 0.000
h_scaling 0.523
output 0.016&#45;&gt;output
bias 0.000
h_scaling 0.118
output 0.982 -->
<g id="edge25" class="edge">
<title>key 46536
bias 0.000
h_scaling 0.523
output 0.016&#45;&gt;output
bias 0.000
h_scaling 0.118
output 0.982</title>
<path fill="none" stroke="blue" stroke-width="0.1" d="M236.8,-473.75C242.54,-554.15 253.94,-697.99 269.59,-820.4 271.1,-832.25 272.95,-844.79 274.88,-856.98"/>
<polygon fill="blue" stroke="blue" stroke-width="0.1" points="271.47,-857.79 276.51,-867.11 278.38,-856.68 271.47,-857.79"/>
<text text-anchor="middle" x="268.09" y="-667.92" font-family="Times,serif" font-size="9.00">&#45;1.000</text>
</g>
<!-- key 85200
bias 0.000
h_scaling 0.745
output 0.453 -->
<g id="node7" class="node">
<title>key 85200
bias 0.000
h_scaling 0.745
output 0.453</title>
<ellipse fill="white" stroke="black" cx="200.59" cy="-236.92" rx="63.78" ry="63.78"/>
<text text-anchor="middle" x="200.59" y="-249.72" font-family="Times,serif" font-size="9.00">key 85200</text>
<text text-anchor="middle" x="200.59" y="-239.72" font-family="Times,serif" font-size="9.00">bias 0.000</text>
<text text-anchor="middle" x="200.59" y="-229.72" font-family="Times,serif" font-size="9.00">h_scaling 0.745</text>
<text text-anchor="middle" x="200.59" y="-219.72" font-family="Times,serif" font-size="9.00">output 0.453</text>
</g>
<!-- key 46536
bias 0.000
h_scaling 0.523
output 0.016&#45;&gt;key 85200
bias 0.000
h_scaling 0.745
output 0.453 -->
<g id="edge19" class="edge">
<title>key 46536
bias 0.000
h_scaling 0.523
output 0.016&#45;&gt;key 85200
bias 0.000
h_scaling 0.745
output 0.453</title>
<path fill="none" stroke="blue" stroke-width="0.1" d="M221.04,-347.36C218.75,-335.11 216.33,-322.16 213.98,-309.61"/>
<polygon fill="blue" stroke="blue" stroke-width="0.1" points="217.4,-308.85 212.12,-299.66 210.52,-310.14 217.4,-308.85"/>
<text text-anchor="middle" x="232.09" y="-321.36" font-family="Times,serif" font-size="9.00">&#45;0.709</text>
</g>
<!-- key 46536
bias 0.000
h_scaling 0.523
output 0.016&#45;&gt;key 4793
bias 0.000
h_scaling 0.603
output 0.111 -->
<g id="edge14" class="edge">
<title>key 46536
bias 0.000
h_scaling 0.523
output 0.016&#45;&gt;key 4793
bias 0.000
h_scaling 0.603
output 0.111</title>
<path fill="none" stroke="red" stroke-width="0.1" d="M176.64,-379.64C147.9,-361.13 115.63,-334.36 99.59,-300.56 75.34,-249.45 78.9,-225.93 99.59,-173.28 108.82,-149.79 125.79,-128.36 143.21,-110.86"/>
<polygon fill="red" stroke="red" stroke-width="0.1" points="145.95,-113.09 150.68,-103.61 141.07,-108.06 145.95,-113.09"/>
<text text-anchor="middle" x="113.59" y="-234.72" font-family="Times,serif" font-size="9.00">1.004</text>
</g>
<!-- key 46536
bias 0.000
h_scaling 0.523
output 0.016&#45;&gt;key 51993
bias 0.000
h_scaling 0.119
output 0.496 -->
<g id="edge18" class="edge">
<title>key 46536
bias 0.000
h_scaling 0.523
output 0.016&#45;&gt;key 51993
bias 0.000
h_scaling 0.119
output 0.496</title>
<path fill="none" stroke="blue" stroke-width="0.1" d="M261.44,-467.45C265.1,-475.53 268.6,-483.82 271.59,-491.84 295.33,-555.57 314.74,-630.66 327.23,-684.42"/>
<polygon fill="blue" stroke="blue" stroke-width="0.1" points="323.83,-685.24 329.48,-694.2 330.65,-683.67 323.83,-685.24"/>
<text text-anchor="middle" x="333.09" y="-581.28" font-family="Times,serif" font-size="9.00">&#45;0.587</text>
</g>
<!-- key 46536
bias 0.000
h_scaling 0.523
output 0.016&#45;&gt;key 55677
bias 0.000
h_scaling 0.287
output 0.506 -->
<g id="edge24" class="edge">
<title>key 46536
bias 0.000
h_scaling 0.523
output 0.016&#45;&gt;key 55677
bias 0.000
h_scaling 0.287
output 0.506</title>
<path fill="none" stroke="red" stroke-width="0.1" d="M274.53,-361.94C293.55,-340.51 316.16,-315.03 335.93,-292.75"/>
<polygon fill="red" stroke="red" stroke-width="0.1" points="338.77,-294.82 342.79,-285.02 333.53,-290.18 338.77,-294.82"/>
<text text-anchor="middle" x="322.59" y="-321.36" font-family="Times,serif" font-size="9.00">0.102</text>
</g>
<!-- key 3176
bias 0.000
h_scaling 0.847
output 0.931&#45;&gt;output
bias 0.000
h_scaling 0.118
output 0.982 -->
<g id="edge20" class="edge">
<title>key 3176
bias 0.000
h_scaling 0.847
output 0.931&#45;&gt;output
bias 0.000
h_scaling 0.118
output 0.982</title>
<path fill="none" stroke="red" stroke-width="0.1" d="M165.97,-647.03C171.89,-695.9 184.04,-764.64 208.59,-820.4 216.67,-838.75 228.24,-857.04 240.04,-873.23"/>
<polygon fill="red" stroke="red" stroke-width="0.1" points="237.42,-875.58 246.21,-881.49 243.03,-871.39 237.42,-875.58"/>
<text text-anchor="middle" x="222.59" y="-754.56" font-family="Times,serif" font-size="9.00">1.004</text>
</g>
<!-- key 3176
bias 0.000
h_scaling 0.847
output 0.931&#45;&gt;key 3175
bias 0.000
h_scaling 0.022
output 0.093 -->
<g id="edge4" class="edge">
<title>key 3176
bias 0.000
h_scaling 0.847
output 0.931&#45;&gt;key 3175
bias 0.000
h_scaling 0.022
output 0.093</title>
<path fill="none" stroke="blue" stroke-width="0.1" d="M159.13,-647.49C156.9,-743.87 152.64,-927.39 150.28,-1029.38"/>
<polygon fill="blue" stroke="blue" stroke-width="0.1" points="146.77,-1029.52 150.04,-1039.59 153.77,-1029.68 146.77,-1029.52"/>
<text text-anchor="middle" x="170.09" y="-841.2" font-family="Times,serif" font-size="9.00">&#45;1.000</text>
</g>
<!-- key 3176
bias 0.000
h_scaling 0.847
output 0.931&#45;&gt;key 46536
bias 0.000
h_scaling 0.523
output 0.016 -->
<g id="edge7" class="edge">
<title>key 3176
bias 0.000
h_scaling 0.847
output 0.931&#45;&gt;key 46536
bias 0.000
h_scaling 0.523
output 0.016</title>
<path fill="none" stroke="blue" stroke-width="0.1" d="M184.96,-524.49C191.18,-509.7 197.92,-493.68 204.31,-478.47"/>
<polygon fill="blue" stroke="blue" stroke-width="0.1" points="207.59,-479.7 208.24,-469.13 201.14,-476.99 207.59,-479.7"/>
<text text-anchor="middle" x="212.09" y="-494.64" font-family="Times,serif" font-size="9.00">&#45;1.000</text>
</g>
<!-- key 85200
bias 0.000
h_scaling 0.745
output 0.453&#45;&gt;key 4793
bias 0.000
h_scaling 0.603
output 0.111 -->
<g id="edge11" class="edge">
<title>key 85200
bias 0.000
h_scaling 0.745
output 0.453&#45;&gt;key 4793
bias 0.000
h_scaling 0.603
output 0.111</title>
<path fill="none" stroke="blue" stroke-width="0.1" d="M200.59,-173.11C200.59,-161.59 200.59,-149.48 200.59,-137.69"/>
<polygon fill="blue" stroke="blue" stroke-width="0.1" points="204.09,-137.44 200.59,-127.44 197.09,-137.44 204.09,-137.44"/>
<text text-anchor="middle" x="216.09" y="-148.08" font-family="Times,serif" font-size="9.00">&#45;0.913</text>
</g>
<!-- key 4793
bias 0.000
h_scaling 0.603
output 0.111&#45;&gt;output
bias 0.000
h_scaling 0.118
output 0.982 -->
<g id="edge3" class="edge">
<title>key 4793
bias 0.000
h_scaling 0.603
output 0.111&#45;&gt;output
bias 0.000
h_scaling 0.118
output 0.982</title>
<path fill="none" stroke="blue" stroke-width="0.1" d="M239.1,-114.57C251.45,-132.36 264.32,-153.03 273.59,-173.28 286.05,-200.5 411.61,-663.44 415.59,-693.12 423.11,-749.18 439.35,-769.06 415.59,-820.4 402,-849.75 376.15,-874.06 351.21,-892.2"/>
<polygon fill="blue" stroke="blue" stroke-width="0.1" points="348.98,-889.49 342.81,-898.11 353,-895.21 348.98,-889.49"/>
<text text-anchor="middle" x="381.09" y="-494.64" font-family="Times,serif" font-size="9.00">&#45;0.991</text>
</g>
<!-- key 26327
bias 0.000
h_scaling 0.276
output 0.188&#45;&gt;output
bias 0.000
h_scaling 0.118
output 0.982 -->
<g id="edge17" class="edge">
<title>key 26327
bias 0.000
h_scaling 0.276
output 0.188&#45;&gt;output
bias 0.000
h_scaling 0.118
output 0.982</title>
<path fill="none" stroke="red" stroke-width="0.1" d="M502.58,-127.12C514.94,-260.08 531.07,-578.62 435.59,-820.4 421.36,-856.44 387.26,-882.75 355.39,-900.44"/>
<polygon fill="red" stroke="red" stroke-width="0.1" points="353.64,-897.4 346.47,-905.2 356.94,-903.58 353.64,-897.4"/>
<text text-anchor="middle" x="518.59" y="-494.64" font-family="Times,serif" font-size="9.00">0.721</text>
</g>
<!-- key 26327
bias 0.000
h_scaling 0.276
output 0.188&#45;&gt;key 51993
bias 0.000
h_scaling 0.119
output 0.496 -->
<g id="edge8" class="edge">
<title>key 26327
bias 0.000
h_scaling 0.276
output 0.188&#45;&gt;key 51993
bias 0.000
h_scaling 0.119
output 0.496</title>
<path fill="none" stroke="red" stroke-width="0.1" d="M486.04,-126.81C478.62,-174.42 467.88,-241.71 457.59,-300.56 441.9,-390.23 441.27,-413.42 419.59,-501.84 404.07,-565.09 382.21,-635.93 365.74,-686.68"/>
<polygon fill="red" stroke="red" stroke-width="0.1" points="362.4,-685.64 362.63,-696.23 369.05,-687.81 362.4,-685.64"/>
<text text-anchor="middle" x="463.59" y="-408" font-family="Times,serif" font-size="9.00">0.964</text>
</g>
<!-- key 51993
bias 0.000
h_scaling 0.119
output 0.496&#45;&gt;key 3176
bias 0.000
h_scaling 0.847
output 0.931 -->
<g id="edge9" class="edge">
<title>key 51993
bias 0.000
h_scaling 0.119
output 0.496&#45;&gt;key 3176
bias 0.000
h_scaling 0.847
output 0.931</title>
<path fill="none" stroke="red" stroke-width="0.1" d="M284.43,-730.12C258.54,-716.57 229.11,-697.97 207.59,-675.12 201,-668.13 195.1,-660.03 189.89,-651.62"/>
<polygon fill="red" stroke="red" stroke-width="0.1" points="192.78,-649.63 184.7,-642.77 186.74,-653.17 192.78,-649.63"/>
<text text-anchor="middle" x="221.59" y="-667.92" font-family="Times,serif" font-size="9.00">0.688</text>
</g>
<!-- key 55677
bias 0.000
h_scaling 0.287
output 0.506&#45;&gt;key 3175
bias 0.000
h_scaling 0.022
output 0.093 -->
<g id="edge10" class="edge">
<title>key 55677
bias 0.000
h_scaling 0.287
output 0.506&#45;&gt;key 3175
bias 0.000
h_scaling 0.022
output 0.093</title>
<path fill="none" stroke="red" stroke-width="0.1" d="M430.16,-281.46C447.95,-300.23 467.42,-323.21 481.59,-346.56 517.4,-405.58 524.16,-423.92 536.59,-491.84 563.43,-638.52 525.2,-682.44 468.59,-820.4 434.14,-904.35 427.39,-932.25 360.59,-993.68 319.38,-1031.57 262.47,-1059.77 217.99,-1077.92"/>
<polygon fill="red" stroke="red" stroke-width="0.1" points="216.68,-1074.68 208.7,-1081.65 219.28,-1081.18 216.68,-1074.68"/>
<text text-anchor="middle" x="545.59" y="-667.92" font-family="Times,serif" font-size="9.00">0.722</text>
</g>
<!-- key 55677
bias 0.000
h_scaling 0.287
output 0.506&#45;&gt;key 4793
bias 0.000
h_scaling 0.603
output 0.111 -->
<g id="edge22" class="edge">
<title>key 55677
bias 0.000
h_scaling 0.287
output 0.506&#45;&gt;key 4793
bias 0.000
h_scaling 0.603
output 0.111</title>
<path fill="none" stroke="blue" stroke-width="0.1" d="M345.49,-186.7C333.57,-172.76 320.04,-157.94 306.59,-145.28 292.4,-131.92 276.06,-118.61 260.52,-106.77"/>
<polygon fill="blue" stroke="blue" stroke-width="0.1" points="262.58,-103.94 252.49,-100.72 258.37,-109.53 262.58,-103.94"/>
<text text-anchor="middle" x="331.09" y="-148.08" font-family="Times,serif" font-size="9.00">&#45;0.263</text>
</g>
<!-- key 55677
bias 0.000
h_scaling 0.287
output 0.506&#45;&gt;key 26327
bias 0.000
h_scaling 0.276
output 0.188 -->
<g id="edge13" class="edge">
<title>key 55677
bias 0.000
h_scaling 0.287
output 0.506&#45;&gt;key 26327
bias 0.000
h_scaling 0.276
output 0.188</title>
<path fill="none" stroke="blue" stroke-width="0.1" d="M411.78,-179.36C417.9,-167.85 424.65,-155.99 431.59,-145.28 436.78,-137.26 442.59,-129.08 448.54,-121.15"/>
<polygon fill="blue" stroke="blue" stroke-width="0.1" points="451.48,-123.06 454.77,-112.99 445.92,-118.81 451.48,-123.06"/>
<text text-anchor="middle" x="447.09" y="-148.08" font-family="Times,serif" font-size="9.00">&#45;0.573</text>
</g>
</g>
</svg>
