<?xml version="1.0" encoding="UTF-8" standalone="no"?>
<!DOCTYPE svg PUBLIC "-//W3C//DTD SVG 1.1//EN"
 "http://www.w3.org/Graphics/SVG/1.1/DTD/svg11.dtd">
<!-- Generated by graphviz version 2.43.0 (0)
 -->
<!-- Title: %3 Pages: 1 -->
<svg width="399pt" height="952pt"
 viewBox="0.00 0.00 399.28 951.68" xmlns="http://www.w3.org/2000/svg" xmlns:xlink="http://www.w3.org/1999/xlink">
<g id="graph0" class="graph" transform="scale(1 1) rotate(0) translate(4 947.68)">
<title>%3</title>
<polygon fill="white" stroke="transparent" points="-4,4 -4,-947.68 395.28,-947.68 395.28,4 -4,4"/>
<!-- ready -->
<g id="node1" class="node">
<title>ready</title>
<polygon fill="yellow" stroke="black" points="163.14,-725.76 120.14,-725.76 120.14,-707.76 163.14,-707.76 163.14,-725.76"/>
<text text-anchor="middle" x="141.64" y="-714.56" font-family="Times,serif" font-size="9.00">ready</text>
</g>
<!-- key 177
bias 0.522
h_scaling 0.306 -->
<g id="node5" class="node">
<title>key 177
bias 0.522
h_scaling 0.306</title>
<ellipse fill="white" stroke="black" cx="141.64" cy="-553.48" rx="63.78" ry="63.78"/>
<text text-anchor="middle" x="141.64" y="-561.28" font-family="Times,serif" font-size="9.00">key 177</text>
<text text-anchor="middle" x="141.64" y="-551.28" font-family="Times,serif" font-size="9.00">bias 0.522</text>
<text text-anchor="middle" x="141.64" y="-541.28" font-family="Times,serif" font-size="9.00">h_scaling 0.306</text>
</g>
<!-- ready&#45;&gt;key 177
bias 0.522
h_scaling 0.306 -->
<g id="edge10" class="edge">
<title>ready&#45;&gt;key 177
bias 0.522
h_scaling 0.306</title>
<path fill="none" stroke="red" stroke-width="0.76" d="M141.64,-707.54C141.64,-692.54 141.64,-659.34 141.64,-627.68"/>
<polygon fill="red" stroke="red" stroke-width="0.76" points="145.14,-627.48 141.64,-617.48 138.14,-627.48 145.14,-627.48"/>
</g>
<!-- go -->
<g id="node2" class="node">
<title>go</title>
<polygon fill="green" stroke="black" points="245.64,-889.04 217.64,-889.04 217.64,-871.04 245.64,-871.04 245.64,-889.04"/>
<text text-anchor="middle" x="231.64" y="-877.84" font-family="Times,serif" font-size="9.00">go</text>
</g>
<!-- go&#45;&gt;key 177
bias 0.522
h_scaling 0.306 -->
<g id="edge1" class="edge">
<title>go&#45;&gt;key 177
bias 0.522
h_scaling 0.306</title>
<path fill="none" stroke="blue" stroke-width="3.02" d="M229.57,-870.8C222.1,-841.25 195.76,-737.81 171.64,-653.12 168.96,-643.69 166.05,-633.79 163.13,-624.04"/>
<polygon fill="blue" stroke="blue" stroke-width="3.02" points="166.46,-622.93 160.23,-614.36 159.75,-624.95 166.46,-622.93"/>
</g>
<!-- key 8977
bias &#45;0.369
h_scaling 0.996 -->
<g id="node6" class="node">
<title>key 8977
bias &#45;0.369
h_scaling 0.996</title>
<ellipse fill="white" stroke="black" cx="164.64" cy="-226.92" rx="63.78" ry="63.78"/>
<text text-anchor="middle" x="164.64" y="-234.72" font-family="Times,serif" font-size="9.00">key 8977</text>
<text text-anchor="middle" x="164.64" y="-224.72" font-family="Times,serif" font-size="9.00">bias &#45;0.369</text>
<text text-anchor="middle" x="164.64" y="-214.72" font-family="Times,serif" font-size="9.00">h_scaling 0.996</text>
</g>
<!-- go&#45;&gt;key 8977
bias &#45;0.369
h_scaling 0.996 -->
<g id="edge6" class="edge">
<title>go&#45;&gt;key 8977
bias &#45;0.369
h_scaling 0.996</title>
<path fill="none" stroke="blue" stroke-width="2.97" d="M231.72,-870.78C232.04,-829.57 232.39,-642 214.64,-489.84 207.04,-424.72 192.55,-351.49 181.11,-299.05"/>
<polygon fill="blue" stroke="blue" stroke-width="2.97" points="184.51,-298.2 178.94,-289.18 177.67,-299.7 184.51,-298.2"/>
</g>
<!-- key 21183
bias 0.953
h_scaling 0.820 -->
<g id="node10" class="node">
<title>key 21183
bias 0.953
h_scaling 0.820</title>
<ellipse fill="white" stroke="black" cx="325.64" cy="-716.76" rx="63.78" ry="63.78"/>
<text text-anchor="middle" x="325.64" y="-724.56" font-family="Times,serif" font-size="9.00">key 21183</text>
<text text-anchor="middle" x="325.64" y="-714.56" font-family="Times,serif" font-size="9.00">bias 0.953</text>
<text text-anchor="middle" x="325.64" y="-704.56" font-family="Times,serif" font-size="9.00">h_scaling 0.820</text>
</g>
<!-- go&#45;&gt;key 21183
bias 0.953
h_scaling 0.820 -->
<g id="edge13" class="edge">
<title>go&#45;&gt;key 21183
bias 0.953
h_scaling 0.820</title>
<path fill="none" stroke="red" stroke-width="1.68" d="M233.82,-871.03C237.3,-858.82 244.76,-835.02 254.64,-816.4 261.98,-802.56 271.04,-788.45 280.19,-775.4"/>
<polygon fill="red" stroke="red" stroke-width="1.68" points="283.24,-777.15 286.21,-766.98 277.55,-773.08 283.24,-777.15"/>
</g>
<!-- output
bias &#45;0.983
h_scaling 0.004 -->
<g id="node3" class="node">
<title>output
bias &#45;0.983
h_scaling 0.004</title>
<ellipse fill="lightblue" stroke="black" cx="63.64" cy="-390.2" rx="63.78" ry="63.78"/>
<text text-anchor="middle" x="63.64" y="-398" font-family="Times,serif" font-size="9.00">output</text>
<text text-anchor="middle" x="63.64" y="-388" font-family="Times,serif" font-size="9.00">bias &#45;0.983</text>
<text text-anchor="middle" x="63.64" y="-378" font-family="Times,serif" font-size="9.00">h_scaling 0.004</text>
</g>
<!-- output
bias &#45;0.983
h_scaling 0.004&#45;&gt;key 8977
bias &#45;0.369
h_scaling 0.996 -->
<g id="edge12" class="edge">
<title>output
bias &#45;0.983
h_scaling 0.004&#45;&gt;key 8977
bias &#45;0.369
h_scaling 0.996</title>
<path fill="none" stroke="blue" stroke-width="1.46" d="M92.22,-333.24C101.2,-318.34 111.29,-302.18 121.04,-287.11"/>
<polygon fill="blue" stroke="blue" stroke-width="1.46" points="124.2,-288.67 126.73,-278.38 118.34,-284.85 124.2,-288.67"/>
</g>
<!-- key 12797
bias 0.703
h_scaling 0.027 -->
<g id="node9" class="node">
<title>key 12797
bias 0.703
h_scaling 0.027</title>
<ellipse fill="white" stroke="black" cx="63.64" cy="-63.64" rx="63.78" ry="63.78"/>
<text text-anchor="middle" x="63.64" y="-71.44" font-family="Times,serif" font-size="9.00">key 12797</text>
<text text-anchor="middle" x="63.64" y="-61.44" font-family="Times,serif" font-size="9.00">bias 0.703</text>
<text text-anchor="middle" x="63.64" y="-51.44" font-family="Times,serif" font-size="9.00">h_scaling 0.027</text>
</g>
<!-- output
bias &#45;0.983
h_scaling 0.004&#45;&gt;key 12797
bias 0.703
h_scaling 0.027 -->
<g id="edge11" class="edge">
<title>output
bias &#45;0.983
h_scaling 0.004&#45;&gt;key 12797
bias 0.703
h_scaling 0.027</title>
<path fill="none" stroke="blue" stroke-width="2" d="M58.18,-326.62C56.56,-272.49 56.46,-194.2 57.9,-137.31"/>
<polygon fill="blue" stroke="blue" stroke-width="2" points="61.4,-137.39 58.18,-127.3 54.4,-137.2 61.4,-137.39"/>
</g>
<!-- key 412512
bias 0.325
h_scaling 0.989 -->
<g id="node4" class="node">
<title>key 412512
bias 0.325
h_scaling 0.989</title>
<ellipse fill="white" stroke="black" cx="325.64" cy="-390.2" rx="63.78" ry="63.78"/>
<text text-anchor="middle" x="325.64" y="-398" font-family="Times,serif" font-size="9.00">key 412512</text>
<text text-anchor="middle" x="325.64" y="-388" font-family="Times,serif" font-size="9.00">bias 0.325</text>
<text text-anchor="middle" x="325.64" y="-378" font-family="Times,serif" font-size="9.00">h_scaling 0.989</text>
</g>
<!-- key 177
bias 0.522
h_scaling 0.306&#45;&gt;output
bias &#45;0.983
h_scaling 0.004 -->
<g id="edge2" class="edge">
<title>key 177
bias 0.522
h_scaling 0.306&#45;&gt;output
bias &#45;0.983
h_scaling 0.004</title>
<path fill="none" stroke="red" stroke-width="2.73" d="M114.14,-495.62C108.1,-483.14 101.67,-469.82 95.48,-457.03"/>
<polygon fill="red" stroke="red" stroke-width="2.73" points="98.53,-455.3 91.02,-447.82 92.23,-458.34 98.53,-455.3"/>
</g>
<!-- key 177
bias 0.522
h_scaling 0.306&#45;&gt;key 8977
bias &#45;0.369
h_scaling 0.996 -->
<g id="edge3" class="edge">
<title>key 177
bias 0.522
h_scaling 0.306&#45;&gt;key 8977
bias &#45;0.369
h_scaling 0.996</title>
<path fill="none" stroke="red" stroke-width="3.05" d="M140.63,-489.51C142.86,-435.17 148.34,-356.68 153.82,-299.87"/>
<polygon fill="red" stroke="red" stroke-width="3.05" points="157.31,-300.18 154.81,-289.88 150.34,-299.49 157.31,-300.18"/>
</g>
<!-- key 8977
bias &#45;0.369
h_scaling 0.996&#45;&gt;output
bias &#45;0.983
h_scaling 0.004 -->
<g id="edge4" class="edge">
<title>key 8977
bias &#45;0.369
h_scaling 0.996&#45;&gt;output
bias &#45;0.983
h_scaling 0.004</title>
<path fill="none" stroke="red" stroke-width="3.1" d="M136.02,-283.93C127.08,-298.79 117.02,-314.88 107.31,-329.91"/>
<polygon fill="red" stroke="red" stroke-width="3.1" points="104.16,-328.32 101.63,-338.61 110.03,-332.14 104.16,-328.32"/>
</g>
<!-- key 8977
bias &#45;0.369
h_scaling 0.996&#45;&gt;key 177
bias 0.522
h_scaling 0.306 -->
<g id="edge5" class="edge">
<title>key 8977
bias &#45;0.369
h_scaling 0.996&#45;&gt;key 177
bias 0.522
h_scaling 0.306</title>
<path fill="none" stroke="red" stroke-width="3.04" d="M165.65,-290.73C163.43,-345 157.96,-423.44 152.48,-480.29"/>
<polygon fill="red" stroke="red" stroke-width="3.04" points="148.99,-479.99 151.49,-490.28 155.96,-480.68 148.99,-479.99"/>
</g>
<!-- key 8977
bias &#45;0.369
h_scaling 0.996&#45;&gt;key 12797
bias 0.703
h_scaling 0.027 -->
<g id="edge8" class="edge">
<title>key 8977
bias &#45;0.369
h_scaling 0.996&#45;&gt;key 12797
bias 0.703
h_scaling 0.027</title>
<path fill="none" stroke="blue" stroke-width="2.84" d="M131.29,-172.66C122.11,-158.01 112.08,-142 102.62,-126.89"/>
<polygon fill="blue" stroke="blue" stroke-width="2.84" points="105.4,-124.73 97.13,-118.11 99.47,-128.45 105.4,-124.73"/>
</g>
<!-- key 414295
bias &#45;0.960
h_scaling 0.723 -->
<g id="node7" class="node">
<title>key 414295
bias &#45;0.960
h_scaling 0.723</title>
<ellipse fill="white" stroke="black" cx="327.64" cy="-880.04" rx="63.78" ry="63.78"/>
<text text-anchor="middle" x="327.64" y="-887.84" font-family="Times,serif" font-size="9.00">key 414295</text>
<text text-anchor="middle" x="327.64" y="-877.84" font-family="Times,serif" font-size="9.00">bias &#45;0.960</text>
<text text-anchor="middle" x="327.64" y="-867.84" font-family="Times,serif" font-size="9.00">h_scaling 0.723</text>
</g>
<!-- key 414295
bias &#45;0.960
h_scaling 0.723&#45;&gt;key 21183
bias 0.953
h_scaling 0.820 -->
<g id="edge14" class="edge">
<title>key 414295
bias &#45;0.960
h_scaling 0.723&#45;&gt;key 21183
bias 0.953
h_scaling 0.820</title>
<path fill="none" stroke="blue" stroke-width="1.49" d="M326.86,-816.22C326.76,-807.76 326.65,-799.03 326.54,-790.43"/>
<polygon fill="blue" stroke="blue" stroke-width="1.49" points="330.04,-790.36 326.42,-780.4 323.04,-790.44 330.04,-790.36"/>
</g>
<!-- key 425339
bias 0.164
h_scaling 0.661 -->
<g id="node8" class="node">
<title>key 425339
bias 0.164
h_scaling 0.661</title>
<ellipse fill="white" stroke="black" cx="325.64" cy="-553.48" rx="63.78" ry="63.78"/>
<text text-anchor="middle" x="325.64" y="-561.28" font-family="Times,serif" font-size="9.00">key 425339</text>
<text text-anchor="middle" x="325.64" y="-551.28" font-family="Times,serif" font-size="9.00">bias 0.164</text>
<text text-anchor="middle" x="325.64" y="-541.28" font-family="Times,serif" font-size="9.00">h_scaling 0.661</text>
</g>
<!-- key 425339
bias 0.164
h_scaling 0.661&#45;&gt;key 412512
bias 0.325
h_scaling 0.989 -->
<g id="edge16" class="edge">
<title>key 425339
bias 0.164
h_scaling 0.661&#45;&gt;key 412512
bias 0.325
h_scaling 0.989</title>
<path fill="none" stroke="red" stroke-width="3.1" d="M325.64,-489.66C325.64,-481.21 325.64,-472.48 325.64,-463.87"/>
<polygon fill="red" stroke="red" stroke-width="3.1" points="329.14,-463.84 325.64,-453.84 322.14,-463.84 329.14,-463.84"/>
</g>
<!-- key 12797
bias 0.703
h_scaling 0.027&#45;&gt;output
bias &#45;0.983
h_scaling 0.004 -->
<g id="edge9" class="edge">
<title>key 12797
bias 0.703
h_scaling 0.027&#45;&gt;output
bias &#45;0.983
h_scaling 0.004</title>
<path fill="none" stroke="blue" stroke-width="2.57" d="M69.1,-127.3C70.72,-181.46 70.81,-259.75 69.37,-316.62"/>
<polygon fill="blue" stroke="blue" stroke-width="2.57" points="65.87,-316.53 69.1,-326.62 72.87,-316.72 65.87,-316.53"/>
</g>
<!-- key 21183
bias 0.953
h_scaling 0.820&#45;&gt;key 177
bias 0.522
h_scaling 0.306 -->
<g id="edge7" class="edge">
<title>key 21183
bias 0.953
h_scaling 0.820&#45;&gt;key 177
bias 0.522
h_scaling 0.306</title>
<path fill="none" stroke="blue" stroke-width="2.84" d="M278.26,-674.22C253.35,-652.39 222.69,-625.52 196.72,-602.76"/>
<polygon fill="blue" stroke="blue" stroke-width="2.84" points="199.01,-600.11 189.18,-596.15 194.4,-605.37 199.01,-600.11"/>
</g>
<!-- key 21183
bias 0.953
h_scaling 0.820&#45;&gt;key 425339
bias 0.164
h_scaling 0.661 -->
<g id="edge15" class="edge">
<title>key 21183
bias 0.953
h_scaling 0.820&#45;&gt;key 425339
bias 0.164
h_scaling 0.661</title>
<path fill="none" stroke="red" stroke-width="3.1" d="M325.64,-652.94C325.64,-644.49 325.64,-635.75 325.64,-627.15"/>
<polygon fill="red" stroke="red" stroke-width="3.1" points="329.14,-627.12 325.64,-617.12 322.14,-627.12 329.14,-627.12"/>
</g>
</g>
</svg>
