<?xml version="1.0" encoding="UTF-8" standalone="no"?>
<!DOCTYPE svg PUBLIC "-//W3C//DTD SVG 1.1//EN"
 "http://www.w3.org/Graphics/SVG/1.1/DTD/svg11.dtd">
<!-- Generated by graphviz version 2.43.0 (0)
 -->
<!-- Title: %3 Pages: 1 -->
<svg width="386pt" height="902pt"
 viewBox="0.00 0.00 385.64 902.40" xmlns="http://www.w3.org/2000/svg" xmlns:xlink="http://www.w3.org/1999/xlink">
<g id="graph0" class="graph" transform="scale(1 1) rotate(0) translate(4 898.4)">
<title>%3</title>
<polygon fill="white" stroke="transparent" points="-4,4 -4,-898.4 381.64,-898.4 381.64,4 -4,4"/>
<!-- ready
output 0.000 -->
<g id="node1" class="node">
<title>ready
output 0.000</title>
<polygon fill="yellow" stroke="black" points="195.5,-894.4 118.5,-894.4 118.5,-866.4 195.5,-866.4 195.5,-894.4"/>
<text text-anchor="middle" x="157" y="-883.2" font-family="Times,serif" font-size="9.00">ready</text>
<text text-anchor="middle" x="157" y="-873.2" font-family="Times,serif" font-size="9.00">output 0.000</text>
</g>
<!-- key 96967
bias &#45;0.636
h_scaling 0.013
output 0.040 -->
<g id="node4" class="node">
<title>key 96967
bias &#45;0.636
h_scaling 0.013
output 0.040</title>
<ellipse fill="white" stroke="black" cx="290" cy="-756.76" rx="63.78" ry="63.78"/>
<text text-anchor="middle" x="290" y="-769.56" font-family="Times,serif" font-size="9.00">key 96967</text>
<text text-anchor="middle" x="290" y="-759.56" font-family="Times,serif" font-size="9.00">bias &#45;0.636</text>
<text text-anchor="middle" x="290" y="-749.56" font-family="Times,serif" font-size="9.00">h_scaling 0.013</text>
<text text-anchor="middle" x="290" y="-739.56" font-family="Times,serif" font-size="9.00">output 0.040</text>
</g>
<!-- ready
output 0.000&#45;&gt;key 96967
bias &#45;0.636
h_scaling 0.013
output 0.040 -->
<g id="edge13" class="edge">
<title>ready
output 0.000&#45;&gt;key 96967
bias &#45;0.636
h_scaling 0.013
output 0.040</title>
<path fill="none" stroke="red" stroke-width="0.1" d="M173.02,-866.32C179.6,-860.87 187.24,-854.41 194,-848.4 208.16,-835.8 223.19,-821.88 237.05,-808.81"/>
<polygon fill="red" stroke="red" stroke-width="0.1" points="239.76,-811.07 244.61,-801.66 234.94,-805.99 239.76,-811.07"/>
<text text-anchor="middle" x="218" y="-841.2" font-family="Times,serif" font-size="9.00">0.962</text>
</g>
<!-- key 46023
bias &#45;0.824
h_scaling 0.014
output 0.956 -->
<g id="node5" class="node">
<title>key 46023
bias &#45;0.824
h_scaling 0.014
output 0.956</title>
<ellipse fill="white" stroke="black" cx="91" cy="-63.64" rx="63.78" ry="63.78"/>
<text text-anchor="middle" x="91" y="-76.44" font-family="Times,serif" font-size="9.00">key 46023</text>
<text text-anchor="middle" x="91" y="-66.44" font-family="Times,serif" font-size="9.00">bias &#45;0.824</text>
<text text-anchor="middle" x="91" y="-56.44" font-family="Times,serif" font-size="9.00">h_scaling 0.014</text>
<text text-anchor="middle" x="91" y="-46.44" font-family="Times,serif" font-size="9.00">output 0.956</text>
</g>
<!-- ready
output 0.000&#45;&gt;key 46023
bias &#45;0.824
h_scaling 0.014
output 0.956 -->
<g id="edge16" class="edge">
<title>ready
output 0.000&#45;&gt;key 46023
bias &#45;0.824
h_scaling 0.014
output 0.956</title>
<path fill="none" stroke="blue" stroke-width="0.1" d="M118.19,-868.14C71.7,-851.99 0,-817.41 0,-757.76 0,-757.76 0,-757.76 0,-235.92 0,-194.04 21.48,-152.42 43.57,-120.69"/>
<polygon fill="blue" stroke="blue" stroke-width="0.1" points="46.51,-122.6 49.49,-112.43 40.82,-118.52 46.51,-122.6"/>
<text text-anchor="middle" x="15.5" y="-494.64" font-family="Times,serif" font-size="9.00">&#45;0.287</text>
</g>
<!-- key 58955
bias &#45;0.596
h_scaling 0.517
output 0.271 -->
<g id="node6" class="node">
<title>key 58955
bias &#45;0.596
h_scaling 0.517
output 0.271</title>
<ellipse fill="white" stroke="black" cx="268" cy="-583.48" rx="63.78" ry="63.78"/>
<text text-anchor="middle" x="268" y="-596.28" font-family="Times,serif" font-size="9.00">key 58955</text>
<text text-anchor="middle" x="268" y="-586.28" font-family="Times,serif" font-size="9.00">bias &#45;0.596</text>
<text text-anchor="middle" x="268" y="-576.28" font-family="Times,serif" font-size="9.00">h_scaling 0.517</text>
<text text-anchor="middle" x="268" y="-566.28" font-family="Times,serif" font-size="9.00">output 0.271</text>
</g>
<!-- ready
output 0.000&#45;&gt;key 58955
bias &#45;0.596
h_scaling 0.517
output 0.271 -->
<g id="edge8" class="edge">
<title>ready
output 0.000&#45;&gt;key 58955
bias &#45;0.596
h_scaling 0.517
output 0.271</title>
<path fill="none" stroke="red" stroke-width="0.1" d="M157.23,-866.18C158.2,-834.86 163.22,-754.18 189,-693.12 196.8,-674.64 208.28,-656.31 220.08,-640.12"/>
<polygon fill="red" stroke="red" stroke-width="0.1" points="223.07,-641.97 226.26,-631.86 217.47,-637.77 223.07,-641.97"/>
<text text-anchor="middle" x="203" y="-754.56" font-family="Times,serif" font-size="9.00">0.595</text>
</g>
<!-- key 1777
bias &#45;0.482
h_scaling 0.889
output 0.689 -->
<g id="node7" class="node">
<title>key 1777
bias &#45;0.482
h_scaling 0.889
output 0.689</title>
<ellipse fill="white" stroke="black" cx="165" cy="-236.92" rx="63.78" ry="63.78"/>
<text text-anchor="middle" x="165" y="-249.72" font-family="Times,serif" font-size="9.00">key 1777</text>
<text text-anchor="middle" x="165" y="-239.72" font-family="Times,serif" font-size="9.00">bias &#45;0.482</text>
<text text-anchor="middle" x="165" y="-229.72" font-family="Times,serif" font-size="9.00">h_scaling 0.889</text>
<text text-anchor="middle" x="165" y="-219.72" font-family="Times,serif" font-size="9.00">output 0.689</text>
</g>
<!-- ready
output 0.000&#45;&gt;key 1777
bias &#45;0.482
h_scaling 0.889
output 0.689 -->
<g id="edge4" class="edge">
<title>ready
output 0.000&#45;&gt;key 1777
bias &#45;0.482
h_scaling 0.889
output 0.689</title>
<path fill="none" stroke="blue" stroke-width="0.1" d="M152.78,-866.05C146.14,-843.83 134,-797.73 134,-757.76 134,-757.76 134,-757.76 134,-409.2 134,-375.66 139.83,-339.01 146.43,-308.25"/>
<polygon fill="blue" stroke="blue" stroke-width="0.1" points="149.85,-309 148.59,-298.48 143.01,-307.48 149.85,-309"/>
<text text-anchor="middle" x="149.5" y="-581.28" font-family="Times,serif" font-size="9.00">&#45;0.232</text>
</g>
<!-- go
output 0.000 -->
<g id="node2" class="node">
<title>go
output 0.000</title>
<polygon fill="green" stroke="black" points="105.5,-424.2 28.5,-424.2 28.5,-396.2 105.5,-396.2 105.5,-424.2"/>
<text text-anchor="middle" x="67" y="-413" font-family="Times,serif" font-size="9.00">go</text>
<text text-anchor="middle" x="67" y="-403" font-family="Times,serif" font-size="9.00">output 0.000</text>
</g>
<!-- go
output 0.000&#45;&gt;key 46023
bias &#45;0.824
h_scaling 0.014
output 0.956 -->
<g id="edge11" class="edge">
<title>go
output 0.000&#45;&gt;key 46023
bias &#45;0.824
h_scaling 0.014
output 0.956</title>
<path fill="none" stroke="red" stroke-width="0.1" d="M65.61,-396.09C62.06,-360.24 53.67,-257.64 64,-173.28 65.54,-160.72 68.04,-147.53 70.91,-134.83"/>
<polygon fill="red" stroke="red" stroke-width="0.1" points="74.4,-135.31 73.29,-124.77 67.58,-133.7 74.4,-135.31"/>
<text text-anchor="middle" x="78" y="-234.72" font-family="Times,serif" font-size="9.00">0.794</text>
</g>
<!-- go
output 0.000&#45;&gt;key 1777
bias &#45;0.482
h_scaling 0.889
output 0.689 -->
<g id="edge3" class="edge">
<title>go
output 0.000&#45;&gt;key 1777
bias &#45;0.482
h_scaling 0.889
output 0.689</title>
<path fill="none" stroke="red" stroke-width="0.1" d="M68.65,-396.17C71.39,-377.9 78.01,-344.02 92,-318.56 97.56,-308.45 104.62,-298.57 112.15,-289.39"/>
<polygon fill="red" stroke="red" stroke-width="0.1" points="115.04,-291.39 118.87,-281.51 109.72,-286.85 115.04,-291.39"/>
<text text-anchor="middle" x="106" y="-321.36" font-family="Times,serif" font-size="9.00">1.119</text>
</g>
<!-- output
bias 0.472
h_scaling 0.728
output 0.005 -->
<g id="node3" class="node">
<title>output
bias 0.472
h_scaling 0.728
output 0.005</title>
<ellipse fill="lightblue" stroke="black" cx="293" cy="-410.2" rx="63.78" ry="63.78"/>
<text text-anchor="middle" x="293" y="-423" font-family="Times,serif" font-size="9.00">output</text>
<text text-anchor="middle" x="293" y="-413" font-family="Times,serif" font-size="9.00">bias 0.472</text>
<text text-anchor="middle" x="293" y="-403" font-family="Times,serif" font-size="9.00">h_scaling 0.728</text>
<text text-anchor="middle" x="293" y="-393" font-family="Times,serif" font-size="9.00">output 0.005</text>
</g>
<!-- output
bias 0.472
h_scaling 0.728
output 0.005&#45;&gt;key 1777
bias &#45;0.482
h_scaling 0.889
output 0.689 -->
<g id="edge10" class="edge">
<title>output
bias 0.472
h_scaling 0.728
output 0.005&#45;&gt;key 1777
bias &#45;0.482
h_scaling 0.889
output 0.689</title>
<path fill="none" stroke="red" stroke-width="0.1" d="M245.53,-367.66C233.43,-355.75 221.02,-342.25 211,-328.56 205.57,-321.13 200.44,-312.97 195.72,-304.68"/>
<polygon fill="red" stroke="red" stroke-width="0.1" points="198.64,-302.74 190.76,-295.67 192.51,-306.12 198.64,-302.74"/>
<text text-anchor="middle" x="225" y="-321.36" font-family="Times,serif" font-size="9.00">0.251</text>
</g>
<!-- key 96967
bias &#45;0.636
h_scaling 0.013
output 0.040&#45;&gt;key 58955
bias &#45;0.596
h_scaling 0.517
output 0.271 -->
<g id="edge14" class="edge">
<title>key 96967
bias &#45;0.636
h_scaling 0.013
output 0.040&#45;&gt;key 58955
bias &#45;0.596
h_scaling 0.517
output 0.271</title>
<path fill="none" stroke="red" stroke-width="0.1" d="M282,-693.44C280.47,-681.55 278.86,-669.02 277.3,-656.86"/>
<polygon fill="red" stroke="red" stroke-width="0.1" points="280.74,-656.22 276,-646.75 273.8,-657.12 280.74,-656.22"/>
<text text-anchor="middle" x="293" y="-667.92" font-family="Times,serif" font-size="9.00">0.798</text>
</g>
<!-- key 46023
bias &#45;0.824
h_scaling 0.014
output 0.956&#45;&gt;output
bias 0.472
h_scaling 0.728
output 0.005 -->
<g id="edge6" class="edge">
<title>key 46023
bias &#45;0.824
h_scaling 0.014
output 0.956&#45;&gt;output
bias 0.472
h_scaling 0.728
output 0.005</title>
<path fill="none" stroke="blue" stroke-width="0.1" d="M152.47,-81.53C197.29,-97.36 255.05,-125.86 284,-173.28 313.87,-222.21 313.79,-288.09 307.57,-337.8"/>
<polygon fill="blue" stroke="blue" stroke-width="0.1" points="304.08,-337.45 306.2,-347.83 311.02,-338.4 304.08,-337.45"/>
<text text-anchor="middle" x="325.5" y="-234.72" font-family="Times,serif" font-size="9.00">&#45;1.000</text>
</g>
<!-- key 46023
bias &#45;0.824
h_scaling 0.014
output 0.956&#45;&gt;key 46023
bias &#45;0.824
h_scaling 0.014
output 0.956 -->
<g id="edge7" class="edge">
<title>key 46023
bias &#45;0.824
h_scaling 0.014
output 0.956&#45;&gt;key 46023
bias &#45;0.824
h_scaling 0.014
output 0.956</title>
<path fill="none" stroke="red" stroke-width="0.1" d="M152.94,-78.94C164.5,-77.05 172.64,-71.95 172.64,-63.64 172.64,-57.92 168.79,-53.73 162.63,-51.05"/>
<polygon fill="red" stroke="red" stroke-width="0.1" points="163.52,-47.66 152.94,-48.34 161.63,-54.4 163.52,-47.66"/>
<text text-anchor="middle" x="186.64" y="-61.44" font-family="Times,serif" font-size="9.00">0.745</text>
</g>
<!-- key 58955
bias &#45;0.596
h_scaling 0.517
output 0.271&#45;&gt;output
bias 0.472
h_scaling 0.728
output 0.005 -->
<g id="edge12" class="edge">
<title>key 58955
bias &#45;0.596
h_scaling 0.517
output 0.271&#45;&gt;output
bias 0.472
h_scaling 0.728
output 0.005</title>
<path fill="none" stroke="red" stroke-width="0.1" d="M277.1,-520.16C278.83,-508.28 280.66,-495.75 282.43,-483.58"/>
<polygon fill="red" stroke="red" stroke-width="0.1" points="285.93,-483.87 283.91,-473.47 279,-482.86 285.93,-483.87"/>
<text text-anchor="middle" x="294" y="-494.64" font-family="Times,serif" font-size="9.00">0.501</text>
</g>
<!-- key 58955
bias &#45;0.596
h_scaling 0.517
output 0.271&#45;&gt;key 58955
bias &#45;0.596
h_scaling 0.517
output 0.271 -->
<g id="edge15" class="edge">
<title>key 58955
bias &#45;0.596
h_scaling 0.517
output 0.271&#45;&gt;key 58955
bias &#45;0.596
h_scaling 0.517
output 0.271</title>
<path fill="none" stroke="red" stroke-width="0.1" d="M329.94,-598.77C341.5,-596.89 349.64,-591.79 349.64,-583.48 349.64,-577.76 345.79,-573.56 339.63,-570.89"/>
<polygon fill="red" stroke="red" stroke-width="0.1" points="340.52,-567.5 329.94,-568.18 338.63,-574.24 340.52,-567.5"/>
<text text-anchor="middle" x="363.64" y="-581.28" font-family="Times,serif" font-size="9.00">0.964</text>
</g>
<!-- key 58955
bias &#45;0.596
h_scaling 0.517
output 0.271&#45;&gt;key 1777
bias &#45;0.482
h_scaling 0.889
output 0.689 -->
<g id="edge9" class="edge">
<title>key 58955
bias &#45;0.596
h_scaling 0.517
output 0.271&#45;&gt;key 1777
bias &#45;0.482
h_scaling 0.889
output 0.689</title>
<path fill="none" stroke="blue" stroke-width="0.1" d="M225.64,-535.69C211.62,-517.6 197.45,-495.95 189,-473.84 169.08,-421.71 163.52,-358.64 162.71,-310.83"/>
<polygon fill="blue" stroke="blue" stroke-width="0.1" points="166.21,-310.53 162.6,-300.56 159.21,-310.6 166.21,-310.53"/>
<text text-anchor="middle" x="204.5" y="-408" font-family="Times,serif" font-size="9.00">&#45;0.270</text>
</g>
<!-- key 1777
bias &#45;0.482
h_scaling 0.889
output 0.689&#45;&gt;output
bias 0.472
h_scaling 0.728
output 0.005 -->
<g id="edge1" class="edge">
<title>key 1777
bias &#45;0.482
h_scaling 0.889
output 0.689&#45;&gt;output
bias 0.472
h_scaling 0.728
output 0.005</title>
<path fill="none" stroke="blue" stroke-width="0.1" d="M210.96,-281.24C222.09,-292.82 233.51,-305.71 243,-318.56 248.85,-326.47 254.48,-335.15 259.72,-343.89"/>
<polygon fill="blue" stroke="blue" stroke-width="0.1" points="256.77,-345.77 264.83,-352.64 262.81,-342.24 256.77,-345.77"/>
<text text-anchor="middle" x="264.5" y="-321.36" font-family="Times,serif" font-size="9.00">&#45;0.977</text>
</g>
<!-- key 1777
bias &#45;0.482
h_scaling 0.889
output 0.689&#45;&gt;key 46023
bias &#45;0.824
h_scaling 0.014
output 0.956 -->
<g id="edge5" class="edge">
<title>key 1777
bias &#45;0.482
h_scaling 0.889
output 0.689&#45;&gt;key 46023
bias &#45;0.824
h_scaling 0.014
output 0.956</title>
<path fill="none" stroke="red" stroke-width="0.1" d="M139.95,-177.93C133.52,-163.06 126.56,-146.95 119.96,-131.67"/>
<polygon fill="red" stroke="red" stroke-width="0.1" points="123.08,-130.07 115.9,-122.28 116.65,-132.84 123.08,-130.07"/>
<text text-anchor="middle" x="142" y="-148.08" font-family="Times,serif" font-size="9.00">0.957</text>
</g>
<!-- key 1777
bias &#45;0.482
h_scaling 0.889
output 0.689&#45;&gt;key 1777
bias &#45;0.482
h_scaling 0.889
output 0.689 -->
<g id="edge2" class="edge">
<title>key 1777
bias &#45;0.482
h_scaling 0.889
output 0.689&#45;&gt;key 1777
bias &#45;0.482
h_scaling 0.889
output 0.689</title>
<path fill="none" stroke="red" stroke-width="0.1" d="M226.94,-252.22C238.5,-250.33 246.64,-245.23 246.64,-236.92 246.64,-231.2 242.79,-227.01 236.63,-224.33"/>
<polygon fill="red" stroke="red" stroke-width="0.1" points="237.52,-220.94 226.94,-221.62 235.63,-227.68 237.52,-220.94"/>
<text text-anchor="middle" x="260.64" y="-234.72" font-family="Times,serif" font-size="9.00">1.167</text>
</g>
</g>
</svg>
