<?xml version="1.0" encoding="UTF-8" standalone="no"?>
<!DOCTYPE svg PUBLIC "-//W3C//DTD SVG 1.1//EN"
 "http://www.w3.org/Graphics/SVG/1.1/DTD/svg11.dtd">
<!-- Generated by graphviz version 2.43.0 (0)
 -->
<!-- Title: %3 Pages: 1 -->
<svg width="403pt" height="902pt"
 viewBox="0.00 0.00 402.64 902.40" xmlns="http://www.w3.org/2000/svg" xmlns:xlink="http://www.w3.org/1999/xlink">
<g id="graph0" class="graph" transform="scale(1 1) rotate(0) translate(4 898.4)">
<title>%3</title>
<polygon fill="white" stroke="transparent" points="-4,4 -4,-898.4 398.64,-898.4 398.64,4 -4,4"/>
<!-- ready
output 0.000 -->
<g id="node1" class="node">
<title>ready
output 0.000</title>
<polygon fill="yellow" stroke="black" points="251.14,-894.4 174.14,-894.4 174.14,-866.4 251.14,-866.4 251.14,-894.4"/>
<text text-anchor="middle" x="212.64" y="-883.2" font-family="Times,serif" font-size="9.00">ready</text>
<text text-anchor="middle" x="212.64" y="-873.2" font-family="Times,serif" font-size="9.00">output 0.000</text>
</g>
<!-- key 5665
bias &#45;0.063
h_scaling 0.748
output 0.020 -->
<g id="node4" class="node">
<title>key 5665
bias &#45;0.063
h_scaling 0.748
output 0.020</title>
<ellipse fill="white" stroke="black" cx="63.64" cy="-236.92" rx="63.78" ry="63.78"/>
<text text-anchor="middle" x="63.64" y="-249.72" font-family="Times,serif" font-size="9.00">key 5665</text>
<text text-anchor="middle" x="63.64" y="-239.72" font-family="Times,serif" font-size="9.00">bias &#45;0.063</text>
<text text-anchor="middle" x="63.64" y="-229.72" font-family="Times,serif" font-size="9.00">h_scaling 0.748</text>
<text text-anchor="middle" x="63.64" y="-219.72" font-family="Times,serif" font-size="9.00">output 0.020</text>
</g>
<!-- ready
output 0.000&#45;&gt;key 5665
bias &#45;0.063
h_scaling 0.748
output 0.020 -->
<g id="edge5" class="edge">
<title>ready
output 0.000&#45;&gt;key 5665
bias &#45;0.063
h_scaling 0.748
output 0.020</title>
<path fill="none" stroke="red" stroke-width="0.1" d="M174.08,-874.18C114.7,-863.75 7.64,-834.32 7.64,-757.76 7.64,-757.76 7.64,-757.76 7.64,-409.2 7.64,-373.19 18.96,-334.94 31.42,-303.74"/>
<polygon fill="red" stroke="red" stroke-width="0.1" points="34.74,-304.87 35.31,-294.3 28.27,-302.21 34.74,-304.87"/>
<text text-anchor="middle" x="21.64" y="-581.28" font-family="Times,serif" font-size="9.00">0.754</text>
</g>
<!-- key 38307
bias &#45;0.282
h_scaling 0.984
output 0.609 -->
<g id="node5" class="node">
<title>key 38307
bias &#45;0.282
h_scaling 0.984
output 0.609</title>
<ellipse fill="white" stroke="black" cx="212.64" cy="-756.76" rx="63.78" ry="63.78"/>
<text text-anchor="middle" x="212.64" y="-769.56" font-family="Times,serif" font-size="9.00">key 38307</text>
<text text-anchor="middle" x="212.64" y="-759.56" font-family="Times,serif" font-size="9.00">bias &#45;0.282</text>
<text text-anchor="middle" x="212.64" y="-749.56" font-family="Times,serif" font-size="9.00">h_scaling 0.984</text>
<text text-anchor="middle" x="212.64" y="-739.56" font-family="Times,serif" font-size="9.00">output 0.609</text>
</g>
<!-- ready
output 0.000&#45;&gt;key 38307
bias &#45;0.282
h_scaling 0.984
output 0.609 -->
<g id="edge7" class="edge">
<title>ready
output 0.000&#45;&gt;key 38307
bias &#45;0.282
h_scaling 0.984
output 0.609</title>
<path fill="none" stroke="red" stroke-width="0.1" d="M212.64,-866.38C212.64,-857.3 212.64,-844.39 212.64,-830.63"/>
<polygon fill="red" stroke="red" stroke-width="0.1" points="216.14,-830.49 212.64,-820.49 209.14,-830.49 216.14,-830.49"/>
<text text-anchor="middle" x="226.64" y="-841.2" font-family="Times,serif" font-size="9.00">0.664</text>
</g>
<!-- key 186159
bias &#45;0.886
h_scaling 0.554
output 0.042 -->
<g id="node7" class="node">
<title>key 186159
bias &#45;0.886
h_scaling 0.554
output 0.042</title>
<ellipse fill="white" stroke="black" cx="297.64" cy="-410.2" rx="63.78" ry="63.78"/>
<text text-anchor="middle" x="297.64" y="-423" font-family="Times,serif" font-size="9.00">key 186159</text>
<text text-anchor="middle" x="297.64" y="-413" font-family="Times,serif" font-size="9.00">bias &#45;0.886</text>
<text text-anchor="middle" x="297.64" y="-403" font-family="Times,serif" font-size="9.00">h_scaling 0.554</text>
<text text-anchor="middle" x="297.64" y="-393" font-family="Times,serif" font-size="9.00">output 0.042</text>
</g>
<!-- ready
output 0.000&#45;&gt;key 186159
bias &#45;0.886
h_scaling 0.554
output 0.042 -->
<g id="edge12" class="edge">
<title>ready
output 0.000&#45;&gt;key 186159
bias &#45;0.886
h_scaling 0.554
output 0.042</title>
<path fill="none" stroke="red" stroke-width="0.1" d="M251.28,-871.52C278.92,-863.65 314.2,-848.52 331.64,-820.4 396.93,-715.15 357.94,-564.29 326.14,-478.2"/>
<polygon fill="red" stroke="red" stroke-width="0.1" points="329.4,-476.92 322.6,-468.8 322.85,-479.39 329.4,-476.92"/>
<text text-anchor="middle" x="380.64" y="-667.92" font-family="Times,serif" font-size="9.00">1.226</text>
</g>
<!-- go
output 0.000 -->
<g id="node2" class="node">
<title>go
output 0.000</title>
<polygon fill="green" stroke="black" points="125.14,-770.76 48.14,-770.76 48.14,-742.76 125.14,-742.76 125.14,-770.76"/>
<text text-anchor="middle" x="86.64" y="-759.56" font-family="Times,serif" font-size="9.00">go</text>
<text text-anchor="middle" x="86.64" y="-749.56" font-family="Times,serif" font-size="9.00">output 0.000</text>
</g>
<!-- go
output 0.000&#45;&gt;key 5665
bias &#45;0.063
h_scaling 0.748
output 0.020 -->
<g id="edge2" class="edge">
<title>go
output 0.000&#45;&gt;key 5665
bias &#45;0.063
h_scaling 0.748
output 0.020</title>
<path fill="none" stroke="blue" stroke-width="0.1" d="M86.06,-742.7C83.42,-683.28 72.44,-436.02 66.89,-310.99"/>
<polygon fill="blue" stroke="blue" stroke-width="0.1" points="70.37,-310.58 66.43,-300.74 63.38,-310.89 70.37,-310.58"/>
<text text-anchor="middle" x="91.14" y="-494.64" font-family="Times,serif" font-size="9.00">&#45;0.646</text>
</g>
<!-- key 16367
bias &#45;0.020
h_scaling 0.577
output 0.675 -->
<g id="node6" class="node">
<title>key 16367
bias &#45;0.020
h_scaling 0.577
output 0.675</title>
<ellipse fill="white" stroke="black" cx="155.64" cy="-583.48" rx="63.78" ry="63.78"/>
<text text-anchor="middle" x="155.64" y="-596.28" font-family="Times,serif" font-size="9.00">key 16367</text>
<text text-anchor="middle" x="155.64" y="-586.28" font-family="Times,serif" font-size="9.00">bias &#45;0.020</text>
<text text-anchor="middle" x="155.64" y="-576.28" font-family="Times,serif" font-size="9.00">h_scaling 0.577</text>
<text text-anchor="middle" x="155.64" y="-566.28" font-family="Times,serif" font-size="9.00">output 0.675</text>
</g>
<!-- go
output 0.000&#45;&gt;key 16367
bias &#45;0.020
h_scaling 0.577
output 0.675 -->
<g id="edge6" class="edge">
<title>go
output 0.000&#45;&gt;key 16367
bias &#45;0.020
h_scaling 0.577
output 0.675</title>
<path fill="none" stroke="red" stroke-width="0.1" d="M91.94,-742.6C99.73,-723.27 114.81,-685.83 128.34,-652.24"/>
<polygon fill="red" stroke="red" stroke-width="0.1" points="131.62,-653.47 132.11,-642.88 125.13,-650.85 131.62,-653.47"/>
<text text-anchor="middle" x="134.64" y="-667.92" font-family="Times,serif" font-size="9.00">1.120</text>
</g>
<!-- output
bias &#45;0.449
h_scaling 0.908
output 0.004 -->
<g id="node3" class="node">
<title>output
bias &#45;0.449
h_scaling 0.908
output 0.004</title>
<ellipse fill="lightblue" stroke="black" cx="132.64" cy="-63.64" rx="63.78" ry="63.78"/>
<text text-anchor="middle" x="132.64" y="-76.44" font-family="Times,serif" font-size="9.00">output</text>
<text text-anchor="middle" x="132.64" y="-66.44" font-family="Times,serif" font-size="9.00">bias &#45;0.449</text>
<text text-anchor="middle" x="132.64" y="-56.44" font-family="Times,serif" font-size="9.00">h_scaling 0.908</text>
<text text-anchor="middle" x="132.64" y="-46.44" font-family="Times,serif" font-size="9.00">output 0.004</text>
</g>
<!-- key 5665
bias &#45;0.063
h_scaling 0.748
output 0.020&#45;&gt;output
bias &#45;0.449
h_scaling 0.908
output 0.004 -->
<g id="edge1" class="edge">
<title>key 5665
bias &#45;0.063
h_scaling 0.748
output 0.020&#45;&gt;output
bias &#45;0.449
h_scaling 0.908
output 0.004</title>
<path fill="none" stroke="red" stroke-width="0.1" d="M87.19,-177.45C93.02,-162.98 99.31,-147.36 105.31,-132.49"/>
<polygon fill="red" stroke="red" stroke-width="0.1" points="108.7,-133.43 109.19,-122.84 102.21,-130.81 108.7,-133.43"/>
<text text-anchor="middle" x="111.64" y="-148.08" font-family="Times,serif" font-size="9.00">1.041</text>
</g>
<!-- key 5665
bias &#45;0.063
h_scaling 0.748
output 0.020&#45;&gt;key 5665
bias &#45;0.063
h_scaling 0.748
output 0.020 -->
<g id="edge11" class="edge">
<title>key 5665
bias &#45;0.063
h_scaling 0.748
output 0.020&#45;&gt;key 5665
bias &#45;0.063
h_scaling 0.748
output 0.020</title>
<path fill="none" stroke="red" stroke-width="0.1" d="M125.58,-252.22C137.14,-250.33 145.28,-245.23 145.28,-236.92 145.28,-231.2 141.43,-227.01 135.27,-224.33"/>
<polygon fill="red" stroke="red" stroke-width="0.1" points="136.16,-220.94 125.58,-221.62 134.27,-227.68 136.16,-220.94"/>
<text text-anchor="middle" x="159.28" y="-234.72" font-family="Times,serif" font-size="9.00">0.869</text>
</g>
<!-- key 38307
bias &#45;0.282
h_scaling 0.984
output 0.609&#45;&gt;key 38307
bias &#45;0.282
h_scaling 0.984
output 0.609 -->
<g id="edge9" class="edge">
<title>key 38307
bias &#45;0.282
h_scaling 0.984
output 0.609&#45;&gt;key 38307
bias &#45;0.282
h_scaling 0.984
output 0.609</title>
<path fill="none" stroke="red" stroke-width="0.1" d="M274.58,-772.05C286.14,-770.17 294.28,-765.07 294.28,-756.76 294.28,-751.04 290.43,-746.84 284.27,-744.17"/>
<polygon fill="red" stroke="red" stroke-width="0.1" points="285.16,-740.78 274.58,-741.46 283.27,-747.52 285.16,-740.78"/>
<text text-anchor="middle" x="308.28" y="-754.56" font-family="Times,serif" font-size="9.00">0.690</text>
</g>
<!-- key 38307
bias &#45;0.282
h_scaling 0.984
output 0.609&#45;&gt;key 16367
bias &#45;0.020
h_scaling 0.577
output 0.675 -->
<g id="edge8" class="edge">
<title>key 38307
bias &#45;0.282
h_scaling 0.984
output 0.609&#45;&gt;key 16367
bias &#45;0.020
h_scaling 0.577
output 0.675</title>
<path fill="none" stroke="blue" stroke-width="0.1" d="M192.7,-695.85C188.17,-682.21 183.31,-667.61 178.65,-653.63"/>
<polygon fill="blue" stroke="blue" stroke-width="0.1" points="181.95,-652.44 175.47,-644.06 175.3,-654.65 181.95,-652.44"/>
<text text-anchor="middle" x="199.14" y="-667.92" font-family="Times,serif" font-size="9.00">&#45;0.780</text>
</g>
<!-- key 16367
bias &#45;0.020
h_scaling 0.577
output 0.675&#45;&gt;output
bias &#45;0.449
h_scaling 0.908
output 0.004 -->
<g id="edge10" class="edge">
<title>key 16367
bias &#45;0.020
h_scaling 0.577
output 0.675&#45;&gt;output
bias &#45;0.449
h_scaling 0.908
output 0.004</title>
<path fill="none" stroke="blue" stroke-width="0.1" d="M170.19,-521.36C187.02,-440.68 209.23,-294.64 182.64,-173.28 179.36,-158.31 173.81,-142.93 167.58,-128.64"/>
<polygon fill="blue" stroke="blue" stroke-width="0.1" points="170.72,-127.08 163.4,-119.41 164.34,-129.97 170.72,-127.08"/>
<text text-anchor="middle" x="210.14" y="-321.36" font-family="Times,serif" font-size="9.00">&#45;1.000</text>
</g>
<!-- key 16367
bias &#45;0.020
h_scaling 0.577
output 0.675&#45;&gt;key 5665
bias &#45;0.063
h_scaling 0.748
output 0.020 -->
<g id="edge3" class="edge">
<title>key 16367
bias &#45;0.020
h_scaling 0.577
output 0.675&#45;&gt;key 5665
bias &#45;0.063
h_scaling 0.748
output 0.020</title>
<path fill="none" stroke="blue" stroke-width="0.1" d="M139.4,-521.67C123.49,-462.07 99.25,-371.28 82.49,-308.52"/>
<polygon fill="blue" stroke="blue" stroke-width="0.1" points="85.83,-307.46 79.87,-298.7 79.07,-309.26 85.83,-307.46"/>
<text text-anchor="middle" x="141.14" y="-408" font-family="Times,serif" font-size="9.00">&#45;0.989</text>
</g>
<!-- key 16367
bias &#45;0.020
h_scaling 0.577
output 0.675&#45;&gt;key 16367
bias &#45;0.020
h_scaling 0.577
output 0.675 -->
<g id="edge4" class="edge">
<title>key 16367
bias &#45;0.020
h_scaling 0.577
output 0.675&#45;&gt;key 16367
bias &#45;0.020
h_scaling 0.577
output 0.675</title>
<path fill="none" stroke="red" stroke-width="0.1" d="M217.58,-598.77C229.14,-596.89 237.28,-591.79 237.28,-583.48 237.28,-577.76 233.43,-573.56 227.27,-570.89"/>
<polygon fill="red" stroke="red" stroke-width="0.1" points="228.16,-567.5 217.58,-568.18 226.27,-574.24 228.16,-567.5"/>
<text text-anchor="middle" x="251.28" y="-581.28" font-family="Times,serif" font-size="9.00">0.840</text>
</g>
<!-- key 16367
bias &#45;0.020
h_scaling 0.577
output 0.675&#45;&gt;key 186159
bias &#45;0.886
h_scaling 0.554
output 0.042 -->
<g id="edge15" class="edge">
<title>key 16367
bias &#45;0.020
h_scaling 0.577
output 0.675&#45;&gt;key 186159
bias &#45;0.886
h_scaling 0.554
output 0.042</title>
<path fill="none" stroke="red" stroke-width="0.1" d="M195.95,-533.85C213.11,-513.15 233.24,-488.88 251.03,-467.42"/>
<polygon fill="red" stroke="red" stroke-width="0.1" points="253.79,-469.58 257.47,-459.65 248.4,-465.11 253.79,-469.58"/>
<text text-anchor="middle" x="240.64" y="-494.64" font-family="Times,serif" font-size="9.00">0.396</text>
</g>
<!-- key 186159
bias &#45;0.886
h_scaling 0.554
output 0.042&#45;&gt;key 5665
bias &#45;0.063
h_scaling 0.748
output 0.020 -->
<g id="edge13" class="edge">
<title>key 186159
bias &#45;0.886
h_scaling 0.554
output 0.042&#45;&gt;key 5665
bias &#45;0.063
h_scaling 0.748
output 0.020</title>
<path fill="none" stroke="red" stroke-width="0.1" d="M267.47,-354.03C258.71,-341.28 248.32,-328.54 236.64,-318.56 206.84,-293.08 167.63,-273.93 134.07,-260.7"/>
<polygon fill="red" stroke="red" stroke-width="0.1" points="134.91,-257.27 124.32,-256.95 132.4,-263.8 134.91,-257.27"/>
<text text-anchor="middle" x="258.64" y="-321.36" font-family="Times,serif" font-size="9.00">0.699</text>
</g>
<!-- key 186159
bias &#45;0.886
h_scaling 0.554
output 0.042&#45;&gt;key 38307
bias &#45;0.282
h_scaling 0.984
output 0.609 -->
<g id="edge14" class="edge">
<title>key 186159
bias &#45;0.886
h_scaling 0.554
output 0.042&#45;&gt;key 38307
bias &#45;0.282
h_scaling 0.984
output 0.609</title>
<path fill="none" stroke="red" stroke-width="0.1" d="M298.61,-473.97C297.68,-522.35 292.69,-590.35 274.64,-647.12 269.47,-663.38 261.63,-679.89 253.25,-694.97"/>
<polygon fill="red" stroke="red" stroke-width="0.1" points="250.2,-693.26 248.27,-703.67 256.27,-696.73 250.2,-693.26"/>
<text text-anchor="middle" x="309.64" y="-581.28" font-family="Times,serif" font-size="9.00">0.357</text>
</g>
</g>
</svg>
