<?xml version="1.0" encoding="UTF-8" standalone="no"?>
<!DOCTYPE svg PUBLIC "-//W3C//DTD SVG 1.1//EN"
 "http://www.w3.org/Graphics/SVG/1.1/DTD/svg11.dtd">
<!-- Generated by graphviz version 2.43.0 (0)
 -->
<!-- Title: %3 Pages: 1 -->
<svg width="512pt" height="729pt"
 viewBox="0.00 0.00 512.00 729.12" xmlns="http://www.w3.org/2000/svg" xmlns:xlink="http://www.w3.org/1999/xlink">
<g id="graph0" class="graph" transform="scale(1 1) rotate(0) translate(4 725.12)">
<title>%3</title>
<polygon fill="white" stroke="transparent" points="-4,4 -4,-725.12 508,-725.12 508,4 -4,4"/>
<!-- ready
output 0.000 -->
<g id="node1" class="node">
<title>ready
output 0.000</title>
<polygon fill="yellow" stroke="black" points="94.5,-721.12 17.5,-721.12 17.5,-693.12 94.5,-693.12 94.5,-721.12"/>
<text text-anchor="middle" x="56" y="-709.92" font-family="Times,serif" font-size="9.00">ready</text>
<text text-anchor="middle" x="56" y="-699.92" font-family="Times,serif" font-size="9.00">output 0.000</text>
</g>
<!-- key 7184
bias &#45;0.116
h_scaling 0.962
output 0.907 -->
<g id="node4" class="node">
<title>key 7184
bias &#45;0.116
h_scaling 0.962
output 0.907</title>
<ellipse fill="white" stroke="black" cx="281" cy="-583.48" rx="63.78" ry="63.78"/>
<text text-anchor="middle" x="281" y="-596.28" font-family="Times,serif" font-size="9.00">key 7184</text>
<text text-anchor="middle" x="281" y="-586.28" font-family="Times,serif" font-size="9.00">bias &#45;0.116</text>
<text text-anchor="middle" x="281" y="-576.28" font-family="Times,serif" font-size="9.00">h_scaling 0.962</text>
<text text-anchor="middle" x="281" y="-566.28" font-family="Times,serif" font-size="9.00">output 0.907</text>
</g>
<!-- ready
output 0.000&#45;&gt;key 7184
bias &#45;0.116
h_scaling 0.962
output 0.907 -->
<g id="edge4" class="edge">
<title>ready
output 0.000&#45;&gt;key 7184
bias &#45;0.116
h_scaling 0.962
output 0.907</title>
<path fill="none" stroke="blue" stroke-width="0.81" d="M80.08,-693.1C112.28,-675.69 170.6,-644.16 216.14,-619.54"/>
<polygon fill="blue" stroke="blue" stroke-width="0.81" points="217.93,-622.55 225.07,-614.72 214.6,-616.39 217.93,-622.55"/>
<text text-anchor="middle" x="143.5" y="-667.92" font-family="Times,serif" font-size="9.00">&#45;0.238</text>
</g>
<!-- key 18515
bias &#45;0.440
h_scaling 0.396
output 0.305 -->
<g id="node5" class="node">
<title>key 18515
bias &#45;0.440
h_scaling 0.396
output 0.305</title>
<ellipse fill="white" stroke="black" cx="104" cy="-236.92" rx="63.78" ry="63.78"/>
<text text-anchor="middle" x="104" y="-249.72" font-family="Times,serif" font-size="9.00">key 18515</text>
<text text-anchor="middle" x="104" y="-239.72" font-family="Times,serif" font-size="9.00">bias &#45;0.440</text>
<text text-anchor="middle" x="104" y="-229.72" font-family="Times,serif" font-size="9.00">h_scaling 0.396</text>
<text text-anchor="middle" x="104" y="-219.72" font-family="Times,serif" font-size="9.00">output 0.305</text>
</g>
<!-- ready
output 0.000&#45;&gt;key 18515
bias &#45;0.440
h_scaling 0.396
output 0.305 -->
<g id="edge5" class="edge">
<title>ready
output 0.000&#45;&gt;key 18515
bias &#45;0.440
h_scaling 0.396
output 0.305</title>
<path fill="none" stroke="red" stroke-width="1.01" d="M56.74,-693.05C58.7,-659.56 64.37,-567.93 72,-491.84 78.15,-430.52 87.03,-361.11 93.87,-310.38"/>
<polygon fill="red" stroke="red" stroke-width="1.01" points="97.38,-310.55 95.26,-300.17 90.45,-309.61 97.38,-310.55"/>
<text text-anchor="middle" x="86" y="-494.64" font-family="Times,serif" font-size="9.00">0.620</text>
</g>
<!-- key 117952
bias 0.037
h_scaling 0.241
output 0.030 -->
<g id="node6" class="node">
<title>key 117952
bias 0.037
h_scaling 0.241
output 0.030</title>
<ellipse fill="white" stroke="black" cx="314" cy="-63.64" rx="63.78" ry="63.78"/>
<text text-anchor="middle" x="314" y="-76.44" font-family="Times,serif" font-size="9.00">key 117952</text>
<text text-anchor="middle" x="314" y="-66.44" font-family="Times,serif" font-size="9.00">bias 0.037</text>
<text text-anchor="middle" x="314" y="-56.44" font-family="Times,serif" font-size="9.00">h_scaling 0.241</text>
<text text-anchor="middle" x="314" y="-46.44" font-family="Times,serif" font-size="9.00">output 0.030</text>
</g>
<!-- ready
output 0.000&#45;&gt;key 117952
bias 0.037
h_scaling 0.241
output 0.030 -->
<g id="edge13" class="edge">
<title>ready
output 0.000&#45;&gt;key 117952
bias 0.037
h_scaling 0.241
output 0.030</title>
<path fill="none" stroke="red" stroke-width="1.21" d="M45.2,-692.81C28.93,-671.38 0,-627.25 0,-584.48 0,-584.48 0,-584.48 0,-235.92 0,-126.88 147.74,-86.84 240.54,-72.44"/>
<polygon fill="red" stroke="red" stroke-width="1.21" points="241.08,-75.9 250.46,-70.97 240.05,-68.98 241.08,-75.9"/>
<text text-anchor="middle" x="14" y="-408" font-family="Times,serif" font-size="9.00">0.564</text>
</g>
<!-- go
output 0.000 -->
<g id="node2" class="node">
<title>go
output 0.000</title>
<polygon fill="green" stroke="black" points="319.5,-721.12 242.5,-721.12 242.5,-693.12 319.5,-693.12 319.5,-721.12"/>
<text text-anchor="middle" x="281" y="-709.92" font-family="Times,serif" font-size="9.00">go</text>
<text text-anchor="middle" x="281" y="-699.92" font-family="Times,serif" font-size="9.00">output 0.000</text>
</g>
<!-- go
output 0.000&#45;&gt;key 7184
bias &#45;0.116
h_scaling 0.962
output 0.907 -->
<g id="edge2" class="edge">
<title>go
output 0.000&#45;&gt;key 7184
bias &#45;0.116
h_scaling 0.962
output 0.907</title>
<path fill="none" stroke="red" stroke-width="2.99" d="M281,-693.1C281,-684.02 281,-671.11 281,-657.35"/>
<polygon fill="red" stroke="red" stroke-width="2.99" points="284.5,-657.21 281,-647.21 277.5,-657.21 284.5,-657.21"/>
<text text-anchor="middle" x="295" y="-667.92" font-family="Times,serif" font-size="9.00">1.734</text>
</g>
<!-- go
output 0.000&#45;&gt;key 18515
bias &#45;0.440
h_scaling 0.396
output 0.305 -->
<g id="edge9" class="edge">
<title>go
output 0.000&#45;&gt;key 18515
bias &#45;0.440
h_scaling 0.396
output 0.305</title>
<path fill="none" stroke="blue" stroke-width="0.74" d="M259.3,-692.97C243.28,-682.31 221.92,-666.01 208,-647.12 158.83,-580.38 160.56,-553.88 139,-473.84 124.55,-420.2 115.64,-357.99 110.42,-310.92"/>
<polygon fill="blue" stroke="blue" stroke-width="0.74" points="113.88,-310.38 109.33,-300.82 106.92,-311.13 113.88,-310.38"/>
<text text-anchor="middle" x="161.5" y="-494.64" font-family="Times,serif" font-size="9.00">&#45;0.214</text>
</g>
<!-- go
output 0.000&#45;&gt;key 117952
bias 0.037
h_scaling 0.241
output 0.030 -->
<g id="edge14" class="edge">
<title>go
output 0.000&#45;&gt;key 117952
bias 0.037
h_scaling 0.241
output 0.030</title>
<path fill="none" stroke="blue" stroke-width="3.08" d="M319.85,-699.5C375.96,-687.48 473,-656.29 473,-584.48 473,-584.48 473,-584.48 473,-235.92 473,-177.22 422.22,-130.16 378.05,-100.34"/>
<polygon fill="blue" stroke="blue" stroke-width="3.08" points="379.89,-97.36 369.61,-94.79 376.04,-103.21 379.89,-97.36"/>
<text text-anchor="middle" x="488.5" y="-408" font-family="Times,serif" font-size="9.00">&#45;0.992</text>
</g>
<!-- output
bias &#45;0.204
h_scaling 0.938
output 0.005 -->
<g id="node3" class="node">
<title>output
bias &#45;0.204
h_scaling 0.938
output 0.005</title>
<ellipse fill="lightblue" stroke="black" cx="281" cy="-410.2" rx="63.78" ry="63.78"/>
<text text-anchor="middle" x="281" y="-423" font-family="Times,serif" font-size="9.00">output</text>
<text text-anchor="middle" x="281" y="-413" font-family="Times,serif" font-size="9.00">bias &#45;0.204</text>
<text text-anchor="middle" x="281" y="-403" font-family="Times,serif" font-size="9.00">h_scaling 0.938</text>
<text text-anchor="middle" x="281" y="-393" font-family="Times,serif" font-size="9.00">output 0.005</text>
</g>
<!-- output
bias &#45;0.204
h_scaling 0.938
output 0.005&#45;&gt;key 18515
bias &#45;0.440
h_scaling 0.396
output 0.305 -->
<g id="edge8" class="edge">
<title>output
bias &#45;0.204
h_scaling 0.938
output 0.005&#45;&gt;key 18515
bias &#45;0.440
h_scaling 0.396
output 0.305</title>
<path fill="none" stroke="blue" stroke-width="0.42" d="M235.42,-365.09C211.37,-341.81 181.73,-313.14 156.7,-288.91"/>
<polygon fill="blue" stroke="blue" stroke-width="0.42" points="159.05,-286.32 149.43,-281.88 154.18,-291.35 159.05,-286.32"/>
<text text-anchor="middle" x="207.5" y="-321.36" font-family="Times,serif" font-size="9.00">&#45;0.106</text>
</g>
<!-- output
bias &#45;0.204
h_scaling 0.938
output 0.005&#45;&gt;key 117952
bias 0.037
h_scaling 0.241
output 0.030 -->
<g id="edge16" class="edge">
<title>output
bias &#45;0.204
h_scaling 0.938
output 0.005&#45;&gt;key 117952
bias 0.037
h_scaling 0.241
output 0.030</title>
<path fill="none" stroke="blue" stroke-width="0.88" d="M287.4,-346.87C288.93,-331.72 290.54,-315.56 292,-300.56 297.32,-245.82 303.09,-183.92 307.38,-137.25"/>
<polygon fill="blue" stroke="blue" stroke-width="0.88" points="310.87,-137.52 308.3,-127.24 303.9,-136.88 310.87,-137.52"/>
<text text-anchor="middle" x="318.5" y="-234.72" font-family="Times,serif" font-size="9.00">&#45;0.258</text>
</g>
<!-- key 7184
bias &#45;0.116
h_scaling 0.962
output 0.907&#45;&gt;output
bias &#45;0.204
h_scaling 0.938
output 0.005 -->
<g id="edge1" class="edge">
<title>key 7184
bias &#45;0.116
h_scaling 0.962
output 0.907&#45;&gt;output
bias &#45;0.204
h_scaling 0.938
output 0.005</title>
<path fill="none" stroke="blue" stroke-width="3.1" d="M281,-519.67C281,-508.15 281,-496.04 281,-484.25"/>
<polygon fill="blue" stroke="blue" stroke-width="3.1" points="284.5,-484 281,-474 277.5,-484 284.5,-484"/>
<text text-anchor="middle" x="296.5" y="-494.64" font-family="Times,serif" font-size="9.00">&#45;1.000</text>
</g>
<!-- key 7184
bias &#45;0.116
h_scaling 0.962
output 0.907&#45;&gt;key 7184
bias &#45;0.116
h_scaling 0.962
output 0.907 -->
<g id="edge3" class="edge">
<title>key 7184
bias &#45;0.116
h_scaling 0.962
output 0.907&#45;&gt;key 7184
bias &#45;0.116
h_scaling 0.962
output 0.907</title>
<path fill="none" stroke="red" stroke-width="2.62" d="M342.94,-598.77C354.5,-596.89 362.64,-591.79 362.64,-583.48 362.64,-577.76 358.79,-573.56 352.63,-570.89"/>
<polygon fill="red" stroke="red" stroke-width="2.62" points="353.52,-567.5 342.94,-568.18 351.63,-574.24 353.52,-567.5"/>
<text text-anchor="middle" x="376.64" y="-581.28" font-family="Times,serif" font-size="9.00">1.139</text>
</g>
<!-- key 7184
bias &#45;0.116
h_scaling 0.962
output 0.907&#45;&gt;key 117952
bias 0.037
h_scaling 0.241
output 0.030 -->
<g id="edge11" class="edge">
<title>key 7184
bias &#45;0.116
h_scaling 0.962
output 0.907&#45;&gt;key 117952
bias 0.037
h_scaling 0.241
output 0.030</title>
<path fill="none" stroke="blue" stroke-width="3.1" d="M336.83,-552.74C355.89,-539.71 375.33,-522.6 387,-501.84 424.93,-434.34 400.99,-405.88 405,-328.56 409.23,-246.82 420.35,-220.03 387,-145.28 382.19,-134.5 375.38,-124.18 367.83,-114.73"/>
<polygon fill="blue" stroke="blue" stroke-width="3.1" points="370.45,-112.42 361.34,-107.01 365.1,-116.92 370.45,-112.42"/>
<text text-anchor="middle" x="420.5" y="-321.36" font-family="Times,serif" font-size="9.00">&#45;1.000</text>
</g>
<!-- key 18515
bias &#45;0.440
h_scaling 0.396
output 0.305&#45;&gt;key 7184
bias &#45;0.116
h_scaling 0.962
output 0.907 -->
<g id="edge6" class="edge">
<title>key 18515
bias &#45;0.440
h_scaling 0.396
output 0.305&#45;&gt;key 7184
bias &#45;0.116
h_scaling 0.962
output 0.907</title>
<path fill="none" stroke="blue" stroke-width="1.89" d="M128.08,-296.2C130.88,-303.67 133.6,-311.26 136,-318.56 158.31,-386.36 142.1,-411.57 177,-473.84 189.45,-496.06 207.52,-517.12 225.11,-534.68"/>
<polygon fill="blue" stroke="blue" stroke-width="1.89" points="223,-537.51 232.61,-541.99 227.89,-532.5 223,-537.51"/>
<text text-anchor="middle" x="192.5" y="-408" font-family="Times,serif" font-size="9.00">&#45;0.598</text>
</g>
<!-- key 18515
bias &#45;0.440
h_scaling 0.396
output 0.305&#45;&gt;key 18515
bias &#45;0.440
h_scaling 0.396
output 0.305 -->
<g id="edge7" class="edge">
<title>key 18515
bias &#45;0.440
h_scaling 0.396
output 0.305&#45;&gt;key 18515
bias &#45;0.440
h_scaling 0.396
output 0.305</title>
<path fill="none" stroke="red" stroke-width="2.76" d="M165.94,-252.22C177.5,-250.33 185.64,-245.23 185.64,-236.92 185.64,-231.2 181.79,-227.01 175.63,-224.33"/>
<polygon fill="red" stroke="red" stroke-width="2.76" points="176.52,-220.94 165.94,-221.62 174.63,-227.68 176.52,-220.94"/>
<text text-anchor="middle" x="199.64" y="-234.72" font-family="Times,serif" font-size="9.00">0.935</text>
</g>
<!-- key 18515
bias &#45;0.440
h_scaling 0.396
output 0.305&#45;&gt;key 117952
bias 0.037
h_scaling 0.241
output 0.030 -->
<g id="edge15" class="edge">
<title>key 18515
bias &#45;0.440
h_scaling 0.396
output 0.305&#45;&gt;key 117952
bias 0.037
h_scaling 0.241
output 0.030</title>
<path fill="none" stroke="red" stroke-width="1.55" d="M151.06,-193.73C168.7,-178.23 189.06,-160.71 208,-145.28 223.04,-133.03 239.6,-120.15 255.07,-108.37"/>
<polygon fill="red" stroke="red" stroke-width="1.55" points="257.2,-111.15 263.05,-102.32 252.97,-105.57 257.2,-111.15"/>
<text text-anchor="middle" x="222" y="-148.08" font-family="Times,serif" font-size="9.00">0.512</text>
</g>
<!-- key 117952
bias 0.037
h_scaling 0.241
output 0.030&#45;&gt;output
bias &#45;0.204
h_scaling 0.938
output 0.005 -->
<g id="edge10" class="edge">
<title>key 117952
bias 0.037
h_scaling 0.241
output 0.030&#45;&gt;output
bias &#45;0.204
h_scaling 0.938
output 0.005</title>
<path fill="none" stroke="red" stroke-width="3.1" d="M283.24,-119.41C275.37,-136.18 268,-155.03 264,-173.28 252.09,-227.65 257.56,-290.59 265.34,-337.78"/>
<polygon fill="red" stroke="red" stroke-width="3.1" points="261.94,-338.64 267.09,-347.9 268.84,-337.45 261.94,-338.64"/>
<text text-anchor="middle" x="278" y="-234.72" font-family="Times,serif" font-size="9.00">1.076</text>
</g>
<!-- key 117952
bias 0.037
h_scaling 0.241
output 0.030&#45;&gt;key 7184
bias &#45;0.116
h_scaling 0.962
output 0.907 -->
<g id="edge17" class="edge">
<title>key 117952
bias 0.037
h_scaling 0.241
output 0.030&#45;&gt;key 7184
bias &#45;0.116
h_scaling 0.962
output 0.907</title>
<path fill="none" stroke="blue" stroke-width="0.18" d="M334.01,-124.34C357.98,-205.32 390.62,-353.67 354,-473.84 348.44,-492.09 338.67,-510.05 328.06,-525.95"/>
<polygon fill="blue" stroke="blue" stroke-width="0.18" points="324.91,-524.35 322.1,-534.56 330.67,-528.33 324.91,-524.35"/>
<text text-anchor="middle" x="384.5" y="-321.36" font-family="Times,serif" font-size="9.00">&#45;0.026</text>
</g>
<!-- key 117952
bias 0.037
h_scaling 0.241
output 0.030&#45;&gt;key 117952
bias 0.037
h_scaling 0.241
output 0.030 -->
<g id="edge12" class="edge">
<title>key 117952
bias 0.037
h_scaling 0.241
output 0.030&#45;&gt;key 117952
bias 0.037
h_scaling 0.241
output 0.030</title>
<path fill="none" stroke="red" stroke-width="2.14" d="M375.94,-78.94C387.5,-77.05 395.64,-71.95 395.64,-63.64 395.64,-57.92 391.79,-53.73 385.63,-51.05"/>
<polygon fill="red" stroke="red" stroke-width="2.14" points="386.52,-47.66 375.94,-48.34 384.63,-54.4 386.52,-47.66"/>
<text text-anchor="middle" x="409.64" y="-61.44" font-family="Times,serif" font-size="9.00">0.701</text>
</g>
</g>
</svg>
