<?xml version="1.0" encoding="UTF-8" standalone="no"?>
<!DOCTYPE svg PUBLIC "-//W3C//DTD SVG 1.1//EN"
 "http://www.w3.org/Graphics/SVG/1.1/DTD/svg11.dtd">
<!-- Generated by graphviz version 2.43.0 (0)
 -->
<!-- Title: %3 Pages: 1 -->
<svg width="532pt" height="1066pt"
 viewBox="0.00 0.00 532.47 1065.68" xmlns="http://www.w3.org/2000/svg" xmlns:xlink="http://www.w3.org/1999/xlink">
<g id="graph0" class="graph" transform="scale(1 1) rotate(0) translate(4 1061.68)">
<title>%3</title>
<polygon fill="white" stroke="transparent" points="-4,4 -4,-1061.68 528.47,-1061.68 528.47,4 -4,4"/>
<!-- ready -->
<g id="node1" class="node">
<title>ready</title>
<polygon fill="yellow" stroke="black" points="312.97,-1057.68 269.97,-1057.68 269.97,-1039.68 312.97,-1039.68 312.97,-1057.68"/>
<text text-anchor="middle" x="291.47" y="-1046.48" font-family="Times,serif" font-size="9.00">ready</text>
</g>
<!-- key 79366
bias &#45;0.450
h_scaling 0.474 -->
<g id="node4" class="node">
<title>key 79366
bias &#45;0.450
h_scaling 0.474</title>
<ellipse fill="white" stroke="black" cx="401.47" cy="-930.04" rx="63.78" ry="63.78"/>
<text text-anchor="middle" x="401.47" y="-937.84" font-family="Times,serif" font-size="9.00">key 79366</text>
<text text-anchor="middle" x="401.47" y="-927.84" font-family="Times,serif" font-size="9.00">bias &#45;0.450</text>
<text text-anchor="middle" x="401.47" y="-917.84" font-family="Times,serif" font-size="9.00">h_scaling 0.474</text>
</g>
<!-- ready&#45;&gt;key 79366
bias &#45;0.450
h_scaling 0.474 -->
<g id="edge10" class="edge">
<title>ready&#45;&gt;key 79366
bias &#45;0.450
h_scaling 0.474</title>
<path fill="none" stroke="red" stroke-width="2.97" d="M299.03,-1039.66C309.93,-1028.1 330.97,-1005.79 351.16,-984.38"/>
<polygon fill="red" stroke="red" stroke-width="2.97" points="353.93,-986.54 358.25,-976.87 348.84,-981.74 353.93,-986.54"/>
<text text-anchor="middle" x="337.47" y="-1014.48" font-family="Times,serif" font-size="9.00">0.958</text>
</g>
<!-- key 5867
bias 0.439
h_scaling 0.813 -->
<g id="node5" class="node">
<title>key 5867
bias 0.439
h_scaling 0.813</title>
<ellipse fill="white" stroke="black" cx="339.47" cy="-756.76" rx="63.78" ry="63.78"/>
<text text-anchor="middle" x="339.47" y="-764.56" font-family="Times,serif" font-size="9.00">key 5867</text>
<text text-anchor="middle" x="339.47" y="-754.56" font-family="Times,serif" font-size="9.00">bias 0.439</text>
<text text-anchor="middle" x="339.47" y="-744.56" font-family="Times,serif" font-size="9.00">h_scaling 0.813</text>
</g>
<!-- ready&#45;&gt;key 5867
bias 0.439
h_scaling 0.813 -->
<g id="edge2" class="edge">
<title>ready&#45;&gt;key 5867
bias 0.439
h_scaling 0.813</title>
<path fill="none" stroke="red" stroke-width="0.66" d="M291.03,-1039.62C289.82,-1014 287.32,-932.21 300.47,-866.4 303.17,-852.88 307.23,-838.78 311.74,-825.38"/>
<polygon fill="red" stroke="red" stroke-width="0.66" points="315.1,-826.37 315.08,-815.78 308.49,-824.07 315.1,-826.37"/>
<text text-anchor="middle" x="314.47" y="-927.84" font-family="Times,serif" font-size="9.00">0.186</text>
</g>
<!-- key 1844
bias 0.166
h_scaling 0.951 -->
<g id="node7" class="node">
<title>key 1844
bias 0.166
h_scaling 0.951</title>
<ellipse fill="white" stroke="black" cx="178.47" cy="-583.48" rx="63.78" ry="63.78"/>
<text text-anchor="middle" x="178.47" y="-591.28" font-family="Times,serif" font-size="9.00">key 1844</text>
<text text-anchor="middle" x="178.47" y="-581.28" font-family="Times,serif" font-size="9.00">bias 0.166</text>
<text text-anchor="middle" x="178.47" y="-571.28" font-family="Times,serif" font-size="9.00">h_scaling 0.951</text>
</g>
<!-- ready&#45;&gt;key 1844
bias 0.166
h_scaling 0.951 -->
<g id="edge17" class="edge">
<title>ready&#45;&gt;key 1844
bias 0.166
h_scaling 0.951</title>
<path fill="none" stroke="blue" stroke-width="1.25" d="M289.51,-1039.64C278.53,-994.64 224.18,-771.86 195.8,-655.51"/>
<polygon fill="blue" stroke="blue" stroke-width="1.25" points="199.15,-654.51 193.38,-645.62 192.35,-656.17 199.15,-654.51"/>
<text text-anchor="middle" x="258.97" y="-841.2" font-family="Times,serif" font-size="9.00">&#45;0.382</text>
</g>
<!-- go -->
<g id="node2" class="node">
<title>go</title>
<polygon fill="green" stroke="black" points="100.47,-1057.68 72.47,-1057.68 72.47,-1039.68 100.47,-1039.68 100.47,-1057.68"/>
<text text-anchor="middle" x="86.47" y="-1046.48" font-family="Times,serif" font-size="9.00">go</text>
</g>
<!-- go&#45;&gt;key 5867
bias 0.439
h_scaling 0.813 -->
<g id="edge4" class="edge">
<title>go&#45;&gt;key 5867
bias 0.439
h_scaling 0.813</title>
<path fill="none" stroke="blue" stroke-width="2.71" d="M100.64,-1040.32C116.83,-1031.29 143.18,-1014.56 159.47,-993.68 205.38,-934.82 176.7,-896.57 223.47,-838.4 237.59,-820.82 256.53,-805.47 275,-793.02"/>
<polygon fill="blue" stroke="blue" stroke-width="2.71" points="276.99,-795.9 283.44,-787.5 273.16,-790.04 276.99,-795.9"/>
<text text-anchor="middle" x="220.97" y="-927.84" font-family="Times,serif" font-size="9.00">&#45;0.870</text>
</g>
<!-- go&#45;&gt;key 1844
bias 0.166
h_scaling 0.951 -->
<g id="edge1" class="edge">
<title>go&#45;&gt;key 1844
bias 0.166
h_scaling 0.951</title>
<path fill="none" stroke="red" stroke-width="3.1" d="M72.29,-1042.01C54.77,-1034.13 25.75,-1018.03 13.47,-993.68 -12,-943.16 6.47,-922.53 13.47,-866.4 24.89,-774.82 12.23,-741.2 64.47,-665.12 76.97,-646.91 95.01,-631.45 113.06,-619.09"/>
<polygon fill="red" stroke="red" stroke-width="3.1" points="115.47,-621.69 121.9,-613.27 111.62,-615.84 115.47,-621.69"/>
<text text-anchor="middle" x="30.47" y="-841.2" font-family="Times,serif" font-size="9.00">1.000</text>
</g>
<!-- key 62716
bias &#45;0.352
h_scaling 0.355 -->
<g id="node8" class="node">
<title>key 62716
bias &#45;0.352
h_scaling 0.355</title>
<ellipse fill="white" stroke="black" cx="86.47" cy="-930.04" rx="63.78" ry="63.78"/>
<text text-anchor="middle" x="86.47" y="-937.84" font-family="Times,serif" font-size="9.00">key 62716</text>
<text text-anchor="middle" x="86.47" y="-927.84" font-family="Times,serif" font-size="9.00">bias &#45;0.352</text>
<text text-anchor="middle" x="86.47" y="-917.84" font-family="Times,serif" font-size="9.00">h_scaling 0.355</text>
</g>
<!-- go&#45;&gt;key 62716
bias &#45;0.352
h_scaling 0.355 -->
<g id="edge8" class="edge">
<title>go&#45;&gt;key 62716
bias &#45;0.352
h_scaling 0.355</title>
<path fill="none" stroke="red" stroke-width="2.45" d="M86.47,-1039.66C86.47,-1031.63 86.47,-1018.41 86.47,-1003.91"/>
<polygon fill="red" stroke="red" stroke-width="2.45" points="89.97,-1003.71 86.47,-993.71 82.97,-1003.71 89.97,-1003.71"/>
<text text-anchor="middle" x="100.47" y="-1014.48" font-family="Times,serif" font-size="9.00">0.783</text>
</g>
<!-- output
bias 0.541
h_scaling 0.048 -->
<g id="node3" class="node">
<title>output
bias 0.541
h_scaling 0.048</title>
<ellipse fill="lightblue" stroke="black" cx="178.47" cy="-410.2" rx="63.78" ry="63.78"/>
<text text-anchor="middle" x="178.47" y="-418" font-family="Times,serif" font-size="9.00">output</text>
<text text-anchor="middle" x="178.47" y="-408" font-family="Times,serif" font-size="9.00">bias 0.541</text>
<text text-anchor="middle" x="178.47" y="-398" font-family="Times,serif" font-size="9.00">h_scaling 0.048</text>
</g>
<!-- key 17231
bias &#45;0.348
h_scaling 0.989 -->
<g id="node6" class="node">
<title>key 17231
bias &#45;0.348
h_scaling 0.989</title>
<ellipse fill="white" stroke="black" cx="285.47" cy="-236.92" rx="63.78" ry="63.78"/>
<text text-anchor="middle" x="285.47" y="-244.72" font-family="Times,serif" font-size="9.00">key 17231</text>
<text text-anchor="middle" x="285.47" y="-234.72" font-family="Times,serif" font-size="9.00">bias &#45;0.348</text>
<text text-anchor="middle" x="285.47" y="-224.72" font-family="Times,serif" font-size="9.00">h_scaling 0.989</text>
</g>
<!-- output
bias 0.541
h_scaling 0.048&#45;&gt;key 17231
bias &#45;0.348
h_scaling 0.989 -->
<g id="edge7" class="edge">
<title>output
bias 0.541
h_scaling 0.048&#45;&gt;key 17231
bias &#45;0.348
h_scaling 0.989</title>
<path fill="none" stroke="blue" stroke-width="2.72" d="M211.74,-355.94C222.76,-338.31 235.12,-318.52 246.52,-300.26"/>
<polygon fill="blue" stroke="blue" stroke-width="2.72" points="249.71,-301.77 252.04,-291.44 243.77,-298.06 249.71,-301.77"/>
<text text-anchor="middle" x="247.97" y="-321.36" font-family="Times,serif" font-size="9.00">&#45;0.874</text>
</g>
<!-- key 79366
bias &#45;0.450
h_scaling 0.474&#45;&gt;key 79366
bias &#45;0.450
h_scaling 0.474 -->
<g id="edge15" class="edge">
<title>key 79366
bias &#45;0.450
h_scaling 0.474&#45;&gt;key 79366
bias &#45;0.450
h_scaling 0.474</title>
<path fill="none" stroke="red" stroke-width="2.38" d="M463.41,-945.33C474.97,-943.45 483.11,-938.35 483.11,-930.04 483.11,-924.32 479.26,-920.12 473.1,-917.45"/>
<polygon fill="red" stroke="red" stroke-width="2.38" points="473.98,-914.06 463.41,-914.74 472.1,-920.8 473.98,-914.06"/>
<text text-anchor="middle" x="497.11" y="-927.84" font-family="Times,serif" font-size="9.00">0.761</text>
</g>
<!-- key 79366
bias &#45;0.450
h_scaling 0.474&#45;&gt;key 5867
bias 0.439
h_scaling 0.813 -->
<g id="edge11" class="edge">
<title>key 79366
bias &#45;0.450
h_scaling 0.474&#45;&gt;key 5867
bias 0.439
h_scaling 0.813</title>
<path fill="none" stroke="red" stroke-width="1.23" d="M386.83,-867.62C384.01,-857.75 380.87,-847.73 377.47,-838.4 375.69,-833.52 373.73,-828.54 371.66,-823.57"/>
<polygon fill="red" stroke="red" stroke-width="1.23" points="374.73,-821.85 367.57,-814.04 368.3,-824.61 374.73,-821.85"/>
<text text-anchor="middle" x="394.47" y="-841.2" font-family="Times,serif" font-size="9.00">0.376</text>
</g>
<!-- key 5867
bias 0.439
h_scaling 0.813&#45;&gt;output
bias 0.541
h_scaling 0.048 -->
<g id="edge21" class="edge">
<title>key 5867
bias 0.439
h_scaling 0.813&#45;&gt;output
bias 0.541
h_scaling 0.048</title>
<path fill="none" stroke="red" stroke-width="0.64" d="M339.16,-693C336.45,-643.24 326.98,-573.4 297.47,-519.84 283.28,-494.09 260.69,-471.17 238.98,-453.1"/>
<polygon fill="red" stroke="red" stroke-width="0.64" points="241.01,-450.24 231.04,-446.67 236.61,-455.68 241.01,-450.24"/>
<text text-anchor="middle" x="348.47" y="-581.28" font-family="Times,serif" font-size="9.00">0.181</text>
</g>
<!-- key 5867
bias 0.439
h_scaling 0.813&#45;&gt;key 79366
bias &#45;0.450
h_scaling 0.474 -->
<g id="edge20" class="edge">
<title>key 5867
bias 0.439
h_scaling 0.813&#45;&gt;key 79366
bias &#45;0.450
h_scaling 0.474</title>
<path fill="none" stroke="blue" stroke-width="0.21" d="M336.68,-820.57C337.64,-830.07 339.44,-839.62 342.47,-848.4 345.42,-856.95 349.62,-865.36 354.43,-873.33"/>
<polygon fill="blue" stroke="blue" stroke-width="0.21" points="351.52,-875.28 359.86,-881.8 357.41,-871.5 351.52,-875.28"/>
<text text-anchor="middle" x="357.97" y="-841.2" font-family="Times,serif" font-size="9.00">&#45;0.037</text>
</g>
<!-- key 5867
bias 0.439
h_scaling 0.813&#45;&gt;key 17231
bias &#45;0.348
h_scaling 0.989 -->
<g id="edge22" class="edge">
<title>key 5867
bias 0.439
h_scaling 0.813&#45;&gt;key 17231
bias &#45;0.348
h_scaling 0.989</title>
<path fill="none" stroke="blue" stroke-width="0.66" d="M357.18,-695.62C361.02,-679.97 364.52,-663.03 366.47,-647.12 373.34,-590.97 374.36,-575.85 366.47,-519.84 355.96,-445.24 330.55,-362.71 310.97,-306.33"/>
<polygon fill="blue" stroke="blue" stroke-width="0.66" points="314.24,-305.09 307.63,-296.81 307.64,-307.41 314.24,-305.09"/>
<text text-anchor="middle" x="378.97" y="-494.64" font-family="Times,serif" font-size="9.00">&#45;0.186</text>
</g>
<!-- key 5867
bias 0.439
h_scaling 0.813&#45;&gt;key 1844
bias 0.166
h_scaling 0.951 -->
<g id="edge3" class="edge">
<title>key 5867
bias 0.439
h_scaling 0.813&#45;&gt;key 1844
bias 0.166
h_scaling 0.951</title>
<path fill="none" stroke="blue" stroke-width="3.1" d="M297.06,-708.95C284.11,-694.8 269.78,-679.26 256.47,-665.12 247.94,-656.05 238.8,-646.49 229.9,-637.24"/>
<polygon fill="blue" stroke="blue" stroke-width="3.1" points="232.29,-634.67 222.82,-629.9 227.25,-639.53 232.29,-634.67"/>
<text text-anchor="middle" x="281.97" y="-667.92" font-family="Times,serif" font-size="9.00">&#45;1.000</text>
</g>
<!-- key 21406
bias 0.537
h_scaling 0.799 -->
<g id="node9" class="node">
<title>key 21406
bias 0.537
h_scaling 0.799</title>
<ellipse fill="white" stroke="black" cx="390.47" cy="-63.64" rx="63.78" ry="63.78"/>
<text text-anchor="middle" x="390.47" y="-71.44" font-family="Times,serif" font-size="9.00">key 21406</text>
<text text-anchor="middle" x="390.47" y="-61.44" font-family="Times,serif" font-size="9.00">bias 0.537</text>
<text text-anchor="middle" x="390.47" y="-51.44" font-family="Times,serif" font-size="9.00">h_scaling 0.799</text>
</g>
<!-- key 5867
bias 0.439
h_scaling 0.813&#45;&gt;key 21406
bias 0.537
h_scaling 0.799 -->
<g id="edge14" class="edge">
<title>key 5867
bias 0.439
h_scaling 0.813&#45;&gt;key 21406
bias 0.537
h_scaling 0.799</title>
<path fill="none" stroke="blue" stroke-width="2.92" d="M379.66,-706.95C402.45,-674.34 426.47,-629.34 426.47,-584.48 426.47,-584.48 426.47,-584.48 426.47,-235.92 426.47,-202.06 419.65,-165.22 411.94,-134.41"/>
<polygon fill="blue" stroke="blue" stroke-width="2.92" points="415.31,-133.44 409.42,-124.64 408.53,-135.19 415.31,-133.44"/>
<text text-anchor="middle" x="441.97" y="-408" font-family="Times,serif" font-size="9.00">&#45;0.938</text>
</g>
<!-- key 17231
bias &#45;0.348
h_scaling 0.989&#45;&gt;key 17231
bias &#45;0.348
h_scaling 0.989 -->
<g id="edge19" class="edge">
<title>key 17231
bias &#45;0.348
h_scaling 0.989&#45;&gt;key 17231
bias &#45;0.348
h_scaling 0.989</title>
<path fill="none" stroke="blue" stroke-width="3.09" d="M347.41,-252.22C358.97,-250.33 367.11,-245.23 367.11,-236.92 367.11,-231.2 363.26,-227.01 357.1,-224.33"/>
<polygon fill="blue" stroke="blue" stroke-width="3.09" points="357.98,-220.94 347.41,-221.62 356.1,-227.68 357.98,-220.94"/>
<text text-anchor="middle" x="382.61" y="-234.72" font-family="Times,serif" font-size="9.00">&#45;0.997</text>
</g>
<!-- key 17231
bias &#45;0.348
h_scaling 0.989&#45;&gt;key 21406
bias 0.537
h_scaling 0.799 -->
<g id="edge9" class="edge">
<title>key 17231
bias &#45;0.348
h_scaling 0.989&#45;&gt;key 21406
bias 0.537
h_scaling 0.799</title>
<path fill="none" stroke="blue" stroke-width="3.07" d="M318.4,-182.19C329.15,-164.66 341.18,-145.04 352.28,-126.93"/>
<polygon fill="blue" stroke="blue" stroke-width="3.07" points="355.41,-128.53 357.65,-118.17 349.44,-124.87 355.41,-128.53"/>
<text text-anchor="middle" x="352.97" y="-148.08" font-family="Times,serif" font-size="9.00">&#45;0.991</text>
</g>
<!-- key 1844
bias 0.166
h_scaling 0.951&#45;&gt;output
bias 0.541
h_scaling 0.048 -->
<g id="edge5" class="edge">
<title>key 1844
bias 0.166
h_scaling 0.951&#45;&gt;output
bias 0.541
h_scaling 0.048</title>
<path fill="none" stroke="blue" stroke-width="3.1" d="M178.47,-519.67C178.47,-508.15 178.47,-496.04 178.47,-484.25"/>
<polygon fill="blue" stroke="blue" stroke-width="3.1" points="181.97,-484 178.47,-474 174.97,-484 181.97,-484"/>
<text text-anchor="middle" x="193.97" y="-494.64" font-family="Times,serif" font-size="9.00">&#45;1.000</text>
</g>
<!-- key 1844
bias 0.166
h_scaling 0.951&#45;&gt;key 1844
bias 0.166
h_scaling 0.951 -->
<g id="edge12" class="edge">
<title>key 1844
bias 0.166
h_scaling 0.951&#45;&gt;key 1844
bias 0.166
h_scaling 0.951</title>
<path fill="none" stroke="red" stroke-width="2.39" d="M240.41,-598.77C251.97,-596.89 260.11,-591.79 260.11,-583.48 260.11,-577.76 256.26,-573.56 250.1,-570.89"/>
<polygon fill="red" stroke="red" stroke-width="2.39" points="250.98,-567.5 240.41,-568.18 249.1,-574.24 250.98,-567.5"/>
<text text-anchor="middle" x="274.11" y="-581.28" font-family="Times,serif" font-size="9.00">0.762</text>
</g>
<!-- key 62716
bias &#45;0.352
h_scaling 0.355&#45;&gt;output
bias 0.541
h_scaling 0.048 -->
<g id="edge16" class="edge">
<title>key 62716
bias &#45;0.352
h_scaling 0.355&#45;&gt;output
bias 0.541
h_scaling 0.048</title>
<path fill="none" stroke="blue" stroke-width="0.64" d="M79.15,-866.5C71.84,-784.57 66.6,-637.51 105.47,-519.84 111.45,-501.72 121.36,-483.81 131.98,-467.9"/>
<polygon fill="blue" stroke="blue" stroke-width="0.64" points="135.13,-469.51 137.93,-459.29 129.37,-465.53 135.13,-469.51"/>
<text text-anchor="middle" x="92.97" y="-667.92" font-family="Times,serif" font-size="9.00">&#45;0.181</text>
</g>
<!-- key 62716
bias &#45;0.352
h_scaling 0.355&#45;&gt;key 5867
bias 0.439
h_scaling 0.813 -->
<g id="edge13" class="edge">
<title>key 62716
bias &#45;0.352
h_scaling 0.355&#45;&gt;key 5867
bias 0.439
h_scaling 0.813</title>
<path fill="none" stroke="blue" stroke-width="2.42" d="M113.42,-872.02C121.17,-859.77 130.54,-847.71 141.47,-838.4 177.6,-807.58 227.08,-787.43 267.53,-774.97"/>
<polygon fill="blue" stroke="blue" stroke-width="2.42" points="268.76,-778.26 277.34,-772.05 266.76,-771.55 268.76,-778.26"/>
<text text-anchor="middle" x="156.97" y="-841.2" font-family="Times,serif" font-size="9.00">&#45;0.772</text>
</g>
<!-- key 21406
bias 0.537
h_scaling 0.799&#45;&gt;output
bias 0.541
h_scaling 0.048 -->
<g id="edge18" class="edge">
<title>key 21406
bias 0.537
h_scaling 0.799&#45;&gt;output
bias 0.541
h_scaling 0.048</title>
<path fill="none" stroke="blue" stroke-width="2.54" d="M328.2,-78.52C278.98,-93.11 213.42,-121.4 181.47,-173.28 151.32,-222.22 153.32,-288.4 161.29,-338.21"/>
<polygon fill="blue" stroke="blue" stroke-width="2.54" points="157.87,-338.99 163.01,-348.26 164.77,-337.81 157.87,-338.99"/>
<text text-anchor="middle" x="196.97" y="-234.72" font-family="Times,serif" font-size="9.00">&#45;0.813</text>
</g>
<!-- key 21406
bias 0.537
h_scaling 0.799&#45;&gt;key 5867
bias 0.439
h_scaling 0.813 -->
<g id="edge6" class="edge">
<title>key 21406
bias 0.537
h_scaling 0.799&#45;&gt;key 5867
bias 0.439
h_scaling 0.813</title>
<path fill="none" stroke="blue" stroke-width="2.29" d="M435.35,-109.04C463.1,-141.34 493.47,-187.69 493.47,-235.92 493.47,-584.48 493.47,-584.48 493.47,-584.48 493.47,-641.65 445.44,-688.38 403.02,-718.51"/>
<polygon fill="blue" stroke="blue" stroke-width="2.29" points="400.87,-715.74 394.63,-724.31 404.85,-721.5 400.87,-715.74"/>
<text text-anchor="middle" x="508.97" y="-408" font-family="Times,serif" font-size="9.00">&#45;0.729</text>
</g>
</g>
</svg>
