<?xml version="1.0" encoding="UTF-8" standalone="no"?>
<!DOCTYPE svg PUBLIC "-//W3C//DTD SVG 1.1//EN"
 "http://www.w3.org/Graphics/SVG/1.1/DTD/svg11.dtd">
<!-- Generated by graphviz version 2.43.0 (0)
 -->
<!-- Title: %3 Pages: 1 -->
<svg width="519pt" height="874pt"
 viewBox="0.00 0.00 519.00 874.40" xmlns="http://www.w3.org/2000/svg" xmlns:xlink="http://www.w3.org/1999/xlink">
<g id="graph0" class="graph" transform="scale(1 1) rotate(0) translate(4 870.4)">
<title>%3</title>
<polygon fill="white" stroke="transparent" points="-4,4 -4,-870.4 515,-870.4 515,4 -4,4"/>
<!-- ready -->
<g id="node1" class="node">
<title>ready</title>
<polygon fill="yellow" stroke="black" points="159.5,-866.4 116.5,-866.4 116.5,-848.4 159.5,-848.4 159.5,-866.4"/>
<text text-anchor="middle" x="138" y="-855.2" font-family="Times,serif" font-size="9.00">ready</text>
</g>
<!-- key 8227
bias &#45;0.019
h_scaling 0.137 -->
<g id="node4" class="node">
<title>key 8227
bias &#45;0.019
h_scaling 0.137</title>
<ellipse fill="white" stroke="black" cx="138" cy="-738.76" rx="63.78" ry="63.78"/>
<text text-anchor="middle" x="138" y="-746.56" font-family="Times,serif" font-size="9.00">key 8227</text>
<text text-anchor="middle" x="138" y="-736.56" font-family="Times,serif" font-size="9.00">bias &#45;0.019</text>
<text text-anchor="middle" x="138" y="-726.56" font-family="Times,serif" font-size="9.00">h_scaling 0.137</text>
</g>
<!-- ready&#45;&gt;key 8227
bias &#45;0.019
h_scaling 0.137 -->
<g id="edge9" class="edge">
<title>ready&#45;&gt;key 8227
bias &#45;0.019
h_scaling 0.137</title>
<path fill="none" stroke="blue" stroke-width="0.1" d="M138,-848.38C138,-840.35 138,-827.13 138,-812.63"/>
<polygon fill="blue" stroke="blue" stroke-width="0.1" points="141.5,-812.43 138,-802.43 134.5,-812.43 141.5,-812.43"/>
</g>
<!-- key 100
bias &#45;0.064
h_scaling 0.736 -->
<g id="node5" class="node">
<title>key 100
bias &#45;0.064
h_scaling 0.736</title>
<ellipse fill="white" stroke="black" cx="372" cy="-236.92" rx="63.78" ry="63.78"/>
<text text-anchor="middle" x="372" y="-244.72" font-family="Times,serif" font-size="9.00">key 100</text>
<text text-anchor="middle" x="372" y="-234.72" font-family="Times,serif" font-size="9.00">bias &#45;0.064</text>
<text text-anchor="middle" x="372" y="-224.72" font-family="Times,serif" font-size="9.00">h_scaling 0.736</text>
</g>
<!-- ready&#45;&gt;key 100
bias &#45;0.064
h_scaling 0.736 -->
<g id="edge12" class="edge">
<title>ready&#45;&gt;key 100
bias &#45;0.064
h_scaling 0.736</title>
<path fill="none" stroke="red" stroke-width="0.64" d="M159.63,-856.64C198.2,-856.44 280.88,-853.11 346,-830.4 393.05,-813.99 412,-789.59 412,-739.76 412,-739.76 412,-739.76 412,-400.2 412,-368.92 404.91,-335.21 396.7,-306.66"/>
<polygon fill="red" stroke="red" stroke-width="0.64" points="399.97,-305.38 393.76,-296.79 393.26,-307.38 399.97,-305.38"/>
<text text-anchor="middle" x="426" y="-563.28" font-family="Times,serif" font-size="9.00">0.018</text>
</g>
<!-- key 60015
bias &#45;0.237
h_scaling 0.902 -->
<g id="node6" class="node">
<title>key 60015
bias &#45;0.237
h_scaling 0.902</title>
<ellipse fill="white" stroke="black" cx="138" cy="-565.48" rx="63.78" ry="63.78"/>
<text text-anchor="middle" x="138" y="-573.28" font-family="Times,serif" font-size="9.00">key 60015</text>
<text text-anchor="middle" x="138" y="-563.28" font-family="Times,serif" font-size="9.00">bias &#45;0.237</text>
<text text-anchor="middle" x="138" y="-553.28" font-family="Times,serif" font-size="9.00">h_scaling 0.902</text>
</g>
<!-- ready&#45;&gt;key 60015
bias &#45;0.237
h_scaling 0.902 -->
<g id="edge14" class="edge">
<title>ready&#45;&gt;key 60015
bias &#45;0.237
h_scaling 0.902</title>
<path fill="none" stroke="red" stroke-width="1.55" d="M116.49,-851.8C92.3,-845.35 54.17,-831.05 37,-802.4 7.92,-753.87 16.31,-727.76 37,-675.12 46.23,-651.63 63.2,-630.2 80.62,-612.7"/>
<polygon fill="red" stroke="red" stroke-width="1.55" points="83.36,-614.92 88.1,-605.45 78.48,-609.9 83.36,-614.92"/>
<text text-anchor="middle" x="51" y="-736.56" font-family="Times,serif" font-size="9.00">0.048</text>
</g>
<!-- go -->
<g id="node2" class="node">
<title>go</title>
<polygon fill="green" stroke="black" points="426,-866.4 398,-866.4 398,-848.4 426,-848.4 426,-866.4"/>
<text text-anchor="middle" x="412" y="-855.2" font-family="Times,serif" font-size="9.00">go</text>
</g>
<!-- go&#45;&gt;key 8227
bias &#45;0.019
h_scaling 0.137 -->
<g id="edge6" class="edge">
<title>go&#45;&gt;key 8227
bias &#45;0.019
h_scaling 0.137</title>
<path fill="none" stroke="red" stroke-width="1.22" d="M397.74,-853.63C378.39,-849.64 342.91,-841.53 314,-830.4 275.45,-815.56 234.3,-794.67 201.49,-776.69"/>
<polygon fill="red" stroke="red" stroke-width="1.22" points="202.91,-773.47 192.46,-771.7 199.52,-779.6 202.91,-773.47"/>
<text text-anchor="middle" x="328" y="-823.2" font-family="Times,serif" font-size="9.00">0.037</text>
</g>
<!-- go&#45;&gt;key 100
bias &#45;0.064
h_scaling 0.736 -->
<g id="edge5" class="edge">
<title>go&#45;&gt;key 100
bias &#45;0.064
h_scaling 0.736</title>
<path fill="none" stroke="blue" stroke-width="0.1" d="M426.18,-848.51C453.56,-832.12 511,-791.55 511,-739.76 511,-739.76 511,-739.76 511,-400.2 511,-349.33 471.12,-306.39 434.08,-277.49"/>
<polygon fill="blue" stroke="blue" stroke-width="0.1" points="435.83,-274.42 425.74,-271.17 431.6,-280 435.83,-274.42"/>
</g>
<!-- go&#45;&gt;key 60015
bias &#45;0.237
h_scaling 0.902 -->
<g id="edge20" class="edge">
<title>go&#45;&gt;key 60015
bias &#45;0.237
h_scaling 0.902</title>
<path fill="none" stroke="red" stroke-width="1.19" d="M404.39,-848.34C373.61,-815.78 256.83,-692.21 188.53,-619.95"/>
<polygon fill="red" stroke="red" stroke-width="1.19" points="190.68,-617.12 181.27,-612.26 185.59,-621.93 190.68,-617.12"/>
<text text-anchor="middle" x="374" y="-736.56" font-family="Times,serif" font-size="9.00">0.036</text>
</g>
<!-- key 6269
bias &#45;0.835
h_scaling 0.589 -->
<g id="node7" class="node">
<title>key 6269
bias &#45;0.835
h_scaling 0.589</title>
<ellipse fill="white" stroke="black" cx="274" cy="-401.2" rx="63.78" ry="63.78"/>
<text text-anchor="middle" x="274" y="-409" font-family="Times,serif" font-size="9.00">key 6269</text>
<text text-anchor="middle" x="274" y="-399" font-family="Times,serif" font-size="9.00">bias &#45;0.835</text>
<text text-anchor="middle" x="274" y="-389" font-family="Times,serif" font-size="9.00">h_scaling 0.589</text>
</g>
<!-- go&#45;&gt;key 6269
bias &#45;0.835
h_scaling 0.589 -->
<g id="edge2" class="edge">
<title>go&#45;&gt;key 6269
bias &#45;0.835
h_scaling 0.589</title>
<path fill="none" stroke="red" stroke-width="0.83" d="M417.59,-848.11C420.61,-843.18 424.11,-836.68 426,-830.4 447.02,-760.36 480.35,-565.28 444,-501.84 422.61,-464.51 381.21,-439.81 344.62,-424.34"/>
<polygon fill="red" stroke="red" stroke-width="0.83" points="345.53,-420.93 334.95,-420.41 342.89,-427.42 345.53,-420.93"/>
<text text-anchor="middle" x="471" y="-649.92" font-family="Times,serif" font-size="9.00">0.024</text>
</g>
<!-- output
bias &#45;0.442
h_scaling 0.370 -->
<g id="node3" class="node">
<title>output
bias &#45;0.442
h_scaling 0.370</title>
<ellipse fill="lightblue" stroke="black" cx="112" cy="-63.64" rx="63.78" ry="63.78"/>
<text text-anchor="middle" x="112" y="-71.44" font-family="Times,serif" font-size="9.00">output</text>
<text text-anchor="middle" x="112" y="-61.44" font-family="Times,serif" font-size="9.00">bias &#45;0.442</text>
<text text-anchor="middle" x="112" y="-51.44" font-family="Times,serif" font-size="9.00">h_scaling 0.370</text>
</g>
<!-- output
bias &#45;0.442
h_scaling 0.370&#45;&gt;key 8227
bias &#45;0.019
h_scaling 0.137 -->
<g id="edge13" class="edge">
<title>output
bias &#45;0.442
h_scaling 0.370&#45;&gt;key 8227
bias &#45;0.019
h_scaling 0.137</title>
<path fill="none" stroke="red" stroke-width="0.84" d="M79.58,-118.54C62.89,-151.31 46,-194.65 46,-235.92 46,-483.84 46,-483.84 46,-483.84 46,-548.96 42.01,-568.19 65,-629.12 71.7,-646.88 81.8,-664.61 92.37,-680.45"/>
<polygon fill="red" stroke="red" stroke-width="0.84" points="89.72,-682.78 98.27,-689.04 95.49,-678.82 89.72,-682.78"/>
<text text-anchor="middle" x="60" y="-399" font-family="Times,serif" font-size="9.00">0.025</text>
</g>
<!-- key 8227
bias &#45;0.019
h_scaling 0.137&#45;&gt;output
bias &#45;0.442
h_scaling 0.370 -->
<g id="edge10" class="edge">
<title>key 8227
bias &#45;0.019
h_scaling 0.137&#45;&gt;output
bias &#45;0.442
h_scaling 0.370</title>
<path fill="none" stroke="blue" stroke-width="0.1" d="M92.51,-693.72C84.9,-687.17 76.91,-680.74 69,-675.12 55.39,-665.43 47.08,-669.62 36,-657.12 7.26,-624.67 0,-609.82 0,-566.48 0,-566.48 0,-566.48 0,-235.92 0,-193.2 9.29,-181.47 32,-145.28 39.02,-134.1 47.83,-123.25 57.03,-113.33"/>
<polygon fill="blue" stroke="blue" stroke-width="0.1" points="59.72,-115.57 64.11,-105.93 54.67,-110.73 59.72,-115.57"/>
</g>
<!-- key 8227
bias &#45;0.019
h_scaling 0.137&#45;&gt;key 60015
bias &#45;0.237
h_scaling 0.902 -->
<g id="edge17" class="edge">
<title>key 8227
bias &#45;0.019
h_scaling 0.137&#45;&gt;key 60015
bias &#45;0.237
h_scaling 0.902</title>
<path fill="none" stroke="blue" stroke-width="0.1" d="M131.48,-675.44C131.24,-663.63 131.19,-651.18 131.32,-639.09"/>
<polygon fill="blue" stroke="blue" stroke-width="0.1" points="134.82,-639.09 131.47,-629.04 127.82,-638.98 134.82,-639.09"/>
</g>
<!-- key 8227
bias &#45;0.019
h_scaling 0.137&#45;&gt;key 6269
bias &#45;0.835
h_scaling 0.589 -->
<g id="edge7" class="edge">
<title>key 8227
bias &#45;0.019
h_scaling 0.137&#45;&gt;key 6269
bias &#45;0.835
h_scaling 0.589</title>
<path fill="none" stroke="red" stroke-width="0.76" d="M200.1,-722.91C245.3,-708.04 301.1,-679.83 316,-629.12 331.94,-574.84 327.21,-557.28 316,-501.84 313.73,-490.59 310.15,-479.04 306.01,-467.97"/>
<polygon fill="red" stroke="red" stroke-width="0.76" points="309.16,-466.41 302.26,-458.38 302.65,-468.97 309.16,-466.41"/>
<text text-anchor="middle" x="340" y="-563.28" font-family="Times,serif" font-size="9.00">0.022</text>
</g>
<!-- key 100
bias &#45;0.064
h_scaling 0.736&#45;&gt;output
bias &#45;0.442
h_scaling 0.370 -->
<g id="edge1" class="edge">
<title>key 100
bias &#45;0.064
h_scaling 0.736&#45;&gt;output
bias &#45;0.442
h_scaling 0.370</title>
<path fill="none" stroke="red" stroke-width="0.17" d="M319.07,-201.05C276.81,-173.21 217.53,-134.16 173.23,-104.97"/>
<polygon fill="red" stroke="red" stroke-width="0.17" points="175.13,-102.04 164.85,-99.46 171.28,-107.88 175.13,-102.04"/>
<text text-anchor="middle" x="256" y="-148.08" font-family="Times,serif" font-size="9.00">0.002</text>
</g>
<!-- key 100
bias &#45;0.064
h_scaling 0.736&#45;&gt;key 100
bias &#45;0.064
h_scaling 0.736 -->
<g id="edge4" class="edge">
<title>key 100
bias &#45;0.064
h_scaling 0.736&#45;&gt;key 100
bias &#45;0.064
h_scaling 0.736</title>
<path fill="none" stroke="red" stroke-width="0.45" d="M434.29,-251.45C445.66,-249.61 453.64,-244.77 453.64,-236.92 453.64,-231.65 450.04,-227.73 444.23,-225.17"/>
<polygon fill="red" stroke="red" stroke-width="0.45" points="444.87,-221.71 434.29,-222.39 442.98,-228.45 444.87,-221.71"/>
<text text-anchor="middle" x="467.64" y="-234.72" font-family="Times,serif" font-size="9.00">0.012</text>
</g>
<!-- key 60015
bias &#45;0.237
h_scaling 0.902&#45;&gt;key 8227
bias &#45;0.019
h_scaling 0.137 -->
<g id="edge16" class="edge">
<title>key 60015
bias &#45;0.237
h_scaling 0.902&#45;&gt;key 8227
bias &#45;0.019
h_scaling 0.137</title>
<path fill="none" stroke="blue" stroke-width="0.1" d="M144.53,-629.04C144.76,-640.85 144.81,-653.3 144.68,-665.39"/>
<polygon fill="blue" stroke="blue" stroke-width="0.1" points="141.18,-665.38 144.52,-675.44 148.18,-665.49 141.18,-665.38"/>
</g>
<!-- key 60015
bias &#45;0.237
h_scaling 0.902&#45;&gt;key 60015
bias &#45;0.237
h_scaling 0.902 -->
<g id="edge18" class="edge">
<title>key 60015
bias &#45;0.237
h_scaling 0.902&#45;&gt;key 60015
bias &#45;0.237
h_scaling 0.902</title>
<path fill="none" stroke="red" stroke-width="1.67" d="M200.29,-580.01C211.66,-578.17 219.64,-573.32 219.64,-565.48 219.64,-560.2 216.04,-556.29 210.23,-553.73"/>
<polygon fill="red" stroke="red" stroke-width="1.67" points="210.87,-550.27 200.29,-550.95 208.98,-557.01 210.87,-550.27"/>
<text text-anchor="middle" x="233.64" y="-563.28" font-family="Times,serif" font-size="9.00">0.052</text>
</g>
<!-- key 60015
bias &#45;0.237
h_scaling 0.902&#45;&gt;key 6269
bias &#45;0.835
h_scaling 0.589 -->
<g id="edge15" class="edge">
<title>key 60015
bias &#45;0.237
h_scaling 0.902&#45;&gt;key 6269
bias &#45;0.835
h_scaling 0.589</title>
<path fill="none" stroke="blue" stroke-width="0.1" d="M178.44,-516.23C193.71,-498 211.23,-477.1 227.05,-458.22"/>
<polygon fill="blue" stroke="blue" stroke-width="0.1" points="229.74,-460.45 233.48,-450.54 224.38,-455.96 229.74,-460.45"/>
</g>
<!-- key 6269
bias &#45;0.835
h_scaling 0.589&#45;&gt;output
bias &#45;0.442
h_scaling 0.370 -->
<g id="edge19" class="edge">
<title>key 6269
bias &#45;0.835
h_scaling 0.589&#45;&gt;output
bias &#45;0.442
h_scaling 0.370</title>
<path fill="none" stroke="blue" stroke-width="0.1" d="M246.7,-343.65C218.31,-284.85 173.9,-192.86 143.91,-130.74"/>
<polygon fill="blue" stroke="blue" stroke-width="0.1" points="146.91,-128.9 139.41,-121.41 140.61,-131.94 146.91,-128.9"/>
</g>
<!-- key 6269
bias &#45;0.835
h_scaling 0.589&#45;&gt;key 8227
bias &#45;0.019
h_scaling 0.137 -->
<g id="edge11" class="edge">
<title>key 6269
bias &#45;0.835
h_scaling 0.589&#45;&gt;key 8227
bias &#45;0.019
h_scaling 0.137</title>
<path fill="none" stroke="red" stroke-width="0.76" d="M281.35,-464.63C284.17,-512.1 281.98,-577.78 257,-629.12 244.03,-655.78 221.4,-678.98 199.34,-697.03"/>
<polygon fill="red" stroke="red" stroke-width="0.76" points="196.91,-694.48 191.25,-703.44 201.26,-699.97 196.91,-694.48"/>
<text text-anchor="middle" x="296" y="-563.28" font-family="Times,serif" font-size="9.00">0.022</text>
</g>
<!-- key 6269
bias &#45;0.835
h_scaling 0.589&#45;&gt;key 100
bias &#45;0.064
h_scaling 0.736 -->
<g id="edge3" class="edge">
<title>key 6269
bias &#45;0.835
h_scaling 0.589&#45;&gt;key 100
bias &#45;0.064
h_scaling 0.736</title>
<path fill="none" stroke="blue" stroke-width="0.1" d="M306.63,-346.16C315.48,-331.52 325.12,-315.54 334.22,-300.47"/>
<polygon fill="blue" stroke="blue" stroke-width="0.1" points="337.34,-302.09 339.51,-291.72 331.34,-298.47 337.34,-302.09"/>
</g>
<!-- key 6269
bias &#45;0.835
h_scaling 0.589&#45;&gt;key 6269
bias &#45;0.835
h_scaling 0.589 -->
<g id="edge8" class="edge">
<title>key 6269
bias &#45;0.835
h_scaling 0.589&#45;&gt;key 6269
bias &#45;0.835
h_scaling 0.589</title>
<path fill="none" stroke="red" stroke-width="1.14" d="M336.29,-415.73C347.66,-413.89 355.64,-409.05 355.64,-401.2 355.64,-395.93 352.04,-392.01 346.23,-389.45"/>
<polygon fill="red" stroke="red" stroke-width="1.14" points="346.87,-385.99 336.29,-386.67 344.98,-392.73 346.87,-385.99"/>
<text text-anchor="middle" x="369.64" y="-399" font-family="Times,serif" font-size="9.00">0.035</text>
</g>
</g>
</svg>
