<?xml version="1.0" encoding="UTF-8" standalone="no"?>
<!DOCTYPE svg PUBLIC "-//W3C//DTD SVG 1.1//EN"
 "http://www.w3.org/Graphics/SVG/1.1/DTD/svg11.dtd">
<!-- Generated by graphviz version 2.43.0 (0)
 -->
<!-- Title: %3 Pages: 1 -->
<svg width="574pt" height="892pt"
 viewBox="0.00 0.00 574.00 892.40" xmlns="http://www.w3.org/2000/svg" xmlns:xlink="http://www.w3.org/1999/xlink">
<g id="graph0" class="graph" transform="scale(1 1) rotate(0) translate(4 888.4)">
<title>%3</title>
<polygon fill="white" stroke="transparent" points="-4,4 -4,-888.4 570,-888.4 570,4 -4,4"/>
<!-- ready -->
<g id="node1" class="node">
<title>ready</title>
<polygon fill="yellow" stroke="black" points="331.5,-884.4 288.5,-884.4 288.5,-866.4 331.5,-866.4 331.5,-884.4"/>
<text text-anchor="middle" x="310" y="-873.2" font-family="Times,serif" font-size="9.00">ready</text>
</g>
<!-- key 8227
bias &#45;0.019
h_scaling 0.137 -->
<g id="node4" class="node">
<title>key 8227
bias &#45;0.019
h_scaling 0.137</title>
<ellipse fill="white" stroke="black" cx="194" cy="-756.76" rx="63.78" ry="63.78"/>
<text text-anchor="middle" x="194" y="-764.56" font-family="Times,serif" font-size="9.00">key 8227</text>
<text text-anchor="middle" x="194" y="-754.56" font-family="Times,serif" font-size="9.00">bias &#45;0.019</text>
<text text-anchor="middle" x="194" y="-744.56" font-family="Times,serif" font-size="9.00">h_scaling 0.137</text>
</g>
<!-- ready&#45;&gt;key 8227
bias &#45;0.019
h_scaling 0.137 -->
<g id="edge9" class="edge">
<title>ready&#45;&gt;key 8227
bias &#45;0.019
h_scaling 0.137</title>
<path fill="none" stroke="blue" stroke-width="1.37" d="M292.31,-866.19C283.57,-861.65 273.17,-855.5 265,-848.4 254.68,-839.43 244.8,-828.79 235.87,-818"/>
<polygon fill="blue" stroke="blue" stroke-width="1.37" points="238.54,-815.73 229.54,-810.14 233.09,-820.13 238.54,-815.73"/>
<text text-anchor="middle" x="280.5" y="-841.2" font-family="Times,serif" font-size="9.00">&#45;0.422</text>
</g>
<!-- key 100
bias &#45;0.064
h_scaling 0.736 -->
<g id="node5" class="node">
<title>key 100
bias &#45;0.064
h_scaling 0.736</title>
<ellipse fill="white" stroke="black" cx="379" cy="-236.92" rx="63.78" ry="63.78"/>
<text text-anchor="middle" x="379" y="-244.72" font-family="Times,serif" font-size="9.00">key 100</text>
<text text-anchor="middle" x="379" y="-234.72" font-family="Times,serif" font-size="9.00">bias &#45;0.064</text>
<text text-anchor="middle" x="379" y="-224.72" font-family="Times,serif" font-size="9.00">h_scaling 0.736</text>
</g>
<!-- ready&#45;&gt;key 100
bias &#45;0.064
h_scaling 0.736 -->
<g id="edge12" class="edge">
<title>ready&#45;&gt;key 100
bias &#45;0.064
h_scaling 0.736</title>
<path fill="none" stroke="red" stroke-width="1.39" d="M331.71,-870.19C357.18,-864.02 398.53,-849.89 419,-820.4 435.27,-796.96 433,-786.28 433,-757.76 433,-757.76 433,-757.76 433,-409.2 433,-373.31 422.09,-335.07 410.07,-303.85"/>
<polygon fill="red" stroke="red" stroke-width="1.39" points="413.26,-302.4 406.32,-294.4 406.75,-304.98 413.26,-302.4"/>
<text text-anchor="middle" x="447" y="-581.28" font-family="Times,serif" font-size="9.00">0.431</text>
</g>
<!-- key 60015
bias &#45;0.237
h_scaling 0.902 -->
<g id="node6" class="node">
<title>key 60015
bias &#45;0.237
h_scaling 0.902</title>
<ellipse fill="white" stroke="black" cx="287" cy="-583.48" rx="63.78" ry="63.78"/>
<text text-anchor="middle" x="287" y="-591.28" font-family="Times,serif" font-size="9.00">key 60015</text>
<text text-anchor="middle" x="287" y="-581.28" font-family="Times,serif" font-size="9.00">bias &#45;0.237</text>
<text text-anchor="middle" x="287" y="-571.28" font-family="Times,serif" font-size="9.00">h_scaling 0.902</text>
</g>
<!-- ready&#45;&gt;key 60015
bias &#45;0.237
h_scaling 0.902 -->
<g id="edge14" class="edge">
<title>ready&#45;&gt;key 60015
bias &#45;0.237
h_scaling 0.902</title>
<path fill="none" stroke="red" stroke-width="2.97" d="M309.36,-866.34C306.99,-836.51 298.57,-730.3 292.76,-657.13"/>
<polygon fill="red" stroke="red" stroke-width="2.97" points="296.24,-656.73 291.96,-647.04 289.27,-657.29 296.24,-656.73"/>
<text text-anchor="middle" x="319" y="-754.56" font-family="Times,serif" font-size="9.00">0.958</text>
</g>
<!-- go -->
<g id="node2" class="node">
<title>go</title>
<polygon fill="green" stroke="black" points="451,-884.4 423,-884.4 423,-866.4 451,-866.4 451,-884.4"/>
<text text-anchor="middle" x="437" y="-873.2" font-family="Times,serif" font-size="9.00">go</text>
</g>
<!-- go&#45;&gt;key 8227
bias &#45;0.019
h_scaling 0.137 -->
<g id="edge6" class="edge">
<title>go&#45;&gt;key 8227
bias &#45;0.019
h_scaling 0.137</title>
<path fill="none" stroke="red" stroke-width="3.08" d="M422.86,-871.33C404.4,-867.13 371.22,-858.89 344,-848.4 312.49,-836.24 280.11,-817.59 253.53,-800.36"/>
<polygon fill="red" stroke="red" stroke-width="3.08" points="255.4,-797.4 245.12,-794.82 251.55,-803.24 255.4,-797.4"/>
<text text-anchor="middle" x="358" y="-841.2" font-family="Times,serif" font-size="9.00">0.995</text>
</g>
<!-- go&#45;&gt;key 100
bias &#45;0.064
h_scaling 0.736 -->
<g id="edge5" class="edge">
<title>go&#45;&gt;key 100
bias &#45;0.064
h_scaling 0.736</title>
<path fill="none" stroke="blue" stroke-width="2.63" d="M451.04,-866.47C478.14,-850.01 535,-809.33 535,-757.76 535,-757.76 535,-757.76 535,-409.2 535,-351.51 486.03,-304.69 442.96,-274.68"/>
<polygon fill="blue" stroke="blue" stroke-width="2.63" points="444.68,-271.62 434.44,-268.9 440.75,-277.41 444.68,-271.62"/>
<text text-anchor="middle" x="550.5" y="-581.28" font-family="Times,serif" font-size="9.00">&#45;0.844</text>
</g>
<!-- go&#45;&gt;key 60015
bias &#45;0.237
h_scaling 0.902 -->
<g id="edge20" class="edge">
<title>go&#45;&gt;key 60015
bias &#45;0.237
h_scaling 0.902</title>
<path fill="none" stroke="red" stroke-width="0.57" d="M432.83,-866.34C416.86,-835.47 358.56,-722.78 320.69,-649.59"/>
<polygon fill="red" stroke="red" stroke-width="0.57" points="323.65,-647.69 315.94,-640.42 317.43,-650.91 323.65,-647.69"/>
<text text-anchor="middle" x="422" y="-754.56" font-family="Times,serif" font-size="9.00">0.155</text>
</g>
<!-- key 6269
bias &#45;0.835
h_scaling 0.589 -->
<g id="node7" class="node">
<title>key 6269
bias &#45;0.835
h_scaling 0.589</title>
<ellipse fill="white" stroke="black" cx="234" cy="-410.2" rx="63.78" ry="63.78"/>
<text text-anchor="middle" x="234" y="-418" font-family="Times,serif" font-size="9.00">key 6269</text>
<text text-anchor="middle" x="234" y="-408" font-family="Times,serif" font-size="9.00">bias &#45;0.835</text>
<text text-anchor="middle" x="234" y="-398" font-family="Times,serif" font-size="9.00">h_scaling 0.589</text>
</g>
<!-- go&#45;&gt;key 6269
bias &#45;0.835
h_scaling 0.589 -->
<g id="edge2" class="edge">
<title>go&#45;&gt;key 6269
bias &#45;0.835
h_scaling 0.589</title>
<path fill="none" stroke="red" stroke-width="1.87" d="M440.75,-866.38C442.94,-861.33 445.56,-854.61 447,-848.4 463.54,-777.17 504.19,-581.57 465,-519.84 430.46,-465.42 360.6,-437.77 306.7,-424.03"/>
<polygon fill="red" stroke="red" stroke-width="1.87" points="307.38,-420.6 296.84,-421.63 305.73,-427.4 307.38,-420.6"/>
<text text-anchor="middle" x="492" y="-667.92" font-family="Times,serif" font-size="9.00">0.590</text>
</g>
<!-- output
bias &#45;0.442
h_scaling 0.370 -->
<g id="node3" class="node">
<title>output
bias &#45;0.442
h_scaling 0.370</title>
<ellipse fill="lightblue" stroke="black" cx="125" cy="-63.64" rx="63.78" ry="63.78"/>
<text text-anchor="middle" x="125" y="-71.44" font-family="Times,serif" font-size="9.00">output</text>
<text text-anchor="middle" x="125" y="-61.44" font-family="Times,serif" font-size="9.00">bias &#45;0.442</text>
<text text-anchor="middle" x="125" y="-51.44" font-family="Times,serif" font-size="9.00">h_scaling 0.370</text>
</g>
<!-- output
bias &#45;0.442
h_scaling 0.370&#45;&gt;key 8227
bias &#45;0.019
h_scaling 0.137 -->
<g id="edge13" class="edge">
<title>output
bias &#45;0.442
h_scaling 0.370&#45;&gt;key 8227
bias &#45;0.019
h_scaling 0.137</title>
<path fill="none" stroke="red" stroke-width="0.9" d="M95.83,-120.52C81.39,-153.25 67,-195.89 67,-235.92 67,-584.48 67,-584.48 67,-584.48 67,-634.55 102.46,-679.53 135.9,-710.82"/>
<polygon fill="red" stroke="red" stroke-width="0.9" points="133.69,-713.53 143.44,-717.68 138.4,-708.36 133.69,-713.53"/>
<text text-anchor="middle" x="81" y="-408" font-family="Times,serif" font-size="9.00">0.268</text>
</g>
<!-- key 8227
bias &#45;0.019
h_scaling 0.137&#45;&gt;output
bias &#45;0.442
h_scaling 0.370 -->
<g id="edge10" class="edge">
<title>key 8227
bias &#45;0.019
h_scaling 0.137&#45;&gt;output
bias &#45;0.442
h_scaling 0.370</title>
<path fill="none" stroke="blue" stroke-width="0.67" d="M134.74,-732.88C77.69,-706.52 0,-657.26 0,-584.48 0,-584.48 0,-584.48 0,-235.92 0,-186.29 34.66,-141.44 67.48,-110.09"/>
<polygon fill="blue" stroke="blue" stroke-width="0.67" points="69.94,-112.58 74.88,-103.21 65.17,-107.46 69.94,-112.58"/>
<text text-anchor="middle" x="15.5" y="-408" font-family="Times,serif" font-size="9.00">&#45;0.189</text>
</g>
<!-- key 8227
bias &#45;0.019
h_scaling 0.137&#45;&gt;key 60015
bias &#45;0.237
h_scaling 0.902 -->
<g id="edge17" class="edge">
<title>key 8227
bias &#45;0.019
h_scaling 0.137&#45;&gt;key 60015
bias &#45;0.237
h_scaling 0.902</title>
<path fill="none" stroke="blue" stroke-width="2.2" d="M226.85,-701.86C232.03,-692.99 237.25,-683.84 242,-675.12 246.32,-667.19 250.72,-658.79 254.99,-650.42"/>
<polygon fill="blue" stroke="blue" stroke-width="2.2" points="258.17,-651.89 259.57,-641.39 251.93,-648.73 258.17,-651.89"/>
<text text-anchor="middle" x="263.5" y="-667.92" font-family="Times,serif" font-size="9.00">&#45;0.698</text>
</g>
<!-- key 8227
bias &#45;0.019
h_scaling 0.137&#45;&gt;key 6269
bias &#45;0.835
h_scaling 0.589 -->
<g id="edge7" class="edge">
<title>key 8227
bias &#45;0.019
h_scaling 0.137&#45;&gt;key 6269
bias &#45;0.835
h_scaling 0.589</title>
<path fill="none" stroke="red" stroke-width="2.37" d="M183.81,-693.45C177.9,-645.48 173.77,-577.78 186,-519.84 189.08,-505.25 194.25,-490.23 200.08,-476.2"/>
<polygon fill="red" stroke="red" stroke-width="2.37" points="203.45,-477.22 204.21,-466.65 197.03,-474.44 203.45,-477.22"/>
<text text-anchor="middle" x="200" y="-581.28" font-family="Times,serif" font-size="9.00">0.757</text>
</g>
<!-- key 100
bias &#45;0.064
h_scaling 0.736&#45;&gt;output
bias &#45;0.442
h_scaling 0.370 -->
<g id="edge1" class="edge">
<title>key 100
bias &#45;0.064
h_scaling 0.736&#45;&gt;output
bias &#45;0.442
h_scaling 0.370</title>
<path fill="none" stroke="red" stroke-width="3.1" d="M326.68,-200.64C285.83,-173.09 229.01,-134.77 186.08,-105.83"/>
<polygon fill="red" stroke="red" stroke-width="3.1" points="187.94,-102.86 177.69,-100.17 184.02,-108.66 187.94,-102.86"/>
<text text-anchor="middle" x="266" y="-148.08" font-family="Times,serif" font-size="9.00">1.000</text>
</g>
<!-- key 100
bias &#45;0.064
h_scaling 0.736&#45;&gt;key 100
bias &#45;0.064
h_scaling 0.736 -->
<g id="edge4" class="edge">
<title>key 100
bias &#45;0.064
h_scaling 0.736&#45;&gt;key 100
bias &#45;0.064
h_scaling 0.736</title>
<path fill="none" stroke="red" stroke-width="2.92" d="M440.94,-252.22C452.5,-250.33 460.64,-245.23 460.64,-236.92 460.64,-231.2 456.79,-227.01 450.63,-224.33"/>
<polygon fill="red" stroke="red" stroke-width="2.92" points="451.52,-220.94 440.94,-221.62 449.63,-227.68 451.52,-220.94"/>
<text text-anchor="middle" x="474.64" y="-234.72" font-family="Times,serif" font-size="9.00">0.941</text>
</g>
<!-- key 60015
bias &#45;0.237
h_scaling 0.902&#45;&gt;key 8227
bias &#45;0.019
h_scaling 0.137 -->
<g id="edge16" class="edge">
<title>key 60015
bias &#45;0.237
h_scaling 0.902&#45;&gt;key 8227
bias &#45;0.019
h_scaling 0.137</title>
<path fill="none" stroke="blue" stroke-width="1.12" d="M239.31,-626.11C228.52,-637.73 218.15,-651.06 211,-665.12 208.09,-670.83 205.68,-676.97 203.68,-683.27"/>
<polygon fill="blue" stroke="blue" stroke-width="1.12" points="200.21,-682.68 200.86,-693.26 206.94,-684.58 200.21,-682.68"/>
<text text-anchor="middle" x="226.5" y="-667.92" font-family="Times,serif" font-size="9.00">&#45;0.341</text>
</g>
<!-- key 60015
bias &#45;0.237
h_scaling 0.902&#45;&gt;key 60015
bias &#45;0.237
h_scaling 0.902 -->
<g id="edge18" class="edge">
<title>key 60015
bias &#45;0.237
h_scaling 0.902&#45;&gt;key 60015
bias &#45;0.237
h_scaling 0.902</title>
<path fill="none" stroke="red" stroke-width="1.85" d="M348.94,-598.77C360.5,-596.89 368.64,-591.79 368.64,-583.48 368.64,-577.76 364.79,-573.56 358.63,-570.89"/>
<polygon fill="red" stroke="red" stroke-width="1.85" points="359.52,-567.5 348.94,-568.18 357.63,-574.24 359.52,-567.5"/>
<text text-anchor="middle" x="382.64" y="-581.28" font-family="Times,serif" font-size="9.00">0.584</text>
</g>
<!-- key 60015
bias &#45;0.237
h_scaling 0.902&#45;&gt;key 6269
bias &#45;0.835
h_scaling 0.589 -->
<g id="edge15" class="edge">
<title>key 60015
bias &#45;0.237
h_scaling 0.902&#45;&gt;key 6269
bias &#45;0.835
h_scaling 0.589</title>
<path fill="none" stroke="blue" stroke-width="0.55" d="M268.46,-522.57C264.33,-509.22 259.92,-494.95 255.67,-481.23"/>
<polygon fill="blue" stroke="blue" stroke-width="0.55" points="258.92,-479.88 252.62,-471.36 252.23,-481.95 258.92,-479.88"/>
<text text-anchor="middle" x="276.5" y="-494.64" font-family="Times,serif" font-size="9.00">&#45;0.151</text>
</g>
<!-- key 6269
bias &#45;0.835
h_scaling 0.589&#45;&gt;output
bias &#45;0.442
h_scaling 0.370 -->
<g id="edge19" class="edge">
<title>key 6269
bias &#45;0.835
h_scaling 0.589&#45;&gt;output
bias &#45;0.442
h_scaling 0.370</title>
<path fill="none" stroke="blue" stroke-width="3.1" d="M215.01,-349.18C196.08,-289.33 167.02,-197.47 147.07,-134.41"/>
<polygon fill="blue" stroke="blue" stroke-width="3.1" points="150.3,-133.03 143.95,-124.55 143.63,-135.14 150.3,-133.03"/>
<text text-anchor="middle" x="215.5" y="-234.72" font-family="Times,serif" font-size="9.00">&#45;1.000</text>
</g>
<!-- key 6269
bias &#45;0.835
h_scaling 0.589&#45;&gt;key 8227
bias &#45;0.019
h_scaling 0.137 -->
<g id="edge11" class="edge">
<title>key 6269
bias &#45;0.835
h_scaling 0.589&#45;&gt;key 8227
bias &#45;0.019
h_scaling 0.137</title>
<path fill="none" stroke="red" stroke-width="0.67" d="M188.13,-454.49C171.86,-472.89 155.48,-495.67 147,-519.84 128.26,-573.21 135.53,-591.72 147,-647.12 150,-661.59 155.02,-676.5 160.69,-690.46"/>
<polygon fill="red" stroke="red" stroke-width="0.67" points="157.59,-692.11 164.7,-699.96 164.03,-689.39 157.59,-692.11"/>
<text text-anchor="middle" x="161" y="-581.28" font-family="Times,serif" font-size="9.00">0.191</text>
</g>
<!-- key 6269
bias &#45;0.835
h_scaling 0.589&#45;&gt;key 100
bias &#45;0.064
h_scaling 0.736 -->
<g id="edge3" class="edge">
<title>key 6269
bias &#45;0.835
h_scaling 0.589&#45;&gt;key 100
bias &#45;0.064
h_scaling 0.736</title>
<path fill="none" stroke="blue" stroke-width="2.71" d="M274.78,-361.03C292.46,-340.15 313.27,-315.56 331.64,-293.87"/>
<polygon fill="blue" stroke="blue" stroke-width="2.71" points="334.49,-295.91 338.28,-286.02 329.15,-291.39 334.49,-295.91"/>
<text text-anchor="middle" x="321.5" y="-321.36" font-family="Times,serif" font-size="9.00">&#45;0.869</text>
</g>
<!-- key 6269
bias &#45;0.835
h_scaling 0.589&#45;&gt;key 6269
bias &#45;0.835
h_scaling 0.589 -->
<g id="edge8" class="edge">
<title>key 6269
bias &#45;0.835
h_scaling 0.589&#45;&gt;key 6269
bias &#45;0.835
h_scaling 0.589</title>
<path fill="none" stroke="red" stroke-width="2.35" d="M295.94,-425.5C307.5,-423.61 315.64,-418.51 315.64,-410.2 315.64,-404.48 311.79,-400.29 305.63,-397.61"/>
<polygon fill="red" stroke="red" stroke-width="2.35" points="306.52,-394.22 295.94,-394.9 304.63,-400.96 306.52,-394.22"/>
<text text-anchor="middle" x="329.64" y="-408" font-family="Times,serif" font-size="9.00">0.750</text>
</g>
</g>
</svg>
