<?xml version="1.0" encoding="UTF-8" standalone="no"?>
<!DOCTYPE svg PUBLIC "-//W3C//DTD SVG 1.1//EN"
 "http://www.w3.org/Graphics/SVG/1.1/DTD/svg11.dtd">
<!-- Generated by graphviz version 2.43.0 (0)
 -->
<!-- Title: %3 Pages: 1 -->
<svg width="645pt" height="892pt"
 viewBox="0.00 0.00 645.33 892.40" xmlns="http://www.w3.org/2000/svg" xmlns:xlink="http://www.w3.org/1999/xlink">
<g id="graph0" class="graph" transform="scale(1 1) rotate(0) translate(4 888.4)">
<title>%3</title>
<polygon fill="white" stroke="transparent" points="-4,4 -4,-888.4 641.33,-888.4 641.33,4 -4,4"/>
<!-- ready -->
<g id="node1" class="node">
<title>ready</title>
<polygon fill="yellow" stroke="black" points="146.19,-884.4 103.19,-884.4 103.19,-866.4 146.19,-866.4 146.19,-884.4"/>
<text text-anchor="middle" x="124.69" y="-873.2" font-family="Times,serif" font-size="9.00">ready</text>
</g>
<!-- key 7886
bias &#45;0.573
h_scaling 1.000 -->
<g id="node5" class="node">
<title>key 7886
bias &#45;0.573
h_scaling 1.000</title>
<ellipse fill="white" stroke="black" cx="234.69" cy="-756.76" rx="63.78" ry="63.78"/>
<text text-anchor="middle" x="234.69" y="-764.56" font-family="Times,serif" font-size="9.00">key 7886</text>
<text text-anchor="middle" x="234.69" y="-754.56" font-family="Times,serif" font-size="9.00">bias &#45;0.573</text>
<text text-anchor="middle" x="234.69" y="-744.56" font-family="Times,serif" font-size="9.00">h_scaling 1.000</text>
</g>
<!-- ready&#45;&gt;key 7886
bias &#45;0.573
h_scaling 1.000 -->
<g id="edge9" class="edge">
<title>ready&#45;&gt;key 7886
bias &#45;0.573
h_scaling 1.000</title>
<path fill="none" stroke="red" stroke-width="0.1" d="M132.25,-866.38C143.15,-854.82 164.19,-832.51 184.38,-811.1"/>
<polygon fill="red" stroke="red" stroke-width="0.1" points="187.15,-813.26 191.47,-803.59 182.06,-808.46 187.15,-813.26"/>
<text text-anchor="middle" x="171.69" y="-841.2" font-family="Times,serif" font-size="9.00">0.000</text>
</g>
<!-- key 8920
bias &#45;0.557
h_scaling 1.000 -->
<g id="node8" class="node">
<title>key 8920
bias &#45;0.557
h_scaling 1.000</title>
<ellipse fill="white" stroke="black" cx="134.69" cy="-410.2" rx="63.78" ry="63.78"/>
<text text-anchor="middle" x="134.69" y="-418" font-family="Times,serif" font-size="9.00">key 8920</text>
<text text-anchor="middle" x="134.69" y="-408" font-family="Times,serif" font-size="9.00">bias &#45;0.557</text>
<text text-anchor="middle" x="134.69" y="-398" font-family="Times,serif" font-size="9.00">h_scaling 1.000</text>
</g>
<!-- ready&#45;&gt;key 8920
bias &#45;0.557
h_scaling 1.000 -->
<g id="edge11" class="edge">
<title>ready&#45;&gt;key 8920
bias &#45;0.557
h_scaling 1.000</title>
<path fill="none" stroke="red" stroke-width="0.1" d="M120.47,-866.24C100.78,-827.08 20.59,-654.7 61.69,-519.84 67.25,-501.59 77.01,-483.63 87.63,-467.72"/>
<polygon fill="red" stroke="red" stroke-width="0.1" points="90.77,-469.33 93.59,-459.11 85.02,-465.34 90.77,-469.33"/>
<text text-anchor="middle" x="70.69" y="-667.92" font-family="Times,serif" font-size="9.00">0.000</text>
</g>
<!-- key 27899
bias &#45;0.384
h_scaling 1.000 -->
<g id="node10" class="node">
<title>key 27899
bias &#45;0.384
h_scaling 1.000</title>
<ellipse fill="white" stroke="black" cx="134.69" cy="-583.48" rx="63.78" ry="63.78"/>
<text text-anchor="middle" x="134.69" y="-591.28" font-family="Times,serif" font-size="9.00">key 27899</text>
<text text-anchor="middle" x="134.69" y="-581.28" font-family="Times,serif" font-size="9.00">bias &#45;0.384</text>
<text text-anchor="middle" x="134.69" y="-571.28" font-family="Times,serif" font-size="9.00">h_scaling 1.000</text>
</g>
<!-- ready&#45;&gt;key 27899
bias &#45;0.384
h_scaling 1.000 -->
<g id="edge15" class="edge">
<title>ready&#45;&gt;key 27899
bias &#45;0.384
h_scaling 1.000</title>
<path fill="none" stroke="red" stroke-width="0.1" d="M124.97,-866.34C125.99,-836.55 129.65,-730.62 132.17,-657.46"/>
<polygon fill="red" stroke="red" stroke-width="0.1" points="135.67,-657.48 132.52,-647.36 128.68,-657.23 135.67,-657.48"/>
<text text-anchor="middle" x="145.69" y="-754.56" font-family="Times,serif" font-size="9.00">0.000</text>
</g>
<!-- go -->
<g id="node2" class="node">
<title>go</title>
<polygon fill="green" stroke="black" points="418.69,-592.48 390.69,-592.48 390.69,-574.48 418.69,-574.48 418.69,-592.48"/>
<text text-anchor="middle" x="404.69" y="-581.28" font-family="Times,serif" font-size="9.00">go</text>
</g>
<!-- key 4625
bias &#45;0.252
h_scaling 1.000 -->
<g id="node6" class="node">
<title>key 4625
bias &#45;0.252
h_scaling 1.000</title>
<ellipse fill="white" stroke="black" cx="279.69" cy="-410.2" rx="63.78" ry="63.78"/>
<text text-anchor="middle" x="279.69" y="-418" font-family="Times,serif" font-size="9.00">key 4625</text>
<text text-anchor="middle" x="279.69" y="-408" font-family="Times,serif" font-size="9.00">bias &#45;0.252</text>
<text text-anchor="middle" x="279.69" y="-398" font-family="Times,serif" font-size="9.00">h_scaling 1.000</text>
</g>
<!-- go&#45;&gt;key 4625
bias &#45;0.252
h_scaling 1.000 -->
<g id="edge5" class="edge">
<title>go&#45;&gt;key 4625
bias &#45;0.252
h_scaling 1.000</title>
<path fill="none" stroke="red" stroke-width="0.1" d="M398.66,-574.22C385.04,-555.56 350.91,-508.79 322.68,-470.11"/>
<polygon fill="red" stroke="red" stroke-width="0.1" points="325.48,-468 316.76,-461.99 319.82,-472.13 325.48,-468"/>
<text text-anchor="middle" x="355.69" y="-494.64" font-family="Times,serif" font-size="9.00">0.000</text>
</g>
<!-- key 378
bias &#45;0.706
h_scaling 1.000 -->
<g id="node9" class="node">
<title>key 378
bias &#45;0.706
h_scaling 1.000</title>
<ellipse fill="white" stroke="black" cx="367.69" cy="-236.92" rx="63.78" ry="63.78"/>
<text text-anchor="middle" x="367.69" y="-244.72" font-family="Times,serif" font-size="9.00">key 378</text>
<text text-anchor="middle" x="367.69" y="-234.72" font-family="Times,serif" font-size="9.00">bias &#45;0.706</text>
<text text-anchor="middle" x="367.69" y="-224.72" font-family="Times,serif" font-size="9.00">h_scaling 1.000</text>
</g>
<!-- go&#45;&gt;key 378
bias &#45;0.706
h_scaling 1.000 -->
<g id="edge1" class="edge">
<title>go&#45;&gt;key 378
bias &#45;0.706
h_scaling 1.000</title>
<path fill="none" stroke="red" stroke-width="0.1" d="M405.22,-574.26C407.04,-543.85 412.18,-434.85 398.69,-346.56 396.71,-333.66 393.67,-320.12 390.25,-307.16"/>
<polygon fill="red" stroke="red" stroke-width="0.1" points="393.59,-306.09 387.57,-297.37 386.84,-307.94 393.59,-306.09"/>
<text text-anchor="middle" x="420.69" y="-408" font-family="Times,serif" font-size="9.00">0.000</text>
</g>
<!-- output
bias &#45;0.196
h_scaling 1.000 -->
<g id="node3" class="node">
<title>output
bias &#45;0.196
h_scaling 1.000</title>
<ellipse fill="lightblue" stroke="black" cx="257.69" cy="-63.64" rx="63.78" ry="63.78"/>
<text text-anchor="middle" x="257.69" y="-71.44" font-family="Times,serif" font-size="9.00">output</text>
<text text-anchor="middle" x="257.69" y="-61.44" font-family="Times,serif" font-size="9.00">bias &#45;0.196</text>
<text text-anchor="middle" x="257.69" y="-51.44" font-family="Times,serif" font-size="9.00">h_scaling 1.000</text>
</g>
<!-- output
bias &#45;0.196
h_scaling 1.000&#45;&gt;output
bias &#45;0.196
h_scaling 1.000 -->
<g id="edge3" class="edge">
<title>output
bias &#45;0.196
h_scaling 1.000&#45;&gt;output
bias &#45;0.196
h_scaling 1.000</title>
<path fill="none" stroke="red" stroke-width="0.1" d="M319.63,-78.94C331.19,-77.05 339.33,-71.95 339.33,-63.64 339.33,-57.92 335.48,-53.73 329.32,-51.05"/>
<polygon fill="red" stroke="red" stroke-width="0.1" points="330.2,-47.66 319.63,-48.34 328.32,-54.4 330.2,-47.66"/>
<text text-anchor="middle" x="353.33" y="-61.44" font-family="Times,serif" font-size="9.00">0.000</text>
</g>
<!-- output
bias &#45;0.196
h_scaling 1.000&#45;&gt;key 7886
bias &#45;0.573
h_scaling 1.000 -->
<g id="edge19" class="edge">
<title>output
bias &#45;0.196
h_scaling 1.000&#45;&gt;key 7886
bias &#45;0.573
h_scaling 1.000</title>
<path fill="none" stroke="red" stroke-width="0.1" d="M209.68,-105.61C154.88,-155.87 68.37,-246.77 33.69,-346.56 -10.36,-473.28 -19.9,-540.61 61.69,-647.12 91.93,-686.6 121.91,-666.14 163.69,-693.12 169.44,-696.83 175.2,-700.99 180.81,-705.36"/>
<polygon fill="red" stroke="red" stroke-width="0.1" points="178.93,-708.34 188.91,-711.88 183.32,-702.89 178.93,-708.34"/>
<text text-anchor="middle" x="47.69" y="-408" font-family="Times,serif" font-size="9.00">0.000</text>
</g>
<!-- output
bias &#45;0.196
h_scaling 1.000&#45;&gt;key 4625
bias &#45;0.252
h_scaling 1.000 -->
<g id="edge8" class="edge">
<title>output
bias &#45;0.196
h_scaling 1.000&#45;&gt;key 4625
bias &#45;0.252
h_scaling 1.000</title>
<path fill="none" stroke="red" stroke-width="0.1" d="M258.7,-127.31C259.8,-174.89 262.07,-241.92 266.69,-300.56 267.61,-312.32 268.86,-324.77 270.21,-336.88"/>
<polygon fill="red" stroke="red" stroke-width="0.1" points="266.74,-337.42 271.36,-346.95 273.7,-336.62 266.74,-337.42"/>
<text text-anchor="middle" x="280.69" y="-234.72" font-family="Times,serif" font-size="9.00">0.000</text>
</g>
<!-- output
bias &#45;0.196
h_scaling 1.000&#45;&gt;key 378
bias &#45;0.706
h_scaling 1.000 -->
<g id="edge18" class="edge">
<title>output
bias &#45;0.196
h_scaling 1.000&#45;&gt;key 378
bias &#45;0.706
h_scaling 1.000</title>
<path fill="none" stroke="red" stroke-width="0.1" d="M300.91,-110.65C310.04,-121.55 319.17,-133.46 326.69,-145.28 331.33,-152.59 335.73,-160.51 339.8,-168.52"/>
<polygon fill="red" stroke="red" stroke-width="0.1" points="336.7,-170.15 344.25,-177.58 342.98,-167.06 336.7,-170.15"/>
<text text-anchor="middle" x="345.69" y="-148.08" font-family="Times,serif" font-size="9.00">0.000</text>
</g>
<!-- key 112888
bias &#45;0.596
h_scaling 1.000 -->
<g id="node4" class="node">
<title>key 112888
bias &#45;0.596
h_scaling 1.000</title>
<ellipse fill="white" stroke="black" cx="573.69" cy="-583.48" rx="63.78" ry="63.78"/>
<text text-anchor="middle" x="573.69" y="-591.28" font-family="Times,serif" font-size="9.00">key 112888</text>
<text text-anchor="middle" x="573.69" y="-581.28" font-family="Times,serif" font-size="9.00">bias &#45;0.596</text>
<text text-anchor="middle" x="573.69" y="-571.28" font-family="Times,serif" font-size="9.00">h_scaling 1.000</text>
</g>
<!-- key 87223
bias 0.713
h_scaling 1.000 -->
<g id="node7" class="node">
<title>key 87223
bias 0.713
h_scaling 1.000</title>
<ellipse fill="white" stroke="black" cx="573.69" cy="-410.2" rx="63.78" ry="63.78"/>
<text text-anchor="middle" x="573.69" y="-418" font-family="Times,serif" font-size="9.00">key 87223</text>
<text text-anchor="middle" x="573.69" y="-408" font-family="Times,serif" font-size="9.00">bias 0.713</text>
<text text-anchor="middle" x="573.69" y="-398" font-family="Times,serif" font-size="9.00">h_scaling 1.000</text>
</g>
<!-- key 112888
bias &#45;0.596
h_scaling 1.000&#45;&gt;key 87223
bias 0.713
h_scaling 1.000 -->
<g id="edge23" class="edge">
<title>key 112888
bias &#45;0.596
h_scaling 1.000&#45;&gt;key 87223
bias 0.713
h_scaling 1.000</title>
<path fill="none" stroke="red" stroke-width="0.1" d="M573.69,-519.67C573.69,-508.15 573.69,-496.04 573.69,-484.25"/>
<polygon fill="red" stroke="red" stroke-width="0.1" points="577.19,-484 573.69,-474 570.19,-484 577.19,-484"/>
<text text-anchor="middle" x="587.69" y="-494.64" font-family="Times,serif" font-size="9.00">0.000</text>
</g>
<!-- key 7886
bias &#45;0.573
h_scaling 1.000&#45;&gt;key 4625
bias &#45;0.252
h_scaling 1.000 -->
<g id="edge13" class="edge">
<title>key 7886
bias &#45;0.573
h_scaling 1.000&#45;&gt;key 4625
bias &#45;0.252
h_scaling 1.000</title>
<path fill="none" stroke="blue" stroke-width="0.1" d="M254.89,-696.29C259.52,-680.48 263.9,-663.3 266.69,-647.12 276.02,-592.98 279.15,-530.92 280.01,-484.04"/>
<polygon fill="blue" stroke="blue" stroke-width="0.1" points="283.51,-484.03 280.16,-473.98 276.51,-483.92 283.51,-484.03"/>
</g>
<!-- key 7886
bias &#45;0.573
h_scaling 1.000&#45;&gt;key 378
bias &#45;0.706
h_scaling 1.000 -->
<g id="edge10" class="edge">
<title>key 7886
bias &#45;0.573
h_scaling 1.000&#45;&gt;key 378
bias &#45;0.706
h_scaling 1.000</title>
<path fill="none" stroke="blue" stroke-width="0.1" d="M295.82,-738.66C340.46,-722.72 398.14,-694.17 427.69,-647.12 498.78,-533.92 476.84,-474.67 438.69,-346.56 433.34,-328.61 423.99,-310.87 413.78,-295.09"/>
<polygon fill="blue" stroke="blue" stroke-width="0.1" points="416.52,-292.89 408.05,-286.53 410.71,-296.79 416.52,-292.89"/>
</g>
<!-- key 7886
bias &#45;0.573
h_scaling 1.000&#45;&gt;key 27899
bias &#45;0.384
h_scaling 1.000 -->
<g id="edge20" class="edge">
<title>key 7886
bias &#45;0.573
h_scaling 1.000&#45;&gt;key 27899
bias &#45;0.384
h_scaling 1.000</title>
<path fill="none" stroke="red" stroke-width="0.1" d="M202.77,-701.09C192.89,-684.17 181.92,-665.38 171.72,-647.91"/>
<polygon fill="red" stroke="red" stroke-width="0.1" points="174.54,-645.79 166.47,-638.92 168.49,-649.32 174.54,-645.79"/>
<text text-anchor="middle" x="198.69" y="-667.92" font-family="Times,serif" font-size="9.00">0.000</text>
</g>
<!-- key 4625
bias &#45;0.252
h_scaling 1.000&#45;&gt;key 4625
bias &#45;0.252
h_scaling 1.000 -->
<g id="edge7" class="edge">
<title>key 4625
bias &#45;0.252
h_scaling 1.000&#45;&gt;key 4625
bias &#45;0.252
h_scaling 1.000</title>
<path fill="none" stroke="red" stroke-width="0.1" d="M341.63,-425.5C353.19,-423.61 361.33,-418.51 361.33,-410.2 361.33,-404.48 357.48,-400.29 351.32,-397.61"/>
<polygon fill="red" stroke="red" stroke-width="0.1" points="352.2,-394.22 341.63,-394.9 350.32,-400.96 352.2,-394.22"/>
<text text-anchor="middle" x="375.33" y="-408" font-family="Times,serif" font-size="9.00">0.000</text>
</g>
<!-- key 4625
bias &#45;0.252
h_scaling 1.000&#45;&gt;key 378
bias &#45;0.706
h_scaling 1.000 -->
<g id="edge6" class="edge">
<title>key 4625
bias &#45;0.252
h_scaling 1.000&#45;&gt;key 378
bias &#45;0.706
h_scaling 1.000</title>
<path fill="none" stroke="red" stroke-width="0.1" d="M308.5,-353.11C316.75,-337.06 325.81,-319.43 334.3,-302.89"/>
<polygon fill="red" stroke="red" stroke-width="0.1" points="337.5,-304.33 338.96,-293.84 331.28,-301.13 337.5,-304.33"/>
<text text-anchor="middle" x="337.69" y="-321.36" font-family="Times,serif" font-size="9.00">0.000</text>
</g>
<!-- key 87223
bias 0.713
h_scaling 1.000&#45;&gt;key 378
bias &#45;0.706
h_scaling 1.000 -->
<g id="edge22" class="edge">
<title>key 87223
bias 0.713
h_scaling 1.000&#45;&gt;key 378
bias &#45;0.706
h_scaling 1.000</title>
<path fill="none" stroke="red" stroke-width="0.1" d="M535.28,-359.2C523.38,-345.25 509.68,-330.62 495.69,-318.56 476.36,-301.91 453.28,-286.29 432.07,-273.31"/>
<polygon fill="red" stroke="red" stroke-width="0.1" points="433.79,-270.26 423.42,-268.1 430.18,-276.26 433.79,-270.26"/>
<text text-anchor="middle" x="518.69" y="-321.36" font-family="Times,serif" font-size="9.00">0.000</text>
</g>
<!-- key 8920
bias &#45;0.557
h_scaling 1.000&#45;&gt;output
bias &#45;0.196
h_scaling 1.000 -->
<g id="edge14" class="edge">
<title>key 8920
bias &#45;0.557
h_scaling 1.000&#45;&gt;output
bias &#45;0.196
h_scaling 1.000</title>
<path fill="none" stroke="red" stroke-width="0.1" d="M155.83,-349.97C177.29,-289.85 210.49,-196.84 233.11,-133.48"/>
<polygon fill="red" stroke="red" stroke-width="0.1" points="236.44,-134.56 236.51,-123.96 229.85,-132.2 236.44,-134.56"/>
<text text-anchor="middle" x="232.69" y="-234.72" font-family="Times,serif" font-size="9.00">0.000</text>
</g>
<!-- key 8920
bias &#45;0.557
h_scaling 1.000&#45;&gt;key 7886
bias &#45;0.573
h_scaling 1.000 -->
<g id="edge12" class="edge">
<title>key 8920
bias &#45;0.557
h_scaling 1.000&#45;&gt;key 7886
bias &#45;0.573
h_scaling 1.000</title>
<path fill="none" stroke="red" stroke-width="0.1" d="M174.61,-459.84C187.24,-477.7 199.91,-498.73 207.69,-519.84 226.96,-572.19 233.4,-635.11 235.19,-682.81"/>
<polygon fill="red" stroke="red" stroke-width="0.1" points="231.7,-683.16 235.52,-693.05 238.7,-682.94 231.7,-683.16"/>
<text text-anchor="middle" x="247.69" y="-581.28" font-family="Times,serif" font-size="9.00">0.000</text>
</g>
<!-- key 8920
bias &#45;0.557
h_scaling 1.000&#45;&gt;key 378
bias &#45;0.706
h_scaling 1.000 -->
<g id="edge21" class="edge">
<title>key 8920
bias &#45;0.557
h_scaling 1.000&#45;&gt;key 378
bias &#45;0.706
h_scaling 1.000</title>
<path fill="none" stroke="blue" stroke-width="0.1" d="M181.17,-366.28C189.44,-359.38 198.14,-352.55 206.69,-346.56 241.23,-322.36 254.67,-324.07 289.69,-300.56 296.84,-295.76 304.15,-290.46 311.28,-285.05"/>
<polygon fill="blue" stroke="blue" stroke-width="0.1" points="313.78,-287.55 319.56,-278.67 309.5,-282 313.78,-287.55"/>
</g>
<!-- key 378
bias &#45;0.706
h_scaling 1.000&#45;&gt;output
bias &#45;0.196
h_scaling 1.000 -->
<g id="edge2" class="edge">
<title>key 378
bias &#45;0.706
h_scaling 1.000&#45;&gt;output
bias &#45;0.196
h_scaling 1.000</title>
<path fill="none" stroke="blue" stroke-width="0.1" d="M333.49,-182.66C322,-164.78 309.09,-144.68 297.23,-126.21"/>
<polygon fill="blue" stroke="blue" stroke-width="0.1" points="300.03,-124.09 291.68,-117.57 294.14,-127.87 300.03,-124.09"/>
</g>
<!-- key 378
bias &#45;0.706
h_scaling 1.000&#45;&gt;key 378
bias &#45;0.706
h_scaling 1.000 -->
<g id="edge4" class="edge">
<title>key 378
bias &#45;0.706
h_scaling 1.000&#45;&gt;key 378
bias &#45;0.706
h_scaling 1.000</title>
<path fill="none" stroke="red" stroke-width="0.1" d="M429.63,-252.22C441.19,-250.33 449.33,-245.23 449.33,-236.92 449.33,-231.2 445.48,-227.01 439.32,-224.33"/>
<polygon fill="red" stroke="red" stroke-width="0.1" points="440.2,-220.94 429.63,-221.62 438.32,-227.68 440.2,-220.94"/>
<text text-anchor="middle" x="463.33" y="-234.72" font-family="Times,serif" font-size="9.00">0.000</text>
</g>
<!-- key 27899
bias &#45;0.384
h_scaling 1.000&#45;&gt;key 4625
bias &#45;0.252
h_scaling 1.000 -->
<g id="edge17" class="edge">
<title>key 27899
bias &#45;0.384
h_scaling 1.000&#45;&gt;key 4625
bias &#45;0.252
h_scaling 1.000</title>
<path fill="none" stroke="red" stroke-width="0.1" d="M175.46,-534.31C193.14,-513.43 213.96,-488.84 232.32,-467.15"/>
<polygon fill="red" stroke="red" stroke-width="0.1" points="235.18,-469.19 238.97,-459.3 229.83,-464.67 235.18,-469.19"/>
<text text-anchor="middle" x="221.69" y="-494.64" font-family="Times,serif" font-size="9.00">0.000</text>
</g>
<!-- key 27899
bias &#45;0.384
h_scaling 1.000&#45;&gt;key 8920
bias &#45;0.557
h_scaling 1.000 -->
<g id="edge16" class="edge">
<title>key 27899
bias &#45;0.384
h_scaling 1.000&#45;&gt;key 8920
bias &#45;0.557
h_scaling 1.000</title>
<path fill="none" stroke="red" stroke-width="0.1" d="M134.69,-519.67C134.69,-508.15 134.69,-496.04 134.69,-484.25"/>
<polygon fill="red" stroke="red" stroke-width="0.1" points="138.19,-484 134.69,-474 131.19,-484 138.19,-484"/>
<text text-anchor="middle" x="148.69" y="-494.64" font-family="Times,serif" font-size="9.00">0.000</text>
</g>
</g>
</svg>
