<?xml version="1.0" encoding="UTF-8" standalone="no"?>
<!DOCTYPE svg PUBLIC "-//W3C//DTD SVG 1.1//EN"
 "http://www.w3.org/Graphics/SVG/1.1/DTD/svg11.dtd">
<!-- Generated by graphviz version 2.43.0 (0)
 -->
<!-- Title: %3 Pages: 1 -->
<svg width="477pt" height="1057pt"
 viewBox="0.00 0.00 477.00 1056.68" xmlns="http://www.w3.org/2000/svg" xmlns:xlink="http://www.w3.org/1999/xlink">
<g id="graph0" class="graph" transform="scale(1 1) rotate(0) translate(4 1052.68)">
<title>%3</title>
<polygon fill="white" stroke="transparent" points="-4,4 -4,-1052.68 473,-1052.68 473,4 -4,4"/>
<!-- ready -->
<g id="node1" class="node">
<title>ready</title>
<polygon fill="yellow" stroke="black" points="341.5,-1048.68 298.5,-1048.68 298.5,-1030.68 341.5,-1030.68 341.5,-1048.68"/>
<text text-anchor="middle" x="320" y="-1037.48" font-family="Times,serif" font-size="9.00">ready</text>
</g>
<!-- key 2049
bias &#45;0.583
h_scaling 0.660 -->
<g id="node4" class="node">
<title>key 2049
bias &#45;0.583
h_scaling 0.660</title>
<ellipse fill="white" stroke="black" cx="320" cy="-921.04" rx="63.78" ry="63.78"/>
<text text-anchor="middle" x="320" y="-928.84" font-family="Times,serif" font-size="9.00">key 2049</text>
<text text-anchor="middle" x="320" y="-918.84" font-family="Times,serif" font-size="9.00">bias &#45;0.583</text>
<text text-anchor="middle" x="320" y="-908.84" font-family="Times,serif" font-size="9.00">h_scaling 0.660</text>
</g>
<!-- ready&#45;&gt;key 2049
bias &#45;0.583
h_scaling 0.660 -->
<g id="edge8" class="edge">
<title>ready&#45;&gt;key 2049
bias &#45;0.583
h_scaling 0.660</title>
<path fill="none" stroke="red" stroke-width="1.14" d="M320,-1030.66C320,-1022.63 320,-1009.41 320,-994.91"/>
<polygon fill="red" stroke="red" stroke-width="1.14" points="323.5,-994.71 320,-984.71 316.5,-994.71 323.5,-994.71"/>
<text text-anchor="middle" x="334" y="-1005.48" font-family="Times,serif" font-size="9.00">0.035</text>
</g>
<!-- key 27460
bias &#45;0.589
h_scaling 0.661 -->
<g id="node6" class="node">
<title>key 27460
bias &#45;0.589
h_scaling 0.661</title>
<ellipse fill="white" stroke="black" cx="194" cy="-574.48" rx="63.78" ry="63.78"/>
<text text-anchor="middle" x="194" y="-582.28" font-family="Times,serif" font-size="9.00">key 27460</text>
<text text-anchor="middle" x="194" y="-572.28" font-family="Times,serif" font-size="9.00">bias &#45;0.589</text>
<text text-anchor="middle" x="194" y="-562.28" font-family="Times,serif" font-size="9.00">h_scaling 0.661</text>
</g>
<!-- ready&#45;&gt;key 27460
bias &#45;0.589
h_scaling 0.661 -->
<g id="edge6" class="edge">
<title>ready&#45;&gt;key 27460
bias &#45;0.589
h_scaling 0.661</title>
<path fill="none" stroke="red" stroke-width="0.5" d="M302.51,-1030.63C285.49,-1021.84 260.3,-1006.11 247,-984.68 182.77,-881.2 180.48,-734.68 186.18,-647.93"/>
<polygon fill="red" stroke="red" stroke-width="0.5" points="189.68,-648.14 186.9,-637.91 182.7,-647.64 189.68,-648.14"/>
<text text-anchor="middle" x="209" y="-832.2" font-family="Times,serif" font-size="9.00">0.013</text>
</g>
<!-- key 25456
bias &#45;0.668
h_scaling 0.000 -->
<g id="node7" class="node">
<title>key 25456
bias &#45;0.668
h_scaling 0.000</title>
<ellipse fill="white" stroke="black" cx="332" cy="-401.2" rx="63.78" ry="63.78"/>
<text text-anchor="middle" x="332" y="-409" font-family="Times,serif" font-size="9.00">key 25456</text>
<text text-anchor="middle" x="332" y="-399" font-family="Times,serif" font-size="9.00">bias &#45;0.668</text>
<text text-anchor="middle" x="332" y="-389" font-family="Times,serif" font-size="9.00">h_scaling 0.000</text>
</g>
<!-- ready&#45;&gt;key 25456
bias &#45;0.668
h_scaling 0.000 -->
<g id="edge3" class="edge">
<title>ready&#45;&gt;key 25456
bias &#45;0.668
h_scaling 0.000</title>
<path fill="none" stroke="red" stroke-width="0.91" d="M336.28,-1030.58C352.85,-1021.55 378.13,-1005.44 393,-984.68 410.02,-960.92 413,-951.26 413,-922.04 413,-922.04 413,-922.04 413,-573.48 413,-533.49 394.73,-492.85 375.55,-461.2"/>
<polygon fill="red" stroke="red" stroke-width="0.91" points="378.39,-459.15 370.13,-452.52 372.46,-462.86 378.39,-459.15"/>
<text text-anchor="middle" x="427" y="-745.56" font-family="Times,serif" font-size="9.00">0.027</text>
</g>
<!-- go -->
<g id="node2" class="node">
<title>go</title>
<polygon fill="green" stroke="black" points="436,-1048.68 408,-1048.68 408,-1030.68 436,-1030.68 436,-1048.68"/>
<text text-anchor="middle" x="422" y="-1037.48" font-family="Times,serif" font-size="9.00">go</text>
</g>
<!-- go&#45;&gt;key 2049
bias &#45;0.583
h_scaling 0.660 -->
<g id="edge2" class="edge">
<title>go&#45;&gt;key 2049
bias &#45;0.583
h_scaling 0.660</title>
<path fill="none" stroke="blue" stroke-width="0.1" d="M414.99,-1030.66C405.17,-1019.43 386.47,-998.04 368.24,-977.19"/>
<polygon fill="blue" stroke="blue" stroke-width="0.1" points="370.77,-974.78 361.56,-969.56 365.51,-979.39 370.77,-974.78"/>
</g>
<!-- go&#45;&gt;key 25456
bias &#45;0.668
h_scaling 0.000 -->
<g id="edge9" class="edge">
<title>go&#45;&gt;key 25456
bias &#45;0.668
h_scaling 0.000</title>
<path fill="none" stroke="blue" stroke-width="0.1" d="M427.76,-1030.64C440.31,-1012.33 469,-965.7 469,-922.04 469,-922.04 469,-922.04 469,-573.48 469,-520.86 429.09,-475.15 392.35,-444.21"/>
<polygon fill="blue" stroke="blue" stroke-width="0.1" points="394.53,-441.47 384.58,-437.84 390.09,-446.89 394.53,-441.47"/>
</g>
<!-- output
bias &#45;0.989
h_scaling 0.550 -->
<g id="node3" class="node">
<title>output
bias &#45;0.989
h_scaling 0.550</title>
<ellipse fill="lightblue" stroke="black" cx="84" cy="-747.76" rx="63.78" ry="63.78"/>
<text text-anchor="middle" x="84" y="-755.56" font-family="Times,serif" font-size="9.00">output</text>
<text text-anchor="middle" x="84" y="-745.56" font-family="Times,serif" font-size="9.00">bias &#45;0.989</text>
<text text-anchor="middle" x="84" y="-735.56" font-family="Times,serif" font-size="9.00">h_scaling 0.550</text>
</g>
<!-- output
bias &#45;0.989
h_scaling 0.550&#45;&gt;key 27460
bias &#45;0.589
h_scaling 0.661 -->
<g id="edge11" class="edge">
<title>output
bias &#45;0.989
h_scaling 0.550&#45;&gt;key 27460
bias &#45;0.589
h_scaling 0.661</title>
<path fill="none" stroke="blue" stroke-width="0.1" d="M118.2,-693.5C129.69,-675.61 142.6,-655.52 154.46,-637.04"/>
<polygon fill="blue" stroke="blue" stroke-width="0.1" points="157.55,-638.71 160.01,-628.4 151.66,-634.93 157.55,-638.71"/>
</g>
<!-- key 120319
bias 0.465
h_scaling 0.000 -->
<g id="node8" class="node">
<title>key 120319
bias 0.465
h_scaling 0.000</title>
<ellipse fill="white" stroke="black" cx="80" cy="-63.64" rx="63.78" ry="63.78"/>
<text text-anchor="middle" x="80" y="-71.44" font-family="Times,serif" font-size="9.00">key 120319</text>
<text text-anchor="middle" x="80" y="-61.44" font-family="Times,serif" font-size="9.00">bias 0.465</text>
<text text-anchor="middle" x="80" y="-51.44" font-family="Times,serif" font-size="9.00">h_scaling 0.000</text>
</g>
<!-- output
bias &#45;0.989
h_scaling 0.550&#45;&gt;key 120319
bias 0.465
h_scaling 0.000 -->
<g id="edge13" class="edge">
<title>output
bias &#45;0.989
h_scaling 0.550&#45;&gt;key 120319
bias 0.465
h_scaling 0.000</title>
<path fill="none" stroke="red" stroke-width="0.61" d="M44.95,-697.37C23.01,-664.71 0,-619.86 0,-575.48 0,-575.48 0,-575.48 0,-226.92 0,-189.75 17.09,-152.28 35.47,-122.72"/>
<polygon fill="red" stroke="red" stroke-width="0.61" points="38.48,-124.51 40.94,-114.2 32.59,-120.73 38.48,-124.51"/>
<text text-anchor="middle" x="14" y="-399" font-family="Times,serif" font-size="9.00">0.017</text>
</g>
<!-- key 2049
bias &#45;0.583
h_scaling 0.660&#45;&gt;output
bias &#45;0.989
h_scaling 0.550 -->
<g id="edge1" class="edge">
<title>key 2049
bias &#45;0.583
h_scaling 0.660&#45;&gt;output
bias &#45;0.989
h_scaling 0.550</title>
<path fill="none" stroke="red" stroke-width="0.88" d="M287.08,-866.43C277.25,-853.21 265.68,-839.86 253,-829.4 223.67,-805.2 185.87,-786.28 153.45,-772.87"/>
<polygon fill="red" stroke="red" stroke-width="0.88" points="154.61,-769.56 144.02,-769.06 151.98,-776.05 154.61,-769.56"/>
<text text-anchor="middle" x="277" y="-832.2" font-family="Times,serif" font-size="9.00">0.026</text>
</g>
<!-- key 2049
bias &#45;0.583
h_scaling 0.660&#45;&gt;key 25456
bias &#45;0.668
h_scaling 0.000 -->
<g id="edge5" class="edge">
<title>key 2049
bias &#45;0.583
h_scaling 0.660&#45;&gt;key 25456
bias &#45;0.668
h_scaling 0.000</title>
<path fill="none" stroke="red" stroke-width="0.95" d="M319.17,-857.37C318.66,-803.89 318.37,-724.94 320,-656.12 321.44,-595.03 324.84,-525.74 327.65,-474.99"/>
<polygon fill="red" stroke="red" stroke-width="0.95" points="331.15,-474.96 328.22,-464.78 324.16,-474.57 331.15,-474.96"/>
<text text-anchor="middle" x="334" y="-658.92" font-family="Times,serif" font-size="9.00">0.028</text>
</g>
<!-- key 259297
bias &#45;0.067
h_scaling 0.991 -->
<g id="node5" class="node">
<title>key 259297
bias &#45;0.067
h_scaling 0.991</title>
<ellipse fill="white" stroke="black" cx="172" cy="-227.92" rx="63.78" ry="63.78"/>
<text text-anchor="middle" x="172" y="-235.72" font-family="Times,serif" font-size="9.00">key 259297</text>
<text text-anchor="middle" x="172" y="-225.72" font-family="Times,serif" font-size="9.00">bias &#45;0.067</text>
<text text-anchor="middle" x="172" y="-215.72" font-family="Times,serif" font-size="9.00">h_scaling 0.991</text>
</g>
<!-- key 259297
bias &#45;0.067
h_scaling 0.991&#45;&gt;output
bias &#45;0.989
h_scaling 0.550 -->
<g id="edge18" class="edge">
<title>key 259297
bias &#45;0.067
h_scaling 0.991&#45;&gt;output
bias &#45;0.989
h_scaling 0.550</title>
<path fill="none" stroke="blue" stroke-width="0.1" d="M142.86,-284.54C115.51,-340.1 76.57,-428.8 61,-510.84 55.86,-537.92 55.17,-618.51 63,-666.12 63.56,-669.5 64.19,-672.95 64.88,-676.43"/>
<polygon fill="blue" stroke="blue" stroke-width="0.1" points="61.47,-677.19 66.97,-686.25 68.31,-675.74 61.47,-677.19"/>
</g>
<!-- key 259297
bias &#45;0.067
h_scaling 0.991&#45;&gt;key 120319
bias 0.465
h_scaling 0.000 -->
<g id="edge17" class="edge">
<title>key 259297
bias &#45;0.067
h_scaling 0.991&#45;&gt;key 120319
bias 0.465
h_scaling 0.000</title>
<path fill="none" stroke="blue" stroke-width="0.1" d="M140.85,-171.98C132.87,-157.89 124.21,-142.62 116,-128.14"/>
<polygon fill="blue" stroke="blue" stroke-width="0.1" points="118.94,-126.22 110.96,-119.25 112.85,-129.67 118.94,-126.22"/>
</g>
<!-- key 27460
bias &#45;0.589
h_scaling 0.661&#45;&gt;key 27460
bias &#45;0.589
h_scaling 0.661 -->
<g id="edge10" class="edge">
<title>key 27460
bias &#45;0.589
h_scaling 0.661&#45;&gt;key 27460
bias &#45;0.589
h_scaling 0.661</title>
<path fill="none" stroke="red" stroke-width="1.57" d="M255.94,-589.77C267.5,-587.89 275.64,-582.79 275.64,-574.48 275.64,-568.76 271.79,-564.56 265.63,-561.89"/>
<polygon fill="red" stroke="red" stroke-width="1.57" points="266.52,-558.5 255.94,-559.18 264.63,-565.24 266.52,-558.5"/>
<text text-anchor="middle" x="289.64" y="-572.28" font-family="Times,serif" font-size="9.00">0.049</text>
</g>
<!-- key 27460
bias &#45;0.589
h_scaling 0.661&#45;&gt;key 25456
bias &#45;0.668
h_scaling 0.000 -->
<g id="edge7" class="edge">
<title>key 27460
bias &#45;0.589
h_scaling 0.661&#45;&gt;key 25456
bias &#45;0.668
h_scaling 0.000</title>
<path fill="none" stroke="red" stroke-width="2.08" d="M233.55,-524.4C249.93,-504.06 269.04,-480.34 286.05,-459.23"/>
<polygon fill="red" stroke="red" stroke-width="2.08" points="288.9,-461.27 292.45,-451.29 283.45,-456.88 288.9,-461.27"/>
<text text-anchor="middle" x="277" y="-485.64" font-family="Times,serif" font-size="9.00">0.066</text>
</g>
<!-- key 25456
bias &#45;0.668
h_scaling 0.000&#45;&gt;output
bias &#45;0.989
h_scaling 0.550 -->
<g id="edge15" class="edge">
<title>key 25456
bias &#45;0.668
h_scaling 0.000&#45;&gt;output
bias &#45;0.989
h_scaling 0.550</title>
<path fill="none" stroke="red" stroke-width="0.88" d="M269.22,-411.95C212.71,-424.37 132.63,-451.8 93,-510.84 60.84,-558.76 61.33,-625.33 68.29,-675.54"/>
<polygon fill="red" stroke="red" stroke-width="0.88" points="64.86,-676.31 69.81,-685.68 71.79,-675.27 64.86,-676.31"/>
<text text-anchor="middle" x="107" y="-572.28" font-family="Times,serif" font-size="9.00">0.026</text>
</g>
<!-- key 25456
bias &#45;0.668
h_scaling 0.000&#45;&gt;key 2049
bias &#45;0.583
h_scaling 0.660 -->
<g id="edge4" class="edge">
<title>key 25456
bias &#45;0.668
h_scaling 0.000&#45;&gt;key 2049
bias &#45;0.583
h_scaling 0.660</title>
<path fill="none" stroke="red" stroke-width="0.95" d="M343.79,-464.14C344.67,-470.44 345.44,-476.75 346,-482.84 360.52,-640.75 352.47,-682.02 333,-839.4 332.65,-842.23 332.27,-845.12 331.88,-848.04"/>
<polygon fill="red" stroke="red" stroke-width="0.95" points="328.4,-847.63 330.47,-858.03 335.33,-848.61 328.4,-847.63"/>
<text text-anchor="middle" x="367" y="-658.92" font-family="Times,serif" font-size="9.00">0.028</text>
</g>
<!-- key 25456
bias &#45;0.668
h_scaling 0.000&#45;&gt;key 259297
bias &#45;0.067
h_scaling 0.991 -->
<g id="edge16" class="edge">
<title>key 25456
bias &#45;0.668
h_scaling 0.000&#45;&gt;key 259297
bias &#45;0.067
h_scaling 0.991</title>
<path fill="none" stroke="blue" stroke-width="0.1" d="M288.7,-353.85C268.16,-331.86 243.51,-305.47 222.16,-282.61"/>
<polygon fill="blue" stroke="blue" stroke-width="0.1" points="224.44,-279.93 215.06,-275.01 219.32,-284.71 224.44,-279.93"/>
</g>
<!-- key 25456
bias &#45;0.668
h_scaling 0.000&#45;&gt;key 25456
bias &#45;0.668
h_scaling 0.000 -->
<g id="edge14" class="edge">
<title>key 25456
bias &#45;0.668
h_scaling 0.000&#45;&gt;key 25456
bias &#45;0.668
h_scaling 0.000</title>
<path fill="none" stroke="red" stroke-width="3.56" d="M393.94,-416.5C405.5,-414.61 413.64,-409.51 413.64,-401.2 413.64,-395.48 409.79,-391.29 403.63,-388.61"/>
<polygon fill="red" stroke="red" stroke-width="3.56" points="404.52,-385.22 393.94,-385.9 402.63,-391.96 404.52,-385.22"/>
<text text-anchor="middle" x="427.64" y="-399" font-family="Times,serif" font-size="9.00">0.115</text>
</g>
<!-- key 120319
bias 0.465
h_scaling 0.000&#45;&gt;key 27460
bias &#45;0.589
h_scaling 0.661 -->
<g id="edge12" class="edge">
<title>key 120319
bias 0.465
h_scaling 0.000&#45;&gt;key 27460
bias &#45;0.589
h_scaling 0.661</title>
<path fill="none" stroke="red" stroke-width="1.54" d="M81.19,-127.34C83.04,-173.23 87.65,-236.78 99,-291.56 114.57,-366.74 144.09,-449.66 166.11,-505.99"/>
<polygon fill="red" stroke="red" stroke-width="1.54" points="162.93,-507.47 169.85,-515.49 169.45,-504.91 162.93,-507.47"/>
<text text-anchor="middle" x="120" y="-312.36" font-family="Times,serif" font-size="9.00">0.048</text>
</g>
</g>
</svg>
