<?xml version="1.0" encoding="UTF-8" standalone="no"?>
<!DOCTYPE svg PUBLIC "-//W3C//DTD SVG 1.1//EN"
 "http://www.w3.org/Graphics/SVG/1.1/DTD/svg11.dtd">
<!-- Generated by graphviz version 2.43.0 (0)
 -->
<!-- Title: %3 Pages: 1 -->
<svg width="291pt" height="556pt"
 viewBox="0.00 0.00 291.28 555.84" xmlns="http://www.w3.org/2000/svg" xmlns:xlink="http://www.w3.org/1999/xlink">
<g id="graph0" class="graph" transform="scale(1 1) rotate(0) translate(4 551.84)">
<title>%3</title>
<polygon fill="white" stroke="transparent" points="-4,4 -4,-551.84 287.28,-551.84 287.28,4 -4,4"/>
<!-- ready
output 0.000 -->
<g id="node1" class="node">
<title>ready
output 0.000</title>
<polygon fill="yellow" stroke="black" points="102.14,-547.84 25.14,-547.84 25.14,-519.84 102.14,-519.84 102.14,-547.84"/>
<text text-anchor="middle" x="63.64" y="-536.64" font-family="Times,serif" font-size="9.00">ready</text>
<text text-anchor="middle" x="63.64" y="-526.64" font-family="Times,serif" font-size="9.00">output 0.000</text>
</g>
<!-- key 36786
bias &#45;0.478
h_scaling 0.774
output 0.407 -->
<g id="node4" class="node">
<title>key 36786
bias &#45;0.478
h_scaling 0.774
output 0.407</title>
<ellipse fill="white" stroke="black" cx="63.64" cy="-410.2" rx="63.78" ry="63.78"/>
<text text-anchor="middle" x="63.64" y="-423" font-family="Times,serif" font-size="9.00">key 36786</text>
<text text-anchor="middle" x="63.64" y="-413" font-family="Times,serif" font-size="9.00">bias &#45;0.478</text>
<text text-anchor="middle" x="63.64" y="-403" font-family="Times,serif" font-size="9.00">h_scaling 0.774</text>
<text text-anchor="middle" x="63.64" y="-393" font-family="Times,serif" font-size="9.00">output 0.407</text>
</g>
<!-- ready
output 0.000&#45;&gt;key 36786
bias &#45;0.478
h_scaling 0.774
output 0.407 -->
<g id="edge5" class="edge">
<title>ready
output 0.000&#45;&gt;key 36786
bias &#45;0.478
h_scaling 0.774
output 0.407</title>
<path fill="none" stroke="red" stroke-width="0.1" d="M63.64,-519.82C63.64,-510.75 63.64,-497.84 63.64,-484.07"/>
<polygon fill="red" stroke="red" stroke-width="0.1" points="67.14,-483.93 63.64,-473.93 60.14,-483.93 67.14,-483.93"/>
<text text-anchor="middle" x="77.64" y="-494.64" font-family="Times,serif" font-size="9.00">0.804</text>
</g>
<!-- go
output 0.000 -->
<g id="node2" class="node">
<title>go
output 0.000</title>
<polygon fill="green" stroke="black" points="268.14,-424.2 191.14,-424.2 191.14,-396.2 268.14,-396.2 268.14,-424.2"/>
<text text-anchor="middle" x="229.64" y="-413" font-family="Times,serif" font-size="9.00">go</text>
<text text-anchor="middle" x="229.64" y="-403" font-family="Times,serif" font-size="9.00">output 0.000</text>
</g>
<!-- key 2255
bias &#45;0.427
h_scaling 0.318
output 0.833 -->
<g id="node5" class="node">
<title>key 2255
bias &#45;0.427
h_scaling 0.318
output 0.833</title>
<ellipse fill="white" stroke="black" cx="173.64" cy="-236.92" rx="63.78" ry="63.78"/>
<text text-anchor="middle" x="173.64" y="-249.72" font-family="Times,serif" font-size="9.00">key 2255</text>
<text text-anchor="middle" x="173.64" y="-239.72" font-family="Times,serif" font-size="9.00">bias &#45;0.427</text>
<text text-anchor="middle" x="173.64" y="-229.72" font-family="Times,serif" font-size="9.00">h_scaling 0.318</text>
<text text-anchor="middle" x="173.64" y="-219.72" font-family="Times,serif" font-size="9.00">output 0.833</text>
</g>
<!-- go
output 0.000&#45;&gt;key 2255
bias &#45;0.427
h_scaling 0.318
output 0.833 -->
<g id="edge3" class="edge">
<title>go
output 0.000&#45;&gt;key 2255
bias &#45;0.427
h_scaling 0.318
output 0.833</title>
<path fill="none" stroke="red" stroke-width="0.1" d="M225.34,-396.04C219.11,-377.01 207.15,-340.42 196.3,-307.23"/>
<polygon fill="red" stroke="red" stroke-width="0.1" points="199.56,-305.94 193.13,-297.52 192.91,-308.11 199.56,-305.94"/>
<text text-anchor="middle" x="215.64" y="-321.36" font-family="Times,serif" font-size="9.00">1.057</text>
</g>
<!-- output
bias &#45;0.358
h_scaling 0.546
output 0.036 -->
<g id="node3" class="node">
<title>output
bias &#45;0.358
h_scaling 0.546
output 0.036</title>
<ellipse fill="lightblue" stroke="black" cx="79.64" cy="-63.64" rx="63.78" ry="63.78"/>
<text text-anchor="middle" x="79.64" y="-76.44" font-family="Times,serif" font-size="9.00">output</text>
<text text-anchor="middle" x="79.64" y="-66.44" font-family="Times,serif" font-size="9.00">bias &#45;0.358</text>
<text text-anchor="middle" x="79.64" y="-56.44" font-family="Times,serif" font-size="9.00">h_scaling 0.546</text>
<text text-anchor="middle" x="79.64" y="-46.44" font-family="Times,serif" font-size="9.00">output 0.036</text>
</g>
<!-- output
bias &#45;0.358
h_scaling 0.546
output 0.036&#45;&gt;output
bias &#45;0.358
h_scaling 0.546
output 0.036 -->
<g id="edge2" class="edge">
<title>output
bias &#45;0.358
h_scaling 0.546
output 0.036&#45;&gt;output
bias &#45;0.358
h_scaling 0.546
output 0.036</title>
<path fill="none" stroke="red" stroke-width="0.1" d="M141.58,-78.94C153.14,-77.05 161.28,-71.95 161.28,-63.64 161.28,-57.92 157.43,-53.73 151.27,-51.05"/>
<polygon fill="red" stroke="red" stroke-width="0.1" points="152.16,-47.66 141.58,-48.34 150.27,-54.4 152.16,-47.66"/>
<text text-anchor="middle" x="175.28" y="-61.44" font-family="Times,serif" font-size="9.00">0.945</text>
</g>
<!-- key 36786
bias &#45;0.478
h_scaling 0.774
output 0.407&#45;&gt;output
bias &#45;0.358
h_scaling 0.546
output 0.036 -->
<g id="edge7" class="edge">
<title>key 36786
bias &#45;0.478
h_scaling 0.774
output 0.407&#45;&gt;output
bias &#45;0.358
h_scaling 0.546
output 0.036</title>
<path fill="none" stroke="red" stroke-width="0.1" d="M65.6,-346.09C67.18,-298.57 69.64,-231.82 72.64,-173.28 73.24,-161.63 73.95,-149.28 74.7,-137.25"/>
<polygon fill="red" stroke="red" stroke-width="0.1" points="78.19,-137.44 75.32,-127.24 71.2,-137 78.19,-137.44"/>
<text text-anchor="middle" x="86.64" y="-234.72" font-family="Times,serif" font-size="9.00">0.560</text>
</g>
<!-- key 36786
bias &#45;0.478
h_scaling 0.774
output 0.407&#45;&gt;key 36786
bias &#45;0.478
h_scaling 0.774
output 0.407 -->
<g id="edge8" class="edge">
<title>key 36786
bias &#45;0.478
h_scaling 0.774
output 0.407&#45;&gt;key 36786
bias &#45;0.478
h_scaling 0.774
output 0.407</title>
<path fill="none" stroke="red" stroke-width="0.1" d="M125.58,-425.5C137.14,-423.61 145.28,-418.51 145.28,-410.2 145.28,-404.48 141.43,-400.29 135.27,-397.61"/>
<polygon fill="red" stroke="red" stroke-width="0.1" points="136.16,-394.22 125.58,-394.9 134.27,-400.96 136.16,-394.22"/>
<text text-anchor="middle" x="159.28" y="-408" font-family="Times,serif" font-size="9.00">0.953</text>
</g>
<!-- key 36786
bias &#45;0.478
h_scaling 0.774
output 0.407&#45;&gt;key 2255
bias &#45;0.427
h_scaling 0.318
output 0.833 -->
<g id="edge6" class="edge">
<title>key 36786
bias &#45;0.478
h_scaling 0.774
output 0.407&#45;&gt;key 2255
bias &#45;0.427
h_scaling 0.318
output 0.833</title>
<path fill="none" stroke="blue" stroke-width="0.1" d="M97.84,-355.94C109.33,-338.06 122.24,-317.96 134.1,-299.49"/>
<polygon fill="blue" stroke="blue" stroke-width="0.1" points="137.19,-301.15 139.65,-290.85 131.3,-297.37 137.19,-301.15"/>
<text text-anchor="middle" x="134.14" y="-321.36" font-family="Times,serif" font-size="9.00">&#45;0.292</text>
</g>
<!-- key 2255
bias &#45;0.427
h_scaling 0.318
output 0.833&#45;&gt;output
bias &#45;0.358
h_scaling 0.546
output 0.036 -->
<g id="edge1" class="edge">
<title>key 2255
bias &#45;0.427
h_scaling 0.318
output 0.833&#45;&gt;output
bias &#45;0.358
h_scaling 0.546
output 0.036</title>
<path fill="none" stroke="blue" stroke-width="0.1" d="M143.38,-180.78C134.24,-164.13 124.13,-145.7 114.7,-128.52"/>
<polygon fill="blue" stroke="blue" stroke-width="0.1" points="117.72,-126.76 109.84,-119.67 111.59,-130.12 117.72,-126.76"/>
<text text-anchor="middle" x="142.14" y="-148.08" font-family="Times,serif" font-size="9.00">&#45;1.000</text>
</g>
<!-- key 2255
bias &#45;0.427
h_scaling 0.318
output 0.833&#45;&gt;key 2255
bias &#45;0.427
h_scaling 0.318
output 0.833 -->
<g id="edge4" class="edge">
<title>key 2255
bias &#45;0.427
h_scaling 0.318
output 0.833&#45;&gt;key 2255
bias &#45;0.427
h_scaling 0.318
output 0.833</title>
<path fill="none" stroke="red" stroke-width="0.1" d="M235.58,-252.22C247.14,-250.33 255.28,-245.23 255.28,-236.92 255.28,-231.2 251.43,-227.01 245.27,-224.33"/>
<polygon fill="red" stroke="red" stroke-width="0.1" points="246.16,-220.94 235.58,-221.62 244.27,-227.68 246.16,-220.94"/>
<text text-anchor="middle" x="269.28" y="-234.72" font-family="Times,serif" font-size="9.00">1.034</text>
</g>
</g>
</svg>
