<?xml version="1.0" encoding="UTF-8" standalone="no"?>
<!DOCTYPE svg PUBLIC "-//W3C//DTD SVG 1.1//EN"
 "http://www.w3.org/Graphics/SVG/1.1/DTD/svg11.dtd">
<!-- Generated by graphviz version 2.43.0 (0)
 -->
<!-- Title: %3 Pages: 1 -->
<svg width="443pt" height="719pt"
 viewBox="0.00 0.00 442.64 719.12" xmlns="http://www.w3.org/2000/svg" xmlns:xlink="http://www.w3.org/1999/xlink">
<g id="graph0" class="graph" transform="scale(1 1) rotate(0) translate(4 715.12)">
<title>%3</title>
<polygon fill="white" stroke="transparent" points="-4,4 -4,-715.12 438.64,-715.12 438.64,4 -4,4"/>
<!-- ready -->
<g id="node1" class="node">
<title>ready</title>
<polygon fill="yellow" stroke="black" points="134.5,-711.12 91.5,-711.12 91.5,-693.12 134.5,-693.12 134.5,-711.12"/>
<text text-anchor="middle" x="113" y="-699.92" font-family="Times,serif" font-size="9.00">ready</text>
</g>
<!-- key 3170
bias &#45;0.535
h_scaling 0.725 -->
<g id="node4" class="node">
<title>key 3170
bias &#45;0.535
h_scaling 0.725</title>
<ellipse fill="white" stroke="black" cx="141" cy="-236.92" rx="63.78" ry="63.78"/>
<text text-anchor="middle" x="141" y="-244.72" font-family="Times,serif" font-size="9.00">key 3170</text>
<text text-anchor="middle" x="141" y="-234.72" font-family="Times,serif" font-size="9.00">bias &#45;0.535</text>
<text text-anchor="middle" x="141" y="-224.72" font-family="Times,serif" font-size="9.00">h_scaling 0.725</text>
</g>
<!-- ready&#45;&gt;key 3170
bias &#45;0.535
h_scaling 0.725 -->
<g id="edge5" class="edge">
<title>ready&#45;&gt;key 3170
bias &#45;0.535
h_scaling 0.725</title>
<path fill="none" stroke="blue" stroke-width="0.1" d="M109.97,-692.95C95.85,-653.72 38.83,-481.08 76,-346.56 80.7,-329.56 88.84,-312.54 97.8,-297.19"/>
<polygon fill="blue" stroke="blue" stroke-width="0.1" points="100.96,-298.72 103.15,-288.35 94.98,-295.09 100.96,-298.72"/>
</g>
<!-- key 231458
bias &#45;0.658
h_scaling 0.947 -->
<g id="node5" class="node">
<title>key 231458
bias &#45;0.658
h_scaling 0.947</title>
<ellipse fill="white" stroke="black" cx="223" cy="-583.48" rx="63.78" ry="63.78"/>
<text text-anchor="middle" x="223" y="-591.28" font-family="Times,serif" font-size="9.00">key 231458</text>
<text text-anchor="middle" x="223" y="-581.28" font-family="Times,serif" font-size="9.00">bias &#45;0.658</text>
<text text-anchor="middle" x="223" y="-571.28" font-family="Times,serif" font-size="9.00">h_scaling 0.947</text>
</g>
<!-- ready&#45;&gt;key 231458
bias &#45;0.658
h_scaling 0.947 -->
<g id="edge6" class="edge">
<title>ready&#45;&gt;key 231458
bias &#45;0.658
h_scaling 0.947</title>
<path fill="none" stroke="red" stroke-width="0.69" d="M120.56,-693.1C131.46,-681.54 152.5,-659.23 172.69,-637.82"/>
<polygon fill="red" stroke="red" stroke-width="0.69" points="175.46,-639.98 179.78,-630.31 170.37,-635.18 175.46,-639.98"/>
<text text-anchor="middle" x="159" y="-667.92" font-family="Times,serif" font-size="9.00">0.020</text>
</g>
<!-- key 233491
bias &#45;0.224
h_scaling 0.017 -->
<g id="node7" class="node">
<title>key 233491
bias &#45;0.224
h_scaling 0.017</title>
<ellipse fill="white" stroke="black" cx="149" cy="-410.2" rx="63.78" ry="63.78"/>
<text text-anchor="middle" x="149" y="-418" font-family="Times,serif" font-size="9.00">key 233491</text>
<text text-anchor="middle" x="149" y="-408" font-family="Times,serif" font-size="9.00">bias &#45;0.224</text>
<text text-anchor="middle" x="149" y="-398" font-family="Times,serif" font-size="9.00">h_scaling 0.017</text>
</g>
<!-- ready&#45;&gt;key 233491
bias &#45;0.224
h_scaling 0.017 -->
<g id="edge11" class="edge">
<title>ready&#45;&gt;key 233491
bias &#45;0.224
h_scaling 0.017</title>
<path fill="none" stroke="red" stroke-width="2.82" d="M112.85,-693.11C112.48,-667.64 112.2,-586.24 122,-519.84 123.84,-507.4 126.47,-494.31 129.38,-481.69"/>
<polygon fill="red" stroke="red" stroke-width="2.82" points="132.85,-482.23 131.76,-471.69 126.04,-480.61 132.85,-482.23"/>
<text text-anchor="middle" x="136" y="-581.28" font-family="Times,serif" font-size="9.00">0.091</text>
</g>
<!-- go -->
<g id="node2" class="node">
<title>go</title>
<polygon fill="green" stroke="black" points="28,-419.2 0,-419.2 0,-401.2 28,-401.2 28,-419.2"/>
<text text-anchor="middle" x="14" y="-408" font-family="Times,serif" font-size="9.00">go</text>
</g>
<!-- go&#45;&gt;key 3170
bias &#45;0.535
h_scaling 0.725 -->
<g id="edge3" class="edge">
<title>go&#45;&gt;key 3170
bias &#45;0.535
h_scaling 0.725</title>
<path fill="none" stroke="red" stroke-width="0.84" d="M11.67,-401.04C7.4,-384.33 0.04,-345.53 15,-318.56 27.79,-295.5 50.25,-278.05 72.7,-265.38"/>
<polygon fill="red" stroke="red" stroke-width="0.84" points="74.46,-268.41 81.62,-260.59 71.15,-262.24 74.46,-268.41"/>
<text text-anchor="middle" x="29" y="-321.36" font-family="Times,serif" font-size="9.00">0.025</text>
</g>
<!-- output
bias &#45;0.270
h_scaling 0.985 -->
<g id="node3" class="node">
<title>output
bias &#45;0.270
h_scaling 0.985</title>
<ellipse fill="lightblue" stroke="black" cx="242" cy="-63.64" rx="63.78" ry="63.78"/>
<text text-anchor="middle" x="242" y="-71.44" font-family="Times,serif" font-size="9.00">output</text>
<text text-anchor="middle" x="242" y="-61.44" font-family="Times,serif" font-size="9.00">bias &#45;0.270</text>
<text text-anchor="middle" x="242" y="-51.44" font-family="Times,serif" font-size="9.00">h_scaling 0.985</text>
</g>
<!-- output
bias &#45;0.270
h_scaling 0.985&#45;&gt;output
bias &#45;0.270
h_scaling 0.985 -->
<g id="edge1" class="edge">
<title>output
bias &#45;0.270
h_scaling 0.985&#45;&gt;output
bias &#45;0.270
h_scaling 0.985</title>
<path fill="none" stroke="red" stroke-width="1.19" d="M303.94,-78.94C315.5,-77.05 323.64,-71.95 323.64,-63.64 323.64,-57.92 319.79,-53.73 313.63,-51.05"/>
<polygon fill="red" stroke="red" stroke-width="1.19" points="314.52,-47.66 303.94,-48.34 312.63,-54.4 314.52,-47.66"/>
<text text-anchor="middle" x="337.64" y="-61.44" font-family="Times,serif" font-size="9.00">0.036</text>
</g>
<!-- output
bias &#45;0.270
h_scaling 0.985&#45;&gt;key 3170
bias &#45;0.535
h_scaling 0.725 -->
<g id="edge13" class="edge">
<title>output
bias &#45;0.270
h_scaling 0.985&#45;&gt;key 3170
bias &#45;0.535
h_scaling 0.725</title>
<path fill="none" stroke="red" stroke-width="0.67" d="M216.47,-122.51C211.05,-133.57 205.11,-144.93 199,-155.28 194.72,-162.54 189.95,-169.96 185.05,-177.23"/>
<polygon fill="red" stroke="red" stroke-width="0.67" points="182.03,-175.44 179.25,-185.66 187.8,-179.41 182.03,-175.44"/>
<text text-anchor="middle" x="218" y="-148.08" font-family="Times,serif" font-size="9.00">0.019</text>
</g>
<!-- key 3170
bias &#45;0.535
h_scaling 0.725&#45;&gt;output
bias &#45;0.270
h_scaling 0.985 -->
<g id="edge2" class="edge">
<title>key 3170
bias &#45;0.535
h_scaling 0.725&#45;&gt;output
bias &#45;0.270
h_scaling 0.985</title>
<path fill="none" stroke="blue" stroke-width="0.1" d="M172.96,-181.73C183.14,-164.46 194.49,-145.21 205,-127.39"/>
<polygon fill="blue" stroke="blue" stroke-width="0.1" points="208.01,-129.17 210.08,-118.77 201.98,-125.61 208.01,-129.17"/>
</g>
<!-- key 3170
bias &#45;0.535
h_scaling 0.725&#45;&gt;key 3170
bias &#45;0.535
h_scaling 0.725 -->
<g id="edge4" class="edge">
<title>key 3170
bias &#45;0.535
h_scaling 0.725&#45;&gt;key 3170
bias &#45;0.535
h_scaling 0.725</title>
<path fill="none" stroke="red" stroke-width="1.74" d="M202.94,-252.22C214.5,-250.33 222.64,-245.23 222.64,-236.92 222.64,-231.2 218.79,-227.01 212.63,-224.33"/>
<polygon fill="red" stroke="red" stroke-width="1.74" points="213.52,-220.94 202.94,-221.62 211.63,-227.68 213.52,-220.94"/>
<text text-anchor="middle" x="236.64" y="-234.72" font-family="Times,serif" font-size="9.00">0.055</text>
</g>
<!-- key 231458
bias &#45;0.658
h_scaling 0.947&#45;&gt;output
bias &#45;0.270
h_scaling 0.985 -->
<g id="edge9" class="edge">
<title>key 231458
bias &#45;0.658
h_scaling 0.947&#45;&gt;output
bias &#45;0.270
h_scaling 0.985</title>
<path fill="none" stroke="red" stroke-width="0.41" d="M244.05,-523.03C246,-515.95 247.71,-508.78 249,-501.84 275.62,-358.18 271.98,-318.89 260,-173.28 259.01,-161.3 257.43,-148.64 255.59,-136.38"/>
<polygon fill="red" stroke="red" stroke-width="0.41" points="259,-135.52 254,-126.18 252.08,-136.6 259,-135.52"/>
<text text-anchor="middle" x="283" y="-321.36" font-family="Times,serif" font-size="9.00">0.010</text>
</g>
<!-- key 231458
bias &#45;0.658
h_scaling 0.947&#45;&gt;key 3170
bias &#45;0.535
h_scaling 0.725 -->
<g id="edge7" class="edge">
<title>key 231458
bias &#45;0.658
h_scaling 0.947&#45;&gt;key 3170
bias &#45;0.535
h_scaling 0.725</title>
<path fill="none" stroke="blue" stroke-width="0.1" d="M233.13,-520.4C238.62,-471.8 240.92,-403.18 222,-346.56 215.4,-326.81 203.68,-307.73 191.17,-291.21"/>
<polygon fill="blue" stroke="blue" stroke-width="0.1" points="193.91,-289.03 184.99,-283.32 188.4,-293.35 193.91,-289.03"/>
</g>
<!-- key 231458
bias &#45;0.658
h_scaling 0.947&#45;&gt;key 231458
bias &#45;0.658
h_scaling 0.947 -->
<g id="edge10" class="edge">
<title>key 231458
bias &#45;0.658
h_scaling 0.947&#45;&gt;key 231458
bias &#45;0.658
h_scaling 0.947</title>
<path fill="none" stroke="red" stroke-width="1.11" d="M284.94,-598.77C296.5,-596.89 304.64,-591.79 304.64,-583.48 304.64,-577.76 300.79,-573.56 294.63,-570.89"/>
<polygon fill="red" stroke="red" stroke-width="1.11" points="295.52,-567.5 284.94,-568.18 293.63,-574.24 295.52,-567.5"/>
<text text-anchor="middle" x="318.64" y="-581.28" font-family="Times,serif" font-size="9.00">0.034</text>
</g>
<!-- key 231458
bias &#45;0.658
h_scaling 0.947&#45;&gt;key 233491
bias &#45;0.224
h_scaling 0.017 -->
<g id="edge14" class="edge">
<title>key 231458
bias &#45;0.658
h_scaling 0.947&#45;&gt;key 233491
bias &#45;0.224
h_scaling 0.017</title>
<path fill="none" stroke="blue" stroke-width="0.1" d="M193.66,-526.94C189.58,-518.6 185.57,-510.05 182,-501.84 178.95,-494.82 175.94,-487.42 173.05,-479.99"/>
<polygon fill="blue" stroke="blue" stroke-width="0.1" points="176.3,-478.69 169.46,-470.6 169.76,-481.19 176.3,-478.69"/>
</g>
<!-- key 320420
bias 0.851
h_scaling 0.070 -->
<g id="node6" class="node">
<title>key 320420
bias 0.851
h_scaling 0.070</title>
<ellipse fill="white" stroke="black" cx="371" cy="-236.92" rx="63.78" ry="63.78"/>
<text text-anchor="middle" x="371" y="-244.72" font-family="Times,serif" font-size="9.00">key 320420</text>
<text text-anchor="middle" x="371" y="-234.72" font-family="Times,serif" font-size="9.00">bias 0.851</text>
<text text-anchor="middle" x="371" y="-224.72" font-family="Times,serif" font-size="9.00">h_scaling 0.070</text>
</g>
<!-- key 320420
bias 0.851
h_scaling 0.070&#45;&gt;output
bias &#45;0.270
h_scaling 0.985 -->
<g id="edge15" class="edge">
<title>key 320420
bias 0.851
h_scaling 0.070&#45;&gt;output
bias &#45;0.270
h_scaling 0.985</title>
<path fill="none" stroke="red" stroke-width="0.57" d="M332.99,-185.46C318.3,-165.94 301.38,-143.48 286.15,-123.26"/>
<polygon fill="red" stroke="red" stroke-width="0.57" points="288.77,-120.92 279.96,-115.04 283.18,-125.13 288.77,-120.92"/>
<text text-anchor="middle" x="320" y="-148.08" font-family="Times,serif" font-size="9.00">0.016</text>
</g>
<!-- key 233491
bias &#45;0.224
h_scaling 0.017&#45;&gt;key 3170
bias &#45;0.535
h_scaling 0.725 -->
<g id="edge8" class="edge">
<title>key 233491
bias &#45;0.224
h_scaling 0.017&#45;&gt;key 3170
bias &#45;0.535
h_scaling 0.725</title>
<path fill="none" stroke="red" stroke-width="0.68" d="M146.07,-346.39C145.53,-334.87 144.96,-322.76 144.41,-310.97"/>
<polygon fill="red" stroke="red" stroke-width="0.68" points="147.9,-310.54 143.93,-300.72 140.9,-310.87 147.9,-310.54"/>
<text text-anchor="middle" x="159" y="-321.36" font-family="Times,serif" font-size="9.00">0.019</text>
</g>
<!-- key 233491
bias &#45;0.224
h_scaling 0.017&#45;&gt;key 231458
bias &#45;0.658
h_scaling 0.947 -->
<g id="edge12" class="edge">
<title>key 233491
bias &#45;0.224
h_scaling 0.017&#45;&gt;key 231458
bias &#45;0.658
h_scaling 0.947</title>
<path fill="none" stroke="red" stroke-width="0.54" d="M173.9,-468.83C180.32,-483.68 187.28,-499.79 193.89,-515.09"/>
<polygon fill="red" stroke="red" stroke-width="0.54" points="190.77,-516.7 197.95,-524.49 197.19,-513.92 190.77,-516.7"/>
<text text-anchor="middle" x="200" y="-494.64" font-family="Times,serif" font-size="9.00">0.015</text>
</g>
</g>
</svg>
