<?xml version="1.0" encoding="UTF-8" standalone="no"?>
<!DOCTYPE svg PUBLIC "-//W3C//DTD SVG 1.1//EN"
 "http://www.w3.org/Graphics/SVG/1.1/DTD/svg11.dtd">
<!-- Generated by graphviz version 2.43.0 (0)
 -->
<!-- Title: %3 Pages: 1 -->
<svg width="472pt" height="719pt"
 viewBox="0.00 0.00 471.64 719.12" xmlns="http://www.w3.org/2000/svg" xmlns:xlink="http://www.w3.org/1999/xlink">
<g id="graph0" class="graph" transform="scale(1 1) rotate(0) translate(4 715.12)">
<title>%3</title>
<polygon fill="white" stroke="transparent" points="-4,4 -4,-715.12 467.64,-715.12 467.64,4 -4,4"/>
<!-- ready -->
<g id="node1" class="node">
<title>ready</title>
<polygon fill="yellow" stroke="black" points="130.5,-711.12 87.5,-711.12 87.5,-693.12 130.5,-693.12 130.5,-711.12"/>
<text text-anchor="middle" x="109" y="-699.92" font-family="Times,serif" font-size="9.00">ready</text>
</g>
<!-- key 3170
bias &#45;0.535
h_scaling 0.725 -->
<g id="node4" class="node">
<title>key 3170
bias &#45;0.535
h_scaling 0.725</title>
<ellipse fill="white" stroke="black" cx="160" cy="-236.92" rx="63.78" ry="63.78"/>
<text text-anchor="middle" x="160" y="-244.72" font-family="Times,serif" font-size="9.00">key 3170</text>
<text text-anchor="middle" x="160" y="-234.72" font-family="Times,serif" font-size="9.00">bias &#45;0.535</text>
<text text-anchor="middle" x="160" y="-224.72" font-family="Times,serif" font-size="9.00">h_scaling 0.725</text>
</g>
<!-- ready&#45;&gt;key 3170
bias &#45;0.535
h_scaling 0.725 -->
<g id="edge5" class="edge">
<title>ready&#45;&gt;key 3170
bias &#45;0.535
h_scaling 0.725</title>
<path fill="none" stroke="blue" stroke-width="0.29" d="M105.89,-693.1C91.14,-653.88 30.85,-478.78 76,-346.56 82.92,-326.3 95.32,-306.88 108.51,-290.21"/>
<polygon fill="blue" stroke="blue" stroke-width="0.29" points="111.39,-292.21 115.02,-282.26 105.98,-287.78 111.39,-292.21"/>
<text text-anchor="middle" x="77.5" y="-494.64" font-family="Times,serif" font-size="9.00">&#45;0.063</text>
</g>
<!-- key 231458
bias &#45;0.658
h_scaling 0.947 -->
<g id="node5" class="node">
<title>key 231458
bias &#45;0.658
h_scaling 0.947</title>
<ellipse fill="white" stroke="black" cx="219" cy="-583.48" rx="63.78" ry="63.78"/>
<text text-anchor="middle" x="219" y="-591.28" font-family="Times,serif" font-size="9.00">key 231458</text>
<text text-anchor="middle" x="219" y="-581.28" font-family="Times,serif" font-size="9.00">bias &#45;0.658</text>
<text text-anchor="middle" x="219" y="-571.28" font-family="Times,serif" font-size="9.00">h_scaling 0.947</text>
</g>
<!-- ready&#45;&gt;key 231458
bias &#45;0.658
h_scaling 0.947 -->
<g id="edge6" class="edge">
<title>ready&#45;&gt;key 231458
bias &#45;0.658
h_scaling 0.947</title>
<path fill="none" stroke="red" stroke-width="3.02" d="M116.56,-693.1C127.46,-681.54 148.5,-659.23 168.69,-637.82"/>
<polygon fill="red" stroke="red" stroke-width="3.02" points="171.46,-639.98 175.78,-630.31 166.37,-635.18 171.46,-639.98"/>
<text text-anchor="middle" x="156" y="-667.92" font-family="Times,serif" font-size="9.00">0.973</text>
</g>
<!-- key 233491
bias &#45;0.224
h_scaling 0.017 -->
<g id="node7" class="node">
<title>key 233491
bias &#45;0.224
h_scaling 0.017</title>
<ellipse fill="white" stroke="black" cx="149" cy="-410.2" rx="63.78" ry="63.78"/>
<text text-anchor="middle" x="149" y="-418" font-family="Times,serif" font-size="9.00">key 233491</text>
<text text-anchor="middle" x="149" y="-408" font-family="Times,serif" font-size="9.00">bias &#45;0.224</text>
<text text-anchor="middle" x="149" y="-398" font-family="Times,serif" font-size="9.00">h_scaling 0.017</text>
</g>
<!-- ready&#45;&gt;key 233491
bias &#45;0.224
h_scaling 0.017 -->
<g id="edge11" class="edge">
<title>ready&#45;&gt;key 233491
bias &#45;0.224
h_scaling 0.017</title>
<path fill="none" stroke="red" stroke-width="1.65" d="M108.75,-693.1C108.09,-667.58 107.06,-586.06 118,-519.84 120.12,-507.04 123.21,-493.6 126.63,-480.71"/>
<polygon fill="red" stroke="red" stroke-width="1.65" points="130.03,-481.55 129.3,-470.98 123.28,-479.7 130.03,-481.55"/>
<text text-anchor="middle" x="132" y="-581.28" font-family="Times,serif" font-size="9.00">0.517</text>
</g>
<!-- go -->
<g id="node2" class="node">
<title>go</title>
<polygon fill="green" stroke="black" points="28,-419.2 0,-419.2 0,-401.2 28,-401.2 28,-419.2"/>
<text text-anchor="middle" x="14" y="-408" font-family="Times,serif" font-size="9.00">go</text>
</g>
<!-- go&#45;&gt;key 3170
bias &#45;0.535
h_scaling 0.725 -->
<g id="edge3" class="edge">
<title>go&#45;&gt;key 3170
bias &#45;0.535
h_scaling 0.725</title>
<path fill="none" stroke="red" stroke-width="3.1" d="M11.54,-400.96C7.02,-384.11 -0.78,-345.06 15,-318.56 31.49,-290.88 61.25,-271.99 89.54,-259.5"/>
<polygon fill="red" stroke="red" stroke-width="3.1" points="91.19,-262.6 99.05,-255.5 88.48,-256.15 91.19,-262.6"/>
<text text-anchor="middle" x="29" y="-321.36" font-family="Times,serif" font-size="9.00">1.000</text>
</g>
<!-- output
bias &#45;0.270
h_scaling 0.985 -->
<g id="node3" class="node">
<title>output
bias &#45;0.270
h_scaling 0.985</title>
<ellipse fill="lightblue" stroke="black" cx="276" cy="-63.64" rx="63.78" ry="63.78"/>
<text text-anchor="middle" x="276" y="-71.44" font-family="Times,serif" font-size="9.00">output</text>
<text text-anchor="middle" x="276" y="-61.44" font-family="Times,serif" font-size="9.00">bias &#45;0.270</text>
<text text-anchor="middle" x="276" y="-51.44" font-family="Times,serif" font-size="9.00">h_scaling 0.985</text>
</g>
<!-- output
bias &#45;0.270
h_scaling 0.985&#45;&gt;output
bias &#45;0.270
h_scaling 0.985 -->
<g id="edge1" class="edge">
<title>output
bias &#45;0.270
h_scaling 0.985&#45;&gt;output
bias &#45;0.270
h_scaling 0.985</title>
<path fill="none" stroke="red" stroke-width="2.48" d="M337.94,-78.94C349.5,-77.05 357.64,-71.95 357.64,-63.64 357.64,-57.92 353.79,-53.73 347.63,-51.05"/>
<polygon fill="red" stroke="red" stroke-width="2.48" points="348.52,-47.66 337.94,-48.34 346.63,-54.4 348.52,-47.66"/>
<text text-anchor="middle" x="371.64" y="-61.44" font-family="Times,serif" font-size="9.00">0.792</text>
</g>
<!-- output
bias &#45;0.270
h_scaling 0.985&#45;&gt;key 3170
bias &#45;0.535
h_scaling 0.725 -->
<g id="edge13" class="edge">
<title>output
bias &#45;0.270
h_scaling 0.985&#45;&gt;key 3170
bias &#45;0.535
h_scaling 0.725</title>
<path fill="none" stroke="red" stroke-width="1.04" d="M251.62,-122.6C246.06,-133.77 239.78,-145.14 233,-155.28 226.52,-164.97 218.92,-174.67 211.12,-183.82"/>
<polygon fill="red" stroke="red" stroke-width="1.04" points="208.48,-181.53 204.54,-191.36 213.76,-186.13 208.48,-181.53"/>
<text text-anchor="middle" x="252" y="-148.08" font-family="Times,serif" font-size="9.00">0.313</text>
</g>
<!-- key 3170
bias &#45;0.535
h_scaling 0.725&#45;&gt;output
bias &#45;0.270
h_scaling 0.985 -->
<g id="edge2" class="edge">
<title>key 3170
bias &#45;0.535
h_scaling 0.725&#45;&gt;output
bias &#45;0.270
h_scaling 0.985</title>
<path fill="none" stroke="blue" stroke-width="3.1" d="M183.86,-177.42C189.25,-166.41 195.36,-155.23 202,-145.28 208.51,-135.52 216.18,-125.78 224.07,-116.62"/>
<polygon fill="blue" stroke="blue" stroke-width="3.1" points="226.74,-118.88 230.74,-109.07 221.5,-114.25 226.74,-118.88"/>
<text text-anchor="middle" x="217.5" y="-148.08" font-family="Times,serif" font-size="9.00">&#45;1.000</text>
</g>
<!-- key 3170
bias &#45;0.535
h_scaling 0.725&#45;&gt;key 3170
bias &#45;0.535
h_scaling 0.725 -->
<g id="edge4" class="edge">
<title>key 3170
bias &#45;0.535
h_scaling 0.725&#45;&gt;key 3170
bias &#45;0.535
h_scaling 0.725</title>
<path fill="none" stroke="red" stroke-width="3.1" d="M221.94,-252.22C233.5,-250.33 241.64,-245.23 241.64,-236.92 241.64,-231.2 237.79,-227.01 231.63,-224.33"/>
<polygon fill="red" stroke="red" stroke-width="3.1" points="232.52,-220.94 221.94,-221.62 230.63,-227.68 232.52,-220.94"/>
<text text-anchor="middle" x="255.64" y="-234.72" font-family="Times,serif" font-size="9.00">1.000</text>
</g>
<!-- key 231458
bias &#45;0.658
h_scaling 0.947&#45;&gt;output
bias &#45;0.270
h_scaling 0.985 -->
<g id="edge9" class="edge">
<title>key 231458
bias &#45;0.658
h_scaling 0.947&#45;&gt;output
bias &#45;0.270
h_scaling 0.985</title>
<path fill="none" stroke="red" stroke-width="1.29" d="M248.68,-526.92C256.28,-510.28 263.56,-491.71 268,-473.84 296.58,-358.82 291.31,-219.97 284.17,-137.18"/>
<polygon fill="red" stroke="red" stroke-width="1.29" points="287.65,-136.76 283.27,-127.11 280.68,-137.39 287.65,-136.76"/>
<text text-anchor="middle" x="302" y="-321.36" font-family="Times,serif" font-size="9.00">0.397</text>
</g>
<!-- key 231458
bias &#45;0.658
h_scaling 0.947&#45;&gt;key 3170
bias &#45;0.535
h_scaling 0.725 -->
<g id="edge7" class="edge">
<title>key 231458
bias &#45;0.658
h_scaling 0.947&#45;&gt;key 3170
bias &#45;0.535
h_scaling 0.725</title>
<path fill="none" stroke="blue" stroke-width="0.95" d="M228.79,-520.26C234.24,-472.03 237.23,-403.97 222,-346.56 217.58,-329.89 209.93,-313.11 201.49,-297.89"/>
<polygon fill="blue" stroke="blue" stroke-width="0.95" points="204.47,-296.04 196.45,-289.12 198.4,-299.53 204.47,-296.04"/>
<text text-anchor="middle" x="248.5" y="-408" font-family="Times,serif" font-size="9.00">&#45;0.283</text>
</g>
<!-- key 231458
bias &#45;0.658
h_scaling 0.947&#45;&gt;key 231458
bias &#45;0.658
h_scaling 0.947 -->
<g id="edge10" class="edge">
<title>key 231458
bias &#45;0.658
h_scaling 0.947&#45;&gt;key 231458
bias &#45;0.658
h_scaling 0.947</title>
<path fill="none" stroke="red" stroke-width="3.09" d="M280.94,-598.77C292.5,-596.89 300.64,-591.79 300.64,-583.48 300.64,-577.76 296.79,-573.56 290.63,-570.89"/>
<polygon fill="red" stroke="red" stroke-width="3.09" points="291.52,-567.5 280.94,-568.18 289.63,-574.24 291.52,-567.5"/>
<text text-anchor="middle" x="314.64" y="-581.28" font-family="Times,serif" font-size="9.00">0.998</text>
</g>
<!-- key 231458
bias &#45;0.658
h_scaling 0.947&#45;&gt;key 233491
bias &#45;0.224
h_scaling 0.017 -->
<g id="edge14" class="edge">
<title>key 231458
bias &#45;0.658
h_scaling 0.947&#45;&gt;key 233491
bias &#45;0.224
h_scaling 0.017</title>
<path fill="none" stroke="blue" stroke-width="2.59" d="M171.94,-540.34C162.18,-528.91 153.27,-515.8 148,-501.84 145.86,-496.18 144.39,-490.18 143.43,-484.06"/>
<polygon fill="blue" stroke="blue" stroke-width="2.59" points="146.86,-483.25 142.27,-473.7 139.91,-484.03 146.86,-483.25"/>
<text text-anchor="middle" x="163.5" y="-494.64" font-family="Times,serif" font-size="9.00">&#45;0.830</text>
</g>
<!-- key 320420
bias 0.851
h_scaling 0.070 -->
<g id="node6" class="node">
<title>key 320420
bias 0.851
h_scaling 0.070</title>
<ellipse fill="white" stroke="black" cx="400" cy="-236.92" rx="63.78" ry="63.78"/>
<text text-anchor="middle" x="400" y="-244.72" font-family="Times,serif" font-size="9.00">key 320420</text>
<text text-anchor="middle" x="400" y="-234.72" font-family="Times,serif" font-size="9.00">bias 0.851</text>
<text text-anchor="middle" x="400" y="-224.72" font-family="Times,serif" font-size="9.00">h_scaling 0.070</text>
</g>
<!-- key 320420
bias 0.851
h_scaling 0.070&#45;&gt;output
bias &#45;0.270
h_scaling 0.985 -->
<g id="edge15" class="edge">
<title>key 320420
bias 0.851
h_scaling 0.070&#45;&gt;output
bias &#45;0.270
h_scaling 0.985</title>
<path fill="none" stroke="red" stroke-width="1.63" d="M363.13,-184.99C349.2,-165.75 333.24,-143.7 318.81,-123.77"/>
<polygon fill="red" stroke="red" stroke-width="1.63" points="321.64,-121.71 312.94,-115.66 315.97,-125.82 321.64,-121.71"/>
<text text-anchor="middle" x="352" y="-148.08" font-family="Times,serif" font-size="9.00">0.511</text>
</g>
<!-- key 233491
bias &#45;0.224
h_scaling 0.017&#45;&gt;key 3170
bias &#45;0.535
h_scaling 0.725 -->
<g id="edge8" class="edge">
<title>key 233491
bias &#45;0.224
h_scaling 0.017&#45;&gt;key 3170
bias &#45;0.535
h_scaling 0.725</title>
<path fill="none" stroke="red" stroke-width="0.72" d="M153.03,-346.39C153.77,-334.87 154.55,-322.76 155.31,-310.97"/>
<polygon fill="red" stroke="red" stroke-width="0.72" points="158.82,-310.92 155.97,-300.72 151.83,-310.47 158.82,-310.92"/>
<text text-anchor="middle" x="168" y="-321.36" font-family="Times,serif" font-size="9.00">0.206</text>
</g>
<!-- key 233491
bias &#45;0.224
h_scaling 0.017&#45;&gt;key 231458
bias &#45;0.658
h_scaling 0.947 -->
<g id="edge12" class="edge">
<title>key 233491
bias &#45;0.224
h_scaling 0.017&#45;&gt;key 231458
bias &#45;0.658
h_scaling 0.947</title>
<path fill="none" stroke="red" stroke-width="1.19" d="M173.66,-469.28C176.83,-476.86 180.01,-484.53 183,-491.84 186.01,-499.19 189.13,-506.89 192.21,-514.57"/>
<polygon fill="red" stroke="red" stroke-width="1.19" points="188.98,-515.91 195.94,-523.9 195.47,-513.31 188.98,-515.91"/>
<text text-anchor="middle" x="200" y="-494.64" font-family="Times,serif" font-size="9.00">0.364</text>
</g>
</g>
</svg>
