<?xml version="1.0" encoding="UTF-8" standalone="no"?>
<!DOCTYPE svg PUBLIC "-//W3C//DTD SVG 1.1//EN"
 "http://www.w3.org/Graphics/SVG/1.1/DTD/svg11.dtd">
<!-- Generated by graphviz version 2.43.0 (0)
 -->
<!-- Title: %3 Pages: 1 -->
<svg width="475pt" height="883pt"
 viewBox="0.00 0.00 474.64 883.40" xmlns="http://www.w3.org/2000/svg" xmlns:xlink="http://www.w3.org/1999/xlink">
<g id="graph0" class="graph" transform="scale(1 1) rotate(0) translate(4 879.4)">
<title>%3</title>
<polygon fill="white" stroke="transparent" points="-4,4 -4,-879.4 470.64,-879.4 470.64,4 -4,4"/>
<!-- ready -->
<g id="node1" class="node">
<title>ready</title>
<polygon fill="yellow" stroke="black" points="333.14,-875.4 290.14,-875.4 290.14,-857.4 333.14,-857.4 333.14,-875.4"/>
<text text-anchor="middle" x="311.64" y="-864.2" font-family="Times,serif" font-size="9.00">ready</text>
</g>
<!-- key 79656
bias &#45;0.560
h_scaling 0.857 -->
<g id="node5" class="node">
<title>key 79656
bias &#45;0.560
h_scaling 0.857</title>
<ellipse fill="white" stroke="black" cx="173.64" cy="-747.76" rx="63.78" ry="63.78"/>
<text text-anchor="middle" x="173.64" y="-755.56" font-family="Times,serif" font-size="9.00">key 79656</text>
<text text-anchor="middle" x="173.64" y="-745.56" font-family="Times,serif" font-size="9.00">bias &#45;0.560</text>
<text text-anchor="middle" x="173.64" y="-735.56" font-family="Times,serif" font-size="9.00">h_scaling 0.857</text>
</g>
<!-- ready&#45;&gt;key 79656
bias &#45;0.560
h_scaling 0.857 -->
<g id="edge13" class="edge">
<title>ready&#45;&gt;key 79656
bias &#45;0.560
h_scaling 0.857</title>
<path fill="none" stroke="red" stroke-width="0.69" d="M296.77,-857.19C288.51,-852.38 278.21,-845.98 269.64,-839.4 254.61,-827.84 239.28,-814.3 225.4,-801.25"/>
<polygon fill="red" stroke="red" stroke-width="0.69" points="227.51,-798.43 217.86,-794.07 222.69,-803.5 227.51,-798.43"/>
<text text-anchor="middle" x="283.64" y="-832.2" font-family="Times,serif" font-size="9.00">0.020</text>
</g>
<!-- key 9097
bias 0.049
h_scaling 0.601 -->
<g id="node6" class="node">
<title>key 9097
bias 0.049
h_scaling 0.601</title>
<ellipse fill="white" stroke="black" cx="293.64" cy="-401.2" rx="63.78" ry="63.78"/>
<text text-anchor="middle" x="293.64" y="-409" font-family="Times,serif" font-size="9.00">key 9097</text>
<text text-anchor="middle" x="293.64" y="-399" font-family="Times,serif" font-size="9.00">bias 0.049</text>
<text text-anchor="middle" x="293.64" y="-389" font-family="Times,serif" font-size="9.00">h_scaling 0.601</text>
</g>
<!-- ready&#45;&gt;key 9097
bias 0.049
h_scaling 0.601 -->
<g id="edge8" class="edge">
<title>ready&#45;&gt;key 9097
bias 0.049
h_scaling 0.601</title>
<path fill="none" stroke="red" stroke-width="0.97" d="M311.33,-857.36C309.59,-812.64 301.03,-592.33 296.48,-475.41"/>
<polygon fill="red" stroke="red" stroke-width="0.97" points="299.97,-474.97 296.08,-465.11 292.98,-475.24 299.97,-474.97"/>
<text text-anchor="middle" x="318.64" y="-658.92" font-family="Times,serif" font-size="9.00">0.029</text>
</g>
<!-- key 2632
bias 0.179
h_scaling 0.300 -->
<g id="node8" class="node">
<title>key 2632
bias 0.179
h_scaling 0.300</title>
<ellipse fill="white" stroke="black" cx="270.64" cy="-63.64" rx="63.78" ry="63.78"/>
<text text-anchor="middle" x="270.64" y="-71.44" font-family="Times,serif" font-size="9.00">key 2632</text>
<text text-anchor="middle" x="270.64" y="-61.44" font-family="Times,serif" font-size="9.00">bias 0.179</text>
<text text-anchor="middle" x="270.64" y="-51.44" font-family="Times,serif" font-size="9.00">h_scaling 0.300</text>
</g>
<!-- ready&#45;&gt;key 2632
bias 0.179
h_scaling 0.300 -->
<g id="edge18" class="edge">
<title>ready&#45;&gt;key 2632
bias 0.179
h_scaling 0.300</title>
<path fill="none" stroke="blue" stroke-width="0.1" d="M333.19,-860.06C375.78,-848.07 466.64,-814.76 466.64,-748.76 466.64,-748.76 466.64,-748.76 466.64,-226.92 466.64,-159.13 396.21,-114.3 339.79,-89.26"/>
<polygon fill="blue" stroke="blue" stroke-width="0.1" points="341.08,-86.01 330.51,-85.26 338.31,-92.43 341.08,-86.01"/>
</g>
<!-- go -->
<g id="node2" class="node">
<title>go</title>
<polygon fill="green" stroke="black" points="399.64,-583.48 371.64,-583.48 371.64,-565.48 399.64,-565.48 399.64,-583.48"/>
<text text-anchor="middle" x="385.64" y="-572.28" font-family="Times,serif" font-size="9.00">go</text>
</g>
<!-- go&#45;&gt;key 9097
bias 0.049
h_scaling 0.601 -->
<g id="edge7" class="edge">
<title>go&#45;&gt;key 9097
bias 0.049
h_scaling 0.601</title>
<path fill="none" stroke="blue" stroke-width="0.1" d="M381.2,-565.22C371.67,-547.46 348.45,-504.23 328.31,-466.75"/>
<polygon fill="blue" stroke="blue" stroke-width="0.1" points="331.35,-465.02 323.54,-457.86 325.19,-468.33 331.35,-465.02"/>
</g>
<!-- key 29354
bias &#45;0.417
h_scaling 0.263 -->
<g id="node7" class="node">
<title>key 29354
bias &#45;0.417
h_scaling 0.263</title>
<ellipse fill="white" stroke="black" cx="201.64" cy="-227.92" rx="63.78" ry="63.78"/>
<text text-anchor="middle" x="201.64" y="-235.72" font-family="Times,serif" font-size="9.00">key 29354</text>
<text text-anchor="middle" x="201.64" y="-225.72" font-family="Times,serif" font-size="9.00">bias &#45;0.417</text>
<text text-anchor="middle" x="201.64" y="-215.72" font-family="Times,serif" font-size="9.00">h_scaling 0.263</text>
</g>
<!-- go&#45;&gt;key 29354
bias &#45;0.417
h_scaling 0.263 -->
<g id="edge19" class="edge">
<title>go&#45;&gt;key 29354
bias &#45;0.417
h_scaling 0.263</title>
<path fill="none" stroke="blue" stroke-width="0.1" d="M387.35,-565.41C393.62,-533.67 412.69,-415.35 366.64,-337.56 344.83,-300.71 305.05,-273.97 270.02,-256.23"/>
<polygon fill="blue" stroke="blue" stroke-width="0.1" points="271.27,-252.95 260.75,-251.69 268.19,-259.24 271.27,-252.95"/>
</g>
<!-- go&#45;&gt;key 2632
bias 0.179
h_scaling 0.300 -->
<g id="edge2" class="edge">
<title>go&#45;&gt;key 2632
bias 0.179
h_scaling 0.300</title>
<path fill="none" stroke="red" stroke-width="0.8" d="M388.98,-565.18C394.59,-550.76 405.68,-520.01 409.64,-492.84 419.63,-424.23 412.78,-404.48 394.64,-337.56 374.34,-262.65 335.61,-182.41 306.82,-128.46"/>
<polygon fill="red" stroke="red" stroke-width="0.8" points="309.74,-126.51 301.92,-119.37 303.58,-129.83 309.74,-126.51"/>
<text text-anchor="middle" x="401.64" y="-312.36" font-family="Times,serif" font-size="9.00">0.023</text>
</g>
<!-- output
bias &#45;0.510
h_scaling 0.022 -->
<g id="node3" class="node">
<title>output
bias &#45;0.510
h_scaling 0.022</title>
<ellipse fill="lightblue" stroke="black" cx="63.64" cy="-574.48" rx="63.78" ry="63.78"/>
<text text-anchor="middle" x="63.64" y="-582.28" font-family="Times,serif" font-size="9.00">output</text>
<text text-anchor="middle" x="63.64" y="-572.28" font-family="Times,serif" font-size="9.00">bias &#45;0.510</text>
<text text-anchor="middle" x="63.64" y="-562.28" font-family="Times,serif" font-size="9.00">h_scaling 0.022</text>
</g>
<!-- output
bias &#45;0.510
h_scaling 0.022&#45;&gt;key 9097
bias 0.049
h_scaling 0.601 -->
<g id="edge10" class="edge">
<title>output
bias &#45;0.510
h_scaling 0.022&#45;&gt;key 9097
bias 0.049
h_scaling 0.601</title>
<path fill="none" stroke="blue" stroke-width="0.1" d="M110.21,-530.68C118.46,-523.76 127.14,-516.89 135.64,-510.84 169.05,-487.04 181.77,-487.97 215.64,-464.84 222.75,-459.98 230.04,-454.65 237.16,-449.22"/>
<polygon fill="blue" stroke="blue" stroke-width="0.1" points="239.66,-451.71 245.43,-442.82 235.38,-446.18 239.66,-451.71"/>
</g>
<!-- output
bias &#45;0.510
h_scaling 0.022&#45;&gt;key 29354
bias &#45;0.417
h_scaling 0.263 -->
<g id="edge20" class="edge">
<title>output
bias &#45;0.510
h_scaling 0.022&#45;&gt;key 29354
bias &#45;0.417
h_scaling 0.263</title>
<path fill="none" stroke="red" stroke-width="0.8" d="M87.05,-515.03C111.22,-454.67 148.91,-360.57 174.4,-296.92"/>
<polygon fill="red" stroke="red" stroke-width="0.8" points="177.76,-297.95 178.23,-287.37 171.26,-295.35 177.76,-297.95"/>
<text text-anchor="middle" x="171.64" y="-399" font-family="Times,serif" font-size="9.00">0.023</text>
</g>
<!-- key 77924
bias &#45;0.440
h_scaling 0.863 -->
<g id="node4" class="node">
<title>key 77924
bias &#45;0.440
h_scaling 0.863</title>
<ellipse fill="white" stroke="black" cx="208.64" cy="-574.48" rx="63.78" ry="63.78"/>
<text text-anchor="middle" x="208.64" y="-582.28" font-family="Times,serif" font-size="9.00">key 77924</text>
<text text-anchor="middle" x="208.64" y="-572.28" font-family="Times,serif" font-size="9.00">bias &#45;0.440</text>
<text text-anchor="middle" x="208.64" y="-562.28" font-family="Times,serif" font-size="9.00">h_scaling 0.863</text>
</g>
<!-- key 77924
bias &#45;0.440
h_scaling 0.863&#45;&gt;key 9097
bias 0.049
h_scaling 0.601 -->
<g id="edge12" class="edge">
<title>key 77924
bias &#45;0.440
h_scaling 0.863&#45;&gt;key 9097
bias 0.049
h_scaling 0.601</title>
<path fill="none" stroke="red" stroke-width="0.97" d="M236.71,-516.92C244.51,-501.2 253.05,-483.99 261.08,-467.8"/>
<polygon fill="red" stroke="red" stroke-width="0.97" points="264.44,-468.92 265.75,-458.4 258.17,-465.81 264.44,-468.92"/>
<text text-anchor="middle" x="265.64" y="-485.64" font-family="Times,serif" font-size="9.00">0.029</text>
</g>
<!-- key 77924
bias &#45;0.440
h_scaling 0.863&#45;&gt;key 29354
bias &#45;0.417
h_scaling 0.263 -->
<g id="edge15" class="edge">
<title>key 77924
bias &#45;0.440
h_scaling 0.863&#45;&gt;key 29354
bias &#45;0.417
h_scaling 0.263</title>
<path fill="none" stroke="red" stroke-width="0.95" d="M197.93,-511.6C195.73,-496.36 193.75,-480.05 192.64,-464.84 188.64,-410.19 191.27,-348.28 194.7,-301.59"/>
<polygon fill="red" stroke="red" stroke-width="0.95" points="198.19,-301.81 195.46,-291.57 191.21,-301.28 198.19,-301.81"/>
<text text-anchor="middle" x="206.64" y="-399" font-family="Times,serif" font-size="9.00">0.028</text>
</g>
<!-- key 79656
bias &#45;0.560
h_scaling 0.857&#45;&gt;output
bias &#45;0.510
h_scaling 0.022 -->
<g id="edge16" class="edge">
<title>key 79656
bias &#45;0.560
h_scaling 0.857&#45;&gt;output
bias &#45;0.510
h_scaling 0.022</title>
<path fill="none" stroke="red" stroke-width="0.62" d="M139.44,-693.5C127.95,-675.61 115.04,-655.52 103.18,-637.04"/>
<polygon fill="red" stroke="red" stroke-width="0.62" points="105.98,-634.93 97.63,-628.4 100.09,-638.71 105.98,-634.93"/>
<text text-anchor="middle" x="132.64" y="-658.92" font-family="Times,serif" font-size="9.00">0.017</text>
</g>
<!-- key 79656
bias &#45;0.560
h_scaling 0.857&#45;&gt;key 77924
bias &#45;0.440
h_scaling 0.863 -->
<g id="edge14" class="edge">
<title>key 79656
bias &#45;0.560
h_scaling 0.857&#45;&gt;key 77924
bias &#45;0.440
h_scaling 0.863</title>
<path fill="none" stroke="red" stroke-width="1.02" d="M186.28,-684.92C188.79,-672.6 191.46,-659.56 194.04,-646.94"/>
<polygon fill="red" stroke="red" stroke-width="1.02" points="197.51,-647.43 196.08,-636.93 190.65,-646.03 197.51,-647.43"/>
<text text-anchor="middle" x="205.64" y="-658.92" font-family="Times,serif" font-size="9.00">0.031</text>
</g>
<!-- key 79656
bias &#45;0.560
h_scaling 0.857&#45;&gt;key 79656
bias &#45;0.560
h_scaling 0.857 -->
<g id="edge17" class="edge">
<title>key 79656
bias &#45;0.560
h_scaling 0.857&#45;&gt;key 79656
bias &#45;0.560
h_scaling 0.857</title>
<path fill="none" stroke="red" stroke-width="1.06" d="M235.58,-763.05C247.14,-761.17 255.28,-756.07 255.28,-747.76 255.28,-742.04 251.43,-737.84 245.27,-735.17"/>
<polygon fill="red" stroke="red" stroke-width="1.06" points="246.16,-731.78 235.58,-732.46 244.27,-738.52 246.16,-731.78"/>
<text text-anchor="middle" x="269.28" y="-745.56" font-family="Times,serif" font-size="9.00">0.032</text>
</g>
<!-- key 9097
bias 0.049
h_scaling 0.601&#45;&gt;key 29354
bias &#45;0.417
h_scaling 0.263 -->
<g id="edge4" class="edge">
<title>key 9097
bias 0.049
h_scaling 0.601&#45;&gt;key 29354
bias &#45;0.417
h_scaling 0.263</title>
<path fill="none" stroke="red" stroke-width="1.05" d="M263.77,-344.59C255,-328.27 245.34,-310.29 236.31,-293.46"/>
<polygon fill="red" stroke="red" stroke-width="1.05" points="239.17,-291.4 231.36,-284.25 233.01,-294.72 239.17,-291.4"/>
<text text-anchor="middle" x="261.64" y="-312.36" font-family="Times,serif" font-size="9.00">0.032</text>
</g>
<!-- key 9097
bias 0.049
h_scaling 0.601&#45;&gt;key 2632
bias 0.179
h_scaling 0.300 -->
<g id="edge9" class="edge">
<title>key 9097
bias 0.049
h_scaling 0.601&#45;&gt;key 2632
bias 0.179
h_scaling 0.300</title>
<path fill="none" stroke="blue" stroke-width="0.1" d="M289.34,-337.48C285.45,-280.72 279.72,-197.13 275.63,-137.45"/>
<polygon fill="blue" stroke="blue" stroke-width="0.1" points="279.11,-137.08 274.94,-127.34 272.13,-137.55 279.11,-137.08"/>
</g>
<!-- key 29354
bias &#45;0.417
h_scaling 0.263&#45;&gt;output
bias &#45;0.510
h_scaling 0.022 -->
<g id="edge11" class="edge">
<title>key 29354
bias &#45;0.417
h_scaling 0.263&#45;&gt;output
bias &#45;0.510
h_scaling 0.022</title>
<path fill="none" stroke="red" stroke-width="0.8" d="M145.76,-259.18C117.5,-277.74 85.84,-304.35 69.64,-337.56 44.86,-388.35 45.05,-452.9 50.48,-501.64"/>
<polygon fill="red" stroke="red" stroke-width="0.8" points="47.04,-502.28 51.72,-511.79 53.98,-501.44 47.04,-502.28"/>
<text text-anchor="middle" x="83.64" y="-399" font-family="Times,serif" font-size="9.00">0.023</text>
</g>
<!-- key 29354
bias &#45;0.417
h_scaling 0.263&#45;&gt;key 2632
bias 0.179
h_scaling 0.300 -->
<g id="edge5" class="edge">
<title>key 29354
bias &#45;0.417
h_scaling 0.263&#45;&gt;key 2632
bias 0.179
h_scaling 0.300</title>
<path fill="none" stroke="blue" stroke-width="0.1" d="M220.6,-166.95C225.55,-154.72 231.02,-141.8 236.47,-129.41"/>
<polygon fill="blue" stroke="blue" stroke-width="0.1" points="239.77,-130.62 240.64,-120.06 233.37,-127.77 239.77,-130.62"/>
</g>
<!-- key 2632
bias 0.179
h_scaling 0.300&#45;&gt;output
bias &#45;0.510
h_scaling 0.022 -->
<g id="edge1" class="edge">
<title>key 2632
bias 0.179
h_scaling 0.300&#45;&gt;output
bias &#45;0.510
h_scaling 0.022</title>
<path fill="none" stroke="blue" stroke-width="0.1" d="M214.98,-94.58C186.44,-112.03 152.72,-136.13 128.64,-164.28 72.89,-229.47 63.03,-254 43.64,-337.56 30.97,-392.14 37.47,-455.48 46.31,-502.78"/>
<polygon fill="blue" stroke="blue" stroke-width="0.1" points="42.87,-503.47 48.22,-512.62 49.75,-502.13 42.87,-503.47"/>
</g>
<!-- key 2632
bias 0.179
h_scaling 0.300&#45;&gt;key 29354
bias &#45;0.417
h_scaling 0.263 -->
<g id="edge6" class="edge">
<title>key 2632
bias 0.179
h_scaling 0.300&#45;&gt;key 29354
bias &#45;0.417
h_scaling 0.263</title>
<path fill="none" stroke="blue" stroke-width="0.1" d="M251.73,-124.5C246.76,-136.76 241.28,-149.72 235.81,-162.15"/>
<polygon fill="blue" stroke="blue" stroke-width="0.1" points="232.5,-160.97 231.63,-171.53 238.9,-163.81 232.5,-160.97"/>
</g>
<!-- key 2632
bias 0.179
h_scaling 0.300&#45;&gt;key 2632
bias 0.179
h_scaling 0.300 -->
<g id="edge3" class="edge">
<title>key 2632
bias 0.179
h_scaling 0.300&#45;&gt;key 2632
bias 0.179
h_scaling 0.300</title>
<path fill="none" stroke="red" stroke-width="1.68" d="M332.93,-78.17C344.3,-76.33 352.28,-71.49 352.28,-63.64 352.28,-58.37 348.68,-54.45 342.87,-51.89"/>
<polygon fill="red" stroke="red" stroke-width="1.68" points="343.5,-48.43 332.93,-49.11 341.62,-55.18 343.5,-48.43"/>
<text text-anchor="middle" x="366.28" y="-61.44" font-family="Times,serif" font-size="9.00">0.053</text>
</g>
</g>
</svg>
