<?xml version="1.0" encoding="UTF-8" standalone="no"?>
<!DOCTYPE svg PUBLIC "-//W3C//DTD SVG 1.1//EN"
 "http://www.w3.org/Graphics/SVG/1.1/DTD/svg11.dtd">
<!-- Generated by graphviz version 2.43.0 (0)
 -->
<!-- Title: %3 Pages: 1 -->
<svg width="540pt" height="892pt"
 viewBox="0.00 0.00 539.64 892.40" xmlns="http://www.w3.org/2000/svg" xmlns:xlink="http://www.w3.org/1999/xlink">
<g id="graph0" class="graph" transform="scale(1 1) rotate(0) translate(4 888.4)">
<title>%3</title>
<polygon fill="white" stroke="transparent" points="-4,4 -4,-888.4 535.64,-888.4 535.64,4 -4,4"/>
<!-- ready -->
<g id="node1" class="node">
<title>ready</title>
<polygon fill="yellow" stroke="black" points="333.14,-884.4 290.14,-884.4 290.14,-866.4 333.14,-866.4 333.14,-884.4"/>
<text text-anchor="middle" x="311.64" y="-873.2" font-family="Times,serif" font-size="9.00">ready</text>
</g>
<!-- key 79656
bias &#45;0.560
h_scaling 0.857 -->
<g id="node5" class="node">
<title>key 79656
bias &#45;0.560
h_scaling 0.857</title>
<ellipse fill="white" stroke="black" cx="173.64" cy="-756.76" rx="63.78" ry="63.78"/>
<text text-anchor="middle" x="173.64" y="-764.56" font-family="Times,serif" font-size="9.00">key 79656</text>
<text text-anchor="middle" x="173.64" y="-754.56" font-family="Times,serif" font-size="9.00">bias &#45;0.560</text>
<text text-anchor="middle" x="173.64" y="-744.56" font-family="Times,serif" font-size="9.00">h_scaling 0.857</text>
</g>
<!-- ready&#45;&gt;key 79656
bias &#45;0.560
h_scaling 0.857 -->
<g id="edge13" class="edge">
<title>ready&#45;&gt;key 79656
bias &#45;0.560
h_scaling 0.857</title>
<path fill="none" stroke="red" stroke-width="3.1" d="M296.77,-866.19C288.51,-861.38 278.21,-854.98 269.64,-848.4 254.61,-836.84 239.28,-823.3 225.4,-810.25"/>
<polygon fill="red" stroke="red" stroke-width="3.1" points="227.51,-807.43 217.86,-803.07 222.69,-812.5 227.51,-807.43"/>
<text text-anchor="middle" x="283.64" y="-841.2" font-family="Times,serif" font-size="9.00">1.000</text>
</g>
<!-- key 9097
bias 0.049
h_scaling 0.601 -->
<g id="node6" class="node">
<title>key 9097
bias 0.049
h_scaling 0.601</title>
<ellipse fill="white" stroke="black" cx="298.64" cy="-410.2" rx="63.78" ry="63.78"/>
<text text-anchor="middle" x="298.64" y="-418" font-family="Times,serif" font-size="9.00">key 9097</text>
<text text-anchor="middle" x="298.64" y="-408" font-family="Times,serif" font-size="9.00">bias 0.049</text>
<text text-anchor="middle" x="298.64" y="-398" font-family="Times,serif" font-size="9.00">h_scaling 0.601</text>
</g>
<!-- ready&#45;&gt;key 9097
bias 0.049
h_scaling 0.601 -->
<g id="edge8" class="edge">
<title>ready&#45;&gt;key 9097
bias 0.049
h_scaling 0.601</title>
<path fill="none" stroke="red" stroke-width="1.49" d="M311.41,-866.36C310.16,-821.64 303.98,-601.33 300.69,-484.41"/>
<polygon fill="red" stroke="red" stroke-width="1.49" points="304.18,-484.01 300.41,-474.11 297.19,-484.21 304.18,-484.01"/>
<text text-anchor="middle" x="320.64" y="-667.92" font-family="Times,serif" font-size="9.00">0.464</text>
</g>
<!-- key 2632
bias 0.179
h_scaling 0.300 -->
<g id="node8" class="node">
<title>key 2632
bias 0.179
h_scaling 0.300</title>
<ellipse fill="white" stroke="black" cx="275.64" cy="-63.64" rx="63.78" ry="63.78"/>
<text text-anchor="middle" x="275.64" y="-71.44" font-family="Times,serif" font-size="9.00">key 2632</text>
<text text-anchor="middle" x="275.64" y="-61.44" font-family="Times,serif" font-size="9.00">bias 0.179</text>
<text text-anchor="middle" x="275.64" y="-51.44" font-family="Times,serif" font-size="9.00">h_scaling 0.300</text>
</g>
<!-- ready&#45;&gt;key 2632
bias 0.179
h_scaling 0.300 -->
<g id="edge18" class="edge">
<title>ready&#45;&gt;key 2632
bias 0.179
h_scaling 0.300</title>
<path fill="none" stroke="blue" stroke-width="0.57" d="M333.32,-871.41C382.96,-863.24 500.64,-835.64 500.64,-757.76 500.64,-757.76 500.64,-757.76 500.64,-235.92 500.64,-157.19 412.35,-109.89 346.38,-85.53"/>
<polygon fill="blue" stroke="blue" stroke-width="0.57" points="347.42,-82.18 336.82,-82.1 345.06,-88.77 347.42,-82.18"/>
<text text-anchor="middle" x="516.14" y="-494.64" font-family="Times,serif" font-size="9.00">&#45;0.157</text>
</g>
<!-- go -->
<g id="node2" class="node">
<title>go</title>
<polygon fill="green" stroke="black" points="412.64,-592.48 384.64,-592.48 384.64,-574.48 412.64,-574.48 412.64,-592.48"/>
<text text-anchor="middle" x="398.64" y="-581.28" font-family="Times,serif" font-size="9.00">go</text>
</g>
<!-- go&#45;&gt;key 9097
bias 0.049
h_scaling 0.601 -->
<g id="edge7" class="edge">
<title>go&#45;&gt;key 9097
bias 0.049
h_scaling 0.601</title>
<path fill="none" stroke="blue" stroke-width="2.98" d="M393.82,-574.22C383.34,-556.28 357.68,-512.33 335.64,-474.58"/>
<polygon fill="blue" stroke="blue" stroke-width="2.98" points="338.49,-472.51 330.42,-465.63 332.44,-476.04 338.49,-472.51"/>
<text text-anchor="middle" x="364.14" y="-494.64" font-family="Times,serif" font-size="9.00">&#45;0.960</text>
</g>
<!-- key 29354
bias &#45;0.417
h_scaling 0.263 -->
<g id="node7" class="node">
<title>key 29354
bias &#45;0.417
h_scaling 0.263</title>
<ellipse fill="white" stroke="black" cx="198.64" cy="-236.92" rx="63.78" ry="63.78"/>
<text text-anchor="middle" x="198.64" y="-244.72" font-family="Times,serif" font-size="9.00">key 29354</text>
<text text-anchor="middle" x="198.64" y="-234.72" font-family="Times,serif" font-size="9.00">bias &#45;0.417</text>
<text text-anchor="middle" x="198.64" y="-224.72" font-family="Times,serif" font-size="9.00">h_scaling 0.263</text>
</g>
<!-- go&#45;&gt;key 29354
bias &#45;0.417
h_scaling 0.263 -->
<g id="edge19" class="edge">
<title>go&#45;&gt;key 29354
bias &#45;0.417
h_scaling 0.263</title>
<path fill="none" stroke="blue" stroke-width="2.13" d="M400.27,-574.2C406.2,-541.69 423.64,-420.87 371.64,-346.56 345.43,-309.1 318.35,-324.88 279.64,-300.56 271.79,-295.63 263.78,-290.11 256,-284.44"/>
<polygon fill="blue" stroke="blue" stroke-width="2.13" points="257.78,-281.4 247.66,-278.26 253.61,-287.03 257.78,-281.4"/>
<text text-anchor="middle" x="422.14" y="-408" font-family="Times,serif" font-size="9.00">&#45;0.676</text>
</g>
<!-- go&#45;&gt;key 2632
bias 0.179
h_scaling 0.300 -->
<g id="edge2" class="edge">
<title>go&#45;&gt;key 2632
bias 0.179
h_scaling 0.300</title>
<path fill="none" stroke="red" stroke-width="3.1" d="M403.1,-574.35C412.51,-556.7 434.12,-513.29 441.64,-473.84 452.24,-418.27 456.51,-401.14 441.64,-346.56 418.41,-261.34 362.15,-175.62 321.55,-121.46"/>
<polygon fill="red" stroke="red" stroke-width="3.1" points="324.26,-119.23 315.43,-113.37 318.68,-123.45 324.26,-119.23"/>
<text text-anchor="middle" x="449.64" y="-321.36" font-family="Times,serif" font-size="9.00">1.000</text>
</g>
<!-- output
bias &#45;0.510
h_scaling 0.022 -->
<g id="node3" class="node">
<title>output
bias &#45;0.510
h_scaling 0.022</title>
<ellipse fill="lightblue" stroke="black" cx="63.64" cy="-583.48" rx="63.78" ry="63.78"/>
<text text-anchor="middle" x="63.64" y="-591.28" font-family="Times,serif" font-size="9.00">output</text>
<text text-anchor="middle" x="63.64" y="-581.28" font-family="Times,serif" font-size="9.00">bias &#45;0.510</text>
<text text-anchor="middle" x="63.64" y="-571.28" font-family="Times,serif" font-size="9.00">h_scaling 0.022</text>
</g>
<!-- output
bias &#45;0.510
h_scaling 0.022&#45;&gt;key 9097
bias 0.049
h_scaling 0.601 -->
<g id="edge10" class="edge">
<title>output
bias &#45;0.510
h_scaling 0.022&#45;&gt;key 9097
bias 0.049
h_scaling 0.601</title>
<path fill="none" stroke="blue" stroke-width="2.51" d="M110.08,-539.49C118.34,-532.6 127.06,-525.78 135.64,-519.84 170.95,-495.37 184.86,-497.6 220.64,-473.84 227.81,-469.07 235.14,-463.8 242.28,-458.4"/>
<polygon fill="blue" stroke="blue" stroke-width="2.51" points="244.77,-460.9 250.56,-452.02 240.5,-455.35 244.77,-460.9"/>
<text text-anchor="middle" x="204.14" y="-494.64" font-family="Times,serif" font-size="9.00">&#45;0.802</text>
</g>
<!-- output
bias &#45;0.510
h_scaling 0.022&#45;&gt;key 29354
bias &#45;0.417
h_scaling 0.263 -->
<g id="edge20" class="edge">
<title>output
bias &#45;0.510
h_scaling 0.022&#45;&gt;key 29354
bias &#45;0.417
h_scaling 0.263</title>
<path fill="none" stroke="red" stroke-width="0.85" d="M86.54,-524.03C110.19,-463.67 147.06,-369.57 172,-305.92"/>
<polygon fill="red" stroke="red" stroke-width="0.85" points="175.35,-306.95 175.74,-296.37 168.83,-304.4 175.35,-306.95"/>
<text text-anchor="middle" x="169.64" y="-408" font-family="Times,serif" font-size="9.00">0.251</text>
</g>
<!-- key 77924
bias &#45;0.440
h_scaling 0.863 -->
<g id="node4" class="node">
<title>key 77924
bias &#45;0.440
h_scaling 0.863</title>
<ellipse fill="white" stroke="black" cx="208.64" cy="-583.48" rx="63.78" ry="63.78"/>
<text text-anchor="middle" x="208.64" y="-591.28" font-family="Times,serif" font-size="9.00">key 77924</text>
<text text-anchor="middle" x="208.64" y="-581.28" font-family="Times,serif" font-size="9.00">bias &#45;0.440</text>
<text text-anchor="middle" x="208.64" y="-571.28" font-family="Times,serif" font-size="9.00">h_scaling 0.863</text>
</g>
<!-- key 77924
bias &#45;0.440
h_scaling 0.863&#45;&gt;key 9097
bias 0.049
h_scaling 0.601 -->
<g id="edge12" class="edge">
<title>key 77924
bias &#45;0.440
h_scaling 0.863&#45;&gt;key 9097
bias 0.049
h_scaling 0.601</title>
<path fill="none" stroke="red" stroke-width="0.76" d="M237.86,-526.87C246.39,-510.63 255.79,-492.75 264.59,-475.99"/>
<polygon fill="red" stroke="red" stroke-width="0.76" points="267.86,-477.3 269.41,-466.82 261.66,-474.05 267.86,-477.3"/>
<text text-anchor="middle" x="267.64" y="-494.64" font-family="Times,serif" font-size="9.00">0.219</text>
</g>
<!-- key 77924
bias &#45;0.440
h_scaling 0.863&#45;&gt;key 29354
bias &#45;0.417
h_scaling 0.263 -->
<g id="edge15" class="edge">
<title>key 77924
bias &#45;0.440
h_scaling 0.863&#45;&gt;key 29354
bias &#45;0.417
h_scaling 0.263</title>
<path fill="none" stroke="red" stroke-width="2.53" d="M201.25,-520.23C199.75,-505.07 198.4,-488.89 197.64,-473.84 194.88,-419.15 195.27,-357.24 196.28,-310.57"/>
<polygon fill="red" stroke="red" stroke-width="2.53" points="199.78,-310.63 196.51,-300.55 192.78,-310.46 199.78,-310.63"/>
<text text-anchor="middle" x="211.64" y="-408" font-family="Times,serif" font-size="9.00">0.812</text>
</g>
<!-- key 79656
bias &#45;0.560
h_scaling 0.857&#45;&gt;output
bias &#45;0.510
h_scaling 0.022 -->
<g id="edge16" class="edge">
<title>key 79656
bias &#45;0.560
h_scaling 0.857&#45;&gt;output
bias &#45;0.510
h_scaling 0.022</title>
<path fill="none" stroke="red" stroke-width="0.92" d="M139.44,-702.5C127.95,-684.61 115.04,-664.52 103.18,-646.04"/>
<polygon fill="red" stroke="red" stroke-width="0.92" points="105.98,-643.93 97.63,-637.4 100.09,-647.71 105.98,-643.93"/>
<text text-anchor="middle" x="132.64" y="-667.92" font-family="Times,serif" font-size="9.00">0.274</text>
</g>
<!-- key 79656
bias &#45;0.560
h_scaling 0.857&#45;&gt;key 77924
bias &#45;0.440
h_scaling 0.863 -->
<g id="edge14" class="edge">
<title>key 79656
bias &#45;0.560
h_scaling 0.857&#45;&gt;key 77924
bias &#45;0.440
h_scaling 0.863</title>
<path fill="none" stroke="red" stroke-width="3.1" d="M186.28,-693.92C188.79,-681.6 191.46,-668.56 194.04,-655.94"/>
<polygon fill="red" stroke="red" stroke-width="3.1" points="197.51,-656.43 196.08,-645.93 190.65,-655.03 197.51,-656.43"/>
<text text-anchor="middle" x="205.64" y="-667.92" font-family="Times,serif" font-size="9.00">1.000</text>
</g>
<!-- key 79656
bias &#45;0.560
h_scaling 0.857&#45;&gt;key 79656
bias &#45;0.560
h_scaling 0.857 -->
<g id="edge17" class="edge">
<title>key 79656
bias &#45;0.560
h_scaling 0.857&#45;&gt;key 79656
bias &#45;0.560
h_scaling 0.857</title>
<path fill="none" stroke="red" stroke-width="2.88" d="M235.58,-772.05C247.14,-770.17 255.28,-765.07 255.28,-756.76 255.28,-751.04 251.43,-746.84 245.27,-744.17"/>
<polygon fill="red" stroke="red" stroke-width="2.88" points="246.16,-740.78 235.58,-741.46 244.27,-747.52 246.16,-740.78"/>
<text text-anchor="middle" x="269.28" y="-754.56" font-family="Times,serif" font-size="9.00">0.926</text>
</g>
<!-- key 9097
bias 0.049
h_scaling 0.601&#45;&gt;key 29354
bias &#45;0.417
h_scaling 0.263 -->
<g id="edge4" class="edge">
<title>key 9097
bias 0.049
h_scaling 0.601&#45;&gt;key 29354
bias &#45;0.417
h_scaling 0.263</title>
<path fill="none" stroke="red" stroke-width="2.82" d="M266.72,-354.53C256.84,-337.61 245.87,-318.82 235.68,-301.35"/>
<polygon fill="red" stroke="red" stroke-width="2.82" points="238.49,-299.23 230.42,-292.36 232.44,-302.76 238.49,-299.23"/>
<text text-anchor="middle" x="262.64" y="-321.36" font-family="Times,serif" font-size="9.00">0.908</text>
</g>
<!-- key 9097
bias 0.049
h_scaling 0.601&#45;&gt;key 2632
bias 0.179
h_scaling 0.300 -->
<g id="edge9" class="edge">
<title>key 9097
bias 0.049
h_scaling 0.601&#45;&gt;key 2632
bias 0.179
h_scaling 0.300</title>
<path fill="none" stroke="blue" stroke-width="1.94" d="M294.45,-346.4C290.51,-287.47 284.63,-199.36 280.5,-137.39"/>
<polygon fill="blue" stroke="blue" stroke-width="1.94" points="283.98,-137.04 279.82,-127.3 277,-137.51 283.98,-137.04"/>
<text text-anchor="middle" x="307.14" y="-234.72" font-family="Times,serif" font-size="9.00">&#45;0.612</text>
</g>
<!-- key 29354
bias &#45;0.417
h_scaling 0.263&#45;&gt;output
bias &#45;0.510
h_scaling 0.022 -->
<g id="edge11" class="edge">
<title>key 29354
bias &#45;0.417
h_scaling 0.263&#45;&gt;output
bias &#45;0.510
h_scaling 0.022</title>
<path fill="none" stroke="red" stroke-width="3.1" d="M144.42,-270.43C118.43,-289.17 89.73,-315.23 74.64,-346.56 50.17,-397.34 48.81,-461.61 52.8,-510.24"/>
<polygon fill="red" stroke="red" stroke-width="3.1" points="49.33,-510.73 53.72,-520.37 56.3,-510.1 49.33,-510.73"/>
<text text-anchor="middle" x="88.64" y="-408" font-family="Times,serif" font-size="9.00">1.000</text>
</g>
<!-- key 29354
bias &#45;0.417
h_scaling 0.263&#45;&gt;key 2632
bias 0.179
h_scaling 0.300 -->
<g id="edge5" class="edge">
<title>key 29354
bias &#45;0.417
h_scaling 0.263&#45;&gt;key 2632
bias 0.179
h_scaling 0.300</title>
<path fill="none" stroke="blue" stroke-width="1.99" d="M224.49,-178.41C231.26,-163.36 238.61,-147.01 245.58,-131.51"/>
<polygon fill="blue" stroke="blue" stroke-width="1.99" points="248.95,-132.55 249.85,-122 242.56,-129.68 248.95,-132.55"/>
<text text-anchor="middle" x="253.14" y="-148.08" font-family="Times,serif" font-size="9.00">&#45;0.630</text>
</g>
<!-- key 2632
bias 0.179
h_scaling 0.300&#45;&gt;output
bias &#45;0.510
h_scaling 0.022 -->
<g id="edge1" class="edge">
<title>key 2632
bias 0.179
h_scaling 0.300&#45;&gt;output
bias &#45;0.510
h_scaling 0.022</title>
<path fill="none" stroke="blue" stroke-width="3.1" d="M220.34,-95.73C189.6,-115.05 152.29,-142.12 125.64,-173.28 78.54,-228.35 73.5,-249.47 51.64,-318.56 31.67,-381.65 38.02,-457.45 47.37,-511.59"/>
<polygon fill="blue" stroke="blue" stroke-width="3.1" points="43.92,-512.22 49.14,-521.45 50.81,-510.98 43.92,-512.22"/>
<text text-anchor="middle" x="67.14" y="-321.36" font-family="Times,serif" font-size="9.00">&#45;1.000</text>
</g>
<!-- key 2632
bias 0.179
h_scaling 0.300&#45;&gt;key 29354
bias &#45;0.417
h_scaling 0.263 -->
<g id="edge6" class="edge">
<title>key 2632
bias 0.179
h_scaling 0.300&#45;&gt;key 29354
bias &#45;0.417
h_scaling 0.263</title>
<path fill="none" stroke="blue" stroke-width="2.78" d="M228.09,-106.33C217.9,-117.86 208.45,-131.13 202.64,-145.28 200.28,-151.02 198.56,-157.13 197.32,-163.38"/>
<polygon fill="blue" stroke="blue" stroke-width="2.78" points="193.86,-162.83 195.77,-173.25 200.78,-163.92 193.86,-162.83"/>
<text text-anchor="middle" x="218.14" y="-148.08" font-family="Times,serif" font-size="9.00">&#45;0.895</text>
</g>
<!-- key 2632
bias 0.179
h_scaling 0.300&#45;&gt;key 2632
bias 0.179
h_scaling 0.300 -->
<g id="edge3" class="edge">
<title>key 2632
bias 0.179
h_scaling 0.300&#45;&gt;key 2632
bias 0.179
h_scaling 0.300</title>
<path fill="none" stroke="red" stroke-width="2.76" d="M337.58,-78.94C349.14,-77.05 357.28,-71.95 357.28,-63.64 357.28,-57.92 353.43,-53.73 347.27,-51.05"/>
<polygon fill="red" stroke="red" stroke-width="2.76" points="348.16,-47.66 337.58,-48.34 346.27,-54.4 348.16,-47.66"/>
<text text-anchor="middle" x="371.28" y="-61.44" font-family="Times,serif" font-size="9.00">0.888</text>
</g>
</g>
</svg>
