<?xml version="1.0" encoding="UTF-8" standalone="no"?>
<!DOCTYPE svg PUBLIC "-//W3C//DTD SVG 1.1//EN"
 "http://www.w3.org/Graphics/SVG/1.1/DTD/svg11.dtd">
<!-- Generated by graphviz version 2.43.0 (0)
 -->
<!-- Title: %3 Pages: 1 -->
<svg width="524pt" height="902pt"
 viewBox="0.00 0.00 523.50 902.40" xmlns="http://www.w3.org/2000/svg" xmlns:xlink="http://www.w3.org/1999/xlink">
<g id="graph0" class="graph" transform="scale(1 1) rotate(0) translate(4 898.4)">
<title>%3</title>
<polygon fill="white" stroke="transparent" points="-4,4 -4,-898.4 519.5,-898.4 519.5,4 -4,4"/>
<!-- ready
output 0.000 -->
<g id="node1" class="node">
<title>ready
output 0.000</title>
<polygon fill="yellow" stroke="black" points="77,-894.4 0,-894.4 0,-866.4 77,-866.4 77,-894.4"/>
<text text-anchor="middle" x="38.5" y="-883.2" font-family="Times,serif" font-size="9.00">ready</text>
<text text-anchor="middle" x="38.5" y="-873.2" font-family="Times,serif" font-size="9.00">output 0.000</text>
</g>
<!-- key 28276
bias &#45;0.617
h_scaling 0.273
output 0.108 -->
<g id="node5" class="node">
<title>key 28276
bias &#45;0.617
h_scaling 0.273
output 0.108</title>
<ellipse fill="white" stroke="black" cx="355.5" cy="-756.76" rx="63.78" ry="63.78"/>
<text text-anchor="middle" x="355.5" y="-769.56" font-family="Times,serif" font-size="9.00">key 28276</text>
<text text-anchor="middle" x="355.5" y="-759.56" font-family="Times,serif" font-size="9.00">bias &#45;0.617</text>
<text text-anchor="middle" x="355.5" y="-749.56" font-family="Times,serif" font-size="9.00">h_scaling 0.273</text>
<text text-anchor="middle" x="355.5" y="-739.56" font-family="Times,serif" font-size="9.00">output 0.108</text>
</g>
<!-- ready
output 0.000&#45;&gt;key 28276
bias &#45;0.617
h_scaling 0.273
output 0.108 -->
<g id="edge5" class="edge">
<title>ready
output 0.000&#45;&gt;key 28276
bias &#45;0.617
h_scaling 0.273
output 0.108</title>
<path fill="none" stroke="red" stroke-width="0.1" d="M72.42,-866.38C123.35,-846.84 220.61,-809.52 286.76,-784.13"/>
<polygon fill="red" stroke="red" stroke-width="0.1" points="288.2,-787.33 296.29,-780.48 285.7,-780.79 288.2,-787.33"/>
<text text-anchor="middle" x="155.5" y="-841.2" font-family="Times,serif" font-size="9.00">0.871</text>
</g>
<!-- key 6357
bias &#45;0.210
h_scaling 0.422
output 0.007 -->
<g id="node6" class="node">
<title>key 6357
bias &#45;0.210
h_scaling 0.422
output 0.007</title>
<ellipse fill="white" stroke="black" cx="156.5" cy="-410.2" rx="63.78" ry="63.78"/>
<text text-anchor="middle" x="156.5" y="-423" font-family="Times,serif" font-size="9.00">key 6357</text>
<text text-anchor="middle" x="156.5" y="-413" font-family="Times,serif" font-size="9.00">bias &#45;0.210</text>
<text text-anchor="middle" x="156.5" y="-403" font-family="Times,serif" font-size="9.00">h_scaling 0.422</text>
<text text-anchor="middle" x="156.5" y="-393" font-family="Times,serif" font-size="9.00">output 0.007</text>
</g>
<!-- ready
output 0.000&#45;&gt;key 6357
bias &#45;0.210
h_scaling 0.422
output 0.007 -->
<g id="edge15" class="edge">
<title>ready
output 0.000&#45;&gt;key 6357
bias &#45;0.210
h_scaling 0.422
output 0.007</title>
<path fill="none" stroke="red" stroke-width="0.1" d="M36.95,-866.17C31.82,-818.07 18.09,-648.46 62.5,-519.84 70.23,-497.45 85.16,-476.72 100.88,-459.51"/>
<polygon fill="red" stroke="red" stroke-width="0.1" points="103.8,-461.52 108.14,-451.85 98.72,-456.7 103.8,-461.52"/>
<text text-anchor="middle" x="48.5" y="-667.92" font-family="Times,serif" font-size="9.00">0.650</text>
</g>
<!-- go
output 0.000 -->
<g id="node2" class="node">
<title>go
output 0.000</title>
<polygon fill="green" stroke="black" points="174,-770.76 97,-770.76 97,-742.76 174,-742.76 174,-770.76"/>
<text text-anchor="middle" x="135.5" y="-759.56" font-family="Times,serif" font-size="9.00">go</text>
<text text-anchor="middle" x="135.5" y="-749.56" font-family="Times,serif" font-size="9.00">output 0.000</text>
</g>
<!-- go
output 0.000&#45;&gt;key 6357
bias &#45;0.210
h_scaling 0.422
output 0.007 -->
<g id="edge2" class="edge">
<title>go
output 0.000&#45;&gt;key 6357
bias &#45;0.210
h_scaling 0.422
output 0.007</title>
<path fill="none" stroke="blue" stroke-width="0.1" d="M125.67,-742.59C111.72,-722.99 86.84,-684.45 77.5,-647.12 63.77,-592.24 60.01,-573.63 77.5,-519.84 83.79,-500.48 94.98,-481.69 106.99,-465.34"/>
<polygon fill="blue" stroke="blue" stroke-width="0.1" points="110.05,-467.09 113.32,-457.02 104.48,-462.85 110.05,-467.09"/>
<text text-anchor="middle" x="93" y="-581.28" font-family="Times,serif" font-size="9.00">&#45;0.781</text>
</g>
<!-- key 27319
bias &#45;0.274
h_scaling 0.939
output 0.816 -->
<g id="node7" class="node">
<title>key 27319
bias &#45;0.274
h_scaling 0.939
output 0.816</title>
<ellipse fill="white" stroke="black" cx="181.5" cy="-583.48" rx="63.78" ry="63.78"/>
<text text-anchor="middle" x="181.5" y="-596.28" font-family="Times,serif" font-size="9.00">key 27319</text>
<text text-anchor="middle" x="181.5" y="-586.28" font-family="Times,serif" font-size="9.00">bias &#45;0.274</text>
<text text-anchor="middle" x="181.5" y="-576.28" font-family="Times,serif" font-size="9.00">h_scaling 0.939</text>
<text text-anchor="middle" x="181.5" y="-566.28" font-family="Times,serif" font-size="9.00">output 0.816</text>
</g>
<!-- go
output 0.000&#45;&gt;key 27319
bias &#45;0.274
h_scaling 0.939
output 0.816 -->
<g id="edge3" class="edge">
<title>go
output 0.000&#45;&gt;key 27319
bias &#45;0.274
h_scaling 0.939
output 0.816</title>
<path fill="none" stroke="red" stroke-width="0.1" d="M139.03,-742.6C144.07,-723.86 153.67,-688.11 162.47,-655.33"/>
<polygon fill="red" stroke="red" stroke-width="0.1" points="165.96,-655.84 165.17,-645.28 159.2,-654.03 165.96,-655.84"/>
<text text-anchor="middle" x="172.5" y="-667.92" font-family="Times,serif" font-size="9.00">1.252</text>
</g>
<!-- output
bias &#45;0.483
h_scaling 0.000
output 0.002 -->
<g id="node3" class="node">
<title>output
bias &#45;0.483
h_scaling 0.000
output 0.002</title>
<ellipse fill="lightblue" stroke="black" cx="317.5" cy="-236.92" rx="63.78" ry="63.78"/>
<text text-anchor="middle" x="317.5" y="-249.72" font-family="Times,serif" font-size="9.00">output</text>
<text text-anchor="middle" x="317.5" y="-239.72" font-family="Times,serif" font-size="9.00">bias &#45;0.483</text>
<text text-anchor="middle" x="317.5" y="-229.72" font-family="Times,serif" font-size="9.00">h_scaling 0.000</text>
<text text-anchor="middle" x="317.5" y="-219.72" font-family="Times,serif" font-size="9.00">output 0.002</text>
</g>
<!-- key 65476
bias &#45;0.268
h_scaling 0.020
output 0.262 -->
<g id="node4" class="node">
<title>key 65476
bias &#45;0.268
h_scaling 0.020
output 0.262</title>
<ellipse fill="white" stroke="black" cx="423.5" cy="-63.64" rx="63.78" ry="63.78"/>
<text text-anchor="middle" x="423.5" y="-76.44" font-family="Times,serif" font-size="9.00">key 65476</text>
<text text-anchor="middle" x="423.5" y="-66.44" font-family="Times,serif" font-size="9.00">bias &#45;0.268</text>
<text text-anchor="middle" x="423.5" y="-56.44" font-family="Times,serif" font-size="9.00">h_scaling 0.020</text>
<text text-anchor="middle" x="423.5" y="-46.44" font-family="Times,serif" font-size="9.00">output 0.262</text>
</g>
<!-- output
bias &#45;0.483
h_scaling 0.000
output 0.002&#45;&gt;key 65476
bias &#45;0.268
h_scaling 0.020
output 0.262 -->
<g id="edge12" class="edge">
<title>output
bias &#45;0.483
h_scaling 0.000
output 0.002&#45;&gt;key 65476
bias &#45;0.268
h_scaling 0.020
output 0.262</title>
<path fill="none" stroke="blue" stroke-width="0.1" d="M350.75,-182.19C361.6,-164.66 373.74,-145.04 384.95,-126.93"/>
<polygon fill="blue" stroke="blue" stroke-width="0.1" points="388.08,-128.52 390.37,-118.17 382.13,-124.83 388.08,-128.52"/>
<text text-anchor="middle" x="386" y="-148.08" font-family="Times,serif" font-size="9.00">&#45;0.192</text>
</g>
<!-- key 65476
bias &#45;0.268
h_scaling 0.020
output 0.262&#45;&gt;key 28276
bias &#45;0.617
h_scaling 0.273
output 0.108 -->
<g id="edge11" class="edge">
<title>key 65476
bias &#45;0.268
h_scaling 0.020
output 0.262&#45;&gt;key 28276
bias &#45;0.617
h_scaling 0.273
output 0.108</title>
<path fill="none" stroke="red" stroke-width="0.1" d="M455.13,-119.04C471.25,-151.8 487.5,-194.97 487.5,-235.92 487.5,-584.48 487.5,-584.48 487.5,-584.48 487.5,-635.78 449.88,-681.12 414.81,-712.25"/>
<polygon fill="red" stroke="red" stroke-width="0.1" points="412.2,-709.88 406.91,-719.06 416.77,-715.18 412.2,-709.88"/>
<text text-anchor="middle" x="501.5" y="-408" font-family="Times,serif" font-size="9.00">0.706</text>
</g>
<!-- key 28276
bias &#45;0.617
h_scaling 0.273
output 0.108&#45;&gt;output
bias &#45;0.483
h_scaling 0.000
output 0.002 -->
<g id="edge14" class="edge">
<title>key 28276
bias &#45;0.617
h_scaling 0.273
output 0.108&#45;&gt;output
bias &#45;0.483
h_scaling 0.000
output 0.002</title>
<path fill="none" stroke="red" stroke-width="0.1" d="M364.91,-693.56C366.81,-678.4 368.53,-662.2 369.5,-647.12 378.08,-513.39 371.46,-478.03 345.5,-346.56 343.06,-334.19 340.06,-321.14 336.95,-308.54"/>
<polygon fill="red" stroke="red" stroke-width="0.1" points="340.27,-307.39 334.43,-298.54 333.48,-309.1 340.27,-307.39"/>
<text text-anchor="middle" x="385.5" y="-494.64" font-family="Times,serif" font-size="9.00">0.206</text>
</g>
<!-- key 28276
bias &#45;0.617
h_scaling 0.273
output 0.108&#45;&gt;key 65476
bias &#45;0.268
h_scaling 0.020
output 0.262 -->
<g id="edge10" class="edge">
<title>key 28276
bias &#45;0.617
h_scaling 0.273
output 0.108&#45;&gt;key 65476
bias &#45;0.268
h_scaling 0.020
output 0.262</title>
<path fill="none" stroke="red" stroke-width="0.1" d="M388.7,-702.35C405.96,-669.59 423.5,-626.07 423.5,-584.48 423.5,-584.48 423.5,-584.48 423.5,-235.92 423.5,-203.59 423.5,-167.83 423.5,-137.39"/>
<polygon fill="red" stroke="red" stroke-width="0.1" points="427,-137.28 423.5,-127.28 420,-137.28 427,-137.28"/>
<text text-anchor="middle" x="437.5" y="-408" font-family="Times,serif" font-size="9.00">0.905</text>
</g>
<!-- key 28276
bias &#45;0.617
h_scaling 0.273
output 0.108&#45;&gt;key 6357
bias &#45;0.210
h_scaling 0.422
output 0.007 -->
<g id="edge6" class="edge">
<title>key 28276
bias &#45;0.617
h_scaling 0.273
output 0.108&#45;&gt;key 6357
bias &#45;0.210
h_scaling 0.422
output 0.007</title>
<path fill="none" stroke="red" stroke-width="0.1" d="M345.93,-693.57C335.85,-633.68 318.9,-548.13 300.5,-519.84 280.77,-489.51 249.51,-464.42 221.16,-446.03"/>
<polygon fill="red" stroke="red" stroke-width="0.1" points="222.79,-442.92 212.46,-440.54 219.05,-448.84 222.79,-442.92"/>
<text text-anchor="middle" x="351.5" y="-581.28" font-family="Times,serif" font-size="9.00">0.562</text>
</g>
<!-- key 28276
bias &#45;0.617
h_scaling 0.273
output 0.108&#45;&gt;key 27319
bias &#45;0.274
h_scaling 0.939
output 0.816 -->
<g id="edge8" class="edge">
<title>key 28276
bias &#45;0.617
h_scaling 0.273
output 0.108&#45;&gt;key 27319
bias &#45;0.274
h_scaling 0.939
output 0.816</title>
<path fill="none" stroke="blue" stroke-width="0.1" d="M310.24,-711.2C286.88,-688.21 258.25,-660.03 233.93,-636.09"/>
<polygon fill="blue" stroke="blue" stroke-width="0.1" points="236.12,-633.33 226.54,-628.81 231.21,-638.32 236.12,-633.33"/>
<text text-anchor="middle" x="284" y="-667.92" font-family="Times,serif" font-size="9.00">&#45;0.769</text>
</g>
<!-- key 6357
bias &#45;0.210
h_scaling 0.422
output 0.007&#45;&gt;output
bias &#45;0.483
h_scaling 0.000
output 0.002 -->
<g id="edge1" class="edge">
<title>key 6357
bias &#45;0.210
h_scaling 0.422
output 0.007&#45;&gt;output
bias &#45;0.483
h_scaling 0.000
output 0.002</title>
<path fill="none" stroke="red" stroke-width="0.1" d="M199.65,-363.3C220.49,-341.12 245.63,-314.38 267.32,-291.3"/>
<polygon fill="red" stroke="red" stroke-width="0.1" points="269.94,-293.63 274.24,-283.95 264.84,-288.83 269.94,-293.63"/>
<text text-anchor="middle" x="251.5" y="-321.36" font-family="Times,serif" font-size="9.00">1.000</text>
</g>
<!-- key 6357
bias &#45;0.210
h_scaling 0.422
output 0.007&#45;&gt;key 6357
bias &#45;0.210
h_scaling 0.422
output 0.007 -->
<g id="edge9" class="edge">
<title>key 6357
bias &#45;0.210
h_scaling 0.422
output 0.007&#45;&gt;key 6357
bias &#45;0.210
h_scaling 0.422
output 0.007</title>
<path fill="none" stroke="red" stroke-width="0.1" d="M218.44,-425.5C230,-423.61 238.14,-418.51 238.14,-410.2 238.14,-404.48 234.29,-400.29 228.13,-397.61"/>
<polygon fill="red" stroke="red" stroke-width="0.1" points="229.02,-394.22 218.44,-394.9 227.13,-400.96 229.02,-394.22"/>
<text text-anchor="middle" x="252.14" y="-408" font-family="Times,serif" font-size="9.00">0.916</text>
</g>
<!-- key 27319
bias &#45;0.274
h_scaling 0.939
output 0.816&#45;&gt;output
bias &#45;0.483
h_scaling 0.000
output 0.002 -->
<g id="edge13" class="edge">
<title>key 27319
bias &#45;0.274
h_scaling 0.939
output 0.816&#45;&gt;output
bias &#45;0.483
h_scaling 0.000
output 0.002</title>
<path fill="none" stroke="blue" stroke-width="0.1" d="M228.05,-539.65C245.54,-521.07 263.97,-498.04 275.5,-473.84 299.94,-422.56 310.25,-358.87 314.56,-310.59"/>
<polygon fill="blue" stroke="blue" stroke-width="0.1" points="318.06,-310.79 315.39,-300.54 311.08,-310.22 318.06,-310.79"/>
<text text-anchor="middle" x="326" y="-408" font-family="Times,serif" font-size="9.00">&#45;0.948</text>
</g>
<!-- key 27319
bias &#45;0.274
h_scaling 0.939
output 0.816&#45;&gt;key 6357
bias &#45;0.210
h_scaling 0.422
output 0.007 -->
<g id="edge4" class="edge">
<title>key 27319
bias &#45;0.274
h_scaling 0.939
output 0.816&#45;&gt;key 6357
bias &#45;0.210
h_scaling 0.422
output 0.007</title>
<path fill="none" stroke="blue" stroke-width="0.1" d="M172.4,-520.16C170.67,-508.28 168.84,-495.75 167.07,-483.58"/>
<polygon fill="blue" stroke="blue" stroke-width="0.1" points="170.5,-482.86 165.59,-473.47 163.57,-483.87 170.5,-482.86"/>
<text text-anchor="middle" x="185" y="-494.64" font-family="Times,serif" font-size="9.00">&#45;1.000</text>
</g>
<!-- key 27319
bias &#45;0.274
h_scaling 0.939
output 0.816&#45;&gt;key 27319
bias &#45;0.274
h_scaling 0.939
output 0.816 -->
<g id="edge7" class="edge">
<title>key 27319
bias &#45;0.274
h_scaling 0.939
output 0.816&#45;&gt;key 27319
bias &#45;0.274
h_scaling 0.939
output 0.816</title>
<path fill="none" stroke="red" stroke-width="0.1" d="M243.44,-598.77C255,-596.89 263.14,-591.79 263.14,-583.48 263.14,-577.76 259.29,-573.56 253.13,-570.89"/>
<polygon fill="red" stroke="red" stroke-width="0.1" points="254.02,-567.5 243.44,-568.18 252.13,-574.24 254.02,-567.5"/>
<text text-anchor="middle" x="277.14" y="-581.28" font-family="Times,serif" font-size="9.00">1.017</text>
</g>
</g>
</svg>
