<?xml version="1.0" encoding="UTF-8" standalone="no"?>
<!DOCTYPE svg PUBLIC "-//W3C//DTD SVG 1.1//EN"
 "http://www.w3.org/Graphics/SVG/1.1/DTD/svg11.dtd">
<!-- Generated by graphviz version 2.43.0 (0)
 -->
<!-- Title: %3 Pages: 1 -->
<svg width="538pt" height="883pt"
 viewBox="0.00 0.00 538.00 883.40" xmlns="http://www.w3.org/2000/svg" xmlns:xlink="http://www.w3.org/1999/xlink">
<g id="graph0" class="graph" transform="scale(1 1) rotate(0) translate(4 879.4)">
<title>%3</title>
<polygon fill="white" stroke="transparent" points="-4,4 -4,-879.4 534,-879.4 534,4 -4,4"/>
<!-- ready -->
<g id="node1" class="node">
<title>ready</title>
<polygon fill="yellow" stroke="black" points="78.5,-875.4 35.5,-875.4 35.5,-857.4 78.5,-857.4 78.5,-875.4"/>
<text text-anchor="middle" x="57" y="-864.2" font-family="Times,serif" font-size="9.00">ready</text>
</g>
<!-- key 832
bias &#45;0.640
h_scaling 1.000 -->
<g id="node4" class="node">
<title>key 832
bias &#45;0.640
h_scaling 1.000</title>
<ellipse fill="white" stroke="black" cx="313" cy="-747.76" rx="63.78" ry="63.78"/>
<text text-anchor="middle" x="313" y="-755.56" font-family="Times,serif" font-size="9.00">key 832</text>
<text text-anchor="middle" x="313" y="-745.56" font-family="Times,serif" font-size="9.00">bias &#45;0.640</text>
<text text-anchor="middle" x="313" y="-735.56" font-family="Times,serif" font-size="9.00">h_scaling 1.000</text>
</g>
<!-- ready&#45;&gt;key 832
bias &#45;0.640
h_scaling 1.000 -->
<g id="edge13" class="edge">
<title>ready&#45;&gt;key 832
bias &#45;0.640
h_scaling 1.000</title>
<path fill="none" stroke="blue" stroke-width="0.1" d="M74.6,-857.38C109.32,-841.56 188.28,-805.58 245.84,-779.35"/>
<polygon fill="blue" stroke="blue" stroke-width="0.1" points="247.6,-782.4 255.25,-775.07 244.7,-776.03 247.6,-782.4"/>
</g>
<!-- key 88368
bias &#45;0.292
h_scaling 1.000 -->
<g id="node5" class="node">
<title>key 88368
bias &#45;0.292
h_scaling 1.000</title>
<ellipse fill="white" stroke="black" cx="168" cy="-410.2" rx="63.78" ry="63.78"/>
<text text-anchor="middle" x="168" y="-418" font-family="Times,serif" font-size="9.00">key 88368</text>
<text text-anchor="middle" x="168" y="-408" font-family="Times,serif" font-size="9.00">bias &#45;0.292</text>
<text text-anchor="middle" x="168" y="-398" font-family="Times,serif" font-size="9.00">h_scaling 1.000</text>
</g>
<!-- ready&#45;&gt;key 88368
bias &#45;0.292
h_scaling 1.000 -->
<g id="edge19" class="edge">
<title>ready&#45;&gt;key 88368
bias &#45;0.292
h_scaling 1.000</title>
<path fill="none" stroke="blue" stroke-width="0.1" d="M59.02,-857.12C69.97,-812.31 122.74,-596.4 150.63,-482.27"/>
<polygon fill="blue" stroke="blue" stroke-width="0.1" points="154.11,-482.76 153.09,-472.22 147.31,-481.1 154.11,-482.76"/>
</g>
<!-- key 12976
bias &#45;0.384
h_scaling 1.000 -->
<g id="node6" class="node">
<title>key 12976
bias &#45;0.384
h_scaling 1.000</title>
<ellipse fill="white" stroke="black" cx="298" cy="-236.92" rx="63.78" ry="63.78"/>
<text text-anchor="middle" x="298" y="-244.72" font-family="Times,serif" font-size="9.00">key 12976</text>
<text text-anchor="middle" x="298" y="-234.72" font-family="Times,serif" font-size="9.00">bias &#45;0.384</text>
<text text-anchor="middle" x="298" y="-224.72" font-family="Times,serif" font-size="9.00">h_scaling 1.000</text>
</g>
<!-- ready&#45;&gt;key 12976
bias &#45;0.384
h_scaling 1.000 -->
<g id="edge11" class="edge">
<title>ready&#45;&gt;key 12976
bias &#45;0.384
h_scaling 1.000</title>
<path fill="none" stroke="blue" stroke-width="0.1" d="M54.75,-857.27C49.71,-838.38 38,-790 38,-748.76 38,-748.76 38,-748.76 38,-409.2 38,-318.93 148.65,-273.54 225.58,-252.9"/>
<polygon fill="blue" stroke="blue" stroke-width="0.1" points="226.92,-256.16 235.72,-250.26 225.16,-249.39 226.92,-256.16"/>
</g>
<!-- key 831
bias &#45;0.998
h_scaling 1.000 -->
<g id="node7" class="node">
<title>key 831
bias &#45;0.998
h_scaling 1.000</title>
<ellipse fill="white" stroke="black" cx="296" cy="-63.64" rx="63.78" ry="63.78"/>
<text text-anchor="middle" x="296" y="-71.44" font-family="Times,serif" font-size="9.00">key 831</text>
<text text-anchor="middle" x="296" y="-61.44" font-family="Times,serif" font-size="9.00">bias &#45;0.998</text>
<text text-anchor="middle" x="296" y="-51.44" font-family="Times,serif" font-size="9.00">h_scaling 1.000</text>
</g>
<!-- ready&#45;&gt;key 831
bias &#45;0.998
h_scaling 1.000 -->
<g id="edge14" class="edge">
<title>ready&#45;&gt;key 831
bias &#45;0.998
h_scaling 1.000</title>
<path fill="none" stroke="blue" stroke-width="0.1" d="M49.78,-857.29C34.44,-839.21 0,-793.61 0,-748.76 0,-748.76 0,-748.76 0,-235.92 0,-133.16 135.3,-91.06 222.95,-74.56"/>
<polygon fill="blue" stroke="blue" stroke-width="0.1" points="223.65,-78 232.86,-72.77 222.4,-71.11 223.65,-78"/>
</g>
<!-- go -->
<g id="node2" class="node">
<title>go</title>
<polygon fill="green" stroke="black" points="460,-875.4 432,-875.4 432,-857.4 460,-857.4 460,-875.4"/>
<text text-anchor="middle" x="446" y="-864.2" font-family="Times,serif" font-size="9.00">go</text>
</g>
<!-- go&#45;&gt;key 832
bias &#45;0.640
h_scaling 1.000 -->
<g id="edge5" class="edge">
<title>go&#45;&gt;key 832
bias &#45;0.640
h_scaling 1.000</title>
<path fill="none" stroke="red" stroke-width="0.1" d="M431.85,-857.72C423.44,-852.91 412.75,-846.31 404,-839.4 389.96,-828.3 375.78,-815.25 362.93,-802.57"/>
<polygon fill="red" stroke="red" stroke-width="0.1" points="365.07,-799.76 355.53,-795.16 360.12,-804.71 365.07,-799.76"/>
<text text-anchor="middle" x="418" y="-832.2" font-family="Times,serif" font-size="9.00">0.000</text>
</g>
<!-- go&#45;&gt;key 12976
bias &#45;0.384
h_scaling 1.000 -->
<g id="edge6" class="edge">
<title>go&#45;&gt;key 12976
bias &#45;0.384
h_scaling 1.000</title>
<path fill="none" stroke="red" stroke-width="0.1" d="M446,-857.19C446,-838.15 446,-789.46 446,-748.76 446,-748.76 446,-748.76 446,-409.2 446,-353.68 400.93,-307.28 360.54,-276.84"/>
<polygon fill="red" stroke="red" stroke-width="0.1" points="362.4,-273.87 352.27,-270.78 358.26,-279.51 362.4,-273.87"/>
<text text-anchor="middle" x="460" y="-581.28" font-family="Times,serif" font-size="9.00">0.000</text>
</g>
<!-- go&#45;&gt;key 831
bias &#45;0.998
h_scaling 1.000 -->
<g id="edge2" class="edge">
<title>go&#45;&gt;key 831
bias &#45;0.998
h_scaling 1.000</title>
<path fill="none" stroke="red" stroke-width="0.1" d="M453.09,-857.27C468.16,-839.14 502,-793.46 502,-748.76 502,-748.76 502,-748.76 502,-235.92 502,-163.29 425.36,-115.54 365.57,-89.34"/>
<polygon fill="red" stroke="red" stroke-width="0.1" points="366.71,-86.02 356.14,-85.32 363.97,-92.46 366.71,-86.02"/>
<text text-anchor="middle" x="516" y="-494.64" font-family="Times,serif" font-size="9.00">0.000</text>
</g>
<!-- output
bias 0.874
h_scaling 1.000 -->
<g id="node3" class="node">
<title>output
bias 0.874
h_scaling 1.000</title>
<ellipse fill="lightblue" stroke="black" cx="252" cy="-583.48" rx="63.78" ry="63.78"/>
<text text-anchor="middle" x="252" y="-591.28" font-family="Times,serif" font-size="9.00">output</text>
<text text-anchor="middle" x="252" y="-581.28" font-family="Times,serif" font-size="9.00">bias 0.874</text>
<text text-anchor="middle" x="252" y="-571.28" font-family="Times,serif" font-size="9.00">h_scaling 1.000</text>
</g>
<!-- output
bias 0.874
h_scaling 1.000&#45;&gt;key 832
bias &#45;0.640
h_scaling 1.000 -->
<g id="edge4" class="edge">
<title>output
bias 0.874
h_scaling 1.000&#45;&gt;key 832
bias &#45;0.640
h_scaling 1.000</title>
<path fill="none" stroke="blue" stroke-width="0.1" d="M279.67,-640.88C284.25,-652.35 288.91,-664.55 293.26,-676.43"/>
<polygon fill="blue" stroke="blue" stroke-width="0.1" points="289.98,-677.65 296.67,-685.87 296.56,-675.27 289.98,-677.65"/>
</g>
<!-- output
bias 0.874
h_scaling 1.000&#45;&gt;key 88368
bias &#45;0.292
h_scaling 1.000 -->
<g id="edge15" class="edge">
<title>output
bias 0.874
h_scaling 1.000&#45;&gt;key 88368
bias &#45;0.292
h_scaling 1.000</title>
<path fill="none" stroke="red" stroke-width="0.1" d="M224.26,-525.92C216.59,-510.28 208.2,-493.17 200.3,-477.05"/>
<polygon fill="red" stroke="red" stroke-width="0.1" points="203.25,-475.13 195.71,-467.7 196.97,-478.22 203.25,-475.13"/>
<text text-anchor="middle" x="224" y="-494.64" font-family="Times,serif" font-size="9.00">0.000</text>
</g>
<!-- key 832
bias &#45;0.640
h_scaling 1.000&#45;&gt;output
bias 0.874
h_scaling 1.000 -->
<g id="edge3" class="edge">
<title>key 832
bias &#45;0.640
h_scaling 1.000&#45;&gt;output
bias 0.874
h_scaling 1.000</title>
<path fill="none" stroke="blue" stroke-width="0.1" d="M285.19,-690C280.61,-678.53 275.96,-666.35 271.62,-654.49"/>
<polygon fill="blue" stroke="blue" stroke-width="0.1" points="274.91,-653.28 268.22,-645.07 268.33,-655.66 274.91,-653.28"/>
</g>
<!-- key 88368
bias &#45;0.292
h_scaling 1.000&#45;&gt;key 88368
bias &#45;0.292
h_scaling 1.000 -->
<g id="edge18" class="edge">
<title>key 88368
bias &#45;0.292
h_scaling 1.000&#45;&gt;key 88368
bias &#45;0.292
h_scaling 1.000</title>
<path fill="none" stroke="red" stroke-width="0.1" d="M229.94,-425.5C241.5,-423.61 249.64,-418.51 249.64,-410.2 249.64,-404.48 245.79,-400.29 239.63,-397.61"/>
<polygon fill="red" stroke="red" stroke-width="0.1" points="240.52,-394.22 229.94,-394.9 238.63,-400.96 240.52,-394.22"/>
<text text-anchor="middle" x="263.64" y="-408" font-family="Times,serif" font-size="9.00">0.000</text>
</g>
<!-- key 88368
bias &#45;0.292
h_scaling 1.000&#45;&gt;key 12976
bias &#45;0.384
h_scaling 1.000 -->
<g id="edge16" class="edge">
<title>key 88368
bias &#45;0.292
h_scaling 1.000&#45;&gt;key 12976
bias &#45;0.384
h_scaling 1.000</title>
<path fill="none" stroke="red" stroke-width="0.1" d="M206.3,-358.74C221.24,-339.05 238.47,-316.36 253.92,-295.99"/>
<polygon fill="red" stroke="red" stroke-width="0.1" points="256.71,-298.1 259.97,-288.02 251.14,-293.87 256.71,-298.1"/>
<text text-anchor="middle" x="247" y="-321.36" font-family="Times,serif" font-size="9.00">0.000</text>
</g>
<!-- key 12976
bias &#45;0.384
h_scaling 1.000&#45;&gt;output
bias 0.874
h_scaling 1.000 -->
<g id="edge17" class="edge">
<title>key 12976
bias &#45;0.384
h_scaling 1.000&#45;&gt;output
bias 0.874
h_scaling 1.000</title>
<path fill="none" stroke="blue" stroke-width="0.1" d="M299.57,-300.76C299.68,-348.59 297.5,-415.84 287,-473.84 284.62,-486.97 281.07,-500.71 277.14,-513.83"/>
<polygon fill="blue" stroke="blue" stroke-width="0.1" points="273.69,-513.13 274.06,-523.72 280.37,-515.21 273.69,-513.13"/>
</g>
<!-- key 12976
bias &#45;0.384
h_scaling 1.000&#45;&gt;key 832
bias &#45;0.640
h_scaling 1.000 -->
<g id="edge7" class="edge">
<title>key 12976
bias &#45;0.384
h_scaling 1.000&#45;&gt;key 832
bias &#45;0.640
h_scaling 1.000</title>
<path fill="none" stroke="red" stroke-width="0.1" d="M310.26,-299.44C311.3,-305.88 312.24,-312.34 313,-318.56 330.74,-463.6 333.75,-501.26 325,-647.12 324.46,-656.06 323.66,-665.43 322.71,-674.69"/>
<polygon fill="red" stroke="red" stroke-width="0.1" points="319.23,-674.36 321.64,-684.67 326.19,-675.1 319.23,-674.36"/>
<text text-anchor="middle" x="343" y="-494.64" font-family="Times,serif" font-size="9.00">0.000</text>
</g>
<!-- key 12976
bias &#45;0.384
h_scaling 1.000&#45;&gt;key 831
bias &#45;0.998
h_scaling 1.000 -->
<g id="edge8" class="edge">
<title>key 12976
bias &#45;0.384
h_scaling 1.000&#45;&gt;key 831
bias &#45;0.998
h_scaling 1.000</title>
<path fill="none" stroke="red" stroke-width="0.1" d="M300.15,-173.02C300.25,-163.72 300.22,-154.25 300,-145.28 299.94,-142.77 299.86,-140.21 299.78,-137.63"/>
<polygon fill="red" stroke="red" stroke-width="0.1" points="303.28,-137.45 299.42,-127.58 296.28,-137.7 303.28,-137.45"/>
<text text-anchor="middle" x="314" y="-148.08" font-family="Times,serif" font-size="9.00">0.000</text>
</g>
<!-- key 831
bias &#45;0.998
h_scaling 1.000&#45;&gt;output
bias 0.874
h_scaling 1.000 -->
<g id="edge1" class="edge">
<title>key 831
bias &#45;0.998
h_scaling 1.000&#45;&gt;output
bias 0.874
h_scaling 1.000</title>
<path fill="none" stroke="blue" stroke-width="0.1" d="M250.66,-108.97C201.35,-160.65 125.5,-251.24 95,-346.56 77.76,-400.44 68.74,-423.73 95,-473.84 113.85,-509.8 150.6,-536.22 183.81,-553.99"/>
<polygon fill="blue" stroke="blue" stroke-width="0.1" points="182.57,-557.29 193.06,-558.78 185.79,-551.08 182.57,-557.29"/>
</g>
<!-- key 831
bias &#45;0.998
h_scaling 1.000&#45;&gt;key 832
bias &#45;0.640
h_scaling 1.000 -->
<g id="edge10" class="edge">
<title>key 831
bias &#45;0.998
h_scaling 1.000&#45;&gt;key 832
bias &#45;0.640
h_scaling 1.000</title>
<path fill="none" stroke="red" stroke-width="0.1" d="M338.33,-111.49C363.28,-144 390,-189.62 390,-235.92 390,-584.48 390,-584.48 390,-584.48 390,-620.93 373.94,-657.94 356.49,-687.38"/>
<polygon fill="red" stroke="red" stroke-width="0.1" points="353.29,-685.91 351.05,-696.27 359.26,-689.57 353.29,-685.91"/>
<text text-anchor="middle" x="404" y="-408" font-family="Times,serif" font-size="9.00">0.000</text>
</g>
<!-- key 831
bias &#45;0.998
h_scaling 1.000&#45;&gt;key 12976
bias &#45;0.384
h_scaling 1.000 -->
<g id="edge12" class="edge">
<title>key 831
bias &#45;0.998
h_scaling 1.000&#45;&gt;key 12976
bias &#45;0.384
h_scaling 1.000</title>
<path fill="none" stroke="red" stroke-width="0.1" d="M269.67,-121.66C267.06,-132.69 266.02,-144.26 268,-155.28 268.76,-159.5 269.72,-163.78 270.84,-168.07"/>
<polygon fill="red" stroke="red" stroke-width="0.1" points="267.58,-169.38 273.69,-178.03 274.31,-167.45 267.58,-169.38"/>
<text text-anchor="middle" x="282" y="-148.08" font-family="Times,serif" font-size="9.00">0.000</text>
</g>
<!-- key 831
bias &#45;0.998
h_scaling 1.000&#45;&gt;key 831
bias &#45;0.998
h_scaling 1.000 -->
<g id="edge9" class="edge">
<title>key 831
bias &#45;0.998
h_scaling 1.000&#45;&gt;key 831
bias &#45;0.998
h_scaling 1.000</title>
<path fill="none" stroke="red" stroke-width="0.1" d="M357.94,-78.94C369.5,-77.05 377.64,-71.95 377.64,-63.64 377.64,-57.92 373.79,-53.73 367.63,-51.05"/>
<polygon fill="red" stroke="red" stroke-width="0.1" points="368.52,-47.66 357.94,-48.34 366.63,-54.4 368.52,-47.66"/>
<text text-anchor="middle" x="391.64" y="-61.44" font-family="Times,serif" font-size="9.00">0.000</text>
</g>
</g>
</svg>
