<?xml version="1.0" encoding="UTF-8" standalone="no"?>
<!DOCTYPE svg PUBLIC "-//W3C//DTD SVG 1.1//EN"
 "http://www.w3.org/Graphics/SVG/1.1/DTD/svg11.dtd">
<!-- Generated by graphviz version 2.43.0 (0)
 -->
<!-- Title: %3 Pages: 1 -->
<svg width="365pt" height="719pt"
 viewBox="0.00 0.00 364.64 719.12" xmlns="http://www.w3.org/2000/svg" xmlns:xlink="http://www.w3.org/1999/xlink">
<g id="graph0" class="graph" transform="scale(1 1) rotate(0) translate(4 715.12)">
<title>%3</title>
<polygon fill="white" stroke="transparent" points="-4,4 -4,-715.12 360.64,-715.12 360.64,4 -4,4"/>
<!-- ready -->
<g id="node1" class="node">
<title>ready</title>
<polygon fill="yellow" stroke="black" points="90.14,-711.12 47.14,-711.12 47.14,-693.12 90.14,-693.12 90.14,-711.12"/>
<text text-anchor="middle" x="68.64" y="-699.92" font-family="Times,serif" font-size="9.00">ready</text>
</g>
<!-- key 24569
bias &#45;1.000
h_scaling 0.643 -->
<g id="node4" class="node">
<title>key 24569
bias &#45;1.000
h_scaling 0.643</title>
<ellipse fill="white" stroke="black" cx="144.64" cy="-583.48" rx="63.78" ry="63.78"/>
<text text-anchor="middle" x="144.64" y="-591.28" font-family="Times,serif" font-size="9.00">key 24569</text>
<text text-anchor="middle" x="144.64" y="-581.28" font-family="Times,serif" font-size="9.00">bias &#45;1.000</text>
<text text-anchor="middle" x="144.64" y="-571.28" font-family="Times,serif" font-size="9.00">h_scaling 0.643</text>
</g>
<!-- ready&#45;&gt;key 24569
bias &#45;1.000
h_scaling 0.643 -->
<g id="edge12" class="edge">
<title>ready&#45;&gt;key 24569
bias &#45;1.000
h_scaling 0.643</title>
<path fill="none" stroke="blue" stroke-width="0.1" d="M73.86,-693.1C80.49,-682.92 92.56,-664.4 104.87,-645.51"/>
<polygon fill="blue" stroke="blue" stroke-width="0.1" points="107.81,-647.41 110.34,-637.12 101.95,-643.59 107.81,-647.41"/>
</g>
<!-- key 118359
bias &#45;0.442
h_scaling 0.594 -->
<g id="node6" class="node">
<title>key 118359
bias &#45;0.442
h_scaling 0.594</title>
<ellipse fill="white" stroke="black" cx="63.64" cy="-236.92" rx="63.78" ry="63.78"/>
<text text-anchor="middle" x="63.64" y="-244.72" font-family="Times,serif" font-size="9.00">key 118359</text>
<text text-anchor="middle" x="63.64" y="-234.72" font-family="Times,serif" font-size="9.00">bias &#45;0.442</text>
<text text-anchor="middle" x="63.64" y="-224.72" font-family="Times,serif" font-size="9.00">h_scaling 0.594</text>
</g>
<!-- ready&#45;&gt;key 118359
bias &#45;0.442
h_scaling 0.594 -->
<g id="edge10" class="edge">
<title>ready&#45;&gt;key 118359
bias &#45;0.442
h_scaling 0.594</title>
<path fill="none" stroke="blue" stroke-width="0.1" d="M66.42,-692.87C56.21,-654 14.96,-485.12 29.64,-346.56 31.04,-333.32 34.06,-319.54 37.74,-306.4"/>
<polygon fill="blue" stroke="blue" stroke-width="0.1" points="41.19,-307.09 40.68,-296.5 34.48,-305.1 41.19,-307.09"/>
</g>
<!-- go -->
<g id="node2" class="node">
<title>go</title>
<polygon fill="green" stroke="black" points="296.64,-711.12 268.64,-711.12 268.64,-693.12 296.64,-693.12 296.64,-711.12"/>
<text text-anchor="middle" x="282.64" y="-699.92" font-family="Times,serif" font-size="9.00">go</text>
</g>
<!-- go&#45;&gt;key 24569
bias &#45;1.000
h_scaling 0.643 -->
<g id="edge4" class="edge">
<title>go&#45;&gt;key 24569
bias &#45;1.000
h_scaling 0.643</title>
<path fill="none" stroke="red" stroke-width="0.89" d="M268.55,-693.36C260.17,-688.51 249.48,-681.91 240.64,-675.12 225.61,-663.56 210.28,-650.02 196.4,-636.97"/>
<polygon fill="red" stroke="red" stroke-width="0.89" points="198.51,-634.15 188.86,-629.79 193.69,-639.22 198.51,-634.15"/>
<text text-anchor="middle" x="254.64" y="-667.92" font-family="Times,serif" font-size="9.00">0.026</text>
</g>
<!-- key 3542
bias &#45;0.654
h_scaling 0.581 -->
<g id="node5" class="node">
<title>key 3542
bias &#45;0.654
h_scaling 0.581</title>
<ellipse fill="white" stroke="black" cx="220.64" cy="-63.64" rx="63.78" ry="63.78"/>
<text text-anchor="middle" x="220.64" y="-71.44" font-family="Times,serif" font-size="9.00">key 3542</text>
<text text-anchor="middle" x="220.64" y="-61.44" font-family="Times,serif" font-size="9.00">bias &#45;0.654</text>
<text text-anchor="middle" x="220.64" y="-51.44" font-family="Times,serif" font-size="9.00">h_scaling 0.581</text>
</g>
<!-- go&#45;&gt;key 3542
bias &#45;0.654
h_scaling 0.581 -->
<g id="edge1" class="edge">
<title>go&#45;&gt;key 3542
bias &#45;0.654
h_scaling 0.581</title>
<path fill="none" stroke="red" stroke-width="0.81" d="M288.28,-693.06C300.56,-674.72 328.64,-628.01 328.64,-584.48 328.64,-584.48 328.64,-584.48 328.64,-235.92 328.64,-190.39 300.99,-147.08 273.68,-115.41"/>
<polygon fill="red" stroke="red" stroke-width="0.81" points="276.01,-112.77 266.75,-107.61 270.78,-117.41 276.01,-112.77"/>
<text text-anchor="middle" x="342.64" y="-408" font-family="Times,serif" font-size="9.00">0.024</text>
</g>
<!-- go&#45;&gt;key 118359
bias &#45;0.442
h_scaling 0.594 -->
<g id="edge9" class="edge">
<title>go&#45;&gt;key 118359
bias &#45;0.442
h_scaling 0.594</title>
<path fill="none" stroke="red" stroke-width="0.54" d="M282.87,-692.83C284.29,-639.89 290.97,-350.08 268.64,-318.56 238.67,-276.25 182.96,-256.14 137.18,-246.58"/>
<polygon fill="red" stroke="red" stroke-width="0.54" points="137.76,-243.13 127.27,-244.64 136.41,-250 137.76,-243.13"/>
<text text-anchor="middle" x="298.64" y="-494.64" font-family="Times,serif" font-size="9.00">0.015</text>
</g>
<!-- output
bias 0.616
h_scaling 0.531 -->
<g id="node3" class="node">
<title>output
bias 0.616
h_scaling 0.531</title>
<ellipse fill="lightblue" stroke="black" cx="147.64" cy="-410.2" rx="63.78" ry="63.78"/>
<text text-anchor="middle" x="147.64" y="-418" font-family="Times,serif" font-size="9.00">output</text>
<text text-anchor="middle" x="147.64" y="-408" font-family="Times,serif" font-size="9.00">bias 0.616</text>
<text text-anchor="middle" x="147.64" y="-398" font-family="Times,serif" font-size="9.00">h_scaling 0.531</text>
</g>
<!-- output
bias 0.616
h_scaling 0.531&#45;&gt;key 24569
bias &#45;1.000
h_scaling 0.643 -->
<g id="edge5" class="edge">
<title>output
bias 0.616
h_scaling 0.531&#45;&gt;key 24569
bias &#45;1.000
h_scaling 0.643</title>
<path fill="none" stroke="blue" stroke-width="0.1" d="M153.07,-473.76C153.1,-485.57 152.93,-498.02 152.58,-510.11"/>
<polygon fill="blue" stroke="blue" stroke-width="0.1" points="149.08,-510.05 152.25,-520.16 156.08,-510.28 149.08,-510.05"/>
</g>
<!-- output
bias 0.616
h_scaling 0.531&#45;&gt;key 118359
bias &#45;0.442
h_scaling 0.594 -->
<g id="edge6" class="edge">
<title>output
bias 0.616
h_scaling 0.531&#45;&gt;key 118359
bias &#45;0.442
h_scaling 0.594</title>
<path fill="none" stroke="red" stroke-width="0.39" d="M113.04,-356.69C107.57,-347.48 102.22,-337.87 97.64,-328.56 94.25,-321.67 90.99,-314.34 87.91,-306.97"/>
<polygon fill="red" stroke="red" stroke-width="0.39" points="91.13,-305.58 84.13,-297.62 84.64,-308.21 91.13,-305.58"/>
<text text-anchor="middle" x="111.64" y="-321.36" font-family="Times,serif" font-size="9.00">0.010</text>
</g>
<!-- key 24569
bias &#45;1.000
h_scaling 0.643&#45;&gt;output
bias 0.616
h_scaling 0.531 -->
<g id="edge3" class="edge">
<title>key 24569
bias &#45;1.000
h_scaling 0.643&#45;&gt;output
bias 0.616
h_scaling 0.531</title>
<path fill="none" stroke="blue" stroke-width="0.1" d="M139.21,-519.67C139.18,-507.89 139.35,-495.48 139.7,-483.43"/>
<polygon fill="blue" stroke="blue" stroke-width="0.1" points="143.2,-483.53 140.03,-473.42 136.2,-483.3 143.2,-483.53"/>
</g>
<!-- key 24569
bias &#45;1.000
h_scaling 0.643&#45;&gt;key 24569
bias &#45;1.000
h_scaling 0.643 -->
<g id="edge13" class="edge">
<title>key 24569
bias &#45;1.000
h_scaling 0.643&#45;&gt;key 24569
bias &#45;1.000
h_scaling 0.643</title>
<path fill="none" stroke="red" stroke-width="1.88" d="M206.58,-598.77C218.14,-596.89 226.28,-591.79 226.28,-583.48 226.28,-577.76 222.43,-573.56 216.27,-570.89"/>
<polygon fill="red" stroke="red" stroke-width="1.88" points="217.16,-567.5 206.58,-568.18 215.27,-574.24 217.16,-567.5"/>
<text text-anchor="middle" x="240.28" y="-581.28" font-family="Times,serif" font-size="9.00">0.059</text>
</g>
<!-- key 3542
bias &#45;0.654
h_scaling 0.581&#45;&gt;output
bias 0.616
h_scaling 0.531 -->
<g id="edge11" class="edge">
<title>key 3542
bias &#45;0.654
h_scaling 0.581&#45;&gt;output
bias 0.616
h_scaling 0.531</title>
<path fill="none" stroke="blue" stroke-width="0.1" d="M213.19,-127.24C206.87,-175.08 196.59,-242.47 182.64,-300.56 179.54,-313.46 175.67,-327.04 171.64,-340.06"/>
<polygon fill="blue" stroke="blue" stroke-width="0.1" points="168.21,-339.3 168.54,-349.89 174.89,-341.41 168.21,-339.3"/>
</g>
<!-- key 3542
bias &#45;0.654
h_scaling 0.581&#45;&gt;key 24569
bias &#45;1.000
h_scaling 0.643 -->
<g id="edge2" class="edge">
<title>key 3542
bias &#45;0.654
h_scaling 0.581&#45;&gt;key 24569
bias &#45;1.000
h_scaling 0.643</title>
<path fill="none" stroke="red" stroke-width="0.92" d="M232.08,-126.4C244.67,-208.12 258.5,-355.61 220.64,-473.84 214.6,-492.69 204.04,-511.14 192.68,-527.33"/>
<polygon fill="red" stroke="red" stroke-width="0.92" points="189.73,-525.43 186.69,-535.58 195.4,-529.54 189.73,-525.43"/>
<text text-anchor="middle" x="258.64" y="-321.36" font-family="Times,serif" font-size="9.00">0.027</text>
</g>
<!-- key 118359
bias &#45;0.442
h_scaling 0.594&#45;&gt;output
bias 0.616
h_scaling 0.531 -->
<g id="edge15" class="edge">
<title>key 118359
bias &#45;0.442
h_scaling 0.594&#45;&gt;output
bias 0.616
h_scaling 0.531</title>
<path fill="none" stroke="blue" stroke-width="0.1" d="M105.17,-285.24C112.84,-295.7 120.15,-307.09 125.64,-318.56 128.55,-324.64 131.1,-331.15 133.33,-337.77"/>
<polygon fill="blue" stroke="blue" stroke-width="0.1" points="130.05,-339.02 136.36,-347.53 136.73,-336.94 130.05,-339.02"/>
</g>
<!-- key 118359
bias &#45;0.442
h_scaling 0.594&#45;&gt;key 24569
bias &#45;1.000
h_scaling 0.643 -->
<g id="edge14" class="edge">
<title>key 118359
bias &#45;0.442
h_scaling 0.594&#45;&gt;key 24569
bias &#45;1.000
h_scaling 0.643</title>
<path fill="none" stroke="red" stroke-width="0.92" d="M45.47,-298.17C33.92,-347.12 24.83,-417.11 46.64,-473.84 55.49,-496.87 71.73,-518.06 88.48,-535.49"/>
<polygon fill="red" stroke="red" stroke-width="0.92" points="86.14,-538.1 95.67,-542.73 91.11,-533.17 86.14,-538.1"/>
<text text-anchor="middle" x="60.64" y="-408" font-family="Times,serif" font-size="9.00">0.027</text>
</g>
<!-- key 118359
bias &#45;0.442
h_scaling 0.594&#45;&gt;key 3542
bias &#45;0.654
h_scaling 0.581 -->
<g id="edge7" class="edge">
<title>key 118359
bias &#45;0.442
h_scaling 0.594&#45;&gt;key 3542
bias &#45;0.654
h_scaling 0.581</title>
<path fill="none" stroke="red" stroke-width="0.61" d="M106.54,-189.12C126.53,-167.31 150.42,-141.25 171.16,-118.62"/>
<polygon fill="red" stroke="red" stroke-width="0.61" points="173.89,-120.83 178.06,-111.09 168.73,-116.1 173.89,-120.83"/>
<text text-anchor="middle" x="155.64" y="-148.08" font-family="Times,serif" font-size="9.00">0.017</text>
</g>
<!-- key 118359
bias &#45;0.442
h_scaling 0.594&#45;&gt;key 118359
bias &#45;0.442
h_scaling 0.594 -->
<g id="edge8" class="edge">
<title>key 118359
bias &#45;0.442
h_scaling 0.594&#45;&gt;key 118359
bias &#45;0.442
h_scaling 0.594</title>
<path fill="none" stroke="red" stroke-width="0.72" d="M125.58,-252.22C137.14,-250.33 145.28,-245.23 145.28,-236.92 145.28,-231.2 141.43,-227.01 135.27,-224.33"/>
<polygon fill="red" stroke="red" stroke-width="0.72" points="136.16,-220.94 125.58,-221.62 134.27,-227.68 136.16,-220.94"/>
<text text-anchor="middle" x="159.28" y="-234.72" font-family="Times,serif" font-size="9.00">0.021</text>
</g>
</g>
</svg>
