<?xml version="1.0" encoding="UTF-8" standalone="no"?>
<!DOCTYPE svg PUBLIC "-//W3C//DTD SVG 1.1//EN"
 "http://www.w3.org/Graphics/SVG/1.1/DTD/svg11.dtd">
<!-- Generated by graphviz version 2.43.0 (0)
 -->
<!-- Title: %3 Pages: 1 -->
<svg width="421pt" height="883pt"
 viewBox="0.00 0.00 421.28 883.40" xmlns="http://www.w3.org/2000/svg" xmlns:xlink="http://www.w3.org/1999/xlink">
<g id="graph0" class="graph" transform="scale(1 1) rotate(0) translate(4 879.4)">
<title>%3</title>
<polygon fill="white" stroke="transparent" points="-4,4 -4,-879.4 417.28,-879.4 417.28,4 -4,4"/>
<!-- ready -->
<g id="node1" class="node">
<title>ready</title>
<polygon fill="yellow" stroke="black" points="311.14,-875.4 268.14,-875.4 268.14,-857.4 311.14,-857.4 311.14,-875.4"/>
<text text-anchor="middle" x="289.64" y="-864.2" font-family="Times,serif" font-size="9.00">ready</text>
</g>
<!-- key 19954
bias 0.126
h_scaling 0.400 -->
<g id="node4" class="node">
<title>key 19954
bias 0.126
h_scaling 0.400</title>
<ellipse fill="white" stroke="black" cx="63.64" cy="-747.76" rx="63.78" ry="63.78"/>
<text text-anchor="middle" x="63.64" y="-755.56" font-family="Times,serif" font-size="9.00">key 19954</text>
<text text-anchor="middle" x="63.64" y="-745.56" font-family="Times,serif" font-size="9.00">bias 0.126</text>
<text text-anchor="middle" x="63.64" y="-735.56" font-family="Times,serif" font-size="9.00">h_scaling 0.400</text>
</g>
<!-- ready&#45;&gt;key 19954
bias 0.126
h_scaling 0.400 -->
<g id="edge7" class="edge">
<title>ready&#45;&gt;key 19954
bias 0.126
h_scaling 0.400</title>
<path fill="none" stroke="blue" stroke-width="0.1" d="M274.11,-857.38C244.72,-842.21 179.45,-808.53 129.33,-782.66"/>
<polygon fill="blue" stroke="blue" stroke-width="0.1" points="130.65,-779.4 120.16,-777.93 127.44,-785.62 130.65,-779.4"/>
</g>
<!-- key 5145
bias &#45;0.007
h_scaling 0.205 -->
<g id="node6" class="node">
<title>key 5145
bias &#45;0.007
h_scaling 0.205</title>
<ellipse fill="white" stroke="black" cx="260.64" cy="-574.48" rx="63.78" ry="63.78"/>
<text text-anchor="middle" x="260.64" y="-582.28" font-family="Times,serif" font-size="9.00">key 5145</text>
<text text-anchor="middle" x="260.64" y="-572.28" font-family="Times,serif" font-size="9.00">bias &#45;0.007</text>
<text text-anchor="middle" x="260.64" y="-562.28" font-family="Times,serif" font-size="9.00">h_scaling 0.205</text>
</g>
<!-- ready&#45;&gt;key 5145
bias &#45;0.007
h_scaling 0.205 -->
<g id="edge8" class="edge">
<title>ready&#45;&gt;key 5145
bias &#45;0.007
h_scaling 0.205</title>
<path fill="none" stroke="red" stroke-width="0.87" d="M288.83,-857.34C285.85,-827.51 275.23,-721.3 267.91,-648.13"/>
<polygon fill="red" stroke="red" stroke-width="0.87" points="271.38,-647.64 266.9,-638.04 264.41,-648.34 271.38,-647.64"/>
<text text-anchor="middle" x="297.64" y="-745.56" font-family="Times,serif" font-size="9.00">0.026</text>
</g>
<!-- key 3164
bias &#45;0.576
h_scaling 0.909 -->
<g id="node7" class="node">
<title>key 3164
bias &#45;0.576
h_scaling 0.909</title>
<ellipse fill="white" stroke="black" cx="303.64" cy="-401.2" rx="63.78" ry="63.78"/>
<text text-anchor="middle" x="303.64" y="-409" font-family="Times,serif" font-size="9.00">key 3164</text>
<text text-anchor="middle" x="303.64" y="-399" font-family="Times,serif" font-size="9.00">bias &#45;0.576</text>
<text text-anchor="middle" x="303.64" y="-389" font-family="Times,serif" font-size="9.00">h_scaling 0.909</text>
</g>
<!-- ready&#45;&gt;key 3164
bias &#45;0.576
h_scaling 0.909 -->
<g id="edge15" class="edge">
<title>ready&#45;&gt;key 3164
bias &#45;0.576
h_scaling 0.909</title>
<path fill="none" stroke="red" stroke-width="1.02" d="M294.62,-857.33C300.7,-847.07 310.76,-828.61 315.64,-811.4 352.12,-682.64 351.61,-643.45 333.64,-510.84 331.9,-498.01 329.06,-484.56 325.8,-471.67"/>
<polygon fill="red" stroke="red" stroke-width="1.02" points="329.17,-470.71 323.24,-461.93 322.4,-472.5 329.17,-470.71"/>
<text text-anchor="middle" x="358.64" y="-658.92" font-family="Times,serif" font-size="9.00">0.031</text>
</g>
<!-- go -->
<g id="node2" class="node">
<title>go</title>
<polygon fill="green" stroke="black" points="215.64,-875.4 187.64,-875.4 187.64,-857.4 215.64,-857.4 215.64,-875.4"/>
<text text-anchor="middle" x="201.64" y="-864.2" font-family="Times,serif" font-size="9.00">go</text>
</g>
<!-- go&#45;&gt;key 19954
bias 0.126
h_scaling 0.400 -->
<g id="edge10" class="edge">
<title>go&#45;&gt;key 19954
bias 0.126
h_scaling 0.400</title>
<path fill="none" stroke="red" stroke-width="0.54" d="M187.55,-857.64C179.17,-852.79 168.48,-846.19 159.64,-839.4 144.61,-827.84 129.28,-814.3 115.4,-801.25"/>
<polygon fill="red" stroke="red" stroke-width="0.54" points="117.51,-798.43 107.86,-794.07 112.69,-803.5 117.51,-798.43"/>
<text text-anchor="middle" x="173.64" y="-832.2" font-family="Times,serif" font-size="9.00">0.015</text>
</g>
<!-- go&#45;&gt;key 5145
bias &#45;0.007
h_scaling 0.205 -->
<g id="edge5" class="edge">
<title>go&#45;&gt;key 5145
bias &#45;0.007
h_scaling 0.205</title>
<path fill="none" stroke="blue" stroke-width="0.1" d="M207.04,-857.05C210,-852.1 213.5,-845.6 215.64,-839.4 237.2,-776.74 248.7,-702.02 254.66,-648.11"/>
<polygon fill="blue" stroke="blue" stroke-width="0.1" points="258.17,-648.27 255.75,-637.95 251.21,-647.52 258.17,-648.27"/>
</g>
<!-- go&#45;&gt;key 3164
bias &#45;0.576
h_scaling 0.909 -->
<g id="edge4" class="edge">
<title>go&#45;&gt;key 3164
bias &#45;0.576
h_scaling 0.909</title>
<path fill="none" stroke="blue" stroke-width="0.1" d="M200.89,-857.17C196.37,-807.04 173.46,-543.55 187.64,-510.84 188.55,-508.74 219.71,-479.6 249.5,-452.04"/>
<polygon fill="blue" stroke="blue" stroke-width="0.1" points="252.06,-454.44 257.03,-445.08 247.31,-449.3 252.06,-454.44"/>
</g>
<!-- output
bias &#45;0.896
h_scaling 0.091 -->
<g id="node3" class="node">
<title>output
bias &#45;0.896
h_scaling 0.091</title>
<ellipse fill="lightblue" stroke="black" cx="183.64" cy="-227.92" rx="63.78" ry="63.78"/>
<text text-anchor="middle" x="183.64" y="-235.72" font-family="Times,serif" font-size="9.00">output</text>
<text text-anchor="middle" x="183.64" y="-225.72" font-family="Times,serif" font-size="9.00">bias &#45;0.896</text>
<text text-anchor="middle" x="183.64" y="-215.72" font-family="Times,serif" font-size="9.00">h_scaling 0.091</text>
</g>
<!-- key 82003
bias 0.650
h_scaling 0.358 -->
<g id="node5" class="node">
<title>key 82003
bias 0.650
h_scaling 0.358</title>
<ellipse fill="white" stroke="black" cx="84.64" cy="-63.64" rx="63.78" ry="63.78"/>
<text text-anchor="middle" x="84.64" y="-71.44" font-family="Times,serif" font-size="9.00">key 82003</text>
<text text-anchor="middle" x="84.64" y="-61.44" font-family="Times,serif" font-size="9.00">bias 0.650</text>
<text text-anchor="middle" x="84.64" y="-51.44" font-family="Times,serif" font-size="9.00">h_scaling 0.358</text>
</g>
<!-- output
bias &#45;0.896
h_scaling 0.091&#45;&gt;key 82003
bias 0.650
h_scaling 0.358 -->
<g id="edge13" class="edge">
<title>output
bias &#45;0.896
h_scaling 0.091&#45;&gt;key 82003
bias 0.650
h_scaling 0.358</title>
<path fill="none" stroke="blue" stroke-width="0.1" d="M150.67,-172.88C141.74,-158.24 131.99,-142.26 122.8,-127.19"/>
<polygon fill="blue" stroke="blue" stroke-width="0.1" points="125.66,-125.15 117.46,-118.44 119.68,-128.8 125.66,-125.15"/>
</g>
<!-- key 19954
bias 0.126
h_scaling 0.400&#45;&gt;output
bias &#45;0.896
h_scaling 0.091 -->
<g id="edge17" class="edge">
<title>key 19954
bias 0.126
h_scaling 0.400&#45;&gt;output
bias &#45;0.896
h_scaling 0.091</title>
<path fill="none" stroke="blue" stroke-width="0.1" d="M81.24,-686.54C83.12,-679.67 84.96,-672.75 86.64,-666.12 119.1,-537.98 151.23,-387.21 169.15,-300.38"/>
<polygon fill="blue" stroke="blue" stroke-width="0.1" points="172.62,-300.87 171.21,-290.37 165.76,-299.46 172.62,-300.87"/>
</g>
<!-- key 19954
bias 0.126
h_scaling 0.400&#45;&gt;key 19954
bias 0.126
h_scaling 0.400 -->
<g id="edge11" class="edge">
<title>key 19954
bias 0.126
h_scaling 0.400&#45;&gt;key 19954
bias 0.126
h_scaling 0.400</title>
<path fill="none" stroke="red" stroke-width="0.9" d="M125.58,-763.05C137.14,-761.17 145.28,-756.07 145.28,-747.76 145.28,-742.04 141.43,-737.84 135.27,-735.17"/>
<polygon fill="red" stroke="red" stroke-width="0.9" points="136.16,-731.78 125.58,-732.46 134.27,-738.52 136.16,-731.78"/>
<text text-anchor="middle" x="159.28" y="-745.56" font-family="Times,serif" font-size="9.00">0.027</text>
</g>
<!-- key 19954
bias 0.126
h_scaling 0.400&#45;&gt;key 5145
bias &#45;0.007
h_scaling 0.205 -->
<g id="edge6" class="edge">
<title>key 19954
bias 0.126
h_scaling 0.400&#45;&gt;key 5145
bias &#45;0.007
h_scaling 0.205</title>
<path fill="none" stroke="blue" stroke-width="0.1" d="M111.33,-705.29C139.66,-680.67 175.71,-649.32 205.28,-623.6"/>
<polygon fill="blue" stroke="blue" stroke-width="0.1" points="207.8,-626.06 213.05,-616.85 203.21,-620.77 207.8,-626.06"/>
</g>
<!-- key 82003
bias 0.650
h_scaling 0.358&#45;&gt;key 19954
bias 0.126
h_scaling 0.400 -->
<g id="edge12" class="edge">
<title>key 82003
bias 0.650
h_scaling 0.358&#45;&gt;key 19954
bias 0.126
h_scaling 0.400</title>
<path fill="none" stroke="blue" stroke-width="0.1" d="M77.87,-126.98C75.15,-157.13 72.64,-193.87 72.64,-226.92 72.64,-575.48 72.64,-575.48 72.64,-575.48 72.64,-607.85 71.02,-643.61 69.15,-674.05"/>
<polygon fill="blue" stroke="blue" stroke-width="0.1" points="65.65,-673.96 68.51,-684.16 72.63,-674.4 65.65,-673.96"/>
</g>
<!-- key 82003
bias 0.650
h_scaling 0.358&#45;&gt;key 82003
bias 0.650
h_scaling 0.358 -->
<g id="edge16" class="edge">
<title>key 82003
bias 0.650
h_scaling 0.358&#45;&gt;key 82003
bias 0.650
h_scaling 0.358</title>
<path fill="none" stroke="red" stroke-width="1.65" d="M146.93,-78.17C158.3,-76.33 166.28,-71.49 166.28,-63.64 166.28,-58.37 162.68,-54.45 156.87,-51.89"/>
<polygon fill="red" stroke="red" stroke-width="1.65" points="157.5,-48.43 146.93,-49.11 155.62,-55.18 157.5,-48.43"/>
<text text-anchor="middle" x="180.28" y="-61.44" font-family="Times,serif" font-size="9.00">0.052</text>
</g>
<!-- key 5145
bias &#45;0.007
h_scaling 0.205&#45;&gt;output
bias &#45;0.896
h_scaling 0.091 -->
<g id="edge14" class="edge">
<title>key 5145
bias &#45;0.007
h_scaling 0.205&#45;&gt;output
bias &#45;0.896
h_scaling 0.091</title>
<path fill="none" stroke="red" stroke-width="0.83" d="M226.7,-520.36C217.32,-503.26 208.21,-483.81 202.64,-464.84 187.07,-411.76 182.62,-349.26 181.9,-301.94"/>
<polygon fill="red" stroke="red" stroke-width="0.83" points="185.4,-301.74 181.8,-291.77 178.4,-301.81 185.4,-301.74"/>
<text text-anchor="middle" x="216.64" y="-399" font-family="Times,serif" font-size="9.00">0.024</text>
</g>
<!-- key 5145
bias &#45;0.007
h_scaling 0.205&#45;&gt;key 3164
bias &#45;0.576
h_scaling 0.909 -->
<g id="edge3" class="edge">
<title>key 5145
bias &#45;0.007
h_scaling 0.205&#45;&gt;key 3164
bias &#45;0.576
h_scaling 0.909</title>
<path fill="none" stroke="red" stroke-width="1.97" d="M279.14,-513.3C281.08,-506.42 282.95,-499.49 284.64,-492.84 286.19,-486.7 287.72,-480.31 289.19,-473.88"/>
<polygon fill="red" stroke="red" stroke-width="1.97" points="292.68,-474.31 291.44,-463.79 285.85,-472.78 292.68,-474.31"/>
<text text-anchor="middle" x="300.64" y="-485.64" font-family="Times,serif" font-size="9.00">0.062</text>
</g>
<!-- key 3164
bias &#45;0.576
h_scaling 0.909&#45;&gt;output
bias &#45;0.896
h_scaling 0.091 -->
<g id="edge1" class="edge">
<title>key 3164
bias &#45;0.576
h_scaling 0.909&#45;&gt;output
bias &#45;0.896
h_scaling 0.091</title>
<path fill="none" stroke="red" stroke-width="0.81" d="M267.31,-348.34C254.21,-329.65 239.32,-308.39 225.76,-289.04"/>
<polygon fill="red" stroke="red" stroke-width="0.81" points="228.45,-286.78 219.85,-280.6 222.72,-290.8 228.45,-286.78"/>
<text text-anchor="middle" x="257.64" y="-312.36" font-family="Times,serif" font-size="9.00">0.024</text>
</g>
<!-- key 3164
bias &#45;0.576
h_scaling 0.909&#45;&gt;key 5145
bias &#45;0.007
h_scaling 0.205 -->
<g id="edge2" class="edge">
<title>key 3164
bias &#45;0.576
h_scaling 0.909&#45;&gt;key 5145
bias &#45;0.007
h_scaling 0.205</title>
<path fill="none" stroke="red" stroke-width="1.97" d="M268.09,-454.23C263.37,-463.41 259.26,-473.14 256.64,-482.84 255.09,-488.59 254.08,-494.61 253.49,-500.71"/>
<polygon fill="red" stroke="red" stroke-width="1.97" points="249.98,-500.81 252.87,-511 256.97,-501.23 249.98,-500.81"/>
<text text-anchor="middle" x="270.64" y="-485.64" font-family="Times,serif" font-size="9.00">0.062</text>
</g>
<!-- key 3164
bias &#45;0.576
h_scaling 0.909&#45;&gt;key 3164
bias &#45;0.576
h_scaling 0.909 -->
<g id="edge9" class="edge">
<title>key 3164
bias &#45;0.576
h_scaling 0.909&#45;&gt;key 3164
bias &#45;0.576
h_scaling 0.909</title>
<path fill="none" stroke="red" stroke-width="2.58" d="M365.58,-416.5C377.14,-414.61 385.28,-409.51 385.28,-401.2 385.28,-395.48 381.43,-391.29 375.27,-388.61"/>
<polygon fill="red" stroke="red" stroke-width="2.58" points="376.16,-385.22 365.58,-385.9 374.27,-391.96 376.16,-385.22"/>
<text text-anchor="middle" x="399.28" y="-399" font-family="Times,serif" font-size="9.00">0.083</text>
</g>
</g>
</svg>
