<?xml version="1.0" encoding="UTF-8" standalone="no"?>
<!DOCTYPE svg PUBLIC "-//W3C//DTD SVG 1.1//EN"
 "http://www.w3.org/Graphics/SVG/1.1/DTD/svg11.dtd">
<!-- Generated by graphviz version 2.43.0 (0)
 -->
<!-- Title: %3 Pages: 1 -->
<svg width="544pt" height="874pt"
 viewBox="0.00 0.00 543.64 874.40" xmlns="http://www.w3.org/2000/svg" xmlns:xlink="http://www.w3.org/1999/xlink">
<g id="graph0" class="graph" transform="scale(1 1) rotate(0) translate(4 870.4)">
<title>%3</title>
<polygon fill="white" stroke="transparent" points="-4,4 -4,-870.4 539.64,-870.4 539.64,4 -4,4"/>
<!-- ready -->
<g id="node1" class="node">
<title>ready</title>
<polygon fill="yellow" stroke="black" points="67.5,-866.4 24.5,-866.4 24.5,-848.4 67.5,-848.4 67.5,-866.4"/>
<text text-anchor="middle" x="46" y="-855.2" font-family="Times,serif" font-size="9.00">ready</text>
</g>
<!-- key 25067
bias 0.408
h_scaling 0.372 -->
<g id="node4" class="node">
<title>key 25067
bias 0.408
h_scaling 0.372</title>
<ellipse fill="white" stroke="black" cx="150" cy="-565.48" rx="63.78" ry="63.78"/>
<text text-anchor="middle" x="150" y="-573.28" font-family="Times,serif" font-size="9.00">key 25067</text>
<text text-anchor="middle" x="150" y="-563.28" font-family="Times,serif" font-size="9.00">bias 0.408</text>
<text text-anchor="middle" x="150" y="-553.28" font-family="Times,serif" font-size="9.00">h_scaling 0.372</text>
</g>
<!-- ready&#45;&gt;key 25067
bias 0.408
h_scaling 0.372 -->
<g id="edge13" class="edge">
<title>ready&#45;&gt;key 25067
bias 0.408
h_scaling 0.372</title>
<path fill="none" stroke="red" stroke-width="1.63" d="M47.89,-848.3C54.01,-822.56 74.29,-740.44 99,-675.12 104.38,-660.89 110.84,-645.94 117.33,-631.84"/>
<polygon fill="red" stroke="red" stroke-width="1.63" points="120.53,-633.25 121.58,-622.71 114.19,-630.3 120.53,-633.25"/>
<text text-anchor="middle" x="113" y="-736.56" font-family="Times,serif" font-size="9.00">0.051</text>
</g>
<!-- key 7694
bias 1.000
h_scaling 0.438 -->
<g id="node5" class="node">
<title>key 7694
bias 1.000
h_scaling 0.438</title>
<ellipse fill="white" stroke="black" cx="123" cy="-63.64" rx="63.78" ry="63.78"/>
<text text-anchor="middle" x="123" y="-71.44" font-family="Times,serif" font-size="9.00">key 7694</text>
<text text-anchor="middle" x="123" y="-61.44" font-family="Times,serif" font-size="9.00">bias 1.000</text>
<text text-anchor="middle" x="123" y="-51.44" font-family="Times,serif" font-size="9.00">h_scaling 0.438</text>
</g>
<!-- ready&#45;&gt;key 7694
bias 1.000
h_scaling 0.438 -->
<g id="edge17" class="edge">
<title>ready&#45;&gt;key 7694
bias 1.000
h_scaling 0.438</title>
<path fill="none" stroke="blue" stroke-width="0.1" d="M40.36,-848.34C28.08,-829.99 0,-783.29 0,-739.76 0,-739.76 0,-739.76 0,-226.92 0,-180.28 32.66,-138.62 64.33,-109.18"/>
<polygon fill="blue" stroke="blue" stroke-width="0.1" points="66.83,-111.64 71.91,-102.34 62.14,-106.45 66.83,-111.64"/>
</g>
<!-- key 2865
bias &#45;0.491
h_scaling 0.785 -->
<g id="node7" class="node">
<title>key 2865
bias &#45;0.491
h_scaling 0.785</title>
<ellipse fill="white" stroke="black" cx="426" cy="-738.76" rx="63.78" ry="63.78"/>
<text text-anchor="middle" x="426" y="-746.56" font-family="Times,serif" font-size="9.00">key 2865</text>
<text text-anchor="middle" x="426" y="-736.56" font-family="Times,serif" font-size="9.00">bias &#45;0.491</text>
<text text-anchor="middle" x="426" y="-726.56" font-family="Times,serif" font-size="9.00">h_scaling 0.785</text>
</g>
<!-- ready&#45;&gt;key 2865
bias &#45;0.491
h_scaling 0.785 -->
<g id="edge1" class="edge">
<title>ready&#45;&gt;key 2865
bias &#45;0.491
h_scaling 0.785</title>
<path fill="none" stroke="red" stroke-width="0.66" d="M67.52,-849.79C122.07,-833.05 267.69,-788.35 355.64,-761.35"/>
<polygon fill="red" stroke="red" stroke-width="0.66" points="356.75,-764.67 365.28,-758.39 354.69,-757.98 356.75,-764.67"/>
<text text-anchor="middle" x="173" y="-823.2" font-family="Times,serif" font-size="9.00">0.019</text>
</g>
<!-- go -->
<g id="node2" class="node">
<title>go</title>
<polygon fill="green" stroke="black" points="164,-747.76 136,-747.76 136,-729.76 164,-729.76 164,-747.76"/>
<text text-anchor="middle" x="150" y="-736.56" font-family="Times,serif" font-size="9.00">go</text>
</g>
<!-- go&#45;&gt;key 25067
bias 0.408
h_scaling 0.372 -->
<g id="edge16" class="edge">
<title>go&#45;&gt;key 25067
bias 0.408
h_scaling 0.372</title>
<path fill="none" stroke="blue" stroke-width="0.1" d="M150,-729.5C150,-713.07 150,-674.86 150,-639.56"/>
<polygon fill="blue" stroke="blue" stroke-width="0.1" points="153.5,-639.21 150,-629.21 146.5,-639.21 153.5,-639.21"/>
</g>
<!-- go&#45;&gt;key 7694
bias 1.000
h_scaling 0.438 -->
<g id="edge4" class="edge">
<title>go&#45;&gt;key 7694
bias 1.000
h_scaling 0.438</title>
<path fill="none" stroke="red" stroke-width="0.67" d="M149,-729.42C147.15,-716.78 142.33,-692.42 131,-675.12 113.73,-648.74 92,-656.85 77,-629.12 45.18,-570.29 58,-546.72 58,-479.84 58,-479.84 58,-479.84 58,-226.92 58,-192.41 70.82,-156.55 85.07,-127.34"/>
<polygon fill="red" stroke="red" stroke-width="0.67" points="88.36,-128.6 89.74,-118.1 82.11,-125.45 88.36,-128.6"/>
<text text-anchor="middle" x="72" y="-390" font-family="Times,serif" font-size="9.00">0.019</text>
</g>
<!-- key 31733
bias &#45;0.363
h_scaling 0.245 -->
<g id="node8" class="node">
<title>key 31733
bias &#45;0.363
h_scaling 0.245</title>
<ellipse fill="white" stroke="black" cx="304" cy="-227.92" rx="63.78" ry="63.78"/>
<text text-anchor="middle" x="304" y="-235.72" font-family="Times,serif" font-size="9.00">key 31733</text>
<text text-anchor="middle" x="304" y="-225.72" font-family="Times,serif" font-size="9.00">bias &#45;0.363</text>
<text text-anchor="middle" x="304" y="-215.72" font-family="Times,serif" font-size="9.00">h_scaling 0.245</text>
</g>
<!-- go&#45;&gt;key 31733
bias &#45;0.363
h_scaling 0.245 -->
<g id="edge8" class="edge">
<title>go&#45;&gt;key 31733
bias &#45;0.363
h_scaling 0.245</title>
<path fill="none" stroke="blue" stroke-width="0.1" d="M163.81,-729.64C189.29,-713.85 243.46,-676.37 269,-629.12 298.58,-574.4 303.93,-401.64 304.46,-301.9"/>
<polygon fill="blue" stroke="blue" stroke-width="0.1" points="307.96,-301.9 304.49,-291.89 300.96,-301.88 307.96,-301.9"/>
</g>
<!-- output
bias &#45;0.351
h_scaling 0.173 -->
<g id="node3" class="node">
<title>output
bias &#45;0.351
h_scaling 0.173</title>
<ellipse fill="lightblue" stroke="black" cx="224" cy="-392.2" rx="63.78" ry="63.78"/>
<text text-anchor="middle" x="224" y="-400" font-family="Times,serif" font-size="9.00">output</text>
<text text-anchor="middle" x="224" y="-390" font-family="Times,serif" font-size="9.00">bias &#45;0.351</text>
<text text-anchor="middle" x="224" y="-380" font-family="Times,serif" font-size="9.00">h_scaling 0.173</text>
</g>
<!-- output
bias &#45;0.351
h_scaling 0.173&#45;&gt;key 31733
bias &#45;0.363
h_scaling 0.245 -->
<g id="edge12" class="edge">
<title>output
bias &#45;0.351
h_scaling 0.173&#45;&gt;key 31733
bias &#45;0.363
h_scaling 0.245</title>
<path fill="none" stroke="blue" stroke-width="0.1" d="M251.76,-334.9C258.17,-321.88 265.05,-307.92 271.65,-294.54"/>
<polygon fill="blue" stroke="blue" stroke-width="0.1" points="274.88,-295.91 276.16,-285.4 268.6,-292.82 274.88,-295.91"/>
</g>
<!-- key 25067
bias 0.408
h_scaling 0.372&#45;&gt;output
bias &#45;0.351
h_scaling 0.173 -->
<g id="edge11" class="edge">
<title>key 25067
bias 0.408
h_scaling 0.372&#45;&gt;output
bias &#45;0.351
h_scaling 0.173</title>
<path fill="none" stroke="red" stroke-width="1.06" d="M175.05,-506.49C181.48,-491.62 188.44,-475.51 195.04,-460.22"/>
<polygon fill="red" stroke="red" stroke-width="1.06" points="198.35,-461.4 199.1,-450.83 191.92,-458.63 198.35,-461.4"/>
<text text-anchor="middle" x="201" y="-476.64" font-family="Times,serif" font-size="9.00">0.032</text>
</g>
<!-- key 25067
bias 0.408
h_scaling 0.372&#45;&gt;key 25067
bias 0.408
h_scaling 0.372 -->
<g id="edge15" class="edge">
<title>key 25067
bias 0.408
h_scaling 0.372&#45;&gt;key 25067
bias 0.408
h_scaling 0.372</title>
<path fill="none" stroke="red" stroke-width="1.35" d="M211.94,-580.77C223.5,-578.89 231.64,-573.79 231.64,-565.48 231.64,-559.76 227.79,-555.56 221.63,-552.89"/>
<polygon fill="red" stroke="red" stroke-width="1.35" points="222.52,-549.5 211.94,-550.18 220.63,-556.24 222.52,-549.5"/>
<text text-anchor="middle" x="245.64" y="-563.28" font-family="Times,serif" font-size="9.00">0.042</text>
</g>
<!-- key 25067
bias 0.408
h_scaling 0.372&#45;&gt;key 7694
bias 1.000
h_scaling 0.438 -->
<g id="edge5" class="edge">
<title>key 25067
bias 0.408
h_scaling 0.372&#45;&gt;key 7694
bias 1.000
h_scaling 0.438</title>
<path fill="none" stroke="blue" stroke-width="0.1" d="M141.99,-502.18C134.28,-409.55 124.8,-235.87 122,-137.48"/>
<polygon fill="blue" stroke="blue" stroke-width="0.1" points="125.5,-137.23 121.73,-127.32 118.5,-137.41 125.5,-137.23"/>
</g>
<!-- key 7694
bias 1.000
h_scaling 0.438&#45;&gt;output
bias &#45;0.351
h_scaling 0.173 -->
<g id="edge3" class="edge">
<title>key 7694
bias 1.000
h_scaling 0.438&#45;&gt;output
bias &#45;0.351
h_scaling 0.173</title>
<path fill="none" stroke="blue" stroke-width="0.1" d="M141.58,-124.71C158.77,-180.29 184.32,-262.91 202.41,-321.4"/>
<polygon fill="blue" stroke="blue" stroke-width="0.1" points="199.18,-322.78 205.48,-331.3 205.86,-320.71 199.18,-322.78"/>
</g>
<!-- key 7694
bias 1.000
h_scaling 0.438&#45;&gt;key 25067
bias 0.408
h_scaling 0.372 -->
<g id="edge10" class="edge">
<title>key 7694
bias 1.000
h_scaling 0.438&#45;&gt;key 25067
bias 0.408
h_scaling 0.372</title>
<path fill="none" stroke="blue" stroke-width="0.1" d="M131,-126.79C138.71,-219.35 148.19,-393.06 150.99,-491.51"/>
<polygon fill="blue" stroke="blue" stroke-width="0.1" points="147.5,-491.78 151.27,-501.68 154.5,-491.59 147.5,-491.78"/>
</g>
<!-- key 194415
bias &#45;0.477
h_scaling 0.692 -->
<g id="node6" class="node">
<title>key 194415
bias &#45;0.477
h_scaling 0.692</title>
<ellipse fill="white" stroke="black" cx="380" cy="-565.48" rx="63.78" ry="63.78"/>
<text text-anchor="middle" x="380" y="-573.28" font-family="Times,serif" font-size="9.00">key 194415</text>
<text text-anchor="middle" x="380" y="-563.28" font-family="Times,serif" font-size="9.00">bias &#45;0.477</text>
<text text-anchor="middle" x="380" y="-553.28" font-family="Times,serif" font-size="9.00">h_scaling 0.692</text>
</g>
<!-- key 194415
bias &#45;0.477
h_scaling 0.692&#45;&gt;output
bias &#45;0.351
h_scaling 0.173 -->
<g id="edge19" class="edge">
<title>key 194415
bias &#45;0.477
h_scaling 0.692&#45;&gt;output
bias &#45;0.351
h_scaling 0.173</title>
<path fill="none" stroke="red" stroke-width="1.08" d="M337.37,-517.67C317.6,-495.96 293.97,-470.02 273.42,-447.46"/>
<polygon fill="red" stroke="red" stroke-width="1.08" points="275.9,-444.98 266.58,-439.94 270.72,-449.69 275.9,-444.98"/>
<text text-anchor="middle" x="316" y="-476.64" font-family="Times,serif" font-size="9.00">0.033</text>
</g>
<!-- key 2865
bias &#45;0.491
h_scaling 0.785&#45;&gt;key 7694
bias 1.000
h_scaling 0.438 -->
<g id="edge2" class="edge">
<title>key 2865
bias &#45;0.491
h_scaling 0.785&#45;&gt;key 7694
bias 1.000
h_scaling 0.438</title>
<path fill="none" stroke="blue" stroke-width="0.1" d="M466.85,-689.46C490.25,-656.87 515,-611.72 515,-566.48 515,-566.48 515,-566.48 515,-226.92 515,-158.55 308.85,-104 195.54,-79.18"/>
<polygon fill="blue" stroke="blue" stroke-width="0.1" points="196.06,-75.71 185.55,-77.01 194.58,-82.55 196.06,-75.71"/>
</g>
<!-- key 2865
bias &#45;0.491
h_scaling 0.785&#45;&gt;key 194415
bias &#45;0.477
h_scaling 0.692 -->
<g id="edge18" class="edge">
<title>key 2865
bias &#45;0.491
h_scaling 0.785&#45;&gt;key 194415
bias &#45;0.477
h_scaling 0.692</title>
<path fill="none" stroke="red" stroke-width="0.4" d="M409.65,-676.89C406.2,-664.02 402.52,-650.33 398.97,-637.13"/>
<polygon fill="red" stroke="red" stroke-width="0.4" points="402.27,-635.9 396.29,-627.15 395.51,-637.72 402.27,-635.9"/>
<text text-anchor="middle" x="417" y="-649.92" font-family="Times,serif" font-size="9.00">0.010</text>
</g>
<!-- key 2865
bias &#45;0.491
h_scaling 0.785&#45;&gt;key 2865
bias &#45;0.491
h_scaling 0.785 -->
<g id="edge14" class="edge">
<title>key 2865
bias &#45;0.491
h_scaling 0.785&#45;&gt;key 2865
bias &#45;0.491
h_scaling 0.785</title>
<path fill="none" stroke="red" stroke-width="0.52" d="M487.94,-754.05C499.5,-752.17 507.64,-747.07 507.64,-738.76 507.64,-733.04 503.79,-728.84 497.63,-726.17"/>
<polygon fill="red" stroke="red" stroke-width="0.52" points="498.52,-722.78 487.94,-723.46 496.63,-729.52 498.52,-722.78"/>
<text text-anchor="middle" x="521.64" y="-736.56" font-family="Times,serif" font-size="9.00">0.014</text>
</g>
<!-- key 2865
bias &#45;0.491
h_scaling 0.785&#45;&gt;key 31733
bias &#45;0.363
h_scaling 0.245 -->
<g id="edge6" class="edge">
<title>key 2865
bias &#45;0.491
h_scaling 0.785&#45;&gt;key 31733
bias &#45;0.363
h_scaling 0.245</title>
<path fill="none" stroke="red" stroke-width="1.53" d="M444.67,-677.8C456.86,-629.63 467.99,-560.56 453,-501.84 432.66,-422.15 383.76,-340.65 347.5,-287.72"/>
<polygon fill="red" stroke="red" stroke-width="1.53" points="350.36,-285.71 341.79,-279.47 344.6,-289.69 350.36,-285.71"/>
<text text-anchor="middle" x="461" y="-476.64" font-family="Times,serif" font-size="9.00">0.048</text>
</g>
<!-- key 31733
bias &#45;0.363
h_scaling 0.245&#45;&gt;key 7694
bias 1.000
h_scaling 0.438 -->
<g id="edge7" class="edge">
<title>key 31733
bias &#45;0.363
h_scaling 0.245&#45;&gt;key 7694
bias 1.000
h_scaling 0.438</title>
<path fill="none" stroke="blue" stroke-width="0.1" d="M256.92,-184.71C232.71,-163 203.07,-136.43 177.84,-113.81"/>
<polygon fill="blue" stroke="blue" stroke-width="0.1" points="179.94,-110.99 170.16,-106.92 175.27,-116.2 179.94,-110.99"/>
</g>
<!-- key 31733
bias &#45;0.363
h_scaling 0.245&#45;&gt;key 31733
bias &#45;0.363
h_scaling 0.245 -->
<g id="edge9" class="edge">
<title>key 31733
bias &#45;0.363
h_scaling 0.245&#45;&gt;key 31733
bias &#45;0.363
h_scaling 0.245</title>
<path fill="none" stroke="red" stroke-width="2.31" d="M366.29,-242.45C377.66,-240.61 385.64,-235.77 385.64,-227.92 385.64,-222.65 382.04,-218.73 376.23,-216.17"/>
<polygon fill="red" stroke="red" stroke-width="2.31" points="376.87,-212.71 366.29,-213.39 374.98,-219.45 376.87,-212.71"/>
<text text-anchor="middle" x="399.64" y="-225.72" font-family="Times,serif" font-size="9.00">0.074</text>
</g>
</g>
</svg>
