<?xml version="1.0" encoding="UTF-8" standalone="no"?>
<!DOCTYPE svg PUBLIC "-//W3C//DTD SVG 1.1//EN"
 "http://www.w3.org/Graphics/SVG/1.1/DTD/svg11.dtd">
<!-- Generated by graphviz version 2.43.0 (0)
 -->
<!-- Title: %3 Pages: 1 -->
<svg width="278pt" height="546pt"
 viewBox="0.00 0.00 278.09 545.84" xmlns="http://www.w3.org/2000/svg" xmlns:xlink="http://www.w3.org/1999/xlink">
<g id="graph0" class="graph" transform="scale(1 1) rotate(0) translate(4 541.84)">
<title>%3</title>
<polygon fill="white" stroke="transparent" points="-4,4 -4,-541.84 274.09,-541.84 274.09,4 -4,4"/>
<!-- ready -->
<g id="node1" class="node">
<title>ready</title>
<polygon fill="yellow" stroke="black" points="99.95,-537.84 56.95,-537.84 56.95,-519.84 99.95,-519.84 99.95,-537.84"/>
<text text-anchor="middle" x="78.45" y="-526.64" font-family="Times,serif" font-size="9.00">ready</text>
</g>
<!-- key 3724
bias &#45;0.964
h_scaling 0.429 -->
<g id="node4" class="node">
<title>key 3724
bias &#45;0.964
h_scaling 0.429</title>
<ellipse fill="white" stroke="black" cx="115.45" cy="-410.2" rx="63.78" ry="63.78"/>
<text text-anchor="middle" x="115.45" y="-418" font-family="Times,serif" font-size="9.00">key 3724</text>
<text text-anchor="middle" x="115.45" y="-408" font-family="Times,serif" font-size="9.00">bias &#45;0.964</text>
<text text-anchor="middle" x="115.45" y="-398" font-family="Times,serif" font-size="9.00">h_scaling 0.429</text>
</g>
<!-- ready&#45;&gt;key 3724
bias &#45;0.964
h_scaling 0.429 -->
<g id="edge10" class="edge">
<title>ready&#45;&gt;key 3724
bias &#45;0.964
h_scaling 0.429</title>
<path fill="none" stroke="blue" stroke-width="0.8" d="M81,-519.82C83.73,-511.21 88.35,-496.63 93.34,-480.9"/>
<polygon fill="blue" stroke="blue" stroke-width="0.8" points="96.79,-481.59 96.48,-471 90.12,-479.48 96.79,-481.59"/>
<text text-anchor="middle" x="104.95" y="-494.64" font-family="Times,serif" font-size="9.00">&#45;0.233</text>
</g>
<!-- key 9967
bias &#45;0.547
h_scaling 0.839 -->
<g id="node5" class="node">
<title>key 9967
bias &#45;0.547
h_scaling 0.839</title>
<ellipse fill="white" stroke="black" cx="160.45" cy="-63.64" rx="63.78" ry="63.78"/>
<text text-anchor="middle" x="160.45" y="-71.44" font-family="Times,serif" font-size="9.00">key 9967</text>
<text text-anchor="middle" x="160.45" y="-61.44" font-family="Times,serif" font-size="9.00">bias &#45;0.547</text>
<text text-anchor="middle" x="160.45" y="-51.44" font-family="Times,serif" font-size="9.00">h_scaling 0.839</text>
</g>
<!-- ready&#45;&gt;key 9967
bias &#45;0.547
h_scaling 0.839 -->
<g id="edge8" class="edge">
<title>ready&#45;&gt;key 9967
bias &#45;0.547
h_scaling 0.839</title>
<path fill="none" stroke="blue" stroke-width="0.92" d="M71.03,-519.81C62.38,-509.87 48.48,-492.02 42.45,-473.84 0.42,-346.98 -22.45,-294.67 33.45,-173.28 46.87,-144.16 72.36,-119.93 97.01,-101.8"/>
<polygon fill="blue" stroke="blue" stroke-width="0.92" points="99.2,-104.54 105.32,-95.89 95.15,-98.84 99.2,-104.54"/>
<text text-anchor="middle" x="17.95" y="-321.36" font-family="Times,serif" font-size="9.00">&#45;0.273</text>
</g>
<!-- go -->
<g id="node2" class="node">
<title>go</title>
<polygon fill="green" stroke="black" points="165.45,-537.84 137.45,-537.84 137.45,-519.84 165.45,-519.84 165.45,-537.84"/>
<text text-anchor="middle" x="151.45" y="-526.64" font-family="Times,serif" font-size="9.00">go</text>
</g>
<!-- go&#45;&gt;key 3724
bias &#45;0.964
h_scaling 0.429 -->
<g id="edge2" class="edge">
<title>go&#45;&gt;key 3724
bias &#45;0.964
h_scaling 0.429</title>
<path fill="none" stroke="red" stroke-width="3.1" d="M148.98,-519.82C146.33,-511.25 141.87,-496.78 137.04,-481.14"/>
<polygon fill="red" stroke="red" stroke-width="3.1" points="140.29,-479.81 134,-471.29 133.6,-481.88 140.29,-479.81"/>
<text text-anchor="middle" x="157.45" y="-494.64" font-family="Times,serif" font-size="9.00">1.000</text>
</g>
<!-- go&#45;&gt;key 9967
bias &#45;0.547
h_scaling 0.839 -->
<g id="edge3" class="edge">
<title>go&#45;&gt;key 9967
bias &#45;0.547
h_scaling 0.839</title>
<path fill="none" stroke="red" stroke-width="1.27" d="M165.48,-523.46C185.05,-516.51 219.78,-500.89 234.45,-473.84 252.46,-440.64 221.82,-177.83 220.45,-173.28 215.64,-157.31 208.25,-141.06 200.28,-126.16"/>
<polygon fill="red" stroke="red" stroke-width="1.27" points="203.16,-124.13 195.26,-117.07 197.03,-127.52 203.16,-124.13"/>
<text text-anchor="middle" x="249.45" y="-321.36" font-family="Times,serif" font-size="9.00">0.389</text>
</g>
<!-- output
bias 0.673
h_scaling 0.828 -->
<g id="node3" class="node">
<title>output
bias 0.673
h_scaling 0.828</title>
<ellipse fill="lightblue" stroke="black" cx="106.45" cy="-236.92" rx="63.78" ry="63.78"/>
<text text-anchor="middle" x="106.45" y="-244.72" font-family="Times,serif" font-size="9.00">output</text>
<text text-anchor="middle" x="106.45" y="-234.72" font-family="Times,serif" font-size="9.00">bias 0.673</text>
<text text-anchor="middle" x="106.45" y="-224.72" font-family="Times,serif" font-size="9.00">h_scaling 0.828</text>
</g>
<!-- output
bias 0.673
h_scaling 0.828&#45;&gt;key 9967
bias &#45;0.547
h_scaling 0.839 -->
<g id="edge9" class="edge">
<title>output
bias 0.673
h_scaling 0.828&#45;&gt;key 9967
bias &#45;0.547
h_scaling 0.839</title>
<path fill="none" stroke="red" stroke-width="0.6" d="M130.67,-177.69C133.45,-170.2 136.12,-162.6 138.45,-155.28 140.46,-148.95 142.4,-142.33 144.22,-135.67"/>
<polygon fill="red" stroke="red" stroke-width="0.6" points="147.63,-136.47 146.82,-125.91 140.86,-134.67 147.63,-136.47"/>
<text text-anchor="middle" x="155.45" y="-148.08" font-family="Times,serif" font-size="9.00">0.166</text>
</g>
<!-- key 3724
bias &#45;0.964
h_scaling 0.429&#45;&gt;output
bias 0.673
h_scaling 0.828 -->
<g id="edge1" class="edge">
<title>key 3724
bias &#45;0.964
h_scaling 0.429&#45;&gt;output
bias 0.673
h_scaling 0.828</title>
<path fill="none" stroke="blue" stroke-width="3.05" d="M112.15,-346.39C111.55,-334.87 110.91,-322.76 110.29,-310.97"/>
<polygon fill="blue" stroke="blue" stroke-width="3.05" points="113.77,-310.52 109.75,-300.72 106.78,-310.89 113.77,-310.52"/>
<text text-anchor="middle" x="126.95" y="-321.36" font-family="Times,serif" font-size="9.00">&#45;0.983</text>
</g>
<!-- key 3724
bias &#45;0.964
h_scaling 0.429&#45;&gt;key 3724
bias &#45;0.964
h_scaling 0.429 -->
<g id="edge5" class="edge">
<title>key 3724
bias &#45;0.964
h_scaling 0.429&#45;&gt;key 3724
bias &#45;0.964
h_scaling 0.429</title>
<path fill="none" stroke="red" stroke-width="2.6" d="M177.4,-425.5C188.95,-423.61 197.09,-418.51 197.09,-410.2 197.09,-404.48 193.24,-400.29 187.08,-397.61"/>
<polygon fill="red" stroke="red" stroke-width="2.6" points="187.97,-394.22 177.4,-394.9 186.08,-400.96 187.97,-394.22"/>
<text text-anchor="middle" x="211.09" y="-408" font-family="Times,serif" font-size="9.00">0.834</text>
</g>
<!-- key 9967
bias &#45;0.547
h_scaling 0.839&#45;&gt;output
bias 0.673
h_scaling 0.828 -->
<g id="edge7" class="edge">
<title>key 9967
bias &#45;0.547
h_scaling 0.839&#45;&gt;output
bias 0.673
h_scaling 0.828</title>
<path fill="none" stroke="blue" stroke-width="3.01" d="M121.54,-114.49C115.77,-124.22 110.68,-134.7 107.45,-145.28 105.72,-150.97 104.47,-156.95 103.61,-163.02"/>
<polygon fill="blue" stroke="blue" stroke-width="3.01" points="100.1,-162.96 102.5,-173.28 107.05,-163.71 100.1,-162.96"/>
<text text-anchor="middle" x="122.95" y="-148.08" font-family="Times,serif" font-size="9.00">&#45;0.971</text>
</g>
<!-- key 9967
bias &#45;0.547
h_scaling 0.839&#45;&gt;key 3724
bias &#45;0.964
h_scaling 0.429 -->
<g id="edge4" class="edge">
<title>key 9967
bias &#45;0.547
h_scaling 0.839&#45;&gt;key 3724
bias &#45;0.964
h_scaling 0.429</title>
<path fill="none" stroke="red" stroke-width="3.04" d="M176.6,-125.33C186.78,-173.61 195.29,-242.48 179.45,-300.56 174.86,-317.42 166.9,-334.33 158.13,-349.62"/>
<polygon fill="red" stroke="red" stroke-width="3.04" points="155,-348.04 152.89,-358.42 161.02,-351.62 155,-348.04"/>
<text text-anchor="middle" x="202.45" y="-234.72" font-family="Times,serif" font-size="9.00">0.978</text>
</g>
<!-- key 9967
bias &#45;0.547
h_scaling 0.839&#45;&gt;key 9967
bias &#45;0.547
h_scaling 0.839 -->
<g id="edge6" class="edge">
<title>key 9967
bias &#45;0.547
h_scaling 0.839&#45;&gt;key 9967
bias &#45;0.547
h_scaling 0.839</title>
<path fill="none" stroke="red" stroke-width="3.1" d="M222.4,-78.94C233.95,-77.05 242.09,-71.95 242.09,-63.64 242.09,-57.92 238.24,-53.73 232.08,-51.05"/>
<polygon fill="red" stroke="red" stroke-width="3.1" points="232.97,-47.66 222.4,-48.34 231.08,-54.4 232.97,-47.66"/>
<text text-anchor="middle" x="256.09" y="-61.44" font-family="Times,serif" font-size="9.00">1.000</text>
</g>
</g>
</svg>
