<?xml version="1.0" encoding="UTF-8" standalone="no"?>
<!DOCTYPE svg PUBLIC "-//W3C//DTD SVG 1.1//EN"
 "http://www.w3.org/Graphics/SVG/1.1/DTD/svg11.dtd">
<!-- Generated by graphviz version 2.43.0 (0)
 -->
<!-- Title: %3 Pages: 1 -->
<svg width="345pt" height="710pt"
 viewBox="0.00 0.00 344.64 710.12" xmlns="http://www.w3.org/2000/svg" xmlns:xlink="http://www.w3.org/1999/xlink">
<g id="graph0" class="graph" transform="scale(1 1) rotate(0) translate(4 706.12)">
<title>%3</title>
<polygon fill="white" stroke="transparent" points="-4,4 -4,-706.12 340.64,-706.12 340.64,4 -4,4"/>
<!-- ready -->
<g id="node1" class="node">
<title>ready</title>
<polygon fill="yellow" stroke="black" points="195.14,-702.12 152.14,-702.12 152.14,-684.12 195.14,-684.12 195.14,-702.12"/>
<text text-anchor="middle" x="173.64" y="-690.92" font-family="Times,serif" font-size="9.00">ready</text>
</g>
<!-- key 3170
bias &#45;0.487
h_scaling 0.090 -->
<g id="node4" class="node">
<title>key 3170
bias &#45;0.487
h_scaling 0.090</title>
<ellipse fill="white" stroke="black" cx="209.64" cy="-236.92" rx="63.78" ry="63.78"/>
<text text-anchor="middle" x="209.64" y="-244.72" font-family="Times,serif" font-size="9.00">key 3170</text>
<text text-anchor="middle" x="209.64" y="-234.72" font-family="Times,serif" font-size="9.00">bias &#45;0.487</text>
<text text-anchor="middle" x="209.64" y="-224.72" font-family="Times,serif" font-size="9.00">h_scaling 0.090</text>
</g>
<!-- ready&#45;&gt;key 3170
bias &#45;0.487
h_scaling 0.090 -->
<g id="edge5" class="edge">
<title>ready&#45;&gt;key 3170
bias &#45;0.487
h_scaling 0.090</title>
<path fill="none" stroke="blue" stroke-width="0.1" d="M192.95,-684.05C210.57,-675.52 235.5,-660.22 246.64,-638.12 300.35,-531.59 265.81,-388.84 236.94,-305.77"/>
<polygon fill="blue" stroke="blue" stroke-width="0.1" points="240.19,-304.45 233.55,-296.19 233.59,-306.79 240.19,-304.45"/>
</g>
<!-- key 233491
bias &#45;0.224
h_scaling 0.020 -->
<g id="node5" class="node">
<title>key 233491
bias &#45;0.224
h_scaling 0.020</title>
<ellipse fill="white" stroke="black" cx="173.64" cy="-574.48" rx="63.78" ry="63.78"/>
<text text-anchor="middle" x="173.64" y="-582.28" font-family="Times,serif" font-size="9.00">key 233491</text>
<text text-anchor="middle" x="173.64" y="-572.28" font-family="Times,serif" font-size="9.00">bias &#45;0.224</text>
<text text-anchor="middle" x="173.64" y="-562.28" font-family="Times,serif" font-size="9.00">h_scaling 0.020</text>
</g>
<!-- ready&#45;&gt;key 233491
bias &#45;0.224
h_scaling 0.020 -->
<g id="edge11" class="edge">
<title>ready&#45;&gt;key 233491
bias &#45;0.224
h_scaling 0.020</title>
<path fill="none" stroke="red" stroke-width="0.38" d="M173.64,-684.1C173.64,-676.07 173.64,-662.85 173.64,-648.35"/>
<polygon fill="red" stroke="red" stroke-width="0.38" points="177.14,-648.15 173.64,-638.15 170.14,-648.15 177.14,-648.15"/>
<text text-anchor="middle" x="187.64" y="-658.92" font-family="Times,serif" font-size="9.00">0.009</text>
</g>
<!-- key 231458
bias &#45;0.670
h_scaling 0.368 -->
<g id="node6" class="node">
<title>key 231458
bias &#45;0.670
h_scaling 0.368</title>
<ellipse fill="white" stroke="black" cx="63.64" cy="-401.2" rx="63.78" ry="63.78"/>
<text text-anchor="middle" x="63.64" y="-409" font-family="Times,serif" font-size="9.00">key 231458</text>
<text text-anchor="middle" x="63.64" y="-399" font-family="Times,serif" font-size="9.00">bias &#45;0.670</text>
<text text-anchor="middle" x="63.64" y="-389" font-family="Times,serif" font-size="9.00">h_scaling 0.368</text>
</g>
<!-- ready&#45;&gt;key 231458
bias &#45;0.670
h_scaling 0.368 -->
<g id="edge6" class="edge">
<title>ready&#45;&gt;key 231458
bias &#45;0.670
h_scaling 0.368</title>
<path fill="none" stroke="red" stroke-width="0.58" d="M151.89,-687.28C127.86,-680.67 90.25,-666.27 72.64,-638.12 42.19,-589.43 42.37,-523.38 48.78,-473.55"/>
<polygon fill="red" stroke="red" stroke-width="0.58" points="52.27,-473.88 50.18,-463.49 45.33,-472.91 52.27,-473.88"/>
<text text-anchor="middle" x="86.64" y="-572.28" font-family="Times,serif" font-size="9.00">0.016</text>
</g>
<!-- go -->
<g id="node2" class="node">
<title>go</title>
<polygon fill="green" stroke="black" points="333.64,-702.12 305.64,-702.12 305.64,-684.12 333.64,-684.12 333.64,-702.12"/>
<text text-anchor="middle" x="319.64" y="-690.92" font-family="Times,serif" font-size="9.00">go</text>
</g>
<!-- go&#45;&gt;key 3170
bias &#45;0.487
h_scaling 0.090 -->
<g id="edge3" class="edge">
<title>go&#45;&gt;key 3170
bias &#45;0.487
h_scaling 0.090</title>
<path fill="none" stroke="red" stroke-width="0.75" d="M319.88,-684.08C320.8,-644.76 321.88,-469.29 273.64,-337.56 268.53,-323.6 261.2,-309.57 253.31,-296.64"/>
<polygon fill="red" stroke="red" stroke-width="0.75" points="256.07,-294.46 247.78,-287.87 250.15,-298.19 256.07,-294.46"/>
<text text-anchor="middle" x="322.64" y="-485.64" font-family="Times,serif" font-size="9.00">0.022</text>
</g>
<!-- go&#45;&gt;key 233491
bias &#45;0.224
h_scaling 0.020 -->
<g id="edge14" class="edge">
<title>go&#45;&gt;key 233491
bias &#45;0.224
h_scaling 0.020</title>
<path fill="none" stroke="red" stroke-width="0.33" d="M309.6,-684.1C293.47,-671.21 260.59,-644.94 231.2,-621.46"/>
<polygon fill="red" stroke="red" stroke-width="0.33" points="233.02,-618.44 223.02,-614.93 228.65,-623.9 233.02,-618.44"/>
<text text-anchor="middle" x="297.64" y="-658.92" font-family="Times,serif" font-size="9.00">0.008</text>
</g>
<!-- output
bias &#45;0.267
h_scaling 0.908 -->
<g id="node3" class="node">
<title>output
bias &#45;0.267
h_scaling 0.908</title>
<ellipse fill="lightblue" stroke="black" cx="166.64" cy="-63.64" rx="63.78" ry="63.78"/>
<text text-anchor="middle" x="166.64" y="-71.44" font-family="Times,serif" font-size="9.00">output</text>
<text text-anchor="middle" x="166.64" y="-61.44" font-family="Times,serif" font-size="9.00">bias &#45;0.267</text>
<text text-anchor="middle" x="166.64" y="-51.44" font-family="Times,serif" font-size="9.00">h_scaling 0.908</text>
</g>
<!-- output
bias &#45;0.267
h_scaling 0.908&#45;&gt;output
bias &#45;0.267
h_scaling 0.908 -->
<g id="edge1" class="edge">
<title>output
bias &#45;0.267
h_scaling 0.908&#45;&gt;output
bias &#45;0.267
h_scaling 0.908</title>
<path fill="none" stroke="red" stroke-width="0.87" d="M228.58,-78.94C240.14,-77.05 248.28,-71.95 248.28,-63.64 248.28,-57.92 244.43,-53.73 238.27,-51.05"/>
<polygon fill="red" stroke="red" stroke-width="0.87" points="239.16,-47.66 228.58,-48.34 237.27,-54.4 239.16,-47.66"/>
<text text-anchor="middle" x="262.28" y="-61.44" font-family="Times,serif" font-size="9.00">0.026</text>
</g>
<!-- output
bias &#45;0.267
h_scaling 0.908&#45;&gt;key 3170
bias &#45;0.487
h_scaling 0.090 -->
<g id="edge13" class="edge">
<title>output
bias &#45;0.267
h_scaling 0.908&#45;&gt;key 3170
bias &#45;0.487
h_scaling 0.090</title>
<path fill="none" stroke="red" stroke-width="0.55" d="M159.81,-127.1C160.13,-136.65 161.26,-146.3 163.64,-155.28 165.29,-161.52 167.55,-167.77 170.19,-173.89"/>
<polygon fill="red" stroke="red" stroke-width="0.55" points="167.22,-175.79 174.62,-183.37 173.56,-172.83 167.22,-175.79"/>
<text text-anchor="middle" x="177.64" y="-148.08" font-family="Times,serif" font-size="9.00">0.015</text>
</g>
<!-- key 3170
bias &#45;0.487
h_scaling 0.090&#45;&gt;output
bias &#45;0.267
h_scaling 0.908 -->
<g id="edge2" class="edge">
<title>key 3170
bias &#45;0.487
h_scaling 0.090&#45;&gt;output
bias &#45;0.267
h_scaling 0.908</title>
<path fill="none" stroke="blue" stroke-width="0.1" d="M201.64,-173.68C199.95,-164.11 197.96,-154.38 195.64,-145.28 194.61,-141.22 193.45,-137.09 192.21,-132.93"/>
<polygon fill="blue" stroke="blue" stroke-width="0.1" points="195.51,-131.75 189.19,-123.25 188.83,-133.84 195.51,-131.75"/>
</g>
<!-- key 3170
bias &#45;0.487
h_scaling 0.090&#45;&gt;key 3170
bias &#45;0.487
h_scaling 0.090 -->
<g id="edge4" class="edge">
<title>key 3170
bias &#45;0.487
h_scaling 0.090&#45;&gt;key 3170
bias &#45;0.487
h_scaling 0.090</title>
<path fill="none" stroke="red" stroke-width="1.6" d="M271.93,-251.45C283.3,-249.61 291.28,-244.77 291.28,-236.92 291.28,-231.65 287.68,-227.73 281.87,-225.17"/>
<polygon fill="red" stroke="red" stroke-width="1.6" points="282.5,-221.71 271.93,-222.39 280.62,-228.45 282.5,-221.71"/>
<text text-anchor="middle" x="305.28" y="-234.72" font-family="Times,serif" font-size="9.00">0.050</text>
</g>
<!-- key 233491
bias &#45;0.224
h_scaling 0.020&#45;&gt;key 3170
bias &#45;0.487
h_scaling 0.090 -->
<g id="edge8" class="edge">
<title>key 233491
bias &#45;0.224
h_scaling 0.020&#45;&gt;key 3170
bias &#45;0.487
h_scaling 0.090</title>
<path fill="none" stroke="red" stroke-width="0.88" d="M180.33,-511.15C186.42,-454.35 195.42,-370.44 201.84,-310.61"/>
<polygon fill="red" stroke="red" stroke-width="0.88" points="205.34,-310.8 202.93,-300.48 198.38,-310.05 205.34,-310.8"/>
<text text-anchor="middle" x="213.64" y="-399" font-family="Times,serif" font-size="9.00">0.026</text>
</g>
<!-- key 233491
bias &#45;0.224
h_scaling 0.020&#45;&gt;key 231458
bias &#45;0.670
h_scaling 0.368 -->
<g id="edge12" class="edge">
<title>key 233491
bias &#45;0.224
h_scaling 0.020&#45;&gt;key 231458
bias &#45;0.670
h_scaling 0.368</title>
<path fill="none" stroke="red" stroke-width="0.61" d="M139.44,-520.22C127.95,-502.33 115.04,-482.24 103.18,-463.76"/>
<polygon fill="red" stroke="red" stroke-width="0.61" points="105.98,-461.65 97.63,-455.13 100.09,-465.43 105.98,-461.65"/>
<text text-anchor="middle" x="132.64" y="-485.64" font-family="Times,serif" font-size="9.00">0.017</text>
</g>
<!-- key 231458
bias &#45;0.670
h_scaling 0.368&#45;&gt;output
bias &#45;0.267
h_scaling 0.908 -->
<g id="edge9" class="edge">
<title>key 231458
bias &#45;0.670
h_scaling 0.368&#45;&gt;output
bias &#45;0.267
h_scaling 0.908</title>
<path fill="none" stroke="red" stroke-width="0.35" d="M70.98,-337.72C77.63,-291.38 89.39,-227.18 108.64,-173.28 114.12,-157.94 121.47,-142.11 129.1,-127.44"/>
<polygon fill="red" stroke="red" stroke-width="0.35" points="132.27,-128.94 133.87,-118.46 126.09,-125.65 132.27,-128.94"/>
<text text-anchor="middle" x="122.64" y="-234.72" font-family="Times,serif" font-size="9.00">0.008</text>
</g>
<!-- key 231458
bias &#45;0.670
h_scaling 0.368&#45;&gt;key 3170
bias &#45;0.487
h_scaling 0.090 -->
<g id="edge7" class="edge">
<title>key 231458
bias &#45;0.670
h_scaling 0.368&#45;&gt;key 3170
bias &#45;0.487
h_scaling 0.090</title>
<path fill="none" stroke="blue" stroke-width="0.1" d="M105.87,-353.26C123.04,-334.17 143,-311.99 160.8,-292.2"/>
<polygon fill="blue" stroke="blue" stroke-width="0.1" points="163.42,-294.53 167.51,-284.75 158.21,-289.84 163.42,-294.53"/>
</g>
<!-- key 231458
bias &#45;0.670
h_scaling 0.368&#45;&gt;key 231458
bias &#45;0.670
h_scaling 0.368 -->
<g id="edge10" class="edge">
<title>key 231458
bias &#45;0.670
h_scaling 0.368&#45;&gt;key 231458
bias &#45;0.670
h_scaling 0.368</title>
<path fill="none" stroke="red" stroke-width="1.01" d="M125.93,-415.73C137.3,-413.89 145.28,-409.05 145.28,-401.2 145.28,-395.93 141.68,-392.01 135.87,-389.45"/>
<polygon fill="red" stroke="red" stroke-width="1.01" points="136.5,-385.99 125.93,-386.67 134.62,-392.73 136.5,-385.99"/>
<text text-anchor="middle" x="159.28" y="-399" font-family="Times,serif" font-size="9.00">0.030</text>
</g>
</g>
</svg>
