<?xml version="1.0" encoding="UTF-8" standalone="no"?>
<!DOCTYPE svg PUBLIC "-//W3C//DTD SVG 1.1//EN"
 "http://www.w3.org/Graphics/SVG/1.1/DTD/svg11.dtd">
<!-- Generated by graphviz version 2.43.0 (0)
 -->
<!-- Title: %3 Pages: 1 -->
<svg width="349pt" height="719pt"
 viewBox="0.00 0.00 348.64 719.12" xmlns="http://www.w3.org/2000/svg" xmlns:xlink="http://www.w3.org/1999/xlink">
<g id="graph0" class="graph" transform="scale(1 1) rotate(0) translate(4 715.12)">
<title>%3</title>
<polygon fill="white" stroke="transparent" points="-4,4 -4,-715.12 344.64,-715.12 344.64,4 -4,4"/>
<!-- ready -->
<g id="node1" class="node">
<title>ready</title>
<polygon fill="yellow" stroke="black" points="195.14,-711.12 152.14,-711.12 152.14,-693.12 195.14,-693.12 195.14,-711.12"/>
<text text-anchor="middle" x="173.64" y="-699.92" font-family="Times,serif" font-size="9.00">ready</text>
</g>
<!-- key 3170
bias &#45;0.487
h_scaling 0.090 -->
<g id="node4" class="node">
<title>key 3170
bias &#45;0.487
h_scaling 0.090</title>
<ellipse fill="white" stroke="black" cx="209.64" cy="-236.92" rx="63.78" ry="63.78"/>
<text text-anchor="middle" x="209.64" y="-244.72" font-family="Times,serif" font-size="9.00">key 3170</text>
<text text-anchor="middle" x="209.64" y="-234.72" font-family="Times,serif" font-size="9.00">bias &#45;0.487</text>
<text text-anchor="middle" x="209.64" y="-224.72" font-family="Times,serif" font-size="9.00">h_scaling 0.090</text>
</g>
<!-- ready&#45;&gt;key 3170
bias &#45;0.487
h_scaling 0.090 -->
<g id="edge5" class="edge">
<title>ready&#45;&gt;key 3170
bias &#45;0.487
h_scaling 0.090</title>
<path fill="none" stroke="blue" stroke-width="0.35" d="M192.95,-693.05C210.57,-684.52 235.5,-669.22 246.64,-647.12 301.91,-537.49 266.13,-390.3 236.76,-305.62"/>
<polygon fill="blue" stroke="blue" stroke-width="0.35" points="240.03,-304.37 233.39,-296.11 233.43,-306.71 240.03,-304.37"/>
<text text-anchor="middle" x="290.14" y="-494.64" font-family="Times,serif" font-size="9.00">&#45;0.082</text>
</g>
<!-- key 233491
bias &#45;0.224
h_scaling 0.020 -->
<g id="node5" class="node">
<title>key 233491
bias &#45;0.224
h_scaling 0.020</title>
<ellipse fill="white" stroke="black" cx="173.64" cy="-583.48" rx="63.78" ry="63.78"/>
<text text-anchor="middle" x="173.64" y="-591.28" font-family="Times,serif" font-size="9.00">key 233491</text>
<text text-anchor="middle" x="173.64" y="-581.28" font-family="Times,serif" font-size="9.00">bias &#45;0.224</text>
<text text-anchor="middle" x="173.64" y="-571.28" font-family="Times,serif" font-size="9.00">h_scaling 0.020</text>
</g>
<!-- ready&#45;&gt;key 233491
bias &#45;0.224
h_scaling 0.020 -->
<g id="edge11" class="edge">
<title>ready&#45;&gt;key 233491
bias &#45;0.224
h_scaling 0.020</title>
<path fill="none" stroke="red" stroke-width="2.69" d="M173.64,-693.1C173.64,-685.07 173.64,-671.85 173.64,-657.35"/>
<polygon fill="red" stroke="red" stroke-width="2.69" points="177.14,-657.15 173.64,-647.15 170.14,-657.15 177.14,-657.15"/>
<text text-anchor="middle" x="187.64" y="-667.92" font-family="Times,serif" font-size="9.00">0.862</text>
</g>
<!-- key 231458
bias &#45;0.670
h_scaling 0.368 -->
<g id="node6" class="node">
<title>key 231458
bias &#45;0.670
h_scaling 0.368</title>
<ellipse fill="white" stroke="black" cx="63.64" cy="-410.2" rx="63.78" ry="63.78"/>
<text text-anchor="middle" x="63.64" y="-418" font-family="Times,serif" font-size="9.00">key 231458</text>
<text text-anchor="middle" x="63.64" y="-408" font-family="Times,serif" font-size="9.00">bias &#45;0.670</text>
<text text-anchor="middle" x="63.64" y="-398" font-family="Times,serif" font-size="9.00">h_scaling 0.368</text>
</g>
<!-- ready&#45;&gt;key 231458
bias &#45;0.670
h_scaling 0.368 -->
<g id="edge6" class="edge">
<title>ready&#45;&gt;key 231458
bias &#45;0.670
h_scaling 0.368</title>
<path fill="none" stroke="red" stroke-width="3.1" d="M151.89,-696.28C127.86,-689.67 90.25,-675.27 72.64,-647.12 42.19,-598.43 42.37,-532.38 48.78,-482.55"/>
<polygon fill="red" stroke="red" stroke-width="3.1" points="52.27,-482.88 50.18,-472.49 45.33,-481.91 52.27,-482.88"/>
<text text-anchor="middle" x="86.64" y="-581.28" font-family="Times,serif" font-size="9.00">1.000</text>
</g>
<!-- go -->
<g id="node2" class="node">
<title>go</title>
<polygon fill="green" stroke="black" points="333.64,-711.12 305.64,-711.12 305.64,-693.12 333.64,-693.12 333.64,-711.12"/>
<text text-anchor="middle" x="319.64" y="-699.92" font-family="Times,serif" font-size="9.00">go</text>
</g>
<!-- go&#45;&gt;key 3170
bias &#45;0.487
h_scaling 0.090 -->
<g id="edge3" class="edge">
<title>go&#45;&gt;key 3170
bias &#45;0.487
h_scaling 0.090</title>
<path fill="none" stroke="red" stroke-width="3.1" d="M320.15,-693C322.36,-653.3 328.66,-476.33 275.64,-346.56 268.98,-330.25 260.05,-313.55 250.92,-298.28"/>
<polygon fill="red" stroke="red" stroke-width="3.1" points="253.74,-296.18 245.54,-289.48 247.77,-299.83 253.74,-296.18"/>
<text text-anchor="middle" x="326.64" y="-494.64" font-family="Times,serif" font-size="9.00">1.000</text>
</g>
<!-- go&#45;&gt;key 233491
bias &#45;0.224
h_scaling 0.020 -->
<g id="edge14" class="edge">
<title>go&#45;&gt;key 233491
bias &#45;0.224
h_scaling 0.020</title>
<path fill="none" stroke="red" stroke-width="1.29" d="M309.6,-693.1C293.47,-680.21 260.59,-653.94 231.2,-630.46"/>
<polygon fill="red" stroke="red" stroke-width="1.29" points="233.02,-627.44 223.02,-623.93 228.65,-632.9 233.02,-627.44"/>
<text text-anchor="middle" x="297.64" y="-667.92" font-family="Times,serif" font-size="9.00">0.396</text>
</g>
<!-- output
bias &#45;0.267
h_scaling 0.908 -->
<g id="node3" class="node">
<title>output
bias &#45;0.267
h_scaling 0.908</title>
<ellipse fill="lightblue" stroke="black" cx="158.64" cy="-63.64" rx="63.78" ry="63.78"/>
<text text-anchor="middle" x="158.64" y="-71.44" font-family="Times,serif" font-size="9.00">output</text>
<text text-anchor="middle" x="158.64" y="-61.44" font-family="Times,serif" font-size="9.00">bias &#45;0.267</text>
<text text-anchor="middle" x="158.64" y="-51.44" font-family="Times,serif" font-size="9.00">h_scaling 0.908</text>
</g>
<!-- output
bias &#45;0.267
h_scaling 0.908&#45;&gt;output
bias &#45;0.267
h_scaling 0.908 -->
<g id="edge1" class="edge">
<title>output
bias &#45;0.267
h_scaling 0.908&#45;&gt;output
bias &#45;0.267
h_scaling 0.908</title>
<path fill="none" stroke="red" stroke-width="2.49" d="M220.58,-78.94C232.14,-77.05 240.28,-71.95 240.28,-63.64 240.28,-57.92 236.43,-53.73 230.27,-51.05"/>
<polygon fill="red" stroke="red" stroke-width="2.49" points="231.16,-47.66 220.58,-48.34 229.27,-54.4 231.16,-47.66"/>
<text text-anchor="middle" x="254.28" y="-61.44" font-family="Times,serif" font-size="9.00">0.796</text>
</g>
<!-- output
bias &#45;0.267
h_scaling 0.908&#45;&gt;key 3170
bias &#45;0.487
h_scaling 0.090 -->
<g id="edge13" class="edge">
<title>output
bias &#45;0.267
h_scaling 0.908&#45;&gt;key 3170
bias &#45;0.487
h_scaling 0.090</title>
<path fill="none" stroke="red" stroke-width="0.89" d="M151.25,-127.27C151.64,-136.79 152.94,-146.39 155.64,-155.28 157.95,-162.87 161.23,-170.4 165.06,-177.64"/>
<polygon fill="red" stroke="red" stroke-width="0.89" points="162.18,-179.65 170.17,-186.62 168.27,-176.2 162.18,-179.65"/>
<text text-anchor="middle" x="169.64" y="-148.08" font-family="Times,serif" font-size="9.00">0.264</text>
</g>
<!-- key 3170
bias &#45;0.487
h_scaling 0.090&#45;&gt;output
bias &#45;0.267
h_scaling 0.908 -->
<g id="edge2" class="edge">
<title>key 3170
bias &#45;0.487
h_scaling 0.090&#45;&gt;output
bias &#45;0.267
h_scaling 0.908</title>
<path fill="none" stroke="blue" stroke-width="3.1" d="M195.74,-174.73C193.22,-164.84 190.48,-154.74 187.64,-145.28 186.44,-141.27 185.15,-137.17 183.81,-133.05"/>
<polygon fill="blue" stroke="blue" stroke-width="3.1" points="187.08,-131.79 180.6,-123.41 180.44,-134.01 187.08,-131.79"/>
<text text-anchor="middle" x="206.14" y="-148.08" font-family="Times,serif" font-size="9.00">&#45;1.000</text>
</g>
<!-- key 3170
bias &#45;0.487
h_scaling 0.090&#45;&gt;key 3170
bias &#45;0.487
h_scaling 0.090 -->
<g id="edge4" class="edge">
<title>key 3170
bias &#45;0.487
h_scaling 0.090&#45;&gt;key 3170
bias &#45;0.487
h_scaling 0.090</title>
<path fill="none" stroke="red" stroke-width="3.1" d="M271.58,-252.22C283.14,-250.33 291.28,-245.23 291.28,-236.92 291.28,-231.2 287.43,-227.01 281.27,-224.33"/>
<polygon fill="red" stroke="red" stroke-width="3.1" points="282.16,-220.94 271.58,-221.62 280.27,-227.68 282.16,-220.94"/>
<text text-anchor="middle" x="305.28" y="-234.72" font-family="Times,serif" font-size="9.00">1.000</text>
</g>
<!-- key 233491
bias &#45;0.224
h_scaling 0.020&#45;&gt;key 3170
bias &#45;0.487
h_scaling 0.090 -->
<g id="edge8" class="edge">
<title>key 233491
bias &#45;0.224
h_scaling 0.020&#45;&gt;key 3170
bias &#45;0.487
h_scaling 0.090</title>
<path fill="none" stroke="red" stroke-width="0.4" d="M180.16,-520.08C186.32,-461.11 195.56,-372.66 202.05,-310.55"/>
<polygon fill="red" stroke="red" stroke-width="0.4" points="205.55,-310.74 203.11,-300.43 198.59,-310.01 205.55,-310.74"/>
<text text-anchor="middle" x="212.64" y="-408" font-family="Times,serif" font-size="9.00">0.100</text>
</g>
<!-- key 233491
bias &#45;0.224
h_scaling 0.020&#45;&gt;key 231458
bias &#45;0.670
h_scaling 0.368 -->
<g id="edge12" class="edge">
<title>key 233491
bias &#45;0.224
h_scaling 0.020&#45;&gt;key 231458
bias &#45;0.670
h_scaling 0.368</title>
<path fill="none" stroke="red" stroke-width="0.59" d="M139.44,-529.22C127.95,-511.33 115.04,-491.24 103.18,-472.76"/>
<polygon fill="red" stroke="red" stroke-width="0.59" points="105.98,-470.65 97.63,-464.13 100.09,-474.43 105.98,-470.65"/>
<text text-anchor="middle" x="132.64" y="-494.64" font-family="Times,serif" font-size="9.00">0.162</text>
</g>
<!-- key 231458
bias &#45;0.670
h_scaling 0.368&#45;&gt;output
bias &#45;0.267
h_scaling 0.908 -->
<g id="edge9" class="edge">
<title>key 231458
bias &#45;0.670
h_scaling 0.368&#45;&gt;output
bias &#45;0.267
h_scaling 0.908</title>
<path fill="none" stroke="red" stroke-width="1.29" d="M71.36,-346.58C78.3,-298.43 90.26,-230.66 108.64,-173.28 113.26,-158.84 119.32,-143.8 125.61,-129.68"/>
<polygon fill="red" stroke="red" stroke-width="1.29" points="128.81,-131.1 129.76,-120.55 122.43,-128.2 128.81,-131.1"/>
<text text-anchor="middle" x="122.64" y="-234.72" font-family="Times,serif" font-size="9.00">0.397</text>
</g>
<!-- key 231458
bias &#45;0.670
h_scaling 0.368&#45;&gt;key 3170
bias &#45;0.487
h_scaling 0.090 -->
<g id="edge7" class="edge">
<title>key 231458
bias &#45;0.670
h_scaling 0.368&#45;&gt;key 3170
bias &#45;0.487
h_scaling 0.090</title>
<path fill="none" stroke="blue" stroke-width="1.08" d="M104.7,-361.03C122.5,-340.15 143.46,-315.56 161.95,-293.87"/>
<polygon fill="blue" stroke="blue" stroke-width="1.08" points="164.81,-295.9 168.64,-286.02 159.49,-291.36 164.81,-295.9"/>
<text text-anchor="middle" x="152.14" y="-321.36" font-family="Times,serif" font-size="9.00">&#45;0.327</text>
</g>
<!-- key 231458
bias &#45;0.670
h_scaling 0.368&#45;&gt;key 231458
bias &#45;0.670
h_scaling 0.368 -->
<g id="edge10" class="edge">
<title>key 231458
bias &#45;0.670
h_scaling 0.368&#45;&gt;key 231458
bias &#45;0.670
h_scaling 0.368</title>
<path fill="none" stroke="red" stroke-width="3.05" d="M125.58,-425.5C137.14,-423.61 145.28,-418.51 145.28,-410.2 145.28,-404.48 141.43,-400.29 135.27,-397.61"/>
<polygon fill="red" stroke="red" stroke-width="3.05" points="136.16,-394.22 125.58,-394.9 134.27,-400.96 136.16,-394.22"/>
<text text-anchor="middle" x="159.28" y="-408" font-family="Times,serif" font-size="9.00">0.984</text>
</g>
</g>
</svg>
