<?xml version="1.0" encoding="UTF-8" standalone="no"?>
<!DOCTYPE svg PUBLIC "-//W3C//DTD SVG 1.1//EN"
 "http://www.w3.org/Graphics/SVG/1.1/DTD/svg11.dtd">
<!-- Generated by graphviz version 2.43.0 (0)
 -->
<!-- Title: %3 Pages: 1 -->
<svg width="520pt" height="729pt"
 viewBox="0.00 0.00 520.14 729.12" xmlns="http://www.w3.org/2000/svg" xmlns:xlink="http://www.w3.org/1999/xlink">
<g id="graph0" class="graph" transform="scale(1 1) rotate(0) translate(4 725.12)">
<title>%3</title>
<polygon fill="white" stroke="transparent" points="-4,4 -4,-725.12 516.14,-725.12 516.14,4 -4,4"/>
<!-- ready
output 0.000 -->
<g id="node1" class="node">
<title>ready
output 0.000</title>
<polygon fill="yellow" stroke="black" points="196,-721.12 119,-721.12 119,-693.12 196,-693.12 196,-721.12"/>
<text text-anchor="middle" x="157.5" y="-709.92" font-family="Times,serif" font-size="9.00">ready</text>
<text text-anchor="middle" x="157.5" y="-699.92" font-family="Times,serif" font-size="9.00">output 0.000</text>
</g>
<!-- key 3170
bias &#45;0.535
h_scaling 0.725
output 0.426 -->
<g id="node4" class="node">
<title>key 3170
bias &#45;0.535
h_scaling 0.725
output 0.426</title>
<ellipse fill="white" stroke="black" cx="208.5" cy="-236.92" rx="63.78" ry="63.78"/>
<text text-anchor="middle" x="208.5" y="-249.72" font-family="Times,serif" font-size="9.00">key 3170</text>
<text text-anchor="middle" x="208.5" y="-239.72" font-family="Times,serif" font-size="9.00">bias &#45;0.535</text>
<text text-anchor="middle" x="208.5" y="-229.72" font-family="Times,serif" font-size="9.00">h_scaling 0.725</text>
<text text-anchor="middle" x="208.5" y="-219.72" font-family="Times,serif" font-size="9.00">output 0.426</text>
</g>
<!-- ready
output 0.000&#45;&gt;key 3170
bias &#45;0.535
h_scaling 0.725
output 0.426 -->
<g id="edge5" class="edge">
<title>ready
output 0.000&#45;&gt;key 3170
bias &#45;0.535
h_scaling 0.725
output 0.426</title>
<path fill="none" stroke="blue" stroke-width="0.1" d="M152.5,-692.92C135.07,-644.91 80.44,-475.58 124.5,-346.56 131.42,-326.3 143.82,-306.88 157.01,-290.21"/>
<polygon fill="blue" stroke="blue" stroke-width="0.1" points="159.89,-292.21 163.52,-282.26 154.48,-287.78 159.89,-292.21"/>
<text text-anchor="middle" x="125" y="-494.64" font-family="Times,serif" font-size="9.00">&#45;0.063</text>
</g>
<!-- key 231458
bias &#45;0.658
h_scaling 0.947
output 0.506 -->
<g id="node5" class="node">
<title>key 231458
bias &#45;0.658
h_scaling 0.947
output 0.506</title>
<ellipse fill="white" stroke="black" cx="267.5" cy="-583.48" rx="63.78" ry="63.78"/>
<text text-anchor="middle" x="267.5" y="-596.28" font-family="Times,serif" font-size="9.00">key 231458</text>
<text text-anchor="middle" x="267.5" y="-586.28" font-family="Times,serif" font-size="9.00">bias &#45;0.658</text>
<text text-anchor="middle" x="267.5" y="-576.28" font-family="Times,serif" font-size="9.00">h_scaling 0.947</text>
<text text-anchor="middle" x="267.5" y="-566.28" font-family="Times,serif" font-size="9.00">output 0.506</text>
</g>
<!-- ready
output 0.000&#45;&gt;key 231458
bias &#45;0.658
h_scaling 0.947
output 0.506 -->
<g id="edge6" class="edge">
<title>ready
output 0.000&#45;&gt;key 231458
bias &#45;0.658
h_scaling 0.947
output 0.506</title>
<path fill="none" stroke="red" stroke-width="0.1" d="M169.27,-693.1C181.12,-680 200.19,-658.92 218.38,-638.79"/>
<polygon fill="red" stroke="red" stroke-width="0.1" points="221.19,-640.91 225.3,-631.14 216,-636.21 221.19,-640.91"/>
<text text-anchor="middle" x="206.5" y="-667.92" font-family="Times,serif" font-size="9.00">1.131</text>
</g>
<!-- key 233491
bias &#45;0.224
h_scaling 0.017
output 0.021 -->
<g id="node7" class="node">
<title>key 233491
bias &#45;0.224
h_scaling 0.017
output 0.021</title>
<ellipse fill="white" stroke="black" cx="197.5" cy="-410.2" rx="63.78" ry="63.78"/>
<text text-anchor="middle" x="197.5" y="-423" font-family="Times,serif" font-size="9.00">key 233491</text>
<text text-anchor="middle" x="197.5" y="-413" font-family="Times,serif" font-size="9.00">bias &#45;0.224</text>
<text text-anchor="middle" x="197.5" y="-403" font-family="Times,serif" font-size="9.00">h_scaling 0.017</text>
<text text-anchor="middle" x="197.5" y="-393" font-family="Times,serif" font-size="9.00">output 0.021</text>
</g>
<!-- ready
output 0.000&#45;&gt;key 233491
bias &#45;0.224
h_scaling 0.017
output 0.021 -->
<g id="edge11" class="edge">
<title>ready
output 0.000&#45;&gt;key 233491
bias &#45;0.224
h_scaling 0.017
output 0.021</title>
<path fill="none" stroke="red" stroke-width="0.1" d="M157.1,-692.91C156.41,-662.27 155.93,-584.05 166.5,-519.84 168.61,-507.04 171.69,-493.6 175.11,-480.71"/>
<polygon fill="red" stroke="red" stroke-width="0.1" points="178.51,-481.55 177.78,-470.98 171.76,-479.69 178.51,-481.55"/>
<text text-anchor="middle" x="180.5" y="-581.28" font-family="Times,serif" font-size="9.00">0.524</text>
</g>
<!-- go
output 0.000 -->
<g id="node2" class="node">
<title>go
output 0.000</title>
<polygon fill="green" stroke="black" points="77,-424.2 0,-424.2 0,-396.2 77,-396.2 77,-424.2"/>
<text text-anchor="middle" x="38.5" y="-413" font-family="Times,serif" font-size="9.00">go</text>
<text text-anchor="middle" x="38.5" y="-403" font-family="Times,serif" font-size="9.00">output 0.000</text>
</g>
<!-- go
output 0.000&#45;&gt;key 3170
bias &#45;0.535
h_scaling 0.725
output 0.426 -->
<g id="edge3" class="edge">
<title>go
output 0.000&#45;&gt;key 3170
bias &#45;0.535
h_scaling 0.725
output 0.426</title>
<path fill="none" stroke="red" stroke-width="0.1" d="M39,-396.08C40.36,-377.08 45.34,-341.66 63.5,-318.56 82.93,-293.84 112.16,-275.54 139.29,-262.68"/>
<polygon fill="red" stroke="red" stroke-width="0.1" points="140.75,-265.86 148.39,-258.52 137.84,-259.49 140.75,-265.86"/>
<text text-anchor="middle" x="77.5" y="-321.36" font-family="Times,serif" font-size="9.00">1.124</text>
</g>
<!-- output
bias &#45;0.270
h_scaling 0.985
output 0.042 -->
<g id="node3" class="node">
<title>output
bias &#45;0.270
h_scaling 0.985
output 0.042</title>
<ellipse fill="lightblue" stroke="black" cx="324.5" cy="-63.64" rx="63.78" ry="63.78"/>
<text text-anchor="middle" x="324.5" y="-76.44" font-family="Times,serif" font-size="9.00">output</text>
<text text-anchor="middle" x="324.5" y="-66.44" font-family="Times,serif" font-size="9.00">bias &#45;0.270</text>
<text text-anchor="middle" x="324.5" y="-56.44" font-family="Times,serif" font-size="9.00">h_scaling 0.985</text>
<text text-anchor="middle" x="324.5" y="-46.44" font-family="Times,serif" font-size="9.00">output 0.042</text>
</g>
<!-- output
bias &#45;0.270
h_scaling 0.985
output 0.042&#45;&gt;output
bias &#45;0.270
h_scaling 0.985
output 0.042 -->
<g id="edge1" class="edge">
<title>output
bias &#45;0.270
h_scaling 0.985
output 0.042&#45;&gt;output
bias &#45;0.270
h_scaling 0.985
output 0.042</title>
<path fill="none" stroke="red" stroke-width="0.1" d="M386.44,-78.94C398,-77.05 406.14,-71.95 406.14,-63.64 406.14,-57.92 402.29,-53.73 396.13,-51.05"/>
<polygon fill="red" stroke="red" stroke-width="0.1" points="397.02,-47.66 386.44,-48.34 395.13,-54.4 397.02,-47.66"/>
<text text-anchor="middle" x="420.14" y="-61.44" font-family="Times,serif" font-size="9.00">0.911</text>
</g>
<!-- output
bias &#45;0.270
h_scaling 0.985
output 0.042&#45;&gt;key 3170
bias &#45;0.535
h_scaling 0.725
output 0.426 -->
<g id="edge13" class="edge">
<title>output
bias &#45;0.270
h_scaling 0.985
output 0.042&#45;&gt;key 3170
bias &#45;0.535
h_scaling 0.725
output 0.426</title>
<path fill="none" stroke="red" stroke-width="0.1" d="M300.12,-122.6C294.56,-133.77 288.28,-145.14 281.5,-155.28 275.02,-164.97 267.42,-174.67 259.62,-183.82"/>
<polygon fill="red" stroke="red" stroke-width="0.1" points="256.98,-181.53 253.04,-191.36 262.26,-186.13 256.98,-181.53"/>
<text text-anchor="middle" x="300.5" y="-148.08" font-family="Times,serif" font-size="9.00">0.372</text>
</g>
<!-- key 3170
bias &#45;0.535
h_scaling 0.725
output 0.426&#45;&gt;output
bias &#45;0.270
h_scaling 0.985
output 0.042 -->
<g id="edge2" class="edge">
<title>key 3170
bias &#45;0.535
h_scaling 0.725
output 0.426&#45;&gt;output
bias &#45;0.270
h_scaling 0.985
output 0.042</title>
<path fill="none" stroke="blue" stroke-width="0.1" d="M232.36,-177.42C237.75,-166.41 243.86,-155.23 250.5,-145.28 257.01,-135.52 264.68,-125.78 272.57,-116.62"/>
<polygon fill="blue" stroke="blue" stroke-width="0.1" points="275.24,-118.88 279.24,-109.07 270,-114.25 275.24,-118.88"/>
<text text-anchor="middle" x="266" y="-148.08" font-family="Times,serif" font-size="9.00">&#45;1.000</text>
</g>
<!-- key 3170
bias &#45;0.535
h_scaling 0.725
output 0.426&#45;&gt;key 3170
bias &#45;0.535
h_scaling 0.725
output 0.426 -->
<g id="edge4" class="edge">
<title>key 3170
bias &#45;0.535
h_scaling 0.725
output 0.426&#45;&gt;key 3170
bias &#45;0.535
h_scaling 0.725
output 0.426</title>
<path fill="none" stroke="red" stroke-width="0.1" d="M270.44,-252.22C282,-250.33 290.14,-245.23 290.14,-236.92 290.14,-231.2 286.29,-227.01 280.13,-224.33"/>
<polygon fill="red" stroke="red" stroke-width="0.1" points="281.02,-220.94 270.44,-221.62 279.13,-227.68 281.02,-220.94"/>
<text text-anchor="middle" x="304.14" y="-234.72" font-family="Times,serif" font-size="9.00">1.179</text>
</g>
<!-- key 231458
bias &#45;0.658
h_scaling 0.947
output 0.506&#45;&gt;output
bias &#45;0.270
h_scaling 0.985
output 0.042 -->
<g id="edge9" class="edge">
<title>key 231458
bias &#45;0.658
h_scaling 0.947
output 0.506&#45;&gt;output
bias &#45;0.270
h_scaling 0.985
output 0.042</title>
<path fill="none" stroke="red" stroke-width="0.1" d="M297.18,-526.92C304.78,-510.28 312.06,-491.71 316.5,-473.84 345.08,-358.82 339.81,-219.97 332.67,-137.18"/>
<polygon fill="red" stroke="red" stroke-width="0.1" points="336.15,-136.76 331.77,-127.11 329.18,-137.39 336.15,-136.76"/>
<text text-anchor="middle" x="350.5" y="-321.36" font-family="Times,serif" font-size="9.00">0.479</text>
</g>
<!-- key 231458
bias &#45;0.658
h_scaling 0.947
output 0.506&#45;&gt;key 3170
bias &#45;0.535
h_scaling 0.725
output 0.426 -->
<g id="edge7" class="edge">
<title>key 231458
bias &#45;0.658
h_scaling 0.947
output 0.506&#45;&gt;key 3170
bias &#45;0.535
h_scaling 0.725
output 0.426</title>
<path fill="none" stroke="blue" stroke-width="0.1" d="M277.29,-520.26C282.74,-472.03 285.73,-403.97 270.5,-346.56 266.08,-329.89 258.43,-313.11 249.99,-297.89"/>
<polygon fill="blue" stroke="blue" stroke-width="0.1" points="252.97,-296.04 244.95,-289.12 246.9,-299.53 252.97,-296.04"/>
<text text-anchor="middle" x="297" y="-408" font-family="Times,serif" font-size="9.00">&#45;0.283</text>
</g>
<!-- key 231458
bias &#45;0.658
h_scaling 0.947
output 0.506&#45;&gt;key 231458
bias &#45;0.658
h_scaling 0.947
output 0.506 -->
<g id="edge10" class="edge">
<title>key 231458
bias &#45;0.658
h_scaling 0.947
output 0.506&#45;&gt;key 231458
bias &#45;0.658
h_scaling 0.947
output 0.506</title>
<path fill="none" stroke="red" stroke-width="0.1" d="M329.44,-598.77C341,-596.89 349.14,-591.79 349.14,-583.48 349.14,-577.76 345.29,-573.56 339.13,-570.89"/>
<polygon fill="red" stroke="red" stroke-width="0.1" points="340.02,-567.5 329.44,-568.18 338.13,-574.24 340.02,-567.5"/>
<text text-anchor="middle" x="363.14" y="-581.28" font-family="Times,serif" font-size="9.00">1.268</text>
</g>
<!-- key 231458
bias &#45;0.658
h_scaling 0.947
output 0.506&#45;&gt;key 233491
bias &#45;0.224
h_scaling 0.017
output 0.021 -->
<g id="edge14" class="edge">
<title>key 231458
bias &#45;0.658
h_scaling 0.947
output 0.506&#45;&gt;key 233491
bias &#45;0.224
h_scaling 0.017
output 0.021</title>
<path fill="none" stroke="blue" stroke-width="0.1" d="M220.44,-540.34C210.68,-528.91 201.77,-515.8 196.5,-501.84 194.36,-496.18 192.89,-490.18 191.93,-484.06"/>
<polygon fill="blue" stroke="blue" stroke-width="0.1" points="195.36,-483.25 190.77,-473.7 188.41,-484.03 195.36,-483.25"/>
<text text-anchor="middle" x="212" y="-494.64" font-family="Times,serif" font-size="9.00">&#45;0.830</text>
</g>
<!-- key 320420
bias 0.851
h_scaling 0.070
output 0.000 -->
<g id="node6" class="node">
<title>key 320420
bias 0.851
h_scaling 0.070
output 0.000</title>
<ellipse fill="white" stroke="black" cx="448.5" cy="-236.92" rx="63.78" ry="63.78"/>
<text text-anchor="middle" x="448.5" y="-249.72" font-family="Times,serif" font-size="9.00">key 320420</text>
<text text-anchor="middle" x="448.5" y="-239.72" font-family="Times,serif" font-size="9.00">bias 0.851</text>
<text text-anchor="middle" x="448.5" y="-229.72" font-family="Times,serif" font-size="9.00">h_scaling 0.070</text>
<text text-anchor="middle" x="448.5" y="-219.72" font-family="Times,serif" font-size="9.00">output 0.000</text>
</g>
<!-- key 320420
bias 0.851
h_scaling 0.070
output 0.000&#45;&gt;output
bias &#45;0.270
h_scaling 0.985
output 0.042 -->
<g id="edge15" class="edge">
<title>key 320420
bias 0.851
h_scaling 0.070
output 0.000&#45;&gt;output
bias &#45;0.270
h_scaling 0.985
output 0.042</title>
<path fill="none" stroke="red" stroke-width="0.1" d="M411.63,-184.99C397.7,-165.75 381.74,-143.7 367.31,-123.77"/>
<polygon fill="red" stroke="red" stroke-width="0.1" points="370.14,-121.71 361.44,-115.66 364.47,-125.82 370.14,-121.71"/>
<text text-anchor="middle" x="400.5" y="-148.08" font-family="Times,serif" font-size="9.00">0.564</text>
</g>
<!-- key 233491
bias &#45;0.224
h_scaling 0.017
output 0.021&#45;&gt;key 3170
bias &#45;0.535
h_scaling 0.725
output 0.426 -->
<g id="edge8" class="edge">
<title>key 233491
bias &#45;0.224
h_scaling 0.017
output 0.021&#45;&gt;key 3170
bias &#45;0.535
h_scaling 0.725
output 0.426</title>
<path fill="none" stroke="red" stroke-width="0.1" d="M201.53,-346.39C202.27,-334.87 203.05,-322.76 203.81,-310.97"/>
<polygon fill="red" stroke="red" stroke-width="0.1" points="207.32,-310.92 204.47,-300.72 200.33,-310.47 207.32,-310.92"/>
<text text-anchor="middle" x="216.5" y="-321.36" font-family="Times,serif" font-size="9.00">0.260</text>
</g>
<!-- key 233491
bias &#45;0.224
h_scaling 0.017
output 0.021&#45;&gt;key 231458
bias &#45;0.658
h_scaling 0.947
output 0.506 -->
<g id="edge12" class="edge">
<title>key 233491
bias &#45;0.224
h_scaling 0.017
output 0.021&#45;&gt;key 231458
bias &#45;0.658
h_scaling 0.947
output 0.506</title>
<path fill="none" stroke="red" stroke-width="0.1" d="M222.16,-469.28C225.33,-476.86 228.51,-484.53 231.5,-491.84 234.51,-499.19 237.63,-506.89 240.71,-514.57"/>
<polygon fill="red" stroke="red" stroke-width="0.1" points="237.48,-515.91 244.44,-523.9 243.97,-513.31 237.48,-515.91"/>
<text text-anchor="middle" x="248.5" y="-494.64" font-family="Times,serif" font-size="9.00">0.479</text>
</g>
</g>
</svg>
