<?xml version="1.0" encoding="UTF-8" standalone="no"?>
<!DOCTYPE svg PUBLIC "-//W3C//DTD SVG 1.1//EN"
 "http://www.w3.org/Graphics/SVG/1.1/DTD/svg11.dtd">
<!-- Generated by graphviz version 2.43.0 (0)
 -->
<!-- Title: %3 Pages: 1 -->
<svg width="394pt" height="892pt"
 viewBox="0.00 0.00 394.04 892.40" xmlns="http://www.w3.org/2000/svg" xmlns:xlink="http://www.w3.org/1999/xlink">
<g id="graph0" class="graph" transform="scale(1 1) rotate(0) translate(4 888.4)">
<title>%3</title>
<polygon fill="white" stroke="transparent" points="-4,4 -4,-888.4 390.04,-888.4 390.04,4 -4,4"/>
<!-- ready -->
<g id="node1" class="node">
<title>ready</title>
<polygon fill="yellow" stroke="black" points="52.54,-884.4 9.54,-884.4 9.54,-866.4 52.54,-866.4 52.54,-884.4"/>
<text text-anchor="middle" x="31.04" y="-873.2" font-family="Times,serif" font-size="9.00">ready</text>
</g>
<!-- key 83074
bias &#45;0.526
h_scaling 1.000 -->
<g id="node4" class="node">
<title>key 83074
bias &#45;0.526
h_scaling 1.000</title>
<ellipse fill="white" stroke="black" cx="253.04" cy="-756.76" rx="63.78" ry="63.78"/>
<text text-anchor="middle" x="253.04" y="-764.56" font-family="Times,serif" font-size="9.00">key 83074</text>
<text text-anchor="middle" x="253.04" y="-754.56" font-family="Times,serif" font-size="9.00">bias &#45;0.526</text>
<text text-anchor="middle" x="253.04" y="-744.56" font-family="Times,serif" font-size="9.00">h_scaling 1.000</text>
</g>
<!-- ready&#45;&gt;key 83074
bias &#45;0.526
h_scaling 1.000 -->
<g id="edge4" class="edge">
<title>ready&#45;&gt;key 83074
bias &#45;0.526
h_scaling 1.000</title>
<path fill="none" stroke="red" stroke-width="2.82" d="M46.3,-866.38C75.08,-851.26 138.88,-817.74 188.04,-791.91"/>
<polygon fill="red" stroke="red" stroke-width="2.82" points="189.82,-794.93 197.04,-787.18 186.56,-788.73 189.82,-794.93"/>
<text text-anchor="middle" x="110.04" y="-841.2" font-family="Times,serif" font-size="9.00">0.908</text>
</g>
<!-- key 173642
bias &#45;0.033
h_scaling 1.000 -->
<g id="node5" class="node">
<title>key 173642
bias &#45;0.033
h_scaling 1.000</title>
<ellipse fill="white" stroke="black" cx="171.04" cy="-410.2" rx="63.78" ry="63.78"/>
<text text-anchor="middle" x="171.04" y="-418" font-family="Times,serif" font-size="9.00">key 173642</text>
<text text-anchor="middle" x="171.04" y="-408" font-family="Times,serif" font-size="9.00">bias &#45;0.033</text>
<text text-anchor="middle" x="171.04" y="-398" font-family="Times,serif" font-size="9.00">h_scaling 1.000</text>
</g>
<!-- ready&#45;&gt;key 173642
bias &#45;0.033
h_scaling 1.000 -->
<g id="edge12" class="edge">
<title>ready&#45;&gt;key 173642
bias &#45;0.033
h_scaling 1.000</title>
<path fill="none" stroke="red" stroke-width="0.53" d="M28.53,-866.25C16.51,-825.71 -31.85,-642.71 34.04,-519.84 51.29,-487.68 73.35,-496.38 102.04,-473.84 107.05,-469.9 112.15,-465.7 117.2,-461.39"/>
<polygon fill="red" stroke="red" stroke-width="0.53" points="119.8,-463.78 125.06,-454.58 115.21,-458.48 119.8,-463.78"/>
<text text-anchor="middle" x="15.04" y="-667.92" font-family="Times,serif" font-size="9.00">0.142</text>
</g>
<!-- go -->
<g id="node2" class="node">
<title>go</title>
<polygon fill="green" stroke="black" points="121.04,-765.76 93.04,-765.76 93.04,-747.76 121.04,-747.76 121.04,-765.76"/>
<text text-anchor="middle" x="107.04" y="-754.56" font-family="Times,serif" font-size="9.00">go</text>
</g>
<!-- key 2735
bias &#45;0.474
h_scaling 1.000 -->
<g id="node6" class="node">
<title>key 2735
bias &#45;0.474
h_scaling 1.000</title>
<ellipse fill="white" stroke="black" cx="107.04" cy="-583.48" rx="63.78" ry="63.78"/>
<text text-anchor="middle" x="107.04" y="-591.28" font-family="Times,serif" font-size="9.00">key 2735</text>
<text text-anchor="middle" x="107.04" y="-581.28" font-family="Times,serif" font-size="9.00">bias &#45;0.474</text>
<text text-anchor="middle" x="107.04" y="-571.28" font-family="Times,serif" font-size="9.00">h_scaling 1.000</text>
</g>
<!-- go&#45;&gt;key 2735
bias &#45;0.474
h_scaling 1.000 -->
<g id="edge2" class="edge">
<title>go&#45;&gt;key 2735
bias &#45;0.474
h_scaling 1.000</title>
<path fill="none" stroke="red" stroke-width="2.89" d="M107.04,-747.5C107.04,-731.07 107.04,-692.86 107.04,-657.56"/>
<polygon fill="red" stroke="red" stroke-width="2.89" points="110.54,-657.21 107.04,-647.21 103.54,-657.21 110.54,-657.21"/>
<text text-anchor="middle" x="121.04" y="-667.92" font-family="Times,serif" font-size="9.00">0.930</text>
</g>
<!-- output
bias &#45;0.854
h_scaling 1.000 -->
<g id="node3" class="node">
<title>output
bias &#45;0.854
h_scaling 1.000</title>
<ellipse fill="lightblue" stroke="black" cx="217.04" cy="-236.92" rx="63.78" ry="63.78"/>
<text text-anchor="middle" x="217.04" y="-244.72" font-family="Times,serif" font-size="9.00">output</text>
<text text-anchor="middle" x="217.04" y="-234.72" font-family="Times,serif" font-size="9.00">bias &#45;0.854</text>
<text text-anchor="middle" x="217.04" y="-224.72" font-family="Times,serif" font-size="9.00">h_scaling 1.000</text>
</g>
<!-- key 389658
bias &#45;1.000
h_scaling 1.000 -->
<g id="node7" class="node">
<title>key 389658
bias &#45;1.000
h_scaling 1.000</title>
<ellipse fill="white" stroke="black" cx="309.04" cy="-63.64" rx="63.78" ry="63.78"/>
<text text-anchor="middle" x="309.04" y="-71.44" font-family="Times,serif" font-size="9.00">key 389658</text>
<text text-anchor="middle" x="309.04" y="-61.44" font-family="Times,serif" font-size="9.00">bias &#45;1.000</text>
<text text-anchor="middle" x="309.04" y="-51.44" font-family="Times,serif" font-size="9.00">h_scaling 1.000</text>
</g>
<!-- output
bias &#45;0.854
h_scaling 1.000&#45;&gt;key 389658
bias &#45;1.000
h_scaling 1.000 -->
<g id="edge13" class="edge">
<title>output
bias &#45;0.854
h_scaling 1.000&#45;&gt;key 389658
bias &#45;1.000
h_scaling 1.000</title>
<path fill="none" stroke="red" stroke-width="3" d="M246.91,-180.31C255.68,-163.99 265.34,-146.01 274.38,-129.18"/>
<polygon fill="red" stroke="red" stroke-width="3" points="277.68,-130.44 279.32,-119.97 271.51,-127.12 277.68,-130.44"/>
<text text-anchor="middle" x="277.04" y="-148.08" font-family="Times,serif" font-size="9.00">0.967</text>
</g>
<!-- key 83074
bias &#45;0.526
h_scaling 1.000&#45;&gt;output
bias &#45;0.854
h_scaling 1.000 -->
<g id="edge6" class="edge">
<title>key 83074
bias &#45;0.526
h_scaling 1.000&#45;&gt;output
bias &#45;0.854
h_scaling 1.000</title>
<path fill="none" stroke="red" stroke-width="1.6" d="M272.35,-696.03C295.43,-615.02 326.64,-466.65 290.04,-346.56 284.48,-328.31 274.72,-310.35 264.11,-294.44"/>
<polygon fill="red" stroke="red" stroke-width="1.6" points="266.71,-292.06 258.14,-285.83 260.96,-296.05 266.71,-292.06"/>
<text text-anchor="middle" x="320.04" y="-494.64" font-family="Times,serif" font-size="9.00">0.500</text>
</g>
<!-- key 83074
bias &#45;0.526
h_scaling 1.000&#45;&gt;key 83074
bias &#45;0.526
h_scaling 1.000 -->
<g id="edge7" class="edge">
<title>key 83074
bias &#45;0.526
h_scaling 1.000&#45;&gt;key 83074
bias &#45;0.526
h_scaling 1.000</title>
<path fill="none" stroke="red" stroke-width="2.7" d="M314.99,-772.05C326.54,-770.17 334.68,-765.07 334.68,-756.76 334.68,-751.04 330.84,-746.84 324.68,-744.17"/>
<polygon fill="red" stroke="red" stroke-width="2.7" points="325.56,-740.78 314.99,-741.46 323.68,-747.52 325.56,-740.78"/>
<text text-anchor="middle" x="348.68" y="-754.56" font-family="Times,serif" font-size="9.00">0.868</text>
</g>
<!-- key 83074
bias &#45;0.526
h_scaling 1.000&#45;&gt;key 173642
bias &#45;0.033
h_scaling 1.000 -->
<g id="edge10" class="edge">
<title>key 83074
bias &#45;0.526
h_scaling 1.000&#45;&gt;key 173642
bias &#45;0.033
h_scaling 1.000</title>
<path fill="none" stroke="red" stroke-width="1.15" d="M251.88,-692.95C249.55,-644.71 243.15,-576.9 226.04,-519.84 221.49,-504.64 214.87,-489.01 207.8,-474.52"/>
<polygon fill="red" stroke="red" stroke-width="1.15" points="210.72,-472.53 203.11,-465.17 204.47,-475.68 210.72,-472.53"/>
<text text-anchor="middle" x="262.04" y="-581.28" font-family="Times,serif" font-size="9.00">0.351</text>
</g>
<!-- key 83074
bias &#45;0.526
h_scaling 1.000&#45;&gt;key 2735
bias &#45;0.474
h_scaling 1.000 -->
<g id="edge5" class="edge">
<title>key 83074
bias &#45;0.526
h_scaling 1.000&#45;&gt;key 2735
bias &#45;0.474
h_scaling 1.000</title>
<path fill="none" stroke="blue" stroke-width="0.98" d="M211.99,-707.59C194.18,-686.7 173.22,-662.12 154.74,-640.43"/>
<polygon fill="blue" stroke="blue" stroke-width="0.98" points="157.2,-637.92 148.05,-632.58 151.87,-642.46 157.2,-637.92"/>
<text text-anchor="middle" x="195.54" y="-667.92" font-family="Times,serif" font-size="9.00">&#45;0.293</text>
</g>
<!-- key 173642
bias &#45;0.033
h_scaling 1.000&#45;&gt;output
bias &#45;0.854
h_scaling 1.000 -->
<g id="edge8" class="edge">
<title>key 173642
bias &#45;0.033
h_scaling 1.000&#45;&gt;output
bias &#45;0.854
h_scaling 1.000</title>
<path fill="none" stroke="red" stroke-width="3.09" d="M187.39,-348.33C190.85,-335.46 194.53,-321.77 198.07,-308.57"/>
<polygon fill="red" stroke="red" stroke-width="3.09" points="201.54,-309.16 200.75,-298.59 194.78,-307.34 201.54,-309.16"/>
<text text-anchor="middle" x="208.04" y="-321.36" font-family="Times,serif" font-size="9.00">0.996</text>
</g>
<!-- key 173642
bias &#45;0.033
h_scaling 1.000&#45;&gt;key 173642
bias &#45;0.033
h_scaling 1.000 -->
<g id="edge11" class="edge">
<title>key 173642
bias &#45;0.033
h_scaling 1.000&#45;&gt;key 173642
bias &#45;0.033
h_scaling 1.000</title>
<path fill="none" stroke="red" stroke-width="1.75" d="M232.99,-425.5C244.54,-423.61 252.68,-418.51 252.68,-410.2 252.68,-404.48 248.84,-400.29 242.68,-397.61"/>
<polygon fill="red" stroke="red" stroke-width="1.75" points="243.56,-394.22 232.99,-394.9 241.68,-400.96 243.56,-394.22"/>
<text text-anchor="middle" x="266.68" y="-408" font-family="Times,serif" font-size="9.00">0.549</text>
</g>
<!-- key 2735
bias &#45;0.474
h_scaling 1.000&#45;&gt;output
bias &#45;0.854
h_scaling 1.000 -->
<g id="edge3" class="edge">
<title>key 2735
bias &#45;0.474
h_scaling 1.000&#45;&gt;output
bias &#45;0.854
h_scaling 1.000</title>
<path fill="none" stroke="blue" stroke-width="3.1" d="M78.8,-526.13C58.08,-476.38 38.15,-403.17 67.04,-346.56 84.54,-312.28 118.46,-286.31 149.63,-268.37"/>
<polygon fill="blue" stroke="blue" stroke-width="3.1" points="151.72,-271.21 158.76,-263.29 148.32,-265.09 151.72,-271.21"/>
<text text-anchor="middle" x="82.54" y="-408" font-family="Times,serif" font-size="9.00">&#45;1.000</text>
</g>
<!-- key 2735
bias &#45;0.474
h_scaling 1.000&#45;&gt;key 173642
bias &#45;0.033
h_scaling 1.000 -->
<g id="edge9" class="edge">
<title>key 2735
bias &#45;0.474
h_scaling 1.000&#45;&gt;key 173642
bias &#45;0.033
h_scaling 1.000</title>
<path fill="none" stroke="blue" stroke-width="2.97" d="M129.07,-523.53C134.38,-509.32 140.1,-494.03 145.55,-479.43"/>
<polygon fill="blue" stroke="blue" stroke-width="2.97" points="148.87,-480.55 149.09,-469.96 142.31,-478.1 148.87,-480.55"/>
<text text-anchor="middle" x="154.54" y="-494.64" font-family="Times,serif" font-size="9.00">&#45;0.958</text>
</g>
<!-- key 2735
bias &#45;0.474
h_scaling 1.000&#45;&gt;key 2735
bias &#45;0.474
h_scaling 1.000 -->
<g id="edge1" class="edge">
<title>key 2735
bias &#45;0.474
h_scaling 1.000&#45;&gt;key 2735
bias &#45;0.474
h_scaling 1.000</title>
<path fill="none" stroke="red" stroke-width="3.06" d="M168.99,-598.77C180.54,-596.89 188.68,-591.79 188.68,-583.48 188.68,-577.76 184.84,-573.56 178.68,-570.89"/>
<polygon fill="red" stroke="red" stroke-width="3.06" points="179.56,-567.5 168.99,-568.18 177.68,-574.24 179.56,-567.5"/>
<text text-anchor="middle" x="202.68" y="-581.28" font-family="Times,serif" font-size="9.00">0.986</text>
</g>
<!-- key 389658
bias &#45;1.000
h_scaling 1.000&#45;&gt;key 83074
bias &#45;0.526
h_scaling 1.000 -->
<g id="edge14" class="edge">
<title>key 389658
bias &#45;1.000
h_scaling 1.000&#45;&gt;key 83074
bias &#45;0.526
h_scaling 1.000</title>
<path fill="none" stroke="blue" stroke-width="1.69" d="M332.85,-123.06C344.08,-155.69 355.04,-197.43 355.04,-235.92 355.04,-584.48 355.04,-584.48 355.04,-584.48 355.04,-628.67 329.67,-671.38 304.24,-703.1"/>
<polygon fill="blue" stroke="blue" stroke-width="1.69" points="301.45,-700.98 297.78,-710.93 306.85,-705.44 301.45,-700.98"/>
<text text-anchor="middle" x="370.54" y="-408" font-family="Times,serif" font-size="9.00">&#45;0.531</text>
</g>
</g>
</svg>
