<?xml version="1.0" encoding="UTF-8" standalone="no"?>
<!DOCTYPE svg PUBLIC "-//W3C//DTD SVG 1.1//EN"
 "http://www.w3.org/Graphics/SVG/1.1/DTD/svg11.dtd">
<!-- Generated by graphviz version 2.43.0 (0)
 -->
<!-- Title: %3 Pages: 1 -->
<svg width="573pt" height="1076pt"
 viewBox="0.00 0.00 572.83 1075.68" xmlns="http://www.w3.org/2000/svg" xmlns:xlink="http://www.w3.org/1999/xlink">
<g id="graph0" class="graph" transform="scale(1 1) rotate(0) translate(4 1071.68)">
<title>%3</title>
<polygon fill="white" stroke="transparent" points="-4,4 -4,-1071.68 568.83,-1071.68 568.83,4 -4,4"/>
<!-- ready
output 0.000 -->
<g id="node1" class="node">
<title>ready
output 0.000</title>
<polygon fill="yellow" stroke="black" points="470.33,-1067.68 393.33,-1067.68 393.33,-1039.68 470.33,-1039.68 470.33,-1067.68"/>
<text text-anchor="middle" x="431.83" y="-1056.48" font-family="Times,serif" font-size="9.00">ready</text>
<text text-anchor="middle" x="431.83" y="-1046.48" font-family="Times,serif" font-size="9.00">output 0.000</text>
</g>
<!-- key 36293
bias &#45;0.333
h_scaling 1.000
output 0.158 -->
<g id="node5" class="node">
<title>key 36293
bias &#45;0.333
h_scaling 1.000
output 0.158</title>
<ellipse fill="white" stroke="black" cx="142.83" cy="-930.04" rx="63.78" ry="63.78"/>
<text text-anchor="middle" x="142.83" y="-942.84" font-family="Times,serif" font-size="9.00">key 36293</text>
<text text-anchor="middle" x="142.83" y="-932.84" font-family="Times,serif" font-size="9.00">bias &#45;0.333</text>
<text text-anchor="middle" x="142.83" y="-922.84" font-family="Times,serif" font-size="9.00">h_scaling 1.000</text>
<text text-anchor="middle" x="142.83" y="-912.84" font-family="Times,serif" font-size="9.00">output 0.158</text>
</g>
<!-- ready
output 0.000&#45;&gt;key 36293
bias &#45;0.333
h_scaling 1.000
output 0.158 -->
<g id="edge10" class="edge">
<title>ready
output 0.000&#45;&gt;key 36293
bias &#45;0.333
h_scaling 1.000
output 0.158</title>
<path fill="none" stroke="red" stroke-width="0.1" d="M393.01,-1039.8C377.59,-1034.48 359.77,-1028.06 343.83,-1021.68 298.27,-1003.42 247.93,-980.71 209.02,-962.59"/>
<polygon fill="red" stroke="red" stroke-width="0.1" points="210.43,-959.39 199.89,-958.33 207.47,-965.73 210.43,-959.39"/>
<text text-anchor="middle" x="357.83" y="-1014.48" font-family="Times,serif" font-size="9.00">1.443</text>
</g>
<!-- key 3021
bias 0.435
h_scaling 1.000
output 0.548 -->
<g id="node6" class="node">
<title>key 3021
bias 0.435
h_scaling 1.000
output 0.548</title>
<ellipse fill="white" stroke="black" cx="275.83" cy="-410.2" rx="63.78" ry="63.78"/>
<text text-anchor="middle" x="275.83" y="-423" font-family="Times,serif" font-size="9.00">key 3021</text>
<text text-anchor="middle" x="275.83" y="-413" font-family="Times,serif" font-size="9.00">bias 0.435</text>
<text text-anchor="middle" x="275.83" y="-403" font-family="Times,serif" font-size="9.00">h_scaling 1.000</text>
<text text-anchor="middle" x="275.83" y="-393" font-family="Times,serif" font-size="9.00">output 0.548</text>
</g>
<!-- ready
output 0.000&#45;&gt;key 3021
bias 0.435
h_scaling 1.000
output 0.548 -->
<g id="edge6" class="edge">
<title>ready
output 0.000&#45;&gt;key 3021
bias 0.435
h_scaling 1.000
output 0.548</title>
<path fill="none" stroke="red" stroke-width="0.1" d="M440.48,-1039.43C453.81,-1017.73 477.83,-972.8 477.83,-931.04 477.83,-931.04 477.83,-931.04 477.83,-582.48 477.83,-506.15 402.66,-523.65 344.83,-473.84 340,-469.68 335.03,-465.32 330.07,-460.92"/>
<polygon fill="red" stroke="red" stroke-width="0.1" points="332.09,-458.03 322.3,-453.99 327.43,-463.26 332.09,-458.03"/>
<text text-anchor="middle" x="491.83" y="-754.56" font-family="Times,serif" font-size="9.00">0.244</text>
</g>
<!-- key 3022
bias 0.440
h_scaling 1.000
output 0.608 -->
<g id="node7" class="node">
<title>key 3022
bias 0.440
h_scaling 1.000
output 0.608</title>
<ellipse fill="white" stroke="black" cx="375.83" cy="-236.92" rx="63.78" ry="63.78"/>
<text text-anchor="middle" x="375.83" y="-249.72" font-family="Times,serif" font-size="9.00">key 3022</text>
<text text-anchor="middle" x="375.83" y="-239.72" font-family="Times,serif" font-size="9.00">bias 0.440</text>
<text text-anchor="middle" x="375.83" y="-229.72" font-family="Times,serif" font-size="9.00">h_scaling 1.000</text>
<text text-anchor="middle" x="375.83" y="-219.72" font-family="Times,serif" font-size="9.00">output 0.608</text>
</g>
<!-- ready
output 0.000&#45;&gt;key 3022
bias 0.440
h_scaling 1.000
output 0.608 -->
<g id="edge15" class="edge">
<title>ready
output 0.000&#45;&gt;key 3022
bias 0.440
h_scaling 1.000
output 0.608</title>
<path fill="none" stroke="blue" stroke-width="0.1" d="M453.96,-1039.67C483.96,-1020.18 533.83,-980.37 533.83,-931.04 533.83,-931.04 533.83,-931.04 533.83,-409.2 533.83,-350.86 483.7,-303.9 439.91,-274"/>
<polygon fill="blue" stroke="blue" stroke-width="0.1" points="441.8,-271.06 431.54,-268.44 437.93,-276.89 441.8,-271.06"/>
<text text-anchor="middle" x="549.33" y="-667.92" font-family="Times,serif" font-size="9.00">&#45;0.256</text>
</g>
<!-- key 7838
bias 0.430
h_scaling 1.000
output 0.030 -->
<g id="node8" class="node">
<title>key 7838
bias 0.430
h_scaling 1.000
output 0.030</title>
<ellipse fill="white" stroke="black" cx="221.83" cy="-583.48" rx="63.78" ry="63.78"/>
<text text-anchor="middle" x="221.83" y="-596.28" font-family="Times,serif" font-size="9.00">key 7838</text>
<text text-anchor="middle" x="221.83" y="-586.28" font-family="Times,serif" font-size="9.00">bias 0.430</text>
<text text-anchor="middle" x="221.83" y="-576.28" font-family="Times,serif" font-size="9.00">h_scaling 1.000</text>
<text text-anchor="middle" x="221.83" y="-566.28" font-family="Times,serif" font-size="9.00">output 0.030</text>
</g>
<!-- ready
output 0.000&#45;&gt;key 7838
bias 0.430
h_scaling 1.000
output 0.030 -->
<g id="edge7" class="edge">
<title>ready
output 0.000&#45;&gt;key 7838
bias 0.430
h_scaling 1.000
output 0.030</title>
<path fill="none" stroke="blue" stroke-width="0.1" d="M428.47,-1039.37C420.36,-1006.92 399.48,-921.02 386.83,-848.4 374.89,-779.85 401.88,-753.23 366.83,-693.12 348.38,-661.47 316.71,-636.14 287.66,-617.92"/>
<polygon fill="blue" stroke="blue" stroke-width="0.1" points="289.12,-614.71 278.75,-612.5 285.48,-620.68 289.12,-614.71"/>
<text text-anchor="middle" x="402.33" y="-841.2" font-family="Times,serif" font-size="9.00">&#45;0.408</text>
</g>
<!-- go
output 0.000 -->
<g id="node2" class="node">
<title>go
output 0.000</title>
<polygon fill="green" stroke="black" points="112.33,-1067.68 35.33,-1067.68 35.33,-1039.68 112.33,-1039.68 112.33,-1067.68"/>
<text text-anchor="middle" x="73.83" y="-1056.48" font-family="Times,serif" font-size="9.00">go</text>
<text text-anchor="middle" x="73.83" y="-1046.48" font-family="Times,serif" font-size="9.00">output 0.000</text>
</g>
<!-- go
output 0.000&#45;&gt;key 36293
bias &#45;0.333
h_scaling 1.000
output 0.158 -->
<g id="edge20" class="edge">
<title>go
output 0.000&#45;&gt;key 36293
bias &#45;0.333
h_scaling 1.000
output 0.158</title>
<path fill="none" stroke="blue" stroke-width="0.1" d="M81.21,-1039.66C87.49,-1028.59 97,-1011.83 106.69,-994.76"/>
<polygon fill="blue" stroke="blue" stroke-width="0.1" points="109.86,-996.25 111.75,-985.83 103.77,-992.8 109.86,-996.25"/>
<text text-anchor="middle" x="112.33" y="-1014.48" font-family="Times,serif" font-size="9.00">&#45;0.391</text>
</g>
<!-- go
output 0.000&#45;&gt;key 3021
bias 0.435
h_scaling 1.000
output 0.548 -->
<g id="edge16" class="edge">
<title>go
output 0.000&#45;&gt;key 3021
bias 0.435
h_scaling 1.000
output 0.548</title>
<path fill="none" stroke="blue" stroke-width="0.1" d="M64.6,-1039.29C57.14,-1027.75 47.05,-1010.36 41.83,-993.68 1.88,-865.93 -18.56,-820.41 22.83,-693.12 56.47,-589.66 152.28,-502.19 215.86,-453.25"/>
<polygon fill="blue" stroke="blue" stroke-width="0.1" points="218,-456.02 223.84,-447.18 213.76,-450.45 218,-456.02"/>
<text text-anchor="middle" x="38.33" y="-754.56" font-family="Times,serif" font-size="9.00">&#45;0.938</text>
</g>
<!-- go
output 0.000&#45;&gt;key 3022
bias 0.440
h_scaling 1.000
output 0.608 -->
<g id="edge1" class="edge">
<title>go
output 0.000&#45;&gt;key 3022
bias 0.440
h_scaling 1.000
output 0.608</title>
<path fill="none" stroke="blue" stroke-width="0.1" d="M112.42,-1052.87C183.74,-1052.57 332.85,-1048.61 375.83,-1021.68 415.95,-996.53 431.83,-978.39 431.83,-931.04 431.83,-931.04 431.83,-931.04 431.83,-409.2 431.83,-373.19 420.51,-334.94 408.05,-303.74"/>
<polygon fill="blue" stroke="blue" stroke-width="0.1" points="411.2,-302.21 404.16,-294.3 404.73,-304.87 411.2,-302.21"/>
<text text-anchor="middle" x="447.33" y="-667.92" font-family="Times,serif" font-size="9.00">&#45;0.262</text>
</g>
<!-- go
output 0.000&#45;&gt;key 7838
bias 0.430
h_scaling 1.000
output 0.030 -->
<g id="edge8" class="edge">
<title>go
output 0.000&#45;&gt;key 7838
bias 0.430
h_scaling 1.000
output 0.030</title>
<path fill="none" stroke="red" stroke-width="0.1" d="M69.45,-1039.43C58.89,-1005.52 34.14,-912.99 51.83,-838.4 70.54,-759.51 127.49,-684.32 170.36,-636.52"/>
<polygon fill="red" stroke="red" stroke-width="0.1" points="172.98,-638.85 177.11,-629.09 167.8,-634.14 172.98,-638.85"/>
<text text-anchor="middle" x="65.83" y="-841.2" font-family="Times,serif" font-size="9.00">1.136</text>
</g>
<!-- output
bias &#45;0.116
h_scaling 1.000
output 0.042 -->
<g id="node3" class="node">
<title>output
bias &#45;0.116
h_scaling 1.000
output 0.042</title>
<ellipse fill="lightblue" stroke="black" cx="183.83" cy="-63.64" rx="63.78" ry="63.78"/>
<text text-anchor="middle" x="183.83" y="-76.44" font-family="Times,serif" font-size="9.00">output</text>
<text text-anchor="middle" x="183.83" y="-66.44" font-family="Times,serif" font-size="9.00">bias &#45;0.116</text>
<text text-anchor="middle" x="183.83" y="-56.44" font-family="Times,serif" font-size="9.00">h_scaling 1.000</text>
<text text-anchor="middle" x="183.83" y="-46.44" font-family="Times,serif" font-size="9.00">output 0.042</text>
</g>
<!-- output
bias &#45;0.116
h_scaling 1.000
output 0.042&#45;&gt;key 36293
bias &#45;0.333
h_scaling 1.000
output 0.158 -->
<g id="edge17" class="edge">
<title>output
bias &#45;0.116
h_scaling 1.000
output 0.042&#45;&gt;key 36293
bias &#45;0.333
h_scaling 1.000
output 0.158</title>
<path fill="none" stroke="blue" stroke-width="0.1" d="M163.59,-124.1C158.96,-139.91 154.59,-157.1 151.83,-173.28 112.88,-401.33 130.83,-461.84 124.83,-693.12 122.27,-791.93 121.91,-816.38 125.83,-848.4 126.2,-851.42 126.63,-854.5 127.1,-857.61"/>
<polygon fill="blue" stroke="blue" stroke-width="0.1" points="123.66,-858.28 128.74,-867.58 130.57,-857.14 123.66,-858.28"/>
<text text-anchor="middle" x="140.33" y="-494.64" font-family="Times,serif" font-size="9.00">&#45;0.238</text>
</g>
<!-- output
bias &#45;0.116
h_scaling 1.000
output 0.042&#45;&gt;key 7838
bias 0.430
h_scaling 1.000
output 0.030 -->
<g id="edge21" class="edge">
<title>output
bias &#45;0.116
h_scaling 1.000
output 0.042&#45;&gt;key 7838
bias 0.430
h_scaling 1.000
output 0.030</title>
<path fill="none" stroke="red" stroke-width="0.1" d="M171.26,-126.25C161.95,-179.74 151.98,-259.28 158.83,-328.56 165.31,-394.08 171.53,-410.04 187.83,-473.84 191.09,-486.58 194.95,-500.04 198.88,-512.98"/>
<polygon fill="red" stroke="red" stroke-width="0.1" points="195.6,-514.22 201.89,-522.75 202.29,-512.16 195.6,-514.22"/>
<text text-anchor="middle" x="172.83" y="-321.36" font-family="Times,serif" font-size="9.00">0.234</text>
</g>
<!-- key 53346
bias &#45;0.668
h_scaling 1.000
output 0.731 -->
<g id="node4" class="node">
<title>key 53346
bias &#45;0.668
h_scaling 1.000
output 0.731</title>
<ellipse fill="white" stroke="black" cx="247.83" cy="-756.76" rx="63.78" ry="63.78"/>
<text text-anchor="middle" x="247.83" y="-769.56" font-family="Times,serif" font-size="9.00">key 53346</text>
<text text-anchor="middle" x="247.83" y="-759.56" font-family="Times,serif" font-size="9.00">bias &#45;0.668</text>
<text text-anchor="middle" x="247.83" y="-749.56" font-family="Times,serif" font-size="9.00">h_scaling 1.000</text>
<text text-anchor="middle" x="247.83" y="-739.56" font-family="Times,serif" font-size="9.00">output 0.731</text>
</g>
<!-- key 53346
bias &#45;0.668
h_scaling 1.000
output 0.731&#45;&gt;key 53346
bias &#45;0.668
h_scaling 1.000
output 0.731 -->
<g id="edge14" class="edge">
<title>key 53346
bias &#45;0.668
h_scaling 1.000
output 0.731&#45;&gt;key 53346
bias &#45;0.668
h_scaling 1.000
output 0.731</title>
<path fill="none" stroke="red" stroke-width="0.1" d="M309.77,-772.05C321.33,-770.17 329.47,-765.07 329.47,-756.76 329.47,-751.04 325.62,-746.84 319.46,-744.17"/>
<polygon fill="red" stroke="red" stroke-width="0.1" points="320.35,-740.78 309.77,-741.46 318.46,-747.52 320.35,-740.78"/>
<text text-anchor="middle" x="343.47" y="-754.56" font-family="Times,serif" font-size="9.00">1.014</text>
</g>
<!-- key 53346
bias &#45;0.668
h_scaling 1.000
output 0.731&#45;&gt;key 7838
bias 0.430
h_scaling 1.000
output 0.030 -->
<g id="edge13" class="edge">
<title>key 53346
bias &#45;0.668
h_scaling 1.000
output 0.731&#45;&gt;key 7838
bias 0.430
h_scaling 1.000
output 0.030</title>
<path fill="none" stroke="blue" stroke-width="0.1" d="M238.37,-693.44C236.56,-681.48 234.64,-668.87 232.78,-656.63"/>
<polygon fill="blue" stroke="blue" stroke-width="0.1" points="236.2,-655.83 231.24,-646.46 229.28,-656.88 236.2,-655.83"/>
<text text-anchor="middle" x="250.33" y="-667.92" font-family="Times,serif" font-size="9.00">&#45;0.615</text>
</g>
<!-- key 36293
bias &#45;0.333
h_scaling 1.000
output 0.158&#45;&gt;key 53346
bias &#45;0.668
h_scaling 1.000
output 0.731 -->
<g id="edge12" class="edge">
<title>key 36293
bias &#45;0.333
h_scaling 1.000
output 0.158&#45;&gt;key 53346
bias &#45;0.668
h_scaling 1.000
output 0.731</title>
<path fill="none" stroke="red" stroke-width="0.1" d="M175.77,-875.31C186.52,-857.78 198.54,-838.16 209.65,-820.04"/>
<polygon fill="red" stroke="red" stroke-width="0.1" points="212.77,-821.64 215.01,-811.29 206.8,-817.99 212.77,-821.64"/>
<text text-anchor="middle" x="208.83" y="-841.2" font-family="Times,serif" font-size="9.00">1.031</text>
</g>
<!-- key 36293
bias &#45;0.333
h_scaling 1.000
output 0.158&#45;&gt;key 7838
bias 0.430
h_scaling 1.000
output 0.030 -->
<g id="edge11" class="edge">
<title>key 36293
bias &#45;0.333
h_scaling 1.000
output 0.158&#45;&gt;key 7838
bias 0.430
h_scaling 1.000
output 0.030</title>
<path fill="none" stroke="blue" stroke-width="0.1" d="M132.98,-867.05C127.65,-818.5 125.42,-749.9 143.83,-693.12 150.05,-673.93 161.03,-655.26 172.82,-638.96"/>
<polygon fill="blue" stroke="blue" stroke-width="0.1" points="175.84,-640.76 179.04,-630.66 170.24,-636.56 175.84,-640.76"/>
<text text-anchor="middle" x="159.33" y="-754.56" font-family="Times,serif" font-size="9.00">&#45;0.139</text>
</g>
<!-- key 3021
bias 0.435
h_scaling 1.000
output 0.548&#45;&gt;output
bias &#45;0.116
h_scaling 1.000
output 0.042 -->
<g id="edge4" class="edge">
<title>key 3021
bias 0.435
h_scaling 1.000
output 0.548&#45;&gt;output
bias &#45;0.116
h_scaling 1.000
output 0.042</title>
<path fill="none" stroke="red" stroke-width="0.1" d="M259.59,-348.39C243.68,-288.79 219.44,-198 202.68,-135.24"/>
<polygon fill="red" stroke="red" stroke-width="0.1" points="206.02,-134.18 200.06,-125.42 199.26,-135.98 206.02,-134.18"/>
<text text-anchor="middle" x="259.83" y="-234.72" font-family="Times,serif" font-size="9.00">0.965</text>
</g>
<!-- key 3021
bias 0.435
h_scaling 1.000
output 0.548&#45;&gt;key 3022
bias 0.440
h_scaling 1.000
output 0.608 -->
<g id="edge5" class="edge">
<title>key 3021
bias 0.435
h_scaling 1.000
output 0.548&#45;&gt;key 3022
bias 0.440
h_scaling 1.000
output 0.608</title>
<path fill="none" stroke="blue" stroke-width="0.1" d="M307.75,-354.53C317.63,-337.61 328.6,-318.82 338.79,-301.35"/>
<polygon fill="blue" stroke="blue" stroke-width="0.1" points="342.03,-302.76 344.05,-292.36 335.98,-299.23 342.03,-302.76"/>
<text text-anchor="middle" x="341.33" y="-321.36" font-family="Times,serif" font-size="9.00">&#45;1.000</text>
</g>
<!-- key 3021
bias 0.435
h_scaling 1.000
output 0.548&#45;&gt;key 7838
bias 0.430
h_scaling 1.000
output 0.030 -->
<g id="edge9" class="edge">
<title>key 3021
bias 0.435
h_scaling 1.000
output 0.548&#45;&gt;key 7838
bias 0.430
h_scaling 1.000
output 0.030</title>
<path fill="none" stroke="blue" stroke-width="0.1" d="M234.76,-459.37C228.2,-469.51 222.41,-480.56 218.83,-491.84 216.95,-497.75 215.72,-503.98 214.99,-510.3"/>
<polygon fill="blue" stroke="blue" stroke-width="0.1" points="211.5,-510.03 214.22,-520.27 218.48,-510.57 211.5,-510.03"/>
<text text-anchor="middle" x="234.33" y="-494.64" font-family="Times,serif" font-size="9.00">&#45;0.792</text>
</g>
<!-- key 3022
bias 0.440
h_scaling 1.000
output 0.608&#45;&gt;output
bias &#45;0.116
h_scaling 1.000
output 0.042 -->
<g id="edge2" class="edge">
<title>key 3022
bias 0.440
h_scaling 1.000
output 0.608&#45;&gt;output
bias &#45;0.116
h_scaling 1.000
output 0.042</title>
<path fill="none" stroke="blue" stroke-width="0.1" d="M328.37,-193.58C301.27,-169.4 267.16,-138.98 238.89,-113.75"/>
<polygon fill="blue" stroke="blue" stroke-width="0.1" points="240.87,-110.83 231.08,-106.79 236.21,-116.06 240.87,-110.83"/>
<text text-anchor="middle" x="295.33" y="-148.08" font-family="Times,serif" font-size="9.00">&#45;1.000</text>
</g>
<!-- key 7838
bias 0.430
h_scaling 1.000
output 0.030&#45;&gt;output
bias &#45;0.116
h_scaling 1.000
output 0.042 -->
<g id="edge19" class="edge">
<title>key 7838
bias 0.430
h_scaling 1.000
output 0.030&#45;&gt;output
bias &#45;0.116
h_scaling 1.000
output 0.042</title>
<path fill="none" stroke="blue" stroke-width="0.1" d="M209.67,-520.91C207.02,-505.59 204.52,-489.16 202.83,-473.84 189.92,-356.73 185.77,-219.83 184.44,-137.79"/>
<polygon fill="blue" stroke="blue" stroke-width="0.1" points="187.93,-137.52 184.28,-127.57 180.93,-137.63 187.93,-137.52"/>
<text text-anchor="middle" x="206.33" y="-321.36" font-family="Times,serif" font-size="9.00">&#45;0.987</text>
</g>
<!-- key 7838
bias 0.430
h_scaling 1.000
output 0.030&#45;&gt;key 3021
bias 0.435
h_scaling 1.000
output 0.548 -->
<g id="edge3" class="edge">
<title>key 7838
bias 0.430
h_scaling 1.000
output 0.030&#45;&gt;key 3021
bias 0.435
h_scaling 1.000
output 0.548</title>
<path fill="none" stroke="blue" stroke-width="0.1" d="M246.05,-524.25C248.83,-516.76 251.5,-509.16 253.83,-501.84 255.84,-495.51 257.77,-488.89 259.6,-482.23"/>
<polygon fill="blue" stroke="blue" stroke-width="0.1" points="263.01,-483.03 262.19,-472.47 256.24,-481.23 263.01,-483.03"/>
<text text-anchor="middle" x="271.33" y="-494.64" font-family="Times,serif" font-size="9.00">&#45;0.993</text>
</g>
<!-- key 7838
bias 0.430
h_scaling 1.000
output 0.030&#45;&gt;key 3022
bias 0.440
h_scaling 1.000
output 0.608 -->
<g id="edge18" class="edge">
<title>key 7838
bias 0.430
h_scaling 1.000
output 0.030&#45;&gt;key 3022
bias 0.440
h_scaling 1.000
output 0.608</title>
<path fill="none" stroke="red" stroke-width="0.1" d="M276.14,-550.03C302.59,-531.23 332.22,-505.09 348.83,-473.84 375.43,-423.79 381.25,-359.47 380.93,-310.63"/>
<polygon fill="red" stroke="red" stroke-width="0.1" points="384.43,-310.4 380.78,-300.45 377.43,-310.5 384.43,-310.4"/>
<text text-anchor="middle" x="393.83" y="-408" font-family="Times,serif" font-size="9.00">1.195</text>
</g>
</g>
</svg>
