<?xml version="1.0" encoding="UTF-8" standalone="no"?>
<!DOCTYPE svg PUBLIC "-//W3C//DTD SVG 1.1//EN"
 "http://www.w3.org/Graphics/SVG/1.1/DTD/svg11.dtd">
<!-- Generated by graphviz version 2.43.0 (0)
 -->
<!-- Title: %3 Pages: 1 -->
<svg width="517pt" height="1076pt"
 viewBox="0.00 0.00 517.00 1075.68" xmlns="http://www.w3.org/2000/svg" xmlns:xlink="http://www.w3.org/1999/xlink">
<g id="graph0" class="graph" transform="scale(1 1) rotate(0) translate(4 1071.68)">
<title>%3</title>
<polygon fill="white" stroke="transparent" points="-4,4 -4,-1071.68 513,-1071.68 513,4 -4,4"/>
<!-- ready
output 0.000 -->
<g id="node1" class="node">
<title>ready
output 0.000</title>
<polygon fill="yellow" stroke="black" points="355.5,-1067.68 278.5,-1067.68 278.5,-1039.68 355.5,-1039.68 355.5,-1067.68"/>
<text text-anchor="middle" x="317" y="-1056.48" font-family="Times,serif" font-size="9.00">ready</text>
<text text-anchor="middle" x="317" y="-1046.48" font-family="Times,serif" font-size="9.00">output 0.000</text>
</g>
<!-- key 2049
bias &#45;0.583
h_scaling 0.660
output 0.685 -->
<g id="node4" class="node">
<title>key 2049
bias &#45;0.583
h_scaling 0.660
output 0.685</title>
<ellipse fill="white" stroke="black" cx="319" cy="-930.04" rx="63.78" ry="63.78"/>
<text text-anchor="middle" x="319" y="-942.84" font-family="Times,serif" font-size="9.00">key 2049</text>
<text text-anchor="middle" x="319" y="-932.84" font-family="Times,serif" font-size="9.00">bias &#45;0.583</text>
<text text-anchor="middle" x="319" y="-922.84" font-family="Times,serif" font-size="9.00">h_scaling 0.660</text>
<text text-anchor="middle" x="319" y="-912.84" font-family="Times,serif" font-size="9.00">output 0.685</text>
</g>
<!-- ready
output 0.000&#45;&gt;key 2049
bias &#45;0.583
h_scaling 0.660
output 0.685 -->
<g id="edge8" class="edge">
<title>ready
output 0.000&#45;&gt;key 2049
bias &#45;0.583
h_scaling 0.660
output 0.685</title>
<path fill="none" stroke="red" stroke-width="0.1" d="M317.21,-1039.66C317.36,-1030.58 317.58,-1017.67 317.8,-1003.91"/>
<polygon fill="red" stroke="red" stroke-width="0.1" points="321.3,-1003.83 317.97,-993.77 314.3,-1003.71 321.3,-1003.83"/>
<text text-anchor="middle" x="332" y="-1014.48" font-family="Times,serif" font-size="9.00">0.362</text>
</g>
<!-- key 27460
bias &#45;0.589
h_scaling 0.661
output 0.589 -->
<g id="node6" class="node">
<title>key 27460
bias &#45;0.589
h_scaling 0.661
output 0.589</title>
<ellipse fill="white" stroke="black" cx="194" cy="-583.48" rx="63.78" ry="63.78"/>
<text text-anchor="middle" x="194" y="-596.28" font-family="Times,serif" font-size="9.00">key 27460</text>
<text text-anchor="middle" x="194" y="-586.28" font-family="Times,serif" font-size="9.00">bias &#45;0.589</text>
<text text-anchor="middle" x="194" y="-576.28" font-family="Times,serif" font-size="9.00">h_scaling 0.661</text>
<text text-anchor="middle" x="194" y="-566.28" font-family="Times,serif" font-size="9.00">output 0.589</text>
</g>
<!-- ready
output 0.000&#45;&gt;key 27460
bias &#45;0.589
h_scaling 0.661
output 0.589 -->
<g id="edge6" class="edge">
<title>ready
output 0.000&#45;&gt;key 27460
bias &#45;0.589
h_scaling 0.661
output 0.589</title>
<path fill="none" stroke="red" stroke-width="0.1" d="M295.12,-1039.5C279.34,-1028.94 258.67,-1012.77 246,-993.68 178.5,-891.93 177.85,-744.2 184.94,-656.87"/>
<polygon fill="red" stroke="red" stroke-width="0.1" points="188.44,-657.06 185.81,-646.79 181.46,-656.45 188.44,-657.06"/>
<text text-anchor="middle" x="206" y="-841.2" font-family="Times,serif" font-size="9.00">0.644</text>
</g>
<!-- key 25456
bias &#45;0.668
h_scaling 0.000
output 0.839 -->
<g id="node7" class="node">
<title>key 25456
bias &#45;0.668
h_scaling 0.000
output 0.839</title>
<ellipse fill="white" stroke="black" cx="332" cy="-410.2" rx="63.78" ry="63.78"/>
<text text-anchor="middle" x="332" y="-423" font-family="Times,serif" font-size="9.00">key 25456</text>
<text text-anchor="middle" x="332" y="-413" font-family="Times,serif" font-size="9.00">bias &#45;0.668</text>
<text text-anchor="middle" x="332" y="-403" font-family="Times,serif" font-size="9.00">h_scaling 0.000</text>
<text text-anchor="middle" x="332" y="-393" font-family="Times,serif" font-size="9.00">output 0.839</text>
</g>
<!-- ready
output 0.000&#45;&gt;key 25456
bias &#45;0.668
h_scaling 0.000
output 0.839 -->
<g id="edge3" class="edge">
<title>ready
output 0.000&#45;&gt;key 25456
bias &#45;0.668
h_scaling 0.000
output 0.839</title>
<path fill="none" stroke="red" stroke-width="0.1" d="M355.92,-1046.97C371.88,-1042.64 389.12,-1035.04 400,-1021.68 425.74,-990.06 414,-971.8 414,-931.04 414,-931.04 414,-931.04 414,-582.48 414,-542.25 395.37,-501.45 375.87,-469.77"/>
<polygon fill="red" stroke="red" stroke-width="0.1" points="378.67,-467.66 370.36,-461.09 372.76,-471.41 378.67,-467.66"/>
<text text-anchor="middle" x="428" y="-754.56" font-family="Times,serif" font-size="9.00">0.311</text>
</g>
<!-- go
output 0.000 -->
<g id="node2" class="node">
<title>go
output 0.000</title>
<polygon fill="green" stroke="black" points="483.5,-1067.68 406.5,-1067.68 406.5,-1039.68 483.5,-1039.68 483.5,-1067.68"/>
<text text-anchor="middle" x="445" y="-1056.48" font-family="Times,serif" font-size="9.00">go</text>
<text text-anchor="middle" x="445" y="-1046.48" font-family="Times,serif" font-size="9.00">output 0.000</text>
</g>
<!-- go
output 0.000&#45;&gt;key 2049
bias &#45;0.583
h_scaling 0.660
output 0.685 -->
<g id="edge2" class="edge">
<title>go
output 0.000&#45;&gt;key 2049
bias &#45;0.583
h_scaling 0.660
output 0.685</title>
<path fill="none" stroke="blue" stroke-width="0.1" d="M431.52,-1039.66C417.2,-1025.84 393.67,-1003.12 371.81,-982.02"/>
<polygon fill="blue" stroke="blue" stroke-width="0.1" points="374.11,-979.37 364.48,-974.95 369.25,-984.41 374.11,-979.37"/>
<text text-anchor="middle" x="426.5" y="-1014.48" font-family="Times,serif" font-size="9.00">&#45;0.998</text>
</g>
<!-- go
output 0.000&#45;&gt;key 25456
bias &#45;0.668
h_scaling 0.000
output 0.839 -->
<g id="edge9" class="edge">
<title>go
output 0.000&#45;&gt;key 25456
bias &#45;0.668
h_scaling 0.000
output 0.839</title>
<path fill="none" stroke="blue" stroke-width="0.1" d="M451.05,-1039.49C460.58,-1017.51 478,-971.73 478,-931.04 478,-931.04 478,-931.04 478,-582.48 478,-527.58 434.02,-481.35 394.34,-450.8"/>
<polygon fill="blue" stroke="blue" stroke-width="0.1" points="396.05,-447.72 385.95,-444.53 391.86,-453.32 396.05,-447.72"/>
<text text-anchor="middle" x="493.5" y="-754.56" font-family="Times,serif" font-size="9.00">&#45;1.000</text>
</g>
<!-- output
bias &#45;0.989
h_scaling 0.550
output 0.505 -->
<g id="node3" class="node">
<title>output
bias &#45;0.989
h_scaling 0.550
output 0.505</title>
<ellipse fill="lightblue" stroke="black" cx="84" cy="-756.76" rx="63.78" ry="63.78"/>
<text text-anchor="middle" x="84" y="-769.56" font-family="Times,serif" font-size="9.00">output</text>
<text text-anchor="middle" x="84" y="-759.56" font-family="Times,serif" font-size="9.00">bias &#45;0.989</text>
<text text-anchor="middle" x="84" y="-749.56" font-family="Times,serif" font-size="9.00">h_scaling 0.550</text>
<text text-anchor="middle" x="84" y="-739.56" font-family="Times,serif" font-size="9.00">output 0.505</text>
</g>
<!-- output
bias &#45;0.989
h_scaling 0.550
output 0.505&#45;&gt;key 27460
bias &#45;0.589
h_scaling 0.661
output 0.589 -->
<g id="edge11" class="edge">
<title>output
bias &#45;0.989
h_scaling 0.550
output 0.505&#45;&gt;key 27460
bias &#45;0.589
h_scaling 0.661
output 0.589</title>
<path fill="none" stroke="blue" stroke-width="0.1" d="M118.2,-702.5C129.69,-684.61 142.6,-664.52 154.46,-646.04"/>
<polygon fill="blue" stroke="blue" stroke-width="0.1" points="157.55,-647.71 160.01,-637.4 151.66,-643.93 157.55,-647.71"/>
<text text-anchor="middle" x="154.5" y="-667.92" font-family="Times,serif" font-size="9.00">&#45;0.224</text>
</g>
<!-- key 120319
bias 0.465
h_scaling 0.000
output 0.915 -->
<g id="node8" class="node">
<title>key 120319
bias 0.465
h_scaling 0.000
output 0.915</title>
<ellipse fill="white" stroke="black" cx="80" cy="-63.64" rx="63.78" ry="63.78"/>
<text text-anchor="middle" x="80" y="-76.44" font-family="Times,serif" font-size="9.00">key 120319</text>
<text text-anchor="middle" x="80" y="-66.44" font-family="Times,serif" font-size="9.00">bias 0.465</text>
<text text-anchor="middle" x="80" y="-56.44" font-family="Times,serif" font-size="9.00">h_scaling 0.000</text>
<text text-anchor="middle" x="80" y="-46.44" font-family="Times,serif" font-size="9.00">output 0.915</text>
</g>
<!-- output
bias &#45;0.989
h_scaling 0.550
output 0.505&#45;&gt;key 120319
bias 0.465
h_scaling 0.000
output 0.915 -->
<g id="edge13" class="edge">
<title>output
bias &#45;0.989
h_scaling 0.550
output 0.505&#45;&gt;key 120319
bias 0.465
h_scaling 0.000
output 0.915</title>
<path fill="none" stroke="red" stroke-width="0.1" d="M44.95,-706.37C23.01,-673.71 0,-628.86 0,-584.48 0,-584.48 0,-584.48 0,-235.92 0,-196.02 18.04,-155.39 36.99,-123.72"/>
<polygon fill="red" stroke="red" stroke-width="0.1" points="40.08,-125.38 42.34,-115.03 34.12,-121.71 40.08,-125.38"/>
<text text-anchor="middle" x="14" y="-408" font-family="Times,serif" font-size="9.00">0.171</text>
</g>
<!-- key 2049
bias &#45;0.583
h_scaling 0.660
output 0.685&#45;&gt;output
bias &#45;0.989
h_scaling 0.550
output 0.505 -->
<g id="edge1" class="edge">
<title>key 2049
bias &#45;0.583
h_scaling 0.660
output 0.685&#45;&gt;output
bias &#45;0.989
h_scaling 0.550
output 0.505</title>
<path fill="none" stroke="red" stroke-width="0.1" d="M278.85,-880.46C265.47,-865.93 249.91,-850.62 234,-838.4 208.62,-818.89 177.88,-801.46 150.86,-787.84"/>
<polygon fill="red" stroke="red" stroke-width="0.1" points="152.36,-784.68 141.84,-783.37 149.25,-790.95 152.36,-784.68"/>
<text text-anchor="middle" x="259" y="-841.2" font-family="Times,serif" font-size="9.00">1.044</text>
</g>
<!-- key 2049
bias &#45;0.583
h_scaling 0.660
output 0.685&#45;&gt;key 25456
bias &#45;0.668
h_scaling 0.000
output 0.839 -->
<g id="edge5" class="edge">
<title>key 2049
bias &#45;0.583
h_scaling 0.660
output 0.685&#45;&gt;key 25456
bias &#45;0.668
h_scaling 0.000
output 0.839</title>
<path fill="none" stroke="red" stroke-width="0.1" d="M318.47,-866.37C318.2,-812.89 318.24,-733.94 320,-665.12 321.56,-604.03 324.94,-534.74 327.72,-484"/>
<polygon fill="red" stroke="red" stroke-width="0.1" points="331.23,-483.96 328.28,-473.78 324.24,-483.57 331.23,-483.96"/>
<text text-anchor="middle" x="334" y="-667.92" font-family="Times,serif" font-size="9.00">0.781</text>
</g>
<!-- key 259297
bias &#45;0.067
h_scaling 0.991
output 0.058 -->
<g id="node5" class="node">
<title>key 259297
bias &#45;0.067
h_scaling 0.991
output 0.058</title>
<ellipse fill="white" stroke="black" cx="172" cy="-236.92" rx="63.78" ry="63.78"/>
<text text-anchor="middle" x="172" y="-249.72" font-family="Times,serif" font-size="9.00">key 259297</text>
<text text-anchor="middle" x="172" y="-239.72" font-family="Times,serif" font-size="9.00">bias &#45;0.067</text>
<text text-anchor="middle" x="172" y="-229.72" font-family="Times,serif" font-size="9.00">h_scaling 0.991</text>
<text text-anchor="middle" x="172" y="-219.72" font-family="Times,serif" font-size="9.00">output 0.058</text>
</g>
<!-- key 259297
bias &#45;0.067
h_scaling 0.991
output 0.058&#45;&gt;output
bias &#45;0.989
h_scaling 0.550
output 0.505 -->
<g id="edge18" class="edge">
<title>key 259297
bias &#45;0.067
h_scaling 0.991
output 0.058&#45;&gt;output
bias &#45;0.989
h_scaling 0.550
output 0.505</title>
<path fill="none" stroke="blue" stroke-width="0.1" d="M142.86,-293.54C115.51,-349.1 76.57,-437.8 61,-519.84 55.86,-546.92 55.17,-627.51 63,-675.12 63.56,-678.5 64.19,-681.95 64.88,-685.43"/>
<polygon fill="blue" stroke="blue" stroke-width="0.1" points="61.47,-686.19 66.97,-695.25 68.31,-684.74 61.47,-686.19"/>
<text text-anchor="middle" x="83.5" y="-494.64" font-family="Times,serif" font-size="9.00">&#45;0.274</text>
</g>
<!-- key 259297
bias &#45;0.067
h_scaling 0.991
output 0.058&#45;&gt;key 120319
bias 0.465
h_scaling 0.000
output 0.915 -->
<g id="edge17" class="edge">
<title>key 259297
bias &#45;0.067
h_scaling 0.991
output 0.058&#45;&gt;key 120319
bias 0.465
h_scaling 0.000
output 0.915</title>
<path fill="none" stroke="blue" stroke-width="0.1" d="M142.13,-180.31C133.36,-163.99 123.7,-146.01 114.67,-129.18"/>
<polygon fill="blue" stroke="blue" stroke-width="0.1" points="117.54,-127.12 109.72,-119.97 111.37,-130.44 117.54,-127.12"/>
<text text-anchor="middle" x="141.5" y="-148.08" font-family="Times,serif" font-size="9.00">&#45;0.369</text>
</g>
<!-- key 27460
bias &#45;0.589
h_scaling 0.661
output 0.589&#45;&gt;key 27460
bias &#45;0.589
h_scaling 0.661
output 0.589 -->
<g id="edge10" class="edge">
<title>key 27460
bias &#45;0.589
h_scaling 0.661
output 0.589&#45;&gt;key 27460
bias &#45;0.589
h_scaling 0.661
output 0.589</title>
<path fill="none" stroke="red" stroke-width="0.1" d="M255.94,-598.77C267.5,-596.89 275.64,-591.79 275.64,-583.48 275.64,-577.76 271.79,-573.56 265.63,-570.89"/>
<polygon fill="red" stroke="red" stroke-width="0.1" points="266.52,-567.5 255.94,-568.18 264.63,-574.24 266.52,-567.5"/>
<text text-anchor="middle" x="289.64" y="-581.28" font-family="Times,serif" font-size="9.00">0.877</text>
</g>
<!-- key 27460
bias &#45;0.589
h_scaling 0.661
output 0.589&#45;&gt;key 25456
bias &#45;0.668
h_scaling 0.000
output 0.839 -->
<g id="edge7" class="edge">
<title>key 27460
bias &#45;0.589
h_scaling 0.661
output 0.589&#45;&gt;key 25456
bias &#45;0.668
h_scaling 0.000
output 0.839</title>
<path fill="none" stroke="red" stroke-width="0.1" d="M233.55,-533.4C249.93,-513.06 269.04,-489.34 286.05,-468.23"/>
<polygon fill="red" stroke="red" stroke-width="0.1" points="288.9,-470.27 292.45,-460.29 283.45,-465.88 288.9,-470.27"/>
<text text-anchor="middle" x="277" y="-494.64" font-family="Times,serif" font-size="9.00">0.400</text>
</g>
<!-- key 25456
bias &#45;0.668
h_scaling 0.000
output 0.839&#45;&gt;output
bias &#45;0.989
h_scaling 0.550
output 0.505 -->
<g id="edge15" class="edge">
<title>key 25456
bias &#45;0.668
h_scaling 0.000
output 0.839&#45;&gt;output
bias &#45;0.989
h_scaling 0.550
output 0.505</title>
<path fill="none" stroke="red" stroke-width="0.1" d="M269.22,-420.95C212.71,-433.37 132.63,-460.8 93,-519.84 60.84,-567.76 61.33,-634.33 68.29,-684.54"/>
<polygon fill="red" stroke="red" stroke-width="0.1" points="64.86,-685.31 69.81,-694.68 71.79,-684.27 64.86,-685.31"/>
<text text-anchor="middle" x="107" y="-581.28" font-family="Times,serif" font-size="9.00">0.827</text>
</g>
<!-- key 25456
bias &#45;0.668
h_scaling 0.000
output 0.839&#45;&gt;key 2049
bias &#45;0.583
h_scaling 0.660
output 0.685 -->
<g id="edge4" class="edge">
<title>key 25456
bias &#45;0.668
h_scaling 0.000
output 0.839&#45;&gt;key 2049
bias &#45;0.583
h_scaling 0.660
output 0.685</title>
<path fill="none" stroke="red" stroke-width="0.1" d="M343.79,-473.14C344.67,-479.44 345.44,-485.75 346,-491.84 360.52,-649.75 353.42,-691.14 333,-848.4 332.63,-851.24 332.23,-854.13 331.81,-857.05"/>
<polygon fill="red" stroke="red" stroke-width="0.1" points="328.34,-856.63 330.31,-867.04 335.26,-857.67 328.34,-856.63"/>
<text text-anchor="middle" x="366" y="-667.92" font-family="Times,serif" font-size="9.00">1.047</text>
</g>
<!-- key 25456
bias &#45;0.668
h_scaling 0.000
output 0.839&#45;&gt;key 259297
bias &#45;0.067
h_scaling 0.991
output 0.058 -->
<g id="edge16" class="edge">
<title>key 25456
bias &#45;0.668
h_scaling 0.000
output 0.839&#45;&gt;key 259297
bias &#45;0.067
h_scaling 0.991
output 0.058</title>
<path fill="none" stroke="blue" stroke-width="0.1" d="M288.7,-362.85C268.16,-340.86 243.51,-314.47 222.16,-291.61"/>
<polygon fill="blue" stroke="blue" stroke-width="0.1" points="224.44,-288.93 215.06,-284.01 219.32,-293.71 224.44,-288.93"/>
<text text-anchor="middle" x="267.5" y="-321.36" font-family="Times,serif" font-size="9.00">&#45;0.665</text>
</g>
<!-- key 25456
bias &#45;0.668
h_scaling 0.000
output 0.839&#45;&gt;key 25456
bias &#45;0.668
h_scaling 0.000
output 0.839 -->
<g id="edge14" class="edge">
<title>key 25456
bias &#45;0.668
h_scaling 0.000
output 0.839&#45;&gt;key 25456
bias &#45;0.668
h_scaling 0.000
output 0.839</title>
<path fill="none" stroke="red" stroke-width="0.1" d="M393.94,-425.5C405.5,-423.61 413.64,-418.51 413.64,-410.2 413.64,-404.48 409.79,-400.29 403.63,-397.61"/>
<polygon fill="red" stroke="red" stroke-width="0.1" points="404.52,-394.22 393.94,-394.9 402.63,-400.96 404.52,-394.22"/>
<text text-anchor="middle" x="427.64" y="-408" font-family="Times,serif" font-size="9.00">0.480</text>
</g>
<!-- key 120319
bias 0.465
h_scaling 0.000
output 0.915&#45;&gt;key 27460
bias &#45;0.589
h_scaling 0.661
output 0.589 -->
<g id="edge12" class="edge">
<title>key 120319
bias 0.465
h_scaling 0.000
output 0.915&#45;&gt;key 27460
bias &#45;0.589
h_scaling 0.661
output 0.589</title>
<path fill="none" stroke="red" stroke-width="0.1" d="M80.89,-127.32C82.57,-175.2 87.09,-242.6 99,-300.56 114.46,-375.76 143.99,-458.68 166.05,-515.01"/>
<polygon fill="red" stroke="red" stroke-width="0.1" points="162.87,-516.49 169.8,-524.51 169.38,-513.92 162.87,-516.49"/>
<text text-anchor="middle" x="120" y="-321.36" font-family="Times,serif" font-size="9.00">0.415</text>
</g>
</g>
</svg>
