<?xml version="1.0" encoding="UTF-8" standalone="no"?>
<!DOCTYPE svg PUBLIC "-//W3C//DTD SVG 1.1//EN"
 "http://www.w3.org/Graphics/SVG/1.1/DTD/svg11.dtd">
<!-- Generated by graphviz version 2.43.0 (0)
 -->
<!-- Title: %3 Pages: 1 -->
<svg width="747pt" height="1006pt"
 viewBox="0.00 0.00 746.68 1005.68" xmlns="http://www.w3.org/2000/svg" xmlns:xlink="http://www.w3.org/1999/xlink">
<g id="graph0" class="graph" transform="scale(1 1) rotate(0) translate(4 1001.68)">
<title>%3</title>
<polygon fill="white" stroke="transparent" points="-4,4 -4,-1001.68 742.68,-1001.68 742.68,4 -4,4"/>
<!-- ready -->
<g id="node1" class="node">
<title>ready</title>
<polygon fill="yellow" stroke="black" points="139.43,-997.68 96.43,-997.68 96.43,-979.68 139.43,-979.68 139.43,-997.68"/>
<text text-anchor="middle" x="117.93" y="-986.48" font-family="Times,serif" font-size="9.00">ready</text>
</g>
<!-- key 8863
bias &#45;0.081
h_scaling 0.455 -->
<g id="node12" class="node">
<title>key 8863
bias &#45;0.081
h_scaling 0.455</title>
<ellipse fill="white" stroke="black" cx="117.93" cy="-880.04" rx="63.78" ry="63.78"/>
<text text-anchor="middle" x="117.93" y="-887.84" font-family="Times,serif" font-size="9.00">key 8863</text>
<text text-anchor="middle" x="117.93" y="-877.84" font-family="Times,serif" font-size="9.00">bias &#45;0.081</text>
<text text-anchor="middle" x="117.93" y="-867.84" font-family="Times,serif" font-size="9.00">h_scaling 0.455</text>
</g>
<!-- ready&#45;&gt;key 8863
bias &#45;0.081
h_scaling 0.455 -->
<g id="edge15" class="edge">
<title>ready&#45;&gt;key 8863
bias &#45;0.081
h_scaling 0.455</title>
<path fill="none" stroke="blue" stroke-width="1.51" d="M117.93,-979.66C117.93,-973.49 117.93,-964.3 117.93,-953.95"/>
<polygon fill="blue" stroke="blue" stroke-width="1.51" points="121.43,-953.75 117.93,-943.75 114.43,-953.75 121.43,-953.75"/>
</g>
<!-- go -->
<g id="node2" class="node">
<title>go</title>
<polygon fill="green" stroke="black" points="483.93,-997.68 455.93,-997.68 455.93,-979.68 483.93,-979.68 483.93,-997.68"/>
<text text-anchor="middle" x="469.93" y="-986.48" font-family="Times,serif" font-size="9.00">go</text>
</g>
<!-- key 5059
bias &#45;0.478
h_scaling 0.445 -->
<g id="node6" class="node">
<title>key 5059
bias &#45;0.478
h_scaling 0.445</title>
<ellipse fill="white" stroke="black" cx="301.93" cy="-390.2" rx="63.78" ry="63.78"/>
<text text-anchor="middle" x="301.93" y="-398" font-family="Times,serif" font-size="9.00">key 5059</text>
<text text-anchor="middle" x="301.93" y="-388" font-family="Times,serif" font-size="9.00">bias &#45;0.478</text>
<text text-anchor="middle" x="301.93" y="-378" font-family="Times,serif" font-size="9.00">h_scaling 0.445</text>
</g>
<!-- go&#45;&gt;key 5059
bias &#45;0.478
h_scaling 0.445 -->
<g id="edge4" class="edge">
<title>go&#45;&gt;key 5059
bias &#45;0.478
h_scaling 0.445</title>
<path fill="none" stroke="blue" stroke-width="2.07" d="M467.55,-979.24C451.84,-923.45 362.21,-605.23 321.75,-461.57"/>
<polygon fill="blue" stroke="blue" stroke-width="2.07" points="325,-460.21 318.92,-451.53 318.26,-462.11 325,-460.21"/>
</g>
<!-- key 2183
bias 0.135
h_scaling 0.611 -->
<g id="node7" class="node">
<title>key 2183
bias 0.135
h_scaling 0.611</title>
<ellipse fill="white" stroke="black" cx="117.93" cy="-553.48" rx="63.78" ry="63.78"/>
<text text-anchor="middle" x="117.93" y="-561.28" font-family="Times,serif" font-size="9.00">key 2183</text>
<text text-anchor="middle" x="117.93" y="-551.28" font-family="Times,serif" font-size="9.00">bias 0.135</text>
<text text-anchor="middle" x="117.93" y="-541.28" font-family="Times,serif" font-size="9.00">h_scaling 0.611</text>
</g>
<!-- go&#45;&gt;key 2183
bias 0.135
h_scaling 0.611 -->
<g id="edge12" class="edge">
<title>go&#45;&gt;key 2183
bias 0.135
h_scaling 0.611</title>
<path fill="none" stroke="blue" stroke-width="5.1" d="M457.36,-979.61C418.81,-954.35 300.53,-872.92 228.93,-780.4 191.9,-732.54 162.45,-670.36 143.22,-623.36"/>
<polygon fill="blue" stroke="blue" stroke-width="5.1" points="147.27,-621.47 139.39,-613.87 138.99,-624.81 147.27,-621.47"/>
</g>
<!-- key 2184
bias 0.994
h_scaling 0.511 -->
<g id="node8" class="node">
<title>key 2184
bias 0.994
h_scaling 0.511</title>
<ellipse fill="white" stroke="black" cx="485.93" cy="-226.92" rx="63.78" ry="63.78"/>
<text text-anchor="middle" x="485.93" y="-234.72" font-family="Times,serif" font-size="9.00">key 2184</text>
<text text-anchor="middle" x="485.93" y="-224.72" font-family="Times,serif" font-size="9.00">bias 0.994</text>
<text text-anchor="middle" x="485.93" y="-214.72" font-family="Times,serif" font-size="9.00">h_scaling 0.511</text>
</g>
<!-- go&#45;&gt;key 2184
bias 0.994
h_scaling 0.511 -->
<g id="edge19" class="edge">
<title>go&#45;&gt;key 2184
bias 0.994
h_scaling 0.511</title>
<path fill="none" stroke="red" stroke-width="1.76" d="M471.97,-979.34C479.86,-946.38 507.93,-821.87 507.93,-717.76 507.93,-717.76 507.93,-717.76 507.93,-552.48 507.93,-465.77 500.01,-366.32 493.68,-300.61"/>
<polygon fill="red" stroke="red" stroke-width="1.76" points="497.13,-299.97 492.68,-290.36 490.17,-300.65 497.13,-299.97"/>
</g>
<!-- key 12624
bias 1.000
h_scaling 0.317 -->
<g id="node9" class="node">
<title>key 12624
bias 1.000
h_scaling 0.317</title>
<ellipse fill="white" stroke="black" cx="347.93" cy="-63.64" rx="63.78" ry="63.78"/>
<text text-anchor="middle" x="347.93" y="-71.44" font-family="Times,serif" font-size="9.00">key 12624</text>
<text text-anchor="middle" x="347.93" y="-61.44" font-family="Times,serif" font-size="9.00">bias 1.000</text>
<text text-anchor="middle" x="347.93" y="-51.44" font-family="Times,serif" font-size="9.00">h_scaling 0.317</text>
</g>
<!-- go&#45;&gt;key 12624
bias 1.000
h_scaling 0.317 -->
<g id="edge17" class="edge">
<title>go&#45;&gt;key 12624
bias 1.000
h_scaling 0.317</title>
<path fill="none" stroke="red" stroke-width="5.1" d="M484.25,-981.2C537.77,-955.95 722.93,-858.42 722.93,-717.76 722.93,-717.76 722.93,-717.76 722.93,-389.2 722.93,-288.44 768.24,-240.85 703.93,-163.28 668.04,-119.99 514.27,-89.72 420.96,-74.95"/>
<polygon fill="red" stroke="red" stroke-width="5.1" points="421.58,-70.53 411.01,-73.4 420.2,-79.35 421.58,-70.53"/>
</g>
<!-- go&#45;&gt;key 8863
bias &#45;0.081
h_scaling 0.455 -->
<g id="edge5" class="edge">
<title>go&#45;&gt;key 8863
bias &#45;0.081
h_scaling 0.455</title>
<path fill="none" stroke="red" stroke-width="4.88" d="M455.82,-987.9C414.13,-988.06 288.61,-984.84 195.93,-943.68 187.94,-940.13 180.08,-935.56 172.61,-930.5"/>
<polygon fill="red" stroke="red" stroke-width="4.88" points="174.64,-926.71 164.02,-924.37 169.68,-933.66 174.64,-926.71"/>
</g>
<!-- key output
bias &#45;0.983
h_scaling 0.433 -->
<g id="node3" class="node">
<title>key output
bias &#45;0.983
h_scaling 0.433</title>
<ellipse fill="lightblue" stroke="black" cx="301.93" cy="-716.76" rx="63.78" ry="63.78"/>
<text text-anchor="middle" x="301.93" y="-724.56" font-family="Times,serif" font-size="9.00">key output</text>
<text text-anchor="middle" x="301.93" y="-714.56" font-family="Times,serif" font-size="9.00">bias &#45;0.983</text>
<text text-anchor="middle" x="301.93" y="-704.56" font-family="Times,serif" font-size="9.00">h_scaling 0.433</text>
</g>
<!-- key output
bias &#45;0.983
h_scaling 0.433&#45;&gt;key 2183
bias 0.135
h_scaling 0.611 -->
<g id="edge14" class="edge">
<title>key output
bias &#45;0.983
h_scaling 0.433&#45;&gt;key 2183
bias 0.135
h_scaling 0.611</title>
<path fill="none" stroke="blue" stroke-width="4.07" d="M254.54,-674.22C229.63,-652.39 198.97,-625.52 173.01,-602.76"/>
<polygon fill="blue" stroke="blue" stroke-width="4.07" points="175.34,-600.06 165.47,-596.15 170.64,-605.42 175.34,-600.06"/>
</g>
<!-- key 240736
bias &#45;0.788
h_scaling 0.729 -->
<g id="node4" class="node">
<title>key 240736
bias &#45;0.788
h_scaling 0.729</title>
<ellipse fill="white" stroke="black" cx="301.93" cy="-226.92" rx="63.78" ry="63.78"/>
<text text-anchor="middle" x="301.93" y="-234.72" font-family="Times,serif" font-size="9.00">key 240736</text>
<text text-anchor="middle" x="301.93" y="-224.72" font-family="Times,serif" font-size="9.00">bias &#45;0.788</text>
<text text-anchor="middle" x="301.93" y="-214.72" font-family="Times,serif" font-size="9.00">h_scaling 0.729</text>
</g>
<!-- key 240736
bias &#45;0.788
h_scaling 0.729&#45;&gt;key 12624
bias 1.000
h_scaling 0.317 -->
<g id="edge22" class="edge">
<title>key 240736
bias &#45;0.788
h_scaling 0.729&#45;&gt;key 12624
bias 1.000
h_scaling 0.317</title>
<path fill="none" stroke="blue" stroke-width="3.79" d="M319.19,-165.41C322.04,-155.38 325.03,-144.91 327.95,-134.68"/>
<polygon fill="blue" stroke="blue" stroke-width="3.79" points="331.35,-135.53 330.72,-124.96 324.61,-133.61 331.35,-135.53"/>
</g>
<!-- key 238562
bias 0.057
h_scaling 0.448 -->
<g id="node5" class="node">
<title>key 238562
bias 0.057
h_scaling 0.448</title>
<ellipse fill="white" stroke="black" cx="117.93" cy="-226.92" rx="63.78" ry="63.78"/>
<text text-anchor="middle" x="117.93" y="-234.72" font-family="Times,serif" font-size="9.00">key 238562</text>
<text text-anchor="middle" x="117.93" y="-224.72" font-family="Times,serif" font-size="9.00">bias 0.057</text>
<text text-anchor="middle" x="117.93" y="-214.72" font-family="Times,serif" font-size="9.00">h_scaling 0.448</text>
</g>
<!-- key 238562
bias 0.057
h_scaling 0.448&#45;&gt;key output
bias &#45;0.983
h_scaling 0.433 -->
<g id="edge23" class="edge">
<title>key 238562
bias 0.057
h_scaling 0.448&#45;&gt;key output
bias &#45;0.983
h_scaling 0.433</title>
<path fill="none" stroke="red" stroke-width="2.5" d="M158.76,-275.85C170.41,-291.29 182.27,-308.97 190.93,-326.56 194.53,-333.87 251.28,-535.25 282.2,-645.39"/>
<polygon fill="red" stroke="red" stroke-width="2.5" points="278.85,-646.42 284.93,-655.1 285.59,-644.53 278.85,-646.42"/>
</g>
<!-- key 5059
bias &#45;0.478
h_scaling 0.445&#45;&gt;key output
bias &#45;0.983
h_scaling 0.433 -->
<g id="edge3" class="edge">
<title>key 5059
bias &#45;0.478
h_scaling 0.445&#45;&gt;key output
bias &#45;0.983
h_scaling 0.433</title>
<path fill="none" stroke="red" stroke-width="4.57" d="M301.93,-453.99C301.93,-507.91 301.93,-585.69 301.93,-642.45"/>
<polygon fill="red" stroke="red" stroke-width="4.57" points="297.93,-642.79 301.93,-652.79 305.92,-642.79 297.93,-642.79"/>
</g>
<!-- key 5059
bias &#45;0.478
h_scaling 0.445&#45;&gt;key 240736
bias &#45;0.788
h_scaling 0.729 -->
<g id="edge21" class="edge">
<title>key 5059
bias &#45;0.478
h_scaling 0.445&#45;&gt;key 240736
bias &#45;0.788
h_scaling 0.729</title>
<path fill="none" stroke="red" stroke-width="5.1" d="M301.93,-326.38C301.93,-317.93 301.93,-309.2 301.93,-300.59"/>
<polygon fill="red" stroke="red" stroke-width="5.1" points="306.39,-300.56 301.93,-290.56 297.46,-300.56 306.39,-300.56"/>
</g>
<!-- key 5059
bias &#45;0.478
h_scaling 0.445&#45;&gt;key 2183
bias 0.135
h_scaling 0.611 -->
<g id="edge13" class="edge">
<title>key 5059
bias &#45;0.478
h_scaling 0.445&#45;&gt;key 2183
bias 0.135
h_scaling 0.611</title>
<path fill="none" stroke="red" stroke-width="2.32" d="M257.16,-435.79C232.57,-458.08 201.87,-485 175.52,-507.37"/>
<polygon fill="red" stroke="red" stroke-width="2.32" points="173.23,-504.72 167.86,-513.85 177.75,-510.06 173.23,-504.72"/>
</g>
<!-- key 5059
bias &#45;0.478
h_scaling 0.445&#45;&gt;key 2184
bias 0.994
h_scaling 0.511 -->
<g id="edge16" class="edge">
<title>key 5059
bias &#45;0.478
h_scaling 0.445&#45;&gt;key 2184
bias 0.994
h_scaling 0.511</title>
<path fill="none" stroke="blue" stroke-width="2.19" d="M349.31,-347.66C374.22,-325.83 404.88,-298.96 430.84,-276.2"/>
<polygon fill="blue" stroke="blue" stroke-width="2.19" points="433.17,-278.82 438.38,-269.59 428.56,-273.55 433.17,-278.82"/>
</g>
<!-- key 5059
bias &#45;0.478
h_scaling 0.445&#45;&gt;key 12624
bias 1.000
h_scaling 0.317 -->
<g id="edge6" class="edge">
<title>key 5059
bias &#45;0.478
h_scaling 0.445&#45;&gt;key 12624
bias 1.000
h_scaling 0.317</title>
<path fill="none" stroke="blue" stroke-width="3.34" d="M258.38,-343.04C246.46,-327.54 235.13,-309.37 228.93,-290.56 211.21,-236.84 204.86,-214.48 228.93,-163.28 240.77,-138.08 262.55,-117.11 284.28,-101.07"/>
<polygon fill="blue" stroke="blue" stroke-width="3.34" points="286.46,-103.82 292.59,-95.17 282.41,-98.11 286.46,-103.82"/>
</g>
<!-- key 2183
bias 0.135
h_scaling 0.611&#45;&gt;key 5059
bias &#45;0.478
h_scaling 0.445 -->
<g id="edge2" class="edge">
<title>key 2183
bias 0.135
h_scaling 0.611&#45;&gt;key 5059
bias &#45;0.478
h_scaling 0.445</title>
<path fill="none" stroke="red" stroke-width="4.56" d="M162.58,-507.98C187.2,-485.66 217.97,-458.69 244.36,-436.29"/>
<polygon fill="red" stroke="red" stroke-width="4.56" points="246.97,-439.3 252.03,-429.8 241.82,-433.2 246.97,-439.3"/>
</g>
<!-- key 2183
bias 0.135
h_scaling 0.611&#45;&gt;key 12624
bias 1.000
h_scaling 0.317 -->
<g id="edge9" class="edge">
<title>key 2183
bias 0.135
h_scaling 0.611&#45;&gt;key 12624
bias 1.000
h_scaling 0.317</title>
<path fill="none" stroke="blue" stroke-width="4.59" d="M74.38,-506.32C62.46,-490.82 51.13,-472.65 44.93,-453.84 4.48,-331.2 -30.95,-267.77 44.93,-163.28 96.9,-91.71 202.14,-71.06 273.84,-65.64"/>
<polygon fill="blue" stroke="blue" stroke-width="4.59" points="274.46,-69.63 284.17,-64.95 273.92,-61.61 274.46,-69.63"/>
</g>
<!-- key 230462
bias &#45;1.000
h_scaling 0.389 -->
<g id="node11" class="node">
<title>key 230462
bias &#45;1.000
h_scaling 0.389</title>
<ellipse fill="white" stroke="black" cx="117.93" cy="-390.2" rx="63.78" ry="63.78"/>
<text text-anchor="middle" x="117.93" y="-398" font-family="Times,serif" font-size="9.00">key 230462</text>
<text text-anchor="middle" x="117.93" y="-388" font-family="Times,serif" font-size="9.00">bias &#45;1.000</text>
<text text-anchor="middle" x="117.93" y="-378" font-family="Times,serif" font-size="9.00">h_scaling 0.389</text>
</g>
<!-- key 2183
bias 0.135
h_scaling 0.611&#45;&gt;key 230462
bias &#45;1.000
h_scaling 0.389 -->
<g id="edge18" class="edge">
<title>key 2183
bias 0.135
h_scaling 0.611&#45;&gt;key 230462
bias &#45;1.000
h_scaling 0.389</title>
<path fill="none" stroke="red" stroke-width="1.28" d="M117.93,-489.66C117.93,-481.21 117.93,-472.48 117.93,-463.87"/>
<polygon fill="red" stroke="red" stroke-width="1.28" points="121.43,-463.84 117.93,-453.84 114.43,-463.84 121.43,-463.84"/>
</g>
<!-- key 2183
bias 0.135
h_scaling 0.611&#45;&gt;key 8863
bias &#45;0.081
h_scaling 0.455 -->
<g id="edge7" class="edge">
<title>key 2183
bias 0.135
h_scaling 0.611&#45;&gt;key 8863
bias &#45;0.081
h_scaling 0.455</title>
<path fill="none" stroke="blue" stroke-width="3.75" d="M123.39,-617.14C125.01,-671.29 125.1,-749.59 123.66,-806.46"/>
<polygon fill="blue" stroke="blue" stroke-width="3.75" points="120.16,-806.36 123.38,-816.46 127.16,-806.56 120.16,-806.36"/>
</g>
<!-- key 2184
bias 0.994
h_scaling 0.511&#45;&gt;key output
bias &#45;0.983
h_scaling 0.433 -->
<g id="edge1" class="edge">
<title>key 2184
bias 0.994
h_scaling 0.511&#45;&gt;key output
bias &#45;0.983
h_scaling 0.433</title>
<path fill="none" stroke="red" stroke-width="3.51" d="M485.02,-290.61C481.34,-371.08 466.25,-512.74 407.93,-617.12 396.34,-637.86 378.85,-656.73 361.41,-672.29"/>
<polygon fill="red" stroke="red" stroke-width="3.51" points="358.69,-670.01 353.42,-679.2 363.27,-675.3 358.69,-670.01"/>
</g>
<!-- key 12624
bias 1.000
h_scaling 0.317&#45;&gt;key output
bias &#45;0.983
h_scaling 0.433 -->
<g id="edge11" class="edge">
<title>key 12624
bias 1.000
h_scaling 0.317&#45;&gt;key output
bias &#45;0.983
h_scaling 0.433</title>
<path fill="none" stroke="blue" stroke-width="3.93" d="M367.01,-124.36C370.3,-137.08 373.21,-150.52 374.93,-163.28 392.13,-291.27 392.42,-325.89 374.93,-453.84 365.76,-520.87 343.97,-594.95 326.57,-647.17"/>
<polygon fill="blue" stroke="blue" stroke-width="3.93" points="323.25,-646.06 323.38,-656.65 329.89,-648.29 323.25,-646.06"/>
</g>
<!-- key 239029
bias &#45;0.297
h_scaling 0.645 -->
<g id="node10" class="node">
<title>key 239029
bias &#45;0.297
h_scaling 0.645</title>
<ellipse fill="white" stroke="black" cx="630.93" cy="-226.92" rx="63.78" ry="63.78"/>
<text text-anchor="middle" x="630.93" y="-234.72" font-family="Times,serif" font-size="9.00">key 239029</text>
<text text-anchor="middle" x="630.93" y="-224.72" font-family="Times,serif" font-size="9.00">bias &#45;0.297</text>
<text text-anchor="middle" x="630.93" y="-214.72" font-family="Times,serif" font-size="9.00">h_scaling 0.645</text>
</g>
<!-- key 239029
bias &#45;0.297
h_scaling 0.645&#45;&gt;key 12624
bias 1.000
h_scaling 0.317 -->
<g id="edge24" class="edge">
<title>key 239029
bias &#45;0.297
h_scaling 0.645&#45;&gt;key 12624
bias 1.000
h_scaling 0.317</title>
<path fill="none" stroke="red" stroke-width="4.94" d="M584.78,-182.5C576.48,-175.65 567.68,-168.97 558.93,-163.28 514.02,-134.07 459.08,-108.68 416.52,-90.97"/>
<polygon fill="red" stroke="red" stroke-width="4.94" points="417.98,-86.89 407.09,-87.09 414.69,-94.9 417.98,-86.89"/>
</g>
<!-- key 230462
bias &#45;1.000
h_scaling 0.389&#45;&gt;key 238562
bias 0.057
h_scaling 0.448 -->
<g id="edge20" class="edge">
<title>key 230462
bias &#45;1.000
h_scaling 0.389&#45;&gt;key 238562
bias 0.057
h_scaling 0.448</title>
<path fill="none" stroke="red" stroke-width="5.1" d="M117.93,-326.38C117.93,-317.93 117.93,-309.2 117.93,-300.59"/>
<polygon fill="red" stroke="red" stroke-width="5.1" points="122.39,-300.56 117.93,-290.56 113.46,-300.56 122.39,-300.56"/>
</g>
<!-- key 8863
bias &#45;0.081
h_scaling 0.455&#45;&gt;key output
bias &#45;0.983
h_scaling 0.433 -->
<g id="edge10" class="edge">
<title>key 8863
bias &#45;0.081
h_scaling 0.455&#45;&gt;key output
bias &#45;0.983
h_scaling 0.433</title>
<path fill="none" stroke="blue" stroke-width="3.85" d="M165.31,-837.5C190.22,-815.67 220.88,-788.79 246.84,-766.04"/>
<polygon fill="blue" stroke="blue" stroke-width="3.85" points="249.17,-768.65 254.38,-759.43 244.56,-763.39 249.17,-768.65"/>
</g>
<!-- key 8863
bias &#45;0.081
h_scaling 0.455&#45;&gt;key 2183
bias 0.135
h_scaling 0.611 -->
<g id="edge8" class="edge">
<title>key 8863
bias &#45;0.081
h_scaling 0.455&#45;&gt;key 2183
bias 0.135
h_scaling 0.611</title>
<path fill="none" stroke="blue" stroke-width="5.1" d="M112.47,-816.46C110.84,-762.33 110.75,-684.03 112.19,-627.15"/>
<polygon fill="blue" stroke="blue" stroke-width="5.1" points="116.65,-627.26 112.47,-617.14 107.73,-627.01 116.65,-627.26"/>
</g>
</g>
</svg>
