<?xml version="1.0" encoding="UTF-8" standalone="no"?>
<!DOCTYPE svg PUBLIC "-//W3C//DTD SVG 1.1//EN"
 "http://www.w3.org/Graphics/SVG/1.1/DTD/svg11.dtd">
<!-- Generated by graphviz version 8.0.5 (20230430.1635)
 -->
<!-- Pages: 1 -->
<svg width="658pt" height="780pt"
 viewBox="0.00 0.00 658.12 780.33" xmlns="http://www.w3.org/2000/svg" xmlns:xlink="http://www.w3.org/1999/xlink">
<g id="graph0" class="graph" transform="scale(1 1) rotate(0) translate(4 776.33)">
<polygon fill="white" stroke="none" points="-4,4 -4,-776.33 654.12,-776.33 654.12,4 -4,4"/>
<!-- ready
output 0.000 -->
<g id="node1" class="node">
<title>ready
output 0.000</title>
<polygon fill="yellow" stroke="black" points="227.18,-772.33 163.93,-772.33 163.93,-741.83 227.18,-741.83 227.18,-772.33"/>
<text text-anchor="middle" x="195.56" y="-759.78" font-family="Times New Roman,serif" font-size="9.00">ready</text>
<text text-anchor="middle" x="195.56" y="-748.53" font-family="Times New Roman,serif" font-size="9.00">output 0.000</text>
</g>
<!-- key 92453
bias &#45;0.226
h_scaling 0.640
output 0.047 -->
<g id="node5" class="node">
<title>key 92453
bias &#45;0.226
h_scaling 0.640
output 0.047</title>
<ellipse fill="white" stroke="black" cx="206.56" cy="-347.29" rx="50.56" ry="50.56"/>
<text text-anchor="middle" x="206.56" y="-361.24" font-family="Times New Roman,serif" font-size="9.00">key 92453</text>
<text text-anchor="middle" x="206.56" y="-349.99" font-family="Times New Roman,serif" font-size="9.00">bias &#45;0.226</text>
<text text-anchor="middle" x="206.56" y="-338.74" font-family="Times New Roman,serif" font-size="9.00">h_scaling 0.640</text>
<text text-anchor="middle" x="206.56" y="-327.49" font-family="Times New Roman,serif" font-size="9.00">output 0.047</text>
</g>
<!-- ready
output 0.000&#45;&gt;key 92453
bias &#45;0.226
h_scaling 0.640
output 0.047 -->
<g id="edge8" class="edge">
<title>ready
output 0.000&#45;&gt;key 92453
bias &#45;0.226
h_scaling 0.640
output 0.047</title>
<path fill="none" stroke="blue" stroke-width="1.25" d="M193.13,-741.44C186.11,-696.78 167.15,-558.49 181.56,-445.1 183.16,-432.45 185.91,-419.1 189,-406.48"/>
<polygon fill="blue" stroke="blue" stroke-width="1.25" points="192.57,-407.64 191.67,-397.08 185.79,-405.9 192.57,-407.64"/>
<text text-anchor="middle" x="189.18" y="-566.92" font-family="Times New Roman,serif" font-size="9.00">&#45;0.383</text>
</g>
<!-- key 1542
bias &#45;0.681
h_scaling 0.131
output 0.838 -->
<g id="node6" class="node">
<title>key 1542
bias &#45;0.681
h_scaling 0.131
output 0.838</title>
<ellipse fill="white" stroke="black" cx="50.56" cy="-198.92" rx="50.56" ry="50.56"/>
<text text-anchor="middle" x="50.56" y="-212.87" font-family="Times New Roman,serif" font-size="9.00">key 1542</text>
<text text-anchor="middle" x="50.56" y="-201.62" font-family="Times New Roman,serif" font-size="9.00">bias &#45;0.681</text>
<text text-anchor="middle" x="50.56" y="-190.37" font-family="Times New Roman,serif" font-size="9.00">h_scaling 0.131</text>
<text text-anchor="middle" x="50.56" y="-179.12" font-family="Times New Roman,serif" font-size="9.00">output 0.838</text>
</g>
<!-- ready
output 0.000&#45;&gt;key 1542
bias &#45;0.681
h_scaling 0.131
output 0.838 -->
<g id="edge9" class="edge">
<title>ready
output 0.000&#45;&gt;key 1542
bias &#45;0.681
h_scaling 0.131
output 0.838</title>
<path fill="none" stroke="blue" stroke-width="1.96" d="M163.55,-749.81C115.31,-738.28 29.56,-708.82 29.56,-645.02 29.56,-645.02 29.56,-645.02 29.56,-346.29 29.56,-317.91 33.48,-286.74 37.93,-260.49"/>
<polygon fill="blue" stroke="blue" stroke-width="1.96" points="41.7,-261.25 40,-250.8 34.81,-260.03 41.7,-261.25"/>
<text text-anchor="middle" x="41.18" y="-492.73" font-family="Times New Roman,serif" font-size="9.00">&#45;0.621</text>
</g>
<!-- key 180791
bias &#45;0.190
h_scaling 0.342
output 0.726 -->
<g id="node9" class="node">
<title>key 180791
bias &#45;0.190
h_scaling 0.342
output 0.726</title>
<ellipse fill="white" stroke="black" cx="317.56" cy="-644.02" rx="50.56" ry="50.56"/>
<text text-anchor="middle" x="317.56" y="-657.97" font-family="Times New Roman,serif" font-size="9.00">key 180791</text>
<text text-anchor="middle" x="317.56" y="-646.72" font-family="Times New Roman,serif" font-size="9.00">bias &#45;0.190</text>
<text text-anchor="middle" x="317.56" y="-635.47" font-family="Times New Roman,serif" font-size="9.00">h_scaling 0.342</text>
<text text-anchor="middle" x="317.56" y="-624.22" font-family="Times New Roman,serif" font-size="9.00">output 0.726</text>
</g>
<!-- ready
output 0.000&#45;&gt;key 180791
bias &#45;0.190
h_scaling 0.342
output 0.726 -->
<g id="edge15" class="edge">
<title>ready
output 0.000&#45;&gt;key 180791
bias &#45;0.190
h_scaling 0.342
output 0.726</title>
<path fill="none" stroke="red" stroke-width="2.25" d="M212.6,-741.42C218.91,-735.94 226.09,-729.64 232.56,-723.83 245.32,-712.36 259.01,-699.79 271.59,-688.12"/>
<polygon fill="red" stroke="red" stroke-width="2.25" points="274.02,-690.78 278.97,-681.41 269.26,-685.65 274.02,-690.78"/>
<text text-anchor="middle" x="254.68" y="-715.28" font-family="Times New Roman,serif" font-size="9.00">0.988</text>
</g>
<!-- key 168731
bias &#45;0.716
h_scaling 0.382
output 0.763 -->
<g id="node12" class="node">
<title>key 168731
bias &#45;0.716
h_scaling 0.382
output 0.763</title>
<ellipse fill="white" stroke="black" cx="360.56" cy="-495.66" rx="50.56" ry="50.56"/>
<text text-anchor="middle" x="360.56" y="-509.61" font-family="Times New Roman,serif" font-size="9.00">key 168731</text>
<text text-anchor="middle" x="360.56" y="-498.36" font-family="Times New Roman,serif" font-size="9.00">bias &#45;0.716</text>
<text text-anchor="middle" x="360.56" y="-487.11" font-family="Times New Roman,serif" font-size="9.00">h_scaling 0.382</text>
<text text-anchor="middle" x="360.56" y="-475.86" font-family="Times New Roman,serif" font-size="9.00">output 0.763</text>
</g>
<!-- ready
output 0.000&#45;&gt;key 168731
bias &#45;0.716
h_scaling 0.382
output 0.763 -->
<g id="edge12" class="edge">
<title>ready
output 0.000&#45;&gt;key 168731
bias &#45;0.716
h_scaling 0.382
output 0.763</title>
<path fill="none" stroke="red" stroke-width="3.1" d="M196.07,-741.73C197.77,-711.7 205.17,-641.05 237.31,-593.47 257.15,-564.09 273.7,-568.13 301.56,-546.22 304.87,-543.61 308.26,-540.9 311.66,-538.14"/>
<polygon fill="red" stroke="red" stroke-width="3.1" points="313.94,-540.33 319.45,-531.28 309.5,-534.92 313.94,-540.33"/>
<text text-anchor="middle" x="247.68" y="-641.1" font-family="Times New Roman,serif" font-size="9.00">1.304</text>
</g>
<!-- go
output 0.000 -->
<g id="node2" class="node">
<title>go
output 0.000</title>
<polygon fill="green" stroke="black" points="134.18,-510.91 70.93,-510.91 70.93,-480.41 134.18,-480.41 134.18,-510.91"/>
<text text-anchor="middle" x="102.56" y="-498.36" font-family="Times New Roman,serif" font-size="9.00">go</text>
<text text-anchor="middle" x="102.56" y="-487.11" font-family="Times New Roman,serif" font-size="9.00">output 0.000</text>
</g>
<!-- go
output 0.000&#45;&gt;key 92453
bias &#45;0.226
h_scaling 0.640
output 0.047 -->
<g id="edge4" class="edge">
<title>go
output 0.000&#45;&gt;key 92453
bias &#45;0.226
h_scaling 0.640
output 0.047</title>
<path fill="none" stroke="red" stroke-width="2.95" d="M104.9,-479.96C108.09,-463.3 114.99,-435.86 128.31,-415.85 135.54,-404.98 144.98,-394.84 154.79,-385.88"/>
<polygon fill="red" stroke="red" stroke-width="2.95" points="156.79,-388.18 162.07,-378.99 152.21,-382.89 156.79,-388.18"/>
<text text-anchor="middle" x="138.68" y="-418.55" font-family="Times New Roman,serif" font-size="9.00">1.457</text>
</g>
<!-- go
output 0.000&#45;&gt;key 1542
bias &#45;0.681
h_scaling 0.131
output 0.838 -->
<g id="edge3" class="edge">
<title>go
output 0.000&#45;&gt;key 1542
bias &#45;0.681
h_scaling 0.131
output 0.838</title>
<path fill="none" stroke="red" stroke-width="3.1" d="M99.98,-480.04C93.09,-441 73.95,-332.51 61.61,-262.57"/>
<polygon fill="red" stroke="red" stroke-width="3.1" points="64.42,-262.37 59.24,-253.13 57.53,-263.59 64.42,-262.37"/>
<text text-anchor="middle" x="95.68" y="-344.37" font-family="Times New Roman,serif" font-size="9.00">1.104</text>
</g>
<!-- output
bias 0.526
h_scaling 0.567
output 0.007 -->
<g id="node3" class="node">
<title>output
bias 0.526
h_scaling 0.567
output 0.007</title>
<ellipse fill="lightblue" stroke="black" cx="278.56" cy="-50.56" rx="50.56" ry="50.56"/>
<text text-anchor="middle" x="278.56" y="-64.51" font-family="Times New Roman,serif" font-size="9.00">output</text>
<text text-anchor="middle" x="278.56" y="-53.26" font-family="Times New Roman,serif" font-size="9.00">bias 0.526</text>
<text text-anchor="middle" x="278.56" y="-42.01" font-family="Times New Roman,serif" font-size="9.00">h_scaling 0.567</text>
<text text-anchor="middle" x="278.56" y="-30.76" font-family="Times New Roman,serif" font-size="9.00">output 0.007</text>
</g>
<!-- output
bias 0.526
h_scaling 0.567
output 0.007&#45;&gt;key 92453
bias &#45;0.226
h_scaling 0.640
output 0.047 -->
<g id="edge6" class="edge">
<title>output
bias 0.526
h_scaling 0.567
output 0.007&#45;&gt;key 92453
bias &#45;0.226
h_scaling 0.640
output 0.047</title>
<path fill="none" stroke="red" stroke-width="0.39" d="M259.94,-97.83C254.04,-113.68 247.88,-131.63 243.31,-148.37 230.76,-194.37 221.14,-247.56 214.9,-287.2"/>
<polygon fill="red" stroke="red" stroke-width="0.39" points="211.46,-286.56 213.39,-296.98 218.38,-287.63 211.46,-286.56"/>
<text text-anchor="middle" x="253.68" y="-196" font-family="Times New Roman,serif" font-size="9.00">0.204</text>
</g>
<!-- key 167043
bias &#45;0.860
h_scaling 0.433
output 0.821 -->
<g id="node4" class="node">
<title>key 167043
bias &#45;0.860
h_scaling 0.433
output 0.821</title>
<ellipse fill="white" stroke="black" cx="323.56" cy="-198.92" rx="50.56" ry="50.56"/>
<text text-anchor="middle" x="323.56" y="-212.87" font-family="Times New Roman,serif" font-size="9.00">key 167043</text>
<text text-anchor="middle" x="323.56" y="-201.62" font-family="Times New Roman,serif" font-size="9.00">bias &#45;0.860</text>
<text text-anchor="middle" x="323.56" y="-190.37" font-family="Times New Roman,serif" font-size="9.00">h_scaling 0.433</text>
<text text-anchor="middle" x="323.56" y="-179.12" font-family="Times New Roman,serif" font-size="9.00">output 0.821</text>
</g>
<!-- key 167043
bias &#45;0.860
h_scaling 0.433
output 0.821&#45;&gt;output
bias 0.526
h_scaling 0.567
output 0.007 -->
<g id="edge11" class="edge">
<title>key 167043
bias &#45;0.860
h_scaling 0.433
output 0.821&#45;&gt;output
bias 0.526
h_scaling 0.567
output 0.007</title>
<path fill="none" stroke="blue" stroke-width="1.87" d="M308.95,-150.4C305.06,-137.75 300.81,-123.92 296.75,-110.73"/>
<polygon fill="blue" stroke="blue" stroke-width="1.87" points="299.53,-109.87 293.25,-101.34 292.84,-111.93 299.53,-109.87"/>
<text text-anchor="middle" x="313.18" y="-121.82" font-family="Times New Roman,serif" font-size="9.00">&#45;0.591</text>
</g>
<!-- key 167043
bias &#45;0.860
h_scaling 0.433
output 0.821&#45;&gt;key 167043
bias &#45;0.860
h_scaling 0.433
output 0.821 -->
<g id="edge14" class="edge">
<title>key 167043
bias &#45;0.860
h_scaling 0.433
output 0.821&#45;&gt;key 167043
bias &#45;0.860
h_scaling 0.433
output 0.821</title>
<path fill="none" stroke="red" stroke-width="2.8" d="M372.55,-212.53C383.83,-211.36 392.12,-206.82 392.12,-198.92 392.12,-194.73 389.78,-191.48 385.89,-189.19"/>
<polygon fill="red" stroke="red" stroke-width="2.8" points="387.13,-185.74 376.55,-186.32 385.18,-192.47 387.13,-185.74"/>
<text text-anchor="middle" x="402.24" y="-196" font-family="Times New Roman,serif" font-size="9.00">1.020</text>
</g>
<!-- key 92453
bias &#45;0.226
h_scaling 0.640
output 0.047&#45;&gt;output
bias 0.526
h_scaling 0.567
output 0.007 -->
<g id="edge21" class="edge">
<title>key 92453
bias &#45;0.226
h_scaling 0.640
output 0.047&#45;&gt;output
bias 0.526
h_scaling 0.567
output 0.007</title>
<path fill="none" stroke="blue" stroke-width="1.05" d="M193.31,-298.31C184.4,-257.2 177.24,-197.09 195.31,-148.37 203.19,-127.11 218.06,-107.39 233.08,-91.37"/>
<polygon fill="blue" stroke="blue" stroke-width="1.05" points="234.97,-94.42 239.43,-84.81 229.95,-89.54 234.97,-94.42"/>
<text text-anchor="middle" x="207.18" y="-196" font-family="Times New Roman,serif" font-size="9.00">&#45;0.316</text>
</g>
<!-- key 92453
bias &#45;0.226
h_scaling 0.640
output 0.047&#45;&gt;key 167043
bias &#45;0.860
h_scaling 0.433
output 0.821 -->
<g id="edge10" class="edge">
<title>key 92453
bias &#45;0.226
h_scaling 0.640
output 0.047&#45;&gt;key 167043
bias &#45;0.860
h_scaling 0.433
output 0.821</title>
<path fill="none" stroke="red" stroke-width="3.1" d="M237.91,-307.07C252,-289.44 268.79,-268.44 283.75,-249.72"/>
<polygon fill="red" stroke="red" stroke-width="3.1" points="286.81,-252 290.32,-242 281.34,-247.63 286.81,-252"/>
<text text-anchor="middle" x="279.68" y="-270.18" font-family="Times New Roman,serif" font-size="9.00">1.107</text>
</g>
<!-- key 92453
bias &#45;0.226
h_scaling 0.640
output 0.047&#45;&gt;key 92453
bias &#45;0.226
h_scaling 0.640
output 0.047 -->
<g id="edge7" class="edge">
<title>key 92453
bias &#45;0.226
h_scaling 0.640
output 0.047&#45;&gt;key 92453
bias &#45;0.226
h_scaling 0.640
output 0.047</title>
<path fill="none" stroke="red" stroke-width="2.07" d="M255.55,-360.89C266.83,-359.72 275.12,-355.19 275.12,-347.29 275.12,-342.73 272.35,-339.28 267.83,-336.97"/>
<polygon fill="red" stroke="red" stroke-width="2.07" points="269.11,-332.89 258.55,-333.69 267.31,-339.65 269.11,-332.89"/>
<text text-anchor="middle" x="285.24" y="-344.37" font-family="Times New Roman,serif" font-size="9.00">0.814</text>
</g>
<!-- key 92453
bias &#45;0.226
h_scaling 0.640
output 0.047&#45;&gt;key 1542
bias &#45;0.681
h_scaling 0.131
output 0.838 -->
<g id="edge5" class="edge">
<title>key 92453
bias &#45;0.226
h_scaling 0.640
output 0.047&#45;&gt;key 1542
bias &#45;0.681
h_scaling 0.131
output 0.838</title>
<path fill="none" stroke="red" stroke-width="3.1" d="M169.98,-311.97C148.25,-291.59 120.48,-265.53 97.19,-243.67"/>
<polygon fill="red" stroke="red" stroke-width="3.1" points="99.86,-241.57 90.17,-237.28 95.07,-246.67 99.86,-241.57"/>
<text text-anchor="middle" x="143.68" y="-270.18" font-family="Times New Roman,serif" font-size="9.00">1.032</text>
</g>
<!-- key 1542
bias &#45;0.681
h_scaling 0.131
output 0.838&#45;&gt;output
bias 0.526
h_scaling 0.567
output 0.007 -->
<g id="edge1" class="edge">
<title>key 1542
bias &#45;0.681
h_scaling 0.131
output 0.838&#45;&gt;output
bias 0.526
h_scaling 0.567
output 0.007</title>
<path fill="none" stroke="blue" stroke-width="3.1" d="M85.79,-162.1C101.11,-147.67 119.77,-131.54 138.31,-119.12 163.37,-102.32 193.25,-87.33 218.97,-75.76"/>
<polygon fill="blue" stroke="blue" stroke-width="3.1" points="219.87,-78.43 227.61,-71.19 217.05,-72.02 219.87,-78.43"/>
<text text-anchor="middle" x="150.18" y="-121.82" font-family="Times New Roman,serif" font-size="9.00">&#45;1.000</text>
</g>
<!-- key 1542
bias &#45;0.681
h_scaling 0.131
output 0.838&#45;&gt;key 1542
bias &#45;0.681
h_scaling 0.131
output 0.838 -->
<g id="edge2" class="edge">
<title>key 1542
bias &#45;0.681
h_scaling 0.131
output 0.838&#45;&gt;key 1542
bias &#45;0.681
h_scaling 0.131
output 0.838</title>
<path fill="none" stroke="red" stroke-width="2.69" d="M99.55,-212.53C110.83,-211.36 119.12,-206.82 119.12,-198.92 119.12,-194.73 116.78,-191.48 112.89,-189.19"/>
<polygon fill="red" stroke="red" stroke-width="2.69" points="113.13,-185.74 102.55,-186.32 111.18,-192.47 113.13,-185.74"/>
<text text-anchor="middle" x="129.24" y="-196" font-family="Times New Roman,serif" font-size="9.00">0.913</text>
</g>
<!-- key 190088
bias 0.328
h_scaling 0.247
output 0.000 -->
<g id="node7" class="node">
<title>key 190088
bias 0.328
h_scaling 0.247
output 0.000</title>
<ellipse fill="white" stroke="black" cx="599.56" cy="-495.66" rx="50.56" ry="50.56"/>
<text text-anchor="middle" x="599.56" y="-509.61" font-family="Times New Roman,serif" font-size="9.00">key 190088</text>
<text text-anchor="middle" x="599.56" y="-498.36" font-family="Times New Roman,serif" font-size="9.00">bias 0.328</text>
<text text-anchor="middle" x="599.56" y="-487.11" font-family="Times New Roman,serif" font-size="9.00">h_scaling 0.247</text>
<text text-anchor="middle" x="599.56" y="-475.86" font-family="Times New Roman,serif" font-size="9.00">output 0.000</text>
</g>
<!-- key 238477
bias &#45;0.719
h_scaling 0.523
output 0.027 -->
<g id="node8" class="node">
<title>key 238477
bias &#45;0.719
h_scaling 0.523
output 0.027</title>
<ellipse fill="white" stroke="black" cx="599.56" cy="-347.29" rx="50.56" ry="50.56"/>
<text text-anchor="middle" x="599.56" y="-361.24" font-family="Times New Roman,serif" font-size="9.00">key 238477</text>
<text text-anchor="middle" x="599.56" y="-349.99" font-family="Times New Roman,serif" font-size="9.00">bias &#45;0.719</text>
<text text-anchor="middle" x="599.56" y="-338.74" font-family="Times New Roman,serif" font-size="9.00">h_scaling 0.523</text>
<text text-anchor="middle" x="599.56" y="-327.49" font-family="Times New Roman,serif" font-size="9.00">output 0.027</text>
</g>
<!-- key 190088
bias 0.328
h_scaling 0.247
output 0.000&#45;&gt;key 238477
bias &#45;0.719
h_scaling 0.523
output 0.027 -->
<g id="edge22" class="edge">
<title>key 190088
bias 0.328
h_scaling 0.247
output 0.000&#45;&gt;key 238477
bias &#45;0.719
h_scaling 0.523
output 0.027</title>
<path fill="none" stroke="red" stroke-width="3.1" d="M599.56,-444.7C599.56,-434.1 599.56,-422.78 599.56,-411.75"/>
<polygon fill="red" stroke="red" stroke-width="3.1" points="603.06,-412.03 599.56,-402.03 596.06,-412.03 603.06,-412.03"/>
<text text-anchor="middle" x="609.68" y="-418.55" font-family="Times New Roman,serif" font-size="9.00">1.000</text>
</g>
<!-- key 197727
bias &#45;0.969
h_scaling 0.421
output 0.009 -->
<g id="node13" class="node">
<title>key 197727
bias &#45;0.969
h_scaling 0.421
output 0.009</title>
<ellipse fill="white" stroke="black" cx="599.56" cy="-198.92" rx="50.56" ry="50.56"/>
<text text-anchor="middle" x="599.56" y="-212.87" font-family="Times New Roman,serif" font-size="9.00">key 197727</text>
<text text-anchor="middle" x="599.56" y="-201.62" font-family="Times New Roman,serif" font-size="9.00">bias &#45;0.969</text>
<text text-anchor="middle" x="599.56" y="-190.37" font-family="Times New Roman,serif" font-size="9.00">h_scaling 0.421</text>
<text text-anchor="middle" x="599.56" y="-179.12" font-family="Times New Roman,serif" font-size="9.00">output 0.009</text>
</g>
<!-- key 238477
bias &#45;0.719
h_scaling 0.523
output 0.027&#45;&gt;key 197727
bias &#45;0.969
h_scaling 0.421
output 0.009 -->
<g id="edge23" class="edge">
<title>key 238477
bias &#45;0.719
h_scaling 0.523
output 0.027&#45;&gt;key 197727
bias &#45;0.969
h_scaling 0.421
output 0.009</title>
<path fill="none" stroke="red" stroke-width="2.33" d="M599.56,-296.33C599.56,-285.5 599.56,-273.91 599.56,-262.65"/>
<polygon fill="red" stroke="red" stroke-width="2.33" points="603.06,-262.66 599.56,-252.66 596.06,-262.66 603.06,-262.66"/>
<text text-anchor="middle" x="609.68" y="-270.18" font-family="Times New Roman,serif" font-size="9.00">0.742</text>
</g>
<!-- key 180791
bias &#45;0.190
h_scaling 0.342
output 0.726&#45;&gt;key 168731
bias &#45;0.716
h_scaling 0.382
output 0.763 -->
<g id="edge16" class="edge">
<title>key 180791
bias &#45;0.190
h_scaling 0.342
output 0.726&#45;&gt;key 168731
bias &#45;0.716
h_scaling 0.382
output 0.763</title>
<path fill="none" stroke="red" stroke-width="3.1" d="M332.53,-595.46C334.59,-588.76 336.65,-581.94 338.56,-575.47 340.25,-569.71 341.99,-563.72 343.7,-557.71"/>
<polygon fill="red" stroke="red" stroke-width="3.1" points="347.05,-559.22 346.4,-548.65 340.31,-557.32 347.05,-559.22"/>
<text text-anchor="middle" x="351.68" y="-566.92" font-family="Times New Roman,serif" font-size="9.00">1.050</text>
</g>
<!-- key 212888
bias 0.338
h_scaling 0.250
output 0.000 -->
<g id="node10" class="node">
<title>key 212888
bias 0.338
h_scaling 0.250
output 0.000</title>
<ellipse fill="white" stroke="black" cx="241.56" cy="-495.66" rx="50.56" ry="50.56"/>
<text text-anchor="middle" x="241.56" y="-509.61" font-family="Times New Roman,serif" font-size="9.00">key 212888</text>
<text text-anchor="middle" x="241.56" y="-498.36" font-family="Times New Roman,serif" font-size="9.00">bias 0.338</text>
<text text-anchor="middle" x="241.56" y="-487.11" font-family="Times New Roman,serif" font-size="9.00">h_scaling 0.250</text>
<text text-anchor="middle" x="241.56" y="-475.86" font-family="Times New Roman,serif" font-size="9.00">output 0.000</text>
</g>
<!-- key 212888
bias 0.338
h_scaling 0.250
output 0.000&#45;&gt;key 92453
bias &#45;0.226
h_scaling 0.640
output 0.047 -->
<g id="edge19" class="edge">
<title>key 212888
bias 0.338
h_scaling 0.250
output 0.000&#45;&gt;key 92453
bias &#45;0.226
h_scaling 0.640
output 0.047</title>
<path fill="none" stroke="blue" stroke-width="1.48" d="M230,-446.33C227.09,-434.15 223.93,-420.93 220.9,-408.26"/>
<polygon fill="blue" stroke="blue" stroke-width="1.48" points="223.89,-407.73 218.16,-398.82 217.08,-409.36 223.89,-407.73"/>
<text text-anchor="middle" x="237.18" y="-418.55" font-family="Times New Roman,serif" font-size="9.00">&#45;0.460</text>
</g>
<!-- key 234521
bias &#45;0.206
h_scaling 0.544
output 0.000 -->
<g id="node11" class="node">
<title>key 234521
bias &#45;0.206
h_scaling 0.544
output 0.000</title>
<ellipse fill="white" stroke="black" cx="480.56" cy="-198.92" rx="50.56" ry="50.56"/>
<text text-anchor="middle" x="480.56" y="-212.87" font-family="Times New Roman,serif" font-size="9.00">key 234521</text>
<text text-anchor="middle" x="480.56" y="-201.62" font-family="Times New Roman,serif" font-size="9.00">bias &#45;0.206</text>
<text text-anchor="middle" x="480.56" y="-190.37" font-family="Times New Roman,serif" font-size="9.00">h_scaling 0.544</text>
<text text-anchor="middle" x="480.56" y="-179.12" font-family="Times New Roman,serif" font-size="9.00">output 0.000</text>
</g>
<!-- key 234521
bias &#45;0.206
h_scaling 0.544
output 0.000&#45;&gt;output
bias 0.526
h_scaling 0.567
output 0.007 -->
<g id="edge20" class="edge">
<title>key 234521
bias &#45;0.206
h_scaling 0.544
output 0.000&#45;&gt;output
bias 0.526
h_scaling 0.567
output 0.007</title>
<path fill="none" stroke="blue" stroke-width="3.04" d="M442.62,-165.08C435.72,-159.38 428.5,-153.61 421.56,-148.37 392.9,-126.72 359.76,-104.14 332.6,-86.24"/>
<polygon fill="blue" stroke="blue" stroke-width="3.04" points="334.25,-83.17 323.97,-80.61 330.41,-89.02 334.25,-83.17"/>
<text text-anchor="middle" x="406.18" y="-121.82" font-family="Times New Roman,serif" font-size="9.00">&#45;0.978</text>
</g>
<!-- key 168731
bias &#45;0.716
h_scaling 0.382
output 0.763&#45;&gt;key 92453
bias &#45;0.226
h_scaling 0.640
output 0.047 -->
<g id="edge13" class="edge">
<title>key 168731
bias &#45;0.716
h_scaling 0.382
output 0.763&#45;&gt;key 92453
bias &#45;0.226
h_scaling 0.640
output 0.047</title>
<path fill="none" stroke="blue" stroke-width="1.85" d="M324.06,-459.97C302.37,-439.36 274.69,-413.05 251.64,-391.14"/>
<polygon fill="blue" stroke="blue" stroke-width="1.85" points="254.72,-388.33 245.06,-383.98 249.9,-393.41 254.72,-388.33"/>
<text text-anchor="middle" x="300.18" y="-418.55" font-family="Times New Roman,serif" font-size="9.00">&#45;0.583</text>
</g>
<!-- key 168731
bias &#45;0.716
h_scaling 0.382
output 0.763&#45;&gt;key 180791
bias &#45;0.190
h_scaling 0.342
output 0.726 -->
<g id="edge17" class="edge">
<title>key 168731
bias &#45;0.716
h_scaling 0.382
output 0.763&#45;&gt;key 180791
bias &#45;0.190
h_scaling 0.342
output 0.726</title>
<path fill="none" stroke="red" stroke-width="1.3" d="M328.62,-534.94C322.73,-544.02 317.46,-554.03 314.31,-564.22 312.47,-570.17 311.38,-576.49 310.84,-582.86"/>
<polygon fill="red" stroke="red" stroke-width="1.3" points="307.32,-582.46 310.42,-592.59 314.31,-582.74 307.32,-582.46"/>
<text text-anchor="middle" x="323.68" y="-566.92" font-family="Times New Roman,serif" font-size="9.00">0.431</text>
</g>
<!-- key 197727
bias &#45;0.969
h_scaling 0.421
output 0.009&#45;&gt;output
bias 0.526
h_scaling 0.567
output 0.007 -->
<g id="edge18" class="edge">
<title>key 197727
bias &#45;0.969
h_scaling 0.421
output 0.009&#45;&gt;output
bias 0.526
h_scaling 0.567
output 0.007</title>
<path fill="none" stroke="red" stroke-width="0.28" d="M562.92,-163.88C555.81,-158.24 548.19,-152.8 540.56,-148.37 475.09,-110.34 392.03,-82.69 337.18,-66.9"/>
<polygon fill="red" stroke="red" stroke-width="0.28" points="338.2,-63.55 327.62,-64.18 336.28,-70.28 338.2,-63.55"/>
<text text-anchor="middle" x="509.68" y="-121.82" font-family="Times New Roman,serif" font-size="9.00">0.059</text>
</g>
</g>
</svg>
