<?xml version="1.0" encoding="UTF-8" standalone="no"?>
<!DOCTYPE svg PUBLIC "-//W3C//DTD SVG 1.1//EN"
 "http://www.w3.org/Graphics/SVG/1.1/DTD/svg11.dtd">
<!-- Generated by graphviz version 8.0.5 (20230430.1635)
 -->
<!-- Pages: 1 -->
<svg width="251pt" height="301pt"
 viewBox="0.00 0.00 250.61 301.48" xmlns="http://www.w3.org/2000/svg" xmlns:xlink="http://www.w3.org/1999/xlink">
<g id="graph0" class="graph" transform="scale(1 1) rotate(0) translate(4 297.48)">
<polygon fill="white" stroke="none" points="-4,4 -4,-297.48 246.61,-297.48 246.61,4 -4,4"/>
<!-- ready -->
<g id="node1" class="node">
<title>ready</title>
<polygon fill="yellow" stroke="black" points="174.18,-293.48 137.93,-293.48 137.93,-274.23 174.18,-274.23 174.18,-293.48"/>
<text text-anchor="middle" x="156.06" y="-280.93" font-family="Times New Roman,serif" font-size="9.00">ready</text>
</g>
<!-- key 336
bias 1.876
h_scaling 1.000 -->
<g id="node4" class="node">
<title>key 336
bias 1.876
h_scaling 1.000</title>
<ellipse fill="white" stroke="black" cx="192.06" cy="-187.67" rx="50.56" ry="50.56"/>
<text text-anchor="middle" x="192.06" y="-196" font-family="Times New Roman,serif" font-size="9.00">key 336</text>
<text text-anchor="middle" x="192.06" y="-184.75" font-family="Times New Roman,serif" font-size="9.00">bias 1.876</text>
<text text-anchor="middle" x="192.06" y="-173.5" font-family="Times New Roman,serif" font-size="9.00">h_scaling 1.000</text>
</g>
<!-- ready&#45;&gt;key 336
bias 1.876
h_scaling 1.000 -->
<g id="edge3" class="edge">
<title>ready&#45;&gt;key 336
bias 1.876
h_scaling 1.000</title>
<path fill="none" stroke="blue" stroke-width="1.36" d="M159.51,-273.83C162.12,-266.99 165.96,-256.96 170.09,-246.15"/>
<polygon fill="blue" stroke="blue" stroke-width="1.36" points="173.98,-246.78 174.28,-236.19 167.44,-244.28 173.98,-246.78"/>
</g>
<!-- key 335
bias 1.541
h_scaling 1.000 -->
<g id="node5" class="node">
<title>key 335
bias 1.541
h_scaling 1.000</title>
<ellipse fill="white" stroke="black" cx="73.06" cy="-187.67" rx="50.56" ry="50.56"/>
<text text-anchor="middle" x="73.06" y="-196" font-family="Times New Roman,serif" font-size="9.00">key 335</text>
<text text-anchor="middle" x="73.06" y="-184.75" font-family="Times New Roman,serif" font-size="9.00">bias 1.541</text>
<text text-anchor="middle" x="73.06" y="-173.5" font-family="Times New Roman,serif" font-size="9.00">h_scaling 1.000</text>
</g>
<!-- ready&#45;&gt;key 335
bias 1.541
h_scaling 1.000 -->
<g id="edge1" class="edge">
<title>ready&#45;&gt;key 335
bias 1.541
h_scaling 1.000</title>
<path fill="none" stroke="red" stroke-width="2.68" d="M148.1,-273.83C140.33,-265.01 127.87,-250.87 115.32,-236.63"/>
<polygon fill="red" stroke="red" stroke-width="2.68" points="117.47,-234.51 108.23,-229.32 112.22,-239.14 117.47,-234.51"/>
</g>
<!-- go -->
<g id="node2" class="node">
<title>go</title>
<polygon fill="green" stroke="black" points="85.18,-293.48 60.93,-293.48 60.93,-274.23 85.18,-274.23 85.18,-293.48"/>
<text text-anchor="middle" x="73.06" y="-280.93" font-family="Times New Roman,serif" font-size="9.00">go</text>
</g>
<!-- key output
bias 0.963
h_scaling 1.000 -->
<g id="node3" class="node">
<title>key output
bias 0.963
h_scaling 1.000</title>
<ellipse fill="lightblue" stroke="black" cx="73.06" cy="-50.56" rx="50.56" ry="50.56"/>
<text text-anchor="middle" x="73.06" y="-58.88" font-family="Times New Roman,serif" font-size="9.00">key output</text>
<text text-anchor="middle" x="73.06" y="-47.63" font-family="Times New Roman,serif" font-size="9.00">bias 0.963</text>
<text text-anchor="middle" x="73.06" y="-36.38" font-family="Times New Roman,serif" font-size="9.00">h_scaling 1.000</text>
</g>
<!-- go&#45;&gt;key output
bias 0.963
h_scaling 1.000 -->
<g id="edge7" class="edge">
<title>go&#45;&gt;key output
bias 0.963
h_scaling 1.000</title>
<path fill="none" stroke="blue" stroke-width="2.02" d="M60.65,-277.81C46.17,-271.16 22.97,-257.95 13.06,-238.23 -7.12,-198.08 -0.47,-179.97 13.06,-137.12 17.24,-123.87 24.28,-110.89 32.11,-99.21"/>
<polygon fill="blue" stroke="blue" stroke-width="2.02" points="35.51,-101.06 38.45,-90.88 29.81,-97 35.51,-101.06"/>
</g>
<!-- go&#45;&gt;key 336
bias 1.876
h_scaling 1.000 -->
<g id="edge2" class="edge">
<title>go&#45;&gt;key 336
bias 1.876
h_scaling 1.000</title>
<path fill="none" stroke="red" stroke-width="0.3" d="M85.63,-273.84C97.88,-264.97 116.97,-250.95 133.06,-238.23 137.43,-234.78 141.93,-231.14 146.42,-227.46"/>
<polygon fill="red" stroke="red" stroke-width="0.3" points="148.44,-230.33 153.93,-221.26 143.99,-224.93 148.44,-230.33"/>
</g>
<!-- go&#45;&gt;key 335
bias 1.541
h_scaling 1.000 -->
<g id="edge6" class="edge">
<title>go&#45;&gt;key 335
bias 1.541
h_scaling 1.000</title>
<path fill="none" stroke="blue" stroke-width="1.46" d="M73.06,-273.83C73.06,-267.87 73.06,-259.49 73.06,-250.28"/>
<polygon fill="blue" stroke="blue" stroke-width="1.46" points="76.56,-250.31 73.06,-240.31 69.56,-250.31 76.56,-250.31"/>
</g>
<!-- key 336
bias 1.876
h_scaling 1.000&#45;&gt;key output
bias 0.963
h_scaling 1.000 -->
<g id="edge5" class="edge">
<title>key 336
bias 1.876
h_scaling 1.000&#45;&gt;key output
bias 0.963
h_scaling 1.000</title>
<path fill="none" stroke="blue" stroke-width="3.58" d="M158.91,-149.04C145.5,-133.81 129.85,-116.04 115.61,-99.88"/>
<polygon fill="blue" stroke="blue" stroke-width="3.58" points="118.26,-98.18 109.03,-92.99 113.01,-102.81 118.26,-98.18"/>
</g>
<!-- key 335
bias 1.541
h_scaling 1.000&#45;&gt;key output
bias 0.963
h_scaling 1.000 -->
<g id="edge4" class="edge">
<title>key 335
bias 1.541
h_scaling 1.000&#45;&gt;key output
bias 0.963
h_scaling 1.000</title>
<path fill="none" stroke="blue" stroke-width="3.17" d="M73.06,-136.75C73.06,-129.69 73.06,-122.36 73.06,-115.09"/>
<polygon fill="blue" stroke="blue" stroke-width="3.17" points="76.56,-115.28 73.06,-105.28 69.56,-115.28 76.56,-115.28"/>
</g>
</g>
</svg>
