<?xml version="1.0" encoding="UTF-8" standalone="no"?>
<!DOCTYPE svg PUBLIC "-//W3C//DTD SVG 1.1//EN"
 "http://www.w3.org/Graphics/SVG/1.1/DTD/svg11.dtd">
<!-- Generated by graphviz version 2.43.0 (0)
 -->
<!-- Title: %3 Pages: 1 -->
<svg width="451pt" height="902pt"
 viewBox="0.00 0.00 451.14 902.40" xmlns="http://www.w3.org/2000/svg" xmlns:xlink="http://www.w3.org/1999/xlink">
<g id="graph0" class="graph" transform="scale(1 1) rotate(0) translate(4 898.4)">
<title>%3</title>
<polygon fill="white" stroke="transparent" points="-4,4 -4,-898.4 447.14,-898.4 447.14,4 -4,4"/>
<!-- ready
output 0.000 -->
<g id="node1" class="node">
<title>ready
output 0.000</title>
<polygon fill="yellow" stroke="black" points="77,-894.4 0,-894.4 0,-866.4 77,-866.4 77,-894.4"/>
<text text-anchor="middle" x="38.5" y="-883.2" font-family="Times,serif" font-size="9.00">ready</text>
<text text-anchor="middle" x="38.5" y="-873.2" font-family="Times,serif" font-size="9.00">output 0.000</text>
</g>
<!-- key 53039
bias &#45;0.483
h_scaling 0.875
output 0.131 -->
<g id="node6" class="node">
<title>key 53039
bias &#45;0.483
h_scaling 0.875
output 0.131</title>
<ellipse fill="white" stroke="black" cx="120.5" cy="-756.76" rx="63.78" ry="63.78"/>
<text text-anchor="middle" x="120.5" y="-769.56" font-family="Times,serif" font-size="9.00">key 53039</text>
<text text-anchor="middle" x="120.5" y="-759.56" font-family="Times,serif" font-size="9.00">bias &#45;0.483</text>
<text text-anchor="middle" x="120.5" y="-749.56" font-family="Times,serif" font-size="9.00">h_scaling 0.875</text>
<text text-anchor="middle" x="120.5" y="-739.56" font-family="Times,serif" font-size="9.00">output 0.131</text>
</g>
<!-- ready
output 0.000&#45;&gt;key 53039
bias &#45;0.483
h_scaling 0.875
output 0.131 -->
<g id="edge8" class="edge">
<title>ready
output 0.000&#45;&gt;key 53039
bias &#45;0.483
h_scaling 0.875
output 0.131</title>
<path fill="none" stroke="red" stroke-width="1.95" d="M47.28,-866.38C55.19,-854.63 67.44,-836.46 79.67,-818.32"/>
<polygon fill="red" stroke="red" stroke-width="1.95" points="82.59,-820.26 85.27,-810.01 76.78,-816.35 82.59,-820.26"/>
<text text-anchor="middle" x="79.5" y="-841.2" font-family="Times,serif" font-size="9.00">1.315</text>
</g>
<!-- key 819
bias &#45;0.882
h_scaling 0.293
output 0.052 -->
<g id="node8" class="node">
<title>key 819
bias &#45;0.882
h_scaling 0.293
output 0.052</title>
<ellipse fill="white" stroke="black" cx="120.5" cy="-583.48" rx="63.78" ry="63.78"/>
<text text-anchor="middle" x="120.5" y="-596.28" font-family="Times,serif" font-size="9.00">key 819</text>
<text text-anchor="middle" x="120.5" y="-586.28" font-family="Times,serif" font-size="9.00">bias &#45;0.882</text>
<text text-anchor="middle" x="120.5" y="-576.28" font-family="Times,serif" font-size="9.00">h_scaling 0.293</text>
<text text-anchor="middle" x="120.5" y="-566.28" font-family="Times,serif" font-size="9.00">output 0.052</text>
</g>
<!-- ready
output 0.000&#45;&gt;key 819
bias &#45;0.882
h_scaling 0.293
output 0.052 -->
<g id="edge12" class="edge">
<title>ready
output 0.000&#45;&gt;key 819
bias &#45;0.882
h_scaling 0.293
output 0.052</title>
<path fill="none" stroke="red" stroke-width="1.03" d="M33.11,-866.19C21.2,-834.88 -4.52,-754.23 19.5,-693.12 28.73,-669.63 45.7,-648.2 63.12,-630.7"/>
<polygon fill="red" stroke="red" stroke-width="1.03" points="65.86,-632.92 70.6,-623.45 60.98,-627.9 65.86,-632.92"/>
<text text-anchor="middle" x="33.5" y="-754.56" font-family="Times,serif" font-size="9.00">0.545</text>
</g>
<!-- go
output 0.000 -->
<g id="node2" class="node">
<title>go
output 0.000</title>
<polygon fill="green" stroke="black" points="305,-894.4 228,-894.4 228,-866.4 305,-866.4 305,-894.4"/>
<text text-anchor="middle" x="266.5" y="-883.2" font-family="Times,serif" font-size="9.00">go</text>
<text text-anchor="middle" x="266.5" y="-873.2" font-family="Times,serif" font-size="9.00">output 0.000</text>
</g>
<!-- key 347243
bias &#45;0.984
h_scaling 0.006
output 0.007 -->
<g id="node5" class="node">
<title>key 347243
bias &#45;0.984
h_scaling 0.006
output 0.007</title>
<ellipse fill="white" stroke="black" cx="379.5" cy="-756.76" rx="63.78" ry="63.78"/>
<text text-anchor="middle" x="379.5" y="-769.56" font-family="Times,serif" font-size="9.00">key 347243</text>
<text text-anchor="middle" x="379.5" y="-759.56" font-family="Times,serif" font-size="9.00">bias &#45;0.984</text>
<text text-anchor="middle" x="379.5" y="-749.56" font-family="Times,serif" font-size="9.00">h_scaling 0.006</text>
<text text-anchor="middle" x="379.5" y="-739.56" font-family="Times,serif" font-size="9.00">output 0.007</text>
</g>
<!-- go
output 0.000&#45;&gt;key 347243
bias &#45;0.984
h_scaling 0.006
output 0.007 -->
<g id="edge14" class="edge">
<title>go
output 0.000&#45;&gt;key 347243
bias &#45;0.984
h_scaling 0.006
output 0.007</title>
<path fill="none" stroke="blue" stroke-width="1.81" d="M278.59,-866.38C290.92,-853.11 310.85,-831.66 329.76,-811.3"/>
<polygon fill="blue" stroke="blue" stroke-width="1.81" points="332.42,-813.58 336.66,-803.87 327.29,-808.81 332.42,-813.58"/>
<text text-anchor="middle" x="318" y="-841.2" font-family="Times,serif" font-size="9.00">&#45;0.571</text>
</g>
<!-- go
output 0.000&#45;&gt;key 53039
bias &#45;0.483
h_scaling 0.875
output 0.131 -->
<g id="edge6" class="edge">
<title>go
output 0.000&#45;&gt;key 53039
bias &#45;0.483
h_scaling 0.875
output 0.131</title>
<path fill="none" stroke="blue" stroke-width="2.95" d="M246.39,-866.35C238.47,-861 229.4,-854.62 221.5,-848.4 205.66,-835.92 189.13,-821.65 174.13,-808.19"/>
<polygon fill="blue" stroke="blue" stroke-width="2.95" points="176.2,-805.35 166.44,-801.24 171.51,-810.54 176.2,-805.35"/>
<text text-anchor="middle" x="237" y="-841.2" font-family="Times,serif" font-size="9.00">&#45;0.950</text>
</g>
<!-- go
output 0.000&#45;&gt;key 819
bias &#45;0.882
h_scaling 0.293
output 0.052 -->
<g id="edge3" class="edge">
<title>go
output 0.000&#45;&gt;key 819
bias &#45;0.882
h_scaling 0.293
output 0.052</title>
<path fill="none" stroke="blue" stroke-width="3" d="M267.5,-866.29C269.34,-834.52 270.57,-751.73 239.5,-693.12 225.67,-667.03 203.02,-643.99 181.17,-625.92"/>
<polygon fill="blue" stroke="blue" stroke-width="3" points="183.16,-623.02 173.18,-619.48 178.77,-628.48 183.16,-623.02"/>
<text text-anchor="middle" x="283" y="-754.56" font-family="Times,serif" font-size="9.00">&#45;0.965</text>
</g>
<!-- output
bias &#45;0.734
h_scaling 0.078
output 0.056 -->
<g id="node3" class="node">
<title>output
bias &#45;0.734
h_scaling 0.078
output 0.056</title>
<ellipse fill="lightblue" stroke="black" cx="194.5" cy="-410.2" rx="63.78" ry="63.78"/>
<text text-anchor="middle" x="194.5" y="-423" font-family="Times,serif" font-size="9.00">output</text>
<text text-anchor="middle" x="194.5" y="-413" font-family="Times,serif" font-size="9.00">bias &#45;0.734</text>
<text text-anchor="middle" x="194.5" y="-403" font-family="Times,serif" font-size="9.00">h_scaling 0.078</text>
<text text-anchor="middle" x="194.5" y="-393" font-family="Times,serif" font-size="9.00">output 0.056</text>
</g>
<!-- key 76375
bias &#45;0.342
h_scaling 0.615
output 0.617 -->
<g id="node10" class="node">
<title>key 76375
bias &#45;0.342
h_scaling 0.615
output 0.617</title>
<ellipse fill="white" stroke="black" cx="100.5" cy="-236.92" rx="63.78" ry="63.78"/>
<text text-anchor="middle" x="100.5" y="-249.72" font-family="Times,serif" font-size="9.00">key 76375</text>
<text text-anchor="middle" x="100.5" y="-239.72" font-family="Times,serif" font-size="9.00">bias &#45;0.342</text>
<text text-anchor="middle" x="100.5" y="-229.72" font-family="Times,serif" font-size="9.00">h_scaling 0.615</text>
<text text-anchor="middle" x="100.5" y="-219.72" font-family="Times,serif" font-size="9.00">output 0.617</text>
</g>
<!-- output
bias &#45;0.734
h_scaling 0.078
output 0.056&#45;&gt;key 76375
bias &#45;0.342
h_scaling 0.615
output 0.617 -->
<g id="edge9" class="edge">
<title>output
bias &#45;0.734
h_scaling 0.078
output 0.056&#45;&gt;key 76375
bias &#45;0.342
h_scaling 0.615
output 0.617</title>
<path fill="none" stroke="blue" stroke-width="2.34" d="M164.24,-354.06C155.1,-337.41 144.99,-318.98 135.56,-301.8"/>
<polygon fill="blue" stroke="blue" stroke-width="2.34" points="138.58,-300.03 130.7,-292.95 132.45,-303.4 138.58,-300.03"/>
<text text-anchor="middle" x="163" y="-321.36" font-family="Times,serif" font-size="9.00">&#45;0.745</text>
</g>
<!-- key 271205
bias &#45;0.513
h_scaling 0.576
output 0.157 -->
<g id="node4" class="node">
<title>key 271205
bias &#45;0.513
h_scaling 0.576
output 0.157</title>
<ellipse fill="white" stroke="black" cx="100.5" cy="-63.64" rx="63.78" ry="63.78"/>
<text text-anchor="middle" x="100.5" y="-76.44" font-family="Times,serif" font-size="9.00">key 271205</text>
<text text-anchor="middle" x="100.5" y="-66.44" font-family="Times,serif" font-size="9.00">bias &#45;0.513</text>
<text text-anchor="middle" x="100.5" y="-56.44" font-family="Times,serif" font-size="9.00">h_scaling 0.576</text>
<text text-anchor="middle" x="100.5" y="-46.44" font-family="Times,serif" font-size="9.00">output 0.157</text>
</g>
<!-- key 271205
bias &#45;0.513
h_scaling 0.576
output 0.157&#45;&gt;key 76375
bias &#45;0.342
h_scaling 0.615
output 0.617 -->
<g id="edge11" class="edge">
<title>key 271205
bias &#45;0.513
h_scaling 0.576
output 0.157&#45;&gt;key 76375
bias &#45;0.342
h_scaling 0.615
output 0.617</title>
<path fill="none" stroke="red" stroke-width="2.3" d="M103.92,-127.58C104.16,-133.56 104.36,-139.53 104.5,-145.28 104.64,-151.03 104.66,-156.98 104.59,-162.97"/>
<polygon fill="red" stroke="red" stroke-width="2.3" points="101.09,-162.96 104.4,-173.03 108.09,-163.1 101.09,-162.96"/>
<text text-anchor="middle" x="119.5" y="-148.08" font-family="Times,serif" font-size="9.00">0.775</text>
</g>
<!-- key 418676
bias &#45;0.100
h_scaling 1.000
output 0.378 -->
<g id="node9" class="node">
<title>key 418676
bias &#45;0.100
h_scaling 1.000
output 0.378</title>
<ellipse fill="white" stroke="black" cx="379.5" cy="-583.48" rx="63.78" ry="63.78"/>
<text text-anchor="middle" x="379.5" y="-596.28" font-family="Times,serif" font-size="9.00">key 418676</text>
<text text-anchor="middle" x="379.5" y="-586.28" font-family="Times,serif" font-size="9.00">bias &#45;0.100</text>
<text text-anchor="middle" x="379.5" y="-576.28" font-family="Times,serif" font-size="9.00">h_scaling 1.000</text>
<text text-anchor="middle" x="379.5" y="-566.28" font-family="Times,serif" font-size="9.00">output 0.378</text>
</g>
<!-- key 347243
bias &#45;0.984
h_scaling 0.006
output 0.007&#45;&gt;key 418676
bias &#45;0.100
h_scaling 1.000
output 0.378 -->
<g id="edge15" class="edge">
<title>key 347243
bias &#45;0.984
h_scaling 0.006
output 0.007&#45;&gt;key 418676
bias &#45;0.100
h_scaling 1.000
output 0.378</title>
<path fill="none" stroke="red" stroke-width="0.4" d="M379.5,-692.95C379.5,-681.43 379.5,-669.32 379.5,-657.53"/>
<polygon fill="red" stroke="red" stroke-width="0.4" points="383,-657.28 379.5,-647.28 376,-657.28 383,-657.28"/>
<text text-anchor="middle" x="393.5" y="-667.92" font-family="Times,serif" font-size="9.00">0.101</text>
</g>
<!-- key 53039
bias &#45;0.483
h_scaling 0.875
output 0.131&#45;&gt;key 53039
bias &#45;0.483
h_scaling 0.875
output 0.131 -->
<g id="edge5" class="edge">
<title>key 53039
bias &#45;0.483
h_scaling 0.875
output 0.131&#45;&gt;key 53039
bias &#45;0.483
h_scaling 0.875
output 0.131</title>
<path fill="none" stroke="red" stroke-width="3.1" d="M182.44,-772.05C194,-770.17 202.14,-765.07 202.14,-756.76 202.14,-751.04 198.29,-746.84 192.13,-744.17"/>
<polygon fill="red" stroke="red" stroke-width="3.1" points="193.02,-740.78 182.44,-741.46 191.13,-747.52 193.02,-740.78"/>
<text text-anchor="middle" x="216.14" y="-754.56" font-family="Times,serif" font-size="9.00">1.267</text>
</g>
<!-- key 53039
bias &#45;0.483
h_scaling 0.875
output 0.131&#45;&gt;key 819
bias &#45;0.882
h_scaling 0.293
output 0.052 -->
<g id="edge4" class="edge">
<title>key 53039
bias &#45;0.483
h_scaling 0.875
output 0.131&#45;&gt;key 819
bias &#45;0.882
h_scaling 0.293
output 0.052</title>
<path fill="none" stroke="red" stroke-width="1.74" d="M120.5,-692.95C120.5,-681.43 120.5,-669.32 120.5,-657.53"/>
<polygon fill="red" stroke="red" stroke-width="1.74" points="124,-657.28 120.5,-647.28 117,-657.28 124,-657.28"/>
<text text-anchor="middle" x="134.5" y="-667.92" font-family="Times,serif" font-size="9.00">0.635</text>
</g>
<!-- key 418257
bias &#45;0.712
h_scaling 0.013
output 0.019 -->
<g id="node7" class="node">
<title>key 418257
bias &#45;0.712
h_scaling 0.013
output 0.019</title>
<ellipse fill="white" stroke="black" cx="379.5" cy="-410.2" rx="63.78" ry="63.78"/>
<text text-anchor="middle" x="379.5" y="-423" font-family="Times,serif" font-size="9.00">key 418257</text>
<text text-anchor="middle" x="379.5" y="-413" font-family="Times,serif" font-size="9.00">bias &#45;0.712</text>
<text text-anchor="middle" x="379.5" y="-403" font-family="Times,serif" font-size="9.00">h_scaling 0.013</text>
<text text-anchor="middle" x="379.5" y="-393" font-family="Times,serif" font-size="9.00">output 0.019</text>
</g>
<!-- key 819
bias &#45;0.882
h_scaling 0.293
output 0.052&#45;&gt;output
bias &#45;0.734
h_scaling 0.078
output 0.056 -->
<g id="edge2" class="edge">
<title>key 819
bias &#45;0.882
h_scaling 0.293
output 0.052&#45;&gt;output
bias &#45;0.734
h_scaling 0.078
output 0.056</title>
<path fill="none" stroke="red" stroke-width="3.1" d="M145.55,-524.49C151.98,-509.62 158.94,-493.51 165.54,-478.22"/>
<polygon fill="red" stroke="red" stroke-width="3.1" points="168.85,-479.4 169.6,-468.83 162.42,-476.63 168.85,-479.4"/>
<text text-anchor="middle" x="171.5" y="-494.64" font-family="Times,serif" font-size="9.00">1.008</text>
</g>
<!-- key 819
bias &#45;0.882
h_scaling 0.293
output 0.052&#45;&gt;key 819
bias &#45;0.882
h_scaling 0.293
output 0.052 -->
<g id="edge1" class="edge">
<title>key 819
bias &#45;0.882
h_scaling 0.293
output 0.052&#45;&gt;key 819
bias &#45;0.882
h_scaling 0.293
output 0.052</title>
<path fill="none" stroke="red" stroke-width="3.1" d="M182.44,-598.77C194,-596.89 202.14,-591.79 202.14,-583.48 202.14,-577.76 198.29,-573.56 192.13,-570.89"/>
<polygon fill="red" stroke="red" stroke-width="3.1" points="193.02,-567.5 182.44,-568.18 191.13,-574.24 193.02,-567.5"/>
<text text-anchor="middle" x="216.14" y="-581.28" font-family="Times,serif" font-size="9.00">1.035</text>
</g>
<!-- key 418676
bias &#45;0.100
h_scaling 1.000
output 0.378&#45;&gt;key 418257
bias &#45;0.712
h_scaling 0.013
output 0.019 -->
<g id="edge16" class="edge">
<title>key 418676
bias &#45;0.100
h_scaling 1.000
output 0.378&#45;&gt;key 418257
bias &#45;0.712
h_scaling 0.013
output 0.019</title>
<path fill="none" stroke="blue" stroke-width="0.71" d="M379.5,-519.67C379.5,-508.15 379.5,-496.04 379.5,-484.25"/>
<polygon fill="blue" stroke="blue" stroke-width="0.71" points="383,-484 379.5,-474 376,-484 383,-484"/>
<text text-anchor="middle" x="395" y="-494.64" font-family="Times,serif" font-size="9.00">&#45;0.202</text>
</g>
<!-- key 76375
bias &#45;0.342
h_scaling 0.615
output 0.617&#45;&gt;key 271205
bias &#45;0.513
h_scaling 0.576
output 0.157 -->
<g id="edge10" class="edge">
<title>key 76375
bias &#45;0.342
h_scaling 0.615
output 0.617&#45;&gt;key 271205
bias &#45;0.513
h_scaling 0.576
output 0.157</title>
<path fill="none" stroke="red" stroke-width="3.1" d="M77.81,-177.33C75.77,-166.75 74.97,-155.75 76.5,-145.28 77.03,-141.67 77.68,-138 78.42,-134.31"/>
<polygon fill="red" stroke="red" stroke-width="3.1" points="81.84,-135.06 80.61,-124.54 75.01,-133.53 81.84,-135.06"/>
<text text-anchor="middle" x="90.5" y="-148.08" font-family="Times,serif" font-size="9.00">1.035</text>
</g>
<!-- key 76375
bias &#45;0.342
h_scaling 0.615
output 0.617&#45;&gt;key 819
bias &#45;0.882
h_scaling 0.293
output 0.052 -->
<g id="edge7" class="edge">
<title>key 76375
bias &#45;0.342
h_scaling 0.615
output 0.617&#45;&gt;key 819
bias &#45;0.882
h_scaling 0.293
output 0.052</title>
<path fill="none" stroke="red" stroke-width="1.37" d="M93.54,-300.24C89.44,-347.94 86.33,-415.27 93.5,-473.84 95.04,-486.4 97.54,-499.59 100.41,-512.29"/>
<polygon fill="red" stroke="red" stroke-width="1.37" points="97.08,-513.42 102.79,-522.34 103.9,-511.81 97.08,-513.42"/>
<text text-anchor="middle" x="107.5" y="-408" font-family="Times,serif" font-size="9.00">0.442</text>
</g>
<!-- key 76375
bias &#45;0.342
h_scaling 0.615
output 0.617&#45;&gt;key 76375
bias &#45;0.342
h_scaling 0.615
output 0.617 -->
<g id="edge13" class="edge">
<title>key 76375
bias &#45;0.342
h_scaling 0.615
output 0.617&#45;&gt;key 76375
bias &#45;0.342
h_scaling 0.615
output 0.617</title>
<path fill="none" stroke="red" stroke-width="0.73" d="M162.44,-252.22C174,-250.33 182.14,-245.23 182.14,-236.92 182.14,-231.2 178.29,-227.01 172.13,-224.33"/>
<polygon fill="red" stroke="red" stroke-width="0.73" points="173.02,-220.94 162.44,-221.62 171.13,-227.68 173.02,-220.94"/>
<text text-anchor="middle" x="196.14" y="-234.72" font-family="Times,serif" font-size="9.00">0.249</text>
</g>
</g>
</svg>
