<?xml version="1.0" encoding="UTF-8" standalone="no"?>
<!DOCTYPE svg PUBLIC "-//W3C//DTD SVG 1.1//EN"
 "http://www.w3.org/Graphics/SVG/1.1/DTD/svg11.dtd">
<!-- Generated by graphviz version 2.43.0 (0)
 -->
<!-- Title: %3 Pages: 1 -->
<svg width="487pt" height="1076pt"
 viewBox="0.00 0.00 486.64 1075.68" xmlns="http://www.w3.org/2000/svg" xmlns:xlink="http://www.w3.org/1999/xlink">
<g id="graph0" class="graph" transform="scale(1 1) rotate(0) translate(4 1071.68)">
<title>%3</title>
<polygon fill="white" stroke="transparent" points="-4,4 -4,-1071.68 482.64,-1071.68 482.64,4 -4,4"/>
<!-- ready
output 0.000 -->
<g id="node1" class="node">
<title>ready
output 0.000</title>
<polygon fill="yellow" stroke="black" points="272.14,-1067.68 195.14,-1067.68 195.14,-1039.68 272.14,-1039.68 272.14,-1067.68"/>
<text text-anchor="middle" x="233.64" y="-1056.48" font-family="Times,serif" font-size="9.00">ready</text>
<text text-anchor="middle" x="233.64" y="-1046.48" font-family="Times,serif" font-size="9.00">output 0.000</text>
</g>
<!-- key 7649
bias 0.380
h_scaling 0.475
output 0.744 -->
<g id="node4" class="node">
<title>key 7649
bias 0.380
h_scaling 0.475
output 0.744</title>
<ellipse fill="white" stroke="black" cx="63.64" cy="-930.04" rx="63.78" ry="63.78"/>
<text text-anchor="middle" x="63.64" y="-942.84" font-family="Times,serif" font-size="9.00">key 7649</text>
<text text-anchor="middle" x="63.64" y="-932.84" font-family="Times,serif" font-size="9.00">bias 0.380</text>
<text text-anchor="middle" x="63.64" y="-922.84" font-family="Times,serif" font-size="9.00">h_scaling 0.475</text>
<text text-anchor="middle" x="63.64" y="-912.84" font-family="Times,serif" font-size="9.00">output 0.744</text>
</g>
<!-- ready
output 0.000&#45;&gt;key 7649
bias 0.380
h_scaling 0.475
output 0.744 -->
<g id="edge14" class="edge">
<title>ready
output 0.000&#45;&gt;key 7649
bias 0.380
h_scaling 0.475
output 0.744</title>
<path fill="none" stroke="red" stroke-width="0.1" d="M195.06,-1050.52C169.66,-1047.35 136.93,-1039.74 113.64,-1021.68 105.35,-1015.25 98.25,-1007.04 92.21,-998.2"/>
<polygon fill="red" stroke="red" stroke-width="0.1" points="95.06,-996.15 86.75,-989.57 89.14,-999.89 95.06,-996.15"/>
<text text-anchor="middle" x="127.64" y="-1014.48" font-family="Times,serif" font-size="9.00">0.994</text>
</g>
<!-- key 13348
bias 0.756
h_scaling 0.488
output 0.882 -->
<g id="node6" class="node">
<title>key 13348
bias 0.756
h_scaling 0.488
output 0.882</title>
<ellipse fill="white" stroke="black" cx="309.64" cy="-410.2" rx="63.78" ry="63.78"/>
<text text-anchor="middle" x="309.64" y="-423" font-family="Times,serif" font-size="9.00">key 13348</text>
<text text-anchor="middle" x="309.64" y="-413" font-family="Times,serif" font-size="9.00">bias 0.756</text>
<text text-anchor="middle" x="309.64" y="-403" font-family="Times,serif" font-size="9.00">h_scaling 0.488</text>
<text text-anchor="middle" x="309.64" y="-393" font-family="Times,serif" font-size="9.00">output 0.882</text>
</g>
<!-- ready
output 0.000&#45;&gt;key 13348
bias 0.756
h_scaling 0.488
output 0.882 -->
<g id="edge15" class="edge">
<title>ready
output 0.000&#45;&gt;key 13348
bias 0.756
h_scaling 0.488
output 0.882</title>
<path fill="none" stroke="blue" stroke-width="0.1" d="M272.39,-1048.27C334.06,-1038.87 447.64,-1010.74 447.64,-931.04 447.64,-931.04 447.64,-931.04 447.64,-582.48 447.64,-554.26 401.64,-501.53 362.76,-462"/>
<polygon fill="blue" stroke="blue" stroke-width="0.1" points="365.12,-459.41 355.59,-454.78 360.15,-464.35 365.12,-459.41"/>
<text text-anchor="middle" x="463.14" y="-754.56" font-family="Times,serif" font-size="9.00">&#45;0.536</text>
</g>
<!-- key 5126
bias &#45;0.407
h_scaling 0.680
output 0.273 -->
<g id="node7" class="node">
<title>key 5126
bias &#45;0.407
h_scaling 0.680
output 0.273</title>
<ellipse fill="white" stroke="black" cx="150.64" cy="-583.48" rx="63.78" ry="63.78"/>
<text text-anchor="middle" x="150.64" y="-596.28" font-family="Times,serif" font-size="9.00">key 5126</text>
<text text-anchor="middle" x="150.64" y="-586.28" font-family="Times,serif" font-size="9.00">bias &#45;0.407</text>
<text text-anchor="middle" x="150.64" y="-576.28" font-family="Times,serif" font-size="9.00">h_scaling 0.680</text>
<text text-anchor="middle" x="150.64" y="-566.28" font-family="Times,serif" font-size="9.00">output 0.273</text>
</g>
<!-- ready
output 0.000&#45;&gt;key 5126
bias &#45;0.407
h_scaling 0.680
output 0.273 -->
<g id="edge12" class="edge">
<title>ready
output 0.000&#45;&gt;key 5126
bias &#45;0.407
h_scaling 0.680
output 0.273</title>
<path fill="none" stroke="blue" stroke-width="0.1" d="M216.73,-1039.67C204.08,-1028.87 187.65,-1012.3 179.64,-993.68 154.49,-935.16 150.33,-758.67 150.1,-657.61"/>
<polygon fill="blue" stroke="blue" stroke-width="0.1" points="153.6,-657.47 150.09,-647.48 146.6,-657.48 153.6,-657.47"/>
<text text-anchor="middle" x="171.14" y="-841.2" font-family="Times,serif" font-size="9.00">&#45;0.181</text>
</g>
<!-- key 894
bias 0.999
h_scaling 0.428
output 0.080 -->
<g id="node9" class="node">
<title>key 894
bias 0.999
h_scaling 0.428
output 0.080</title>
<ellipse fill="white" stroke="black" cx="311.64" cy="-756.76" rx="63.78" ry="63.78"/>
<text text-anchor="middle" x="311.64" y="-769.56" font-family="Times,serif" font-size="9.00">key 894</text>
<text text-anchor="middle" x="311.64" y="-759.56" font-family="Times,serif" font-size="9.00">bias 0.999</text>
<text text-anchor="middle" x="311.64" y="-749.56" font-family="Times,serif" font-size="9.00">h_scaling 0.428</text>
<text text-anchor="middle" x="311.64" y="-739.56" font-family="Times,serif" font-size="9.00">output 0.080</text>
</g>
<!-- ready
output 0.000&#45;&gt;key 894
bias 0.999
h_scaling 0.428
output 0.080 -->
<g id="edge4" class="edge">
<title>ready
output 0.000&#45;&gt;key 894
bias 0.999
h_scaling 0.428
output 0.080</title>
<path fill="none" stroke="blue" stroke-width="0.1" d="M245.32,-1039.64C254.8,-1028.31 267.67,-1011.04 274.64,-993.68 295.56,-941.52 304.7,-878.45 308.67,-830.65"/>
<polygon fill="blue" stroke="blue" stroke-width="0.1" points="312.18,-830.62 309.46,-820.38 305.2,-830.08 312.18,-830.62"/>
<text text-anchor="middle" x="320.14" y="-927.84" font-family="Times,serif" font-size="9.00">&#45;0.392</text>
</g>
<!-- go
output 0.000 -->
<g id="node2" class="node">
<title>go
output 0.000</title>
<polygon fill="green" stroke="black" points="265.14,-944.04 188.14,-944.04 188.14,-916.04 265.14,-916.04 265.14,-944.04"/>
<text text-anchor="middle" x="226.64" y="-932.84" font-family="Times,serif" font-size="9.00">go</text>
<text text-anchor="middle" x="226.64" y="-922.84" font-family="Times,serif" font-size="9.00">output 0.000</text>
</g>
<!-- go
output 0.000&#45;&gt;key 5126
bias &#45;0.407
h_scaling 0.680
output 0.273 -->
<g id="edge5" class="edge">
<title>go
output 0.000&#45;&gt;key 5126
bias &#45;0.407
h_scaling 0.680
output 0.273</title>
<path fill="none" stroke="red" stroke-width="0.1" d="M223.88,-915.84C215.79,-877.22 191.32,-761.14 169.64,-665.12 168.93,-661.96 168.19,-658.74 167.45,-655.48"/>
<polygon fill="red" stroke="red" stroke-width="0.1" points="170.84,-654.61 165.18,-645.65 164.02,-656.18 170.84,-654.61"/>
<text text-anchor="middle" x="216.64" y="-754.56" font-family="Times,serif" font-size="9.00">1.098</text>
</g>
<!-- go
output 0.000&#45;&gt;key 894
bias 0.999
h_scaling 0.428
output 0.080 -->
<g id="edge1" class="edge">
<title>go
output 0.000&#45;&gt;key 894
bias 0.999
h_scaling 0.428
output 0.080</title>
<path fill="none" stroke="red" stroke-width="0.1" d="M231.1,-915.83C237.32,-897.91 249.36,-865.07 262.64,-838.4 265.68,-832.29 269.03,-826.03 272.51,-819.84"/>
<polygon fill="red" stroke="red" stroke-width="0.1" points="275.73,-821.25 277.67,-810.83 269.66,-817.77 275.73,-821.25"/>
<text text-anchor="middle" x="276.64" y="-841.2" font-family="Times,serif" font-size="9.00">1.032</text>
</g>
<!-- output
bias 1.000
h_scaling 0.035
output 0.995 -->
<g id="node3" class="node">
<title>output
bias 1.000
h_scaling 0.035
output 0.995</title>
<ellipse fill="lightblue" stroke="black" cx="180.64" cy="-63.64" rx="63.78" ry="63.78"/>
<text text-anchor="middle" x="180.64" y="-76.44" font-family="Times,serif" font-size="9.00">output</text>
<text text-anchor="middle" x="180.64" y="-66.44" font-family="Times,serif" font-size="9.00">bias 1.000</text>
<text text-anchor="middle" x="180.64" y="-56.44" font-family="Times,serif" font-size="9.00">h_scaling 0.035</text>
<text text-anchor="middle" x="180.64" y="-46.44" font-family="Times,serif" font-size="9.00">output 0.995</text>
</g>
<!-- output
bias 1.000
h_scaling 0.035
output 0.995&#45;&gt;key 7649
bias 0.380
h_scaling 0.475
output 0.744 -->
<g id="edge13" class="edge">
<title>output
bias 1.000
h_scaling 0.035
output 0.995&#45;&gt;key 7649
bias 0.380
h_scaling 0.475
output 0.744</title>
<path fill="none" stroke="blue" stroke-width="0.1" d="M124.93,-95.16C79.45,-124.61 22.64,-173.82 22.64,-235.92 22.64,-757.76 22.64,-757.76 22.64,-757.76 22.64,-792.11 30.54,-829.29 39.4,-860.21"/>
<polygon fill="blue" stroke="blue" stroke-width="0.1" points="36.1,-861.42 42.3,-870.02 42.82,-859.44 36.1,-861.42"/>
<text text-anchor="middle" x="38.14" y="-494.64" font-family="Times,serif" font-size="9.00">&#45;0.057</text>
</g>
<!-- key 7649
bias 0.380
h_scaling 0.475
output 0.744&#45;&gt;key 894
bias 0.999
h_scaling 0.428
output 0.080 -->
<g id="edge6" class="edge">
<title>key 7649
bias 0.380
h_scaling 0.475
output 0.744&#45;&gt;key 894
bias 0.999
h_scaling 0.428
output 0.080</title>
<path fill="none" stroke="blue" stroke-width="0.1" d="M79.45,-868.38C85.04,-856.89 92.55,-846.07 102.64,-838.4 149.41,-802.81 179.66,-843.64 233.64,-820.4 241.67,-816.94 249.55,-812.42 257.04,-807.4"/>
<polygon fill="blue" stroke="blue" stroke-width="0.1" points="259.5,-809.94 265.63,-801.29 255.45,-804.23 259.5,-809.94"/>
<text text-anchor="middle" x="118.14" y="-841.2" font-family="Times,serif" font-size="9.00">&#45;0.600</text>
</g>
<!-- key 11683
bias 0.900
h_scaling 0.718
output 0.613 -->
<g id="node5" class="node">
<title>key 11683
bias 0.900
h_scaling 0.718
output 0.613</title>
<ellipse fill="white" stroke="black" cx="340.64" cy="-63.64" rx="63.78" ry="63.78"/>
<text text-anchor="middle" x="340.64" y="-76.44" font-family="Times,serif" font-size="9.00">key 11683</text>
<text text-anchor="middle" x="340.64" y="-66.44" font-family="Times,serif" font-size="9.00">bias 0.900</text>
<text text-anchor="middle" x="340.64" y="-56.44" font-family="Times,serif" font-size="9.00">h_scaling 0.718</text>
<text text-anchor="middle" x="340.64" y="-46.44" font-family="Times,serif" font-size="9.00">output 0.613</text>
</g>
<!-- key 11683
bias 0.900
h_scaling 0.718
output 0.613&#45;&gt;key 894
bias 0.999
h_scaling 0.428
output 0.080 -->
<g id="edge7" class="edge">
<title>key 11683
bias 0.900
h_scaling 0.718
output 0.613&#45;&gt;key 894
bias 0.999
h_scaling 0.428
output 0.080</title>
<path fill="none" stroke="blue" stroke-width="0.1" d="M374.33,-117.98C391.85,-150.73 409.64,-194.24 409.64,-235.92 409.64,-584.48 409.64,-584.48 409.64,-584.48 409.64,-627.72 385.82,-669.96 361.66,-701.67"/>
<polygon fill="blue" stroke="blue" stroke-width="0.1" points="358.61,-699.89 355.19,-709.91 364.12,-704.21 358.61,-699.89"/>
<text text-anchor="middle" x="425.14" y="-408" font-family="Times,serif" font-size="9.00">&#45;0.143</text>
</g>
<!-- key 76683
bias &#45;0.413
h_scaling 0.014
output 0.916 -->
<g id="node8" class="node">
<title>key 76683
bias &#45;0.413
h_scaling 0.014
output 0.916</title>
<ellipse fill="white" stroke="black" cx="309.64" cy="-236.92" rx="63.78" ry="63.78"/>
<text text-anchor="middle" x="309.64" y="-249.72" font-family="Times,serif" font-size="9.00">key 76683</text>
<text text-anchor="middle" x="309.64" y="-239.72" font-family="Times,serif" font-size="9.00">bias &#45;0.413</text>
<text text-anchor="middle" x="309.64" y="-229.72" font-family="Times,serif" font-size="9.00">h_scaling 0.014</text>
<text text-anchor="middle" x="309.64" y="-219.72" font-family="Times,serif" font-size="9.00">output 0.916</text>
</g>
<!-- key 13348
bias 0.756
h_scaling 0.488
output 0.882&#45;&gt;key 76683
bias &#45;0.413
h_scaling 0.014
output 0.916 -->
<g id="edge10" class="edge">
<title>key 13348
bias 0.756
h_scaling 0.488
output 0.882&#45;&gt;key 76683
bias &#45;0.413
h_scaling 0.014
output 0.916</title>
<path fill="none" stroke="red" stroke-width="0.1" d="M309.64,-346.39C309.64,-334.87 309.64,-322.76 309.64,-310.97"/>
<polygon fill="red" stroke="red" stroke-width="0.1" points="313.14,-310.72 309.64,-300.72 306.14,-310.72 313.14,-310.72"/>
<text text-anchor="middle" x="323.64" y="-321.36" font-family="Times,serif" font-size="9.00">0.993</text>
</g>
<!-- key 5126
bias &#45;0.407
h_scaling 0.680
output 0.273&#45;&gt;output
bias 1.000
h_scaling 0.035
output 0.995 -->
<g id="edge3" class="edge">
<title>key 5126
bias &#45;0.407
h_scaling 0.680
output 0.273&#45;&gt;output
bias 1.000
h_scaling 0.035
output 0.995</title>
<path fill="none" stroke="blue" stroke-width="0.1" d="M148.94,-519.76C147.96,-466.25 147.6,-387.28 151.64,-318.56 155.25,-257.13 163.46,-187.73 170.23,-137.03"/>
<polygon fill="blue" stroke="blue" stroke-width="0.1" points="173.74,-137.2 171.6,-126.82 166.8,-136.27 173.74,-137.2"/>
<text text-anchor="middle" x="167.14" y="-321.36" font-family="Times,serif" font-size="9.00">&#45;0.894</text>
</g>
<!-- key 5126
bias &#45;0.407
h_scaling 0.680
output 0.273&#45;&gt;key 7649
bias 0.380
h_scaling 0.475
output 0.744 -->
<g id="edge18" class="edge">
<title>key 5126
bias &#45;0.407
h_scaling 0.680
output 0.273&#45;&gt;key 7649
bias 0.380
h_scaling 0.475
output 0.744</title>
<path fill="none" stroke="blue" stroke-width="0.1" d="M127.25,-642.85C121.31,-658.97 115.3,-676.58 110.64,-693.12 95.39,-747.23 83.18,-809.67 75.03,-856.72"/>
<polygon fill="blue" stroke="blue" stroke-width="0.1" points="71.54,-856.37 73.3,-866.81 78.44,-857.55 71.54,-856.37"/>
<text text-anchor="middle" x="126.14" y="-754.56" font-family="Times,serif" font-size="9.00">&#45;0.049</text>
</g>
<!-- key 5126
bias &#45;0.407
h_scaling 0.680
output 0.273&#45;&gt;key 13348
bias 0.756
h_scaling 0.488
output 0.882 -->
<g id="edge8" class="edge">
<title>key 5126
bias &#45;0.407
h_scaling 0.680
output 0.273&#45;&gt;key 13348
bias 0.756
h_scaling 0.488
output 0.882</title>
<path fill="none" stroke="blue" stroke-width="0.1" d="M193.67,-536.13C213.99,-514.23 238.38,-487.96 259.54,-465.17"/>
<polygon fill="blue" stroke="blue" stroke-width="0.1" points="262.34,-467.3 266.58,-457.59 257.21,-462.53 262.34,-467.3"/>
<text text-anchor="middle" x="245.14" y="-494.64" font-family="Times,serif" font-size="9.00">&#45;0.571</text>
</g>
<!-- key 5126
bias &#45;0.407
h_scaling 0.680
output 0.273&#45;&gt;key 5126
bias &#45;0.407
h_scaling 0.680
output 0.273 -->
<g id="edge17" class="edge">
<title>key 5126
bias &#45;0.407
h_scaling 0.680
output 0.273&#45;&gt;key 5126
bias &#45;0.407
h_scaling 0.680
output 0.273</title>
<path fill="none" stroke="blue" stroke-width="0.1" d="M212.58,-598.77C224.14,-596.89 232.28,-591.79 232.28,-583.48 232.28,-577.76 228.43,-573.56 222.27,-570.89"/>
<polygon fill="blue" stroke="blue" stroke-width="0.1" points="223.16,-567.5 212.58,-568.18 221.27,-574.24 223.16,-567.5"/>
<text text-anchor="middle" x="247.78" y="-581.28" font-family="Times,serif" font-size="9.00">&#45;0.327</text>
</g>
<!-- key 76683
bias &#45;0.413
h_scaling 0.014
output 0.916&#45;&gt;output
bias 1.000
h_scaling 0.035
output 0.995 -->
<g id="edge16" class="edge">
<title>key 76683
bias &#45;0.413
h_scaling 0.014
output 0.916&#45;&gt;output
bias 1.000
h_scaling 0.035
output 0.995</title>
<path fill="none" stroke="red" stroke-width="0.1" d="M271.63,-185.46C256.94,-165.94 240.02,-143.48 224.79,-123.26"/>
<polygon fill="red" stroke="red" stroke-width="0.1" points="227.41,-120.92 218.6,-115.04 221.82,-125.13 227.41,-120.92"/>
<text text-anchor="middle" x="258.64" y="-148.08" font-family="Times,serif" font-size="9.00">0.578</text>
</g>
<!-- key 76683
bias &#45;0.413
h_scaling 0.014
output 0.916&#45;&gt;key 11683
bias 0.900
h_scaling 0.718
output 0.613 -->
<g id="edge11" class="edge">
<title>key 76683
bias &#45;0.413
h_scaling 0.014
output 0.916&#45;&gt;key 11683
bias 0.900
h_scaling 0.718
output 0.613</title>
<path fill="none" stroke="blue" stroke-width="0.1" d="M320.83,-174.08C323.05,-161.83 325.39,-148.88 327.66,-136.34"/>
<polygon fill="blue" stroke="blue" stroke-width="0.1" points="331.13,-136.85 329.46,-126.38 324.24,-135.6 331.13,-136.85"/>
<text text-anchor="middle" x="340.14" y="-148.08" font-family="Times,serif" font-size="9.00">&#45;0.727</text>
</g>
<!-- key 894
bias 0.999
h_scaling 0.428
output 0.080&#45;&gt;output
bias 1.000
h_scaling 0.035
output 0.995 -->
<g id="edge9" class="edge">
<title>key 894
bias 0.999
h_scaling 0.428
output 0.080&#45;&gt;output
bias 1.000
h_scaling 0.035
output 0.995</title>
<path fill="none" stroke="blue" stroke-width="0.1" d="M304.38,-693.03C298.09,-645.12 287.63,-577.71 272.64,-519.84 269.33,-507.05 272.16,-501.01 262.64,-491.84 243.51,-473.4 221.99,-494.78 205.64,-473.84 195.47,-460.82 186.91,-251.49 182.96,-137.42"/>
<polygon fill="blue" stroke="blue" stroke-width="0.1" points="186.46,-137.23 182.62,-127.36 179.46,-137.47 186.46,-137.23"/>
<text text-anchor="middle" x="221.14" y="-408" font-family="Times,serif" font-size="9.00">&#45;1.000</text>
</g>
<!-- key 894
bias 0.999
h_scaling 0.428
output 0.080&#45;&gt;key 5126
bias &#45;0.407
h_scaling 0.680
output 0.273 -->
<g id="edge2" class="edge">
<title>key 894
bias 0.999
h_scaling 0.428
output 0.080&#45;&gt;key 5126
bias &#45;0.407
h_scaling 0.680
output 0.273</title>
<path fill="none" stroke="red" stroke-width="0.1" d="M268.49,-709.86C247.65,-687.68 222.51,-660.94 200.82,-637.86"/>
<polygon fill="red" stroke="red" stroke-width="0.1" points="203.3,-635.39 193.9,-630.5 198.2,-640.19 203.3,-635.39"/>
<text text-anchor="middle" x="244.64" y="-667.92" font-family="Times,serif" font-size="9.00">1.140</text>
</g>
</g>
</svg>
