<?xml version="1.0" encoding="UTF-8" standalone="no"?>
<!DOCTYPE svg PUBLIC "-//W3C//DTD SVG 1.1//EN"
 "http://www.w3.org/Graphics/SVG/1.1/DTD/svg11.dtd">
<!-- Generated by graphviz version 2.43.0 (0)
 -->
<!-- Title: %3 Pages: 1 -->
<svg width="676pt" height="1001pt"
 viewBox="0.00 0.00 676.00 1000.68" xmlns="http://www.w3.org/2000/svg" xmlns:xlink="http://www.w3.org/1999/xlink">
<g id="graph0" class="graph" transform="scale(1 1) rotate(0) translate(4 996.68)">
<title>%3</title>
<polygon fill="white" stroke="transparent" points="-4,4 -4,-996.68 672,-996.68 672,4 -4,4"/>
<!-- ready -->
<g id="node1" class="node">
<title>ready</title>
<polygon fill="yellow" stroke="black" points="67.5,-992.68 24.5,-992.68 24.5,-974.68 67.5,-974.68 67.5,-992.68"/>
<text text-anchor="middle" x="46" y="-981.48" font-family="Times,serif" font-size="9.00">ready</text>
</g>
<!-- key 7976
bias 0.884
h_scaling 0.000 -->
<g id="node4" class="node">
<title>key 7976
bias 0.884
h_scaling 0.000</title>
<ellipse fill="white" stroke="black" cx="241" cy="-865.04" rx="63.78" ry="63.78"/>
<text text-anchor="middle" x="241" y="-872.84" font-family="Times,serif" font-size="9.00">key 7976</text>
<text text-anchor="middle" x="241" y="-862.84" font-family="Times,serif" font-size="9.00">bias 0.884</text>
<text text-anchor="middle" x="241" y="-852.84" font-family="Times,serif" font-size="9.00">h_scaling 0.000</text>
</g>
<!-- ready&#45;&gt;key 7976
bias 0.884
h_scaling 0.000 -->
<g id="edge10" class="edge">
<title>ready&#45;&gt;key 7976
bias 0.884
h_scaling 0.000</title>
<path fill="none" stroke="red" stroke-width="0.52" d="M59.4,-974.66C83.55,-960.21 135.8,-928.96 178.07,-903.68"/>
<polygon fill="red" stroke="red" stroke-width="0.52" points="179.87,-906.68 186.66,-898.54 176.28,-900.67 179.87,-906.68"/>
<text text-anchor="middle" x="117" y="-949.48" font-family="Times,serif" font-size="9.00">0.014</text>
</g>
<!-- key 42770
bias &#45;0.691
h_scaling 0.618 -->
<g id="node6" class="node">
<title>key 42770
bias &#45;0.691
h_scaling 0.618</title>
<ellipse fill="white" stroke="black" cx="152" cy="-236.92" rx="63.78" ry="63.78"/>
<text text-anchor="middle" x="152" y="-244.72" font-family="Times,serif" font-size="9.00">key 42770</text>
<text text-anchor="middle" x="152" y="-234.72" font-family="Times,serif" font-size="9.00">bias &#45;0.691</text>
<text text-anchor="middle" x="152" y="-224.72" font-family="Times,serif" font-size="9.00">h_scaling 0.618</text>
</g>
<!-- ready&#45;&gt;key 42770
bias &#45;0.691
h_scaling 0.618 -->
<g id="edge15" class="edge">
<title>ready&#45;&gt;key 42770
bias &#45;0.691
h_scaling 0.618</title>
<path fill="none" stroke="red" stroke-width="0.38" d="M46,-974.47C46,-955.43 46,-906.74 46,-866.04 46,-866.04 46,-866.04 46,-526.48 46,-444.66 84.01,-357.36 114.51,-300.48"/>
<polygon fill="red" stroke="red" stroke-width="0.38" points="117.63,-302.07 119.33,-291.62 111.48,-298.73 117.63,-302.07"/>
<text text-anchor="middle" x="60" y="-698.56" font-family="Times,serif" font-size="9.00">0.009</text>
</g>
<!-- key 15226
bias 0.580
h_scaling 0.892 -->
<g id="node8" class="node">
<title>key 15226
bias 0.580
h_scaling 0.892</title>
<ellipse fill="white" stroke="black" cx="267" cy="-63.64" rx="63.78" ry="63.78"/>
<text text-anchor="middle" x="267" y="-71.44" font-family="Times,serif" font-size="9.00">key 15226</text>
<text text-anchor="middle" x="267" y="-61.44" font-family="Times,serif" font-size="9.00">bias 0.580</text>
<text text-anchor="middle" x="267" y="-51.44" font-family="Times,serif" font-size="9.00">h_scaling 0.892</text>
</g>
<!-- ready&#45;&gt;key 15226
bias 0.580
h_scaling 0.892 -->
<g id="edge6" class="edge">
<title>ready&#45;&gt;key 15226
bias 0.580
h_scaling 0.892</title>
<path fill="none" stroke="red" stroke-width="0.79" d="M40.36,-974.62C28.08,-956.27 0,-909.57 0,-866.04 0,-866.04 0,-866.04 0,-235.92 0,-143.23 115.4,-98.39 194.47,-78.54"/>
<polygon fill="red" stroke="red" stroke-width="0.79" points="195.51,-81.89 204.4,-76.13 193.86,-75.08 195.51,-81.89"/>
<text text-anchor="middle" x="14" y="-611.92" font-family="Times,serif" font-size="9.00">0.023</text>
</g>
<!-- go -->
<g id="node2" class="node">
<title>go</title>
<polygon fill="green" stroke="black" points="463,-992.68 435,-992.68 435,-974.68 463,-974.68 463,-992.68"/>
<text text-anchor="middle" x="449" y="-981.48" font-family="Times,serif" font-size="9.00">go</text>
</g>
<!-- go&#45;&gt;key 7976
bias 0.884
h_scaling 0.000 -->
<g id="edge4" class="edge">
<title>go&#45;&gt;key 7976
bias 0.884
h_scaling 0.000</title>
<path fill="none" stroke="blue" stroke-width="0.1" d="M434.91,-976.11C424.15,-971.01 409,-963.65 396,-956.68 365.27,-940.18 331.79,-920.79 303.84,-904.18"/>
<polygon fill="blue" stroke="blue" stroke-width="0.1" points="305.35,-901.01 294.97,-898.9 301.77,-907.02 305.35,-901.01"/>
</g>
<!-- key 5263
bias 0.990
h_scaling 0.401 -->
<g id="node5" class="node">
<title>key 5263
bias 0.990
h_scaling 0.401</title>
<ellipse fill="white" stroke="black" cx="520" cy="-700.76" rx="63.78" ry="63.78"/>
<text text-anchor="middle" x="520" y="-708.56" font-family="Times,serif" font-size="9.00">key 5263</text>
<text text-anchor="middle" x="520" y="-698.56" font-family="Times,serif" font-size="9.00">bias 0.990</text>
<text text-anchor="middle" x="520" y="-688.56" font-family="Times,serif" font-size="9.00">h_scaling 0.401</text>
</g>
<!-- go&#45;&gt;key 5263
bias 0.990
h_scaling 0.401 -->
<g id="edge2" class="edge">
<title>go&#45;&gt;key 5263
bias 0.990
h_scaling 0.401</title>
<path fill="none" stroke="red" stroke-width="0.62" d="M451.05,-974.57C458.44,-945.32 484.26,-843.16 502.12,-772.52"/>
<polygon fill="red" stroke="red" stroke-width="0.62" points="505.52,-773.32 504.58,-762.77 498.74,-771.61 505.52,-773.32"/>
<text text-anchor="middle" x="507" y="-862.84" font-family="Times,serif" font-size="9.00">0.017</text>
</g>
<!-- go&#45;&gt;key 15226
bias 0.580
h_scaling 0.892 -->
<g id="edge11" class="edge">
<title>go&#45;&gt;key 15226
bias 0.580
h_scaling 0.892</title>
<path fill="none" stroke="blue" stroke-width="0.1" d="M463.03,-981.86C511.37,-978.24 668,-959.3 668,-866.04 668,-866.04 668,-866.04 668,-235.92 668,-95.38 457.12,-68.6 341.21,-64.49"/>
<polygon fill="blue" stroke="blue" stroke-width="0.1" points="341.09,-60.99 330.98,-64.18 340.87,-67.99 341.09,-60.99"/>
</g>
<!-- key 124953
bias &#45;0.943
h_scaling 1.000 -->
<g id="node9" class="node">
<title>key 124953
bias &#45;0.943
h_scaling 1.000</title>
<ellipse fill="white" stroke="black" cx="400" cy="-236.92" rx="63.78" ry="63.78"/>
<text text-anchor="middle" x="400" y="-244.72" font-family="Times,serif" font-size="9.00">key 124953</text>
<text text-anchor="middle" x="400" y="-234.72" font-family="Times,serif" font-size="9.00">bias &#45;0.943</text>
<text text-anchor="middle" x="400" y="-224.72" font-family="Times,serif" font-size="9.00">h_scaling 1.000</text>
</g>
<!-- go&#45;&gt;key 124953
bias &#45;0.943
h_scaling 1.000 -->
<g id="edge18" class="edge">
<title>go&#45;&gt;key 124953
bias &#45;0.943
h_scaling 1.000</title>
<path fill="none" stroke="red" stroke-width="0.54" d="M444.22,-974.5C433.8,-955.91 410,-908.74 410,-866.04 410,-866.04 410,-866.04 410,-526.48 410,-453.06 406.73,-369.21 403.93,-310.88"/>
<polygon fill="red" stroke="red" stroke-width="0.54" points="407.41,-310.48 403.43,-300.66 400.42,-310.82 407.41,-310.48"/>
<text text-anchor="middle" x="424" y="-698.56" font-family="Times,serif" font-size="9.00">0.015</text>
</g>
<!-- output
bias 0.905
h_scaling 0.722 -->
<g id="node3" class="node">
<title>output
bias 0.905
h_scaling 0.722</title>
<ellipse fill="lightblue" stroke="black" cx="318" cy="-527.48" rx="63.78" ry="63.78"/>
<text text-anchor="middle" x="318" y="-535.28" font-family="Times,serif" font-size="9.00">output</text>
<text text-anchor="middle" x="318" y="-525.28" font-family="Times,serif" font-size="9.00">bias 0.905</text>
<text text-anchor="middle" x="318" y="-515.28" font-family="Times,serif" font-size="9.00">h_scaling 0.722</text>
</g>
<!-- output
bias 0.905
h_scaling 0.722&#45;&gt;key 7976
bias 0.884
h_scaling 0.000 -->
<g id="edge5" class="edge">
<title>output
bias 0.905
h_scaling 0.722&#45;&gt;key 7976
bias 0.884
h_scaling 0.000</title>
<path fill="none" stroke="blue" stroke-width="0.1" d="M303.93,-589.78C290.77,-647.13 271.12,-732.77 257.29,-793.06"/>
<polygon fill="blue" stroke="blue" stroke-width="0.1" points="253.86,-792.35 255.03,-802.88 260.68,-793.92 253.86,-792.35"/>
</g>
<!-- output
bias 0.905
h_scaling 0.722&#45;&gt;key 42770
bias &#45;0.691
h_scaling 0.618 -->
<g id="edge20" class="edge">
<title>output
bias 0.905
h_scaling 0.722&#45;&gt;key 42770
bias &#45;0.691
h_scaling 0.618</title>
<path fill="none" stroke="blue" stroke-width="0.1" d="M282.6,-474.22C253.38,-426.42 212.43,-355.49 184.14,-303.81"/>
<polygon fill="blue" stroke="blue" stroke-width="0.1" points="187.04,-301.83 179.18,-294.72 180.89,-305.18 187.04,-301.83"/>
</g>
<!-- output
bias 0.905
h_scaling 0.722&#45;&gt;key 124953
bias &#45;0.943
h_scaling 1.000 -->
<g id="edge23" class="edge">
<title>output
bias 0.905
h_scaling 0.722&#45;&gt;key 124953
bias &#45;0.943
h_scaling 1.000</title>
<path fill="none" stroke="blue" stroke-width="0.1" d="M329.84,-464.93C341.64,-418.47 359.69,-354.73 374.63,-306.62"/>
<polygon fill="blue" stroke="blue" stroke-width="0.1" points="378.02,-307.5 377.67,-296.91 371.34,-305.41 378.02,-307.5"/>
</g>
<!-- key 7976
bias 0.884
h_scaling 0.000&#45;&gt;key 5263
bias 0.990
h_scaling 0.401 -->
<g id="edge3" class="edge">
<title>key 7976
bias 0.884
h_scaling 0.000&#45;&gt;key 5263
bias 0.990
h_scaling 0.401</title>
<path fill="none" stroke="blue" stroke-width="0.1" d="M299.54,-839.08C340.64,-820.6 396.21,-793.64 442,-764.4 449.26,-759.76 456.63,-754.57 463.8,-749.21"/>
<polygon fill="blue" stroke="blue" stroke-width="0.1" points="466.29,-751.72 472.11,-742.87 462.04,-746.16 466.29,-751.72"/>
</g>
<!-- key 7976
bias 0.884
h_scaling 0.000&#45;&gt;key 15226
bias 0.580
h_scaling 0.892 -->
<g id="edge19" class="edge">
<title>key 7976
bias 0.884
h_scaling 0.000&#45;&gt;key 15226
bias 0.580
h_scaling 0.892</title>
<path fill="none" stroke="blue" stroke-width="0.1" d="M204.94,-812.23C126.12,-692.01 -44.9,-387.99 79,-173.28 104.14,-129.72 154.13,-102.06 196.25,-85.55"/>
<polygon fill="blue" stroke="blue" stroke-width="0.1" points="197.54,-88.81 205.66,-82 195.06,-82.26 197.54,-88.81"/>
</g>
<!-- key 5263
bias 0.990
h_scaling 0.401&#45;&gt;output
bias 0.905
h_scaling 0.722 -->
<g id="edge1" class="edge">
<title>key 5263
bias 0.990
h_scaling 0.401&#45;&gt;output
bias 0.905
h_scaling 0.722</title>
<path fill="none" stroke="blue" stroke-width="0.1" d="M471.87,-658.95C442.4,-633.96 404.55,-601.87 373.77,-575.77"/>
<polygon fill="blue" stroke="blue" stroke-width="0.1" points="376,-573.07 366.11,-569.27 371.47,-578.41 376,-573.07"/>
</g>
<!-- key 348249
bias &#45;0.125
h_scaling 0.070 -->
<g id="node7" class="node">
<title>key 348249
bias &#45;0.125
h_scaling 0.070</title>
<ellipse fill="white" stroke="black" cx="589" cy="-382.2" rx="63.78" ry="63.78"/>
<text text-anchor="middle" x="589" y="-390" font-family="Times,serif" font-size="9.00">key 348249</text>
<text text-anchor="middle" x="589" y="-380" font-family="Times,serif" font-size="9.00">bias &#45;0.125</text>
<text text-anchor="middle" x="589" y="-370" font-family="Times,serif" font-size="9.00">h_scaling 0.070</text>
</g>
<!-- key 5263
bias 0.990
h_scaling 0.401&#45;&gt;key 348249
bias &#45;0.125
h_scaling 0.070 -->
<g id="edge21" class="edge">
<title>key 5263
bias 0.990
h_scaling 0.401&#45;&gt;key 348249
bias &#45;0.125
h_scaling 0.070</title>
<path fill="none" stroke="blue" stroke-width="0.1" d="M533.39,-638.35C544.86,-585.7 561.4,-509.84 573.45,-454.52"/>
<polygon fill="blue" stroke="blue" stroke-width="0.1" points="576.94,-454.95 575.65,-444.44 570.1,-453.46 576.94,-454.95"/>
</g>
<!-- key 5263
bias 0.990
h_scaling 0.401&#45;&gt;key 15226
bias 0.580
h_scaling 0.892 -->
<g id="edge8" class="edge">
<title>key 5263
bias 0.990
h_scaling 0.401&#45;&gt;key 15226
bias 0.580
h_scaling 0.892</title>
<path fill="none" stroke="blue" stroke-width="0.1" d="M516.69,-637.01C514.9,-514.24 513.57,-247.76 464,-173.28 434.68,-129.22 381.48,-101.82 337.7,-85.55"/>
<polygon fill="blue" stroke="blue" stroke-width="0.1" points="338.82,-82.24 328.23,-82.15 336.45,-88.82 338.82,-82.24"/>
</g>
<!-- key 42770
bias &#45;0.691
h_scaling 0.618&#45;&gt;output
bias 0.905
h_scaling 0.722 -->
<g id="edge16" class="edge">
<title>key 42770
bias &#45;0.691
h_scaling 0.618&#45;&gt;output
bias 0.905
h_scaling 0.722</title>
<path fill="none" stroke="blue" stroke-width="0.1" d="M187.35,-290.09C216.6,-337.93 257.63,-409 285.94,-460.72"/>
<polygon fill="blue" stroke="blue" stroke-width="0.1" points="283.04,-462.71 290.89,-469.81 289.18,-459.36 283.04,-462.71"/>
</g>
<!-- key 42770
bias &#45;0.691
h_scaling 0.618&#45;&gt;key 15226
bias 0.580
h_scaling 0.892 -->
<g id="edge14" class="edge">
<title>key 42770
bias &#45;0.691
h_scaling 0.618&#45;&gt;key 15226
bias 0.580
h_scaling 0.892</title>
<path fill="none" stroke="red" stroke-width="0.65" d="M180.91,-179.88C187.48,-168.22 194.69,-156.17 202,-145.28 207.49,-137.11 213.6,-128.74 219.82,-120.64"/>
<polygon fill="red" stroke="red" stroke-width="0.65" points="222.67,-122.68 226.06,-112.64 217.15,-118.37 222.67,-122.68"/>
<text text-anchor="middle" x="216" y="-148.08" font-family="Times,serif" font-size="9.00">0.018</text>
</g>
<!-- key 348249
bias &#45;0.125
h_scaling 0.070&#45;&gt;key 15226
bias 0.580
h_scaling 0.892 -->
<g id="edge22" class="edge">
<title>key 348249
bias &#45;0.125
h_scaling 0.070&#45;&gt;key 15226
bias 0.580
h_scaling 0.892</title>
<path fill="none" stroke="blue" stroke-width="0.1" d="M587.7,-318.51C583.26,-265.71 568.7,-191.59 524,-145.28 476.13,-95.69 398.18,-76.47 340.66,-69.09"/>
<polygon fill="blue" stroke="blue" stroke-width="0.1" points="340.88,-65.59 330.54,-67.88 340.05,-72.54 340.88,-65.59"/>
</g>
<!-- key 15226
bias 0.580
h_scaling 0.892&#45;&gt;output
bias 0.905
h_scaling 0.722 -->
<g id="edge9" class="edge">
<title>key 15226
bias 0.580
h_scaling 0.892&#45;&gt;output
bias 0.905
h_scaling 0.722</title>
<path fill="none" stroke="red" stroke-width="0.38" d="M273.89,-127.04C283.28,-212.1 300.07,-364.11 310,-454.07"/>
<polygon fill="red" stroke="red" stroke-width="0.38" points="306.55,-454.64 311.12,-464.19 313.5,-453.87 306.55,-454.64"/>
<text text-anchor="middle" x="306" y="-234.72" font-family="Times,serif" font-size="9.00">0.009</text>
</g>
<!-- key 15226
bias 0.580
h_scaling 0.892&#45;&gt;key 7976
bias 0.884
h_scaling 0.000 -->
<g id="edge12" class="edge">
<title>key 15226
bias 0.580
h_scaling 0.892&#45;&gt;key 7976
bias 0.884
h_scaling 0.000</title>
<path fill="none" stroke="red" stroke-width="1" d="M256.8,-126.65C244.48,-204.95 224.48,-343.93 217,-463.84 213.48,-520.3 214.52,-534.6 217,-591.12 219.99,-659.23 227.15,-736.62 232.88,-791.55"/>
<polygon fill="red" stroke="red" stroke-width="1" points="229.41,-791.96 233.93,-801.54 236.37,-791.23 229.41,-791.96"/>
<text text-anchor="middle" x="231" y="-525.28" font-family="Times,serif" font-size="9.00">0.030</text>
</g>
<!-- key 15226
bias 0.580
h_scaling 0.892&#45;&gt;key 5263
bias 0.990
h_scaling 0.401 -->
<g id="edge7" class="edge">
<title>key 15226
bias 0.580
h_scaling 0.892&#45;&gt;key 5263
bias 0.990
h_scaling 0.401</title>
<path fill="none" stroke="blue" stroke-width="0.1" d="M329.17,-77.81C379.52,-92.47 447.39,-121.28 482,-173.28 530.27,-245.8 532.79,-500.33 527.2,-627.01"/>
<polygon fill="blue" stroke="blue" stroke-width="0.1" points="523.71,-626.86 526.73,-637.01 530.7,-627.19 523.71,-626.86"/>
</g>
<!-- key 15226
bias 0.580
h_scaling 0.892&#45;&gt;key 42770
bias &#45;0.691
h_scaling 0.618 -->
<g id="edge13" class="edge">
<title>key 15226
bias 0.580
h_scaling 0.892&#45;&gt;key 42770
bias &#45;0.691
h_scaling 0.618</title>
<path fill="none" stroke="red" stroke-width="0.65" d="M209.04,-90.08C186.67,-103.12 163.5,-121.37 151,-145.28 148.03,-150.95 146.04,-157.11 144.77,-163.46"/>
<polygon fill="red" stroke="red" stroke-width="0.65" points="141.28,-163.16 143.36,-173.55 148.21,-164.13 141.28,-163.16"/>
<text text-anchor="middle" x="165" y="-148.08" font-family="Times,serif" font-size="9.00">0.018</text>
</g>
<!-- key 124953
bias &#45;0.943
h_scaling 1.000&#45;&gt;output
bias 0.905
h_scaling 0.722 -->
<g id="edge17" class="edge">
<title>key 124953
bias &#45;0.943
h_scaling 1.000&#45;&gt;output
bias 0.905
h_scaling 0.722</title>
<path fill="none" stroke="blue" stroke-width="0.1" d="M388.13,-299.57C376.31,-346.1 358.24,-409.92 343.29,-458.03"/>
<polygon fill="blue" stroke="blue" stroke-width="0.1" points="339.9,-457.15 340.25,-467.74 346.58,-459.24 339.9,-457.15"/>
</g>
</g>
</svg>
