<?xml version="1.0" encoding="UTF-8" standalone="no"?>
<!DOCTYPE svg PUBLIC "-//W3C//DTD SVG 1.1//EN"
 "http://www.w3.org/Graphics/SVG/1.1/DTD/svg11.dtd">
<!-- Generated by graphviz version 2.43.0 (0)
 -->
<!-- Title: %3 Pages: 1 -->
<svg width="378pt" height="1048pt"
 viewBox="0.00 0.00 378.00 1047.68" xmlns="http://www.w3.org/2000/svg" xmlns:xlink="http://www.w3.org/1999/xlink">
<g id="graph0" class="graph" transform="scale(1 1) rotate(0) translate(4 1043.68)">
<title>%3</title>
<polygon fill="white" stroke="transparent" points="-4,4 -4,-1043.68 374,-1043.68 374,4 -4,4"/>
<!-- ready -->
<g id="node1" class="node">
<title>ready</title>
<polygon fill="yellow" stroke="black" points="308.5,-1039.68 265.5,-1039.68 265.5,-1021.68 308.5,-1021.68 308.5,-1039.68"/>
<text text-anchor="middle" x="287" y="-1028.48" font-family="Times,serif" font-size="9.00">ready</text>
</g>
<!-- key 2545
bias 0.975
h_scaling 0.048 -->
<g id="node5" class="node">
<title>key 2545
bias 0.975
h_scaling 0.048</title>
<ellipse fill="white" stroke="black" cx="111" cy="-912.04" rx="63.78" ry="63.78"/>
<text text-anchor="middle" x="111" y="-919.84" font-family="Times,serif" font-size="9.00">key 2545</text>
<text text-anchor="middle" x="111" y="-909.84" font-family="Times,serif" font-size="9.00">bias 0.975</text>
<text text-anchor="middle" x="111" y="-899.84" font-family="Times,serif" font-size="9.00">h_scaling 0.048</text>
</g>
<!-- ready&#45;&gt;key 2545
bias 0.975
h_scaling 0.048 -->
<g id="edge7" class="edge">
<title>ready&#45;&gt;key 2545
bias 0.975
h_scaling 0.048</title>
<path fill="none" stroke="red" stroke-width="0.67" d="M270.19,-1021.53C250.25,-1011.63 216.28,-993.94 189,-975.68 181.84,-970.88 174.53,-965.6 167.4,-960.19"/>
<polygon fill="red" stroke="red" stroke-width="0.67" points="169.17,-957.14 159.12,-953.8 164.9,-962.68 169.17,-957.14"/>
<text text-anchor="middle" x="247" y="-996.48" font-family="Times,serif" font-size="9.00">0.019</text>
</g>
<!-- key 5117
bias 0.336
h_scaling 0.037 -->
<g id="node7" class="node">
<title>key 5117
bias 0.336
h_scaling 0.037</title>
<ellipse fill="white" stroke="black" cx="232" cy="-747.76" rx="63.78" ry="63.78"/>
<text text-anchor="middle" x="232" y="-755.56" font-family="Times,serif" font-size="9.00">key 5117</text>
<text text-anchor="middle" x="232" y="-745.56" font-family="Times,serif" font-size="9.00">bias 0.336</text>
<text text-anchor="middle" x="232" y="-735.56" font-family="Times,serif" font-size="9.00">h_scaling 0.037</text>
</g>
<!-- ready&#45;&gt;key 5117
bias 0.336
h_scaling 0.037 -->
<g id="edge9" class="edge">
<title>ready&#45;&gt;key 5117
bias 0.336
h_scaling 0.037</title>
<path fill="none" stroke="blue" stroke-width="0.1" d="M285.41,-1021.57C279.71,-992.46 259.88,-891.18 246.06,-820.57"/>
<polygon fill="blue" stroke="blue" stroke-width="0.1" points="249.42,-819.53 244.07,-810.39 242.55,-820.88 249.42,-819.53"/>
</g>
<!-- key 5758
bias &#45;0.659
h_scaling 1.000 -->
<g id="node8" class="node">
<title>key 5758
bias &#45;0.659
h_scaling 1.000</title>
<ellipse fill="white" stroke="black" cx="232" cy="-410.2" rx="63.78" ry="63.78"/>
<text text-anchor="middle" x="232" y="-418" font-family="Times,serif" font-size="9.00">key 5758</text>
<text text-anchor="middle" x="232" y="-408" font-family="Times,serif" font-size="9.00">bias &#45;0.659</text>
<text text-anchor="middle" x="232" y="-398" font-family="Times,serif" font-size="9.00">h_scaling 1.000</text>
</g>
<!-- ready&#45;&gt;key 5758
bias &#45;0.659
h_scaling 1.000 -->
<g id="edge6" class="edge">
<title>ready&#45;&gt;key 5758
bias &#45;0.659
h_scaling 1.000</title>
<path fill="none" stroke="blue" stroke-width="0.1" d="M298.54,-1021.48C321.35,-1004.24 370,-961.75 370,-913.04 370,-913.04 370,-913.04 370,-582.48 370,-540.04 364.81,-526.26 340,-491.84 328.12,-475.35 311.86,-460.77 295.57,-448.69"/>
<polygon fill="blue" stroke="blue" stroke-width="0.1" points="297.24,-445.59 287.08,-442.61 293.17,-451.28 297.24,-445.59"/>
</g>
<!-- go -->
<g id="node2" class="node">
<title>go</title>
<polygon fill="green" stroke="black" points="194,-1039.68 166,-1039.68 166,-1021.68 194,-1021.68 194,-1039.68"/>
<text text-anchor="middle" x="180" y="-1028.48" font-family="Times,serif" font-size="9.00">go</text>
</g>
<!-- go&#45;&gt;key 2545
bias 0.975
h_scaling 0.048 -->
<g id="edge3" class="edge">
<title>go&#45;&gt;key 2545
bias 0.975
h_scaling 0.048</title>
<path fill="none" stroke="blue" stroke-width="0.1" d="M175.26,-1021.66C169.45,-1011.84 159.05,-994.26 148.28,-976.06"/>
<polygon fill="blue" stroke="blue" stroke-width="0.1" points="151.09,-973.93 142.99,-967.11 145.07,-977.49 151.09,-973.93"/>
</g>
<!-- go&#45;&gt;key 5117
bias 0.336
h_scaling 0.037 -->
<g id="edge5" class="edge">
<title>go&#45;&gt;key 5117
bias 0.336
h_scaling 0.037</title>
<path fill="none" stroke="red" stroke-width="0.63" d="M181.5,-1021.57C186.89,-992.46 205.64,-891.18 218.71,-820.57"/>
<polygon fill="red" stroke="red" stroke-width="0.63" points="222.21,-820.86 220.59,-810.39 215.33,-819.59 222.21,-820.86"/>
<text text-anchor="middle" x="226" y="-909.84" font-family="Times,serif" font-size="9.00">0.018</text>
</g>
<!-- output
bias 0.505
h_scaling 0.000 -->
<g id="node3" class="node">
<title>output
bias 0.505
h_scaling 0.000</title>
<ellipse fill="lightblue" stroke="black" cx="135" cy="-583.48" rx="63.78" ry="63.78"/>
<text text-anchor="middle" x="135" y="-591.28" font-family="Times,serif" font-size="9.00">output</text>
<text text-anchor="middle" x="135" y="-581.28" font-family="Times,serif" font-size="9.00">bias 0.505</text>
<text text-anchor="middle" x="135" y="-571.28" font-family="Times,serif" font-size="9.00">h_scaling 0.000</text>
</g>
<!-- output
bias 0.505
h_scaling 0.000&#45;&gt;key 2545
bias 0.975
h_scaling 0.048 -->
<g id="edge8" class="edge">
<title>output
bias 0.505
h_scaling 0.000&#45;&gt;key 2545
bias 0.975
h_scaling 0.048</title>
<path fill="none" stroke="blue" stroke-width="0.1" d="M130.4,-647.12C126.38,-701.74 120.56,-780.98 116.34,-838.37"/>
<polygon fill="blue" stroke="blue" stroke-width="0.1" points="112.84,-838.23 115.6,-848.46 119.82,-838.74 112.84,-838.23"/>
</g>
<!-- key 78069
bias &#45;0.586
h_scaling 0.952 -->
<g id="node6" class="node">
<title>key 78069
bias &#45;0.586
h_scaling 0.952</title>
<ellipse fill="white" stroke="black" cx="257" cy="-236.92" rx="63.78" ry="63.78"/>
<text text-anchor="middle" x="257" y="-244.72" font-family="Times,serif" font-size="9.00">key 78069</text>
<text text-anchor="middle" x="257" y="-234.72" font-family="Times,serif" font-size="9.00">bias &#45;0.586</text>
<text text-anchor="middle" x="257" y="-224.72" font-family="Times,serif" font-size="9.00">h_scaling 0.952</text>
</g>
<!-- output
bias 0.505
h_scaling 0.000&#45;&gt;key 78069
bias &#45;0.586
h_scaling 0.952 -->
<g id="edge17" class="edge">
<title>output
bias 0.505
h_scaling 0.000&#45;&gt;key 78069
bias &#45;0.586
h_scaling 0.952</title>
<path fill="none" stroke="red" stroke-width="0.42" d="M119.6,-521.65C110.31,-472.04 104.77,-401.44 131,-346.56 145.04,-317.19 163.27,-321.73 188,-300.56 192.84,-296.42 197.82,-292.06 202.79,-287.67"/>
<polygon fill="red" stroke="red" stroke-width="0.42" points="205.42,-290.01 210.56,-280.75 200.77,-284.78 205.42,-290.01"/>
<text text-anchor="middle" x="145" y="-408" font-family="Times,serif" font-size="9.00">0.011</text>
</g>
<!-- output
bias 0.505
h_scaling 0.000&#45;&gt;key 5758
bias &#45;0.659
h_scaling 1.000 -->
<g id="edge20" class="edge">
<title>output
bias 0.505
h_scaling 0.000&#45;&gt;key 5758
bias &#45;0.659
h_scaling 1.000</title>
<path fill="none" stroke="red" stroke-width="0.47" d="M165.96,-527.81C175.5,-510.97 186.08,-492.28 195.93,-474.89"/>
<polygon fill="red" stroke="red" stroke-width="0.47" points="199.12,-476.36 201,-465.93 193.03,-472.91 199.12,-476.36"/>
<text text-anchor="middle" x="197" y="-494.64" font-family="Times,serif" font-size="9.00">0.012</text>
</g>
<!-- key 73157
bias &#45;0.268
h_scaling 0.304 -->
<g id="node4" class="node">
<title>key 73157
bias &#45;0.268
h_scaling 0.304</title>
<ellipse fill="white" stroke="black" cx="147" cy="-63.64" rx="63.78" ry="63.78"/>
<text text-anchor="middle" x="147" y="-71.44" font-family="Times,serif" font-size="9.00">key 73157</text>
<text text-anchor="middle" x="147" y="-61.44" font-family="Times,serif" font-size="9.00">bias &#45;0.268</text>
<text text-anchor="middle" x="147" y="-51.44" font-family="Times,serif" font-size="9.00">h_scaling 0.304</text>
</g>
<!-- key 73157
bias &#45;0.268
h_scaling 0.304&#45;&gt;output
bias 0.505
h_scaling 0.000 -->
<g id="edge18" class="edge">
<title>key 73157
bias &#45;0.268
h_scaling 0.304&#45;&gt;output
bias 0.505
h_scaling 0.000</title>
<path fill="none" stroke="blue" stroke-width="0.1" d="M134.72,-126.26C120.26,-206.28 99.22,-350.33 108,-473.84 108.9,-486.46 111.08,-499.68 113.85,-512.39"/>
<polygon fill="blue" stroke="blue" stroke-width="0.1" points="110.51,-513.5 116.17,-522.45 117.33,-511.92 110.51,-513.5"/>
</g>
<!-- key 73157
bias &#45;0.268
h_scaling 0.304&#45;&gt;key 78069
bias &#45;0.586
h_scaling 0.952 -->
<g id="edge21" class="edge">
<title>key 73157
bias &#45;0.268
h_scaling 0.304&#45;&gt;key 78069
bias &#45;0.586
h_scaling 0.952</title>
<path fill="none" stroke="red" stroke-width="1.11" d="M195.37,-105.25C207.32,-117.16 219.2,-130.89 228,-145.28 231.79,-151.48 235.14,-158.23 238.08,-165.15"/>
<polygon fill="red" stroke="red" stroke-width="1.11" points="234.91,-166.65 241.84,-174.67 241.42,-164.08 234.91,-166.65"/>
<text text-anchor="middle" x="247" y="-148.08" font-family="Times,serif" font-size="9.00">0.034</text>
</g>
<!-- key 73157
bias &#45;0.268
h_scaling 0.304&#45;&gt;key 5758
bias &#45;0.659
h_scaling 1.000 -->
<g id="edge12" class="edge">
<title>key 73157
bias &#45;0.268
h_scaling 0.304&#45;&gt;key 5758
bias &#45;0.659
h_scaling 1.000</title>
<path fill="none" stroke="red" stroke-width="0.91" d="M139.96,-126.96C136.69,-175.55 137,-244.03 156,-300.56 162.28,-319.23 172.85,-337.56 184.15,-353.69"/>
<polygon fill="red" stroke="red" stroke-width="0.91" points="181.4,-355.87 190.1,-361.91 187.07,-351.76 181.4,-355.87"/>
<text text-anchor="middle" x="170" y="-234.72" font-family="Times,serif" font-size="9.00">0.027</text>
</g>
<!-- key 2545
bias 0.975
h_scaling 0.048&#45;&gt;output
bias 0.505
h_scaling 0.000 -->
<g id="edge10" class="edge">
<title>key 2545
bias 0.975
h_scaling 0.048&#45;&gt;output
bias 0.505
h_scaling 0.000</title>
<path fill="none" stroke="red" stroke-width="0.27" d="M93.95,-850.67C83.48,-804.58 74.3,-739.73 87,-684.12 89.75,-672.08 94.15,-659.8 99.19,-648.16"/>
<polygon fill="red" stroke="red" stroke-width="0.27" points="102.41,-649.54 103.35,-638.98 96.03,-646.65 102.41,-649.54"/>
<text text-anchor="middle" x="101" y="-745.56" font-family="Times,serif" font-size="9.00">0.006</text>
</g>
<!-- key 2545
bias 0.975
h_scaling 0.048&#45;&gt;key 73157
bias &#45;0.268
h_scaling 0.304 -->
<g id="edge11" class="edge">
<title>key 2545
bias 0.975
h_scaling 0.048&#45;&gt;key 73157
bias &#45;0.268
h_scaling 0.304</title>
<path fill="none" stroke="blue" stroke-width="0.1" d="M62.64,-870.06C32.72,-839.97 0,-796.2 0,-748.76 0,-748.76 0,-748.76 0,-235.92 0,-180.56 44.76,-134.14 84.89,-103.65"/>
<polygon fill="blue" stroke="blue" stroke-width="0.1" points="87.14,-106.34 93.1,-97.58 82.98,-100.71 87.14,-106.34"/>
</g>
<!-- key 2545
bias 0.975
h_scaling 0.048&#45;&gt;key 5117
bias 0.336
h_scaling 0.037 -->
<g id="edge1" class="edge">
<title>key 2545
bias 0.975
h_scaling 0.048&#45;&gt;key 5117
bias 0.336
h_scaling 0.037</title>
<path fill="none" stroke="blue" stroke-width="0.1" d="M148.62,-860.58C161.14,-843.79 175.19,-824.94 188.14,-807.57"/>
<polygon fill="blue" stroke="blue" stroke-width="0.1" points="191.23,-809.29 194.4,-799.18 185.62,-805.11 191.23,-809.29"/>
</g>
<!-- key 78069
bias &#45;0.586
h_scaling 0.952&#45;&gt;key 73157
bias &#45;0.268
h_scaling 0.304 -->
<g id="edge15" class="edge">
<title>key 78069
bias &#45;0.586
h_scaling 0.952&#45;&gt;key 73157
bias &#45;0.268
h_scaling 0.304</title>
<path fill="none" stroke="red" stroke-width="1.11" d="M219.84,-184.75C213.09,-175.06 206.22,-164.94 200,-155.28 194.46,-146.69 188.81,-137.51 183.36,-128.41"/>
<polygon fill="red" stroke="red" stroke-width="1.11" points="186.32,-126.55 178.2,-119.74 180.3,-130.13 186.32,-126.55"/>
<text text-anchor="middle" x="214" y="-148.08" font-family="Times,serif" font-size="9.00">0.034</text>
</g>
<!-- key 78069
bias &#45;0.586
h_scaling 0.952&#45;&gt;key 2545
bias 0.975
h_scaling 0.048 -->
<g id="edge14" class="edge">
<title>key 78069
bias &#45;0.586
h_scaling 0.952&#45;&gt;key 2545
bias 0.975
h_scaling 0.048</title>
<path fill="none" stroke="blue" stroke-width="0.1" d="M212.55,-282.63C204.75,-289.17 196.42,-295.42 188,-300.56 168.55,-312.43 159.56,-306.87 140,-318.56 123.78,-328.26 119.36,-331.46 108,-346.56 63.93,-405.11 38,-422.56 38,-495.84 38,-748.76 38,-748.76 38,-748.76 38,-784.59 52.99,-821.27 69.38,-850.67"/>
<polygon fill="blue" stroke="blue" stroke-width="0.1" points="66.47,-852.64 74.5,-859.55 72.54,-849.14 66.47,-852.64"/>
</g>
<!-- key 78069
bias &#45;0.586
h_scaling 0.952&#45;&gt;key 5758
bias &#45;0.659
h_scaling 1.000 -->
<g id="edge19" class="edge">
<title>key 78069
bias &#45;0.586
h_scaling 0.952&#45;&gt;key 5758
bias &#45;0.659
h_scaling 1.000</title>
<path fill="none" stroke="red" stroke-width="0.76" d="M224.4,-292.06C220.52,-300.66 217.18,-309.67 215,-318.56 213.39,-325.14 212.77,-332.02 212.87,-338.93"/>
<polygon fill="red" stroke="red" stroke-width="0.76" points="209.39,-339.26 213.49,-349.03 216.37,-338.83 209.39,-339.26"/>
<text text-anchor="middle" x="229" y="-321.36" font-family="Times,serif" font-size="9.00">0.022</text>
</g>
<!-- key 5117
bias 0.336
h_scaling 0.037&#45;&gt;output
bias 0.505
h_scaling 0.000 -->
<g id="edge2" class="edge">
<title>key 5117
bias 0.336
h_scaling 0.037&#45;&gt;output
bias 0.505
h_scaling 0.000</title>
<path fill="none" stroke="blue" stroke-width="0.1" d="M199.7,-692.72C190.99,-678.15 181.5,-662.27 172.53,-647.27"/>
<polygon fill="blue" stroke="blue" stroke-width="0.1" points="175.46,-645.34 167.32,-638.55 169.45,-648.93 175.46,-645.34"/>
</g>
<!-- key 5117
bias 0.336
h_scaling 0.037&#45;&gt;key 78069
bias &#45;0.586
h_scaling 0.952 -->
<g id="edge16" class="edge">
<title>key 5117
bias 0.336
h_scaling 0.037&#45;&gt;key 78069
bias &#45;0.586
h_scaling 0.952</title>
<path fill="none" stroke="red" stroke-width="2.31" d="M256.71,-688.9C286.79,-610.91 330.6,-467.83 305,-346.56 301.92,-331.97 296.75,-316.95 290.92,-302.92"/>
<polygon fill="red" stroke="red" stroke-width="2.31" points="293.97,-301.16 286.79,-293.37 287.55,-303.94 293.97,-301.16"/>
<text text-anchor="middle" x="322" y="-494.64" font-family="Times,serif" font-size="9.00">0.074</text>
</g>
<!-- key 5117
bias 0.336
h_scaling 0.037&#45;&gt;key 5117
bias 0.336
h_scaling 0.037 -->
<g id="edge4" class="edge">
<title>key 5117
bias 0.336
h_scaling 0.037&#45;&gt;key 5117
bias 0.336
h_scaling 0.037</title>
<path fill="none" stroke="red" stroke-width="1.86" d="M294.29,-762.29C305.66,-760.45 313.64,-755.6 313.64,-747.76 313.64,-742.48 310.04,-738.57 304.23,-736.01"/>
<polygon fill="red" stroke="red" stroke-width="1.86" points="304.87,-732.55 294.29,-733.23 302.98,-739.29 304.87,-732.55"/>
<text text-anchor="middle" x="327.64" y="-745.56" font-family="Times,serif" font-size="9.00">0.059</text>
</g>
<!-- key 5758
bias &#45;0.659
h_scaling 1.000&#45;&gt;key 78069
bias &#45;0.586
h_scaling 0.952 -->
<g id="edge13" class="edge">
<title>key 5758
bias &#45;0.659
h_scaling 1.000&#45;&gt;key 78069
bias &#45;0.586
h_scaling 0.952</title>
<path fill="none" stroke="red" stroke-width="0.76" d="M243.94,-347.64C245.04,-341.21 246.08,-334.76 247,-328.56 247.86,-322.74 248.68,-316.7 249.46,-310.63"/>
<polygon fill="red" stroke="red" stroke-width="0.76" points="252.97,-310.76 250.72,-300.41 246.02,-309.9 252.97,-310.76"/>
<text text-anchor="middle" x="262" y="-321.36" font-family="Times,serif" font-size="9.00">0.022</text>
</g>
</g>
</svg>
