<?xml version="1.0" encoding="UTF-8" standalone="no"?>
<!DOCTYPE svg PUBLIC "-//W3C//DTD SVG 1.1//EN"
 "http://www.w3.org/Graphics/SVG/1.1/DTD/svg11.dtd">
<!-- Generated by graphviz version 2.43.0 (0)
 -->
<!-- Title: %3 Pages: 1 -->
<svg width="958pt" height="1239pt"
 viewBox="0.00 0.00 958.00 1238.95" xmlns="http://www.w3.org/2000/svg" xmlns:xlink="http://www.w3.org/1999/xlink">
<g id="graph0" class="graph" transform="scale(1 1) rotate(0) translate(4 1234.95)">
<title>%3</title>
<polygon fill="white" stroke="transparent" points="-4,4 -4,-1234.95 954,-1234.95 954,4 -4,4"/>
<!-- ready -->
<g id="node1" class="node">
<title>ready</title>
<polygon fill="yellow" stroke="black" points="145.5,-1230.95 102.5,-1230.95 102.5,-1212.95 145.5,-1212.95 145.5,-1230.95"/>
<text text-anchor="middle" x="124" y="-1219.75" font-family="Times,serif" font-size="9.00">ready</text>
</g>
<!-- key 34030
bias 0.000
h_scaling 0.076 -->
<g id="node7" class="node">
<title>key 34030
bias 0.000
h_scaling 0.076</title>
<ellipse fill="white" stroke="black" cx="391" cy="-1103.31" rx="63.78" ry="63.78"/>
<text text-anchor="middle" x="391" y="-1111.11" font-family="Times,serif" font-size="9.00">key 34030</text>
<text text-anchor="middle" x="391" y="-1101.11" font-family="Times,serif" font-size="9.00">bias 0.000</text>
<text text-anchor="middle" x="391" y="-1091.11" font-family="Times,serif" font-size="9.00">h_scaling 0.076</text>
</g>
<!-- ready&#45;&gt;key 34030
bias 0.000
h_scaling 0.076 -->
<g id="edge13" class="edge">
<title>ready&#45;&gt;key 34030
bias 0.000
h_scaling 0.076</title>
<path fill="none" stroke="blue" stroke-width="3" d="M142.35,-1212.94C179.09,-1196.89 263.3,-1160.1 323.54,-1133.78"/>
<polygon fill="blue" stroke="blue" stroke-width="3" points="325.23,-1136.87 332.99,-1129.66 322.43,-1130.45 325.23,-1136.87"/>
<text text-anchor="middle" x="218.5" y="-1187.75" font-family="Times,serif" font-size="9.00">&#45;0.965</text>
</g>
<!-- key 39441
bias 0.000
h_scaling 1.000 -->
<g id="node8" class="node">
<title>key 39441
bias 0.000
h_scaling 1.000</title>
<ellipse fill="white" stroke="black" cx="319" cy="-583.48" rx="63.78" ry="63.78"/>
<text text-anchor="middle" x="319" y="-591.28" font-family="Times,serif" font-size="9.00">key 39441</text>
<text text-anchor="middle" x="319" y="-581.28" font-family="Times,serif" font-size="9.00">bias 0.000</text>
<text text-anchor="middle" x="319" y="-571.28" font-family="Times,serif" font-size="9.00">h_scaling 1.000</text>
</g>
<!-- ready&#45;&gt;key 39441
bias 0.000
h_scaling 1.000 -->
<g id="edge24" class="edge">
<title>ready&#45;&gt;key 39441
bias 0.000
h_scaling 1.000</title>
<path fill="none" stroke="red" stroke-width="1.88" d="M125.38,-1212.92C129.83,-1187.36 144.64,-1105.74 163,-1039.68 201.79,-900.08 259.62,-740.71 292.89,-652.43"/>
<polygon fill="red" stroke="red" stroke-width="1.88" points="296.17,-653.66 296.43,-643.06 289.62,-651.18 296.17,-653.66"/>
<text text-anchor="middle" x="230" y="-927.84" font-family="Times,serif" font-size="9.00">0.593</text>
</g>
<!-- key 4696
bias 0.000
h_scaling 0.637 -->
<g id="node11" class="node">
<title>key 4696
bias 0.000
h_scaling 0.637</title>
<ellipse fill="white" stroke="black" cx="457" cy="-930.04" rx="63.78" ry="63.78"/>
<text text-anchor="middle" x="457" y="-937.84" font-family="Times,serif" font-size="9.00">key 4696</text>
<text text-anchor="middle" x="457" y="-927.84" font-family="Times,serif" font-size="9.00">bias 0.000</text>
<text text-anchor="middle" x="457" y="-917.84" font-family="Times,serif" font-size="9.00">h_scaling 0.637</text>
</g>
<!-- ready&#45;&gt;key 4696
bias 0.000
h_scaling 0.637 -->
<g id="edge28" class="edge">
<title>ready&#45;&gt;key 4696
bias 0.000
h_scaling 0.637</title>
<path fill="none" stroke="blue" stroke-width="0.84" d="M130.15,-1212.65C150.43,-1185.58 217.93,-1098.27 287,-1039.68 319.49,-1012.11 359.48,-986.22 392.51,-966.63"/>
<polygon fill="blue" stroke="blue" stroke-width="0.84" points="394.34,-969.61 401.19,-961.53 390.79,-963.58 394.34,-969.61"/>
<text text-anchor="middle" x="302.5" y="-1101.11" font-family="Times,serif" font-size="9.00">&#45;0.247</text>
</g>
<!-- key 1208
bias 0.000
h_scaling 0.477 -->
<g id="node13" class="node">
<title>key 1208
bias 0.000
h_scaling 0.477</title>
<ellipse fill="white" stroke="black" cx="184" cy="-63.64" rx="63.78" ry="63.78"/>
<text text-anchor="middle" x="184" y="-71.44" font-family="Times,serif" font-size="9.00">key 1208</text>
<text text-anchor="middle" x="184" y="-61.44" font-family="Times,serif" font-size="9.00">bias 0.000</text>
<text text-anchor="middle" x="184" y="-51.44" font-family="Times,serif" font-size="9.00">h_scaling 0.477</text>
</g>
<!-- ready&#45;&gt;key 1208
bias 0.000
h_scaling 0.477 -->
<g id="edge2" class="edge">
<title>ready&#45;&gt;key 1208
bias 0.000
h_scaling 0.477</title>
<path fill="none" stroke="blue" stroke-width="1.02" d="M103.52,-1212.89C68.3,-1197.52 0,-1160.47 0,-1104.31 0,-1104.31 0,-1104.31 0,-235.92 0,-206.83 1.59,-196.59 19,-173.28 44.25,-139.48 83.33,-113.08 117.12,-94.77"/>
<polygon fill="blue" stroke="blue" stroke-width="1.02" points="118.83,-97.82 126.03,-90.05 115.56,-91.63 118.83,-97.82"/>
<text text-anchor="middle" x="15.5" y="-667.92" font-family="Times,serif" font-size="9.00">&#45;0.307</text>
</g>
<!-- go -->
<g id="node2" class="node">
<title>go</title>
<polygon fill="green" stroke="black" points="379,-765.76 351,-765.76 351,-747.76 379,-747.76 379,-765.76"/>
<text text-anchor="middle" x="365" y="-754.56" font-family="Times,serif" font-size="9.00">go</text>
</g>
<!-- key 59430
bias 0.000
h_scaling 0.867 -->
<g id="node4" class="node">
<title>key 59430
bias 0.000
h_scaling 0.867</title>
<ellipse fill="white" stroke="black" cx="575" cy="-236.92" rx="63.78" ry="63.78"/>
<text text-anchor="middle" x="575" y="-244.72" font-family="Times,serif" font-size="9.00">key 59430</text>
<text text-anchor="middle" x="575" y="-234.72" font-family="Times,serif" font-size="9.00">bias 0.000</text>
<text text-anchor="middle" x="575" y="-224.72" font-family="Times,serif" font-size="9.00">h_scaling 0.867</text>
</g>
<!-- go&#45;&gt;key 59430
bias 0.000
h_scaling 0.867 -->
<g id="edge29" class="edge">
<title>go&#45;&gt;key 59430
bias 0.000
h_scaling 0.867</title>
<path fill="none" stroke="blue" stroke-width="1.34" d="M379.3,-749.74C403.49,-738.76 452.2,-713.05 476,-675.12 519.99,-605.01 471.7,-565.72 509,-491.84 513.96,-482.01 520.91,-483.59 526,-473.84 540.63,-445.79 555.08,-368.53 564.45,-310"/>
<polygon fill="blue" stroke="blue" stroke-width="1.34" points="567.92,-310.47 566.03,-300.05 561.01,-309.38 567.92,-310.47"/>
<text text-anchor="middle" x="524.5" y="-494.64" font-family="Times,serif" font-size="9.00">&#45;0.414</text>
</g>
<!-- key 121960
bias 0.000
h_scaling 0.784 -->
<g id="node5" class="node">
<title>key 121960
bias 0.000
h_scaling 0.784</title>
<ellipse fill="white" stroke="black" cx="700" cy="-63.64" rx="63.78" ry="63.78"/>
<text text-anchor="middle" x="700" y="-71.44" font-family="Times,serif" font-size="9.00">key 121960</text>
<text text-anchor="middle" x="700" y="-61.44" font-family="Times,serif" font-size="9.00">bias 0.000</text>
<text text-anchor="middle" x="700" y="-51.44" font-family="Times,serif" font-size="9.00">h_scaling 0.784</text>
</g>
<!-- go&#45;&gt;key 121960
bias 0.000
h_scaling 0.784 -->
<g id="edge27" class="edge">
<title>go&#45;&gt;key 121960
bias 0.000
h_scaling 0.784</title>
<path fill="none" stroke="blue" stroke-width="2.42" d="M367.72,-747.71C373.59,-729.86 387.3,-685.51 392,-647.12 398.87,-590.97 395.02,-576.33 392,-519.84 391.33,-507.34 396.35,-501.97 389,-491.84 377.56,-476.05 359.59,-490.21 349,-473.84 318.28,-426.33 328.98,-399.47 349,-346.56 397.5,-218.36 544.25,-133.51 631.89,-92.78"/>
<polygon fill="blue" stroke="blue" stroke-width="2.42" points="633.6,-95.85 641.23,-88.5 630.68,-89.48 633.6,-95.85"/>
<text text-anchor="middle" x="364.5" y="-408" font-family="Times,serif" font-size="9.00">&#45;0.774</text>
</g>
<!-- go&#45;&gt;key 39441
bias 0.000
h_scaling 1.000 -->
<g id="edge16" class="edge">
<title>go&#45;&gt;key 39441
bias 0.000
h_scaling 1.000</title>
<path fill="none" stroke="blue" stroke-width="0.49" d="M362.78,-747.5C358.27,-730.7 347.64,-691.1 337.98,-655.14"/>
<polygon fill="blue" stroke="blue" stroke-width="0.49" points="341.26,-653.87 335.29,-645.12 334.5,-655.68 341.26,-653.87"/>
<text text-anchor="middle" x="357.5" y="-667.92" font-family="Times,serif" font-size="9.00">&#45;0.131</text>
</g>
<!-- go&#45;&gt;key 1208
bias 0.000
h_scaling 0.477 -->
<g id="edge4" class="edge">
<title>go&#45;&gt;key 1208
bias 0.000
h_scaling 0.477</title>
<path fill="none" stroke="red" stroke-width="2.37" d="M350.91,-747.79C324.93,-732.25 269.99,-695.17 246,-647.12 195.95,-546.89 212.93,-256.31 198,-145.28 197.62,-142.44 197.21,-139.55 196.78,-136.63"/>
<polygon fill="red" stroke="red" stroke-width="2.37" points="200.23,-136 195.26,-126.64 193.31,-137.06 200.23,-136"/>
<text text-anchor="middle" x="227" y="-408" font-family="Times,serif" font-size="9.00">0.755</text>
</g>
<!-- output
bias 0.000
h_scaling 0.534 -->
<g id="node3" class="node">
<title>output
bias 0.000
h_scaling 0.534</title>
<ellipse fill="lightblue" stroke="black" cx="633" cy="-756.76" rx="63.78" ry="63.78"/>
<text text-anchor="middle" x="633" y="-764.56" font-family="Times,serif" font-size="9.00">output</text>
<text text-anchor="middle" x="633" y="-754.56" font-family="Times,serif" font-size="9.00">bias 0.000</text>
<text text-anchor="middle" x="633" y="-744.56" font-family="Times,serif" font-size="9.00">h_scaling 0.534</text>
</g>
<!-- output
bias 0.000
h_scaling 0.534&#45;&gt;key 59430
bias 0.000
h_scaling 0.867 -->
<g id="edge15" class="edge">
<title>output
bias 0.000
h_scaling 0.534&#45;&gt;key 59430
bias 0.000
h_scaling 0.867</title>
<path fill="none" stroke="blue" stroke-width="2.09" d="M631.46,-693.03C628.54,-607.71 620.24,-450.57 597,-318.56 596.4,-315.17 595.73,-311.71 594.99,-308.24"/>
<polygon fill="blue" stroke="blue" stroke-width="2.09" points="598.39,-307.4 592.79,-298.41 591.56,-308.94 598.39,-307.4"/>
<text text-anchor="middle" x="635.5" y="-494.64" font-family="Times,serif" font-size="9.00">&#45;0.664</text>
</g>
<!-- key 202158
bias 0.000
h_scaling 0.270 -->
<g id="node6" class="node">
<title>key 202158
bias 0.000
h_scaling 0.270</title>
<ellipse fill="white" stroke="black" cx="725" cy="-583.48" rx="63.78" ry="63.78"/>
<text text-anchor="middle" x="725" y="-591.28" font-family="Times,serif" font-size="9.00">key 202158</text>
<text text-anchor="middle" x="725" y="-581.28" font-family="Times,serif" font-size="9.00">bias 0.000</text>
<text text-anchor="middle" x="725" y="-571.28" font-family="Times,serif" font-size="9.00">h_scaling 0.270</text>
</g>
<!-- output
bias 0.000
h_scaling 0.534&#45;&gt;key 202158
bias 0.000
h_scaling 0.270 -->
<g id="edge32" class="edge">
<title>output
bias 0.000
h_scaling 0.534&#45;&gt;key 202158
bias 0.000
h_scaling 0.270</title>
<path fill="none" stroke="red" stroke-width="0.65" d="M652.74,-696.25C656.97,-685.66 661.77,-674.9 667,-665.12 670.98,-657.68 675.55,-650.15 680.34,-642.83"/>
<polygon fill="red" stroke="red" stroke-width="0.65" points="683.37,-644.59 686.05,-634.34 677.57,-640.68 683.37,-644.59"/>
<text text-anchor="middle" x="681" y="-667.92" font-family="Times,serif" font-size="9.00">0.183</text>
</g>
<!-- output
bias 0.000
h_scaling 0.534&#45;&gt;key 34030
bias 0.000
h_scaling 0.076 -->
<g id="edge30" class="edge">
<title>output
bias 0.000
h_scaling 0.534&#45;&gt;key 34030
bias 0.000
h_scaling 0.076</title>
<path fill="none" stroke="red" stroke-width="0.44" d="M645.19,-819.48C645.57,-829.21 645.04,-839.12 643,-848.4 627.76,-917.85 623.73,-940.97 576,-993.68 543.96,-1029.05 497.64,-1056.23 459.37,-1074.56"/>
<polygon fill="red" stroke="red" stroke-width="0.44" points="457.4,-1071.62 449.83,-1079.03 460.37,-1077.96 457.4,-1071.62"/>
<text text-anchor="middle" x="653" y="-927.84" font-family="Times,serif" font-size="9.00">0.114</text>
</g>
<!-- output
bias 0.000
h_scaling 0.534&#45;&gt;key 39441
bias 0.000
h_scaling 1.000 -->
<g id="edge11" class="edge">
<title>output
bias 0.000
h_scaling 0.534&#45;&gt;key 39441
bias 0.000
h_scaling 1.000</title>
<path fill="none" stroke="blue" stroke-width="2.94" d="M577.22,-725.33C522.94,-695.72 440.51,-650.76 383.45,-619.63"/>
<polygon fill="blue" stroke="blue" stroke-width="2.94" points="384.97,-616.48 374.52,-614.76 381.62,-622.62 384.97,-616.48"/>
<text text-anchor="middle" x="491.5" y="-667.92" font-family="Times,serif" font-size="9.00">&#45;0.946</text>
</g>
<!-- output
bias 0.000
h_scaling 0.534&#45;&gt;key 4696
bias 0.000
h_scaling 0.637 -->
<g id="edge5" class="edge">
<title>output
bias 0.000
h_scaling 0.534&#45;&gt;key 4696
bias 0.000
h_scaling 0.637</title>
<path fill="none" stroke="blue" stroke-width="1" d="M590.4,-804.1C576.77,-818.53 561.47,-834.34 547,-848.4 536.02,-859.07 523.98,-870.22 512.38,-880.69"/>
<polygon fill="blue" stroke="blue" stroke-width="1" points="509.93,-878.18 504.84,-887.47 514.61,-883.39 509.93,-878.18"/>
<text text-anchor="middle" x="572.5" y="-841.2" font-family="Times,serif" font-size="9.00">&#45;0.298</text>
</g>
<!-- key 59430
bias 0.000
h_scaling 0.867&#45;&gt;key 121960
bias 0.000
h_scaling 0.784 -->
<g id="edge25" class="edge">
<title>key 59430
bias 0.000
h_scaling 0.867&#45;&gt;key 121960
bias 0.000
h_scaling 0.784</title>
<path fill="none" stroke="blue" stroke-width="0.9" d="M612.17,-184.99C626.21,-165.75 642.3,-143.7 656.85,-123.77"/>
<polygon fill="blue" stroke="blue" stroke-width="0.9" points="659.69,-125.81 662.76,-115.66 654.04,-121.68 659.69,-125.81"/>
<text text-anchor="middle" x="653.5" y="-148.08" font-family="Times,serif" font-size="9.00">&#45;0.266</text>
</g>
<!-- key 59430
bias 0.000
h_scaling 0.867&#45;&gt;key 4696
bias 0.000
h_scaling 0.637 -->
<g id="edge14" class="edge">
<title>key 59430
bias 0.000
h_scaling 0.867&#45;&gt;key 4696
bias 0.000
h_scaling 0.637</title>
<path fill="none" stroke="blue" stroke-width="1.82" d="M570.97,-300.83C570.33,-310.13 569.67,-319.59 569,-328.56 564.19,-393.17 566.64,-409.77 557,-473.84 536.29,-611.5 498.25,-769.73 475.53,-858.7"/>
<polygon fill="blue" stroke="blue" stroke-width="1.82" points="472.13,-857.85 473.04,-868.41 478.91,-859.59 472.13,-857.85"/>
<text text-anchor="middle" x="565.5" y="-581.28" font-family="Times,serif" font-size="9.00">&#45;0.573</text>
</g>
<!-- key 121960
bias 0.000
h_scaling 0.784&#45;&gt;output
bias 0.000
h_scaling 0.534 -->
<g id="edge21" class="edge">
<title>key 121960
bias 0.000
h_scaling 0.784&#45;&gt;output
bias 0.000
h_scaling 0.534</title>
<path fill="none" stroke="red" stroke-width="1.87" d="M756.1,-93.87C803.25,-122.92 863,-172.29 863,-235.92 863,-584.48 863,-584.48 863,-584.48 863,-613.57 862.63,-624.77 844,-647.12 807.79,-690.55 749.77,-718.64 703.72,-735.35"/>
<polygon fill="red" stroke="red" stroke-width="1.87" points="702.36,-732.12 694.09,-738.74 704.68,-738.72 702.36,-732.12"/>
<text text-anchor="middle" x="877" y="-408" font-family="Times,serif" font-size="9.00">0.590</text>
</g>
<!-- key 121960
bias 0.000
h_scaling 0.784&#45;&gt;key 4696
bias 0.000
h_scaling 0.637 -->
<g id="edge20" class="edge">
<title>key 121960
bias 0.000
h_scaling 0.784&#45;&gt;key 4696
bias 0.000
h_scaling 0.637</title>
<path fill="none" stroke="blue" stroke-width="1.03" d="M760.71,-83.02C825.52,-106.84 919,-155.19 919,-235.92 919,-757.76 919,-757.76 919,-757.76 919,-919.36 722.46,-807.43 572,-866.4 554.59,-873.22 536.49,-882.13 519.95,-891.07"/>
<polygon fill="blue" stroke="blue" stroke-width="1.03" points="518,-888.15 510.93,-896.04 521.38,-894.28 518,-888.15"/>
<text text-anchor="middle" x="934.5" y="-494.64" font-family="Times,serif" font-size="9.00">&#45;0.311</text>
</g>
<!-- key 202158
bias 0.000
h_scaling 0.270&#45;&gt;output
bias 0.000
h_scaling 0.534 -->
<g id="edge26" class="edge">
<title>key 202158
bias 0.000
h_scaling 0.270&#45;&gt;output
bias 0.000
h_scaling 0.534</title>
<path fill="none" stroke="red" stroke-width="0.7" d="M711.11,-645.77C707.79,-655.85 703.79,-665.98 699,-675.12 694.34,-684.01 688.6,-692.84 682.46,-701.21"/>
<polygon fill="red" stroke="red" stroke-width="0.7" points="679.49,-699.34 676.22,-709.42 685.06,-703.58 679.49,-699.34"/>
<text text-anchor="middle" x="717" y="-667.92" font-family="Times,serif" font-size="9.00">0.200</text>
</g>
<!-- key 202158
bias 0.000
h_scaling 0.270&#45;&gt;key 202158
bias 0.000
h_scaling 0.270 -->
<g id="edge33" class="edge">
<title>key 202158
bias 0.000
h_scaling 0.270&#45;&gt;key 202158
bias 0.000
h_scaling 0.270</title>
<path fill="none" stroke="red" stroke-width="1.5" d="M786.94,-598.77C798.5,-596.89 806.64,-591.79 806.64,-583.48 806.64,-577.76 802.79,-573.56 796.63,-570.89"/>
<polygon fill="red" stroke="red" stroke-width="1.5" points="797.52,-567.5 786.94,-568.18 795.63,-574.24 797.52,-567.5"/>
<text text-anchor="middle" x="820.64" y="-581.28" font-family="Times,serif" font-size="9.00">0.466</text>
</g>
<!-- key 34030
bias 0.000
h_scaling 0.076&#45;&gt;key 4696
bias 0.000
h_scaling 0.637 -->
<g id="edge17" class="edge">
<title>key 34030
bias 0.000
h_scaling 0.076&#45;&gt;key 4696
bias 0.000
h_scaling 0.637</title>
<path fill="none" stroke="blue" stroke-width="0.97" d="M413.71,-1043.37C419.19,-1029.16 425.08,-1013.86 430.71,-999.27"/>
<polygon fill="blue" stroke="blue" stroke-width="0.97" points="434.03,-1000.39 434.36,-989.8 427.49,-997.87 434.03,-1000.39"/>
<text text-anchor="middle" x="439.5" y="-1014.48" font-family="Times,serif" font-size="9.00">&#45;0.291</text>
</g>
<!-- key 13721
bias 0.000
h_scaling 0.078 -->
<g id="node12" class="node">
<title>key 13721
bias 0.000
h_scaling 0.078</title>
<ellipse fill="white" stroke="black" cx="92" cy="-410.2" rx="63.78" ry="63.78"/>
<text text-anchor="middle" x="92" y="-418" font-family="Times,serif" font-size="9.00">key 13721</text>
<text text-anchor="middle" x="92" y="-408" font-family="Times,serif" font-size="9.00">bias 0.000</text>
<text text-anchor="middle" x="92" y="-398" font-family="Times,serif" font-size="9.00">h_scaling 0.078</text>
</g>
<!-- key 34030
bias 0.000
h_scaling 0.076&#45;&gt;key 13721
bias 0.000
h_scaling 0.078 -->
<g id="edge6" class="edge">
<title>key 34030
bias 0.000
h_scaling 0.076&#45;&gt;key 13721
bias 0.000
h_scaling 0.078</title>
<path fill="none" stroke="blue" stroke-width="3.1" d="M345.8,-1058.14C268.74,-982.61 119.56,-835.3 113,-820.4 64.65,-710.61 70.89,-567.89 80.78,-483.27"/>
<polygon fill="blue" stroke="blue" stroke-width="3.1" points="84.26,-483.59 82,-473.24 77.31,-482.75 84.26,-483.59"/>
<text text-anchor="middle" x="128.5" y="-754.56" font-family="Times,serif" font-size="9.00">&#45;1.000</text>
</g>
<!-- key 39441
bias 0.000
h_scaling 1.000&#45;&gt;key 121960
bias 0.000
h_scaling 0.784 -->
<g id="edge19" class="edge">
<title>key 39441
bias 0.000
h_scaling 1.000&#45;&gt;key 121960
bias 0.000
h_scaling 0.784</title>
<path fill="none" stroke="red" stroke-width="2.98" d="M297.89,-523.37C268.61,-429.6 229.45,-247 326,-145.28 366.41,-102.7 529.29,-80.48 626.28,-70.8"/>
<polygon fill="red" stroke="red" stroke-width="2.98" points="626.7,-74.27 636.32,-69.82 626.02,-67.31 626.7,-74.27"/>
<text text-anchor="middle" x="279" y="-321.36" font-family="Times,serif" font-size="9.00">0.961</text>
</g>
<!-- key 111766
bias 0.000
h_scaling 0.713 -->
<g id="node10" class="node">
<title>key 111766
bias 0.000
h_scaling 0.713</title>
<ellipse fill="white" stroke="black" cx="453" cy="-410.2" rx="63.78" ry="63.78"/>
<text text-anchor="middle" x="453" y="-418" font-family="Times,serif" font-size="9.00">key 111766</text>
<text text-anchor="middle" x="453" y="-408" font-family="Times,serif" font-size="9.00">bias 0.000</text>
<text text-anchor="middle" x="453" y="-398" font-family="Times,serif" font-size="9.00">h_scaling 0.713</text>
</g>
<!-- key 39441
bias 0.000
h_scaling 1.000&#45;&gt;key 111766
bias 0.000
h_scaling 0.713 -->
<g id="edge31" class="edge">
<title>key 39441
bias 0.000
h_scaling 1.000&#45;&gt;key 111766
bias 0.000
h_scaling 0.713</title>
<path fill="none" stroke="red" stroke-width="0.33" d="M357.76,-532.94C373.38,-512.96 391.52,-489.78 407.75,-469.04"/>
<polygon fill="red" stroke="red" stroke-width="0.33" points="410.69,-470.96 414.1,-460.92 405.18,-466.64 410.69,-470.96"/>
<text text-anchor="middle" x="400" y="-494.64" font-family="Times,serif" font-size="9.00">0.076</text>
</g>
<!-- key 39441
bias 0.000
h_scaling 1.000&#45;&gt;key 13721
bias 0.000
h_scaling 0.078 -->
<g id="edge10" class="edge">
<title>key 39441
bias 0.000
h_scaling 1.000&#45;&gt;key 13721
bias 0.000
h_scaling 0.078</title>
<path fill="none" stroke="red" stroke-width="1.91" d="M272.78,-539.25C255.44,-523.73 235.26,-506.45 216,-491.84 196.67,-477.17 174.71,-462.34 154.7,-449.47"/>
<polygon fill="red" stroke="red" stroke-width="1.91" points="156.57,-446.51 146.26,-444.08 152.81,-452.41 156.57,-446.51"/>
<text text-anchor="middle" x="242" y="-494.64" font-family="Times,serif" font-size="9.00">0.603</text>
</g>
<!-- key 147988
bias 0.000
h_scaling 0.873 -->
<g id="node9" class="node">
<title>key 147988
bias 0.000
h_scaling 0.873</title>
<ellipse fill="white" stroke="black" cx="92" cy="-236.92" rx="63.78" ry="63.78"/>
<text text-anchor="middle" x="92" y="-244.72" font-family="Times,serif" font-size="9.00">key 147988</text>
<text text-anchor="middle" x="92" y="-234.72" font-family="Times,serif" font-size="9.00">bias 0.000</text>
<text text-anchor="middle" x="92" y="-224.72" font-family="Times,serif" font-size="9.00">h_scaling 0.873</text>
</g>
<!-- key 147988
bias 0.000
h_scaling 0.873&#45;&gt;key 1208
bias 0.000
h_scaling 0.477 -->
<g id="edge23" class="edge">
<title>key 147988
bias 0.000
h_scaling 0.873&#45;&gt;key 1208
bias 0.000
h_scaling 0.477</title>
<path fill="none" stroke="blue" stroke-width="2.78" d="M120.82,-179.69C126.77,-168.27 133.04,-156.36 139,-145.28 141.94,-139.81 145.02,-134.16 148.13,-128.49"/>
<polygon fill="blue" stroke="blue" stroke-width="2.78" points="151.27,-130.05 153.03,-119.61 145.14,-126.67 151.27,-130.05"/>
<text text-anchor="middle" x="154.5" y="-148.08" font-family="Times,serif" font-size="9.00">&#45;0.892</text>
</g>
<!-- key 111766
bias 0.000
h_scaling 0.713&#45;&gt;key 59430
bias 0.000
h_scaling 0.867 -->
<g id="edge18" class="edge">
<title>key 111766
bias 0.000
h_scaling 0.713&#45;&gt;key 59430
bias 0.000
h_scaling 0.867</title>
<path fill="none" stroke="red" stroke-width="1.83" d="M481.49,-352.88C488.09,-341.23 495.41,-329.26 503,-318.56 509.55,-309.32 517.01,-299.96 524.58,-291.04"/>
<polygon fill="red" stroke="red" stroke-width="1.83" points="527.36,-293.19 531.25,-283.34 522.06,-288.61 527.36,-293.19"/>
<text text-anchor="middle" x="517" y="-321.36" font-family="Times,serif" font-size="9.00">0.576</text>
</g>
<!-- key 4696
bias 0.000
h_scaling 0.637&#45;&gt;output
bias 0.000
h_scaling 0.534 -->
<g id="edge3" class="edge">
<title>key 4696
bias 0.000
h_scaling 0.637&#45;&gt;output
bias 0.000
h_scaling 0.534</title>
<path fill="none" stroke="blue" stroke-width="3.1" d="M516.63,-907.37C545.55,-894.22 578.76,-874.81 601,-848.4 606.06,-842.38 610.35,-835.51 613.97,-828.31"/>
<polygon fill="blue" stroke="blue" stroke-width="3.1" points="617.23,-829.59 618.2,-819.04 610.86,-826.67 617.23,-829.59"/>
<text text-anchor="middle" x="623.5" y="-841.2" font-family="Times,serif" font-size="9.00">&#45;1.000</text>
</g>
<!-- key 4696
bias 0.000
h_scaling 0.637&#45;&gt;key 4696
bias 0.000
h_scaling 0.637 -->
<g id="edge12" class="edge">
<title>key 4696
bias 0.000
h_scaling 0.637&#45;&gt;key 4696
bias 0.000
h_scaling 0.637</title>
<path fill="none" stroke="red" stroke-width="2.08" d="M518.94,-945.33C530.5,-943.45 538.64,-938.35 538.64,-930.04 538.64,-924.32 534.79,-920.12 528.63,-917.45"/>
<polygon fill="red" stroke="red" stroke-width="2.08" points="529.52,-914.06 518.94,-914.74 527.63,-920.8 529.52,-914.06"/>
<text text-anchor="middle" x="552.64" y="-927.84" font-family="Times,serif" font-size="9.00">0.660</text>
</g>
<!-- key 4696
bias 0.000
h_scaling 0.637&#45;&gt;key 13721
bias 0.000
h_scaling 0.078 -->
<g id="edge7" class="edge">
<title>key 4696
bias 0.000
h_scaling 0.637&#45;&gt;key 13721
bias 0.000
h_scaling 0.078</title>
<path fill="none" stroke="red" stroke-width="0.67" d="M393.73,-922.86C339.57,-914.47 262.67,-894.72 213,-848.4 152.14,-791.63 165.64,-754.91 142,-675.12 136.6,-656.89 117.79,-554.78 104.85,-483.06"/>
<polygon fill="red" stroke="red" stroke-width="0.67" points="108.28,-482.38 103.06,-473.16 101.39,-483.62 108.28,-482.38"/>
<text text-anchor="middle" x="156" y="-667.92" font-family="Times,serif" font-size="9.00">0.191</text>
</g>
<!-- key 13721
bias 0.000
h_scaling 0.078&#45;&gt;key 147988
bias 0.000
h_scaling 0.873 -->
<g id="edge22" class="edge">
<title>key 13721
bias 0.000
h_scaling 0.078&#45;&gt;key 147988
bias 0.000
h_scaling 0.873</title>
<path fill="none" stroke="red" stroke-width="0.92" d="M92,-346.39C92,-334.87 92,-322.76 92,-310.97"/>
<polygon fill="red" stroke="red" stroke-width="0.92" points="95.5,-310.72 92,-300.72 88.5,-310.72 95.5,-310.72"/>
<text text-anchor="middle" x="106" y="-321.36" font-family="Times,serif" font-size="9.00">0.273</text>
</g>
<!-- key 1208
bias 0.000
h_scaling 0.477&#45;&gt;output
bias 0.000
h_scaling 0.534 -->
<g id="edge1" class="edge">
<title>key 1208
bias 0.000
h_scaling 0.477&#45;&gt;output
bias 0.000
h_scaling 0.534</title>
<path fill="none" stroke="blue" stroke-width="3.09" d="M247.7,-69.99C362.94,-81.13 598.72,-111.13 648,-173.28 683.15,-217.6 652.68,-244.18 648,-300.56 640.86,-386.46 623.14,-405.94 616,-491.84 609.24,-573.16 621.39,-593.71 627,-675.12 627.18,-677.78 627.37,-680.5 627.57,-683.24"/>
<polygon fill="blue" stroke="blue" stroke-width="3.09" points="624.08,-683.52 628.28,-693.25 631.06,-683.02 624.08,-683.52"/>
<text text-anchor="middle" x="658.5" y="-408" font-family="Times,serif" font-size="9.00">&#45;0.997</text>
</g>
<!-- key 1208
bias 0.000
h_scaling 0.477&#45;&gt;key 4696
bias 0.000
h_scaling 0.637 -->
<g id="edge9" class="edge">
<title>key 1208
bias 0.000
h_scaling 0.477&#45;&gt;key 4696
bias 0.000
h_scaling 0.637</title>
<path fill="none" stroke="red" stroke-width="3.1" d="M184,-127.28C184,-159.71 184,-199.94 184,-235.92 184,-584.48 184,-584.48 184,-584.48 184,-719.42 314.22,-832.32 394.79,-889.26"/>
<polygon fill="red" stroke="red" stroke-width="3.1" points="393.19,-892.41 403.39,-895.26 397.19,-886.66 393.19,-892.41"/>
<text text-anchor="middle" x="198" y="-494.64" font-family="Times,serif" font-size="9.00">1.000</text>
</g>
<!-- key 1208
bias 0.000
h_scaling 0.477&#45;&gt;key 1208
bias 0.000
h_scaling 0.477 -->
<g id="edge8" class="edge">
<title>key 1208
bias 0.000
h_scaling 0.477&#45;&gt;key 1208
bias 0.000
h_scaling 0.477</title>
<path fill="none" stroke="red" stroke-width="3.02" d="M245.94,-78.94C257.5,-77.05 265.64,-71.95 265.64,-63.64 265.64,-57.92 261.79,-53.73 255.63,-51.05"/>
<polygon fill="red" stroke="red" stroke-width="3.02" points="256.52,-47.66 245.94,-48.34 254.63,-54.4 256.52,-47.66"/>
<text text-anchor="middle" x="279.64" y="-61.44" font-family="Times,serif" font-size="9.00">0.975</text>
</g>
</g>
</svg>
