<?xml version="1.0" encoding="UTF-8" standalone="no"?>
<!DOCTYPE svg PUBLIC "-//W3C//DTD SVG 1.1//EN"
 "http://www.w3.org/Graphics/SVG/1.1/DTD/svg11.dtd">
<!-- Generated by graphviz version 2.43.0 (0)
 -->
<!-- Title: %3 Pages: 1 -->
<svg width="571pt" height="1422pt"
 viewBox="0.00 0.00 570.64 1422.23" xmlns="http://www.w3.org/2000/svg" xmlns:xlink="http://www.w3.org/1999/xlink">
<g id="graph0" class="graph" transform="scale(1 1) rotate(0) translate(4 1418.23)">
<title>%3</title>
<polygon fill="white" stroke="transparent" points="-4,4 -4,-1418.23 566.64,-1418.23 566.64,4 -4,4"/>
<!-- ready
output 0.000 -->
<g id="node1" class="node">
<title>ready
output 0.000</title>
<polygon fill="yellow" stroke="black" points="84.5,-1414.23 7.5,-1414.23 7.5,-1386.23 84.5,-1386.23 84.5,-1414.23"/>
<text text-anchor="middle" x="46" y="-1403.03" font-family="Times,serif" font-size="9.00">ready</text>
<text text-anchor="middle" x="46" y="-1393.03" font-family="Times,serif" font-size="9.00">output 0.000</text>
</g>
<!-- key 4995
bias &#45;0.566
h_scaling 1.000
output 0.835 -->
<g id="node5" class="node">
<title>key 4995
bias &#45;0.566
h_scaling 1.000
output 0.835</title>
<ellipse fill="white" stroke="black" cx="255" cy="-1276.59" rx="63.78" ry="63.78"/>
<text text-anchor="middle" x="255" y="-1289.39" font-family="Times,serif" font-size="9.00">key 4995</text>
<text text-anchor="middle" x="255" y="-1279.39" font-family="Times,serif" font-size="9.00">bias &#45;0.566</text>
<text text-anchor="middle" x="255" y="-1269.39" font-family="Times,serif" font-size="9.00">h_scaling 1.000</text>
<text text-anchor="middle" x="255" y="-1259.39" font-family="Times,serif" font-size="9.00">output 0.835</text>
</g>
<!-- ready
output 0.000&#45;&gt;key 4995
bias &#45;0.566
h_scaling 1.000
output 0.835 -->
<g id="edge3" class="edge">
<title>ready
output 0.000&#45;&gt;key 4995
bias &#45;0.566
h_scaling 1.000
output 0.835</title>
<path fill="none" stroke="red" stroke-width="0.1" d="M81.42,-1386.13C108.49,-1375.44 146.27,-1359.07 177,-1340.23 184.34,-1335.73 191.77,-1330.62 198.97,-1325.31"/>
<polygon fill="red" stroke="red" stroke-width="0.1" points="201.44,-1327.84 207.3,-1319.01 197.21,-1322.25 201.44,-1327.84"/>
<text text-anchor="middle" x="157" y="-1361.03" font-family="Times,serif" font-size="9.00">0.166</text>
</g>
<!-- key 36042
bias &#45;0.307
h_scaling 1.000
output 0.241 -->
<g id="node7" class="node">
<title>key 36042
bias &#45;0.307
h_scaling 1.000
output 0.241</title>
<ellipse fill="white" stroke="black" cx="158" cy="-583.48" rx="63.78" ry="63.78"/>
<text text-anchor="middle" x="158" y="-596.28" font-family="Times,serif" font-size="9.00">key 36042</text>
<text text-anchor="middle" x="158" y="-586.28" font-family="Times,serif" font-size="9.00">bias &#45;0.307</text>
<text text-anchor="middle" x="158" y="-576.28" font-family="Times,serif" font-size="9.00">h_scaling 1.000</text>
<text text-anchor="middle" x="158" y="-566.28" font-family="Times,serif" font-size="9.00">output 0.241</text>
</g>
<!-- ready
output 0.000&#45;&gt;key 36042
bias &#45;0.307
h_scaling 1.000
output 0.241 -->
<g id="edge5" class="edge">
<title>ready
output 0.000&#45;&gt;key 36042
bias &#45;0.307
h_scaling 1.000
output 0.241</title>
<path fill="none" stroke="red" stroke-width="0.1" d="M37.35,-1385.99C24.02,-1364.29 0,-1319.36 0,-1277.59 0,-1277.59 0,-1277.59 0,-755.76 0,-697.42 50.14,-650.45 93.92,-620.56"/>
<polygon fill="red" stroke="red" stroke-width="0.1" points="95.9,-623.45 102.3,-615 92.03,-617.62 95.9,-623.45"/>
<text text-anchor="middle" x="14" y="-1014.48" font-family="Times,serif" font-size="9.00">0.397</text>
</g>
<!-- key 39930
bias &#45;0.606
h_scaling 1.000
output 0.020 -->
<g id="node10" class="node">
<title>key 39930
bias &#45;0.606
h_scaling 1.000
output 0.020</title>
<ellipse fill="white" stroke="black" cx="101" cy="-756.76" rx="63.78" ry="63.78"/>
<text text-anchor="middle" x="101" y="-769.56" font-family="Times,serif" font-size="9.00">key 39930</text>
<text text-anchor="middle" x="101" y="-759.56" font-family="Times,serif" font-size="9.00">bias &#45;0.606</text>
<text text-anchor="middle" x="101" y="-749.56" font-family="Times,serif" font-size="9.00">h_scaling 1.000</text>
<text text-anchor="middle" x="101" y="-739.56" font-family="Times,serif" font-size="9.00">output 0.020</text>
</g>
<!-- ready
output 0.000&#45;&gt;key 39930
bias &#45;0.606
h_scaling 1.000
output 0.020 -->
<g id="edge10" class="edge">
<title>ready
output 0.000&#45;&gt;key 39930
bias &#45;0.606
h_scaling 1.000
output 0.020</title>
<path fill="none" stroke="red" stroke-width="0.1" d="M46,-1386.09C46,-1363.79 46,-1317.08 46,-1277.59 46,-1277.59 46,-1277.59 46,-929.04 46,-893.09 57.12,-854.85 69.35,-823.64"/>
<polygon fill="red" stroke="red" stroke-width="0.1" points="72.67,-824.77 73.18,-814.19 66.18,-822.14 72.67,-824.77"/>
<text text-anchor="middle" x="60" y="-1101.11" font-family="Times,serif" font-size="9.00">0.995</text>
</g>
<!-- go
output 0.000 -->
<g id="node2" class="node">
<title>go
output 0.000</title>
<polygon fill="green" stroke="black" points="186.5,-1414.23 109.5,-1414.23 109.5,-1386.23 186.5,-1386.23 186.5,-1414.23"/>
<text text-anchor="middle" x="148" y="-1403.03" font-family="Times,serif" font-size="9.00">go</text>
<text text-anchor="middle" x="148" y="-1393.03" font-family="Times,serif" font-size="9.00">output 0.000</text>
</g>
<!-- go
output 0.000&#45;&gt;key 4995
bias &#45;0.566
h_scaling 1.000
output 0.835 -->
<g id="edge2" class="edge">
<title>go
output 0.000&#45;&gt;key 4995
bias &#45;0.566
h_scaling 1.000
output 0.835</title>
<path fill="none" stroke="blue" stroke-width="0.1" d="M159.45,-1386.22C170.88,-1373.23 189.21,-1352.38 206.78,-1332.41"/>
<polygon fill="blue" stroke="blue" stroke-width="0.1" points="209.49,-1334.63 213.46,-1324.81 204.23,-1330.01 209.49,-1334.63"/>
<text text-anchor="middle" x="198.5" y="-1361.03" font-family="Times,serif" font-size="9.00">&#45;0.972</text>
</g>
<!-- key 86992
bias &#45;0.639
h_scaling 1.000
output 0.493 -->
<g id="node9" class="node">
<title>key 86992
bias &#45;0.639
h_scaling 1.000
output 0.493</title>
<ellipse fill="white" stroke="black" cx="156" cy="-1103.31" rx="63.78" ry="63.78"/>
<text text-anchor="middle" x="156" y="-1116.11" font-family="Times,serif" font-size="9.00">key 86992</text>
<text text-anchor="middle" x="156" y="-1106.11" font-family="Times,serif" font-size="9.00">bias &#45;0.639</text>
<text text-anchor="middle" x="156" y="-1096.11" font-family="Times,serif" font-size="9.00">h_scaling 1.000</text>
<text text-anchor="middle" x="156" y="-1086.11" font-family="Times,serif" font-size="9.00">output 0.493</text>
</g>
<!-- go
output 0.000&#45;&gt;key 86992
bias &#45;0.639
h_scaling 1.000
output 0.493 -->
<g id="edge15" class="edge">
<title>go
output 0.000&#45;&gt;key 86992
bias &#45;0.639
h_scaling 1.000
output 0.493</title>
<path fill="none" stroke="blue" stroke-width="0.1" d="M148.08,-1386.13C148.28,-1355.71 148.98,-1277.94 151,-1212.95 151.36,-1201.31 151.84,-1188.96 152.36,-1176.93"/>
<polygon fill="blue" stroke="blue" stroke-width="0.1" points="155.85,-1177.07 152.8,-1166.92 148.86,-1176.76 155.85,-1177.07"/>
<text text-anchor="middle" x="166.5" y="-1274.39" font-family="Times,serif" font-size="9.00">&#45;0.261</text>
</g>
<!-- output
bias &#45;0.979
h_scaling 1.000
output 0.191 -->
<g id="node3" class="node">
<title>output
bias &#45;0.979
h_scaling 1.000
output 0.191</title>
<ellipse fill="lightblue" stroke="black" cx="349" cy="-930.04" rx="63.78" ry="63.78"/>
<text text-anchor="middle" x="349" y="-942.84" font-family="Times,serif" font-size="9.00">output</text>
<text text-anchor="middle" x="349" y="-932.84" font-family="Times,serif" font-size="9.00">bias &#45;0.979</text>
<text text-anchor="middle" x="349" y="-922.84" font-family="Times,serif" font-size="9.00">h_scaling 1.000</text>
<text text-anchor="middle" x="349" y="-912.84" font-family="Times,serif" font-size="9.00">output 0.191</text>
</g>
<!-- output
bias &#45;0.979
h_scaling 1.000
output 0.191&#45;&gt;key 39930
bias &#45;0.606
h_scaling 1.000
output 0.020 -->
<g id="edge20" class="edge">
<title>output
bias &#45;0.979
h_scaling 1.000
output 0.191&#45;&gt;key 39930
bias &#45;0.606
h_scaling 1.000
output 0.020</title>
<path fill="none" stroke="red" stroke-width="0.1" d="M300.53,-888.78C290.89,-881.16 280.74,-873.38 271,-866.4 236.39,-841.55 196.29,-815.79 163.74,-795.59"/>
<polygon fill="red" stroke="red" stroke-width="0.1" points="165.54,-792.6 155.2,-790.32 161.86,-798.55 165.54,-792.6"/>
<text text-anchor="middle" x="257" y="-841.2" font-family="Times,serif" font-size="9.00">0.151</text>
</g>
<!-- key 236225
bias &#45;0.322
h_scaling 1.000
output 0.918 -->
<g id="node4" class="node">
<title>key 236225
bias &#45;0.322
h_scaling 1.000
output 0.918</title>
<ellipse fill="white" stroke="black" cx="315" cy="-63.64" rx="63.78" ry="63.78"/>
<text text-anchor="middle" x="315" y="-76.44" font-family="Times,serif" font-size="9.00">key 236225</text>
<text text-anchor="middle" x="315" y="-66.44" font-family="Times,serif" font-size="9.00">bias &#45;0.322</text>
<text text-anchor="middle" x="315" y="-56.44" font-family="Times,serif" font-size="9.00">h_scaling 1.000</text>
<text text-anchor="middle" x="315" y="-46.44" font-family="Times,serif" font-size="9.00">output 0.918</text>
</g>
<!-- key 236225
bias &#45;0.322
h_scaling 1.000
output 0.918&#45;&gt;output
bias &#45;0.979
h_scaling 1.000
output 0.191 -->
<g id="edge21" class="edge">
<title>key 236225
bias &#45;0.322
h_scaling 1.000
output 0.918&#45;&gt;output
bias &#45;0.979
h_scaling 1.000
output 0.191</title>
<path fill="none" stroke="blue" stroke-width="0.1" d="M338.81,-123.06C350.03,-155.69 361,-197.43 361,-235.92 361,-757.76 361,-757.76 361,-757.76 361,-790.16 358.84,-825.93 356.35,-856.37"/>
<polygon fill="blue" stroke="blue" stroke-width="0.1" points="352.85,-856.21 355.49,-866.47 359.82,-856.8 352.85,-856.21"/>
<text text-anchor="middle" x="376.5" y="-494.64" font-family="Times,serif" font-size="9.00">&#45;0.148</text>
</g>
<!-- key 4995
bias &#45;0.566
h_scaling 1.000
output 0.835&#45;&gt;output
bias &#45;0.979
h_scaling 1.000
output 0.191 -->
<g id="edge1" class="edge">
<title>key 4995
bias &#45;0.566
h_scaling 1.000
output 0.835&#45;&gt;output
bias &#45;0.979
h_scaling 1.000
output 0.191</title>
<path fill="none" stroke="red" stroke-width="0.1" d="M271.59,-1214.79C287.87,-1155.1 312.69,-1064.12 329.82,-1001.35"/>
<polygon fill="red" stroke="red" stroke-width="0.1" points="333.24,-1002.09 332.5,-991.52 326.49,-1000.25 333.24,-1002.09"/>
<text text-anchor="middle" x="332" y="-1101.11" font-family="Times,serif" font-size="9.00">0.997</text>
</g>
<!-- key 4995
bias &#45;0.566
h_scaling 1.000
output 0.835&#45;&gt;key 4995
bias &#45;0.566
h_scaling 1.000
output 0.835 -->
<g id="edge4" class="edge">
<title>key 4995
bias &#45;0.566
h_scaling 1.000
output 0.835&#45;&gt;key 4995
bias &#45;0.566
h_scaling 1.000
output 0.835</title>
<path fill="none" stroke="red" stroke-width="0.1" d="M316.94,-1291.89C328.5,-1290.01 336.64,-1284.91 336.64,-1276.59 336.64,-1270.88 332.79,-1266.68 326.63,-1264"/>
<polygon fill="red" stroke="red" stroke-width="0.1" points="327.52,-1260.62 316.94,-1261.3 325.63,-1267.36 327.52,-1260.62"/>
<text text-anchor="middle" x="350.64" y="-1274.39" font-family="Times,serif" font-size="9.00">1.000</text>
</g>
<!-- key 4995
bias &#45;0.566
h_scaling 1.000
output 0.835&#45;&gt;key 86992
bias &#45;0.639
h_scaling 1.000
output 0.493 -->
<g id="edge12" class="edge">
<title>key 4995
bias &#45;0.566
h_scaling 1.000
output 0.835&#45;&gt;key 86992
bias &#45;0.639
h_scaling 1.000
output 0.493</title>
<path fill="none" stroke="red" stroke-width="0.1" d="M222,-1221.99C216.59,-1213 211.09,-1203.74 206,-1194.95 201.07,-1186.44 195.96,-1177.42 190.97,-1168.51"/>
<polygon fill="red" stroke="red" stroke-width="0.1" points="193.96,-1166.68 186.04,-1159.64 187.85,-1170.08 193.96,-1166.68"/>
<text text-anchor="middle" x="220" y="-1187.75" font-family="Times,serif" font-size="9.00">1.000</text>
</g>
<!-- key 36168
bias &#45;0.804
h_scaling 1.000
output 0.783 -->
<g id="node6" class="node">
<title>key 36168
bias &#45;0.804
h_scaling 1.000
output 0.783</title>
<ellipse fill="white" stroke="black" cx="453" cy="-236.92" rx="63.78" ry="63.78"/>
<text text-anchor="middle" x="453" y="-249.72" font-family="Times,serif" font-size="9.00">key 36168</text>
<text text-anchor="middle" x="453" y="-239.72" font-family="Times,serif" font-size="9.00">bias &#45;0.804</text>
<text text-anchor="middle" x="453" y="-229.72" font-family="Times,serif" font-size="9.00">h_scaling 1.000</text>
<text text-anchor="middle" x="453" y="-219.72" font-family="Times,serif" font-size="9.00">output 0.783</text>
</g>
<!-- key 36168
bias &#45;0.804
h_scaling 1.000
output 0.783&#45;&gt;key 4995
bias &#45;0.566
h_scaling 1.000
output 0.835 -->
<g id="edge7" class="edge">
<title>key 36168
bias &#45;0.804
h_scaling 1.000
output 0.783&#45;&gt;key 4995
bias &#45;0.566
h_scaling 1.000
output 0.835</title>
<path fill="none" stroke="red" stroke-width="0.1" d="M449.75,-300.54C448.34,-332.96 447,-373.2 447,-409.2 447,-1104.31 447,-1104.31 447,-1104.31 447,-1172.76 378.22,-1220.63 322.99,-1248.03"/>
<polygon fill="red" stroke="red" stroke-width="0.1" points="321.39,-1244.92 313.91,-1252.42 324.44,-1251.22 321.39,-1244.92"/>
<text text-anchor="middle" x="461" y="-754.56" font-family="Times,serif" font-size="9.00">0.273</text>
</g>
<!-- key 36168
bias &#45;0.804
h_scaling 1.000
output 0.783&#45;&gt;key 36168
bias &#45;0.804
h_scaling 1.000
output 0.783 -->
<g id="edge18" class="edge">
<title>key 36168
bias &#45;0.804
h_scaling 1.000
output 0.783&#45;&gt;key 36168
bias &#45;0.804
h_scaling 1.000
output 0.783</title>
<path fill="none" stroke="red" stroke-width="0.1" d="M514.94,-252.22C526.5,-250.33 534.64,-245.23 534.64,-236.92 534.64,-231.2 530.79,-227.01 524.63,-224.33"/>
<polygon fill="red" stroke="red" stroke-width="0.1" points="525.52,-220.94 514.94,-221.62 523.63,-227.68 525.52,-220.94"/>
<text text-anchor="middle" x="548.64" y="-234.72" font-family="Times,serif" font-size="9.00">0.169</text>
</g>
<!-- key 36042
bias &#45;0.307
h_scaling 1.000
output 0.241&#45;&gt;key 4995
bias &#45;0.566
h_scaling 1.000
output 0.835 -->
<g id="edge6" class="edge">
<title>key 36042
bias &#45;0.307
h_scaling 1.000
output 0.241&#45;&gt;key 4995
bias &#45;0.566
h_scaling 1.000
output 0.835</title>
<path fill="none" stroke="red" stroke-width="0.1" d="M193.9,-636.15C204.16,-653.5 214.15,-673.45 220,-693.12 234.17,-740.73 247.18,-1057.4 252.48,-1202.82"/>
<polygon fill="red" stroke="red" stroke-width="0.1" points="248.99,-1203.12 252.85,-1212.98 255.98,-1202.86 248.99,-1203.12"/>
<text text-anchor="middle" x="257" y="-927.84" font-family="Times,serif" font-size="9.00">0.175</text>
</g>
<!-- key 36042
bias &#45;0.307
h_scaling 1.000
output 0.241&#45;&gt;key 36042
bias &#45;0.307
h_scaling 1.000
output 0.241 -->
<g id="edge16" class="edge">
<title>key 36042
bias &#45;0.307
h_scaling 1.000
output 0.241&#45;&gt;key 36042
bias &#45;0.307
h_scaling 1.000
output 0.241</title>
<path fill="none" stroke="red" stroke-width="0.1" d="M219.94,-598.77C231.5,-596.89 239.64,-591.79 239.64,-583.48 239.64,-577.76 235.79,-573.56 229.63,-570.89"/>
<polygon fill="red" stroke="red" stroke-width="0.1" points="230.52,-567.5 219.94,-568.18 228.63,-574.24 230.52,-567.5"/>
<text text-anchor="middle" x="253.64" y="-581.28" font-family="Times,serif" font-size="9.00">0.088</text>
</g>
<!-- key 37631
bias &#45;0.228
h_scaling 1.000
output 0.765 -->
<g id="node11" class="node">
<title>key 37631
bias &#45;0.228
h_scaling 1.000
output 0.765</title>
<ellipse fill="white" stroke="black" cx="268" cy="-410.2" rx="63.78" ry="63.78"/>
<text text-anchor="middle" x="268" y="-423" font-family="Times,serif" font-size="9.00">key 37631</text>
<text text-anchor="middle" x="268" y="-413" font-family="Times,serif" font-size="9.00">bias &#45;0.228</text>
<text text-anchor="middle" x="268" y="-403" font-family="Times,serif" font-size="9.00">h_scaling 1.000</text>
<text text-anchor="middle" x="268" y="-393" font-family="Times,serif" font-size="9.00">output 0.765</text>
</g>
<!-- key 36042
bias &#45;0.307
h_scaling 1.000
output 0.241&#45;&gt;key 37631
bias &#45;0.228
h_scaling 1.000
output 0.765 -->
<g id="edge8" class="edge">
<title>key 36042
bias &#45;0.307
h_scaling 1.000
output 0.241&#45;&gt;key 37631
bias &#45;0.228
h_scaling 1.000
output 0.765</title>
<path fill="none" stroke="red" stroke-width="0.1" d="M192.2,-529.22C203.69,-511.33 216.6,-491.24 228.46,-472.76"/>
<polygon fill="red" stroke="red" stroke-width="0.1" points="231.55,-474.43 234.01,-464.13 225.66,-470.65 231.55,-474.43"/>
<text text-anchor="middle" x="227" y="-494.64" font-family="Times,serif" font-size="9.00">0.996</text>
</g>
<!-- key 324524
bias 0.698
h_scaling 1.000
output 0.981 -->
<g id="node8" class="node">
<title>key 324524
bias 0.698
h_scaling 1.000
output 0.981</title>
<ellipse fill="white" stroke="black" cx="268" cy="-236.92" rx="63.78" ry="63.78"/>
<text text-anchor="middle" x="268" y="-249.72" font-family="Times,serif" font-size="9.00">key 324524</text>
<text text-anchor="middle" x="268" y="-239.72" font-family="Times,serif" font-size="9.00">bias 0.698</text>
<text text-anchor="middle" x="268" y="-229.72" font-family="Times,serif" font-size="9.00">h_scaling 1.000</text>
<text text-anchor="middle" x="268" y="-219.72" font-family="Times,serif" font-size="9.00">output 0.981</text>
</g>
<!-- key 324524
bias 0.698
h_scaling 1.000
output 0.981&#45;&gt;key 236225
bias &#45;0.322
h_scaling 1.000
output 0.918 -->
<g id="edge23" class="edge">
<title>key 324524
bias 0.698
h_scaling 1.000
output 0.981&#45;&gt;key 236225
bias &#45;0.322
h_scaling 1.000
output 0.918</title>
<path fill="none" stroke="red" stroke-width="0.1" d="M284.7,-175.05C288.24,-162.18 291.99,-148.49 295.61,-135.29"/>
<polygon fill="red" stroke="red" stroke-width="0.1" points="299.08,-135.88 298.35,-125.31 292.33,-134.03 299.08,-135.88"/>
<text text-anchor="middle" x="305" y="-148.08" font-family="Times,serif" font-size="9.00">0.822</text>
</g>
<!-- key 86992
bias &#45;0.639
h_scaling 1.000
output 0.493&#45;&gt;output
bias &#45;0.979
h_scaling 1.000
output 0.191 -->
<g id="edge17" class="edge">
<title>key 86992
bias &#45;0.639
h_scaling 1.000
output 0.493&#45;&gt;output
bias &#45;0.979
h_scaling 1.000
output 0.191</title>
<path fill="none" stroke="red" stroke-width="0.1" d="M203.21,-1060.42C230.67,-1036.05 265.4,-1005.23 294.07,-979.78"/>
<polygon fill="red" stroke="red" stroke-width="0.1" points="296.45,-982.35 301.61,-973.1 291.8,-977.12 296.45,-982.35"/>
<text text-anchor="middle" x="266" y="-1014.48" font-family="Times,serif" font-size="9.00">1.000</text>
</g>
<!-- key 86992
bias &#45;0.639
h_scaling 1.000
output 0.493&#45;&gt;key 39930
bias &#45;0.606
h_scaling 1.000
output 0.020 -->
<g id="edge13" class="edge">
<title>key 86992
bias &#45;0.639
h_scaling 1.000
output 0.493&#45;&gt;key 39930
bias &#45;0.606
h_scaling 1.000
output 0.020</title>
<path fill="none" stroke="blue" stroke-width="0.1" d="M146.1,-1040.32C136.67,-981.22 122.47,-892.25 112.53,-829.98"/>
<polygon fill="blue" stroke="blue" stroke-width="0.1" points="115.94,-829.16 110.91,-819.84 109.03,-830.26 115.94,-829.16"/>
<text text-anchor="middle" x="154.5" y="-927.84" font-family="Times,serif" font-size="9.00">&#45;0.696</text>
</g>
<!-- key 39930
bias &#45;0.606
h_scaling 1.000
output 0.020&#45;&gt;key 36042
bias &#45;0.307
h_scaling 1.000
output 0.241 -->
<g id="edge11" class="edge">
<title>key 39930
bias &#45;0.606
h_scaling 1.000
output 0.020&#45;&gt;key 36042
bias &#45;0.307
h_scaling 1.000
output 0.241</title>
<path fill="none" stroke="red" stroke-width="0.1" d="M120.94,-695.85C125.47,-682.21 130.33,-667.61 134.99,-653.63"/>
<polygon fill="red" stroke="red" stroke-width="0.1" points="138.33,-654.65 138.17,-644.06 131.69,-652.44 138.33,-654.65"/>
<text text-anchor="middle" x="144" y="-667.92" font-family="Times,serif" font-size="9.00">0.701</text>
</g>
<!-- key 39930
bias &#45;0.606
h_scaling 1.000
output 0.020&#45;&gt;key 39930
bias &#45;0.606
h_scaling 1.000
output 0.020 -->
<g id="edge14" class="edge">
<title>key 39930
bias &#45;0.606
h_scaling 1.000
output 0.020&#45;&gt;key 39930
bias &#45;0.606
h_scaling 1.000
output 0.020</title>
<path fill="none" stroke="red" stroke-width="0.1" d="M162.94,-772.05C174.5,-770.17 182.64,-765.07 182.64,-756.76 182.64,-751.04 178.79,-746.84 172.63,-744.17"/>
<polygon fill="red" stroke="red" stroke-width="0.1" points="173.52,-740.78 162.94,-741.46 171.63,-747.52 173.52,-740.78"/>
<text text-anchor="middle" x="196.64" y="-754.56" font-family="Times,serif" font-size="9.00">0.600</text>
</g>
<!-- key 37631
bias &#45;0.228
h_scaling 1.000
output 0.765&#45;&gt;output
bias &#45;0.979
h_scaling 1.000
output 0.191 -->
<g id="edge19" class="edge">
<title>key 37631
bias &#45;0.228
h_scaling 1.000
output 0.765&#45;&gt;output
bias &#45;0.979
h_scaling 1.000
output 0.191</title>
<path fill="none" stroke="blue" stroke-width="0.1" d="M277.7,-473.22C292.79,-569.65 321.78,-755.04 337.76,-857.17"/>
<polygon fill="blue" stroke="blue" stroke-width="0.1" points="334.31,-857.75 339.31,-867.09 341.22,-856.67 334.31,-857.75"/>
<text text-anchor="middle" x="323.5" y="-667.92" font-family="Times,serif" font-size="9.00">&#45;0.119</text>
</g>
<!-- key 37631
bias &#45;0.228
h_scaling 1.000
output 0.765&#45;&gt;key 36168
bias &#45;0.804
h_scaling 1.000
output 0.783 -->
<g id="edge9" class="edge">
<title>key 37631
bias &#45;0.228
h_scaling 1.000
output 0.765&#45;&gt;key 36168
bias &#45;0.804
h_scaling 1.000
output 0.783</title>
<path fill="none" stroke="red" stroke-width="0.1" d="M314.21,-366.42C340.03,-342.51 372.34,-312.59 399.29,-287.64"/>
<polygon fill="red" stroke="red" stroke-width="0.1" points="401.78,-290.11 406.74,-280.75 397.03,-284.97 401.78,-290.11"/>
<text text-anchor="middle" x="374" y="-321.36" font-family="Times,serif" font-size="9.00">0.996</text>
</g>
<!-- key 37631
bias &#45;0.228
h_scaling 1.000
output 0.765&#45;&gt;key 324524
bias 0.698
h_scaling 1.000
output 0.981 -->
<g id="edge22" class="edge">
<title>key 37631
bias &#45;0.228
h_scaling 1.000
output 0.765&#45;&gt;key 324524
bias 0.698
h_scaling 1.000
output 0.981</title>
<path fill="none" stroke="red" stroke-width="0.1" d="M268,-346.39C268,-334.87 268,-322.76 268,-310.97"/>
<polygon fill="red" stroke="red" stroke-width="0.1" points="271.5,-310.72 268,-300.72 264.5,-310.72 271.5,-310.72"/>
<text text-anchor="middle" x="282" y="-321.36" font-family="Times,serif" font-size="9.00">0.098</text>
</g>
</g>
</svg>
