<?xml version="1.0" encoding="UTF-8" standalone="no"?>
<!DOCTYPE svg PUBLIC "-//W3C//DTD SVG 1.1//EN"
 "http://www.w3.org/Graphics/SVG/1.1/DTD/svg11.dtd">
<!-- Generated by graphviz version 2.43.0 (0)
 -->
<!-- Title: %3 Pages: 1 -->
<svg width="511pt" height="1076pt"
 viewBox="0.00 0.00 510.64 1075.68" xmlns="http://www.w3.org/2000/svg" xmlns:xlink="http://www.w3.org/1999/xlink">
<g id="graph0" class="graph" transform="scale(1 1) rotate(0) translate(4 1071.68)">
<title>%3</title>
<polygon fill="white" stroke="transparent" points="-4,4 -4,-1071.68 506.64,-1071.68 506.64,4 -4,4"/>
<!-- ready
output 0.000 -->
<g id="node1" class="node">
<title>ready
output 0.000</title>
<polygon fill="yellow" stroke="black" points="111.5,-1067.68 34.5,-1067.68 34.5,-1039.68 111.5,-1039.68 111.5,-1067.68"/>
<text text-anchor="middle" x="73" y="-1056.48" font-family="Times,serif" font-size="9.00">ready</text>
<text text-anchor="middle" x="73" y="-1046.48" font-family="Times,serif" font-size="9.00">output 0.000</text>
</g>
<!-- key 22466
bias &#45;0.044
h_scaling 0.373
output 0.454 -->
<g id="node4" class="node">
<title>key 22466
bias &#45;0.044
h_scaling 0.373
output 0.454</title>
<ellipse fill="white" stroke="black" cx="346" cy="-930.04" rx="63.78" ry="63.78"/>
<text text-anchor="middle" x="346" y="-942.84" font-family="Times,serif" font-size="9.00">key 22466</text>
<text text-anchor="middle" x="346" y="-932.84" font-family="Times,serif" font-size="9.00">bias &#45;0.044</text>
<text text-anchor="middle" x="346" y="-922.84" font-family="Times,serif" font-size="9.00">h_scaling 0.373</text>
<text text-anchor="middle" x="346" y="-912.84" font-family="Times,serif" font-size="9.00">output 0.454</text>
</g>
<!-- ready
output 0.000&#45;&gt;key 22466
bias &#45;0.044
h_scaling 0.373
output 0.454 -->
<g id="edge12" class="edge">
<title>ready
output 0.000&#45;&gt;key 22466
bias &#45;0.044
h_scaling 0.373
output 0.454</title>
<path fill="none" stroke="red" stroke-width="0.1" d="M111.55,-1042.16C147.06,-1031.85 200.79,-1014.64 245,-993.68 258.33,-987.35 272.09,-979.68 285.01,-971.9"/>
<polygon fill="red" stroke="red" stroke-width="0.1" points="287.1,-974.72 293.8,-966.51 283.44,-968.75 287.1,-974.72"/>
<text text-anchor="middle" x="213" y="-1014.48" font-family="Times,serif" font-size="9.00">0.230</text>
</g>
<!-- key 197380
bias &#45;0.750
h_scaling 0.679
output 0.023 -->
<g id="node5" class="node">
<title>key 197380
bias &#45;0.750
h_scaling 0.679
output 0.023</title>
<ellipse fill="white" stroke="black" cx="283" cy="-63.64" rx="63.78" ry="63.78"/>
<text text-anchor="middle" x="283" y="-76.44" font-family="Times,serif" font-size="9.00">key 197380</text>
<text text-anchor="middle" x="283" y="-66.44" font-family="Times,serif" font-size="9.00">bias &#45;0.750</text>
<text text-anchor="middle" x="283" y="-56.44" font-family="Times,serif" font-size="9.00">h_scaling 0.679</text>
<text text-anchor="middle" x="283" y="-46.44" font-family="Times,serif" font-size="9.00">output 0.023</text>
</g>
<!-- ready
output 0.000&#45;&gt;key 197380
bias &#45;0.750
h_scaling 0.679
output 0.023 -->
<g id="edge16" class="edge">
<title>ready
output 0.000&#45;&gt;key 197380
bias &#45;0.750
h_scaling 0.679
output 0.023</title>
<path fill="none" stroke="red" stroke-width="0.1" d="M58.58,-1039.64C37.3,-1018.9 0,-976.11 0,-931.04 0,-931.04 0,-931.04 0,-235.92 0,-137.69 126.34,-94.26 210.19,-76.25"/>
<polygon fill="red" stroke="red" stroke-width="0.1" points="211.11,-79.64 220.19,-74.18 209.69,-72.78 211.11,-79.64"/>
<text text-anchor="middle" x="14" y="-581.28" font-family="Times,serif" font-size="9.00">1.378</text>
</g>
<!-- key 10232
bias &#45;0.543
h_scaling 0.833
output 0.548 -->
<g id="node7" class="node">
<title>key 10232
bias &#45;0.543
h_scaling 0.833
output 0.548</title>
<ellipse fill="white" stroke="black" cx="197" cy="-756.76" rx="63.78" ry="63.78"/>
<text text-anchor="middle" x="197" y="-769.56" font-family="Times,serif" font-size="9.00">key 10232</text>
<text text-anchor="middle" x="197" y="-759.56" font-family="Times,serif" font-size="9.00">bias &#45;0.543</text>
<text text-anchor="middle" x="197" y="-749.56" font-family="Times,serif" font-size="9.00">h_scaling 0.833</text>
<text text-anchor="middle" x="197" y="-739.56" font-family="Times,serif" font-size="9.00">output 0.548</text>
</g>
<!-- ready
output 0.000&#45;&gt;key 10232
bias &#45;0.543
h_scaling 0.833
output 0.548 -->
<g id="edge3" class="edge">
<title>ready
output 0.000&#45;&gt;key 10232
bias &#45;0.543
h_scaling 0.833
output 0.548</title>
<path fill="none" stroke="red" stroke-width="0.1" d="M74.86,-1039.5C79.59,-1008.27 93.8,-927.78 122,-866.4 129.99,-849 140.76,-831.39 151.63,-815.56"/>
<polygon fill="red" stroke="red" stroke-width="0.1" points="154.78,-817.15 157.66,-806.96 149.05,-813.13 154.78,-817.15"/>
<text text-anchor="middle" x="136" y="-927.84" font-family="Times,serif" font-size="9.00">0.547</text>
</g>
<!-- key 5176
bias &#45;0.218
h_scaling 0.027
output 0.312 -->
<g id="node8" class="node">
<title>key 5176
bias &#45;0.218
h_scaling 0.027
output 0.312</title>
<ellipse fill="white" stroke="black" cx="186" cy="-583.48" rx="63.78" ry="63.78"/>
<text text-anchor="middle" x="186" y="-596.28" font-family="Times,serif" font-size="9.00">key 5176</text>
<text text-anchor="middle" x="186" y="-586.28" font-family="Times,serif" font-size="9.00">bias &#45;0.218</text>
<text text-anchor="middle" x="186" y="-576.28" font-family="Times,serif" font-size="9.00">h_scaling 0.027</text>
<text text-anchor="middle" x="186" y="-566.28" font-family="Times,serif" font-size="9.00">output 0.312</text>
</g>
<!-- ready
output 0.000&#45;&gt;key 5176
bias &#45;0.218
h_scaling 0.027
output 0.312 -->
<g id="edge5" class="edge">
<title>ready
output 0.000&#45;&gt;key 5176
bias &#45;0.218
h_scaling 0.027
output 0.312</title>
<path fill="none" stroke="red" stroke-width="0.1" d="M69.85,-1039.36C59.06,-990.94 26.72,-820.39 74,-693.12 83.87,-666.55 104.38,-643.55 125.19,-625.64"/>
<polygon fill="red" stroke="red" stroke-width="0.1" points="127.7,-628.11 133.16,-619.03 123.22,-622.72 127.7,-628.11"/>
<text text-anchor="middle" x="64" y="-841.2" font-family="Times,serif" font-size="9.00">0.391</text>
</g>
<!-- go
output 0.000 -->
<g id="node2" class="node">
<title>go
output 0.000</title>
<polygon fill="green" stroke="black" points="235.5,-944.04 158.5,-944.04 158.5,-916.04 235.5,-916.04 235.5,-944.04"/>
<text text-anchor="middle" x="197" y="-932.84" font-family="Times,serif" font-size="9.00">go</text>
<text text-anchor="middle" x="197" y="-922.84" font-family="Times,serif" font-size="9.00">output 0.000</text>
</g>
<!-- go
output 0.000&#45;&gt;key 10232
bias &#45;0.543
h_scaling 0.833
output 0.548 -->
<g id="edge2" class="edge">
<title>go
output 0.000&#45;&gt;key 10232
bias &#45;0.543
h_scaling 0.833
output 0.548</title>
<path fill="none" stroke="blue" stroke-width="0.1" d="M197,-915.88C197,-897.57 197,-863.03 197,-830.89"/>
<polygon fill="blue" stroke="blue" stroke-width="0.1" points="200.5,-830.57 197,-820.57 193.5,-830.57 200.5,-830.57"/>
<text text-anchor="middle" x="212.5" y="-841.2" font-family="Times,serif" font-size="9.00">&#45;0.365</text>
</g>
<!-- go
output 0.000&#45;&gt;key 5176
bias &#45;0.218
h_scaling 0.027
output 0.312 -->
<g id="edge6" class="edge">
<title>go
output 0.000&#45;&gt;key 5176
bias &#45;0.218
h_scaling 0.027
output 0.312</title>
<path fill="none" stroke="blue" stroke-width="0.1" d="M185.98,-915.75C175.12,-902.84 157.9,-882.83 142,-866.4 121.23,-844.93 104.87,-847.81 93,-820.4 70.53,-768.48 73.39,-746.18 93,-693.12 101.1,-671.2 115.81,-650.72 131.17,-633.58"/>
<polygon fill="blue" stroke="blue" stroke-width="0.1" points="134.02,-635.66 138.26,-625.95 128.89,-630.9 134.02,-635.66"/>
<text text-anchor="middle" x="108.5" y="-754.56" font-family="Times,serif" font-size="9.00">&#45;0.924</text>
</g>
<!-- key 28927
bias 0.404
h_scaling 1.000
output 0.610 -->
<g id="node9" class="node">
<title>key 28927
bias 0.404
h_scaling 1.000
output 0.610</title>
<ellipse fill="white" stroke="black" cx="283" cy="-410.2" rx="63.78" ry="63.78"/>
<text text-anchor="middle" x="283" y="-423" font-family="Times,serif" font-size="9.00">key 28927</text>
<text text-anchor="middle" x="283" y="-413" font-family="Times,serif" font-size="9.00">bias 0.404</text>
<text text-anchor="middle" x="283" y="-403" font-family="Times,serif" font-size="9.00">h_scaling 1.000</text>
<text text-anchor="middle" x="283" y="-393" font-family="Times,serif" font-size="9.00">output 0.610</text>
</g>
<!-- go
output 0.000&#45;&gt;key 28927
bias 0.404
h_scaling 1.000
output 0.610 -->
<g id="edge13" class="edge">
<title>go
output 0.000&#45;&gt;key 28927
bias 0.404
h_scaling 1.000
output 0.610</title>
<path fill="none" stroke="red" stroke-width="0.1" d="M211.62,-915.87C226.55,-902.7 250.65,-882.18 273,-866.4 285.7,-857.43 292.6,-859.96 303,-848.4 312.18,-838.2 313.04,-833.79 316,-820.4 341.78,-703.65 319.6,-564.2 301.25,-481.93"/>
<polygon fill="red" stroke="red" stroke-width="0.1" points="304.61,-480.91 298.98,-471.94 297.78,-482.47 304.61,-480.91"/>
<text text-anchor="middle" x="341" y="-667.92" font-family="Times,serif" font-size="9.00">1.263</text>
</g>
<!-- output
bias &#45;0.358
h_scaling 0.307
output 0.086 -->
<g id="node3" class="node">
<title>output
bias &#45;0.358
h_scaling 0.307
output 0.086</title>
<ellipse fill="lightblue" stroke="black" cx="283" cy="-236.92" rx="63.78" ry="63.78"/>
<text text-anchor="middle" x="283" y="-249.72" font-family="Times,serif" font-size="9.00">output</text>
<text text-anchor="middle" x="283" y="-239.72" font-family="Times,serif" font-size="9.00">bias &#45;0.358</text>
<text text-anchor="middle" x="283" y="-229.72" font-family="Times,serif" font-size="9.00">h_scaling 0.307</text>
<text text-anchor="middle" x="283" y="-219.72" font-family="Times,serif" font-size="9.00">output 0.086</text>
</g>
<!-- output
bias &#45;0.358
h_scaling 0.307
output 0.086&#45;&gt;key 197380
bias &#45;0.750
h_scaling 0.679
output 0.023 -->
<g id="edge18" class="edge">
<title>output
bias &#45;0.358
h_scaling 0.307
output 0.086&#45;&gt;key 197380
bias &#45;0.750
h_scaling 0.679
output 0.023</title>
<path fill="none" stroke="blue" stroke-width="0.1" d="M283,-173.11C283,-161.59 283,-149.48 283,-137.69"/>
<polygon fill="blue" stroke="blue" stroke-width="0.1" points="286.5,-137.44 283,-127.44 279.5,-137.44 286.5,-137.44"/>
<text text-anchor="middle" x="298.5" y="-148.08" font-family="Times,serif" font-size="9.00">&#45;0.054</text>
</g>
<!-- key 153547
bias &#45;0.910
h_scaling 0.919
output 0.015 -->
<g id="node6" class="node">
<title>key 153547
bias &#45;0.910
h_scaling 0.919
output 0.015</title>
<ellipse fill="white" stroke="black" cx="439" cy="-63.64" rx="63.78" ry="63.78"/>
<text text-anchor="middle" x="439" y="-76.44" font-family="Times,serif" font-size="9.00">key 153547</text>
<text text-anchor="middle" x="439" y="-66.44" font-family="Times,serif" font-size="9.00">bias &#45;0.910</text>
<text text-anchor="middle" x="439" y="-56.44" font-family="Times,serif" font-size="9.00">h_scaling 0.919</text>
<text text-anchor="middle" x="439" y="-46.44" font-family="Times,serif" font-size="9.00">output 0.015</text>
</g>
<!-- output
bias &#45;0.358
h_scaling 0.307
output 0.086&#45;&gt;key 153547
bias &#45;0.910
h_scaling 0.919
output 0.015 -->
<g id="edge14" class="edge">
<title>output
bias &#45;0.358
h_scaling 0.307
output 0.086&#45;&gt;key 153547
bias &#45;0.910
h_scaling 0.919
output 0.015</title>
<path fill="none" stroke="red" stroke-width="0.1" d="M325.63,-189.12C345.4,-167.4 369.03,-141.46 389.58,-118.9"/>
<polygon fill="red" stroke="red" stroke-width="0.1" points="392.28,-121.14 396.42,-111.39 387.1,-116.42 392.28,-121.14"/>
<text text-anchor="middle" x="375" y="-148.08" font-family="Times,serif" font-size="9.00">1.163</text>
</g>
<!-- key 22466
bias &#45;0.044
h_scaling 0.373
output 0.454&#45;&gt;key 10232
bias &#45;0.543
h_scaling 0.833
output 0.548 -->
<g id="edge8" class="edge">
<title>key 22466
bias &#45;0.044
h_scaling 0.373
output 0.454&#45;&gt;key 10232
bias &#45;0.543
h_scaling 0.833
output 0.548</title>
<path fill="none" stroke="red" stroke-width="0.1" d="M304.5,-881.32C286.01,-860.07 264.13,-834.92 244.94,-812.87"/>
<polygon fill="red" stroke="red" stroke-width="0.1" points="247.49,-810.46 238.28,-805.21 242.2,-815.05 247.49,-810.46"/>
<text text-anchor="middle" x="285" y="-841.2" font-family="Times,serif" font-size="9.00">0.406</text>
</g>
<!-- key 197380
bias &#45;0.750
h_scaling 0.679
output 0.023&#45;&gt;key 22466
bias &#45;0.044
h_scaling 0.373
output 0.454 -->
<g id="edge17" class="edge">
<title>key 197380
bias &#45;0.750
h_scaling 0.679
output 0.023&#45;&gt;key 22466
bias &#45;0.044
h_scaling 0.373
output 0.454</title>
<path fill="none" stroke="red" stroke-width="0.1" d="M324.69,-112C349.04,-144.54 375,-190.01 375,-235.92 375,-757.76 375,-757.76 375,-757.76 375,-790.95 369.64,-827.26 363.53,-857.87"/>
<polygon fill="red" stroke="red" stroke-width="0.1" points="360.03,-857.52 361.43,-868.02 366.88,-858.93 360.03,-857.52"/>
<text text-anchor="middle" x="389" y="-494.64" font-family="Times,serif" font-size="9.00">0.679</text>
</g>
<!-- key 153547
bias &#45;0.910
h_scaling 0.919
output 0.015&#45;&gt;key 22466
bias &#45;0.044
h_scaling 0.373
output 0.454 -->
<g id="edge15" class="edge">
<title>key 153547
bias &#45;0.910
h_scaling 0.919
output 0.015&#45;&gt;key 22466
bias &#45;0.044
h_scaling 0.373
output 0.454</title>
<path fill="none" stroke="blue" stroke-width="0.1" d="M445.49,-127.21C448.32,-159.61 451,-199.85 451,-235.92 451,-757.76 451,-757.76 451,-757.76 451,-802.61 424.5,-845.62 398.13,-877.33"/>
<polygon fill="blue" stroke="blue" stroke-width="0.1" points="395.29,-875.26 391.44,-885.14 400.61,-879.82 395.29,-875.26"/>
<text text-anchor="middle" x="466.5" y="-494.64" font-family="Times,serif" font-size="9.00">&#45;0.486</text>
</g>
<!-- key 10232
bias &#45;0.543
h_scaling 0.833
output 0.548&#45;&gt;key 10232
bias &#45;0.543
h_scaling 0.833
output 0.548 -->
<g id="edge7" class="edge">
<title>key 10232
bias &#45;0.543
h_scaling 0.833
output 0.548&#45;&gt;key 10232
bias &#45;0.543
h_scaling 0.833
output 0.548</title>
<path fill="none" stroke="red" stroke-width="0.1" d="M258.94,-772.05C270.5,-770.17 278.64,-765.07 278.64,-756.76 278.64,-751.04 274.79,-746.84 268.63,-744.17"/>
<polygon fill="red" stroke="red" stroke-width="0.1" points="269.52,-740.78 258.94,-741.46 267.63,-747.52 269.52,-740.78"/>
<text text-anchor="middle" x="292.64" y="-754.56" font-family="Times,serif" font-size="9.00">0.860</text>
</g>
<!-- key 10232
bias &#45;0.543
h_scaling 0.833
output 0.548&#45;&gt;key 5176
bias &#45;0.218
h_scaling 0.027
output 0.312 -->
<g id="edge4" class="edge">
<title>key 10232
bias &#45;0.543
h_scaling 0.833
output 0.548&#45;&gt;key 5176
bias &#45;0.218
h_scaling 0.027
output 0.312</title>
<path fill="none" stroke="red" stroke-width="0.1" d="M192.97,-692.95C192.23,-681.43 191.45,-669.32 190.69,-657.53"/>
<polygon fill="red" stroke="red" stroke-width="0.1" points="194.17,-657.03 190.03,-647.28 187.18,-657.48 194.17,-657.03"/>
<text text-anchor="middle" x="205" y="-667.92" font-family="Times,serif" font-size="9.00">0.869</text>
</g>
<!-- key 5176
bias &#45;0.218
h_scaling 0.027
output 0.312&#45;&gt;output
bias &#45;0.358
h_scaling 0.307
output 0.086 -->
<g id="edge1" class="edge">
<title>key 5176
bias &#45;0.218
h_scaling 0.027
output 0.312&#45;&gt;output
bias &#45;0.358
h_scaling 0.307
output 0.086</title>
<path fill="none" stroke="red" stroke-width="0.1" d="M172.46,-521.07C164.56,-472.07 159.97,-402.6 182,-346.56 191.23,-323.07 208.2,-301.64 225.62,-284.14"/>
<polygon fill="red" stroke="red" stroke-width="0.1" points="228.36,-286.37 233.1,-276.89 223.48,-281.34 228.36,-286.37"/>
<text text-anchor="middle" x="196" y="-408" font-family="Times,serif" font-size="9.00">1.006</text>
</g>
<!-- key 5176
bias &#45;0.218
h_scaling 0.027
output 0.312&#45;&gt;key 28927
bias 0.404
h_scaling 1.000
output 0.610 -->
<g id="edge10" class="edge">
<title>key 5176
bias &#45;0.218
h_scaling 0.027
output 0.312&#45;&gt;key 28927
bias 0.404
h_scaling 1.000
output 0.610</title>
<path fill="none" stroke="blue" stroke-width="0.1" d="M199.61,-521.03C202.96,-510.97 207.05,-500.89 212,-491.84 217.4,-481.97 224.2,-472.27 231.44,-463.21"/>
<polygon fill="blue" stroke="blue" stroke-width="0.1" points="234.2,-465.36 237.89,-455.43 228.81,-460.9 234.2,-465.36"/>
<text text-anchor="middle" x="227.5" y="-494.64" font-family="Times,serif" font-size="9.00">&#45;1.000</text>
</g>
<!-- key 28927
bias 0.404
h_scaling 1.000
output 0.610&#45;&gt;output
bias &#45;0.358
h_scaling 0.307
output 0.086 -->
<g id="edge11" class="edge">
<title>key 28927
bias 0.404
h_scaling 1.000
output 0.610&#45;&gt;output
bias &#45;0.358
h_scaling 0.307
output 0.086</title>
<path fill="none" stroke="blue" stroke-width="0.1" d="M283,-346.39C283,-334.87 283,-322.76 283,-310.97"/>
<polygon fill="blue" stroke="blue" stroke-width="0.1" points="286.5,-310.72 283,-300.72 279.5,-310.72 286.5,-310.72"/>
<text text-anchor="middle" x="298.5" y="-321.36" font-family="Times,serif" font-size="9.00">&#45;0.662</text>
</g>
<!-- key 28927
bias 0.404
h_scaling 1.000
output 0.610&#45;&gt;key 5176
bias &#45;0.218
h_scaling 0.027
output 0.312 -->
<g id="edge9" class="edge">
<title>key 28927
bias 0.404
h_scaling 1.000
output 0.610&#45;&gt;key 5176
bias &#45;0.218
h_scaling 0.027
output 0.312</title>
<path fill="none" stroke="blue" stroke-width="0.1" d="M262.01,-470.78C257.53,-481.36 252.48,-492.1 247,-501.84 242.57,-509.7 237.46,-517.66 232.12,-525.35"/>
<polygon fill="blue" stroke="blue" stroke-width="0.1" points="229.21,-523.41 226.26,-533.58 234.91,-527.47 229.21,-523.41"/>
<text text-anchor="middle" x="266.5" y="-494.64" font-family="Times,serif" font-size="9.00">&#45;0.657</text>
</g>
</g>
</svg>
