<?xml version="1.0" encoding="UTF-8" standalone="no"?>
<!DOCTYPE svg PUBLIC "-//W3C//DTD SVG 1.1//EN"
 "http://www.w3.org/Graphics/SVG/1.1/DTD/svg11.dtd">
<!-- Generated by graphviz version 2.43.0 (0)
 -->
<!-- Title: %3 Pages: 1 -->
<svg width="462pt" height="892pt"
 viewBox="0.00 0.00 461.64 892.40" xmlns="http://www.w3.org/2000/svg" xmlns:xlink="http://www.w3.org/1999/xlink">
<g id="graph0" class="graph" transform="scale(1 1) rotate(0) translate(4 888.4)">
<title>%3</title>
<polygon fill="white" stroke="transparent" points="-4,4 -4,-888.4 457.64,-888.4 457.64,4 -4,4"/>
<!-- ready -->
<g id="node1" class="node">
<title>ready</title>
<polygon fill="yellow" stroke="black" points="179.14,-884.4 136.14,-884.4 136.14,-866.4 179.14,-866.4 179.14,-884.4"/>
<text text-anchor="middle" x="157.64" y="-873.2" font-family="Times,serif" font-size="9.00">ready</text>
</g>
<!-- key 3655
bias &#45;0.409
h_scaling 0.325 -->
<g id="node4" class="node">
<title>key 3655
bias &#45;0.409
h_scaling 0.325</title>
<ellipse fill="white" stroke="black" cx="268.64" cy="-756.76" rx="63.78" ry="63.78"/>
<text text-anchor="middle" x="268.64" y="-764.56" font-family="Times,serif" font-size="9.00">key 3655</text>
<text text-anchor="middle" x="268.64" y="-754.56" font-family="Times,serif" font-size="9.00">bias &#45;0.409</text>
<text text-anchor="middle" x="268.64" y="-744.56" font-family="Times,serif" font-size="9.00">h_scaling 0.325</text>
</g>
<!-- ready&#45;&gt;key 3655
bias &#45;0.409
h_scaling 0.325 -->
<g id="edge4" class="edge">
<title>ready&#45;&gt;key 3655
bias &#45;0.409
h_scaling 0.325</title>
<path fill="none" stroke="blue" stroke-width="0.1" d="M165.27,-866.38C176.27,-854.82 197.5,-832.51 217.87,-811.1"/>
<polygon fill="blue" stroke="blue" stroke-width="0.1" points="220.67,-813.24 225.02,-803.59 215.6,-808.42 220.67,-813.24"/>
</g>
<!-- key 216592
bias &#45;0.367
h_scaling 0.960 -->
<g id="node6" class="node">
<title>key 216592
bias &#45;0.367
h_scaling 0.960</title>
<ellipse fill="white" stroke="black" cx="116.64" cy="-236.92" rx="63.78" ry="63.78"/>
<text text-anchor="middle" x="116.64" y="-244.72" font-family="Times,serif" font-size="9.00">key 216592</text>
<text text-anchor="middle" x="116.64" y="-234.72" font-family="Times,serif" font-size="9.00">bias &#45;0.367</text>
<text text-anchor="middle" x="116.64" y="-224.72" font-family="Times,serif" font-size="9.00">h_scaling 0.960</text>
</g>
<!-- ready&#45;&gt;key 216592
bias &#45;0.367
h_scaling 0.960 -->
<g id="edge6" class="edge">
<title>ready&#45;&gt;key 216592
bias &#45;0.367
h_scaling 0.960</title>
<path fill="none" stroke="red" stroke-width="0.59" d="M152.61,-866.26C141.66,-847.73 116.64,-800.69 116.64,-757.76 116.64,-757.76 116.64,-757.76 116.64,-409.2 116.64,-376.87 116.64,-341.11 116.64,-310.67"/>
<polygon fill="red" stroke="red" stroke-width="0.59" points="120.14,-310.56 116.64,-300.56 113.14,-310.56 120.14,-310.56"/>
<text text-anchor="middle" x="130.64" y="-581.28" font-family="Times,serif" font-size="9.00">0.016</text>
</g>
<!-- key 213616
bias &#45;0.467
h_scaling 0.761 -->
<g id="node7" class="node">
<title>key 213616
bias &#45;0.467
h_scaling 0.761</title>
<ellipse fill="white" stroke="black" cx="276.64" cy="-63.64" rx="63.78" ry="63.78"/>
<text text-anchor="middle" x="276.64" y="-71.44" font-family="Times,serif" font-size="9.00">key 213616</text>
<text text-anchor="middle" x="276.64" y="-61.44" font-family="Times,serif" font-size="9.00">bias &#45;0.467</text>
<text text-anchor="middle" x="276.64" y="-51.44" font-family="Times,serif" font-size="9.00">h_scaling 0.761</text>
</g>
<!-- ready&#45;&gt;key 213616
bias &#45;0.467
h_scaling 0.761 -->
<g id="edge16" class="edge">
<title>ready&#45;&gt;key 213616
bias &#45;0.467
h_scaling 0.761</title>
<path fill="none" stroke="red" stroke-width="0.55" d="M179.23,-872.07C230.44,-866.14 357.28,-848.88 387.64,-820.4 408.86,-800.49 406.64,-786.85 406.64,-757.76 406.64,-757.76 406.64,-757.76 406.64,-235.92 406.64,-185.07 369.84,-139.85 335.4,-108.66"/>
<polygon fill="red" stroke="red" stroke-width="0.55" points="337.46,-105.81 327.65,-101.82 332.84,-111.06 337.46,-105.81"/>
<text text-anchor="middle" x="420.64" y="-494.64" font-family="Times,serif" font-size="9.00">0.015</text>
</g>
<!-- key 219100
bias &#45;0.490
h_scaling 0.418 -->
<g id="node8" class="node">
<title>key 219100
bias &#45;0.490
h_scaling 0.418</title>
<ellipse fill="white" stroke="black" cx="63.64" cy="-63.64" rx="63.78" ry="63.78"/>
<text text-anchor="middle" x="63.64" y="-71.44" font-family="Times,serif" font-size="9.00">key 219100</text>
<text text-anchor="middle" x="63.64" y="-61.44" font-family="Times,serif" font-size="9.00">bias &#45;0.490</text>
<text text-anchor="middle" x="63.64" y="-51.44" font-family="Times,serif" font-size="9.00">h_scaling 0.418</text>
</g>
<!-- ready&#45;&gt;key 219100
bias &#45;0.490
h_scaling 0.418 -->
<g id="edge8" class="edge">
<title>ready&#45;&gt;key 219100
bias &#45;0.490
h_scaling 0.418</title>
<path fill="none" stroke="red" stroke-width="0.6" d="M135.97,-866.89C98.29,-852.28 24.64,-816.26 24.64,-757.76 24.64,-757.76 24.64,-757.76 24.64,-235.92 24.64,-201.8 32.09,-164.78 40.48,-133.92"/>
<polygon fill="red" stroke="red" stroke-width="0.6" points="43.89,-134.7 43.23,-124.13 37.15,-132.81 43.89,-134.7"/>
<text text-anchor="middle" x="38.64" y="-494.64" font-family="Times,serif" font-size="9.00">0.017</text>
</g>
<!-- go -->
<g id="node2" class="node">
<title>go</title>
<polygon fill="green" stroke="black" points="453.64,-884.4 425.64,-884.4 425.64,-866.4 453.64,-866.4 453.64,-884.4"/>
<text text-anchor="middle" x="439.64" y="-873.2" font-family="Times,serif" font-size="9.00">go</text>
</g>
<!-- go&#45;&gt;key 3655
bias &#45;0.409
h_scaling 0.325 -->
<g id="edge2" class="edge">
<title>go&#45;&gt;key 3655
bias &#45;0.409
h_scaling 0.325</title>
<path fill="none" stroke="red" stroke-width="0.66" d="M427.89,-866.38C407.77,-852.66 365.42,-823.77 329.45,-799.23"/>
<polygon fill="red" stroke="red" stroke-width="0.66" points="331.17,-796.17 320.93,-793.43 327.22,-801.95 331.17,-796.17"/>
<text text-anchor="middle" x="412.64" y="-841.2" font-family="Times,serif" font-size="9.00">0.019</text>
</g>
<!-- output
bias 0.462
h_scaling 0.977 -->
<g id="node3" class="node">
<title>output
bias 0.462
h_scaling 0.977</title>
<ellipse fill="lightblue" stroke="black" cx="276.64" cy="-410.2" rx="63.78" ry="63.78"/>
<text text-anchor="middle" x="276.64" y="-418" font-family="Times,serif" font-size="9.00">output</text>
<text text-anchor="middle" x="276.64" y="-408" font-family="Times,serif" font-size="9.00">bias 0.462</text>
<text text-anchor="middle" x="276.64" y="-398" font-family="Times,serif" font-size="9.00">h_scaling 0.977</text>
</g>
<!-- output
bias 0.462
h_scaling 0.977&#45;&gt;key 216592
bias &#45;0.367
h_scaling 0.960 -->
<g id="edge11" class="edge">
<title>output
bias 0.462
h_scaling 0.977&#45;&gt;key 216592
bias &#45;0.367
h_scaling 0.960</title>
<path fill="none" stroke="blue" stroke-width="0.1" d="M247.84,-353.18C240.44,-341.15 231.91,-328.94 222.64,-318.56 209.59,-303.94 193.57,-290.17 177.97,-278.28"/>
<polygon fill="blue" stroke="blue" stroke-width="0.1" points="179.98,-275.41 169.87,-272.24 175.79,-281.02 179.98,-275.41"/>
</g>
<!-- key 3655
bias &#45;0.409
h_scaling 0.325&#45;&gt;output
bias 0.462
h_scaling 0.977 -->
<g id="edge1" class="edge">
<title>key 3655
bias &#45;0.409
h_scaling 0.325&#45;&gt;output
bias 0.462
h_scaling 0.977</title>
<path fill="none" stroke="blue" stroke-width="0.1" d="M288.81,-696.34C293.28,-680.53 297.37,-663.34 299.64,-647.12 307.48,-591.09 305.53,-576.1 299.64,-519.84 298.35,-507.51 296.25,-494.52 293.84,-481.97"/>
<polygon fill="blue" stroke="blue" stroke-width="0.1" points="297.25,-481.15 291.85,-472.03 290.38,-482.53 297.25,-481.15"/>
</g>
<!-- key 3655
bias &#45;0.409
h_scaling 0.325&#45;&gt;key 3655
bias &#45;0.409
h_scaling 0.325 -->
<g id="edge3" class="edge">
<title>key 3655
bias &#45;0.409
h_scaling 0.325&#45;&gt;key 3655
bias &#45;0.409
h_scaling 0.325</title>
<path fill="none" stroke="red" stroke-width="1.03" d="M330.58,-772.05C342.14,-770.17 350.28,-765.07 350.28,-756.76 350.28,-751.04 346.43,-746.84 340.27,-744.17"/>
<polygon fill="red" stroke="red" stroke-width="1.03" points="341.16,-740.78 330.58,-741.46 339.27,-747.52 341.16,-740.78"/>
<text text-anchor="middle" x="364.28" y="-754.56" font-family="Times,serif" font-size="9.00">0.031</text>
</g>
<!-- key 274635
bias &#45;0.475
h_scaling 0.969 -->
<g id="node5" class="node">
<title>key 274635
bias &#45;0.475
h_scaling 0.969</title>
<ellipse fill="white" stroke="black" cx="226.64" cy="-583.48" rx="63.78" ry="63.78"/>
<text text-anchor="middle" x="226.64" y="-591.28" font-family="Times,serif" font-size="9.00">key 274635</text>
<text text-anchor="middle" x="226.64" y="-581.28" font-family="Times,serif" font-size="9.00">bias &#45;0.475</text>
<text text-anchor="middle" x="226.64" y="-571.28" font-family="Times,serif" font-size="9.00">h_scaling 0.969</text>
</g>
<!-- key 3655
bias &#45;0.409
h_scaling 0.325&#45;&gt;key 274635
bias &#45;0.475
h_scaling 0.969 -->
<g id="edge12" class="edge">
<title>key 3655
bias &#45;0.409
h_scaling 0.325&#45;&gt;key 274635
bias &#45;0.475
h_scaling 0.969</title>
<path fill="none" stroke="red" stroke-width="0.75" d="M253.71,-694.89C250.58,-682.09 247.24,-668.49 244.02,-655.36"/>
<polygon fill="red" stroke="red" stroke-width="0.75" points="247.37,-654.32 241.59,-645.44 240.57,-655.98 247.37,-654.32"/>
<text text-anchor="middle" x="261.64" y="-667.92" font-family="Times,serif" font-size="9.00">0.022</text>
</g>
<!-- key 274635
bias &#45;0.475
h_scaling 0.969&#45;&gt;output
bias 0.462
h_scaling 0.977 -->
<g id="edge13" class="edge">
<title>key 274635
bias &#45;0.475
h_scaling 0.969&#45;&gt;output
bias 0.462
h_scaling 0.977</title>
<path fill="none" stroke="blue" stroke-width="0.1" d="M244.27,-522.09C248.11,-508.92 252.22,-494.86 256.16,-481.35"/>
<polygon fill="blue" stroke="blue" stroke-width="0.1" points="259.56,-482.2 259,-471.62 252.84,-480.24 259.56,-482.2"/>
</g>
<!-- key 274635
bias &#45;0.475
h_scaling 0.969&#45;&gt;key 213616
bias &#45;0.467
h_scaling 0.761 -->
<g id="edge14" class="edge">
<title>key 274635
bias &#45;0.475
h_scaling 0.969&#45;&gt;key 213616
bias &#45;0.467
h_scaling 0.761</title>
<path fill="none" stroke="red" stroke-width="0.77" d="M211.43,-521.64C208.2,-506.15 205.28,-489.46 203.64,-473.84 197.75,-417.58 196.49,-402.67 203.64,-346.56 213.06,-272.6 235.85,-190.3 253.48,-133.81"/>
<polygon fill="red" stroke="red" stroke-width="0.77" points="256.82,-134.86 256.49,-124.27 250.14,-132.76 256.82,-134.86"/>
<text text-anchor="middle" x="221.64" y="-321.36" font-family="Times,serif" font-size="9.00">0.022</text>
</g>
<!-- key 216592
bias &#45;0.367
h_scaling 0.960&#45;&gt;key 213616
bias &#45;0.467
h_scaling 0.761 -->
<g id="edge7" class="edge">
<title>key 216592
bias &#45;0.367
h_scaling 0.960&#45;&gt;key 213616
bias &#45;0.467
h_scaling 0.761</title>
<path fill="none" stroke="red" stroke-width="0.83" d="M143.21,-178.77C149.98,-167.05 157.86,-155.27 166.64,-145.28 180.22,-129.83 197.25,-115.58 213.82,-103.5"/>
<polygon fill="red" stroke="red" stroke-width="0.83" points="216.3,-106.03 222.42,-97.38 212.25,-100.32 216.3,-106.03"/>
<text text-anchor="middle" x="180.64" y="-148.08" font-family="Times,serif" font-size="9.00">0.024</text>
</g>
<!-- key 216592
bias &#45;0.367
h_scaling 0.960&#45;&gt;key 219100
bias &#45;0.490
h_scaling 0.418 -->
<g id="edge10" class="edge">
<title>key 216592
bias &#45;0.367
h_scaling 0.960&#45;&gt;key 219100
bias &#45;0.490
h_scaling 0.418</title>
<path fill="none" stroke="red" stroke-width="0.6" d="M76.28,-187.66C69.84,-177.53 64.15,-166.5 60.64,-155.28 58.86,-149.6 57.67,-143.62 56.94,-137.56"/>
<polygon fill="red" stroke="red" stroke-width="0.6" points="60.41,-136.99 56.11,-127.31 53.43,-137.56 60.41,-136.99"/>
<text text-anchor="middle" x="74.64" y="-148.08" font-family="Times,serif" font-size="9.00">0.017</text>
</g>
<!-- key 213616
bias &#45;0.467
h_scaling 0.761&#45;&gt;output
bias 0.462
h_scaling 0.977 -->
<g id="edge15" class="edge">
<title>key 213616
bias &#45;0.467
h_scaling 0.761&#45;&gt;output
bias 0.462
h_scaling 0.977</title>
<path fill="none" stroke="red" stroke-width="0.41" d="M276.64,-127.3C276.64,-186.18 276.64,-274.29 276.64,-336.3"/>
<polygon fill="red" stroke="red" stroke-width="0.41" points="273.14,-336.4 276.64,-346.4 280.14,-336.4 273.14,-336.4"/>
<text text-anchor="middle" x="290.64" y="-234.72" font-family="Times,serif" font-size="9.00">0.010</text>
</g>
<!-- key 213616
bias &#45;0.467
h_scaling 0.761&#45;&gt;key 3655
bias &#45;0.409
h_scaling 0.325 -->
<g id="edge5" class="edge">
<title>key 213616
bias &#45;0.467
h_scaling 0.761&#45;&gt;key 3655
bias &#45;0.409
h_scaling 0.325</title>
<path fill="none" stroke="blue" stroke-width="0.1" d="M318.33,-112C342.67,-144.54 368.64,-190.01 368.64,-235.92 368.64,-584.48 368.64,-584.48 368.64,-584.48 368.64,-628.28 343.94,-670.85 319.1,-702.59"/>
<polygon fill="blue" stroke="blue" stroke-width="0.1" points="316.34,-700.44 312.79,-710.42 321.79,-704.83 316.34,-700.44"/>
</g>
<!-- key 219100
bias &#45;0.490
h_scaling 0.418&#45;&gt;key 216592
bias &#45;0.367
h_scaling 0.960 -->
<g id="edge9" class="edge">
<title>key 219100
bias &#45;0.490
h_scaling 0.418&#45;&gt;key 216592
bias &#45;0.367
h_scaling 0.960</title>
<path fill="none" stroke="red" stroke-width="0.6" d="M85.45,-123.46C87.97,-130.77 90.43,-138.18 92.64,-145.28 94.62,-151.65 96.59,-158.3 98.49,-164.98"/>
<polygon fill="red" stroke="red" stroke-width="0.6" points="95.16,-166.08 101.22,-174.77 101.9,-164.19 95.16,-166.08"/>
<text text-anchor="middle" x="109.64" y="-148.08" font-family="Times,serif" font-size="9.00">0.017</text>
</g>
</g>
</svg>
