<?xml version="1.0" encoding="UTF-8" standalone="no"?>
<!DOCTYPE svg PUBLIC "-//W3C//DTD SVG 1.1//EN"
 "http://www.w3.org/Graphics/SVG/1.1/DTD/svg11.dtd">
<!-- Generated by graphviz version 2.43.0 (0)
 -->
<!-- Title: %3 Pages: 1 -->
<svg width="271pt" height="701pt"
 viewBox="0.00 0.00 271.14 701.12" xmlns="http://www.w3.org/2000/svg" xmlns:xlink="http://www.w3.org/1999/xlink">
<g id="graph0" class="graph" transform="scale(1 1) rotate(0) translate(4 697.12)">
<title>%3</title>
<polygon fill="white" stroke="transparent" points="-4,4 -4,-697.12 267.14,-697.12 267.14,4 -4,4"/>
<!-- ready -->
<g id="node1" class="node">
<title>ready</title>
<polygon fill="yellow" stroke="black" points="43,-693.12 0,-693.12 0,-675.12 43,-675.12 43,-693.12"/>
<text text-anchor="middle" x="21.5" y="-681.92" font-family="Times,serif" font-size="9.00">ready</text>
</g>
<!-- key 46267
bias 1.000
h_scaling 0.992 -->
<g id="node4" class="node">
<title>key 46267
bias 1.000
h_scaling 0.992</title>
<ellipse fill="white" stroke="black" cx="153.5" cy="-565.48" rx="63.78" ry="63.78"/>
<text text-anchor="middle" x="153.5" y="-573.28" font-family="Times,serif" font-size="9.00">key 46267</text>
<text text-anchor="middle" x="153.5" y="-563.28" font-family="Times,serif" font-size="9.00">bias 1.000</text>
<text text-anchor="middle" x="153.5" y="-553.28" font-family="Times,serif" font-size="9.00">h_scaling 0.992</text>
</g>
<!-- ready&#45;&gt;key 46267
bias 1.000
h_scaling 0.992 -->
<g id="edge10" class="edge">
<title>ready&#45;&gt;key 46267
bias 1.000
h_scaling 0.992</title>
<path fill="none" stroke="red" stroke-width="0.77" d="M30.57,-675.1C44.62,-662.69 72.71,-637.86 98.5,-615.08"/>
<polygon fill="red" stroke="red" stroke-width="0.77" points="100.88,-617.65 106.05,-608.4 96.24,-612.4 100.88,-617.65"/>
<text text-anchor="middle" x="75.5" y="-649.92" font-family="Times,serif" font-size="9.00">0.022</text>
</g>
<!-- key 2014
bias 0.605
h_scaling 1.000 -->
<g id="node5" class="node">
<title>key 2014
bias 0.605
h_scaling 1.000</title>
<ellipse fill="white" stroke="black" cx="103.5" cy="-227.92" rx="63.78" ry="63.78"/>
<text text-anchor="middle" x="103.5" y="-235.72" font-family="Times,serif" font-size="9.00">key 2014</text>
<text text-anchor="middle" x="103.5" y="-225.72" font-family="Times,serif" font-size="9.00">bias 0.605</text>
<text text-anchor="middle" x="103.5" y="-215.72" font-family="Times,serif" font-size="9.00">h_scaling 1.000</text>
</g>
<!-- ready&#45;&gt;key 2014
bias 0.605
h_scaling 1.000 -->
<g id="edge9" class="edge">
<title>ready&#45;&gt;key 2014
bias 0.605
h_scaling 1.000</title>
<path fill="none" stroke="blue" stroke-width="0.1" d="M20.78,-674.87C17.62,-635.32 6.84,-461.39 48.5,-328.56 52.48,-315.86 58.17,-302.95 64.4,-290.82"/>
<polygon fill="blue" stroke="blue" stroke-width="0.1" points="67.64,-292.18 69.25,-281.71 61.46,-288.89 67.64,-292.18"/>
</g>
<!-- go -->
<g id="node2" class="node">
<title>go</title>
<polygon fill="green" stroke="black" points="67.5,-574.48 39.5,-574.48 39.5,-556.48 67.5,-556.48 67.5,-574.48"/>
<text text-anchor="middle" x="53.5" y="-563.28" font-family="Times,serif" font-size="9.00">go</text>
</g>
<!-- go&#45;&gt;key 2014
bias 0.605
h_scaling 1.000 -->
<g id="edge6" class="edge">
<title>go&#45;&gt;key 2014
bias 0.605
h_scaling 1.000</title>
<path fill="none" stroke="red" stroke-width="0.47" d="M53,-556.21C51.33,-525.61 47.07,-416.04 65.5,-328.56 67.75,-317.88 70.98,-306.83 74.62,-296.16"/>
<polygon fill="red" stroke="red" stroke-width="0.47" points="78,-297.07 78.05,-286.48 71.41,-294.73 78,-297.07"/>
<text text-anchor="middle" x="79.5" y="-390" font-family="Times,serif" font-size="9.00">0.012</text>
</g>
<!-- key 9839
bias 0.648
h_scaling 0.466 -->
<g id="node6" class="node">
<title>key 9839
bias 0.648
h_scaling 0.466</title>
<ellipse fill="white" stroke="black" cx="199.5" cy="-392.2" rx="63.78" ry="63.78"/>
<text text-anchor="middle" x="199.5" y="-400" font-family="Times,serif" font-size="9.00">key 9839</text>
<text text-anchor="middle" x="199.5" y="-390" font-family="Times,serif" font-size="9.00">bias 0.648</text>
<text text-anchor="middle" x="199.5" y="-380" font-family="Times,serif" font-size="9.00">h_scaling 0.466</text>
</g>
<!-- go&#45;&gt;key 9839
bias 0.648
h_scaling 0.466 -->
<g id="edge2" class="edge">
<title>go&#45;&gt;key 9839
bias 0.648
h_scaling 0.466</title>
<path fill="none" stroke="blue" stroke-width="0.1" d="M55.83,-556.2C59.62,-543.65 68,-519.39 80.5,-501.84 97.34,-478.2 120.08,-455.87 141.17,-437.68"/>
<polygon fill="blue" stroke="blue" stroke-width="0.1" points="143.48,-440.31 148.85,-431.17 138.95,-434.97 143.48,-440.31"/>
</g>
<!-- output
bias 0.527
h_scaling 0.284 -->
<g id="node3" class="node">
<title>output
bias 0.527
h_scaling 0.284</title>
<ellipse fill="lightblue" stroke="black" cx="153.5" cy="-63.64" rx="63.78" ry="63.78"/>
<text text-anchor="middle" x="153.5" y="-71.44" font-family="Times,serif" font-size="9.00">output</text>
<text text-anchor="middle" x="153.5" y="-61.44" font-family="Times,serif" font-size="9.00">bias 0.527</text>
<text text-anchor="middle" x="153.5" y="-51.44" font-family="Times,serif" font-size="9.00">h_scaling 0.284</text>
</g>
<!-- key 46267
bias 1.000
h_scaling 0.992&#45;&gt;key 9839
bias 0.648
h_scaling 0.466 -->
<g id="edge8" class="edge">
<title>key 46267
bias 1.000
h_scaling 0.992&#45;&gt;key 9839
bias 0.648
h_scaling 0.466</title>
<path fill="none" stroke="red" stroke-width="0.38" d="M148.33,-501.99C148.83,-492.45 150.08,-482.8 152.5,-473.84 154.26,-467.32 156.69,-460.79 159.53,-454.42"/>
<polygon fill="red" stroke="red" stroke-width="0.38" points="162.77,-455.76 163.95,-445.23 156.46,-452.73 162.77,-455.76"/>
<text text-anchor="middle" x="166.5" y="-476.64" font-family="Times,serif" font-size="9.00">0.009</text>
</g>
<!-- key 2014
bias 0.605
h_scaling 1.000&#45;&gt;output
bias 0.527
h_scaling 0.284 -->
<g id="edge1" class="edge">
<title>key 2014
bias 0.605
h_scaling 1.000&#45;&gt;output
bias 0.527
h_scaling 0.284</title>
<path fill="none" stroke="blue" stroke-width="0.1" d="M121.98,-166.95C125.23,-156.38 128.65,-145.28 131.99,-134.47"/>
<polygon fill="blue" stroke="blue" stroke-width="0.1" points="135.42,-135.22 135.02,-124.63 128.73,-133.16 135.42,-135.22"/>
</g>
<!-- key 2014
bias 0.605
h_scaling 1.000&#45;&gt;key 46267
bias 1.000
h_scaling 0.992 -->
<g id="edge11" class="edge">
<title>key 2014
bias 0.605
h_scaling 1.000&#45;&gt;key 46267
bias 1.000
h_scaling 0.992</title>
<path fill="none" stroke="blue" stroke-width="0.1" d="M107.46,-291.85C110.92,-337.58 116.93,-400.83 126.5,-455.84 128.66,-468.23 131.45,-481.29 134.41,-493.9"/>
<polygon fill="blue" stroke="blue" stroke-width="0.1" points="131.08,-494.99 136.82,-503.9 137.88,-493.35 131.08,-494.99"/>
</g>
<!-- key 2014
bias 0.605
h_scaling 1.000&#45;&gt;key 9839
bias 0.648
h_scaling 0.466 -->
<g id="edge3" class="edge">
<title>key 2014
bias 0.605
h_scaling 1.000&#45;&gt;key 9839
bias 0.648
h_scaling 0.466</title>
<path fill="none" stroke="blue" stroke-width="0.1" d="M140.18,-280.22C149.13,-294.64 158.63,-310.51 167.35,-325.64"/>
<polygon fill="blue" stroke="blue" stroke-width="0.1" points="164.39,-327.5 172.4,-334.44 170.46,-324.02 164.39,-327.5"/>
</g>
<!-- key 9839
bias 0.648
h_scaling 0.466&#45;&gt;output
bias 0.527
h_scaling 0.284 -->
<g id="edge5" class="edge">
<title>key 9839
bias 0.648
h_scaling 0.466&#45;&gt;output
bias 0.527
h_scaling 0.284</title>
<path fill="none" stroke="red" stroke-width="0.42" d="M195.26,-328.31C191.66,-282.61 185.61,-219.36 176.5,-164.28 174.95,-154.92 173.05,-145.13 171,-135.49"/>
<polygon fill="red" stroke="red" stroke-width="0.42" points="174.38,-134.55 168.83,-125.52 167.54,-136.04 174.38,-134.55"/>
<text text-anchor="middle" x="205.5" y="-225.72" font-family="Times,serif" font-size="9.00">0.011</text>
</g>
<!-- key 9839
bias 0.648
h_scaling 0.466&#45;&gt;key 46267
bias 1.000
h_scaling 0.992 -->
<g id="edge7" class="edge">
<title>key 9839
bias 0.648
h_scaling 0.466&#45;&gt;key 46267
bias 1.000
h_scaling 0.992</title>
<path fill="none" stroke="blue" stroke-width="0.1" d="M190.91,-455.48C189.1,-465.05 186.97,-474.76 184.5,-483.84 183.34,-488.1 182.04,-492.46 180.64,-496.82"/>
<polygon fill="blue" stroke="blue" stroke-width="0.1" points="177.3,-495.77 177.44,-506.36 183.93,-497.99 177.3,-495.77"/>
</g>
<!-- key 9839
bias 0.648
h_scaling 0.466&#45;&gt;key 2014
bias 0.605
h_scaling 1.000 -->
<g id="edge4" class="edge">
<title>key 9839
bias 0.648
h_scaling 0.466&#45;&gt;key 2014
bias 0.605
h_scaling 1.000</title>
<path fill="none" stroke="blue" stroke-width="0.1" d="M162.8,-339.85C153.83,-325.41 144.32,-309.51 135.58,-294.37"/>
<polygon fill="blue" stroke="blue" stroke-width="0.1" points="138.55,-292.5 130.54,-285.56 132.47,-295.98 138.55,-292.5"/>
</g>
</g>
</svg>
