<?xml version="1.0" encoding="UTF-8" standalone="no"?>
<!DOCTYPE svg PUBLIC "-//W3C//DTD SVG 1.1//EN"
 "http://www.w3.org/Graphics/SVG/1.1/DTD/svg11.dtd">
<!-- Generated by graphviz version 2.43.0 (0)
 -->
<!-- Title: %3 Pages: 1 -->
<svg width="300pt" height="719pt"
 viewBox="0.00 0.00 300.14 719.12" xmlns="http://www.w3.org/2000/svg" xmlns:xlink="http://www.w3.org/1999/xlink">
<g id="graph0" class="graph" transform="scale(1 1) rotate(0) translate(4 715.12)">
<title>%3</title>
<polygon fill="white" stroke="transparent" points="-4,4 -4,-715.12 296.14,-715.12 296.14,4 -4,4"/>
<!-- ready -->
<g id="node1" class="node">
<title>ready</title>
<polygon fill="yellow" stroke="black" points="43,-711.12 0,-711.12 0,-693.12 43,-693.12 43,-711.12"/>
<text text-anchor="middle" x="21.5" y="-699.92" font-family="Times,serif" font-size="9.00">ready</text>
</g>
<!-- key 46267
bias 1.000
h_scaling 0.992 -->
<g id="node4" class="node">
<title>key 46267
bias 1.000
h_scaling 0.992</title>
<ellipse fill="white" stroke="black" cx="162.5" cy="-583.48" rx="63.78" ry="63.78"/>
<text text-anchor="middle" x="162.5" y="-591.28" font-family="Times,serif" font-size="9.00">key 46267</text>
<text text-anchor="middle" x="162.5" y="-581.28" font-family="Times,serif" font-size="9.00">bias 1.000</text>
<text text-anchor="middle" x="162.5" y="-571.28" font-family="Times,serif" font-size="9.00">h_scaling 0.992</text>
</g>
<!-- ready&#45;&gt;key 46267
bias 1.000
h_scaling 0.992 -->
<g id="edge10" class="edge">
<title>ready&#45;&gt;key 46267
bias 1.000
h_scaling 0.992</title>
<path fill="none" stroke="red" stroke-width="1.48" d="M31.19,-693.1C46.6,-680.35 77.84,-654.51 105.98,-631.23"/>
<polygon fill="red" stroke="red" stroke-width="1.48" points="108.34,-633.82 113.82,-624.75 103.88,-628.43 108.34,-633.82"/>
<text text-anchor="middle" x="76.5" y="-667.92" font-family="Times,serif" font-size="9.00">0.461</text>
</g>
<!-- key 2014
bias 0.605
h_scaling 1.000 -->
<g id="node5" class="node">
<title>key 2014
bias 0.605
h_scaling 1.000</title>
<ellipse fill="white" stroke="black" cx="132.5" cy="-236.92" rx="63.78" ry="63.78"/>
<text text-anchor="middle" x="132.5" y="-244.72" font-family="Times,serif" font-size="9.00">key 2014</text>
<text text-anchor="middle" x="132.5" y="-234.72" font-family="Times,serif" font-size="9.00">bias 0.605</text>
<text text-anchor="middle" x="132.5" y="-224.72" font-family="Times,serif" font-size="9.00">h_scaling 1.000</text>
</g>
<!-- ready&#45;&gt;key 2014
bias 0.605
h_scaling 1.000 -->
<g id="edge9" class="edge">
<title>ready&#45;&gt;key 2014
bias 0.605
h_scaling 1.000</title>
<path fill="none" stroke="blue" stroke-width="1.38" d="M20.66,-692.94C16.89,-652.99 4.05,-475.01 59.5,-346.56 66.98,-329.22 77.3,-311.69 87.83,-295.92"/>
<polygon fill="blue" stroke="blue" stroke-width="1.38" points="90.93,-297.58 93.68,-287.35 85.15,-293.63 90.93,-297.58"/>
<text text-anchor="middle" x="38" y="-494.64" font-family="Times,serif" font-size="9.00">&#45;0.428</text>
</g>
<!-- go -->
<g id="node2" class="node">
<title>go</title>
<polygon fill="green" stroke="black" points="72.5,-592.48 44.5,-592.48 44.5,-574.48 72.5,-574.48 72.5,-592.48"/>
<text text-anchor="middle" x="58.5" y="-581.28" font-family="Times,serif" font-size="9.00">go</text>
</g>
<!-- go&#45;&gt;key 2014
bias 0.605
h_scaling 1.000 -->
<g id="edge6" class="edge">
<title>go&#45;&gt;key 2014
bias 0.605
h_scaling 1.000</title>
<path fill="none" stroke="red" stroke-width="3.1" d="M58.57,-574.17C59.03,-543.41 62.3,-433.38 85.5,-346.56 89.29,-332.36 94.63,-317.62 100.36,-303.75"/>
<polygon fill="red" stroke="red" stroke-width="3.1" points="103.69,-304.87 104.38,-294.3 97.24,-302.14 103.69,-304.87"/>
<text text-anchor="middle" x="99.5" y="-408" font-family="Times,serif" font-size="9.00">1.000</text>
</g>
<!-- key 9839
bias 0.648
h_scaling 0.466 -->
<g id="node6" class="node">
<title>key 9839
bias 0.648
h_scaling 0.466</title>
<ellipse fill="white" stroke="black" cx="228.5" cy="-410.2" rx="63.78" ry="63.78"/>
<text text-anchor="middle" x="228.5" y="-418" font-family="Times,serif" font-size="9.00">key 9839</text>
<text text-anchor="middle" x="228.5" y="-408" font-family="Times,serif" font-size="9.00">bias 0.648</text>
<text text-anchor="middle" x="228.5" y="-398" font-family="Times,serif" font-size="9.00">h_scaling 0.466</text>
</g>
<!-- go&#45;&gt;key 9839
bias 0.648
h_scaling 0.466 -->
<g id="edge2" class="edge">
<title>go&#45;&gt;key 9839
bias 0.648
h_scaling 0.466</title>
<path fill="none" stroke="blue" stroke-width="3.09" d="M61.24,-574.06C65.68,-561.33 75.41,-536.84 89.5,-519.84 111.17,-493.7 123.7,-494.69 150.5,-473.84 157.2,-468.62 164.18,-463.12 171.1,-457.62"/>
<polygon fill="blue" stroke="blue" stroke-width="3.09" points="173.53,-460.16 179.17,-451.19 169.16,-454.69 173.53,-460.16"/>
<text text-anchor="middle" x="138" y="-494.64" font-family="Times,serif" font-size="9.00">&#45;0.995</text>
</g>
<!-- output
bias 0.527
h_scaling 0.284 -->
<g id="node3" class="node">
<title>output
bias 0.527
h_scaling 0.284</title>
<ellipse fill="lightblue" stroke="black" cx="198.5" cy="-63.64" rx="63.78" ry="63.78"/>
<text text-anchor="middle" x="198.5" y="-71.44" font-family="Times,serif" font-size="9.00">output</text>
<text text-anchor="middle" x="198.5" y="-61.44" font-family="Times,serif" font-size="9.00">bias 0.527</text>
<text text-anchor="middle" x="198.5" y="-51.44" font-family="Times,serif" font-size="9.00">h_scaling 0.284</text>
</g>
<!-- key 46267
bias 1.000
h_scaling 0.992&#45;&gt;key 9839
bias 0.648
h_scaling 0.466 -->
<g id="edge8" class="edge">
<title>key 46267
bias 1.000
h_scaling 0.992&#45;&gt;key 9839
bias 0.648
h_scaling 0.466</title>
<path fill="none" stroke="red" stroke-width="1.17" d="M163.65,-519.58C165.08,-510.1 167.25,-500.57 170.5,-491.84 173.56,-483.62 177.69,-475.48 182.34,-467.72"/>
<polygon fill="red" stroke="red" stroke-width="1.17" points="185.39,-469.45 187.8,-459.13 179.48,-465.69 185.39,-469.45"/>
<text text-anchor="middle" x="184.5" y="-494.64" font-family="Times,serif" font-size="9.00">0.356</text>
</g>
<!-- key 2014
bias 0.605
h_scaling 1.000&#45;&gt;output
bias 0.527
h_scaling 0.284 -->
<g id="edge1" class="edge">
<title>key 2014
bias 0.605
h_scaling 1.000&#45;&gt;output
bias 0.527
h_scaling 0.284</title>
<path fill="none" stroke="blue" stroke-width="3.1" d="M155.21,-176.97C160.69,-162.77 166.58,-147.47 172.21,-132.87"/>
<polygon fill="blue" stroke="blue" stroke-width="3.1" points="175.53,-133.99 175.86,-123.4 168.99,-131.48 175.53,-133.99"/>
<text text-anchor="middle" x="181" y="-148.08" font-family="Times,serif" font-size="9.00">&#45;1.000</text>
</g>
<!-- key 2014
bias 0.605
h_scaling 1.000&#45;&gt;key 46267
bias 1.000
h_scaling 0.992 -->
<g id="edge11" class="edge">
<title>key 2014
bias 0.605
h_scaling 1.000&#45;&gt;key 46267
bias 1.000
h_scaling 0.992</title>
<path fill="none" stroke="blue" stroke-width="1.55" d="M123.63,-299.97C118.41,-347.82 114.58,-415.46 124.5,-473.84 126.8,-487.39 130.61,-501.51 134.95,-514.9"/>
<polygon fill="blue" stroke="blue" stroke-width="1.55" points="131.68,-516.15 138.19,-524.51 138.31,-513.92 131.68,-516.15"/>
<text text-anchor="middle" x="140" y="-408" font-family="Times,serif" font-size="9.00">&#45;0.482</text>
</g>
<!-- key 2014
bias 0.605
h_scaling 1.000&#45;&gt;key 9839
bias 0.648
h_scaling 0.466 -->
<g id="edge3" class="edge">
<title>key 2014
bias 0.605
h_scaling 1.000&#45;&gt;key 9839
bias 0.648
h_scaling 0.466</title>
<path fill="none" stroke="blue" stroke-width="2.18" d="M165.15,-291.92C170.36,-300.78 175.63,-309.89 180.5,-318.56 185.16,-326.85 189.97,-335.64 194.66,-344.34"/>
<polygon fill="blue" stroke="blue" stroke-width="2.18" points="191.68,-346.2 199.49,-353.36 197.85,-342.89 191.68,-346.2"/>
<text text-anchor="middle" x="201" y="-321.36" font-family="Times,serif" font-size="9.00">&#45;0.695</text>
</g>
<!-- key 9839
bias 0.648
h_scaling 0.466&#45;&gt;output
bias 0.527
h_scaling 0.284 -->
<g id="edge5" class="edge">
<title>key 9839
bias 0.648
h_scaling 0.466&#45;&gt;output
bias 0.527
h_scaling 0.284</title>
<path fill="none" stroke="red" stroke-width="2.49" d="M223.03,-346.4C217.9,-287.47 210.23,-199.36 204.83,-137.39"/>
<polygon fill="red" stroke="red" stroke-width="2.49" points="208.31,-136.95 203.96,-127.3 201.34,-137.56 208.31,-136.95"/>
<text text-anchor="middle" x="232.5" y="-234.72" font-family="Times,serif" font-size="9.00">0.796</text>
</g>
<!-- key 9839
bias 0.648
h_scaling 0.466&#45;&gt;key 46267
bias 1.000
h_scaling 0.992 -->
<g id="edge7" class="edge">
<title>key 9839
bias 0.648
h_scaling 0.466&#45;&gt;key 46267
bias 1.000
h_scaling 0.992</title>
<path fill="none" stroke="blue" stroke-width="2.17" d="M212.66,-472.16C209.59,-482.18 206.17,-492.37 202.5,-501.84 200.52,-506.94 198.34,-512.15 196.04,-517.35"/>
<polygon fill="blue" stroke="blue" stroke-width="2.17" points="192.76,-516.11 191.8,-526.67 199.13,-519.01 192.76,-516.11"/>
<text text-anchor="middle" x="221" y="-494.64" font-family="Times,serif" font-size="9.00">&#45;0.690</text>
</g>
<!-- key 9839
bias 0.648
h_scaling 0.466&#45;&gt;key 2014
bias 0.605
h_scaling 1.000 -->
<g id="edge4" class="edge">
<title>key 9839
bias 0.648
h_scaling 0.466&#45;&gt;key 2014
bias 0.605
h_scaling 1.000</title>
<path fill="none" stroke="blue" stroke-width="2.57" d="M178.12,-370.53C165.56,-358.44 153.43,-344.13 145.5,-328.56 142.61,-322.89 140.31,-316.77 138.48,-310.5"/>
<polygon fill="blue" stroke="blue" stroke-width="2.57" points="141.81,-309.38 135.98,-300.53 135.02,-311.08 141.81,-309.38"/>
<text text-anchor="middle" x="161" y="-321.36" font-family="Times,serif" font-size="9.00">&#45;0.824</text>
</g>
</g>
</svg>
