<?xml version="1.0" encoding="UTF-8" standalone="no"?>
<!DOCTYPE svg PUBLIC "-//W3C//DTD SVG 1.1//EN"
 "http://www.w3.org/Graphics/SVG/1.1/DTD/svg11.dtd">
<!-- Generated by graphviz version 2.43.0 (0)
 -->
<!-- Title: %3 Pages: 1 -->
<svg width="489pt" height="892pt"
 viewBox="0.00 0.00 488.90 892.40" xmlns="http://www.w3.org/2000/svg" xmlns:xlink="http://www.w3.org/1999/xlink">
<g id="graph0" class="graph" transform="scale(1 1) rotate(0) translate(4 888.4)">
<title>%3</title>
<polygon fill="white" stroke="transparent" points="-4,4 -4,-888.4 484.9,-888.4 484.9,4 -4,4"/>
<!-- ready -->
<g id="node1" class="node">
<title>ready</title>
<polygon fill="yellow" stroke="black" points="178.4,-884.4 135.4,-884.4 135.4,-866.4 178.4,-866.4 178.4,-884.4"/>
<text text-anchor="middle" x="156.9" y="-873.2" font-family="Times,serif" font-size="9.00">ready</text>
</g>
<!-- key 17031
bias &#45;1.000
h_scaling 1.000 -->
<g id="node4" class="node">
<title>key 17031
bias &#45;1.000
h_scaling 1.000</title>
<ellipse fill="white" stroke="black" cx="299.9" cy="-583.48" rx="63.78" ry="63.78"/>
<text text-anchor="middle" x="299.9" y="-591.28" font-family="Times,serif" font-size="9.00">key 17031</text>
<text text-anchor="middle" x="299.9" y="-581.28" font-family="Times,serif" font-size="9.00">bias &#45;1.000</text>
<text text-anchor="middle" x="299.9" y="-571.28" font-family="Times,serif" font-size="9.00">h_scaling 1.000</text>
</g>
<!-- ready&#45;&gt;key 17031
bias &#45;1.000
h_scaling 1.000 -->
<g id="edge17" class="edge">
<title>ready&#45;&gt;key 17031
bias &#45;1.000
h_scaling 1.000</title>
<path fill="none" stroke="blue" stroke-width="0.52" d="M178.62,-871.19C206.17,-865.88 252.87,-852.45 275.9,-820.4 294.13,-795.03 299.18,-716.87 300.27,-657.39"/>
<polygon fill="blue" stroke="blue" stroke-width="0.52" points="303.77,-657.33 300.42,-647.27 296.77,-657.22 303.77,-657.33"/>
<text text-anchor="middle" x="314.4" y="-754.56" font-family="Times,serif" font-size="9.00">&#45;0.140</text>
</g>
<!-- key 25045
bias &#45;0.765
h_scaling 1.000 -->
<g id="node5" class="node">
<title>key 25045
bias &#45;0.765
h_scaling 1.000</title>
<ellipse fill="white" stroke="black" cx="64.9" cy="-410.2" rx="63.78" ry="63.78"/>
<text text-anchor="middle" x="64.9" y="-418" font-family="Times,serif" font-size="9.00">key 25045</text>
<text text-anchor="middle" x="64.9" y="-408" font-family="Times,serif" font-size="9.00">bias &#45;0.765</text>
<text text-anchor="middle" x="64.9" y="-398" font-family="Times,serif" font-size="9.00">h_scaling 1.000</text>
</g>
<!-- ready&#45;&gt;key 25045
bias &#45;0.765
h_scaling 1.000 -->
<g id="edge16" class="edge">
<title>ready&#45;&gt;key 25045
bias &#45;0.765
h_scaling 1.000</title>
<path fill="none" stroke="blue" stroke-width="1.25" d="M138.15,-866.38C120.69,-857.79 95.63,-842.37 83.9,-820.4 26.98,-713.72 37.29,-568.25 50.63,-482.57"/>
<polygon fill="blue" stroke="blue" stroke-width="1.25" points="54.09,-483.11 52.22,-472.68 47.18,-481.99 54.09,-483.11"/>
<text text-anchor="middle" x="59.4" y="-667.92" font-family="Times,serif" font-size="9.00">&#45;0.385</text>
</g>
<!-- key 1048
bias &#45;0.274
h_scaling 1.000 -->
<g id="node6" class="node">
<title>key 1048
bias &#45;0.274
h_scaling 1.000</title>
<ellipse fill="white" stroke="black" cx="156.9" cy="-756.76" rx="63.78" ry="63.78"/>
<text text-anchor="middle" x="156.9" y="-764.56" font-family="Times,serif" font-size="9.00">key 1048</text>
<text text-anchor="middle" x="156.9" y="-754.56" font-family="Times,serif" font-size="9.00">bias &#45;0.274</text>
<text text-anchor="middle" x="156.9" y="-744.56" font-family="Times,serif" font-size="9.00">h_scaling 1.000</text>
</g>
<!-- ready&#45;&gt;key 1048
bias &#45;0.274
h_scaling 1.000 -->
<g id="edge2" class="edge">
<title>ready&#45;&gt;key 1048
bias &#45;0.274
h_scaling 1.000</title>
<path fill="none" stroke="blue" stroke-width="1.1" d="M156.9,-866.38C156.9,-858.35 156.9,-845.13 156.9,-830.63"/>
<polygon fill="blue" stroke="blue" stroke-width="1.1" points="160.4,-830.43 156.9,-820.43 153.4,-830.43 160.4,-830.43"/>
<text text-anchor="middle" x="172.4" y="-841.2" font-family="Times,serif" font-size="9.00">&#45;0.334</text>
</g>
<!-- go -->
<g id="node2" class="node">
<title>go</title>
<polygon fill="green" stroke="black" points="392.9,-884.4 364.9,-884.4 364.9,-866.4 392.9,-866.4 392.9,-884.4"/>
<text text-anchor="middle" x="378.9" y="-873.2" font-family="Times,serif" font-size="9.00">go</text>
</g>
<!-- go&#45;&gt;key 17031
bias &#45;1.000
h_scaling 1.000 -->
<g id="edge11" class="edge">
<title>go&#45;&gt;key 17031
bias &#45;1.000
h_scaling 1.000</title>
<path fill="none" stroke="red" stroke-width="1.44" d="M377.43,-866.36C372.65,-840.8 356.86,-759.18 337.9,-693.12 334.13,-679.98 329.66,-666.11 325.14,-652.83"/>
<polygon fill="red" stroke="red" stroke-width="1.44" points="328.42,-651.6 321.85,-643.29 321.8,-653.88 328.42,-651.6"/>
<text text-anchor="middle" x="381.9" y="-754.56" font-family="Times,serif" font-size="9.00">0.446</text>
</g>
<!-- go&#45;&gt;key 25045
bias &#45;0.765
h_scaling 1.000 -->
<g id="edge10" class="edge">
<title>go&#45;&gt;key 25045
bias &#45;0.765
h_scaling 1.000</title>
<path fill="none" stroke="red" stroke-width="3.03" d="M383.6,-866.24C407.21,-824.11 508.25,-628.82 418.9,-519.84 352.81,-439.22 287.44,-507.87 188.9,-473.84 168.72,-466.87 147.67,-457.23 128.77,-447.6"/>
<polygon fill="red" stroke="red" stroke-width="3.03" points="130.16,-444.38 119.67,-442.89 126.94,-450.6 130.16,-444.38"/>
<text text-anchor="middle" x="466.9" y="-667.92" font-family="Times,serif" font-size="9.00">0.976</text>
</g>
<!-- go&#45;&gt;key 1048
bias &#45;0.274
h_scaling 1.000 -->
<g id="edge3" class="edge">
<title>go&#45;&gt;key 1048
bias &#45;0.274
h_scaling 1.000</title>
<path fill="none" stroke="red" stroke-width="0.69" d="M364.68,-866.92C336.48,-852.11 271.92,-818.19 222.19,-792.06"/>
<polygon fill="red" stroke="red" stroke-width="0.69" points="223.57,-788.83 213.09,-787.28 220.32,-795.03 223.57,-788.83"/>
<text text-anchor="middle" x="338.9" y="-841.2" font-family="Times,serif" font-size="9.00">0.197</text>
</g>
<!-- output
bias 0.984
h_scaling 1.000 -->
<g id="node3" class="node">
<title>output
bias 0.984
h_scaling 1.000</title>
<ellipse fill="lightblue" stroke="black" cx="187.9" cy="-63.64" rx="63.78" ry="63.78"/>
<text text-anchor="middle" x="187.9" y="-71.44" font-family="Times,serif" font-size="9.00">output</text>
<text text-anchor="middle" x="187.9" y="-61.44" font-family="Times,serif" font-size="9.00">bias 0.984</text>
<text text-anchor="middle" x="187.9" y="-51.44" font-family="Times,serif" font-size="9.00">h_scaling 1.000</text>
</g>
<!-- key 17031
bias &#45;1.000
h_scaling 1.000&#45;&gt;output
bias 0.984
h_scaling 1.000 -->
<g id="edge5" class="edge">
<title>key 17031
bias &#45;1.000
h_scaling 1.000&#45;&gt;output
bias 0.984
h_scaling 1.000</title>
<path fill="none" stroke="blue" stroke-width="2.6" d="M294.32,-519.74C285.5,-433.75 265.08,-275.13 224.9,-145.28 223.4,-140.44 221.68,-135.51 219.81,-130.59"/>
<polygon fill="blue" stroke="blue" stroke-width="2.6" points="223.02,-129.18 216.07,-121.19 216.52,-131.77 223.02,-129.18"/>
<text text-anchor="middle" x="282.4" y="-321.36" font-family="Times,serif" font-size="9.00">&#45;0.835</text>
</g>
<!-- key 17031
bias &#45;1.000
h_scaling 1.000&#45;&gt;key 17031
bias &#45;1.000
h_scaling 1.000 -->
<g id="edge6" class="edge">
<title>key 17031
bias &#45;1.000
h_scaling 1.000&#45;&gt;key 17031
bias &#45;1.000
h_scaling 1.000</title>
<path fill="none" stroke="red" stroke-width="2.21" d="M361.85,-598.77C373.4,-596.89 381.54,-591.79 381.54,-583.48 381.54,-577.76 377.69,-573.56 371.53,-570.89"/>
<polygon fill="red" stroke="red" stroke-width="2.21" points="372.42,-567.5 361.85,-568.18 370.53,-574.24 372.42,-567.5"/>
<text text-anchor="middle" x="395.54" y="-581.28" font-family="Times,serif" font-size="9.00">0.703</text>
</g>
<!-- key 17031
bias &#45;1.000
h_scaling 1.000&#45;&gt;key 25045
bias &#45;0.765
h_scaling 1.000 -->
<g id="edge8" class="edge">
<title>key 17031
bias &#45;1.000
h_scaling 1.000&#45;&gt;key 25045
bias &#45;0.765
h_scaling 1.000</title>
<path fill="none" stroke="red" stroke-width="2.93" d="M248.91,-545.31C212.39,-518.69 163.09,-482.76 124.71,-454.79"/>
<polygon fill="red" stroke="red" stroke-width="2.93" points="126.34,-451.65 116.2,-448.59 122.22,-457.3 126.34,-451.65"/>
<text text-anchor="middle" x="195.9" y="-494.64" font-family="Times,serif" font-size="9.00">0.942</text>
</g>
<!-- key 25045
bias &#45;0.765
h_scaling 1.000&#45;&gt;output
bias 0.984
h_scaling 1.000 -->
<g id="edge9" class="edge">
<title>key 25045
bias &#45;0.765
h_scaling 1.000&#45;&gt;output
bias 0.984
h_scaling 1.000</title>
<path fill="none" stroke="blue" stroke-width="3.1" d="M33.03,-354.53C8.46,-304.58 -16.5,-230.07 14.9,-173.28 36.89,-133.51 80.21,-106.33 118,-89.11"/>
<polygon fill="blue" stroke="blue" stroke-width="3.1" points="119.73,-92.17 127.47,-84.94 116.91,-85.76 119.73,-92.17"/>
<text text-anchor="middle" x="30.4" y="-234.72" font-family="Times,serif" font-size="9.00">&#45;1.000</text>
</g>
<!-- key 25045
bias &#45;0.765
h_scaling 1.000&#45;&gt;key 25045
bias &#45;0.765
h_scaling 1.000 -->
<g id="edge14" class="edge">
<title>key 25045
bias &#45;0.765
h_scaling 1.000&#45;&gt;key 25045
bias &#45;0.765
h_scaling 1.000</title>
<path fill="none" stroke="red" stroke-width="2.04" d="M126.85,-425.5C138.4,-423.61 146.54,-418.51 146.54,-410.2 146.54,-404.48 142.69,-400.29 136.53,-397.61"/>
<polygon fill="red" stroke="red" stroke-width="2.04" points="137.42,-394.22 126.85,-394.9 135.53,-400.96 137.42,-394.22"/>
<text text-anchor="middle" x="160.54" y="-408" font-family="Times,serif" font-size="9.00">0.645</text>
</g>
<!-- key 77215
bias &#45;0.545
h_scaling 1.000 -->
<g id="node7" class="node">
<title>key 77215
bias &#45;0.545
h_scaling 1.000</title>
<ellipse fill="white" stroke="black" cx="118.9" cy="-236.92" rx="63.78" ry="63.78"/>
<text text-anchor="middle" x="118.9" y="-244.72" font-family="Times,serif" font-size="9.00">key 77215</text>
<text text-anchor="middle" x="118.9" y="-234.72" font-family="Times,serif" font-size="9.00">bias &#45;0.545</text>
<text text-anchor="middle" x="118.9" y="-224.72" font-family="Times,serif" font-size="9.00">h_scaling 1.000</text>
</g>
<!-- key 25045
bias &#45;0.765
h_scaling 1.000&#45;&gt;key 77215
bias &#45;0.545
h_scaling 1.000 -->
<g id="edge12" class="edge">
<title>key 25045
bias &#45;0.765
h_scaling 1.000&#45;&gt;key 77215
bias &#45;0.545
h_scaling 1.000</title>
<path fill="none" stroke="red" stroke-width="3.09" d="M83.79,-349.29C88.02,-335.86 92.55,-321.5 96.9,-307.71"/>
<polygon fill="red" stroke="red" stroke-width="3.09" points="100.36,-308.38 100.03,-297.79 93.68,-306.27 100.36,-308.38"/>
<text text-anchor="middle" x="105.9" y="-321.36" font-family="Times,serif" font-size="9.00">0.997</text>
</g>
<!-- key 1048
bias &#45;0.274
h_scaling 1.000&#45;&gt;output
bias 0.984
h_scaling 1.000 -->
<g id="edge1" class="edge">
<title>key 1048
bias &#45;0.274
h_scaling 1.000&#45;&gt;output
bias 0.984
h_scaling 1.000</title>
<path fill="none" stroke="blue" stroke-width="2.11" d="M163.77,-693.4C169.83,-636.33 178.54,-549.49 183.9,-473.84 189.36,-396.94 190.12,-377.63 191.9,-300.56 193.21,-244 192.94,-229.84 191.9,-173.28 191.69,-161.63 191.34,-149.29 190.95,-137.26"/>
<polygon fill="blue" stroke="blue" stroke-width="2.11" points="194.44,-137.12 190.6,-127.25 187.45,-137.36 194.44,-137.12"/>
<text text-anchor="middle" x="205.4" y="-408" font-family="Times,serif" font-size="9.00">&#45;0.670</text>
</g>
<!-- key 1048
bias &#45;0.274
h_scaling 1.000&#45;&gt;key 17031
bias &#45;1.000
h_scaling 1.000 -->
<g id="edge4" class="edge">
<title>key 1048
bias &#45;0.274
h_scaling 1.000&#45;&gt;key 17031
bias &#45;1.000
h_scaling 1.000</title>
<path fill="none" stroke="red" stroke-width="3.02" d="M197.5,-707.13C214.78,-686.43 235.05,-662.16 252.97,-640.7"/>
<polygon fill="red" stroke="red" stroke-width="3.02" points="255.73,-642.85 259.45,-632.93 250.36,-638.36 255.73,-642.85"/>
<text text-anchor="middle" x="241.9" y="-667.92" font-family="Times,serif" font-size="9.00">0.973</text>
</g>
<!-- key 1048
bias &#45;0.274
h_scaling 1.000&#45;&gt;key 25045
bias &#45;0.765
h_scaling 1.000 -->
<g id="edge15" class="edge">
<title>key 1048
bias &#45;0.274
h_scaling 1.000&#45;&gt;key 25045
bias &#45;0.765
h_scaling 1.000</title>
<path fill="none" stroke="red" stroke-width="1.12" d="M140.67,-694.95C124.75,-635.35 100.51,-544.56 83.75,-481.8"/>
<polygon fill="red" stroke="red" stroke-width="1.12" points="87.09,-480.73 81.13,-471.98 80.33,-482.54 87.09,-480.73"/>
<text text-anchor="middle" x="140.9" y="-581.28" font-family="Times,serif" font-size="9.00">0.341</text>
</g>
<!-- key 1048
bias &#45;0.274
h_scaling 1.000&#45;&gt;key 1048
bias &#45;0.274
h_scaling 1.000 -->
<g id="edge7" class="edge">
<title>key 1048
bias &#45;0.274
h_scaling 1.000&#45;&gt;key 1048
bias &#45;0.274
h_scaling 1.000</title>
<path fill="none" stroke="red" stroke-width="1.9" d="M218.85,-772.05C230.4,-770.17 238.54,-765.07 238.54,-756.76 238.54,-751.04 234.69,-746.84 228.53,-744.17"/>
<polygon fill="red" stroke="red" stroke-width="1.9" points="229.42,-740.78 218.85,-741.46 227.53,-747.52 229.42,-740.78"/>
<text text-anchor="middle" x="252.54" y="-754.56" font-family="Times,serif" font-size="9.00">0.600</text>
</g>
<!-- key 77215
bias &#45;0.545
h_scaling 1.000&#45;&gt;output
bias 0.984
h_scaling 1.000 -->
<g id="edge13" class="edge">
<title>key 77215
bias &#45;0.545
h_scaling 1.000&#45;&gt;output
bias 0.984
h_scaling 1.000</title>
<path fill="none" stroke="blue" stroke-width="2.72" d="M142.46,-177.45C148.28,-162.98 154.58,-147.36 160.57,-132.49"/>
<polygon fill="blue" stroke="blue" stroke-width="2.72" points="163.97,-133.43 164.46,-122.84 157.47,-130.81 163.97,-133.43"/>
<text text-anchor="middle" x="168.4" y="-148.08" font-family="Times,serif" font-size="9.00">&#45;0.873</text>
</g>
</g>
</svg>
