<?xml version="1.0" encoding="UTF-8" standalone="no"?>
<!DOCTYPE svg PUBLIC "-//W3C//DTD SVG 1.1//EN"
 "http://www.w3.org/Graphics/SVG/1.1/DTD/svg11.dtd">
<!-- Generated by graphviz version 2.43.0 (0)
 -->
<!-- Title: %3 Pages: 1 -->
<svg width="454pt" height="1076pt"
 viewBox="0.00 0.00 454.00 1075.68" xmlns="http://www.w3.org/2000/svg" xmlns:xlink="http://www.w3.org/1999/xlink">
<g id="graph0" class="graph" transform="scale(1 1) rotate(0) translate(4 1071.68)">
<title>%3</title>
<polygon fill="white" stroke="transparent" points="-4,4 -4,-1071.68 450,-1071.68 450,4 -4,4"/>
<!-- ready
output 0.000 -->
<g id="node1" class="node">
<title>ready
output 0.000</title>
<polygon fill="yellow" stroke="black" points="360.5,-1067.68 283.5,-1067.68 283.5,-1039.68 360.5,-1039.68 360.5,-1067.68"/>
<text text-anchor="middle" x="322" y="-1056.48" font-family="Times,serif" font-size="9.00">ready</text>
<text text-anchor="middle" x="322" y="-1046.48" font-family="Times,serif" font-size="9.00">output 0.000</text>
</g>
<!-- key 2545
bias 0.975
h_scaling 0.048
output 0.896 -->
<g id="node5" class="node">
<title>key 2545
bias 0.975
h_scaling 0.048
output 0.896</title>
<ellipse fill="white" stroke="black" cx="146" cy="-930.04" rx="63.78" ry="63.78"/>
<text text-anchor="middle" x="146" y="-942.84" font-family="Times,serif" font-size="9.00">key 2545</text>
<text text-anchor="middle" x="146" y="-932.84" font-family="Times,serif" font-size="9.00">bias 0.975</text>
<text text-anchor="middle" x="146" y="-922.84" font-family="Times,serif" font-size="9.00">h_scaling 0.048</text>
<text text-anchor="middle" x="146" y="-912.84" font-family="Times,serif" font-size="9.00">output 0.896</text>
</g>
<!-- ready
output 0.000&#45;&gt;key 2545
bias 0.975
h_scaling 0.048
output 0.896 -->
<g id="edge7" class="edge">
<title>ready
output 0.000&#45;&gt;key 2545
bias 0.975
h_scaling 0.048
output 0.896</title>
<path fill="none" stroke="red" stroke-width="0.1" d="M298.07,-1039.47C277.88,-1028.05 248.43,-1010.72 224,-993.68 216.94,-988.75 209.68,-983.38 202.58,-977.92"/>
<polygon fill="red" stroke="red" stroke-width="0.1" points="204.37,-974.88 194.32,-971.5 200.07,-980.4 204.37,-974.88"/>
<text text-anchor="middle" x="280" y="-1014.48" font-family="Times,serif" font-size="9.00">0.422</text>
</g>
<!-- key 5117
bias 0.336
h_scaling 0.037
output 0.793 -->
<g id="node7" class="node">
<title>key 5117
bias 0.336
h_scaling 0.037
output 0.793</title>
<ellipse fill="white" stroke="black" cx="269" cy="-756.76" rx="63.78" ry="63.78"/>
<text text-anchor="middle" x="269" y="-769.56" font-family="Times,serif" font-size="9.00">key 5117</text>
<text text-anchor="middle" x="269" y="-759.56" font-family="Times,serif" font-size="9.00">bias 0.336</text>
<text text-anchor="middle" x="269" y="-749.56" font-family="Times,serif" font-size="9.00">h_scaling 0.037</text>
<text text-anchor="middle" x="269" y="-739.56" font-family="Times,serif" font-size="9.00">output 0.793</text>
</g>
<!-- ready
output 0.000&#45;&gt;key 5117
bias 0.336
h_scaling 0.037
output 0.793 -->
<g id="edge9" class="edge">
<title>ready
output 0.000&#45;&gt;key 5117
bias 0.336
h_scaling 0.037
output 0.793</title>
<path fill="none" stroke="blue" stroke-width="0.1" d="M319.65,-1039.62C313.18,-1003.6 294.7,-900.79 281.95,-829.83"/>
<polygon fill="blue" stroke="blue" stroke-width="0.1" points="285.33,-828.83 280.12,-819.61 278.44,-830.07 285.33,-828.83"/>
<text text-anchor="middle" x="326.5" y="-927.84" font-family="Times,serif" font-size="9.00">&#45;0.518</text>
</g>
<!-- key 5758
bias &#45;0.659
h_scaling 1.000
output 0.349 -->
<g id="node8" class="node">
<title>key 5758
bias &#45;0.659
h_scaling 1.000
output 0.349</title>
<ellipse fill="white" stroke="black" cx="240" cy="-410.2" rx="63.78" ry="63.78"/>
<text text-anchor="middle" x="240" y="-423" font-family="Times,serif" font-size="9.00">key 5758</text>
<text text-anchor="middle" x="240" y="-413" font-family="Times,serif" font-size="9.00">bias &#45;0.659</text>
<text text-anchor="middle" x="240" y="-403" font-family="Times,serif" font-size="9.00">h_scaling 1.000</text>
<text text-anchor="middle" x="240" y="-393" font-family="Times,serif" font-size="9.00">output 0.349</text>
</g>
<!-- ready
output 0.000&#45;&gt;key 5758
bias &#45;0.659
h_scaling 1.000
output 0.349 -->
<g id="edge6" class="edge">
<title>ready
output 0.000&#45;&gt;key 5758
bias &#45;0.659
h_scaling 1.000
output 0.349</title>
<path fill="none" stroke="blue" stroke-width="0.1" d="M341.72,-1039.53C369.02,-1019.58 415,-978.89 415,-931.04 415,-931.04 415,-931.04 415,-582.48 415,-519.31 356.05,-471.77 306.58,-443"/>
<polygon fill="blue" stroke="blue" stroke-width="0.1" points="308.21,-439.9 297.79,-438.02 304.76,-445.99 308.21,-439.9"/>
<text text-anchor="middle" x="430.5" y="-754.56" font-family="Times,serif" font-size="9.00">&#45;0.944</text>
</g>
<!-- go
output 0.000 -->
<g id="node2" class="node">
<title>go
output 0.000</title>
<polygon fill="green" stroke="black" points="252.5,-1067.68 175.5,-1067.68 175.5,-1039.68 252.5,-1039.68 252.5,-1067.68"/>
<text text-anchor="middle" x="214" y="-1056.48" font-family="Times,serif" font-size="9.00">go</text>
<text text-anchor="middle" x="214" y="-1046.48" font-family="Times,serif" font-size="9.00">output 0.000</text>
</g>
<!-- go
output 0.000&#45;&gt;key 2545
bias 0.975
h_scaling 0.048
output 0.896 -->
<g id="edge3" class="edge">
<title>go
output 0.000&#45;&gt;key 2545
bias 0.975
h_scaling 0.048
output 0.896</title>
<path fill="none" stroke="blue" stroke-width="0.1" d="M206.72,-1039.66C200.54,-1028.59 191.16,-1011.83 181.62,-994.76"/>
<polygon fill="blue" stroke="blue" stroke-width="0.1" points="184.57,-992.85 176.63,-985.83 178.46,-996.26 184.57,-992.85"/>
<text text-anchor="middle" x="210.5" y="-1014.48" font-family="Times,serif" font-size="9.00">&#45;0.755</text>
</g>
<!-- go
output 0.000&#45;&gt;key 5117
bias 0.336
h_scaling 0.037
output 0.793 -->
<g id="edge5" class="edge">
<title>go
output 0.000&#45;&gt;key 5117
bias 0.336
h_scaling 0.037
output 0.793</title>
<path fill="none" stroke="red" stroke-width="0.1" d="M222.02,-1039.51C224.95,-1034.15 228.03,-1027.79 230,-1021.68 241.12,-987.15 253.23,-896.09 260.96,-830.59"/>
<polygon fill="red" stroke="red" stroke-width="0.1" points="264.48,-830.64 262.16,-820.31 257.52,-829.83 264.48,-830.64"/>
<text text-anchor="middle" x="270" y="-927.84" font-family="Times,serif" font-size="9.00">1.006</text>
</g>
<!-- output
bias 0.505
h_scaling 0.000
output 0.032 -->
<g id="node3" class="node">
<title>output
bias 0.505
h_scaling 0.000
output 0.032</title>
<ellipse fill="lightblue" stroke="black" cx="159" cy="-583.48" rx="63.78" ry="63.78"/>
<text text-anchor="middle" x="159" y="-596.28" font-family="Times,serif" font-size="9.00">output</text>
<text text-anchor="middle" x="159" y="-586.28" font-family="Times,serif" font-size="9.00">bias 0.505</text>
<text text-anchor="middle" x="159" y="-576.28" font-family="Times,serif" font-size="9.00">h_scaling 0.000</text>
<text text-anchor="middle" x="159" y="-566.28" font-family="Times,serif" font-size="9.00">output 0.032</text>
</g>
<!-- output
bias 0.505
h_scaling 0.000
output 0.032&#45;&gt;key 2545
bias 0.975
h_scaling 0.048
output 0.896 -->
<g id="edge8" class="edge">
<title>output
bias 0.505
h_scaling 0.000
output 0.032&#45;&gt;key 2545
bias 0.975
h_scaling 0.048
output 0.896</title>
<path fill="none" stroke="blue" stroke-width="0.1" d="M156.64,-647.13C154.41,-706.02 151.09,-794.13 148.75,-856.14"/>
<polygon fill="blue" stroke="blue" stroke-width="0.1" points="145.25,-856.11 148.37,-866.24 152.24,-856.38 145.25,-856.11"/>
<text text-anchor="middle" x="170.5" y="-754.56" font-family="Times,serif" font-size="9.00">&#45;0.170</text>
</g>
<!-- key 78069
bias &#45;0.586
h_scaling 0.952
output 0.997 -->
<g id="node6" class="node">
<title>key 78069
bias &#45;0.586
h_scaling 0.952
output 0.997</title>
<ellipse fill="white" stroke="black" cx="265" cy="-236.92" rx="63.78" ry="63.78"/>
<text text-anchor="middle" x="265" y="-249.72" font-family="Times,serif" font-size="9.00">key 78069</text>
<text text-anchor="middle" x="265" y="-239.72" font-family="Times,serif" font-size="9.00">bias &#45;0.586</text>
<text text-anchor="middle" x="265" y="-229.72" font-family="Times,serif" font-size="9.00">h_scaling 0.952</text>
<text text-anchor="middle" x="265" y="-219.72" font-family="Times,serif" font-size="9.00">output 0.997</text>
</g>
<!-- output
bias 0.505
h_scaling 0.000
output 0.032&#45;&gt;key 78069
bias &#45;0.586
h_scaling 0.952
output 0.997 -->
<g id="edge17" class="edge">
<title>output
bias 0.505
h_scaling 0.000
output 0.032&#45;&gt;key 78069
bias &#45;0.586
h_scaling 0.952
output 0.997</title>
<path fill="none" stroke="red" stroke-width="0.1" d="M137.88,-523.24C123.85,-473.62 112.41,-402.19 139,-346.56 153.04,-317.19 171.27,-321.73 196,-300.56 200.84,-296.42 205.82,-292.06 210.79,-287.67"/>
<polygon fill="red" stroke="red" stroke-width="0.1" points="213.42,-290.01 218.56,-280.75 208.77,-284.78 213.42,-290.01"/>
<text text-anchor="middle" x="153" y="-408" font-family="Times,serif" font-size="9.00">0.203</text>
</g>
<!-- output
bias 0.505
h_scaling 0.000
output 0.032&#45;&gt;key 5758
bias &#45;0.659
h_scaling 1.000
output 0.349 -->
<g id="edge20" class="edge">
<title>output
bias 0.505
h_scaling 0.000
output 0.032&#45;&gt;key 5758
bias &#45;0.659
h_scaling 1.000
output 0.349</title>
<path fill="none" stroke="red" stroke-width="0.1" d="M185.97,-525.44C193.28,-509.99 201.26,-493.13 208.78,-477.22"/>
<polygon fill="red" stroke="red" stroke-width="0.1" points="212.03,-478.52 213.15,-467.98 205.71,-475.53 212.03,-478.52"/>
<text text-anchor="middle" x="213" y="-494.64" font-family="Times,serif" font-size="9.00">0.182</text>
</g>
<!-- key 73157
bias &#45;0.268
h_scaling 0.304
output 0.338 -->
<g id="node4" class="node">
<title>key 73157
bias &#45;0.268
h_scaling 0.304
output 0.338</title>
<ellipse fill="white" stroke="black" cx="155" cy="-63.64" rx="63.78" ry="63.78"/>
<text text-anchor="middle" x="155" y="-76.44" font-family="Times,serif" font-size="9.00">key 73157</text>
<text text-anchor="middle" x="155" y="-66.44" font-family="Times,serif" font-size="9.00">bias &#45;0.268</text>
<text text-anchor="middle" x="155" y="-56.44" font-family="Times,serif" font-size="9.00">h_scaling 0.304</text>
<text text-anchor="middle" x="155" y="-46.44" font-family="Times,serif" font-size="9.00">output 0.338</text>
</g>
<!-- key 73157
bias &#45;0.268
h_scaling 0.304
output 0.338&#45;&gt;output
bias 0.505
h_scaling 0.000
output 0.032 -->
<g id="edge18" class="edge">
<title>key 73157
bias &#45;0.268
h_scaling 0.304
output 0.338&#45;&gt;output
bias 0.505
h_scaling 0.000
output 0.032</title>
<path fill="none" stroke="blue" stroke-width="0.1" d="M140.86,-125.89C124.33,-206.11 101.37,-351.01 119,-473.84 120.99,-487.69 124.85,-502.03 129.43,-515.59"/>
<polygon fill="blue" stroke="blue" stroke-width="0.1" points="126.23,-517.04 132.86,-525.3 132.82,-514.7 126.23,-517.04"/>
<text text-anchor="middle" x="130.5" y="-321.36" font-family="Times,serif" font-size="9.00">&#45;0.164</text>
</g>
<!-- key 73157
bias &#45;0.268
h_scaling 0.304
output 0.338&#45;&gt;key 78069
bias &#45;0.586
h_scaling 0.952
output 0.997 -->
<g id="edge21" class="edge">
<title>key 73157
bias &#45;0.268
h_scaling 0.304
output 0.338&#45;&gt;key 78069
bias &#45;0.586
h_scaling 0.952
output 0.997</title>
<path fill="none" stroke="red" stroke-width="0.1" d="M203.37,-105.25C215.32,-117.16 227.2,-130.89 236,-145.28 239.79,-151.48 243.14,-158.23 246.08,-165.15"/>
<polygon fill="red" stroke="red" stroke-width="0.1" points="242.91,-166.65 249.84,-174.67 249.42,-164.08 242.91,-166.65"/>
<text text-anchor="middle" x="255" y="-148.08" font-family="Times,serif" font-size="9.00">0.375</text>
</g>
<!-- key 73157
bias &#45;0.268
h_scaling 0.304
output 0.338&#45;&gt;key 5758
bias &#45;0.659
h_scaling 1.000
output 0.349 -->
<g id="edge12" class="edge">
<title>key 73157
bias &#45;0.268
h_scaling 0.304
output 0.338&#45;&gt;key 5758
bias &#45;0.659
h_scaling 1.000
output 0.349</title>
<path fill="none" stroke="red" stroke-width="0.1" d="M147.96,-126.96C144.69,-175.55 145,-244.03 164,-300.56 170.28,-319.23 180.85,-337.56 192.15,-353.69"/>
<polygon fill="red" stroke="red" stroke-width="0.1" points="189.4,-355.87 198.1,-361.91 195.07,-351.76 189.4,-355.87"/>
<text text-anchor="middle" x="178" y="-234.72" font-family="Times,serif" font-size="9.00">0.759</text>
</g>
<!-- key 2545
bias 0.975
h_scaling 0.048
output 0.896&#45;&gt;output
bias 0.505
h_scaling 0.000
output 0.032 -->
<g id="edge10" class="edge">
<title>key 2545
bias 0.975
h_scaling 0.048
output 0.896&#45;&gt;output
bias 0.505
h_scaling 0.000
output 0.032</title>
<path fill="none" stroke="red" stroke-width="0.1" d="M128.29,-868.9C124.44,-853.25 120.95,-836.31 119,-820.4 112.13,-764.25 109.07,-748.81 119,-693.12 121.44,-679.42 125.48,-665.19 130.09,-651.72"/>
<polygon fill="red" stroke="red" stroke-width="0.1" points="133.47,-652.66 133.52,-642.06 126.87,-650.31 133.47,-652.66"/>
<text text-anchor="middle" x="133" y="-754.56" font-family="Times,serif" font-size="9.00">0.438</text>
</g>
<!-- key 2545
bias 0.975
h_scaling 0.048
output 0.896&#45;&gt;key 73157
bias &#45;0.268
h_scaling 0.304
output 0.338 -->
<g id="edge11" class="edge">
<title>key 2545
bias 0.975
h_scaling 0.048
output 0.896&#45;&gt;key 73157
bias &#45;0.268
h_scaling 0.304
output 0.338</title>
<path fill="none" stroke="blue" stroke-width="0.1" d="M92.05,-895.71C50.46,-865.42 0,-816.56 0,-757.76 0,-757.76 0,-757.76 0,-235.92 0,-178.39 48.66,-131.56 91.45,-101.5"/>
<polygon fill="blue" stroke="blue" stroke-width="0.1" points="93.64,-104.24 99.92,-95.71 89.69,-98.46 93.64,-104.24"/>
<text text-anchor="middle" x="15.5" y="-494.64" font-family="Times,serif" font-size="9.00">&#45;0.285</text>
</g>
<!-- key 2545
bias 0.975
h_scaling 0.048
output 0.896&#45;&gt;key 5117
bias 0.336
h_scaling 0.037
output 0.793 -->
<g id="edge1" class="edge">
<title>key 2545
bias 0.975
h_scaling 0.048
output 0.896&#45;&gt;key 5117
bias 0.336
h_scaling 0.037
output 0.793</title>
<path fill="none" stroke="blue" stroke-width="0.1" d="M177.23,-874.47C184.67,-862.36 192.84,-849.76 201,-838.4 207.07,-829.94 213.8,-821.27 220.59,-812.89"/>
<polygon fill="blue" stroke="blue" stroke-width="0.1" points="223.46,-814.91 227.11,-804.96 218.06,-810.46 223.46,-814.91"/>
<text text-anchor="middle" x="216.5" y="-841.2" font-family="Times,serif" font-size="9.00">&#45;0.858</text>
</g>
<!-- key 78069
bias &#45;0.586
h_scaling 0.952
output 0.997&#45;&gt;key 73157
bias &#45;0.268
h_scaling 0.304
output 0.338 -->
<g id="edge15" class="edge">
<title>key 78069
bias &#45;0.586
h_scaling 0.952
output 0.997&#45;&gt;key 73157
bias &#45;0.268
h_scaling 0.304
output 0.338</title>
<path fill="none" stroke="red" stroke-width="0.1" d="M227.84,-184.75C221.09,-175.06 214.22,-164.94 208,-155.28 202.46,-146.69 196.81,-137.51 191.36,-128.41"/>
<polygon fill="red" stroke="red" stroke-width="0.1" points="194.32,-126.55 186.2,-119.74 188.3,-130.13 194.32,-126.55"/>
<text text-anchor="middle" x="222" y="-148.08" font-family="Times,serif" font-size="9.00">0.877</text>
</g>
<!-- key 78069
bias &#45;0.586
h_scaling 0.952
output 0.997&#45;&gt;key 2545
bias 0.975
h_scaling 0.048
output 0.896 -->
<g id="edge14" class="edge">
<title>key 78069
bias &#45;0.586
h_scaling 0.952
output 0.997&#45;&gt;key 2545
bias 0.975
h_scaling 0.048
output 0.896</title>
<path fill="none" stroke="blue" stroke-width="0.1" d="M220.52,-282.58C212.72,-289.12 204.41,-295.39 196,-300.56 176.95,-312.28 167.97,-306.71 149,-318.56 133.53,-328.22 129.85,-331.9 119,-346.56 75.05,-405.91 46,-421.98 46,-495.84 46,-757.76 46,-757.76 46,-757.76 46,-801.56 70.7,-844.13 95.54,-875.87"/>
<polygon fill="blue" stroke="blue" stroke-width="0.1" points="92.85,-878.11 101.85,-883.7 98.3,-873.71 92.85,-878.11"/>
<text text-anchor="middle" x="61.5" y="-581.28" font-family="Times,serif" font-size="9.00">&#45;0.493</text>
</g>
<!-- key 78069
bias &#45;0.586
h_scaling 0.952
output 0.997&#45;&gt;key 5758
bias &#45;0.659
h_scaling 1.000
output 0.349 -->
<g id="edge19" class="edge">
<title>key 78069
bias &#45;0.586
h_scaling 0.952
output 0.997&#45;&gt;key 5758
bias &#45;0.659
h_scaling 1.000
output 0.349</title>
<path fill="none" stroke="red" stroke-width="0.1" d="M232.4,-292.06C228.52,-300.66 225.18,-309.67 223,-318.56 221.39,-325.14 220.77,-332.02 220.87,-338.93"/>
<polygon fill="red" stroke="red" stroke-width="0.1" points="217.39,-339.26 221.49,-349.03 224.37,-338.83 217.39,-339.26"/>
<text text-anchor="middle" x="237" y="-321.36" font-family="Times,serif" font-size="9.00">0.555</text>
</g>
<!-- key 5117
bias 0.336
h_scaling 0.037
output 0.793&#45;&gt;output
bias 0.505
h_scaling 0.000
output 0.032 -->
<g id="edge2" class="edge">
<title>key 5117
bias 0.336
h_scaling 0.037
output 0.793&#45;&gt;output
bias 0.505
h_scaling 0.000
output 0.032</title>
<path fill="none" stroke="blue" stroke-width="0.1" d="M234.8,-702.5C223.31,-684.61 210.4,-664.52 198.54,-646.04"/>
<polygon fill="blue" stroke="blue" stroke-width="0.1" points="201.34,-643.93 192.99,-637.4 195.45,-647.71 201.34,-643.93"/>
<text text-anchor="middle" x="229.5" y="-667.92" font-family="Times,serif" font-size="9.00">&#45;1.000</text>
</g>
<!-- key 5117
bias 0.336
h_scaling 0.037
output 0.793&#45;&gt;key 78069
bias &#45;0.586
h_scaling 0.952
output 0.997 -->
<g id="edge16" class="edge">
<title>key 5117
bias 0.336
h_scaling 0.037
output 0.793&#45;&gt;key 78069
bias &#45;0.586
h_scaling 0.952
output 0.997</title>
<path fill="none" stroke="red" stroke-width="0.1" d="M287.18,-695.53C308.78,-615.2 338.82,-468.9 313,-346.56 309.92,-331.97 304.75,-316.95 298.92,-302.92"/>
<polygon fill="red" stroke="red" stroke-width="0.1" points="301.97,-301.16 294.79,-293.37 295.55,-303.94 301.97,-301.16"/>
<text text-anchor="middle" x="335" y="-494.64" font-family="Times,serif" font-size="9.00">0.656</text>
</g>
<!-- key 5117
bias 0.336
h_scaling 0.037
output 0.793&#45;&gt;key 5117
bias 0.336
h_scaling 0.037
output 0.793 -->
<g id="edge4" class="edge">
<title>key 5117
bias 0.336
h_scaling 0.037
output 0.793&#45;&gt;key 5117
bias 0.336
h_scaling 0.037
output 0.793</title>
<path fill="none" stroke="red" stroke-width="0.1" d="M330.94,-772.05C342.5,-770.17 350.64,-765.07 350.64,-756.76 350.64,-751.04 346.79,-746.84 340.63,-744.17"/>
<polygon fill="red" stroke="red" stroke-width="0.1" points="341.52,-740.78 330.94,-741.46 339.63,-747.52 341.52,-740.78"/>
<text text-anchor="middle" x="364.64" y="-754.56" font-family="Times,serif" font-size="9.00">0.640</text>
</g>
<!-- key 5758
bias &#45;0.659
h_scaling 1.000
output 0.349&#45;&gt;key 78069
bias &#45;0.586
h_scaling 0.952
output 0.997 -->
<g id="edge13" class="edge">
<title>key 5758
bias &#45;0.659
h_scaling 1.000
output 0.349&#45;&gt;key 78069
bias &#45;0.586
h_scaling 0.952
output 0.997</title>
<path fill="none" stroke="red" stroke-width="0.1" d="M251.94,-347.64C253.04,-341.21 254.08,-334.76 255,-328.56 255.86,-322.74 256.68,-316.7 257.46,-310.63"/>
<polygon fill="red" stroke="red" stroke-width="0.1" points="260.97,-310.76 258.72,-300.41 254.02,-309.9 260.97,-310.76"/>
<text text-anchor="middle" x="270" y="-321.36" font-family="Times,serif" font-size="9.00">1.228</text>
</g>
</g>
</svg>
