<?xml version="1.0" encoding="UTF-8" standalone="no"?>
<!DOCTYPE svg PUBLIC "-//W3C//DTD SVG 1.1//EN"
 "http://www.w3.org/Graphics/SVG/1.1/DTD/svg11.dtd">
<!-- Generated by graphviz version 2.43.0 (0)
 -->
<!-- Title: %3 Pages: 1 -->
<svg width="356pt" height="719pt"
 viewBox="0.00 0.00 356.28 719.12" xmlns="http://www.w3.org/2000/svg" xmlns:xlink="http://www.w3.org/1999/xlink">
<g id="graph0" class="graph" transform="scale(1 1) rotate(0) translate(4 715.12)">
<title>%3</title>
<polygon fill="white" stroke="transparent" points="-4,4 -4,-715.12 352.28,-715.12 352.28,4 -4,4"/>
<!-- ready -->
<g id="node1" class="node">
<title>ready</title>
<polygon fill="yellow" stroke="black" points="145.14,-711.12 102.14,-711.12 102.14,-693.12 145.14,-693.12 145.14,-711.12"/>
<text text-anchor="middle" x="123.64" y="-699.92" font-family="Times,serif" font-size="9.00">ready</text>
</g>
<!-- key 6493
bias &#45;0.642
h_scaling 0.130 -->
<g id="node4" class="node">
<title>key 6493
bias &#45;0.642
h_scaling 0.130</title>
<ellipse fill="white" stroke="black" cx="176.64" cy="-583.48" rx="63.78" ry="63.78"/>
<text text-anchor="middle" x="176.64" y="-591.28" font-family="Times,serif" font-size="9.00">key 6493</text>
<text text-anchor="middle" x="176.64" y="-581.28" font-family="Times,serif" font-size="9.00">bias &#45;0.642</text>
<text text-anchor="middle" x="176.64" y="-571.28" font-family="Times,serif" font-size="9.00">h_scaling 0.130</text>
</g>
<!-- ready&#45;&gt;key 6493
bias &#45;0.642
h_scaling 0.130 -->
<g id="edge12" class="edge">
<title>ready&#45;&gt;key 6493
bias &#45;0.642
h_scaling 0.130</title>
<path fill="none" stroke="blue" stroke-width="2.28" d="M127.28,-693.1C131.45,-683.94 138.68,-668.01 146.35,-651.14"/>
<polygon fill="blue" stroke="blue" stroke-width="2.28" points="149.69,-652.25 150.64,-641.7 143.31,-649.36 149.69,-652.25"/>
<text text-anchor="middle" x="154.14" y="-667.92" font-family="Times,serif" font-size="9.00">&#45;0.725</text>
</g>
<!-- key 8493
bias &#45;0.453
h_scaling 0.406 -->
<g id="node6" class="node">
<title>key 8493
bias &#45;0.453
h_scaling 0.406</title>
<ellipse fill="white" stroke="black" cx="63.64" cy="-236.92" rx="63.78" ry="63.78"/>
<text text-anchor="middle" x="63.64" y="-244.72" font-family="Times,serif" font-size="9.00">key 8493</text>
<text text-anchor="middle" x="63.64" y="-234.72" font-family="Times,serif" font-size="9.00">bias &#45;0.453</text>
<text text-anchor="middle" x="63.64" y="-224.72" font-family="Times,serif" font-size="9.00">h_scaling 0.406</text>
</g>
<!-- ready&#45;&gt;key 8493
bias &#45;0.453
h_scaling 0.406 -->
<g id="edge6" class="edge">
<title>ready&#45;&gt;key 8493
bias &#45;0.453
h_scaling 0.406</title>
<path fill="none" stroke="red" stroke-width="2.4" d="M120.65,-693.07C116.72,-682.52 109.64,-663.44 103.64,-647.12 79.93,-582.61 66.19,-568.79 50.64,-501.84 38.09,-447.84 41.06,-385.5 47.64,-318.56 47.94,-315.53 48.3,-312.45 48.7,-309.34"/>
<polygon fill="red" stroke="red" stroke-width="2.4" points="52.18,-309.77 50.16,-299.37 45.25,-308.76 52.18,-309.77"/>
<text text-anchor="middle" x="64.64" y="-494.64" font-family="Times,serif" font-size="9.00">0.768</text>
</g>
<!-- go -->
<g id="node2" class="node">
<title>go</title>
<polygon fill="green" stroke="black" points="243.64,-711.12 215.64,-711.12 215.64,-693.12 243.64,-693.12 243.64,-711.12"/>
<text text-anchor="middle" x="229.64" y="-699.92" font-family="Times,serif" font-size="9.00">go</text>
</g>
<!-- go&#45;&gt;key 6493
bias &#45;0.642
h_scaling 0.130 -->
<g id="edge10" class="edge">
<title>go&#45;&gt;key 6493
bias &#45;0.642
h_scaling 0.130</title>
<path fill="none" stroke="red" stroke-width="3.09" d="M226,-693.1C221.83,-683.94 214.6,-668.01 206.93,-651.14"/>
<polygon fill="red" stroke="red" stroke-width="3.09" points="209.97,-649.36 202.64,-641.7 203.59,-652.25 209.97,-649.36"/>
<text text-anchor="middle" x="230.64" y="-667.92" font-family="Times,serif" font-size="9.00">0.996</text>
</g>
<!-- key 100
bias &#45;0.383
h_scaling 0.636 -->
<g id="node5" class="node">
<title>key 100
bias &#45;0.383
h_scaling 0.636</title>
<ellipse fill="white" stroke="black" cx="238.64" cy="-63.64" rx="63.78" ry="63.78"/>
<text text-anchor="middle" x="238.64" y="-71.44" font-family="Times,serif" font-size="9.00">key 100</text>
<text text-anchor="middle" x="238.64" y="-61.44" font-family="Times,serif" font-size="9.00">bias &#45;0.383</text>
<text text-anchor="middle" x="238.64" y="-51.44" font-family="Times,serif" font-size="9.00">h_scaling 0.636</text>
</g>
<!-- go&#45;&gt;key 100
bias &#45;0.383
h_scaling 0.636 -->
<g id="edge4" class="edge">
<title>go&#45;&gt;key 100
bias &#45;0.383
h_scaling 0.636</title>
<path fill="none" stroke="red" stroke-width="3.06" d="M243.85,-693.03C258.85,-683.78 282.14,-667.3 295.64,-647.12 311.82,-622.94 314.64,-613.57 314.64,-584.48 314.64,-584.48 314.64,-584.48 314.64,-235.92 314.64,-196.67 297.76,-156.37 279.91,-124.73"/>
<polygon fill="red" stroke="red" stroke-width="3.06" points="282.91,-122.93 274.86,-116.04 276.86,-126.45 282.91,-122.93"/>
<text text-anchor="middle" x="328.64" y="-408" font-family="Times,serif" font-size="9.00">0.987</text>
</g>
<!-- output
bias 0.561
h_scaling 0.332 -->
<g id="node3" class="node">
<title>output
bias 0.561
h_scaling 0.332</title>
<ellipse fill="lightblue" stroke="black" cx="176.64" cy="-410.2" rx="63.78" ry="63.78"/>
<text text-anchor="middle" x="176.64" y="-418" font-family="Times,serif" font-size="9.00">output</text>
<text text-anchor="middle" x="176.64" y="-408" font-family="Times,serif" font-size="9.00">bias 0.561</text>
<text text-anchor="middle" x="176.64" y="-398" font-family="Times,serif" font-size="9.00">h_scaling 0.332</text>
</g>
<!-- output
bias 0.561
h_scaling 0.332&#45;&gt;key 8493
bias &#45;0.453
h_scaling 0.406 -->
<g id="edge9" class="edge">
<title>output
bias 0.561
h_scaling 0.332&#45;&gt;key 8493
bias &#45;0.453
h_scaling 0.406</title>
<path fill="none" stroke="blue" stroke-width="0.43" d="M141.81,-356.41C129.84,-338.26 116.33,-317.78 103.95,-299.02"/>
<polygon fill="blue" stroke="blue" stroke-width="0.43" points="106.78,-296.95 98.35,-290.53 100.94,-300.81 106.78,-296.95"/>
<text text-anchor="middle" x="135.14" y="-321.36" font-family="Times,serif" font-size="9.00">&#45;0.111</text>
</g>
<!-- key 6493
bias &#45;0.642
h_scaling 0.130&#45;&gt;output
bias 0.561
h_scaling 0.332 -->
<g id="edge3" class="edge">
<title>key 6493
bias &#45;0.642
h_scaling 0.130&#45;&gt;output
bias 0.561
h_scaling 0.332</title>
<path fill="none" stroke="blue" stroke-width="3.09" d="M176.64,-519.67C176.64,-508.15 176.64,-496.04 176.64,-484.25"/>
<polygon fill="blue" stroke="blue" stroke-width="3.09" points="180.14,-484 176.64,-474 173.14,-484 180.14,-484"/>
<text text-anchor="middle" x="192.14" y="-494.64" font-family="Times,serif" font-size="9.00">&#45;0.996</text>
</g>
<!-- key 6493
bias &#45;0.642
h_scaling 0.130&#45;&gt;key 6493
bias &#45;0.642
h_scaling 0.130 -->
<g id="edge8" class="edge">
<title>key 6493
bias &#45;0.642
h_scaling 0.130&#45;&gt;key 6493
bias &#45;0.642
h_scaling 0.130</title>
<path fill="none" stroke="red" stroke-width="2.97" d="M238.58,-598.77C250.14,-596.89 258.28,-591.79 258.28,-583.48 258.28,-577.76 254.43,-573.56 248.27,-570.89"/>
<polygon fill="red" stroke="red" stroke-width="2.97" points="249.16,-567.5 238.58,-568.18 247.27,-574.24 249.16,-567.5"/>
<text text-anchor="middle" x="272.28" y="-581.28" font-family="Times,serif" font-size="9.00">0.956</text>
</g>
<!-- key 100
bias &#45;0.383
h_scaling 0.636&#45;&gt;output
bias 0.561
h_scaling 0.332 -->
<g id="edge1" class="edge">
<title>key 100
bias &#45;0.383
h_scaling 0.636&#45;&gt;output
bias 0.561
h_scaling 0.332</title>
<path fill="none" stroke="blue" stroke-width="3.1" d="M227.52,-126.43C216.88,-185.55 200.84,-274.7 189.62,-337.05"/>
<polygon fill="blue" stroke="blue" stroke-width="3.1" points="186.12,-336.74 187.8,-347.2 193.01,-337.98 186.12,-336.74"/>
<text text-anchor="middle" x="234.14" y="-234.72" font-family="Times,serif" font-size="9.00">&#45;1.000</text>
</g>
<!-- key 100
bias &#45;0.383
h_scaling 0.636&#45;&gt;key 6493
bias &#45;0.642
h_scaling 0.130 -->
<g id="edge2" class="edge">
<title>key 100
bias &#45;0.383
h_scaling 0.636&#45;&gt;key 6493
bias &#45;0.642
h_scaling 0.130</title>
<path fill="none" stroke="red" stroke-width="2.94" d="M252.55,-126.01C268.31,-207.61 287.27,-355.3 249.64,-473.84 243.87,-492.02 234.03,-509.96 223.42,-525.86"/>
<polygon fill="red" stroke="red" stroke-width="2.94" points="220.27,-524.26 217.46,-534.48 226.03,-528.24 220.27,-524.26"/>
<text text-anchor="middle" x="284.64" y="-321.36" font-family="Times,serif" font-size="9.00">0.945</text>
</g>
<!-- key 100
bias &#45;0.383
h_scaling 0.636&#45;&gt;key 100
bias &#45;0.383
h_scaling 0.636 -->
<g id="edge5" class="edge">
<title>key 100
bias &#45;0.383
h_scaling 0.636&#45;&gt;key 100
bias &#45;0.383
h_scaling 0.636</title>
<path fill="none" stroke="red" stroke-width="2.81" d="M300.58,-78.94C312.14,-77.05 320.28,-71.95 320.28,-63.64 320.28,-57.92 316.43,-53.73 310.27,-51.05"/>
<polygon fill="red" stroke="red" stroke-width="2.81" points="311.16,-47.66 300.58,-48.34 309.27,-54.4 311.16,-47.66"/>
<text text-anchor="middle" x="334.28" y="-61.44" font-family="Times,serif" font-size="9.00">0.904</text>
</g>
<!-- key 8493
bias &#45;0.453
h_scaling 0.406&#45;&gt;key 6493
bias &#45;0.642
h_scaling 0.130 -->
<g id="edge13" class="edge">
<title>key 8493
bias &#45;0.453
h_scaling 0.406&#45;&gt;key 6493
bias &#45;0.642
h_scaling 0.130</title>
<path fill="none" stroke="blue" stroke-width="1.66" d="M54.33,-299.89C49.65,-349.04 49.17,-418.46 72.64,-473.84 82.71,-497.61 100.52,-519.22 118.58,-536.8"/>
<polygon fill="blue" stroke="blue" stroke-width="1.66" points="116.64,-539.78 126.32,-544.08 121.44,-534.68 116.64,-539.78"/>
<text text-anchor="middle" x="88.14" y="-408" font-family="Times,serif" font-size="9.00">&#45;0.519</text>
</g>
<!-- key 8493
bias &#45;0.453
h_scaling 0.406&#45;&gt;key 100
bias &#45;0.383
h_scaling 0.636 -->
<g id="edge7" class="edge">
<title>key 8493
bias &#45;0.453
h_scaling 0.406&#45;&gt;key 100
bias &#45;0.383
h_scaling 0.636</title>
<path fill="none" stroke="blue" stroke-width="1.16" d="M108.71,-191.81C132.4,-168.63 161.56,-140.08 186.25,-115.92"/>
<polygon fill="blue" stroke="blue" stroke-width="1.16" points="188.72,-118.39 193.42,-108.9 183.83,-113.39 188.72,-118.39"/>
<text text-anchor="middle" x="166.14" y="-148.08" font-family="Times,serif" font-size="9.00">&#45;0.352</text>
</g>
<!-- key 8493
bias &#45;0.453
h_scaling 0.406&#45;&gt;key 8493
bias &#45;0.453
h_scaling 0.406 -->
<g id="edge11" class="edge">
<title>key 8493
bias &#45;0.453
h_scaling 0.406&#45;&gt;key 8493
bias &#45;0.453
h_scaling 0.406</title>
<path fill="none" stroke="red" stroke-width="2.44" d="M125.58,-252.22C137.14,-250.33 145.28,-245.23 145.28,-236.92 145.28,-231.2 141.43,-227.01 135.27,-224.33"/>
<polygon fill="red" stroke="red" stroke-width="2.44" points="136.16,-220.94 125.58,-221.62 134.27,-227.68 136.16,-220.94"/>
<text text-anchor="middle" x="159.28" y="-234.72" font-family="Times,serif" font-size="9.00">0.780</text>
</g>
</g>
</svg>
