<?xml version="1.0" encoding="UTF-8" standalone="no"?>
<!DOCTYPE svg PUBLIC "-//W3C//DTD SVG 1.1//EN"
 "http://www.w3.org/Graphics/SVG/1.1/DTD/svg11.dtd">
<!-- Generated by graphviz version 2.43.0 (0)
 -->
<!-- Title: %3 Pages: 1 -->
<svg width="408pt" height="679pt"
 viewBox="0.00 0.00 407.62 679.12" xmlns="http://www.w3.org/2000/svg" xmlns:xlink="http://www.w3.org/1999/xlink">
<g id="graph0" class="graph" transform="scale(1 1) rotate(0) translate(4 675.12)">
<title>%3</title>
<polygon fill="white" stroke="transparent" points="-4,4 -4,-675.12 403.62,-675.12 403.62,4 -4,4"/>
<!-- ready -->
<g id="node1" class="node">
<title>ready</title>
<polygon fill="yellow" stroke="black" points="43,-671.12 0,-671.12 0,-653.12 43,-653.12 43,-671.12"/>
<text text-anchor="middle" x="21.5" y="-659.92" font-family="Times,serif" font-size="9.00">ready</text>
</g>
<!-- key 7184
bias &#45;0.116
h_scaling 0.962 -->
<g id="node4" class="node">
<title>key 7184
bias &#45;0.116
h_scaling 0.962</title>
<ellipse fill="white" stroke="black" cx="113.5" cy="-553.48" rx="63.78" ry="63.78"/>
<text text-anchor="middle" x="113.5" y="-561.28" font-family="Times,serif" font-size="9.00">key 7184</text>
<text text-anchor="middle" x="113.5" y="-551.28" font-family="Times,serif" font-size="9.00">bias &#45;0.116</text>
<text text-anchor="middle" x="113.5" y="-541.28" font-family="Times,serif" font-size="9.00">h_scaling 0.962</text>
</g>
<!-- ready&#45;&gt;key 7184
bias &#45;0.116
h_scaling 0.962 -->
<g id="edge4" class="edge">
<title>ready&#45;&gt;key 7184
bias &#45;0.116
h_scaling 0.962</title>
<path fill="none" stroke="blue" stroke-width="0.81" d="M28.41,-653.1C36.6,-643.61 50.99,-626.93 65.63,-609.96"/>
<polygon fill="blue" stroke="blue" stroke-width="0.81" points="68.47,-612.03 72.35,-602.17 63.17,-607.46 68.47,-612.03"/>
</g>
<!-- key 18515
bias &#45;0.440
h_scaling 0.396 -->
<g id="node5" class="node">
<title>key 18515
bias &#45;0.440
h_scaling 0.396</title>
<ellipse fill="white" stroke="black" cx="205.5" cy="-226.92" rx="63.78" ry="63.78"/>
<text text-anchor="middle" x="205.5" y="-234.72" font-family="Times,serif" font-size="9.00">key 18515</text>
<text text-anchor="middle" x="205.5" y="-224.72" font-family="Times,serif" font-size="9.00">bias &#45;0.440</text>
<text text-anchor="middle" x="205.5" y="-214.72" font-family="Times,serif" font-size="9.00">h_scaling 0.396</text>
</g>
<!-- ready&#45;&gt;key 18515
bias &#45;0.440
h_scaling 0.396 -->
<g id="edge5" class="edge">
<title>ready&#45;&gt;key 18515
bias &#45;0.440
h_scaling 0.396</title>
<path fill="none" stroke="red" stroke-width="1.01" d="M21.19,-653C20.5,-627.96 20.22,-549.93 40.5,-489.84 66.55,-412.66 119.59,-335.06 158.53,-284.59"/>
<polygon fill="red" stroke="red" stroke-width="1.01" points="161.51,-286.46 164.89,-276.42 155.99,-282.16 161.51,-286.46"/>
</g>
<!-- key 117952
bias 0.037
h_scaling 0.241 -->
<g id="node6" class="node">
<title>key 117952
bias 0.037
h_scaling 0.241</title>
<ellipse fill="white" stroke="black" cx="205.5" cy="-63.64" rx="63.78" ry="63.78"/>
<text text-anchor="middle" x="205.5" y="-71.44" font-family="Times,serif" font-size="9.00">key 117952</text>
<text text-anchor="middle" x="205.5" y="-61.44" font-family="Times,serif" font-size="9.00">bias 0.037</text>
<text text-anchor="middle" x="205.5" y="-51.44" font-family="Times,serif" font-size="9.00">h_scaling 0.241</text>
</g>
<!-- ready&#45;&gt;key 117952
bias 0.037
h_scaling 0.241 -->
<g id="edge13" class="edge">
<title>ready&#45;&gt;key 117952
bias 0.037
h_scaling 0.241</title>
<path fill="none" stroke="red" stroke-width="1.21" d="M20.56,-652.89C17.89,-628.14 10.89,-552.25 17.5,-489.84 33.28,-340.92 22.06,-290.85 100.5,-163.28 112.77,-143.32 130.11,-124.77 147.18,-109.26"/>
<polygon fill="red" stroke="red" stroke-width="1.21" points="149.81,-111.6 154.98,-102.35 145.17,-106.36 149.81,-111.6"/>
</g>
<!-- go -->
<g id="node2" class="node">
<title>go</title>
<polygon fill="green" stroke="black" points="237.5,-671.12 209.5,-671.12 209.5,-653.12 237.5,-653.12 237.5,-671.12"/>
<text text-anchor="middle" x="223.5" y="-659.92" font-family="Times,serif" font-size="9.00">go</text>
</g>
<!-- go&#45;&gt;key 7184
bias &#45;0.116
h_scaling 0.962 -->
<g id="edge2" class="edge">
<title>go&#45;&gt;key 7184
bias &#45;0.116
h_scaling 0.962</title>
<path fill="none" stroke="red" stroke-width="2.99" d="M215.23,-653.1C204.55,-642.75 185.07,-623.86 165.99,-605.36"/>
<polygon fill="red" stroke="red" stroke-width="2.99" points="168.33,-602.75 158.71,-598.31 163.45,-607.78 168.33,-602.75"/>
</g>
<!-- go&#45;&gt;key 18515
bias &#45;0.440
h_scaling 0.396 -->
<g id="edge9" class="edge">
<title>go&#45;&gt;key 18515
bias &#45;0.440
h_scaling 0.396</title>
<path fill="none" stroke="blue" stroke-width="0.74" d="M223.16,-652.85C221.37,-609.97 213.09,-410.69 208.53,-300.93"/>
<polygon fill="blue" stroke="blue" stroke-width="0.74" points="212.03,-300.76 208.12,-290.92 205.04,-301.05 212.03,-300.76"/>
</g>
<!-- go&#45;&gt;key 117952
bias 0.037
h_scaling 0.241 -->
<g id="edge14" class="edge">
<title>go&#45;&gt;key 117952
bias 0.037
h_scaling 0.241</title>
<path fill="none" stroke="blue" stroke-width="3.08" d="M233.6,-653.01C264.29,-627.63 356.34,-545.89 388.5,-453.84 407.16,-400.44 397.96,-382.33 388.5,-326.56 375.65,-250.78 376.24,-225.78 331.5,-163.28 314.65,-139.74 290.64,-119.02 268.09,-102.73"/>
<polygon fill="blue" stroke="blue" stroke-width="3.08" points="270.06,-99.83 259.87,-96.92 266.02,-105.55 270.06,-99.83"/>
</g>
<!-- output
bias &#45;0.204
h_scaling 0.938 -->
<g id="node3" class="node">
<title>output
bias &#45;0.204
h_scaling 0.938</title>
<ellipse fill="lightblue" stroke="black" cx="315.5" cy="-390.2" rx="63.78" ry="63.78"/>
<text text-anchor="middle" x="315.5" y="-398" font-family="Times,serif" font-size="9.00">output</text>
<text text-anchor="middle" x="315.5" y="-388" font-family="Times,serif" font-size="9.00">bias &#45;0.204</text>
<text text-anchor="middle" x="315.5" y="-378" font-family="Times,serif" font-size="9.00">h_scaling 0.938</text>
</g>
<!-- output
bias &#45;0.204
h_scaling 0.938&#45;&gt;key 18515
bias &#45;0.440
h_scaling 0.396 -->
<g id="edge8" class="edge">
<title>output
bias &#45;0.204
h_scaling 0.938&#45;&gt;key 18515
bias &#45;0.440
h_scaling 0.396</title>
<path fill="none" stroke="blue" stroke-width="0.42" d="M280.09,-337.28C269.45,-321.68 257.68,-304.42 246.69,-288.32"/>
<polygon fill="blue" stroke="blue" stroke-width="0.42" points="249.56,-286.3 241.03,-280.02 243.78,-290.25 249.56,-286.3"/>
</g>
<!-- output
bias &#45;0.204
h_scaling 0.938&#45;&gt;key 117952
bias 0.037
h_scaling 0.241 -->
<g id="edge16" class="edge">
<title>output
bias &#45;0.204
h_scaling 0.938&#45;&gt;key 117952
bias 0.037
h_scaling 0.241</title>
<path fill="none" stroke="blue" stroke-width="0.88" d="M313.48,-326.12C313.44,-279.25 310.17,-214.8 287.5,-163.28 280.14,-146.54 268.74,-130.8 256.73,-117.01"/>
<polygon fill="blue" stroke="blue" stroke-width="0.88" points="259.31,-114.65 250.01,-109.56 254.11,-119.33 259.31,-114.65"/>
</g>
<!-- key 7184
bias &#45;0.116
h_scaling 0.962&#45;&gt;output
bias &#45;0.204
h_scaling 0.938 -->
<g id="edge1" class="edge">
<title>key 7184
bias &#45;0.116
h_scaling 0.962&#45;&gt;output
bias &#45;0.204
h_scaling 0.938</title>
<path fill="none" stroke="blue" stroke-width="3.1" d="M162.91,-513.02C191.76,-490 228.27,-460.84 258.35,-436.83"/>
<polygon fill="blue" stroke="blue" stroke-width="3.1" points="260.61,-439.5 266.25,-430.52 256.25,-434.03 260.61,-439.5"/>
</g>
<!-- key 7184
bias &#45;0.116
h_scaling 0.962&#45;&gt;key 7184
bias &#45;0.116
h_scaling 0.962 -->
<g id="edge3" class="edge">
<title>key 7184
bias &#45;0.116
h_scaling 0.962&#45;&gt;key 7184
bias &#45;0.116
h_scaling 0.962</title>
<path fill="none" stroke="red" stroke-width="2.62" d="M174.38,-572.89C186.5,-570.71 195.14,-564.24 195.14,-553.48 195.14,-545.91 190.87,-540.47 184.12,-537.14"/>
<polygon fill="red" stroke="red" stroke-width="2.62" points="184.97,-533.74 174.38,-534.06 182.86,-540.42 184.97,-533.74"/>
</g>
<!-- key 7184
bias &#45;0.116
h_scaling 0.962&#45;&gt;key 117952
bias 0.037
h_scaling 0.241 -->
<g id="edge11" class="edge">
<title>key 7184
bias &#45;0.116
h_scaling 0.962&#45;&gt;key 117952
bias 0.037
h_scaling 0.241</title>
<path fill="none" stroke="blue" stroke-width="3.1" d="M99.61,-491.37C89.32,-412.89 84.09,-273.66 123.5,-163.28 129.73,-145.84 140.14,-128.88 151.53,-114.07"/>
<polygon fill="blue" stroke="blue" stroke-width="3.1" points="154.41,-116.07 157.94,-106.08 148.95,-111.69 154.41,-116.07"/>
</g>
<!-- key 18515
bias &#45;0.440
h_scaling 0.396&#45;&gt;key 7184
bias &#45;0.116
h_scaling 0.962 -->
<g id="edge6" class="edge">
<title>key 18515
bias &#45;0.440
h_scaling 0.396&#45;&gt;key 7184
bias &#45;0.116
h_scaling 0.962</title>
<path fill="none" stroke="blue" stroke-width="1.89" d="M188.39,-288.29C172.83,-343.17 149.86,-424.19 133.47,-482.02"/>
<polygon fill="blue" stroke="blue" stroke-width="1.89" points="130.06,-481.24 130.7,-491.81 136.79,-483.14 130.06,-481.24"/>
</g>
<!-- key 18515
bias &#45;0.440
h_scaling 0.396&#45;&gt;key 18515
bias &#45;0.440
h_scaling 0.396 -->
<g id="edge7" class="edge">
<title>key 18515
bias &#45;0.440
h_scaling 0.396&#45;&gt;key 18515
bias &#45;0.440
h_scaling 0.396</title>
<path fill="none" stroke="red" stroke-width="2.76" d="M261.97,-256.93C276.35,-254.96 287.14,-244.95 287.14,-226.92 287.14,-213.25 280.94,-204.2 271.68,-199.75"/>
<polygon fill="red" stroke="red" stroke-width="2.76" points="272.55,-196.36 261.97,-196.91 270.58,-203.08 272.55,-196.36"/>
</g>
<!-- key 18515
bias &#45;0.440
h_scaling 0.396&#45;&gt;key 117952
bias 0.037
h_scaling 0.241 -->
<g id="edge15" class="edge">
<title>key 18515
bias &#45;0.440
h_scaling 0.396&#45;&gt;key 117952
bias 0.037
h_scaling 0.241</title>
<path fill="none" stroke="red" stroke-width="1.55" d="M205.5,-163.1C205.5,-154.65 205.5,-145.92 205.5,-137.31"/>
<polygon fill="red" stroke="red" stroke-width="1.55" points="209,-137.28 205.5,-127.28 202,-137.28 209,-137.28"/>
</g>
<!-- key 117952
bias 0.037
h_scaling 0.241&#45;&gt;output
bias &#45;0.204
h_scaling 0.938 -->
<g id="edge10" class="edge">
<title>key 117952
bias 0.037
h_scaling 0.241&#45;&gt;output
bias &#45;0.204
h_scaling 0.938</title>
<path fill="none" stroke="red" stroke-width="3.1" d="M257.76,-100.49C276.26,-117.53 294.99,-139.39 305.5,-163.28 326.8,-211.68 330.97,-271.49 328.83,-317.42"/>
<polygon fill="red" stroke="red" stroke-width="3.1" points="325.33,-317.4 328.24,-327.59 332.32,-317.81 325.33,-317.4"/>
</g>
<!-- key 117952
bias 0.037
h_scaling 0.241&#45;&gt;key 7184
bias &#45;0.116
h_scaling 0.962 -->
<g id="edge17" class="edge">
<title>key 117952
bias 0.037
h_scaling 0.241&#45;&gt;key 7184
bias &#45;0.116
h_scaling 0.962</title>
<path fill="none" stroke="blue" stroke-width="0.18" d="M167.94,-115.31C157.56,-129.82 147.55,-146.33 141.5,-163.28 103.98,-268.37 106.92,-399.61 111.35,-479.67"/>
<polygon fill="blue" stroke="blue" stroke-width="0.18" points="107.86,-479.88 111.93,-489.66 114.85,-479.48 107.86,-479.88"/>
</g>
<!-- key 117952
bias 0.037
h_scaling 0.241&#45;&gt;key 117952
bias 0.037
h_scaling 0.241 -->
<g id="edge12" class="edge">
<title>key 117952
bias 0.037
h_scaling 0.241&#45;&gt;key 117952
bias 0.037
h_scaling 0.241</title>
<path fill="none" stroke="red" stroke-width="2.14" d="M261.97,-93.65C276.35,-91.68 287.14,-81.67 287.14,-63.64 287.14,-49.97 280.94,-40.92 271.68,-36.47"/>
<polygon fill="red" stroke="red" stroke-width="2.14" points="272.55,-33.08 261.97,-33.63 270.58,-39.8 272.55,-33.08"/>
</g>
</g>
</svg>
