<?xml version="1.0" encoding="UTF-8" standalone="no"?>
<!DOCTYPE svg PUBLIC "-//W3C//DTD SVG 1.1//EN"
 "http://www.w3.org/Graphics/SVG/1.1/DTD/svg11.dtd">
<!-- Generated by graphviz version 2.43.0 (0)
 -->
<!-- Title: %3 Pages: 1 -->
<svg width="452pt" height="902pt"
 viewBox="0.00 0.00 452.28 902.40" xmlns="http://www.w3.org/2000/svg" xmlns:xlink="http://www.w3.org/1999/xlink">
<g id="graph0" class="graph" transform="scale(1 1) rotate(0) translate(4 898.4)">
<title>%3</title>
<polygon fill="white" stroke="transparent" points="-4,4 -4,-898.4 448.28,-898.4 448.28,4 -4,4"/>
<!-- ready
output 0.000 -->
<g id="node1" class="node">
<title>ready
output 0.000</title>
<polygon fill="yellow" stroke="black" points="365.14,-894.4 288.14,-894.4 288.14,-866.4 365.14,-866.4 365.14,-894.4"/>
<text text-anchor="middle" x="326.64" y="-883.2" font-family="Times,serif" font-size="9.00">ready</text>
<text text-anchor="middle" x="326.64" y="-873.2" font-family="Times,serif" font-size="9.00">output 0.000</text>
</g>
<!-- key 19954
bias 0.126
h_scaling 0.400
output 0.580 -->
<g id="node4" class="node">
<title>key 19954
bias 0.126
h_scaling 0.400
output 0.580</title>
<ellipse fill="white" stroke="black" cx="63.64" cy="-756.76" rx="63.78" ry="63.78"/>
<text text-anchor="middle" x="63.64" y="-769.56" font-family="Times,serif" font-size="9.00">key 19954</text>
<text text-anchor="middle" x="63.64" y="-759.56" font-family="Times,serif" font-size="9.00">bias 0.126</text>
<text text-anchor="middle" x="63.64" y="-749.56" font-family="Times,serif" font-size="9.00">h_scaling 0.400</text>
<text text-anchor="middle" x="63.64" y="-739.56" font-family="Times,serif" font-size="9.00">output 0.580</text>
</g>
<!-- ready
output 0.000&#45;&gt;key 19954
bias 0.126
h_scaling 0.400
output 0.580 -->
<g id="edge7" class="edge">
<title>ready
output 0.000&#45;&gt;key 19954
bias 0.126
h_scaling 0.400
output 0.580</title>
<path fill="none" stroke="blue" stroke-width="0.1" d="M298.49,-866.38C258.66,-847.95 184.64,-813.72 130.31,-788.59"/>
<polygon fill="blue" stroke="blue" stroke-width="0.1" points="131.64,-785.35 121.09,-784.33 128.7,-791.7 131.64,-785.35"/>
<text text-anchor="middle" x="271.14" y="-841.2" font-family="Times,serif" font-size="9.00">&#45;0.386</text>
</g>
<!-- key 5145
bias &#45;0.007
h_scaling 0.205
output 0.142 -->
<g id="node6" class="node">
<title>key 5145
bias &#45;0.007
h_scaling 0.205
output 0.142</title>
<ellipse fill="white" stroke="black" cx="291.64" cy="-583.48" rx="63.78" ry="63.78"/>
<text text-anchor="middle" x="291.64" y="-596.28" font-family="Times,serif" font-size="9.00">key 5145</text>
<text text-anchor="middle" x="291.64" y="-586.28" font-family="Times,serif" font-size="9.00">bias &#45;0.007</text>
<text text-anchor="middle" x="291.64" y="-576.28" font-family="Times,serif" font-size="9.00">h_scaling 0.205</text>
<text text-anchor="middle" x="291.64" y="-566.28" font-family="Times,serif" font-size="9.00">output 0.142</text>
</g>
<!-- ready
output 0.000&#45;&gt;key 5145
bias &#45;0.007
h_scaling 0.205
output 0.142 -->
<g id="edge8" class="edge">
<title>ready
output 0.000&#45;&gt;key 5145
bias &#45;0.007
h_scaling 0.205
output 0.142</title>
<path fill="none" stroke="red" stroke-width="0.1" d="M325.09,-866.34C320.83,-830.43 308.69,-728.12 300.27,-657.18"/>
<polygon fill="red" stroke="red" stroke-width="0.1" points="303.71,-656.47 299.05,-646.96 296.76,-657.3 303.71,-656.47"/>
<text text-anchor="middle" x="332.64" y="-754.56" font-family="Times,serif" font-size="9.00">0.320</text>
</g>
<!-- key 3164
bias &#45;0.576
h_scaling 0.909
output 0.124 -->
<g id="node7" class="node">
<title>key 3164
bias &#45;0.576
h_scaling 0.909
output 0.124</title>
<ellipse fill="white" stroke="black" cx="334.64" cy="-410.2" rx="63.78" ry="63.78"/>
<text text-anchor="middle" x="334.64" y="-423" font-family="Times,serif" font-size="9.00">key 3164</text>
<text text-anchor="middle" x="334.64" y="-413" font-family="Times,serif" font-size="9.00">bias &#45;0.576</text>
<text text-anchor="middle" x="334.64" y="-403" font-family="Times,serif" font-size="9.00">h_scaling 0.909</text>
<text text-anchor="middle" x="334.64" y="-393" font-family="Times,serif" font-size="9.00">output 0.124</text>
</g>
<!-- ready
output 0.000&#45;&gt;key 3164
bias &#45;0.576
h_scaling 0.909
output 0.124 -->
<g id="edge15" class="edge">
<title>ready
output 0.000&#45;&gt;key 3164
bias &#45;0.576
h_scaling 0.909
output 0.124</title>
<path fill="none" stroke="red" stroke-width="0.1" d="M333.38,-866.19C339.02,-854.48 346.75,-836.75 350.64,-820.4 381.58,-690.3 382.6,-652.35 364.64,-519.84 362.9,-507.01 360.06,-493.56 356.8,-480.67"/>
<polygon fill="red" stroke="red" stroke-width="0.1" points="360.17,-479.71 354.24,-470.93 353.4,-481.5 360.17,-479.71"/>
<text text-anchor="middle" x="389.64" y="-667.92" font-family="Times,serif" font-size="9.00">0.378</text>
</g>
<!-- go
output 0.000 -->
<g id="node2" class="node">
<title>go
output 0.000</title>
<polygon fill="green" stroke="black" points="240.14,-894.4 163.14,-894.4 163.14,-866.4 240.14,-866.4 240.14,-894.4"/>
<text text-anchor="middle" x="201.64" y="-883.2" font-family="Times,serif" font-size="9.00">go</text>
<text text-anchor="middle" x="201.64" y="-873.2" font-family="Times,serif" font-size="9.00">output 0.000</text>
</g>
<!-- go
output 0.000&#45;&gt;key 19954
bias 0.126
h_scaling 0.400
output 0.580 -->
<g id="edge10" class="edge">
<title>go
output 0.000&#45;&gt;key 19954
bias 0.126
h_scaling 0.400
output 0.580</title>
<path fill="none" stroke="red" stroke-width="0.1" d="M182.87,-866.29C175.48,-860.93 167.01,-854.56 159.64,-848.4 145.1,-836.24 129.93,-822.48 116.07,-809.42"/>
<polygon fill="red" stroke="red" stroke-width="0.1" points="118.17,-806.6 108.51,-802.25 113.36,-811.67 118.17,-806.6"/>
<text text-anchor="middle" x="173.64" y="-841.2" font-family="Times,serif" font-size="9.00">0.241</text>
</g>
<!-- go
output 0.000&#45;&gt;key 5145
bias &#45;0.007
h_scaling 0.205
output 0.142 -->
<g id="edge5" class="edge">
<title>go
output 0.000&#45;&gt;key 5145
bias &#45;0.007
h_scaling 0.205
output 0.142</title>
<path fill="none" stroke="blue" stroke-width="0.1" d="M208.06,-866.3C210.6,-860.83 213.44,-854.38 215.64,-848.4 239.26,-784.15 260.29,-708.96 274.2,-655.31"/>
<polygon fill="blue" stroke="blue" stroke-width="0.1" points="277.61,-656.1 276.72,-645.55 270.84,-654.36 277.61,-656.1"/>
<text text-anchor="middle" x="279.14" y="-754.56" font-family="Times,serif" font-size="9.00">&#45;0.986</text>
</g>
<!-- go
output 0.000&#45;&gt;key 3164
bias &#45;0.576
h_scaling 0.909
output 0.124 -->
<g id="edge4" class="edge">
<title>go
output 0.000&#45;&gt;key 3164
bias &#45;0.576
h_scaling 0.909
output 0.124</title>
<path fill="none" stroke="blue" stroke-width="0.1" d="M198.88,-866.16C189.35,-817.29 161.51,-643.52 218.64,-519.84 220.54,-515.72 251.04,-487.22 280.28,-460.45"/>
<polygon fill="blue" stroke="blue" stroke-width="0.1" points="282.65,-463.03 287.67,-453.7 277.93,-457.86 282.65,-463.03"/>
<text text-anchor="middle" x="201.14" y="-667.92" font-family="Times,serif" font-size="9.00">&#45;0.919</text>
</g>
<!-- output
bias &#45;0.896
h_scaling 0.091
output 0.002 -->
<g id="node3" class="node">
<title>output
bias &#45;0.896
h_scaling 0.091
output 0.002</title>
<ellipse fill="lightblue" stroke="black" cx="190.64" cy="-236.92" rx="63.78" ry="63.78"/>
<text text-anchor="middle" x="190.64" y="-249.72" font-family="Times,serif" font-size="9.00">output</text>
<text text-anchor="middle" x="190.64" y="-239.72" font-family="Times,serif" font-size="9.00">bias &#45;0.896</text>
<text text-anchor="middle" x="190.64" y="-229.72" font-family="Times,serif" font-size="9.00">h_scaling 0.091</text>
<text text-anchor="middle" x="190.64" y="-219.72" font-family="Times,serif" font-size="9.00">output 0.002</text>
</g>
<!-- key 82003
bias 0.650
h_scaling 0.358
output 0.974 -->
<g id="node5" class="node">
<title>key 82003
bias 0.650
h_scaling 0.358
output 0.974</title>
<ellipse fill="white" stroke="black" cx="71.64" cy="-63.64" rx="63.78" ry="63.78"/>
<text text-anchor="middle" x="71.64" y="-76.44" font-family="Times,serif" font-size="9.00">key 82003</text>
<text text-anchor="middle" x="71.64" y="-66.44" font-family="Times,serif" font-size="9.00">bias 0.650</text>
<text text-anchor="middle" x="71.64" y="-56.44" font-family="Times,serif" font-size="9.00">h_scaling 0.358</text>
<text text-anchor="middle" x="71.64" y="-46.44" font-family="Times,serif" font-size="9.00">output 0.974</text>
</g>
<!-- output
bias &#45;0.896
h_scaling 0.091
output 0.002&#45;&gt;key 82003
bias 0.650
h_scaling 0.358
output 0.974 -->
<g id="edge13" class="edge">
<title>output
bias &#45;0.896
h_scaling 0.091
output 0.002&#45;&gt;key 82003
bias 0.650
h_scaling 0.358
output 0.974</title>
<path fill="none" stroke="blue" stroke-width="0.1" d="M154.61,-184.06C141.62,-165.37 126.85,-144.11 113.41,-124.77"/>
<polygon fill="blue" stroke="blue" stroke-width="0.1" points="116.12,-122.53 107.54,-116.32 110.38,-126.53 116.12,-122.53"/>
<text text-anchor="middle" x="147.14" y="-148.08" font-family="Times,serif" font-size="9.00">&#45;0.584</text>
</g>
<!-- key 19954
bias 0.126
h_scaling 0.400
output 0.580&#45;&gt;output
bias &#45;0.896
h_scaling 0.091
output 0.002 -->
<g id="edge17" class="edge">
<title>key 19954
bias 0.126
h_scaling 0.400
output 0.580&#45;&gt;output
bias &#45;0.896
h_scaling 0.091
output 0.002</title>
<path fill="none" stroke="blue" stroke-width="0.1" d="M78.58,-694.83C102.22,-598.45 148.12,-411.28 173.22,-308.95"/>
<polygon fill="blue" stroke="blue" stroke-width="0.1" points="176.67,-309.56 175.66,-299.01 169.87,-307.89 176.67,-309.56"/>
<text text-anchor="middle" x="143.14" y="-494.64" font-family="Times,serif" font-size="9.00">&#45;0.974</text>
</g>
<!-- key 19954
bias 0.126
h_scaling 0.400
output 0.580&#45;&gt;key 19954
bias 0.126
h_scaling 0.400
output 0.580 -->
<g id="edge11" class="edge">
<title>key 19954
bias 0.126
h_scaling 0.400
output 0.580&#45;&gt;key 19954
bias 0.126
h_scaling 0.400
output 0.580</title>
<path fill="none" stroke="red" stroke-width="0.1" d="M125.58,-772.05C137.14,-770.17 145.28,-765.07 145.28,-756.76 145.28,-751.04 141.43,-746.84 135.27,-744.17"/>
<polygon fill="red" stroke="red" stroke-width="0.1" points="136.16,-740.78 125.58,-741.46 134.27,-747.52 136.16,-740.78"/>
<text text-anchor="middle" x="159.28" y="-754.56" font-family="Times,serif" font-size="9.00">0.769</text>
</g>
<!-- key 19954
bias 0.126
h_scaling 0.400
output 0.580&#45;&gt;key 5145
bias &#45;0.007
h_scaling 0.205
output 0.142 -->
<g id="edge6" class="edge">
<title>key 19954
bias 0.126
h_scaling 0.400
output 0.580&#45;&gt;key 5145
bias &#45;0.007
h_scaling 0.205
output 0.142</title>
<path fill="none" stroke="blue" stroke-width="0.1" d="M103.94,-707.38C117.32,-692.85 132.86,-677.5 148.64,-665.12 172.1,-646.7 200.28,-629.87 225.39,-616.4"/>
<polygon fill="blue" stroke="blue" stroke-width="0.1" points="227.29,-619.36 234.49,-611.59 224.02,-613.17 227.29,-619.36"/>
<text text-anchor="middle" x="164.14" y="-667.92" font-family="Times,serif" font-size="9.00">&#45;0.762</text>
</g>
<!-- key 82003
bias 0.650
h_scaling 0.358
output 0.974&#45;&gt;key 19954
bias 0.126
h_scaling 0.400
output 0.580 -->
<g id="edge12" class="edge">
<title>key 82003
bias 0.650
h_scaling 0.358
output 0.974&#45;&gt;key 19954
bias 0.126
h_scaling 0.400
output 0.580</title>
<path fill="none" stroke="blue" stroke-width="0.1" d="M63.03,-126.75C59.24,-159.21 55.64,-199.63 55.64,-235.92 55.64,-584.48 55.64,-584.48 55.64,-584.48 55.64,-616.84 57.08,-652.6 58.74,-683.04"/>
<polygon fill="blue" stroke="blue" stroke-width="0.1" points="55.25,-683.36 59.31,-693.15 62.24,-682.97 55.25,-683.36"/>
<text text-anchor="middle" x="71.14" y="-408" font-family="Times,serif" font-size="9.00">&#45;0.512</text>
</g>
<!-- key 82003
bias 0.650
h_scaling 0.358
output 0.974&#45;&gt;key 82003
bias 0.650
h_scaling 0.358
output 0.974 -->
<g id="edge16" class="edge">
<title>key 82003
bias 0.650
h_scaling 0.358
output 0.974&#45;&gt;key 82003
bias 0.650
h_scaling 0.358
output 0.974</title>
<path fill="none" stroke="red" stroke-width="0.1" d="M133.58,-78.94C145.14,-77.05 153.28,-71.95 153.28,-63.64 153.28,-57.92 149.43,-53.73 143.27,-51.05"/>
<polygon fill="red" stroke="red" stroke-width="0.1" points="144.16,-47.66 133.58,-48.34 142.27,-54.4 144.16,-47.66"/>
<text text-anchor="middle" x="167.28" y="-61.44" font-family="Times,serif" font-size="9.00">0.339</text>
</g>
<!-- key 5145
bias &#45;0.007
h_scaling 0.205
output 0.142&#45;&gt;output
bias &#45;0.896
h_scaling 0.091
output 0.002 -->
<g id="edge14" class="edge">
<title>key 5145
bias &#45;0.007
h_scaling 0.205
output 0.142&#45;&gt;output
bias &#45;0.896
h_scaling 0.091
output 0.002</title>
<path fill="none" stroke="red" stroke-width="0.1" d="M258.7,-528.71C249.42,-511.67 240.11,-492.41 233.64,-473.84 215.13,-420.73 204.18,-357.98 197.97,-310.55"/>
<polygon fill="red" stroke="red" stroke-width="0.1" points="201.41,-309.84 196.68,-300.37 194.46,-310.73 201.41,-309.84"/>
<text text-anchor="middle" x="247.64" y="-408" font-family="Times,serif" font-size="9.00">0.878</text>
</g>
<!-- key 5145
bias &#45;0.007
h_scaling 0.205
output 0.142&#45;&gt;key 3164
bias &#45;0.576
h_scaling 0.909
output 0.124 -->
<g id="edge3" class="edge">
<title>key 5145
bias &#45;0.007
h_scaling 0.205
output 0.142&#45;&gt;key 3164
bias &#45;0.576
h_scaling 0.909
output 0.124</title>
<path fill="none" stroke="red" stroke-width="0.1" d="M310.14,-522.3C312.08,-515.42 313.95,-508.49 315.64,-501.84 317.19,-495.7 318.72,-489.31 320.19,-482.88"/>
<polygon fill="red" stroke="red" stroke-width="0.1" points="323.68,-483.31 322.44,-472.79 316.85,-481.78 323.68,-483.31"/>
<text text-anchor="middle" x="331.64" y="-494.64" font-family="Times,serif" font-size="9.00">0.964</text>
</g>
<!-- key 3164
bias &#45;0.576
h_scaling 0.909
output 0.124&#45;&gt;output
bias &#45;0.896
h_scaling 0.091
output 0.002 -->
<g id="edge1" class="edge">
<title>key 3164
bias &#45;0.576
h_scaling 0.909
output 0.124&#45;&gt;output
bias &#45;0.896
h_scaling 0.091
output 0.002</title>
<path fill="none" stroke="red" stroke-width="0.1" d="M294.14,-361.03C276.66,-340.23 256.09,-315.76 237.91,-294.14"/>
<polygon fill="red" stroke="red" stroke-width="0.1" points="240.44,-291.72 231.33,-286.32 235.09,-296.22 240.44,-291.72"/>
<text text-anchor="middle" x="276.64" y="-321.36" font-family="Times,serif" font-size="9.00">0.968</text>
</g>
<!-- key 3164
bias &#45;0.576
h_scaling 0.909
output 0.124&#45;&gt;key 5145
bias &#45;0.007
h_scaling 0.205
output 0.142 -->
<g id="edge2" class="edge">
<title>key 3164
bias &#45;0.576
h_scaling 0.909
output 0.124&#45;&gt;key 5145
bias &#45;0.007
h_scaling 0.205
output 0.142</title>
<path fill="none" stroke="red" stroke-width="0.1" d="M299.09,-463.23C294.37,-472.41 290.26,-482.14 287.64,-491.84 286.09,-497.59 285.08,-503.61 284.49,-509.71"/>
<polygon fill="red" stroke="red" stroke-width="0.1" points="280.98,-509.81 283.87,-520 287.97,-510.23 280.98,-509.81"/>
<text text-anchor="middle" x="301.64" y="-494.64" font-family="Times,serif" font-size="9.00">0.762</text>
</g>
<!-- key 3164
bias &#45;0.576
h_scaling 0.909
output 0.124&#45;&gt;key 3164
bias &#45;0.576
h_scaling 0.909
output 0.124 -->
<g id="edge9" class="edge">
<title>key 3164
bias &#45;0.576
h_scaling 0.909
output 0.124&#45;&gt;key 3164
bias &#45;0.576
h_scaling 0.909
output 0.124</title>
<path fill="none" stroke="red" stroke-width="0.1" d="M396.58,-425.5C408.14,-423.61 416.28,-418.51 416.28,-410.2 416.28,-404.48 412.43,-400.29 406.27,-397.61"/>
<polygon fill="red" stroke="red" stroke-width="0.1" points="407.16,-394.22 396.58,-394.9 405.27,-400.96 407.16,-394.22"/>
<text text-anchor="middle" x="430.28" y="-408" font-family="Times,serif" font-size="9.00">0.402</text>
</g>
</g>
</svg>
