<?xml version="1.0" encoding="UTF-8" standalone="no"?>
<!DOCTYPE svg PUBLIC "-//W3C//DTD SVG 1.1//EN"
 "http://www.w3.org/Graphics/SVG/1.1/DTD/svg11.dtd">
<!-- Generated by graphviz version 2.43.0 (0)
 -->
<!-- Title: %3 Pages: 1 -->
<svg width="544pt" height="1239pt"
 viewBox="0.00 0.00 544.00 1238.95" xmlns="http://www.w3.org/2000/svg" xmlns:xlink="http://www.w3.org/1999/xlink">
<g id="graph0" class="graph" transform="scale(1 1) rotate(0) translate(4 1234.95)">
<title>%3</title>
<polygon fill="white" stroke="transparent" points="-4,4 -4,-1234.95 540,-1234.95 540,4 -4,4"/>
<!-- ready -->
<g id="node1" class="node">
<title>ready</title>
<polygon fill="yellow" stroke="black" points="396.5,-1230.95 353.5,-1230.95 353.5,-1212.95 396.5,-1212.95 396.5,-1230.95"/>
<text text-anchor="middle" x="375" y="-1219.75" font-family="Times,serif" font-size="9.00">ready</text>
</g>
<!-- key 9490
bias 0.000
h_scaling 0.957 -->
<g id="node6" class="node">
<title>key 9490
bias 0.000
h_scaling 0.957</title>
<ellipse fill="white" stroke="black" cx="213" cy="-1103.31" rx="63.78" ry="63.78"/>
<text text-anchor="middle" x="213" y="-1111.11" font-family="Times,serif" font-size="9.00">key 9490</text>
<text text-anchor="middle" x="213" y="-1101.11" font-family="Times,serif" font-size="9.00">bias 0.000</text>
<text text-anchor="middle" x="213" y="-1091.11" font-family="Times,serif" font-size="9.00">h_scaling 0.957</text>
</g>
<!-- ready&#45;&gt;key 9490
bias 0.000
h_scaling 0.957 -->
<g id="edge6" class="edge">
<title>ready&#45;&gt;key 9490
bias 0.000
h_scaling 0.957</title>
<path fill="none" stroke="blue" stroke-width="0.1" d="M363.87,-1212.94C345.22,-1199.51 306.4,-1171.56 272.81,-1147.38"/>
<polygon fill="blue" stroke="blue" stroke-width="0.1" points="274.56,-1144.33 264.4,-1141.32 270.47,-1150.01 274.56,-1144.33"/>
</g>
<!-- key 37910
bias 0.000
h_scaling 0.584 -->
<g id="node7" class="node">
<title>key 37910
bias 0.000
h_scaling 0.584</title>
<ellipse fill="white" stroke="black" cx="364" cy="-756.76" rx="63.78" ry="63.78"/>
<text text-anchor="middle" x="364" y="-764.56" font-family="Times,serif" font-size="9.00">key 37910</text>
<text text-anchor="middle" x="364" y="-754.56" font-family="Times,serif" font-size="9.00">bias 0.000</text>
<text text-anchor="middle" x="364" y="-744.56" font-family="Times,serif" font-size="9.00">h_scaling 0.584</text>
</g>
<!-- ready&#45;&gt;key 37910
bias 0.000
h_scaling 0.584 -->
<g id="edge16" class="edge">
<title>ready&#45;&gt;key 37910
bias 0.000
h_scaling 0.584</title>
<path fill="none" stroke="red" stroke-width="0.59" d="M380.92,-1212.67C387.8,-1202.49 398.75,-1184.4 403,-1166.95 437.59,-1025.09 435.61,-980.73 403,-838.4 401.78,-833.09 400.17,-827.73 398.29,-822.42"/>
<polygon fill="red" stroke="red" stroke-width="0.59" points="401.51,-821.04 394.66,-812.96 394.98,-823.55 401.51,-821.04"/>
<text text-anchor="middle" x="442" y="-1014.48" font-family="Times,serif" font-size="9.00">0.016</text>
</g>
<!-- key 27575
bias 0.000
h_scaling 0.919 -->
<g id="node8" class="node">
<title>key 27575
bias 0.000
h_scaling 0.919</title>
<ellipse fill="white" stroke="black" cx="156" cy="-756.76" rx="63.78" ry="63.78"/>
<text text-anchor="middle" x="156" y="-764.56" font-family="Times,serif" font-size="9.00">key 27575</text>
<text text-anchor="middle" x="156" y="-754.56" font-family="Times,serif" font-size="9.00">bias 0.000</text>
<text text-anchor="middle" x="156" y="-744.56" font-family="Times,serif" font-size="9.00">h_scaling 0.919</text>
</g>
<!-- ready&#45;&gt;key 27575
bias 0.000
h_scaling 0.919 -->
<g id="edge17" class="edge">
<title>ready&#45;&gt;key 27575
bias 0.000
h_scaling 0.919</title>
<path fill="none" stroke="red" stroke-width="0.3" d="M375.66,-1212.81C377.48,-1184.72 379.58,-1090.83 332,-1039.68 285.66,-989.86 229.62,-1045.88 186,-993.68 165.85,-969.56 159.06,-890.74 156.86,-830.78"/>
<polygon fill="red" stroke="red" stroke-width="0.3" points="160.35,-830.45 156.52,-820.57 153.36,-830.68 160.35,-830.45"/>
<text text-anchor="middle" x="319" y="-1014.48" font-family="Times,serif" font-size="9.00">0.007</text>
</g>
<!-- key 250879
bias 0.000
h_scaling 0.941 -->
<g id="node11" class="node">
<title>key 250879
bias 0.000
h_scaling 0.941</title>
<ellipse fill="white" stroke="black" cx="416" cy="-410.2" rx="63.78" ry="63.78"/>
<text text-anchor="middle" x="416" y="-418" font-family="Times,serif" font-size="9.00">key 250879</text>
<text text-anchor="middle" x="416" y="-408" font-family="Times,serif" font-size="9.00">bias 0.000</text>
<text text-anchor="middle" x="416" y="-398" font-family="Times,serif" font-size="9.00">h_scaling 0.941</text>
</g>
<!-- ready&#45;&gt;key 250879
bias 0.000
h_scaling 0.941 -->
<g id="edge21" class="edge">
<title>ready&#45;&gt;key 250879
bias 0.000
h_scaling 0.941</title>
<path fill="none" stroke="red" stroke-width="0.37" d="M396.66,-1213.44C434.35,-1198.84 508,-1162.82 508,-1104.31 508,-1104.31 508,-1104.31 508,-582.48 508,-540.34 486.12,-498.56 463.7,-466.82"/>
<polygon fill="red" stroke="red" stroke-width="0.37" points="466.4,-464.59 457.69,-458.56 460.74,-468.71 466.4,-464.59"/>
<text text-anchor="middle" x="522" y="-841.2" font-family="Times,serif" font-size="9.00">0.009</text>
</g>
<!-- go -->
<g id="node2" class="node">
<title>go</title>
<polygon fill="green" stroke="black" points="316,-1230.95 288,-1230.95 288,-1212.95 316,-1212.95 316,-1230.95"/>
<text text-anchor="middle" x="302" y="-1219.75" font-family="Times,serif" font-size="9.00">go</text>
</g>
<!-- key 71362
bias 0.000
h_scaling 1.000 -->
<g id="node5" class="node">
<title>key 71362
bias 0.000
h_scaling 1.000</title>
<ellipse fill="white" stroke="black" cx="416" cy="-583.48" rx="63.78" ry="63.78"/>
<text text-anchor="middle" x="416" y="-591.28" font-family="Times,serif" font-size="9.00">key 71362</text>
<text text-anchor="middle" x="416" y="-581.28" font-family="Times,serif" font-size="9.00">bias 0.000</text>
<text text-anchor="middle" x="416" y="-571.28" font-family="Times,serif" font-size="9.00">h_scaling 1.000</text>
</g>
<!-- go&#45;&gt;key 71362
bias 0.000
h_scaling 1.000 -->
<g id="edge18" class="edge">
<title>go&#45;&gt;key 71362
bias 0.000
h_scaling 1.000</title>
<path fill="none" stroke="blue" stroke-width="0.1" d="M313.39,-1212.76C326.49,-1202.94 348.11,-1185.47 363,-1166.95 411.05,-1107.22 434.47,-1095.25 456,-1021.68 492.85,-895.77 462.07,-741.54 437.94,-653.98"/>
<polygon fill="blue" stroke="blue" stroke-width="0.1" points="441.25,-652.84 435.18,-644.16 434.51,-654.74 441.25,-652.84"/>
</g>
<!-- go&#45;&gt;key 9490
bias 0.000
h_scaling 0.957 -->
<g id="edge3" class="edge">
<title>go&#45;&gt;key 9490
bias 0.000
h_scaling 0.957</title>
<path fill="none" stroke="red" stroke-width="0.53" d="M291.35,-1212.94C285.3,-1208.11 277.8,-1201.61 272,-1194.95 264.56,-1186.42 257.35,-1176.87 250.67,-1167.26"/>
<polygon fill="red" stroke="red" stroke-width="0.53" points="253.46,-1165.14 244.95,-1158.83 247.67,-1169.07 253.46,-1165.14"/>
<text text-anchor="middle" x="286" y="-1187.75" font-family="Times,serif" font-size="9.00">0.014</text>
</g>
<!-- go&#45;&gt;key 37910
bias 0.000
h_scaling 0.584 -->
<g id="edge12" class="edge">
<title>go&#45;&gt;key 37910
bias 0.000
h_scaling 0.584</title>
<path fill="none" stroke="blue" stroke-width="0.1" d="M307.49,-1212.91C314.24,-1202.68 325.57,-1184.24 332,-1166.95 381.79,-1033.05 371.56,-991.22 375,-848.4 375.11,-843.95 375.3,-842.83 375,-838.4 374.81,-835.55 374.58,-832.66 374.31,-829.74"/>
<polygon fill="blue" stroke="blue" stroke-width="0.1" points="377.79,-829.35 373.32,-819.75 370.83,-830.04 377.79,-829.35"/>
</g>
<!-- key 474
bias 0.000
h_scaling 0.053 -->
<g id="node9" class="node">
<title>key 474
bias 0.000
h_scaling 0.053</title>
<ellipse fill="white" stroke="black" cx="141" cy="-410.2" rx="63.78" ry="63.78"/>
<text text-anchor="middle" x="141" y="-418" font-family="Times,serif" font-size="9.00">key 474</text>
<text text-anchor="middle" x="141" y="-408" font-family="Times,serif" font-size="9.00">bias 0.000</text>
<text text-anchor="middle" x="141" y="-398" font-family="Times,serif" font-size="9.00">h_scaling 0.053</text>
</g>
<!-- go&#45;&gt;key 474
bias 0.000
h_scaling 0.053 -->
<g id="edge4" class="edge">
<title>go&#45;&gt;key 474
bias 0.000
h_scaling 0.053</title>
<path fill="none" stroke="red" stroke-width="0.61" d="M287.84,-1218.7C228.13,-1208.79 0,-1166.84 0,-1104.31 0,-1104.31 0,-1104.31 0,-582.48 0,-528.9 41.63,-482.98 79.65,-452.21"/>
<polygon fill="red" stroke="red" stroke-width="0.61" points="82,-454.81 87.69,-445.87 77.67,-449.31 82,-454.81"/>
<text text-anchor="middle" x="14" y="-841.2" font-family="Times,serif" font-size="9.00">0.017</text>
</g>
<!-- output
bias 0.000
h_scaling 0.000 -->
<g id="node3" class="node">
<title>output
bias 0.000
h_scaling 0.000</title>
<ellipse fill="lightblue" stroke="black" cx="259" cy="-930.04" rx="63.78" ry="63.78"/>
<text text-anchor="middle" x="259" y="-937.84" font-family="Times,serif" font-size="9.00">output</text>
<text text-anchor="middle" x="259" y="-927.84" font-family="Times,serif" font-size="9.00">bias 0.000</text>
<text text-anchor="middle" x="259" y="-917.84" font-family="Times,serif" font-size="9.00">h_scaling 0.000</text>
</g>
<!-- output
bias 0.000
h_scaling 0.000&#45;&gt;key 37910
bias 0.000
h_scaling 0.584 -->
<g id="edge8" class="edge">
<title>output
bias 0.000
h_scaling 0.000&#45;&gt;key 37910
bias 0.000
h_scaling 0.584</title>
<path fill="none" stroke="red" stroke-width="0.4" d="M261.29,-866.22C263.32,-856.53 266.41,-846.92 271,-838.4 278.89,-823.75 290.58,-810.55 303.03,-799.28"/>
<polygon fill="red" stroke="red" stroke-width="0.4" points="305.58,-801.71 310.85,-792.52 301,-796.41 305.58,-801.71"/>
<text text-anchor="middle" x="285" y="-841.2" font-family="Times,serif" font-size="9.00">0.010</text>
</g>
<!-- output
bias 0.000
h_scaling 0.000&#45;&gt;key 27575
bias 0.000
h_scaling 0.919 -->
<g id="edge11" class="edge">
<title>output
bias 0.000
h_scaling 0.000&#45;&gt;key 27575
bias 0.000
h_scaling 0.919</title>
<path fill="none" stroke="blue" stroke-width="0.1" d="M226.41,-874.84C215.98,-857.49 204.34,-838.14 193.58,-820.25"/>
<polygon fill="blue" stroke="blue" stroke-width="0.1" points="196.53,-818.36 188.38,-811.6 190.53,-821.97 196.53,-818.36"/>
</g>
<!-- key 311553
bias 0.000
h_scaling 0.000 -->
<g id="node4" class="node">
<title>key 311553
bias 0.000
h_scaling 0.000</title>
<ellipse fill="white" stroke="black" cx="95" cy="-236.92" rx="63.78" ry="63.78"/>
<text text-anchor="middle" x="95" y="-244.72" font-family="Times,serif" font-size="9.00">key 311553</text>
<text text-anchor="middle" x="95" y="-234.72" font-family="Times,serif" font-size="9.00">bias 0.000</text>
<text text-anchor="middle" x="95" y="-224.72" font-family="Times,serif" font-size="9.00">h_scaling 0.000</text>
</g>
<!-- key 175419
bias 0.000
h_scaling 1.000 -->
<g id="node10" class="node">
<title>key 175419
bias 0.000
h_scaling 1.000</title>
<ellipse fill="white" stroke="black" cx="141" cy="-63.64" rx="63.78" ry="63.78"/>
<text text-anchor="middle" x="141" y="-71.44" font-family="Times,serif" font-size="9.00">key 175419</text>
<text text-anchor="middle" x="141" y="-61.44" font-family="Times,serif" font-size="9.00">bias 0.000</text>
<text text-anchor="middle" x="141" y="-51.44" font-family="Times,serif" font-size="9.00">h_scaling 1.000</text>
</g>
<!-- key 311553
bias 0.000
h_scaling 0.000&#45;&gt;key 175419
bias 0.000
h_scaling 1.000 -->
<g id="edge25" class="edge">
<title>key 311553
bias 0.000
h_scaling 0.000&#45;&gt;key 175419
bias 0.000
h_scaling 1.000</title>
<path fill="none" stroke="red" stroke-width="1.45" d="M111.35,-175.05C114.8,-162.18 118.48,-148.49 122.03,-135.29"/>
<polygon fill="red" stroke="red" stroke-width="1.45" points="125.49,-135.88 124.71,-125.31 118.73,-134.06 125.49,-135.88"/>
<text text-anchor="middle" x="132" y="-148.08" font-family="Times,serif" font-size="9.00">0.045</text>
</g>
<!-- key 71362
bias 0.000
h_scaling 1.000&#45;&gt;key 474
bias 0.000
h_scaling 0.053 -->
<g id="edge14" class="edge">
<title>key 71362
bias 0.000
h_scaling 1.000&#45;&gt;key 474
bias 0.000
h_scaling 0.053</title>
<path fill="none" stroke="blue" stroke-width="0.1" d="M367.88,-541.71C358.21,-534.13 347.96,-526.51 338,-519.84 295.94,-491.66 245.98,-464.17 206.89,-443.89"/>
<polygon fill="blue" stroke="blue" stroke-width="0.1" points="208.2,-440.63 197.71,-439.15 204.99,-446.85 208.2,-440.63"/>
</g>
<!-- key 71362
bias 0.000
h_scaling 1.000&#45;&gt;key 250879
bias 0.000
h_scaling 0.941 -->
<g id="edge23" class="edge">
<title>key 71362
bias 0.000
h_scaling 1.000&#45;&gt;key 250879
bias 0.000
h_scaling 0.941</title>
<path fill="none" stroke="red" stroke-width="0.55" d="M416,-519.67C416,-508.15 416,-496.04 416,-484.25"/>
<polygon fill="red" stroke="red" stroke-width="0.55" points="419.5,-484 416,-474 412.5,-484 419.5,-484"/>
<text text-anchor="middle" x="430" y="-494.64" font-family="Times,serif" font-size="9.00">0.015</text>
</g>
<!-- key 9490
bias 0.000
h_scaling 0.957&#45;&gt;output
bias 0.000
h_scaling 0.000 -->
<g id="edge19" class="edge">
<title>key 9490
bias 0.000
h_scaling 0.957&#45;&gt;output
bias 0.000
h_scaling 0.000</title>
<path fill="none" stroke="blue" stroke-width="0.1" d="M229.35,-1041.45C232.8,-1028.57 236.48,-1014.88 240.03,-1001.68"/>
<polygon fill="blue" stroke="blue" stroke-width="0.1" points="243.49,-1002.27 242.71,-991.71 236.73,-1000.46 243.49,-1002.27"/>
</g>
<!-- key 9490
bias 0.000
h_scaling 0.957&#45;&gt;key 9490
bias 0.000
h_scaling 0.957 -->
<g id="edge7" class="edge">
<title>key 9490
bias 0.000
h_scaling 0.957&#45;&gt;key 9490
bias 0.000
h_scaling 0.957</title>
<path fill="none" stroke="red" stroke-width="0.82" d="M274.94,-1118.61C286.5,-1116.73 294.64,-1111.63 294.64,-1103.31 294.64,-1097.6 290.79,-1093.4 284.63,-1090.73"/>
<polygon fill="red" stroke="red" stroke-width="0.82" points="285.52,-1087.34 274.94,-1088.02 283.63,-1094.08 285.52,-1087.34"/>
<text text-anchor="middle" x="308.64" y="-1101.11" font-family="Times,serif" font-size="9.00">0.024</text>
</g>
<!-- key 9490
bias 0.000
h_scaling 0.957&#45;&gt;key 37910
bias 0.000
h_scaling 0.584 -->
<g id="edge9" class="edge">
<title>key 9490
bias 0.000
h_scaling 0.957&#45;&gt;key 37910
bias 0.000
h_scaling 0.584</title>
<path fill="none" stroke="blue" stroke-width="0.1" d="M267.78,-1070.28C286.63,-1057.14 306.59,-1040.56 321,-1021.68 362.58,-967.19 370.5,-887.77 369.76,-830.3"/>
<polygon fill="blue" stroke="blue" stroke-width="0.1" points="373.26,-830.12 369.54,-820.2 366.26,-830.27 373.26,-830.12"/>
</g>
<!-- key 9490
bias 0.000
h_scaling 0.957&#45;&gt;key 474
bias 0.000
h_scaling 0.053 -->
<g id="edge2" class="edge">
<title>key 9490
bias 0.000
h_scaling 0.957&#45;&gt;key 474
bias 0.000
h_scaling 0.053</title>
<path fill="none" stroke="red" stroke-width="1.29" d="M156.46,-1073.99C108.01,-1045.25 46,-995.82 46,-931.04 46,-931.04 46,-931.04 46,-582.48 46,-539.71 68.93,-497.63 92.25,-465.88"/>
<polygon fill="red" stroke="red" stroke-width="1.29" points="95.26,-467.71 98.5,-457.62 89.68,-463.49 95.26,-467.71"/>
<text text-anchor="middle" x="60" y="-754.56" font-family="Times,serif" font-size="9.00">0.040</text>
</g>
<!-- key 37910
bias 0.000
h_scaling 0.584&#45;&gt;output
bias 0.000
h_scaling 0.000 -->
<g id="edge10" class="edge">
<title>key 37910
bias 0.000
h_scaling 0.584&#45;&gt;output
bias 0.000
h_scaling 0.000</title>
<path fill="none" stroke="red" stroke-width="0.4" d="M331.18,-811.29C320.44,-828.81 308.41,-848.43 297.31,-866.55"/>
<polygon fill="red" stroke="red" stroke-width="0.4" points="294.18,-864.96 291.93,-875.31 300.14,-868.62 294.18,-864.96"/>
<text text-anchor="middle" x="325" y="-841.2" font-family="Times,serif" font-size="9.00">0.010</text>
</g>
<!-- key 37910
bias 0.000
h_scaling 0.584&#45;&gt;key 71362
bias 0.000
h_scaling 1.000 -->
<g id="edge13" class="edge">
<title>key 37910
bias 0.000
h_scaling 0.584&#45;&gt;key 71362
bias 0.000
h_scaling 1.000</title>
<path fill="none" stroke="red" stroke-width="0.75" d="M382.33,-695.37C386.36,-682.12 390.65,-667.98 394.78,-654.39"/>
<polygon fill="red" stroke="red" stroke-width="0.75" points="398.19,-655.19 397.74,-644.61 391.49,-653.16 398.19,-655.19"/>
<text text-anchor="middle" x="404" y="-667.92" font-family="Times,serif" font-size="9.00">0.022</text>
</g>
<!-- key 27575
bias 0.000
h_scaling 0.919&#45;&gt;key 9490
bias 0.000
h_scaling 0.957 -->
<g id="edge5" class="edge">
<title>key 27575
bias 0.000
h_scaling 0.919&#45;&gt;key 9490
bias 0.000
h_scaling 0.957</title>
<path fill="none" stroke="blue" stroke-width="0.1" d="M146.43,-819.92C141.11,-868.11 138.17,-936.16 153,-993.68 157.19,-1009.92 164.38,-1026.33 172.35,-1041.3"/>
<polygon fill="blue" stroke="blue" stroke-width="0.1" points="169.5,-1043.37 177.4,-1050.42 175.62,-1039.98 169.5,-1043.37"/>
</g>
<!-- key 474
bias 0.000
h_scaling 0.053&#45;&gt;output
bias 0.000
h_scaling 0.000 -->
<g id="edge1" class="edge">
<title>key 474
bias 0.000
h_scaling 0.053&#45;&gt;output
bias 0.000
h_scaling 0.000</title>
<path fill="none" stroke="blue" stroke-width="0.1" d="M162.71,-470.05C182.74,-526.53 211.89,-614.59 229,-693.12 240.79,-747.24 248.46,-809.42 253.09,-856.36"/>
<polygon fill="blue" stroke="blue" stroke-width="0.1" points="249.62,-856.82 254.07,-866.44 256.59,-856.15 249.62,-856.82"/>
</g>
<!-- key 474
bias 0.000
h_scaling 0.053&#45;&gt;key 311553
bias 0.000
h_scaling 0.000 -->
<g id="edge24" class="edge">
<title>key 474
bias 0.000
h_scaling 0.053&#45;&gt;key 311553
bias 0.000
h_scaling 0.000</title>
<path fill="none" stroke="red" stroke-width="1.95" d="M124.65,-348.33C121.2,-335.46 117.52,-321.77 113.97,-308.57"/>
<polygon fill="red" stroke="red" stroke-width="1.95" points="117.27,-307.34 111.29,-298.59 110.51,-309.16 117.27,-307.34"/>
<text text-anchor="middle" x="132" y="-321.36" font-family="Times,serif" font-size="9.00">0.062</text>
</g>
<!-- key 474
bias 0.000
h_scaling 0.053&#45;&gt;key 474
bias 0.000
h_scaling 0.053 -->
<g id="edge15" class="edge">
<title>key 474
bias 0.000
h_scaling 0.053&#45;&gt;key 474
bias 0.000
h_scaling 0.053</title>
<path fill="none" stroke="red" stroke-width="1.45" d="M202.94,-425.5C214.5,-423.61 222.64,-418.51 222.64,-410.2 222.64,-404.48 218.79,-400.29 212.63,-397.61"/>
<polygon fill="red" stroke="red" stroke-width="1.45" points="213.52,-394.22 202.94,-394.9 211.63,-400.96 213.52,-394.22"/>
<text text-anchor="middle" x="236.64" y="-408" font-family="Times,serif" font-size="9.00">0.045</text>
</g>
<!-- key 175419
bias 0.000
h_scaling 1.000&#45;&gt;key 474
bias 0.000
h_scaling 0.053 -->
<g id="edge20" class="edge">
<title>key 175419
bias 0.000
h_scaling 1.000&#45;&gt;key 474
bias 0.000
h_scaling 0.053</title>
<path fill="none" stroke="blue" stroke-width="0.1" d="M158.71,-124.77C162.56,-140.42 166.05,-157.36 168,-173.28 174.87,-229.43 174.87,-244.41 168,-300.56 166.46,-313.12 163.96,-326.31 161.09,-339.01"/>
<polygon fill="blue" stroke="blue" stroke-width="0.1" points="157.6,-338.53 158.71,-349.07 164.42,-340.14 157.6,-338.53"/>
</g>
<!-- key 250879
bias 0.000
h_scaling 0.941&#45;&gt;key 37910
bias 0.000
h_scaling 0.584 -->
<g id="edge22" class="edge">
<title>key 250879
bias 0.000
h_scaling 0.941&#45;&gt;key 37910
bias 0.000
h_scaling 0.584</title>
<path fill="none" stroke="red" stroke-width="0.33" d="M366.1,-450.17C346.2,-468.84 325.55,-492.99 315,-519.84 294.31,-572.49 303.11,-591.81 315,-647.12 318.19,-661.97 323.59,-677.24 329.65,-691.46"/>
<polygon fill="red" stroke="red" stroke-width="0.33" points="326.47,-692.92 333.72,-700.64 332.87,-690.08 326.47,-692.92"/>
<text text-anchor="middle" x="329" y="-581.28" font-family="Times,serif" font-size="9.00">0.008</text>
</g>
</g>
</svg>
