<?xml version="1.0" encoding="UTF-8" standalone="no"?>
<!DOCTYPE svg PUBLIC "-//W3C//DTD SVG 1.1//EN"
 "http://www.w3.org/Graphics/SVG/1.1/DTD/svg11.dtd">
<!-- Generated by graphviz version 2.43.0 (0)
 -->
<!-- Title: %3 Pages: 1 -->
<svg width="586pt" height="1239pt"
 viewBox="0.00 0.00 586.00 1238.95" xmlns="http://www.w3.org/2000/svg" xmlns:xlink="http://www.w3.org/1999/xlink">
<g id="graph0" class="graph" transform="scale(1 1) rotate(0) translate(4 1234.95)">
<title>%3</title>
<polygon fill="white" stroke="transparent" points="-4,4 -4,-1234.95 582,-1234.95 582,4 -4,4"/>
<!-- ready -->
<g id="node1" class="node">
<title>ready</title>
<polygon fill="yellow" stroke="black" points="442.5,-1230.95 399.5,-1230.95 399.5,-1212.95 442.5,-1212.95 442.5,-1230.95"/>
<text text-anchor="middle" x="421" y="-1219.75" font-family="Times,serif" font-size="9.00">ready</text>
</g>
<!-- key 9490
bias 0.000
h_scaling 0.957 -->
<g id="node6" class="node">
<title>key 9490
bias 0.000
h_scaling 0.957</title>
<ellipse fill="white" stroke="black" cx="216" cy="-1103.31" rx="63.78" ry="63.78"/>
<text text-anchor="middle" x="216" y="-1111.11" font-family="Times,serif" font-size="9.00">key 9490</text>
<text text-anchor="middle" x="216" y="-1101.11" font-family="Times,serif" font-size="9.00">bias 0.000</text>
<text text-anchor="middle" x="216" y="-1091.11" font-family="Times,serif" font-size="9.00">h_scaling 0.957</text>
</g>
<!-- ready&#45;&gt;key 9490
bias 0.000
h_scaling 0.957 -->
<g id="edge6" class="edge">
<title>ready&#45;&gt;key 9490
bias 0.000
h_scaling 0.957</title>
<path fill="none" stroke="blue" stroke-width="0.63" d="M399.14,-1217.22C380.13,-1213.4 352.21,-1206.38 330,-1194.95 308.94,-1184.12 288.03,-1169.09 269.98,-1154.37"/>
<polygon fill="blue" stroke="blue" stroke-width="0.63" points="271.83,-1151.35 261.9,-1147.65 267.35,-1156.73 271.83,-1151.35"/>
<text text-anchor="middle" x="345.5" y="-1187.75" font-family="Times,serif" font-size="9.00">&#45;0.177</text>
</g>
<!-- key 37910
bias 0.000
h_scaling 0.584 -->
<g id="node7" class="node">
<title>key 37910
bias 0.000
h_scaling 0.584</title>
<ellipse fill="white" stroke="black" cx="375" cy="-756.76" rx="63.78" ry="63.78"/>
<text text-anchor="middle" x="375" y="-764.56" font-family="Times,serif" font-size="9.00">key 37910</text>
<text text-anchor="middle" x="375" y="-754.56" font-family="Times,serif" font-size="9.00">bias 0.000</text>
<text text-anchor="middle" x="375" y="-744.56" font-family="Times,serif" font-size="9.00">h_scaling 0.584</text>
</g>
<!-- ready&#45;&gt;key 37910
bias 0.000
h_scaling 0.584 -->
<g id="edge16" class="edge">
<title>ready&#45;&gt;key 37910
bias 0.000
h_scaling 0.584</title>
<path fill="none" stroke="red" stroke-width="1.05" d="M422.54,-1212.94C430.04,-1172.13 460.9,-983.79 421,-838.4 419.29,-832.17 416.99,-825.93 414.33,-819.81"/>
<polygon fill="red" stroke="red" stroke-width="1.05" points="417.3,-817.9 409.88,-810.34 410.97,-820.88 417.3,-817.9"/>
<text text-anchor="middle" x="454" y="-1014.48" font-family="Times,serif" font-size="9.00">0.315</text>
</g>
<!-- key 27575
bias 0.000
h_scaling 0.919 -->
<g id="node8" class="node">
<title>key 27575
bias 0.000
h_scaling 0.919</title>
<ellipse fill="white" stroke="black" cx="156" cy="-756.76" rx="63.78" ry="63.78"/>
<text text-anchor="middle" x="156" y="-764.56" font-family="Times,serif" font-size="9.00">key 27575</text>
<text text-anchor="middle" x="156" y="-754.56" font-family="Times,serif" font-size="9.00">bias 0.000</text>
<text text-anchor="middle" x="156" y="-744.56" font-family="Times,serif" font-size="9.00">h_scaling 0.919</text>
</g>
<!-- ready&#45;&gt;key 27575
bias 0.000
h_scaling 0.919 -->
<g id="edge17" class="edge">
<title>ready&#45;&gt;key 27575
bias 0.000
h_scaling 0.919</title>
<path fill="none" stroke="red" stroke-width="0.68" d="M419.35,-1212.85C413.28,-1184.92 389.58,-1091.47 335,-1039.68 311.29,-1017.18 298.3,-1021.08 267,-1011.68 227.1,-999.69 202.75,-1024.75 175,-993.68 154.11,-970.28 151.38,-890.89 152.58,-830.6"/>
<polygon fill="red" stroke="red" stroke-width="0.68" points="156.08,-830.43 152.82,-820.35 149.08,-830.26 156.08,-830.43"/>
<text text-anchor="middle" x="320" y="-1014.48" font-family="Times,serif" font-size="9.00">0.194</text>
</g>
<!-- key 250879
bias 0.000
h_scaling 0.941 -->
<g id="node11" class="node">
<title>key 250879
bias 0.000
h_scaling 0.941</title>
<ellipse fill="white" stroke="black" cx="458" cy="-410.2" rx="63.78" ry="63.78"/>
<text text-anchor="middle" x="458" y="-418" font-family="Times,serif" font-size="9.00">key 250879</text>
<text text-anchor="middle" x="458" y="-408" font-family="Times,serif" font-size="9.00">bias 0.000</text>
<text text-anchor="middle" x="458" y="-398" font-family="Times,serif" font-size="9.00">h_scaling 0.941</text>
</g>
<!-- ready&#45;&gt;key 250879
bias 0.000
h_scaling 0.941 -->
<g id="edge21" class="edge">
<title>ready&#45;&gt;key 250879
bias 0.000
h_scaling 0.941</title>
<path fill="none" stroke="red" stroke-width="2.07" d="M442.59,-1213.01C479.31,-1197.95 550,-1161.53 550,-1104.31 550,-1104.31 550,-1104.31 550,-582.48 550,-540.34 528.12,-498.56 505.7,-466.82"/>
<polygon fill="red" stroke="red" stroke-width="2.07" points="508.4,-464.59 499.69,-458.56 502.74,-468.71 508.4,-464.59"/>
<text text-anchor="middle" x="564" y="-841.2" font-family="Times,serif" font-size="9.00">0.658</text>
</g>
<!-- go -->
<g id="node2" class="node">
<title>go</title>
<polygon fill="green" stroke="black" points="285,-1230.95 257,-1230.95 257,-1212.95 285,-1212.95 285,-1230.95"/>
<text text-anchor="middle" x="271" y="-1219.75" font-family="Times,serif" font-size="9.00">go</text>
</g>
<!-- key 71362
bias 0.000
h_scaling 1.000 -->
<g id="node5" class="node">
<title>key 71362
bias 0.000
h_scaling 1.000</title>
<ellipse fill="white" stroke="black" cx="458" cy="-583.48" rx="63.78" ry="63.78"/>
<text text-anchor="middle" x="458" y="-591.28" font-family="Times,serif" font-size="9.00">key 71362</text>
<text text-anchor="middle" x="458" y="-581.28" font-family="Times,serif" font-size="9.00">bias 0.000</text>
<text text-anchor="middle" x="458" y="-571.28" font-family="Times,serif" font-size="9.00">h_scaling 1.000</text>
</g>
<!-- go&#45;&gt;key 71362
bias 0.000
h_scaling 1.000 -->
<g id="edge18" class="edge">
<title>go&#45;&gt;key 71362
bias 0.000
h_scaling 1.000</title>
<path fill="none" stroke="blue" stroke-width="3.1" d="M285.15,-1220.22C304.86,-1218.55 340.89,-1213.04 365,-1194.95 437.4,-1140.63 447.28,-1108.75 472,-1021.68 507.44,-896.81 489.32,-743.8 473.36,-655.88"/>
<polygon fill="blue" stroke="blue" stroke-width="3.1" points="476.79,-655.21 471.53,-646.01 469.91,-656.49 476.79,-655.21"/>
<text text-anchor="middle" x="507.5" y="-927.84" font-family="Times,serif" font-size="9.00">&#45;1.000</text>
</g>
<!-- go&#45;&gt;key 9490
bias 0.000
h_scaling 0.957 -->
<g id="edge3" class="edge">
<title>go&#45;&gt;key 9490
bias 0.000
h_scaling 0.957</title>
<path fill="none" stroke="red" stroke-width="1.14" d="M264.93,-1212.53C261.49,-1207.55 257.24,-1201.05 254,-1194.95 250.19,-1187.78 246.48,-1180.13 242.97,-1172.44"/>
<polygon fill="red" stroke="red" stroke-width="1.14" points="246.06,-1170.77 238.79,-1163.07 239.67,-1173.63 246.06,-1170.77"/>
<text text-anchor="middle" x="268" y="-1187.75" font-family="Times,serif" font-size="9.00">0.346</text>
</g>
<!-- go&#45;&gt;key 37910
bias 0.000
h_scaling 0.584 -->
<g id="edge12" class="edge">
<title>go&#45;&gt;key 37910
bias 0.000
h_scaling 0.584</title>
<path fill="none" stroke="blue" stroke-width="2.53" d="M279.11,-1212.93C286.82,-1205.43 298.87,-1194.05 310,-1184.95 320.61,-1176.3 326.88,-1177.98 335,-1166.95 383.17,-1101.57 379.94,-1073.83 393,-993.68 401.92,-938.91 396.42,-876.25 389.22,-829.28"/>
<polygon fill="blue" stroke="blue" stroke-width="2.53" points="392.65,-828.52 387.62,-819.2 385.74,-829.62 392.65,-828.52"/>
<text text-anchor="middle" x="404.5" y="-1014.48" font-family="Times,serif" font-size="9.00">&#45;0.811</text>
</g>
<!-- key 474
bias 0.000
h_scaling 0.053 -->
<g id="node9" class="node">
<title>key 474
bias 0.000
h_scaling 0.053</title>
<ellipse fill="white" stroke="black" cx="147" cy="-410.2" rx="63.78" ry="63.78"/>
<text text-anchor="middle" x="147" y="-418" font-family="Times,serif" font-size="9.00">key 474</text>
<text text-anchor="middle" x="147" y="-408" font-family="Times,serif" font-size="9.00">bias 0.000</text>
<text text-anchor="middle" x="147" y="-398" font-family="Times,serif" font-size="9.00">h_scaling 0.053</text>
</g>
<!-- go&#45;&gt;key 474
bias 0.000
h_scaling 0.053 -->
<g id="edge4" class="edge">
<title>go&#45;&gt;key 474
bias 0.000
h_scaling 0.053</title>
<path fill="none" stroke="red" stroke-width="3.08" d="M256.81,-1221.36C201.05,-1222.17 0,-1217.26 0,-1104.31 0,-1104.31 0,-1104.31 0,-582.48 0,-527.12 44.76,-480.7 84.89,-450.21"/>
<polygon fill="red" stroke="red" stroke-width="3.08" points="87.14,-452.9 93.1,-444.14 82.98,-447.27 87.14,-452.9"/>
<text text-anchor="middle" x="14" y="-841.2" font-family="Times,serif" font-size="9.00">0.995</text>
</g>
<!-- output
bias 0.000
h_scaling 0.000 -->
<g id="node3" class="node">
<title>output
bias 0.000
h_scaling 0.000</title>
<ellipse fill="lightblue" stroke="black" cx="248" cy="-930.04" rx="63.78" ry="63.78"/>
<text text-anchor="middle" x="248" y="-937.84" font-family="Times,serif" font-size="9.00">output</text>
<text text-anchor="middle" x="248" y="-927.84" font-family="Times,serif" font-size="9.00">bias 0.000</text>
<text text-anchor="middle" x="248" y="-917.84" font-family="Times,serif" font-size="9.00">h_scaling 0.000</text>
</g>
<!-- output
bias 0.000
h_scaling 0.000&#45;&gt;key 37910
bias 0.000
h_scaling 0.584 -->
<g id="edge8" class="edge">
<title>output
bias 0.000
h_scaling 0.000&#45;&gt;key 37910
bias 0.000
h_scaling 0.584</title>
<path fill="none" stroke="red" stroke-width="2.71" d="M265.72,-868.89C270.18,-858.25 275.57,-847.64 282,-838.4 291.3,-825.03 303.3,-812.48 315.57,-801.44"/>
<polygon fill="red" stroke="red" stroke-width="2.71" points="317.98,-803.97 323.22,-794.76 313.38,-798.7 317.98,-803.97"/>
<text text-anchor="middle" x="296" y="-841.2" font-family="Times,serif" font-size="9.00">0.870</text>
</g>
<!-- output
bias 0.000
h_scaling 0.000&#45;&gt;key 27575
bias 0.000
h_scaling 0.919 -->
<g id="edge11" class="edge">
<title>output
bias 0.000
h_scaling 0.000&#45;&gt;key 27575
bias 0.000
h_scaling 0.919</title>
<path fill="none" stroke="blue" stroke-width="0.48" d="M217.03,-874.07C212.29,-865.5 207.48,-856.73 203,-848.4 198.57,-840.17 193.98,-831.49 189.47,-822.89"/>
<polygon fill="blue" stroke="blue" stroke-width="0.48" points="192.55,-821.23 184.82,-813.98 186.35,-824.47 192.55,-821.23"/>
<text text-anchor="middle" x="218.5" y="-841.2" font-family="Times,serif" font-size="9.00">&#45;0.128</text>
</g>
<!-- key 311553
bias 0.000
h_scaling 0.000 -->
<g id="node4" class="node">
<title>key 311553
bias 0.000
h_scaling 0.000</title>
<ellipse fill="white" stroke="black" cx="97" cy="-236.92" rx="63.78" ry="63.78"/>
<text text-anchor="middle" x="97" y="-244.72" font-family="Times,serif" font-size="9.00">key 311553</text>
<text text-anchor="middle" x="97" y="-234.72" font-family="Times,serif" font-size="9.00">bias 0.000</text>
<text text-anchor="middle" x="97" y="-224.72" font-family="Times,serif" font-size="9.00">h_scaling 0.000</text>
</g>
<!-- key 175419
bias 0.000
h_scaling 1.000 -->
<g id="node10" class="node">
<title>key 175419
bias 0.000
h_scaling 1.000</title>
<ellipse fill="white" stroke="black" cx="147" cy="-63.64" rx="63.78" ry="63.78"/>
<text text-anchor="middle" x="147" y="-71.44" font-family="Times,serif" font-size="9.00">key 175419</text>
<text text-anchor="middle" x="147" y="-61.44" font-family="Times,serif" font-size="9.00">bias 0.000</text>
<text text-anchor="middle" x="147" y="-51.44" font-family="Times,serif" font-size="9.00">h_scaling 1.000</text>
</g>
<!-- key 311553
bias 0.000
h_scaling 0.000&#45;&gt;key 175419
bias 0.000
h_scaling 1.000 -->
<g id="edge25" class="edge">
<title>key 311553
bias 0.000
h_scaling 0.000&#45;&gt;key 175419
bias 0.000
h_scaling 1.000</title>
<path fill="none" stroke="red" stroke-width="3.04" d="M114.63,-175.53C118.47,-162.36 122.58,-148.31 126.52,-134.79"/>
<polygon fill="red" stroke="red" stroke-width="3.04" points="129.92,-135.64 129.36,-125.06 123.2,-133.68 129.92,-135.64"/>
<text text-anchor="middle" x="136" y="-148.08" font-family="Times,serif" font-size="9.00">0.980</text>
</g>
<!-- key 71362
bias 0.000
h_scaling 1.000&#45;&gt;key 474
bias 0.000
h_scaling 0.053 -->
<g id="edge14" class="edge">
<title>key 71362
bias 0.000
h_scaling 1.000&#45;&gt;key 474
bias 0.000
h_scaling 0.053</title>
<path fill="none" stroke="blue" stroke-width="2.39" d="M410.23,-541.17C400.53,-533.64 390.18,-526.17 380,-519.84 327.42,-487.13 263.39,-457.96 215.77,-438.11"/>
<polygon fill="blue" stroke="blue" stroke-width="2.39" points="217.05,-434.85 206.47,-434.26 214.37,-441.32 217.05,-434.85"/>
<text text-anchor="middle" x="358.5" y="-494.64" font-family="Times,serif" font-size="9.00">&#45;0.762</text>
</g>
<!-- key 71362
bias 0.000
h_scaling 1.000&#45;&gt;key 250879
bias 0.000
h_scaling 0.941 -->
<g id="edge23" class="edge">
<title>key 71362
bias 0.000
h_scaling 1.000&#45;&gt;key 250879
bias 0.000
h_scaling 0.941</title>
<path fill="none" stroke="red" stroke-width="0.19" d="M458,-519.67C458,-508.15 458,-496.04 458,-484.25"/>
<polygon fill="red" stroke="red" stroke-width="0.19" points="461.5,-484 458,-474 454.5,-484 461.5,-484"/>
<text text-anchor="middle" x="472" y="-494.64" font-family="Times,serif" font-size="9.00">0.029</text>
</g>
<!-- key 9490
bias 0.000
h_scaling 0.957&#45;&gt;output
bias 0.000
h_scaling 0.000 -->
<g id="edge19" class="edge">
<title>key 9490
bias 0.000
h_scaling 0.957&#45;&gt;output
bias 0.000
h_scaling 0.000</title>
<path fill="none" stroke="blue" stroke-width="3.1" d="M227.55,-1040.48C229.84,-1028.23 232.26,-1015.28 234.61,-1002.73"/>
<polygon fill="blue" stroke="blue" stroke-width="3.1" points="238.07,-1003.25 236.46,-992.78 231.19,-1001.97 238.07,-1003.25"/>
<text text-anchor="middle" x="247.5" y="-1014.48" font-family="Times,serif" font-size="9.00">&#45;1.000</text>
</g>
<!-- key 9490
bias 0.000
h_scaling 0.957&#45;&gt;key 9490
bias 0.000
h_scaling 0.957 -->
<g id="edge7" class="edge">
<title>key 9490
bias 0.000
h_scaling 0.957&#45;&gt;key 9490
bias 0.000
h_scaling 0.957</title>
<path fill="none" stroke="red" stroke-width="2.59" d="M277.94,-1118.61C289.5,-1116.73 297.64,-1111.63 297.64,-1103.31 297.64,-1097.6 293.79,-1093.4 287.63,-1090.73"/>
<polygon fill="red" stroke="red" stroke-width="2.59" points="288.52,-1087.34 277.94,-1088.02 286.63,-1094.08 288.52,-1087.34"/>
<text text-anchor="middle" x="311.64" y="-1101.11" font-family="Times,serif" font-size="9.00">0.829</text>
</g>
<!-- key 9490
bias 0.000
h_scaling 0.957&#45;&gt;key 37910
bias 0.000
h_scaling 0.584 -->
<g id="edge9" class="edge">
<title>key 9490
bias 0.000
h_scaling 0.957&#45;&gt;key 37910
bias 0.000
h_scaling 0.584</title>
<path fill="none" stroke="blue" stroke-width="3.09" d="M272.66,-1073.66C293.15,-1060.53 314.54,-1043.07 328,-1021.68 338.13,-1005.57 354.5,-902.31 365,-829.84"/>
<polygon fill="blue" stroke="blue" stroke-width="3.09" points="368.48,-830.23 366.45,-819.83 361.56,-829.23 368.48,-830.23"/>
<text text-anchor="middle" x="374.5" y="-927.84" font-family="Times,serif" font-size="9.00">&#45;0.998</text>
</g>
<!-- key 9490
bias 0.000
h_scaling 0.957&#45;&gt;key 474
bias 0.000
h_scaling 0.053 -->
<g id="edge2" class="edge">
<title>key 9490
bias 0.000
h_scaling 0.957&#45;&gt;key 474
bias 0.000
h_scaling 0.053</title>
<path fill="none" stroke="red" stroke-width="2.22" d="M158.92,-1074.52C109.53,-1046.02 46,-996.6 46,-931.04 46,-931.04 46,-931.04 46,-582.48 46,-538.4 71.12,-495.68 96.31,-463.94"/>
<polygon fill="red" stroke="red" stroke-width="2.22" points="99.09,-466.07 102.7,-456.11 93.67,-461.64 99.09,-466.07"/>
<text text-anchor="middle" x="60" y="-754.56" font-family="Times,serif" font-size="9.00">0.707</text>
</g>
<!-- key 37910
bias 0.000
h_scaling 0.584&#45;&gt;output
bias 0.000
h_scaling 0.000 -->
<g id="edge10" class="edge">
<title>key 37910
bias 0.000
h_scaling 0.584&#45;&gt;output
bias 0.000
h_scaling 0.000</title>
<path fill="none" stroke="red" stroke-width="3.1" d="M338.51,-809.26C329.29,-822.11 319.35,-835.8 310,-848.4 304.51,-855.79 298.68,-863.51 292.89,-871.13"/>
<polygon fill="red" stroke="red" stroke-width="3.1" points="289.91,-869.26 286.63,-879.33 295.48,-873.51 289.91,-869.26"/>
<text text-anchor="middle" x="331" y="-841.2" font-family="Times,serif" font-size="9.00">1.000</text>
</g>
<!-- key 37910
bias 0.000
h_scaling 0.584&#45;&gt;key 71362
bias 0.000
h_scaling 1.000 -->
<g id="edge13" class="edge">
<title>key 37910
bias 0.000
h_scaling 0.584&#45;&gt;key 71362
bias 0.000
h_scaling 1.000</title>
<path fill="none" stroke="red" stroke-width="2.54" d="M402.41,-699.2C409.99,-683.56 418.28,-666.45 426.09,-650.33"/>
<polygon fill="red" stroke="red" stroke-width="2.54" points="429.41,-651.5 430.62,-640.98 423.11,-648.45 429.41,-651.5"/>
<text text-anchor="middle" x="430" y="-667.92" font-family="Times,serif" font-size="9.00">0.814</text>
</g>
<!-- key 27575
bias 0.000
h_scaling 0.919&#45;&gt;key 9490
bias 0.000
h_scaling 0.957 -->
<g id="edge5" class="edge">
<title>key 27575
bias 0.000
h_scaling 0.919&#45;&gt;key 9490
bias 0.000
h_scaling 0.957</title>
<path fill="none" stroke="blue" stroke-width="2.71" d="M127.79,-814.32C107.43,-863.24 87.32,-935.11 111,-993.68 120.89,-1018.15 139.24,-1040.17 157.86,-1057.89"/>
<polygon fill="blue" stroke="blue" stroke-width="2.71" points="155.54,-1060.51 165.27,-1064.71 160.28,-1055.36 155.54,-1060.51"/>
<text text-anchor="middle" x="126.5" y="-927.84" font-family="Times,serif" font-size="9.00">&#45;0.869</text>
</g>
<!-- key 474
bias 0.000
h_scaling 0.053&#45;&gt;output
bias 0.000
h_scaling 0.000 -->
<g id="edge1" class="edge">
<title>key 474
bias 0.000
h_scaling 0.053&#45;&gt;output
bias 0.000
h_scaling 0.000</title>
<path fill="none" stroke="blue" stroke-width="3.1" d="M168,-470.3C187.15,-526.77 214.58,-614.66 229,-693.12 238.94,-747.24 243.68,-809.3 245.94,-856.18"/>
<polygon fill="blue" stroke="blue" stroke-width="3.1" points="242.45,-856.42 246.4,-866.25 249.44,-856.1 242.45,-856.42"/>
<text text-anchor="middle" x="239.5" y="-667.92" font-family="Times,serif" font-size="9.00">&#45;1.000</text>
</g>
<!-- key 474
bias 0.000
h_scaling 0.053&#45;&gt;key 311553
bias 0.000
h_scaling 0.000 -->
<g id="edge24" class="edge">
<title>key 474
bias 0.000
h_scaling 0.053&#45;&gt;key 311553
bias 0.000
h_scaling 0.000</title>
<path fill="none" stroke="red" stroke-width="2.48" d="M129.37,-348.81C125.53,-335.64 121.42,-321.58 117.48,-308.07"/>
<polygon fill="red" stroke="red" stroke-width="2.48" points="120.8,-306.96 114.64,-298.34 114.08,-308.92 120.8,-306.96"/>
<text text-anchor="middle" x="136" y="-321.36" font-family="Times,serif" font-size="9.00">0.793</text>
</g>
<!-- key 474
bias 0.000
h_scaling 0.053&#45;&gt;key 474
bias 0.000
h_scaling 0.053 -->
<g id="edge15" class="edge">
<title>key 474
bias 0.000
h_scaling 0.053&#45;&gt;key 474
bias 0.000
h_scaling 0.053</title>
<path fill="none" stroke="red" stroke-width="2.48" d="M208.94,-425.5C220.5,-423.61 228.64,-418.51 228.64,-410.2 228.64,-404.48 224.79,-400.29 218.63,-397.61"/>
<polygon fill="red" stroke="red" stroke-width="2.48" points="219.52,-394.22 208.94,-394.9 217.63,-400.96 219.52,-394.22"/>
<text text-anchor="middle" x="242.64" y="-408" font-family="Times,serif" font-size="9.00">0.794</text>
</g>
<!-- key 175419
bias 0.000
h_scaling 1.000&#45;&gt;key 474
bias 0.000
h_scaling 0.053 -->
<g id="edge20" class="edge">
<title>key 175419
bias 0.000
h_scaling 1.000&#45;&gt;key 474
bias 0.000
h_scaling 0.053</title>
<path fill="none" stroke="blue" stroke-width="1.02" d="M162.21,-125.47C165.44,-140.96 168.36,-157.65 170,-173.28 175.89,-229.54 175.89,-244.3 170,-300.56 168.71,-312.89 166.62,-325.88 164.2,-338.42"/>
<polygon fill="blue" stroke="blue" stroke-width="1.02" points="160.74,-337.87 162.21,-348.36 167.61,-339.25 160.74,-337.87"/>
<text text-anchor="middle" x="189.5" y="-234.72" font-family="Times,serif" font-size="9.00">&#45;0.307</text>
</g>
<!-- key 250879
bias 0.000
h_scaling 0.941&#45;&gt;key 37910
bias 0.000
h_scaling 0.584 -->
<g id="edge22" class="edge">
<title>key 250879
bias 0.000
h_scaling 0.941&#45;&gt;key 37910
bias 0.000
h_scaling 0.584</title>
<path fill="none" stroke="red" stroke-width="1.69" d="M404.64,-445.13C388.58,-457.89 372.46,-473.75 362,-491.84 327.87,-550.84 337.74,-630.25 352.03,-686.51"/>
<polygon fill="red" stroke="red" stroke-width="1.69" points="348.7,-687.61 354.64,-696.39 355.46,-685.82 348.7,-687.61"/>
<text text-anchor="middle" x="363" y="-581.28" font-family="Times,serif" font-size="9.00">0.530</text>
</g>
</g>
</svg>
