<?xml version="1.0" encoding="UTF-8" standalone="no"?>
<!DOCTYPE svg PUBLIC "-//W3C//DTD SVG 1.1//EN"
 "http://www.w3.org/Graphics/SVG/1.1/DTD/svg11.dtd">
<!-- Generated by graphviz version 2.43.0 (0)
 -->
<!-- Title: %3 Pages: 1 -->
<svg width="463pt" height="1212pt"
 viewBox="0.00 0.00 463.00 1211.95" xmlns="http://www.w3.org/2000/svg" xmlns:xlink="http://www.w3.org/1999/xlink">
<g id="graph0" class="graph" transform="scale(1 1) rotate(0) translate(4 1207.95)">
<title>%3</title>
<polygon fill="white" stroke="transparent" points="-4,4 -4,-1207.95 459,-1207.95 459,4 -4,4"/>
<!-- ready -->
<g id="node1" class="node">
<title>ready</title>
<polygon fill="yellow" stroke="black" points="59.5,-1203.95 16.5,-1203.95 16.5,-1185.95 59.5,-1185.95 59.5,-1203.95"/>
<text text-anchor="middle" x="38" y="-1192.75" font-family="Times,serif" font-size="9.00">ready</text>
</g>
<!-- key 6528
bias 1.000
h_scaling 0.328 -->
<g id="node4" class="node">
<title>key 6528
bias 1.000
h_scaling 0.328</title>
<ellipse fill="white" stroke="black" cx="251" cy="-1076.31" rx="63.78" ry="63.78"/>
<text text-anchor="middle" x="251" y="-1084.11" font-family="Times,serif" font-size="9.00">key 6528</text>
<text text-anchor="middle" x="251" y="-1074.11" font-family="Times,serif" font-size="9.00">bias 1.000</text>
<text text-anchor="middle" x="251" y="-1064.11" font-family="Times,serif" font-size="9.00">h_scaling 0.328</text>
</g>
<!-- ready&#45;&gt;key 6528
bias 1.000
h_scaling 0.328 -->
<g id="edge4" class="edge">
<title>ready&#45;&gt;key 6528
bias 1.000
h_scaling 0.328</title>
<path fill="none" stroke="blue" stroke-width="0.1" d="M52.64,-1185.94C79.84,-1171.04 139.65,-1138.29 186.52,-1112.62"/>
<polygon fill="blue" stroke="blue" stroke-width="0.1" points="188.32,-1115.63 195.41,-1107.76 184.96,-1109.49 188.32,-1115.63"/>
</g>
<!-- key 7195
bias 0.314
h_scaling 0.024 -->
<g id="node8" class="node">
<title>key 7195
bias 0.314
h_scaling 0.024</title>
<ellipse fill="white" stroke="black" cx="158" cy="-738.76" rx="63.78" ry="63.78"/>
<text text-anchor="middle" x="158" y="-746.56" font-family="Times,serif" font-size="9.00">key 7195</text>
<text text-anchor="middle" x="158" y="-736.56" font-family="Times,serif" font-size="9.00">bias 0.314</text>
<text text-anchor="middle" x="158" y="-726.56" font-family="Times,serif" font-size="9.00">h_scaling 0.024</text>
</g>
<!-- ready&#45;&gt;key 7195
bias 0.314
h_scaling 0.024 -->
<g id="edge12" class="edge">
<title>ready&#45;&gt;key 7195
bias 0.314
h_scaling 0.024</title>
<path fill="none" stroke="blue" stroke-width="0.1" d="M38.27,-1185.82C39.33,-1158.36 44.08,-1066.8 62,-993.68 78.02,-928.31 106.04,-856.86 127.68,-806.46"/>
<polygon fill="blue" stroke="blue" stroke-width="0.1" points="131.03,-807.55 131.79,-796.98 124.6,-804.77 131.03,-807.55"/>
</g>
<!-- key 7998
bias 0.948
h_scaling 1.000 -->
<g id="node10" class="node">
<title>key 7998
bias 0.948
h_scaling 1.000</title>
<ellipse fill="white" stroke="black" cx="80" cy="-63.64" rx="63.78" ry="63.78"/>
<text text-anchor="middle" x="80" y="-71.44" font-family="Times,serif" font-size="9.00">key 7998</text>
<text text-anchor="middle" x="80" y="-61.44" font-family="Times,serif" font-size="9.00">bias 0.948</text>
<text text-anchor="middle" x="80" y="-51.44" font-family="Times,serif" font-size="9.00">h_scaling 1.000</text>
</g>
<!-- ready&#45;&gt;key 7998
bias 0.948
h_scaling 1.000 -->
<g id="edge5" class="edge">
<title>ready&#45;&gt;key 7998
bias 0.948
h_scaling 1.000</title>
<path fill="none" stroke="red" stroke-width="0.57" d="M33.34,-1185.77C23.19,-1167.14 0,-1119.91 0,-1077.31 0,-1077.31 0,-1077.31 0,-235.92 0,-196.02 18.04,-155.39 36.99,-123.72"/>
<polygon fill="red" stroke="red" stroke-width="0.57" points="40.08,-125.38 42.34,-115.03 34.12,-121.71 40.08,-125.38"/>
<text text-anchor="middle" x="14" y="-649.92" font-family="Times,serif" font-size="9.00">0.016</text>
</g>
<!-- go -->
<g id="node2" class="node">
<title>go</title>
<polygon fill="green" stroke="black" points="357,-1203.95 329,-1203.95 329,-1185.95 357,-1185.95 357,-1203.95"/>
<text text-anchor="middle" x="343" y="-1192.75" font-family="Times,serif" font-size="9.00">go</text>
</g>
<!-- go&#45;&gt;key 6528
bias 1.000
h_scaling 0.328 -->
<g id="edge9" class="edge">
<title>go&#45;&gt;key 6528
bias 1.000
h_scaling 0.328</title>
<path fill="none" stroke="red" stroke-width="0.66" d="M328.87,-1187.54C320.06,-1183.02 308.92,-1176.28 301,-1167.95 294.13,-1160.73 287.88,-1152.37 282.32,-1143.72"/>
<polygon fill="red" stroke="red" stroke-width="0.66" points="285.19,-1141.7 276.99,-1135 279.22,-1145.36 285.19,-1141.7"/>
<text text-anchor="middle" x="315" y="-1160.75" font-family="Times,serif" font-size="9.00">0.019</text>
</g>
<!-- key 757
bias 0.770
h_scaling 0.955 -->
<g id="node7" class="node">
<title>key 757
bias 0.770
h_scaling 0.955</title>
<ellipse fill="white" stroke="black" cx="302" cy="-236.92" rx="63.78" ry="63.78"/>
<text text-anchor="middle" x="302" y="-244.72" font-family="Times,serif" font-size="9.00">key 757</text>
<text text-anchor="middle" x="302" y="-234.72" font-family="Times,serif" font-size="9.00">bias 0.770</text>
<text text-anchor="middle" x="302" y="-224.72" font-family="Times,serif" font-size="9.00">h_scaling 0.955</text>
</g>
<!-- go&#45;&gt;key 757
bias 0.770
h_scaling 0.955 -->
<g id="edge1" class="edge">
<title>go&#45;&gt;key 757
bias 0.770
h_scaling 0.955</title>
<path fill="none" stroke="red" stroke-width="1.05" d="M343,-1185.75C343,-1166.71 343,-1118.02 343,-1077.31 343,-1077.31 343,-1077.31 343,-400.2 343,-368.88 335.73,-335.16 327.31,-306.62"/>
<polygon fill="red" stroke="red" stroke-width="1.05" points="330.57,-305.29 324.3,-296.75 323.87,-307.34 330.57,-305.29"/>
<text text-anchor="middle" x="357" y="-736.56" font-family="Times,serif" font-size="9.00">0.032</text>
</g>
<!-- go&#45;&gt;key 7998
bias 0.948
h_scaling 1.000 -->
<g id="edge10" class="edge">
<title>go&#45;&gt;key 7998
bias 0.948
h_scaling 1.000</title>
<path fill="none" stroke="blue" stroke-width="0.1" d="M357.18,-1187.49C387.32,-1172.67 455,-1133.18 455,-1077.31 455,-1077.31 455,-1077.31 455,-235.92 455,-180.69 417.47,-173.5 370,-145.28 342.76,-129.08 331.58,-135.6 301,-127.28 250.66,-113.58 194.07,-97.53 150.75,-85.1"/>
<polygon fill="blue" stroke="blue" stroke-width="0.1" points="151.45,-81.66 140.88,-82.27 149.52,-88.39 151.45,-81.66"/>
</g>
<!-- output
bias 1.000
h_scaling 0.583 -->
<g id="node3" class="node">
<title>output
bias 1.000
h_scaling 0.583</title>
<ellipse fill="lightblue" stroke="black" cx="251" cy="-912.04" rx="63.78" ry="63.78"/>
<text text-anchor="middle" x="251" y="-919.84" font-family="Times,serif" font-size="9.00">output</text>
<text text-anchor="middle" x="251" y="-909.84" font-family="Times,serif" font-size="9.00">bias 1.000</text>
<text text-anchor="middle" x="251" y="-899.84" font-family="Times,serif" font-size="9.00">h_scaling 0.583</text>
</g>
<!-- output
bias 1.000
h_scaling 0.583&#45;&gt;key 7195
bias 0.314
h_scaling 0.024 -->
<g id="edge16" class="edge">
<title>output
bias 1.000
h_scaling 0.583&#45;&gt;key 7195
bias 0.314
h_scaling 0.024</title>
<path fill="none" stroke="red" stroke-width="0.41" d="M220.81,-855.43C211.94,-839.11 202.18,-821.12 193.04,-804.3"/>
<polygon fill="red" stroke="red" stroke-width="0.41" points="195.89,-802.2 188.04,-795.09 189.74,-805.55 195.89,-802.2"/>
<text text-anchor="middle" x="218" y="-823.2" font-family="Times,serif" font-size="9.00">0.010</text>
</g>
<!-- key 6528
bias 1.000
h_scaling 0.328&#45;&gt;output
bias 1.000
h_scaling 0.583 -->
<g id="edge3" class="edge">
<title>key 6528
bias 1.000
h_scaling 0.328&#45;&gt;output
bias 1.000
h_scaling 0.583</title>
<path fill="none" stroke="blue" stroke-width="0.1" d="M251,-1012.57C251,-1003.92 251,-994.97 251,-986.15"/>
<polygon fill="blue" stroke="blue" stroke-width="0.1" points="254.5,-985.88 251,-975.88 247.5,-985.88 254.5,-985.88"/>
</g>
<!-- key 17571
bias &#45;0.839
h_scaling 0.246 -->
<g id="node5" class="node">
<title>key 17571
bias &#45;0.839
h_scaling 0.246</title>
<ellipse fill="white" stroke="black" cx="374" cy="-63.64" rx="63.78" ry="63.78"/>
<text text-anchor="middle" x="374" y="-71.44" font-family="Times,serif" font-size="9.00">key 17571</text>
<text text-anchor="middle" x="374" y="-61.44" font-family="Times,serif" font-size="9.00">bias &#45;0.839</text>
<text text-anchor="middle" x="374" y="-51.44" font-family="Times,serif" font-size="9.00">h_scaling 0.246</text>
</g>
<!-- key 17571
bias &#45;0.839
h_scaling 0.246&#45;&gt;key 6528
bias 1.000
h_scaling 0.328 -->
<g id="edge15" class="edge">
<title>key 17571
bias &#45;0.839
h_scaling 0.246&#45;&gt;key 6528
bias 1.000
h_scaling 0.328</title>
<path fill="none" stroke="red" stroke-width="0.23" d="M387.38,-126.16C393.32,-158.64 399,-199.26 399,-235.92 399,-913.04 399,-913.04 399,-913.04 399,-966.43 354.71,-1009.97 314.59,-1038.46"/>
<polygon fill="red" stroke="red" stroke-width="0.23" points="312.36,-1035.75 306.11,-1044.31 316.33,-1041.51 312.36,-1035.75"/>
<text text-anchor="middle" x="413" y="-563.28" font-family="Times,serif" font-size="9.00">0.004</text>
</g>
<!-- key 15337
bias 0.067
h_scaling 0.412 -->
<g id="node6" class="node">
<title>key 15337
bias 0.067
h_scaling 0.412</title>
<ellipse fill="white" stroke="black" cx="172" cy="-565.48" rx="63.78" ry="63.78"/>
<text text-anchor="middle" x="172" y="-573.28" font-family="Times,serif" font-size="9.00">key 15337</text>
<text text-anchor="middle" x="172" y="-563.28" font-family="Times,serif" font-size="9.00">bias 0.067</text>
<text text-anchor="middle" x="172" y="-553.28" font-family="Times,serif" font-size="9.00">h_scaling 0.412</text>
</g>
<!-- key 11676
bias 0.289
h_scaling 0.147 -->
<g id="node9" class="node">
<title>key 11676
bias 0.289
h_scaling 0.147</title>
<ellipse fill="white" stroke="black" cx="210" cy="-401.2" rx="63.78" ry="63.78"/>
<text text-anchor="middle" x="210" y="-409" font-family="Times,serif" font-size="9.00">key 11676</text>
<text text-anchor="middle" x="210" y="-399" font-family="Times,serif" font-size="9.00">bias 0.289</text>
<text text-anchor="middle" x="210" y="-389" font-family="Times,serif" font-size="9.00">h_scaling 0.147</text>
</g>
<!-- key 15337
bias 0.067
h_scaling 0.412&#45;&gt;key 11676
bias 0.289
h_scaling 0.147 -->
<g id="edge13" class="edge">
<title>key 15337
bias 0.067
h_scaling 0.412&#45;&gt;key 11676
bias 0.289
h_scaling 0.147</title>
<path fill="none" stroke="blue" stroke-width="0.1" d="M186.37,-503.13C188.65,-493.37 191.03,-483.2 193.37,-473.24"/>
<polygon fill="blue" stroke="blue" stroke-width="0.1" points="196.8,-473.9 195.68,-463.37 189.99,-472.3 196.8,-473.9"/>
</g>
<!-- key 757
bias 0.770
h_scaling 0.955&#45;&gt;output
bias 1.000
h_scaling 0.583 -->
<g id="edge2" class="edge">
<title>key 757
bias 0.770
h_scaling 0.955&#45;&gt;output
bias 1.000
h_scaling 0.583</title>
<path fill="none" stroke="blue" stroke-width="0.1" d="M301.71,-300.99C300.43,-409.66 294.25,-638.99 266,-830.4 265.56,-833.4 265.08,-836.46 264.59,-839.55"/>
<polygon fill="blue" stroke="blue" stroke-width="0.1" points="261.13,-839.04 262.94,-849.48 268.03,-840.18 261.13,-839.04"/>
</g>
<!-- key 757
bias 0.770
h_scaling 0.955&#45;&gt;key 17571
bias &#45;0.839
h_scaling 0.246 -->
<g id="edge14" class="edge">
<title>key 757
bias 0.770
h_scaling 0.955&#45;&gt;key 17571
bias &#45;0.839
h_scaling 0.246</title>
<path fill="none" stroke="red" stroke-width="0.14" d="M326.38,-177.93C332.59,-163.14 339.33,-147.12 345.72,-131.91"/>
<polygon fill="red" stroke="red" stroke-width="0.14" points="349,-133.14 349.65,-122.57 342.55,-130.43 349,-133.14"/>
<text text-anchor="middle" x="352" y="-148.08" font-family="Times,serif" font-size="9.00">0.001</text>
</g>
<!-- key 757
bias 0.770
h_scaling 0.955&#45;&gt;key 7998
bias 0.948
h_scaling 1.000 -->
<g id="edge8" class="edge">
<title>key 757
bias 0.770
h_scaling 0.955&#45;&gt;key 7998
bias 0.948
h_scaling 1.000</title>
<path fill="none" stroke="red" stroke-width="0.31" d="M251.9,-197.27C218.16,-171.23 173.54,-136.81 138.22,-109.56"/>
<polygon fill="red" stroke="red" stroke-width="0.31" points="139.97,-106.49 129.92,-103.15 135.7,-112.03 139.97,-106.49"/>
<text text-anchor="middle" x="205" y="-148.08" font-family="Times,serif" font-size="9.00">0.007</text>
</g>
<!-- key 7195
bias 0.314
h_scaling 0.024&#45;&gt;key 15337
bias 0.067
h_scaling 0.412 -->
<g id="edge18" class="edge">
<title>key 7195
bias 0.314
h_scaling 0.024&#45;&gt;key 15337
bias 0.067
h_scaling 0.412</title>
<path fill="none" stroke="blue" stroke-width="0.1" d="M163.13,-674.95C164.08,-663.36 165.08,-651.16 166.05,-639.3"/>
<polygon fill="blue" stroke="blue" stroke-width="0.1" points="169.56,-639.24 166.89,-628.99 162.59,-638.67 169.56,-639.24"/>
</g>
<!-- key 7195
bias 0.314
h_scaling 0.024&#45;&gt;key 7998
bias 0.948
h_scaling 1.000 -->
<g id="edge7" class="edge">
<title>key 7195
bias 0.314
h_scaling 0.024&#45;&gt;key 7998
bias 0.948
h_scaling 1.000</title>
<path fill="none" stroke="blue" stroke-width="0.1" d="M121.06,-686.86C100.9,-654.13 80,-609.77 80,-566.48 80,-566.48 80,-566.48 80,-235.92 80,-203.59 80,-167.83 80,-137.39"/>
<polygon fill="blue" stroke="blue" stroke-width="0.1" points="83.5,-137.28 80,-127.28 76.5,-137.28 83.5,-137.28"/>
</g>
<!-- key 11676
bias 0.289
h_scaling 0.147&#45;&gt;output
bias 1.000
h_scaling 0.583 -->
<g id="edge17" class="edge">
<title>key 11676
bias 0.289
h_scaling 0.147&#45;&gt;output
bias 1.000
h_scaling 0.583</title>
<path fill="none" stroke="red" stroke-width="0.39" d="M233.95,-460.36C238.48,-473.76 242.56,-488.12 245,-501.84 256.11,-564.22 254.65,-738.33 252.74,-838.19"/>
<polygon fill="red" stroke="red" stroke-width="0.39" points="249.24,-838.14 252.55,-848.21 256.24,-838.28 249.24,-838.14"/>
<text text-anchor="middle" x="267" y="-649.92" font-family="Times,serif" font-size="9.00">0.010</text>
</g>
<!-- key 11676
bias 0.289
h_scaling 0.147&#45;&gt;key 757
bias 0.770
h_scaling 0.955 -->
<g id="edge11" class="edge">
<title>key 11676
bias 0.289
h_scaling 0.147&#45;&gt;key 757
bias 0.770
h_scaling 0.955</title>
<path fill="none" stroke="blue" stroke-width="0.1" d="M241.15,-345.26C249.13,-331.17 257.79,-315.9 266,-301.42"/>
<polygon fill="blue" stroke="blue" stroke-width="0.1" points="269.15,-302.95 271.04,-292.53 263.06,-299.5 269.15,-302.95"/>
</g>
<!-- key 7998
bias 0.948
h_scaling 1.000&#45;&gt;key 6528
bias 1.000
h_scaling 0.328 -->
<g id="edge6" class="edge">
<title>key 7998
bias 0.948
h_scaling 1.000&#45;&gt;key 6528
bias 1.000
h_scaling 0.328</title>
<path fill="none" stroke="blue" stroke-width="0.1" d="M60.11,-124.17C50.92,-156.78 42,-198.15 42,-235.92 42,-483.84 42,-483.84 42,-483.84 42,-710.64 57.06,-783.81 178,-975.68 186.71,-989.5 196.7,-1003.92 206.44,-1017.35"/>
<polygon fill="blue" stroke="blue" stroke-width="0.1" points="203.73,-1019.58 212.46,-1025.58 209.38,-1015.44 203.73,-1019.58"/>
</g>
</g>
</svg>
