<?xml version="1.0" encoding="UTF-8" standalone="no"?>
<!DOCTYPE svg PUBLIC "-//W3C//DTD SVG 1.1//EN"
 "http://www.w3.org/Graphics/SVG/1.1/DTD/svg11.dtd">
<!-- Generated by graphviz version 2.43.0 (0)
 -->
<!-- Title: %3 Pages: 1 -->
<svg width="548pt" height="1239pt"
 viewBox="0.00 0.00 548.00 1238.95" xmlns="http://www.w3.org/2000/svg" xmlns:xlink="http://www.w3.org/1999/xlink">
<g id="graph0" class="graph" transform="scale(1 1) rotate(0) translate(4 1234.95)">
<title>%3</title>
<polygon fill="white" stroke="transparent" points="-4,4 -4,-1234.95 544,-1234.95 544,4 -4,4"/>
<!-- ready -->
<g id="node1" class="node">
<title>ready</title>
<polygon fill="yellow" stroke="black" points="59.5,-1230.95 16.5,-1230.95 16.5,-1212.95 59.5,-1212.95 59.5,-1230.95"/>
<text text-anchor="middle" x="38" y="-1219.75" font-family="Times,serif" font-size="9.00">ready</text>
</g>
<!-- key 6528
bias 1.000
h_scaling 0.328 -->
<g id="node4" class="node">
<title>key 6528
bias 1.000
h_scaling 0.328</title>
<ellipse fill="white" stroke="black" cx="297" cy="-1103.31" rx="63.78" ry="63.78"/>
<text text-anchor="middle" x="297" y="-1111.11" font-family="Times,serif" font-size="9.00">key 6528</text>
<text text-anchor="middle" x="297" y="-1101.11" font-family="Times,serif" font-size="9.00">bias 1.000</text>
<text text-anchor="middle" x="297" y="-1091.11" font-family="Times,serif" font-size="9.00">h_scaling 0.328</text>
</g>
<!-- ready&#45;&gt;key 6528
bias 1.000
h_scaling 0.328 -->
<g id="edge4" class="edge">
<title>ready&#45;&gt;key 6528
bias 1.000
h_scaling 0.328</title>
<path fill="none" stroke="blue" stroke-width="1.88" d="M55.8,-1212.94C91.11,-1197.03 171.64,-1160.77 229.96,-1134.51"/>
<polygon fill="blue" stroke="blue" stroke-width="1.88" points="231.43,-1137.68 239.11,-1130.38 228.56,-1131.3 231.43,-1137.68"/>
<text text-anchor="middle" x="129.5" y="-1187.75" font-family="Times,serif" font-size="9.00">&#45;0.594</text>
</g>
<!-- key 7195
bias 0.314
h_scaling 0.024 -->
<g id="node8" class="node">
<title>key 7195
bias 0.314
h_scaling 0.024</title>
<ellipse fill="white" stroke="black" cx="186" cy="-756.76" rx="63.78" ry="63.78"/>
<text text-anchor="middle" x="186" y="-764.56" font-family="Times,serif" font-size="9.00">key 7195</text>
<text text-anchor="middle" x="186" y="-754.56" font-family="Times,serif" font-size="9.00">bias 0.314</text>
<text text-anchor="middle" x="186" y="-744.56" font-family="Times,serif" font-size="9.00">h_scaling 0.024</text>
</g>
<!-- ready&#45;&gt;key 7195
bias 0.314
h_scaling 0.024 -->
<g id="edge12" class="edge">
<title>ready&#45;&gt;key 7195
bias 0.314
h_scaling 0.024</title>
<path fill="none" stroke="blue" stroke-width="1.04" d="M36.56,-1212.77C31.87,-1184.33 18.46,-1087.42 39,-1011.68 58.85,-938.48 105.33,-864.54 140.75,-815.47"/>
<polygon fill="blue" stroke="blue" stroke-width="1.04" points="143.71,-817.35 146.78,-807.21 138.06,-813.23 143.71,-817.35"/>
<text text-anchor="middle" x="54.5" y="-1014.48" font-family="Times,serif" font-size="9.00">&#45;0.315</text>
</g>
<!-- key 7998
bias 0.948
h_scaling 1.000 -->
<g id="node10" class="node">
<title>key 7998
bias 0.948
h_scaling 1.000</title>
<ellipse fill="white" stroke="black" cx="113" cy="-63.64" rx="63.78" ry="63.78"/>
<text text-anchor="middle" x="113" y="-71.44" font-family="Times,serif" font-size="9.00">key 7998</text>
<text text-anchor="middle" x="113" y="-61.44" font-family="Times,serif" font-size="9.00">bias 0.948</text>
<text text-anchor="middle" x="113" y="-51.44" font-family="Times,serif" font-size="9.00">h_scaling 1.000</text>
</g>
<!-- ready&#45;&gt;key 7998
bias 0.948
h_scaling 1.000 -->
<g id="edge5" class="edge">
<title>ready&#45;&gt;key 7998
bias 0.948
h_scaling 1.000</title>
<path fill="none" stroke="red" stroke-width="1.59" d="M33.34,-1212.77C23.19,-1194.14 0,-1146.91 0,-1104.31 0,-1104.31 0,-1104.31 0,-235.92 0,-189.25 29.59,-145.5 58.48,-113.89"/>
<polygon fill="red" stroke="red" stroke-width="1.59" points="61.11,-116.21 65.41,-106.53 56.01,-111.42 61.11,-116.21"/>
<text text-anchor="middle" x="14" y="-667.92" font-family="Times,serif" font-size="9.00">0.497</text>
</g>
<!-- go -->
<g id="node2" class="node">
<title>go</title>
<polygon fill="green" stroke="black" points="411,-1230.95 383,-1230.95 383,-1212.95 411,-1212.95 411,-1230.95"/>
<text text-anchor="middle" x="397" y="-1219.75" font-family="Times,serif" font-size="9.00">go</text>
</g>
<!-- go&#45;&gt;key 6528
bias 1.000
h_scaling 0.328 -->
<g id="edge9" class="edge">
<title>go&#45;&gt;key 6528
bias 1.000
h_scaling 0.328</title>
<path fill="none" stroke="red" stroke-width="3.07" d="M382.66,-1214.16C373.98,-1209.56 363.06,-1202.9 355,-1194.95 346.97,-1187.04 339.51,-1177.83 332.78,-1168.36"/>
<polygon fill="red" stroke="red" stroke-width="3.07" points="335.6,-1166.29 327.07,-1160.01 329.82,-1170.24 335.6,-1166.29"/>
<text text-anchor="middle" x="369" y="-1187.75" font-family="Times,serif" font-size="9.00">0.989</text>
</g>
<!-- key 757
bias 0.770
h_scaling 0.955 -->
<g id="node7" class="node">
<title>key 757
bias 0.770
h_scaling 0.955</title>
<ellipse fill="white" stroke="black" cx="343" cy="-236.92" rx="63.78" ry="63.78"/>
<text text-anchor="middle" x="343" y="-244.72" font-family="Times,serif" font-size="9.00">key 757</text>
<text text-anchor="middle" x="343" y="-234.72" font-family="Times,serif" font-size="9.00">bias 0.770</text>
<text text-anchor="middle" x="343" y="-224.72" font-family="Times,serif" font-size="9.00">h_scaling 0.955</text>
</g>
<!-- go&#45;&gt;key 757
bias 0.770
h_scaling 0.955 -->
<g id="edge1" class="edge">
<title>go&#45;&gt;key 757
bias 0.770
h_scaling 0.955</title>
<path fill="none" stroke="red" stroke-width="2.66" d="M397,-1212.75C397,-1193.71 397,-1145.02 397,-1104.31 397,-1104.31 397,-1104.31 397,-842.4 397,-608.9 389.1,-549.84 357,-318.56 356.61,-315.72 356.19,-312.83 355.75,-309.91"/>
<polygon fill="red" stroke="red" stroke-width="2.66" points="359.19,-309.27 354.2,-299.93 352.28,-310.35 359.19,-309.27"/>
<text text-anchor="middle" x="410" y="-754.56" font-family="Times,serif" font-size="9.00">0.853</text>
</g>
<!-- go&#45;&gt;key 7998
bias 0.948
h_scaling 1.000 -->
<g id="edge10" class="edge">
<title>go&#45;&gt;key 7998
bias 0.948
h_scaling 1.000</title>
<path fill="none" stroke="blue" stroke-width="1.67" d="M411.18,-1214.49C441.32,-1199.67 509,-1160.18 509,-1104.31 509,-1104.31 509,-1104.31 509,-235.92 509,-176.26 462.4,-173.79 410,-145.28 382.16,-130.13 371.61,-135.48 341,-127.28 288.36,-113.18 229,-96.86 184.04,-84.41"/>
<polygon fill="blue" stroke="blue" stroke-width="1.67" points="184.96,-81.03 174.39,-81.74 183.09,-87.78 184.96,-81.03"/>
<text text-anchor="middle" x="524.5" y="-667.92" font-family="Times,serif" font-size="9.00">&#45;0.525</text>
</g>
<!-- output
bias 1.000
h_scaling 0.583 -->
<g id="node3" class="node">
<title>output
bias 1.000
h_scaling 0.583</title>
<ellipse fill="lightblue" stroke="black" cx="297" cy="-930.04" rx="63.78" ry="63.78"/>
<text text-anchor="middle" x="297" y="-937.84" font-family="Times,serif" font-size="9.00">output</text>
<text text-anchor="middle" x="297" y="-927.84" font-family="Times,serif" font-size="9.00">bias 1.000</text>
<text text-anchor="middle" x="297" y="-917.84" font-family="Times,serif" font-size="9.00">h_scaling 0.583</text>
</g>
<!-- output
bias 1.000
h_scaling 0.583&#45;&gt;key 7195
bias 0.314
h_scaling 0.024 -->
<g id="edge16" class="edge">
<title>output
bias 1.000
h_scaling 0.583&#45;&gt;key 7195
bias 0.314
h_scaling 0.024</title>
<path fill="none" stroke="red" stroke-width="0.48" d="M262.79,-876.25C251.08,-858.18 237.88,-837.81 225.77,-819.12"/>
<polygon fill="red" stroke="red" stroke-width="0.48" points="228.66,-817.15 220.29,-810.66 222.79,-820.96 228.66,-817.15"/>
<text text-anchor="middle" x="255" y="-841.2" font-family="Times,serif" font-size="9.00">0.126</text>
</g>
<!-- key 6528
bias 1.000
h_scaling 0.328&#45;&gt;output
bias 1.000
h_scaling 0.583 -->
<g id="edge3" class="edge">
<title>key 6528
bias 1.000
h_scaling 0.328&#45;&gt;output
bias 1.000
h_scaling 0.583</title>
<path fill="none" stroke="blue" stroke-width="3.1" d="M297,-1039.51C297,-1027.99 297,-1015.88 297,-1004.09"/>
<polygon fill="blue" stroke="blue" stroke-width="3.1" points="300.5,-1003.83 297,-993.83 293.5,-1003.83 300.5,-1003.83"/>
<text text-anchor="middle" x="312.5" y="-1014.48" font-family="Times,serif" font-size="9.00">&#45;1.000</text>
</g>
<!-- key 17571
bias &#45;0.839
h_scaling 0.246 -->
<g id="node5" class="node">
<title>key 17571
bias &#45;0.839
h_scaling 0.246</title>
<ellipse fill="white" stroke="black" cx="414" cy="-63.64" rx="63.78" ry="63.78"/>
<text text-anchor="middle" x="414" y="-71.44" font-family="Times,serif" font-size="9.00">key 17571</text>
<text text-anchor="middle" x="414" y="-61.44" font-family="Times,serif" font-size="9.00">bias &#45;0.839</text>
<text text-anchor="middle" x="414" y="-51.44" font-family="Times,serif" font-size="9.00">h_scaling 0.246</text>
</g>
<!-- key 17571
bias &#45;0.839
h_scaling 0.246&#45;&gt;key 6528
bias 1.000
h_scaling 0.328 -->
<g id="edge15" class="edge">
<title>key 17571
bias &#45;0.839
h_scaling 0.246&#45;&gt;key 6528
bias 1.000
h_scaling 0.328</title>
<path fill="none" stroke="red" stroke-width="1.45" d="M434.41,-124.13C443.85,-156.74 453,-198.1 453,-235.92 453,-931.04 453,-931.04 453,-931.04 453,-988.73 404.03,-1035.54 360.96,-1065.55"/>
<polygon fill="red" stroke="red" stroke-width="1.45" points="358.75,-1062.82 352.44,-1071.33 362.68,-1068.62 358.75,-1062.82"/>
<text text-anchor="middle" x="467" y="-581.28" font-family="Times,serif" font-size="9.00">0.451</text>
</g>
<!-- key 15337
bias 0.067
h_scaling 0.412 -->
<g id="node6" class="node">
<title>key 15337
bias 0.067
h_scaling 0.412</title>
<ellipse fill="white" stroke="black" cx="205" cy="-583.48" rx="63.78" ry="63.78"/>
<text text-anchor="middle" x="205" y="-591.28" font-family="Times,serif" font-size="9.00">key 15337</text>
<text text-anchor="middle" x="205" y="-581.28" font-family="Times,serif" font-size="9.00">bias 0.067</text>
<text text-anchor="middle" x="205" y="-571.28" font-family="Times,serif" font-size="9.00">h_scaling 0.412</text>
</g>
<!-- key 11676
bias 0.289
h_scaling 0.147 -->
<g id="node9" class="node">
<title>key 11676
bias 0.289
h_scaling 0.147</title>
<ellipse fill="white" stroke="black" cx="251" cy="-410.2" rx="63.78" ry="63.78"/>
<text text-anchor="middle" x="251" y="-418" font-family="Times,serif" font-size="9.00">key 11676</text>
<text text-anchor="middle" x="251" y="-408" font-family="Times,serif" font-size="9.00">bias 0.289</text>
<text text-anchor="middle" x="251" y="-398" font-family="Times,serif" font-size="9.00">h_scaling 0.147</text>
</g>
<!-- key 15337
bias 0.067
h_scaling 0.412&#45;&gt;key 11676
bias 0.289
h_scaling 0.147 -->
<g id="edge13" class="edge">
<title>key 15337
bias 0.067
h_scaling 0.412&#45;&gt;key 11676
bias 0.289
h_scaling 0.147</title>
<path fill="none" stroke="blue" stroke-width="0.32" d="M221.35,-521.61C224.8,-508.74 228.48,-495.05 232.03,-481.85"/>
<polygon fill="blue" stroke="blue" stroke-width="0.32" points="235.49,-482.44 234.71,-471.87 228.73,-480.62 235.49,-482.44"/>
<text text-anchor="middle" x="243.5" y="-494.64" font-family="Times,serif" font-size="9.00">&#45;0.074</text>
</g>
<!-- key 757
bias 0.770
h_scaling 0.955&#45;&gt;output
bias 1.000
h_scaling 0.583 -->
<g id="edge2" class="edge">
<title>key 757
bias 0.770
h_scaling 0.955&#45;&gt;output
bias 1.000
h_scaling 0.583</title>
<path fill="none" stroke="blue" stroke-width="3" d="M343,-300.56C343,-332.99 343,-373.22 343,-409.2 343,-757.76 343,-757.76 343,-757.76 343,-792.49 334.07,-829.86 324.08,-860.81"/>
<polygon fill="blue" stroke="blue" stroke-width="3" points="320.65,-860.03 320.81,-870.62 327.29,-862.24 320.65,-860.03"/>
<text text-anchor="middle" x="358.5" y="-581.28" font-family="Times,serif" font-size="9.00">&#45;0.966</text>
</g>
<!-- key 757
bias 0.770
h_scaling 0.955&#45;&gt;key 17571
bias &#45;0.839
h_scaling 0.246 -->
<g id="edge14" class="edge">
<title>key 757
bias 0.770
h_scaling 0.955&#45;&gt;key 17571
bias &#45;0.839
h_scaling 0.246</title>
<path fill="none" stroke="red" stroke-width="0.28" d="M367.04,-177.93C373.13,-163.22 379.74,-147.3 386.01,-132.16"/>
<polygon fill="red" stroke="red" stroke-width="0.28" points="389.27,-133.44 389.87,-122.86 382.8,-130.76 389.27,-133.44"/>
<text text-anchor="middle" x="392" y="-148.08" font-family="Times,serif" font-size="9.00">0.058</text>
</g>
<!-- key 757
bias 0.770
h_scaling 0.955&#45;&gt;key 7998
bias 0.948
h_scaling 1.000 -->
<g id="edge8" class="edge">
<title>key 757
bias 0.770
h_scaling 0.955&#45;&gt;key 7998
bias 0.948
h_scaling 1.000</title>
<path fill="none" stroke="red" stroke-width="0.65" d="M292.24,-198.12C256.7,-171.65 209.1,-136.2 171.89,-108.49"/>
<polygon fill="red" stroke="red" stroke-width="0.65" points="173.74,-105.51 163.63,-102.34 169.56,-111.12 173.74,-105.51"/>
<text text-anchor="middle" x="242" y="-148.08" font-family="Times,serif" font-size="9.00">0.184</text>
</g>
<!-- key 7195
bias 0.314
h_scaling 0.024&#45;&gt;key 15337
bias 0.067
h_scaling 0.412 -->
<g id="edge18" class="edge">
<title>key 7195
bias 0.314
h_scaling 0.024&#45;&gt;key 15337
bias 0.067
h_scaling 0.412</title>
<path fill="none" stroke="blue" stroke-width="2.98" d="M192.91,-693.44C194.23,-681.55 195.62,-669.02 196.97,-656.86"/>
<polygon fill="blue" stroke="blue" stroke-width="2.98" points="200.47,-657.08 198.09,-646.75 193.51,-656.3 200.47,-657.08"/>
<text text-anchor="middle" x="210.5" y="-667.92" font-family="Times,serif" font-size="9.00">&#45;0.962</text>
</g>
<!-- key 7195
bias 0.314
h_scaling 0.024&#45;&gt;key 7998
bias 0.948
h_scaling 1.000 -->
<g id="edge7" class="edge">
<title>key 7195
bias 0.314
h_scaling 0.024&#45;&gt;key 7998
bias 0.948
h_scaling 1.000</title>
<path fill="none" stroke="blue" stroke-width="2.05" d="M150.78,-703.41C132.12,-670.68 113,-626.82 113,-584.48 113,-584.48 113,-584.48 113,-235.92 113,-203.59 113,-167.83 113,-137.39"/>
<polygon fill="blue" stroke="blue" stroke-width="2.05" points="116.5,-137.28 113,-127.28 109.5,-137.28 116.5,-137.28"/>
<text text-anchor="middle" x="128.5" y="-408" font-family="Times,serif" font-size="9.00">&#45;0.651</text>
</g>
<!-- key 11676
bias 0.289
h_scaling 0.147&#45;&gt;output
bias 1.000
h_scaling 0.583 -->
<g id="edge17" class="edge">
<title>key 11676
bias 0.289
h_scaling 0.147&#45;&gt;output
bias 1.000
h_scaling 0.583</title>
<path fill="none" stroke="red" stroke-width="0.9" d="M268.27,-471.68C272.1,-487.25 275.7,-504.07 278,-519.84 295.05,-636.59 297.98,-773.87 297.93,-856.04"/>
<polygon fill="red" stroke="red" stroke-width="0.9" points="294.43,-856.27 297.91,-866.28 301.43,-856.29 294.43,-856.27"/>
<text text-anchor="middle" x="306" y="-667.92" font-family="Times,serif" font-size="9.00">0.267</text>
</g>
<!-- key 11676
bias 0.289
h_scaling 0.147&#45;&gt;key 757
bias 0.770
h_scaling 0.955 -->
<g id="edge11" class="edge">
<title>key 11676
bias 0.289
h_scaling 0.147&#45;&gt;key 757
bias 0.770
h_scaling 0.955</title>
<path fill="none" stroke="blue" stroke-width="2.53" d="M279.82,-352.97C285.77,-341.55 292.04,-329.64 298,-318.56 300.94,-313.09 304.02,-307.43 307.13,-301.77"/>
<polygon fill="blue" stroke="blue" stroke-width="2.53" points="310.27,-303.33 312.03,-292.89 304.14,-299.95 310.27,-303.33"/>
<text text-anchor="middle" x="313.5" y="-321.36" font-family="Times,serif" font-size="9.00">&#45;0.810</text>
</g>
<!-- key 7998
bias 0.948
h_scaling 1.000&#45;&gt;key 6528
bias 1.000
h_scaling 0.328 -->
<g id="edge6" class="edge">
<title>key 7998
bias 0.948
h_scaling 1.000&#45;&gt;key 6528
bias 1.000
h_scaling 0.328</title>
<path fill="none" stroke="blue" stroke-width="2.64" d="M83.5,-120.09C68.75,-152.84 54,-195.66 54,-235.92 54,-497.84 54,-497.84 54,-497.84 54,-643.58 58.33,-685.3 113,-820.4 147.31,-905.18 173.83,-917.21 224,-993.68 234.26,-1009.3 245.46,-1026.11 255.94,-1041.72"/>
<polygon fill="blue" stroke="blue" stroke-width="2.64" points="253.19,-1043.91 261.68,-1050.25 259,-1040 253.19,-1043.91"/>
<text text-anchor="middle" x="75.5" y="-581.28" font-family="Times,serif" font-size="9.00">&#45;0.847</text>
</g>
</g>
</svg>
