<?xml version="1.0" encoding="UTF-8" standalone="no"?>
<!DOCTYPE svg PUBLIC "-//W3C//DTD SVG 1.1//EN"
 "http://www.w3.org/Graphics/SVG/1.1/DTD/svg11.dtd">
<!-- Generated by graphviz version 8.0.5 (20230430.1635)
 -->
<!-- Pages: 1 -->
<svg width="408pt" height="722pt"
 viewBox="0.00 0.00 407.51 721.83" xmlns="http://www.w3.org/2000/svg" xmlns:xlink="http://www.w3.org/1999/xlink">
<g id="graph0" class="graph" transform="scale(1 1) rotate(0) translate(4 717.83)">
<polygon fill="white" stroke="none" points="-4,4 -4,-717.83 403.51,-717.83 403.51,4 -4,4"/>
<!-- ready
output 0.000 -->
<g id="node1" class="node">
<title>ready
output 0.000</title>
<polygon fill="yellow" stroke="black" points="176.33,-713.83 113.08,-713.83 113.08,-683.33 176.33,-683.33 176.33,-713.83"/>
<text text-anchor="middle" x="144.7" y="-701.28" font-family="Times New Roman,serif" font-size="9.00">ready</text>
<text text-anchor="middle" x="144.7" y="-690.03" font-family="Times New Roman,serif" font-size="9.00">output 0.000</text>
</g>
<!-- key 2923
bias 0.457
h_scaling 0.973
output 0.996 -->
<g id="node5" class="node">
<title>key 2923
bias 0.457
h_scaling 0.973
output 0.996</title>
<ellipse fill="white" stroke="black" cx="117.7" cy="-437.16" rx="50.56" ry="50.56"/>
<text text-anchor="middle" x="117.7" y="-451.11" font-family="Times New Roman,serif" font-size="9.00">key 2923</text>
<text text-anchor="middle" x="117.7" y="-439.86" font-family="Times New Roman,serif" font-size="9.00">bias 0.457</text>
<text text-anchor="middle" x="117.7" y="-428.61" font-family="Times New Roman,serif" font-size="9.00">h_scaling 0.973</text>
<text text-anchor="middle" x="117.7" y="-417.36" font-family="Times New Roman,serif" font-size="9.00">output 0.996</text>
</g>
<!-- ready
output 0.000&#45;&gt;key 2923
bias 0.457
h_scaling 0.973
output 0.996 -->
<g id="edge15" class="edge">
<title>ready
output 0.000&#45;&gt;key 2923
bias 0.457
h_scaling 0.973
output 0.996</title>
<path fill="none" stroke="blue" stroke-width="0.1" d="M143.17,-682.89C139.53,-647.91 130.18,-558.1 123.88,-497.57"/>
<polygon fill="blue" stroke="blue" stroke-width="0.1" points="127.38,-497.33 122.86,-487.74 120.42,-498.05 127.38,-497.33"/>
<text text-anchor="middle" x="149.33" y="-582.6" font-family="Times New Roman,serif" font-size="9.00">&#45;0.361</text>
</g>
<!-- key 131602
bias &#45;0.581
h_scaling 0.026
output 0.150 -->
<g id="node6" class="node">
<title>key 131602
bias &#45;0.581
h_scaling 0.026
output 0.150</title>
<ellipse fill="white" stroke="black" cx="227.7" cy="-585.52" rx="50.56" ry="50.56"/>
<text text-anchor="middle" x="227.7" y="-599.47" font-family="Times New Roman,serif" font-size="9.00">key 131602</text>
<text text-anchor="middle" x="227.7" y="-588.22" font-family="Times New Roman,serif" font-size="9.00">bias &#45;0.581</text>
<text text-anchor="middle" x="227.7" y="-576.97" font-family="Times New Roman,serif" font-size="9.00">h_scaling 0.026</text>
<text text-anchor="middle" x="227.7" y="-565.72" font-family="Times New Roman,serif" font-size="9.00">output 0.150</text>
</g>
<!-- ready
output 0.000&#45;&gt;key 131602
bias &#45;0.581
h_scaling 0.026
output 0.150 -->
<g id="edge10" class="edge">
<title>ready
output 0.000&#45;&gt;key 131602
bias &#45;0.581
h_scaling 0.026
output 0.150</title>
<path fill="none" stroke="red" stroke-width="0.1" d="M155.55,-683.06C164.85,-670.62 178.79,-651.98 191.94,-634.38"/>
<polygon fill="red" stroke="red" stroke-width="0.1" points="194.72,-636.5 197.91,-626.39 189.12,-632.31 194.72,-636.5"/>
<text text-anchor="middle" x="185.83" y="-656.78" font-family="Times New Roman,serif" font-size="9.00">1.000</text>
</g>
<!-- go
output 0.000 -->
<g id="node2" class="node">
<title>go
output 0.000</title>
<polygon fill="green" stroke="black" points="76.33,-600.77 13.08,-600.77 13.08,-570.27 76.33,-570.27 76.33,-600.77"/>
<text text-anchor="middle" x="44.7" y="-588.22" font-family="Times New Roman,serif" font-size="9.00">go</text>
<text text-anchor="middle" x="44.7" y="-576.97" font-family="Times New Roman,serif" font-size="9.00">output 0.000</text>
</g>
<!-- key 42178
bias &#45;0.735
h_scaling 0.730
output 0.164 -->
<g id="node4" class="node">
<title>key 42178
bias &#45;0.735
h_scaling 0.730
output 0.164</title>
<ellipse fill="white" stroke="black" cx="165.7" cy="-50.56" rx="50.56" ry="50.56"/>
<text text-anchor="middle" x="165.7" y="-64.51" font-family="Times New Roman,serif" font-size="9.00">key 42178</text>
<text text-anchor="middle" x="165.7" y="-53.26" font-family="Times New Roman,serif" font-size="9.00">bias &#45;0.735</text>
<text text-anchor="middle" x="165.7" y="-42.01" font-family="Times New Roman,serif" font-size="9.00">h_scaling 0.730</text>
<text text-anchor="middle" x="165.7" y="-30.76" font-family="Times New Roman,serif" font-size="9.00">output 0.164</text>
</g>
<!-- go
output 0.000&#45;&gt;key 42178
bias &#45;0.735
h_scaling 0.730
output 0.164 -->
<g id="edge6" class="edge">
<title>go
output 0.000&#45;&gt;key 42178
bias &#45;0.735
h_scaling 0.730
output 0.164</title>
<path fill="none" stroke="blue" stroke-width="0.1" d="M39.85,-569.92C21.66,-512.4 -37.79,-297.4 36.7,-148.37 52.36,-117.04 83.5,-93.22 111.27,-77.04"/>
<polygon fill="blue" stroke="blue" stroke-width="0.1" points="112.76,-80.22 119.76,-72.27 109.32,-74.12 112.76,-80.22"/>
<text text-anchor="middle" x="15.33" y="-315.12" font-family="Times New Roman,serif" font-size="9.00">&#45;0.935</text>
</g>
<!-- go
output 0.000&#45;&gt;key 2923
bias 0.457
h_scaling 0.973
output 0.996 -->
<g id="edge2" class="edge">
<title>go
output 0.000&#45;&gt;key 2923
bias 0.457
h_scaling 0.973
output 0.996</title>
<path fill="none" stroke="red" stroke-width="0.1" d="M51.97,-569.95C61.01,-551.82 76.98,-519.81 90.9,-491.89"/>
<polygon fill="red" stroke="red" stroke-width="0.1" points="94.01,-493.5 95.34,-482.99 87.75,-490.37 94.01,-493.5"/>
<text text-anchor="middle" x="93.83" y="-508.42" font-family="Times New Roman,serif" font-size="9.00">0.952</text>
</g>
<!-- output
bias 0.227
h_scaling 0.438
output 0.022 -->
<g id="node3" class="node">
<title>output
bias 0.227
h_scaling 0.438
output 0.022</title>
<ellipse fill="lightblue" stroke="black" cx="96.7" cy="-198.92" rx="50.56" ry="50.56"/>
<text text-anchor="middle" x="96.7" y="-212.87" font-family="Times New Roman,serif" font-size="9.00">output</text>
<text text-anchor="middle" x="96.7" y="-201.62" font-family="Times New Roman,serif" font-size="9.00">bias 0.227</text>
<text text-anchor="middle" x="96.7" y="-190.37" font-family="Times New Roman,serif" font-size="9.00">h_scaling 0.438</text>
<text text-anchor="middle" x="96.7" y="-179.12" font-family="Times New Roman,serif" font-size="9.00">output 0.022</text>
</g>
<!-- output
bias 0.227
h_scaling 0.438
output 0.022&#45;&gt;key 42178
bias &#45;0.735
h_scaling 0.730
output 0.164 -->
<g id="edge9" class="edge">
<title>output
bias 0.227
h_scaling 0.438
output 0.022&#45;&gt;key 42178
bias &#45;0.735
h_scaling 0.730
output 0.164</title>
<path fill="none" stroke="blue" stroke-width="0.1" d="M94.48,-147.92C95.48,-138.08 97.57,-128.04 101.45,-119.12 105.9,-108.9 112.59,-99.29 120.02,-90.71"/>
<polygon fill="blue" stroke="blue" stroke-width="0.1" points="122.51,-93.17 126.68,-83.43 117.35,-88.44 122.51,-93.17"/>
<text text-anchor="middle" x="113.33" y="-121.82" font-family="Times New Roman,serif" font-size="9.00">&#45;0.860</text>
</g>
<!-- output
bias 0.227
h_scaling 0.438
output 0.022&#45;&gt;key 2923
bias 0.457
h_scaling 0.973
output 0.996 -->
<g id="edge3" class="edge">
<title>output
bias 0.227
h_scaling 0.438
output 0.022&#45;&gt;key 2923
bias 0.457
h_scaling 0.973
output 0.996</title>
<path fill="none" stroke="red" stroke-width="0.1" d="M106.13,-248.9C107.11,-255.14 108.01,-261.45 108.7,-267.48 112.85,-303.52 115.09,-344.12 116.3,-376.45"/>
<polygon fill="red" stroke="red" stroke-width="0.1" points="112.79,-376.33 116.64,-386.2 119.79,-376.09 112.79,-376.33"/>
<text text-anchor="middle" x="126.83" y="-315.12" font-family="Times New Roman,serif" font-size="9.00">0.518</text>
</g>
<!-- key 42178
bias &#45;0.735
h_scaling 0.730
output 0.164&#45;&gt;output
bias 0.227
h_scaling 0.438
output 0.022 -->
<g id="edge16" class="edge">
<title>key 42178
bias &#45;0.735
h_scaling 0.730
output 0.164&#45;&gt;output
bias 0.227
h_scaling 0.438
output 0.022</title>
<path fill="none" stroke="red" stroke-width="0.1" d="M144.39,-96.77C137.37,-111.66 129.49,-128.38 122.19,-143.86"/>
<polygon fill="red" stroke="red" stroke-width="0.1" points="119.07,-142.28 117.97,-152.82 125.4,-145.26 119.07,-142.28"/>
<text text-anchor="middle" x="142.83" y="-121.82" font-family="Times New Roman,serif" font-size="9.00">0.204</text>
</g>
<!-- key 42178
bias &#45;0.735
h_scaling 0.730
output 0.164&#45;&gt;key 42178
bias &#45;0.735
h_scaling 0.730
output 0.164 -->
<g id="edge8" class="edge">
<title>key 42178
bias &#45;0.735
h_scaling 0.730
output 0.164&#45;&gt;key 42178
bias &#45;0.735
h_scaling 0.730
output 0.164</title>
<path fill="none" stroke="red" stroke-width="0.1" d="M214.69,-64.16C225.97,-62.99 234.26,-58.45 234.26,-50.56 234.26,-45.13 230.34,-41.29 224.23,-39.04"/>
<polygon fill="red" stroke="red" stroke-width="0.1" points="225.21,-35.67 214.69,-36.96 223.72,-42.51 225.21,-35.67"/>
<text text-anchor="middle" x="244.38" y="-47.63" font-family="Times New Roman,serif" font-size="9.00">0.946</text>
</g>
<!-- key 42178
bias &#45;0.735
h_scaling 0.730
output 0.164&#45;&gt;key 2923
bias 0.457
h_scaling 0.973
output 0.996 -->
<g id="edge5" class="edge">
<title>key 42178
bias &#45;0.735
h_scaling 0.730
output 0.164&#45;&gt;key 2923
bias 0.457
h_scaling 0.973
output 0.996</title>
<path fill="none" stroke="blue" stroke-width="0.1" d="M166.41,-101.43C166.26,-164.49 162.46,-276.02 140.7,-368.6 139.83,-372.29 138.84,-376.07 137.77,-379.86"/>
<polygon fill="blue" stroke="blue" stroke-width="0.1" points="134.48,-378.67 134.97,-389.25 141.19,-380.67 134.48,-378.67"/>
<text text-anchor="middle" x="176.33" y="-196" font-family="Times New Roman,serif" font-size="9.00">&#45;0.967</text>
</g>
<!-- key 2923
bias 0.457
h_scaling 0.973
output 0.996&#45;&gt;output
bias 0.227
h_scaling 0.438
output 0.022 -->
<g id="edge1" class="edge">
<title>key 2923
bias 0.457
h_scaling 0.973
output 0.996&#45;&gt;output
bias 0.227
h_scaling 0.438
output 0.022</title>
<path fill="none" stroke="blue" stroke-width="0.1" d="M93.43,-392.48C90.13,-384.73 87.26,-376.58 85.45,-368.6 77.32,-332.67 79.86,-291.43 84.57,-258.71"/>
<polygon fill="blue" stroke="blue" stroke-width="0.1" points="88.03,-259.27 86.09,-248.85 81.11,-258.2 88.03,-259.27"/>
<text text-anchor="middle" x="97.33" y="-315.12" font-family="Times New Roman,serif" font-size="9.00">&#45;0.983</text>
</g>
<!-- key 2923
bias 0.457
h_scaling 0.973
output 0.996&#45;&gt;key 2923
bias 0.457
h_scaling 0.973
output 0.996 -->
<g id="edge4" class="edge">
<title>key 2923
bias 0.457
h_scaling 0.973
output 0.996&#45;&gt;key 2923
bias 0.457
h_scaling 0.973
output 0.996</title>
<path fill="none" stroke="red" stroke-width="0.1" d="M166.69,-450.76C177.97,-449.59 186.26,-445.05 186.26,-437.16 186.26,-431.73 182.34,-427.89 176.23,-425.64"/>
<polygon fill="red" stroke="red" stroke-width="0.1" points="177.21,-422.27 166.69,-423.55 175.72,-429.11 177.21,-422.27"/>
<text text-anchor="middle" x="196.38" y="-434.23" font-family="Times New Roman,serif" font-size="9.00">0.791</text>
</g>
<!-- key 131602
bias &#45;0.581
h_scaling 0.026
output 0.150&#45;&gt;key 42178
bias &#45;0.735
h_scaling 0.730
output 0.164 -->
<g id="edge13" class="edge">
<title>key 131602
bias &#45;0.581
h_scaling 0.026
output 0.150&#45;&gt;key 42178
bias &#45;0.735
h_scaling 0.730
output 0.164</title>
<path fill="none" stroke="red" stroke-width="0.1" d="M226.79,-534.72C224.59,-453.28 217.09,-286.81 191.7,-148.37 189.35,-135.54 186.15,-121.94 182.8,-109.1"/>
<polygon fill="red" stroke="red" stroke-width="0.1" points="186.18,-108.22 180.21,-99.46 179.42,-110.03 186.18,-108.22"/>
<text text-anchor="middle" x="227.83" y="-315.12" font-family="Times New Roman,serif" font-size="9.00">0.231</text>
</g>
<!-- key 131602
bias &#45;0.581
h_scaling 0.026
output 0.150&#45;&gt;key 2923
bias 0.457
h_scaling 0.973
output 0.996 -->
<g id="edge11" class="edge">
<title>key 131602
bias &#45;0.581
h_scaling 0.026
output 0.150&#45;&gt;key 2923
bias 0.457
h_scaling 0.973
output 0.996</title>
<path fill="none" stroke="blue" stroke-width="0.1" d="M197.64,-544.53C184.06,-526.46 167.91,-504.96 153.69,-486.04"/>
<polygon fill="blue" stroke="blue" stroke-width="0.1" points="156.53,-484 147.72,-478.1 150.93,-488.2 156.53,-484"/>
<text text-anchor="middle" x="187.33" y="-508.42" font-family="Times New Roman,serif" font-size="9.00">&#45;0.677</text>
</g>
<!-- key 131602
bias &#45;0.581
h_scaling 0.026
output 0.150&#45;&gt;key 131602
bias &#45;0.581
h_scaling 0.026
output 0.150 -->
<g id="edge12" class="edge">
<title>key 131602
bias &#45;0.581
h_scaling 0.026
output 0.150&#45;&gt;key 131602
bias &#45;0.581
h_scaling 0.026
output 0.150</title>
<path fill="none" stroke="red" stroke-width="0.1" d="M276.69,-599.13C287.97,-597.95 296.26,-593.42 296.26,-585.52 296.26,-580.09 292.34,-576.25 286.23,-574"/>
<polygon fill="red" stroke="red" stroke-width="0.1" points="287.21,-570.64 276.69,-571.92 285.72,-577.47 287.21,-570.64"/>
<text text-anchor="middle" x="306.38" y="-582.6" font-family="Times New Roman,serif" font-size="9.00">0.916</text>
</g>
<!-- key 69010
bias &#45;0.093
h_scaling 0.960
output 0.760 -->
<g id="node7" class="node">
<title>key 69010
bias &#45;0.093
h_scaling 0.960
output 0.760</title>
<ellipse fill="white" stroke="black" cx="310.7" cy="-318.04" rx="50.56" ry="50.56"/>
<text text-anchor="middle" x="310.7" y="-331.99" font-family="Times New Roman,serif" font-size="9.00">key 69010</text>
<text text-anchor="middle" x="310.7" y="-320.74" font-family="Times New Roman,serif" font-size="9.00">bias &#45;0.093</text>
<text text-anchor="middle" x="310.7" y="-309.49" font-family="Times New Roman,serif" font-size="9.00">h_scaling 0.960</text>
<text text-anchor="middle" x="310.7" y="-298.24" font-family="Times New Roman,serif" font-size="9.00">output 0.760</text>
</g>
<!-- key 131602
bias &#45;0.581
h_scaling 0.026
output 0.150&#45;&gt;key 69010
bias &#45;0.093
h_scaling 0.960
output 0.760 -->
<g id="edge14" class="edge">
<title>key 131602
bias &#45;0.581
h_scaling 0.026
output 0.150&#45;&gt;key 69010
bias &#45;0.093
h_scaling 0.960
output 0.760</title>
<path fill="none" stroke="red" stroke-width="0.1" d="M242.64,-536.75C256.77,-491.55 277.99,-423.66 292.98,-375.73"/>
<polygon fill="red" stroke="red" stroke-width="0.1" points="296.24,-377.02 295.89,-366.43 289.56,-374.93 296.24,-377.02"/>
<text text-anchor="middle" x="261.83" y="-508.42" font-family="Times New Roman,serif" font-size="9.00">0.993</text>
</g>
<!-- key 69010
bias &#45;0.093
h_scaling 0.960
output 0.760&#45;&gt;key 42178
bias &#45;0.735
h_scaling 0.730
output 0.164 -->
<g id="edge7" class="edge">
<title>key 69010
bias &#45;0.093
h_scaling 0.960
output 0.760&#45;&gt;key 42178
bias &#45;0.735
h_scaling 0.730
output 0.164</title>
<path fill="none" stroke="red" stroke-width="0.1" d="M303.44,-267.6C295.4,-225.3 279.31,-164.28 248.7,-119.12 239.9,-106.12 227.87,-94.35 215.7,-84.41"/>
<polygon fill="red" stroke="red" stroke-width="0.1" points="218.15,-81.89 208.13,-78.46 213.83,-87.39 218.15,-81.89"/>
<text text-anchor="middle" x="308.83" y="-196" font-family="Times New Roman,serif" font-size="9.00">0.428</text>
</g>
<!-- key 69010
bias &#45;0.093
h_scaling 0.960
output 0.760&#45;&gt;key 69010
bias &#45;0.093
h_scaling 0.960
output 0.760 -->
<g id="edge17" class="edge">
<title>key 69010
bias &#45;0.093
h_scaling 0.960
output 0.760&#45;&gt;key 69010
bias &#45;0.093
h_scaling 0.960
output 0.760</title>
<path fill="none" stroke="red" stroke-width="0.1" d="M356.52,-340.26C369.38,-339.29 379.26,-331.88 379.26,-318.04 379.26,-307.98 374.05,-301.32 366.26,-298.06"/>
<polygon fill="red" stroke="red" stroke-width="0.1" points="367.05,-294.65 356.52,-295.82 365.48,-301.47 367.05,-294.65"/>
<text text-anchor="middle" x="389.38" y="-315.12" font-family="Times New Roman,serif" font-size="9.00">0.081</text>
</g>
</g>
</svg>
